<svg xmlns="http://www.w3.org/2000/svg" width="946" height="766.003" viewBox="0 0 946 766.003">
  <g id="Group_4435" data-name="Group 4435" transform="translate(-3304 -5726.997)">
    <g id="Group_4434" data-name="Group 4434" transform="translate(-655 2140.155)">
      <path id="Path_8595" data-name="Path 8595" d="M290.651-154.845S435.187-86.721,506.524,84.241,576,529,576,529s-89.672-1.659-168.716,22.6c-44.755,13.736-116.633,59.558-116.633,59.558s-85.134-54.77-131.972-69.173C80.418,517.918,0,529,0,529S-4.848,255.2,67.814,84.241,290.651-154.845,290.651-154.845Z" transform="translate(4728.773 4198) rotate(180)" fill="#fff"/>
      <path id="Path_8595_-_Outline" data-name="Path 8595 - Outline" d="M290.172-109.345C251.529-87.007,156.48-22.112,104.627,99.887,52.556,222.4,42.281,405.033,40.363,486.489q2.926-.036,5.988-.037c30.945,0,77.592,3,124.085,17.3,36.906,11.349,90.5,42.2,120.4,60.39,26.345-15.643,70.779-40.367,104.712-50.781,50.364-15.457,103.742-21.175,139.789-23.247C532.9,410.3,521.6,224.253,469.609,99.644,419.208-21.143,327.67-86.572,290.172-109.345m.479-45.5S435.187-86.721,506.524,84.241,576,529,576,529s-89.672-1.659-168.716,22.6c-44.755,13.736-116.633,59.558-116.633,59.558s-85.134-54.77-131.972-69.173C80.418,517.918,0,529,0,529S-4.848,255.2,67.814,84.241,290.651-154.845,290.651-154.845Z" transform="translate(4728.773 4198) rotate(180)" fill="#16313a"/>
      <g id="_611250368" transform="translate(4348.354 3715.358)">
        <path id="Path_8643" data-name="Path 8643" d="M9303.519,2726.56l-15.519,2.3c13.484,15.443,11.639,6.93,8.663,26.667,4.144-1.356,11.488-6.177,14.426-6.215,3.616-.038,9.681,4.9,13.974,6.366-1.808-14.087-5.386-13.108,3.314-21.13,2.977-2.75,3.578-2.448,5.35-5.914-22.675-2.3-12.845-1.356-22.713-15.631-3.013,2.787-5.612,9.53-7.457,13.6Z" transform="translate(-9221.633 -2713)" fill="#16313a" fill-rule="evenodd"/>
        <path id="Path_8644" data-name="Path 8644" d="M11236.519,2726.56l-15.519,2.3c13.484,15.443,11.639,6.93,8.664,26.667,4.143-1.356,11.487-6.177,14.426-6.215,3.615-.038,9.68,4.9,13.974,6.366-1.808-14.087-5.386-13.108,3.314-21.13,2.976-2.75,3.578-2.448,5.349-5.914-22.675-2.3-12.844-1.356-22.713-15.631-3.013,2.787-5.611,9.53-7.457,13.6Z" transform="translate(-11081.826 -2713)" fill="#16313a" fill-rule="evenodd"/>
        <path id="Path_8645" data-name="Path 8645" d="M7541.518,2726.56l-15.518,2.3c13.484,15.443,11.639,6.93,8.663,26.667,4.143-1.356,11.488-6.177,14.426-6.215,3.616-.038,9.68,4.9,13.974,6.366-1.808-14.087-5.386-13.108,3.315-21.13,2.976-2.75,3.578-2.448,5.348-5.914-22.674-2.3-12.844-1.356-22.712-15.631-3.014,2.787-5.612,9.53-7.458,13.6Z" transform="translate(-7526 -2713)" fill="#16313a" fill-rule="evenodd"/>
      </g>
      <path id="Path_8647" data-name="Path 8647" d="M3123.517,7696.748v-27.218H3113v-2.744h24.214v2.744H3126.7v27.218h-3.179Zm24.91.217a11.565,11.565,0,0,1-5.836-1.48,10.809,10.809,0,0,1-4.094-4.072,12.468,12.468,0,0,1,0-11.867,10.8,10.8,0,0,1,4.072-4.028,11.578,11.578,0,0,1,5.857-1.459,11.767,11.767,0,0,1,5.923,1.459,10.793,10.793,0,0,1,4.072,4.028,12.629,12.629,0,0,1,0,11.867,10.656,10.656,0,0,1-4.094,4.072A11.812,11.812,0,0,1,3148.428,7696.965Zm0-2.7a8.452,8.452,0,0,0,4.311-1.089,7.929,7.929,0,0,0,2.983-3.07,10.283,10.283,0,0,0,0-9.21,7.929,7.929,0,0,0-2.983-3.07,8.951,8.951,0,0,0-8.557,0,7.841,7.841,0,0,0-3.005,3.07,10.105,10.105,0,0,0,0,9.21,7.835,7.835,0,0,0,3.005,3.07A8.379,8.379,0,0,0,3148.428,7694.265Zm29.265,2.7a10.487,10.487,0,0,1-5.27-1.35,9.8,9.8,0,0,1-3.745-3.9,12.719,12.719,0,0,1-1.394-6.228,12.97,12.97,0,0,1,1.372-6.228,9.549,9.549,0,0,1,3.724-3.876,10.521,10.521,0,0,1,5.313-1.328,11.5,11.5,0,0,1,5.749,1.437,10.327,10.327,0,0,1,4.007,4.028,12.976,12.976,0,0,1,0,11.955,10.621,10.621,0,0,1-4.007,4.028A11.281,11.281,0,0,1,3177.693,7696.965Zm-11.606,8.079v-30.768H3169v6.75l-.3,4.486.435,4.529v14.98h-3.048Zm11.388-10.778a8.4,8.4,0,0,0,4.268-1.089,7.985,7.985,0,0,0,3.005-3.07,9.259,9.259,0,0,0,1.11-4.594,9.117,9.117,0,0,0-1.11-4.573,8.142,8.142,0,0,0-3.005-3.07,8.263,8.263,0,0,0-4.268-1.11,8.48,8.48,0,0,0-4.312,1.11,8.143,8.143,0,0,0-3,3.07,9.342,9.342,0,0,0-1.089,4.573,9.487,9.487,0,0,0,1.089,4.594,7.555,7.555,0,0,0,3,3.07A8.569,8.569,0,0,0,3177.475,7694.265Zm29.483,2.482v-29.962h12.194a17.856,17.856,0,0,1,8.405,1.895,13.726,13.726,0,0,1,5.618,5.292,14.843,14.843,0,0,1,2,7.8,15.1,15.1,0,0,1-2,7.795,14.3,14.3,0,0,1-5.618,5.292,17.85,17.85,0,0,1-8.405,1.895Zm3.157-2.744h8.862a14.363,14.363,0,0,0,6.9-1.568,11.339,11.339,0,0,0,4.551-4.333,13.237,13.237,0,0,0,0-12.738,11.376,11.376,0,0,0-4.551-4.289,14.478,14.478,0,0,0-6.9-1.568h-8.862V7694Zm41.067,2.961a12.524,12.524,0,0,1-6.162-1.48,10.679,10.679,0,0,1-4.159-4.072,11.573,11.573,0,0,1-1.5-5.923,11.841,11.841,0,0,1,1.437-5.9,10.515,10.515,0,0,1,3.941-4.05,11.548,11.548,0,0,1,11.236-.043,10.157,10.157,0,0,1,3.876,4.028,12.331,12.331,0,0,1,1.415,5.966,3.384,3.384,0,0,1-.022.458,3.655,3.655,0,0,0-.022.5h-19.554v-2.264h17.921l-1.2.893a8.8,8.8,0,0,0-1.045-4.333,7.833,7.833,0,0,0-2.853-2.983,7.936,7.936,0,0,0-4.159-1.067,8.1,8.1,0,0,0-4.159,1.067,7.641,7.641,0,0,0-2.874,3,9.3,9.3,0,0,0-1.023,4.4v.479a8.663,8.663,0,0,0,1.132,4.507,8.022,8.022,0,0,0,3.157,3.049,9.728,9.728,0,0,0,4.638,1.089,10.168,10.168,0,0,0,3.832-.719,8.061,8.061,0,0,0,3.07-2.221l1.72,1.959a9.683,9.683,0,0,1-3.745,2.744,12.579,12.579,0,0,1-4.943.936Zm21.644-.217-9.973-22.472h3.157l9.146,20.838h-1.5l9.276-20.838h3l-10.016,22.472h-3.092Zm26.3.217a12.525,12.525,0,0,1-6.162-1.48,10.678,10.678,0,0,1-4.159-4.072,11.571,11.571,0,0,1-1.5-5.923,11.843,11.843,0,0,1,1.437-5.9,10.517,10.517,0,0,1,3.941-4.05,11.548,11.548,0,0,1,11.236-.043,10.153,10.153,0,0,1,3.876,4.028,12.325,12.325,0,0,1,1.416,5.966,3.384,3.384,0,0,1-.022.458,3.7,3.7,0,0,0-.022.5h-19.554v-2.264h17.921l-1.2.893a8.8,8.8,0,0,0-1.045-4.333,7.83,7.83,0,0,0-2.853-2.983,7.937,7.937,0,0,0-4.159-1.067,8.1,8.1,0,0,0-4.159,1.067,7.64,7.64,0,0,0-2.875,3,9.3,9.3,0,0,0-1.023,4.4v.479a8.665,8.665,0,0,0,1.132,4.507,8.024,8.024,0,0,0,3.157,3.049,9.728,9.728,0,0,0,4.638,1.089,10.17,10.17,0,0,0,3.833-.719,8.062,8.062,0,0,0,3.07-2.221l1.72,1.959a9.683,9.683,0,0,1-3.745,2.744,12.576,12.576,0,0,1-4.943.936Zm16.309-.217V7665h3.048v31.748Zm20.664.217a11.566,11.566,0,0,1-5.836-1.48,10.809,10.809,0,0,1-4.094-4.072,12.468,12.468,0,0,1,0-11.867,10.8,10.8,0,0,1,4.072-4.028,11.576,11.576,0,0,1,5.857-1.459,11.767,11.767,0,0,1,5.923,1.459,10.793,10.793,0,0,1,4.072,4.028,12.627,12.627,0,0,1,0,11.867,10.656,10.656,0,0,1-4.094,4.072A11.811,11.811,0,0,1,3336.1,7696.965Zm0-2.7a8.452,8.452,0,0,0,4.311-1.089,7.931,7.931,0,0,0,2.983-3.07,10.283,10.283,0,0,0,0-9.21,7.927,7.927,0,0,0-2.983-3.07,8.951,8.951,0,0,0-8.557,0,7.843,7.843,0,0,0-3.005,3.07,10.105,10.105,0,0,0,0,9.21,7.837,7.837,0,0,0,3.005,3.07A8.381,8.381,0,0,0,3336.1,7694.265Zm29.265,2.7a10.487,10.487,0,0,1-5.269-1.35,9.8,9.8,0,0,1-3.745-3.9,12.721,12.721,0,0,1-1.394-6.228,12.97,12.97,0,0,1,1.372-6.228,9.548,9.548,0,0,1,3.723-3.876,10.521,10.521,0,0,1,5.313-1.328,11.5,11.5,0,0,1,5.749,1.437,10.327,10.327,0,0,1,4.007,4.028,12.974,12.974,0,0,1,0,11.955,10.621,10.621,0,0,1-4.007,4.028A11.28,11.28,0,0,1,3365.369,7696.965Zm-11.606,8.079v-30.768h2.918v6.75l-.3,4.486.436,4.529v14.98h-3.049Zm11.388-10.778a8.4,8.4,0,0,0,4.268-1.089,7.982,7.982,0,0,0,3-3.07,9.256,9.256,0,0,0,1.111-4.594,9.115,9.115,0,0,0-1.111-4.573,8.14,8.14,0,0,0-3-3.07,8.262,8.262,0,0,0-4.268-1.11,8.478,8.478,0,0,0-4.311,1.11,8.14,8.14,0,0,0-3,3.07,9.339,9.339,0,0,0-1.089,4.573,9.485,9.485,0,0,0,1.089,4.594,7.554,7.554,0,0,0,3,3.07A8.567,8.567,0,0,0,3365.152,7694.265Zm27.175,2.7a12.524,12.524,0,0,1-6.162-1.48,10.678,10.678,0,0,1-4.159-4.072,11.571,11.571,0,0,1-1.5-5.923,11.843,11.843,0,0,1,1.437-5.9,10.518,10.518,0,0,1,3.941-4.05,11.547,11.547,0,0,1,11.236-.043,10.154,10.154,0,0,1,3.876,4.028,12.328,12.328,0,0,1,1.415,5.966,3.384,3.384,0,0,1-.022.458,3.7,3.7,0,0,0-.022.5h-19.554v-2.264h17.921l-1.2.893a8.8,8.8,0,0,0-1.045-4.333,7.83,7.83,0,0,0-2.853-2.983,7.936,7.936,0,0,0-4.159-1.067,8.1,8.1,0,0,0-4.159,1.067,7.641,7.641,0,0,0-2.874,3,9.3,9.3,0,0,0-1.023,4.4v.479a8.665,8.665,0,0,0,1.132,4.507,8.025,8.025,0,0,0,3.157,3.049,9.729,9.729,0,0,0,4.638,1.089,10.168,10.168,0,0,0,3.832-.719,8.065,8.065,0,0,0,3.07-2.221l1.72,1.959a9.683,9.683,0,0,1-3.745,2.744,12.578,12.578,0,0,1-4.943.936Zm16.309-.217v-22.472h2.918v6.119l-.3-1.067a7.372,7.372,0,0,1,3.157-3.919,10.566,10.566,0,0,1,5.531-1.35v2.961a1.979,1.979,0,0,1-.349-.022,1.78,1.78,0,0,0-.348-.021,7.184,7.184,0,0,0-5.553,2.156,8.623,8.623,0,0,0-2,6.14v11.476Z" transform="translate(1174.337 -3855.75)" fill="#16313a"/>
    </g>
    <path id="Path_8648" data-name="Path 8648" d="M144,0H0V165H144L78.331,81.286Z" transform="translate(4106 6127)" fill="#16313a"/>
    <path id="Path_8649" data-name="Path 8649" d="M0,0H144V165H0L65.669,81.286Z" transform="translate(3304 6127)" fill="#16313a"/>
    <path id="Path_8650" data-name="Path 8650" d="M0,0H721V175H0Z" transform="translate(3417 6065)" fill="#fff"/>
    <path id="Rectangle_8964_-_Outline" data-name="Rectangle 8964 - Outline" d="M14,14V161H707V14H14M0,0H721V175H0Z" transform="translate(3417 6065)" fill="#16313a"/>
    <g id="_611251952" transform="translate(3626.395 6109.999)">
      <path id="Path_8636" data-name="Path 8636" d="M5477.114,12922.543c-1.951-3.971-4.807-6.687-9.3-9.475-7.767,5.887-16.545,14.246-32.672,8.742-32.707-11.18-17.834-69.07,18.565-56.322,8.359,2.926,9.161,6.061,14.386,9.092,3.344-2.684,7.141-5.818,8.952-9.858-16.476-25.009-73.878-19.958-74.052,28.911-.1,32.776,28.422,49.914,53.919,42.46,7.977-2.334,17.8-8.673,20.237-13.55Z" transform="translate(-5402.992 -12847.166)" fill="#16313a" fill-rule="evenodd"/>
      <path id="Path_8637" data-name="Path 8637" d="M13047.351,12858.344c0-22.955-4.459-45.107,11.843-47.128,11.355-1.428,12.33,7.872,12.261,17.591-.035,9.717-.035,19.4-.035,29.4l14.246.14c0-12.748,2.021-40.3-3.135-49.775-10.624-19.506-32.673-8.463-35.18-8.115l-.487-31.453h-13.828l-.035,89.344h14.351Z" transform="translate(-12767.233 -12769)" fill="#16313a" fill-rule="evenodd"/>
      <path id="Path_8638" data-name="Path 8638" d="M8507.265,13604.488c0,11.912-1.707,38.036,2.4,47.545,4.842,11.251,21.631,18.5,34.31,9.753,6.27,2.229-2.786,2.438,15.918,2.438l.035-60.189H8545.58c0,23.65,4.492,45.072-12.156,47.092-11.635,1.429-12.018-7.384-11.982-17.52q.051-14.786,0-29.607l-14.246.488Z" transform="translate(-8398.798 -13574.915)" fill="#16313a" fill-rule="evenodd"/>
      <path id="Path_8639" data-name="Path 8639" d="M11317.411,13619.291c-2.856-4.562-5.434-7.176-9.475-9.475-5.747,3.937-10.8,8.047-20.1,5.051-5.991-1.916-10.9-8.046-11.216-15.6-.627-15.151,15.152-21.839,26.507-15.222.662.383,1.812,1.219,2.021,1.359,2.577,1.74-.209.243,2.786,1.881a35.548,35.548,0,0,0,9.544-9.405c-4.214-4-6.13-6.548-13.688-8.987-18.427-5.99-40.579,4.808-41.241,28.215C11261.61,13629.88,11301.842,13640.086,11317.411,13619.291Z" transform="translate(-11058.436 -13539.456)" fill="#16313a" fill-rule="evenodd"/>
      <path id="Path_8640" data-name="Path 8640" d="M10237.581,13104.461v-30.652c0-19.854-3.553-14.246,11.39-16.51v-12.609c-7.175-1.08-11.007,2.021-11.494-4.18-.418-5.434.592-10.623-.313-16.51H10223.4l-.1,20.1-9.3.174.174,13.341,9.161.522v46.326h14.246Z" transform="translate(-10046.424 -13015.118)" fill="#16313a" fill-rule="evenodd"/>
      <path id="Path_8641" data-name="Path 8641" d="M7782.418,12859.239l13.549-.1-.208-89.135-13.759.174Z" transform="translate(-7699.135 -12769.965)" fill="#16313a" fill-rule="evenodd"/>
      <path id="Path_8642" data-name="Path 8642" d="M11843.633,14185.806c1.638,12.331,22.362,12.191,20.76-3.31C11863.069,14169.539,11841.718,14171.455,11843.633,14185.806Z" transform="translate(-11619.177 -14124.885)" fill="#e31e24" fill-rule="evenodd"/>
    </g>
  </g>
</svg>
