<svg xmlns="http://www.w3.org/2000/svg" width="946" height="766.003" viewBox="0 0 946 766.003"><g transform="translate(-3304 -5726.997)"><g transform="translate(-655 2140.155)"><path d="M290.651-154.845S435.187-86.721,506.524,84.241,576,529,576,529s-89.672-1.659-168.716,22.6c-44.755,13.736-116.633,59.558-116.633,59.558s-85.134-54.77-131.972-69.173C80.418,517.918,0,529,0,529S-4.848,255.2,67.814,84.241,290.651-154.845,290.651-154.845Z" transform="translate(4728.773 4198) rotate(180)"/><path d="M290.172-109.345C251.529-87.007,156.48-22.112,104.627,99.887,52.556,222.4,42.281,405.033,40.363,486.489q2.926-.036,5.988-.037c30.945,0,77.592,3,124.085,17.3,36.906,11.349,90.5,42.2,120.4,60.39,26.345-15.643,70.779-40.367,104.712-50.781,50.364-15.457,103.742-21.175,139.789-23.247C532.9,410.3,521.6,224.253,469.609,99.644,419.208-21.143,327.67-86.572,290.172-109.345m.479-45.5S435.187-86.721,506.524,84.241,576,529,576,529s-89.672-1.659-168.716,22.6c-44.755,13.736-116.633,59.558-116.633,59.558s-85.134-54.77-131.972-69.173C80.418,517.918,0,529,0,529S-4.848,255.2,67.814,84.241,290.651-154.845,290.651-154.845Z" transform="translate(4728.773 4198) rotate(180)" fill="#e60019"/><path d="M19274.5,626.506q-28.3-.009-56.6-.015c-1.117-2.577-.17-5.226.275-7.669.232-1.284,3.051-1.06,4.559-1.206,2.783-.269,3.232-1.392,3.225-3.888-.092-22.756-.127-45.509.039-68.265.023-2.828-1.105-3.491-3.365-3.679-.713-.057-1.428-.173-2.143-.161-2.752.039-3.838-.869-3.4-3.969.643-4.548.361-4.59,5-4.59,16.2,0,32.395.066,48.584-.063,2.691-.021,3.229.75,2.99,3.291-.516,5.5-.789,11.034-.971,16.559-.074,2.186-.666,3.294-3.027,2.912-.906-.149-1.844-.075-2.764-.134-6.053-.4-6.053-.4-5.912-6.573q-.053-1.756-.105-3.506c-.58-1.419-.395-2.933-.537-4.408q-8.6-.014-17.205-.03c-.023,10.443-.01,20.886-.109,31.327-.02,1.86.488,2.661,2.412,2.407a10.046,10.046,0,0,1,2.76,0c2,.3,2.8-.693,2.951-2.512a4.549,4.549,0,0,1,.1-.6c1.045-4.706,3.213-5.9,7.9-4.453a1.347,1.347,0,0,1,1.129,1.505c-.012,6.654-.025,13.31.008,19.964.006,1.186-.459,1.7-1.623,1.616a2.105,2.105,0,0,0-.307,0c-5.887.424-5.881.424-7.189-5.253-.205-.89-.48-1.765-.723-2.646q-3.639-.013-7.27-.018c-.039,11.253-.053,22.505-.131,33.758-.012,1.466.49,1.959,1.941,1.938,4.5-.066,9-.1,13.5.015,1.84.048,2.207-.83,2.354-2.371.35-3.757.926-7.5,1.209-11.258.127-1.7.895-1.986,2.332-1.872,2.648.206,5.307.32,7.963.472.711.042,1.494-.036,1.58.991a176.162,176.162,0,0,1,.566,22.383Z" transform="translate(-14805.019 3179.644)" fill="#e60019"/><path d="M19274.98,627.007h-.477L19246.84,627l-28.936-.008h-.328l-.131-.3c-.977-2.254-.475-4.572-.033-6.617.1-.464.2-.9.275-1.34.256-1.412,2.309-1.492,3.957-1.556.385-.015.746-.029,1.045-.058,2.4-.232,2.781-1.01,2.773-3.389-.08-20.033-.139-43.81.039-68.27a3.289,3.289,0,0,0-.674-2.466,3.525,3.525,0,0,0-2.232-.711c-.23-.018-.465-.043-.689-.067a12.449,12.449,0,0,0-1.309-.093l-.268,0c-1.562,0-2.531-.314-3.145-1.019-.637-.732-.824-1.851-.59-3.52.039-.265.072-.514.105-.748.279-2.038.42-3.061,1.191-3.67s1.982-.6,4.2-.6c4.1,0,8.26,0,12.287.008s8.191.008,12.287.008c9.67,0,17.074-.025,24.006-.08h.109c1.461,0,2.311.246,2.836.824a3.924,3.924,0,0,1,.547,3.014c-.447,4.768-.756,10.021-.969,16.529a4.744,4.744,0,0,1-.574,2.462,2.344,2.344,0,0,1-2.115,1.008,5.815,5.815,0,0,1-.918-.081,10.824,10.824,0,0,0-1.648-.1c-.35,0-.709-.007-1.068-.03-3.156-.209-4.742-.314-5.617-1.288s-.834-2.578-.762-5.783q-.018-.6-.037-1.195c-.021-.737-.045-1.474-.066-2.21a9.237,9.237,0,0,1-.469-3.161c-.01-.291-.018-.572-.033-.85-5.326-.008-10.824-.017-16.244-.028,0,2.415-.008,4.86-.012,7.229-.01,7.736-.021,15.735-.1,23.6a2.424,2.424,0,0,0,.367,1.677,1.242,1.242,0,0,0,.91.271,4.433,4.433,0,0,0,.57-.042,10.582,10.582,0,0,1,2.9,0,4.022,4.022,0,0,0,.584.046c.84,0,1.641-.255,1.795-2.105a5.129,5.129,0,0,1,.111-.671c.832-3.748,2.434-5.42,5.191-5.42a11.513,11.513,0,0,1,3.342.6,1.835,1.835,0,0,1,1.482,1.983l0,.8c-.01,6.282-.021,12.777.01,19.164a2.216,2.216,0,0,1-.523,1.646,1.843,1.843,0,0,1-1.361.482q-.132,0-.275-.011h-.008a1.877,1.877,0,0,0-.229,0c-1.27.091-2.271.164-3.08.164-1.436,0-2.469-.209-3.184-1.249-.6-.872-.916-2.251-1.441-4.535l0-.019c-.137-.593-.311-1.2-.479-1.779-.045-.158-.092-.319-.137-.481-1.5-.005-3.006-.008-4.471-.011l-1.922,0q-.015,4.52-.027,9.039c-.021,7.938-.045,16.147-.1,24.221a1.69,1.69,0,0,0,.271,1.166,1.555,1.555,0,0,0,1.084.269h.078c2.84-.042,5.025-.06,7.092-.06,2.328,0,4.432.025,6.432.075l.129,0c1.311,0,1.578-.479,1.715-1.92.152-1.644.352-3.309.545-4.919.248-2.074.5-4.218.664-6.329.121-1.63.84-2.357,2.328-2.357.164,0,.342.008.541.023,1.861.145,3.76.245,5.6.343.771.041,1.57.083,2.355.128l.2.01c.648.027,1.734.073,1.848,1.439a174.9,174.9,0,0,1,.568,22.448Zm-56.738-1.015,28.6.008,27.186.007a175.1,175.1,0,0,0-.586-21.842c-.037-.432-.137-.49-.895-.522l-.217-.01c-.781-.045-1.578-.087-2.35-.128-1.844-.1-3.75-.2-5.623-.345-.174-.014-.326-.02-.463-.02-.846,0-1.24.207-1.332,1.432-.16,2.133-.418,4.289-.668,6.373-.191,1.6-.389,3.263-.541,4.894-.131,1.368-.457,2.827-2.711,2.827l-.154,0c-1.992-.05-4.088-.075-6.406-.075-2.061,0-4.242.018-7.076.06h-.094a2.051,2.051,0,0,1-2.355-2.443c.057-8.071.08-16.279.1-24.216q.015-4.77.029-9.539l0-.5h.5l2.42.005c1.588,0,3.232.007,4.85.013h.379l.1.366c.076.278.158.562.236.836.172.6.348,1.211.49,1.831l.006.019c1.057,4.584,1.223,5.009,3.65,5.009.773,0,1.762-.071,3.012-.161h.006a2.824,2.824,0,0,1,.375,0,1.074,1.074,0,0,0,.852-.18,1.353,1.353,0,0,0,.232-.935c-.031-6.39-.02-12.887-.01-19.17l0-.8c0-.581-.117-.824-.775-1.026a10.576,10.576,0,0,0-3.049-.555c-2.262,0-3.484,1.344-4.215,4.638a3.923,3.923,0,0,0-.092.538c-.168,2-1.107,3.02-2.791,3.02a5.021,5.021,0,0,1-.73-.057,9.579,9.579,0,0,0-2.621,0,5.428,5.428,0,0,1-.7.05,2.163,2.163,0,0,1-1.621-.568,3.347,3.347,0,0,1-.656-2.39c.074-7.862.086-15.859.1-23.592,0-2.534.008-5.153.014-7.73l0-.5h.5c5.605.012,11.3.021,16.818.029h.838l.045.451c.045.459.059.921.07,1.368a8.177,8.177,0,0,0,.432,2.9l.035.084,0,.091q.032,1.148.068,2.3c.012.4.025.805.037,1.208v.026c-.064,2.856-.1,4.43.506,5.1s2.143.773,4.939.958c.33.021.662.025,1.012.028a11.757,11.757,0,0,1,1.8.112,4.788,4.788,0,0,0,.756.068c1.041,0,1.619-.4,1.689-2.5.215-6.528.523-11.8.973-16.589.115-1.226.029-1.9-.289-2.248s-.961-.5-2.1-.5h-.1c-6.934.055-14.34.08-24.014.08-4.1,0-8.26,0-12.287-.008s-8.191-.008-12.287-.008c-1.93,0-3.094,0-3.582.386-.455.36-.584,1.305-.82,3.022-.033.236-.066.486-.105.752a3.5,3.5,0,0,0,.354,2.725,3.083,3.083,0,0,0,2.391.676l.268,0a13.4,13.4,0,0,1,1.414.1c.219.023.445.047.664.065,2.383.2,3.854.967,3.826,4.182-.178,24.454-.119,48.228-.039,68.259.008,2.674-.559,4.087-3.676,4.388-.328.032-.705.046-1.1.062-1.084.042-2.9.113-3.012.736-.084.454-.184.921-.281,1.373C19217.98,622.173,19217.559,624.123,19218.242,625.992Z" transform="translate(-14805.019 3179.644)" fill="rgba(0,0,0,0)"/></g><path d="M144,0H0V165H144L78.331,81.286Z" transform="translate(4106 6127)"/><path d="M0,0H144V165H0L65.669,81.286Z" transform="translate(3304 6127)"/><path d="M0,0H721V175H0Z" transform="translate(3417 6065)" fill="#fff"/><path d="M14,14V161H707V14H14M0,0H721V175H0Z" transform="translate(3417 6065)"/><path d="M-297.3-37.29v9.372h15.114v8.712H-297.3V-9.042H-280.2V0h-28.38V-46.332h28.38v9.042Zm73.194.066q6.864,0,10.923,4.158t4.059,11.55V0h-11.22V-20a7.609,7.609,0,0,0-1.881-5.511,6.867,6.867,0,0,0-5.181-1.947,6.867,6.867,0,0,0-5.181,1.947A7.609,7.609,0,0,0-234.465-20V0h-11.22V-20a7.609,7.609,0,0,0-1.881-5.511,6.867,6.867,0,0,0-5.181-1.947,6.867,6.867,0,0,0-5.181,1.947A7.609,7.609,0,0,0-259.809-20V0H-271.1V-36.828h11.286v4.62a12.08,12.08,0,0,1,4.488-3.663,14.11,14.11,0,0,1,6.27-1.353,15.252,15.252,0,0,1,7.425,1.782,12.775,12.775,0,0,1,5.115,5.082,14.835,14.835,0,0,1,5.214-4.95A14.088,14.088,0,0,1-224.1-37.224Zm59.4,18.216a28.81,28.81,0,0,1-.2,3.3h-25.542a7.675,7.675,0,0,0,2.211,5.247,6.755,6.755,0,0,0,4.785,1.815,5.931,5.931,0,0,0,5.874-3.564h12.012a16.483,16.483,0,0,1-3.333,6.534,16.687,16.687,0,0,1-6.039,4.554,19.4,19.4,0,0,1-8.118,1.65,19.754,19.754,0,0,1-9.636-2.31,16.431,16.431,0,0,1-6.6-6.6,20.376,20.376,0,0,1-2.376-10.032,20.608,20.608,0,0,1,2.343-10.032,16.218,16.218,0,0,1,6.567-6.6,19.893,19.893,0,0,1,9.7-2.31,19.693,19.693,0,0,1,9.5,2.244,16.113,16.113,0,0,1,6.5,6.4A19.432,19.432,0,0,1-164.7-19.008Zm-11.55-2.97a5.8,5.8,0,0,0-1.98-4.62,7.288,7.288,0,0,0-4.95-1.716,7.148,7.148,0,0,0-4.785,1.65,7.328,7.328,0,0,0-2.409,4.686ZM-145.7-30.69a14.888,14.888,0,0,1,4.95-4.785,12.764,12.764,0,0,1,6.6-1.749v11.946h-3.1q-4.224,0-6.336,1.815t-2.112,6.369V0h-11.286V-36.828H-145.7Zm32.736-6.666a14.172,14.172,0,0,1,6.831,1.584,11.668,11.668,0,0,1,4.521,4.158v-5.214h11.286V-.066a20.714,20.714,0,0,1-2.013,9.207,15.341,15.341,0,0,1-6.138,6.567,19.855,19.855,0,0,1-10.263,2.442q-8.184,0-13.266-3.861a14.573,14.573,0,0,1-5.808-10.461h11.154a5.34,5.34,0,0,0,2.508,3.333,9.141,9.141,0,0,0,4.884,1.221,7.677,7.677,0,0,0,5.577-2.013q2.079-2.013,2.079-6.435V-5.28a12.518,12.518,0,0,1-4.554,4.191,13.749,13.749,0,0,1-6.8,1.617,15.089,15.089,0,0,1-8.25-2.343,16.191,16.191,0,0,1-5.841-6.666,22.22,22.22,0,0,1-2.145-10,22.011,22.011,0,0,1,2.145-9.966,16,16,0,0,1,5.841-6.6A15.249,15.249,0,0,1-112.959-37.356Zm11.352,18.942a9.227,9.227,0,0,0-2.343-6.666,7.612,7.612,0,0,0-5.709-2.442,7.662,7.662,0,0,0-5.709,2.409,9.11,9.11,0,0,0-2.343,6.633,9.346,9.346,0,0,0,2.343,6.7,7.564,7.564,0,0,0,5.709,2.475,7.612,7.612,0,0,0,5.709-2.442A9.227,9.227,0,0,0-101.607-18.414Zm26.928-22.242a6.84,6.84,0,0,1-4.851-1.749,5.667,5.667,0,0,1-1.881-4.323,5.741,5.741,0,0,1,1.881-4.389,6.84,6.84,0,0,1,4.851-1.749,6.75,6.75,0,0,1,4.785,1.749,5.741,5.741,0,0,1,1.881,4.389,5.667,5.667,0,0,1-1.881,4.323A6.75,6.75,0,0,1-74.679-40.656Zm5.61,3.828V0H-80.355V-36.828Zm32.406-.4a13.365,13.365,0,0,1,10.329,4.191q3.861,4.191,3.861,11.517V0h-11.22V-20a8.082,8.082,0,0,0-1.914-5.742,6.711,6.711,0,0,0-5.148-2.046A6.711,6.711,0,0,0-45.9-25.74,8.082,8.082,0,0,0-47.817-20V0H-59.1V-36.828h11.286v4.884a11.907,11.907,0,0,1,4.62-3.861A14.688,14.688,0,0,1-36.663-37.224Zm37.818-.132a14.172,14.172,0,0,1,6.831,1.584,11.668,11.668,0,0,1,4.521,4.158v-5.214H23.793V-.066A20.714,20.714,0,0,1,21.78,9.141a15.341,15.341,0,0,1-6.138,6.567A19.855,19.855,0,0,1,5.379,18.15q-8.184,0-13.266-3.861A14.573,14.573,0,0,1-13.7,3.828H-2.541A5.34,5.34,0,0,0-.033,7.161,9.141,9.141,0,0,0,4.851,8.382a7.677,7.677,0,0,0,5.577-2.013q2.079-2.013,2.079-6.435V-5.28A12.517,12.517,0,0,1,7.953-1.089,13.749,13.749,0,0,1,1.155.528,15.089,15.089,0,0,1-7.1-1.815a16.191,16.191,0,0,1-5.841-6.666,22.22,22.22,0,0,1-2.145-10,22.011,22.011,0,0,1,2.145-9.966,16,16,0,0,1,5.841-6.6A15.249,15.249,0,0,1,1.155-37.356ZM12.507-18.414a9.227,9.227,0,0,0-2.343-6.666,7.612,7.612,0,0,0-5.709-2.442,7.662,7.662,0,0,0-5.709,2.409A9.11,9.11,0,0,0-3.6-18.48a9.346,9.346,0,0,0,2.343,6.7A7.564,7.564,0,0,0,4.455-9.306a7.612,7.612,0,0,0,5.709-2.442A9.227,9.227,0,0,0,12.507-18.414ZM66.3.462a23.833,23.833,0,0,1-9.108-1.65,14.846,14.846,0,0,1-6.435-4.884,13.343,13.343,0,0,1-2.541-7.788H60.225a5.828,5.828,0,0,0,1.782,3.927,5.728,5.728,0,0,0,3.96,1.353,6.193,6.193,0,0,0,3.96-1.155,3.863,3.863,0,0,0,1.452-3.2,3.789,3.789,0,0,0-1.155-2.838,9.317,9.317,0,0,0-2.838-1.848,45.651,45.651,0,0,0-4.785-1.65,52.1,52.1,0,0,1-7.326-2.772,13.536,13.536,0,0,1-4.884-4.092A11.4,11.4,0,0,1,48.345-33.2a12.144,12.144,0,0,1,4.686-10.131q4.686-3.663,12.21-3.663,7.656,0,12.342,3.663a13.113,13.113,0,0,1,5.016,10.2H70.389a4.775,4.775,0,0,0-1.65-3.531,5.813,5.813,0,0,0-3.894-1.287,4.853,4.853,0,0,0-3.3,1.089,3.928,3.928,0,0,0-1.254,3.135,3.886,3.886,0,0,0,2.112,3.5A34.621,34.621,0,0,0,69-27.522a61.038,61.038,0,0,1,7.293,2.9,13.884,13.884,0,0,1,4.851,4.026,10.777,10.777,0,0,1,2.046,6.8A13.34,13.34,0,0,1,81.18-6.6a14.1,14.1,0,0,1-5.841,5.148A20,20,0,0,1,66.3.462ZM112.431-9.57V0h-5.742q-6.138,0-9.57-3t-3.432-9.8V-27.456H89.2v-9.372h4.488V-45.8h11.286v8.976h7.392v9.372h-7.392v14.784a3.093,3.093,0,0,0,.792,2.376,3.866,3.866,0,0,0,2.64.726Zm5.808-8.91a22.011,22.011,0,0,1,2.145-9.966,16,16,0,0,1,5.841-6.6,15.249,15.249,0,0,1,8.25-2.31,14.173,14.173,0,0,1,6.831,1.584,11.668,11.668,0,0,1,4.521,4.158v-5.214h11.286V0H145.827V-5.214a12.187,12.187,0,0,1-4.587,4.158A14.172,14.172,0,0,1,134.409.528a14.975,14.975,0,0,1-8.184-2.343,16.191,16.191,0,0,1-5.841-6.666A22.22,22.22,0,0,1,118.239-18.48Zm27.588.066a9.227,9.227,0,0,0-2.343-6.666,7.612,7.612,0,0,0-5.709-2.442,7.662,7.662,0,0,0-5.709,2.409,9.11,9.11,0,0,0-2.343,6.633,9.346,9.346,0,0,0,2.343,6.7,7.564,7.564,0,0,0,5.709,2.475,7.612,7.612,0,0,0,5.709-2.442A9.227,9.227,0,0,0,145.827-18.414ZM178.365-30.69a14.888,14.888,0,0,1,4.95-4.785,12.764,12.764,0,0,1,6.6-1.749v11.946h-3.1q-4.224,0-6.336,1.815t-2.112,6.369V0H167.079V-36.828h11.286Zm39.27,21.12V0h-5.742q-6.138,0-9.57-3t-3.432-9.8V-27.456H194.4v-9.372h4.488V-45.8h11.286v8.976h7.392v9.372h-7.392v14.784a3.093,3.093,0,0,0,.792,2.376,3.866,3.866,0,0,0,2.64.726Zm44.418-27.258V0H250.767V-5.016a12.386,12.386,0,0,1-4.653,3.927A14.2,14.2,0,0,1,239.613.4a14.561,14.561,0,0,1-7.458-1.881,12.683,12.683,0,0,1-5.016-5.445,18.529,18.529,0,0,1-1.782-8.382V-36.828h11.22v20a8.082,8.082,0,0,0,1.914,5.742,6.711,6.711,0,0,0,5.148,2.046,6.794,6.794,0,0,0,5.214-2.046,8.082,8.082,0,0,0,1.914-5.742v-20Zm21.186,5.214a12.252,12.252,0,0,1,4.554-4.158,13.98,13.98,0,0,1,6.8-1.584,15.249,15.249,0,0,1,8.25,2.31,16,16,0,0,1,5.841,6.6,22.011,22.011,0,0,1,2.145,9.966,22.22,22.22,0,0,1-2.145,10,16.191,16.191,0,0,1-5.841,6.666,15.089,15.089,0,0,1-8.25,2.343,14.029,14.029,0,0,1-6.765-1.584,12.4,12.4,0,0,1-4.587-4.092v22.7H271.953V-36.828h11.286Zm16.1,13.134A9.11,9.11,0,0,0,297-25.113a7.738,7.738,0,0,0-5.775-2.409,7.612,7.612,0,0,0-5.709,2.442,9.227,9.227,0,0,0-2.343,6.666,9.227,9.227,0,0,0,2.343,6.666,7.612,7.612,0,0,0,5.709,2.442,7.669,7.669,0,0,0,5.742-2.475A9.268,9.268,0,0,0,299.343-18.48Z" transform="translate(3778 6175.828)" fill="#404040"/><path d="M-61.568-7.124q1.768-1.4,1.612-1.3,5.1-4.212,8.034-6.916a33.261,33.261,0,0,0,4.966-5.668,10.242,10.242,0,0,0,2.028-5.772,5.081,5.081,0,0,0-.988-3.328,3.622,3.622,0,0,0-2.964-1.2,3.659,3.659,0,0,0-3.094,1.482,6.833,6.833,0,0,0-1.118,4.186h-8.58a14.728,14.728,0,0,1,1.9-7.384,11.025,11.025,0,0,1,4.732-4.368,14.941,14.941,0,0,1,6.526-1.4q6.188,0,9.334,3.172a11.234,11.234,0,0,1,3.146,8.268,16.216,16.216,0,0,1-3.8,10.322A55.9,55.9,0,0,1-49.5-7.748h14.04V-.52h-26.1ZM-30.16-19.5q0-8.944,3.458-14.092t11.154-5.148q7.7,0,11.154,5.148T-.936-19.5q0,9.048-3.458,14.2T-15.548-.156q-7.7,0-11.154-5.148T-30.16-19.5Zm20.488,0a22.429,22.429,0,0,0-1.144-8.086q-1.144-2.834-4.732-2.834t-4.732,2.834A22.429,22.429,0,0,0-21.424-19.5a34,34,0,0,0,.416,5.85,7.486,7.486,0,0,0,1.69,3.744,4.787,4.787,0,0,0,3.77,1.43,4.787,4.787,0,0,0,3.77-1.43,7.486,7.486,0,0,0,1.69-3.744A34,34,0,0,0-9.672-19.5ZM4.836-7.124q1.768-1.4,1.612-1.3,5.1-4.212,8.034-6.916a33.261,33.261,0,0,0,4.966-5.668,10.242,10.242,0,0,0,2.028-5.772,5.081,5.081,0,0,0-.988-3.328,3.622,3.622,0,0,0-2.964-1.2,3.659,3.659,0,0,0-3.094,1.482,6.833,6.833,0,0,0-1.118,4.186H4.732a14.728,14.728,0,0,1,1.9-7.384,11.025,11.025,0,0,1,4.732-4.368,14.941,14.941,0,0,1,6.526-1.4q6.188,0,9.334,3.172a11.234,11.234,0,0,1,3.146,8.268,16.216,16.216,0,0,1-3.8,10.322A55.9,55.9,0,0,1,16.9-7.748H30.94V-.52H4.836Zm31.1,0q1.768-1.4,1.612-1.3,5.1-4.212,8.034-6.916a33.261,33.261,0,0,0,4.966-5.668,10.242,10.242,0,0,0,2.028-5.772,5.081,5.081,0,0,0-.988-3.328,3.622,3.622,0,0,0-2.964-1.2,3.659,3.659,0,0,0-3.094,1.482,6.833,6.833,0,0,0-1.118,4.186h-8.58a14.728,14.728,0,0,1,1.9-7.384,11.025,11.025,0,0,1,4.732-4.368,14.941,14.941,0,0,1,6.526-1.4q6.188,0,9.334,3.172a11.234,11.234,0,0,1,3.146,8.268,16.216,16.216,0,0,1-3.8,10.322A55.9,55.9,0,0,1,48-7.748h14.04V-.52h-26.1Z" transform="translate(3786 6331.828)" fill="#fff"/><path d="M-187.336-22.035V-16.5h8.931v5.148h-8.931v6.006h10.1V0h-16.77V-27.378h16.77v5.343Zm28.743.039a7.9,7.9,0,0,1,6.1,2.476,9.66,9.66,0,0,1,2.282,6.806V0h-6.63V-11.817a4.776,4.776,0,0,0-1.131-3.393,3.966,3.966,0,0,0-3.042-1.209,3.966,3.966,0,0,0-3.042,1.209,4.776,4.776,0,0,0-1.131,3.393V0h-6.669V-21.762h6.669v2.886a7.036,7.036,0,0,1,2.73-2.281A8.679,8.679,0,0,1-158.593-22Zm26.208,16.341V0h-3.393a8.305,8.305,0,0,1-5.655-1.775q-2.028-1.775-2.028-5.791v-8.658h-2.652v-5.538h2.652v-5.3h6.669v5.3h4.368v5.538h-4.368v8.736a1.828,1.828,0,0,0,.468,1.4,2.284,2.284,0,0,0,1.56.429Zm11.427-12.48a8.8,8.8,0,0,1,2.925-2.827,7.542,7.542,0,0,1,3.9-1.033v7.059h-1.833a5.619,5.619,0,0,0-3.744,1.073q-1.248,1.072-1.248,3.764V0h-6.669V-21.762h6.669Zm31.59,6.9a17.026,17.026,0,0,1-.117,1.95h-15.093a4.535,4.535,0,0,0,1.307,3.1,3.991,3.991,0,0,0,2.827,1.072,3.5,3.5,0,0,0,3.471-2.106h7.1a9.74,9.74,0,0,1-1.97,3.861A9.861,9.861,0,0,1-95.413-.663a11.462,11.462,0,0,1-4.8.975A11.673,11.673,0,0,1-105.9-1.053a9.709,9.709,0,0,1-3.9-3.9,12.04,12.04,0,0,1-1.4-5.928,12.177,12.177,0,0,1,1.384-5.928,9.583,9.583,0,0,1,3.881-3.9,11.755,11.755,0,0,1,5.733-1.365,11.637,11.637,0,0,1,5.616,1.326,9.521,9.521,0,0,1,3.841,3.783A11.483,11.483,0,0,1-89.368-11.232Zm-6.825-1.755a3.429,3.429,0,0,0-1.17-2.73,4.307,4.307,0,0,0-2.925-1.014,4.224,4.224,0,0,0-2.827.975,4.33,4.33,0,0,0-1.424,2.769Zm18.057-5.694a7.24,7.24,0,0,1,2.691-2.457,8.261,8.261,0,0,1,4.017-.936,9.011,9.011,0,0,1,4.875,1.365,9.454,9.454,0,0,1,3.452,3.9,13.006,13.006,0,0,1,1.267,5.889A13.13,13.13,0,0,1-63.1-5.011a9.567,9.567,0,0,1-3.452,3.939A8.916,8.916,0,0,1-71.428.312a8.29,8.29,0,0,1-4-.936,7.329,7.329,0,0,1-2.711-2.418V10.374h-6.669V-21.762h6.669Zm9.516,7.761A5.383,5.383,0,0,0-70-14.84a4.573,4.573,0,0,0-3.412-1.424,4.5,4.5,0,0,0-3.373,1.443,5.453,5.453,0,0,0-1.384,3.939,5.453,5.453,0,0,0,1.384,3.939A4.5,4.5,0,0,0-73.417-5.5a4.532,4.532,0,0,0,3.393-1.463A5.477,5.477,0,0,0-68.62-10.92ZM-50.6-18.135a8.8,8.8,0,0,1,2.925-2.827A7.542,7.542,0,0,1-43.777-22v7.059H-45.61a5.619,5.619,0,0,0-3.744,1.073Q-50.6-12.792-50.6-10.1V0h-6.669V-21.762H-50.6Zm31.59,6.9a17.025,17.025,0,0,1-.117,1.95H-34.223a4.535,4.535,0,0,0,1.306,3.1,3.992,3.992,0,0,0,2.828,1.072,3.5,3.5,0,0,0,3.471-2.106h7.1a9.74,9.74,0,0,1-1.97,3.861A9.861,9.861,0,0,1-25.058-.663a11.462,11.462,0,0,1-4.8.975,11.673,11.673,0,0,1-5.694-1.365,9.709,9.709,0,0,1-3.9-3.9,12.04,12.04,0,0,1-1.4-5.928,12.177,12.177,0,0,1,1.385-5.928,9.583,9.583,0,0,1,3.88-3.9,11.755,11.755,0,0,1,5.733-1.365,11.637,11.637,0,0,1,5.616,1.326A9.521,9.521,0,0,1-20.4-16.965,11.483,11.483,0,0,1-19.013-11.232Zm-6.825-1.755a3.429,3.429,0,0,0-1.17-2.73,4.307,4.307,0,0,0-2.925-1.014,4.224,4.224,0,0,0-2.827.975,4.33,4.33,0,0,0-1.424,2.769ZM-1.19-22a7.9,7.9,0,0,1,6.1,2.476A9.66,9.66,0,0,1,7.2-12.714V0H.565V-11.817A4.776,4.776,0,0,0-.566-15.21a3.966,3.966,0,0,0-3.042-1.209A3.966,3.966,0,0,0-6.65-15.21a4.776,4.776,0,0,0-1.131,3.393V0H-14.45V-21.762h6.669v2.886a7.036,7.036,0,0,1,2.73-2.281A8.679,8.679,0,0,1-1.19-22ZM33.4-11.232a17.025,17.025,0,0,1-.117,1.95H18.193a4.535,4.535,0,0,0,1.306,3.1,3.991,3.991,0,0,0,2.828,1.072A3.5,3.5,0,0,0,25.8-7.215h7.1a9.74,9.74,0,0,1-1.97,3.861A9.861,9.861,0,0,1,27.358-.663a11.462,11.462,0,0,1-4.8.975,11.673,11.673,0,0,1-5.694-1.365,9.709,9.709,0,0,1-3.9-3.9,12.04,12.04,0,0,1-1.4-5.928,12.177,12.177,0,0,1,1.384-5.928,9.583,9.583,0,0,1,3.881-3.9,11.755,11.755,0,0,1,5.733-1.365,11.637,11.637,0,0,1,5.616,1.326,9.521,9.521,0,0,1,3.841,3.783A11.483,11.483,0,0,1,33.4-11.232Zm-6.825-1.755a3.429,3.429,0,0,0-1.17-2.73,4.307,4.307,0,0,0-2.925-1.014,4.224,4.224,0,0,0-2.827.975,4.33,4.33,0,0,0-1.424,2.769Zm32.877-8.775V0H52.786V-2.964A7.319,7.319,0,0,1,50.037-.643,8.391,8.391,0,0,1,46.2.234,8.6,8.6,0,0,1,41.788-.878,7.494,7.494,0,0,1,38.824-4.1a10.949,10.949,0,0,1-1.053-4.953V-21.762H44.4V-9.945a4.776,4.776,0,0,0,1.131,3.393,3.966,3.966,0,0,0,3.042,1.209,4.014,4.014,0,0,0,3.081-1.209,4.776,4.776,0,0,0,1.131-3.393V-21.762Zm12.519,3.627A8.8,8.8,0,0,1,74.9-20.963,7.542,7.542,0,0,1,78.8-22v7.059H76.966a5.619,5.619,0,0,0-3.744,1.073q-1.248,1.072-1.248,3.764V0H65.305V-21.762h6.669ZM99.04-27.378V0H92.371V-27.378ZM118.19-22a7.9,7.9,0,0,1,6.1,2.476,9.66,9.66,0,0,1,2.282,6.806V0h-6.63V-11.817a4.776,4.776,0,0,0-1.131-3.393,3.966,3.966,0,0,0-3.042-1.209,3.966,3.966,0,0,0-3.042,1.209,4.776,4.776,0,0,0-1.131,3.393V0H104.93V-21.762H111.6v2.886a7.036,7.036,0,0,1,2.73-2.281A8.679,8.679,0,0,1,118.19-22ZM130.942-10.92a13.006,13.006,0,0,1,1.268-5.889,9.454,9.454,0,0,1,3.452-3.9,9.011,9.011,0,0,1,4.875-1.365,8.563,8.563,0,0,1,3.919.9,7.142,7.142,0,0,1,2.788,2.418v-10.1h6.669V0h-6.669V-3.12a6.794,6.794,0,0,1-2.671,2.5,8.375,8.375,0,0,1-4.036.936,8.916,8.916,0,0,1-4.875-1.385,9.567,9.567,0,0,1-3.452-3.939A13.13,13.13,0,0,1,130.942-10.92Zm16.3.039a5.453,5.453,0,0,0-1.384-3.939,4.5,4.5,0,0,0-3.374-1.443,4.528,4.528,0,0,0-3.374,1.424,5.383,5.383,0,0,0-1.384,3.92,5.523,5.523,0,0,0,1.384,3.958A4.47,4.47,0,0,0,142.486-5.5a4.5,4.5,0,0,0,3.374-1.443A5.453,5.453,0,0,0,147.244-10.881Zm15.912-13.143a4.042,4.042,0,0,1-2.867-1.033,3.349,3.349,0,0,1-1.111-2.554,3.392,3.392,0,0,1,1.111-2.594,4.042,4.042,0,0,1,2.867-1.034,3.989,3.989,0,0,1,2.827,1.034,3.392,3.392,0,0,1,1.111,2.594,3.349,3.349,0,0,1-1.111,2.554A3.989,3.989,0,0,1,163.156-24.024Zm3.315,2.262V0H159.8V-21.762Zm4.563,10.842a13.006,13.006,0,0,1,1.268-5.889,9.454,9.454,0,0,1,3.452-3.9,9.011,9.011,0,0,1,4.875-1.365,8.375,8.375,0,0,1,4.036.936,6.9,6.9,0,0,1,2.671,2.457v-3.081h6.669V0h-6.669V-3.081a7.2,7.2,0,0,1-2.71,2.457,8.375,8.375,0,0,1-4.036.936,8.849,8.849,0,0,1-4.836-1.385A9.567,9.567,0,0,1,172.3-5.011,13.13,13.13,0,0,1,171.035-10.92Zm16.3.039a5.453,5.453,0,0,0-1.384-3.939,4.5,4.5,0,0,0-3.374-1.443,4.528,4.528,0,0,0-3.374,1.424,5.383,5.383,0,0,0-1.384,3.92,5.523,5.523,0,0,0,1.384,3.958A4.47,4.47,0,0,0,182.579-5.5a4.5,4.5,0,0,0,3.374-1.443A5.453,5.453,0,0,0,187.337-10.881Z" transform="translate(3786 6001.828)" fill="#fff"/><path d="M-63.271,0h-2.964l-8.918-13.494V0h-2.964V-18.1h2.964l8.918,13.468V-18.1h2.964Zm10.816.234a7.337,7.337,0,0,1-3.666-.923,6.63,6.63,0,0,1-2.574-2.6,7.843,7.843,0,0,1-.936-3.887,7.692,7.692,0,0,1,.962-3.874,6.645,6.645,0,0,1,2.626-2.6,7.62,7.62,0,0,1,3.718-.91,7.62,7.62,0,0,1,3.718.91,6.645,6.645,0,0,1,2.626,2.6,7.692,7.692,0,0,1,.962,3.874A7.533,7.533,0,0,1-46.007-3.3,6.841,6.841,0,0,1-48.7-.689,7.756,7.756,0,0,1-52.455.234Zm0-2.574a4.411,4.411,0,0,0,2.145-.546,4.16,4.16,0,0,0,1.625-1.638,5.266,5.266,0,0,0,.624-2.652,5.376,5.376,0,0,0-.6-2.639,4.037,4.037,0,0,0-1.586-1.625,4.337,4.337,0,0,0-2.132-.546,4.265,4.265,0,0,0-2.119.546,3.9,3.9,0,0,0-1.547,1.625,5.577,5.577,0,0,0-.572,2.639A5.027,5.027,0,0,0-55.432-3.6,3.909,3.909,0,0,0-52.455-2.34Zm28.418-12.22a6.424,6.424,0,0,1,3.029.7,5.072,5.072,0,0,1,2.106,2.08,6.747,6.747,0,0,1,.767,3.328V0h-2.938V-8.008a4.158,4.158,0,0,0-.962-2.951,3.424,3.424,0,0,0-2.626-1.027A3.466,3.466,0,0,0-27.3-10.959a4.123,4.123,0,0,0-.975,2.951V0h-2.938V-8.008a4.158,4.158,0,0,0-.962-2.951A3.424,3.424,0,0,0-34.8-11.986a3.466,3.466,0,0,0-2.639,1.027,4.123,4.123,0,0,0-.975,2.951V0h-2.964V-14.326h2.964v1.638a4.928,4.928,0,0,1,1.846-1.378,5.852,5.852,0,0,1,2.392-.494,6.368,6.368,0,0,1,3.068.728,4.976,4.976,0,0,1,2.08,2.106A4.8,4.8,0,0,1-27-13.793,6,6,0,0,1-24.037-14.56Zm11.882-1.664a1.836,1.836,0,0,1-1.352-.546,1.836,1.836,0,0,1-.546-1.352,1.836,1.836,0,0,1,.546-1.352,1.836,1.836,0,0,1,1.352-.546,1.805,1.805,0,0,1,1.326.546,1.836,1.836,0,0,1,.546,1.352,1.836,1.836,0,0,1-.546,1.352A1.805,1.805,0,0,1-12.155-16.224Zm1.456,1.9V0h-2.964V-14.326Zm11.83-.234a6.424,6.424,0,0,1,3.029.7,4.992,4.992,0,0,1,2.093,2.08A6.842,6.842,0,0,1,7.007-8.45V0H4.069V-8.008a4.158,4.158,0,0,0-.962-2.951A3.424,3.424,0,0,0,.481-11.986a3.466,3.466,0,0,0-2.639,1.027,4.123,4.123,0,0,0-.975,2.951V0H-6.1V-14.326h2.964v1.638a4.906,4.906,0,0,1,1.859-1.378A5.943,5.943,0,0,1,1.131-14.56Zm9.36,7.332a7.928,7.928,0,0,1,.9-3.822,6.575,6.575,0,0,1,2.444-2.587,6.548,6.548,0,0,1,3.419-.923A6.254,6.254,0,0,1,20.2-13.9a5.989,5.989,0,0,1,2.015,1.651v-2.08h2.99V0h-2.99V-2.132a5.886,5.886,0,0,1-2.054,1.69A6.33,6.33,0,0,1,17.2.234a6.3,6.3,0,0,1-3.38-.949,6.73,6.73,0,0,1-2.431-2.652A8.158,8.158,0,0,1,10.491-7.228Zm11.726.052a5.187,5.187,0,0,0-.611-2.574,4.289,4.289,0,0,0-1.6-1.664,4.183,4.183,0,0,0-2.132-.572,4.258,4.258,0,0,0-2.132.559,4.216,4.216,0,0,0-1.6,1.638,5.114,5.114,0,0,0-.611,2.561,5.337,5.337,0,0,0,.611,2.6,4.311,4.311,0,0,0,1.612,1.7,4.135,4.135,0,0,0,2.119.585,4.183,4.183,0,0,0,2.132-.572,4.267,4.267,0,0,0,1.6-1.677A5.262,5.262,0,0,0,22.217-7.176Zm11.05-4.732v7.93a1.522,1.522,0,0,0,.377,1.157,1.874,1.874,0,0,0,1.287.351h1.82V0h-2.34a4.51,4.51,0,0,1-3.068-.936,3.858,3.858,0,0,1-1.066-3.042v-7.93h-1.69v-2.418h1.69v-3.562h2.99v3.562h3.484v2.418ZM53.313-7.514a9.267,9.267,0,0,1-.1,1.456H42.263A3.975,3.975,0,0,0,43.537-3.3a4.022,4.022,0,0,0,2.808,1.04,3.468,3.468,0,0,0,3.38-2h3.2A6.453,6.453,0,0,1,50.57-1.027,6.9,6.9,0,0,1,46.345.234a7.317,7.317,0,0,1-3.679-.923,6.567,6.567,0,0,1-2.548-2.6,7.931,7.931,0,0,1-.923-3.887,8.118,8.118,0,0,1,.9-3.887,6.308,6.308,0,0,1,2.522-2.587,7.506,7.506,0,0,1,3.731-.91,7.3,7.3,0,0,1,3.614.884,6.246,6.246,0,0,1,2.47,2.483A7.478,7.478,0,0,1,53.313-7.514ZM50.219-8.45a3.373,3.373,0,0,0-1.17-2.626,4.183,4.183,0,0,0-2.834-.988,3.807,3.807,0,0,0-2.626.975,4.075,4.075,0,0,0-1.3,2.639Zm5.72,1.222a7.928,7.928,0,0,1,.9-3.822,6.575,6.575,0,0,1,2.444-2.587,6.6,6.6,0,0,1,3.445-.923,6.719,6.719,0,0,1,2.769.611,5.666,5.666,0,0,1,2.171,1.625V-19.24h2.99V0h-2.99V-2.158A5.55,5.55,0,0,1,65.65-.442,6.252,6.252,0,0,1,62.7.234,6.411,6.411,0,0,1,59.28-.715a6.7,6.7,0,0,1-2.444-2.652A8.158,8.158,0,0,1,55.939-7.228Zm11.726.052a5.187,5.187,0,0,0-.611-2.574,4.289,4.289,0,0,0-1.6-1.664,4.183,4.183,0,0,0-2.132-.572,4.258,4.258,0,0,0-2.132.559,4.216,4.216,0,0,0-1.6,1.638,5.114,5.114,0,0,0-.611,2.561,5.337,5.337,0,0,0,.611,2.6,4.311,4.311,0,0,0,1.612,1.7,4.135,4.135,0,0,0,2.119.585,4.183,4.183,0,0,0,2.132-.572,4.267,4.267,0,0,0,1.6-1.677A5.262,5.262,0,0,0,67.665-7.176Z" transform="translate(3786 6049.828)" fill="#fff"/></g></svg>