<svg xmlns="http://www.w3.org/2000/svg" width="946" height="766.003" viewBox="0 0 946 766.003">
  <g id="Group_4420" data-name="Group 4420" transform="translate(-2167 -3586.842)">
    <path id="Path_8594" data-name="Path 8594" d="M290.651-154.845S435.187-86.721,506.524,84.241,576,529,576,529s-141.349,82.158-285.349,82.158S0,529,0,529-4.848,255.2,67.814,84.241,290.651-154.845,290.651-154.845Z" transform="translate(2928.304 4198) rotate(180)" fill="#fff"/>
    <path id="Path_8594_-_Outline" data-name="Path 8594 - Outline" d="M290.172-109.345C251.529-87.007,156.48-22.112,104.627,99.887,48.234,232.569,40.863,435.77,40.039,504.594c43.336,21.081,148.663,66.564,250.612,66.564,100.91,0,202.889-45.04,245.075-66.112-1.463-68.814-10.537-272.2-66.117-405.4C419.208-21.143,327.67-86.572,290.172-109.345m.479-45.5S435.187-86.721,506.524,84.241,576,529,576,529s-141.349,82.158-285.349,82.158S0,529,0,529-4.848,255.2,67.814,84.241,290.651-154.845,290.651-154.845Z" transform="translate(2928.304 4198) rotate(180)" fill="#012c5f"/>
    <path id="Path_8600" data-name="Path 8600" d="M144,0H0V165H144L78.331,81.286Z" transform="translate(2969 3964)" fill="#012c5f"/>
    <path id="Path_8599" data-name="Path 8599" d="M0,0H144V165H0L65.669,81.286Z" transform="translate(2167 3964)" fill="#012c5f"/>
    <path id="Path_8604" data-name="Path 8604" d="M0,0H721V175H0Z" transform="translate(2280 3902)" fill="#fff"/>
    <path id="Rectangle_8964_-_Outline" data-name="Rectangle 8964 - Outline" d="M14,14V161H707V14H14M0,0H721V175H0Z" transform="translate(2280 3902)" fill="#012c5f"/>
    <path id="Path_8606" data-name="Path 8606" d="M-334.452-32.994v6.439h-8.742V0h-8.037V-26.555h-8.742v-6.439ZM-317.2.376a14.476,14.476,0,0,1-6.932-1.645,12.045,12.045,0,0,1-4.841-4.7,14.044,14.044,0,0,1-1.762-7.144,13.931,13.931,0,0,1,1.786-7.121,12.119,12.119,0,0,1,4.888-4.723,14.614,14.614,0,0,1,6.956-1.645,14.614,14.614,0,0,1,6.956,1.645,12.119,12.119,0,0,1,4.888,4.723,13.931,13.931,0,0,1,1.786,7.121,13.789,13.789,0,0,1-1.809,7.121,12.236,12.236,0,0,1-4.935,4.724A14.753,14.753,0,0,1-317.2.376Zm0-6.956a5.236,5.236,0,0,0,3.924-1.692,6.722,6.722,0,0,0,1.622-4.841,6.847,6.847,0,0,0-1.574-4.841,5.088,5.088,0,0,0-3.878-1.692,5.1,5.1,0,0,0-3.9,1.668,6.9,6.9,0,0,0-1.551,4.865,6.982,6.982,0,0,0,1.528,4.841A4.944,4.944,0,0,0-317.2-6.58ZM-289.9-22.513a8.725,8.725,0,0,1,3.243-2.961,9.955,9.955,0,0,1,4.841-1.128,10.859,10.859,0,0,1,5.875,1.645,11.394,11.394,0,0,1,4.159,4.7,15.675,15.675,0,0,1,1.528,7.1,15.823,15.823,0,0,1-1.528,7.121,11.53,11.53,0,0,1-4.159,4.747A10.745,10.745,0,0,1-281.812.376,9.99,9.99,0,0,1-286.63-.752,8.832,8.832,0,0,1-289.9-3.666V12.5h-8.037V-26.226h8.037Zm11.468,9.353a6.487,6.487,0,0,0-1.669-4.724,5.511,5.511,0,0,0-4.112-1.715,5.421,5.421,0,0,0-4.065,1.739,6.571,6.571,0,0,0-1.669,4.747,6.571,6.571,0,0,0,1.669,4.747,5.421,5.421,0,0,0,4.065,1.739A5.461,5.461,0,0,0-280.12-8.39,6.6,6.6,0,0,0-278.428-13.16Zm37.271-19.834a19.191,19.191,0,0,1,9.118,2.068,14.774,14.774,0,0,1,6.039,5.8,17.055,17.055,0,0,1,2.139,8.625A17.089,17.089,0,0,1-226-7.9a14.7,14.7,0,0,1-6.063,5.828A19.227,19.227,0,0,1-241.157,0h-12.361V-32.994Zm-.517,26.038a9.7,9.7,0,0,0,7.1-2.491,9.432,9.432,0,0,0,2.538-7.05,9.594,9.594,0,0,0-2.538-7.1,9.594,9.594,0,0,0-7.1-2.538h-3.807V-6.956Zm48.316-6.58a20.515,20.515,0,0,1-.141,2.35h-18.189a5.465,5.465,0,0,0,1.574,3.736,4.81,4.81,0,0,0,3.408,1.292,4.224,4.224,0,0,0,4.183-2.538h8.554a11.738,11.738,0,0,1-2.373,4.653,11.883,11.883,0,0,1-4.3,3.243A13.813,13.813,0,0,1-206.424.376a14.067,14.067,0,0,1-6.862-1.645,11.7,11.7,0,0,1-4.7-4.7,14.51,14.51,0,0,1-1.692-7.144,14.675,14.675,0,0,1,1.669-7.144,11.549,11.549,0,0,1,4.676-4.7,14.166,14.166,0,0,1,6.909-1.645,14.024,14.024,0,0,1,6.768,1.6,11.474,11.474,0,0,1,4.63,4.559A13.838,13.838,0,0,1-193.358-13.536Zm-8.225-2.115a4.132,4.132,0,0,0-1.41-3.29,5.19,5.19,0,0,0-3.525-1.222,5.09,5.09,0,0,0-3.408,1.175,5.219,5.219,0,0,0-1.715,3.337Zm25.521,8.131,5.687-18.706h8.554L-171.127,0h-9.917l-9.306-26.226h8.6Zm43.616-6.016a20.518,20.518,0,0,1-.141,2.35h-18.189A5.465,5.465,0,0,0-149.2-7.45a4.81,4.81,0,0,0,3.407,1.292,4.224,4.224,0,0,0,4.183-2.538h8.554a11.738,11.738,0,0,1-2.374,4.653,11.883,11.883,0,0,1-4.3,3.243A13.813,13.813,0,0,1-145.512.376a14.067,14.067,0,0,1-6.862-1.645,11.7,11.7,0,0,1-4.7-4.7,14.51,14.51,0,0,1-1.692-7.144,14.675,14.675,0,0,1,1.669-7.144,11.549,11.549,0,0,1,4.676-4.7,14.166,14.166,0,0,1,6.909-1.645,14.024,14.024,0,0,1,6.768,1.6,11.474,11.474,0,0,1,4.63,4.559A13.838,13.838,0,0,1-132.446-13.536Zm-8.225-2.115a4.132,4.132,0,0,0-1.41-3.29,5.19,5.19,0,0,0-3.525-1.222,5.09,5.09,0,0,0-3.408,1.175,5.219,5.219,0,0,0-1.715,3.337ZM-118.91-34.78V0h-8.037V-34.78ZM-99.875.376a14.476,14.476,0,0,1-6.932-1.645,12.045,12.045,0,0,1-4.841-4.7,14.044,14.044,0,0,1-1.762-7.144,13.931,13.931,0,0,1,1.786-7.121,12.119,12.119,0,0,1,4.888-4.723A14.614,14.614,0,0,1-99.781-26.6a14.614,14.614,0,0,1,6.956,1.645,12.119,12.119,0,0,1,4.888,4.723,13.931,13.931,0,0,1,1.786,7.121,13.789,13.789,0,0,1-1.81,7.121A12.236,12.236,0,0,1-92.9-1.269,14.753,14.753,0,0,1-99.875.376Zm0-6.956a5.236,5.236,0,0,0,3.925-1.692,6.722,6.722,0,0,0,1.621-4.841A6.847,6.847,0,0,0-95.9-17.954a5.088,5.088,0,0,0-3.878-1.692,5.1,5.1,0,0,0-3.9,1.668,6.9,6.9,0,0,0-1.551,4.865,6.982,6.982,0,0,0,1.527,4.841A4.944,4.944,0,0,0-99.875-6.58Zm27.307-15.933a8.725,8.725,0,0,1,3.243-2.961A9.955,9.955,0,0,1-64.484-26.6a10.859,10.859,0,0,1,5.875,1.645,11.394,11.394,0,0,1,4.16,4.7,15.674,15.674,0,0,1,1.527,7.1A15.823,15.823,0,0,1-54.45-6.039a11.53,11.53,0,0,1-4.16,4.747A10.745,10.745,0,0,1-64.484.376,9.991,9.991,0,0,1-69.3-.752a8.832,8.832,0,0,1-3.266-2.914V12.5h-8.037V-26.226h8.037ZM-61.1-13.16a6.487,6.487,0,0,0-1.668-4.724A5.511,5.511,0,0,0-66.881-19.6a5.421,5.421,0,0,0-4.065,1.739,6.571,6.571,0,0,0-1.669,4.747,6.571,6.571,0,0,0,1.669,4.747,5.421,5.421,0,0,0,4.065,1.739A5.461,5.461,0,0,0-62.792-8.39,6.6,6.6,0,0,0-61.1-13.16Zm38.4-.376a20.517,20.517,0,0,1-.141,2.35H-41.031A5.465,5.465,0,0,0-39.457-7.45a4.81,4.81,0,0,0,3.408,1.292,4.224,4.224,0,0,0,4.183-2.538h8.554a11.738,11.738,0,0,1-2.374,4.653A11.883,11.883,0,0,1-29.986-.8,13.813,13.813,0,0,1-35.767.376a14.067,14.067,0,0,1-6.862-1.645,11.7,11.7,0,0,1-4.7-4.7,14.51,14.51,0,0,1-1.692-7.144,14.675,14.675,0,0,1,1.668-7.144,11.549,11.549,0,0,1,4.676-4.7A14.166,14.166,0,0,1-35.767-26.6,14.024,14.024,0,0,1-29-25a11.474,11.474,0,0,1,4.629,4.559A13.838,13.838,0,0,1-22.7-13.536Zm-8.225-2.115a4.132,4.132,0,0,0-1.41-3.29,5.19,5.19,0,0,0-3.525-1.222,5.09,5.09,0,0,0-3.408,1.175,5.219,5.219,0,0,0-1.715,3.337Zm21.761-6.2A10.6,10.6,0,0,1-5.64-25.263a9.09,9.09,0,0,1,4.7-1.246V-18H-3.149a6.771,6.771,0,0,0-4.512,1.293q-1.5,1.293-1.5,4.535V0H-17.2V-26.226h8.037Z" transform="translate(2830 3839)" fill="#012c5f"/>
    <path id="Path_8605" data-name="Path 8605" d="M-557-27.8v3.72h-7.4V0h-4.56V-24.08h-7.44V-27.8ZM-541.76.36a11.287,11.287,0,0,1-5.64-1.42,10.2,10.2,0,0,1-3.96-4,12.066,12.066,0,0,1-1.44-5.98A11.835,11.835,0,0,1-551.32-17a10.222,10.222,0,0,1,4.04-4,11.723,11.723,0,0,1,5.72-1.4,11.723,11.723,0,0,1,5.72,1.4,10.223,10.223,0,0,1,4.04,4,11.835,11.835,0,0,1,1.48,5.96,11.588,11.588,0,0,1-1.52,5.96,10.525,10.525,0,0,1-4.14,4.02A11.933,11.933,0,0,1-541.76.36Zm0-3.96a6.786,6.786,0,0,0,3.3-.84,6.4,6.4,0,0,0,2.5-2.52,8.1,8.1,0,0,0,.96-4.08,8.27,8.27,0,0,0-.92-4.06,6.211,6.211,0,0,0-2.44-2.5,6.673,6.673,0,0,0-3.28-.84,6.561,6.561,0,0,0-3.26.84,6,6,0,0,0-2.38,2.5,8.579,8.579,0,0,0-.88,4.06,7.734,7.734,0,0,0,1.82,5.5A6.014,6.014,0,0,0-541.76-3.6Zm21.6-15.2A9.267,9.267,0,0,1-517-21.36a9.651,9.651,0,0,1,4.52-1.04,10.073,10.073,0,0,1,5.26,1.42A9.975,9.975,0,0,1-503.48-17a12.343,12.343,0,0,1,1.36,5.88,12.7,12.7,0,0,1-1.36,5.94,10.163,10.163,0,0,1-3.74,4.08A9.864,9.864,0,0,1-512.48.36a9.563,9.563,0,0,1-4.48-1.02,10.039,10.039,0,0,1-3.2-2.54V10.48h-4.56V-22.04h4.56Zm13.4,7.68a7.868,7.868,0,0,0-.94-3.94,6.442,6.442,0,0,0-2.48-2.52,6.662,6.662,0,0,0-3.3-.86,6.471,6.471,0,0,0-3.26.88A6.552,6.552,0,0,0-519.22-15a7.981,7.981,0,0,0-.94,3.96,8.1,8.1,0,0,0,.94,3.98,6.519,6.519,0,0,0,2.48,2.58,6.471,6.471,0,0,0,3.26.88,6.432,6.432,0,0,0,3.3-.9,6.632,6.632,0,0,0,2.48-2.62A8.21,8.21,0,0,0-506.76-11.12Zm38.48,5.44h-11.64l-2,5.68h-4.76l9.96-27.84h5.28L-461.48,0h-4.8Zm-1.28-3.72-4.52-12.92L-478.64-9.4Zm24.6-13a9.884,9.884,0,0,1,4.66,1.08,7.681,7.681,0,0,1,3.22,3.2A10.526,10.526,0,0,1-435.92-13V0h-4.52V-12.32a6.4,6.4,0,0,0-1.48-4.54,5.267,5.267,0,0,0-4.04-1.58,5.332,5.332,0,0,0-4.06,1.58,6.343,6.343,0,0,0-1.5,4.54V0h-4.56V-22.04h4.56v2.52a7.548,7.548,0,0,1,2.86-2.12A9.143,9.143,0,0,1-444.96-22.4Zm14.4,11.28A12.2,12.2,0,0,1-429.18-17a10.115,10.115,0,0,1,3.76-3.98,10.147,10.147,0,0,1,5.3-1.42,10.336,10.336,0,0,1,4.26.94,8.717,8.717,0,0,1,3.34,2.5V-29.6h4.6V0h-4.6V-3.32a8.538,8.538,0,0,1-3.1,2.64A9.619,9.619,0,0,1-420.16.36a9.864,9.864,0,0,1-5.26-1.46,10.3,10.3,0,0,1-3.76-4.08A12.551,12.551,0,0,1-430.56-11.12Zm18.04.08a7.981,7.981,0,0,0-.94-3.96,6.6,6.6,0,0,0-2.46-2.56,6.436,6.436,0,0,0-3.28-.88,6.551,6.551,0,0,0-3.28.86,6.486,6.486,0,0,0-2.46,2.52,7.868,7.868,0,0,0-.94,3.94,8.21,8.21,0,0,0,.94,4,6.632,6.632,0,0,0,2.48,2.62,6.361,6.361,0,0,0,3.26.9,6.436,6.436,0,0,0,3.28-.88,6.565,6.565,0,0,0,2.46-2.58A8.1,8.1,0,0,0-412.52-11.04Zm16.24-7.8a7.161,7.161,0,0,1,2.66-2.62,7.868,7.868,0,0,1,3.94-.94v4.72h-1.16a5.554,5.554,0,0,0-4.06,1.36q-1.38,1.36-1.38,4.72V0h-4.56V-22.04h4.56ZM-374.84.36a11.287,11.287,0,0,1-5.64-1.42,10.2,10.2,0,0,1-3.96-4,12.066,12.066,0,0,1-1.44-5.98A11.834,11.834,0,0,1-384.4-17a10.223,10.223,0,0,1,4.04-4,11.723,11.723,0,0,1,5.72-1.4,11.723,11.723,0,0,1,5.72,1.4,10.223,10.223,0,0,1,4.04,4,11.834,11.834,0,0,1,1.48,5.96,11.589,11.589,0,0,1-1.52,5.96,10.525,10.525,0,0,1-4.14,4.02A11.933,11.933,0,0,1-374.84.36Zm0-3.96a6.785,6.785,0,0,0,3.3-.84,6.4,6.4,0,0,0,2.5-2.52,8.1,8.1,0,0,0,.96-4.08A8.27,8.27,0,0,0-369-15.1a6.211,6.211,0,0,0-2.44-2.5,6.673,6.673,0,0,0-3.28-.84,6.561,6.561,0,0,0-3.26.84,6,6,0,0,0-2.38,2.5,8.579,8.579,0,0,0-.88,4.06,7.733,7.733,0,0,0,1.82,5.5A6.014,6.014,0,0,0-374.84-3.6Zm19.36-21.36a2.825,2.825,0,0,1-2.08-.84,2.825,2.825,0,0,1-.84-2.08,2.825,2.825,0,0,1,.84-2.08,2.825,2.825,0,0,1,2.08-.84,2.777,2.777,0,0,1,2.04.84,2.825,2.825,0,0,1,.84,2.08,2.825,2.825,0,0,1-.84,2.08A2.777,2.777,0,0,1-355.48-24.96Zm2.24,2.92V0h-4.56V-22.04Zm5.56,10.92A12.2,12.2,0,0,1-346.3-17a10.115,10.115,0,0,1,3.76-3.98,10.147,10.147,0,0,1,5.3-1.42,10.336,10.336,0,0,1,4.26.94,8.717,8.717,0,0,1,3.34,2.5V-29.6h4.6V0h-4.6V-3.32a8.538,8.538,0,0,1-3.1,2.64A9.619,9.619,0,0,1-337.28.36a9.864,9.864,0,0,1-5.26-1.46,10.3,10.3,0,0,1-3.76-4.08A12.551,12.551,0,0,1-347.68-11.12Zm18.04.08a7.981,7.981,0,0,0-.94-3.96,6.6,6.6,0,0,0-2.46-2.56,6.436,6.436,0,0,0-3.28-.88,6.551,6.551,0,0,0-3.28.86,6.486,6.486,0,0,0-2.46,2.52,7.868,7.868,0,0,0-.94,3.94,8.21,8.21,0,0,0,.94,4,6.632,6.632,0,0,0,2.48,2.62,6.361,6.361,0,0,0,3.26.9,6.436,6.436,0,0,0,3.28-.88,6.565,6.565,0,0,0,2.46-2.58A8.1,8.1,0,0,0-329.64-11.04Zm39.92,5.36h-11.64l-2,5.68h-4.76l9.96-27.84h5.28L-282.92,0h-4.8ZM-291-9.4l-4.52-12.92L-300.08-9.4Zm18.04-9.4a9.267,9.267,0,0,1,3.16-2.56,9.651,9.651,0,0,1,4.52-1.04,10.073,10.073,0,0,1,5.26,1.42A9.975,9.975,0,0,1-256.28-17a12.343,12.343,0,0,1,1.36,5.88,12.7,12.7,0,0,1-1.36,5.94,10.163,10.163,0,0,1-3.74,4.08A9.864,9.864,0,0,1-265.28.36a9.563,9.563,0,0,1-4.48-1.02,10.04,10.04,0,0,1-3.2-2.54V10.48h-4.56V-22.04h4.56Zm13.4,7.68a7.868,7.868,0,0,0-.94-3.94,6.442,6.442,0,0,0-2.48-2.52,6.662,6.662,0,0,0-3.3-.86,6.471,6.471,0,0,0-3.26.88A6.552,6.552,0,0,0-272.02-15a7.981,7.981,0,0,0-.94,3.96,8.1,8.1,0,0,0,.94,3.98,6.52,6.52,0,0,0,2.48,2.58,6.471,6.471,0,0,0,3.26.88,6.432,6.432,0,0,0,3.3-.9,6.632,6.632,0,0,0,2.48-2.62A8.21,8.21,0,0,0-259.56-11.12Zm14.8-7.68a9.267,9.267,0,0,1,3.16-2.56,9.651,9.651,0,0,1,4.52-1.04,10.073,10.073,0,0,1,5.26,1.42A9.975,9.975,0,0,1-228.08-17a12.343,12.343,0,0,1,1.36,5.88,12.7,12.7,0,0,1-1.36,5.94,10.163,10.163,0,0,1-3.74,4.08A9.864,9.864,0,0,1-237.08.36a9.563,9.563,0,0,1-4.48-1.02,10.04,10.04,0,0,1-3.2-2.54V10.48h-4.56V-22.04h4.56Zm13.4,7.68a7.868,7.868,0,0,0-.94-3.94,6.442,6.442,0,0,0-2.48-2.52,6.662,6.662,0,0,0-3.3-.86,6.471,6.471,0,0,0-3.26.88A6.552,6.552,0,0,0-243.82-15a7.981,7.981,0,0,0-.94,3.96,8.1,8.1,0,0,0,.94,3.98,6.52,6.52,0,0,0,2.48,2.58,6.471,6.471,0,0,0,3.26.88,6.432,6.432,0,0,0,3.3-.9,6.632,6.632,0,0,0,2.48-2.62A8.21,8.21,0,0,0-231.36-11.12Zm30.8-16.68a16.932,16.932,0,0,1,7.78,1.7,12.162,12.162,0,0,1,5.16,4.88,14.678,14.678,0,0,1,1.82,7.42,14.348,14.348,0,0,1-1.82,7.36,12.019,12.019,0,0,1-5.16,4.78A17.273,17.273,0,0,1-200.56,0h-9.08V-27.8Zm0,24.08q4.88,0,7.48-2.64t2.6-7.44q0-4.84-2.6-7.56t-7.48-2.72h-4.52V-3.72ZM-160-11.56a14.258,14.258,0,0,1-.16,2.24H-177a6.116,6.116,0,0,0,1.96,4.24,6.187,6.187,0,0,0,4.32,1.6,5.336,5.336,0,0,0,5.2-3.08h4.92a9.928,9.928,0,0,1-3.62,4.98,10.621,10.621,0,0,1-6.5,1.94,11.256,11.256,0,0,1-5.66-1.42,10.1,10.1,0,0,1-3.92-4,12.2,12.2,0,0,1-1.42-5.98,12.489,12.489,0,0,1,1.38-5.98A9.705,9.705,0,0,1-176.46-21a11.547,11.547,0,0,1,5.74-1.4,11.225,11.225,0,0,1,5.56,1.36,9.61,9.61,0,0,1,3.8,3.82A11.5,11.5,0,0,1-160-11.56ZM-164.76-13a5.189,5.189,0,0,0-1.8-4.04,6.435,6.435,0,0,0-4.36-1.52,5.857,5.857,0,0,0-4.04,1.5,6.268,6.268,0,0,0-2,4.06Zm18.84,8.92,6.24-17.96h4.84L-143.24,0h-5.44l-8.36-22.04h4.88Zm35.8-7.48a14.257,14.257,0,0,1-.16,2.24h-16.84a6.116,6.116,0,0,0,1.96,4.24,6.187,6.187,0,0,0,4.32,1.6,5.336,5.336,0,0,0,5.2-3.08h4.92a9.928,9.928,0,0,1-3.62,4.98,10.621,10.621,0,0,1-6.5,1.94,11.256,11.256,0,0,1-5.66-1.42,10.1,10.1,0,0,1-3.92-4,12.2,12.2,0,0,1-1.42-5.98,12.489,12.489,0,0,1,1.38-5.98A9.705,9.705,0,0,1-126.58-21a11.547,11.547,0,0,1,5.74-1.4,11.225,11.225,0,0,1,5.56,1.36,9.61,9.61,0,0,1,3.8,3.82A11.5,11.5,0,0,1-110.12-11.56ZM-114.88-13a5.189,5.189,0,0,0-1.8-4.04,6.436,6.436,0,0,0-4.36-1.52,5.857,5.857,0,0,0-4.04,1.5,6.268,6.268,0,0,0-2,4.06ZM-100-29.6V0h-4.56V-29.6ZM-83.36.36A11.287,11.287,0,0,1-89-1.06a10.2,10.2,0,0,1-3.96-4,12.066,12.066,0,0,1-1.44-5.98A11.834,11.834,0,0,1-92.92-17a10.223,10.223,0,0,1,4.04-4,11.723,11.723,0,0,1,5.72-1.4A11.723,11.723,0,0,1-77.44-21a10.223,10.223,0,0,1,4.04,4,11.834,11.834,0,0,1,1.48,5.96,11.589,11.589,0,0,1-1.52,5.96,10.525,10.525,0,0,1-4.14,4.02A11.933,11.933,0,0,1-83.36.36Zm0-3.96a6.786,6.786,0,0,0,3.3-.84,6.4,6.4,0,0,0,2.5-2.52,8.1,8.1,0,0,0,.96-4.08,8.27,8.27,0,0,0-.92-4.06,6.211,6.211,0,0,0-2.44-2.5,6.673,6.673,0,0,0-3.28-.84,6.561,6.561,0,0,0-3.26.84,6,6,0,0,0-2.38,2.5,8.579,8.579,0,0,0-.88,4.06,7.734,7.734,0,0,0,1.82,5.5A6.014,6.014,0,0,0-83.36-3.6Zm21.6-15.2a9.267,9.267,0,0,1,3.16-2.56,9.651,9.651,0,0,1,4.52-1.04,10.073,10.073,0,0,1,5.26,1.42A9.975,9.975,0,0,1-45.08-17a12.343,12.343,0,0,1,1.36,5.88,12.7,12.7,0,0,1-1.36,5.94A10.164,10.164,0,0,1-48.82-1.1,9.864,9.864,0,0,1-54.08.36,9.563,9.563,0,0,1-58.56-.66a10.04,10.04,0,0,1-3.2-2.54V10.48h-4.56V-22.04h4.56Zm13.4,7.68a7.868,7.868,0,0,0-.94-3.94,6.442,6.442,0,0,0-2.48-2.52,6.662,6.662,0,0,0-3.3-.86,6.471,6.471,0,0,0-3.26.88A6.552,6.552,0,0,0-60.82-15a7.981,7.981,0,0,0-.94,3.96,8.1,8.1,0,0,0,.94,3.98,6.52,6.52,0,0,0,2.48,2.58,6.471,6.471,0,0,0,3.26.88,6.432,6.432,0,0,0,3.3-.9A6.632,6.632,0,0,0-49.3-7.12,8.21,8.21,0,0,0-48.36-11.12Zm30.44-.44a14.257,14.257,0,0,1-.16,2.24H-34.92a6.116,6.116,0,0,0,1.96,4.24,6.187,6.187,0,0,0,4.32,1.6,5.336,5.336,0,0,0,5.2-3.08h4.92a9.928,9.928,0,0,1-3.62,4.98A10.621,10.621,0,0,1-28.64.36,11.256,11.256,0,0,1-34.3-1.06a10.1,10.1,0,0,1-3.92-4,12.2,12.2,0,0,1-1.42-5.98,12.489,12.489,0,0,1,1.38-5.98A9.705,9.705,0,0,1-34.38-21a11.547,11.547,0,0,1,5.74-1.4,11.225,11.225,0,0,1,5.56,1.36,9.61,9.61,0,0,1,3.8,3.82A11.5,11.5,0,0,1-17.92-11.56ZM-22.68-13a5.189,5.189,0,0,0-1.8-4.04,6.436,6.436,0,0,0-4.36-1.52,5.857,5.857,0,0,0-4.04,1.5,6.269,6.269,0,0,0-2,4.06ZM-7.8-18.84a7.161,7.161,0,0,1,2.66-2.62A7.868,7.868,0,0,1-1.2-22.4v4.72H-2.36a5.554,5.554,0,0,0-4.06,1.36Q-7.8-14.96-7.8-11.6V0h-4.56V-22.04H-7.8Z" transform="translate(2930 4004)"/>
    <path id="Path_8607" data-name="Path 8607" d="M-96.28-5.48q1.36-1.08,1.24-1,3.92-3.24,6.18-5.32a25.586,25.586,0,0,0,3.82-4.36,7.879,7.879,0,0,0,1.56-4.44,3.908,3.908,0,0,0-.76-2.56,2.786,2.786,0,0,0-2.28-.92,2.815,2.815,0,0,0-2.38,1.14,5.256,5.256,0,0,0-.86,3.22h-6.6A11.329,11.329,0,0,1-94.9-25.4a8.48,8.48,0,0,1,3.64-3.36,11.493,11.493,0,0,1,5.02-1.08q4.76,0,7.18,2.44a8.641,8.641,0,0,1,2.42,6.36,12.474,12.474,0,0,1-2.92,7.94A43,43,0,0,1-87-5.96h10.8V-.4H-96.28ZM-72.12-15q0-6.88,2.66-10.84t8.58-3.96q5.92,0,8.58,3.96T-49.64-15q0,6.96-2.66,10.92T-60.88-.12q-5.92,0-8.58-3.96T-72.12-15Zm15.76,0a17.253,17.253,0,0,0-.88-6.22,3.52,3.52,0,0,0-3.64-2.18,3.52,3.52,0,0,0-3.64,2.18A17.253,17.253,0,0,0-65.4-15a26.151,26.151,0,0,0,.32,4.5,5.758,5.758,0,0,0,1.3,2.88,3.682,3.682,0,0,0,2.9,1.1,3.682,3.682,0,0,0,2.9-1.1,5.758,5.758,0,0,0,1.3-2.88A26.151,26.151,0,0,0-56.36-15ZM-45.2-5.48q1.36-1.08,1.24-1,3.92-3.24,6.18-5.32a25.586,25.586,0,0,0,3.82-4.36A7.879,7.879,0,0,0-32.4-20.6a3.908,3.908,0,0,0-.76-2.56,2.786,2.786,0,0,0-2.28-.92,2.815,2.815,0,0,0-2.38,1.14,5.256,5.256,0,0,0-.86,3.22h-6.6a11.329,11.329,0,0,1,1.46-5.68,8.48,8.48,0,0,1,3.64-3.36,11.493,11.493,0,0,1,5.02-1.08q4.76,0,7.18,2.44a8.641,8.641,0,0,1,2.42,6.36,12.474,12.474,0,0,1-2.92,7.94,43,43,0,0,1-7.44,7.14h10.8V-.4H-45.2Zm23.92,0q1.36-1.08,1.24-1,3.92-3.24,6.18-5.32a25.586,25.586,0,0,0,3.82-4.36A7.879,7.879,0,0,0-8.48-20.6a3.908,3.908,0,0,0-.76-2.56,2.786,2.786,0,0,0-2.28-.92,2.815,2.815,0,0,0-2.38,1.14,5.256,5.256,0,0,0-.86,3.22h-6.6A11.329,11.329,0,0,1-19.9-25.4a8.48,8.48,0,0,1,3.64-3.36,11.493,11.493,0,0,1,5.02-1.08q4.76,0,7.18,2.44a8.641,8.641,0,0,1,2.42,6.36A12.474,12.474,0,0,1-4.56-13.1,43,43,0,0,1-12-5.96H-1.2V-.4H-21.28Z" transform="translate(2684 4164)"/>
    <path id="Path_8602" data-name="Path 8602" d="M8,0H88a8,8,0,0,1,8,8V88a8,8,0,0,1-8,8H8a8,8,0,0,1-8-8V8A8,8,0,0,1,8,0Z" transform="translate(2592 3677)" fill="#012c5f"/>
    <path id="Path_8601" data-name="Path 8601" d="M-18.894-32.994a19.191,19.191,0,0,1,9.118,2.068,14.774,14.774,0,0,1,6.04,5.8A17.055,17.055,0,0,1-1.6-16.5,17.089,17.089,0,0,1-3.736-7.9,14.7,14.7,0,0,1-9.8-2.068,19.227,19.227,0,0,1-18.894,0H-31.255V-26.132h-7.1v-6.862h19.463Zm-.517,26.038a9.7,9.7,0,0,0,7.1-2.491A9.432,9.432,0,0,0-9.776-16.5a9.594,9.594,0,0,0-2.538-7.1,9.594,9.594,0,0,0-7.1-2.538h-3.807V-6.956Z" transform="translate(2657 3742)" fill="#fff"/>
    <path id="Path_8603" data-name="Path 8603" d="M-.222,0H3V13H-.222Z" transform="translate(2634 3732)" fill="#012c5f"/>
  </g>
</svg>
