<svg width="45" height="45" viewBox="0 0 45 45" fill="none" xmlns="http://www.w3.org/2000/svg">
<path d="M22.6837 26.0488C24.5614 26.0311 26.0692 24.4946 26.0515 22.6169C26.0338 20.7392 24.4972 19.2314 22.6196 19.2492C20.7419 19.2669 19.2341 20.8034 19.2518 22.6811C19.2695 24.5588 20.8061 26.0666 22.6837 26.0488Z" fill="#00D8FF"/>
<path d="M22.7237 30.4413C18.6382 30.5787 14.5568 30.0664 10.6321 28.9234C8.81881 28.3674 7.12412 27.4805 5.63367 26.3076C5.06538 25.9074 4.59037 25.3891 4.24124 24.7881C3.89212 24.1872 3.67714 23.5178 3.61105 22.8259C3.58983 20.5779 6.03868 18.3515 10.162 16.8709C14.1682 15.5557 18.3607 14.897 22.5772 14.9204C26.7363 14.823 30.8842 15.3918 34.8635 16.6051C36.6099 17.1438 38.247 17.9876 39.6989 19.0974C40.2574 19.4787 40.7252 19.9781 41.0691 20.5604C41.4131 21.1426 41.6248 21.7933 41.6892 22.4665C41.7113 24.8028 38.9729 27.1965 34.5399 28.71C30.7128 29.8877 26.7278 30.4716 22.7237 30.4413ZM22.5926 16.5469C18.5586 16.531 14.5479 17.1574 10.711 18.4026C6.91568 19.7672 5.22611 21.6002 5.23749 22.8065C5.2494 24.0685 7.10268 26.0353 11.1438 27.3749C14.8984 28.4627 18.8017 28.9487 22.7084 28.8148C26.5391 28.8472 30.3523 28.2929 34.0153 27.1713C38.184 25.746 40.0692 23.7412 40.0573 22.4819C39.9846 22.0504 39.8232 21.6386 39.5833 21.2727C39.3434 20.9067 39.0303 20.5945 38.6636 20.3557C37.3646 19.3712 35.9022 18.6235 34.3436 18.1469C30.5368 16.9911 26.5698 16.4509 22.5926 16.5469Z" fill="#00D8FF"/>
<path d="M15.0863 39.6766C14.452 39.6971 13.8237 39.5491 13.2652 39.2477C11.3072 38.1427 10.6021 34.9098 11.3788 30.5978C12.2411 26.4702 13.7652 22.5092 15.8923 18.8683C17.8853 15.2169 20.4496 11.9079 23.4881 9.06675C24.8272 7.82286 26.376 6.82606 28.0628 6.12257C28.6725 5.82976 29.3392 5.67467 30.0156 5.66828C30.692 5.6619 31.3615 5.80438 31.9767 6.08563C34.0126 7.23334 34.7168 10.8009 33.815 15.3969C32.9227 19.3013 31.4371 23.0458 29.4098 26.4998C27.4877 30.1076 25.0048 33.3873 22.0538 36.2161C20.6663 37.5087 19.0514 38.5334 17.2909 39.2382C16.586 39.5075 15.8406 39.6557 15.0863 39.6766ZM17.3088 19.6628C15.28 23.1492 13.8191 26.9363 12.9809 30.8819C12.2663 34.8532 13.0109 37.2304 14.0665 37.827C15.1604 38.4464 17.7957 37.8245 20.976 34.9927C23.793 32.2827 26.1628 29.1434 27.9972 25.6917C29.9394 22.3895 31.3646 18.8095 32.2234 15.076C33.072 10.7498 32.2787 8.11334 31.1821 7.49535C30.7718 7.34258 30.3344 7.27659 29.8973 7.30155C29.4602 7.32651 29.0331 7.44187 28.6429 7.64036C27.1415 8.27655 25.7642 9.17261 24.5741 10.2873C21.6711 13.0087 19.2217 16.1765 17.3184 19.6709L17.3088 19.6628Z" fill="#00D8FF"/>
<path d="M30.5313 39.5484C28.6886 39.5658 26.3376 38.4728 23.8808 36.4001C20.7353 33.5917 18.0647 30.2931 15.9724 26.632C13.8046 23.0815 12.2188 19.2069 11.2752 15.1553C10.8658 13.3727 10.7756 11.5317 11.009 9.71762C11.0606 9.04501 11.2591 8.39189 11.5905 7.80433C11.9219 7.21678 12.3782 6.70908 12.9272 6.31706C14.9384 5.12707 18.3809 6.29822 21.912 9.37398C24.8491 12.0965 27.3512 15.2534 29.3311 18.7346C31.4968 22.2018 33.098 25.991 34.0749 29.9606C34.5018 31.8086 34.583 33.7196 34.3144 35.5971C34.2528 36.2892 34.0422 36.9597 33.6972 37.5628C33.3522 38.1658 32.8808 38.6871 32.3154 39.0909C31.7718 39.399 31.156 39.5569 30.5313 39.5484ZM17.3722 25.8001C19.3792 29.2988 21.9304 32.4558 24.9299 35.1526C28.0132 37.7552 30.4447 38.298 31.482 37.6748C32.5639 37.0322 33.3419 34.4435 32.4757 30.2749C31.5339 26.4851 29.9983 22.8682 27.9258 19.5584C26.0363 16.2266 23.6479 13.2036 20.8437 10.5945C17.5196 7.69905 14.8398 7.07016 13.7564 7.71145C13.4195 7.99056 13.1441 8.33649 12.9477 8.72741C12.7512 9.11833 12.6379 9.54573 12.615 9.98264C12.414 11.6004 12.5 13.2409 12.8688 14.8288C13.7763 18.7034 15.297 22.4081 17.3736 25.8028L17.3722 25.8001Z" fill="#00D8FF"/>
</svg>
