<svg width="41" height="38" viewBox="0 0 41 38" fill="none" xmlns="http://www.w3.org/2000/svg">
<path d="M34.975 5.11866H26.5309V2.09339C26.5309 0.939253 25.5919 0.000324459 24.4379 0.000324459L16.3514 0C15.1973 0 14.2584 0.939011 14.2584 2.09307V5.11834L5.81431 5.11866C2.60797 5.11866 0 7.72663 0 10.933V29.3934C0 32.5998 2.60797 35.2077 5.81431 35.2077H6.90549V38H13.8827V35.2077H26.9067V38H33.8839V35.2077H34.9757C38.1821 35.2077 40.79 32.5998 40.79 29.3934V10.933C40.7897 7.72696 38.1814 5.11866 34.9754 5.11866H34.975ZM16.5835 2.32572H24.2051V5.11833L16.5835 5.11865V2.32572ZM38.4636 29.3938C38.4636 31.3175 36.8987 32.8824 34.975 32.8824H5.81373C3.89002 32.8824 2.32514 31.3175 2.32514 29.3938V10.9326C2.32514 9.00885 3.89002 7.44397 5.81373 7.44397H34.9742C36.8979 7.44397 38.4627 9.00885 38.4627 10.9326L38.4636 29.3938Z" fill="#6CC04A"/>
<path d="M21.2259 12.5493L17.3652 22.1645L26.4912 25.8289L30.3519 16.2137L27.7523 9.49219L21.2259 12.5493ZM27.3812 14.1602C27.0941 14.875 26.2816 15.2222 25.5668 14.9351C24.852 14.6479 24.5049 13.8355 24.792 13.1207C25.0792 12.4059 25.8916 12.0587 26.6064 12.3459C27.3218 12.633 27.6687 13.4451 27.3812 14.1602Z" fill="#6CC04A"/>
</svg>
