<?xml version="1.0" encoding="UTF-8"?>
<!DOCTYPE svg PUBLIC "-//W3C//DTD SVG 1.1//EN" "http://www.w3.org/Graphics/SVG/1.1/DTD/svg11.dtd">
<!-- Creator: CorelDRAW X6 -->
<svg xmlns="http://www.w3.org/2000/svg" xml:space="preserve" width="111.374mm" height="111.125mm" version="1.1" style="shape-rendering:geometricPrecision; text-rendering:geometricPrecision; image-rendering:optimizeQuality; fill-rule:evenodd; clip-rule:evenodd"
viewBox="0 0 13513 13483"
 xmlns:xlink="http://www.w3.org/1999/xlink">
 <defs>
  <style type="text/css">
   <![CDATA[
    .fil0 {fill:#FEFEFE}
   ]]>
  </style>
 </defs>
 <g id="Layer_x0020_1">
  <metadata id="CorelCorpID_0Corel-Layer"/>
  <path class="fil0" d="M52 754c136,37 1917,1864 2247,2199l3756 3810c-87,155 -203,255 -339,379l-1131 1137c-513,506 -987,989 -1499,1497 -329,327 -2884,2926 -3027,2979 -57,229 -29,489 -29,728l13483 0 0 -13483 -13483 0 22 754z"/>
  <path class="fil0" d="M55 3199c676,741 1873,1877 2666,2670 195,195 759,706 862,893 -98,138 -300,327 -432,468 -160,171 -293,274 -452,447 -565,617 -2192,2100 -2645,2657l5 2420c143,-52 2698,-2652 3027,-2979 512,-508 985,-991 1499,-1497l1131 -1137c136,-124 252,-224 339,-379l-3756 -3810c-330,-335 -2112,-2162 -2247,-2199l4 2446z"/>
  <path class="fil0" d="M3748 1027l-2 2015c12,216 70,224 184,334 98,95 160,161 257,257l3104 3129c-393,462 -2685,2699 -3263,3270 -362,357 -279,330 -279,1182l14 1559c129,-165 559,-546 739,-726 259,-259 490,-488 749,-749l4525 -4535 -5227 -5245c-164,-166 -615,-675 -798,-761l-1 270z"/>
  <path class="fil0" d="M55 10335c453,-557 2080,-2039 2645,-2657 159,-174 292,-276 452,-447 131,-141 334,-330 432,-468 -103,-187 -667,-698 -862,-893 -793,-793 -1989,-1929 -2666,-2670 -74,361 -74,6741 -1,7135z"/>
 </g>
</svg>
