<svg width="152" height="131" viewBox="0 0 152 131" fill="none" xmlns="http://www.w3.org/2000/svg">
<path d="M114.001 0H37.9987L0 65.5L37.9987 131H114.001L152 65.5L114.001 0Z" fill="#E75825"/>
<path d="M93.6791 92.4505H58.6608V85.0979L71.2251 72.3811C74.957 68.5702 77.388 65.9347 78.5231 64.4693C79.6686 62.9936 80.4928 61.6267 80.9904 60.3685C81.4983 59.1154 81.7575 57.8106 81.7575 56.454C81.7575 54.4553 81.2029 52.9641 80.0988 51.9803C78.9896 51.0017 77.5124 50.5098 75.6619 50.5098C73.713 50.5098 71.8263 50.9603 70.0018 51.8561C68.1773 52.7415 66.2698 54.0049 64.2794 55.6463L58.5156 48.8322C60.9881 46.7351 63.0355 45.2491 64.6526 44.3792C66.2698 43.5093 68.0373 42.8414 69.9603 42.3702C71.8781 41.9042 74.0292 41.666 76.4083 41.666C79.5287 41.666 82.2966 42.2408 84.7016 43.3851C87.1067 44.519 88.9623 46.1138 90.2788 48.1694C91.6057 50.2302 92.2692 52.581 92.2692 55.232C92.2692 57.5413 91.8597 59.7005 91.046 61.7147C90.2425 63.7341 88.9934 65.8052 87.2933 67.9281C85.5931 70.0563 82.592 73.0801 78.2951 76.9998L71.847 83.0682V83.5446H93.6791V92.4505Z" fill="white"/>
</svg>
