<svg width="976" height="175" viewBox="0 0 976 175" fill="none" xmlns="http://www.w3.org/2000/svg">
<path d="M726.514 0.0546875H0L77.563 87.2491L0 174.406H726.514L804.077 87.2491L726.514 0.0546875Z" fill="#47175A"/>
<path d="M201.061 103.582C198.685 103.582 196.5 103.201 194.505 102.438C192.51 101.646 190.78 100.546 189.313 99.1385C187.846 97.7011 186.702 96.0291 185.881 94.1225C185.06 92.2158 184.649 90.1185 184.649 87.8305C184.649 85.5425 185.06 83.4451 185.881 81.5385C186.702 79.6318 187.846 77.9745 189.313 76.5665C190.809 75.1291 192.554 74.0291 194.549 73.2665C196.544 72.4745 198.744 72.0785 201.149 72.0785C203.584 72.0785 205.813 72.4745 207.837 73.2665C209.861 74.0585 211.577 75.2465 212.985 76.8305L210.257 79.5585C208.996 78.3265 207.617 77.4318 206.121 76.8745C204.654 76.2878 203.056 75.9945 201.325 75.9945C199.565 75.9945 197.922 76.2878 196.397 76.8745C194.901 77.4611 193.596 78.2825 192.481 79.3385C191.396 80.3945 190.545 81.6558 189.929 83.1225C189.342 84.5598 189.049 86.1291 189.049 87.8305C189.049 89.5025 189.342 91.0718 189.929 92.5385C190.545 93.9758 191.396 95.2371 192.481 96.3225C193.596 97.3785 194.901 98.1998 196.397 98.7865C197.893 99.3731 199.521 99.6665 201.281 99.6665C202.924 99.6665 204.493 99.4171 205.989 98.9185C207.514 98.3905 208.922 97.5251 210.213 96.3225L212.721 99.6665C211.196 100.957 209.406 101.94 207.353 102.614C205.329 103.26 203.232 103.582 201.061 103.582ZM208.497 99.0945V87.6545H212.721V99.6665L208.497 99.0945ZM220.529 103.23V79.9105H224.577V86.2465L224.181 84.6625C224.827 83.0491 225.912 81.8171 227.437 80.9665C228.963 80.1158 230.84 79.6905 233.069 79.6905V83.7825C232.893 83.7531 232.717 83.7385 232.541 83.7385C232.395 83.7385 232.248 83.7385 232.101 83.7385C229.843 83.7385 228.053 84.4131 226.733 85.7625C225.413 87.1118 224.753 89.0625 224.753 91.6145V103.23H220.529ZM251.033 103.23V98.3025L250.813 97.3785V88.9745C250.813 87.1851 250.285 85.8065 249.229 84.8385C248.202 83.8411 246.647 83.3425 244.565 83.3425C243.186 83.3425 241.837 83.5771 240.517 84.0465C239.197 84.4865 238.082 85.0878 237.173 85.8505L235.413 82.6825C236.615 81.7145 238.053 80.9811 239.725 80.4825C241.426 79.9545 243.201 79.6905 245.049 79.6905C248.246 79.6905 250.71 80.4678 252.441 82.0225C254.171 83.5771 255.037 85.9531 255.037 89.1505V103.23H251.033ZM243.377 103.494C241.646 103.494 240.121 103.201 238.801 102.614C237.51 102.028 236.513 101.221 235.809 100.194C235.105 99.1385 234.753 97.9505 234.753 96.6305C234.753 95.3691 235.046 94.2251 235.633 93.1985C236.249 92.1718 237.231 91.3505 238.581 90.7345C239.959 90.1185 241.807 89.8105 244.125 89.8105H251.517V92.8465H244.301C242.189 92.8465 240.766 93.1985 240.033 93.9025C239.299 94.6065 238.933 95.4571 238.933 96.4545C238.933 97.5985 239.387 98.5225 240.297 99.2265C241.206 99.9011 242.467 100.238 244.081 100.238C245.665 100.238 247.043 99.8865 248.217 99.1825C249.419 98.4785 250.285 97.4518 250.813 96.1025L251.649 99.0065C251.091 100.385 250.109 101.485 248.701 102.306C247.293 103.098 245.518 103.494 243.377 103.494ZM275.218 103.494C273.282 103.494 271.507 103.054 269.894 102.174C268.31 101.265 267.034 99.9305 266.066 98.1705C265.127 96.4105 264.658 94.2105 264.658 91.5705C264.658 88.9305 265.112 86.7305 266.022 84.9705C266.96 83.2105 268.222 81.8905 269.806 81.0105C271.419 80.1305 273.223 79.6905 275.218 79.6905C277.506 79.6905 279.53 80.1891 281.29 81.1865C283.05 82.1838 284.443 83.5771 285.47 85.3665C286.496 87.1265 287.01 89.1945 287.01 91.5705C287.01 93.9465 286.496 96.0291 285.47 97.8185C284.443 99.6078 283.05 101.001 281.29 101.998C279.53 102.996 277.506 103.494 275.218 103.494ZM262.854 111.766V79.9105H266.902V86.2025L266.638 91.6145L267.078 97.0265V111.766H262.854ZM274.866 99.7985C276.362 99.7985 277.696 99.4611 278.87 98.7865C280.072 98.1118 281.011 97.1585 281.686 95.9265C282.39 94.6651 282.742 93.2131 282.742 91.5705C282.742 89.8985 282.39 88.4611 281.686 87.2585C281.011 86.0265 280.072 85.0731 278.87 84.3985C277.696 83.7238 276.362 83.3865 274.866 83.3865C273.399 83.3865 272.064 83.7238 270.862 84.3985C269.688 85.0731 268.75 86.0265 268.046 87.2585C267.371 88.4611 267.034 89.8985 267.034 91.5705C267.034 93.2131 267.371 94.6651 268.046 95.9265C268.75 97.1585 269.688 98.1118 270.862 98.7865C272.064 99.4611 273.399 99.7985 274.866 99.7985ZM305.298 79.6905C307.204 79.6905 308.876 80.0571 310.314 80.7905C311.78 81.5238 312.924 82.6385 313.746 84.1345C314.567 85.6305 314.978 87.5225 314.978 89.8105V103.23H310.754V90.2945C310.754 88.0358 310.196 86.3345 309.082 85.1905C307.996 84.0465 306.456 83.4745 304.462 83.4745C302.966 83.4745 301.66 83.7678 300.546 84.3545C299.431 84.9411 298.566 85.8065 297.95 86.9505C297.363 88.0945 297.07 89.5171 297.07 91.2185V103.23H292.846V70.5825H297.07V86.2025L296.234 84.5305C296.996 83.0051 298.17 81.8171 299.754 80.9665C301.338 80.1158 303.186 79.6905 305.298 79.6905ZM322.795 103.23V79.9105H327.019V103.23H322.795ZM324.907 75.4225C324.086 75.4225 323.396 75.1585 322.839 74.6305C322.311 74.1025 322.047 73.4571 322.047 72.6945C322.047 71.9025 322.311 71.2425 322.839 70.7145C323.396 70.1865 324.086 69.9225 324.907 69.9225C325.728 69.9225 326.403 70.1865 326.931 70.7145C327.488 71.2131 327.767 71.8438 327.767 72.6065C327.767 73.3985 327.503 74.0731 326.975 74.6305C326.447 75.1585 325.758 75.4225 324.907 75.4225ZM345.248 103.494C342.872 103.494 340.745 102.981 338.868 101.954C337.02 100.928 335.568 99.5198 334.512 97.7305C333.456 95.9411 332.928 93.8878 332.928 91.5705C332.928 89.2531 333.456 87.1998 334.512 85.4105C335.568 83.6211 337.02 82.2278 338.868 81.2305C340.745 80.2038 342.872 79.6905 345.248 79.6905C347.36 79.6905 349.237 80.1158 350.88 80.9665C352.552 81.7878 353.843 83.0198 354.752 84.6625L351.54 86.7305C350.777 85.5865 349.839 84.7505 348.724 84.2225C347.639 83.6651 346.465 83.3865 345.204 83.3865C343.679 83.3865 342.315 83.7238 341.112 84.3985C339.909 85.0731 338.956 86.0265 338.252 87.2585C337.548 88.4611 337.196 89.8985 337.196 91.5705C337.196 93.2425 337.548 94.6945 338.252 95.9265C338.956 97.1585 339.909 98.1118 341.112 98.7865C342.315 99.4611 343.679 99.7985 345.204 99.7985C346.465 99.7985 347.639 99.5345 348.724 99.0065C349.839 98.4491 350.777 97.5985 351.54 96.4545L354.752 98.4785C353.843 100.092 352.552 101.338 350.88 102.218C349.237 103.069 347.36 103.494 345.248 103.494ZM366.909 103.494C364.973 103.494 363.125 103.23 361.365 102.702C359.634 102.174 358.27 101.529 357.273 100.766L359.033 97.4225C360.03 98.0971 361.262 98.6691 362.729 99.1385C364.195 99.6078 365.691 99.8425 367.217 99.8425C369.182 99.8425 370.59 99.5638 371.441 99.0065C372.321 98.4491 372.761 97.6718 372.761 96.6745C372.761 95.9411 372.497 95.3691 371.969 94.9585C371.441 94.5478 370.737 94.2398 369.857 94.0345C369.006 93.8291 368.053 93.6531 366.997 93.5065C365.941 93.3305 364.885 93.1251 363.829 92.8905C362.773 92.6265 361.805 92.2745 360.925 91.8345C360.045 91.3651 359.341 90.7345 358.813 89.9425C358.285 89.1211 358.021 88.0358 358.021 86.6865C358.021 85.2785 358.417 84.0465 359.209 82.9905C360.001 81.9345 361.115 81.1278 362.553 80.5705C364.019 79.9838 365.75 79.6905 367.745 79.6905C369.27 79.6905 370.81 79.8811 372.365 80.2625C373.949 80.6145 375.239 81.1278 376.237 81.8025L374.433 85.1465C373.377 84.4425 372.277 83.9585 371.133 83.6945C369.989 83.4305 368.845 83.2985 367.701 83.2985C365.853 83.2985 364.474 83.6065 363.565 84.2225C362.655 84.8091 362.201 85.5718 362.201 86.5105C362.201 87.3025 362.465 87.9185 362.993 88.3585C363.55 88.7691 364.254 89.0918 365.105 89.3265C365.985 89.5611 366.953 89.7665 368.009 89.9425C369.065 90.0891 370.121 90.2945 371.177 90.5585C372.233 90.7931 373.186 91.1305 374.037 91.5705C374.917 92.0105 375.621 92.6265 376.149 93.4185C376.706 94.2105 376.985 95.2665 376.985 96.5865C376.985 97.9945 376.574 99.2118 375.753 100.238C374.931 101.265 373.773 102.072 372.277 102.658C370.781 103.216 368.991 103.494 366.909 103.494ZM394.696 103.23V72.4305H407.676C410.962 72.4305 413.851 73.0758 416.344 74.3665C418.867 75.6571 420.818 77.4611 422.196 79.7785C423.604 82.0958 424.308 84.7798 424.308 87.8305C424.308 90.8811 423.604 93.5651 422.196 95.8825C420.818 98.1998 418.867 100.004 416.344 101.294C413.851 102.585 410.962 103.23 407.676 103.23H394.696ZM399.096 99.4025H407.412C409.964 99.4025 412.164 98.9185 414.012 97.9505C415.89 96.9825 417.342 95.6331 418.368 93.9025C419.395 92.1425 419.908 90.1185 419.908 87.8305C419.908 85.5131 419.395 83.4891 418.368 81.7585C417.342 80.0278 415.89 78.6785 414.012 77.7105C412.164 76.7425 409.964 76.2585 407.412 76.2585H399.096V99.4025ZM440.816 103.494C438.322 103.494 436.122 102.981 434.216 101.954C432.338 100.928 430.872 99.5198 429.816 97.7305C428.789 95.9411 428.276 93.8878 428.276 91.5705C428.276 89.2531 428.774 87.1998 429.772 85.4105C430.798 83.6211 432.192 82.2278 433.952 81.2305C435.741 80.2038 437.75 79.6905 439.98 79.6905C442.238 79.6905 444.233 80.1891 445.964 81.1865C447.694 82.1838 449.044 83.5918 450.012 85.4105C451.009 87.1998 451.508 89.2971 451.508 91.7025C451.508 91.8785 451.493 92.0838 451.464 92.3185C451.464 92.5531 451.449 92.7731 451.42 92.9785H431.576V89.9425H449.22L447.504 90.9985C447.533 89.5025 447.225 88.1678 446.58 86.9945C445.934 85.8211 445.04 84.9118 443.896 84.2665C442.781 83.5918 441.476 83.2545 439.98 83.2545C438.513 83.2545 437.208 83.5918 436.064 84.2665C434.92 84.9118 434.025 85.8358 433.38 87.0385C432.734 88.2118 432.412 89.5611 432.412 91.0865V91.7905C432.412 93.3451 432.764 94.7385 433.468 95.9705C434.201 97.1731 435.213 98.1118 436.504 98.7865C437.794 99.4611 439.276 99.7985 440.948 99.7985C442.326 99.7985 443.573 99.5638 444.688 99.0945C445.832 98.6251 446.829 97.9211 447.68 96.9825L450.012 99.7105C448.956 100.942 447.636 101.881 446.052 102.526C444.497 103.172 442.752 103.494 440.816 103.494ZM464.061 103.494C462.125 103.494 460.277 103.23 458.517 102.702C456.786 102.174 455.422 101.529 454.425 100.766L456.185 97.4225C457.182 98.0971 458.414 98.6691 459.881 99.1385C461.348 99.6078 462.844 99.8425 464.369 99.8425C466.334 99.8425 467.742 99.5638 468.593 99.0065C469.473 98.4491 469.913 97.6718 469.913 96.6745C469.913 95.9411 469.649 95.3691 469.121 94.9585C468.593 94.5478 467.889 94.2398 467.009 94.0345C466.158 93.8291 465.205 93.6531 464.149 93.5065C463.093 93.3305 462.037 93.1251 460.981 92.8905C459.925 92.6265 458.957 92.2745 458.077 91.8345C457.197 91.3651 456.493 90.7345 455.965 89.9425C455.437 89.1211 455.173 88.0358 455.173 86.6865C455.173 85.2785 455.569 84.0465 456.361 82.9905C457.153 81.9345 458.268 81.1278 459.705 80.5705C461.172 79.9838 462.902 79.6905 464.897 79.6905C466.422 79.6905 467.962 79.8811 469.517 80.2625C471.101 80.6145 472.392 81.1278 473.389 81.8025L471.585 85.1465C470.529 84.4425 469.429 83.9585 468.285 83.6945C467.141 83.4305 465.997 83.2985 464.853 83.2985C463.005 83.2985 461.626 83.6065 460.717 84.2225C459.808 84.8091 459.353 85.5718 459.353 86.5105C459.353 87.3025 459.617 87.9185 460.145 88.3585C460.702 88.7691 461.406 89.0918 462.257 89.3265C463.137 89.5611 464.105 89.7665 465.161 89.9425C466.217 90.0891 467.273 90.2945 468.329 90.5585C469.385 90.7931 470.338 91.1305 471.189 91.5705C472.069 92.0105 472.773 92.6265 473.301 93.4185C473.858 94.2105 474.137 95.2665 474.137 96.5865C474.137 97.9945 473.726 99.2118 472.905 100.238C472.084 101.265 470.925 102.072 469.429 102.658C467.933 103.216 466.144 103.494 464.061 103.494ZM479.416 103.23V79.9105H483.64V103.23H479.416ZM481.528 75.4225C480.707 75.4225 480.017 75.1585 479.46 74.6305C478.932 74.1025 478.668 73.4571 478.668 72.6945C478.668 71.9025 478.932 71.2425 479.46 70.7145C480.017 70.1865 480.707 69.9225 481.528 69.9225C482.349 69.9225 483.024 70.1865 483.552 70.7145C484.109 71.2131 484.388 71.8438 484.388 72.6065C484.388 73.3985 484.124 74.0731 483.596 74.6305C483.068 75.1585 482.379 75.4225 481.528 75.4225ZM501.913 112.03C499.772 112.03 497.689 111.722 495.665 111.106C493.671 110.52 492.043 109.669 490.781 108.554L492.805 105.298C493.891 106.237 495.225 106.97 496.809 107.498C498.393 108.056 500.051 108.334 501.781 108.334C504.539 108.334 506.563 107.689 507.853 106.398C509.144 105.108 509.789 103.142 509.789 100.502V95.5745L510.229 90.9545L510.009 86.2905V79.9105H514.013V100.062C514.013 104.169 512.987 107.19 510.933 109.126C508.88 111.062 505.873 112.03 501.913 112.03ZM501.385 102.262C499.127 102.262 497.103 101.793 495.313 100.854C493.553 99.8865 492.145 98.5518 491.089 96.8505C490.063 95.1491 489.549 93.1838 489.549 90.9545C489.549 88.6958 490.063 86.7305 491.089 85.0585C492.145 83.3571 493.553 82.0371 495.313 81.0985C497.103 80.1598 499.127 79.6905 501.385 79.6905C503.38 79.6905 505.199 80.1011 506.841 80.9225C508.484 81.7145 509.789 82.9465 510.757 84.6185C511.755 86.2905 512.253 88.4025 512.253 90.9545C512.253 93.4771 511.755 95.5745 510.757 97.2465C509.789 98.9185 508.484 100.18 506.841 101.03C505.199 101.852 503.38 102.262 501.385 102.262ZM501.869 98.5665C503.424 98.5665 504.803 98.2438 506.005 97.5985C507.208 96.9531 508.147 96.0585 508.821 94.9145C509.525 93.7705 509.877 92.4505 509.877 90.9545C509.877 89.4585 509.525 88.1385 508.821 86.9945C508.147 85.8505 507.208 84.9705 506.005 84.3545C504.803 83.7091 503.424 83.3865 501.869 83.3865C500.315 83.3865 498.921 83.7091 497.689 84.3545C496.487 84.9705 495.533 85.8505 494.829 86.9945C494.155 88.1385 493.817 89.4585 493.817 90.9545C493.817 92.4505 494.155 93.7705 494.829 94.9145C495.533 96.0585 496.487 96.9531 497.689 97.5985C498.921 98.2438 500.315 98.5665 501.869 98.5665ZM534.536 79.6905C536.443 79.6905 538.115 80.0571 539.552 80.7905C541.019 81.5238 542.163 82.6385 542.984 84.1345C543.805 85.6305 544.216 87.5225 544.216 89.8105V103.23H539.992V90.2945C539.992 88.0358 539.435 86.3345 538.32 85.1905C537.235 84.0465 535.695 83.4745 533.7 83.4745C532.204 83.4745 530.899 83.7678 529.784 84.3545C528.669 84.9411 527.804 85.8065 527.188 86.9505C526.601 88.0945 526.308 89.5171 526.308 91.2185V103.23H522.084V79.9105H526.132V86.2025L525.472 84.5305C526.235 83.0051 527.408 81.8171 528.992 80.9665C530.576 80.1158 532.424 79.6905 534.536 79.6905ZM552.033 103.23V79.9105H556.257V103.23H552.033ZM554.145 75.4225C553.324 75.4225 552.635 75.1585 552.077 74.6305C551.549 74.1025 551.285 73.4571 551.285 72.6945C551.285 71.9025 551.549 71.2425 552.077 70.7145C552.635 70.1865 553.324 69.9225 554.145 69.9225C554.967 69.9225 555.641 70.1865 556.169 70.7145C556.727 71.2131 557.005 71.8438 557.005 72.6065C557.005 73.3985 556.741 74.0731 556.213 74.6305C555.685 75.1585 554.996 75.4225 554.145 75.4225ZM576.774 79.6905C578.681 79.6905 580.353 80.0571 581.79 80.7905C583.257 81.5238 584.401 82.6385 585.222 84.1345C586.044 85.6305 586.454 87.5225 586.454 89.8105V103.23H582.23V90.2945C582.23 88.0358 581.673 86.3345 580.558 85.1905C579.473 84.0465 577.933 83.4745 575.938 83.4745C574.442 83.4745 573.137 83.7678 572.022 84.3545C570.908 84.9411 570.042 85.8065 569.426 86.9505C568.84 88.0945 568.546 89.5171 568.546 91.2185V103.23H564.322V79.9105H568.37V86.2025L567.71 84.5305C568.473 83.0051 569.646 81.8171 571.23 80.9665C572.814 80.1158 574.662 79.6905 576.774 79.6905ZM604.48 112.03C602.338 112.03 600.256 111.722 598.232 111.106C596.237 110.52 594.609 109.669 593.348 108.554L595.372 105.298C596.457 106.237 597.792 106.97 599.376 107.498C600.96 108.056 602.617 108.334 604.348 108.334C607.105 108.334 609.129 107.689 610.42 106.398C611.71 105.108 612.356 103.142 612.356 100.502V95.5745L612.796 90.9545L612.576 86.2905V79.9105H616.58V100.062C616.58 104.169 615.553 107.19 613.5 109.126C611.446 111.062 608.44 112.03 604.48 112.03ZM603.952 102.262C601.693 102.262 599.669 101.793 597.88 100.854C596.12 99.8865 594.712 98.5518 593.656 96.8505C592.629 95.1491 592.116 93.1838 592.116 90.9545C592.116 88.6958 592.629 86.7305 593.656 85.0585C594.712 83.3571 596.12 82.0371 597.88 81.0985C599.669 80.1598 601.693 79.6905 603.952 79.6905C605.946 79.6905 607.765 80.1011 609.408 80.9225C611.05 81.7145 612.356 82.9465 613.324 84.6185C614.321 86.2905 614.82 88.4025 614.82 90.9545C614.82 93.4771 614.321 95.5745 613.324 97.2465C612.356 98.9185 611.05 100.18 609.408 101.03C607.765 101.852 605.946 102.262 603.952 102.262ZM604.436 98.5665C605.99 98.5665 607.369 98.2438 608.572 97.5985C609.774 96.9531 610.713 96.0585 611.388 94.9145C612.092 93.7705 612.444 92.4505 612.444 90.9545C612.444 89.4585 612.092 88.1385 611.388 86.9945C610.713 85.8505 609.774 84.9705 608.572 84.3545C607.369 83.7091 605.99 83.3865 604.436 83.3865C602.881 83.3865 601.488 83.7091 600.256 84.3545C599.053 84.9705 598.1 85.8505 597.396 86.9945C596.721 88.1385 596.384 89.4585 596.384 90.9545C596.384 92.4505 596.721 93.7705 597.396 94.9145C598.1 96.0585 599.053 96.9531 600.256 97.5985C601.488 98.2438 602.881 98.5665 604.436 98.5665Z" fill="white"/>
<path d="M902.057 132.566C896.066 132.566 890.196 131.716 884.447 130.016C878.779 128.234 874.002 125.805 870.116 122.729L876.796 110.462C879.872 112.972 883.597 114.996 887.969 116.535C892.422 118.073 897.037 118.842 901.814 118.842C907.401 118.842 911.773 117.668 914.931 115.32C918.17 112.972 919.789 109.814 919.789 105.847C919.789 103.175 919.101 100.827 917.724 98.803C916.429 96.7788 914.081 95.2404 910.68 94.1879C907.361 93.1353 902.786 92.609 896.956 92.609H876.431L880.804 46.3366H930.72V59.5746H886.633L894.892 52.0447L891.613 86.658L883.354 79.2495H900.478C908.899 79.2495 915.66 80.383 920.761 82.6501C925.942 84.8362 929.707 87.9129 932.055 91.8803C934.484 95.7667 935.699 100.22 935.699 105.24C935.699 110.179 934.484 114.713 932.055 118.842C929.626 122.972 925.902 126.291 920.882 128.801C915.943 131.311 909.668 132.566 902.057 132.566Z" fill="#47175A"/>
<circle cx="904.038" cy="87.3525" r="70.4619" stroke="#47175A" stroke-width="2.76025"/>
</svg>
