<svg width="469" height="224" viewBox="0 0 469 224" fill="none" xmlns="http://www.w3.org/2000/svg">
<path opacity="0.1" d="M465.406 185.763C463.159 190.097 459.998 193.891 456.14 196.883C455.592 197.322 455.032 197.745 454.464 198.16C453.699 198.697 452.914 199.225 452.111 199.743C445.871 203.704 438.562 206.411 431.427 208.385C429.483 208.922 427.532 209.427 425.574 209.9C423.922 210.3 422.269 210.673 420.614 211.02C419.986 211.157 419.357 211.286 418.729 211.423C418.1 211.56 417.379 211.693 416.714 211.826L415.76 212.007C397.3 215.411 378.598 216.06 359.76 215.206L358.865 215.161L357.435 215.089C353.61 214.89 349.782 214.636 345.949 214.327L344.499 214.211L343.858 214.158C341.709 213.978 339.561 213.781 337.412 213.566C334.581 213.297 331.746 213.001 328.907 212.676L328.541 212.635L328.242 212.599C318.11 211.459 307.953 210.089 297.785 208.683L296.347 208.482L293.764 208.123L291.589 207.821L290.944 207.732C287.511 207.252 284.079 206.776 280.646 206.306L280.09 206.23C273.644 205.347 267.162 204.497 260.7 203.724L259.858 203.623C257.212 203.309 254.568 203.009 251.925 202.725L249.911 202.511L247.232 202.241C239.807 201.504 232.386 200.916 224.981 200.549C221.419 200.372 217.85 200.238 214.272 200.146C211.318 200.079 208.363 200.04 205.409 200.029C201.402 200.011 197.386 200.033 193.363 200.098H192.452C186.784 200.191 181.103 200.352 175.419 200.545L174.396 200.577H174.057C161.971 201.004 149.884 201.572 137.83 201.979L134.885 202.076H134.458C130.268 202.21 126.082 202.314 121.901 202.386H120.793H120.756H119.411L117.541 202.41C115.6 202.429 113.662 202.44 111.728 202.443H109.355C102.256 202.422 95.1857 202.265 88.1595 201.899L87.378 201.854C73.7244 201.117 60.224 199.594 46.9653 196.826C45.5928 196.539 44.223 196.238 42.8559 195.924C33.6941 193.87 24.6984 191.135 15.9437 187.742C11.8182 186.13 7.6686 184.269 4.53018 181.118C-3.43068 173.061 -0.441328 157.28 9.91666 152.691C18.0185 149.102 27.5103 152.022 36.2246 150.403C36.76 150.301 37.2888 150.166 37.8079 150C38.9157 149.643 39.9934 149.198 41.0309 148.671C41.3854 148.493 41.74 148.304 42.0985 148.106C42.9043 147.667 43.71 147.18 44.4836 146.648C45.7481 145.807 46.9591 144.888 48.1095 143.896C48.6198 143.461 49.1167 143.01 49.6001 142.543C51.2732 140.971 52.7504 139.203 53.9995 137.277C54.4544 136.549 54.8582 135.789 55.2082 135.005C55.3975 134.602 55.5667 134.167 55.7077 133.748C55.9183 133.142 56.0786 132.519 56.1872 131.887C56.6948 128.897 55.8729 125.98 53.0125 123.515C52.7563 123.296 52.4872 123.093 52.2067 122.906C51.6526 122.522 51.0678 122.184 50.4582 121.895C50.2125 121.778 49.9587 121.666 49.7008 121.557C46.0185 120.006 41.2686 119.41 37.264 118.334C36.0436 118.024 34.8521 117.611 33.7026 117.097C32.9734 116.759 32.2482 116.404 31.5351 116.033L31.3457 115.929C25.2566 112.789 19.9016 108.395 15.6335 103.037C14.5725 101.682 13.5957 100.264 12.7086 98.7902C12.4387 98.3471 12.1768 97.8918 11.927 97.4366C4.84845 84.6653 4.11925 68.3004 11.4839 55.7428C12.3785 54.2192 13.3745 52.7575 14.4651 51.3675C14.8197 50.9082 15.1863 50.457 15.565 50.0138C22.5751 41.7428 32.647 36.1387 42.8157 31.9891C56.4651 26.4213 70.7552 22.9042 85.3193 20.5877C88.2737 20.1176 91.2281 19.696 94.1826 19.3226C106.551 17.7433 119.064 16.9054 131.489 16.2688C143.111 15.6806 154.783 15.3006 166.507 15.1287C170.48 15.0749 174.456 15.0521 178.436 15.0602C187.404 15.0602 196.372 15.2334 205.341 15.5799C208.295 15.6927 211.249 15.827 214.204 15.9828C221.781 16.3749 229.343 16.9121 236.89 17.5943C240.516 17.9219 244.134 18.2832 247.743 18.678C275.236 21.6835 302.329 26.7799 328.488 34.7045C331.456 35.6016 334.41 36.5416 337.352 37.5246C348.352 41.1465 359.162 45.3243 369.739 50.042C370.738 50.4906 371.734 50.9418 372.728 51.3957C379.333 54.4254 385.843 57.69 392.26 61.1897C400.728 65.7467 408.884 70.8611 416.674 76.499C419.714 78.7283 422.669 81.0542 425.537 83.4769C430.608 87.7537 435.338 92.4197 439.682 97.4325C440.069 97.8811 440.452 98.3323 440.831 98.7862C442.797 101.147 444.663 103.593 446.431 106.123C455.052 118.515 460.838 132.688 465.108 147.168C468.875 159.802 471.381 173.987 465.406 185.763Z" fill="#6C63FF"/>
<path opacity="0.1" d="M459.987 142.542H425.569V98.7613H440.878C440.5 98.3074 440.117 97.8562 439.73 97.4077H425.585V83.452C422.722 81.0347 419.767 78.7088 416.722 76.4741V97.4238H337.375V51.3668H372.752C371.755 50.9129 370.759 50.4617 369.762 50.0131H337.375V37.4957C334.42 36.5208 331.466 35.5807 328.512 34.6756V49.9849H215.271L215.001 49.7271L247.759 18.633C244.149 18.2355 240.531 17.8742 236.905 17.5492L214.219 39.079V15.9538C211.265 15.7981 208.31 15.6638 205.356 15.551V40.5656L178.452 15.0312C174.474 15.0312 170.498 15.0541 166.523 15.0997L203.007 49.7271L202.737 49.9849H94.1899V19.338C91.2354 19.7113 88.281 20.133 85.3266 20.603V50.0131H15.5643C15.1856 50.4563 14.8189 50.9075 14.4644 51.3668H85.3185V97.4077H11.9102C12.1599 97.8629 12.4218 98.3182 12.6917 98.7613H85.3185V142.542H49.5953C49.1119 143.009 48.615 143.461 48.1047 143.896H85.3185V188.696C88.2729 189.117 91.2274 189.558 94.1818 190.017V143.896H205.348V200.029C208.302 200.029 211.257 200.068 214.211 200.145V143.896H328.504V212.615L328.87 212.655C331.706 212.972 334.541 213.269 337.375 213.545V143.896H416.697V211.805C417.374 211.68 418.051 211.547 418.712 211.402C419.373 211.257 419.969 211.148 420.597 210.999C422.252 210.647 423.905 210.274 425.557 209.879V143.896H460.253C460.164 143.444 460.075 142.993 459.987 142.542ZM205.348 142.542H94.1899V98.7613H205.348V142.542ZM205.348 97.4197H94.1899V51.3668H203.773L205.336 52.5996L205.348 97.4197ZM328.504 142.542H214.219V98.7613H328.504V142.542ZM328.504 97.4197H214.219V51.3668H328.504V97.4197ZM416.697 142.542H337.375V98.7613H416.697V142.542Z" fill="#6C63FF"/>
<path d="M119.728 204.355C119.728 204.4 119.696 204.445 119.684 204.489C119.684 204.445 119.712 204.4 119.732 204.355H119.728Z" fill="#EAECF0"/>
<path d="M121.832 202.425H120.724H120.688H119.342L117.473 202.449L117.267 200.326L117.078 198.312L116.2 189.122L116.172 188.84V188.715L115.926 186.129L119.689 184.719L120.148 188.47L120.18 188.748V188.78L121.111 196.394L121.397 198.731L121.562 200.089L121.703 201.253V201.293L121.832 202.425Z" fill="#EAECF0"/>
<path d="M135.341 204.352L135.385 204.485H135.087L135.043 204.352H135.341Z" fill="#3A3768"/>
<path d="M193.692 151.273C193.692 151.354 193.692 151.398 193.692 151.398V151.447C193.692 151.447 190.179 161.047 189.035 169.242C188.957 169.779 188.892 170.316 188.841 170.853C188.785 171.421 188.741 171.977 188.717 172.517C188.684 173.15 188.676 173.762 188.692 174.346C188.692 174.479 188.692 174.616 188.692 174.749C188.692 175.019 188.721 175.297 188.737 175.583C188.753 175.869 188.777 176.155 188.801 176.453C188.825 176.751 188.85 177.013 188.878 177.299C189.744 186.163 193.035 199.139 193.035 199.139C193.035 199.139 193.144 199.49 193.285 200.086H192.375C186.706 200.179 181.026 200.34 175.341 200.533L174.318 200.565H173.979C161.893 200.992 149.807 201.561 137.753 201.967L134.807 202.064H134.38C130.191 202.198 126.005 202.302 121.823 202.374H120.715C120.999 201.974 121.326 201.605 121.69 201.274C121.996 200.991 122.326 200.735 122.677 200.509C124.591 199.315 126.677 198.42 128.861 197.854C129.322 197.728 129.798 197.67 130.275 197.681L133.095 197.737H133.53L137.857 197.822L174.97 198.559H175.063L175.325 198.507C175.756 198.399 176.175 198.251 176.578 198.064C177.275 197.769 177.884 197.3 178.347 196.702C178.81 196.104 179.111 195.396 179.221 194.647C179.221 194.522 179.253 194.389 179.261 194.244C179.273 194.048 179.273 193.852 179.261 193.656C179.261 193.519 179.261 193.374 179.229 193.225C179.197 193.076 179.189 192.927 179.16 192.774C178.266 187.774 176.743 172.384 176.743 172.384V172.432C176.743 172.432 176.743 171.776 176.779 170.672C176.779 170.587 176.779 170.495 176.779 170.402V170.164C176.779 169.919 176.807 169.653 176.824 169.359C176.824 169.185 176.848 169.008 176.86 168.823C176.88 168.553 176.904 168.275 176.928 167.985C176.926 167.967 176.926 167.95 176.928 167.932C176.944 167.75 176.961 167.564 176.977 167.376C176.977 167.376 176.977 167.336 176.977 167.316C177.577 161.373 179.466 151.966 185.437 148.481C188.237 146.842 190.09 146.511 191.311 146.834C193.092 147.301 193.539 149.154 193.636 150.359C193.636 150.439 193.636 150.516 193.636 150.592C193.668 150.818 193.687 151.045 193.692 151.273Z" fill="#3A3768"/>
<path opacity="0.1" d="M119.728 204.355C119.728 204.4 119.696 204.445 119.684 204.489C119.684 204.445 119.712 204.4 119.732 204.355H119.728Z" fill="black"/>
<path opacity="0.1" d="M135.341 204.352L135.385 204.485H135.087L135.043 204.352H135.341Z" fill="black"/>
<path opacity="0.1" d="M193.693 151.273C193.693 151.353 193.693 151.398 193.693 151.398C193.693 151.398 190.796 159.314 189.414 166.905C189.318 167.442 189.229 167.961 189.149 168.464C189.108 168.722 189.072 168.979 189.036 169.237C188.958 169.774 188.893 170.312 188.842 170.849C188.786 171.417 188.742 171.973 188.717 172.513C188.685 173.145 188.677 173.758 188.693 174.342C188.693 174.475 188.693 174.612 188.693 174.745C188.693 175.015 188.721 175.292 188.738 175.579C188.754 175.865 188.778 176.155 188.802 176.449C188.826 176.743 188.85 177.009 188.879 177.295C188.907 177.581 188.935 177.855 188.967 178.137C189.096 179.277 189.257 180.473 189.443 181.69C190.704 189.897 193.036 199.09 193.036 199.09C193.036 199.09 193.153 199.461 193.294 200.082H192.384C186.715 200.174 181.035 200.335 175.35 200.529L174.327 200.561H173.988C161.902 200.988 149.816 201.556 137.761 201.963L134.816 202.06H134.389C130.199 202.194 126.014 202.297 121.832 202.37H120.724H120.688C120.98 201.954 121.318 201.572 121.695 201.23C122 200.941 122.332 200.682 122.686 200.456C124.602 199.266 126.687 198.371 128.87 197.801C129.331 197.679 129.807 197.622 130.284 197.632L133.104 197.688H133.539L137.878 197.773L175.02 198.506H175.084C175.084 198.506 175.193 198.506 175.374 198.446C175.809 198.338 176.232 198.185 176.635 197.991C177.317 197.698 177.913 197.237 178.369 196.652C178.825 196.067 179.125 195.375 179.242 194.643C179.242 194.518 179.274 194.385 179.282 194.24C179.294 194.044 179.294 193.848 179.282 193.652C179.282 193.515 179.282 193.37 179.25 193.221C179.218 193.071 179.21 192.894 179.181 192.725C178.287 187.725 176.764 172.335 176.764 172.335C176.764 172.335 176.764 171.679 176.8 170.575C176.8 170.49 176.8 170.398 176.8 170.305V170.067C176.8 169.821 176.829 169.556 176.845 169.261C176.845 169.088 176.869 168.911 176.881 168.726C176.901 168.456 176.925 168.178 176.949 167.888C176.947 167.87 176.947 167.853 176.949 167.835C176.965 167.653 176.982 167.467 176.998 167.279C176.998 167.279 176.998 167.239 176.998 167.219C177.07 166.478 177.167 165.68 177.288 164.846C178.126 159.012 180.221 151.394 185.442 148.328C188.17 146.716 189.995 146.378 191.219 146.656C193.105 147.087 193.552 149.029 193.637 150.254C193.637 150.334 193.637 150.411 193.637 150.487C193.673 150.748 193.692 151.01 193.693 151.273Z" fill="black"/>
<path d="M119.728 204.355C119.728 204.4 119.696 204.445 119.684 204.489C119.684 204.445 119.712 204.4 119.732 204.355H119.728Z" fill="#3A3768"/>
<path d="M135.341 204.352L135.385 204.485H135.087L135.043 204.352H135.341Z" fill="#3A3768"/>
<path d="M192.662 150.931C192.662 150.931 187.404 165.298 187.658 173.896C187.912 182.493 192.017 198.648 192.017 198.648C192.017 198.648 192.194 199.216 192.384 200.123C186.715 200.216 181.034 200.377 175.35 200.57L174.327 200.602H173.988C161.902 201.029 149.815 201.597 137.761 202.004L134.816 202.101H134.389C130.199 202.235 126.013 202.339 121.832 202.411H120.724H120.687H119.342C119.896 201.481 120.652 200.687 121.554 200.087L121.662 200.01C123.581 198.839 125.664 197.963 127.843 197.411C128.304 197.289 128.78 197.232 129.257 197.242L132.979 197.315H133.414L137.898 197.403L174.057 198.125C174.574 198.027 175.076 197.864 175.551 197.637C175.709 197.565 175.863 197.482 176.011 197.391C176.464 197.13 176.872 196.797 177.219 196.404C177.981 195.538 178.488 194.249 178.15 192.376C177.251 187.376 175.733 171.986 175.733 171.986C175.733 171.986 175.475 153.26 184.451 148.003C188.077 145.879 190.115 145.952 191.255 146.794C191.29 146.815 191.322 146.84 191.352 146.866C192.923 148.131 192.662 150.931 192.662 150.931Z" fill="#3A3768"/>
<path d="M47.9881 186.182L47.8431 187.684L46.9648 196.906C45.5924 196.619 44.2226 196.318 42.8555 196.004L43.8828 187.62L44.2293 184.771L47.9881 186.182Z" fill="#EAECF0"/>
<path d="M22.2051 183.201L44.1458 136.504L132.525 143.397L140.671 183.201H22.2051Z" fill="#EFC6CD"/>
<path d="M22.2051 187.272V183.199H140.671V189.154L22.2051 187.272Z" fill="#D48A9B"/>
<path d="M55.611 176.379L108.614 177.458C108.731 177.461 108.847 177.435 108.953 177.384C109.058 177.332 109.15 177.256 109.22 177.162C109.289 177.067 109.336 176.957 109.354 176.842C109.373 176.726 109.363 176.607 109.327 176.495L101.064 154.208L65.3646 153.527L54.8052 175.146C54.7461 175.28 54.7215 175.426 54.7334 175.572C54.7453 175.718 54.7935 175.858 54.8736 175.981C54.9536 176.103 55.063 176.204 55.1918 176.273C55.3206 176.343 55.4646 176.379 55.611 176.379Z" fill="#DFE6F5"/>
<path opacity="0.15" d="M55.611 176.379L108.614 177.458C108.731 177.461 108.847 177.435 108.953 177.384C109.058 177.332 109.15 177.256 109.22 177.162C109.289 177.067 109.336 176.957 109.354 176.842C109.373 176.726 109.363 176.607 109.327 176.495L101.064 154.208L65.3646 153.527L54.8052 175.146C54.7461 175.28 54.7215 175.426 54.7334 175.572C54.7453 175.718 54.7935 175.858 54.8736 175.981C54.9536 176.103 55.063 176.204 55.1918 176.273C55.3206 176.343 55.4646 176.379 55.611 176.379Z" fill="black"/>
<path d="M55.1836 175.45L108.734 176.578L101.454 154.529C101.337 154.171 101.111 153.859 100.809 153.636C100.506 153.412 100.142 153.287 99.766 153.28L65.3522 152.627L55.1836 175.45Z" fill="#DFE6F5"/>
<path d="M59.6089 170.458L66.0267 156.337C66.1632 156.039 66.3822 155.787 66.6579 155.61C66.9335 155.432 67.2542 155.338 67.5818 155.338H83.5317C83.9837 155.338 84.4172 155.517 84.7368 155.837C85.0564 156.157 85.2359 156.59 85.2359 157.042V172.299C85.2356 172.53 85.1885 172.758 85.0974 172.971C85.0064 173.183 84.8732 173.374 84.706 173.534C84.5388 173.693 84.341 173.817 84.1247 173.897C83.9083 173.978 83.6778 174.014 83.4471 174.003L61.0753 172.863C60.798 172.849 60.5283 172.768 60.2897 172.626C60.051 172.483 59.8507 172.285 59.7062 172.048C59.5616 171.811 59.4772 171.542 59.4602 171.265C59.4433 170.988 59.4943 170.711 59.6089 170.458Z" fill="#848496"/>
<path d="M91.0651 168.669L91.3391 160.611C91.3464 160.289 91.4794 159.982 91.7097 159.756C91.94 159.53 92.2494 159.403 92.5719 159.402H97.2855C97.5751 159.404 97.8549 159.507 98.0759 159.694C98.2969 159.881 98.445 160.14 98.4942 160.426L99.8801 168.439C99.9105 168.616 99.9021 168.797 99.8555 168.97C99.8089 169.143 99.7252 169.304 99.6102 169.442C99.4952 169.579 99.3517 169.69 99.1896 169.767C99.0275 169.843 98.8507 169.884 98.6714 169.885L92.2939 169.942C92.1289 169.941 91.9657 169.908 91.8139 169.843C91.6621 169.778 91.5248 169.684 91.4102 169.565C91.2956 169.446 91.2061 169.306 91.1468 169.152C91.0875 168.998 91.0597 168.833 91.0651 168.669Z" fill="#A8BEF2"/>
<path d="M28.6186 116.262L46.3895 114.78C46.6492 114.746 46.9129 114.797 47.1411 114.925C47.3692 115.054 47.5494 115.253 47.6546 115.493L64.4586 153.529L55.0796 174.583C55.3737 173.922 55.5912 179.063 53.4681 174.607L26.7613 118.893C26.4028 118.148 27.7846 116.367 28.6186 116.262Z" fill="#848496"/>
<path opacity="0.15" d="M28.6186 116.262L46.3895 114.78C46.6492 114.746 46.9129 114.797 47.1411 114.925C47.3692 115.054 47.5494 115.253 47.6546 115.493L64.4586 153.529L55.0796 174.583C55.3737 173.922 55.5912 179.063 53.4681 174.607L26.7613 118.893C26.4028 118.148 27.7846 116.367 28.6186 116.262Z" fill="black"/>
<path d="M28.6188 116.263L47.2921 113.878C47.5518 113.843 47.8155 113.894 48.0437 114.023C48.2718 114.152 48.452 114.351 48.5572 114.591L65.3652 152.626L55.1966 175.449L27.6639 117.991C27.5796 117.817 27.5382 117.625 27.5434 117.432C27.5486 117.238 27.6001 117.049 27.6937 116.879C27.7872 116.71 27.9201 116.566 28.0811 116.458C28.242 116.351 28.4264 116.284 28.6188 116.263Z" fill="#848496"/>
<path d="M33.2785 118.938L46.7789 116.835C47.0488 116.792 47.3252 116.843 47.563 116.977C47.8008 117.112 47.9859 117.323 48.0883 117.576L62.2293 152.168C62.2872 152.309 62.315 152.461 62.3108 152.613C62.3067 152.766 62.2706 152.916 62.2051 153.054L55.7308 166.582C55.6429 166.771 55.5031 166.93 55.328 167.041C55.1528 167.153 54.9494 167.212 54.7418 167.212C54.5341 167.212 54.3308 167.153 54.1556 167.041C53.9804 166.93 53.8407 166.771 53.7527 166.582L32.3639 120.654C32.2825 120.484 32.2422 120.296 32.2464 120.107C32.2506 119.918 32.2991 119.732 32.3881 119.565C32.477 119.399 32.604 119.255 32.7586 119.146C32.9133 119.037 33.0913 118.966 33.2785 118.938Z" fill="#6C63FF"/>
<path d="M177.328 196.877C177.328 196.877 177.05 197.337 176.643 198.086L176.607 198.155C176.245 198.799 175.801 199.645 175.35 200.572L174.327 200.604H173.988C161.902 201.031 149.816 201.599 137.762 202.006L134.817 202.103H134.39C130.2 202.237 126.014 202.341 121.832 202.413H120.724H120.688H119.342L117.473 202.437C115.531 202.456 113.593 202.467 111.659 202.469H109.355C102.256 202.449 95.1856 202.292 88.1594 201.926L87.3778 201.881C88.7597 198.876 91.2294 193.949 93.2357 192.373C94.7868 191.165 105.926 189.823 116.172 188.84L117.251 188.735H117.275L120.136 188.469C124.056 188.111 127.613 187.821 130.151 187.623L130.385 187.603L129.064 183.172L127.15 176.726L127.694 171.311L127.738 170.876H127.678C127.132 170.934 126.581 170.865 126.066 170.674L106.934 170.014H106.587L99.2386 169.752C95.2984 169.611 92.4984 169.506 92.3896 169.486C92.274 169.466 92.1606 169.435 92.0512 169.393C91.8797 169.328 91.7214 169.233 91.5839 169.111C91.4232 168.974 91.287 168.81 91.181 168.628H91.1004H90.9232L89.8837 168.696L89.356 168.732C89.3358 168.676 89.3197 168.62 89.2996 168.567C89.2512 168.41 89.2029 168.261 89.1586 168.108H88.8806L85.2547 168.031H85.1902C85.1902 168.031 75.8354 168.745 70.9485 166.964C69.1557 166.311 67.9632 165.324 68.0558 163.846C68.0762 163.509 68.1468 163.178 68.2653 162.863C66.6941 159.926 74.3689 154.567 80.2187 156.046C81.7993 156.498 83.4648 156.567 85.0774 156.247C85.9526 156.058 86.777 155.683 87.4947 155.147C87.5672 155.095 87.6317 155.043 87.6921 154.99C87.5954 154.93 87.4947 154.877 87.402 154.829C87.001 154.618 86.5705 154.469 86.1249 154.386L87.7122 153.923H87.7364C87.7364 153.923 93.3767 153.407 97.0469 153.202H97.0711C98.1629 153.145 99.0855 153.109 99.6334 153.125C102.051 153.193 106.76 151.465 106.962 150.933C107.163 150.402 109.315 150.933 109.315 150.933L111.196 150.2C113.077 149.471 114.153 148.476 114.153 147.743C114.153 147.009 115.833 146.216 115.833 146.216C116.591 144.943 118.077 143.577 119.636 142.368C120.986 141.325 122.388 140.394 123.427 139.745C123.83 137.136 124.368 134.548 125.039 131.994C125.752 129.613 127.964 127.848 128.757 127.276L129.047 127.083C128.825 126.079 128.529 125.094 128.161 124.134C128.134 124.053 128.102 123.973 128.064 123.892C127.984 123.703 127.899 123.517 127.815 123.344L127.69 123.103C127.484 123.143 127.287 123.179 127.069 123.207C126.402 123.305 125.729 123.355 125.055 123.356C122.034 123.368 119.093 122.389 116.681 120.57C114.269 118.751 112.519 116.192 111.7 113.284C111.7 113.284 111.7 113.284 111.7 113.26C111.376 112.079 111.214 110.859 111.216 109.634C111.214 108.459 111.369 107.288 111.675 106.153C111.736 105.912 111.808 105.674 111.885 105.436C111.892 105.409 111.902 105.382 111.913 105.356C111.949 105.247 111.986 105.134 112.026 105.025C111.43 105.116 110.828 105.169 110.225 105.183H109.822C108.672 105.225 107.525 105.035 106.45 104.623C106.19 104.512 105.94 104.377 105.705 104.22C105.692 104.214 105.681 104.206 105.673 104.195C105.366 104.017 105.087 103.796 104.843 103.539C105.291 103.195 105.667 102.766 105.948 102.277C106.23 101.787 106.411 101.247 106.482 100.686C106.591 99.8162 106.446 98.8453 106.966 98.1362C107.232 97.8159 107.551 97.5434 107.908 97.3304C110.052 95.868 111.752 93.8617 113.69 92.1333C115.628 90.405 117.972 88.9103 120.579 88.8297C124.076 88.7209 127.154 91.1543 130.619 91.6136C131.682 91.7546 132.774 91.7063 133.814 91.9722C134.978 92.3364 136.074 92.8919 137.057 93.6159C137.944 94.1205 138.728 94.7874 139.369 95.5819C139.814 96.271 140.133 97.0335 140.312 97.834C140.761 99.5213 141.031 101.251 141.118 102.995C141.21 104.82 141.118 106.657 141.311 108.47C141.448 110.045 141.98 111.559 142.858 112.873H142.911C143.063 113.088 143.23 113.293 143.41 113.486C143.068 113.595 142.725 113.691 142.375 113.776C141.792 113.925 141.202 114.042 140.606 114.126C140.333 114.171 140.057 114.194 139.78 114.195C139.588 114.2 139.396 114.182 139.208 114.143L139.563 114.38L140.546 115.041L140.916 115.287L141.662 115.782C141.831 115.287 142.064 115.154 142.334 115.186C142.882 114.67 143.7 115.786 143.7 115.786C144.18 116.705 145.469 117.619 146.609 118.296C147.279 118.691 147.969 119.051 148.676 119.376C163.731 128.348 162.776 141.772 163.663 142.835C164.549 143.899 164.605 147.751 164.605 147.751C164.605 147.751 166.825 160.84 167.828 161.972C168.832 163.104 167.893 163.499 168.767 164.764C169.641 166.029 169.44 169.413 169.44 169.413C169.44 169.413 170.044 177.386 172.196 179.115C174.125 180.666 176.704 193.715 177.216 196.382L177.328 196.877Z" fill="url(#paint0_linear_524_2993)"/>
<path d="M89.0863 154.883C89.0863 154.883 86.9953 158.174 81.073 156.659C75.1507 155.145 67.3147 160.874 69.5507 163.702C71.7867 166.53 86.2057 162.896 86.2057 162.896L91.7372 161.776L91.3746 157.171L89.0863 154.883Z" fill="#D38884"/>
<path opacity="0.1" d="M89.0863 154.883C89.0863 154.883 86.9953 158.174 81.073 156.659C75.1507 155.145 67.3147 160.874 69.5507 163.702C71.7867 166.53 86.2057 162.896 86.2057 162.896L91.7372 161.776L91.3746 157.171L89.0863 154.883Z" fill="black"/>
<path d="M91.0128 154.705L88.4465 154.572L86.8672 155.032C86.8672 155.032 91.8709 155.757 90.4931 162.537L95.8876 162.211L91.0128 154.705Z" fill="#DE959A"/>
<path opacity="0.1" d="M91.0128 154.705L88.4465 154.572L86.8672 155.032C86.8672 155.032 91.8709 155.757 90.4931 162.537L95.8876 162.211L91.0128 154.705Z" fill="black"/>
<path d="M124.982 139.541C124.982 139.541 117.94 143.57 115.962 146.918C115.962 146.918 114.318 147.723 114.318 148.433C114.318 149.142 113.263 150.141 111.421 150.85L109.576 151.575C109.576 151.575 107.469 151.047 107.272 151.575C107.074 152.103 102.469 153.811 100.097 153.746C97.7236 153.682 88.4453 154.552 88.4453 154.552C90.1445 155.324 91.5319 156.648 92.3808 158.31C93.2296 159.972 93.4898 161.873 93.1187 163.702L115.043 162.783L123.335 160.938L128.209 156.067L124.982 139.541Z" fill="#444053"/>
<path opacity="0.1" d="M124.982 139.541C124.982 139.541 117.94 143.57 115.962 146.918C115.962 146.918 114.318 147.723 114.318 148.433C114.318 149.142 113.263 150.141 111.421 150.85L109.576 151.575C109.576 151.575 107.469 151.047 107.272 151.575C107.074 152.103 102.469 153.811 100.097 153.746C97.7236 153.682 88.4453 154.552 88.4453 154.552C90.1445 155.324 91.5319 156.648 92.3808 158.31C93.2296 159.972 93.4898 161.873 93.1187 163.702L115.043 162.783L123.335 160.938L128.209 156.067L124.982 139.541Z" fill="black"/>
<path d="M92.6751 168.669L89.5729 168.609L85.947 168.532C85.947 168.532 68.8247 169.85 69.1591 164.375C69.4935 158.899 82.6636 156.978 84.4967 158.549C85.8866 159.737 89.1016 160.696 90.5681 161.087C91.0354 161.212 91.3214 161.28 91.3214 161.28L92.6751 168.669Z" fill="#D38884"/>
<path opacity="0.1" d="M92.675 168.668L89.5728 168.607C88.336 164.357 89.7702 162.016 90.584 161.098C91.0514 161.223 91.3374 161.291 91.3374 161.291L92.675 168.668Z" fill="black"/>
<path d="M94.7663 168.903L91.5433 169.128L90.0123 169.233C87.9053 163.045 91.3096 160.607 91.3096 160.607H92.3168L93.9645 160.805L94.7663 168.903Z" fill="#DE959A"/>
<path d="M133.805 127.824L129.986 135.076C129.986 135.076 129.402 127.731 127.702 124.271C127.267 123.384 126.759 122.756 126.167 122.567C124.555 122.059 133.821 111.902 133.821 111.902C134.132 111.967 135.904 113.111 138.076 114.59C140.465 116.201 143.341 118.167 145.275 119.424C148.945 121.765 133.805 127.824 133.805 127.824Z" fill="#D38884"/>
<path d="M128.906 127.961C128.906 127.961 125.836 129.931 124.982 132.828C124.128 135.724 123.334 140.926 123.334 140.926C123.334 140.926 124.72 153.366 125.441 153.959C126.162 154.551 128.906 166.992 128.906 166.992L131.565 165.215L128.076 149.547C128.076 149.547 130.396 129.415 128.906 127.961Z" fill="#444053"/>
<path opacity="0.1" d="M128.906 127.961C128.906 127.961 125.836 129.931 124.982 132.828C124.128 135.724 123.334 140.926 123.334 140.926C123.334 140.926 124.72 153.366 125.441 153.959C126.162 154.551 128.906 166.992 128.906 166.992L131.565 165.215L128.076 149.547C128.076 149.547 130.396 129.415 128.906 127.961Z" fill="black"/>
<path d="M142.266 155.717H126.92L129.406 131.508H142.266V155.717Z" fill="#DE959A"/>
<path d="M106.712 204.355H106.897L106.551 204.488L106.712 204.355Z" fill="#67647E"/>
<path d="M135.583 193.329L132.581 194.481L132.179 194.63L121.373 198.784L117.252 200.367L111.644 202.522H109.356C102.257 202.502 95.1863 202.345 88.1602 201.978C89.5219 198.993 91.9029 194.215 93.8448 192.672C95.3596 191.463 106.197 190.158 116.2 189.175C117.449 189.054 118.682 188.937 119.883 188.829L120.169 188.8C124.141 188.438 127.735 188.144 130.241 187.942L130.644 187.91L133.794 187.668L134.124 187.338L134.527 189.062L134.862 190.44L135.583 193.329Z" fill="#67647E"/>
<path opacity="0.1" d="M106.712 204.355H106.897L106.551 204.488L106.712 204.355Z" fill="black"/>
<path opacity="0.1" d="M135.583 193.329L132.581 194.481L132.179 194.63L121.373 198.784L117.252 200.367L111.644 202.522H109.356C102.257 202.502 95.1863 202.345 88.1602 201.978C89.5219 198.993 91.9029 194.215 93.8448 192.672C95.3596 191.463 106.197 190.158 116.2 189.175C117.449 189.054 118.682 188.937 119.883 188.829L120.169 188.8C124.141 188.438 127.735 188.144 130.241 187.942L130.644 187.91L133.794 187.668L134.124 187.338L134.527 189.062L134.862 190.44L135.583 193.329Z" fill="black"/>
<path d="M106.712 204.355H106.897L106.551 204.488L106.712 204.355Z" fill="#67647E"/>
<path d="M119.728 204.355C119.728 204.4 119.696 204.445 119.684 204.489C119.684 204.445 119.712 204.4 119.732 204.355H119.728Z" fill="#67647E"/>
<path d="M135.385 204.485H135.087L135.043 204.352H135.341L135.385 204.485Z" fill="#67647E"/>
<path d="M138.149 189.119L137.899 197.41V197.857V197.902L137.774 202.007L134.829 202.104H134.402C130.212 202.238 126.027 202.341 121.845 202.414H120.737H120.701H119.355L117.486 202.438C115.544 202.457 113.606 202.467 111.672 202.47H109.355C111.45 201.173 114.162 199.743 117.079 198.312C118.388 197.668 119.746 197.027 121.107 196.395C124.733 194.711 128.404 193.119 131.397 191.85L131.78 191.689C132.94 191.198 133.991 190.759 134.89 190.388C136.832 189.582 138.065 189.099 138.149 189.066V189.119Z" fill="#67647E"/>
<path opacity="0.1" d="M111.24 155.042C111.993 156.614 112.771 158.217 114.016 159.442C114.213 159.635 114.555 159.812 114.733 159.599C114.788 159.51 114.815 159.406 114.809 159.301C114.771 158.56 114.519 157.847 114.084 157.246C113.681 156.626 113.206 156.062 112.847 155.417C112.489 154.772 112.078 153.532 111.272 153.362C110.237 153.145 111.01 154.567 111.24 155.042Z" fill="black"/>
<path opacity="0.1" d="M138.06 114.578C138.003 114.779 137.943 114.981 137.878 115.174C137.135 117.452 135.802 119.492 134.014 121.088C132.227 122.684 130.049 123.778 127.702 124.259C127.267 123.373 126.759 122.744 126.167 122.555C124.555 122.047 133.821 111.891 133.821 111.891C134.116 111.955 135.888 113.119 138.06 114.578Z" fill="black"/>
<path d="M138.544 110.707C138.544 113.389 137.748 116.011 136.258 118.241C134.768 120.471 132.65 122.21 130.172 123.236C127.694 124.262 124.968 124.531 122.337 124.008C119.707 123.484 117.29 122.193 115.394 120.296C113.497 118.4 112.206 115.984 111.682 113.353C111.159 110.722 111.428 107.996 112.454 105.518C113.481 103.04 115.219 100.922 117.449 99.4319C119.679 97.9418 122.301 97.1465 124.983 97.1465C126.765 97.1428 128.53 97.491 130.177 98.1712C131.824 98.8514 133.32 99.8501 134.58 101.11C135.84 102.37 136.839 103.867 137.519 105.513C138.199 107.16 138.547 108.925 138.544 110.707Z" fill="#D38884"/>
<path d="M130.183 130.85C130.183 130.85 127.363 134.274 127.815 136.514H131.235L133.737 133.694L130.183 130.85Z" fill="#67647E"/>
<path opacity="0.1" d="M140.214 116.393L129.457 131.182C129.457 131.182 132.221 135.134 133.538 135.332C134.856 135.529 142.369 117.839 142.369 117.839L140.214 116.393Z" fill="black"/>
<path d="M140.351 116.125L129.59 130.935C129.59 130.935 132.354 134.883 133.671 135.08C134.988 135.278 142.502 117.591 142.502 117.591L140.351 116.125Z" fill="#DE959A"/>
<path d="M128.21 135.068C128.21 135.068 127.682 143.36 127.154 145.007C126.627 146.655 127.154 161.791 127.154 161.791L132.094 159.753L131.236 136.515L128.21 135.068Z" fill="#67647E"/>
<path opacity="0.1" d="M135.341 204.352L135.385 204.485H135.087L135.043 204.352H135.341Z" fill="black"/>
<path opacity="0.1" d="M175.807 197.213C175.807 197.213 175.714 197.366 175.561 197.616C175.408 197.866 175.243 198.176 175.029 198.571C175.018 198.586 175.009 198.602 175.001 198.619C174.703 199.171 174.348 199.848 173.99 200.585C161.903 201.012 149.817 201.58 137.763 201.987L134.818 202.084H134.391L133.126 197.813V197.769L132.993 197.318L132.187 194.635L131.381 191.907L130.547 188.998L130.241 187.943L130.161 187.677L128.847 183.205L127.066 177.134L127.643 171.34L127.683 170.901L128.203 165.712L128.275 164.173L128.315 163.367V163.138L128.404 161.268L128.67 155.708L128.807 152.864L128.831 152.433L129.105 146.724L129.883 144.392L130.285 143.231L131.18 140.536L131.373 139.871C131.655 138.86 132.223 136.862 132.755 134.94L132.803 134.775L132.84 134.65L133.218 133.284L133.69 131.532C133.867 130.859 133.984 130.38 134.012 130.214C134.056 129.928 134.818 128.663 135.817 126.991C137.831 123.66 140.861 118.757 141.207 117.113C141.209 117.099 141.209 117.086 141.207 117.073C141.228 116.972 141.256 116.874 141.292 116.778C141.457 116.287 141.695 116.154 141.945 116.186C142.058 116.205 142.167 116.247 142.263 116.311C142.506 116.475 142.718 116.679 142.891 116.915C143.363 117.822 144.624 118.728 145.74 119.401L145.957 119.526L146.086 119.603C147.013 120.13 147.762 120.469 147.762 120.469C162.508 129.356 161.589 142.655 162.443 143.707C163.297 144.758 163.366 148.582 163.366 148.582C163.366 148.582 165.537 161.55 166.524 162.682C167.511 163.814 166.593 164.197 167.447 165.45C168.301 166.703 168.104 170.015 168.104 170.015C168.104 170.015 168.696 177.911 170.803 179.623C172.91 181.336 175.807 197.213 175.807 197.213Z" fill="black"/>
<path d="M176.201 197.083L176.024 197.389C175.883 197.639 175.657 198.034 175.387 198.529L175.359 198.586C175.053 199.154 174.69 199.843 174.332 200.6H173.993C161.907 201.027 149.821 201.595 137.766 202.002L134.821 202.099L133.56 197.812V197.768L133.427 197.317L132.593 194.497L131.788 191.757L130.982 189.021L130.664 187.926L129.286 183.22L127.465 177.02L127.968 171.98L128.037 171.307L128.593 165.582L128.806 161.118L129.068 155.724L129.137 154.31L129.213 152.674L129.246 151.985L129.507 146.594L130.285 144.266L130.619 143.263L131.401 140.906L131.566 140.406C131.566 140.406 132.32 137.759 133.049 135.137C133.077 135.04 133.105 134.943 133.129 134.847C133.194 134.621 133.254 134.395 133.319 134.174C133.383 133.948 133.444 133.727 133.5 133.505C133.705 132.772 133.903 132.087 134.04 131.523C134.237 130.786 134.37 130.25 134.398 130.076C134.443 129.79 135.204 128.489 136.24 126.797C138.145 123.647 140.925 119.142 141.513 117.273C141.545 117.176 141.572 117.078 141.594 116.979C141.63 116.682 141.751 116.402 141.944 116.173C142.484 115.653 143.286 116.769 143.286 116.769C143.757 117.676 145.018 118.586 146.134 119.255C146.786 119.647 147.459 120.003 148.149 120.323C162.894 129.21 161.975 142.509 162.829 143.565C163.684 144.62 163.752 148.436 163.752 148.436C163.752 148.436 165.924 161.404 166.911 162.536C167.898 163.668 166.979 164.051 167.833 165.3C168.687 166.549 168.49 169.909 168.49 169.909C168.49 169.909 169.082 177.809 171.189 179.522C173.296 181.234 176.201 197.083 176.201 197.083Z" fill="#444053"/>
<path opacity="0.1" d="M146.134 119.514C144.688 121.618 142.331 125.316 141.702 127.975C141.702 127.975 139.398 130.348 138.54 130.215C137.682 130.082 139.346 131.992 139.346 131.992L130.293 144.537L131.578 140.682C131.578 140.682 134.277 131.202 134.398 130.348C134.519 129.494 141.074 119.708 141.594 117.246C141.997 115.276 143.286 117.049 143.286 117.049C143.753 117.935 145.014 118.85 146.134 119.514Z" fill="black"/>
<path d="M146.134 119.251C144.688 121.35 142.331 125.053 141.702 127.692C141.702 127.692 139.398 130.06 138.54 129.932C137.682 129.803 139.346 131.708 139.346 131.708L130.293 144.254L131.578 140.398C131.578 140.398 134.277 130.919 134.398 130.06C134.519 129.202 141.074 119.424 141.594 116.963C141.997 114.989 143.286 116.765 143.286 116.765C143.753 117.672 145.014 118.578 146.134 119.251Z" fill="#444053"/>
<path opacity="0.1" d="M158.294 145.245C158.362 148.121 154.148 152.049 153.951 152.279C153.753 152.509 140.849 163.157 140.849 163.157L131.583 170.263C130.538 171.125 129.29 171.702 127.957 171.939L128.59 165.582L129.214 152.69C130.66 151.078 132.062 149.386 132.095 148.846C132.159 147.731 134.512 146.542 134.512 146.542C134.512 146.542 136.16 145.16 135.894 144.37C135.628 143.581 136.768 139.798 136.768 139.798C137.36 129.065 148.419 128.014 148.419 128.014C148.419 128.014 153.753 130.121 157.504 132.357C161.255 134.593 158.229 142.372 158.294 145.245Z" fill="black"/>
<path opacity="0.1" d="M94.766 168.903L91.543 169.128C90.1812 166.812 92.0546 160.607 92.0546 160.607H92.3165L93.9643 160.805L94.766 168.903Z" fill="black"/>
<path d="M148.419 127.363C148.419 127.363 137.36 128.419 136.768 139.147C136.768 139.147 135.648 142.902 135.91 143.692C136.171 144.482 134.528 145.863 134.528 145.863C134.528 145.863 132.159 147.048 132.11 148.168C132.062 149.288 126.067 155.396 126.067 155.396C126.067 155.396 123.569 158.24 117.776 158.538C111.983 158.836 109.283 160.609 109.283 160.609C109.283 160.609 106.463 158.635 104.409 159.227C102.354 159.819 92.3625 160.609 92.3625 160.609C92.3625 160.609 89.7076 169.408 93.0192 169.96C93.4221 170.024 126.015 171.144 126.015 171.144C126.015 171.144 128.243 172.196 131.599 169.629C134.955 167.063 140.865 162.518 140.865 162.518C140.865 162.518 153.757 151.854 153.967 151.641C154.176 151.427 158.398 147.479 158.31 144.606C158.221 141.734 161.275 133.962 157.504 131.714C153.733 129.466 148.419 127.363 148.419 127.363Z" fill="#444053"/>
<path opacity="0.1" d="M138.543 110.708C138.545 112.135 138.32 113.553 137.879 114.91C137.695 114.693 137.528 114.463 137.379 114.221C136.751 113.254 136.121 112.287 135.49 111.32C134.999 110.45 134.347 109.682 133.568 109.056C132.762 108.484 131.618 108.25 130.748 108.758C129.982 109.209 129.608 110.132 129.539 111.018C129.516 111.908 129.539 112.798 129.608 113.685C129.64 114.025 129.553 114.365 129.362 114.648C129.076 114.904 128.706 115.048 128.322 115.051L127.114 115.216C127.005 115.255 126.889 115.271 126.773 115.264C126.658 115.257 126.545 115.226 126.441 115.175C126.338 115.123 126.245 115.052 126.17 114.964C126.094 114.876 126.037 114.774 126.002 114.664C124.999 112.847 124.306 110.591 122.424 109.717C121.264 109.177 119.733 109.213 118.988 108.174C118.48 107.465 118.549 106.502 118.698 105.64C118.862 104.668 119.097 103.709 119.403 102.771C119.616 102.111 120.092 100.793 119.036 100.66C118.319 100.568 117.328 101.329 116.965 101.869C116.603 102.409 116.514 103.13 116.256 103.746C115.762 104.807 114.873 105.633 113.779 106.047C113.231 106.272 112.657 106.427 112.07 106.51C113.061 103.433 115.119 100.811 117.872 99.1167C120.625 97.4226 123.893 96.7678 127.087 97.2704C130.28 97.773 133.189 99.3999 135.289 101.858C137.389 104.316 138.542 107.443 138.539 110.676L138.543 110.708Z" fill="black"/>
<path d="M116.969 101.525C116.602 102.085 116.518 102.782 116.26 103.398C115.766 104.458 114.879 105.284 113.786 105.699C112.7 106.106 111.549 106.31 110.39 106.303C108.513 106.36 106.418 106.074 105.209 104.635C105.65 104.294 106.019 103.869 106.295 103.386C106.572 102.902 106.75 102.368 106.82 101.815C106.925 100.953 106.784 99.9902 107.296 99.2851C107.557 98.9766 107.867 98.7138 108.214 98.5076C110.317 97.0572 111.977 95.067 113.879 93.3588C115.781 91.6506 118.073 90.164 120.627 90.0834C124.048 89.9786 127.073 92.3879 130.457 92.8431C131.497 92.9841 132.568 92.9358 133.584 93.1976C134.726 93.5526 135.801 94.0974 136.762 94.8091C137.632 95.3133 138.402 95.9745 139.031 96.7591C139.465 97.4441 139.777 98.1993 139.953 98.991C140.398 100.663 140.668 102.376 140.759 104.104C140.852 105.908 140.759 107.729 140.952 109.526C141.146 111.323 141.718 113.152 142.947 114.482C142.05 114.765 141.133 114.976 140.203 115.114C139.621 115.252 139.011 115.204 138.458 114.977C138.011 114.693 137.644 114.297 137.395 113.829L135.505 110.928C135.015 110.058 134.363 109.29 133.584 108.664C132.778 108.092 131.634 107.858 130.764 108.366C129.998 108.817 129.627 109.74 129.555 110.626C129.531 111.516 129.554 112.406 129.623 113.293C129.656 113.633 129.569 113.973 129.378 114.256C129.09 114.513 128.719 114.656 128.334 114.659L127.126 114.824C127.016 114.863 126.901 114.879 126.785 114.872C126.67 114.864 126.557 114.834 126.453 114.783C126.349 114.731 126.257 114.66 126.182 114.572C126.106 114.484 126.049 114.382 126.014 114.272C125.01 112.451 124.317 110.199 122.436 109.325C121.276 108.785 119.745 108.821 118.999 107.782C118.492 107.073 118.56 106.11 118.709 105.248C118.873 104.275 119.109 103.317 119.414 102.379C119.628 101.718 120.103 100.401 119.048 100.264C118.323 100.188 117.332 100.949 116.969 101.525Z" fill="#444053"/>
<path opacity="0.1" d="M147.644 133.381C148.663 133.24 149.735 133.147 150.689 133.538C148.204 132.519 144.159 132.909 141.895 134.311C142.1 134.783 146.854 133.49 147.644 133.381Z" fill="black"/>
<path opacity="0.1" d="M148.832 136.683C151.31 136.848 153.868 137.195 156.217 136.389C154.251 135.712 152.088 136.139 150.017 135.934C148.365 135.768 146.685 135.196 145.074 135.615C144.401 135.788 141.923 136.929 142.092 137.763C144.208 136.826 146.53 136.454 148.832 136.683Z" fill="black"/>
<path opacity="0.1" d="M142.27 142.099C142.788 142.044 143.312 142.099 143.809 142.26C145.667 142.697 147.572 142.907 149.481 142.884C150.939 142.884 152.511 142.663 153.574 141.676L142.27 142.099Z" fill="black"/>
<path opacity="0.1" d="M134.289 154.704C136.022 155.499 137.927 155.846 139.829 155.711C141.723 155.571 143.594 155.212 145.404 154.639C146.21 154.401 147.088 154.103 147.56 153.402L134.289 154.704Z" fill="black"/>
<path opacity="0.1" d="M152.124 156.477C155.894 158.633 160.092 159.933 164.42 160.285C162.236 159.409 160.037 158.58 157.821 157.799C155.554 157.005 153.231 156.382 150.871 155.938C151.32 156.034 151.745 156.218 152.124 156.477Z" fill="black"/>
<path opacity="0.1" d="M158.212 154.17C158.97 154.296 159.738 154.338 160.505 154.295C160.908 154.295 161.387 154.239 161.625 153.892C159.896 153.965 158.192 153.522 156.504 153.139C156.025 153.026 155.163 152.76 154.76 153.046C155.525 153.594 157.246 153.977 158.212 154.17Z" fill="black"/>
<path opacity="0.1" d="M168.601 190.159C169.508 191.714 170.426 193.285 171.679 194.59C172.403 195.302 173.174 195.965 173.988 196.573C172.493 192.761 170.974 188.918 168.581 185.586C167.977 184.748 167.074 183.548 165.974 183.395C165.66 184.325 166.454 185.973 166.836 186.847C167.362 187.983 167.951 189.089 168.601 190.159Z" fill="black"/>
<path opacity="0.1" d="M124.556 161.659C124.488 162.303 124.436 163.017 124.81 163.544C124.996 163.805 125.267 163.991 125.576 164.072C125.382 164.024 125.173 162.13 125.124 161.872C125.036 161.345 125.124 160.358 124.75 159.967C124.653 160.523 124.617 161.095 124.556 161.659Z" fill="black"/>
<path opacity="0.1" d="M126.651 160.919C126.784 161.486 127.031 162.021 127.378 162.49C127.724 162.958 128.162 163.352 128.665 163.646C127.96 162.776 127.731 161.632 127.118 160.677C126.921 160.371 126.691 159.932 126.312 159.871C126.408 160.226 126.521 160.575 126.651 160.919Z" fill="black"/>
<path opacity="0.1" d="M124.878 149.314C124.283 149.668 123.622 149.895 122.936 149.981C122.25 150.068 121.553 150.012 120.889 149.818C120.587 149.729 119.882 149.415 120.051 148.972C120.22 148.528 121.038 148.835 121.373 148.875L123.125 149.096C123.448 149.137 124.616 149.467 124.878 149.314Z" fill="black"/>
<path opacity="0.1" d="M118.947 152.183C119.773 152.078 120.514 152.65 121.288 152.96C122.144 153.245 123.046 153.366 123.947 153.315C124.398 153.315 124.91 153.278 125.188 152.912C123.089 152.432 121.127 151.905 118.947 152.183Z" fill="black"/>
<path d="M128.906 127.957H129.039L130.026 131.506L128.906 132.699V127.957Z" fill="#DE959A"/>
<g opacity="0.1">
<path d="M107.078 99.8164C106.955 100.393 106.895 100.98 106.897 101.569C106.947 101.384 106.983 101.195 107.005 101.005C107.054 100.618 107.05 100.211 107.078 99.8164Z" fill="black"/>
<path d="M119.096 100.276C119.194 100.281 119.29 100.307 119.377 100.352C119.464 100.396 119.541 100.458 119.603 100.534C119.665 100.61 119.711 100.697 119.737 100.792C119.764 100.886 119.771 100.985 119.757 101.081C119.946 100.413 120.051 99.5908 119.229 99.47C118.512 99.3813 117.521 100.143 117.159 100.699C116.796 101.255 116.707 101.96 116.45 102.576C115.957 103.637 115.069 104.462 113.976 104.877C112.89 105.283 111.739 105.488 110.58 105.481C108.871 105.533 106.982 105.296 105.745 104.168C105.597 104.325 105.437 104.47 105.266 104.603C106.474 106.041 108.569 106.327 110.451 106.271C111.609 106.277 112.758 106.072 113.843 105.666C114.937 105.251 115.825 104.426 116.321 103.366C116.578 102.749 116.659 102.052 117.026 101.492C117.392 100.932 118.379 100.187 119.096 100.276Z" fill="black"/>
<path d="M140.377 114.32C139.796 114.458 139.185 114.41 138.633 114.183C138.186 113.897 137.82 113.502 137.569 113.035C136.941 112.068 136.311 111.101 135.68 110.134C135.192 109.263 134.54 108.495 133.762 107.87C132.956 107.294 131.808 107.064 130.942 107.572C130.172 108.023 129.802 108.946 129.713 109.832C129.713 109.868 129.713 109.904 129.713 109.941C129.859 109.291 130.254 108.724 130.813 108.361C131.671 107.854 132.827 108.087 133.633 108.66C134.411 109.286 135.063 110.054 135.555 110.924C136.183 111.891 136.813 112.858 137.444 113.824C137.692 114.293 138.059 114.689 138.508 114.973C139.059 115.2 139.668 115.248 140.248 115.11C141.179 114.972 142.098 114.76 142.996 114.477C142.819 114.285 142.654 114.082 142.504 113.869C141.805 114.064 141.095 114.214 140.377 114.32Z" fill="black"/>
<path d="M129.542 113.462C129.255 113.716 128.886 113.859 128.503 113.865L127.294 114.03C127.185 114.069 127.069 114.085 126.954 114.078C126.838 114.071 126.725 114.041 126.622 113.989C126.518 113.938 126.426 113.866 126.35 113.778C126.275 113.69 126.218 113.589 126.182 113.478C125.179 111.657 124.486 109.405 122.605 108.531C121.445 107.991 119.918 108.027 119.172 106.988C118.794 106.354 118.666 105.601 118.814 104.877C118.794 105.002 118.765 105.123 118.745 105.244C118.6 106.106 118.528 107.069 119.039 107.778C119.785 108.817 121.316 108.781 122.472 109.321C124.357 110.195 125.05 112.447 126.053 114.268C126.145 114.497 126.307 114.69 126.517 114.82C126.726 114.89 126.951 114.9 127.165 114.848L128.374 114.683C128.758 114.68 129.127 114.536 129.413 114.28C129.607 113.998 129.694 113.657 129.659 113.317C129.624 113.369 129.585 113.417 129.542 113.462Z" fill="black"/>
</g>
<path d="M296.289 208.461L293.707 208.103V169.979L294.235 170.14L295.846 170.635V171.904V172.859V174.305L295.866 175.961L295.903 179.37V179.712V180.167V181.134V181.718V183.132V184.019L296.096 201.185V201.645L296.165 207.688V207.781L296.289 208.461Z" fill="#EAECF0"/>
<path d="M297.741 208.663L296.303 208.461V207.772V207.68L296.234 201.636V201.177L296.041 184.011V183.124V181.71V181.126V180.159V179.704V179.361L296.005 175.953L295.984 174.297V172.851V171.896V170.627H297.535V172.029V172.988V174.092V175.554L297.568 179.236V180.042V180.884V181.472V182.194V183.132L297.717 201.149V201.612L297.765 207.603V207.7L297.741 208.663Z" fill="#D3DAE1"/>
<path d="M454.459 165.252V198.159C453.694 198.696 452.91 199.224 452.106 199.742L452.074 172.347V169.438L454.459 165.252Z" fill="#EAECF0"/>
<path d="M456.137 164.777V196.887C455.589 197.326 455.029 197.749 454.461 198.164V165.253L456.137 164.777Z" fill="#D3DAE1"/>
<path d="M418.725 211.411C417.734 211.613 416.738 211.814 415.743 211.987L415.707 182.211V180.922L418.58 179.713V182.444L418.725 211.411Z" fill="#EAECF0"/>
<path d="M420.618 178.77V211C419.99 211.137 419.361 211.266 418.733 211.403L418.6 182.448V179.716L418.789 179.628L420.618 178.77Z" fill="#D3DAE1"/>
<path d="M249.858 202.49L247.178 202.22L246.836 168.644V167.685V167.045H249.467V167.911V168.87L249.858 202.49Z" fill="#EAECF0"/>
<path d="M251.853 202.704L249.838 202.49L249.436 168.87V167.911V167.045H251.47V168.088V169.047L251.853 202.704Z" fill="#D3DAE1"/>
<path opacity="0.1" d="M418.77 179.632L420.611 178.766V182.831L418.818 183.431L418.77 179.632Z" fill="black"/>
<path opacity="0.1" d="M456.131 164.77V170.99L454.46 171.55L452.07 172.344L452.066 169.435L454.46 165.249L456.131 164.77Z" fill="black"/>
<path d="M456.13 152.812V170.036L418.816 182.472L418.574 164.053L456.13 152.812Z" fill="#D48A9B"/>
<path d="M246.342 151.616L295.38 142.285L456.132 152.812L418.576 164.053L246.342 151.616Z" fill="#EFC6CD"/>
<path opacity="0.1" d="M251.486 167.045L251.502 169.043L249.471 168.866L246.832 168.64L246.82 167.045H251.486Z" fill="black"/>
<path opacity="0.1" d="M297.434 172.992L295.883 172.855L293.707 172.67V169.979L295.858 170.631H297.413L297.434 172.992Z" fill="black"/>
<path d="M246.342 151.615V167.642L418.818 182.472L418.576 164.052L246.342 151.615Z" fill="#D48A9B"/>
<path d="M383.095 170.67H360.566V162.496L383.095 164.083V170.67Z" fill="#D48A9B"/>
<path opacity="0.1" d="M383.095 170.67H360.566V162.496L383.095 164.083V170.67Z" fill="black"/>
<path opacity="0.1" d="M330.305 160.705V173.621L416.782 180.2V166.446L383.053 164.532L379.702 167.522L365.947 166.567L361.044 162.977L330.305 160.705Z" fill="black"/>
<path d="M329.824 160.223V173.143L416.302 179.718V165.964L382.573 164.05L379.225 167.043L365.467 166.085L360.564 162.495L329.824 160.223Z" fill="white"/>
<path d="M276.481 156.756L296.935 158.194L296.697 164.693H283.342L274.41 161.183L276.481 156.756Z" fill="#D48A9B"/>
<path opacity="0.1" d="M276.481 156.756L296.935 158.194L296.697 164.693H283.342L274.41 161.183L276.481 156.756Z" fill="black"/>
<path opacity="0.1" d="M249.215 154.963V166.566L327.675 172.786V160.466L297.415 158.669L294.184 161.062L281.985 160.345L276.961 157.235L249.215 154.963Z" fill="black"/>
<path d="M248.734 154.482V166.085L327.195 172.306V159.986L296.935 158.193L293.708 160.582L281.504 159.865L276.481 156.755L248.734 154.482Z" fill="white"/>
<path opacity="0.1" d="M416.791 154.527L427.79 155.248L409.567 160.703L400.285 160.035L416.791 154.527Z" fill="black"/>
<path d="M416.791 154.053L427.79 154.77L409.567 160.225L400.285 159.556L416.791 154.053Z" fill="white"/>
<path d="M415.479 155.29C415.914 155.1 416.377 155.451 416.84 155.539C417.102 155.592 417.376 155.539 417.646 155.592C418.186 155.664 418.718 156.023 419.233 155.842L415.479 155.29Z" fill="#D3DAE1"/>
<path d="M414.91 155.616C415.341 155.43 415.805 155.781 416.268 155.87C416.534 155.918 416.808 155.87 417.074 155.918C417.609 155.99 418.145 156.353 418.661 156.172L414.91 155.616Z" fill="#D3DAE1"/>
<path d="M413.605 156.276C414.037 156.091 414.5 156.438 414.963 156.526C415.229 156.579 415.499 156.526 415.769 156.579C416.309 156.651 416.845 157.014 417.356 156.828L413.605 156.276Z" fill="#D3DAE1"/>
<path opacity="0.1" d="M342.585 148.492L367.108 150.1L361.882 157.605L334.922 154.725L342.585 148.492Z" fill="black"/>
<path d="M342.106 148.014L366.629 149.617L361.404 157.127L334.439 154.246L342.106 148.014Z" fill="#3A3768"/>
<path d="M343.186 148.566L364.574 149.876L360.018 155.991L336.502 153.643L343.186 148.566Z" fill="#D5E1F4"/>
<path d="M328.843 209.9C328.843 210.012 328.843 210.129 328.823 210.242C328.803 210.355 328.823 210.444 328.791 210.544C328.705 211.254 328.508 211.946 328.207 212.595C318.074 211.455 307.918 210.085 297.749 208.679L296.311 208.477L293.728 208.119L291.553 207.817C289.171 207.757 286.797 207.535 284.446 207.152C282.965 206.933 281.498 206.623 280.055 206.225C273.609 205.343 267.126 204.493 260.664 203.72L259.822 203.619C259.975 202.934 260.104 202.519 260.104 202.519C260.104 202.519 261.49 197.072 262.642 190.985C262.896 189.663 263.138 188.318 263.347 186.984C263.517 185.916 263.67 184.861 263.799 183.846C263.871 183.286 263.931 182.738 263.984 182.202C264.012 181.936 264.036 181.67 264.056 181.396C264.077 181.122 264.101 180.824 264.121 180.546C264.141 180.268 264.149 180.022 264.161 179.768V179.39C264.161 178.846 264.161 178.278 264.141 177.694C263.937 174.784 263.479 171.898 262.771 169.068C262.658 168.585 262.542 168.101 262.421 167.63C262.384 167.477 262.344 167.328 262.304 167.179C261.003 162.139 259.484 158.021 259.484 158.021C259.482 157.998 259.482 157.975 259.484 157.953C259.485 157.937 259.485 157.92 259.484 157.904C259.485 157.871 259.485 157.837 259.484 157.804C259.484 157.675 259.484 157.477 259.484 157.24C259.484 157.191 259.484 157.139 259.484 157.086C259.513 156.664 259.586 156.245 259.701 155.838C259.745 155.693 259.796 155.55 259.854 155.41C259.998 155.005 260.238 154.641 260.554 154.349C260.87 154.057 261.252 153.846 261.667 153.734C262.807 153.44 264.532 153.734 267.134 155.277C267.558 155.522 267.962 155.8 268.343 156.107C268.536 156.261 268.746 156.422 268.907 156.595C271.888 159.371 273.476 163.951 274.322 168.133C274.354 168.282 274.382 168.431 274.41 168.581C274.511 169.096 274.596 169.6 274.672 170.095C274.809 170.966 274.918 171.804 274.999 172.581C274.999 172.791 275.043 172.984 275.063 173.198C275.083 173.411 275.103 173.6 275.115 173.794C275.168 174.422 275.204 175.002 275.228 175.494C275.297 176.799 275.285 177.601 275.285 177.601V177.641C275.285 177.641 275.285 177.702 275.264 177.814C275.262 177.825 275.262 177.836 275.264 177.847C275.264 177.895 275.264 177.955 275.264 178.024C275.264 178.092 275.264 178.141 275.264 178.209C275.248 178.379 275.228 178.576 275.204 178.802C275.168 179.148 275.127 179.555 275.079 180.01C275.047 180.349 275.007 180.715 274.966 181.102C274.878 181.908 274.781 182.842 274.676 183.825C274.652 184.011 274.632 184.196 274.612 184.381C274.519 185.223 274.422 186.102 274.322 186.988C274.213 187.995 274.092 189.002 273.975 189.997C273.947 190.215 273.919 190.433 273.895 190.646C273.597 193.063 273.298 195.259 273.057 196.625C273.019 196.827 272.992 197.032 272.976 197.237C272.972 197.307 272.972 197.377 272.976 197.447C272.964 197.629 272.964 197.812 272.976 197.995C273.173 201.435 276.892 202.023 276.892 202.023L293.777 201.689L296.283 201.641L297.741 201.612L310.903 201.351L312.112 201.326L318.658 201.198C319.103 201.187 319.546 201.24 319.976 201.355C321.997 201.898 323.926 202.741 325.697 203.856C326.25 204.212 326.748 204.646 327.175 205.146C327.196 205.165 327.215 205.187 327.232 205.21C328.125 206.281 328.676 207.594 328.815 208.981C328.815 209.074 328.815 209.166 328.815 209.259C328.847 209.452 328.847 209.67 328.843 209.9Z" fill="#3A3768"/>
<path opacity="0.1" d="M328.842 209.899C328.842 210.012 328.842 210.128 328.822 210.241C328.802 210.354 328.822 210.443 328.789 210.543C328.693 211.254 328.49 211.945 328.185 212.594C318.053 211.454 307.896 210.084 297.728 208.678L296.289 208.477L293.707 208.118L291.531 207.816C289.15 207.756 286.776 207.534 284.425 207.151C282.943 206.932 281.477 206.622 280.033 206.224C273.587 205.342 267.105 204.492 260.643 203.719L259.801 203.618C259.954 202.909 260.091 202.478 260.091 202.478C260.091 202.478 261.223 198.046 262.299 192.676C262.375 192.305 262.448 191.934 262.52 191.56L262.629 190.992C262.879 189.674 263.12 188.321 263.334 186.991C263.503 185.923 263.656 184.868 263.785 183.853C263.858 183.293 263.918 182.745 263.97 182.209C263.999 181.943 264.023 181.677 264.043 181.403C264.063 181.129 264.087 180.831 264.107 180.553C264.128 180.275 264.136 180.029 264.148 179.776V179.397C264.148 178.853 264.148 178.285 264.128 177.701C263.93 174.791 263.475 171.905 262.77 169.075C262.657 168.586 262.54 168.107 262.419 167.637C262.379 167.484 262.343 167.335 262.303 167.186C260.997 162.129 259.482 157.988 259.482 157.988C259.483 157.979 259.483 157.969 259.482 157.96C259.484 157.944 259.484 157.927 259.482 157.911C259.484 157.878 259.484 157.844 259.482 157.811C259.482 157.682 259.482 157.484 259.482 157.247C259.482 157.198 259.482 157.146 259.482 157.094C259.508 156.671 259.577 156.253 259.688 155.845C259.732 155.704 259.781 155.559 259.837 155.418C259.982 154.99 260.233 154.606 260.567 154.303C260.901 153.999 261.307 153.785 261.747 153.681C262.887 153.415 264.591 153.746 267.137 155.236C267.578 155.496 267.999 155.789 268.394 156.115C268.583 156.272 268.765 156.429 268.942 156.598C271.899 159.39 273.474 163.963 274.312 168.132C274.345 168.281 274.373 168.435 274.401 168.584C274.502 169.095 274.586 169.603 274.663 170.094C274.8 170.965 274.905 171.799 274.985 172.572C275.005 172.786 275.029 172.995 275.046 173.197C275.062 173.398 275.086 173.599 275.098 173.793C275.15 174.421 275.187 175.001 275.211 175.493C275.279 176.798 275.267 177.6 275.267 177.6V177.737C275.267 177.761 275.267 177.785 275.267 177.814C275.265 177.824 275.265 177.835 275.267 177.846C275.267 177.894 275.267 177.955 275.267 178.023C275.267 178.092 275.267 178.14 275.267 178.208C275.251 178.378 275.231 178.575 275.207 178.801C275.17 179.147 275.13 179.554 275.082 180.009C275.042 180.344 275.005 180.71 274.965 181.101C274.876 181.907 274.78 182.841 274.675 183.824C274.651 184.01 274.631 184.195 274.61 184.38C274.518 185.222 274.417 186.109 274.32 186.995C274.204 188.002 274.087 189.009 273.966 190.001C273.938 190.218 273.913 190.436 273.885 190.649C273.591 193.066 273.297 195.23 273.055 196.588C273.016 196.805 272.989 197.024 272.975 197.244C272.971 197.314 272.971 197.384 272.975 197.454C272.963 197.636 272.963 197.819 272.975 198.002C273.204 201.402 276.891 201.97 276.891 201.97L293.775 201.64L296.277 201.587L297.74 201.559L310.926 201.301L312.159 201.277L318.681 201.148C319.126 201.134 319.57 201.187 319.999 201.305C322.035 201.833 323.979 202.669 325.764 203.783C326.327 204.143 326.832 204.586 327.263 205.096C327.283 205.116 327.302 205.138 327.319 205.161C328.211 206.236 328.756 207.556 328.882 208.948C328.882 209.041 328.882 209.133 328.882 209.226C328.846 209.452 328.846 209.669 328.842 209.899Z" fill="black"/>
<path d="M328.871 212.655L328.206 212.578C318.073 211.438 307.917 210.068 297.748 208.662L296.31 208.461L293.727 208.102L291.552 207.8C289.171 207.74 286.796 207.518 284.445 207.136C282.964 206.916 281.497 206.607 280.054 206.209C273.608 205.327 267.125 204.477 260.663 203.703C260.768 203.138 260.903 202.578 261.066 202.027C261.066 202.027 264.894 186.955 265.131 178.942C265.216 176.078 264.648 172.532 263.878 169.152C263.765 168.665 263.653 168.181 263.532 167.706L263.423 167.255C262.057 161.957 260.434 157.525 260.434 157.525C260.396 156.977 260.427 156.426 260.526 155.885C260.551 155.74 260.584 155.596 260.623 155.454C260.778 154.779 261.141 154.17 261.662 153.714C261.686 153.693 261.712 153.674 261.739 153.658C262.799 152.852 264.7 152.795 268.084 154.778C268.77 155.182 269.404 155.668 269.974 156.224C270.135 156.377 270.296 156.538 270.449 156.703C273.169 159.648 274.611 164.161 275.368 168.197L275.453 168.645C275.542 169.148 275.618 169.644 275.691 170.123C275.691 170.123 275.691 170.151 275.691 170.163C275.783 170.8 275.86 171.408 275.924 171.988C276.113 173.697 276.21 175.414 276.214 177.133C276.214 177.133 276.057 178.725 275.812 181.017C275.719 181.915 275.61 182.923 275.493 183.986C275.493 184.039 275.493 184.091 275.493 184.147L275.433 184.711C275.227 186.569 275.002 188.551 274.772 190.388C274.748 190.613 274.72 190.835 274.692 191.053C274.434 193.119 274.176 194.957 273.962 196.153C273.124 200.818 277.79 201.535 277.79 201.535L293.719 201.221L296.217 201.173L297.68 201.141H298.292H298.489L311.124 200.891H312.332L319.584 200.746C320.029 200.735 320.473 200.789 320.902 200.907C322.939 201.435 324.884 202.269 326.671 203.381C327.172 203.704 327.628 204.091 328.028 204.533C328.053 204.558 328.076 204.585 328.097 204.613C329.044 205.708 329.627 207.07 329.766 208.511C329.904 209.952 329.592 211.4 328.871 212.655Z" fill="#3A3768"/>
<path d="M385.82 139.832L390.748 150.387H389.922L384.145 139.957L385.82 139.832Z" fill="#848496"/>
<path opacity="0.1" d="M385.82 139.832L390.748 150.387H389.922L384.145 139.957L385.82 139.832Z" fill="black"/>
<path d="M385.822 150.387H390.749V151.491L385.822 151.615V150.387Z" fill="#848496"/>
<path opacity="0.1" d="M385.822 150.387H390.749V151.491L385.822 151.615V150.387Z" fill="black"/>
<path d="M347.496 100.989V137.849C347.496 138.574 347.784 139.27 348.297 139.783C348.81 140.296 349.506 140.584 350.232 140.584H411.67C412.032 140.584 412.39 140.512 412.723 140.372C413.057 140.232 413.359 140.027 413.612 139.769C413.865 139.511 414.065 139.205 414.198 138.869C414.332 138.533 414.397 138.174 414.39 137.812L413.693 100.921C413.679 100.209 413.387 99.5305 412.878 99.0318C412.37 98.5331 411.686 98.2538 410.974 98.2539H350.232C349.872 98.2539 349.517 98.3247 349.185 98.4621C348.853 98.5996 348.551 98.8011 348.297 99.0551C348.043 99.3091 347.842 99.6107 347.704 99.9426C347.567 100.274 347.496 100.63 347.496 100.989Z" fill="#848496"/>
<path opacity="0.1" d="M347.496 100.989V137.849C347.496 138.574 347.784 139.27 348.297 139.783C348.81 140.296 349.506 140.584 350.232 140.584H411.67C412.032 140.584 412.39 140.512 412.723 140.372C413.057 140.232 413.359 140.027 413.612 139.769C413.865 139.511 414.065 139.205 414.198 138.869C414.332 138.533 414.397 138.174 414.39 137.812L413.693 100.921C413.679 100.209 413.387 99.5305 412.878 99.0318C412.37 98.5331 411.686 98.2538 410.974 98.2539H350.232C349.872 98.2539 349.517 98.3247 349.185 98.4621C348.853 98.5996 348.551 98.8011 348.297 99.0551C348.043 99.3091 347.842 99.6107 347.704 99.9426C347.567 100.274 347.496 100.63 347.496 100.989Z" fill="black"/>
<path d="M345.279 100.989V137.849C345.279 138.574 345.568 139.27 346.081 139.783C346.594 140.296 347.289 140.584 348.015 140.584H409.454C409.815 140.584 410.173 140.512 410.506 140.372C410.839 140.232 411.141 140.027 411.394 139.769C411.647 139.511 411.846 139.205 411.979 138.869C412.112 138.533 412.177 138.174 412.169 137.813L411.472 100.921C411.458 100.21 411.166 99.5319 410.659 99.0333C410.151 98.5347 409.468 98.2549 408.757 98.254H348.031C347.67 98.2518 347.313 98.321 346.979 98.4575C346.645 98.5941 346.342 98.7952 346.086 99.0495C345.83 99.3037 345.628 99.606 345.489 99.9389C345.351 100.272 345.279 100.629 345.279 100.989Z" fill="#848496"/>
<path d="M347.697 103.294V135.746C347.697 136.471 347.985 137.167 348.498 137.68C349.012 138.193 349.707 138.481 350.433 138.481H407.323C408.044 138.481 408.736 138.195 409.246 137.685C409.756 137.175 410.043 136.483 410.043 135.762V103.274C410.042 102.553 409.755 101.863 409.245 101.354C408.735 100.845 408.044 100.559 407.323 100.559H350.433C349.707 100.559 349.012 100.847 348.498 101.36C347.985 101.873 347.697 102.569 347.697 103.294Z" fill="#6C63FF"/>
<path d="M372.312 139.979L377.715 150.385H389.922L383.819 138.48L372.312 139.979Z" fill="#848496"/>
<path d="M368.01 150.387L367.107 151.491H385.821V150.387H368.01Z" fill="#848496"/>
<path d="M287.837 106.906C288.167 108.69 288.498 110.476 289.103 112.178C289.106 112.187 289.109 112.196 289.112 112.205C289.112 112.205 289.112 112.205 289.112 112.205C289.113 112.208 289.114 112.211 289.115 112.214C289.121 112.231 289.128 112.249 289.135 112.275C289.059 112.248 288.989 112.205 288.93 112.15C288.811 112.023 288.724 111.87 288.676 111.703C288.061 109.988 287.725 108.192 287.39 106.401C286.982 104.217 286.575 102.038 285.662 100.019C285.398 99.4976 285.168 98.9593 284.974 98.4078C284.937 98.2914 284.906 98.173 284.881 98.0533L284.974 97.9969L285.074 97.9566L285.175 97.9284L285.276 97.9042C285.297 98.2606 285.36 98.6134 285.461 98.9558C285.654 99.5065 285.882 100.045 286.142 100.567C287.035 102.572 287.436 104.737 287.837 106.906Z" fill="url(#paint1_linear_524_2993)"/>
<path d="M302.574 114.297C301.94 115.011 301.418 115.818 301.027 116.69C300.967 116.823 300.906 116.951 300.85 117.092C299.069 121.121 298.465 126.822 298.465 126.822C298.465 126.822 297.361 126.326 295.798 125.553C292.885 124.111 288.389 121.709 286.572 119.796C285.766 118.93 285.476 118.164 286.145 117.628C286.29 117.511 286.439 117.379 286.588 117.225C287.103 116.71 287.574 116.152 287.994 115.558C288.574 114.752 289.146 113.853 289.686 112.931C290.004 112.391 290.307 111.847 290.589 111.319L290.701 111.11C291.91 108.817 292.792 106.859 292.792 106.859C292.792 106.859 293.195 106.988 293.848 107.218C296.857 108.294 305.145 111.561 302.574 114.297Z" fill="#EFB7B9"/>
<path d="M357.72 207.639C357.72 207.639 358.212 211.289 358.836 215.14L357.406 215.068C353.581 214.869 349.752 214.615 345.92 214.306C343.744 209.266 341.488 203.284 341.488 203.191C341.488 203.098 341.42 201.128 341.343 198.929C341.319 198.155 341.291 197.357 341.267 196.608C341.226 195.472 341.19 194.449 341.17 193.812C341.17 193.377 341.146 193.119 341.146 193.119C341.146 193.119 339.075 193.482 337.214 193.735L336.388 193.844C335.961 193.897 335.582 193.937 335.239 193.961C334.944 194.006 334.644 194.006 334.349 193.961C333.713 193.715 335.034 187.515 335.034 187.515L338.321 179.558L339.24 177.342L339.643 177.242C339.84 177.193 340.106 177.137 340.425 177.076C343.563 176.5 351.947 175.767 353.369 184.042C355.13 194.263 355.383 196.56 355.383 196.56L357.72 207.639Z" fill="#EFB7B9"/>
<path opacity="0.05" d="M357.72 207.639C357.72 207.639 358.212 211.289 358.836 215.14L357.406 215.068C353.581 214.869 349.752 214.615 345.92 214.306C343.744 209.266 341.488 203.284 341.488 203.191C341.488 203.098 341.42 201.128 341.343 198.929C341.319 198.155 341.291 197.357 341.267 196.608C341.226 195.472 341.19 194.449 341.17 193.812C341.17 193.377 341.146 193.119 341.146 193.119C341.146 193.119 339.075 193.482 337.214 193.735L336.388 193.844C335.961 193.897 335.582 193.937 335.239 193.961C334.944 194.006 334.644 194.006 334.349 193.961C333.713 193.715 335.034 187.515 335.034 187.515L338.321 179.558L339.24 177.342L339.643 177.242C339.84 177.193 340.106 177.137 340.425 177.076C343.563 176.5 351.947 175.767 353.369 184.042C355.13 194.263 355.383 196.56 355.383 196.56L357.72 207.639Z" fill="black"/>
<path d="M357.407 215.068C353.583 214.869 349.754 214.616 345.921 214.307L344.471 214.19L343.83 214.138C342.025 209.782 340.422 205.524 340.422 205.447C340.422 205.371 340.353 203.385 340.277 201.185C340.184 198.437 340.08 195.376 340.08 195.376L339.81 195.42L339.697 195.44H339.648H339.552L338.903 195.549L338.549 195.605C337.908 195.71 337.134 195.827 336.377 195.936L336.208 195.96L335.765 196.016L335.362 196.064C335.052 196.105 334.757 196.137 334.492 196.161L334.165 196.189C333.87 196.236 333.57 196.236 333.275 196.189C332.638 195.944 333.96 189.743 333.96 189.743L338.166 179.571L338.311 179.53C338.532 179.474 339 179.365 339.632 179.256C339.87 179.216 340.132 179.176 340.414 179.14C344.064 178.672 351.01 178.805 352.295 186.27C354.055 196.492 354.309 198.788 354.309 198.788L356.658 209.899C356.658 209.899 356.964 212.196 357.407 215.068Z" fill="#EFB7B9"/>
<path opacity="0.1" d="M340.277 201.185C340.185 198.438 340.08 195.372 340.08 195.372C340.08 195.372 336.051 196.077 334.174 196.214L334.553 194.932C334.553 194.932 341.45 193.027 341.595 194.103C341.7 194.856 340.813 198.861 340.277 201.185Z" fill="black"/>
<path opacity="0.1" d="M340.422 177.057V179.969C340.422 179.969 340.08 185.207 337.388 193.22C337.332 193.393 337.272 193.563 337.207 193.732C336.925 194.503 336.591 195.254 336.208 195.98C335.451 196.085 334.717 196.173 334.173 196.213C333.878 196.259 333.578 196.259 333.283 196.213C332.647 195.968 333.964 189.767 333.964 189.767L338.17 179.599L338.319 179.559L339.234 177.339C339.234 177.339 339.685 177.194 340.422 177.057Z" fill="black"/>
<path d="M339.64 176.598V179.97C339.64 179.97 339.298 185.207 336.607 193.224C336.538 193.434 336.461 193.627 336.385 193.841C336.308 194.054 336.208 194.308 336.107 194.534C335.885 195.07 335.636 195.589 335.374 196.089C333.267 200.081 330.056 202.938 328.017 204.509C327.719 204.739 327.441 204.94 327.211 205.109H327.191C326.788 205.383 326.498 205.581 326.313 205.698C326.128 205.814 326.112 205.822 326.112 205.822C324.202 204.65 318.775 204.453 318.775 204.453L306.109 206.753C303.34 207.23 300.546 207.547 297.741 207.704L296.303 207.772C295.473 207.805 294.611 207.825 293.728 207.829C293.015 207.829 292.29 207.829 291.553 207.801C289.171 207.741 286.797 207.519 284.446 207.136C283.153 206.923 281.872 206.64 280.611 206.286C279.711 206.036 278.825 205.741 277.956 205.399C269.092 201.919 271.401 193.664 272.895 190.09C272.976 189.901 273.053 189.727 273.125 189.566C273.455 188.837 273.701 188.41 273.701 188.41L274.289 186.988L275.252 184.655L275.466 184.144L275.526 183.994L276.239 182.266L286.311 180.961L293.712 180.002L295.964 179.712L297.491 179.514L300.404 179.136L301.5 178.995C302.176 178.89 302.858 178.836 303.542 178.834C303.912 178.816 304.281 178.871 304.63 178.995C305.436 179.361 311.576 178.358 311.576 178.358C311.576 178.358 316.366 176.892 320.572 177.379C322.652 177.523 324.739 177.536 326.821 177.42L327.336 177.395L328.005 177.367H328.15C333.597 177.113 339.64 176.598 339.64 176.598Z" fill="#444053"/>
<path opacity="0.1" d="M303.401 186.716C303.401 186.716 298.566 197.719 298.365 197.912C298.163 198.106 298.171 201.538 298.365 201.337C298.558 201.135 305.262 186.277 305.262 186.277L303.401 186.716Z" fill="black"/>
<path opacity="0.1" d="M326.824 177.412C326.824 177.412 324.379 178.991 323.645 180.264C322.912 181.537 316.212 194.2 314.552 196.057C313.174 197.718 311.931 199.487 310.834 201.347C310.64 201.681 310.64 203.784 311.813 201.778C312.985 199.771 312.695 199.433 314.992 196.943C317.288 194.453 319.826 188.825 320.809 187.701C321.792 186.577 323.158 183.201 324.87 181.195L328.15 177.363L326.824 177.412Z" fill="black"/>
<path opacity="0.1" d="M327.413 199.138C327.413 199.138 325.701 197.966 324.089 199.968C322.478 201.97 327.413 199.138 327.413 199.138Z" fill="black"/>
<path opacity="0.1" d="M329.516 199.742C329.516 199.742 328.098 202.216 327.413 202.413C326.728 202.611 329.516 199.742 329.516 199.742Z" fill="black"/>
<path opacity="0.1" d="M327.412 200.359C327.412 200.359 326.288 202.317 325.309 202.12L327.412 200.359Z" fill="black"/>
<path d="M319.497 147.498C319.497 147.498 329.863 147.058 330.89 146.716C331.918 146.374 341.011 145.201 341.011 145.201C341.011 145.201 367.955 147.107 360.28 149.407C352.606 151.708 342.187 150.725 342.187 150.725C342.187 150.725 332.014 153.368 330.451 154.753C328.888 156.139 317.346 156.172 317.346 156.172L319.497 147.498Z" fill="#EFB7B9"/>
<path opacity="0.05" d="M319.497 147.498C319.497 147.498 329.863 147.058 330.89 146.716C331.918 146.374 341.011 145.201 341.011 145.201C341.011 145.201 367.955 147.107 360.28 149.407C352.606 151.708 342.187 150.725 342.187 150.725C342.187 150.725 332.014 153.368 330.451 154.753C328.888 156.139 317.346 156.172 317.346 156.172L319.497 147.498Z" fill="black"/>
<path d="M282.621 123.882C282.621 123.882 273.133 127.105 277.73 135.324C282.327 143.542 288.245 147.41 288.245 147.41L303.502 157.973C303.502 157.973 309.908 161.64 312.841 160.125L317.631 159.722L318.437 147.152C318.437 147.152 314.408 150.282 310.025 145.943C305.641 141.604 300.243 138.655 299.804 136.311C299.364 133.966 288.144 121.876 282.621 123.882Z" fill="#DE959A"/>
<path d="M312.594 150.482C312.594 150.482 317.533 152.242 317.34 152.339C317.146 152.436 312.594 154.148 312.594 154.148L312.936 160.848L319.636 160.481C319.636 160.481 322.082 148.282 319.979 147.057L312.594 146.715V150.482Z" fill="#67647E"/>
<path opacity="0.1" d="M312.594 150.482C312.594 150.482 317.533 152.242 317.34 152.339C317.146 152.436 312.594 154.148 312.594 154.148L312.936 160.848L319.636 160.481C319.636 160.481 322.082 148.282 319.979 147.057L312.594 146.715V150.482Z" fill="black"/>
<path opacity="0.1" d="M302.575 114.296C301.941 115.011 301.419 115.818 301.028 116.689C300.968 116.822 300.908 116.951 300.851 117.092C297.253 117.092 294.667 114.296 292.459 111.794C292.056 111.331 291.037 112.032 290.703 111.512C290.666 111.452 290.63 111.391 290.59 111.331L290.703 111.121C291.911 108.829 292.794 106.871 292.794 106.871C292.794 106.871 293.196 107 293.849 107.23C296.859 108.293 305.146 111.561 302.575 114.296Z" fill="black"/>
<path d="M313.05 104.566C313.049 107.762 311.787 110.828 309.537 113.098C307.287 115.368 304.232 116.659 301.037 116.688H300.92C299.198 116.69 297.497 116.324 295.928 115.615C294.359 114.906 292.96 113.871 291.823 112.579C291.416 112.117 291.044 111.626 290.711 111.109C289.693 109.522 289.058 107.72 288.858 105.846C288.657 103.971 288.897 102.076 289.557 100.31C290.217 98.544 291.279 96.9562 292.66 95.6725C294.04 94.3889 295.701 93.4447 297.51 92.9148C299.319 92.3849 301.227 92.284 303.082 92.6201C304.937 92.9561 306.688 93.7198 308.196 94.8507C309.705 95.9815 310.929 97.4483 311.771 99.1347C312.614 100.821 313.052 102.681 313.05 104.566Z" fill="#EFB7B9"/>
<path opacity="0.1" d="M300.714 179.771C300.714 179.771 299.791 180.9 298.772 181.951C298.003 182.757 297.181 183.494 296.653 183.683C295.444 184.127 289.905 188.329 289.905 188.329C289.905 188.329 285.505 191.314 284.381 192.192C283.257 193.07 279.196 192.535 279.196 192.535C279.196 192.535 275.288 191.681 272.867 190.117C273.102 189.543 273.372 188.984 273.673 188.441L276.215 182.277L286.287 180.976L300.714 179.771Z" fill="black"/>
<path d="M300.517 178.99C300.517 178.99 299.599 180.118 298.58 181.17C297.81 181.976 296.968 182.713 296.46 182.902C295.252 183.341 289.712 187.547 289.712 187.547C289.712 187.547 285.309 190.533 284.185 191.411C283.061 192.289 279.004 191.753 279.004 191.753C279.004 191.753 273.428 190.545 271.47 188.329C270.1 186.786 271.518 183.925 272.485 182.35C272.888 181.677 273.23 181.238 273.23 181.238L300.517 178.99Z" fill="#67647E"/>
<path d="M307.757 141.092C304.429 140.798 293.475 127.394 293.475 127.394L293.724 127.052L296.021 123.873H301.391L301.983 126.806C306.069 132.535 308.474 136.519 309.126 138.8C309.598 140.46 309.151 141.217 307.757 141.092Z" fill="#67647E"/>
<path opacity="0.1" d="M307.757 141.091C304.429 140.797 293.475 127.393 293.475 127.393L293.724 127.051C295.688 128.853 297.533 130.78 299.248 132.82C307.265 142.255 308.852 139.621 309.126 138.799C309.598 140.459 309.151 141.216 307.757 141.091Z" fill="black"/>
<path opacity="0.1" d="M300.517 178.99C300.517 178.99 299.598 180.118 298.579 181.17C298.041 181.378 297.474 181.5 296.899 181.532C295.626 181.484 292.693 183.49 292.693 183.49C292.693 183.49 287.512 183.196 286.533 183.732C285.554 184.268 281.787 184.369 281.787 184.369C274.894 186.335 272.988 183.349 272.484 182.354C272.887 181.681 273.23 181.242 273.23 181.242L300.517 178.99Z" fill="black"/>
<path d="M312.489 149.87C312.489 150.059 312.453 150.249 312.429 150.43C312.404 150.611 312.38 150.796 312.352 150.97C312.222 151.965 311.923 152.931 311.47 153.826C310.591 155.293 307.9 161.013 307.9 161.013L307.719 162.069L307.626 162.621L307.53 163.165L306.873 167.02L306.579 171.472C306.579 171.472 304.967 173.72 304.282 174.695C303.597 175.67 303.694 177.092 303.94 178.12C304.186 179.147 301.692 179.292 301.692 179.292C301.692 179.292 298.171 181.004 296.898 180.956C295.625 180.908 292.692 182.906 292.692 182.906C292.692 182.906 287.511 182.612 286.532 183.152C285.553 183.691 281.786 183.788 281.786 183.788C274.405 185.887 272.741 182.318 272.399 181.584C272.056 180.851 273.865 177.87 273.865 177.87C273.865 177.87 274.268 174.103 275.037 173.809C275.807 173.515 276.75 168.531 276.75 168.531C276.75 168.531 276.456 167.012 277.092 166.182C277.729 165.352 277.68 163.004 278.51 161.88C279.34 160.756 277.632 156.989 277.926 156.01C278.22 155.031 276.995 151.07 277.092 150.043C277.189 149.016 276.85 148.186 276.065 146.131C275.396 144.379 275.585 136.591 275.662 134.359C275.662 133.98 275.682 133.763 275.682 133.763C275.682 133.763 276.367 131.559 278.176 127.16C279.546 123.828 282.628 122.567 284.042 122.156C284.284 122.083 284.53 122.022 284.779 121.975C285.134 122.026 285.482 122.113 285.818 122.236C287.245 122.716 290.097 124.074 294.166 127.877C295.967 129.564 297.666 131.356 299.254 133.243C308.428 144.024 309.177 138.992 309.177 138.992C309.177 138.992 309.58 139.911 311.47 143.577C312.481 145.527 312.666 147.855 312.489 149.87Z" fill="#DE959A"/>
<path opacity="0.1" d="M297.385 123.282L288.184 115.941C288.184 115.941 284.868 116.344 283.498 121.912L292.97 130.207L297.385 123.282Z" fill="black"/>
<path d="M297.387 123.281L295.775 125.533L294.14 127.842L292.907 129.651L285.345 123.281L284.044 122.153L283.314 121.533C284.052 118.523 285.361 117.021 286.405 116.295C286.878 115.933 287.43 115.686 288.016 115.574L297.387 123.281Z" fill="#67647E"/>
<path d="M360.666 152.341C352.988 154.637 342.573 153.662 342.573 153.662C342.573 153.662 332.401 156.301 330.837 157.691C329.83 158.573 324.685 158.9 321.168 159.033C319.214 159.105 317.752 159.109 317.752 159.109L319.899 150.435L321.14 150.379C323.924 150.25 330.487 149.92 331.293 149.65C332.32 149.307 341.413 148.135 341.413 148.135C341.413 148.135 368.341 150.04 360.666 152.341Z" fill="#EFB7B9"/>
<path opacity="0.1" d="M312.353 150.95C312.223 151.945 311.924 152.911 311.471 153.806C310.592 155.273 307.901 160.993 307.901 160.993L307.531 163.165C306.282 162.701 305.07 162.143 303.905 161.497L288.636 150.921C288.636 150.921 282.717 147.058 278.121 138.835C273.524 130.612 283.011 127.393 283.011 127.393C288.535 125.379 299.735 137.465 300.174 139.814C300.613 142.163 305.996 145.096 310.395 149.447C310.975 150.036 311.634 150.542 312.353 150.95Z" fill="black"/>
<path opacity="0.1" d="M312.49 149.871C312.454 150.253 312.409 150.62 312.353 150.97C312.223 151.966 311.924 152.931 311.471 153.827C310.592 155.293 307.901 161.014 307.901 161.014L307.72 162.07C306.399 161.593 305.12 161.011 303.893 160.329L288.636 149.75C288.636 149.75 282.717 145.886 278.121 137.663C273.524 129.441 283.011 126.218 283.011 126.218C288.535 124.203 299.735 136.29 300.174 138.638C300.613 140.987 305.996 143.92 310.395 148.275C311.01 148.909 311.716 149.447 312.49 149.871Z" fill="black"/>
<path d="M318.807 150.094L318.026 162.66L313.231 163.062C313.126 163.118 313.017 163.165 312.905 163.203C309.851 164.323 303.893 160.911 303.893 160.911L288.636 150.336C288.636 150.336 282.717 146.472 278.121 138.249C273.524 130.026 283.011 126.807 283.011 126.807C288.535 124.793 299.735 136.879 300.174 139.228C300.613 141.577 305.996 144.51 310.395 148.861C311.04 149.509 311.782 150.053 312.595 150.472C313.566 150.983 314.659 151.217 315.754 151.15C316.849 151.084 317.905 150.718 318.807 150.094Z" fill="#DE959A"/>
<path opacity="0.1" d="M318.806 150.092L318.025 162.658L313.23 163.06C313.125 163.116 313.016 163.163 312.904 163.201L312.594 157.094C312.594 157.094 317.142 155.382 317.34 155.285C317.537 155.188 312.594 153.428 312.594 153.428V150.507C313.568 151.012 314.663 151.24 315.758 151.167C316.853 151.094 317.907 150.722 318.806 150.092Z" fill="black"/>
<path opacity="0.1" d="M321.147 159.013C319.193 159.085 317.73 159.089 317.73 159.089L319.898 150.435L321.139 150.379C321.937 151.753 321.594 155.79 321.147 159.013Z" fill="black"/>
<path d="M312.986 153.415C312.986 153.415 317.926 155.176 317.732 155.273C317.539 155.369 312.986 157.082 312.986 157.082L313.329 163.781L320.029 163.415C320.029 163.415 322.474 151.216 320.371 149.991L312.986 149.648V153.415Z" fill="#67647E"/>
<path opacity="0.1" d="M283.696 161.438C283.696 161.438 282.032 163.001 280.662 163.416L283.696 161.438Z" fill="black"/>
<path opacity="0.1" d="M279.736 166.084C279.736 166.084 283.793 165.934 284.281 165.105C284.768 164.275 279.736 166.084 279.736 166.084Z" fill="black"/>
<path opacity="0.1" d="M277.73 171.9C277.976 171.9 282.863 171.215 283.061 170.578L277.73 171.9Z" fill="black"/>
<path opacity="0.1" d="M276.215 175.618C277.975 175.566 280.957 173.66 280.957 173.66L276.215 175.618Z" fill="black"/>
<path opacity="0.1" d="M287.607 176.593C287.607 176.593 298.219 176.593 298.707 174.639C299.194 172.685 287.607 176.593 287.607 176.593Z" fill="black"/>
<path opacity="0.1" d="M295.576 149.257C295.774 149.257 303.94 149.257 304.722 148.133C305.503 147.009 295.576 149.257 295.576 149.257Z" fill="black"/>
<path opacity="0.1" d="M286.584 117.238C286.651 117.637 286.686 118.041 286.689 118.446C286.689 118.896 286.649 119.345 286.568 119.788C286.407 120.628 286.153 121.449 285.811 122.233L285.726 122.431C285.605 122.713 285.476 122.987 285.344 123.261C284.745 124.482 284.038 125.646 283.232 126.742C281.394 129.184 279.267 131.395 276.899 133.329C276.488 133.675 276.073 134.018 275.654 134.356C275.654 133.977 275.674 133.76 275.674 133.76C275.674 133.76 276.359 131.556 278.168 127.157C279.538 123.825 282.62 122.564 284.034 122.153L283.305 121.532C284.042 118.523 285.352 117.02 286.395 116.295C286.459 116.593 286.536 116.907 286.584 117.238Z" fill="black"/>
<path opacity="0.1" d="M311.278 98.2698C311.154 98.3006 311.035 98.348 310.924 98.4108C310.158 98.8338 309.937 99.837 309.312 100.469C308.591 101.215 307.463 101.328 306.436 101.457C305.408 101.585 304.26 101.839 303.716 102.722C303.313 103.378 303.35 104.204 303.205 104.962C303.189 105.098 303.134 105.226 303.048 105.332C302.909 105.445 302.734 105.502 302.556 105.493C300.542 105.634 299.075 104.941 297.19 104.454C296.303 104.228 295.272 104.257 294.595 104.857C293.983 105.409 293.814 106.311 293.83 107.137V107.21C293.917 108.012 293.941 108.82 293.902 109.627C293.809 110.251 293.57 110.844 293.204 111.357C292.838 111.87 292.355 112.289 291.795 112.58C291.325 112.832 290.805 112.981 290.272 113.015C290.067 113.037 289.859 113.006 289.668 112.926C290.027 112.314 290.369 111.718 290.683 111.109C289.809 109.758 289.213 108.246 288.929 106.662C288.645 105.078 288.679 103.453 289.029 101.882C289.379 100.311 290.039 98.8252 290.969 97.5116C291.899 96.198 293.081 95.0826 294.446 94.2304C295.812 93.3783 297.333 92.8063 298.922 92.5479C300.51 92.2896 302.134 92.3499 303.7 92.7255C305.265 93.1011 306.739 93.7843 308.038 94.7355C309.336 95.6867 310.432 96.8867 311.262 98.2658L311.278 98.2698Z" fill="black"/>
<path d="M314.596 96.7228C314.449 97.0527 314.217 97.3376 313.923 97.5487C313.005 98.145 311.687 97.4883 310.729 98.0201C309.959 98.4431 309.742 99.4463 309.117 100.079C308.4 100.824 307.272 100.937 306.241 101.066C305.209 101.195 304.069 101.449 303.521 102.331C303.118 102.988 303.159 103.809 303.009 104.571C302.996 104.707 302.941 104.837 302.852 104.942C302.713 105.053 302.539 105.11 302.361 105.103C300.346 105.244 298.88 104.547 296.995 104.063C296.112 103.838 295.081 103.866 294.404 104.466C293.727 105.066 293.622 105.925 293.634 106.75C293.718 107.575 293.744 108.404 293.711 109.232C293.572 110.121 293.139 110.937 292.482 111.551C291.825 112.165 290.981 112.541 290.085 112.62C289.955 112.64 289.821 112.633 289.693 112.601C289.565 112.568 289.445 112.511 289.34 112.431C289.224 112.305 289.139 112.153 289.094 111.988C287.752 108.217 287.765 104.031 286.137 100.373C285.874 99.8515 285.647 99.3131 285.456 98.7614C285.424 98.6486 285.392 98.5317 285.367 98.4149C285.319 98.1823 285.287 97.9468 285.271 97.7099C285.104 97.7337 284.946 97.7988 284.811 97.8992C284.764 97.94 284.72 97.9859 284.683 98.0362C284.452 98.4216 284.335 98.8643 284.344 99.3133C284.043 104.35 284.533 109.403 285.794 114.288C286.179 115.508 286.414 116.77 286.491 118.047C286.447 119.428 286.117 120.784 285.525 122.032C282.999 127.857 277.922 132.124 272.874 135.979C273.393 135.423 273.793 134.768 274.051 134.052C274.309 133.337 274.418 132.577 274.373 131.818C274.286 132.107 274.121 132.367 273.895 132.569C273.67 132.771 273.393 132.907 273.096 132.962C272.499 133.063 271.888 133.054 271.295 132.933C272.068 132.68 272.371 131.769 272.564 130.98C272.959 129.368 273.325 127.742 273.664 126.101C274.024 124.534 274.261 122.942 274.373 121.339C274.433 119.977 274.329 118.611 274.272 117.245C274.153 113.501 274.287 109.752 274.675 106.025C274.973 102.802 275.513 99.3174 277.878 97.1176C278.899 96.2551 280.039 95.5441 281.262 95.0066C281.262 94.6037 284.215 93.7979 284.606 93.7415C284.768 93.71 284.932 93.6911 285.098 93.6851C285.309 93.6545 285.524 93.6914 285.713 93.7905C285.902 93.8896 286.054 94.0459 286.149 94.2371C286.294 93.9752 286.455 93.7174 286.624 93.4716C286.857 93.1334 287.113 92.8117 287.39 92.5087C288.925 90.8166 290.915 89.6241 292.692 88.1899C293.344 87.6049 294.051 87.0841 294.803 86.6348C295.786 86.1403 296.865 85.8654 297.965 85.829C299.784 85.7263 301.604 86.0119 303.304 86.667C305.753 87.6097 307.892 89.3018 310.426 89.9867C311.052 90.1222 311.669 90.293 312.276 90.4984C312.857 90.7284 313.384 91.0775 313.822 91.5233C314.26 91.9691 314.6 92.5017 314.82 93.0869C315.04 93.672 315.136 94.2967 315.1 94.9208C315.064 95.5449 314.898 96.1546 314.612 96.7107L314.596 96.7228Z" fill="#444053"/>
<g opacity="0.1">
<path d="M273.797 132.811C274.091 132.054 274.216 131.243 274.164 130.434C274.076 130.723 273.91 130.984 273.684 131.185C273.458 131.387 273.181 131.523 272.883 131.578C272.729 131.615 272.573 131.638 272.415 131.646C272.214 132.291 271.896 132.911 271.279 133.113C271.873 133.234 272.483 133.245 273.08 133.145C273.339 133.082 273.583 132.968 273.797 132.811Z" fill="black"/>
<path d="M314.886 93.5137C314.856 94.1507 314.691 94.7742 314.403 95.3427C314.25 95.665 314.017 95.9425 313.726 96.1485C312.811 96.7448 311.49 96.0921 310.531 96.6199C309.766 97.0429 309.544 98.0501 308.92 98.6786C308.198 99.4239 307.07 99.5407 306.043 99.6656C305.016 99.7905 303.867 100.068 303.324 100.931C302.921 101.587 302.957 102.413 302.812 103.171C302.809 103.25 302.789 103.328 302.754 103.399C302.719 103.47 302.669 103.533 302.608 103.584C302.546 103.634 302.475 103.671 302.399 103.693C302.322 103.714 302.242 103.718 302.163 103.706C300.149 103.847 298.682 103.151 296.797 102.663C295.911 102.437 294.879 102.466 294.202 103.066C293.59 103.622 293.421 104.52 293.437 105.35C293.521 106.173 293.546 107.001 293.509 107.828C293.375 108.719 292.944 109.538 292.286 110.154C291.628 110.769 290.781 111.145 289.884 111.22C289.753 111.239 289.62 111.232 289.492 111.2C289.364 111.167 289.244 111.11 289.138 111.031C289.022 110.903 288.938 110.75 288.892 110.584C287.551 106.813 287.559 102.627 285.931 98.9727C285.673 98.45 285.447 97.9118 285.254 97.3612C285.152 97.0189 285.088 96.6662 285.065 96.3096C284.834 96.3369 284.623 96.4541 284.477 96.636C284.25 97.0231 284.133 97.4646 284.139 97.9131C283.951 101.142 284.086 104.381 284.541 107.582C284.25 104.888 284.184 102.174 284.344 99.4682C284.334 99.0192 284.452 98.5765 284.682 98.1911C284.753 98.0994 284.841 98.0231 284.943 97.967C285.044 97.9108 285.155 97.876 285.271 97.8648C285.293 98.2211 285.355 98.5738 285.456 98.9163C285.649 99.4673 285.876 100.006 286.137 100.528C287.748 104.186 287.748 108.368 289.094 112.139C289.141 112.305 289.227 112.458 289.344 112.586C289.446 112.671 289.564 112.735 289.691 112.773C289.819 112.811 289.953 112.823 290.085 112.807C290.981 112.728 291.824 112.352 292.482 111.738C293.139 111.124 293.571 110.308 293.711 109.419C293.744 108.591 293.718 107.762 293.634 106.938C293.634 106.108 293.791 105.209 294.404 104.653C295.081 104.041 296.112 104.017 296.994 104.25C298.88 104.734 300.338 105.431 302.361 105.29C302.539 105.297 302.713 105.24 302.852 105.129C302.941 105.022 302.995 104.892 303.009 104.754C303.158 103.997 303.114 103.171 303.521 102.518C304.069 101.636 305.213 101.378 306.24 101.249C307.268 101.12 308.4 101.011 309.121 100.266C309.729 99.6334 309.947 98.6302 310.732 98.2032C311.687 97.6754 313.009 98.3321 313.927 97.7358C314.221 97.5247 314.453 97.2398 314.6 96.9099C315.13 95.8571 315.232 94.6403 314.886 93.5137Z" fill="black"/>
<path d="M286.299 116.675C286.254 118.055 285.927 119.411 285.336 120.66C283.076 125.869 278.773 129.833 274.281 133.366C274.091 134.42 273.605 135.399 272.879 136.186C277.923 132.335 283.007 128.068 285.529 122.243C286.122 120.995 286.451 119.639 286.496 118.258C286.486 117.669 286.418 117.082 286.291 116.506C286.295 116.546 286.299 116.611 286.299 116.675Z" fill="black"/>
</g>
<path opacity="0.1" d="M286.802 93.4668C286.44 95.1347 285.94 97.3022 285.566 98.4182C285.52 98.1853 285.487 97.9498 285.469 97.7131C285.304 97.7371 285.147 97.8022 285.014 97.9025C285.014 96.7301 285.155 94.9856 285.276 93.6803C285.487 93.6494 285.703 93.6861 285.893 93.7852C286.082 93.8843 286.236 94.0408 286.331 94.2323C286.46 93.9744 286.633 93.7166 286.802 93.4668Z" fill="black"/>
<path d="M286.609 93.4668C286.247 95.1347 285.747 97.3022 285.372 98.4182C285.324 98.1856 285.292 97.95 285.276 97.7131C285.109 97.7369 284.951 97.802 284.816 97.9025C284.816 96.7301 284.957 94.9856 285.082 93.6803C285.293 93.6497 285.509 93.6865 285.698 93.7857C285.886 93.8848 286.039 94.0411 286.134 94.2323C286.279 93.9744 286.46 93.7166 286.609 93.4668Z" fill="#67647E"/>
<g opacity="0.7">
<path d="M368.648 3.05078H435.393V67.9705H368.648V3.05078Z" fill="#2E001E"/>
<path d="M365.631 0V71.0032H438.443V0H365.631ZM368.665 3.0377H435.409V67.9695H368.648L368.665 3.0377Z" fill="#FF2BC2"/>
<path d="M418.509 29.8384C417.951 29.6095 417.35 29.505 416.748 29.5322C412.929 29.5322 410.379 32.4772 410.379 37.3601C410.379 42.944 412.989 45.188 416.385 45.188C417.099 45.2095 417.809 45.096 418.48 44.8536V29.8384H418.509ZM404.907 37.6058C404.907 30.5353 409.456 25.0119 416.921 25.0119C417.447 25.0005 417.973 25.022 418.497 25.0764V17.188C418.497 17.1068 418.529 17.0289 418.586 16.9715C418.644 16.9141 418.722 16.8818 418.803 16.8818H423.686C423.927 16.8818 423.988 16.9745 423.988 17.1276V44.8536C423.97 45.847 424.021 46.8405 424.141 47.8269C424.141 48.0404 424.141 48.0726 423.96 48.1612C421.533 49.3175 418.88 49.9189 416.192 49.9218C409.609 49.9218 404.912 45.8568 404.912 37.6058H404.907ZM394.562 32.6907L403.066 49.1523C403.219 49.3941 403.127 49.6358 402.885 49.6358H397.607C397.471 49.6529 397.333 49.6221 397.217 49.5486C397.101 49.4751 397.014 49.3635 396.971 49.2329C395.029 45.2283 393.047 41.0719 391.024 36.7638H390.964C389.143 40.8289 387.141 45.2605 385.199 49.253C385.15 49.3562 385.072 49.4428 384.975 49.5022C384.877 49.5617 384.765 49.5913 384.651 49.5874H379.615C379.313 49.5874 379.284 49.3417 379.434 49.1604L387.745 33.1742L379.708 17.325C379.67 17.2856 379.645 17.2359 379.637 17.1822C379.628 17.1286 379.636 17.0736 379.659 17.0244C379.682 16.9753 379.719 16.9342 379.766 16.9066C379.813 16.879 379.867 16.8661 379.921 16.8697H385.138C385.44 16.8697 385.594 16.9302 385.682 17.2041C387.596 21.2329 389.538 25.2133 391.359 29.2905H391.419C393.176 25.2858 395.118 21.2329 396.971 17.2766C397.12 17.0309 397.213 16.8738 397.515 16.8738H402.402C402.643 16.8738 402.732 17.0551 402.583 17.329L394.574 32.7109L394.562 32.6907Z" fill="#FF2BC2"/>
</g>
<g opacity="0.7">
<path d="M91.9937 29.1934L114.805 73.8362L76.4668 29.1934H91.9937Z" fill="#FE7500"/>
<path d="M137.62 29.1934L114.809 73.8362L153.146 29.1934H137.62Z" fill="#FE7500"/>
<path d="M91.9941 29.1934H137.612L114.805 73.8362L91.9941 29.1934Z" fill="#FDAD00"/>
<path d="M114.805 4.45312L93.195 6.73744L91.9863 29.1938L114.805 4.45312Z" fill="#FDD231"/>
<path d="M114.805 4.45312L136.411 6.73744L137.62 29.1938L114.805 4.45312Z" fill="#FDD231"/>
<path d="M153.147 29.1947L136.42 6.73828L137.629 29.1947H153.147Z" fill="#FDAD00"/>
<path d="M76.4668 29.1947L93.1943 6.73828L91.9856 29.1947H76.4668Z" fill="#FDAD00"/>
<path d="M114.805 4.45312L91.9941 29.1938H137.612L114.805 4.45312Z" fill="#F9E08A"/>
</g>
<defs>
<linearGradient id="paint0_linear_524_2993" x1="68.0276" y1="145.688" x2="177.328" y2="145.688" gradientUnits="userSpaceOnUse">
<stop stop-color="#808080" stop-opacity="0.25"/>
<stop offset="0.54" stop-color="#808080" stop-opacity="0.12"/>
<stop offset="1" stop-color="#808080" stop-opacity="0.1"/>
</linearGradient>
<linearGradient id="paint1_linear_524_2993" x1="316.555" y1="215.186" x2="316.555" y2="85.2176" gradientUnits="userSpaceOnUse">
<stop stop-color="#808080" stop-opacity="0.25"/>
<stop offset="0.54" stop-color="#808080" stop-opacity="0.12"/>
<stop offset="1" stop-color="#808080" stop-opacity="0.1"/>
</linearGradient>
</defs>
</svg>
