<svg width="976" height="175" viewBox="0 0 976 175" fill="none" xmlns="http://www.w3.org/2000/svg">
<path d="M726.514 0H0L77.563 87.1944L0 174.351H726.514L804.077 87.1944L726.514 0Z" fill="#AA0021"/>
<path d="M264.62 103V72.2H276.632C279.331 72.2 281.633 72.6253 283.54 73.476C285.447 74.3267 286.913 75.5587 287.94 77.172C288.967 78.7853 289.48 80.7067 289.48 82.936C289.48 85.1653 288.967 87.0867 287.94 88.7C286.913 90.284 285.447 91.5013 283.54 92.352C281.633 93.2027 279.331 93.628 276.632 93.628H267.04L269.02 91.604V103H264.62ZM285.212 103L277.38 91.824H282.088L290.008 103H285.212ZM269.02 92.044L267.04 89.888H276.5C279.316 89.888 281.443 89.2867 282.88 88.084C284.347 86.852 285.08 85.136 285.08 82.936C285.08 80.736 284.347 79.0347 282.88 77.832C281.443 76.6293 279.316 76.028 276.5 76.028H267.04L269.02 73.828V92.044ZM306.357 103.264C303.863 103.264 301.663 102.751 299.757 101.724C297.879 100.697 296.413 99.2893 295.357 97.5C294.33 95.7107 293.817 93.6573 293.817 91.34C293.817 89.0227 294.315 86.9693 295.313 85.18C296.339 83.3907 297.733 81.9973 299.493 81C301.282 79.9733 303.291 79.46 305.521 79.46C307.779 79.46 309.774 79.9587 311.505 80.956C313.235 81.9533 314.585 83.3613 315.553 85.18C316.55 86.9693 317.049 89.0667 317.049 91.472C317.049 91.648 317.034 91.8533 317.005 92.088C317.005 92.3227 316.99 92.5427 316.961 92.748H297.117V89.712H314.761L313.045 90.768C313.074 89.272 312.766 87.9373 312.121 86.764C311.475 85.5907 310.581 84.6813 309.437 84.036C308.322 83.3613 307.017 83.024 305.521 83.024C304.054 83.024 302.749 83.3613 301.605 84.036C300.461 84.6813 299.566 85.6053 298.921 86.808C298.275 87.9813 297.953 89.3307 297.953 90.856V91.56C297.953 93.1147 298.305 94.508 299.009 95.74C299.742 96.9427 300.754 97.8813 302.045 98.556C303.335 99.2307 304.817 99.568 306.489 99.568C307.867 99.568 309.114 99.3333 310.229 98.864C311.373 98.3947 312.37 97.6907 313.221 96.752L315.553 99.48C314.497 100.712 313.177 101.651 311.593 102.296C310.038 102.941 308.293 103.264 306.357 103.264ZM332.55 103.264C330.291 103.264 328.267 102.765 326.478 101.768C324.718 100.771 323.325 99.3773 322.298 97.588C321.271 95.7987 320.758 93.716 320.758 91.34C320.758 88.964 321.271 86.896 322.298 85.136C323.325 83.3467 324.718 81.9533 326.478 80.956C328.267 79.9587 330.291 79.46 332.55 79.46C334.515 79.46 336.29 79.9 337.874 80.78C339.458 81.66 340.719 82.98 341.658 84.74C342.626 86.5 343.11 88.7 343.11 91.34C343.11 93.98 342.641 96.18 341.702 97.94C340.793 99.7 339.546 101.035 337.962 101.944C336.378 102.824 334.574 103.264 332.55 103.264ZM332.902 99.568C334.369 99.568 335.689 99.2307 336.862 98.556C338.065 97.8813 339.003 96.928 339.678 95.696C340.382 94.4347 340.734 92.9827 340.734 91.34C340.734 89.668 340.382 88.2307 339.678 87.028C339.003 85.796 338.065 84.8427 336.862 84.168C335.689 83.4933 334.369 83.156 332.902 83.156C331.406 83.156 330.071 83.4933 328.898 84.168C327.725 84.8427 326.786 85.796 326.082 87.028C325.378 88.2307 325.026 89.668 325.026 91.34C325.026 92.9827 325.378 94.4347 326.082 95.696C326.786 96.928 327.725 97.8813 328.898 98.556C330.071 99.2307 331.406 99.568 332.902 99.568ZM340.866 103V96.708L341.13 91.296L340.69 85.884V70.352H344.914V103H340.866ZM363.29 103.264C360.797 103.264 358.597 102.751 356.69 101.724C354.813 100.697 353.346 99.2893 352.29 97.5C351.264 95.7107 350.75 93.6573 350.75 91.34C350.75 89.0227 351.249 86.9693 352.246 85.18C353.273 83.3907 354.666 81.9973 356.426 81C358.216 79.9733 360.225 79.46 362.454 79.46C364.713 79.46 366.708 79.9587 368.438 80.956C370.169 81.9533 371.518 83.3613 372.486 85.18C373.484 86.9693 373.982 89.0667 373.982 91.472C373.982 91.648 373.968 91.8533 373.938 92.088C373.938 92.3227 373.924 92.5427 373.894 92.748H354.05V89.712H371.694L369.978 90.768C370.008 89.272 369.7 87.9373 369.054 86.764C368.409 85.5907 367.514 84.6813 366.37 84.036C365.256 83.3613 363.95 83.024 362.454 83.024C360.988 83.024 359.682 83.3613 358.538 84.036C357.394 84.6813 356.5 85.6053 355.854 86.808C355.209 87.9813 354.886 89.3307 354.886 90.856V91.56C354.886 93.1147 355.238 94.508 355.942 95.74C356.676 96.9427 357.688 97.8813 358.978 98.556C360.269 99.2307 361.75 99.568 363.422 99.568C364.801 99.568 366.048 99.3333 367.162 98.864C368.306 98.3947 369.304 97.6907 370.154 96.752L372.486 99.48C371.43 100.712 370.11 101.651 368.526 102.296C366.972 102.941 365.226 103.264 363.29 103.264ZM386.536 103.264C384.6 103.264 382.752 103 380.992 102.472C379.261 101.944 377.897 101.299 376.9 100.536L378.66 97.192C379.657 97.8667 380.889 98.4387 382.356 98.908C383.822 99.3773 385.318 99.612 386.844 99.612C388.809 99.612 390.217 99.3333 391.068 98.776C391.948 98.2187 392.388 97.4413 392.388 96.444C392.388 95.7107 392.124 95.1387 391.596 94.728C391.068 94.3173 390.364 94.0093 389.484 93.804C388.633 93.5987 387.68 93.4227 386.624 93.276C385.568 93.1 384.512 92.8947 383.456 92.66C382.4 92.396 381.432 92.044 380.552 91.604C379.672 91.1347 378.968 90.504 378.44 89.712C377.912 88.8907 377.648 87.8053 377.648 86.456C377.648 85.048 378.044 83.816 378.836 82.76C379.628 81.704 380.742 80.8973 382.18 80.34C383.646 79.7533 385.377 79.46 387.372 79.46C388.897 79.46 390.437 79.6507 391.992 80.032C393.576 80.384 394.866 80.8973 395.864 81.572L394.06 84.916C393.004 84.212 391.904 83.728 390.76 83.464C389.616 83.2 388.472 83.068 387.328 83.068C385.48 83.068 384.101 83.376 383.192 83.992C382.282 84.5787 381.828 85.3413 381.828 86.28C381.828 87.072 382.092 87.688 382.62 88.128C383.177 88.5387 383.881 88.8613 384.732 89.096C385.612 89.3307 386.58 89.536 387.636 89.712C388.692 89.8587 389.748 90.064 390.804 90.328C391.86 90.5627 392.813 90.9 393.664 91.34C394.544 91.78 395.248 92.396 395.776 93.188C396.333 93.98 396.612 95.036 396.612 96.356C396.612 97.764 396.201 98.9813 395.38 100.008C394.558 101.035 393.4 101.841 391.904 102.428C390.408 102.985 388.618 103.264 386.536 103.264ZM401.891 103V79.68H406.115V103H401.891ZM404.003 75.192C403.181 75.192 402.492 74.928 401.935 74.4C401.407 73.872 401.143 73.2267 401.143 72.464C401.143 71.672 401.407 71.012 401.935 70.484C402.492 69.956 403.181 69.692 404.003 69.692C404.824 69.692 405.499 69.956 406.027 70.484C406.584 70.9827 406.863 71.6133 406.863 72.376C406.863 73.168 406.599 73.8427 406.071 74.4C405.543 74.928 404.853 75.192 404.003 75.192ZM424.388 111.8C422.246 111.8 420.164 111.492 418.14 110.876C416.145 110.289 414.517 109.439 413.256 108.324L415.28 105.068C416.365 106.007 417.7 106.74 419.284 107.268C420.868 107.825 422.525 108.104 424.256 108.104C427.013 108.104 429.037 107.459 430.328 106.168C431.618 104.877 432.264 102.912 432.264 100.272V95.344L432.704 90.724L432.484 86.06V79.68H436.488V99.832C436.488 103.939 435.461 106.96 433.408 108.896C431.354 110.832 428.348 111.8 424.388 111.8ZM423.86 102.032C421.601 102.032 419.577 101.563 417.788 100.624C416.028 99.656 414.62 98.3213 413.564 96.62C412.537 94.9187 412.024 92.9533 412.024 90.724C412.024 88.4653 412.537 86.5 413.564 84.828C414.62 83.1267 416.028 81.8067 417.788 80.868C419.577 79.9293 421.601 79.46 423.86 79.46C425.854 79.46 427.673 79.8707 429.316 80.692C430.958 81.484 432.264 82.716 433.232 84.388C434.229 86.06 434.728 88.172 434.728 90.724C434.728 93.2467 434.229 95.344 433.232 97.016C432.264 98.688 430.958 99.9493 429.316 100.8C427.673 101.621 425.854 102.032 423.86 102.032ZM424.344 98.336C425.898 98.336 427.277 98.0133 428.48 97.368C429.682 96.7227 430.621 95.828 431.296 94.684C432 93.54 432.352 92.22 432.352 90.724C432.352 89.228 432 87.908 431.296 86.764C430.621 85.62 429.682 84.74 428.48 84.124C427.277 83.4787 425.898 83.156 424.344 83.156C422.789 83.156 421.396 83.4787 420.164 84.124C418.961 84.74 418.008 85.62 417.304 86.764C416.629 87.908 416.292 89.228 416.292 90.724C416.292 92.22 416.629 93.54 417.304 94.684C418.008 95.828 418.961 96.7227 420.164 97.368C421.396 98.0133 422.789 98.336 424.344 98.336ZM457.011 79.46C458.917 79.46 460.589 79.8267 462.027 80.56C463.493 81.2933 464.637 82.408 465.459 83.904C466.28 85.4 466.691 87.292 466.691 89.58V103H462.467V90.064C462.467 87.8053 461.909 86.104 460.795 84.96C459.709 83.816 458.169 83.244 456.175 83.244C454.679 83.244 453.373 83.5373 452.259 84.124C451.144 84.7107 450.279 85.576 449.663 86.72C449.076 87.864 448.783 89.2867 448.783 90.988V103H444.559V79.68H448.607V85.972L447.947 84.3C448.709 82.7747 449.883 81.5867 451.467 80.736C453.051 79.8853 454.899 79.46 457.011 79.46ZM474.508 103V79.68H478.732V103H474.508ZM476.62 75.192C475.799 75.192 475.109 74.928 474.552 74.4C474.024 73.872 473.76 73.2267 473.76 72.464C473.76 71.672 474.024 71.012 474.552 70.484C475.109 69.956 475.799 69.692 476.62 69.692C477.441 69.692 478.116 69.956 478.644 70.484C479.201 70.9827 479.48 71.6133 479.48 72.376C479.48 73.168 479.216 73.8427 478.688 74.4C478.16 74.928 477.471 75.192 476.62 75.192ZM499.249 79.46C501.156 79.46 502.828 79.8267 504.265 80.56C505.732 81.2933 506.876 82.408 507.697 83.904C508.518 85.4 508.929 87.292 508.929 89.58V103H504.705V90.064C504.705 87.8053 504.148 86.104 503.033 84.96C501.948 83.816 500.408 83.244 498.413 83.244C496.917 83.244 495.612 83.5373 494.497 84.124C493.382 84.7107 492.517 85.576 491.901 86.72C491.314 87.864 491.021 89.2867 491.021 90.988V103H486.797V79.68H490.845V85.972L490.185 84.3C490.948 82.7747 492.121 81.5867 493.705 80.736C495.289 79.8853 497.137 79.46 499.249 79.46ZM526.954 111.8C524.813 111.8 522.73 111.492 520.706 110.876C518.712 110.289 517.084 109.439 515.822 108.324L517.846 105.068C518.932 106.007 520.266 106.74 521.85 107.268C523.434 107.825 525.092 108.104 526.822 108.104C529.58 108.104 531.604 107.459 532.894 106.168C534.185 104.877 534.83 102.912 534.83 100.272V95.344L535.27 90.724L535.05 86.06V79.68H539.054V99.832C539.054 103.939 538.028 106.96 535.974 108.896C533.921 110.832 530.914 111.8 526.954 111.8ZM526.426 102.032C524.168 102.032 522.144 101.563 520.354 100.624C518.594 99.656 517.186 98.3213 516.13 96.62C515.104 94.9187 514.59 92.9533 514.59 90.724C514.59 88.4653 515.104 86.5 516.13 84.828C517.186 83.1267 518.594 81.8067 520.354 80.868C522.144 79.9293 524.168 79.46 526.426 79.46C528.421 79.46 530.24 79.8707 531.882 80.692C533.525 81.484 534.83 82.716 535.798 84.388C536.796 86.06 537.294 88.172 537.294 90.724C537.294 93.2467 536.796 95.344 535.798 97.016C534.83 98.688 533.525 99.9493 531.882 100.8C530.24 101.621 528.421 102.032 526.426 102.032ZM526.91 98.336C528.465 98.336 529.844 98.0133 531.046 97.368C532.249 96.7227 533.188 95.828 533.862 94.684C534.566 93.54 534.918 92.22 534.918 90.724C534.918 89.228 534.566 87.908 533.862 86.764C533.188 85.62 532.249 84.74 531.046 84.124C529.844 83.4787 528.465 83.156 526.91 83.156C525.356 83.156 523.962 83.4787 522.73 84.124C521.528 84.74 520.574 85.62 519.87 86.764C519.196 87.908 518.858 89.228 518.858 90.724C518.858 92.22 519.196 93.54 519.87 94.684C520.574 95.828 521.528 96.7227 522.73 97.368C523.962 98.0133 525.356 98.336 526.91 98.336Z" fill="white"/>
<path d="M900.1 132.039C894.108 132.039 888.238 131.189 882.49 129.488C876.822 127.707 872.045 125.278 868.159 122.201L874.96 109.935C878.036 112.445 881.761 114.469 886.133 116.007C890.505 117.546 895.08 118.315 899.857 118.315C905.525 118.315 909.937 117.181 913.095 114.914C916.253 112.566 917.832 109.409 917.832 105.441C917.832 101.555 916.374 98.478 913.459 96.211C910.545 93.9439 905.849 92.8104 899.371 92.8104H891.598V82.0013L915.888 53.0962L917.953 59.0473H872.288V45.8092H930.22V56.3754L905.93 85.2805L897.671 80.4225H902.407C912.852 80.4225 920.665 82.7705 925.847 87.4666C931.11 92.0817 933.742 98.0327 933.742 105.32C933.742 110.097 932.527 114.509 930.098 118.558C927.669 122.606 923.945 125.885 918.925 128.395C913.986 130.824 907.711 132.039 900.1 132.039Z" fill="#AA0021"/>
<circle cx="903.538" cy="86.8252" r="70.4619" stroke="#AA0021" stroke-width="2.76025"/>
</svg>
