<svg width="976" height="175" viewBox="0 0 976 175" fill="none" xmlns="http://www.w3.org/2000/svg">
<path d="M726.514 0H0L77.563 87.2038L0 174.351H726.514L804.077 87.2038L726.514 0Z" fill="#147F00"/>
<path d="M273.38 103.352C269.332 103.352 266.149 102.193 263.832 99.876C261.515 97.5587 260.356 94.1707 260.356 89.712V72.2H264.756V89.536C264.756 92.968 265.504 95.476 267 97.06C268.525 98.644 270.667 99.436 273.424 99.436C276.211 99.436 278.352 98.644 279.848 97.06C281.373 95.476 282.136 92.968 282.136 89.536V72.2H286.404V89.712C286.404 94.1707 285.245 97.5587 282.928 99.876C280.64 102.193 277.457 103.352 273.38 103.352ZM295.425 103V72.2H299.825V103H295.425ZM320.862 103V72.2H333.842C337.128 72.2 340.017 72.8453 342.51 74.136C345.033 75.4267 346.984 77.2307 348.362 79.548C349.77 81.8653 350.474 84.5493 350.474 87.6C350.474 90.6507 349.77 93.3347 348.362 95.652C346.984 97.9693 345.033 99.7733 342.51 101.064C340.017 102.355 337.128 103 333.842 103H320.862ZM325.262 99.172H333.578C336.13 99.172 338.33 98.688 340.178 97.72C342.056 96.752 343.508 95.4027 344.534 93.672C345.561 91.912 346.074 89.888 346.074 87.6C346.074 85.2827 345.561 83.2587 344.534 81.528C343.508 79.7973 342.056 78.448 340.178 77.48C338.33 76.512 336.13 76.028 333.578 76.028H325.262V99.172ZM366.982 103.264C364.488 103.264 362.288 102.751 360.382 101.724C358.504 100.697 357.038 99.2893 355.982 97.5C354.955 95.7107 354.442 93.6573 354.442 91.34C354.442 89.0227 354.94 86.9693 355.938 85.18C356.964 83.3907 358.358 81.9973 360.118 81C361.907 79.9733 363.916 79.46 366.146 79.46C368.404 79.46 370.399 79.9587 372.13 80.956C373.86 81.9533 375.21 83.3613 376.178 85.18C377.175 86.9693 377.674 89.0667 377.674 91.472C377.674 91.648 377.659 91.8533 377.63 92.088C377.63 92.3227 377.615 92.5427 377.586 92.748H357.742V89.712H375.386L373.67 90.768C373.699 89.272 373.391 87.9373 372.746 86.764C372.1 85.5907 371.206 84.6813 370.062 84.036C368.947 83.3613 367.642 83.024 366.146 83.024C364.679 83.024 363.374 83.3613 362.23 84.036C361.086 84.6813 360.191 85.6053 359.546 86.808C358.9 87.9813 358.578 89.3307 358.578 90.856V91.56C358.578 93.1147 358.93 94.508 359.634 95.74C360.367 96.9427 361.379 97.8813 362.67 98.556C363.96 99.2307 365.442 99.568 367.114 99.568C368.492 99.568 369.739 99.3333 370.854 98.864C371.998 98.3947 372.995 97.6907 373.846 96.752L376.178 99.48C375.122 100.712 373.802 101.651 372.218 102.296C370.663 102.941 368.918 103.264 366.982 103.264ZM390.227 103.264C388.291 103.264 386.443 103 384.683 102.472C382.952 101.944 381.588 101.299 380.591 100.536L382.351 97.192C383.348 97.8667 384.58 98.4387 386.047 98.908C387.514 99.3773 389.01 99.612 390.535 99.612C392.5 99.612 393.908 99.3333 394.759 98.776C395.639 98.2187 396.079 97.4413 396.079 96.444C396.079 95.7107 395.815 95.1387 395.287 94.728C394.759 94.3173 394.055 94.0093 393.175 93.804C392.324 93.5987 391.371 93.4227 390.315 93.276C389.259 93.1 388.203 92.8947 387.147 92.66C386.091 92.396 385.123 92.044 384.243 91.604C383.363 91.1347 382.659 90.504 382.131 89.712C381.603 88.8907 381.339 87.8053 381.339 86.456C381.339 85.048 381.735 83.816 382.527 82.76C383.319 81.704 384.434 80.8973 385.871 80.34C387.338 79.7533 389.068 79.46 391.063 79.46C392.588 79.46 394.128 79.6507 395.683 80.032C397.267 80.384 398.558 80.8973 399.555 81.572L397.751 84.916C396.695 84.212 395.595 83.728 394.451 83.464C393.307 83.2 392.163 83.068 391.019 83.068C389.171 83.068 387.792 83.376 386.883 83.992C385.974 84.5787 385.519 85.3413 385.519 86.28C385.519 87.072 385.783 87.688 386.311 88.128C386.868 88.5387 387.572 88.8613 388.423 89.096C389.303 89.3307 390.271 89.536 391.327 89.712C392.383 89.8587 393.439 90.064 394.495 90.328C395.551 90.5627 396.504 90.9 397.355 91.34C398.235 91.78 398.939 92.396 399.467 93.188C400.024 93.98 400.303 95.036 400.303 96.356C400.303 97.764 399.892 98.9813 399.071 100.008C398.25 101.035 397.091 101.841 395.595 102.428C394.099 102.985 392.31 103.264 390.227 103.264ZM405.582 103V79.68H409.806V103H405.582ZM407.694 75.192C406.873 75.192 406.183 74.928 405.626 74.4C405.098 73.872 404.834 73.2267 404.834 72.464C404.834 71.672 405.098 71.012 405.626 70.484C406.183 69.956 406.873 69.692 407.694 69.692C408.515 69.692 409.19 69.956 409.718 70.484C410.275 70.9827 410.554 71.6133 410.554 72.376C410.554 73.168 410.29 73.8427 409.762 74.4C409.234 74.928 408.545 75.192 407.694 75.192ZM428.079 111.8C425.938 111.8 423.855 111.492 421.831 110.876C419.837 110.289 418.209 109.439 416.947 108.324L418.971 105.068C420.057 106.007 421.391 106.74 422.975 107.268C424.559 107.825 426.217 108.104 427.947 108.104C430.705 108.104 432.729 107.459 434.019 106.168C435.31 104.877 435.955 102.912 435.955 100.272V95.344L436.395 90.724L436.175 86.06V79.68H440.179V99.832C440.179 103.939 439.153 106.96 437.099 108.896C435.046 110.832 432.039 111.8 428.079 111.8ZM427.551 102.032C425.293 102.032 423.269 101.563 421.479 100.624C419.719 99.656 418.311 98.3213 417.255 96.62C416.229 94.9187 415.715 92.9533 415.715 90.724C415.715 88.4653 416.229 86.5 417.255 84.828C418.311 83.1267 419.719 81.8067 421.479 80.868C423.269 79.9293 425.293 79.46 427.551 79.46C429.546 79.46 431.365 79.8707 433.007 80.692C434.65 81.484 435.955 82.716 436.923 84.388C437.921 86.06 438.419 88.172 438.419 90.724C438.419 93.2467 437.921 95.344 436.923 97.016C435.955 98.688 434.65 99.9493 433.007 100.8C431.365 101.621 429.546 102.032 427.551 102.032ZM428.035 98.336C429.59 98.336 430.969 98.0133 432.171 97.368C433.374 96.7227 434.313 95.828 434.987 94.684C435.691 93.54 436.043 92.22 436.043 90.724C436.043 89.228 435.691 87.908 434.987 86.764C434.313 85.62 433.374 84.74 432.171 84.124C430.969 83.4787 429.59 83.156 428.035 83.156C426.481 83.156 425.087 83.4787 423.855 84.124C422.653 84.74 421.699 85.62 420.995 86.764C420.321 87.908 419.983 89.228 419.983 90.724C419.983 92.22 420.321 93.54 420.995 94.684C421.699 95.828 422.653 96.7227 423.855 97.368C425.087 98.0133 426.481 98.336 428.035 98.336ZM460.702 79.46C462.609 79.46 464.281 79.8267 465.718 80.56C467.185 81.2933 468.329 82.408 469.15 83.904C469.971 85.4 470.382 87.292 470.382 89.58V103H466.158V90.064C466.158 87.8053 465.601 86.104 464.486 84.96C463.401 83.816 461.861 83.244 459.866 83.244C458.37 83.244 457.065 83.5373 455.95 84.124C454.835 84.7107 453.97 85.576 453.354 86.72C452.767 87.864 452.474 89.2867 452.474 90.988V103H448.25V79.68H452.298V85.972L451.638 84.3C452.401 82.7747 453.574 81.5867 455.158 80.736C456.742 79.8853 458.59 79.46 460.702 79.46ZM478.199 103V79.68H482.423V103H478.199ZM480.311 75.192C479.49 75.192 478.801 74.928 478.243 74.4C477.715 73.872 477.451 73.2267 477.451 72.464C477.451 71.672 477.715 71.012 478.243 70.484C478.801 69.956 479.49 69.692 480.311 69.692C481.133 69.692 481.807 69.956 482.335 70.484C482.893 70.9827 483.171 71.6133 483.171 72.376C483.171 73.168 482.907 73.8427 482.379 74.4C481.851 74.928 481.162 75.192 480.311 75.192ZM502.94 79.46C504.847 79.46 506.519 79.8267 507.956 80.56C509.423 81.2933 510.567 82.408 511.388 83.904C512.21 85.4 512.62 87.292 512.62 89.58V103H508.396V90.064C508.396 87.8053 507.839 86.104 506.724 84.96C505.639 83.816 504.099 83.244 502.104 83.244C500.608 83.244 499.303 83.5373 498.188 84.124C497.074 84.7107 496.208 85.576 495.592 86.72C495.006 87.864 494.712 89.2867 494.712 90.988V103H490.488V79.68H494.536V85.972L493.876 84.3C494.639 82.7747 495.812 81.5867 497.396 80.736C498.98 79.8853 500.828 79.46 502.94 79.46ZM530.646 111.8C528.504 111.8 526.422 111.492 524.398 110.876C522.403 110.289 520.775 109.439 519.514 108.324L521.538 105.068C522.623 106.007 523.958 106.74 525.542 107.268C527.126 107.825 528.783 108.104 530.514 108.104C533.271 108.104 535.295 107.459 536.586 106.168C537.876 104.877 538.522 102.912 538.522 100.272V95.344L538.962 90.724L538.742 86.06V79.68H542.746V99.832C542.746 103.939 541.719 106.96 539.666 108.896C537.612 110.832 534.606 111.8 530.646 111.8ZM530.118 102.032C527.859 102.032 525.835 101.563 524.046 100.624C522.286 99.656 520.878 98.3213 519.822 96.62C518.795 94.9187 518.282 92.9533 518.282 90.724C518.282 88.4653 518.795 86.5 519.822 84.828C520.878 83.1267 522.286 81.8067 524.046 80.868C525.835 79.9293 527.859 79.46 530.118 79.46C532.112 79.46 533.931 79.8707 535.574 80.692C537.216 81.484 538.522 82.716 539.49 84.388C540.487 86.06 540.986 88.172 540.986 90.724C540.986 93.2467 540.487 95.344 539.49 97.016C538.522 98.688 537.216 99.9493 535.574 100.8C533.931 101.621 532.112 102.032 530.118 102.032ZM530.602 98.336C532.156 98.336 533.535 98.0133 534.738 97.368C535.94 96.7227 536.879 95.828 537.554 94.684C538.258 93.54 538.61 92.22 538.61 90.724C538.61 89.228 538.258 87.908 537.554 86.764C536.879 85.62 535.94 84.74 534.738 84.124C533.535 83.4787 532.156 83.156 530.602 83.156C529.047 83.156 527.654 83.4787 526.422 84.124C525.219 84.74 524.266 85.62 523.562 86.764C522.887 87.908 522.55 89.228 522.55 90.724C522.55 92.22 522.887 93.54 523.562 94.684C524.266 95.828 525.219 96.7227 526.422 97.368C527.654 98.0133 529.047 98.336 530.602 98.336Z" fill="white"/>
<path d="M899.023 131V52.0568L905.945 59.2224H881.048V45.9842H914.811V131H899.023Z" fill="#147F00"/>
<circle cx="903.538" cy="87.5264" r="70.4619" stroke="#147F00" stroke-width="2.76025"/>
</svg>
