<svg width="978" height="1161" viewBox="0 0 978 1161" fill="none" xmlns="http://www.w3.org/2000/svg">
<path d="M728.514 0H2L79.563 87.2038L2 174.351H728.514L806.077 87.2038L728.514 0Z" fill="#147F00"/>
<path d="M275.38 103.352C271.332 103.352 268.149 102.193 265.832 99.876C263.515 97.5587 262.356 94.1707 262.356 89.712V72.2H266.756V89.536C266.756 92.968 267.504 95.476 269 97.06C270.525 98.644 272.667 99.436 275.424 99.436C278.211 99.436 280.352 98.644 281.848 97.06C283.373 95.476 284.136 92.968 284.136 89.536V72.2H288.404V89.712C288.404 94.1707 287.245 97.5587 284.928 99.876C282.64 102.193 279.457 103.352 275.38 103.352ZM297.425 103V72.2H301.825V103H297.425ZM322.862 103V72.2H335.842C339.128 72.2 342.017 72.8453 344.51 74.136C347.033 75.4267 348.984 77.2307 350.362 79.548C351.77 81.8653 352.474 84.5493 352.474 87.6C352.474 90.6507 351.77 93.3347 350.362 95.652C348.984 97.9693 347.033 99.7733 344.51 101.064C342.017 102.355 339.128 103 335.842 103H322.862ZM327.262 99.172H335.578C338.13 99.172 340.33 98.688 342.178 97.72C344.056 96.752 345.508 95.4027 346.534 93.672C347.561 91.912 348.074 89.888 348.074 87.6C348.074 85.2827 347.561 83.2587 346.534 81.528C345.508 79.7973 344.056 78.448 342.178 77.48C340.33 76.512 338.13 76.028 335.578 76.028H327.262V99.172ZM368.982 103.264C366.488 103.264 364.288 102.751 362.382 101.724C360.504 100.697 359.038 99.2893 357.982 97.5C356.955 95.7107 356.442 93.6573 356.442 91.34C356.442 89.0227 356.94 86.9693 357.938 85.18C358.964 83.3907 360.358 81.9973 362.118 81C363.907 79.9733 365.916 79.46 368.146 79.46C370.404 79.46 372.399 79.9587 374.13 80.956C375.86 81.9533 377.21 83.3613 378.178 85.18C379.175 86.9693 379.674 89.0667 379.674 91.472C379.674 91.648 379.659 91.8533 379.63 92.088C379.63 92.3227 379.615 92.5427 379.586 92.748H359.742V89.712H377.386L375.67 90.768C375.699 89.272 375.391 87.9373 374.746 86.764C374.1 85.5907 373.206 84.6813 372.062 84.036C370.947 83.3613 369.642 83.024 368.146 83.024C366.679 83.024 365.374 83.3613 364.23 84.036C363.086 84.6813 362.191 85.6053 361.546 86.808C360.9 87.9813 360.578 89.3307 360.578 90.856V91.56C360.578 93.1147 360.93 94.508 361.634 95.74C362.367 96.9427 363.379 97.8813 364.67 98.556C365.96 99.2307 367.442 99.568 369.114 99.568C370.492 99.568 371.739 99.3333 372.854 98.864C373.998 98.3947 374.995 97.6907 375.846 96.752L378.178 99.48C377.122 100.712 375.802 101.651 374.218 102.296C372.663 102.941 370.918 103.264 368.982 103.264ZM392.227 103.264C390.291 103.264 388.443 103 386.683 102.472C384.952 101.944 383.588 101.299 382.591 100.536L384.351 97.192C385.348 97.8667 386.58 98.4387 388.047 98.908C389.514 99.3773 391.01 99.612 392.535 99.612C394.5 99.612 395.908 99.3333 396.759 98.776C397.639 98.2187 398.079 97.4413 398.079 96.444C398.079 95.7107 397.815 95.1387 397.287 94.728C396.759 94.3173 396.055 94.0093 395.175 93.804C394.324 93.5987 393.371 93.4227 392.315 93.276C391.259 93.1 390.203 92.8947 389.147 92.66C388.091 92.396 387.123 92.044 386.243 91.604C385.363 91.1347 384.659 90.504 384.131 89.712C383.603 88.8907 383.339 87.8053 383.339 86.456C383.339 85.048 383.735 83.816 384.527 82.76C385.319 81.704 386.434 80.8973 387.871 80.34C389.338 79.7533 391.068 79.46 393.063 79.46C394.588 79.46 396.128 79.6507 397.683 80.032C399.267 80.384 400.558 80.8973 401.555 81.572L399.751 84.916C398.695 84.212 397.595 83.728 396.451 83.464C395.307 83.2 394.163 83.068 393.019 83.068C391.171 83.068 389.792 83.376 388.883 83.992C387.974 84.5787 387.519 85.3413 387.519 86.28C387.519 87.072 387.783 87.688 388.311 88.128C388.868 88.5387 389.572 88.8613 390.423 89.096C391.303 89.3307 392.271 89.536 393.327 89.712C394.383 89.8587 395.439 90.064 396.495 90.328C397.551 90.5627 398.504 90.9 399.355 91.34C400.235 91.78 400.939 92.396 401.467 93.188C402.024 93.98 402.303 95.036 402.303 96.356C402.303 97.764 401.892 98.9813 401.071 100.008C400.25 101.035 399.091 101.841 397.595 102.428C396.099 102.985 394.31 103.264 392.227 103.264ZM407.582 103V79.68H411.806V103H407.582ZM409.694 75.192C408.873 75.192 408.183 74.928 407.626 74.4C407.098 73.872 406.834 73.2267 406.834 72.464C406.834 71.672 407.098 71.012 407.626 70.484C408.183 69.956 408.873 69.692 409.694 69.692C410.515 69.692 411.19 69.956 411.718 70.484C412.275 70.9827 412.554 71.6133 412.554 72.376C412.554 73.168 412.29 73.8427 411.762 74.4C411.234 74.928 410.545 75.192 409.694 75.192ZM430.079 111.8C427.938 111.8 425.855 111.492 423.831 110.876C421.837 110.289 420.209 109.439 418.947 108.324L420.971 105.068C422.057 106.007 423.391 106.74 424.975 107.268C426.559 107.825 428.217 108.104 429.947 108.104C432.705 108.104 434.729 107.459 436.019 106.168C437.31 104.877 437.955 102.912 437.955 100.272V95.344L438.395 90.724L438.175 86.06V79.68H442.179V99.832C442.179 103.939 441.153 106.96 439.099 108.896C437.046 110.832 434.039 111.8 430.079 111.8ZM429.551 102.032C427.293 102.032 425.269 101.563 423.479 100.624C421.719 99.656 420.311 98.3213 419.255 96.62C418.229 94.9187 417.715 92.9533 417.715 90.724C417.715 88.4653 418.229 86.5 419.255 84.828C420.311 83.1267 421.719 81.8067 423.479 80.868C425.269 79.9293 427.293 79.46 429.551 79.46C431.546 79.46 433.365 79.8707 435.007 80.692C436.65 81.484 437.955 82.716 438.923 84.388C439.921 86.06 440.419 88.172 440.419 90.724C440.419 93.2467 439.921 95.344 438.923 97.016C437.955 98.688 436.65 99.9493 435.007 100.8C433.365 101.621 431.546 102.032 429.551 102.032ZM430.035 98.336C431.59 98.336 432.969 98.0133 434.171 97.368C435.374 96.7227 436.313 95.828 436.987 94.684C437.691 93.54 438.043 92.22 438.043 90.724C438.043 89.228 437.691 87.908 436.987 86.764C436.313 85.62 435.374 84.74 434.171 84.124C432.969 83.4787 431.59 83.156 430.035 83.156C428.481 83.156 427.087 83.4787 425.855 84.124C424.653 84.74 423.699 85.62 422.995 86.764C422.321 87.908 421.983 89.228 421.983 90.724C421.983 92.22 422.321 93.54 422.995 94.684C423.699 95.828 424.653 96.7227 425.855 97.368C427.087 98.0133 428.481 98.336 430.035 98.336ZM462.702 79.46C464.609 79.46 466.281 79.8267 467.718 80.56C469.185 81.2933 470.329 82.408 471.15 83.904C471.971 85.4 472.382 87.292 472.382 89.58V103H468.158V90.064C468.158 87.8053 467.601 86.104 466.486 84.96C465.401 83.816 463.861 83.244 461.866 83.244C460.37 83.244 459.065 83.5373 457.95 84.124C456.835 84.7107 455.97 85.576 455.354 86.72C454.767 87.864 454.474 89.2867 454.474 90.988V103H450.25V79.68H454.298V85.972L453.638 84.3C454.401 82.7747 455.574 81.5867 457.158 80.736C458.742 79.8853 460.59 79.46 462.702 79.46ZM480.199 103V79.68H484.423V103H480.199ZM482.311 75.192C481.49 75.192 480.801 74.928 480.243 74.4C479.715 73.872 479.451 73.2267 479.451 72.464C479.451 71.672 479.715 71.012 480.243 70.484C480.801 69.956 481.49 69.692 482.311 69.692C483.133 69.692 483.807 69.956 484.335 70.484C484.893 70.9827 485.171 71.6133 485.171 72.376C485.171 73.168 484.907 73.8427 484.379 74.4C483.851 74.928 483.162 75.192 482.311 75.192ZM504.94 79.46C506.847 79.46 508.519 79.8267 509.956 80.56C511.423 81.2933 512.567 82.408 513.388 83.904C514.21 85.4 514.62 87.292 514.62 89.58V103H510.396V90.064C510.396 87.8053 509.839 86.104 508.724 84.96C507.639 83.816 506.099 83.244 504.104 83.244C502.608 83.244 501.303 83.5373 500.188 84.124C499.074 84.7107 498.208 85.576 497.592 86.72C497.006 87.864 496.712 89.2867 496.712 90.988V103H492.488V79.68H496.536V85.972L495.876 84.3C496.639 82.7747 497.812 81.5867 499.396 80.736C500.98 79.8853 502.828 79.46 504.94 79.46ZM532.646 111.8C530.504 111.8 528.422 111.492 526.398 110.876C524.403 110.289 522.775 109.439 521.514 108.324L523.538 105.068C524.623 106.007 525.958 106.74 527.542 107.268C529.126 107.825 530.783 108.104 532.514 108.104C535.271 108.104 537.295 107.459 538.586 106.168C539.876 104.877 540.522 102.912 540.522 100.272V95.344L540.962 90.724L540.742 86.06V79.68H544.746V99.832C544.746 103.939 543.719 106.96 541.666 108.896C539.612 110.832 536.606 111.8 532.646 111.8ZM532.118 102.032C529.859 102.032 527.835 101.563 526.046 100.624C524.286 99.656 522.878 98.3213 521.822 96.62C520.795 94.9187 520.282 92.9533 520.282 90.724C520.282 88.4653 520.795 86.5 521.822 84.828C522.878 83.1267 524.286 81.8067 526.046 80.868C527.835 79.9293 529.859 79.46 532.118 79.46C534.112 79.46 535.931 79.8707 537.574 80.692C539.216 81.484 540.522 82.716 541.49 84.388C542.487 86.06 542.986 88.172 542.986 90.724C542.986 93.2467 542.487 95.344 541.49 97.016C540.522 98.688 539.216 99.9493 537.574 100.8C535.931 101.621 534.112 102.032 532.118 102.032ZM532.602 98.336C534.156 98.336 535.535 98.0133 536.738 97.368C537.94 96.7227 538.879 95.828 539.554 94.684C540.258 93.54 540.61 92.22 540.61 90.724C540.61 89.228 540.258 87.908 539.554 86.764C538.879 85.62 537.94 84.74 536.738 84.124C535.535 83.4787 534.156 83.156 532.602 83.156C531.047 83.156 529.654 83.4787 528.422 84.124C527.219 84.74 526.266 85.62 525.562 86.764C524.887 87.908 524.55 89.228 524.55 90.724C524.55 92.22 524.887 93.54 525.562 94.684C526.266 95.828 527.219 96.7227 528.422 97.368C529.654 98.0133 531.047 98.336 532.602 98.336Z" fill="white"/>
<path d="M901.023 131V52.0568L907.945 59.2224H883.048V45.9842H916.811V131H901.023Z" fill="#147F00"/>
<circle cx="905.538" cy="87.5264" r="70.4619" stroke="#147F00" stroke-width="2.76025"/>
<path d="M728.514 494H2L79.563 581.194L2 668.351H728.514L806.077 581.194L728.514 494Z" fill="#AA0021"/>
<path d="M266.62 597V566.2H278.632C281.331 566.2 283.633 566.625 285.54 567.476C287.447 568.327 288.913 569.559 289.94 571.172C290.967 572.785 291.48 574.707 291.48 576.936C291.48 579.165 290.967 581.087 289.94 582.7C288.913 584.284 287.447 585.501 285.54 586.352C283.633 587.203 281.331 587.628 278.632 587.628H269.04L271.02 585.604V597H266.62ZM287.212 597L279.38 585.824H284.088L292.008 597H287.212ZM271.02 586.044L269.04 583.888H278.5C281.316 583.888 283.443 583.287 284.88 582.084C286.347 580.852 287.08 579.136 287.08 576.936C287.08 574.736 286.347 573.035 284.88 571.832C283.443 570.629 281.316 570.028 278.5 570.028H269.04L271.02 567.828V586.044ZM308.357 597.264C305.863 597.264 303.663 596.751 301.757 595.724C299.879 594.697 298.413 593.289 297.357 591.5C296.33 589.711 295.817 587.657 295.817 585.34C295.817 583.023 296.315 580.969 297.313 579.18C298.339 577.391 299.733 575.997 301.493 575C303.282 573.973 305.291 573.46 307.521 573.46C309.779 573.46 311.774 573.959 313.505 574.956C315.235 575.953 316.585 577.361 317.553 579.18C318.55 580.969 319.049 583.067 319.049 585.472C319.049 585.648 319.034 585.853 319.005 586.088C319.005 586.323 318.99 586.543 318.961 586.748H299.117V583.712H316.761L315.045 584.768C315.074 583.272 314.766 581.937 314.121 580.764C313.475 579.591 312.581 578.681 311.437 578.036C310.322 577.361 309.017 577.024 307.521 577.024C306.054 577.024 304.749 577.361 303.605 578.036C302.461 578.681 301.566 579.605 300.921 580.808C300.275 581.981 299.953 583.331 299.953 584.856V585.56C299.953 587.115 300.305 588.508 301.009 589.74C301.742 590.943 302.754 591.881 304.045 592.556C305.335 593.231 306.817 593.568 308.489 593.568C309.867 593.568 311.114 593.333 312.229 592.864C313.373 592.395 314.37 591.691 315.221 590.752L317.553 593.48C316.497 594.712 315.177 595.651 313.593 596.296C312.038 596.941 310.293 597.264 308.357 597.264ZM334.55 597.264C332.291 597.264 330.267 596.765 328.478 595.768C326.718 594.771 325.325 593.377 324.298 591.588C323.271 589.799 322.758 587.716 322.758 585.34C322.758 582.964 323.271 580.896 324.298 579.136C325.325 577.347 326.718 575.953 328.478 574.956C330.267 573.959 332.291 573.46 334.55 573.46C336.515 573.46 338.29 573.9 339.874 574.78C341.458 575.66 342.719 576.98 343.658 578.74C344.626 580.5 345.11 582.7 345.11 585.34C345.11 587.98 344.641 590.18 343.702 591.94C342.793 593.7 341.546 595.035 339.962 595.944C338.378 596.824 336.574 597.264 334.55 597.264ZM334.902 593.568C336.369 593.568 337.689 593.231 338.862 592.556C340.065 591.881 341.003 590.928 341.678 589.696C342.382 588.435 342.734 586.983 342.734 585.34C342.734 583.668 342.382 582.231 341.678 581.028C341.003 579.796 340.065 578.843 338.862 578.168C337.689 577.493 336.369 577.156 334.902 577.156C333.406 577.156 332.071 577.493 330.898 578.168C329.725 578.843 328.786 579.796 328.082 581.028C327.378 582.231 327.026 583.668 327.026 585.34C327.026 586.983 327.378 588.435 328.082 589.696C328.786 590.928 329.725 591.881 330.898 592.556C332.071 593.231 333.406 593.568 334.902 593.568ZM342.866 597V590.708L343.13 585.296L342.69 579.884V564.352H346.914V597H342.866ZM365.29 597.264C362.797 597.264 360.597 596.751 358.69 595.724C356.813 594.697 355.346 593.289 354.29 591.5C353.264 589.711 352.75 587.657 352.75 585.34C352.75 583.023 353.249 580.969 354.246 579.18C355.273 577.391 356.666 575.997 358.426 575C360.216 573.973 362.225 573.46 364.454 573.46C366.713 573.46 368.708 573.959 370.438 574.956C372.169 575.953 373.518 577.361 374.486 579.18C375.484 580.969 375.982 583.067 375.982 585.472C375.982 585.648 375.968 585.853 375.938 586.088C375.938 586.323 375.924 586.543 375.894 586.748H356.05V583.712H373.694L371.978 584.768C372.008 583.272 371.7 581.937 371.054 580.764C370.409 579.591 369.514 578.681 368.37 578.036C367.256 577.361 365.95 577.024 364.454 577.024C362.988 577.024 361.682 577.361 360.538 578.036C359.394 578.681 358.5 579.605 357.854 580.808C357.209 581.981 356.886 583.331 356.886 584.856V585.56C356.886 587.115 357.238 588.508 357.942 589.74C358.676 590.943 359.688 591.881 360.978 592.556C362.269 593.231 363.75 593.568 365.422 593.568C366.801 593.568 368.048 593.333 369.162 592.864C370.306 592.395 371.304 591.691 372.154 590.752L374.486 593.48C373.43 594.712 372.11 595.651 370.526 596.296C368.972 596.941 367.226 597.264 365.29 597.264ZM388.536 597.264C386.6 597.264 384.752 597 382.992 596.472C381.261 595.944 379.897 595.299 378.9 594.536L380.66 591.192C381.657 591.867 382.889 592.439 384.356 592.908C385.822 593.377 387.318 593.612 388.844 593.612C390.809 593.612 392.217 593.333 393.068 592.776C393.948 592.219 394.388 591.441 394.388 590.444C394.388 589.711 394.124 589.139 393.596 588.728C393.068 588.317 392.364 588.009 391.484 587.804C390.633 587.599 389.68 587.423 388.624 587.276C387.568 587.1 386.512 586.895 385.456 586.66C384.4 586.396 383.432 586.044 382.552 585.604C381.672 585.135 380.968 584.504 380.44 583.712C379.912 582.891 379.648 581.805 379.648 580.456C379.648 579.048 380.044 577.816 380.836 576.76C381.628 575.704 382.742 574.897 384.18 574.34C385.646 573.753 387.377 573.46 389.372 573.46C390.897 573.46 392.437 573.651 393.992 574.032C395.576 574.384 396.866 574.897 397.864 575.572L396.06 578.916C395.004 578.212 393.904 577.728 392.76 577.464C391.616 577.2 390.472 577.068 389.328 577.068C387.48 577.068 386.101 577.376 385.192 577.992C384.282 578.579 383.828 579.341 383.828 580.28C383.828 581.072 384.092 581.688 384.62 582.128C385.177 582.539 385.881 582.861 386.732 583.096C387.612 583.331 388.58 583.536 389.636 583.712C390.692 583.859 391.748 584.064 392.804 584.328C393.86 584.563 394.813 584.9 395.664 585.34C396.544 585.78 397.248 586.396 397.776 587.188C398.333 587.98 398.612 589.036 398.612 590.356C398.612 591.764 398.201 592.981 397.38 594.008C396.558 595.035 395.4 595.841 393.904 596.428C392.408 596.985 390.618 597.264 388.536 597.264ZM403.891 597V573.68H408.115V597H403.891ZM406.003 569.192C405.181 569.192 404.492 568.928 403.935 568.4C403.407 567.872 403.143 567.227 403.143 566.464C403.143 565.672 403.407 565.012 403.935 564.484C404.492 563.956 405.181 563.692 406.003 563.692C406.824 563.692 407.499 563.956 408.027 564.484C408.584 564.983 408.863 565.613 408.863 566.376C408.863 567.168 408.599 567.843 408.071 568.4C407.543 568.928 406.853 569.192 406.003 569.192ZM426.388 605.8C424.246 605.8 422.164 605.492 420.14 604.876C418.145 604.289 416.517 603.439 415.256 602.324L417.28 599.068C418.365 600.007 419.7 600.74 421.284 601.268C422.868 601.825 424.525 602.104 426.256 602.104C429.013 602.104 431.037 601.459 432.328 600.168C433.618 598.877 434.264 596.912 434.264 594.272V589.344L434.704 584.724L434.484 580.06V573.68H438.488V593.832C438.488 597.939 437.461 600.96 435.408 602.896C433.354 604.832 430.348 605.8 426.388 605.8ZM425.86 596.032C423.601 596.032 421.577 595.563 419.788 594.624C418.028 593.656 416.62 592.321 415.564 590.62C414.537 588.919 414.024 586.953 414.024 584.724C414.024 582.465 414.537 580.5 415.564 578.828C416.62 577.127 418.028 575.807 419.788 574.868C421.577 573.929 423.601 573.46 425.86 573.46C427.854 573.46 429.673 573.871 431.316 574.692C432.958 575.484 434.264 576.716 435.232 578.388C436.229 580.06 436.728 582.172 436.728 584.724C436.728 587.247 436.229 589.344 435.232 591.016C434.264 592.688 432.958 593.949 431.316 594.8C429.673 595.621 427.854 596.032 425.86 596.032ZM426.344 592.336C427.898 592.336 429.277 592.013 430.48 591.368C431.682 590.723 432.621 589.828 433.296 588.684C434 587.54 434.352 586.22 434.352 584.724C434.352 583.228 434 581.908 433.296 580.764C432.621 579.62 431.682 578.74 430.48 578.124C429.277 577.479 427.898 577.156 426.344 577.156C424.789 577.156 423.396 577.479 422.164 578.124C420.961 578.74 420.008 579.62 419.304 580.764C418.629 581.908 418.292 583.228 418.292 584.724C418.292 586.22 418.629 587.54 419.304 588.684C420.008 589.828 420.961 590.723 422.164 591.368C423.396 592.013 424.789 592.336 426.344 592.336ZM459.011 573.46C460.917 573.46 462.589 573.827 464.027 574.56C465.493 575.293 466.637 576.408 467.459 577.904C468.28 579.4 468.691 581.292 468.691 583.58V597H464.467V584.064C464.467 581.805 463.909 580.104 462.795 578.96C461.709 577.816 460.169 577.244 458.175 577.244C456.679 577.244 455.373 577.537 454.259 578.124C453.144 578.711 452.279 579.576 451.663 580.72C451.076 581.864 450.783 583.287 450.783 584.988V597H446.559V573.68H450.607V579.972L449.947 578.3C450.709 576.775 451.883 575.587 453.467 574.736C455.051 573.885 456.899 573.46 459.011 573.46ZM476.508 597V573.68H480.732V597H476.508ZM478.62 569.192C477.799 569.192 477.109 568.928 476.552 568.4C476.024 567.872 475.76 567.227 475.76 566.464C475.76 565.672 476.024 565.012 476.552 564.484C477.109 563.956 477.799 563.692 478.62 563.692C479.441 563.692 480.116 563.956 480.644 564.484C481.201 564.983 481.48 565.613 481.48 566.376C481.48 567.168 481.216 567.843 480.688 568.4C480.16 568.928 479.471 569.192 478.62 569.192ZM501.249 573.46C503.156 573.46 504.828 573.827 506.265 574.56C507.732 575.293 508.876 576.408 509.697 577.904C510.518 579.4 510.929 581.292 510.929 583.58V597H506.705V584.064C506.705 581.805 506.148 580.104 505.033 578.96C503.948 577.816 502.408 577.244 500.413 577.244C498.917 577.244 497.612 577.537 496.497 578.124C495.382 578.711 494.517 579.576 493.901 580.72C493.314 581.864 493.021 583.287 493.021 584.988V597H488.797V573.68H492.845V579.972L492.185 578.3C492.948 576.775 494.121 575.587 495.705 574.736C497.289 573.885 499.137 573.46 501.249 573.46ZM528.954 605.8C526.813 605.8 524.73 605.492 522.706 604.876C520.712 604.289 519.084 603.439 517.822 602.324L519.846 599.068C520.932 600.007 522.266 600.74 523.85 601.268C525.434 601.825 527.092 602.104 528.822 602.104C531.58 602.104 533.604 601.459 534.894 600.168C536.185 598.877 536.83 596.912 536.83 594.272V589.344L537.27 584.724L537.05 580.06V573.68H541.054V593.832C541.054 597.939 540.028 600.96 537.974 602.896C535.921 604.832 532.914 605.8 528.954 605.8ZM528.426 596.032C526.168 596.032 524.144 595.563 522.354 594.624C520.594 593.656 519.186 592.321 518.13 590.62C517.104 588.919 516.59 586.953 516.59 584.724C516.59 582.465 517.104 580.5 518.13 578.828C519.186 577.127 520.594 575.807 522.354 574.868C524.144 573.929 526.168 573.46 528.426 573.46C530.421 573.46 532.24 573.871 533.882 574.692C535.525 575.484 536.83 576.716 537.798 578.388C538.796 580.06 539.294 582.172 539.294 584.724C539.294 587.247 538.796 589.344 537.798 591.016C536.83 592.688 535.525 593.949 533.882 594.8C532.24 595.621 530.421 596.032 528.426 596.032ZM528.91 592.336C530.465 592.336 531.844 592.013 533.046 591.368C534.249 590.723 535.188 589.828 535.862 588.684C536.566 587.54 536.918 586.22 536.918 584.724C536.918 583.228 536.566 581.908 535.862 580.764C535.188 579.62 534.249 578.74 533.046 578.124C531.844 577.479 530.465 577.156 528.91 577.156C527.356 577.156 525.962 577.479 524.73 578.124C523.528 578.74 522.574 579.62 521.87 580.764C521.196 581.908 520.858 583.228 520.858 584.724C520.858 586.22 521.196 587.54 521.87 588.684C522.574 589.828 523.528 590.723 524.73 591.368C525.962 592.013 527.356 592.336 528.91 592.336Z" fill="white"/>
<path d="M902.1 626.039C896.108 626.039 890.238 625.189 884.49 623.488C878.822 621.707 874.045 619.278 870.159 616.201L876.96 603.935C880.036 606.445 883.761 608.469 888.133 610.007C892.505 611.546 897.08 612.315 901.857 612.315C907.525 612.315 911.937 611.181 915.095 608.914C918.253 606.566 919.832 603.409 919.832 599.441C919.832 595.555 918.374 592.478 915.459 590.211C912.545 587.944 907.849 586.81 901.371 586.81H893.598V576.001L917.888 547.096L919.953 553.047H874.288V539.809H932.22V550.375L907.93 579.28L899.671 574.422H904.407C914.852 574.422 922.665 576.771 927.847 581.467C933.11 586.082 935.742 592.033 935.742 599.32C935.742 604.097 934.527 608.509 932.098 612.558C929.669 616.606 925.945 619.885 920.925 622.395C915.986 624.824 909.711 626.039 902.1 626.039Z" fill="#AA0021"/>
<circle cx="905.538" cy="580.825" r="70.4619" stroke="#AA0021" stroke-width="2.76025"/>
<path d="M728.514 986.055H2L79.563 1073.25L2 1160.41H728.514L806.077 1073.25L728.514 986.055Z" fill="#47175A"/>
<path d="M203.061 1089.58C200.685 1089.58 198.5 1089.2 196.505 1088.44C194.51 1087.65 192.78 1086.55 191.313 1085.14C189.846 1083.7 188.702 1082.03 187.881 1080.12C187.06 1078.22 186.649 1076.12 186.649 1073.83C186.649 1071.54 187.06 1069.45 187.881 1067.54C188.702 1065.63 189.846 1063.97 191.313 1062.57C192.809 1061.13 194.554 1060.03 196.549 1059.27C198.544 1058.47 200.744 1058.08 203.149 1058.08C205.584 1058.08 207.813 1058.47 209.837 1059.27C211.861 1060.06 213.577 1061.25 214.985 1062.83L212.257 1065.56C210.996 1064.33 209.617 1063.43 208.121 1062.87C206.654 1062.29 205.056 1061.99 203.325 1061.99C201.565 1061.99 199.922 1062.29 198.397 1062.87C196.901 1063.46 195.596 1064.28 194.481 1065.34C193.396 1066.39 192.545 1067.66 191.929 1069.12C191.342 1070.56 191.049 1072.13 191.049 1073.83C191.049 1075.5 191.342 1077.07 191.929 1078.54C192.545 1079.98 193.396 1081.24 194.481 1082.32C195.596 1083.38 196.901 1084.2 198.397 1084.79C199.893 1085.37 201.521 1085.67 203.281 1085.67C204.924 1085.67 206.493 1085.42 207.989 1084.92C209.514 1084.39 210.922 1083.53 212.213 1082.32L214.721 1085.67C213.196 1086.96 211.406 1087.94 209.353 1088.61C207.329 1089.26 205.232 1089.58 203.061 1089.58ZM210.497 1085.09V1073.65H214.721V1085.67L210.497 1085.09ZM222.529 1089.23V1065.91H226.577V1072.25L226.181 1070.66C226.827 1069.05 227.912 1067.82 229.437 1066.97C230.963 1066.12 232.84 1065.69 235.069 1065.69V1069.78C234.893 1069.75 234.717 1069.74 234.541 1069.74C234.395 1069.74 234.248 1069.74 234.101 1069.74C231.843 1069.74 230.053 1070.41 228.733 1071.76C227.413 1073.11 226.753 1075.06 226.753 1077.61V1089.23H222.529ZM253.033 1089.23V1084.3L252.813 1083.38V1074.97C252.813 1073.19 252.285 1071.81 251.229 1070.84C250.202 1069.84 248.647 1069.34 246.565 1069.34C245.186 1069.34 243.837 1069.58 242.517 1070.05C241.197 1070.49 240.082 1071.09 239.173 1071.85L237.413 1068.68C238.615 1067.71 240.053 1066.98 241.725 1066.48C243.426 1065.95 245.201 1065.69 247.049 1065.69C250.246 1065.69 252.71 1066.47 254.441 1068.02C256.171 1069.58 257.037 1071.95 257.037 1075.15V1089.23H253.033ZM245.377 1089.49C243.646 1089.49 242.121 1089.2 240.801 1088.61C239.51 1088.03 238.513 1087.22 237.809 1086.19C237.105 1085.14 236.753 1083.95 236.753 1082.63C236.753 1081.37 237.046 1080.23 237.633 1079.2C238.249 1078.17 239.231 1077.35 240.581 1076.73C241.959 1076.12 243.807 1075.81 246.125 1075.81H253.517V1078.85H246.301C244.189 1078.85 242.766 1079.2 242.033 1079.9C241.299 1080.61 240.933 1081.46 240.933 1082.45C240.933 1083.6 241.387 1084.52 242.297 1085.23C243.206 1085.9 244.467 1086.24 246.081 1086.24C247.665 1086.24 249.043 1085.89 250.217 1085.18C251.419 1084.48 252.285 1083.45 252.813 1082.1L253.649 1085.01C253.091 1086.39 252.109 1087.49 250.701 1088.31C249.293 1089.1 247.518 1089.49 245.377 1089.49ZM277.218 1089.49C275.282 1089.49 273.507 1089.05 271.894 1088.17C270.31 1087.27 269.034 1085.93 268.066 1084.17C267.127 1082.41 266.658 1080.21 266.658 1077.57C266.658 1074.93 267.112 1072.73 268.022 1070.97C268.96 1069.21 270.222 1067.89 271.806 1067.01C273.419 1066.13 275.223 1065.69 277.218 1065.69C279.506 1065.69 281.53 1066.19 283.29 1067.19C285.05 1068.18 286.443 1069.58 287.47 1071.37C288.496 1073.13 289.01 1075.19 289.01 1077.57C289.01 1079.95 288.496 1082.03 287.47 1083.82C286.443 1085.61 285.05 1087 283.29 1088C281.53 1089 279.506 1089.49 277.218 1089.49ZM264.854 1097.77V1065.91H268.902V1072.2L268.638 1077.61L269.078 1083.03V1097.77H264.854ZM276.866 1085.8C278.362 1085.8 279.696 1085.46 280.87 1084.79C282.072 1084.11 283.011 1083.16 283.686 1081.93C284.39 1080.67 284.742 1079.21 284.742 1077.57C284.742 1075.9 284.39 1074.46 283.686 1073.26C283.011 1072.03 282.072 1071.07 280.87 1070.4C279.696 1069.72 278.362 1069.39 276.866 1069.39C275.399 1069.39 274.064 1069.72 272.862 1070.4C271.688 1071.07 270.75 1072.03 270.046 1073.26C269.371 1074.46 269.034 1075.9 269.034 1077.57C269.034 1079.21 269.371 1080.67 270.046 1081.93C270.75 1083.16 271.688 1084.11 272.862 1084.79C274.064 1085.46 275.399 1085.8 276.866 1085.8ZM307.298 1065.69C309.204 1065.69 310.876 1066.06 312.314 1066.79C313.78 1067.52 314.924 1068.64 315.746 1070.13C316.567 1071.63 316.978 1073.52 316.978 1075.81V1089.23H312.754V1076.29C312.754 1074.04 312.196 1072.33 311.082 1071.19C309.996 1070.05 308.456 1069.47 306.462 1069.47C304.966 1069.47 303.66 1069.77 302.546 1070.35C301.431 1070.94 300.566 1071.81 299.95 1072.95C299.363 1074.09 299.07 1075.52 299.07 1077.22V1089.23H294.846V1056.58H299.07V1072.2L298.234 1070.53C298.996 1069.01 300.17 1067.82 301.754 1066.97C303.338 1066.12 305.186 1065.69 307.298 1065.69ZM324.795 1089.23V1065.91H329.019V1089.23H324.795ZM326.907 1061.42C326.086 1061.42 325.396 1061.16 324.839 1060.63C324.311 1060.1 324.047 1059.46 324.047 1058.69C324.047 1057.9 324.311 1057.24 324.839 1056.71C325.396 1056.19 326.086 1055.92 326.907 1055.92C327.728 1055.92 328.403 1056.19 328.931 1056.71C329.488 1057.21 329.767 1057.84 329.767 1058.61C329.767 1059.4 329.503 1060.07 328.975 1060.63C328.447 1061.16 327.758 1061.42 326.907 1061.42ZM347.248 1089.49C344.872 1089.49 342.745 1088.98 340.868 1087.95C339.02 1086.93 337.568 1085.52 336.512 1083.73C335.456 1081.94 334.928 1079.89 334.928 1077.57C334.928 1075.25 335.456 1073.2 336.512 1071.41C337.568 1069.62 339.02 1068.23 340.868 1067.23C342.745 1066.2 344.872 1065.69 347.248 1065.69C349.36 1065.69 351.237 1066.12 352.88 1066.97C354.552 1067.79 355.843 1069.02 356.752 1070.66L353.54 1072.73C352.777 1071.59 351.839 1070.75 350.724 1070.22C349.639 1069.67 348.465 1069.39 347.204 1069.39C345.679 1069.39 344.315 1069.72 343.112 1070.4C341.909 1071.07 340.956 1072.03 340.252 1073.26C339.548 1074.46 339.196 1075.9 339.196 1077.57C339.196 1079.24 339.548 1080.69 340.252 1081.93C340.956 1083.16 341.909 1084.11 343.112 1084.79C344.315 1085.46 345.679 1085.8 347.204 1085.8C348.465 1085.8 349.639 1085.53 350.724 1085.01C351.839 1084.45 352.777 1083.6 353.54 1082.45L356.752 1084.48C355.843 1086.09 354.552 1087.34 352.88 1088.22C351.237 1089.07 349.36 1089.49 347.248 1089.49ZM368.909 1089.49C366.973 1089.49 365.125 1089.23 363.365 1088.7C361.634 1088.17 360.27 1087.53 359.273 1086.77L361.033 1083.42C362.03 1084.1 363.262 1084.67 364.729 1085.14C366.195 1085.61 367.691 1085.84 369.217 1085.84C371.182 1085.84 372.59 1085.56 373.441 1085.01C374.321 1084.45 374.761 1083.67 374.761 1082.67C374.761 1081.94 374.497 1081.37 373.969 1080.96C373.441 1080.55 372.737 1080.24 371.857 1080.03C371.006 1079.83 370.053 1079.65 368.997 1079.51C367.941 1079.33 366.885 1079.13 365.829 1078.89C364.773 1078.63 363.805 1078.27 362.925 1077.83C362.045 1077.37 361.341 1076.73 360.813 1075.94C360.285 1075.12 360.021 1074.04 360.021 1072.69C360.021 1071.28 360.417 1070.05 361.209 1068.99C362.001 1067.93 363.115 1067.13 364.553 1066.57C366.019 1065.98 367.75 1065.69 369.745 1065.69C371.27 1065.69 372.81 1065.88 374.365 1066.26C375.949 1066.61 377.239 1067.13 378.237 1067.8L376.433 1071.15C375.377 1070.44 374.277 1069.96 373.133 1069.69C371.989 1069.43 370.845 1069.3 369.701 1069.3C367.853 1069.3 366.474 1069.61 365.565 1070.22C364.655 1070.81 364.201 1071.57 364.201 1072.51C364.201 1073.3 364.465 1073.92 364.993 1074.36C365.55 1074.77 366.254 1075.09 367.105 1075.33C367.985 1075.56 368.953 1075.77 370.009 1075.94C371.065 1076.09 372.121 1076.29 373.177 1076.56C374.233 1076.79 375.186 1077.13 376.037 1077.57C376.917 1078.01 377.621 1078.63 378.149 1079.42C378.706 1080.21 378.985 1081.27 378.985 1082.59C378.985 1083.99 378.574 1085.21 377.753 1086.24C376.931 1087.27 375.773 1088.07 374.277 1088.66C372.781 1089.22 370.991 1089.49 368.909 1089.49ZM396.696 1089.23V1058.43H409.676C412.962 1058.43 415.851 1059.08 418.344 1060.37C420.867 1061.66 422.818 1063.46 424.196 1065.78C425.604 1068.1 426.308 1070.78 426.308 1073.83C426.308 1076.88 425.604 1079.57 424.196 1081.88C422.818 1084.2 420.867 1086 418.344 1087.29C415.851 1088.59 412.962 1089.23 409.676 1089.23H396.696ZM401.096 1085.4H409.412C411.964 1085.4 414.164 1084.92 416.012 1083.95C417.89 1082.98 419.342 1081.63 420.368 1079.9C421.395 1078.14 421.908 1076.12 421.908 1073.83C421.908 1071.51 421.395 1069.49 420.368 1067.76C419.342 1066.03 417.89 1064.68 416.012 1063.71C414.164 1062.74 411.964 1062.26 409.412 1062.26H401.096V1085.4ZM442.816 1089.49C440.322 1089.49 438.122 1088.98 436.216 1087.95C434.338 1086.93 432.872 1085.52 431.816 1083.73C430.789 1081.94 430.276 1079.89 430.276 1077.57C430.276 1075.25 430.774 1073.2 431.772 1071.41C432.798 1069.62 434.192 1068.23 435.952 1067.23C437.741 1066.2 439.75 1065.69 441.98 1065.69C444.238 1065.69 446.233 1066.19 447.964 1067.19C449.694 1068.18 451.044 1069.59 452.012 1071.41C453.009 1073.2 453.508 1075.3 453.508 1077.7C453.508 1077.88 453.493 1078.08 453.464 1078.32C453.464 1078.55 453.449 1078.77 453.42 1078.98H433.576V1075.94H451.22L449.504 1077C449.533 1075.5 449.225 1074.17 448.58 1072.99C447.934 1071.82 447.04 1070.91 445.896 1070.27C444.781 1069.59 443.476 1069.25 441.98 1069.25C440.513 1069.25 439.208 1069.59 438.064 1070.27C436.92 1070.91 436.025 1071.84 435.38 1073.04C434.734 1074.21 434.412 1075.56 434.412 1077.09V1077.79C434.412 1079.35 434.764 1080.74 435.468 1081.97C436.201 1083.17 437.213 1084.11 438.504 1084.79C439.794 1085.46 441.276 1085.8 442.948 1085.8C444.326 1085.8 445.573 1085.56 446.688 1085.09C447.832 1084.63 448.829 1083.92 449.68 1082.98L452.012 1085.71C450.956 1086.94 449.636 1087.88 448.052 1088.53C446.497 1089.17 444.752 1089.49 442.816 1089.49ZM466.061 1089.49C464.125 1089.49 462.277 1089.23 460.517 1088.7C458.786 1088.17 457.422 1087.53 456.425 1086.77L458.185 1083.42C459.182 1084.1 460.414 1084.67 461.881 1085.14C463.348 1085.61 464.844 1085.84 466.369 1085.84C468.334 1085.84 469.742 1085.56 470.593 1085.01C471.473 1084.45 471.913 1083.67 471.913 1082.67C471.913 1081.94 471.649 1081.37 471.121 1080.96C470.593 1080.55 469.889 1080.24 469.009 1080.03C468.158 1079.83 467.205 1079.65 466.149 1079.51C465.093 1079.33 464.037 1079.13 462.981 1078.89C461.925 1078.63 460.957 1078.27 460.077 1077.83C459.197 1077.37 458.493 1076.73 457.965 1075.94C457.437 1075.12 457.173 1074.04 457.173 1072.69C457.173 1071.28 457.569 1070.05 458.361 1068.99C459.153 1067.93 460.268 1067.13 461.705 1066.57C463.172 1065.98 464.902 1065.69 466.897 1065.69C468.422 1065.69 469.962 1065.88 471.517 1066.26C473.101 1066.61 474.392 1067.13 475.389 1067.8L473.585 1071.15C472.529 1070.44 471.429 1069.96 470.285 1069.69C469.141 1069.43 467.997 1069.3 466.853 1069.3C465.005 1069.3 463.626 1069.61 462.717 1070.22C461.808 1070.81 461.353 1071.57 461.353 1072.51C461.353 1073.3 461.617 1073.92 462.145 1074.36C462.702 1074.77 463.406 1075.09 464.257 1075.33C465.137 1075.56 466.105 1075.77 467.161 1075.94C468.217 1076.09 469.273 1076.29 470.329 1076.56C471.385 1076.79 472.338 1077.13 473.189 1077.57C474.069 1078.01 474.773 1078.63 475.301 1079.42C475.858 1080.21 476.137 1081.27 476.137 1082.59C476.137 1083.99 475.726 1085.21 474.905 1086.24C474.084 1087.27 472.925 1088.07 471.429 1088.66C469.933 1089.22 468.144 1089.49 466.061 1089.49ZM481.416 1089.23V1065.91H485.64V1089.23H481.416ZM483.528 1061.42C482.707 1061.42 482.017 1061.16 481.46 1060.63C480.932 1060.1 480.668 1059.46 480.668 1058.69C480.668 1057.9 480.932 1057.24 481.46 1056.71C482.017 1056.19 482.707 1055.92 483.528 1055.92C484.349 1055.92 485.024 1056.19 485.552 1056.71C486.109 1057.21 486.388 1057.84 486.388 1058.61C486.388 1059.4 486.124 1060.07 485.596 1060.63C485.068 1061.16 484.379 1061.42 483.528 1061.42ZM503.913 1098.03C501.772 1098.03 499.689 1097.72 497.665 1097.11C495.671 1096.52 494.043 1095.67 492.781 1094.55L494.805 1091.3C495.891 1092.24 497.225 1092.97 498.809 1093.5C500.393 1094.06 502.051 1094.33 503.781 1094.33C506.539 1094.33 508.563 1093.69 509.853 1092.4C511.144 1091.11 511.789 1089.14 511.789 1086.5V1081.57L512.229 1076.95L512.009 1072.29V1065.91H516.013V1086.06C516.013 1090.17 514.987 1093.19 512.933 1095.13C510.88 1097.06 507.873 1098.03 503.913 1098.03ZM503.385 1088.26C501.127 1088.26 499.103 1087.79 497.313 1086.85C495.553 1085.89 494.145 1084.55 493.089 1082.85C492.063 1081.15 491.549 1079.18 491.549 1076.95C491.549 1074.7 492.063 1072.73 493.089 1071.06C494.145 1069.36 495.553 1068.04 497.313 1067.1C499.103 1066.16 501.127 1065.69 503.385 1065.69C505.38 1065.69 507.199 1066.1 508.841 1066.92C510.484 1067.71 511.789 1068.95 512.757 1070.62C513.755 1072.29 514.253 1074.4 514.253 1076.95C514.253 1079.48 513.755 1081.57 512.757 1083.25C511.789 1084.92 510.484 1086.18 508.841 1087.03C507.199 1087.85 505.38 1088.26 503.385 1088.26ZM503.869 1084.57C505.424 1084.57 506.803 1084.24 508.005 1083.6C509.208 1082.95 510.147 1082.06 510.821 1080.91C511.525 1079.77 511.877 1078.45 511.877 1076.95C511.877 1075.46 511.525 1074.14 510.821 1072.99C510.147 1071.85 509.208 1070.97 508.005 1070.35C506.803 1069.71 505.424 1069.39 503.869 1069.39C502.315 1069.39 500.921 1069.71 499.689 1070.35C498.487 1070.97 497.533 1071.85 496.829 1072.99C496.155 1074.14 495.817 1075.46 495.817 1076.95C495.817 1078.45 496.155 1079.77 496.829 1080.91C497.533 1082.06 498.487 1082.95 499.689 1083.6C500.921 1084.24 502.315 1084.57 503.869 1084.57ZM536.536 1065.69C538.443 1065.69 540.115 1066.06 541.552 1066.79C543.019 1067.52 544.163 1068.64 544.984 1070.13C545.805 1071.63 546.216 1073.52 546.216 1075.81V1089.23H541.992V1076.29C541.992 1074.04 541.435 1072.33 540.32 1071.19C539.235 1070.05 537.695 1069.47 535.7 1069.47C534.204 1069.47 532.899 1069.77 531.784 1070.35C530.669 1070.94 529.804 1071.81 529.188 1072.95C528.601 1074.09 528.308 1075.52 528.308 1077.22V1089.23H524.084V1065.91H528.132V1072.2L527.472 1070.53C528.235 1069.01 529.408 1067.82 530.992 1066.97C532.576 1066.12 534.424 1065.69 536.536 1065.69ZM554.033 1089.23V1065.91H558.257V1089.23H554.033ZM556.145 1061.42C555.324 1061.42 554.635 1061.16 554.077 1060.63C553.549 1060.1 553.285 1059.46 553.285 1058.69C553.285 1057.9 553.549 1057.24 554.077 1056.71C554.635 1056.19 555.324 1055.92 556.145 1055.92C556.967 1055.92 557.641 1056.19 558.169 1056.71C558.727 1057.21 559.005 1057.84 559.005 1058.61C559.005 1059.4 558.741 1060.07 558.213 1060.63C557.685 1061.16 556.996 1061.42 556.145 1061.42ZM578.774 1065.69C580.681 1065.69 582.353 1066.06 583.79 1066.79C585.257 1067.52 586.401 1068.64 587.222 1070.13C588.044 1071.63 588.454 1073.52 588.454 1075.81V1089.23H584.23V1076.29C584.23 1074.04 583.673 1072.33 582.558 1071.19C581.473 1070.05 579.933 1069.47 577.938 1069.47C576.442 1069.47 575.137 1069.77 574.022 1070.35C572.908 1070.94 572.042 1071.81 571.426 1072.95C570.84 1074.09 570.546 1075.52 570.546 1077.22V1089.23H566.322V1065.91H570.37V1072.2L569.71 1070.53C570.473 1069.01 571.646 1067.82 573.23 1066.97C574.814 1066.12 576.662 1065.69 578.774 1065.69ZM606.48 1098.03C604.338 1098.03 602.256 1097.72 600.232 1097.11C598.237 1096.52 596.609 1095.67 595.348 1094.55L597.372 1091.3C598.457 1092.24 599.792 1092.97 601.376 1093.5C602.96 1094.06 604.617 1094.33 606.348 1094.33C609.105 1094.33 611.129 1093.69 612.42 1092.4C613.71 1091.11 614.356 1089.14 614.356 1086.5V1081.57L614.796 1076.95L614.576 1072.29V1065.91H618.58V1086.06C618.58 1090.17 617.553 1093.19 615.5 1095.13C613.446 1097.06 610.44 1098.03 606.48 1098.03ZM605.952 1088.26C603.693 1088.26 601.669 1087.79 599.88 1086.85C598.12 1085.89 596.712 1084.55 595.656 1082.85C594.629 1081.15 594.116 1079.18 594.116 1076.95C594.116 1074.7 594.629 1072.73 595.656 1071.06C596.712 1069.36 598.12 1068.04 599.88 1067.1C601.669 1066.16 603.693 1065.69 605.952 1065.69C607.946 1065.69 609.765 1066.1 611.408 1066.92C613.05 1067.71 614.356 1068.95 615.324 1070.62C616.321 1072.29 616.82 1074.4 616.82 1076.95C616.82 1079.48 616.321 1081.57 615.324 1083.25C614.356 1084.92 613.05 1086.18 611.408 1087.03C609.765 1087.85 607.946 1088.26 605.952 1088.26ZM606.436 1084.57C607.99 1084.57 609.369 1084.24 610.572 1083.6C611.774 1082.95 612.713 1082.06 613.388 1080.91C614.092 1079.77 614.444 1078.45 614.444 1076.95C614.444 1075.46 614.092 1074.14 613.388 1072.99C612.713 1071.85 611.774 1070.97 610.572 1070.35C609.369 1069.71 607.99 1069.39 606.436 1069.39C604.881 1069.39 603.488 1069.71 602.256 1070.35C601.053 1070.97 600.1 1071.85 599.396 1072.99C598.721 1074.14 598.384 1075.46 598.384 1076.95C598.384 1078.45 598.721 1079.77 599.396 1080.91C600.1 1082.06 601.053 1082.95 602.256 1083.6C603.488 1084.24 604.881 1084.57 606.436 1084.57Z" fill="white"/>
<path d="M904.057 1118.57C898.066 1118.57 892.196 1117.72 886.447 1116.02C880.779 1114.23 876.002 1111.81 872.116 1108.73L878.796 1096.46C881.872 1098.97 885.597 1101 889.969 1102.53C894.422 1104.07 899.037 1104.84 903.814 1104.84C909.401 1104.84 913.773 1103.67 916.931 1101.32C920.17 1098.97 921.789 1095.81 921.789 1091.85C921.789 1089.18 921.101 1086.83 919.724 1084.8C918.429 1082.78 916.081 1081.24 912.68 1080.19C909.361 1079.14 904.786 1078.61 898.956 1078.61H878.431L882.804 1032.34H932.72V1045.57H888.633L896.892 1038.04L893.613 1072.66L885.354 1065.25H902.478C910.899 1065.25 917.66 1066.38 922.761 1068.65C927.942 1070.84 931.707 1073.91 934.055 1077.88C936.484 1081.77 937.699 1086.22 937.699 1091.24C937.699 1096.18 936.484 1100.71 934.055 1104.84C931.626 1108.97 927.902 1112.29 922.882 1114.8C917.943 1117.31 911.668 1118.57 904.057 1118.57Z" fill="#47175A"/>
<circle cx="906.038" cy="1073.35" r="70.4619" stroke="#47175A" stroke-width="2.76025"/>
<path d="M249.487 421.351H976L898.437 334.157L976 247H249.487L171.924 334.157L249.487 421.351Z" fill="#142357"/>
<path d="M333.304 350.352C329.256 350.352 326.073 349.193 323.756 346.876C321.438 344.559 320.28 341.171 320.28 336.712V319.2H324.68V336.536C324.68 339.968 325.428 342.476 326.924 344.06C328.449 345.644 330.59 346.436 333.348 346.436C336.134 346.436 338.276 345.644 339.772 344.06C341.297 342.476 342.06 339.968 342.06 336.536V319.2H346.328V336.712C346.328 341.171 345.169 344.559 342.852 346.876C340.564 349.193 337.381 350.352 333.304 350.352ZM350.871 350L363.675 332.532V335.92L351.575 319.2H356.591L366.183 332.356L364.203 332.4L373.751 319.2H378.547L366.535 335.656V332.488L379.339 350H374.279L364.071 335.964H366.007L355.931 350H350.871ZM396.341 350V319.2H408.353C411.051 319.2 413.354 319.625 415.261 320.476C417.167 321.327 418.634 322.559 419.661 324.172C420.687 325.785 421.201 327.707 421.201 329.936C421.201 332.165 420.687 334.087 419.661 335.7C418.634 337.284 417.167 338.501 415.261 339.352C413.354 340.203 411.051 340.628 408.353 340.628H398.761L400.741 338.604V350H396.341ZM416.933 350L409.101 338.824H413.809L421.729 350H416.933ZM400.741 339.044L398.761 336.888H408.221C411.037 336.888 413.163 336.287 414.601 335.084C416.067 333.852 416.801 332.136 416.801 329.936C416.801 327.736 416.067 326.035 414.601 324.832C413.163 323.629 411.037 323.028 408.221 323.028H398.761L400.741 320.828V339.044ZM438.077 350.264C435.584 350.264 433.384 349.751 431.477 348.724C429.6 347.697 428.133 346.289 427.077 344.5C426.051 342.711 425.537 340.657 425.537 338.34C425.537 336.023 426.036 333.969 427.033 332.18C428.06 330.391 429.453 328.997 431.213 328C433.003 326.973 435.012 326.46 437.241 326.46C439.5 326.46 441.495 326.959 443.225 327.956C444.956 328.953 446.305 330.361 447.273 332.18C448.271 333.969 448.769 336.067 448.769 338.472C448.769 338.648 448.755 338.853 448.725 339.088C448.725 339.323 448.711 339.543 448.681 339.748H428.837V336.712H446.481L444.765 337.768C444.795 336.272 444.487 334.937 443.841 333.764C443.196 332.591 442.301 331.681 441.157 331.036C440.043 330.361 438.737 330.024 437.241 330.024C435.775 330.024 434.469 330.361 433.325 331.036C432.181 331.681 431.287 332.605 430.641 333.808C429.996 334.981 429.673 336.331 429.673 337.856V338.56C429.673 340.115 430.025 341.508 430.729 342.74C431.463 343.943 432.475 344.881 433.765 345.556C435.056 346.231 436.537 346.568 438.209 346.568C439.588 346.568 440.835 346.333 441.949 345.864C443.093 345.395 444.091 344.691 444.941 343.752L447.273 346.48C446.217 347.712 444.897 348.651 443.313 349.296C441.759 349.941 440.013 350.264 438.077 350.264ZM461.323 350.264C459.387 350.264 457.539 350 455.779 349.472C454.048 348.944 452.684 348.299 451.687 347.536L453.447 344.192C454.444 344.867 455.676 345.439 457.143 345.908C458.61 346.377 460.106 346.612 461.631 346.612C463.596 346.612 465.004 346.333 465.855 345.776C466.735 345.219 467.175 344.441 467.175 343.444C467.175 342.711 466.911 342.139 466.383 341.728C465.855 341.317 465.151 341.009 464.271 340.804C463.42 340.599 462.467 340.423 461.411 340.276C460.355 340.1 459.299 339.895 458.243 339.66C457.187 339.396 456.219 339.044 455.339 338.604C454.459 338.135 453.755 337.504 453.227 336.712C452.699 335.891 452.435 334.805 452.435 333.456C452.435 332.048 452.831 330.816 453.623 329.76C454.415 328.704 455.53 327.897 456.967 327.34C458.434 326.753 460.164 326.46 462.159 326.46C463.684 326.46 465.224 326.651 466.779 327.032C468.363 327.384 469.654 327.897 470.651 328.572L468.847 331.916C467.791 331.212 466.691 330.728 465.547 330.464C464.403 330.2 463.259 330.068 462.115 330.068C460.267 330.068 458.888 330.376 457.979 330.992C457.07 331.579 456.615 332.341 456.615 333.28C456.615 334.072 456.879 334.688 457.407 335.128C457.964 335.539 458.668 335.861 459.519 336.096C460.399 336.331 461.367 336.536 462.423 336.712C463.479 336.859 464.535 337.064 465.591 337.328C466.647 337.563 467.6 337.9 468.451 338.34C469.331 338.78 470.035 339.396 470.563 340.188C471.12 340.98 471.399 342.036 471.399 343.356C471.399 344.764 470.988 345.981 470.167 347.008C469.346 348.035 468.187 348.841 466.691 349.428C465.195 349.985 463.406 350.264 461.323 350.264ZM487.062 350.264C484.568 350.264 482.368 349.751 480.462 348.724C478.584 347.697 477.118 346.289 476.062 344.5C475.035 342.711 474.522 340.657 474.522 338.34C474.522 336.023 475.02 333.969 476.018 332.18C477.044 330.391 478.438 328.997 480.198 328C481.987 326.973 483.996 326.46 486.226 326.46C488.484 326.46 490.479 326.959 492.21 327.956C493.94 328.953 495.29 330.361 496.258 332.18C497.255 333.969 497.754 336.067 497.754 338.472C497.754 338.648 497.739 338.853 497.71 339.088C497.71 339.323 497.695 339.543 497.666 339.748H477.822V336.712H495.466L493.75 337.768C493.779 336.272 493.471 334.937 492.826 333.764C492.18 332.591 491.286 331.681 490.142 331.036C489.027 330.361 487.722 330.024 486.226 330.024C484.759 330.024 483.454 330.361 482.31 331.036C481.166 331.681 480.271 332.605 479.626 333.808C478.98 334.981 478.658 336.331 478.658 337.856V338.56C478.658 340.115 479.01 341.508 479.714 342.74C480.447 343.943 481.459 344.881 482.75 345.556C484.04 346.231 485.522 346.568 487.194 346.568C488.572 346.568 489.819 346.333 490.934 345.864C492.078 345.395 493.075 344.691 493.926 343.752L496.258 346.48C495.202 347.712 493.882 348.651 492.298 349.296C490.743 349.941 488.998 350.264 487.062 350.264ZM517.451 350V345.072L517.231 344.148V335.744C517.231 333.955 516.703 332.576 515.647 331.608C514.62 330.611 513.065 330.112 510.983 330.112C509.604 330.112 508.255 330.347 506.935 330.816C505.615 331.256 504.5 331.857 503.591 332.62L501.831 329.452C503.033 328.484 504.471 327.751 506.143 327.252C507.844 326.724 509.619 326.46 511.467 326.46C514.664 326.46 517.128 327.237 518.859 328.792C520.589 330.347 521.455 332.723 521.455 335.92V350H517.451ZM509.795 350.264C508.064 350.264 506.539 349.971 505.219 349.384C503.928 348.797 502.931 347.991 502.227 346.964C501.523 345.908 501.171 344.72 501.171 343.4C501.171 342.139 501.464 340.995 502.051 339.968C502.667 338.941 503.649 338.12 504.999 337.504C506.377 336.888 508.225 336.58 510.543 336.58H517.935V339.616H510.719C508.607 339.616 507.184 339.968 506.451 340.672C505.717 341.376 505.351 342.227 505.351 343.224C505.351 344.368 505.805 345.292 506.715 345.996C507.624 346.671 508.885 347.008 510.499 347.008C512.083 347.008 513.461 346.656 514.635 345.952C515.837 345.248 516.703 344.221 517.231 342.872L518.067 345.776C517.509 347.155 516.527 348.255 515.119 349.076C513.711 349.868 511.936 350.264 509.795 350.264ZM529.272 350V326.68H533.32V333.016L532.924 331.432C533.569 329.819 534.654 328.587 536.18 327.736C537.705 326.885 539.582 326.46 541.812 326.46V330.552C541.636 330.523 541.46 330.508 541.284 330.508C541.137 330.508 540.99 330.508 540.844 330.508C538.585 330.508 536.796 331.183 535.476 332.532C534.156 333.881 533.496 335.832 533.496 338.384V350H529.272ZM556.967 350.264C554.591 350.264 552.464 349.751 550.587 348.724C548.739 347.697 547.287 346.289 546.231 344.5C545.175 342.711 544.647 340.657 544.647 338.34C544.647 336.023 545.175 333.969 546.231 332.18C547.287 330.391 548.739 328.997 550.587 328C552.464 326.973 554.591 326.46 556.967 326.46C559.079 326.46 560.956 326.885 562.599 327.736C564.271 328.557 565.561 329.789 566.471 331.432L563.259 333.5C562.496 332.356 561.557 331.52 560.443 330.992C559.357 330.435 558.184 330.156 556.923 330.156C555.397 330.156 554.033 330.493 552.831 331.168C551.628 331.843 550.675 332.796 549.971 334.028C549.267 335.231 548.915 336.668 548.915 338.34C548.915 340.012 549.267 341.464 549.971 342.696C550.675 343.928 551.628 344.881 552.831 345.556C554.033 346.231 555.397 346.568 556.923 346.568C558.184 346.568 559.357 346.304 560.443 345.776C561.557 345.219 562.496 344.368 563.259 343.224L566.471 345.248C565.561 346.861 564.271 348.108 562.599 348.988C560.956 349.839 559.079 350.264 556.967 350.264ZM584.091 326.46C585.997 326.46 587.669 326.827 589.107 327.56C590.573 328.293 591.717 329.408 592.539 330.904C593.36 332.4 593.771 334.292 593.771 336.58V350H589.547V337.064C589.547 334.805 588.989 333.104 587.875 331.96C586.789 330.816 585.249 330.244 583.255 330.244C581.759 330.244 580.453 330.537 579.339 331.124C578.224 331.711 577.359 332.576 576.743 333.72C576.156 334.864 575.863 336.287 575.863 337.988V350H571.639V317.352H575.863V332.972L575.027 331.3C575.789 329.775 576.963 328.587 578.547 327.736C580.131 326.885 581.979 326.46 584.091 326.46ZM622.16 350.352C620.078 350.352 618.23 350.015 616.616 349.34C615.003 348.665 613.727 347.727 612.788 346.524C611.85 345.321 611.38 343.928 611.38 342.344C611.38 340.965 611.688 339.704 612.304 338.56C612.92 337.416 613.903 336.316 615.252 335.26C616.602 334.175 618.376 333.06 620.576 331.916C622.366 330.977 623.759 330.156 624.756 329.452C625.783 328.748 626.502 328.088 626.912 327.472C627.352 326.827 627.572 326.137 627.572 325.404C627.572 324.407 627.22 323.6 626.516 322.984C625.812 322.339 624.8 322.016 623.48 322.016C622.102 322.016 621.016 322.368 620.224 323.072C619.462 323.747 619.08 324.641 619.08 325.756C619.08 326.313 619.168 326.856 619.344 327.384C619.55 327.883 619.902 328.455 620.4 329.1C620.928 329.716 621.676 330.508 622.644 331.476L638.924 347.668L636.548 350.484L619.256 333.28C618.23 332.253 617.423 331.344 616.836 330.552C616.25 329.731 615.824 328.939 615.56 328.176C615.296 327.413 615.164 326.636 615.164 325.844C615.164 324.465 615.502 323.263 616.176 322.236C616.88 321.18 617.848 320.373 619.08 319.816C620.342 319.229 621.808 318.936 623.48 318.936C625.035 318.936 626.384 319.2 627.528 319.728C628.672 320.227 629.552 320.96 630.168 321.928C630.814 322.867 631.136 324.011 631.136 325.36C631.136 326.533 630.843 327.619 630.256 328.616C629.699 329.613 628.79 330.581 627.528 331.52C626.267 332.459 624.566 333.471 622.424 334.556C620.664 335.465 619.286 336.316 618.288 337.108C617.291 337.871 616.572 338.633 616.132 339.396C615.722 340.159 615.516 340.995 615.516 341.904C615.516 342.872 615.795 343.737 616.352 344.5C616.939 345.233 617.746 345.805 618.772 346.216C619.828 346.627 621.046 346.832 622.424 346.832C624.39 346.832 626.164 346.407 627.748 345.556C629.332 344.705 630.652 343.429 631.708 341.728C632.794 340.027 633.586 337.915 634.084 335.392L637.472 336.492C636.886 339.455 635.874 341.963 634.436 344.016C633.028 346.069 631.283 347.639 629.2 348.724C627.118 349.809 624.771 350.352 622.16 350.352ZM651.337 350L665.285 319.2H669.641L683.633 350H679.013L666.561 321.664H668.321L655.869 350H651.337ZM657.277 342.3L658.465 338.78H675.801L677.077 342.3H657.277ZM700.063 326.46C701.97 326.46 703.642 326.827 705.079 327.56C706.546 328.293 707.69 329.408 708.511 330.904C709.333 332.4 709.743 334.292 709.743 336.58V350H705.519V337.064C705.519 334.805 704.962 333.104 703.847 331.96C702.762 330.816 701.222 330.244 699.227 330.244C697.731 330.244 696.426 330.537 695.311 331.124C694.197 331.711 693.331 332.576 692.715 333.72C692.129 334.864 691.835 336.287 691.835 337.988V350H687.611V326.68H691.659V332.972L690.999 331.3C691.762 329.775 692.935 328.587 694.519 327.736C696.103 326.885 697.951 326.46 700.063 326.46ZM732.037 350V345.072L731.817 344.148V335.744C731.817 333.955 731.289 332.576 730.233 331.608C729.206 330.611 727.651 330.112 725.569 330.112C724.19 330.112 722.841 330.347 721.521 330.816C720.201 331.256 719.086 331.857 718.177 332.62L716.417 329.452C717.619 328.484 719.057 327.751 720.729 327.252C722.43 326.724 724.205 326.46 726.053 326.46C729.25 326.46 731.714 327.237 733.445 328.792C735.175 330.347 736.041 332.723 736.041 335.92V350H732.037ZM724.381 350.264C722.65 350.264 721.125 349.971 719.805 349.384C718.514 348.797 717.517 347.991 716.813 346.964C716.109 345.908 715.757 344.72 715.757 343.4C715.757 342.139 716.05 340.995 716.637 339.968C717.253 338.941 718.235 338.12 719.585 337.504C720.963 336.888 722.811 336.58 725.129 336.58H732.521V339.616H725.305C723.193 339.616 721.77 339.968 721.037 340.672C720.303 341.376 719.937 342.227 719.937 343.224C719.937 344.368 720.391 345.292 721.301 345.996C722.21 346.671 723.471 347.008 725.085 347.008C726.669 347.008 728.047 346.656 729.221 345.952C730.423 345.248 731.289 344.221 731.817 342.872L732.653 345.776C732.095 347.155 731.113 348.255 729.705 349.076C728.297 349.868 726.522 350.264 724.381 350.264ZM743.858 350V317.352H748.082V350H743.858ZM757.159 358.8C756.044 358.8 754.959 358.609 753.903 358.228C752.847 357.876 751.937 357.348 751.175 356.644L752.979 353.476C753.565 354.033 754.211 354.459 754.915 354.752C755.619 355.045 756.367 355.192 757.159 355.192C758.185 355.192 759.036 354.928 759.711 354.4C760.385 353.872 761.016 352.933 761.603 351.584L763.055 348.372L763.495 347.844L772.647 326.68H776.783L765.475 352.332C764.8 353.975 764.037 355.265 763.187 356.204C762.365 357.143 761.456 357.803 760.459 358.184C759.461 358.595 758.361 358.8 757.159 358.8ZM762.703 350.748L752.055 326.68H756.455L765.519 347.448L762.703 350.748ZM787.112 350.264C785.176 350.264 783.328 350 781.568 349.472C779.837 348.944 778.473 348.299 777.476 347.536L779.236 344.192C780.233 344.867 781.465 345.439 782.932 345.908C784.399 346.377 785.895 346.612 787.42 346.612C789.385 346.612 790.793 346.333 791.644 345.776C792.524 345.219 792.964 344.441 792.964 343.444C792.964 342.711 792.7 342.139 792.172 341.728C791.644 341.317 790.94 341.009 790.06 340.804C789.209 340.599 788.256 340.423 787.2 340.276C786.144 340.1 785.088 339.895 784.032 339.66C782.976 339.396 782.008 339.044 781.128 338.604C780.248 338.135 779.544 337.504 779.016 336.712C778.488 335.891 778.224 334.805 778.224 333.456C778.224 332.048 778.62 330.816 779.412 329.76C780.204 328.704 781.319 327.897 782.756 327.34C784.223 326.753 785.953 326.46 787.948 326.46C789.473 326.46 791.013 326.651 792.568 327.032C794.152 327.384 795.443 327.897 796.44 328.572L794.636 331.916C793.58 331.212 792.48 330.728 791.336 330.464C790.192 330.2 789.048 330.068 787.904 330.068C786.056 330.068 784.677 330.376 783.768 330.992C782.859 331.579 782.404 332.341 782.404 333.28C782.404 334.072 782.668 334.688 783.196 335.128C783.753 335.539 784.457 335.861 785.308 336.096C786.188 336.331 787.156 336.536 788.212 336.712C789.268 336.859 790.324 337.064 791.38 337.328C792.436 337.563 793.389 337.9 794.24 338.34C795.12 338.78 795.824 339.396 796.352 340.188C796.909 340.98 797.188 342.036 797.188 343.356C797.188 344.764 796.777 345.981 795.956 347.008C795.135 348.035 793.976 348.841 792.48 349.428C790.984 349.985 789.195 350.264 787.112 350.264ZM802.467 350V326.68H806.691V350H802.467ZM804.579 322.192C803.758 322.192 803.068 321.928 802.511 321.4C801.983 320.872 801.719 320.227 801.719 319.464C801.719 318.672 801.983 318.012 802.511 317.484C803.068 316.956 803.758 316.692 804.579 316.692C805.4 316.692 806.075 316.956 806.603 317.484C807.16 317.983 807.439 318.613 807.439 319.376C807.439 320.168 807.175 320.843 806.647 321.4C806.119 321.928 805.43 322.192 804.579 322.192ZM821.444 350.264C819.508 350.264 817.66 350 815.9 349.472C814.169 348.944 812.805 348.299 811.808 347.536L813.568 344.192C814.565 344.867 815.797 345.439 817.264 345.908C818.731 346.377 820.227 346.612 821.752 346.612C823.717 346.612 825.125 346.333 825.976 345.776C826.856 345.219 827.296 344.441 827.296 343.444C827.296 342.711 827.032 342.139 826.504 341.728C825.976 341.317 825.272 341.009 824.392 340.804C823.541 340.599 822.588 340.423 821.532 340.276C820.476 340.1 819.42 339.895 818.364 339.66C817.308 339.396 816.34 339.044 815.46 338.604C814.58 338.135 813.876 337.504 813.348 336.712C812.82 335.891 812.556 334.805 812.556 333.456C812.556 332.048 812.952 330.816 813.744 329.76C814.536 328.704 815.651 327.897 817.088 327.34C818.555 326.753 820.285 326.46 822.28 326.46C823.805 326.46 825.345 326.651 826.9 327.032C828.484 327.384 829.775 327.897 830.772 328.572L828.968 331.916C827.912 331.212 826.812 330.728 825.668 330.464C824.524 330.2 823.38 330.068 822.236 330.068C820.388 330.068 819.009 330.376 818.1 330.992C817.191 331.579 816.736 332.341 816.736 333.28C816.736 334.072 817 334.688 817.528 335.128C818.085 335.539 818.789 335.861 819.64 336.096C820.52 336.331 821.488 336.536 822.544 336.712C823.6 336.859 824.656 337.064 825.712 337.328C826.768 337.563 827.721 337.9 828.572 338.34C829.452 338.78 830.156 339.396 830.684 340.188C831.241 340.98 831.52 342.036 831.52 343.356C831.52 344.764 831.109 345.981 830.288 347.008C829.467 348.035 828.308 348.841 826.812 349.428C825.316 349.985 823.527 350.264 821.444 350.264Z" fill="white"/>
<path d="M41.2137 379V368.434L74.9771 336.371C77.811 333.699 79.9161 331.351 81.2925 329.326C82.669 327.302 83.5596 325.44 83.9645 323.74C84.4503 321.958 84.6932 320.299 84.6932 318.76C84.6932 314.874 83.3572 311.878 80.6853 309.773C78.0134 307.587 74.0864 306.494 68.9045 306.494C64.7752 306.494 61.0102 307.222 57.6096 308.68C54.2899 310.137 51.4156 312.364 48.9866 315.36L37.9345 306.858C41.2542 302.405 45.7074 298.964 51.2941 296.535C56.9618 294.025 63.2773 292.77 70.2405 292.77C76.394 292.77 81.7379 293.782 86.272 295.806C90.8872 297.749 94.4093 300.543 96.8383 304.186C99.3483 307.83 100.603 312.161 100.603 317.181C100.603 319.934 100.239 322.687 99.5102 325.44C98.7815 328.112 97.4051 330.946 95.3809 333.942C93.3567 336.937 90.4014 340.298 86.5149 344.022L57.4881 371.591L54.2089 365.64H103.882V379H41.2137Z" fill="#142357"/>
<circle cx="72.4619" cy="334.999" r="70.4619" stroke="#142357" stroke-width="2.76025"/>
<path d="M249.95 914.406H976.463L898.9 827.202L976.463 740.055H249.95L172.387 827.202L249.95 914.406Z" fill="#E75825"/>
<path d="M284.091 843L273.795 812.2H278.327L287.787 840.624H285.499L295.311 812.2H299.359L308.951 840.624H306.751L316.343 812.2H320.523L310.227 843H305.607L296.631 816.644H297.819L288.799 843H284.091ZM325.289 843V819.68H329.513V843H325.289ZM327.401 815.192C326.58 815.192 325.89 814.928 325.333 814.4C324.805 813.872 324.541 813.227 324.541 812.464C324.541 811.672 324.805 811.012 325.333 810.484C325.89 809.956 326.58 809.692 327.401 809.692C328.222 809.692 328.897 809.956 329.425 810.484C329.982 810.983 330.261 811.613 330.261 812.376C330.261 813.168 329.997 813.843 329.469 814.4C328.941 814.928 328.252 815.192 327.401 815.192ZM337.578 843V819.68H341.626V826.016L341.23 824.432C341.876 822.819 342.961 821.587 344.486 820.736C346.012 819.885 347.889 819.46 350.118 819.46V823.552C349.942 823.523 349.766 823.508 349.59 823.508C349.444 823.508 349.297 823.508 349.15 823.508C346.892 823.508 345.102 824.183 343.782 825.532C342.462 826.881 341.802 828.832 341.802 831.384V843H337.578ZM365.493 843.264C363 843.264 360.8 842.751 358.893 841.724C357.016 840.697 355.549 839.289 354.493 837.5C353.467 835.711 352.953 833.657 352.953 831.34C352.953 829.023 353.452 826.969 354.449 825.18C355.476 823.391 356.869 821.997 358.629 821C360.419 819.973 362.428 819.46 364.657 819.46C366.916 819.46 368.911 819.959 370.641 820.956C372.372 821.953 373.721 823.361 374.689 825.18C375.687 826.969 376.185 829.067 376.185 831.472C376.185 831.648 376.171 831.853 376.141 832.088C376.141 832.323 376.127 832.543 376.097 832.748H356.253V829.712H373.897L372.181 830.768C372.211 829.272 371.903 827.937 371.257 826.764C370.612 825.591 369.717 824.681 368.573 824.036C367.459 823.361 366.153 823.024 364.657 823.024C363.191 823.024 361.885 823.361 360.741 824.036C359.597 824.681 358.703 825.605 358.057 826.808C357.412 827.981 357.089 829.331 357.089 830.856V831.56C357.089 833.115 357.441 834.508 358.145 835.74C358.879 836.943 359.891 837.881 361.181 838.556C362.472 839.231 363.953 839.568 365.625 839.568C367.004 839.568 368.251 839.333 369.365 838.864C370.509 838.395 371.507 837.691 372.357 836.752L374.689 839.48C373.633 840.712 372.313 841.651 370.729 842.296C369.175 842.941 367.429 843.264 365.493 843.264ZM382.667 843V817.612C382.667 815.324 383.327 813.505 384.647 812.156C385.996 810.777 387.903 810.088 390.367 810.088C391.276 810.088 392.142 810.205 392.963 810.44C393.814 810.645 394.532 810.983 395.119 811.452L393.843 814.664C393.403 814.312 392.904 814.048 392.347 813.872C391.79 813.667 391.203 813.564 390.587 813.564C389.355 813.564 388.416 813.916 387.771 814.62C387.126 815.295 386.803 816.307 386.803 817.656V820.78L386.891 822.716V843H382.667ZM378.707 823.156V819.68H393.579V823.156H378.707ZM397.563 843V819.68H401.611V826.016L401.215 824.432C401.86 822.819 402.945 821.587 404.471 820.736C405.996 819.885 407.873 819.46 410.103 819.46V823.552C409.927 823.523 409.751 823.508 409.575 823.508C409.428 823.508 409.281 823.508 409.135 823.508C406.876 823.508 405.087 824.183 403.767 825.532C402.447 826.881 401.787 828.832 401.787 831.384V843H397.563ZM428.066 843V838.072L427.846 837.148V828.744C427.846 826.955 427.318 825.576 426.262 824.608C425.235 823.611 423.681 823.112 421.598 823.112C420.219 823.112 418.87 823.347 417.55 823.816C416.23 824.256 415.115 824.857 414.206 825.62L412.446 822.452C413.649 821.484 415.086 820.751 416.758 820.252C418.459 819.724 420.234 819.46 422.082 819.46C425.279 819.46 427.743 820.237 429.474 821.792C431.205 823.347 432.07 825.723 432.07 828.92V843H428.066ZM420.41 843.264C418.679 843.264 417.154 842.971 415.834 842.384C414.543 841.797 413.546 840.991 412.842 839.964C412.138 838.908 411.786 837.72 411.786 836.4C411.786 835.139 412.079 833.995 412.666 832.968C413.282 831.941 414.265 831.12 415.614 830.504C416.993 829.888 418.841 829.58 421.158 829.58H428.55V832.616H421.334C419.222 832.616 417.799 832.968 417.066 833.672C416.333 834.376 415.966 835.227 415.966 836.224C415.966 837.368 416.421 838.292 417.33 838.996C418.239 839.671 419.501 840.008 421.114 840.008C422.698 840.008 424.077 839.656 425.25 838.952C426.453 838.248 427.318 837.221 427.846 835.872L428.682 838.776C428.125 840.155 427.142 841.255 425.734 842.076C424.326 842.868 422.551 843.264 420.41 843.264ZM469.059 819.46C470.936 819.46 472.593 819.827 474.031 820.56C475.468 821.293 476.583 822.408 477.375 823.904C478.196 825.4 478.607 827.292 478.607 829.58V843H474.383V830.064C474.383 827.805 473.855 826.104 472.799 824.96C471.743 823.816 470.261 823.244 468.355 823.244C466.947 823.244 465.715 823.537 464.659 824.124C463.603 824.711 462.781 825.576 462.195 826.72C461.637 827.864 461.359 829.287 461.359 830.988V843H457.135V830.064C457.135 827.805 456.607 826.104 455.551 824.96C454.524 823.816 453.043 823.244 451.107 823.244C449.728 823.244 448.511 823.537 447.455 824.124C446.399 824.711 445.577 825.576 444.991 826.72C444.404 827.864 444.111 829.287 444.111 830.988V843H439.887V819.68H443.935V825.884L443.275 824.3C444.008 822.775 445.137 821.587 446.663 820.736C448.188 819.885 449.963 819.46 451.987 819.46C454.216 819.46 456.137 820.017 457.751 821.132C459.364 822.217 460.42 823.875 460.919 826.104L459.203 825.4C459.907 823.611 461.139 822.173 462.899 821.088C464.659 820.003 466.712 819.46 469.059 819.46ZM486.379 843V819.68H490.603V843H486.379ZM488.491 815.192C487.67 815.192 486.98 814.928 486.423 814.4C485.895 813.872 485.631 813.227 485.631 812.464C485.631 811.672 485.895 811.012 486.423 810.484C486.98 809.956 487.67 809.692 488.491 809.692C489.312 809.692 489.987 809.956 490.515 810.484C491.072 810.983 491.351 811.613 491.351 812.376C491.351 813.168 491.087 813.843 490.559 814.4C490.031 814.928 489.342 815.192 488.491 815.192ZM511.12 819.46C513.027 819.46 514.699 819.827 516.136 820.56C517.603 821.293 518.747 822.408 519.568 823.904C520.389 825.4 520.8 827.292 520.8 829.58V843H516.576V830.064C516.576 827.805 516.019 826.104 514.904 824.96C513.819 823.816 512.279 823.244 510.284 823.244C508.788 823.244 507.483 823.537 506.368 824.124C505.253 824.711 504.388 825.576 503.772 826.72C503.185 827.864 502.892 829.287 502.892 830.988V843H498.668V819.68H502.716V825.972L502.056 824.3C502.819 822.775 503.992 821.587 505.576 820.736C507.16 819.885 509.008 819.46 511.12 819.46ZM538.825 851.8C536.684 851.8 534.601 851.492 532.577 850.876C530.583 850.289 528.955 849.439 527.693 848.324L529.717 845.068C530.803 846.007 532.137 846.74 533.721 847.268C535.305 847.825 536.963 848.104 538.693 848.104C541.451 848.104 543.475 847.459 544.765 846.168C546.056 844.877 546.701 842.912 546.701 840.272V835.344L547.141 830.724L546.921 826.06V819.68H550.925V839.832C550.925 843.939 549.899 846.96 547.845 848.896C545.792 850.832 542.785 851.8 538.825 851.8ZM538.297 842.032C536.039 842.032 534.015 841.563 532.225 840.624C530.465 839.656 529.057 838.321 528.001 836.62C526.975 834.919 526.461 832.953 526.461 830.724C526.461 828.465 526.975 826.5 528.001 824.828C529.057 823.127 530.465 821.807 532.225 820.868C534.015 819.929 536.039 819.46 538.297 819.46C540.292 819.46 542.111 819.871 543.753 820.692C545.396 821.484 546.701 822.716 547.669 824.388C548.667 826.06 549.165 828.172 549.165 830.724C549.165 833.247 548.667 835.344 547.669 837.016C546.701 838.688 545.396 839.949 543.753 840.8C542.111 841.621 540.292 842.032 538.297 842.032ZM538.781 838.336C540.336 838.336 541.715 838.013 542.917 837.368C544.12 836.723 545.059 835.828 545.733 834.684C546.437 833.54 546.789 832.22 546.789 830.724C546.789 829.228 546.437 827.908 545.733 826.764C545.059 825.62 544.12 824.74 542.917 824.124C541.715 823.479 540.336 823.156 538.781 823.156C537.227 823.156 535.833 823.479 534.601 824.124C533.399 824.74 532.445 825.62 531.741 826.764C531.067 827.908 530.729 829.228 530.729 830.724C530.729 832.22 531.067 833.54 531.741 834.684C532.445 835.828 533.399 836.723 534.601 837.368C535.833 838.013 537.227 838.336 538.781 838.336ZM579.569 843.352C577.486 843.352 575.638 843.015 574.025 842.34C572.411 841.665 571.135 840.727 570.197 839.524C569.258 838.321 568.789 836.928 568.789 835.344C568.789 833.965 569.097 832.704 569.713 831.56C570.329 830.416 571.311 829.316 572.661 828.26C574.01 827.175 575.785 826.06 577.985 824.916C579.774 823.977 581.167 823.156 582.165 822.452C583.191 821.748 583.91 821.088 584.321 820.472C584.761 819.827 584.981 819.137 584.981 818.404C584.981 817.407 584.629 816.6 583.925 815.984C583.221 815.339 582.209 815.016 580.889 815.016C579.51 815.016 578.425 815.368 577.633 816.072C576.87 816.747 576.489 817.641 576.489 818.756C576.489 819.313 576.577 819.856 576.753 820.384C576.958 820.883 577.31 821.455 577.809 822.1C578.337 822.716 579.085 823.508 580.053 824.476L596.333 840.668L593.957 843.484L576.665 826.28C575.638 825.253 574.831 824.344 574.245 823.552C573.658 822.731 573.233 821.939 572.969 821.176C572.705 820.413 572.573 819.636 572.573 818.844C572.573 817.465 572.91 816.263 573.585 815.236C574.289 814.18 575.257 813.373 576.489 812.816C577.75 812.229 579.217 811.936 580.889 811.936C582.443 811.936 583.793 812.2 584.937 812.728C586.081 813.227 586.961 813.96 587.577 814.928C588.222 815.867 588.545 817.011 588.545 818.36C588.545 819.533 588.251 820.619 587.665 821.616C587.107 822.613 586.198 823.581 584.937 824.52C583.675 825.459 581.974 826.471 579.833 827.556C578.073 828.465 576.694 829.316 575.697 830.108C574.699 830.871 573.981 831.633 573.541 832.396C573.13 833.159 572.925 833.995 572.925 834.904C572.925 835.872 573.203 836.737 573.761 837.5C574.347 838.233 575.154 838.805 576.181 839.216C577.237 839.627 578.454 839.832 579.833 839.832C581.798 839.832 583.573 839.407 585.157 838.556C586.741 837.705 588.061 836.429 589.117 834.728C590.202 833.027 590.994 830.915 591.493 828.392L594.881 829.492C594.294 832.455 593.282 834.963 591.845 837.016C590.437 839.069 588.691 840.639 586.609 841.724C584.526 842.809 582.179 843.352 579.569 843.352ZM613.409 843V812.2H625.421C628.12 812.2 630.422 812.625 632.329 813.476C634.236 814.327 635.702 815.559 636.729 817.172C637.756 818.785 638.269 820.707 638.269 822.936C638.269 825.165 637.756 827.087 636.729 828.7C635.702 830.284 634.236 831.516 632.329 832.396C630.422 833.247 628.12 833.672 625.421 833.672H615.829L617.809 831.604V843H613.409ZM617.809 832.044L615.829 829.844H625.289C628.105 829.844 630.232 829.243 631.669 828.04C633.136 826.837 633.869 825.136 633.869 822.936C633.869 820.736 633.136 819.035 631.669 817.832C630.232 816.629 628.105 816.028 625.289 816.028H615.829L617.809 813.828V832.044ZM643.688 843V819.68H647.736V826.016L647.34 824.432C647.985 822.819 649.07 821.587 650.596 820.736C652.121 819.885 653.998 819.46 656.228 819.46V823.552C656.052 823.523 655.876 823.508 655.7 823.508C655.553 823.508 655.406 823.508 655.26 823.508C653.001 823.508 651.212 824.183 649.892 825.532C648.572 826.881 647.912 828.832 647.912 831.384V843H643.688ZM671.207 843.264C668.86 843.264 666.778 842.751 664.959 841.724C663.14 840.697 661.703 839.289 660.647 837.5C659.591 835.681 659.063 833.628 659.063 831.34C659.063 829.023 659.591 826.969 660.647 825.18C661.703 823.391 663.14 821.997 664.959 821C666.778 819.973 668.86 819.46 671.207 819.46C673.524 819.46 675.592 819.973 677.411 821C679.259 821.997 680.696 823.391 681.723 825.18C682.779 826.94 683.307 828.993 683.307 831.34C683.307 833.657 682.779 835.711 681.723 837.5C680.696 839.289 679.259 840.697 677.411 841.724C675.592 842.751 673.524 843.264 671.207 843.264ZM671.207 839.568C672.703 839.568 674.038 839.231 675.211 838.556C676.414 837.881 677.352 836.928 678.027 835.696C678.702 834.435 679.039 832.983 679.039 831.34C679.039 829.668 678.702 828.231 678.027 827.028C677.352 825.796 676.414 824.843 675.211 824.168C674.038 823.493 672.703 823.156 671.207 823.156C669.711 823.156 668.376 823.493 667.203 824.168C666.03 824.843 665.091 825.796 664.387 827.028C663.683 828.231 663.331 829.668 663.331 831.34C663.331 832.983 663.683 834.435 664.387 835.696C665.091 836.928 666.03 837.881 667.203 838.556C668.376 839.231 669.711 839.568 671.207 839.568ZM697.157 843.264C694.81 843.264 692.991 842.633 691.701 841.372C690.41 840.111 689.765 838.307 689.765 835.96V814.576H693.989V835.784C693.989 837.045 694.297 838.013 694.913 838.688C695.558 839.363 696.467 839.7 697.641 839.7C698.961 839.7 700.061 839.333 700.941 838.6L702.261 841.636C701.615 842.193 700.838 842.604 699.929 842.868C699.049 843.132 698.125 843.264 697.157 843.264ZM685.805 823.156V819.68H700.677V823.156H685.805ZM716.582 843.264C714.235 843.264 712.153 842.751 710.334 841.724C708.515 840.697 707.078 839.289 706.022 837.5C704.966 835.681 704.438 833.628 704.438 831.34C704.438 829.023 704.966 826.969 706.022 825.18C707.078 823.391 708.515 821.997 710.334 821C712.153 819.973 714.235 819.46 716.582 819.46C718.899 819.46 720.967 819.973 722.786 821C724.634 821.997 726.071 823.391 727.098 825.18C728.154 826.94 728.682 828.993 728.682 831.34C728.682 833.657 728.154 835.711 727.098 837.5C726.071 839.289 724.634 840.697 722.786 841.724C720.967 842.751 718.899 843.264 716.582 843.264ZM716.582 839.568C718.078 839.568 719.413 839.231 720.586 838.556C721.789 837.881 722.727 836.928 723.402 835.696C724.077 834.435 724.414 832.983 724.414 831.34C724.414 829.668 724.077 828.231 723.402 827.028C722.727 825.796 721.789 824.843 720.586 824.168C719.413 823.493 718.078 823.156 716.582 823.156C715.086 823.156 713.751 823.493 712.578 824.168C711.405 824.843 710.466 825.796 709.762 827.028C709.058 828.231 708.706 829.668 708.706 831.34C708.706 832.983 709.058 834.435 709.762 835.696C710.466 836.928 711.405 837.881 712.578 838.556C713.751 839.231 715.086 839.568 716.582 839.568ZM742.532 843.264C740.185 843.264 738.366 842.633 737.076 841.372C735.785 840.111 735.14 838.307 735.14 835.96V814.576H739.364V835.784C739.364 837.045 739.672 838.013 740.288 838.688C740.933 839.363 741.842 839.7 743.016 839.7C744.336 839.7 745.436 839.333 746.316 838.6L747.636 841.636C746.99 842.193 746.213 842.604 745.304 842.868C744.424 843.132 743.5 843.264 742.532 843.264ZM731.18 823.156V819.68H746.052V823.156H731.18ZM753.325 851.8C752.21 851.8 751.125 851.609 750.069 851.228C749.013 850.876 748.103 850.348 747.341 849.644L749.145 846.476C749.731 847.033 750.377 847.459 751.081 847.752C751.785 848.045 752.533 848.192 753.325 848.192C754.351 848.192 755.202 847.928 755.877 847.4C756.551 846.872 757.182 845.933 757.769 844.584L759.221 841.372L759.661 840.844L768.813 819.68H772.949L761.641 845.332C760.966 846.975 760.203 848.265 759.353 849.204C758.531 850.143 757.622 850.803 756.625 851.184C755.627 851.595 754.527 851.8 753.325 851.8ZM758.869 843.748L748.221 819.68H752.621L761.685 840.448L758.869 843.748ZM789.255 843.264C787.319 843.264 785.544 842.824 783.931 841.944C782.347 841.035 781.071 839.7 780.103 837.94C779.164 836.18 778.695 833.98 778.695 831.34C778.695 828.7 779.149 826.5 780.059 824.74C780.997 822.98 782.259 821.66 783.843 820.78C785.456 819.9 787.26 819.46 789.255 819.46C791.543 819.46 793.567 819.959 795.327 820.956C797.087 821.953 798.48 823.347 799.507 825.136C800.533 826.896 801.047 828.964 801.047 831.34C801.047 833.716 800.533 835.799 799.507 837.588C798.48 839.377 797.087 840.771 795.327 841.768C793.567 842.765 791.543 843.264 789.255 843.264ZM776.891 851.536V819.68H780.939V825.972L780.675 831.384L781.115 836.796V851.536H776.891ZM788.903 839.568C790.399 839.568 791.733 839.231 792.907 838.556C794.109 837.881 795.048 836.928 795.723 835.696C796.427 834.435 796.779 832.983 796.779 831.34C796.779 829.668 796.427 828.231 795.723 827.028C795.048 825.796 794.109 824.843 792.907 824.168C791.733 823.493 790.399 823.156 788.903 823.156C787.436 823.156 786.101 823.493 784.899 824.168C783.725 824.843 782.787 825.796 782.083 827.028C781.408 828.231 781.071 829.668 781.071 831.34C781.071 832.983 781.408 834.435 782.083 835.696C782.787 836.928 783.725 837.881 784.899 838.556C786.101 839.231 787.436 839.568 788.903 839.568ZM806.883 843V819.68H811.107V843H806.883ZM808.995 815.192C808.174 815.192 807.484 814.928 806.927 814.4C806.399 813.872 806.135 813.227 806.135 812.464C806.135 811.672 806.399 811.012 806.927 810.484C807.484 809.956 808.174 809.692 808.995 809.692C809.816 809.692 810.491 809.956 811.019 810.484C811.576 810.983 811.855 811.613 811.855 812.376C811.855 813.168 811.591 813.843 811.063 814.4C810.535 814.928 809.846 815.192 808.995 815.192ZM831.624 819.46C833.531 819.46 835.203 819.827 836.64 820.56C838.107 821.293 839.251 822.408 840.072 823.904C840.893 825.4 841.304 827.292 841.304 829.58V843H837.08V830.064C837.08 827.805 836.523 826.104 835.408 824.96C834.323 823.816 832.783 823.244 830.788 823.244C829.292 823.244 827.987 823.537 826.872 824.124C825.757 824.711 824.892 825.576 824.276 826.72C823.689 827.864 823.396 829.287 823.396 830.988V843H819.172V819.68H823.22V825.972L822.56 824.3C823.323 822.775 824.496 821.587 826.08 820.736C827.664 819.885 829.512 819.46 831.624 819.46ZM859.329 851.8C857.188 851.8 855.105 851.492 853.081 850.876C851.087 850.289 849.459 849.439 848.197 848.324L850.221 845.068C851.307 846.007 852.641 846.74 854.225 847.268C855.809 847.825 857.467 848.104 859.197 848.104C861.955 848.104 863.979 847.459 865.269 846.168C866.56 844.877 867.205 842.912 867.205 840.272V835.344L867.645 830.724L867.425 826.06V819.68H871.429V839.832C871.429 843.939 870.403 846.96 868.349 848.896C866.296 850.832 863.289 851.8 859.329 851.8ZM858.801 842.032C856.543 842.032 854.519 841.563 852.729 840.624C850.969 839.656 849.561 838.321 848.505 836.62C847.479 834.919 846.965 832.953 846.965 830.724C846.965 828.465 847.479 826.5 848.505 824.828C849.561 823.127 850.969 821.807 852.729 820.868C854.519 819.929 856.543 819.46 858.801 819.46C860.796 819.46 862.615 819.871 864.257 820.692C865.9 821.484 867.205 822.716 868.173 824.388C869.171 826.06 869.669 828.172 869.669 830.724C869.669 833.247 869.171 835.344 868.173 837.016C867.205 838.688 865.9 839.949 864.257 840.8C862.615 841.621 860.796 842.032 858.801 842.032ZM859.285 838.336C860.84 838.336 862.219 838.013 863.421 837.368C864.624 836.723 865.563 835.828 866.237 834.684C866.941 833.54 867.293 832.22 867.293 830.724C867.293 829.228 866.941 827.908 866.237 826.764C865.563 825.62 864.624 824.74 863.421 824.124C862.219 823.479 860.84 823.156 859.285 823.156C857.731 823.156 856.337 823.479 855.105 824.124C853.903 824.74 852.949 825.62 852.245 826.764C851.571 827.908 851.233 829.228 851.233 830.724C851.233 832.22 851.571 833.54 852.245 834.684C852.949 835.828 853.903 836.723 855.105 837.368C856.337 838.013 857.731 838.336 859.285 838.336Z" fill="white"/>
<path d="M35.0922 851.92V840.989L76.9929 786.215H93.8746L52.5812 840.989L44.6869 838.56H112.092V851.92H35.0922ZM81.7295 871.23V851.92L82.2153 838.56V821.436H97.0323V871.23H81.7295Z" fill="#E75825"/>
<circle cx="72.4619" cy="827.231" r="70.4619" stroke="#E75825" stroke-width="2.76025"/>
</svg>
