<svg width="976" height="175" viewBox="0 0 976 175" fill="none" xmlns="http://www.w3.org/2000/svg">
<path d="M249.487 174.351H976L898.437 87.1569L976 0H249.487L171.924 87.1569L249.487 174.351Z" fill="#142357"/>
<path d="M333.304 103.352C329.256 103.352 326.073 102.193 323.756 99.876C321.438 97.5587 320.28 94.1707 320.28 89.712V72.2H324.68V89.536C324.68 92.968 325.428 95.476 326.924 97.06C328.449 98.644 330.59 99.436 333.348 99.436C336.134 99.436 338.276 98.644 339.772 97.06C341.297 95.476 342.06 92.968 342.06 89.536V72.2H346.328V89.712C346.328 94.1707 345.169 97.5587 342.852 99.876C340.564 102.193 337.381 103.352 333.304 103.352ZM350.871 103L363.675 85.532V88.92L351.575 72.2H356.591L366.183 85.356L364.203 85.4L373.751 72.2H378.547L366.535 88.656V85.488L379.339 103H374.279L364.071 88.964H366.007L355.931 103H350.871ZM396.341 103V72.2H408.353C411.051 72.2 413.354 72.6253 415.261 73.476C417.167 74.3267 418.634 75.5587 419.661 77.172C420.687 78.7853 421.201 80.7067 421.201 82.936C421.201 85.1653 420.687 87.0867 419.661 88.7C418.634 90.284 417.167 91.5013 415.261 92.352C413.354 93.2027 411.051 93.628 408.353 93.628H398.761L400.741 91.604V103H396.341ZM416.933 103L409.101 91.824H413.809L421.729 103H416.933ZM400.741 92.044L398.761 89.888H408.221C411.037 89.888 413.163 89.2867 414.601 88.084C416.067 86.852 416.801 85.136 416.801 82.936C416.801 80.736 416.067 79.0347 414.601 77.832C413.163 76.6293 411.037 76.028 408.221 76.028H398.761L400.741 73.828V92.044ZM438.077 103.264C435.584 103.264 433.384 102.751 431.477 101.724C429.6 100.697 428.133 99.2893 427.077 97.5C426.051 95.7107 425.537 93.6573 425.537 91.34C425.537 89.0227 426.036 86.9693 427.033 85.18C428.06 83.3907 429.453 81.9973 431.213 81C433.003 79.9733 435.012 79.46 437.241 79.46C439.5 79.46 441.495 79.9587 443.225 80.956C444.956 81.9533 446.305 83.3613 447.273 85.18C448.271 86.9693 448.769 89.0667 448.769 91.472C448.769 91.648 448.755 91.8533 448.725 92.088C448.725 92.3227 448.711 92.5427 448.681 92.748H428.837V89.712H446.481L444.765 90.768C444.795 89.272 444.487 87.9373 443.841 86.764C443.196 85.5907 442.301 84.6813 441.157 84.036C440.043 83.3613 438.737 83.024 437.241 83.024C435.775 83.024 434.469 83.3613 433.325 84.036C432.181 84.6813 431.287 85.6053 430.641 86.808C429.996 87.9813 429.673 89.3307 429.673 90.856V91.56C429.673 93.1147 430.025 94.508 430.729 95.74C431.463 96.9427 432.475 97.8813 433.765 98.556C435.056 99.2307 436.537 99.568 438.209 99.568C439.588 99.568 440.835 99.3333 441.949 98.864C443.093 98.3947 444.091 97.6907 444.941 96.752L447.273 99.48C446.217 100.712 444.897 101.651 443.313 102.296C441.759 102.941 440.013 103.264 438.077 103.264ZM461.323 103.264C459.387 103.264 457.539 103 455.779 102.472C454.048 101.944 452.684 101.299 451.687 100.536L453.447 97.192C454.444 97.8667 455.676 98.4387 457.143 98.908C458.61 99.3773 460.106 99.612 461.631 99.612C463.596 99.612 465.004 99.3333 465.855 98.776C466.735 98.2187 467.175 97.4413 467.175 96.444C467.175 95.7107 466.911 95.1387 466.383 94.728C465.855 94.3173 465.151 94.0093 464.271 93.804C463.42 93.5987 462.467 93.4227 461.411 93.276C460.355 93.1 459.299 92.8947 458.243 92.66C457.187 92.396 456.219 92.044 455.339 91.604C454.459 91.1347 453.755 90.504 453.227 89.712C452.699 88.8907 452.435 87.8053 452.435 86.456C452.435 85.048 452.831 83.816 453.623 82.76C454.415 81.704 455.53 80.8973 456.967 80.34C458.434 79.7533 460.164 79.46 462.159 79.46C463.684 79.46 465.224 79.6507 466.779 80.032C468.363 80.384 469.654 80.8973 470.651 81.572L468.847 84.916C467.791 84.212 466.691 83.728 465.547 83.464C464.403 83.2 463.259 83.068 462.115 83.068C460.267 83.068 458.888 83.376 457.979 83.992C457.07 84.5787 456.615 85.3413 456.615 86.28C456.615 87.072 456.879 87.688 457.407 88.128C457.964 88.5387 458.668 88.8613 459.519 89.096C460.399 89.3307 461.367 89.536 462.423 89.712C463.479 89.8587 464.535 90.064 465.591 90.328C466.647 90.5627 467.6 90.9 468.451 91.34C469.331 91.78 470.035 92.396 470.563 93.188C471.12 93.98 471.399 95.036 471.399 96.356C471.399 97.764 470.988 98.9813 470.167 100.008C469.346 101.035 468.187 101.841 466.691 102.428C465.195 102.985 463.406 103.264 461.323 103.264ZM487.062 103.264C484.568 103.264 482.368 102.751 480.462 101.724C478.584 100.697 477.118 99.2893 476.062 97.5C475.035 95.7107 474.522 93.6573 474.522 91.34C474.522 89.0227 475.02 86.9693 476.018 85.18C477.044 83.3907 478.438 81.9973 480.198 81C481.987 79.9733 483.996 79.46 486.226 79.46C488.484 79.46 490.479 79.9587 492.21 80.956C493.94 81.9533 495.29 83.3613 496.258 85.18C497.255 86.9693 497.754 89.0667 497.754 91.472C497.754 91.648 497.739 91.8533 497.71 92.088C497.71 92.3227 497.695 92.5427 497.666 92.748H477.822V89.712H495.466L493.75 90.768C493.779 89.272 493.471 87.9373 492.826 86.764C492.18 85.5907 491.286 84.6813 490.142 84.036C489.027 83.3613 487.722 83.024 486.226 83.024C484.759 83.024 483.454 83.3613 482.31 84.036C481.166 84.6813 480.271 85.6053 479.626 86.808C478.98 87.9813 478.658 89.3307 478.658 90.856V91.56C478.658 93.1147 479.01 94.508 479.714 95.74C480.447 96.9427 481.459 97.8813 482.75 98.556C484.04 99.2307 485.522 99.568 487.194 99.568C488.572 99.568 489.819 99.3333 490.934 98.864C492.078 98.3947 493.075 97.6907 493.926 96.752L496.258 99.48C495.202 100.712 493.882 101.651 492.298 102.296C490.743 102.941 488.998 103.264 487.062 103.264ZM517.451 103V98.072L517.231 97.148V88.744C517.231 86.9547 516.703 85.576 515.647 84.608C514.62 83.6107 513.065 83.112 510.983 83.112C509.604 83.112 508.255 83.3467 506.935 83.816C505.615 84.256 504.5 84.8573 503.591 85.62L501.831 82.452C503.033 81.484 504.471 80.7507 506.143 80.252C507.844 79.724 509.619 79.46 511.467 79.46C514.664 79.46 517.128 80.2373 518.859 81.792C520.589 83.3467 521.455 85.7227 521.455 88.92V103H517.451ZM509.795 103.264C508.064 103.264 506.539 102.971 505.219 102.384C503.928 101.797 502.931 100.991 502.227 99.964C501.523 98.908 501.171 97.72 501.171 96.4C501.171 95.1387 501.464 93.9947 502.051 92.968C502.667 91.9413 503.649 91.12 504.999 90.504C506.377 89.888 508.225 89.58 510.543 89.58H517.935V92.616H510.719C508.607 92.616 507.184 92.968 506.451 93.672C505.717 94.376 505.351 95.2267 505.351 96.224C505.351 97.368 505.805 98.292 506.715 98.996C507.624 99.6707 508.885 100.008 510.499 100.008C512.083 100.008 513.461 99.656 514.635 98.952C515.837 98.248 516.703 97.2213 517.231 95.872L518.067 98.776C517.509 100.155 516.527 101.255 515.119 102.076C513.711 102.868 511.936 103.264 509.795 103.264ZM529.272 103V79.68H533.32V86.016L532.924 84.432C533.569 82.8187 534.654 81.5867 536.18 80.736C537.705 79.8853 539.582 79.46 541.812 79.46V83.552C541.636 83.5227 541.46 83.508 541.284 83.508C541.137 83.508 540.99 83.508 540.844 83.508C538.585 83.508 536.796 84.1827 535.476 85.532C534.156 86.8813 533.496 88.832 533.496 91.384V103H529.272ZM556.967 103.264C554.591 103.264 552.464 102.751 550.587 101.724C548.739 100.697 547.287 99.2893 546.231 97.5C545.175 95.7107 544.647 93.6573 544.647 91.34C544.647 89.0227 545.175 86.9693 546.231 85.18C547.287 83.3907 548.739 81.9973 550.587 81C552.464 79.9733 554.591 79.46 556.967 79.46C559.079 79.46 560.956 79.8853 562.599 80.736C564.271 81.5573 565.561 82.7893 566.471 84.432L563.259 86.5C562.496 85.356 561.557 84.52 560.443 83.992C559.357 83.4347 558.184 83.156 556.923 83.156C555.397 83.156 554.033 83.4933 552.831 84.168C551.628 84.8427 550.675 85.796 549.971 87.028C549.267 88.2307 548.915 89.668 548.915 91.34C548.915 93.012 549.267 94.464 549.971 95.696C550.675 96.928 551.628 97.8813 552.831 98.556C554.033 99.2307 555.397 99.568 556.923 99.568C558.184 99.568 559.357 99.304 560.443 98.776C561.557 98.2187 562.496 97.368 563.259 96.224L566.471 98.248C565.561 99.8613 564.271 101.108 562.599 101.988C560.956 102.839 559.079 103.264 556.967 103.264ZM584.091 79.46C585.997 79.46 587.669 79.8267 589.107 80.56C590.573 81.2933 591.717 82.408 592.539 83.904C593.36 85.4 593.771 87.292 593.771 89.58V103H589.547V90.064C589.547 87.8053 588.989 86.104 587.875 84.96C586.789 83.816 585.249 83.244 583.255 83.244C581.759 83.244 580.453 83.5373 579.339 84.124C578.224 84.7107 577.359 85.576 576.743 86.72C576.156 87.864 575.863 89.2867 575.863 90.988V103H571.639V70.352H575.863V85.972L575.027 84.3C575.789 82.7747 576.963 81.5867 578.547 80.736C580.131 79.8853 581.979 79.46 584.091 79.46ZM622.16 103.352C620.078 103.352 618.23 103.015 616.616 102.34C615.003 101.665 613.727 100.727 612.788 99.524C611.85 98.3213 611.38 96.928 611.38 95.344C611.38 93.9653 611.688 92.704 612.304 91.56C612.92 90.416 613.903 89.316 615.252 88.26C616.602 87.1747 618.376 86.06 620.576 84.916C622.366 83.9773 623.759 83.156 624.756 82.452C625.783 81.748 626.502 81.088 626.912 80.472C627.352 79.8267 627.572 79.1373 627.572 78.404C627.572 77.4067 627.22 76.6 626.516 75.984C625.812 75.3387 624.8 75.016 623.48 75.016C622.102 75.016 621.016 75.368 620.224 76.072C619.462 76.7467 619.08 77.6413 619.08 78.756C619.08 79.3133 619.168 79.856 619.344 80.384C619.55 80.8827 619.902 81.4547 620.4 82.1C620.928 82.716 621.676 83.508 622.644 84.476L638.924 100.668L636.548 103.484L619.256 86.28C618.23 85.2533 617.423 84.344 616.836 83.552C616.25 82.7307 615.824 81.9387 615.56 81.176C615.296 80.4133 615.164 79.636 615.164 78.844C615.164 77.4653 615.502 76.2627 616.176 75.236C616.88 74.18 617.848 73.3733 619.08 72.816C620.342 72.2293 621.808 71.936 623.48 71.936C625.035 71.936 626.384 72.2 627.528 72.728C628.672 73.2267 629.552 73.96 630.168 74.928C630.814 75.8667 631.136 77.0107 631.136 78.36C631.136 79.5333 630.843 80.6187 630.256 81.616C629.699 82.6133 628.79 83.5813 627.528 84.52C626.267 85.4587 624.566 86.4707 622.424 87.556C620.664 88.4653 619.286 89.316 618.288 90.108C617.291 90.8707 616.572 91.6333 616.132 92.396C615.722 93.1587 615.516 93.9947 615.516 94.904C615.516 95.872 615.795 96.7373 616.352 97.5C616.939 98.2333 617.746 98.8053 618.772 99.216C619.828 99.6267 621.046 99.832 622.424 99.832C624.39 99.832 626.164 99.4067 627.748 98.556C629.332 97.7053 630.652 96.4293 631.708 94.728C632.794 93.0267 633.586 90.9147 634.084 88.392L637.472 89.492C636.886 92.4547 635.874 94.9627 634.436 97.016C633.028 99.0693 631.283 100.639 629.2 101.724C627.118 102.809 624.771 103.352 622.16 103.352ZM651.337 103L665.285 72.2H669.641L683.633 103H679.013L666.561 74.664H668.321L655.869 103H651.337ZM657.277 95.3L658.465 91.78H675.801L677.077 95.3H657.277ZM700.063 79.46C701.97 79.46 703.642 79.8267 705.079 80.56C706.546 81.2933 707.69 82.408 708.511 83.904C709.333 85.4 709.743 87.292 709.743 89.58V103H705.519V90.064C705.519 87.8053 704.962 86.104 703.847 84.96C702.762 83.816 701.222 83.244 699.227 83.244C697.731 83.244 696.426 83.5373 695.311 84.124C694.197 84.7107 693.331 85.576 692.715 86.72C692.129 87.864 691.835 89.2867 691.835 90.988V103H687.611V79.68H691.659V85.972L690.999 84.3C691.762 82.7747 692.935 81.5867 694.519 80.736C696.103 79.8853 697.951 79.46 700.063 79.46ZM732.037 103V98.072L731.817 97.148V88.744C731.817 86.9547 731.289 85.576 730.233 84.608C729.206 83.6107 727.651 83.112 725.569 83.112C724.19 83.112 722.841 83.3467 721.521 83.816C720.201 84.256 719.086 84.8573 718.177 85.62L716.417 82.452C717.619 81.484 719.057 80.7507 720.729 80.252C722.43 79.724 724.205 79.46 726.053 79.46C729.25 79.46 731.714 80.2373 733.445 81.792C735.175 83.3467 736.041 85.7227 736.041 88.92V103H732.037ZM724.381 103.264C722.65 103.264 721.125 102.971 719.805 102.384C718.514 101.797 717.517 100.991 716.813 99.964C716.109 98.908 715.757 97.72 715.757 96.4C715.757 95.1387 716.05 93.9947 716.637 92.968C717.253 91.9413 718.235 91.12 719.585 90.504C720.963 89.888 722.811 89.58 725.129 89.58H732.521V92.616H725.305C723.193 92.616 721.77 92.968 721.037 93.672C720.303 94.376 719.937 95.2267 719.937 96.224C719.937 97.368 720.391 98.292 721.301 98.996C722.21 99.6707 723.471 100.008 725.085 100.008C726.669 100.008 728.047 99.656 729.221 98.952C730.423 98.248 731.289 97.2213 731.817 95.872L732.653 98.776C732.095 100.155 731.113 101.255 729.705 102.076C728.297 102.868 726.522 103.264 724.381 103.264ZM743.858 103V70.352H748.082V103H743.858ZM757.159 111.8C756.044 111.8 754.959 111.609 753.903 111.228C752.847 110.876 751.937 110.348 751.175 109.644L752.979 106.476C753.565 107.033 754.211 107.459 754.915 107.752C755.619 108.045 756.367 108.192 757.159 108.192C758.185 108.192 759.036 107.928 759.711 107.4C760.385 106.872 761.016 105.933 761.603 104.584L763.055 101.372L763.495 100.844L772.647 79.68H776.783L765.475 105.332C764.8 106.975 764.037 108.265 763.187 109.204C762.365 110.143 761.456 110.803 760.459 111.184C759.461 111.595 758.361 111.8 757.159 111.8ZM762.703 103.748L752.055 79.68H756.455L765.519 100.448L762.703 103.748ZM787.112 103.264C785.176 103.264 783.328 103 781.568 102.472C779.837 101.944 778.473 101.299 777.476 100.536L779.236 97.192C780.233 97.8667 781.465 98.4387 782.932 98.908C784.399 99.3773 785.895 99.612 787.42 99.612C789.385 99.612 790.793 99.3333 791.644 98.776C792.524 98.2187 792.964 97.4413 792.964 96.444C792.964 95.7107 792.7 95.1387 792.172 94.728C791.644 94.3173 790.94 94.0093 790.06 93.804C789.209 93.5987 788.256 93.4227 787.2 93.276C786.144 93.1 785.088 92.8947 784.032 92.66C782.976 92.396 782.008 92.044 781.128 91.604C780.248 91.1347 779.544 90.504 779.016 89.712C778.488 88.8907 778.224 87.8053 778.224 86.456C778.224 85.048 778.62 83.816 779.412 82.76C780.204 81.704 781.319 80.8973 782.756 80.34C784.223 79.7533 785.953 79.46 787.948 79.46C789.473 79.46 791.013 79.6507 792.568 80.032C794.152 80.384 795.443 80.8973 796.44 81.572L794.636 84.916C793.58 84.212 792.48 83.728 791.336 83.464C790.192 83.2 789.048 83.068 787.904 83.068C786.056 83.068 784.677 83.376 783.768 83.992C782.859 84.5787 782.404 85.3413 782.404 86.28C782.404 87.072 782.668 87.688 783.196 88.128C783.753 88.5387 784.457 88.8613 785.308 89.096C786.188 89.3307 787.156 89.536 788.212 89.712C789.268 89.8587 790.324 90.064 791.38 90.328C792.436 90.5627 793.389 90.9 794.24 91.34C795.12 91.78 795.824 92.396 796.352 93.188C796.909 93.98 797.188 95.036 797.188 96.356C797.188 97.764 796.777 98.9813 795.956 100.008C795.135 101.035 793.976 101.841 792.48 102.428C790.984 102.985 789.195 103.264 787.112 103.264ZM802.467 103V79.68H806.691V103H802.467ZM804.579 75.192C803.758 75.192 803.068 74.928 802.511 74.4C801.983 73.872 801.719 73.2267 801.719 72.464C801.719 71.672 801.983 71.012 802.511 70.484C803.068 69.956 803.758 69.692 804.579 69.692C805.4 69.692 806.075 69.956 806.603 70.484C807.16 70.9827 807.439 71.6133 807.439 72.376C807.439 73.168 807.175 73.8427 806.647 74.4C806.119 74.928 805.43 75.192 804.579 75.192ZM821.444 103.264C819.508 103.264 817.66 103 815.9 102.472C814.169 101.944 812.805 101.299 811.808 100.536L813.568 97.192C814.565 97.8667 815.797 98.4387 817.264 98.908C818.731 99.3773 820.227 99.612 821.752 99.612C823.717 99.612 825.125 99.3333 825.976 98.776C826.856 98.2187 827.296 97.4413 827.296 96.444C827.296 95.7107 827.032 95.1387 826.504 94.728C825.976 94.3173 825.272 94.0093 824.392 93.804C823.541 93.5987 822.588 93.4227 821.532 93.276C820.476 93.1 819.42 92.8947 818.364 92.66C817.308 92.396 816.34 92.044 815.46 91.604C814.58 91.1347 813.876 90.504 813.348 89.712C812.82 88.8907 812.556 87.8053 812.556 86.456C812.556 85.048 812.952 83.816 813.744 82.76C814.536 81.704 815.651 80.8973 817.088 80.34C818.555 79.7533 820.285 79.46 822.28 79.46C823.805 79.46 825.345 79.6507 826.9 80.032C828.484 80.384 829.775 80.8973 830.772 81.572L828.968 84.916C827.912 84.212 826.812 83.728 825.668 83.464C824.524 83.2 823.38 83.068 822.236 83.068C820.388 83.068 819.009 83.376 818.1 83.992C817.191 84.5787 816.736 85.3413 816.736 86.28C816.736 87.072 817 87.688 817.528 88.128C818.085 88.5387 818.789 88.8613 819.64 89.096C820.52 89.3307 821.488 89.536 822.544 89.712C823.6 89.8587 824.656 90.064 825.712 90.328C826.768 90.5627 827.721 90.9 828.572 91.34C829.452 91.78 830.156 92.396 830.684 93.188C831.241 93.98 831.52 95.036 831.52 96.356C831.52 97.764 831.109 98.9813 830.288 100.008C829.467 101.035 828.308 101.841 826.812 102.428C825.316 102.985 823.527 103.264 821.444 103.264Z" fill="white"/>
<path d="M41.2137 132V121.434L74.9771 89.3707C77.811 86.6987 79.9161 84.3507 81.2925 82.3265C82.669 80.3023 83.5596 78.4401 83.9645 76.7397C84.4503 74.9585 84.6932 73.2986 84.6932 71.7602C84.6932 67.8738 83.3572 64.878 80.6853 62.7729C78.0134 60.5867 74.0864 59.4937 68.9045 59.4937C64.7752 59.4937 61.0102 60.2224 57.6096 61.6798C54.2899 63.1372 51.4156 65.3638 48.9866 68.3596L37.9345 59.858C41.2542 55.4048 45.7074 51.9637 51.2941 49.5347C56.9618 47.0247 63.2773 45.7697 70.2405 45.7697C76.394 45.7697 81.7379 46.7818 86.272 48.806C90.8872 50.7492 94.4093 53.5426 96.8383 57.1861C99.3483 60.8296 100.603 65.1614 100.603 70.1814C100.603 72.9343 100.239 75.6872 99.5102 78.4401C98.7815 81.112 97.4051 83.9458 95.3809 86.9416C93.3567 89.9374 90.4014 93.2976 86.5149 97.0221L57.4881 124.591L54.2089 118.64H103.882V132H41.2137Z" fill="#142357"/>
<circle cx="72.4619" cy="87.999" r="70.4619" stroke="#142357" stroke-width="2.76025"/>
</svg>
