<svg width="977" height="175" viewBox="0 0 977 175" fill="none" xmlns="http://www.w3.org/2000/svg">
<path d="M249.95 174.406H976.463L898.9 87.2023L976.463 0.0546875H249.95L172.387 87.2023L249.95 174.406Z" fill="#E75825"/>
<path d="M284.091 103L273.795 72.2H278.327L287.787 100.624H285.499L295.311 72.2H299.359L308.951 100.624H306.751L316.343 72.2H320.523L310.227 103H305.607L296.631 76.644H297.819L288.799 103H284.091ZM325.289 103V79.68H329.513V103H325.289ZM327.401 75.192C326.58 75.192 325.89 74.928 325.333 74.4C324.805 73.872 324.541 73.2267 324.541 72.464C324.541 71.672 324.805 71.012 325.333 70.484C325.89 69.956 326.58 69.692 327.401 69.692C328.222 69.692 328.897 69.956 329.425 70.484C329.982 70.9827 330.261 71.6133 330.261 72.376C330.261 73.168 329.997 73.8427 329.469 74.4C328.941 74.928 328.252 75.192 327.401 75.192ZM337.578 103V79.68H341.626V86.016L341.23 84.432C341.876 82.8187 342.961 81.5867 344.486 80.736C346.012 79.8853 347.889 79.46 350.118 79.46V83.552C349.942 83.5227 349.766 83.508 349.59 83.508C349.444 83.508 349.297 83.508 349.15 83.508C346.892 83.508 345.102 84.1827 343.782 85.532C342.462 86.8813 341.802 88.832 341.802 91.384V103H337.578ZM365.493 103.264C363 103.264 360.8 102.751 358.893 101.724C357.016 100.697 355.549 99.2893 354.493 97.5C353.467 95.7107 352.953 93.6573 352.953 91.34C352.953 89.0227 353.452 86.9693 354.449 85.18C355.476 83.3907 356.869 81.9973 358.629 81C360.419 79.9733 362.428 79.46 364.657 79.46C366.916 79.46 368.911 79.9587 370.641 80.956C372.372 81.9533 373.721 83.3613 374.689 85.18C375.687 86.9693 376.185 89.0667 376.185 91.472C376.185 91.648 376.171 91.8533 376.141 92.088C376.141 92.3227 376.127 92.5427 376.097 92.748H356.253V89.712H373.897L372.181 90.768C372.211 89.272 371.903 87.9373 371.257 86.764C370.612 85.5907 369.717 84.6813 368.573 84.036C367.459 83.3613 366.153 83.024 364.657 83.024C363.191 83.024 361.885 83.3613 360.741 84.036C359.597 84.6813 358.703 85.6053 358.057 86.808C357.412 87.9813 357.089 89.3307 357.089 90.856V91.56C357.089 93.1147 357.441 94.508 358.145 95.74C358.879 96.9427 359.891 97.8813 361.181 98.556C362.472 99.2307 363.953 99.568 365.625 99.568C367.004 99.568 368.251 99.3333 369.365 98.864C370.509 98.3947 371.507 97.6907 372.357 96.752L374.689 99.48C373.633 100.712 372.313 101.651 370.729 102.296C369.175 102.941 367.429 103.264 365.493 103.264ZM382.667 103V77.612C382.667 75.324 383.327 73.5053 384.647 72.156C385.996 70.7773 387.903 70.088 390.367 70.088C391.276 70.088 392.142 70.2053 392.963 70.44C393.814 70.6453 394.532 70.9827 395.119 71.452L393.843 74.664C393.403 74.312 392.904 74.048 392.347 73.872C391.79 73.6667 391.203 73.564 390.587 73.564C389.355 73.564 388.416 73.916 387.771 74.62C387.126 75.2947 386.803 76.3067 386.803 77.656V80.78L386.891 82.716V103H382.667ZM378.707 83.156V79.68H393.579V83.156H378.707ZM397.563 103V79.68H401.611V86.016L401.215 84.432C401.86 82.8187 402.945 81.5867 404.471 80.736C405.996 79.8853 407.873 79.46 410.103 79.46V83.552C409.927 83.5227 409.751 83.508 409.575 83.508C409.428 83.508 409.281 83.508 409.135 83.508C406.876 83.508 405.087 84.1827 403.767 85.532C402.447 86.8813 401.787 88.832 401.787 91.384V103H397.563ZM428.066 103V98.072L427.846 97.148V88.744C427.846 86.9547 427.318 85.576 426.262 84.608C425.235 83.6107 423.681 83.112 421.598 83.112C420.219 83.112 418.87 83.3467 417.55 83.816C416.23 84.256 415.115 84.8573 414.206 85.62L412.446 82.452C413.649 81.484 415.086 80.7507 416.758 80.252C418.459 79.724 420.234 79.46 422.082 79.46C425.279 79.46 427.743 80.2373 429.474 81.792C431.205 83.3467 432.07 85.7227 432.07 88.92V103H428.066ZM420.41 103.264C418.679 103.264 417.154 102.971 415.834 102.384C414.543 101.797 413.546 100.991 412.842 99.964C412.138 98.908 411.786 97.72 411.786 96.4C411.786 95.1387 412.079 93.9947 412.666 92.968C413.282 91.9413 414.265 91.12 415.614 90.504C416.993 89.888 418.841 89.58 421.158 89.58H428.55V92.616H421.334C419.222 92.616 417.799 92.968 417.066 93.672C416.333 94.376 415.966 95.2267 415.966 96.224C415.966 97.368 416.421 98.292 417.33 98.996C418.239 99.6707 419.501 100.008 421.114 100.008C422.698 100.008 424.077 99.656 425.25 98.952C426.453 98.248 427.318 97.2213 427.846 95.872L428.682 98.776C428.125 100.155 427.142 101.255 425.734 102.076C424.326 102.868 422.551 103.264 420.41 103.264ZM469.059 79.46C470.936 79.46 472.593 79.8267 474.031 80.56C475.468 81.2933 476.583 82.408 477.375 83.904C478.196 85.4 478.607 87.292 478.607 89.58V103H474.383V90.064C474.383 87.8053 473.855 86.104 472.799 84.96C471.743 83.816 470.261 83.244 468.355 83.244C466.947 83.244 465.715 83.5373 464.659 84.124C463.603 84.7107 462.781 85.576 462.195 86.72C461.637 87.864 461.359 89.2867 461.359 90.988V103H457.135V90.064C457.135 87.8053 456.607 86.104 455.551 84.96C454.524 83.816 453.043 83.244 451.107 83.244C449.728 83.244 448.511 83.5373 447.455 84.124C446.399 84.7107 445.577 85.576 444.991 86.72C444.404 87.864 444.111 89.2867 444.111 90.988V103H439.887V79.68H443.935V85.884L443.275 84.3C444.008 82.7747 445.137 81.5867 446.663 80.736C448.188 79.8853 449.963 79.46 451.987 79.46C454.216 79.46 456.137 80.0173 457.751 81.132C459.364 82.2173 460.42 83.8747 460.919 86.104L459.203 85.4C459.907 83.6107 461.139 82.1733 462.899 81.088C464.659 80.0027 466.712 79.46 469.059 79.46ZM486.379 103V79.68H490.603V103H486.379ZM488.491 75.192C487.67 75.192 486.98 74.928 486.423 74.4C485.895 73.872 485.631 73.2267 485.631 72.464C485.631 71.672 485.895 71.012 486.423 70.484C486.98 69.956 487.67 69.692 488.491 69.692C489.312 69.692 489.987 69.956 490.515 70.484C491.072 70.9827 491.351 71.6133 491.351 72.376C491.351 73.168 491.087 73.8427 490.559 74.4C490.031 74.928 489.342 75.192 488.491 75.192ZM511.12 79.46C513.027 79.46 514.699 79.8267 516.136 80.56C517.603 81.2933 518.747 82.408 519.568 83.904C520.389 85.4 520.8 87.292 520.8 89.58V103H516.576V90.064C516.576 87.8053 516.019 86.104 514.904 84.96C513.819 83.816 512.279 83.244 510.284 83.244C508.788 83.244 507.483 83.5373 506.368 84.124C505.253 84.7107 504.388 85.576 503.772 86.72C503.185 87.864 502.892 89.2867 502.892 90.988V103H498.668V79.68H502.716V85.972L502.056 84.3C502.819 82.7747 503.992 81.5867 505.576 80.736C507.16 79.8853 509.008 79.46 511.12 79.46ZM538.825 111.8C536.684 111.8 534.601 111.492 532.577 110.876C530.583 110.289 528.955 109.439 527.693 108.324L529.717 105.068C530.803 106.007 532.137 106.74 533.721 107.268C535.305 107.825 536.963 108.104 538.693 108.104C541.451 108.104 543.475 107.459 544.765 106.168C546.056 104.877 546.701 102.912 546.701 100.272V95.344L547.141 90.724L546.921 86.06V79.68H550.925V99.832C550.925 103.939 549.899 106.96 547.845 108.896C545.792 110.832 542.785 111.8 538.825 111.8ZM538.297 102.032C536.039 102.032 534.015 101.563 532.225 100.624C530.465 99.656 529.057 98.3213 528.001 96.62C526.975 94.9187 526.461 92.9533 526.461 90.724C526.461 88.4653 526.975 86.5 528.001 84.828C529.057 83.1267 530.465 81.8067 532.225 80.868C534.015 79.9293 536.039 79.46 538.297 79.46C540.292 79.46 542.111 79.8707 543.753 80.692C545.396 81.484 546.701 82.716 547.669 84.388C548.667 86.06 549.165 88.172 549.165 90.724C549.165 93.2467 548.667 95.344 547.669 97.016C546.701 98.688 545.396 99.9493 543.753 100.8C542.111 101.621 540.292 102.032 538.297 102.032ZM538.781 98.336C540.336 98.336 541.715 98.0133 542.917 97.368C544.12 96.7227 545.059 95.828 545.733 94.684C546.437 93.54 546.789 92.22 546.789 90.724C546.789 89.228 546.437 87.908 545.733 86.764C545.059 85.62 544.12 84.74 542.917 84.124C541.715 83.4787 540.336 83.156 538.781 83.156C537.227 83.156 535.833 83.4787 534.601 84.124C533.399 84.74 532.445 85.62 531.741 86.764C531.067 87.908 530.729 89.228 530.729 90.724C530.729 92.22 531.067 93.54 531.741 94.684C532.445 95.828 533.399 96.7227 534.601 97.368C535.833 98.0133 537.227 98.336 538.781 98.336ZM579.569 103.352C577.486 103.352 575.638 103.015 574.025 102.34C572.411 101.665 571.135 100.727 570.197 99.524C569.258 98.3213 568.789 96.928 568.789 95.344C568.789 93.9653 569.097 92.704 569.713 91.56C570.329 90.416 571.311 89.316 572.661 88.26C574.01 87.1747 575.785 86.06 577.985 84.916C579.774 83.9773 581.167 83.156 582.165 82.452C583.191 81.748 583.91 81.088 584.321 80.472C584.761 79.8267 584.981 79.1373 584.981 78.404C584.981 77.4067 584.629 76.6 583.925 75.984C583.221 75.3387 582.209 75.016 580.889 75.016C579.51 75.016 578.425 75.368 577.633 76.072C576.87 76.7467 576.489 77.6413 576.489 78.756C576.489 79.3133 576.577 79.856 576.753 80.384C576.958 80.8827 577.31 81.4547 577.809 82.1C578.337 82.716 579.085 83.508 580.053 84.476L596.333 100.668L593.957 103.484L576.665 86.28C575.638 85.2533 574.831 84.344 574.245 83.552C573.658 82.7307 573.233 81.9387 572.969 81.176C572.705 80.4133 572.573 79.636 572.573 78.844C572.573 77.4653 572.91 76.2627 573.585 75.236C574.289 74.18 575.257 73.3733 576.489 72.816C577.75 72.2293 579.217 71.936 580.889 71.936C582.443 71.936 583.793 72.2 584.937 72.728C586.081 73.2267 586.961 73.96 587.577 74.928C588.222 75.8667 588.545 77.0107 588.545 78.36C588.545 79.5333 588.251 80.6187 587.665 81.616C587.107 82.6133 586.198 83.5813 584.937 84.52C583.675 85.4587 581.974 86.4707 579.833 87.556C578.073 88.4653 576.694 89.316 575.697 90.108C574.699 90.8707 573.981 91.6333 573.541 92.396C573.13 93.1587 572.925 93.9947 572.925 94.904C572.925 95.872 573.203 96.7373 573.761 97.5C574.347 98.2333 575.154 98.8053 576.181 99.216C577.237 99.6267 578.454 99.832 579.833 99.832C581.798 99.832 583.573 99.4067 585.157 98.556C586.741 97.7053 588.061 96.4293 589.117 94.728C590.202 93.0267 590.994 90.9147 591.493 88.392L594.881 89.492C594.294 92.4547 593.282 94.9627 591.845 97.016C590.437 99.0693 588.691 100.639 586.609 101.724C584.526 102.809 582.179 103.352 579.569 103.352ZM613.409 103V72.2H625.421C628.12 72.2 630.422 72.6253 632.329 73.476C634.236 74.3267 635.702 75.5587 636.729 77.172C637.756 78.7853 638.269 80.7067 638.269 82.936C638.269 85.1653 637.756 87.0867 636.729 88.7C635.702 90.284 634.236 91.516 632.329 92.396C630.422 93.2467 628.12 93.672 625.421 93.672H615.829L617.809 91.604V103H613.409ZM617.809 92.044L615.829 89.844H625.289C628.105 89.844 630.232 89.2427 631.669 88.04C633.136 86.8373 633.869 85.136 633.869 82.936C633.869 80.736 633.136 79.0347 631.669 77.832C630.232 76.6293 628.105 76.028 625.289 76.028H615.829L617.809 73.828V92.044ZM643.688 103V79.68H647.736V86.016L647.34 84.432C647.985 82.8187 649.07 81.5867 650.596 80.736C652.121 79.8853 653.998 79.46 656.228 79.46V83.552C656.052 83.5227 655.876 83.508 655.7 83.508C655.553 83.508 655.406 83.508 655.26 83.508C653.001 83.508 651.212 84.1827 649.892 85.532C648.572 86.8813 647.912 88.832 647.912 91.384V103H643.688ZM671.207 103.264C668.86 103.264 666.778 102.751 664.959 101.724C663.14 100.697 661.703 99.2893 660.647 97.5C659.591 95.6813 659.063 93.628 659.063 91.34C659.063 89.0227 659.591 86.9693 660.647 85.18C661.703 83.3907 663.14 81.9973 664.959 81C666.778 79.9733 668.86 79.46 671.207 79.46C673.524 79.46 675.592 79.9733 677.411 81C679.259 81.9973 680.696 83.3907 681.723 85.18C682.779 86.94 683.307 88.9933 683.307 91.34C683.307 93.6573 682.779 95.7107 681.723 97.5C680.696 99.2893 679.259 100.697 677.411 101.724C675.592 102.751 673.524 103.264 671.207 103.264ZM671.207 99.568C672.703 99.568 674.038 99.2307 675.211 98.556C676.414 97.8813 677.352 96.928 678.027 95.696C678.702 94.4347 679.039 92.9827 679.039 91.34C679.039 89.668 678.702 88.2307 678.027 87.028C677.352 85.796 676.414 84.8427 675.211 84.168C674.038 83.4933 672.703 83.156 671.207 83.156C669.711 83.156 668.376 83.4933 667.203 84.168C666.03 84.8427 665.091 85.796 664.387 87.028C663.683 88.2307 663.331 89.668 663.331 91.34C663.331 92.9827 663.683 94.4347 664.387 95.696C665.091 96.928 666.03 97.8813 667.203 98.556C668.376 99.2307 669.711 99.568 671.207 99.568ZM697.157 103.264C694.81 103.264 692.991 102.633 691.701 101.372C690.41 100.111 689.765 98.3067 689.765 95.96V74.576H693.989V95.784C693.989 97.0453 694.297 98.0133 694.913 98.688C695.558 99.3627 696.467 99.7 697.641 99.7C698.961 99.7 700.061 99.3333 700.941 98.6L702.261 101.636C701.615 102.193 700.838 102.604 699.929 102.868C699.049 103.132 698.125 103.264 697.157 103.264ZM685.805 83.156V79.68H700.677V83.156H685.805ZM716.582 103.264C714.235 103.264 712.153 102.751 710.334 101.724C708.515 100.697 707.078 99.2893 706.022 97.5C704.966 95.6813 704.438 93.628 704.438 91.34C704.438 89.0227 704.966 86.9693 706.022 85.18C707.078 83.3907 708.515 81.9973 710.334 81C712.153 79.9733 714.235 79.46 716.582 79.46C718.899 79.46 720.967 79.9733 722.786 81C724.634 81.9973 726.071 83.3907 727.098 85.18C728.154 86.94 728.682 88.9933 728.682 91.34C728.682 93.6573 728.154 95.7107 727.098 97.5C726.071 99.2893 724.634 100.697 722.786 101.724C720.967 102.751 718.899 103.264 716.582 103.264ZM716.582 99.568C718.078 99.568 719.413 99.2307 720.586 98.556C721.789 97.8813 722.727 96.928 723.402 95.696C724.077 94.4347 724.414 92.9827 724.414 91.34C724.414 89.668 724.077 88.2307 723.402 87.028C722.727 85.796 721.789 84.8427 720.586 84.168C719.413 83.4933 718.078 83.156 716.582 83.156C715.086 83.156 713.751 83.4933 712.578 84.168C711.405 84.8427 710.466 85.796 709.762 87.028C709.058 88.2307 708.706 89.668 708.706 91.34C708.706 92.9827 709.058 94.4347 709.762 95.696C710.466 96.928 711.405 97.8813 712.578 98.556C713.751 99.2307 715.086 99.568 716.582 99.568ZM742.532 103.264C740.185 103.264 738.366 102.633 737.076 101.372C735.785 100.111 735.14 98.3067 735.14 95.96V74.576H739.364V95.784C739.364 97.0453 739.672 98.0133 740.288 98.688C740.933 99.3627 741.842 99.7 743.016 99.7C744.336 99.7 745.436 99.3333 746.316 98.6L747.636 101.636C746.99 102.193 746.213 102.604 745.304 102.868C744.424 103.132 743.5 103.264 742.532 103.264ZM731.18 83.156V79.68H746.052V83.156H731.18ZM753.325 111.8C752.21 111.8 751.125 111.609 750.069 111.228C749.013 110.876 748.103 110.348 747.341 109.644L749.145 106.476C749.731 107.033 750.377 107.459 751.081 107.752C751.785 108.045 752.533 108.192 753.325 108.192C754.351 108.192 755.202 107.928 755.877 107.4C756.551 106.872 757.182 105.933 757.769 104.584L759.221 101.372L759.661 100.844L768.813 79.68H772.949L761.641 105.332C760.966 106.975 760.203 108.265 759.353 109.204C758.531 110.143 757.622 110.803 756.625 111.184C755.627 111.595 754.527 111.8 753.325 111.8ZM758.869 103.748L748.221 79.68H752.621L761.685 100.448L758.869 103.748ZM789.255 103.264C787.319 103.264 785.544 102.824 783.931 101.944C782.347 101.035 781.071 99.7 780.103 97.94C779.164 96.18 778.695 93.98 778.695 91.34C778.695 88.7 779.149 86.5 780.059 84.74C780.997 82.98 782.259 81.66 783.843 80.78C785.456 79.9 787.26 79.46 789.255 79.46C791.543 79.46 793.567 79.9587 795.327 80.956C797.087 81.9533 798.48 83.3467 799.507 85.136C800.533 86.896 801.047 88.964 801.047 91.34C801.047 93.716 800.533 95.7987 799.507 97.588C798.48 99.3773 797.087 100.771 795.327 101.768C793.567 102.765 791.543 103.264 789.255 103.264ZM776.891 111.536V79.68H780.939V85.972L780.675 91.384L781.115 96.796V111.536H776.891ZM788.903 99.568C790.399 99.568 791.733 99.2307 792.907 98.556C794.109 97.8813 795.048 96.928 795.723 95.696C796.427 94.4347 796.779 92.9827 796.779 91.34C796.779 89.668 796.427 88.2307 795.723 87.028C795.048 85.796 794.109 84.8427 792.907 84.168C791.733 83.4933 790.399 83.156 788.903 83.156C787.436 83.156 786.101 83.4933 784.899 84.168C783.725 84.8427 782.787 85.796 782.083 87.028C781.408 88.2307 781.071 89.668 781.071 91.34C781.071 92.9827 781.408 94.4347 782.083 95.696C782.787 96.928 783.725 97.8813 784.899 98.556C786.101 99.2307 787.436 99.568 788.903 99.568ZM806.883 103V79.68H811.107V103H806.883ZM808.995 75.192C808.174 75.192 807.484 74.928 806.927 74.4C806.399 73.872 806.135 73.2267 806.135 72.464C806.135 71.672 806.399 71.012 806.927 70.484C807.484 69.956 808.174 69.692 808.995 69.692C809.816 69.692 810.491 69.956 811.019 70.484C811.576 70.9827 811.855 71.6133 811.855 72.376C811.855 73.168 811.591 73.8427 811.063 74.4C810.535 74.928 809.846 75.192 808.995 75.192ZM831.624 79.46C833.531 79.46 835.203 79.8267 836.64 80.56C838.107 81.2933 839.251 82.408 840.072 83.904C840.893 85.4 841.304 87.292 841.304 89.58V103H837.08V90.064C837.08 87.8053 836.523 86.104 835.408 84.96C834.323 83.816 832.783 83.244 830.788 83.244C829.292 83.244 827.987 83.5373 826.872 84.124C825.757 84.7107 824.892 85.576 824.276 86.72C823.689 87.864 823.396 89.2867 823.396 90.988V103H819.172V79.68H823.22V85.972L822.56 84.3C823.323 82.7747 824.496 81.5867 826.08 80.736C827.664 79.8853 829.512 79.46 831.624 79.46ZM859.329 111.8C857.188 111.8 855.105 111.492 853.081 110.876C851.087 110.289 849.459 109.439 848.197 108.324L850.221 105.068C851.307 106.007 852.641 106.74 854.225 107.268C855.809 107.825 857.467 108.104 859.197 108.104C861.955 108.104 863.979 107.459 865.269 106.168C866.56 104.877 867.205 102.912 867.205 100.272V95.344L867.645 90.724L867.425 86.06V79.68H871.429V99.832C871.429 103.939 870.403 106.96 868.349 108.896C866.296 110.832 863.289 111.8 859.329 111.8ZM858.801 102.032C856.543 102.032 854.519 101.563 852.729 100.624C850.969 99.656 849.561 98.3213 848.505 96.62C847.479 94.9187 846.965 92.9533 846.965 90.724C846.965 88.4653 847.479 86.5 848.505 84.828C849.561 83.1267 850.969 81.8067 852.729 80.868C854.519 79.9293 856.543 79.46 858.801 79.46C860.796 79.46 862.615 79.8707 864.257 80.692C865.9 81.484 867.205 82.716 868.173 84.388C869.171 86.06 869.669 88.172 869.669 90.724C869.669 93.2467 869.171 95.344 868.173 97.016C867.205 98.688 865.9 99.9493 864.257 100.8C862.615 101.621 860.796 102.032 858.801 102.032ZM859.285 98.336C860.84 98.336 862.219 98.0133 863.421 97.368C864.624 96.7227 865.563 95.828 866.237 94.684C866.941 93.54 867.293 92.22 867.293 90.724C867.293 89.228 866.941 87.908 866.237 86.764C865.563 85.62 864.624 84.74 863.421 84.124C862.219 83.4787 860.84 83.156 859.285 83.156C857.731 83.156 856.337 83.4787 855.105 84.124C853.903 84.74 852.949 85.62 852.245 86.764C851.571 87.908 851.233 89.228 851.233 90.724C851.233 92.22 851.571 93.54 852.245 94.684C852.949 95.828 853.903 96.7227 855.105 97.368C856.337 98.0133 857.731 98.336 859.285 98.336Z" fill="white"/>
<path d="M35.0922 111.92V100.989L76.9929 46.2147H93.8746L52.5812 100.989L44.6869 98.5601H112.092V111.92H35.0922ZM81.7295 131.23V111.92L82.2153 98.5601V81.4355H97.0323V131.23H81.7295Z" fill="#E75825"/>
<circle cx="72.4619" cy="87.2314" r="70.4619" stroke="#E75825" stroke-width="2.76025"/>
</svg>
