<svg xmlns="http://www.w3.org/2000/svg" width="60.6" height="53.913" viewBox="0 0 60.6 53.913">
  <path id="Path_8660" data-name="Path 8660" d="M-14369.159-494.123c-7.092-2.307-10.487-11.413-7.587-20.342.915-2.821,4.665-12.773,10.867-19.705,6.5-7.262,15.564-11.482,17.948-13.062,4.523-3-13.077,20.006-10.723,20.772,7.092,2.3,10.487,11.41,7.583,20.338-2.445,7.533-8.59,12.532-14.706,12.533A10.907,10.907,0,0,1-14369.159-494.123Zm-30,0c-7.092-2.307-10.487-11.413-7.587-20.342.918-2.821,4.669-12.773,10.867-19.705,6.5-7.262,15.564-11.482,17.947-13.062,4.524-3-13.076,20.006-10.722,20.772,7.091,2.3,10.487,11.41,7.587,20.338-2.446,7.533-8.591,12.532-14.709,12.533A10.918,10.918,0,0,1-14399.16-494.123Z" transform="translate(14407.783 547.502)" fill="#630e6c"/>
</svg>
