<svg xmlns="http://www.w3.org/2000/svg" width="837.136" height="1650.168" viewBox="0 0 837.136 1650.168">
  <g id="confuseman" transform="translate(-9484.001 -6234.846)">
    <path id="Path_342" data-name="Path 342" d="M291.292,419.531c0,9.63-5.5,22.011-16.509,28.89,4.127,5.5,1.376-2.751,1.376,6.879l-4.127,17.884c-11.006,41.272,1.376,50.9-20.636,71.537L131.709,665.784c-16.509,15.133-39.9,48.15-59.156,61.907-9.63,19.26-37.144,39.9-49.526,90.8-9.63,44.023-1.376,78.416,31.641,101.8,53.653,37.144,103.179-16.509,132.069-53.653,9.63-12.381,22.011-33.017,30.266-42.647l11.006-20.636c16.509,0,35.769,6.879,53.653,8.254,23.387,2.751,44.023-1.376,67.41,2.751,11.006,5.5,24.763,4.127,39.9,11.006,8.254,2.752,12.381,4.127,20.636,8.254l13.757,5.5c8.254,2.751,4.127,1.376,6.879,2.751l2.751,148.577-1.376-145.826C455,848.754,497.65,870.766,519.661,880.4c28.89,12.381,56.4,23.387,83.919,35.769C669.614,936.8,778.3,971.193,789.3,874.893c4.127-41.271-23.387-70.161-46.774-86.67C693,753.83,682,762.084,643.475,752.454L434.367,735.946l1.376-45.4-4.127,46.774c-22.011-4.127-57.78,2.751-77.04-8.254-34.393,5.5-35.769-30.266-78.416-45.4,4.127-27.514,37.144-94.924,81.167-101.8,19.26-13.757,49.526-20.636,68.786-33.017,15.133-9.63,8.254-8.254,22.011-11.006,2.751-9.63,9.63-19.26,16.509-31.641,0-31.641-1.376-12.381,11.006-38.52,6.879-13.757,8.254-24.763,9.63-41.271-17.884-8.254,0-5.5-28.89-12.381l-8.254-2.751c12.381-4.127,60.531-28.89,42.647-49.526-11.006-9.63-123.814,37.144-132.069,41.271,2.751-23.387,4.127-34.393-15.133-44.023-13.757,31.641-19.26,39.9-44.023,59.156-6.879,5.5,0,1.376-8.254,5.5Z" transform="translate(9491.765 6326.392)" fill="#f5ab91" fill-rule="evenodd"/>
    <path id="Path_343" data-name="Path 343" d="M193,701.387c12.381,23.387-15.133,94.924-50.9,122.439-11.006,8.254-26.139,13.757-35.769,22.011-9.63,33.017-11.006,162.334-12.381,204.981-1.376,24.763-9.63,88.046,5.5,100.427,6.879,6.879,24.763,13.757,35.769,17.884,16.509,5.5,27.514,6.879,37.144,15.133,12.381-2.751,44.023,4.127,50.9,9.63,23.387-2.751,77.04,9.63,111.433,8.254l-2.751-90.8c2.751-86.67-4.127-218.739-4.127-319.166,0-11.006,4.127-94.924-2.751-103.179-23.387-4.127-44.023,0-67.41-2.751C239.776,684.879,220.516,678,204.008,678L193,698.636Z" transform="translate(9518.518 6446.245)" fill="#115185" fill-rule="evenodd"/>
    <path id="Path_344" data-name="Path 344" d="M338.907,855.577l6.879,249H277c20.636,6.879,48.15-1.376,68.786,2.751,2.751,16.509,4.127,37.144,0,53.653,4.127,5.5,2.751,23.387,4.127,31.641,63.283,8.254,147.2-20.636,196.727-38.52,24.763-9.63,45.4-17.884,46.774-46.774,1.376-27.514-2.751-61.907-4.127-90.8-2.751-49.526-2.751-134.82-12.381-178.843-5.5-4.127-31.641-15.133-41.271-23.387-8.254-6.879-12.381-11.006-17.884-17.884-13.757-15.133-9.63-4.127-11.006-17.884-27.514-12.381-55.029-23.387-83.919-35.769-22.011-9.63-64.659-31.641-88.046-35.769l1.376,145.826Z" transform="translate(9588.6 6457.141)" fill="#115185" fill-rule="evenodd"/>
    <path id="Path_345" data-name="Path 345" d="M395.629,1038.879c-12.381,6.879-52.277,1.376-70.161,2.751-2.751,15.133,1.376,24.763,0,44.023-24.763-1.376-53.653-4.127-79.791-8.254l-55.029-9.63c-4.127-1.376-6.879-1.376-11.006-2.751-1.376,0-1.376-1.376-2.751-1.376s-2.751,0-2.751-2.751c0-1.376-1.376-1.376-2.751-2.751,13.757,2.751,15.133,5.5,27.514,4.127-6.879-5.5-38.52-12.381-50.9-9.63l33.017,253.132H362.611l-6.879-141.7H388.75l24.763,140.323H584.1L596.483,1032c-49.526,17.884-133.444,46.774-196.727,38.52C398.38,1062.266,398.38,1045.757,395.629,1038.879Z" transform="translate(9540.133 6579.248)" fill="#262842" fill-rule="evenodd"/>
    <path id="Path_346" data-name="Path 346" d="M353.266,484.294c-6.879,13.757-13.757,22.011-16.509,31.641l-12.381,152.7L323,714.039l209.109,16.509c17.884,0,31.641-6.879,53.653-5.5,64.659,1.376,96.3,53.653,115.56,70.161-11.006-55.029-13.757-86.67-33.017-137.571-15.133-41.271-38.52-81.167-60.531-111.433C562.374,485.67,483.959,422.387,411.046,399c8.254,35.769,22.011,26.139,20.636,101.8-9.63-2.751-9.63-5.5-20.636-13.757-1.376-1.376-12.381-11.006-16.509-12.381C382.156,467.786,364.271,477.416,353.266,484.294Z" transform="translate(9605.883 6341.42)" fill="#115185" fill-rule="evenodd"/>
    <path id="Path_347" data-name="Path 347" d="M388.678,453.156c-15.133,5.5-75.664,16.509-48.15-20.636C354.285,414.636,392.8,416.012,388.678,453.156ZM183.7,326.591c12.381,20.636,6.879,68.786,8.254,96.3,1.376,26.139,5.5,49.526,15.133,71.537,12.381,27.514,23.387,31.641,34.393,49.526,9.63-4.127,1.376,0,8.254-5.5,24.763-20.636,30.266-28.89,44.023-59.156,20.636,8.254,19.26,20.636,15.133,44.023,8.254-2.751,121.063-49.526,132.069-41.271,17.884,20.636-30.266,44.023-42.647,49.526l8.254,2.751c28.89,6.879,11.006,2.751,28.89,12.381l22.011-22.012c4.127-11.006,15.133-22.011,22.012-35.768,5.5-12.381,11.006-26.139,11.006-41.271,1.376-34.393-15.133-52.277-24.763-81.167-6.879-9.63-6.879-13.757-8.254-26.139l-5.5,6.879a19.79,19.79,0,0,1-2.751,4.127c1.376,13.757-1.376,28.89-8.254,38.52-22.012-12.381-33.017-16.509-63.283-15.133L368.042,394c-24.763,33.017-52.277-2.751-53.653-4.127-33.017,13.757-44.023,26.139-64.659,50.9l-1.376,1.376s-1.376,2.751-1.376,1.376L245.6,444.9c-49.526-19.26-85.294-195.351-38.52-240.75,33.017-2.751,59.156-1.376,89.421-9.63,20.636-5.5,63.283-26.139,70.161-27.514,34.393-4.127,77.04,85.294,75.664,114.184l1.376-5.5c-12.381-111.433-42.647-116.936-44.023-138.947,15.133-5.5,9.63-6.879,26.139,1.376-1.376-57.78-30.266-89.421-79.791-101.8-93.549-24.763-147.2,53.653-160.959,61.907-11.006,6.879-17.884,11.006-24.763,19.26-24.763,28.89-4.127,48.15-2.751,68.786,1.376,8.254-5.5,26.139-5.5,39.9,1.376,49.526,12.381,66.034,27.514,103.179Z" transform="translate(9540.205 6203.346)" fill="#6c3f1d" fill-rule="evenodd"/>
    <path id="Path_348" data-name="Path 348" d="M222.887,317.886s-12.381-4.127-5.5-23.387c8.254-23.387,57.78-24.763,60.531-2.751,5.5,1.376,2.751-1.376,6.879,2.751,5.5,30.266-31.641,37.144-60.531,31.641Zm125.19-39.9c-1.376-1.376-6.879,6.879,0-9.63,2.751-5.5,2.751-5.5,8.254-8.254,34.393-26.139,66.034,4.127,52.277,15.133,5.5,9.63,1.376-1.376,4.127,12.381-9.63,9.63-11.006,16.509-33.017,16.509-16.509,0-26.139-6.879-35.769-13.757,1.376-2.751,2.751-8.254,4.127-11.006Zm-152.7-5.5c-2.751-23.387,8.254-34.393,19.26-45.4,8.254-6.879,24.763-20.636,35.769-24.763l8.254,31.641C222.887,249.1,205,268.36,195.373,272.487ZM341.2,196.823c12.381-8.254,64.659,8.254,66.034,41.271l-67.41-16.509,1.376-26.139Zm100.427,115.56c-4.127-12.381,0-38.52-8.254-70.161,0-27.514-41.271-118.311-75.664-114.184-5.5,1.376-49.526,22.011-70.161,27.514-30.266,6.879-56.4,6.879-89.421,9.63-48.15,45.4-11.006,221.49,38.52,240.75,0,0,1.376-2.751,1.376-1.376l1.376-1.376,1.376-1.376c20.636-24.763,31.641-37.144,64.659-50.9,1.376,1.376,30.266,37.144,53.653,4.127l9.63-19.26c30.266-1.376,41.271,2.751,63.283,15.133,6.879-9.63,9.63-24.763,8.254-38.52Z" transform="translate(9550.54 6239.564)" fill="#f5ab91" fill-rule="evenodd"/>
    <path id="Path_349" data-name="Path 349" d="M266.5,1109.72l16.509,1.376H351.8l-6.879-249-2.751-148.577c-2.751-1.376,1.376,0-6.879-2.751l-13.757-5.5c-9.63-2.751-12.381-4.127-20.636-8.254-15.133-5.5-28.89-5.5-39.9-11.006,6.879,6.879,2.751,90.8,2.751,103.179,0,99.051,6.879,232.5,4.127,319.166Z" transform="translate(9582.588 6449.25)" fill="#f5ee8b" fill-rule="evenodd"/>
    <path id="Path_350" data-name="Path 350" d="M31,725.657l17.884-12.381c5.5-4.127,11.006-8.254,20.636-11.006,19.26-13.757,41.271-45.4,59.156-61.907L248.363,519.3c22.011-22.011,8.254-31.641,20.636-71.537l4.127-17.884c-1.376-9.63,2.751,0-1.376-6.879-63.283,33.017-111.433,74.289-147.2,122.439C90.156,592.213,51.636,655.5,32.376,724.281Z" transform="translate(9496.174 6350.438)" fill="#115185" fill-rule="evenodd"/>
    <path id="Path_351" data-name="Path 351" d="M484.9,642.5c38.52,9.63,49.526,1.376,99.051,35.769,24.763,16.509,52.277,45.4,46.774,86.67-11.006,96.3-119.687,61.907-185.721,41.271,1.376,12.381-1.376,2.751,11.006,17.884,5.5,6.879,9.63,11.006,17.884,17.884,9.63,6.879,35.769,17.884,41.271,23.387,61.907,6.879,92.173,12.381,130.693-28.89,33.017-35.769,27.514-86.67,6.879-129.317-17.884-17.884-50.9-68.786-115.56-70.161-22.011,0-35.769,6.879-53.653,5.5Z" transform="translate(9651.72 6430.84)" fill="#2574b6" fill-rule="evenodd"/>
    <path id="Path_352" data-name="Path 352" d="M267.751,529.023,265,676.224c19.26,11.006,53.653,2.751,77.04,8.254l4.127-46.774L358.549,485c-13.757,2.751-6.879,1.376-22.011,11.006C317.277,508.387,287.011,515.266,267.751,529.023Z" transform="translate(9584.091 6373.732)" fill="#f5ee8b" fill-rule="evenodd"/>
    <path id="Path_353" data-name="Path 353" d="M42.791,649.387c-13.757,23.387-26.139,31.641-37.144,66.034-8.254,27.514-8.254,59.156,1.376,86.67,9.63,26.139,24.763,44.023,45.4,56.4,33.017,19.26,52.277,12.381,88.046,8.254,8.254-8.254,24.763-13.757,35.769-22.011,35.769-28.89,63.283-100.427,50.9-122.439-8.254,9.63-20.636,30.266-30.266,42.647-28.89,37.144-78.416,90.8-132.069,53.653-33.017-23.387-41.271-56.4-31.641-101.8,11.006-52.277,39.9-71.537,49.526-90.8-9.63,2.751-15.133,6.879-20.636,11.006L44.166,649.387Z" transform="translate(9484.383 6426.708)" fill="#2574b6" fill-rule="evenodd"/>
    <path id="Path_354" data-name="Path 354" d="M286.416,664.2,289.167,517C245.144,523.878,213.5,591.289,208,618.8,250.647,633.936,252.023,669.7,286.416,664.2Z" transform="translate(9562.676 6385.755)" fill="#115185" fill-rule="evenodd"/>
    <path id="Path_355" data-name="Path 355" d="M193.514,1076.167c-12.381,1.376-13.757-1.376-27.514-4.127l2.751,2.751c0,1.376,1.376,1.376,2.751,2.751,1.376,0,1.376,1.376,2.751,1.376,4.127,1.376,6.879,2.752,11.006,2.752l55.029,9.63c26.139,4.127,55.029,6.879,79.791,8.254,1.376-17.884-2.751-28.89,0-44.023,17.884-1.376,57.78,4.127,70.161-2.751,4.127-16.509,1.376-37.144,0-53.653-22.011-4.127-48.15,4.127-68.786-2.752L304.947,995l2.751,90.8c-34.393,1.376-88.046-11.006-111.433-8.254Z" transform="translate(9546.896 6565.347)" fill="#22202d" fill-rule="evenodd"/>
    <path id="Path_357" data-name="Path 357" d="M306.879,1268.7h50.9l-24.763-140.323L300,1127Z" transform="translate(9597.241 6614.941)" fill="#fcfdfe" fill-rule="evenodd"/>
    <path id="Path_358" data-name="Path 358" d="M364.636,410.387c-1.376,16.509-2.751,27.514-9.63,41.271-12.381,24.763-9.63,6.879-11.006,38.52,9.63-6.879,27.514-16.509,41.271-9.63,4.127,1.376,13.757,11.006,16.509,12.381,11.006,9.63,9.63,11.006,20.636,13.757,1.376-74.289-12.381-66.034-20.636-101.8A174.259,174.259,0,0,1,386.647,387l-22.011,22.011Z" transform="translate(9613.772 6336.912)" fill="#2574b6" fill-rule="evenodd"/>
    <path id="Path_359" data-name="Path 359" d="M195.5,342.3c-1.376-27.514,4.127-75.664-8.254-96.3-8.254,6.879,1.376,1.376-8.254,2.751-4.127,0-49.526-11.006-38.52,45.4C148.723,338.173,188.618,339.549,195.5,342.3Z" transform="translate(9536.658 6283.936)" fill="#e89a7a" fill-rule="evenodd"/>
    <path id="Path_360" data-name="Path 360" d="M365.376,208.524l-1.376,5.5c8.254,31.641,4.127,57.78,8.254,70.161,0-1.376,1.376-2.751,2.751-4.127l5.5-6.879c1.376,12.381,2.751,16.509,8.254,26.139,2.751-15.133-2.751-2.751,9.63-15.133,30.266-28.89,24.763-99.051-31.641-77.04Z" transform="translate(9621.287 6267.759)" fill="#e89a7a" fill-rule="evenodd"/>
    <path id="Path_361" data-name="Path 361" d="M190.117,252.161c9.63-2.751,27.514-23.387,63.283-38.52L245.145,182c-12.381,4.127-27.514,17.884-35.769,24.763C198.371,216.393,187.365,227.4,190.117,252.161Z" transform="translate(9555.796 6259.89)" fill="#6c3f1d" fill-rule="evenodd"/>
    <path id="Path_362" data-name="Path 362" d="M296.376,178.2,295,204.337l67.41,16.509c-1.376-33.017-53.653-49.526-66.034-41.271Z" transform="translate(9595.362 6258.188)" fill="#6c3f1d" fill-rule="evenodd"/>
    <path id="Path_363" data-name="Path 363" d="M338.053,346.684c4.127-37.144-34.393-38.52-48.15-20.636C262.389,361.817,324.3,352.187,338.053,346.684Z" transform="translate(9590.829 6309.818)" fill="#e89a7a" fill-rule="evenodd"/>
    <path id="Path_364" data-name="Path 364" d="M212.071,277.8c1.376-17.884,9.63-23.387,23.387-30.266l12.381,27.514h15.133c5.5-8.254,8.254-12.381,4.127-24.763-2.751-22.011-52.277-20.636-60.531,2.751-6.879,19.26,5.5,23.387,5.5,23.387Z" transform="translate(9561.355 6279.653)" fill="#4f2c1b" fill-rule="evenodd"/>
    <path id="Path_365" data-name="Path 365" d="M302.3,244.924c5.5-6.879,13.757-9.63,24.763-13.757v2.751l1.376,8.254a1.347,1.347,0,0,0,1.376,1.376c5.5,13.757,0,8.254,6.879,16.509,28.89,4.127,17.884-23.387,24.763-19.26,13.757-11.006-17.884-39.9-52.277-15.133-4.127,2.751-5.5,2.751-8.254,8.254-6.879,15.133-1.376,6.879,0,9.63Z" transform="translate(9596.316 6272.631)" fill="#4f2c1b" fill-rule="evenodd"/>
    <path id="Path_367" data-name="Path 367" d="M302.127,240.757c-1.376,2.751-2.751,8.254-4.127,11.006,9.63,6.879,19.26,13.757,35.769,13.757,22.011,0,23.387-5.5,33.017-16.509-4.127-13.757,1.376-2.751-4.127-12.381-6.879-5.5,4.127,23.387-24.763,19.26-6.879-9.63,0-2.751-6.879-16.509a1.347,1.347,0,0,0-1.376-1.376l-1.376-8.254V227c-11.006,4.127-19.26,6.879-24.763,13.757Z" transform="translate(9596.49 6276.797)" fill="#fcfdfe" fill-rule="evenodd"/>
    <path id="Path_368" data-name="Path 368" d="M210,273.89l1.376,8.254c28.89,4.127,67.41-1.376,60.531-31.641-4.127-2.751-1.376-1.376-6.879-2.751,4.127,12.381,1.376,16.509-4.127,24.763H245.769L233.387,245c-15.133,5.5-22.011,12.381-23.387,30.266Z" transform="translate(9563.427 6283.561)" fill="#efeff0" fill-rule="evenodd"/>
  </g>
</svg>
