<svg xmlns="http://www.w3.org/2000/svg" xmlns:xlink="http://www.w3.org/1999/xlink" width="1920" height="6581" viewBox="0 0 1920 6581">
  <defs>
    <clipPath id="clip-dotsbackground">
      <rect width="1920" height="6581"/>
    </clipPath>
  </defs>
  <g id="dotsbackground" clip-path="url(#clip-dotsbackground)">
    <rect width="1920" height="6581" fill="#fff"/>
    <g id="dotsbackground-2" data-name="dotsbackground">
      <path id="Path_243" data-name="Path 243" d="M906,2c-23,12-8,40,13,32C939,26,927-9,906,2Z" transform="translate(-834.232 1485.956)" fill="#fec402" fill-rule="evenodd"/>
      <path id="Path_244" data-name="Path 244" d="M906,2c-23,12-8,40,13,32C939,26,927-9,906,2Z" transform="translate(84.499 1423.812)" fill="#fec402" fill-rule="evenodd"/>
      <path id="Path_248" data-name="Path 248" d="M906,2c-23,12-8,40,13,32C939,26,927-9,906,2Z" transform="translate(-869.023 293.12)" fill="#fec402" fill-rule="evenodd"/>
      <path id="Path_233" data-name="Path 233" d="M18,315c-33,12-16,58,17,47C64,352,49,304,18,315Z" transform="translate(959.826 2097.401)" fill="#01d1b9" fill-rule="evenodd"/>
      <path id="Path_377" data-name="Path 377" d="M18,315c-33,12-16,58,17,47C64,352,49,304,18,315Z" transform="translate(959.826 2097.401)" fill="#01d1b9" fill-rule="evenodd"/>
      <path id="Path_246" data-name="Path 246" d="M18,315c-33,12-16,58,17,47C64,352,49,304,18,315Z" transform="translate(1464.849 -166.873)" fill="#01d1b9" fill-rule="evenodd"/>
      <path id="Path_237" data-name="Path 237" d="M193,531c-26,13-9,48,16,38C232,560,218,519,193,531Z" transform="translate(1598.45 879.627)" fill="#5ac703" fill-rule="evenodd"/>
      <path id="Path_247" data-name="Path 247" d="M193,531c-26,13-9,48,16,38C232,560,218,519,193,531Z" transform="translate(1656.331 -332.006)" fill="#5ac703" fill-rule="evenodd"/>
      <path id="Path_232" data-name="Path 232" d="M203,1119c-36,9-21,61,14,51C249,1161,237,1111,203,1119Z" transform="translate(-5.55 2334.164)" fill="#fec402" fill-rule="evenodd"/>
      <path id="Path_236" data-name="Path 236" d="M1566,1025c-29,9-13,49,13,39C1604,1055,1591,1017,1566,1025Z" transform="translate(-1442.174 1272.308)" fill="#fa0166" fill-rule="evenodd"/>
      <path id="Path_376" data-name="Path 376" d="M1566,1025c-29,9-13,49,13,39C1604,1055,1591,1017,1566,1025Z" transform="translate(-1442.174 1272.308)" fill="#fa0166" fill-rule="evenodd"/>
      <path id="Path_249" data-name="Path 249" d="M1566,1025c-29,9-13,49,13,39C1604,1055,1591,1017,1566,1025Z" transform="translate(-828.983 -868.78)" fill="#fa0166" fill-rule="evenodd"/>
      <path id="Path_239" data-name="Path 239" d="M1648,1463c-24,10-8,46,16,35C1685,1488,1672,1453,1648,1463Z" transform="translate(37.826 2005.12)" fill="#fec402" fill-rule="evenodd"/>
      <path id="Path_240" data-name="Path 240" d="M184,946c-22,7-14,40,10,34C215,975,207,939,184,946Z" transform="translate(739.45 2580.054)" fill="#01d1b9" fill-rule="evenodd"/>
      <path id="Path_238" data-name="Path 238" d="M1214,160c-13,6-14,17-9,27,4,7,14,15,27,10C1255,187,1243,147,1214,160Z" transform="translate(-107.072 2499.354)" fill="#fec402" fill-rule="evenodd"/>
      <path id="Path_378" data-name="Path 378" d="M1214,160c-13,6-14,17-9,27,4,7,14,15,27,10C1255,187,1243,147,1214,160Z" transform="translate(-107.072 2499.354)" fill="#fec402" fill-rule="evenodd"/>
      <path id="Path_242" data-name="Path 242" d="M719,143c-25,7-12,40,10,34C750,171,741,137,719,143Z" transform="translate(1124.793 2221.707)" fill="#01d1b9" fill-rule="evenodd"/>
      <path id="Path_387" data-name="Path 387" d="M719,143c-25,7-12,40,10,34C750,171,741,137,719,143Z" transform="translate(1124.793 2221.707)" fill="#01d1b9" fill-rule="evenodd"/>
      <path id="Path_234" data-name="Path 234" d="M1639,231c-27,10-14,53,16,44S1670,219,1639,231Z" transform="translate(-711.297 3740.956)" fill="#48b844" fill-rule="evenodd"/>
      <path id="Path_241" data-name="Path 241" d="M1259,361c-22,13-3,41,17,31C1295,382,1280,349,1259,361Z" transform="translate(-1063.27 4337.885)" fill="#01d1b9" fill-rule="evenodd"/>
      <g id="Group_140" data-name="Group 140" transform="translate(161.506 512.846)">
        <path id="Path_245" data-name="Path 245" d="M1639,231c-27,10-14,53,16,44S1670,219,1639,231Z" transform="translate(-825.792 4999.361)" fill="#01d1b9" fill-rule="evenodd"/>
      </g>
      <g id="Group_138" data-name="Group 138" transform="translate(-594.042 978.308)">
        <path id="Path_335" data-name="Path 335" d="M1566,1025c-29,9-13,49,13,39C1604,1055,1591,1017,1566,1025Z" transform="translate(3.529 4481.099)" fill="#fa0166" fill-rule="evenodd"/>
      </g>
      <g id="Group_319" data-name="Group 319" transform="translate(-1450.493 635.154)">
        <path id="Path_335-2" data-name="Path 335" d="M1566,1025c-29,9-13,49,13,39C1604,1055,1591,1017,1566,1025Z" transform="translate(3.529 4481.099)" fill="#fa0166" fill-rule="evenodd"/>
      </g>
      <path id="Path_333" data-name="Path 333" d="M1639,231c-27,10-14,53,16,44S1670,219,1639,231Z" transform="translate(-188.286 5761.362)" fill="#48b844" fill-rule="evenodd"/>
      <path id="Path_338" data-name="Path 338" d="M1259,361c-22,13-3,41,17,31C1295,382,1280,349,1259,361Z" transform="translate(-1181.164 5069.738)" fill="#01d1b9" fill-rule="evenodd"/>
      <path id="Path_391" data-name="Path 391" d="M1259,361c-22,13-3,41,17,31C1295,382,1280,349,1259,361Z" transform="translate(-1181.164 5069.738)" fill="#01d1b9" fill-rule="evenodd"/>
      <path id="Path_336" data-name="Path 336" d="M1639,231c-27,10-14,53,16,44S1670,219,1639,231Z" transform="translate(-852.279 4374.044)" fill="#48b844" fill-rule="evenodd"/>
      <path id="Path_394" data-name="Path 394" d="M1275,2c-30,8-18,51,12,42C1314,36,1302-5,1275,2Z" transform="translate(458.231 6180.646)" fill="#fec402" fill-rule="evenodd"/>
      <path id="Path_392" data-name="Path 392" d="M1275,2c-30,8-18,51,12,42C1314,36,1302-5,1275,2Z" transform="translate(502.828 5331.313)" fill="#fec402" fill-rule="evenodd"/>
      <path id="Path_390" data-name="Path 390" d="M1259,361c-22,13-3,41,17,31C1295,382,1280,349,1259,361Z" transform="translate(450.884 4391.02)" fill="#01d1b9" fill-rule="evenodd"/>
    </g>
  </g>
</svg>
