<svg width="389" height="479" viewBox="0 0 389 479" fill="none" xmlns="http://www.w3.org/2000/svg">
<path d="M124.303 478.642C93.5849 465.07 72.7125 435.833 69.9738 402.347C70.8616 385.373 75.7534 368.85 84.2492 354.129C92.745 339.407 104.604 326.905 118.856 317.644C114.114 329.209 115.265 342.376 121.849 352.956C125.508 358.077 130.58 362.021 136.444 364.309C142.308 366.596 148.711 367.127 154.871 365.837C172.856 360.78 183.39 342.107 178.334 324.107C176.535 317.793 172.962 312.127 168.039 307.783C158.032 299.641 150.295 289.054 145.577 277.046C140.858 265.039 139.319 252.017 141.106 239.24C144.61 225.426 152.235 213.005 162.968 203.629C154.887 225.176 177.676 246.437 192.967 256.897C220.106 273.181 246.248 291.073 271.251 310.477C298.588 332.024 313.491 365.75 311.158 400.254C305.008 436.972 279.032 467.286 243.63 478.658C314.45 462.903 387.467 406.643 388.859 326.847C387.467 263.001 349.357 205.708 291.107 179.614H288.519C289.815 182.745 290.427 186.117 290.315 189.504C290.509 187.314 290.509 185.111 290.315 182.921C290.629 185.504 290.629 188.117 290.315 190.701C285.885 208.851 267.571 220.028 249.376 215.598C242.105 213.803 235.611 209.72 230.942 203.823C207.6 173.899 230.942 139.844 234.847 106.924C236.032 86.2556 231.984 65.6219 223.08 46.9323C214.175 28.2427 200.7 12.1008 183.902 0C200.974 28.4597 178.23 65.8358 161.696 87.0985C145.133 108.36 121.192 124.206 101.681 142.759C80.6583 162.316 61.387 183.817 44.0903 206.799C6.69752 252.481 -7.98042 312.736 4.1836 370.491C20.8681 426.152 67.1318 467.973 124.185 478.822H124.499L124.305 478.642H124.303Z" fill="#DD4814"/>
</svg>
