<svg width="824" height="824" viewBox="0 0 824 824" fill="none" xmlns="http://www.w3.org/2000/svg">
<path d="M470.165 352.555C470.394 352.779 470.618 353.008 470.842 353.237C497.669 380.423 534.036 396.069 572.224 396.069H823.342C819.423 179.08 644.292 3.91421 427.34 0V251.155C427.34 289.355 442.978 325.728 470.165 352.555Z" fill="#142357"/>
<path d="M352.495 353.237C352.724 353.008 352.948 352.779 353.177 352.56C380.358 325.728 396.002 289.355 396.002 251.16V0C179.05 3.91421 3.91355 179.08 0 396.069H251.117C289.306 396.069 325.673 380.423 352.495 353.237Z" fill="#E75825"/>
<path d="M470.842 470.245C470.618 470.474 470.394 470.697 470.165 470.926C442.978 497.753 427.34 534.126 427.34 572.321V823.481C644.292 819.567 819.423 644.401 823.342 427.412H572.224C534.036 427.412 497.669 443.059 470.842 470.245Z" fill="#147F00"/>
<path d="M353.177 470.926C352.948 470.697 352.724 470.474 352.495 470.245C325.673 443.059 289.306 427.412 251.117 427.412H0C3.91355 644.401 179.05 819.567 396.002 823.481V572.321C396.002 534.126 380.358 497.753 353.177 470.926Z" fill="#AA0021"/>
<path d="M353.172 470.928C379.828 497.031 395.19 532.545 395.971 569.845C359.604 566.014 325.663 549.764 299.876 523.827C274.094 497.89 258.034 463.849 254.412 427.455C291.424 428.449 326.594 443.794 352.495 470.251L353.172 470.928Z" fill="black" fill-opacity="0.102"/>
<path d="M395.971 253.641C395.185 290.94 379.823 326.449 353.172 352.558C352.948 352.782 352.719 353 352.495 353.234C326.594 379.687 291.419 395.031 254.412 396.02C258.039 359.626 274.094 325.595 299.881 299.659C325.668 273.722 359.604 257.466 395.971 253.641Z" fill="black" fill-opacity="0.102"/>
<path d="M470.845 470.252C497.324 443.41 533.108 427.821 570.755 427.42C567.107 464.142 550.807 498.448 524.646 524.463C498.484 550.483 464.09 566.588 427.354 570.028C428.098 532.661 443.471 497.079 470.174 470.929L470.845 470.252Z" fill="black" fill-opacity="0.102"/>
<path d="M470.174 352.558C443.528 326.257 427.973 290.811 427.354 253.459C464.085 256.894 498.479 273.004 524.641 299.019C550.802 325.034 567.107 359.34 570.755 396.057C533.103 395.537 497.188 380.14 470.845 353.235C470.626 353.001 470.392 352.782 470.174 352.558Z" fill="black" fill-opacity="0.102"/>
<path d="M167.805 300.324H170.282V317.688H167.805V300.324Z" fill="white"/>
<path d="M183.344 317.898C181.579 317.898 179.997 317.518 178.597 316.753C177.192 315.977 176.089 314.91 175.287 313.546C174.481 312.188 174.08 310.673 174.08 309.007C174.08 307.331 174.481 305.817 175.287 304.469C176.089 303.11 177.192 302.048 178.597 301.283C179.997 300.508 181.579 300.117 183.344 300.117C185.077 300.117 186.643 300.508 188.048 301.283C189.464 302.048 190.567 303.105 191.358 304.448C192.149 305.796 192.545 307.316 192.545 309.007C192.545 310.689 192.149 312.209 191.358 313.567C190.567 314.915 189.464 315.977 188.048 316.753C186.643 317.518 185.077 317.898 183.344 317.898ZM183.344 315.67C184.619 315.67 185.763 315.389 186.778 314.816C187.788 314.233 188.589 313.437 189.172 312.422C189.765 311.397 190.067 310.257 190.067 309.007C190.067 307.748 189.765 306.608 189.172 305.593C188.589 304.583 187.788 303.782 186.778 303.199C185.763 302.616 184.619 302.324 183.344 302.324C182.063 302.324 180.908 302.616 179.867 303.199C178.837 303.782 178.025 304.583 177.432 305.593C176.849 306.608 176.557 307.748 176.557 309.007C176.557 310.257 176.849 311.397 177.432 312.422C178.025 313.437 178.837 314.233 179.867 314.816C180.908 315.389 182.063 315.67 183.344 315.67Z" fill="white"/>
<path d="M201.394 317.898C200.088 317.898 198.824 317.695 197.606 317.294C196.398 316.878 195.446 316.352 194.754 315.712L195.67 313.775C196.336 314.374 197.179 314.858 198.209 315.233C199.25 315.597 200.312 315.774 201.394 315.774C202.836 315.774 203.913 315.535 204.621 315.045C205.339 314.561 205.704 313.911 205.704 313.088C205.704 312.505 205.506 312.026 205.121 311.652C204.73 311.277 204.246 310.996 203.663 310.798C203.091 310.59 202.29 310.361 201.249 310.111C199.942 309.809 198.886 309.497 198.085 309.174C197.278 308.856 196.591 308.372 196.024 307.717C195.451 307.066 195.17 306.186 195.17 305.072C195.17 304.156 195.41 303.324 195.899 302.574C196.383 301.824 197.127 301.231 198.126 300.783C199.125 300.341 200.359 300.117 201.832 300.117C202.841 300.117 203.851 300.253 204.85 300.513C205.849 300.778 206.703 301.158 207.41 301.658L206.578 303.636C205.854 303.178 205.079 302.834 204.246 302.595C203.424 302.345 202.623 302.22 201.832 302.22C200.416 302.22 199.354 302.48 198.647 302.99C197.949 303.506 197.606 304.172 197.606 304.989C197.606 305.588 197.798 306.072 198.189 306.447C198.589 306.811 199.084 307.092 199.667 307.3C200.26 307.508 201.067 307.732 202.081 307.966C203.382 308.274 204.434 308.586 205.225 308.903C206.016 309.226 206.692 309.71 207.265 310.361C207.832 311.001 208.118 311.86 208.118 312.942C208.118 313.859 207.868 314.691 207.369 315.441C206.88 316.19 206.13 316.789 205.121 317.231C204.106 317.679 202.862 317.898 201.394 317.898Z" fill="white"/>
<path d="M229.488 313.337H220.246L218.351 317.688H215.791L223.66 300.324H226.116L234.006 317.688H231.404L229.488 313.337ZM228.614 311.359L224.867 302.843L221.12 311.359H228.614Z" fill="white"/>
<path d="M243.362 300.324C245.611 300.324 247.38 300.866 248.671 301.948C249.961 303.02 250.607 304.488 250.607 306.362C250.607 308.252 249.961 309.735 248.671 310.818C247.38 311.89 245.611 312.421 243.362 312.421H239.053V317.688H236.576V300.324H243.362ZM243.279 310.276C244.846 310.276 246.037 309.943 246.86 309.277C247.692 308.6 248.109 307.627 248.109 306.362C248.109 305.113 247.692 304.155 246.86 303.489C246.037 302.812 244.846 302.469 243.279 302.469H239.053V310.276H243.279Z" fill="white"/>
<path d="M261.271 300.324C263.519 300.324 265.288 300.866 266.579 301.948C267.87 303.02 268.515 304.488 268.515 306.362C268.515 308.252 267.87 309.735 266.579 310.818C265.288 311.89 263.519 312.421 261.271 312.421H256.962V317.688H254.484V300.324H261.271ZM261.187 310.276C262.754 310.276 263.946 309.943 264.768 309.277C265.601 308.6 266.017 307.627 266.017 306.362C266.017 305.113 265.601 304.155 264.768 303.489C263.946 302.812 262.754 302.469 261.187 302.469H256.962V310.276H261.187Z" fill="white"/>
<path d="M72.4922 333.299H79.8197C81.6516 333.299 83.2753 333.663 84.6908 334.381C86.1167 335.105 87.22 336.125 88.0007 337.442C88.7917 338.764 89.1872 340.274 89.1872 341.981C89.1872 343.688 88.7917 345.203 88.0007 346.52C87.22 347.826 86.1167 348.846 84.6908 349.58C83.2753 350.304 81.6516 350.663 79.8197 350.663H72.4922V333.299ZM79.674 348.498C81.0739 348.498 82.3073 348.227 83.3793 347.686C84.4462 347.144 85.2633 346.384 85.8357 345.395C86.4186 344.412 86.71 343.272 86.71 341.981C86.71 340.69 86.4186 339.555 85.8357 338.566C85.2633 337.583 84.4462 336.817 83.3793 336.276C82.3073 335.724 81.0739 335.443 79.674 335.443H74.9694V348.498H79.674Z" fill="white"/>
<path d="M105.595 348.498V350.663H92.9805V333.299H105.242V335.443H95.4577V340.794H104.18V342.897H95.4577V348.498H105.595Z" fill="white"/>
<path d="M124.696 333.299L117.077 350.663H114.62L106.98 333.299H109.666L115.911 347.561L122.218 333.299H124.696Z" fill="white"/>
<path d="M139.881 348.498V350.663H127.266V333.299H139.527V335.443H129.743V340.794H138.465V342.897H129.743V348.498H139.881Z" fill="white"/>
<path d="M143.889 333.299H146.366V348.498H155.775V350.663H143.889V333.299Z" fill="white"/>
<path d="M166.47 350.872C164.706 350.872 163.124 350.492 161.724 349.727C160.319 348.952 159.216 347.885 158.414 346.521C157.608 345.162 157.207 343.648 157.207 341.982C157.207 340.306 157.608 338.791 158.414 337.443C159.216 336.085 160.319 335.023 161.724 334.258C163.124 333.482 164.706 333.092 166.47 333.092C168.203 333.092 169.77 333.482 171.175 334.258C172.591 335.023 173.694 336.08 174.485 337.422C175.276 338.771 175.671 340.29 175.671 341.982C175.671 343.663 175.276 345.183 174.485 346.542C173.694 347.89 172.591 348.952 171.175 349.727C169.77 350.492 168.203 350.872 166.47 350.872ZM166.47 348.645C167.746 348.645 168.89 348.363 169.905 347.791C170.915 347.208 171.716 346.412 172.299 345.397C172.892 344.371 173.194 343.231 173.194 341.982C173.194 340.722 172.892 339.583 172.299 338.568C171.716 337.558 170.915 336.756 169.905 336.173C168.89 335.59 167.746 335.299 166.47 335.299C165.19 335.299 164.035 335.59 162.994 336.173C161.964 336.756 161.152 337.558 160.559 338.568C159.976 339.583 159.684 340.722 159.684 341.982C159.684 343.231 159.976 344.371 160.559 345.397C161.152 346.412 161.964 347.208 162.994 347.791C164.035 348.363 165.19 348.645 166.47 348.645Z" fill="white"/>
<path d="M186.249 333.299C188.497 333.299 190.267 333.84 191.557 334.923C192.848 335.995 193.493 337.463 193.493 339.337C193.493 341.226 192.848 342.71 191.557 343.792C190.267 344.864 188.497 345.395 186.249 345.395H181.94V350.663H179.463V333.299H186.249ZM186.166 343.251C187.732 343.251 188.924 342.918 189.746 342.252C190.579 341.575 190.995 340.602 190.995 339.337C190.995 338.087 190.579 337.13 189.746 336.464C188.924 335.787 187.732 335.443 186.166 335.443H181.94V343.251H186.166Z" fill="white"/>
<path d="M213.491 350.663L213.47 338.004L207.184 348.56H206.039L199.773 338.087V350.663H197.379V333.299H199.419L206.663 345.5L213.803 333.299H215.843L215.864 350.663H213.491Z" fill="white"/>
<path d="M233.681 348.498V350.663H221.066V333.299H233.327V335.443H223.544V340.794H232.266V342.897H223.544V348.498H233.681Z" fill="white"/>
<path d="M252.636 333.299V350.663H250.596L240.167 337.713V350.663H237.689V333.299H239.729L250.159 346.249V333.299H252.636Z" fill="white"/>
<path d="M261.288 335.443H255.334V333.299H269.698V335.443H263.744V350.663H261.288V335.443Z" fill="white"/>
<path d="M320.158 339.401C329.24 339.401 331.228 330.458 331.228 325.045C331.228 320.787 330 310.689 320.158 310.689C310.349 310.689 309.068 320.751 309.068 325.045C309.068 330.422 311.072 339.401 320.158 339.401ZM320.158 333.404C315.527 333.404 315.719 328.168 315.719 325.009C315.719 322.276 315.615 316.691 320.158 316.691C324.837 316.691 324.572 322.312 324.572 325.154C324.572 328.095 324.572 333.404 320.158 333.404Z" fill="white"/>
<path d="M345.987 338.672C346.45 338.672 346.7 338.422 346.7 337.943V312.147C346.7 311.668 346.45 311.418 345.987 311.418H335.626C335.147 311.418 334.902 311.668 334.902 312.147V316.795C334.902 317.274 335.147 317.524 335.626 317.524H340.169V337.943C340.169 338.422 340.419 338.672 340.898 338.672H345.987Z" fill="white"/>
<path d="M287.377 122.8C286.128 122.8 285.134 123.216 284.4 124.049C283.677 124.882 283.318 126.027 283.318 127.485C283.318 128.973 283.661 130.124 284.359 130.941C285.066 131.763 286.066 132.169 287.356 132.169C288.158 132.169 289.069 132.023 290.083 131.732V132.898C289.292 133.2 288.319 133.356 287.169 133.356C285.488 133.356 284.192 132.846 283.276 131.815C282.36 130.79 281.902 129.338 281.902 127.464C281.902 126.287 282.116 125.257 282.548 124.382C282.99 123.498 283.63 122.816 284.463 122.342C285.295 121.858 286.274 121.613 287.398 121.613C288.59 121.613 289.636 121.832 290.541 122.259L289.979 123.404C289.105 123.003 288.236 122.8 287.377 122.8Z" fill="black"/>
<path d="M299.773 128.9C299.773 130.305 299.419 131.398 298.711 132.189C298.014 132.97 297.046 133.355 295.797 133.355C295.032 133.355 294.35 133.178 293.757 132.814C293.174 132.455 292.716 131.939 292.383 131.273C292.06 130.596 291.904 129.805 291.904 128.9C291.904 127.515 292.248 126.432 292.945 125.652C293.653 124.86 294.621 124.465 295.859 124.465C297.051 124.465 298.004 124.871 298.711 125.672C299.419 126.464 299.773 127.541 299.773 128.9ZM293.257 128.9C293.257 129.998 293.471 130.831 293.903 131.398C294.345 131.971 294.99 132.252 295.839 132.252C296.682 132.252 297.322 131.971 297.754 131.398C298.196 130.831 298.42 129.998 298.42 128.9C298.42 127.817 298.196 126.995 297.754 126.422C297.322 125.855 296.677 125.568 295.818 125.568C294.97 125.568 294.329 125.855 293.903 126.422C293.471 126.979 293.257 127.806 293.257 128.9Z" fill="black"/>
<path d="M307.889 133.189V127.65C307.889 126.958 307.727 126.438 307.41 126.089C307.103 125.745 306.608 125.568 305.932 125.568C305.026 125.568 304.371 125.813 303.954 126.297C303.538 126.786 303.33 127.583 303.33 128.691V133.189H302.039V124.631H303.101L303.309 125.797H303.371C303.632 125.381 304.001 125.058 304.475 124.819C304.959 124.585 305.495 124.465 306.078 124.465C307.118 124.465 307.894 124.715 308.409 125.214C308.935 125.714 309.2 126.516 309.2 127.609V133.189H307.889Z" fill="black"/>
<path d="M314.621 132.275C314.84 132.275 315.058 132.265 315.267 132.234C315.485 132.192 315.662 132.161 315.787 132.129V133.108C315.646 133.181 315.438 133.233 315.162 133.275C314.897 133.327 314.652 133.358 314.434 133.358C312.779 133.358 311.957 132.483 311.957 130.735V125.634H310.729V125.009L311.957 124.468L312.498 122.656H313.247V124.634H315.725V125.634H313.247V130.672C313.247 131.187 313.362 131.583 313.601 131.859C313.851 132.14 314.189 132.275 314.621 132.275Z" fill="black"/>
<path d="M321.117 133.355C319.852 133.355 318.853 132.97 318.119 132.189C317.38 131.414 317.016 130.347 317.016 128.983C317.016 127.598 317.354 126.5 318.036 125.693C318.712 124.876 319.628 124.465 320.783 124.465C321.85 124.465 322.699 124.819 323.323 125.527C323.948 126.235 324.26 127.166 324.26 128.317V129.149H318.369C318.395 130.149 318.645 130.914 319.118 131.44C319.602 131.955 320.284 132.21 321.158 132.21C322.074 132.21 322.98 132.017 323.885 131.627V132.793C323.427 132.991 322.99 133.126 322.574 133.209C322.168 133.303 321.684 133.355 321.117 133.355ZM320.763 125.568C320.065 125.568 319.514 125.792 319.097 126.235C318.691 126.682 318.457 127.296 318.39 128.088H322.865C322.865 127.27 322.683 126.646 322.324 126.214C321.96 125.787 321.439 125.568 320.763 125.568Z" fill="black"/>
<path d="M332.314 133.189V127.65C332.314 126.958 332.153 126.438 331.836 126.089C331.529 125.745 331.034 125.568 330.358 125.568C329.452 125.568 328.796 125.813 328.38 126.297C327.964 126.786 327.755 127.583 327.755 128.691V133.189H326.465V124.631H327.526L327.735 125.797H327.797C328.057 125.381 328.427 125.058 328.9 124.819C329.384 124.585 329.92 124.465 330.503 124.465C331.544 124.465 332.32 124.715 332.835 125.214C333.36 125.714 333.626 126.516 333.626 127.609V133.189H332.314Z" fill="black"/>
<path d="M339.049 132.275C339.268 132.275 339.486 132.265 339.694 132.234C339.913 132.192 340.09 132.161 340.215 132.129V133.108C340.074 133.181 339.866 133.233 339.59 133.275C339.325 133.327 339.08 133.358 338.862 133.358C337.207 133.358 336.384 132.483 336.384 130.735V125.634H335.156V125.009L336.384 124.468L336.926 122.656H337.675V124.634H340.152V125.634H337.675V130.672C337.675 131.187 337.79 131.583 338.029 131.859C338.279 132.14 338.617 132.275 339.049 132.275Z" fill="black"/>
<path d="M480.864 339.401C489.945 339.401 491.933 330.458 491.933 325.045C491.933 320.787 490.705 310.689 480.864 310.689C471.054 310.689 469.773 320.751 469.773 325.045C469.773 330.422 471.777 339.401 480.864 339.401ZM480.864 333.404C476.232 333.404 476.424 328.168 476.424 325.009C476.424 322.276 476.32 316.691 480.864 316.691C485.542 316.691 485.277 322.312 485.277 325.154C485.277 328.095 485.277 333.404 480.864 333.404Z" fill="white"/>
<path d="M515.572 338.672C516.051 338.672 516.301 338.422 516.301 337.943V333.404C516.301 332.926 516.051 332.676 515.572 332.676H508.775L511.138 329.553C513.178 326.856 515.838 324.035 515.838 319.741C515.838 314.791 511.986 310.689 506.064 310.689C500.105 310.689 496.785 314.224 495.879 318.799C495.812 319.226 496.025 319.528 496.468 319.632L501.521 320.683C501.984 320.787 502.249 320.537 502.322 320.059C502.676 317.768 503.915 316.691 506.132 316.691C507.693 316.691 509.254 317.966 509.254 319.741C509.254 321.709 507.516 323.624 506.595 324.795L496.431 337.803C496.056 338.266 496.254 338.672 496.873 338.672H515.572Z" fill="white"/>
<path d="M480.754 508.047C489.835 508.047 491.823 499.105 491.823 493.692C491.823 489.434 490.595 479.336 480.754 479.336C470.944 479.336 469.664 489.397 469.664 493.692C469.664 499.068 471.668 508.047 480.754 508.047ZM480.754 502.051C476.122 502.051 476.315 496.815 476.315 493.655C476.315 490.922 476.211 485.337 480.754 485.337C485.433 485.337 485.167 490.959 485.167 493.801C485.167 496.742 485.167 502.051 480.754 502.051Z" fill="white"/>
<path d="M506.576 508.047C512.201 508.047 516.37 505.028 516.334 499.318C516.334 496.086 515.111 494.009 511.879 492.718C514.117 491.849 515.766 489.699 515.766 487.076C515.766 481.376 511.259 479.336 506.451 479.336C501.663 479.336 498.291 481.147 496.766 484.432C496.537 484.859 496.766 485.228 497.193 485.369L501.913 486.93C502.319 487.076 502.532 486.899 502.834 486.576C503.63 485.546 504.645 484.963 506.097 484.963C508.173 484.963 509.183 485.92 509.183 487.586C509.183 489.507 507.799 490.392 505.191 490.392H503.261C502.797 490.392 502.532 490.641 502.532 491.12V494.936C502.532 495.394 502.797 495.659 503.261 495.659H505.545C508.564 495.659 509.771 496.461 509.807 498.589C509.807 500.895 508.387 502.295 506.274 502.295C504.572 502.295 502.907 501.66 501.913 499.651C501.663 499.209 501.345 499.105 500.934 499.282L496.214 501.536C495.808 501.728 495.668 502.082 495.845 502.53C497.958 506.964 502.178 508.047 506.576 508.047Z" fill="white"/>
<path d="M530.022 578.876C528.773 578.876 527.779 579.293 527.045 580.125C526.322 580.958 525.962 582.103 525.962 583.561C525.962 585.049 526.306 586.2 527.003 587.017C527.711 587.839 528.71 588.245 530.001 588.245C530.802 588.245 531.713 588.1 532.728 587.808V588.974C531.937 589.276 530.964 589.432 529.814 589.432C528.133 589.432 526.837 588.922 525.921 587.891C525.005 586.866 524.547 585.414 524.547 583.54C524.547 582.364 524.76 581.333 525.192 580.459C525.635 579.574 526.275 578.892 527.107 578.418C527.94 577.934 528.918 577.689 530.042 577.689C531.234 577.689 532.28 577.908 533.186 578.335L532.624 579.48C531.749 579.079 530.88 578.876 530.022 578.876Z" fill="black"/>
<path d="M542.418 584.976C542.418 586.381 542.064 587.474 541.356 588.265C540.659 589.046 539.691 589.431 538.442 589.431C537.677 589.431 536.995 589.254 536.402 588.89C535.819 588.531 535.361 588.015 535.028 587.349C534.705 586.673 534.549 585.881 534.549 584.976C534.549 583.591 534.892 582.509 535.59 581.728C536.297 580.937 537.265 580.541 538.504 580.541C539.696 580.541 540.648 580.947 541.356 581.749C542.064 582.54 542.418 583.617 542.418 584.976ZM535.902 584.976C535.902 586.074 536.115 586.907 536.547 587.474C536.99 588.047 537.635 588.328 538.483 588.328C539.326 588.328 539.966 588.047 540.398 587.474C540.841 586.907 541.064 586.074 541.064 584.976C541.064 583.893 540.841 583.071 540.398 582.498C539.966 581.931 539.321 581.644 538.462 581.644C537.614 581.644 536.974 581.931 536.547 582.498C536.115 583.055 535.902 583.883 535.902 584.976Z" fill="black"/>
<path d="M550.533 589.265V583.727C550.533 583.034 550.372 582.514 550.054 582.165C549.747 581.821 549.253 581.644 548.576 581.644C547.671 581.644 547.015 581.889 546.599 582.373C546.182 582.862 545.974 583.659 545.974 584.768V589.265H544.684V580.708H545.745L545.953 581.874H546.016C546.276 581.457 546.646 581.134 547.119 580.895C547.603 580.661 548.139 580.541 548.722 580.541C549.763 580.541 550.538 580.791 551.054 581.291C551.579 581.79 551.845 582.592 551.845 583.685V589.265H550.533Z" fill="black"/>
<path d="M557.266 588.347C557.484 588.347 557.703 588.337 557.911 588.306C558.13 588.264 558.307 588.233 558.432 588.202V589.18C558.291 589.253 558.083 589.305 557.807 589.347C557.542 589.399 557.297 589.43 557.078 589.43C555.423 589.43 554.601 588.556 554.601 586.807V581.706H553.373V581.081L554.601 580.54L555.142 578.729H555.892V580.706H558.369V581.706H555.892V586.744C555.892 587.26 556.006 587.655 556.246 587.931C556.496 588.212 556.834 588.347 557.266 588.347Z" fill="black"/>
<path d="M563.761 589.431C562.496 589.431 561.497 589.046 560.763 588.265C560.024 587.49 559.66 586.423 559.66 585.059C559.66 583.674 559.998 582.576 560.68 581.769C561.357 580.952 562.273 580.541 563.428 580.541C564.495 580.541 565.343 580.895 565.968 581.603C566.592 582.311 566.904 583.242 566.904 584.393V585.226H561.013C561.039 586.225 561.289 586.99 561.763 587.516C562.247 588.031 562.928 588.286 563.803 588.286C564.719 588.286 565.624 588.094 566.53 587.703V588.869C566.072 589.067 565.635 589.202 565.218 589.286C564.812 589.379 564.328 589.431 563.761 589.431ZM563.407 581.644C562.71 581.644 562.158 581.868 561.742 582.311C561.336 582.758 561.102 583.373 561.034 584.164H565.51C565.51 583.347 565.328 582.722 564.968 582.29C564.604 581.863 564.084 581.644 563.407 581.644Z" fill="black"/>
<path d="M574.959 589.265V583.727C574.959 583.034 574.798 582.514 574.48 582.165C574.173 581.821 573.679 581.644 573.002 581.644C572.097 581.644 571.441 581.889 571.025 582.373C570.608 582.862 570.4 583.659 570.4 584.768V589.265H569.109V580.708H570.171L570.379 581.874H570.442C570.702 581.457 571.071 581.134 571.545 580.895C572.029 580.661 572.565 580.541 573.148 580.541C574.189 580.541 574.964 580.791 575.479 581.291C576.005 581.79 576.27 582.592 576.27 583.685V589.265H574.959Z" fill="black"/>
<path d="M581.694 588.347C581.912 588.347 582.131 588.337 582.339 588.306C582.557 588.264 582.734 588.233 582.859 588.202V589.18C582.719 589.253 582.511 589.305 582.235 589.347C581.969 589.399 581.725 589.43 581.506 589.43C579.851 589.43 579.029 588.556 579.029 586.807V581.706H577.801V581.081L579.029 580.54L579.57 578.729H580.32V580.706H582.797V581.706H580.32V586.744C580.32 587.26 580.434 587.655 580.673 587.931C580.923 588.212 581.262 588.347 581.694 588.347Z" fill="black"/>
<path d="M316.035 508.047C325.117 508.047 327.105 499.105 327.105 493.692C327.105 489.434 325.877 479.336 316.035 479.336C306.226 479.336 304.945 489.397 304.945 493.692C304.945 499.068 306.949 508.047 316.035 508.047ZM316.035 502.051C311.404 502.051 311.596 496.815 311.596 493.655C311.596 490.922 311.492 485.337 316.035 485.337C320.714 485.337 320.449 490.959 320.449 493.801C320.449 496.742 320.449 502.051 316.035 502.051Z" fill="white"/>
<path d="M348.941 497.911V480.791C348.941 480.312 348.696 480.062 348.217 480.062H343.742C343.388 480.062 343.086 480.203 342.873 480.541L331.398 497.505C331.205 497.791 331.096 498.088 331.096 498.41V502.986C331.096 503.464 331.361 503.714 331.824 503.714H342.394V506.588C342.394 507.066 342.665 507.316 343.123 507.316H348.217C348.696 507.316 348.941 507.066 348.941 506.588V503.714H350.856C351.335 503.714 351.585 503.464 351.585 502.986V498.639C351.585 498.161 351.335 497.911 350.856 497.911H348.941ZM342.394 490.16V497.911H337.554L342.394 490.16Z" fill="white"/>
<path d="M96.9591 490.544H87.7165L85.8222 494.895H83.2617L91.1304 477.531H93.5868L101.476 494.895H98.8743L96.9591 490.544ZM96.0848 488.566L92.3378 480.051L88.5908 488.566H96.0848Z" fill="white"/>
<path d="M118.989 477.531V494.895H116.949L106.52 481.945V494.895H104.043V477.531H106.083L116.512 490.481V477.531H118.989Z" fill="white"/>
<path d="M124.191 477.531H131.519C133.351 477.531 134.974 477.896 136.39 478.614C137.816 479.337 138.919 480.358 139.7 481.674C140.491 482.997 140.886 484.506 140.886 486.213C140.886 487.921 140.491 489.435 139.7 490.752C138.919 492.059 137.816 493.079 136.39 493.813C134.974 494.536 133.351 494.895 131.519 494.895H124.191V477.531ZM131.373 492.73C132.773 492.73 134.006 492.459 135.079 491.918C136.145 491.377 136.962 490.617 137.535 489.628C138.118 488.644 138.409 487.504 138.409 486.213C138.409 484.922 138.118 483.788 137.535 482.799C136.962 481.815 136.145 481.05 135.079 480.509C134.006 479.957 132.773 479.676 131.373 479.676H126.669V492.73H131.373Z" fill="white"/>
<path d="M156.297 494.895L152.55 489.565C152.092 489.597 151.728 489.607 151.468 489.607H147.159V494.895H144.682V477.531H151.468C153.716 477.531 155.486 478.073 156.776 479.155C158.067 480.227 158.712 481.695 158.712 483.569C158.712 484.917 158.379 486.062 157.713 487.004C157.047 487.952 156.1 488.639 154.882 489.066L159.004 494.895H156.297ZM151.385 487.504C152.951 487.504 154.143 487.166 154.965 486.484C155.798 485.807 156.214 484.834 156.214 483.569C156.214 482.32 155.798 481.362 154.965 480.696C154.143 480.019 152.951 479.676 151.385 479.676H147.159V487.504H151.385Z" fill="white"/>
<path d="M162.715 477.531H165.192V494.895H162.715V477.531Z" fill="white"/>
<path d="M178.256 495.099C176.491 495.099 174.909 494.719 173.509 493.954C172.104 493.178 171.001 492.111 170.2 490.747C169.393 489.389 168.992 487.874 168.992 486.209C168.992 484.533 169.393 483.018 170.2 481.67C171.001 480.311 172.104 479.249 173.509 478.484C174.909 477.709 176.491 477.318 178.256 477.318C179.989 477.318 181.555 477.709 182.96 478.484C184.376 479.249 185.479 480.306 186.27 481.649C187.061 482.997 187.457 484.517 187.457 486.209C187.457 487.89 187.061 489.41 186.27 490.768C185.479 492.116 184.376 493.178 182.96 493.954C181.555 494.719 179.989 495.099 178.256 495.099ZM178.256 492.871C179.531 492.871 180.676 492.59 181.69 492.017C182.7 491.435 183.501 490.638 184.084 489.623C184.678 488.598 184.979 487.458 184.979 486.209C184.979 484.949 184.678 483.809 184.084 482.794C183.501 481.784 182.7 480.983 181.69 480.4C180.676 479.817 179.531 479.525 178.256 479.525C176.975 479.525 175.82 479.817 174.779 480.4C173.749 480.983 172.937 481.784 172.344 482.794C171.761 483.809 171.469 484.949 171.469 486.209C171.469 487.458 171.761 488.598 172.344 489.623C172.937 490.638 173.749 491.435 174.779 492.017C175.82 492.59 176.975 492.871 178.256 492.871Z" fill="white"/>
<path d="M191.246 477.531H198.574C200.405 477.531 202.029 477.896 203.445 478.614C204.871 479.337 205.974 480.358 206.755 481.674C207.546 482.997 207.941 484.506 207.941 486.213C207.941 487.921 207.546 489.435 206.755 490.752C205.974 492.059 204.871 493.079 203.445 493.813C202.029 494.536 200.405 494.895 198.574 494.895H191.246V477.531ZM198.428 492.73C199.828 492.73 201.061 492.459 202.133 491.918C203.2 491.377 204.017 490.617 204.59 489.628C205.172 488.644 205.464 487.504 205.464 486.213C205.464 484.922 205.172 483.788 204.59 482.799C204.017 481.815 203.2 481.05 202.133 480.509C201.061 479.957 199.828 479.676 198.428 479.676H193.723V492.73H198.428Z" fill="white"/>
<path d="M229.486 490.544H220.244L218.35 494.895H215.789L223.658 477.531H226.114L234.004 494.895H231.402L229.486 490.544ZM228.612 488.566L224.865 480.051L221.118 488.566H228.612Z" fill="white"/>
<path d="M243.36 477.531C245.609 477.531 247.378 478.073 248.669 479.155C249.959 480.227 250.605 481.695 250.605 483.569C250.605 485.459 249.959 486.942 248.669 488.025C247.378 489.097 245.609 489.628 243.36 489.628H239.051V494.895H236.574V477.531H243.36ZM243.277 487.483C244.844 487.483 246.035 487.15 246.858 486.484C247.69 485.807 248.107 484.834 248.107 483.569C248.107 482.32 247.69 481.362 246.858 480.696C246.035 480.019 244.844 479.676 243.277 479.676H239.051V487.483H243.277Z" fill="white"/>
<path d="M261.269 477.531C263.517 477.531 265.286 478.073 266.577 479.155C267.868 480.227 268.513 481.695 268.513 483.569C268.513 485.459 267.868 486.942 266.577 488.025C265.286 489.097 263.517 489.628 261.269 489.628H256.96V494.895H254.482V477.531H261.269ZM261.185 487.483C262.752 487.483 263.944 487.15 264.766 486.484C265.599 485.807 266.015 484.834 266.015 483.569C266.015 482.32 265.599 481.362 264.766 480.696C263.944 480.019 262.752 479.676 261.185 479.676H256.96V487.483H261.185Z" fill="white"/>
<path d="M72.4922 510.506H79.8197C81.6516 510.506 83.2753 510.87 84.6908 511.589C86.1167 512.312 87.22 513.332 88.0007 514.649C88.7917 515.971 89.1872 517.481 89.1872 519.188C89.1872 520.895 88.7917 522.41 88.0007 523.727C87.22 525.033 86.1167 526.053 84.6908 526.787C83.2753 527.511 81.6516 527.87 79.8197 527.87H72.4922V510.506ZM79.674 525.705C81.0739 525.705 82.3073 525.434 83.3793 524.893C84.4462 524.351 85.2633 523.591 85.8357 522.602C86.4186 521.619 86.71 520.479 86.71 519.188C86.71 517.897 86.4186 516.762 85.8357 515.773C85.2633 514.79 84.4462 514.024 83.3793 513.483C82.3073 512.931 81.0739 512.65 79.674 512.65H74.9694V525.705H79.674Z" fill="white"/>
<path d="M105.597 525.705V527.87H92.9824V510.506H105.243V512.65H95.4596V518.001H104.182V520.104H95.4596V525.705H105.597Z" fill="white"/>
<path d="M124.697 510.506L117.079 527.87H114.622L106.982 510.506H109.668L115.913 524.768L122.22 510.506H124.697Z" fill="white"/>
<path d="M139.883 525.705V527.87H127.268V510.506H139.529V512.65H129.745V518.001H138.467V520.104H129.745V525.705H139.883Z" fill="white"/>
<path d="M143.891 510.506H146.368V525.705H155.777V527.87H143.891V510.506Z" fill="white"/>
<path d="M166.47 528.081C164.706 528.081 163.124 527.701 161.724 526.936C160.319 526.161 159.216 525.094 158.414 523.73C157.608 522.371 157.207 520.857 157.207 519.191C157.207 517.515 157.608 516 158.414 514.652C159.216 513.294 160.319 512.232 161.724 511.467C163.124 510.691 164.706 510.301 166.47 510.301C168.203 510.301 169.77 510.691 171.175 511.467C172.591 512.232 173.694 513.288 174.485 514.631C175.276 515.98 175.671 517.499 175.671 519.191C175.671 520.872 175.276 522.392 174.485 523.751C173.694 525.099 172.591 526.161 171.175 526.936C169.77 527.701 168.203 528.081 166.47 528.081ZM166.47 525.854C167.746 525.854 168.89 525.572 169.905 525C170.915 524.417 171.716 523.621 172.299 522.606C172.892 521.58 173.194 520.44 173.194 519.191C173.194 517.931 172.892 516.792 172.299 515.777C171.716 514.767 170.915 513.965 169.905 513.382C168.89 512.799 167.746 512.508 166.47 512.508C165.19 512.508 164.035 512.799 162.994 513.382C161.964 513.965 161.152 514.767 160.559 515.777C159.976 516.792 159.684 517.931 159.684 519.191C159.684 520.44 159.976 521.58 160.559 522.606C161.152 523.621 161.964 524.417 162.994 525C164.035 525.572 165.19 525.854 166.47 525.854Z" fill="white"/>
<path d="M186.249 510.506C188.497 510.506 190.267 511.047 191.557 512.13C192.848 513.202 193.493 514.67 193.493 516.544C193.493 518.433 192.848 519.917 191.557 520.999C190.267 522.072 188.497 522.602 186.249 522.602H181.94V527.87H179.463V510.506H186.249ZM186.166 520.458C187.732 520.458 188.924 520.125 189.746 519.459C190.579 518.782 190.995 517.809 190.995 516.544C190.995 515.295 190.579 514.337 189.746 513.671C188.924 512.994 187.732 512.65 186.166 512.65H181.94V520.458H186.166Z" fill="white"/>
<path d="M213.491 527.87L213.47 515.211L207.184 525.767H206.039L199.773 515.295V527.87H197.379V510.506H199.419L206.663 522.707L213.803 510.506H215.843L215.864 527.87H213.491Z" fill="white"/>
<path d="M233.681 525.705V527.87H221.066V510.506H233.327V512.65H223.544V518.001H232.266V520.104H223.544V525.705H233.681Z" fill="white"/>
<path d="M252.636 510.506V527.87H250.596L240.167 514.92V527.87H237.689V510.506H239.729L250.159 523.456V510.506H252.636Z" fill="white"/>
<path d="M261.288 512.65H255.334V510.506H269.698V512.65H263.744V527.87H261.288V512.65Z" fill="white"/>
<path d="M274.996 578.876C273.747 578.876 272.753 579.293 272.019 580.125C271.296 580.958 270.937 582.103 270.937 583.561C270.937 585.049 271.28 586.2 271.978 587.017C272.686 587.839 273.685 588.245 274.975 588.245C275.777 588.245 276.688 588.1 277.702 587.808V588.974C276.911 589.276 275.938 589.432 274.788 589.432C273.107 589.432 271.811 588.922 270.895 587.891C269.979 586.866 269.521 585.414 269.521 583.54C269.521 582.364 269.735 581.333 270.167 580.459C270.609 579.574 271.249 578.892 272.082 578.418C272.915 577.934 273.893 577.689 275.017 577.689C276.209 577.689 277.255 577.908 278.16 578.335L277.598 579.48C276.724 579.079 275.855 578.876 274.996 578.876Z" fill="black"/>
<path d="M287.392 584.976C287.392 586.381 287.038 587.474 286.331 588.265C285.633 589.046 284.665 589.431 283.416 589.431C282.651 589.431 281.969 589.254 281.376 588.89C280.793 588.531 280.335 588.015 280.002 587.349C279.68 586.673 279.523 585.881 279.523 584.976C279.523 583.591 279.867 582.509 280.564 581.728C281.272 580.937 282.24 580.541 283.479 580.541C284.67 580.541 285.623 580.947 286.331 581.749C287.038 582.54 287.392 583.617 287.392 584.976ZM280.877 584.976C280.877 586.074 281.09 586.907 281.522 587.474C281.964 588.047 282.61 588.328 283.458 588.328C284.301 588.328 284.941 588.047 285.373 587.474C285.815 586.907 286.039 586.074 286.039 584.976C286.039 583.893 285.815 583.071 285.373 582.498C284.941 581.931 284.296 581.644 283.437 581.644C282.589 581.644 281.949 581.931 281.522 582.498C281.09 583.055 280.877 583.883 280.877 584.976Z" fill="black"/>
<path d="M295.508 589.265V583.727C295.508 583.034 295.346 582.514 295.029 582.165C294.722 581.821 294.227 581.644 293.551 581.644C292.645 581.644 291.99 581.889 291.573 582.373C291.157 582.862 290.949 583.659 290.949 584.768V589.265H289.658V580.708H290.72L290.928 581.874H290.99C291.251 581.457 291.62 581.134 292.094 580.895C292.578 580.661 293.114 580.541 293.697 580.541C294.737 580.541 295.513 580.791 296.028 581.291C296.554 581.79 296.819 582.592 296.819 583.685V589.265H295.508Z" fill="black"/>
<path d="M302.242 588.347C302.461 588.347 302.679 588.337 302.888 588.306C303.106 588.264 303.283 588.233 303.408 588.202V589.18C303.268 589.253 303.059 589.305 302.784 589.347C302.518 589.399 302.274 589.43 302.055 589.43C300.4 589.43 299.578 588.556 299.578 586.807V581.706H298.35V581.081L299.578 580.54L300.119 578.729H300.868V580.706H303.346V581.706H300.868V586.744C300.868 587.26 300.983 587.655 301.222 587.931C301.472 588.212 301.81 588.347 302.242 588.347Z" fill="black"/>
<path d="M308.736 589.431C307.471 589.431 306.472 589.046 305.738 588.265C304.999 587.49 304.635 586.423 304.635 585.059C304.635 583.674 304.973 582.576 305.655 581.769C306.331 580.952 307.247 580.541 308.403 580.541C309.469 580.541 310.318 580.895 310.942 581.603C311.567 582.311 311.879 583.242 311.879 584.393V585.226H305.988C306.014 586.225 306.264 586.99 306.737 587.516C307.221 588.031 307.903 588.286 308.777 588.286C309.693 588.286 310.599 588.094 311.504 587.703V588.869C311.046 589.067 310.609 589.202 310.193 589.286C309.787 589.379 309.303 589.431 308.736 589.431ZM308.382 581.644C307.684 581.644 307.133 581.868 306.716 582.311C306.311 582.758 306.076 583.373 306.009 584.164H310.484C310.484 583.347 310.302 582.722 309.943 582.29C309.579 581.863 309.058 581.644 308.382 581.644Z" fill="black"/>
<path d="M319.933 589.265V583.727C319.933 583.034 319.772 582.514 319.455 582.165C319.148 581.821 318.653 581.644 317.977 581.644C317.071 581.644 316.415 581.889 315.999 582.373C315.583 582.862 315.375 583.659 315.375 584.768V589.265H314.084V580.708H315.146L315.354 581.874H315.416C315.676 581.457 316.046 581.134 316.52 580.895C317.004 580.661 317.54 580.541 318.122 580.541C319.163 580.541 319.939 580.791 320.454 581.291C320.98 581.79 321.245 582.592 321.245 583.685V589.265H319.933Z" fill="black"/>
<path d="M326.668 588.347C326.887 588.347 327.105 588.337 327.313 588.306C327.532 588.264 327.709 588.233 327.834 588.202V589.18C327.693 589.253 327.485 589.305 327.209 589.347C326.944 589.399 326.699 589.43 326.481 589.43C324.826 589.43 324.004 588.556 324.004 586.807V581.706H322.775V581.081L324.004 580.54L324.545 578.729H325.294V580.706H327.771V581.706H325.294V586.744C325.294 587.26 325.409 587.655 325.648 587.931C325.898 588.212 326.236 588.347 326.668 588.347Z" fill="black"/>
<path d="M569.763 317.232C570.763 317.523 571.554 318.039 572.137 318.772C572.719 319.512 573.011 320.438 573.011 321.562C573.011 323.061 572.438 324.222 571.304 325.039C570.164 325.846 568.514 326.247 566.35 326.247H558.064V308.883H565.85C567.833 308.883 569.368 309.278 570.45 310.07C571.543 310.861 572.095 311.959 572.095 313.359C572.095 314.275 571.876 315.066 571.45 315.733C571.033 316.389 570.471 316.888 569.763 317.232ZM560.542 310.882V316.441H565.642C566.917 316.441 567.895 316.206 568.577 315.733C569.253 315.264 569.597 314.577 569.597 313.671C569.597 312.755 569.253 312.063 568.577 311.589C567.895 311.121 566.917 310.882 565.642 310.882H560.542ZM566.266 324.227C567.666 324.227 568.723 323.998 569.43 323.54C570.138 323.082 570.492 322.354 570.492 321.354C570.492 319.428 569.082 318.46 566.266 318.46H560.542V324.227H566.266Z" fill="white"/>
<path d="M587.914 321.895H578.672L576.777 326.247H574.217L582.086 308.883H584.542L592.431 326.247H589.829L587.914 321.895ZM587.04 319.918L583.293 311.402L579.546 319.918H587.04Z" fill="white"/>
<path d="M602.764 326.454C601.026 326.454 599.46 326.074 598.06 325.309C596.67 324.534 595.572 323.472 594.771 322.124C593.98 320.765 593.584 319.245 593.584 317.564C593.584 315.872 593.98 314.353 594.771 313.004C595.572 311.662 596.675 310.605 598.08 309.84C599.48 309.064 601.047 308.674 602.785 308.674C604.143 308.674 605.387 308.903 606.511 309.361C607.635 309.819 608.598 310.496 609.405 311.38L607.781 312.942C606.475 311.568 604.846 310.881 602.889 310.881C601.598 310.881 600.433 311.172 599.392 311.755C598.351 312.338 597.529 313.14 596.935 314.15C596.353 315.165 596.061 316.304 596.061 317.564C596.061 318.813 596.353 319.953 596.935 320.979C597.529 321.994 598.351 322.79 599.392 323.373C600.433 323.945 601.598 324.227 602.889 324.227C604.83 324.227 606.459 323.534 607.781 322.145L609.405 323.706C608.598 324.612 607.625 325.299 606.49 325.767C605.366 326.225 604.122 326.454 602.764 326.454Z" fill="white"/>
<path d="M618.6 318.523L615.415 321.75V326.247H612.938V308.883H615.415V318.585L624.845 308.883H627.676L620.265 316.69L628.155 326.247H625.24L618.6 318.523Z" fill="white"/>
<path d="M643.388 324.082V326.247H630.773V308.883H643.034V311.027H633.251V316.378H641.973V318.481H633.251V324.082H643.388Z" fill="white"/>
<path d="M662.343 308.883V326.247H660.303L649.874 313.297V326.247H647.396V308.883H649.437L659.866 321.833V308.883H662.343Z" fill="white"/>
<path d="M667.543 308.883H674.87C676.702 308.883 678.326 309.247 679.742 309.965C681.168 310.689 682.271 311.709 683.051 313.026C683.842 314.348 684.238 315.858 684.238 317.565C684.238 319.272 683.842 320.787 683.051 322.104C682.271 323.41 681.168 324.43 679.742 325.164C678.326 325.888 676.702 326.247 674.87 326.247H667.543V308.883ZM674.725 324.082C676.125 324.082 677.358 323.811 678.43 323.27C679.497 322.728 680.314 321.968 680.886 320.979C681.469 319.996 681.761 318.856 681.761 317.565C681.761 316.274 681.469 315.139 680.886 314.15C680.314 313.167 679.497 312.401 678.43 311.86C677.358 311.308 676.125 311.027 674.725 311.027H670.02V324.082H674.725Z" fill="white"/>
<path d="M558.064 341.863H565.392C567.224 341.863 568.848 342.228 570.263 342.946C571.689 343.669 572.792 344.69 573.573 346.007C574.364 347.329 574.759 348.838 574.759 350.545C574.759 352.253 574.364 353.767 573.573 355.084C572.792 356.391 571.689 357.411 570.263 358.145C568.848 358.868 567.224 359.227 565.392 359.227H558.064V341.863ZM565.246 357.062C566.646 357.062 567.88 356.791 568.952 356.25C570.018 355.709 570.836 354.949 571.408 353.96C571.991 352.976 572.282 351.836 572.282 350.545C572.282 349.254 571.991 348.12 571.408 347.131C570.836 346.147 570.018 345.382 568.952 344.841C567.88 344.289 566.646 344.008 565.246 344.008H560.542V357.062H565.246Z" fill="white"/>
<path d="M591.168 357.062V359.227H578.553V341.863H590.814V344.008H581.03V349.359H589.752V351.461H581.03V357.062H591.168Z" fill="white"/>
<path d="M610.268 341.863L602.649 359.227H600.192L592.553 341.863H595.238L601.483 356.125L607.791 341.863H610.268Z" fill="white"/>
<path d="M625.453 357.062V359.227H612.838V341.863H625.099V344.008H615.315V349.359H624.037V351.461H615.315V357.062H625.453Z" fill="white"/>
<path d="M629.461 341.863H631.938V357.062H641.347V359.227H629.461V341.863Z" fill="white"/>
<path d="M652.041 359.435C650.277 359.435 648.695 359.055 647.295 358.29C645.889 357.514 644.786 356.447 643.985 355.083C643.178 353.725 642.777 352.21 642.777 350.545C642.777 348.869 643.178 347.354 643.985 346.006C644.786 344.647 645.889 343.585 647.295 342.82C648.695 342.045 650.277 341.654 652.041 341.654C653.774 341.654 655.34 342.045 656.745 342.82C658.161 343.585 659.264 344.642 660.055 345.985C660.846 347.333 661.242 348.853 661.242 350.545C661.242 352.226 660.846 353.746 660.055 355.104C659.264 356.452 658.161 357.514 656.745 358.29C655.34 359.055 653.774 359.435 652.041 359.435ZM652.041 357.207C653.316 357.207 654.461 356.926 655.476 356.353C656.485 355.77 657.287 354.974 657.869 353.959C658.463 352.934 658.765 351.794 658.765 350.545C658.765 349.285 658.463 348.145 657.869 347.13C657.287 346.12 656.485 345.319 655.476 344.736C654.461 344.153 653.316 343.861 652.041 343.861C650.761 343.861 649.605 344.153 648.564 344.736C647.534 345.319 646.722 346.12 646.129 347.13C645.546 348.145 645.255 349.285 645.255 350.545C645.255 351.794 645.546 352.934 646.129 353.959C646.722 354.974 647.534 355.77 648.564 356.353C649.605 356.926 650.761 357.207 652.041 357.207Z" fill="white"/>
<path d="M671.819 341.863C674.068 341.863 675.837 342.405 677.128 343.487C678.418 344.56 679.064 346.027 679.064 347.901C679.064 349.791 678.418 351.274 677.128 352.357C675.837 353.429 674.068 353.96 671.819 353.96H667.51V359.227H665.033V341.863H671.819ZM671.736 351.815C673.303 351.815 674.494 351.482 675.317 350.816C676.149 350.139 676.566 349.166 676.566 347.901C676.566 346.652 676.149 345.694 675.317 345.028C674.494 344.351 673.303 344.008 671.736 344.008H667.51V351.815H671.736Z" fill="white"/>
<path d="M699.061 359.227L699.041 346.569L692.754 357.125H691.609L685.343 346.652V359.227H682.949V341.863H684.989L692.233 354.064L699.374 341.863H701.414L701.434 359.227H699.061Z" fill="white"/>
<path d="M719.252 357.062V359.227H706.637V341.863H718.898V344.008H709.114V349.359H717.836V351.461H709.114V357.062H719.252Z" fill="white"/>
<path d="M738.206 341.863V359.227H736.166L725.737 346.277V359.227H723.26V341.863H725.3L735.729 354.813V341.863H738.206Z" fill="white"/>
<path d="M746.858 344.008H740.904V341.863H755.268V344.008H749.314V359.227H746.858V344.008Z" fill="white"/>
<path d="M491.871 122.8C490.622 122.8 489.628 123.216 488.894 124.049C488.171 124.882 487.812 126.027 487.812 127.485C487.812 128.973 488.155 130.124 488.853 130.941C489.561 131.763 490.56 132.169 491.85 132.169C492.652 132.169 493.563 132.023 494.577 131.732V132.898C493.786 133.2 492.813 133.356 491.663 133.356C489.982 133.356 488.686 132.846 487.77 131.815C486.854 130.79 486.396 129.338 486.396 127.464C486.396 126.287 486.61 125.257 487.042 124.382C487.484 123.498 488.124 122.816 488.957 122.342C489.79 121.858 490.768 121.613 491.892 121.613C493.084 121.613 494.13 121.832 495.035 122.259L494.473 123.404C493.599 123.003 492.73 122.8 491.871 122.8Z" fill="black"/>
<path d="M504.267 128.9C504.267 130.305 503.913 131.398 503.206 132.189C502.508 132.97 501.54 133.355 500.291 133.355C499.526 133.355 498.844 133.178 498.251 132.814C497.668 132.455 497.21 131.939 496.877 131.273C496.555 130.596 496.398 129.805 496.398 128.9C496.398 127.515 496.742 126.432 497.439 125.652C498.147 124.86 499.115 124.465 500.354 124.465C501.545 124.465 502.498 124.871 503.206 125.672C503.913 126.464 504.267 127.541 504.267 128.9ZM497.752 128.9C497.752 129.998 497.965 130.831 498.397 131.398C498.839 131.971 499.485 132.252 500.333 132.252C501.176 132.252 501.816 131.971 502.248 131.398C502.69 130.831 502.914 129.998 502.914 128.9C502.914 127.817 502.69 126.995 502.248 126.422C501.816 125.855 501.171 125.568 500.312 125.568C499.464 125.568 498.824 125.855 498.397 126.422C497.965 126.979 497.752 127.806 497.752 128.9Z" fill="black"/>
<path d="M512.383 133.189V127.65C512.383 126.958 512.221 126.438 511.904 126.089C511.597 125.745 511.102 125.568 510.426 125.568C509.52 125.568 508.865 125.813 508.448 126.297C508.032 126.786 507.824 127.583 507.824 128.691V133.189H506.533V124.631H507.595L507.803 125.797H507.865C508.126 125.381 508.495 125.058 508.969 124.819C509.453 124.585 509.989 124.465 510.572 124.465C511.612 124.465 512.388 124.715 512.903 125.214C513.429 125.714 513.694 126.516 513.694 127.609V133.189H512.383Z" fill="black"/>
<path d="M519.113 132.275C519.332 132.275 519.551 132.265 519.759 132.234C519.977 132.192 520.154 132.161 520.279 132.129V133.108C520.139 133.181 519.93 133.233 519.655 133.275C519.389 133.327 519.145 133.358 518.926 133.358C517.271 133.358 516.449 132.483 516.449 130.735V125.634H515.221V125.009L516.449 124.468L516.99 122.656H517.74V124.634H520.217V125.634H517.74V130.672C517.74 131.187 517.854 131.583 518.093 131.859C518.343 132.14 518.681 132.275 519.113 132.275Z" fill="black"/>
<path d="M525.611 133.355C524.346 133.355 523.347 132.97 522.613 132.189C521.874 131.414 521.51 130.347 521.51 128.983C521.51 127.598 521.848 126.5 522.53 125.693C523.206 124.876 524.122 124.465 525.278 124.465C526.344 124.465 527.193 124.819 527.817 125.527C528.442 126.235 528.754 127.166 528.754 128.317V129.149H522.863C522.889 130.149 523.139 130.914 523.612 131.44C524.096 131.955 524.778 132.21 525.652 132.21C526.568 132.21 527.474 132.017 528.379 131.627V132.793C527.921 132.991 527.484 133.126 527.068 133.209C526.662 133.303 526.178 133.355 525.611 133.355ZM525.257 125.568C524.559 125.568 524.008 125.792 523.591 126.235C523.186 126.682 522.951 127.296 522.884 128.088H527.359C527.359 127.27 527.177 126.646 526.818 126.214C526.454 125.787 525.933 125.568 525.257 125.568Z" fill="black"/>
<path d="M536.808 133.189V127.65C536.808 126.958 536.647 126.438 536.33 126.089C536.023 125.745 535.528 125.568 534.852 125.568C533.946 125.568 533.29 125.813 532.874 126.297C532.458 126.786 532.25 127.583 532.25 128.691V133.189H530.959V124.631H532.021L532.229 125.797H532.291C532.551 125.381 532.921 125.058 533.395 124.819C533.879 124.585 534.415 124.465 534.997 124.465C536.038 124.465 536.814 124.715 537.329 125.214C537.855 125.714 538.12 126.516 538.12 127.609V133.189H536.808Z" fill="black"/>
<path d="M543.539 132.275C543.758 132.275 543.976 132.265 544.185 132.234C544.403 132.192 544.58 132.161 544.705 132.129V133.108C544.564 133.181 544.356 133.233 544.08 133.275C543.815 133.327 543.57 133.358 543.352 133.358C541.697 133.358 540.875 132.483 540.875 130.735V125.634H539.646V125.009L540.875 124.468L541.416 122.656H542.165V124.634H544.643V125.634H542.165V130.672C542.165 131.187 542.28 131.583 542.519 131.859C542.769 132.14 543.107 132.275 543.539 132.275Z" fill="black"/>
<path d="M581.921 477.531V494.895H579.444V487.15H569.452V494.895H566.975V477.531H569.452V484.985H579.444V477.531H581.921Z" fill="white"/>
<path d="M593.787 488.899V494.895H591.331V488.837L584.42 477.531H587.084L592.643 486.671L598.221 477.531H600.678L593.787 488.899Z" fill="white"/>
<path d="M614.871 485.88C615.87 486.172 616.661 486.687 617.244 487.421C617.827 488.16 618.118 489.086 618.118 490.211C618.118 491.71 617.546 492.871 616.411 493.688C615.272 494.495 613.622 494.895 611.457 494.895H603.172V477.531H610.957C612.94 477.531 614.475 477.927 615.558 478.718C616.651 479.509 617.202 480.607 617.202 482.008C617.202 482.924 616.984 483.715 616.557 484.381C616.141 485.037 615.579 485.537 614.871 485.88ZM605.649 479.53V485.089H610.749C612.024 485.089 613.003 484.855 613.684 484.381C614.361 483.913 614.704 483.226 614.704 482.32C614.704 481.404 614.361 480.712 613.684 480.238C613.003 479.769 612.024 479.53 610.749 479.53H605.649ZM611.374 492.876C612.774 492.876 613.83 492.647 614.538 492.189C615.246 491.731 615.599 491.002 615.599 490.003C615.599 488.077 614.189 487.109 611.374 487.109H605.649V492.876H611.374Z" fill="white"/>
<path d="M633.569 494.895L629.822 489.565C629.364 489.597 629 489.607 628.739 489.607H624.43V494.895H621.953V477.531H628.739C630.988 477.531 632.757 478.073 634.048 479.155C635.338 480.227 635.984 481.695 635.984 483.569C635.984 484.917 635.651 486.062 634.984 487.004C634.318 487.952 633.371 488.639 632.153 489.066L636.275 494.895H633.569ZM628.656 487.504C630.223 487.504 631.414 487.166 632.237 486.484C633.069 485.807 633.486 484.834 633.486 483.569C633.486 482.32 633.069 481.362 632.237 480.696C631.414 480.019 630.223 479.676 628.656 479.676H624.43V487.504H628.656Z" fill="white"/>
<path d="M639.988 477.531H642.465V494.895H639.988V477.531Z" fill="white"/>
<path d="M647.676 477.531H655.003C656.835 477.531 658.459 477.896 659.874 478.614C661.3 479.337 662.404 480.358 663.184 481.674C663.975 482.997 664.371 484.506 664.371 486.213C664.371 487.921 663.975 489.435 663.184 490.752C662.404 492.059 661.3 493.079 659.874 493.813C658.459 494.536 656.835 494.895 655.003 494.895H647.676V477.531ZM654.858 492.73C656.257 492.73 657.491 492.459 658.563 491.918C659.63 491.377 660.447 490.617 661.019 489.628C661.602 488.644 661.894 487.504 661.894 486.213C661.894 484.922 661.602 483.788 661.019 482.799C660.447 481.815 659.63 481.05 658.563 480.509C657.491 479.957 656.257 479.676 654.858 479.676H650.153V492.73H654.858Z" fill="white"/>
<path d="M685.916 490.544H676.674L674.779 494.895H672.219L680.087 477.531H682.544L690.433 494.895H687.831L685.916 490.544ZM685.042 488.566L681.295 480.051L677.548 488.566H685.042Z" fill="white"/>
<path d="M699.79 477.531C702.038 477.531 703.808 478.073 705.098 479.155C706.389 480.227 707.034 481.695 707.034 483.569C707.034 485.459 706.389 486.942 705.098 488.025C703.808 489.097 702.038 489.628 699.79 489.628H695.481V494.895H693.004V477.531H699.79ZM699.707 487.483C701.273 487.483 702.465 487.15 703.287 486.484C704.12 485.807 704.536 484.834 704.536 483.569C704.536 482.32 704.12 481.362 703.287 480.696C702.465 480.019 701.273 479.676 699.707 479.676H695.481V487.483H699.707Z" fill="white"/>
<path d="M717.7 477.531C719.949 477.531 721.718 478.073 723.009 479.155C724.299 480.227 724.945 481.695 724.945 483.569C724.945 485.459 724.299 486.942 723.009 488.025C721.718 489.097 719.949 489.628 717.7 489.628H713.391V494.895H710.914V477.531H717.7ZM717.617 487.483C719.184 487.483 720.375 487.15 721.198 486.484C722.03 485.807 722.447 484.834 722.447 483.569C722.447 482.32 722.03 481.362 721.198 480.696C720.375 480.019 719.184 479.676 717.617 479.676H713.391V487.483H717.617Z" fill="white"/>
<path d="M566.975 510.506H574.302C576.134 510.506 577.758 510.87 579.173 511.589C580.599 512.312 581.702 513.332 582.483 514.649C583.274 515.971 583.67 517.481 583.67 519.188C583.67 520.895 583.274 522.41 582.483 523.727C581.702 525.033 580.599 526.053 579.173 526.787C577.758 527.511 576.134 527.87 574.302 527.87H566.975V510.506ZM574.156 525.705C575.556 525.705 576.79 525.434 577.862 524.893C578.929 524.351 579.746 523.591 580.318 522.602C580.901 521.619 581.192 520.479 581.192 519.188C581.192 517.897 580.901 516.762 580.318 515.773C579.746 514.79 578.929 514.024 577.862 513.483C576.79 512.931 575.556 512.65 574.156 512.65H569.452V525.705H574.156Z" fill="white"/>
<path d="M600.086 525.705V527.87H587.471V510.506H599.732V512.65H589.948V518.001H598.67V520.104H589.948V525.705H600.086Z" fill="white"/>
<path d="M619.186 510.506L611.567 527.87H609.11L601.471 510.506H604.156L610.401 524.768L616.709 510.506H619.186Z" fill="white"/>
<path d="M634.371 525.705V527.87H621.756V510.506H634.017V512.65H624.233V518.001H632.955V520.104H624.233V525.705H634.371Z" fill="white"/>
<path d="M638.379 510.506H640.856V525.705H650.265V527.87H638.379V510.506Z" fill="white"/>
<path d="M660.961 528.081C659.196 528.081 657.614 527.701 656.214 526.936C654.809 526.161 653.706 525.094 652.905 523.73C652.098 522.371 651.697 520.857 651.697 519.191C651.697 517.515 652.098 516 652.905 514.652C653.706 513.294 654.809 512.232 656.214 511.467C657.614 510.691 659.196 510.301 660.961 510.301C662.694 510.301 664.26 510.691 665.665 511.467C667.081 512.232 668.184 513.288 668.975 514.631C669.766 515.98 670.162 517.499 670.162 519.191C670.162 520.872 669.766 522.392 668.975 523.751C668.184 525.099 667.081 526.161 665.665 526.936C664.26 527.701 662.694 528.081 660.961 528.081ZM660.961 525.854C662.236 525.854 663.381 525.572 664.395 525C665.405 524.417 666.207 523.621 666.789 522.606C667.383 521.58 667.685 520.44 667.685 519.191C667.685 517.931 667.383 516.792 666.789 515.777C666.207 514.767 665.405 513.965 664.395 513.382C663.381 512.799 662.236 512.508 660.961 512.508C659.68 512.508 658.525 512.799 657.484 513.382C656.454 513.965 655.642 514.767 655.049 515.777C654.466 516.792 654.174 517.931 654.174 519.191C654.174 520.44 654.466 521.58 655.049 522.606C655.642 523.621 656.454 524.417 657.484 525C658.525 525.572 659.68 525.854 660.961 525.854Z" fill="white"/>
<path d="M680.737 510.506C682.986 510.506 684.755 511.047 686.046 512.13C687.336 513.202 687.982 514.67 687.982 516.544C687.982 518.433 687.336 519.917 686.046 520.999C684.755 522.072 682.986 522.602 680.737 522.602H676.428V527.87H673.951V510.506H680.737ZM680.654 520.458C682.221 520.458 683.412 520.125 684.235 519.459C685.067 518.782 685.484 517.809 685.484 516.544C685.484 515.295 685.067 514.337 684.235 513.671C683.412 512.994 682.221 512.65 680.654 512.65H676.428V520.458H680.654Z" fill="white"/>
<path d="M707.973 527.87L707.953 515.211L701.666 525.767H700.521L694.255 515.295V527.87H691.861V510.506H693.901L701.146 522.707L708.286 510.506H710.326L710.347 527.87H707.973Z" fill="white"/>
<path d="M728.172 525.705V527.87H715.557V510.506H727.818V512.65H718.034V518.001H726.756V520.104H718.034V525.705H728.172Z" fill="white"/>
<path d="M747.124 510.506V527.87H745.084L734.655 514.92V527.87H732.178V510.506H734.218L744.647 523.456V510.506H747.124Z" fill="white"/>
<path d="M755.778 512.65H749.824V510.506H764.188V512.65H758.234V527.87H755.778V512.65Z" fill="white"/>
</svg>
