<svg width="152" height="131" viewBox="0 0 152 131" fill="none" xmlns="http://www.w3.org/2000/svg">
<path d="M114.001 0H37.9987L0 65.5L37.9987 131H114.001L152 65.5L114.001 0Z" fill="#AA0021"/>
<path d="M74.8 83.5C72.3333 83.5 69.9167 83.15 67.55 82.45C65.2167 81.7167 63.25 80.7167 61.65 79.45L64.4 74.4C65.6667 75.4333 67.2 76.2667 69 76.9C70.8333 77.5333 72.7333 77.85 74.7 77.85C77 77.85 78.8 77.3667 80.1 76.4C81.4333 75.4333 82.1 74.1333 82.1 72.5C82.1 71.4 81.8167 70.4333 81.25 69.6C80.7167 68.7667 79.75 68.1333 78.35 67.7C76.9833 67.2667 75.1 67.05 72.7 67.05H64.25L66.05 48H86.6V53.45H68.45L71.85 50.35L70.5 64.6L67.1 61.55H74.15C77.6167 61.55 80.4 62.0167 82.5 62.95C84.6333 63.85 86.1833 65.1167 87.15 66.75C88.15 68.35 88.65 70.1833 88.65 72.25C88.65 74.2833 88.15 76.15 87.15 77.85C86.15 79.55 84.6167 80.9167 82.55 81.95C80.5167 82.9833 77.9333 83.5 74.8 83.5Z" fill="white"/>
<path d="M67.55 82.45L67.1003 83.881L67.1124 83.8848L67.1246 83.8884L67.55 82.45ZM61.65 79.45L60.3327 78.7326L59.7285 79.842L60.7189 80.6261L61.65 79.45ZM64.4 74.4L65.3482 73.2377L63.9473 72.0949L63.0827 73.6826L64.4 74.4ZM69 76.9L68.5021 78.315L68.5102 78.3178L69 76.9ZM80.1 76.4L79.2195 75.1856L79.2122 75.1909L79.2049 75.1963L80.1 76.4ZM81.25 69.6L79.9866 70.4086L79.9979 70.4262L80.0096 70.4435L81.25 69.6ZM78.35 67.7L77.8966 69.1299L77.9065 69.1329L78.35 67.7ZM64.25 67.05L62.7567 66.9089L62.6016 68.55H64.25V67.05ZM66.05 48V46.5H64.6851L64.5567 47.8589L66.05 48ZM86.6 48H88.1V46.5H86.6V48ZM86.6 53.45V54.95H88.1V53.45H86.6ZM68.45 53.45L67.4394 52.3416L64.5785 54.95H68.45V53.45ZM71.85 50.35L73.3433 50.4915L73.7097 46.6245L70.8394 49.2416L71.85 50.35ZM70.5 64.6L69.4984 65.7166L71.7127 67.703L71.9933 64.7415L70.5 64.6ZM67.1 61.55V60.05H63.1815L66.0984 62.6666L67.1 61.55ZM82.5 62.95L81.8908 64.3207L81.9038 64.3265L81.917 64.332L82.5 62.95ZM87.15 66.75L85.8591 67.514L85.8684 67.5296L85.878 67.545L87.15 66.75ZM87.15 77.85L85.8571 77.0895H85.8571L87.15 77.85ZM82.55 81.95L81.8792 80.6083L81.8704 80.6128L82.55 81.95ZM74.8 82C72.4775 82 70.2041 81.6708 67.9754 81.0116L67.1246 83.8884C69.6293 84.6292 72.1892 85 74.8 85V82ZM67.9997 81.019C65.8073 80.3299 64.0121 79.4069 62.5811 78.2739L60.7189 80.6261C62.4879 82.0265 64.6261 83.1034 67.1003 83.881L67.9997 81.019ZM62.9673 80.1674L65.7173 75.1174L63.0827 73.6826L60.3327 78.7326L62.9673 80.1674ZM63.4518 75.5623C64.8733 76.7219 66.5654 77.6335 68.5021 78.315L69.4979 75.485C67.8346 74.8998 66.4601 74.1448 65.3482 73.2377L63.4518 75.5623ZM68.5102 78.3178C70.5033 79.0063 72.569 79.35 74.7 79.35V76.35C72.8977 76.35 71.1633 76.0604 69.4898 75.4822L68.5102 78.3178ZM74.7 79.35C77.1912 79.35 79.3478 78.8286 80.9951 77.6037L79.2049 75.1963C78.2522 75.9047 76.8088 76.35 74.7 76.35V79.35ZM80.9805 77.6144C82.6991 76.3684 83.6 74.6187 83.6 72.5H80.6C80.6 73.6479 80.1675 74.4983 79.2195 75.1856L80.9805 77.6144ZM83.6 72.5C83.6 71.128 83.2417 69.8614 82.4904 68.7565L80.0096 70.4435C80.3916 71.0052 80.6 71.672 80.6 72.5H83.6ZM82.5134 68.7914C81.7157 67.545 80.3741 66.7563 78.7935 66.2671L77.9065 69.1329C79.1259 69.5104 79.7176 69.9883 79.9866 70.4086L82.5134 68.7914ZM78.8034 66.2702C77.2244 65.7695 75.165 65.55 72.7 65.55V68.55C75.035 68.55 76.7423 68.7638 77.8966 69.1298L78.8034 66.2702ZM72.7 65.55H64.25V68.55H72.7V65.55ZM65.7433 67.1911L67.5433 48.1411L64.5567 47.8589L62.7567 66.9089L65.7433 67.1911ZM66.05 49.5H86.6V46.5H66.05V49.5ZM85.1 48V53.45H88.1V48H85.1ZM86.6 51.95H68.45V54.95H86.6V51.95ZM69.4606 54.5584L72.8606 51.4584L70.8394 49.2416L67.4394 52.3416L69.4606 54.5584ZM70.3567 50.2085L69.0067 64.4585L71.9933 64.7415L73.3433 50.4915L70.3567 50.2085ZM71.5016 63.4834L68.1016 60.4334L66.0984 62.6666L69.4984 65.7166L71.5016 63.4834ZM67.1 63.05H74.15V60.05H67.1V63.05ZM74.15 63.05C77.5036 63.05 80.0547 63.5047 81.8908 64.3207L83.1092 61.5793C80.7453 60.5286 77.7298 60.05 74.15 60.05V63.05ZM81.917 64.332C83.8208 65.1352 85.0894 66.2134 85.8591 67.514L88.4409 65.986C87.2773 64.0199 85.4459 62.5648 83.0831 61.568L81.917 64.332ZM85.878 67.545C86.7149 68.8841 87.15 70.4367 87.15 72.25H90.15C90.15 69.93 89.5851 67.8159 88.422 65.955L85.878 67.545ZM87.15 72.25C87.15 74.0246 86.7172 75.6273 85.8571 77.0895L88.4429 78.6105C89.5828 76.6727 90.15 74.5421 90.15 72.25H87.15ZM85.8571 77.0895C85.0277 78.4994 83.732 79.6819 81.8792 80.6084L83.2208 83.2916C85.5013 82.1514 87.2723 80.6006 88.4429 78.6105L85.8571 77.0895ZM81.8704 80.6128C80.1113 81.5068 77.7808 82 74.8 82V85C78.0859 85 80.922 84.4599 83.2296 83.2872L81.8704 80.6128Z" fill="white"/>
</svg>
