<svg width="871" height="917" viewBox="0 0 871 917" fill="none" xmlns="http://www.w3.org/2000/svg">
<path d="M126.328 0C82.1458 0 46.3281 35.8177 46.3281 80C46.3281 124.182 82.1458 160 126.328 160C170.51 160 206.328 124.182 206.328 80C206.328 35.8177 170.51 0 126.328 0Z" fill="#E75825"/>
<path d="M435.256 0C391.068 0 355.256 35.8177 355.256 80C355.256 124.182 391.068 160 435.256 160C479.438 160 515.256 124.182 515.256 80C515.256 35.8177 479.438 0 435.256 0Z" fill="#AA0021"/>
<path d="M0 79.5723H252.995V442.572H0V79.5723Z" fill="#E75825"/>
<path d="M308.922 79.5723H561.922V442.572H308.922V79.5723Z" fill="#AA0021"/>
<path d="M744.178 0C699.995 0 664.178 35.8177 664.178 80C664.178 124.182 699.995 160 744.178 160C788.36 160 824.178 124.182 824.178 80C824.178 35.8177 788.36 0 744.178 0Z" fill="#147F00"/>
<path d="M617.85 79.5723H870.85V442.572H617.85V79.5723Z" fill="#147F00"/>
<path d="M126.047 8.84961C87.1146 8.84961 55.5469 40.4173 55.5469 79.3496C55.5469 118.287 87.1146 149.85 126.047 149.85C164.984 149.85 196.547 118.287 196.547 79.3496C196.547 40.4173 164.984 8.84961 126.047 8.84961Z" fill="white"/>
<path d="M434.975 8.84961C396.037 8.84961 364.475 40.4173 364.475 79.3496C364.475 118.287 396.037 149.85 434.975 149.85C473.912 149.85 505.475 118.287 505.475 79.3496C505.475 40.4173 473.912 8.84961 434.975 8.84961Z" fill="white"/>
<path d="M743.896 8.84961C704.964 8.84961 673.396 40.4173 673.396 79.3496C673.396 118.287 704.964 149.85 743.896 149.85C782.834 149.85 814.396 118.287 814.396 79.3496C814.396 40.4173 782.834 8.84961 743.896 8.84961Z" fill="white"/>
<path d="M198.646 379.813L178.896 357.506C177.484 355.912 175.547 355.032 173.432 354.855C171.313 354.678 169.198 355.386 167.609 356.797L164.26 359.808L156.854 351.313C173.432 335.204 179.427 311.303 172.37 289.172L187.359 274.12L191.417 278.193C192.12 278.902 193.177 279.079 194.057 278.902C194.943 278.547 195.646 277.839 195.823 276.777L200.229 249.162C200.406 248.277 200.057 247.391 199.526 246.86C198.995 246.329 198.115 245.974 197.234 246.152L169.901 250.579C168.844 250.756 168.141 251.464 167.786 252.349C167.438 253.23 167.786 254.292 168.495 255L172.547 259.073L161.969 269.521C161.438 268.813 160.734 268.105 160.208 267.396C138.167 242.433 99.901 239.954 74.8646 262.084C71.5156 265.094 68.6927 268.282 66.224 271.646L66.0469 271.823C62.6979 276.422 60.0521 281.558 58.1146 286.87C57.9375 287.579 57.7604 287.933 57.7604 288.287C52.1198 305.105 53.8854 324.047 63.5833 339.803H46.3021C44.8906 339.625 43.6562 340.865 43.6562 342.282V395.042C43.6562 396.459 44.8906 397.693 46.3021 397.693H135.875C137.281 397.693 138.516 396.459 138.516 395.042V363.349C143.63 361.224 148.568 358.214 152.974 354.678L160.38 363.172L157.031 366.183C155.443 367.599 154.563 369.547 154.385 371.672C154.208 373.797 154.917 375.922 156.328 377.511L176.073 399.818C179.073 403.183 183.13 404.954 187.359 404.954C190.885 404.954 194.411 403.714 197.234 401.235C200.229 398.579 201.995 394.865 202.172 390.969C202.521 386.719 201.286 382.823 198.646 379.813ZM178.193 257.303L175.901 255L194.766 251.995L191.766 270.938L189.474 268.636C188.417 267.573 186.828 267.573 185.771 268.636L167.609 286.516L139.047 315.193L124.766 300.855C123.708 299.792 122.12 299.792 121.063 300.855L98.6667 323.162L63.4063 287.933C64.6406 284.391 66.401 281.027 68.3438 278.016L96.7292 306.521C97.7865 307.584 99.375 307.584 100.432 306.521L122.823 284.214L137.109 298.553C138.167 299.615 139.75 299.615 140.813 298.553L178.016 261.375C178.542 260.844 178.719 260.136 178.719 259.428C178.719 258.719 178.542 257.834 178.193 257.303ZM78.3906 266.334C101.135 246.152 136.052 248.277 156.151 271.115C156.854 271.823 157.563 272.709 158.089 273.589L139.047 292.714L124.766 278.37C123.708 277.308 122.12 277.308 121.063 278.37L98.6667 300.678L71.5156 273.589C73.6302 270.938 75.9219 268.459 78.3906 266.334ZM133.229 392.386H48.9479V344.938H133.229V392.386ZM135.875 339.625H69.9271C60.2292 325.995 57.5885 309 61.6406 293.599L96.7292 328.829C97.2604 329.36 97.9635 329.537 98.6667 329.537C99.375 329.537 100.078 329.36 100.609 328.829L123 306.521L137.281 320.86C138.344 321.922 139.927 321.922 140.984 320.86L168.318 293.599C173.604 313.782 167.26 335.204 151.568 349.188C147.688 352.73 143.281 355.563 138.693 357.683V342.459C138.516 340.865 137.281 339.625 135.875 339.625ZM193.885 397.167C189.828 400.704 183.656 400.349 180.13 396.282L160.38 373.797C159.854 373.266 159.677 372.558 159.677 371.849C159.677 371.141 160.031 370.433 160.557 370.079L171.135 360.693C171.667 360.339 172.198 359.985 172.901 359.985H173.078C173.781 359.985 174.49 360.339 174.839 360.87L194.589 383.355C196.354 385.303 197.057 387.782 197.057 390.438C196.88 393.094 195.646 395.396 193.885 397.167Z" fill="white"/>
<path d="M56 362.464C56 367.423 60.0521 371.318 64.8177 371.318H66.224C68.1667 371.318 69.75 372.912 69.75 374.86C69.75 376.803 68.1667 378.396 66.224 378.396H58.6458C57.2344 378.396 56 379.636 56 381.053C56 382.469 57.2344 383.709 58.6458 383.709H66.224C71.1615 383.709 75.0417 379.813 75.0417 374.86C75.0417 369.902 70.9844 366.006 66.224 366.006H64.8177C62.875 366.006 61.2865 364.412 61.2865 362.464C61.2865 360.516 62.875 358.923 64.8177 358.923H72.3958C73.8073 358.923 75.0417 357.683 75.0417 356.266C75.0417 354.855 73.8073 353.615 72.3958 353.615H64.8177C60.0521 353.615 56 357.506 56 362.464Z" fill="white"/>
<path d="M84.209 383.709H97.9642C99.3757 383.709 100.61 382.469 100.61 381.053C100.61 379.636 99.3757 378.396 97.9642 378.396H86.8548V371.318H97.9642C99.3757 371.318 100.61 370.079 100.61 368.662C100.61 367.245 99.3757 366.006 97.9642 366.006H86.8548V358.923H97.9642C99.3757 358.923 100.61 357.683 100.61 356.266C100.61 354.855 99.3757 353.615 97.9642 353.615H84.209C82.8027 353.615 81.5684 354.855 81.5684 356.266V381.053C81.5684 382.469 82.8027 383.709 84.209 383.709Z" fill="white"/>
<path d="M116.657 383.708C121.943 383.708 126.178 379.458 126.178 374.151V362.995C126.178 357.682 121.943 353.438 116.657 353.438C111.365 353.438 107.131 357.682 107.131 362.995V374.151C107.131 379.458 111.365 383.708 116.657 383.708ZM112.423 363.172C112.423 360.87 114.36 358.922 116.657 358.922C118.949 358.922 120.886 360.87 120.886 363.172V374.328C120.886 376.625 118.949 378.573 116.657 378.573C114.36 378.573 112.423 376.625 112.423 374.328V363.172Z" fill="white"/>
<path d="M501.433 372.021L498.006 368.563L484.532 355.089C484.021 354.589 483.339 354.318 482.641 354.318C481.923 354.318 481.261 354.589 480.751 355.089L476.85 359L472.756 335.818L495.933 339.917L492.027 343.823C491.548 344.323 491.251 344.984 491.251 345.714C491.251 346.396 491.548 347.094 492.027 347.568L508.959 364.505L501.433 372.021ZM493.459 391.714C493.459 393.177 492.266 394.37 490.803 394.37H363.225C361.761 394.37 360.568 393.177 360.568 391.714V282.745H419.042V311.979C419.042 313.443 420.235 314.641 421.699 314.641H493.459V334.063L469.933 329.922C469.094 329.766 468.209 330.057 467.6 330.667C466.985 331.281 466.725 332.151 466.85 333.005L472.516 364.948C472.673 365.938 473.37 366.734 474.324 367.026C475.282 367.318 476.287 367.078 477.006 366.359L482.641 360.724L493.459 371.542V391.714ZM360.568 264.141C360.568 262.677 361.761 261.484 363.225 261.484H419.042V277.427H360.568V264.141ZM424.355 245.536H485.485V266.797C485.485 268.26 486.678 269.453 488.141 269.453H509.407V309.323H424.355V245.536ZM490.803 245.536H509.407V264.141H490.803V245.536ZM514.589 362.615L497.683 345.714L503.324 340.042C504.006 339.359 504.277 338.318 503.954 337.385C503.667 336.432 502.865 335.745 501.881 335.557L498.777 335.016V314.641H512.063C513.527 314.641 514.719 313.443 514.719 311.979V242.875C514.719 241.411 513.527 240.219 512.063 240.219H421.699C420.235 240.219 419.042 241.411 419.042 242.875V256.167H363.225C358.844 256.167 355.256 259.76 355.256 264.141V391.714C355.256 396.094 358.844 399.688 363.225 399.688H490.803C495.183 399.688 498.777 396.094 498.777 391.714V376.859L499.542 377.656C500.074 378.156 500.735 378.427 501.433 378.427C502.131 378.427 502.792 378.156 503.324 377.656L514.589 366.359C515.094 365.885 515.355 365.188 515.355 364.505C515.355 363.776 515.094 363.109 514.589 362.615Z" fill="white"/>
<path d="M371.197 266.797H368.541C367.077 266.797 365.885 267.99 365.885 269.453C365.885 270.922 367.077 272.115 368.541 272.115H371.197C372.661 272.115 373.859 270.922 373.859 269.453C373.859 267.99 372.661 266.797 371.197 266.797Z" fill="white"/>
<path d="M384.49 266.797H381.833C380.365 266.797 379.172 267.99 379.172 269.453C379.172 270.922 380.365 272.115 381.833 272.115H384.49C385.953 272.115 387.146 270.922 387.146 269.453C387.146 267.99 385.953 266.797 384.49 266.797Z" fill="white"/>
<path d="M397.775 266.797H395.119C393.656 266.797 392.463 267.99 392.463 269.453C392.463 270.922 393.656 272.115 395.119 272.115H397.775C399.239 272.115 400.437 270.922 400.437 269.453C400.437 267.99 399.239 266.797 397.775 266.797Z" fill="white"/>
<path d="M446.198 277.428L448.192 285.402H443.041L445.036 277.428H446.198ZM437 298.61C438.422 298.975 439.864 298.1 440.218 296.678L441.713 290.719H449.521L451.015 296.678C451.317 297.881 452.396 298.693 453.593 298.693C453.797 298.693 454.015 298.673 454.234 298.61C455.656 298.256 456.531 296.813 456.166 295.391L450.849 274.126C450.562 272.943 449.5 272.115 448.276 272.115H442.958C441.734 272.115 440.677 272.943 440.385 274.126L435.067 295.391C434.708 296.813 435.578 298.256 437 298.61Z" fill="white"/>
<path d="M464.224 277.428H466.88C469.807 277.428 472.198 279.818 472.198 282.745V288.063C472.198 290.99 469.807 293.376 466.88 293.376H464.224V277.428ZM461.568 298.693H466.88C472.745 298.693 477.51 293.928 477.51 288.063V282.745C477.51 276.881 472.745 272.115 466.88 272.115H461.568C460.099 272.115 458.906 273.308 458.906 274.771V296.032C458.906 297.495 460.099 298.693 461.568 298.693Z" fill="white"/>
<path d="M482.828 293.376C481.365 293.376 480.172 294.568 480.172 296.032C480.172 297.495 481.365 298.693 482.828 298.693H493.458C496.385 298.693 498.776 296.303 498.776 293.376V288.063C498.776 285.131 496.385 282.745 493.458 282.745H485.484V277.428H496.115C497.578 277.428 498.776 276.235 498.776 274.771C498.776 273.308 497.578 272.115 496.115 272.115H485.484C482.557 272.115 480.172 274.501 480.172 277.428V282.745C480.172 285.673 482.557 288.063 485.484 288.063H493.458V293.376H482.828Z" fill="white"/>
<path d="M496.344 254.839L494.24 256.943C493.199 257.985 493.199 259.667 494.24 260.704C494.756 261.225 495.433 261.485 496.115 261.485C496.803 261.485 497.48 261.225 497.995 260.704L500.105 258.594L502.209 260.704C502.73 261.225 503.407 261.485 504.089 261.485C504.777 261.485 505.449 261.225 505.969 260.704C507.006 259.667 507.006 257.985 505.969 256.943L503.86 254.839L505.969 252.73C507.006 251.693 507.006 250.011 505.969 248.975C504.933 247.933 503.251 247.933 502.209 248.975L500.105 251.079L497.995 248.975C496.959 247.933 495.277 247.933 494.24 248.975C493.199 250.011 493.199 251.693 494.24 252.73L496.344 254.839Z" fill="white"/>
<path d="M403.093 341.219H376.515V325.271H403.093V341.219ZM405.749 319.953H373.859C372.395 319.953 371.197 321.146 371.197 322.609V343.875C371.197 345.339 372.395 346.531 373.859 346.531H405.749C407.213 346.531 408.411 345.339 408.411 343.875V322.609C408.411 321.146 407.213 319.953 405.749 319.953Z" fill="white"/>
<path d="M403.093 378.428H376.515V357.162H403.093V378.428ZM405.749 351.85H373.859C372.395 351.85 371.197 353.042 371.197 354.506V381.084C371.197 382.548 372.395 383.74 373.859 383.74H405.749C407.213 383.74 408.411 382.548 408.411 381.084V354.506C408.411 353.042 407.213 351.85 405.749 351.85Z" fill="white"/>
<path d="M421.699 319.953H416.381C414.917 319.953 413.725 321.146 413.725 322.609C413.725 324.073 414.917 325.271 416.381 325.271H421.699C423.162 325.271 424.355 324.073 424.355 322.609C424.355 321.146 423.162 319.953 421.699 319.953Z" fill="white"/>
<path d="M405.749 293.375H373.859C372.395 293.375 371.197 294.568 371.197 296.031C371.197 297.495 372.395 298.693 373.859 298.693H405.749C407.213 298.693 408.411 297.495 408.411 296.031C408.411 294.568 407.213 293.375 405.749 293.375Z" fill="white"/>
<path d="M405.749 304.006H373.859C372.395 304.006 371.197 305.204 371.197 306.667C371.197 308.131 372.395 309.324 373.859 309.324H405.749C407.213 309.324 408.411 308.131 408.411 306.667C408.411 305.204 407.213 304.006 405.749 304.006Z" fill="white"/>
<path d="M432.328 325.271H474.854C476.318 325.271 477.51 324.073 477.51 322.609C477.51 321.146 476.318 319.953 474.854 319.953H432.328C430.865 319.953 429.672 321.146 429.672 322.609C429.672 324.073 430.865 325.271 432.328 325.271Z" fill="white"/>
<path d="M421.699 330.584H416.381C414.917 330.584 413.725 331.782 413.725 333.245C413.725 334.709 414.917 335.902 416.381 335.902H421.699C423.162 335.902 424.355 334.709 424.355 333.245C424.355 331.782 423.162 330.584 421.699 330.584Z" fill="white"/>
<path d="M432.328 335.902H458.906C460.37 335.902 461.568 334.709 461.568 333.245C461.568 331.782 460.37 330.584 458.906 330.584H432.328C430.865 330.584 429.672 331.782 429.672 333.245C429.672 334.709 430.865 335.902 432.328 335.902Z" fill="white"/>
<path d="M421.699 341.219H416.381C414.917 341.219 413.725 342.411 413.725 343.875C413.725 345.339 414.917 346.531 416.381 346.531H421.699C423.162 346.531 424.355 345.339 424.355 343.875C424.355 342.411 423.162 341.219 421.699 341.219Z" fill="white"/>
<path d="M432.328 346.531H458.906C460.37 346.531 461.568 345.339 461.568 343.875C461.568 342.411 460.37 341.219 458.906 341.219H432.328C430.865 341.219 429.672 342.411 429.672 343.875C429.672 345.339 430.865 346.531 432.328 346.531Z" fill="white"/>
<path d="M421.699 354.506H416.381C414.917 354.506 413.725 355.699 413.725 357.162C413.725 358.626 414.917 359.824 416.381 359.824H421.699C423.162 359.824 424.355 358.626 424.355 357.162C424.355 355.699 423.162 354.506 421.699 354.506Z" fill="white"/>
<path d="M432.328 359.824H458.906C460.37 359.824 461.568 358.626 461.568 357.162C461.568 355.699 460.37 354.506 458.906 354.506H432.328C430.865 354.506 429.672 355.699 429.672 357.162C429.672 358.626 430.865 359.824 432.328 359.824Z" fill="white"/>
<path d="M421.699 365.135H416.381C414.917 365.135 413.725 366.327 413.725 367.796C413.725 369.26 414.917 370.452 416.381 370.452H421.699C423.162 370.452 424.355 369.26 424.355 367.796C424.355 366.327 423.162 365.135 421.699 365.135Z" fill="white"/>
<path d="M432.328 370.452H466.88C468.344 370.452 469.536 369.26 469.536 367.796C469.536 366.327 468.344 365.135 466.88 365.135H432.328C430.865 365.135 429.672 366.327 429.672 367.796C429.672 369.26 430.865 370.452 432.328 370.452Z" fill="white"/>
<path d="M421.699 375.766H416.381C414.917 375.766 413.725 376.964 413.725 378.427C413.725 379.891 414.917 381.083 416.381 381.083H421.699C423.162 381.083 424.355 379.891 424.355 378.427C424.355 376.964 423.162 375.766 421.699 375.766Z" fill="white"/>
<path d="M474.854 375.766H432.328C430.865 375.766 429.672 376.964 429.672 378.427C429.672 379.891 430.865 381.083 432.328 381.083H474.854C476.318 381.083 477.51 379.891 477.51 378.427C477.51 376.964 476.318 375.766 474.854 375.766Z" fill="white"/>
<path d="M739.339 279.463V268.515L747.553 273.989L739.339 279.463ZM754.74 273.989C754.74 273.124 754.308 272.322 753.6 271.853L738.199 261.588C737.407 261.067 736.391 261.015 735.558 261.458C734.73 261.906 734.209 262.781 734.209 263.723V284.255C734.209 285.197 734.73 286.072 735.558 286.52C735.943 286.723 736.36 286.822 736.771 286.822C737.277 286.822 737.766 286.682 738.199 286.39L753.6 276.124C754.308 275.656 754.74 274.853 754.74 273.989Z" fill="white"/>
<path d="M785.541 271.421H790.671V266.291H785.541V271.421Z" fill="white"/>
<path d="M785.541 291.959H790.671V273.99H785.541V291.959Z" fill="white"/>
<path d="M811.209 291.959V282.975C811.209 278.021 807.178 273.99 802.225 273.99C800.839 273.99 799.548 274.329 798.376 274.891V273.99H793.24V291.959H798.376V282.975C798.376 280.85 800.1 279.126 802.225 279.126C804.35 279.126 806.074 280.85 806.074 282.975V291.959H811.209Z" fill="white"/>
<path d="M800.938 325.323C802.355 325.323 803.506 326.474 803.506 327.891V389.49H685.438V327.891C685.438 326.474 686.594 325.323 688.006 325.323H716.24V340.724H711.105C705.443 340.724 700.839 345.323 700.839 350.99V381.792C700.839 383.203 701.995 384.354 703.407 384.354C704.818 384.354 705.975 383.203 705.975 381.792C705.975 378.964 708.282 376.656 711.105 376.656H741.907C747.574 376.656 752.173 372.052 752.173 366.391H777.839C780.667 366.391 782.975 368.698 782.975 371.521C782.975 372.938 784.126 374.089 785.542 374.089C786.954 374.089 788.105 372.938 788.105 371.521V340.724C788.105 335.953 784.818 331.969 780.407 330.818V325.323H800.938ZM808.641 399.755H680.308C676.959 399.755 674.1 397.609 673.048 394.625H815.902C814.834 397.609 811.99 399.755 808.641 399.755ZM741.907 325.323V331.88C738.85 333.667 736.771 336.943 736.771 340.724H721.376V325.323H741.907ZM749.605 361.255H747.042C744.214 361.255 741.907 358.948 741.907 356.125V340.724C741.907 337.896 744.214 335.589 747.042 335.589H777.839C780.667 335.589 782.975 337.896 782.975 340.724V362.63C781.459 361.755 779.704 361.255 777.839 361.255H749.605ZM736.771 345.854V356.125C736.771 361.786 741.376 366.391 747.042 366.391C747.042 369.219 744.735 371.521 741.907 371.521H711.105C709.24 371.521 707.485 372.026 705.975 372.896V350.99C705.975 348.161 708.282 345.854 711.105 345.854H736.771ZM775.271 325.323V330.458H747.042V325.323H775.271ZM677.74 299.656C674.912 299.656 672.605 297.349 672.605 294.521V268.854C672.605 266.031 674.912 263.724 677.74 263.724H703.407C706.235 263.724 708.542 266.031 708.542 268.854V294.521C708.542 297.349 706.235 299.656 703.407 299.656H695.709V284.255H703.407V279.125H695.709C695.709 276.297 698.011 273.99 700.839 273.99H703.407V268.854H700.839C695.178 268.854 690.574 273.458 690.574 279.125H685.438V284.255H690.574V299.656H677.74ZM731.641 291.958C728.813 291.958 726.506 289.651 726.506 286.823V261.156C726.506 258.328 728.813 256.021 731.641 256.021H757.308C760.136 256.021 762.438 258.328 762.438 261.156V286.823C762.438 289.651 760.136 291.958 757.308 291.958H731.641ZM780.407 291.958V266.292C780.407 263.464 782.714 261.156 785.542 261.156H811.209C814.032 261.156 816.339 263.464 816.339 266.292V291.958C816.339 294.781 814.032 297.089 811.209 297.089H785.542C782.714 297.089 780.407 294.781 780.407 291.958ZM782.975 315.057H793.24C797.49 315.057 800.938 311.609 800.938 307.354V302.224H811.209C816.87 302.224 821.475 297.62 821.475 291.958V266.292C821.475 260.625 816.87 256.021 811.209 256.021H785.542C779.876 256.021 775.271 260.625 775.271 266.292V291.958C775.271 297.62 779.876 302.224 785.542 302.224H795.808V307.354C795.808 308.771 794.652 309.922 793.24 309.922H782.975C778.725 309.922 775.271 313.37 775.271 317.625V320.188H747.042V297.089H757.308C762.969 297.089 767.574 292.49 767.574 286.823V261.156C767.574 255.49 762.969 250.891 757.308 250.891H731.641C725.975 250.891 721.376 255.49 721.376 261.156V286.823C721.376 292.49 725.975 297.089 731.641 297.089H741.907V320.188H721.376V317.625C721.376 313.37 717.923 309.922 713.673 309.922H688.006C686.594 309.922 685.438 308.771 685.438 307.354V304.792H703.407C709.074 304.792 713.673 300.188 713.673 294.521V268.854C713.673 263.193 709.074 258.589 703.407 258.589H677.74C672.074 258.589 667.475 263.193 667.475 268.854V294.521C667.475 300.188 672.074 304.792 677.74 304.792H680.308V307.354C680.308 311.609 683.756 315.057 688.006 315.057H713.673C715.089 315.057 716.24 316.208 716.24 317.625V320.188H688.006C683.756 320.188 680.308 323.641 680.308 327.891V389.49H670.042C668.626 389.49 667.475 390.641 667.475 392.057C667.475 399.135 673.23 404.891 680.308 404.891H808.641C815.719 404.891 821.475 399.135 821.475 392.057C821.475 390.641 820.318 389.49 818.907 389.49H808.641V327.891C808.641 323.641 805.193 320.188 800.938 320.188H780.407V317.625C780.407 316.208 781.558 315.057 782.975 315.057Z" fill="white"/>
<path d="M721.376 356.125H716.24V361.255H721.376V356.125Z" fill="white"/>
<path d="M731.641 356.125H726.506V361.255H731.641V356.125Z" fill="white"/>
<path d="M757.307 350.989H762.437V345.854H757.307V350.989Z" fill="white"/>
<path d="M767.572 350.989H772.708V345.854H767.572V350.989Z" fill="white"/>
<path d="M109.27 207.778C107.27 207.778 105.655 207.273 104.436 206.257C103.228 205.247 102.608 203.814 102.582 201.965H106.728C106.754 202.731 106.978 203.33 107.395 203.757C107.822 204.189 108.441 204.403 109.249 204.403C109.999 204.403 110.561 204.257 110.936 203.965C111.322 203.674 111.52 203.278 111.52 202.778C111.52 202.236 111.27 201.82 110.77 201.528C110.28 201.236 109.504 200.919 108.436 200.57C107.311 200.226 106.379 199.877 105.645 199.528C104.921 199.169 104.296 198.643 103.77 197.945C103.254 197.236 102.999 196.309 102.999 195.153C102.999 194.226 103.254 193.398 103.77 192.674C104.296 191.939 105.025 191.372 105.957 190.965C106.884 190.564 107.947 190.361 109.145 190.361C110.238 190.361 111.259 190.564 112.207 190.965C113.15 191.356 113.915 191.965 114.499 192.799C115.092 193.622 115.4 194.627 115.415 195.82H111.332C111.316 195.236 111.129 194.747 110.77 194.34C110.405 193.939 109.863 193.736 109.145 193.736C108.52 193.736 108.03 193.877 107.686 194.153C107.353 194.419 107.186 194.788 107.186 195.257C107.186 195.799 107.426 196.215 107.915 196.507C108.415 196.788 109.191 197.09 110.249 197.424C111.374 197.773 112.296 198.122 113.02 198.465C113.754 198.814 114.384 199.351 114.915 200.07C115.441 200.778 115.707 201.715 115.707 202.882C115.707 203.773 115.447 204.59 114.936 205.34C114.436 206.09 113.697 206.689 112.728 207.132C111.77 207.559 110.613 207.778 109.27 207.778Z" fill="white"/>
<path d="M122.755 200.632V203.882H129.651V207.465H118.547V190.674H129.401V194.236H122.755V197.153H129.172V200.632H122.755Z" fill="white"/>
<path d="M140.872 207.778C139.258 207.778 137.758 207.419 136.372 206.695C134.997 205.96 133.898 204.934 133.081 203.611C132.258 202.278 131.852 200.768 131.852 199.07C131.852 197.377 132.258 195.861 133.081 194.528C133.898 193.195 134.997 192.169 136.372 191.445C137.758 190.726 139.258 190.361 140.872 190.361C142.497 190.361 143.997 190.726 145.372 191.445C146.758 192.169 147.857 193.195 148.664 194.528C149.482 195.861 149.893 197.377 149.893 199.07C149.893 200.768 149.482 202.278 148.664 203.611C147.857 204.934 146.758 205.96 145.372 206.695C143.997 207.419 142.497 207.778 140.872 207.778ZM140.872 203.945C141.773 203.945 142.586 203.736 143.31 203.32C144.044 202.903 144.612 202.33 145.018 201.59C145.419 200.856 145.622 200.018 145.622 199.07C145.622 198.127 145.419 197.288 145.018 196.549C144.612 195.814 144.044 195.236 143.31 194.82C142.586 194.403 141.773 194.195 140.872 194.195C139.982 194.195 139.169 194.403 138.435 194.82C137.711 195.236 137.143 195.814 136.727 196.549C136.32 197.288 136.122 198.127 136.122 199.07C136.122 200.018 136.32 200.856 136.727 201.59C137.143 202.33 137.711 202.903 138.435 203.32C139.169 203.736 139.982 203.945 140.872 203.945Z" fill="white"/>
<path d="M341.62 190.674C342.954 190.674 344.11 190.903 345.1 191.361C346.1 191.82 346.87 192.481 347.412 193.34C347.954 194.189 348.225 195.169 348.225 196.278C348.225 197.403 347.954 198.393 347.412 199.236C346.881 200.085 346.12 200.747 345.12 201.215C344.12 201.689 342.954 201.924 341.62 201.924H339.683V207.465H335.475V190.674H341.62ZM341.433 198.34C342.235 198.34 342.855 198.153 343.287 197.778C343.73 197.393 343.954 196.893 343.954 196.278C343.954 195.695 343.73 195.21 343.287 194.82C342.855 194.434 342.235 194.236 341.433 194.236H339.683V198.34H341.433Z" fill="white"/>
<path d="M359.647 194.986H363.355V207.465H359.647V206.236C358.715 207.268 357.408 207.778 355.73 207.778C354.715 207.778 353.736 207.512 352.793 206.986C351.845 206.445 351.074 205.674 350.48 204.674C349.897 203.674 349.605 202.523 349.605 201.215C349.605 199.924 349.897 198.778 350.48 197.778C351.074 196.778 351.845 196.018 352.793 195.486C353.736 194.945 354.715 194.674 355.73 194.674C357.397 194.674 358.699 195.189 359.647 196.215V194.986ZM356.564 204.215C357.423 204.215 358.137 203.939 358.71 203.382C359.277 202.814 359.564 202.09 359.564 201.215C359.564 200.356 359.277 199.643 358.71 199.07C358.137 198.502 357.423 198.215 356.564 198.215C355.689 198.215 354.965 198.502 354.397 199.07C353.84 199.643 353.564 200.356 353.564 201.215C353.564 202.09 353.84 202.814 354.397 203.382C354.965 203.939 355.689 204.215 356.564 204.215Z" fill="white"/>
<path d="M370.406 207.465H366.406V194.986H370.406V207.465ZM370.823 193.069H366.698V189.84H370.823V193.069Z" fill="white"/>
<path d="M382.42 190.193H386.42V207.464H382.712V206.235C381.779 207.266 380.472 207.777 378.795 207.777C377.779 207.777 376.8 207.511 375.857 206.985C374.91 206.443 374.139 205.673 373.545 204.673C372.962 203.673 372.67 202.521 372.67 201.214C372.67 199.923 372.962 198.777 373.545 197.777C374.139 196.777 374.91 196.016 375.857 195.485C376.8 194.943 377.779 194.673 378.795 194.673C380.321 194.673 381.529 195.1 382.42 195.943V190.193ZM379.628 204.214C380.488 204.214 381.201 203.938 381.774 203.381C382.342 202.813 382.628 202.089 382.628 201.214C382.628 200.355 382.342 199.641 381.774 199.068C381.201 198.501 380.488 198.214 379.628 198.214C378.753 198.214 378.029 198.501 377.462 199.068C376.904 199.641 376.628 200.355 376.628 201.214C376.628 202.089 376.904 202.813 377.462 203.381C378.029 203.938 378.753 204.214 379.628 204.214Z" fill="white"/>
<path d="M412.719 207.465H408.365L407.219 204.174H400.927L399.802 207.465H395.531L401.906 190.674H406.302L412.719 207.465ZM402.031 200.674H406.156L404.094 194.84L402.031 200.674Z" fill="white"/>
<path d="M423.34 190.193H427.34V207.464H423.632V206.235C422.699 207.266 421.392 207.777 419.715 207.777C418.699 207.777 417.72 207.511 416.777 206.985C415.829 206.443 415.059 205.673 414.465 204.673C413.882 203.673 413.59 202.521 413.59 201.214C413.59 199.923 413.882 198.777 414.465 197.777C415.059 196.777 415.829 196.016 416.777 195.485C417.72 194.943 418.699 194.673 419.715 194.673C421.241 194.673 422.449 195.1 423.34 195.943V190.193ZM420.548 204.214C421.408 204.214 422.121 203.938 422.694 203.381C423.262 202.813 423.548 202.089 423.548 201.214C423.548 200.355 423.262 199.641 422.694 199.068C422.121 198.501 421.408 198.214 420.548 198.214C419.673 198.214 418.949 198.501 418.382 199.068C417.824 199.641 417.548 200.355 417.548 201.214C417.548 202.089 417.824 202.813 418.382 203.381C418.949 203.938 419.673 204.214 420.548 204.214Z" fill="white"/>
<path d="M436.071 202.882L438.967 194.986H443.071L437.842 207.465H434.258L429.029 194.986H433.154L436.071 202.882Z" fill="white"/>
<path d="M450.497 194.674C451.674 194.674 452.773 194.945 453.788 195.486C454.799 196.028 455.611 196.794 456.226 197.778C456.851 198.768 457.163 199.882 457.163 201.132C457.163 201.497 457.122 201.919 457.038 202.403H447.788C447.939 203.153 448.252 203.736 448.726 204.153C449.21 204.57 449.814 204.778 450.538 204.778C451.122 204.778 451.606 204.674 451.997 204.465C452.382 204.257 452.715 203.945 452.997 203.528H456.809C456.335 204.794 455.559 205.82 454.476 206.611C453.393 207.393 452.064 207.778 450.497 207.778C449.288 207.778 448.169 207.507 447.143 206.965C446.127 206.424 445.309 205.663 444.684 204.674C444.07 203.674 443.768 202.523 443.768 201.215C443.768 199.924 444.07 198.788 444.684 197.799C445.309 196.799 446.127 196.028 447.143 195.486C448.169 194.945 449.288 194.674 450.497 194.674ZM450.497 197.695C449.814 197.695 449.236 197.882 448.768 198.257C448.294 198.632 447.976 199.184 447.809 199.903H453.226C453.101 199.252 452.799 198.726 452.33 198.32C451.872 197.903 451.257 197.695 450.497 197.695Z" fill="white"/>
<path d="M467.899 194.84V198.402H466.295C465.472 198.402 464.779 198.684 464.212 199.236C463.639 199.777 463.357 200.48 463.357 201.34V207.465H459.357V194.986H463.066V196.423C464.024 195.371 465.3 194.84 466.899 194.84H467.899Z" fill="white"/>
<path d="M477.445 198.507H474.59V202.007C474.59 202.606 474.747 203.08 475.07 203.424C475.403 203.757 475.867 203.924 476.465 203.924H477.445V207.465H475.236C473.747 207.465 472.601 207.049 471.799 206.215C470.992 205.382 470.59 204.231 470.59 202.757V198.507H468.549V194.986H470.59V191.674H474.59V194.986H477.445V198.507Z" fill="white"/>
<path d="M483.973 207.465H479.973V194.986H483.973V207.465ZM484.389 193.069H480.264V189.84H484.389V193.069Z" fill="white"/>
<path d="M492.238 207.778C491.098 207.778 490.103 207.59 489.259 207.215C488.41 206.84 487.738 206.33 487.238 205.674C486.749 205.007 486.478 204.273 486.426 203.465H490.217C490.259 203.84 490.452 204.163 490.801 204.424C491.145 204.674 491.613 204.799 492.197 204.799C492.707 204.799 493.103 204.715 493.384 204.549C493.676 204.382 493.822 204.132 493.822 203.799C493.822 203.465 493.624 203.215 493.238 203.049C492.863 202.872 492.28 202.705 491.488 202.549C490.53 202.34 489.728 202.111 489.092 201.861C488.467 201.611 487.915 201.215 487.447 200.674C486.988 200.122 486.759 199.361 486.759 198.403C486.759 197.695 486.978 197.064 487.426 196.507C487.868 195.939 488.493 195.497 489.301 195.174C490.103 194.84 491.009 194.674 492.009 194.674C492.936 194.674 493.801 194.856 494.592 195.215C495.384 195.564 496.02 196.059 496.509 196.695C497.009 197.335 497.285 198.049 497.342 198.84H493.592C493.561 198.481 493.395 198.189 493.092 197.965C492.801 197.747 492.415 197.632 491.947 197.632C491.514 197.632 491.181 197.705 490.947 197.84C490.707 197.981 490.592 198.189 490.592 198.465C490.592 198.788 490.77 199.023 491.134 199.174C491.493 199.33 492.082 199.502 492.905 199.695C493.863 199.903 494.655 200.127 495.28 200.361C495.915 200.601 496.467 200.986 496.926 201.528C497.395 202.059 497.634 202.788 497.634 203.715C497.634 204.981 497.139 205.976 496.155 206.695C495.181 207.419 493.874 207.778 492.238 207.778Z" fill="white"/>
<path d="M504.182 207.465H500.182V194.986H504.182V207.465ZM504.598 193.069H500.473V189.84H504.598V193.069Z" fill="white"/>
<path d="M514.653 194.674C515.622 194.674 516.486 194.903 517.236 195.361C517.997 195.82 518.596 196.455 519.028 197.257C519.455 198.049 519.674 198.96 519.674 199.986V207.465H515.674V200.82C515.674 200.028 515.486 199.403 515.111 198.945C514.736 198.486 514.2 198.257 513.507 198.257C512.84 198.257 512.288 198.497 511.861 198.965C511.445 199.439 511.236 200.059 511.236 200.82V207.465H507.236V194.986H510.945V196.195C511.945 195.184 513.179 194.674 514.653 194.674Z" fill="white"/>
<path d="M531.643 194.986H535.33V206.174C535.33 207.439 535.101 208.58 534.643 209.611C534.184 210.637 533.455 211.455 532.455 212.07C531.455 212.695 530.189 213.007 528.663 213.007C526.773 213.007 525.278 212.549 524.184 211.632C523.085 210.726 522.403 209.559 522.143 208.132H526.101C526.601 209.09 527.439 209.57 528.622 209.57C529.523 209.57 530.21 209.304 530.684 208.778C531.169 208.247 531.413 207.57 531.413 206.736V205.861C531.023 206.268 530.518 206.585 529.893 206.82C529.278 207.059 528.58 207.174 527.788 207.174C526.799 207.174 525.851 206.919 524.934 206.403C524.018 205.893 523.268 205.163 522.684 204.215C522.111 203.257 521.83 202.163 521.83 200.924C521.83 199.674 522.111 198.58 522.684 197.632C523.268 196.674 524.007 195.945 524.913 195.445C525.83 194.934 526.778 194.674 527.768 194.674C529.393 194.674 530.684 195.184 531.643 196.195V194.986ZM528.663 203.778C529.497 203.778 530.184 203.507 530.726 202.965C531.268 202.413 531.538 201.731 531.538 200.924C531.538 200.122 531.268 199.445 530.726 198.903C530.184 198.361 529.497 198.09 528.663 198.09C527.814 198.09 527.122 198.361 526.58 198.903C526.049 199.445 525.788 200.122 525.788 200.924C525.788 201.731 526.049 202.413 526.58 202.965C527.122 203.507 527.814 203.778 528.663 203.778Z" fill="white"/>
<path d="M671.744 194.782C669.744 194.782 668.13 194.277 666.911 193.261C665.702 192.251 665.083 190.818 665.057 188.969H669.202C669.229 189.735 669.452 190.334 669.869 190.761C670.296 191.193 670.916 191.407 671.723 191.407C672.473 191.407 673.036 191.261 673.411 190.969C673.796 190.678 673.994 190.282 673.994 189.782C673.994 189.24 673.744 188.824 673.244 188.532C672.755 188.24 671.979 187.923 670.911 187.574C669.786 187.23 668.854 186.881 668.119 186.532C667.395 186.173 666.77 185.646 666.244 184.949C665.729 184.24 665.473 183.313 665.473 182.157C665.473 181.23 665.729 180.402 666.244 179.678C666.77 178.943 667.499 178.376 668.432 177.969C669.359 177.568 670.421 177.365 671.619 177.365C672.713 177.365 673.734 177.568 674.682 177.969C675.624 178.36 676.39 178.969 676.973 179.803C677.567 180.626 677.874 181.631 677.89 182.824H673.807C673.791 182.24 673.604 181.751 673.244 181.344C672.88 180.943 672.338 180.74 671.619 180.74C670.994 180.74 670.505 180.881 670.161 181.157C669.827 181.423 669.661 181.792 669.661 182.261C669.661 182.803 669.9 183.219 670.39 183.511C670.89 183.792 671.666 184.094 672.723 184.428C673.848 184.777 674.77 185.126 675.494 185.469C676.229 185.818 676.859 186.355 677.39 187.074C677.916 187.782 678.182 188.719 678.182 189.886C678.182 190.777 677.921 191.594 677.411 192.344C676.911 193.094 676.171 193.693 675.202 194.136C674.244 194.563 673.088 194.782 671.744 194.782Z" fill="white"/>
<path d="M686.668 194.782C685.47 194.782 684.34 194.516 683.272 193.99C682.215 193.464 681.361 192.709 680.71 191.719C680.053 190.719 679.73 189.553 679.73 188.219C679.73 186.917 680.053 185.771 680.71 184.782C681.361 183.782 682.215 183.021 683.272 182.49C684.34 181.949 685.47 181.678 686.668 181.678C687.876 181.678 689.007 181.949 690.064 182.49C691.116 183.021 691.965 183.782 692.605 184.782C693.257 185.771 693.585 186.917 693.585 188.219C693.585 189.553 693.257 190.719 692.605 191.719C691.965 192.709 691.116 193.464 690.064 193.99C689.007 194.516 687.876 194.782 686.668 194.782ZM686.668 191.199C687.527 191.199 688.236 190.923 688.793 190.365C689.345 189.813 689.626 189.094 689.626 188.219C689.626 187.376 689.345 186.673 688.793 186.115C688.236 185.548 687.527 185.261 686.668 185.261C685.803 185.261 685.095 185.548 684.543 186.115C683.986 186.673 683.71 187.376 683.71 188.219C683.71 189.094 683.986 189.813 684.543 190.365C685.095 190.923 685.803 191.199 686.668 191.199Z" fill="white"/>
<path d="M701.818 194.782C700.635 194.782 699.516 194.516 698.464 193.99C697.406 193.464 696.552 192.709 695.901 191.719C695.245 190.719 694.922 189.553 694.922 188.219C694.922 186.917 695.245 185.771 695.901 184.782C696.552 183.782 697.406 183.021 698.464 182.49C699.516 181.949 700.635 181.678 701.818 181.678C702.818 181.678 703.776 181.876 704.693 182.261C705.609 182.636 706.401 183.209 707.068 183.969C707.745 184.735 708.214 185.667 708.464 186.761H704.401C703.844 185.735 702.984 185.219 701.818 185.219C700.969 185.219 700.266 185.506 699.714 186.074C699.172 186.646 698.901 187.36 698.901 188.219C698.901 189.094 699.172 189.824 699.714 190.407C700.266 190.98 700.969 191.261 701.818 191.261C702.969 191.261 703.828 190.751 704.401 189.719H708.464C708.214 190.818 707.755 191.751 707.089 192.511C706.422 193.277 705.62 193.844 704.693 194.219C703.776 194.594 702.818 194.782 701.818 194.782Z" fill="white"/>
<path d="M714.514 194.471H710.514V181.992H714.514V194.471ZM714.93 180.075H710.805V176.846H714.93V180.075Z" fill="white"/>
<path d="M726.819 181.99H730.527V194.469H726.819V193.24C725.887 194.271 724.579 194.782 722.902 194.782C721.887 194.782 720.908 194.516 719.965 193.99C719.017 193.449 718.246 192.678 717.652 191.678C717.069 190.678 716.777 189.527 716.777 188.219C716.777 186.928 717.069 185.782 717.652 184.782C718.246 183.782 719.017 183.021 719.965 182.49C720.908 181.949 721.887 181.678 722.902 181.678C724.569 181.678 725.871 182.193 726.819 183.219V181.99ZM723.736 191.219C724.595 191.219 725.309 190.943 725.882 190.386C726.449 189.818 726.736 189.094 726.736 188.219C726.736 187.36 726.449 186.646 725.882 186.074C725.309 185.506 724.595 185.219 723.736 185.219C722.861 185.219 722.137 185.506 721.569 186.074C721.012 186.646 720.736 187.36 720.736 188.219C720.736 189.094 721.012 189.818 721.569 190.386C722.137 190.943 722.861 191.219 723.736 191.219Z" fill="white"/>
<path d="M737.702 194.47H733.682V177.199H737.702V194.47Z" fill="white"/>
<path d="M766.522 177.678L768.96 194.469H764.835L763.543 185.094L759.501 194.469H757.293L753.272 185.032L751.96 194.469H747.855L750.293 177.678H753.918L758.439 188.219L762.939 177.678H766.522Z" fill="white"/>
<path d="M777.563 181.678C778.74 181.678 779.839 181.949 780.855 182.49C781.865 183.032 782.678 183.798 783.292 184.782C783.917 185.771 784.23 186.886 784.23 188.136C784.23 188.501 784.188 188.923 784.105 189.407H774.855C775.006 190.157 775.318 190.74 775.792 191.157C776.277 191.574 776.881 191.782 777.605 191.782C778.188 191.782 778.673 191.678 779.063 191.469C779.449 191.261 779.782 190.949 780.063 190.532H783.876C783.402 191.798 782.626 192.824 781.542 193.615C780.459 194.396 779.131 194.782 777.563 194.782C776.355 194.782 775.235 194.511 774.209 193.969C773.193 193.428 772.376 192.667 771.751 191.678C771.136 190.678 770.834 189.527 770.834 188.219C770.834 186.928 771.136 185.792 771.751 184.803C772.376 183.803 773.193 183.032 774.209 182.49C775.235 181.949 776.355 181.678 777.563 181.678ZM777.563 184.699C776.881 184.699 776.303 184.886 775.834 185.261C775.36 185.636 775.042 186.188 774.876 186.907H780.292C780.167 186.256 779.865 185.73 779.396 185.324C778.938 184.907 778.324 184.699 777.563 184.699Z" fill="white"/>
<path d="M795.383 177.199H799.383V194.47H795.674V193.241C794.742 194.272 793.435 194.783 791.758 194.783C790.742 194.783 789.763 194.517 788.82 193.991C787.872 193.449 787.102 192.678 786.508 191.678C785.924 190.678 785.633 189.527 785.633 188.22C785.633 186.928 785.924 185.783 786.508 184.783C787.102 183.783 787.872 183.022 788.82 182.491C789.763 181.949 790.742 181.678 791.758 181.678C793.284 181.678 794.492 182.105 795.383 182.949V177.199ZM792.591 191.22C793.451 191.22 794.164 190.944 794.737 190.387C795.305 189.819 795.591 189.095 795.591 188.22C795.591 187.361 795.305 186.647 794.737 186.074C794.164 185.507 793.451 185.22 792.591 185.22C791.716 185.22 790.992 185.507 790.424 186.074C789.867 186.647 789.591 187.361 789.591 188.22C789.591 189.095 789.867 189.819 790.424 190.387C790.992 190.944 791.716 191.22 792.591 191.22Z" fill="white"/>
<path d="M806.553 194.471H802.553V181.992H806.553V194.471ZM806.969 180.075H802.844V176.846H806.969V180.075Z" fill="white"/>
<path d="M818.858 181.99H822.566V194.469H818.858V193.24C817.926 194.271 816.618 194.782 814.941 194.782C813.926 194.782 812.947 194.516 812.004 193.99C811.056 193.449 810.285 192.678 809.691 191.678C809.108 190.678 808.816 189.527 808.816 188.219C808.816 186.928 809.108 185.782 809.691 184.782C810.285 183.782 811.056 183.021 812.004 182.49C812.947 181.949 813.926 181.678 814.941 181.678C816.608 181.678 817.91 182.193 818.858 183.219V181.99ZM815.775 191.219C816.634 191.219 817.348 190.943 817.921 190.386C818.488 189.818 818.775 189.094 818.775 188.219C818.775 187.36 818.488 186.646 817.921 186.074C817.348 185.506 816.634 185.219 815.775 185.219C814.9 185.219 814.176 185.506 813.608 186.074C813.051 186.646 812.775 187.36 812.775 188.219C812.775 189.094 813.051 189.818 813.608 190.386C814.176 190.943 814.9 191.219 815.775 191.219Z" fill="white"/>
<path d="M700.208 203.678L702.645 220.469H698.52L697.229 211.094L693.187 220.469H690.979L686.958 211.032L685.645 220.469H681.541L683.979 203.678H687.604L692.124 214.219L696.624 203.678H700.208Z" fill="white"/>
<path d="M714.624 207.99H718.332V220.469H714.624V219.24C713.691 220.271 712.384 220.782 710.707 220.782C709.691 220.782 708.712 220.516 707.77 219.99C706.822 219.449 706.051 218.678 705.457 217.678C704.874 216.678 704.582 215.527 704.582 214.219C704.582 212.928 704.874 211.782 705.457 210.782C706.051 209.782 706.822 209.021 707.77 208.49C708.712 207.949 709.691 207.678 710.707 207.678C712.374 207.678 713.676 208.193 714.624 209.219V207.99ZM711.54 217.219C712.4 217.219 713.113 216.943 713.686 216.386C714.254 215.818 714.54 215.094 714.54 214.219C714.54 213.36 714.254 212.646 713.686 212.074C713.113 211.506 712.4 211.219 711.54 211.219C710.665 211.219 709.941 211.506 709.374 212.074C708.816 212.646 708.54 213.36 708.54 214.219C708.54 215.094 708.816 215.818 709.374 216.386C709.941 216.943 710.665 217.219 711.54 217.219Z" fill="white"/>
<path d="M729.923 207.846V211.408H728.318C727.495 211.408 726.803 211.689 726.235 212.242C725.662 212.783 725.381 213.486 725.381 214.346V220.471H721.381V207.992H725.089V209.429C726.048 208.377 727.324 207.846 728.923 207.846H729.923Z" fill="white"/>
<path d="M739.26 214.053L744.698 220.47H740.073L735.802 215.324V220.47H731.781V203.199H735.802V212.949L739.844 207.991H744.323L739.26 214.053Z" fill="white"/>
<path d="M752.048 207.678C753.225 207.678 754.324 207.949 755.339 208.49C756.35 209.032 757.162 209.798 757.777 210.782C758.402 211.771 758.714 212.886 758.714 214.136C758.714 214.501 758.673 214.923 758.589 215.407H749.339C749.49 216.157 749.803 216.74 750.277 217.157C750.761 217.574 751.365 217.782 752.089 217.782C752.673 217.782 753.157 217.678 753.548 217.469C753.933 217.261 754.266 216.949 754.548 216.532H758.36C757.886 217.798 757.11 218.824 756.027 219.615C754.943 220.396 753.615 220.782 752.048 220.782C750.839 220.782 749.719 220.511 748.693 219.969C747.678 219.428 746.86 218.667 746.235 217.678C745.62 216.678 745.318 215.527 745.318 214.219C745.318 212.928 745.62 211.792 746.235 210.803C746.86 209.803 747.678 209.032 748.693 208.49C749.719 207.949 750.839 207.678 752.048 207.678ZM752.048 210.699C751.365 210.699 750.787 210.886 750.318 211.261C749.844 211.636 749.527 212.188 749.36 212.907H754.777C754.652 212.256 754.35 211.73 753.881 211.324C753.423 210.907 752.808 210.699 752.048 210.699Z" fill="white"/>
<path d="M768.701 211.511H765.846V215.011C765.846 215.61 766.003 216.084 766.326 216.428C766.659 216.761 767.122 216.928 767.721 216.928H768.701V220.469H766.492C765.003 220.469 763.857 220.053 763.055 219.219C762.247 218.386 761.846 217.235 761.846 215.761V211.511H759.805V207.99H761.846V204.678H765.846V207.99H768.701V211.511Z" fill="white"/>
<path d="M775.229 220.471H771.229V207.992H775.229V220.471ZM775.645 206.075H771.52V202.846H775.645V206.075Z" fill="white"/>
<path d="M785.702 207.678C786.671 207.678 787.535 207.907 788.285 208.365C789.046 208.824 789.645 209.459 790.077 210.261C790.504 211.053 790.723 211.964 790.723 212.99V220.469H786.723V213.824C786.723 213.032 786.535 212.407 786.16 211.949C785.785 211.49 785.249 211.261 784.556 211.261C783.889 211.261 783.337 211.501 782.91 211.969C782.493 212.443 782.285 213.063 782.285 213.824V220.469H778.285V207.99H781.993V209.199C782.993 208.188 784.228 207.678 785.702 207.678Z" fill="white"/>
<path d="M802.689 207.99H806.377V219.178C806.377 220.443 806.148 221.584 805.689 222.615C805.231 223.641 804.502 224.459 803.502 225.074C802.502 225.699 801.236 226.011 799.71 226.011C797.82 226.011 796.325 225.553 795.231 224.636C794.132 223.73 793.45 222.563 793.189 221.136H797.148C797.648 222.094 798.486 222.574 799.669 222.574C800.57 222.574 801.257 222.308 801.731 221.782C802.215 221.251 802.46 220.574 802.46 219.74V218.865C802.07 219.271 801.564 219.589 800.939 219.824C800.325 220.063 799.627 220.178 798.835 220.178C797.846 220.178 796.898 219.923 795.981 219.407C795.064 218.896 794.314 218.167 793.731 217.219C793.158 216.261 792.877 215.167 792.877 213.928C792.877 212.678 793.158 211.584 793.731 210.636C794.314 209.678 795.054 208.949 795.96 208.449C796.877 207.938 797.825 207.678 798.814 207.678C800.439 207.678 801.731 208.188 802.689 209.199V207.99ZM799.71 216.782C800.544 216.782 801.231 216.511 801.773 215.969C802.314 215.417 802.585 214.735 802.585 213.928C802.585 213.126 802.314 212.449 801.773 211.907C801.231 211.365 800.544 211.094 799.71 211.094C798.861 211.094 798.169 211.365 797.627 211.907C797.096 212.449 796.835 213.126 796.835 213.928C796.835 214.735 797.096 215.417 797.627 215.969C798.169 216.511 798.861 216.782 799.71 216.782Z" fill="white"/>
<path d="M136.52 94.4447C135.566 89.7415 135.566 84.8145 135.566 76.7467V53.4551C128.233 54.127 122.52 54.627 115.186 54.9655L113.504 66.4447C115.296 66.1634 117.03 65.9395 118.77 65.7728V76.7467C118.77 84.8145 118.77 89.7415 117.759 94.4447H136.52Z" fill="#E75825"/>
<path d="M441.107 93.7057C444.243 93.7057 446.878 93.7057 450.295 94.2682L451.972 81.7214C447.717 82.5078 446.149 82.5078 440.16 82.5078H427.727C432.54 81.8359 436.686 80.3776 440.16 78.4714C447.045 74.6641 450.967 68.9557 450.967 64.0234C450.967 57.362 446.149 52.4922 434.951 52.4922C429.462 52.4922 425.373 53.1068 422.795 53.7214L422.123 66.8255C425.258 65.6484 428.899 65.0911 432.035 65.0911C434.779 65.0911 435.847 66.0443 435.847 67.4401C435.847 69.737 434.222 72.4818 431.587 75.2839C428.508 78.5859 424.139 82.0599 419.436 84.9714V93.7057H441.107Z" fill="#AA0021"/>
<path d="M746.531 73.2109C755.437 71.6953 758.016 67.7786 758.016 62.1797C758.016 56.7995 752.635 52.4922 742.557 52.4922C737.068 52.4922 732.979 53.1068 730.406 53.7214L729.734 66.8255C732.87 65.6484 736.172 65.0911 738.75 65.0911C741.943 65.0911 743.453 65.8203 743.453 67.8359C743.453 70.1276 742.219 72.4245 736.172 73.4922C742.391 74.612 743.453 76.6276 743.453 78.6953C743.453 80.7682 742.052 81.9453 739.307 81.9453C736.734 81.9453 732.307 81.388 729.172 80.2109L730.964 93.3151C733.542 93.9297 737.63 94.5443 742.557 94.5443C753.755 94.5443 758.573 89.6745 758.573 83.0078C758.573 78.7526 755.604 74.2734 746.531 73.2109Z" fill="#147F00"/>
<path d="M270.328 474C226.146 474 190.328 509.818 190.328 554C190.328 598.182 226.146 634 270.328 634C314.51 634 350.328 598.182 350.328 554C350.328 509.818 314.51 474 270.328 474Z" fill="#142357"/>
<path d="M579.256 474C535.068 474 499.256 509.818 499.256 554C499.256 598.182 535.068 634 579.256 634C623.438 634 659.256 598.182 659.256 554C659.256 509.818 623.438 474 579.256 474Z" fill="#47175A"/>
<path d="M144 553.572H396.995V916.572H144V553.572Z" fill="#142357"/>
<path d="M452.922 553.572H705.922V916.572H452.922V553.572Z" fill="#47175A"/>
<path d="M270.047 482.85C231.115 482.85 199.547 514.417 199.547 553.35C199.547 592.287 231.115 623.85 270.047 623.85C308.984 623.85 340.547 592.287 340.547 553.35C340.547 514.417 308.984 482.85 270.047 482.85Z" fill="white"/>
<path d="M578.975 482.85C540.037 482.85 508.475 514.417 508.475 553.35C508.475 592.287 540.037 623.85 578.975 623.85C617.912 623.85 649.475 592.287 649.475 553.35C649.475 514.417 617.912 482.85 578.975 482.85Z" fill="white"/>
<path d="M280.204 871.922H260.105C258.641 871.922 257.459 870.734 257.459 869.266C257.459 867.792 258.641 866.609 260.105 866.609H280.204C281.667 866.609 282.85 867.792 282.85 869.266C282.85 870.734 281.657 871.922 280.204 871.922Z" fill="white"/>
<path d="M223.249 752.266C221.781 752.266 220.604 751.078 220.604 749.609V723.276C220.604 718.156 224.76 713.984 229.869 713.984H310.426C315.536 713.984 319.692 718.156 319.692 723.276V735.656C319.692 737.13 318.515 738.313 317.046 738.313C315.577 738.313 314.395 737.13 314.395 735.656V723.276C314.395 721.073 312.619 719.292 310.426 719.292H229.869C227.676 719.292 225.9 721.073 225.9 723.276V749.609C225.9 751.078 224.718 752.266 223.249 752.266Z" fill="white"/>
<path d="M223.249 819.854C221.781 819.854 220.604 818.672 220.604 817.198V770.839C220.604 769.37 221.781 768.188 223.249 768.188C224.718 768.188 225.9 769.37 225.9 770.839V817.198C225.9 818.656 224.718 819.854 223.249 819.854Z" fill="white"/>
<path d="M310.426 883.923H229.869C224.76 883.923 220.604 879.756 220.604 874.631V843.631C220.604 842.157 221.781 840.975 223.249 840.975C224.718 840.975 225.9 842.157 225.9 843.631V874.631C225.9 876.834 227.676 878.615 229.869 878.615H310.426C312.619 878.615 314.395 876.834 314.395 874.631V857.261C314.395 855.787 315.577 854.605 317.046 854.605C318.515 854.605 319.692 855.787 319.692 857.261V874.631C319.692 879.756 315.536 883.923 310.426 883.923Z" fill="white"/>
<path d="M317.048 812.162C315.579 812.162 314.396 810.98 314.396 809.511V781.818C314.396 780.344 315.579 779.162 317.048 779.162C318.516 779.162 319.693 780.344 319.693 781.818V809.511C319.693 810.969 318.516 812.162 317.048 812.162Z" fill="white"/>
<path d="M317.046 859.917H223.249C221.781 859.917 220.604 858.735 220.604 857.261V843.631C220.604 842.157 221.781 840.975 223.249 840.975C224.718 840.975 225.9 842.157 225.9 843.631V854.605H314.395V845.454C314.395 843.985 315.577 842.803 317.046 842.803C318.515 842.803 319.692 843.985 319.692 845.454V857.261C319.692 858.735 318.515 859.917 317.046 859.917Z" fill="white"/>
<path d="M223.249 819.854C221.781 819.854 220.604 818.672 220.604 817.198V770.839C220.604 769.37 221.781 768.188 223.249 768.188C224.718 768.188 225.9 769.37 225.9 770.839V817.198C225.9 818.656 224.718 819.854 223.249 819.854Z" fill="white"/>
<path d="M223.249 752.266C221.781 752.266 220.604 751.078 220.604 749.609V735.656C220.604 734.187 221.781 733 223.249 733H317.046C318.515 733 319.692 734.187 319.692 735.656V745.813C319.692 747.286 318.515 748.469 317.046 748.469C315.577 748.469 314.395 747.286 314.395 745.813V738.313H225.9V749.609C225.9 751.078 224.718 752.266 223.249 752.266Z" fill="white"/>
<path d="M252.943 805.922C251.282 805.922 249.756 804.797 249.313 803.104L246.261 791.307C246.006 790.333 246.146 789.318 246.657 788.453C247.162 787.594 247.98 786.974 248.949 786.719L272.245 780.656C272.928 780.479 273.646 780.578 274.256 780.932C274.86 781.286 275.303 781.87 275.48 782.557L279.089 796.5C279.454 797.911 278.6 799.365 277.188 799.74L253.896 805.802C253.574 805.891 253.256 805.922 252.943 805.922ZM251.777 791.474L254.047 800.271L273.282 795.271L271.011 786.474L251.777 791.474Z" fill="white"/>
<path d="M244.682 804.917C243.469 804.917 242.276 804.594 241.203 803.964C239.615 803.036 238.49 801.531 238.026 799.75C237.562 797.969 237.828 796.109 238.755 794.516C239.682 792.922 241.182 791.797 242.958 791.333L248.62 789.859C249.302 789.682 250.021 789.781 250.63 790.135C251.234 790.49 251.677 791.078 251.854 791.76L253.984 799.984C254.349 801.401 253.495 802.849 252.083 803.224L246.422 804.698C245.849 804.839 245.266 804.917 244.682 804.917ZM247.396 795.677L244.307 796.484C243.896 796.599 243.552 796.854 243.333 797.219C243.115 797.583 243.057 798.016 243.167 798.422C243.276 798.833 243.531 799.177 243.896 799.396C244.26 799.62 244.693 799.672 245.099 799.562L248.187 798.755L247.396 795.677Z" fill="white"/>
<path d="M292.584 802.317C292.449 802.317 292.319 802.307 292.173 802.286L276.11 799.807C275.058 799.64 274.209 798.875 273.944 797.849L270.339 783.906C270.074 782.88 270.438 781.791 271.277 781.14L284.11 771.14C285.266 770.245 286.923 770.453 287.829 771.604C288.72 772.765 288.511 774.427 287.365 775.333L275.907 784.26L278.647 794.817L292.99 797.031C294.438 797.25 295.428 798.609 295.209 800.062C295.001 801.375 293.876 802.317 292.584 802.317Z" fill="white"/>
<path d="M293.876 807.308C292.693 807.308 291.62 806.511 291.313 805.319L281.891 768.907C281.527 767.49 282.376 766.037 283.787 765.662C285.198 765.298 286.646 766.152 287.021 767.569L296.443 803.98C296.808 805.391 295.959 806.845 294.547 807.22C294.313 807.287 294.094 807.308 293.876 807.308Z" fill="white"/>
<path d="M265.756 822.364C262.667 822.364 259.844 820.286 259.027 817.156L255.287 802.703C255.11 802.02 255.209 801.296 255.563 800.692C255.912 800.083 256.501 799.64 257.183 799.463L265.506 797.291C266.917 796.927 268.36 797.781 268.735 799.197L272.48 813.656C273.438 817.375 271.209 821.182 267.501 822.156C266.917 822.296 266.329 822.364 265.756 822.364ZM261.079 803.932L264.157 815.817C264.391 816.697 265.292 817.229 266.167 817C267.047 816.765 267.579 815.869 267.344 814.984L264.266 803.104L261.079 803.932Z" fill="white"/>
<path d="M235.114 773.505H235.104L211.255 773.463C207.968 773.452 205.307 770.775 205.307 767.479L205.338 752.895C205.338 751.301 205.968 749.796 207.093 748.666C208.218 747.541 209.708 746.932 211.301 746.932H211.312L235.156 746.973C236.744 746.973 238.244 747.604 239.369 748.734C240.499 749.864 241.114 751.369 241.104 752.963L241.072 767.541C241.072 769.135 240.442 770.64 239.317 771.77C238.192 772.895 236.702 773.505 235.114 773.505ZM211.286 752.239C211.057 752.239 210.911 752.354 210.822 752.442C210.734 752.531 210.624 752.682 210.624 752.906L210.593 767.489C210.593 767.854 210.89 768.15 211.255 768.15L235.104 768.197C235.322 768.197 235.479 768.098 235.567 768.01C235.65 767.921 235.765 767.765 235.765 767.541L235.796 752.963C235.796 752.729 235.687 752.583 235.598 752.484C235.51 752.395 235.354 752.286 235.135 752.286L211.286 752.239Z" fill="white"/>
<path d="M223.208 764.292C221.817 764.292 220.437 763.802 219.301 762.828L207.317 752.506C206.202 751.558 206.077 749.875 207.03 748.766C207.978 747.651 209.655 747.532 210.76 748.479L222.744 758.802C223.004 759.026 223.385 759.026 223.645 758.802L235.676 748.526C236.791 747.573 238.458 747.709 239.405 748.823C240.353 749.943 240.223 751.61 239.109 752.563L227.077 762.844C225.963 763.802 224.583 764.292 223.208 764.292Z" fill="white"/>
<path d="M315.975 848.145C304.61 848.145 295.365 838.869 295.365 827.473C295.365 816.077 304.61 806.807 315.975 806.807C327.344 806.807 336.589 816.077 336.589 827.473C336.589 838.869 327.344 848.145 315.975 848.145ZM315.975 812.13C307.537 812.13 300.662 819.01 300.662 827.489C300.662 835.963 307.521 842.843 315.975 842.843C324.428 842.843 331.292 835.963 331.292 827.489C331.292 819.01 324.417 812.13 315.975 812.13Z" fill="white"/>
<path d="M312.167 837.645C311.74 837.645 311.308 837.53 310.912 837.322C310.053 836.859 309.521 835.963 309.521 834.989V819.973C309.521 818.999 310.053 818.103 310.912 817.64C311.771 817.176 312.808 817.218 313.626 817.76L325.016 825.265C325.766 825.749 326.204 826.593 326.204 827.489C326.204 828.385 325.756 829.213 325.016 829.713L313.626 837.213C313.183 837.489 312.678 837.645 312.167 837.645ZM314.818 824.9V830.067L318.735 827.489L314.818 824.9Z" fill="white"/>
<path d="M210.839 854.683C210.417 854.683 209.985 854.584 209.6 854.376C208.74 853.917 208.199 853.011 208.188 852.037L208.167 845.381L205.407 845.391H205.396C203.938 845.391 202.751 844.204 202.751 842.745L202.662 817.277C202.662 816.568 202.938 815.891 203.433 815.396C203.928 814.896 204.605 814.61 205.298 814.61L241.173 814.49H241.183C241.876 814.49 242.553 814.766 243.048 815.261C243.542 815.761 243.829 816.433 243.829 817.131L243.917 842.6C243.917 844.074 242.74 845.256 241.282 845.266L225.501 845.324L212.329 854.23C211.876 854.527 211.355 854.683 210.839 854.683ZM210.803 840.058C211.501 840.058 212.173 840.334 212.667 840.829C213.167 841.329 213.454 842.006 213.454 842.699L213.464 847.037L223.193 840.454C223.626 840.157 224.146 840.001 224.662 840.001L238.6 839.959L238.532 819.798L207.959 819.896L208.021 840.058H210.803Z" fill="white"/>
<path d="M214.557 828.574C213.099 828.574 211.906 827.386 211.906 825.928C211.906 824.459 213.089 823.271 214.542 823.261L232 823.209H232.01C233.469 823.209 234.661 824.391 234.661 825.85C234.661 827.324 233.479 828.506 232.021 828.516L214.557 828.574Z" fill="white"/>
<path d="M214.579 836.673C213.12 836.673 211.928 835.485 211.928 834.027C211.928 832.558 213.11 831.37 214.568 831.36L232.021 831.303H232.037C233.49 831.303 234.683 832.49 234.683 833.949C234.683 835.423 233.501 836.605 232.048 836.615L214.579 836.673Z" fill="white"/>
<path d="M317.135 775.454C316.77 775.454 316.406 775.376 316.072 775.235C312.833 773.808 309.927 771.152 307.911 767.756C307.125 766.438 306.619 765.209 306.354 764.006C305.989 762.365 306.088 760.751 306.619 759.324C307.25 757.641 308.515 756.225 310.114 755.407C312.281 754.313 314.875 754.412 316.968 755.542C319.041 754.365 321.635 754.214 323.822 755.277C325.432 756.048 326.734 757.454 327.385 759.115C327.947 760.532 328.067 762.147 327.739 763.792C327.494 765.011 327.01 766.24 326.26 767.568C324.307 771.006 321.468 773.719 318.25 775.209C317.895 775.376 317.52 775.454 317.135 775.454ZM313.385 759.943C313.072 759.943 312.776 760.011 312.51 760.141C312.093 760.355 311.75 760.74 311.583 761.183C311.416 761.636 311.395 762.235 311.531 762.855C311.671 763.496 311.968 764.214 312.458 765.032C313.645 767.048 315.302 768.74 317.099 769.803C318.88 768.693 320.489 766.98 321.645 764.943C322.125 764.115 322.411 763.397 322.541 762.756C322.661 762.121 322.64 761.537 322.453 761.084C322.276 760.652 321.921 760.266 321.505 760.063C320.708 759.678 319.604 759.923 319.01 760.631C318.515 761.214 317.786 761.558 317.026 761.558C316.26 761.568 315.526 761.235 315.015 760.662C314.609 760.199 313.989 759.943 313.385 759.943Z" fill="white"/>
<path d="M317.048 784.469C305.683 784.469 296.443 775.198 296.443 763.813C296.443 752.432 305.693 743.156 317.048 743.156C328.402 743.156 337.646 752.432 337.646 763.813C337.662 775.208 328.412 784.469 317.048 784.469ZM317.048 748.469C308.605 748.469 301.74 755.349 301.74 763.813C301.74 772.281 308.605 779.161 317.048 779.161C325.49 779.161 332.355 772.281 332.355 763.813C332.365 755.349 325.49 748.469 317.048 748.469Z" fill="white"/>
<path fill-rule="evenodd" clip-rule="evenodd" d="M631.723 881.567H563.234C561.812 881.567 560.656 880.416 560.656 878.994C560.656 877.572 561.812 876.421 563.234 876.421H631.723C632.671 876.421 633.442 875.65 633.442 874.708V758.88C633.442 757.275 632.817 755.765 631.682 754.63L609.025 732.01C607.885 730.874 606.374 730.249 604.77 730.249H521.838C520.89 730.249 520.119 731.02 520.119 731.963V874.702C520.119 875.65 520.89 876.421 521.838 876.421H553.682C555.104 876.421 556.255 877.572 556.255 878.994C556.255 880.416 555.104 881.567 553.682 881.567H521.838C518.046 881.567 514.963 878.489 514.963 874.702V731.963C514.963 728.182 518.046 725.104 521.838 725.104H604.77C607.755 725.104 610.557 726.26 612.671 728.369L635.327 750.989C637.437 753.098 638.598 755.9 638.598 758.88V874.708C638.598 878.489 635.515 881.567 631.723 881.567Z" fill="white"/>
<path fill-rule="evenodd" clip-rule="evenodd" d="M635.25 757.896H608.328C606.906 757.896 605.75 756.745 605.75 755.323V728.448C605.75 727.026 606.906 725.875 608.328 725.875C609.755 725.875 610.906 727.026 610.906 728.448V752.75H635.25C636.672 752.75 637.828 753.901 637.828 755.323C637.828 756.745 636.672 757.896 635.25 757.896Z" fill="white"/>
<path fill-rule="evenodd" clip-rule="evenodd" d="M619.942 788.671H533.619C532.197 788.671 531.041 787.52 531.041 786.098C531.041 784.676 532.197 783.525 533.619 783.525H619.942C621.364 783.525 622.52 784.676 622.52 786.098C622.52 787.52 621.364 788.671 619.942 788.671Z" fill="white"/>
<path fill-rule="evenodd" clip-rule="evenodd" d="M619.942 771.208H533.619C532.197 771.208 531.041 770.057 531.041 768.635C531.041 767.214 532.197 766.062 533.619 766.062H619.942C621.364 766.062 622.52 767.214 622.52 768.635C622.52 770.057 621.364 771.208 619.942 771.208Z" fill="white"/>
<path fill-rule="evenodd" clip-rule="evenodd" d="M580.286 753.745H533.619C532.197 753.745 531.041 752.594 531.041 751.173C531.041 749.751 532.197 748.6 533.619 748.6H580.286C581.708 748.6 582.864 749.751 582.864 751.173C582.864 752.594 581.708 753.745 580.286 753.745Z" fill="white"/>
<path fill-rule="evenodd" clip-rule="evenodd" d="M575.515 806.141H533.619C532.197 806.141 531.041 804.985 531.041 803.563C531.041 802.141 532.197 800.99 533.619 800.99H575.515C576.937 800.99 578.093 802.141 578.093 803.563C578.093 804.985 576.937 806.141 575.515 806.141Z" fill="white"/>
<path fill-rule="evenodd" clip-rule="evenodd" d="M549.531 823.593H533.619C532.197 823.593 531.041 822.442 531.041 821.02C531.041 819.598 532.197 818.447 533.619 818.447H549.531C550.952 818.447 552.104 819.598 552.104 821.02C552.104 822.442 550.952 823.593 549.531 823.593Z" fill="white"/>
<path fill-rule="evenodd" clip-rule="evenodd" d="M546.866 861.458C540.157 861.458 534.037 856.917 532.35 850.13C530.355 842.141 535.246 834.021 543.251 832.031L555.261 829.042C556.647 828.703 558.043 829.542 558.386 830.922L564.371 854.912C564.715 856.292 563.871 857.688 562.491 858.031L550.475 861.016C549.267 861.318 548.058 861.458 546.866 861.458ZM554.006 834.662L544.496 837.026C539.251 838.328 536.043 843.651 537.35 848.891C538.657 854.125 543.985 857.328 549.23 856.021L558.746 853.656L554.006 834.662Z" fill="white"/>
<path fill-rule="evenodd" clip-rule="evenodd" d="M559.364 889.823C558.015 889.823 556.687 889.437 555.515 888.687C553.921 887.677 552.796 886.114 552.343 884.286L546.129 859.38C545.786 858.005 546.629 856.609 548.01 856.26C549.39 855.916 550.791 856.76 551.135 858.14L557.343 883.041C557.619 884.151 558.723 884.859 559.796 884.63C560.359 884.505 560.827 884.166 561.124 883.677C561.406 883.208 561.494 882.656 561.359 882.125L555.145 857.203C554.801 855.823 555.64 854.427 557.02 854.083C558.406 853.745 559.801 854.578 560.145 855.963L566.359 880.88C566.827 882.745 566.536 884.682 565.541 886.333C564.51 888.047 562.859 889.229 560.895 889.656C560.39 889.765 559.874 889.823 559.364 889.823Z" fill="white"/>
<path fill-rule="evenodd" clip-rule="evenodd" d="M555.885 834.114C554.755 834.114 553.719 833.369 553.401 832.228C553.021 830.858 553.823 829.442 555.198 829.062C570.276 824.879 583.078 815.999 591.245 804.051C592.047 802.874 593.651 802.577 594.828 803.374C596.005 804.176 596.307 805.78 595.505 806.952C591.26 813.155 585.865 818.624 579.453 823.192C572.625 828.062 564.927 831.707 556.573 834.02C556.344 834.082 556.109 834.114 555.885 834.114Z" fill="white"/>
<path fill-rule="evenodd" clip-rule="evenodd" d="M607.813 865.963C607.376 865.963 606.938 865.854 606.542 865.63C592.574 857.75 576.896 855.057 562.391 858.052C561.001 858.343 559.636 857.447 559.344 856.052C559.058 854.661 559.954 853.302 561.344 853.01C568.86 851.458 576.704 851.307 584.662 852.562C591.282 853.609 597.745 855.599 603.933 858.5L590.876 806.125C590.527 804.744 591.37 803.349 592.751 803.005C594.136 802.661 595.532 803.5 595.876 804.88L610.313 862.77C610.563 863.77 610.193 864.817 609.37 865.442C608.917 865.791 608.365 865.963 607.813 865.963Z" fill="white"/>
<path fill-rule="evenodd" clip-rule="evenodd" d="M612.595 869.855C611.256 869.855 609.938 869.49 608.756 868.782C607.043 867.756 605.834 866.126 605.355 864.188L590.829 805.949C590.345 804.016 590.647 802.011 591.678 800.303C592.704 798.589 594.339 797.386 596.277 796.902C598.214 796.423 600.225 796.725 601.938 797.751C603.647 798.777 604.855 800.407 605.339 802.344L619.865 860.584C620.86 864.579 618.412 868.636 614.412 869.631C613.813 869.782 613.204 869.855 612.595 869.855ZM598.089 801.829C597.902 801.829 597.709 801.85 597.522 801.897C596.923 802.048 596.412 802.423 596.095 802.954C595.777 803.485 595.683 804.105 595.829 804.704L610.355 862.943C610.506 863.548 610.881 864.053 611.412 864.371C611.944 864.693 612.569 864.787 613.173 864.636C614.412 864.324 615.173 863.063 614.86 861.824L600.334 803.589C600.188 802.985 599.813 802.48 599.277 802.162C598.912 801.943 598.506 801.829 598.089 801.829Z" fill="white"/>
<path fill-rule="evenodd" clip-rule="evenodd" d="M612.292 843.442C611.136 843.447 610.084 842.661 609.792 841.494C609.448 840.114 610.287 838.718 611.672 838.374C613.35 837.952 614.771 836.906 615.662 835.421C616.558 833.942 616.818 832.197 616.396 830.52C615.98 828.838 614.933 827.421 613.443 826.531C611.959 825.635 610.214 825.374 608.532 825.796C607.152 826.14 605.751 825.296 605.407 823.921C605.063 822.541 605.907 821.145 607.287 820.801C610.303 820.046 613.438 820.515 616.1 822.119C618.766 823.718 620.652 826.26 621.402 829.275C622.152 832.291 621.683 835.416 620.084 838.077C618.48 840.739 615.933 842.619 612.917 843.369C612.709 843.421 612.495 843.442 612.292 843.442Z" fill="white"/>
<path fill-rule="evenodd" clip-rule="evenodd" d="M663.385 853.833H646.875C645.448 853.833 644.297 852.682 644.297 851.26V784.911C644.297 783.489 645.448 782.338 646.875 782.338H663.385C664.807 782.338 665.964 783.489 665.964 784.911V851.26C665.964 852.682 664.807 853.833 663.385 853.833ZM649.453 848.687H660.807V787.484H649.453V848.687Z" fill="white"/>
<path fill-rule="evenodd" clip-rule="evenodd" d="M655.13 870.495C655.125 870.495 655.13 870.495 655.13 870.495C654.146 870.495 653.25 869.938 652.817 869.063L644.562 852.401C644.166 851.604 644.213 850.656 644.682 849.901C645.151 849.146 645.979 848.688 646.875 848.688H663.385C664.276 848.688 665.104 849.146 665.573 849.901C666.041 850.656 666.088 851.604 665.692 852.401L657.437 869.063C657.005 869.938 656.109 870.495 655.13 870.495ZM651.021 853.833L655.13 862.115L659.229 853.833H651.021Z" fill="white"/>
<path fill-rule="evenodd" clip-rule="evenodd" d="M663.385 787.484H646.875C645.448 787.484 644.297 786.333 644.297 784.911V777.083C644.297 773.297 647.38 770.219 651.172 770.219H659.089C662.88 770.219 665.964 773.297 665.964 777.083V784.911C665.964 786.333 664.807 787.484 663.385 787.484ZM649.453 782.339H660.807V777.083C660.807 776.135 660.036 775.365 659.089 775.365H651.172C650.224 775.365 649.453 776.135 649.453 777.083V782.339Z" fill="white"/>
<path d="M180.749 664.674L183.186 681.465H179.061L177.77 672.09L173.728 681.465H171.52L167.499 672.028L166.186 681.465H162.082L164.52 664.674H168.145L172.665 675.215L177.165 664.674H180.749Z" fill="white"/>
<path d="M191.996 681.778C190.798 681.778 189.668 681.512 188.6 680.986C187.543 680.46 186.689 679.705 186.038 678.715C185.382 677.715 185.059 676.549 185.059 675.215C185.059 673.913 185.382 672.768 186.038 671.778C186.689 670.778 187.543 670.018 188.6 669.486C189.668 668.945 190.798 668.674 191.996 668.674C193.204 668.674 194.335 668.945 195.392 669.486C196.444 670.018 197.293 670.778 197.934 671.778C198.585 672.768 198.913 673.913 198.913 675.215C198.913 676.549 198.585 677.715 197.934 678.715C197.293 679.705 196.444 680.46 195.392 680.986C194.335 681.512 193.204 681.778 191.996 681.778ZM191.996 678.195C192.855 678.195 193.564 677.919 194.121 677.361C194.673 676.809 194.954 676.09 194.954 675.215C194.954 674.372 194.673 673.669 194.121 673.111C193.564 672.544 192.855 672.257 191.996 672.257C191.132 672.257 190.423 672.544 189.871 673.111C189.314 673.669 189.038 674.372 189.038 675.215C189.038 676.09 189.314 676.809 189.871 677.361C190.423 677.919 191.132 678.195 191.996 678.195Z" fill="white"/>
<path d="M208.855 668.673C209.865 668.673 210.844 668.943 211.792 669.485C212.735 670.027 213.506 670.798 214.105 671.798C214.699 672.787 215.001 673.923 215.001 675.214C215.001 676.521 214.699 677.673 214.105 678.673C213.506 679.673 212.735 680.443 211.792 680.985C210.844 681.511 209.865 681.777 208.855 681.777C207.173 681.777 205.865 681.266 204.938 680.235V681.464H201.209V664.193H205.23V669.943C206.115 669.1 207.324 668.673 208.855 668.673ZM208.042 678.214C208.902 678.214 209.615 677.938 210.188 677.381C210.756 676.813 211.042 676.089 211.042 675.214C211.042 674.355 210.756 673.641 210.188 673.068C209.615 672.501 208.902 672.214 208.042 672.214C207.167 672.214 206.443 672.501 205.876 673.068C205.318 673.641 205.042 674.355 205.042 675.214C205.042 676.089 205.318 676.813 205.876 677.381C206.443 677.938 207.167 678.214 208.042 678.214Z" fill="white"/>
<path d="M221.234 681.465H217.234V668.986H221.234V681.465ZM221.651 667.069H217.526V663.84H221.651V667.069Z" fill="white"/>
<path d="M228.415 681.464H224.395V664.193H228.415V681.464Z" fill="white"/>
<path d="M237.46 668.674C238.637 668.674 239.736 668.945 240.751 669.486C241.762 670.028 242.574 670.794 243.189 671.778C243.814 672.768 244.126 673.882 244.126 675.132C244.126 675.497 244.085 675.919 244.001 676.403H234.751C234.902 677.153 235.215 677.736 235.689 678.153C236.173 678.57 236.777 678.778 237.501 678.778C238.085 678.778 238.569 678.674 238.96 678.465C239.345 678.257 239.678 677.945 239.96 677.528H243.772C243.298 678.794 242.522 679.82 241.439 680.611C240.355 681.393 239.027 681.778 237.46 681.778C236.251 681.778 235.132 681.507 234.105 680.965C233.09 680.424 232.272 679.663 231.647 678.674C231.033 677.674 230.73 676.523 230.73 675.215C230.73 673.924 231.033 672.788 231.647 671.799C232.272 670.799 233.09 670.028 234.105 669.486C235.132 668.945 236.251 668.674 237.46 668.674ZM237.46 671.695C236.777 671.695 236.199 671.882 235.73 672.257C235.257 672.632 234.939 673.184 234.772 673.903H240.189C240.064 673.252 239.762 672.726 239.293 672.32C238.835 671.903 238.22 671.695 237.46 671.695Z" fill="white"/>
<path d="M271.971 664.674L274.409 681.465H270.284L268.992 672.09L264.951 681.465H262.742L258.721 672.028L257.409 681.465H253.305L255.742 664.674H259.367L263.888 675.215L268.388 664.674H271.971Z" fill="white"/>
<path d="M286.387 668.986H290.096V681.465H286.387V680.236C285.455 681.268 284.148 681.778 282.471 681.778C281.455 681.778 280.476 681.512 279.533 680.986C278.585 680.445 277.814 679.674 277.221 678.674C276.637 677.674 276.346 676.523 276.346 675.215C276.346 673.924 276.637 672.778 277.221 671.778C277.814 670.778 278.585 670.018 279.533 669.486C280.476 668.945 281.455 668.674 282.471 668.674C284.137 668.674 285.439 669.189 286.387 670.215V668.986ZM283.304 678.215C284.163 678.215 284.877 677.939 285.45 677.382C286.018 676.814 286.304 676.09 286.304 675.215C286.304 674.356 286.018 673.643 285.45 673.07C284.877 672.502 284.163 672.215 283.304 672.215C282.429 672.215 281.705 672.502 281.137 673.07C280.58 673.643 280.304 674.356 280.304 675.215C280.304 676.09 280.58 676.814 281.137 677.382C281.705 677.939 282.429 678.215 283.304 678.215Z" fill="white"/>
<path d="M301.686 668.84V672.402H300.082C299.259 672.402 298.566 672.684 297.999 673.236C297.426 673.777 297.145 674.48 297.145 675.34V681.465H293.145V668.986H296.853V670.423C297.811 669.371 299.087 668.84 300.686 668.84H301.686Z" fill="white"/>
<path d="M311.024 675.048L316.462 681.464H311.837L307.566 676.318V681.464H303.545V664.193H307.566V673.943L311.607 668.985H316.087L311.024 675.048Z" fill="white"/>
<path d="M323.813 668.674C324.99 668.674 326.089 668.945 327.105 669.486C328.115 670.028 328.928 670.794 329.542 671.778C330.167 672.768 330.48 673.882 330.48 675.132C330.48 675.497 330.438 675.919 330.355 676.403H321.105C321.256 677.153 321.568 677.736 322.042 678.153C322.527 678.57 323.131 678.778 323.855 678.778C324.438 678.778 324.923 678.674 325.313 678.465C325.699 678.257 326.032 677.945 326.313 677.528H330.126C329.652 678.794 328.876 679.82 327.792 680.611C326.709 681.393 325.381 681.778 323.813 681.778C322.605 681.778 321.485 681.507 320.459 680.965C319.443 680.424 318.626 679.663 318.001 678.674C317.386 677.674 317.084 676.523 317.084 675.215C317.084 673.924 317.386 672.788 318.001 671.799C318.626 670.799 319.443 670.028 320.459 669.486C321.485 668.945 322.605 668.674 323.813 668.674ZM323.813 671.695C323.131 671.695 322.553 671.882 322.084 672.257C321.61 672.632 321.292 673.184 321.126 673.903H326.542C326.417 673.252 326.115 672.726 325.646 672.32C325.188 671.903 324.574 671.695 323.813 671.695Z" fill="white"/>
<path d="M340.464 672.507H337.61V676.007C337.61 676.606 337.766 677.08 338.089 677.424C338.423 677.757 338.886 677.924 339.485 677.924H340.464V681.465H338.256C336.766 681.465 335.62 681.049 334.818 680.215C334.011 679.382 333.61 678.231 333.61 676.757V672.507H331.568V668.986H333.61V665.674H337.61V668.986H340.464V672.507Z" fill="white"/>
<path d="M346.994 681.465H342.994V668.986H346.994V681.465ZM347.411 667.069H343.286V663.84H347.411V667.069Z" fill="white"/>
<path d="M357.465 668.674C358.434 668.674 359.299 668.903 360.049 669.361C360.809 669.82 361.408 670.455 361.84 671.257C362.268 672.049 362.486 672.96 362.486 673.986V681.465H358.486V674.82C358.486 674.028 358.299 673.403 357.924 672.945C357.549 672.486 357.012 672.257 356.32 672.257C355.653 672.257 355.101 672.497 354.674 672.965C354.257 673.439 354.049 674.059 354.049 674.82V681.465H350.049V668.986H353.757V670.195C354.757 669.184 355.992 668.674 357.465 668.674Z" fill="white"/>
<path d="M374.453 668.986H378.141V680.174C378.141 681.439 377.911 682.58 377.453 683.611C376.995 684.637 376.266 685.455 375.266 686.07C374.266 686.695 373 687.007 371.474 687.007C369.583 687.007 368.089 686.549 366.995 685.632C365.896 684.726 365.214 683.559 364.953 682.132H368.911C369.411 683.09 370.25 683.57 371.432 683.57C372.333 683.57 373.021 683.304 373.495 682.778C373.979 682.247 374.224 681.57 374.224 680.736V679.861C373.833 680.268 373.328 680.585 372.703 680.82C372.089 681.059 371.391 681.174 370.599 681.174C369.609 681.174 368.661 680.919 367.745 680.403C366.828 679.893 366.078 679.163 365.495 678.215C364.922 677.257 364.641 676.163 364.641 674.924C364.641 673.674 364.922 672.58 365.495 671.632C366.078 670.674 366.818 669.945 367.724 669.445C368.641 668.934 369.589 668.674 370.578 668.674C372.203 668.674 373.495 669.184 374.453 670.195V668.986ZM371.474 677.778C372.307 677.778 372.995 677.507 373.536 676.965C374.078 676.413 374.349 675.731 374.349 674.924C374.349 674.122 374.078 673.445 373.536 672.903C372.995 672.361 372.307 672.09 371.474 672.09C370.625 672.09 369.932 672.361 369.391 672.903C368.859 673.445 368.599 674.122 368.599 674.924C368.599 675.731 368.859 676.413 369.391 676.965C369.932 677.507 370.625 677.778 371.474 677.778Z" fill="white"/>
<path d="M485.839 661.636V664.886H492.735V668.469H481.631V651.678H492.485V655.24H485.839V658.157H492.256V661.636H485.839Z" fill="white"/>
<path d="M510.415 655.678C511.342 655.678 512.154 655.896 512.852 656.324C513.545 656.756 514.081 657.365 514.456 658.157C514.842 658.938 515.04 659.839 515.04 660.865V668.469H511.04V661.553C511.04 660.834 510.873 660.271 510.54 659.865C510.217 659.464 509.779 659.261 509.227 659.261C508.67 659.261 508.206 659.469 507.831 659.886C507.456 660.303 507.269 660.86 507.269 661.553V668.469H503.269V661.553C503.269 660.834 503.102 660.271 502.769 659.865C502.446 659.464 502.003 659.261 501.436 659.261C500.894 659.261 500.436 659.469 500.061 659.886C499.686 660.303 499.498 660.86 499.498 661.553V668.469H495.498V655.99H499.144V657.261C500.087 656.209 501.253 655.678 502.644 655.678C503.404 655.678 504.123 655.865 504.79 656.24C505.456 656.605 505.967 657.094 506.331 657.719C507.441 656.36 508.8 655.678 510.415 655.678Z" fill="white"/>
<path d="M527.235 655.99H530.943V668.469H527.235V667.24C526.303 668.271 524.995 668.782 523.318 668.782C522.303 668.782 521.324 668.516 520.381 667.99C519.433 667.449 518.662 666.678 518.068 665.678C517.485 664.678 517.193 663.527 517.193 662.219C517.193 660.928 517.485 659.782 518.068 658.782C518.662 657.782 519.433 657.021 520.381 656.49C521.324 655.949 522.303 655.678 523.318 655.678C524.985 655.678 526.287 656.193 527.235 657.219V655.99ZM524.152 665.219C525.011 665.219 525.725 664.943 526.298 664.386C526.865 663.818 527.152 663.094 527.152 662.219C527.152 661.36 526.865 660.646 526.298 660.074C525.725 659.506 525.011 659.219 524.152 659.219C523.277 659.219 522.553 659.506 521.985 660.074C521.428 660.646 521.152 661.36 521.152 662.219C521.152 663.094 521.428 663.818 521.985 664.386C522.553 664.943 523.277 665.219 524.152 665.219Z" fill="white"/>
<path d="M537.994 668.471H533.994V655.992H537.994V668.471ZM538.411 654.075H534.286V650.846H538.411V654.075Z" fill="white"/>
<path d="M545.175 668.47H541.154V651.199H545.175V668.47Z" fill="white"/>
<path d="M570.745 660.469L567.266 664.74L570.745 668.469H566.536L565.182 667.032C563.776 668.199 562.13 668.782 560.245 668.782C558.62 668.782 557.328 668.376 556.37 667.553C555.422 666.735 554.953 665.652 554.953 664.303C554.953 663.443 555.167 662.667 555.599 661.969C556.042 661.277 556.672 660.61 557.495 659.969L558.203 659.428L557.432 658.574C557 658.105 556.661 657.626 556.411 657.136C556.161 656.652 556.036 656.074 556.036 655.407C556.036 654.673 556.224 654.001 556.599 653.386C556.974 652.777 557.521 652.292 558.245 651.928C558.979 651.553 559.833 651.365 560.807 651.365C561.792 651.365 562.641 651.548 563.349 651.907C564.057 652.256 564.599 652.73 564.974 653.324C565.349 653.923 565.536 654.568 565.536 655.261C565.536 656.027 565.359 656.714 565.016 657.324C564.682 657.923 564.13 658.521 563.37 659.115L562.578 659.74L565.12 662.449L566.724 660.469H570.745ZM560.578 657.574L561.099 657.157C561.484 656.865 561.776 656.594 561.974 656.344C562.167 656.094 562.266 655.818 562.266 655.511C562.266 655.136 562.13 654.824 561.87 654.574C561.62 654.324 561.255 654.199 560.786 654.199C560.354 654.199 560 654.339 559.724 654.615C559.458 654.881 559.328 655.193 559.328 655.553C559.328 655.876 559.396 656.152 559.536 656.386C559.687 656.626 559.943 656.928 560.307 657.303L560.578 657.574ZM560.62 665.636C561.437 665.636 562.25 665.324 563.057 664.699L560.224 661.615L559.786 661.949C559.37 662.282 559.062 662.594 558.87 662.886C558.687 663.178 558.599 663.511 558.599 663.886C558.599 664.402 558.771 664.824 559.12 665.157C559.479 665.48 559.979 665.636 560.62 665.636Z" fill="white"/>
<path d="M587.917 668.782C586.318 668.782 584.834 668.423 583.459 667.699C582.094 666.98 581.006 665.959 580.188 664.636C579.365 663.303 578.959 661.782 578.959 660.074C578.959 658.365 579.365 656.844 580.188 655.511C581.006 654.178 582.094 653.157 583.459 652.449C584.834 651.73 586.318 651.365 587.917 651.365C589.292 651.365 590.568 651.631 591.751 652.157C592.928 652.688 593.938 653.449 594.771 654.449C595.615 655.449 596.209 656.615 596.542 657.949H592.188C591.824 657.131 591.271 656.469 590.521 655.969C589.782 655.459 588.923 655.199 587.938 655.199C587.063 655.199 586.261 655.417 585.542 655.844C584.818 656.261 584.251 656.839 583.834 657.574C583.428 658.313 583.23 659.146 583.23 660.074C583.23 661.006 583.428 661.839 583.834 662.574C584.251 663.313 584.818 663.896 585.542 664.324C586.261 664.74 587.063 664.949 587.938 664.949C588.964 664.949 589.844 664.699 590.584 664.199C591.318 663.688 591.86 663.006 592.209 662.157H596.542C596.209 663.521 595.626 664.699 594.792 665.699C593.959 666.699 592.949 667.464 591.771 667.99C590.589 668.516 589.303 668.782 587.917 668.782Z" fill="white"/>
<path d="M604.973 668.782C603.775 668.782 602.645 668.516 601.577 667.99C600.52 667.464 599.665 666.709 599.014 665.719C598.358 664.719 598.035 663.553 598.035 662.219C598.035 660.917 598.358 659.771 599.014 658.782C599.665 657.782 600.52 657.021 601.577 656.49C602.645 655.949 603.775 655.678 604.973 655.678C606.181 655.678 607.311 655.949 608.368 656.49C609.421 657.021 610.27 657.782 610.91 658.782C611.561 659.771 611.889 660.917 611.889 662.219C611.889 663.553 611.561 664.719 610.91 665.719C610.27 666.709 609.421 667.464 608.368 667.99C607.311 668.516 606.181 668.782 604.973 668.782ZM604.973 665.199C605.832 665.199 606.54 664.923 607.098 664.365C607.65 663.813 607.931 663.094 607.931 662.219C607.931 661.376 607.65 660.673 607.098 660.115C606.54 659.548 605.832 659.261 604.973 659.261C604.108 659.261 603.4 659.548 602.848 660.115C602.29 660.673 602.014 661.376 602.014 662.219C602.014 663.094 602.29 663.813 602.848 664.365C603.4 664.923 604.108 665.199 604.973 665.199Z" fill="white"/>
<path d="M621.499 655.678C622.467 655.678 623.332 655.907 624.082 656.365C624.842 656.824 625.441 657.459 625.874 658.261C626.301 659.053 626.52 659.964 626.52 660.99V668.469H622.52V661.824C622.52 661.032 622.332 660.407 621.957 659.949C621.582 659.49 621.046 659.261 620.353 659.261C619.686 659.261 619.134 659.501 618.707 659.969C618.29 660.443 618.082 661.063 618.082 661.824V668.469H614.082V655.99H617.79V657.199C618.79 656.188 620.025 655.678 621.499 655.678Z" fill="white"/>
<path d="M637.257 659.511H634.403V663.011C634.403 663.61 634.559 664.084 634.882 664.428C635.215 664.761 635.679 664.928 636.278 664.928H637.257V668.469H635.049C633.559 668.469 632.413 668.053 631.611 667.219C630.804 666.386 630.403 665.235 630.403 663.761V659.511H628.361V655.99H630.403V652.678H634.403V655.99H637.257V659.511Z" fill="white"/>
<path d="M645.661 655.678C646.838 655.678 647.937 655.949 648.952 656.49C649.963 657.032 650.775 657.798 651.39 658.782C652.015 659.771 652.327 660.886 652.327 662.136C652.327 662.501 652.286 662.923 652.202 663.407H642.952C643.104 664.157 643.416 664.74 643.89 665.157C644.374 665.574 644.979 665.782 645.702 665.782C646.286 665.782 646.77 665.678 647.161 665.469C647.546 665.261 647.88 664.949 648.161 664.532H651.973C651.499 665.798 650.723 666.824 649.64 667.615C648.557 668.396 647.229 668.782 645.661 668.782C644.452 668.782 643.333 668.511 642.307 667.969C641.291 667.428 640.473 666.667 639.848 665.678C639.234 664.678 638.932 663.527 638.932 662.219C638.932 660.928 639.234 659.792 639.848 658.803C640.473 657.803 641.291 657.032 642.307 656.49C643.333 655.949 644.452 655.678 645.661 655.678ZM645.661 658.699C644.979 658.699 644.4 658.886 643.932 659.261C643.458 659.636 643.14 660.188 642.973 660.907H648.39C648.265 660.256 647.963 659.73 647.494 659.324C647.036 658.907 646.421 658.699 645.661 658.699Z" fill="white"/>
<path d="M661.938 655.678C662.907 655.678 663.771 655.907 664.521 656.365C665.282 656.824 665.881 657.459 666.313 658.261C666.74 659.053 666.959 659.964 666.959 660.99V668.469H662.959V661.824C662.959 661.032 662.771 660.407 662.396 659.949C662.021 659.49 661.485 659.261 660.792 659.261C660.126 659.261 659.574 659.501 659.146 659.969C658.73 660.443 658.521 661.063 658.521 661.824V668.469H654.521V655.99H658.23V657.199C659.23 656.188 660.464 655.678 661.938 655.678Z" fill="white"/>
<path d="M677.697 659.511H674.842V663.011C674.842 663.61 674.999 664.084 675.322 664.428C675.655 664.761 676.118 664.928 676.717 664.928H677.697V668.469H675.488C673.999 668.469 672.853 668.053 672.051 667.219C671.243 666.386 670.842 665.235 670.842 663.761V659.511H668.801V655.99H670.842V652.678H674.842V655.99H677.697V659.511Z" fill="white"/>
<path d="M535.282 677.678L537.719 694.469H533.594L532.303 685.094L528.261 694.469H526.053L522.032 685.032L520.719 694.469H516.615L519.053 677.678H522.678L527.199 688.219L531.699 677.678H535.282Z" fill="white"/>
<path d="M549.698 681.99H553.406V694.469H549.698V693.24C548.766 694.271 547.458 694.782 545.781 694.782C544.766 694.782 543.786 694.516 542.844 693.99C541.896 693.449 541.125 692.678 540.531 691.678C539.948 690.678 539.656 689.527 539.656 688.219C539.656 686.928 539.948 685.782 540.531 684.782C541.125 683.782 541.896 683.021 542.844 682.49C543.786 681.949 544.766 681.678 545.781 681.678C547.448 681.678 548.75 682.193 549.698 683.219V681.99ZM546.615 691.219C547.474 691.219 548.187 690.943 548.76 690.386C549.328 689.818 549.615 689.094 549.615 688.219C549.615 687.36 549.328 686.646 548.76 686.074C548.187 685.506 547.474 685.219 546.615 685.219C545.74 685.219 545.016 685.506 544.448 686.074C543.891 686.646 543.615 687.36 543.615 688.219C543.615 689.094 543.891 689.818 544.448 690.386C545.016 690.943 545.74 691.219 546.615 691.219Z" fill="white"/>
<path d="M564.997 681.846V685.408H563.393C562.57 685.408 561.877 685.689 561.309 686.242C560.736 686.783 560.455 687.486 560.455 688.346V694.471H556.455V681.992H560.163V683.429C561.122 682.377 562.398 681.846 563.997 681.846H564.997Z" fill="white"/>
<path d="M574.335 688.053L579.772 694.47H575.147L570.876 689.324V694.47H566.855V677.199H570.876V686.949L574.918 681.991H579.397L574.335 688.053Z" fill="white"/>
<path d="M587.124 681.678C588.301 681.678 589.4 681.949 590.415 682.49C591.426 683.032 592.238 683.798 592.853 684.782C593.478 685.771 593.79 686.886 593.79 688.136C593.79 688.501 593.749 688.923 593.665 689.407H584.415C584.566 690.157 584.879 690.74 585.353 691.157C585.837 691.574 586.441 691.782 587.165 691.782C587.749 691.782 588.233 691.678 588.624 691.469C589.009 691.261 589.342 690.949 589.624 690.532H593.436C592.962 691.798 592.186 692.824 591.103 693.615C590.02 694.396 588.691 694.782 587.124 694.782C585.915 694.782 584.796 694.511 583.77 693.969C582.754 693.428 581.936 692.667 581.311 691.678C580.697 690.678 580.395 689.527 580.395 688.219C580.395 686.928 580.697 685.792 581.311 684.803C581.936 683.803 582.754 683.032 583.77 682.49C584.796 681.949 585.915 681.678 587.124 681.678ZM587.124 684.699C586.441 684.699 585.863 684.886 585.395 685.261C584.921 685.636 584.603 686.188 584.436 686.907H589.853C589.728 686.256 589.426 685.73 588.957 685.324C588.499 684.907 587.884 684.699 587.124 684.699Z" fill="white"/>
<path d="M603.775 685.511H600.921V689.011C600.921 689.61 601.077 690.084 601.4 690.428C601.733 690.761 602.197 690.928 602.796 690.928H603.775V694.469H601.566C600.077 694.469 598.931 694.053 598.129 693.219C597.322 692.386 596.921 691.235 596.921 689.761V685.511H594.879V681.99H596.921V678.678H600.921V681.99H603.775V685.511Z" fill="white"/>
<path d="M610.305 694.471H606.305V681.992H610.305V694.471ZM610.721 680.075H606.596V676.846H610.721V680.075Z" fill="white"/>
<path d="M620.776 681.678C621.745 681.678 622.609 681.907 623.359 682.365C624.12 682.824 624.719 683.459 625.151 684.261C625.578 685.053 625.797 685.964 625.797 686.99V694.469H621.797V687.824C621.797 687.032 621.609 686.407 621.234 685.949C620.859 685.49 620.323 685.261 619.63 685.261C618.964 685.261 618.411 685.501 617.984 685.969C617.568 686.443 617.359 687.063 617.359 687.824V694.469H613.359V681.99H617.068V683.199C618.068 682.188 619.302 681.678 620.776 681.678Z" fill="white"/>
<path d="M637.764 681.99H641.451V693.178C641.451 694.443 641.222 695.584 640.764 696.615C640.305 697.641 639.576 698.459 638.576 699.074C637.576 699.699 636.311 700.011 634.785 700.011C632.894 700.011 631.399 699.553 630.305 698.636C629.206 697.73 628.524 696.563 628.264 695.136H632.222C632.722 696.094 633.561 696.574 634.743 696.574C635.644 696.574 636.331 696.308 636.805 695.782C637.29 695.251 637.535 694.574 637.535 693.74V692.865C637.144 693.271 636.639 693.589 636.014 693.824C635.399 694.063 634.701 694.178 633.91 694.178C632.92 694.178 631.972 693.923 631.055 693.407C630.139 692.896 629.389 692.167 628.805 691.219C628.232 690.261 627.951 689.167 627.951 687.928C627.951 686.678 628.232 685.584 628.805 684.636C629.389 683.678 630.128 682.949 631.035 682.449C631.951 681.938 632.899 681.678 633.889 681.678C635.514 681.678 636.805 682.188 637.764 683.199V681.99ZM634.785 690.782C635.618 690.782 636.305 690.511 636.847 689.969C637.389 689.417 637.66 688.735 637.66 687.928C637.66 687.126 637.389 686.449 636.847 685.907C636.305 685.365 635.618 685.094 634.785 685.094C633.936 685.094 633.243 685.365 632.701 685.907C632.17 686.449 631.91 687.126 631.91 687.928C631.91 688.735 632.17 689.417 632.701 689.969C633.243 690.511 633.936 690.782 634.785 690.782Z" fill="white"/>
<path d="M289.255 550.86C286.677 551.308 285.167 551.532 283.432 551.589V528.068H269.432L251.344 554.053L252.911 561.162H266.464C266.349 563.85 266.125 566.204 265.625 568.443H284.38C283.932 566.204 283.708 563.907 283.542 561.277C284.828 561.329 286.286 561.501 288.021 561.725L289.255 550.86ZM266.63 539.157V551.641H255.432L266.63 539.157Z" fill="#142357"/>
<path d="M577.889 568.546C589.982 568.546 595.081 563.113 595.081 555.837C595.081 543.348 582.087 540.884 572.118 546.54L577.441 538.53H581.133C587.295 538.53 589.029 538.53 593.008 539.316L590.826 526.77C587.238 527.332 584.831 527.332 581.863 527.332H568.701L568.144 547.993C573.128 546.368 579.623 545.754 579.623 551.634C579.623 554.77 577.607 555.947 574.529 555.947C571.394 555.947 567.357 555.389 563.998 554.212L565.68 567.316C568.425 567.931 572.623 568.546 577.889 568.546Z" fill="#47175A"/>
</svg>
