<svg width="200" height="180" viewBox="0 0 200 180" fill="none" xmlns="http://www.w3.org/2000/svg">
<path d="M0 0H170C186.569 0 200 13.4315 200 30V180H30C13.4315 180 0 166.569 0 150V0Z" fill="#E75825"/>
<path d="M39.82 141L46.06 127H49.26L55.52 141H52.12L47 128.64H48.28L43.14 141H39.82ZM42.94 138L43.8 135.54H51L51.88 138H42.94ZM61.7148 145.04C60.7015 145.04 59.7215 144.913 58.7748 144.66C57.8415 144.42 57.0615 144.053 56.4348 143.56L57.6748 141.32C58.1282 141.693 58.7015 141.987 59.3948 142.2C60.1015 142.427 60.7948 142.54 61.4748 142.54C62.5815 142.54 63.3815 142.293 63.8748 141.8C64.3815 141.307 64.6348 140.573 64.6348 139.6V137.98L64.8348 135.28L64.7948 132.56V130.24H67.7548V139.2C67.7548 141.2 67.2348 142.673 66.1948 143.62C65.1548 144.567 63.6615 145.04 61.7148 145.04ZM61.2348 140.48C60.2348 140.48 59.3282 140.267 58.5148 139.84C57.7148 139.4 57.0682 138.793 56.5748 138.02C56.0948 137.233 55.8548 136.32 55.8548 135.28C55.8548 134.227 56.0948 133.313 56.5748 132.54C57.0682 131.753 57.7148 131.147 58.5148 130.72C59.3282 130.293 60.2348 130.08 61.2348 130.08C62.1415 130.08 62.9415 130.267 63.6348 130.64C64.3282 131 64.8682 131.567 65.2548 132.34C65.6415 133.1 65.8348 134.08 65.8348 135.28C65.8348 136.467 65.6415 137.447 65.2548 138.22C64.8682 138.98 64.3282 139.547 63.6348 139.92C62.9415 140.293 62.1415 140.48 61.2348 140.48ZM61.8548 137.92C62.4015 137.92 62.8882 137.813 63.3148 137.6C63.7415 137.373 64.0748 137.06 64.3148 136.66C64.5548 136.26 64.6748 135.8 64.6748 135.28C64.6748 134.747 64.5548 134.287 64.3148 133.9C64.0748 133.5 63.7415 133.193 63.3148 132.98C62.8882 132.753 62.4015 132.64 61.8548 132.64C61.3082 132.64 60.8215 132.753 60.3948 132.98C59.9682 133.193 59.6282 133.5 59.3748 133.9C59.1348 134.287 59.0148 134.747 59.0148 135.28C59.0148 135.8 59.1348 136.26 59.3748 136.66C59.6282 137.06 59.9682 137.373 60.3948 137.6C60.8215 137.813 61.3082 137.92 61.8548 137.92ZM70.6588 141V130.24H73.6388V133.28L73.2188 132.4C73.5388 131.64 74.0521 131.067 74.7588 130.68C75.4654 130.28 76.3254 130.08 77.3388 130.08V132.96C77.2054 132.947 77.0854 132.94 76.9788 132.94C76.8721 132.927 76.7588 132.92 76.6388 132.92C75.7854 132.92 75.0921 133.167 74.5588 133.66C74.0388 134.14 73.7788 134.893 73.7788 135.92V141H70.6588ZM79.2134 141V130.24H82.3334V141H79.2134ZM80.7734 128.74C80.2001 128.74 79.7334 128.573 79.3734 128.24C79.0134 127.907 78.8334 127.493 78.8334 127C78.8334 126.507 79.0134 126.093 79.3734 125.76C79.7334 125.427 80.2001 125.26 80.7734 125.26C81.3468 125.26 81.8134 125.42 82.1734 125.74C82.5334 126.047 82.7134 126.447 82.7134 126.94C82.7134 127.46 82.5334 127.893 82.1734 128.24C81.8268 128.573 81.3601 128.74 80.7734 128.74ZM90.4291 141.16C89.2691 141.16 88.2357 140.927 87.3291 140.46C86.4224 139.98 85.7091 139.32 85.1891 138.48C84.6824 137.64 84.4291 136.687 84.4291 135.62C84.4291 134.54 84.6824 133.587 85.1891 132.76C85.7091 131.92 86.4224 131.267 87.3291 130.8C88.2357 130.32 89.2691 130.08 90.4291 130.08C91.5624 130.08 92.5491 130.32 93.3891 130.8C94.2291 131.267 94.8491 131.94 95.2491 132.82L92.8291 134.12C92.5491 133.613 92.1957 133.24 91.7691 133C91.3557 132.76 90.9024 132.64 90.4091 132.64C89.8757 132.64 89.3957 132.76 88.9691 133C88.5424 133.24 88.2024 133.58 87.9491 134.02C87.7091 134.46 87.5891 134.993 87.5891 135.62C87.5891 136.247 87.7091 136.78 87.9491 137.22C88.2024 137.66 88.5424 138 88.9691 138.24C89.3957 138.48 89.8757 138.6 90.4091 138.6C90.9024 138.6 91.3557 138.487 91.7691 138.26C92.1957 138.02 92.5491 137.64 92.8291 137.12L95.2491 138.44C94.8491 139.307 94.2291 139.98 93.3891 140.46C92.5491 140.927 91.5624 141.16 90.4291 141.16ZM101.585 141.16C100.692 141.16 99.8921 140.987 99.1855 140.64C98.4921 140.293 97.9521 139.767 97.5655 139.06C97.1788 138.34 96.9855 137.427 96.9855 136.32V130.24H100.105V135.86C100.105 136.753 100.292 137.413 100.665 137.84C101.052 138.253 101.592 138.46 102.285 138.46C102.765 138.46 103.192 138.36 103.565 138.16C103.939 137.947 104.232 137.627 104.445 137.2C104.659 136.76 104.765 136.213 104.765 135.56V130.24H107.885V141H104.925V138.04L105.465 138.9C105.105 139.647 104.572 140.213 103.865 140.6C103.172 140.973 102.412 141.16 101.585 141.16ZM110.776 141V126.16H113.896V141H110.776ZM121.992 141.16C120.726 141.16 119.739 140.84 119.032 140.2C118.326 139.547 117.972 138.58 117.972 137.3V127.86H121.092V137.26C121.092 137.713 121.212 138.067 121.452 138.32C121.692 138.56 122.019 138.68 122.432 138.68C122.926 138.68 123.346 138.547 123.692 138.28L124.532 140.48C124.212 140.707 123.826 140.88 123.372 141C122.932 141.107 122.472 141.16 121.992 141.16ZM116.312 132.88V130.48H123.772V132.88H116.312ZM130.824 141.16C129.93 141.16 129.13 140.987 128.424 140.64C127.73 140.293 127.19 139.767 126.804 139.06C126.417 138.34 126.224 137.427 126.224 136.32V130.24H129.344V135.86C129.344 136.753 129.53 137.413 129.904 137.84C130.29 138.253 130.83 138.46 131.524 138.46C132.004 138.46 132.43 138.36 132.804 138.16C133.177 137.947 133.47 137.627 133.684 137.2C133.897 136.76 134.004 136.213 134.004 135.56V130.24H137.124V141H134.164V138.04L134.704 138.9C134.344 139.647 133.81 140.213 133.104 140.6C132.41 140.973 131.65 141.16 130.824 141.16ZM140.014 141V130.24H142.994V133.28L142.574 132.4C142.894 131.64 143.408 131.067 144.114 130.68C144.821 130.28 145.681 130.08 146.694 130.08V132.96C146.561 132.947 146.441 132.94 146.334 132.94C146.228 132.927 146.114 132.92 145.994 132.92C145.141 132.92 144.448 133.167 143.914 133.66C143.394 134.14 143.134 134.893 143.134 135.92V141H140.014ZM153.811 141.16C152.585 141.16 151.505 140.92 150.571 140.44C149.651 139.96 148.938 139.307 148.431 138.48C147.925 137.64 147.671 136.687 147.671 135.62C147.671 134.54 147.918 133.587 148.411 132.76C148.918 131.92 149.605 131.267 150.471 130.8C151.338 130.32 152.318 130.08 153.411 130.08C154.465 130.08 155.411 130.307 156.251 130.76C157.105 131.2 157.778 131.84 158.271 132.68C158.765 133.507 159.011 134.5 159.011 135.66C159.011 135.78 159.005 135.92 158.991 136.08C158.978 136.227 158.965 136.367 158.951 136.5H150.211V134.68H157.311L156.111 135.22C156.111 134.66 155.998 134.173 155.771 133.76C155.545 133.347 155.231 133.027 154.831 132.8C154.431 132.56 153.965 132.44 153.431 132.44C152.898 132.44 152.425 132.56 152.011 132.8C151.611 133.027 151.298 133.353 151.071 133.78C150.845 134.193 150.731 134.687 150.731 135.26V135.74C150.731 136.327 150.858 136.847 151.111 137.3C151.378 137.74 151.745 138.08 152.211 138.32C152.691 138.547 153.251 138.66 153.891 138.66C154.465 138.66 154.965 138.573 155.391 138.4C155.831 138.227 156.231 137.967 156.591 137.62L158.251 139.42C157.758 139.98 157.138 140.413 156.391 140.72C155.645 141.013 154.785 141.16 153.811 141.16Z" fill="white"/>
<path fill-rule="evenodd" clip-rule="evenodd" d="M135.51 37.0404L133.519 36.727L132.996 34.7985L136 34L135.512 37.0404H135.51ZM108.839 64.6495L107.122 65.6955L107.118 65.6915L107.112 65.6816L107.092 65.6496L107.023 65.5358C106.966 65.44 106.882 65.3003 106.781 65.1226C106.498 64.6338 106.226 64.1393 105.964 63.6393C105.135 62.0677 104.411 60.4439 103.797 58.7783C103.115 56.8938 102.53 54.7358 102.439 52.6476C102.35 50.5674 102.742 48.3096 104.307 46.5389C105.714 44.9498 108.365 43.4865 111.151 42.2208C114.038 40.9053 117.435 39.6436 120.653 38.5516C124.639 37.2046 128.665 35.977 132.726 34.8704L132.928 34.8145L132.998 34.7945L133.523 36.725L135.514 37.0384L135.502 37.1123L135.468 37.3239C135.266 38.5486 135.055 39.7717 134.834 40.9931C134.297 43.9968 133.71 46.9916 133.075 49.9765C132.357 53.3323 131.521 56.8499 130.636 59.7944C130.243 61.1412 129.78 62.4672 129.25 63.7671C128.79 64.8651 128.245 65.9311 127.583 66.6817C126.167 68.2828 123.962 68.7838 122.035 68.9116C120.026 69.0454 117.798 68.8038 115.795 68.4524C114.008 68.134 112.239 67.7275 110.493 67.2347C109.779 67.0356 109.068 66.8226 108.363 66.5959L108.235 66.552L108.201 66.54L108.191 66.538H108.187L108.841 64.6475L108.839 64.6495ZM108.839 64.6495L107.122 65.6955L107.501 66.3044L108.187 66.538L108.839 64.6495ZM110.194 62.9865C112.26 63.6245 114.363 64.1378 116.491 64.5237C118.355 64.8491 120.219 65.0328 121.765 64.929C123.397 64.8211 124.216 64.4259 124.545 64.0546C124.755 63.815 125.098 63.2481 125.521 62.2379C125.998 61.0666 126.413 59.8719 126.766 58.6585C127.607 55.8637 128.417 52.4639 129.127 49.1521C129.808 45.9478 130.432 42.7319 130.999 39.5058L130.375 39.6855C128.138 40.3383 125.116 41.2586 121.963 42.3286C118.803 43.4007 115.549 44.6124 112.835 45.8481C110.019 47.1298 108.118 48.2936 107.344 49.17C106.724 49.8687 106.406 50.9447 106.472 52.4759C106.537 53.9991 106.979 55.7299 107.596 57.4288C108.303 59.3504 109.172 61.2095 110.194 62.9865ZM71.6017 42.0651L71.0792 43.9936L69.0859 44.307L68.5977 41.2686L71.6037 42.0671L71.6017 42.0651ZM91.1351 66.6857L92.852 67.7298L92.8561 67.7258L92.8601 67.7178L92.8762 67.6919L92.9347 67.596C93.239 67.0833 93.5296 66.5627 93.8063 66.0349C94.3389 65.0208 95.0188 63.6054 95.5878 62.0403C96.1486 60.4911 96.6369 58.6964 96.7115 56.9477C96.7882 55.2049 96.4613 53.2605 95.1015 51.7233C93.8991 50.3618 91.6738 49.1481 89.4142 48.118C87.0517 47.0419 84.2777 46.0118 81.6569 45.1235C78.411 44.0265 75.1324 43.0266 71.8257 42.125L71.6602 42.0811L71.6017 42.0651L71.0792 43.9936L69.0859 44.307L69.096 44.3669L69.1242 44.5406L69.2332 45.1914C69.7775 48.4205 70.3903 51.6379 71.0711 54.8416C71.6562 57.5725 72.3381 60.4412 73.0604 62.8468C73.4235 64.0486 73.8028 65.1685 74.2003 66.1128C74.5775 67.0111 75.0395 67.9274 75.6206 68.5822C76.8714 69.9996 78.7941 70.4188 80.3859 70.5226C82.0645 70.6344 83.9064 70.4328 85.5507 70.1473C87.6152 69.7806 89.6511 69.2709 91.6436 68.6221L91.7464 68.5882L91.7767 68.5782L91.7868 68.5742L91.1351 66.6857ZM91.1351 66.6857L92.852 67.7298L92.4727 68.3407L91.7868 68.5742L91.1351 66.6857ZM89.7774 65.0208C90.5657 63.6346 91.2384 62.1872 91.7888 60.6928C92.2831 59.3293 92.6301 57.9618 92.6805 56.776C92.733 55.5822 92.4788 54.8196 92.0652 54.3505C91.4943 53.7076 90.0215 52.7893 87.7276 51.7453C85.5406 50.7491 82.9098 49.7689 80.3476 48.9005C78.1155 48.1465 75.8675 47.4397 73.6051 46.7804L73.6132 46.8303C73.9561 48.7468 74.4444 51.334 75.0194 54.0151C75.5943 56.7021 76.25 59.4511 76.9279 61.7089C77.2689 62.8388 77.6038 63.815 77.9266 64.5816C78.2695 65.3941 78.5278 65.8073 78.6569 65.9551C78.8223 66.1407 79.357 66.4541 80.6562 66.54C81.8688 66.6198 83.3496 66.4761 84.8506 66.2146C86.5163 65.9175 88.1618 65.5181 89.7774 65.0188V65.0208ZM85.359 84.0537C84.8466 84.0816 84.5964 84.1535 84.5319 84.1814C83.6179 84.5907 80.8419 85.5489 78.4451 86.3574C77.2144 86.7747 76.0342 87.1659 75.1626 87.4554L75.1061 87.4754V98.2615C75.4612 98.2455 75.8425 98.2315 76.2319 98.2175C77.9024 98.1577 79.8896 98.0978 80.7511 98.1337C84.3664 98.2754 87.082 99.1219 89.5958 99.9064L89.6503 99.9244C92.0067 100.659 94.1896 101.334 97.0484 101.547C97.8554 101.607 98.6402 101.685 99.3726 101.757H99.3827C102.195 102.037 104.047 102.176 105.482 101.661C106.597 101.26 110.683 99.3854 114.802 97.3352C116.84 96.321 118.837 95.289 120.425 94.4046C121.222 93.9614 121.898 93.5661 122.416 93.2347C122.675 93.069 122.88 92.9293 123.038 92.8155C123.1 92.7706 123.16 92.724 123.219 92.6758L123.276 92.6279C123.478 92.4262 123.692 91.7235 123.345 91.0627C123.181 90.7537 122.911 90.5129 122.584 90.384C122.18 90.2103 121.494 90.0766 120.405 90.2542C117.948 90.6535 115.012 91.8233 112.081 93.0032L112.04 93.0211C110.6 93.6001 109.155 94.181 107.874 94.6042C106.644 95.0095 105.278 95.3728 104.087 95.3029C102.453 95.2031 99.5864 94.7839 97.2219 94.4046C95.8631 94.1872 94.506 93.9596 93.1506 93.7218L92.8883 93.6759L92.7955 93.658L93.1789 89.6973L102.399 89.8071H102.419C102.527 89.7955 102.633 89.7755 102.738 89.7472C103.057 89.6673 103.603 89.4697 104.291 88.9886C104.503 88.8388 104.782 88.5634 105.042 88.194C105.142 88.0494 105.234 87.8987 105.316 87.7429C104.192 87.6721 103.075 87.5159 101.975 87.2757C101.376 87.1467 100.782 86.9969 100.194 86.8266L100.125 86.8066L88.8332 84.3192L88.7262 84.3012C88.1251 84.2025 87.52 84.1292 86.9125 84.0816C86.3958 84.0392 85.8769 84.0299 85.359 84.0537ZM89.2286 82.3628L89.5938 80.4004L89.6301 80.4064L101.166 82.9457L101.251 82.9717L101.267 82.9777L101.344 82.9996L101.662 83.0895C101.943 83.1653 102.346 83.2691 102.827 83.3729C103.807 83.5825 105.034 83.7762 106.168 83.7762C107.303 83.7762 108.538 84.1954 109.204 85.3892C109.773 86.4113 109.632 87.5173 109.432 88.2479C109.246 88.8939 108.97 89.5109 108.611 90.0806C109.224 89.841 109.876 89.5815 110.56 89.306L110.685 89.2541C113.465 88.1361 116.798 86.7946 119.749 86.3135C123.179 85.7585 125.751 86.9763 126.928 89.2281C127.965 91.2145 127.735 93.8336 126.151 95.4267C125.753 95.826 125.162 96.2312 124.597 96.5925C123.878 97.0432 123.146 97.4739 122.402 97.8842C120.738 98.8105 118.678 99.8745 116.612 100.903C112.533 102.933 108.235 104.919 106.855 105.414C104.463 106.273 101.695 105.999 99.2354 105.756L98.9792 105.73C98.2349 105.654 97.4897 105.588 96.7438 105.53C93.3947 105.279 90.8285 104.478 88.4841 103.747L88.4337 103.731C85.9118 102.945 83.6401 102.244 80.5897 102.122C79.9199 102.096 78.1162 102.144 76.3771 102.208C75.3978 102.243 74.4186 102.283 73.4397 102.326L73.1794 102.338L71.0691 102.434V84.5947L72.8384 84.0137C74.2741 83.5416 75.7079 83.0639 77.1397 82.5804C79.6495 81.732 82.1795 80.8516 82.8694 80.5441C83.6099 80.2128 84.4512 80.105 85.125 80.065C85.8412 80.0251 86.5776 80.055 87.2212 80.103C87.9959 80.163 88.7674 80.2582 89.5332 80.3884L89.5756 80.3964H89.5877L89.5918 80.3984H89.5958L89.2286 82.3628Z" fill="white" stroke="#404CDC" stroke-width="1.10247"/>
<path fill-rule="evenodd" clip-rule="evenodd" d="M121.811 48.5844C122.012 48.7548 122.178 48.9628 122.298 49.1965C122.418 49.4302 122.49 49.685 122.511 49.9463C122.531 50.2077 122.5 50.4706 122.418 50.7199C122.336 50.9691 122.205 51.2 122.033 51.3992C116.018 58.3424 108.532 68.5177 105.227 76.7884C105.129 77.0322 104.984 77.2546 104.8 77.443C104.616 77.6313 104.396 77.7818 104.152 77.886C103.909 77.9902 103.648 78.046 103.383 78.0501C103.118 78.0543 102.855 78.0068 102.608 77.9103C102.362 77.8139 102.137 77.6703 101.947 77.4879C101.756 77.3054 101.604 77.0877 101.499 76.8471C101.394 76.6065 101.337 76.3477 101.333 76.0855C101.329 75.8233 101.377 75.5629 101.474 75.3191C105.031 66.4175 112.875 55.835 118.966 48.802C119.314 48.4002 119.81 48.1517 120.343 48.1113C120.877 48.0709 121.405 48.2418 121.811 48.5864V48.5844ZM81.9248 54.9886C81.7167 55.1511 81.5431 55.3526 81.4137 55.5815C81.2844 55.8104 81.2019 56.0623 81.171 56.3228C81.1401 56.5832 81.1613 56.8472 81.2336 57.0995C81.3058 57.3519 81.4275 57.5877 81.5919 57.7934C86.1151 63.473 91.0539 70.7416 93.3983 76.7704C93.5996 77.2516 93.9829 77.6359 94.4665 77.8414C94.9501 78.0468 95.4957 78.0572 95.9869 77.8701C96.4781 77.6831 96.876 77.3136 97.0957 76.8403C97.3154 76.3671 97.3396 75.8277 97.1629 75.3371C94.5987 68.7412 89.3592 61.0933 84.7593 55.322C84.4283 54.9062 83.944 54.6375 83.4128 54.575C82.8816 54.5125 82.3471 54.6613 81.9268 54.9886H81.9248Z" fill="white" stroke="#404CDC" stroke-width="1.10247"/>
<path d="M63 80.0488H75.105V106.001H63V80.0488Z" fill="white" stroke="#404CDC" stroke-width="1.10247"/>
</svg>
