<svg width="200" height="180" viewBox="0 0 200 180" fill="none" xmlns="http://www.w3.org/2000/svg">
<path d="M0 0H170C186.569 0 200 13.4315 200 30V180H30C13.4315 180 0 166.569 0 150V0Z" fill="#E75825"/>
<path d="M39.82 141L46.06 127H49.26L55.52 141H52.12L47 128.64H48.28L43.14 141H39.82ZM42.94 138L43.8 135.54H51L51.88 138H42.94ZM61.7148 145.04C60.7015 145.04 59.7215 144.913 58.7748 144.66C57.8415 144.42 57.0615 144.053 56.4348 143.56L57.6748 141.32C58.1282 141.693 58.7015 141.987 59.3948 142.2C60.1015 142.427 60.7948 142.54 61.4748 142.54C62.5815 142.54 63.3815 142.293 63.8748 141.8C64.3815 141.307 64.6348 140.573 64.6348 139.6V137.98L64.8348 135.28L64.7948 132.56V130.24H67.7548V139.2C67.7548 141.2 67.2348 142.673 66.1948 143.62C65.1548 144.567 63.6615 145.04 61.7148 145.04ZM61.2348 140.48C60.2348 140.48 59.3282 140.267 58.5148 139.84C57.7148 139.4 57.0682 138.793 56.5748 138.02C56.0948 137.233 55.8548 136.32 55.8548 135.28C55.8548 134.227 56.0948 133.313 56.5748 132.54C57.0682 131.753 57.7148 131.147 58.5148 130.72C59.3282 130.293 60.2348 130.08 61.2348 130.08C62.1415 130.08 62.9415 130.267 63.6348 130.64C64.3282 131 64.8682 131.567 65.2548 132.34C65.6415 133.1 65.8348 134.08 65.8348 135.28C65.8348 136.467 65.6415 137.447 65.2548 138.22C64.8682 138.98 64.3282 139.547 63.6348 139.92C62.9415 140.293 62.1415 140.48 61.2348 140.48ZM61.8548 137.92C62.4015 137.92 62.8882 137.813 63.3148 137.6C63.7415 137.373 64.0748 137.06 64.3148 136.66C64.5548 136.26 64.6748 135.8 64.6748 135.28C64.6748 134.747 64.5548 134.287 64.3148 133.9C64.0748 133.5 63.7415 133.193 63.3148 132.98C62.8882 132.753 62.4015 132.64 61.8548 132.64C61.3082 132.64 60.8215 132.753 60.3948 132.98C59.9682 133.193 59.6282 133.5 59.3748 133.9C59.1348 134.287 59.0148 134.747 59.0148 135.28C59.0148 135.8 59.1348 136.26 59.3748 136.66C59.6282 137.06 59.9682 137.373 60.3948 137.6C60.8215 137.813 61.3082 137.92 61.8548 137.92ZM70.6588 141V130.24H73.6388V133.28L73.2188 132.4C73.5388 131.64 74.0521 131.067 74.7588 130.68C75.4654 130.28 76.3254 130.08 77.3388 130.08V132.96C77.2054 132.947 77.0854 132.94 76.9788 132.94C76.8721 132.927 76.7588 132.92 76.6388 132.92C75.7854 132.92 75.0921 133.167 74.5588 133.66C74.0388 134.14 73.7788 134.893 73.7788 135.92V141H70.6588ZM79.2134 141V130.24H82.3334V141H79.2134ZM80.7734 128.74C80.2001 128.74 79.7334 128.573 79.3734 128.24C79.0134 127.907 78.8334 127.493 78.8334 127C78.8334 126.507 79.0134 126.093 79.3734 125.76C79.7334 125.427 80.2001 125.26 80.7734 125.26C81.3468 125.26 81.8134 125.42 82.1734 125.74C82.5334 126.047 82.7134 126.447 82.7134 126.94C82.7134 127.46 82.5334 127.893 82.1734 128.24C81.8268 128.573 81.3601 128.74 80.7734 128.74ZM90.4291 141.16C89.2691 141.16 88.2357 140.927 87.3291 140.46C86.4224 139.98 85.7091 139.32 85.1891 138.48C84.6824 137.64 84.4291 136.687 84.4291 135.62C84.4291 134.54 84.6824 133.587 85.1891 132.76C85.7091 131.92 86.4224 131.267 87.3291 130.8C88.2357 130.32 89.2691 130.08 90.4291 130.08C91.5624 130.08 92.5491 130.32 93.3891 130.8C94.2291 131.267 94.8491 131.94 95.2491 132.82L92.8291 134.12C92.5491 133.613 92.1957 133.24 91.7691 133C91.3557 132.76 90.9024 132.64 90.4091 132.64C89.8757 132.64 89.3957 132.76 88.9691 133C88.5424 133.24 88.2024 133.58 87.9491 134.02C87.7091 134.46 87.5891 134.993 87.5891 135.62C87.5891 136.247 87.7091 136.78 87.9491 137.22C88.2024 137.66 88.5424 138 88.9691 138.24C89.3957 138.48 89.8757 138.6 90.4091 138.6C90.9024 138.6 91.3557 138.487 91.7691 138.26C92.1957 138.02 92.5491 137.64 92.8291 137.12L95.2491 138.44C94.8491 139.307 94.2291 139.98 93.3891 140.46C92.5491 140.927 91.5624 141.16 90.4291 141.16ZM101.585 141.16C100.692 141.16 99.8921 140.987 99.1855 140.64C98.4921 140.293 97.9521 139.767 97.5655 139.06C97.1788 138.34 96.9855 137.427 96.9855 136.32V130.24H100.105V135.86C100.105 136.753 100.292 137.413 100.665 137.84C101.052 138.253 101.592 138.46 102.285 138.46C102.765 138.46 103.192 138.36 103.565 138.16C103.939 137.947 104.232 137.627 104.445 137.2C104.659 136.76 104.765 136.213 104.765 135.56V130.24H107.885V141H104.925V138.04L105.465 138.9C105.105 139.647 104.572 140.213 103.865 140.6C103.172 140.973 102.412 141.16 101.585 141.16ZM110.776 141V126.16H113.896V141H110.776ZM121.992 141.16C120.726 141.16 119.739 140.84 119.032 140.2C118.326 139.547 117.972 138.58 117.972 137.3V127.86H121.092V137.26C121.092 137.713 121.212 138.067 121.452 138.32C121.692 138.56 122.019 138.68 122.432 138.68C122.926 138.68 123.346 138.547 123.692 138.28L124.532 140.48C124.212 140.707 123.826 140.88 123.372 141C122.932 141.107 122.472 141.16 121.992 141.16ZM116.312 132.88V130.48H123.772V132.88H116.312ZM130.824 141.16C129.93 141.16 129.13 140.987 128.424 140.64C127.73 140.293 127.19 139.767 126.804 139.06C126.417 138.34 126.224 137.427 126.224 136.32V130.24H129.344V135.86C129.344 136.753 129.53 137.413 129.904 137.84C130.29 138.253 130.83 138.46 131.524 138.46C132.004 138.46 132.43 138.36 132.804 138.16C133.177 137.947 133.47 137.627 133.684 137.2C133.897 136.76 134.004 136.213 134.004 135.56V130.24H137.124V141H134.164V138.04L134.704 138.9C134.344 139.647 133.81 140.213 133.104 140.6C132.41 140.973 131.65 141.16 130.824 141.16ZM140.014 141V130.24H142.994V133.28L142.574 132.4C142.894 131.64 143.408 131.067 144.114 130.68C144.821 130.28 145.681 130.08 146.694 130.08V132.96C146.561 132.947 146.441 132.94 146.334 132.94C146.228 132.927 146.114 132.92 145.994 132.92C145.141 132.92 144.448 133.167 143.914 133.66C143.394 134.14 143.134 134.893 143.134 135.92V141H140.014ZM153.811 141.16C152.585 141.16 151.505 140.92 150.571 140.44C149.651 139.96 148.938 139.307 148.431 138.48C147.925 137.64 147.671 136.687 147.671 135.62C147.671 134.54 147.918 133.587 148.411 132.76C148.918 131.92 149.605 131.267 150.471 130.8C151.338 130.32 152.318 130.08 153.411 130.08C154.465 130.08 155.411 130.307 156.251 130.76C157.105 131.2 157.778 131.84 158.271 132.68C158.765 133.507 159.011 134.5 159.011 135.66C159.011 135.78 159.005 135.92 158.991 136.08C158.978 136.227 158.965 136.367 158.951 136.5H150.211V134.68H157.311L156.111 135.22C156.111 134.66 155.998 134.173 155.771 133.76C155.545 133.347 155.231 133.027 154.831 132.8C154.431 132.56 153.965 132.44 153.431 132.44C152.898 132.44 152.425 132.56 152.011 132.8C151.611 133.027 151.298 133.353 151.071 133.78C150.845 134.193 150.731 134.687 150.731 135.26V135.74C150.731 136.327 150.858 136.847 151.111 137.3C151.378 137.74 151.745 138.08 152.211 138.32C152.691 138.547 153.251 138.66 153.891 138.66C154.465 138.66 154.965 138.573 155.391 138.4C155.831 138.227 156.231 137.967 156.591 137.62L158.251 139.42C157.758 139.98 157.138 140.413 156.391 140.72C155.645 141.013 154.785 141.16 153.811 141.16Z" fill="white"/>
<path fill-rule="evenodd" clip-rule="evenodd" d="M135.51 43.1585L133.519 42.8378L132.996 40.8641L136 40.0469L135.512 43.1585H135.51ZM108.839 71.4147L107.122 72.4853L107.118 72.4812L107.112 72.471L107.092 72.4383L107.023 72.3218C106.966 72.2238 106.882 72.0807 106.781 71.8989C106.498 71.3987 106.226 70.8925 105.964 70.3809C105.135 68.7725 104.411 67.1106 103.797 65.4059C103.115 63.4772 102.53 61.2686 102.439 59.1315C102.35 57.0026 102.742 54.6919 104.307 52.8796C105.714 51.2533 108.365 49.7557 111.151 48.4604C114.038 47.114 117.435 45.8227 120.653 44.7052C124.639 43.3266 128.665 42.0702 132.726 40.9377L132.928 40.8805L132.998 40.86L133.523 42.8357L135.514 43.1565L135.502 43.2321L135.468 43.4486C135.266 44.7021 135.055 45.9538 134.834 47.2039C134.297 50.2779 133.71 53.343 133.075 56.3979C132.357 59.8323 131.521 63.4323 130.636 66.4459C130.243 67.8242 129.78 69.1813 129.25 70.5116C128.79 71.6353 128.245 72.7264 127.583 73.4946C126.167 75.1331 123.962 75.646 122.035 75.7767C120.026 75.9136 117.798 75.6664 115.795 75.3068C114.008 74.9809 112.239 74.5649 110.493 74.0605C109.779 73.8568 109.068 73.6388 108.363 73.4067L108.235 73.3618L108.201 73.3495L108.191 73.3475H108.187L108.841 71.4126L108.839 71.4147ZM108.839 71.4147L107.122 72.4853L107.501 73.1084L108.187 73.3475L108.839 71.4147ZM110.194 69.7128C112.26 70.3657 114.363 70.891 116.491 71.286C118.355 71.619 120.219 71.807 121.765 71.7007C123.397 71.5904 124.216 71.1859 124.545 70.8058C124.755 70.5607 125.098 69.9804 125.521 68.9466C125.998 67.7478 126.413 66.5251 126.766 65.2833C127.607 62.423 128.417 58.9436 129.127 55.5541C129.808 52.2747 130.432 48.9834 130.999 45.6818L130.375 45.8656C128.138 46.5337 125.116 47.4756 121.963 48.5707C118.803 49.6679 115.549 50.908 112.835 52.1727C110.019 53.4844 108.118 54.6755 107.344 55.5724C106.724 56.2875 106.406 57.3888 106.472 58.9558C106.537 60.5147 106.979 62.2861 107.596 64.0248C108.303 65.9914 109.172 67.8941 110.194 69.7128ZM71.6017 48.301L71.0792 50.2747L69.0859 50.5954L68.5977 47.4858L71.6037 48.3031L71.6017 48.301ZM91.1351 73.4987L92.852 74.5672L92.8561 74.5631L92.8601 74.5549L92.8762 74.5284L92.9347 74.4303C93.239 73.9055 93.5296 73.3728 93.8063 72.8326C94.3389 71.7947 95.0188 70.3461 95.5878 68.7443C96.1486 67.1589 96.6369 65.3221 96.7115 63.5324C96.7882 61.7488 96.4613 59.7588 95.1015 58.1856C93.8991 56.7922 91.6738 55.55 89.4142 54.4957C87.0517 53.3945 84.2777 52.3402 81.6569 51.4311C78.411 50.3084 75.1324 49.285 71.8257 48.3623L71.6602 48.3174L71.6017 48.301L71.0792 50.2747L69.0859 50.5954L69.096 50.6567L69.1242 50.8345L69.2332 51.5005C69.7775 54.8053 70.3903 58.0982 71.0711 61.3769C71.6562 64.1719 72.3381 67.1078 73.0604 69.5698C73.4235 70.7997 73.8028 71.9459 74.2003 72.9123C74.5775 73.8317 75.0395 74.7695 75.6206 75.4396C76.8714 76.8902 78.7941 77.3193 80.3859 77.4255C82.0645 77.5399 83.9064 77.3336 85.5507 77.0414C87.6152 76.666 89.6511 76.1444 91.6436 75.4805L91.7464 75.4457L91.7767 75.4355L91.7868 75.4314L91.1351 73.4987ZM91.1351 73.4987L92.852 74.5672L92.4727 75.1924L91.7868 75.4314L91.1351 73.4987ZM89.7774 71.7947C90.5657 70.3761 91.2384 68.8947 91.7888 67.3653C92.2831 65.9698 92.6301 64.5703 92.6805 63.3567C92.733 62.1349 92.4788 61.3544 92.0652 60.8743C91.4943 60.2164 90.0215 59.2766 87.7276 58.208C85.5406 57.1885 82.9098 56.1854 80.3476 55.2966C78.1155 54.525 75.8675 53.8015 73.6051 53.1268L73.6132 53.1779C73.9561 55.1393 74.4444 57.7872 75.0194 60.5311C75.5943 63.2811 76.25 66.0944 76.9279 68.4052C77.2689 69.5616 77.6038 70.5607 77.9266 71.3452C78.2695 72.1768 78.5278 72.5997 78.6569 72.7509C78.8223 72.9409 79.357 73.2617 80.6562 73.3495C81.8688 73.4312 83.3496 73.2841 84.8506 73.0165C86.5163 72.7124 88.1618 72.3037 89.7774 71.7927V71.7947ZM85.359 91.2737C84.8466 91.3023 84.5964 91.3758 84.5319 91.4044C83.6179 91.8233 80.8419 92.804 78.4451 93.6314C77.2144 94.0584 76.0342 94.4589 75.1626 94.7551L75.1061 94.7756V105.814C75.4612 105.798 75.8425 105.784 76.2319 105.77C77.9024 105.708 79.8896 105.647 80.7511 105.684C84.3664 105.829 87.082 106.695 89.5958 107.498L89.6503 107.516C92.0067 108.268 94.1896 108.959 97.0484 109.177C97.8554 109.239 98.6402 109.318 99.3726 109.392H99.3827C102.195 109.678 104.047 109.821 105.482 109.294C106.597 108.883 110.683 106.965 114.802 104.866C116.84 103.829 118.837 102.772 120.425 101.867C121.222 101.414 121.898 101.009 122.416 100.67C122.675 100.5 122.88 100.357 123.038 100.241C123.1 100.195 123.16 100.147 123.219 100.098L123.276 100.049C123.478 99.8425 123.692 99.1233 123.345 98.447C123.181 98.1308 122.911 97.8843 122.584 97.7524C122.18 97.5746 121.494 97.4377 120.405 97.6196C117.948 98.0282 115.012 99.2255 112.081 100.433L112.04 100.451C110.6 101.044 109.155 101.638 107.874 102.072C106.644 102.486 105.278 102.858 104.087 102.787C102.453 102.684 99.5864 102.255 97.2219 101.867C95.8631 101.645 94.506 101.412 93.1506 101.168L92.8883 101.121L92.7955 101.103L93.1789 97.0495L102.399 97.1619H102.419C102.527 97.1501 102.633 97.1296 102.738 97.1006C103.057 97.0189 103.603 96.8166 104.291 96.3242C104.503 96.171 104.782 95.8891 105.042 95.5111C105.142 95.363 105.234 95.2088 105.316 95.0493C104.192 94.9769 103.075 94.8171 101.975 94.5713C101.376 94.4392 100.782 94.2859 100.194 94.1116L100.125 94.0911L88.8332 91.5454L88.7262 91.527C88.1251 91.426 87.52 91.351 86.9125 91.3023C86.3958 91.2589 85.8769 91.2493 85.359 91.2737ZM89.2286 89.5432L89.5938 87.5348L89.6301 87.5409L101.166 90.1398L101.251 90.1663L101.267 90.1725L101.344 90.1949L101.662 90.2869C101.943 90.3645 102.346 90.4707 102.827 90.577C103.807 90.7915 105.034 90.9897 106.168 90.9897C107.303 90.9897 108.538 91.4187 109.204 92.6405C109.773 93.6866 109.632 94.8185 109.432 95.5663C109.246 96.2274 108.97 96.8588 108.611 97.4418C109.224 97.1967 109.876 96.931 110.56 96.6491L110.685 96.596C113.465 95.4518 116.798 94.0789 119.749 93.5865C123.179 93.0185 125.751 94.2648 126.928 96.5694C127.965 98.6023 127.735 101.283 126.151 102.913C125.753 103.322 125.162 103.737 124.597 104.106C123.878 104.568 123.146 105.008 122.402 105.428C120.738 106.376 118.678 107.465 116.612 108.518C112.533 110.595 108.235 112.628 106.855 113.135C104.463 114.013 101.695 113.734 99.2354 113.484L98.9792 113.458C98.2349 113.38 97.4897 113.312 96.7438 113.253C93.3947 112.996 90.8285 112.177 88.4841 111.429L88.4337 111.413C85.9118 110.608 83.6401 109.89 80.5897 109.766C79.9199 109.739 78.1162 109.788 76.3771 109.854C75.3978 109.89 74.4186 109.93 73.4397 109.974L73.1794 109.987L71.0691 110.085V91.8274L72.8384 91.2328C74.2741 90.7496 75.7079 90.2607 77.1397 89.7659C79.6495 88.8976 82.1795 87.9965 82.8694 87.6819C83.6099 87.3428 84.4512 87.2324 85.125 87.1916C85.8412 87.1507 86.5776 87.1813 87.2212 87.2304C87.9959 87.2918 88.7674 87.3893 89.5332 87.5225L89.5756 87.5307H89.5877L89.5918 87.5328H89.5958L89.2286 89.5432Z" fill="white" stroke="#0F52BA" stroke-width="1.10247"/>
<path fill-rule="evenodd" clip-rule="evenodd" d="M121.811 54.9746C122.012 55.1489 122.178 55.3618 122.298 55.601C122.418 55.8401 122.49 56.1009 122.511 56.3684C122.531 56.6359 122.5 56.9049 122.418 57.16C122.336 57.4152 122.205 57.6514 122.033 57.8553C116.018 64.9613 108.532 75.375 105.227 83.8396C105.129 84.0891 104.984 84.3167 104.8 84.5095C104.616 84.7022 104.396 84.8563 104.152 84.9629C103.909 85.0695 103.648 85.1266 103.383 85.1309C103.118 85.1351 102.855 85.0865 102.608 84.9878C102.362 84.8891 102.137 84.7421 101.947 84.5554C101.756 84.3687 101.604 84.1459 101.499 83.8996C101.394 83.6534 101.337 83.3885 101.333 83.1202C101.329 82.8519 101.377 82.5854 101.474 82.3358C105.031 73.2256 112.875 62.3951 118.966 55.1973C119.314 54.786 119.81 54.5317 120.343 54.4903C120.877 54.449 121.405 54.6239 121.811 54.9766V54.9746ZM81.9248 61.5288C81.7167 61.6951 81.5431 61.9013 81.4137 62.1356C81.2844 62.3699 81.2019 62.6277 81.171 62.8943C81.1401 63.1609 81.1613 63.431 81.2336 63.6892C81.3058 63.9475 81.4275 64.1888 81.5919 64.3994C86.1151 70.212 91.0539 77.651 93.3983 83.8212C93.5996 84.3136 93.9829 84.707 94.4665 84.9172C94.9501 85.1275 95.4957 85.1381 95.9869 84.9467C96.4781 84.7553 96.876 84.377 97.0957 83.8927C97.3154 83.4084 97.3396 82.8563 97.1629 82.3542C94.5987 75.6038 89.3592 67.7767 84.7593 61.87C84.4283 61.4445 83.944 61.1695 83.4128 61.1055C82.8816 61.0416 82.3471 61.1938 81.9268 61.5288H81.9248Z" fill="white" stroke="#0F52BA" stroke-width="1.10247"/>
<path d="M63 87.1738H75.105V113.734H63V87.1738Z" fill="white" stroke="#0F52BA" stroke-width="1.10247"/>
</svg>
