<svg width="220" height="202" viewBox="0 0 220 202" fill="none" xmlns="http://www.w3.org/2000/svg">
<g filter="url(#filter0_d_754_2920)">
<path d="M0 0H170C186.569 0 200 13.4315 200 30V180H30C13.4315 180 0 166.569 0 150V0Z" fill="white"/>
<path d="M46.7557 132V118H53.5957C55.3557 118 56.6757 118.333 57.5557 119C58.449 119.667 58.8957 120.547 58.8957 121.64C58.8957 122.373 58.7157 123.013 58.3557 123.56C57.9957 124.093 57.5024 124.507 56.8757 124.8C56.249 125.093 55.529 125.24 54.7157 125.24L55.0957 124.42C55.9757 124.42 56.7557 124.567 57.4357 124.86C58.1157 125.14 58.6424 125.56 59.0157 126.12C59.4024 126.68 59.5957 127.367 59.5957 128.18C59.5957 129.38 59.1224 130.32 58.1757 131C57.229 131.667 55.8357 132 53.9957 132H46.7557ZM49.9757 129.56H53.7557C54.5957 129.56 55.229 129.427 55.6557 129.16C56.0957 128.88 56.3157 128.44 56.3157 127.84C56.3157 127.253 56.0957 126.82 55.6557 126.54C55.229 126.247 54.5957 126.1 53.7557 126.1H49.7357V123.74H53.1957C53.9824 123.74 54.5824 123.607 54.9957 123.34C55.4224 123.06 55.6357 122.64 55.6357 122.08C55.6357 121.533 55.4224 121.127 54.9957 120.86C54.5824 120.58 53.9824 120.44 53.1957 120.44H49.9757V129.56ZM68.4287 132V129.9L68.2287 129.44V125.68C68.2287 125.013 68.022 124.493 67.6087 124.12C67.2087 123.747 66.5887 123.56 65.7487 123.56C65.1753 123.56 64.6087 123.653 64.0487 123.84C63.502 124.013 63.0353 124.253 62.6487 124.56L61.5287 122.38C62.1153 121.967 62.822 121.647 63.6487 121.42C64.4753 121.193 65.3153 121.08 66.1687 121.08C67.8087 121.08 69.082 121.467 69.9887 122.24C70.8953 123.013 71.3487 124.22 71.3487 125.86V132H68.4287ZM65.1487 132.16C64.3087 132.16 63.5887 132.02 62.9887 131.74C62.3887 131.447 61.9287 131.053 61.6087 130.56C61.2887 130.067 61.1287 129.513 61.1287 128.9C61.1287 128.26 61.282 127.7 61.5887 127.22C61.9087 126.74 62.4087 126.367 63.0887 126.1C63.7687 125.82 64.6553 125.68 65.7487 125.68H68.6087V127.5H66.0887C65.3553 127.5 64.8487 127.62 64.5687 127.86C64.302 128.1 64.1687 128.4 64.1687 128.76C64.1687 129.16 64.322 129.48 64.6287 129.72C64.9487 129.947 65.382 130.06 65.9287 130.06C66.4487 130.06 66.9153 129.94 67.3287 129.7C67.742 129.447 68.042 129.08 68.2287 128.6L68.7087 130.04C68.482 130.733 68.0687 131.26 67.4687 131.62C66.8687 131.98 66.0953 132.16 65.1487 132.16ZM80.7124 121.08C81.5658 121.08 82.3258 121.253 82.9924 121.6C83.6724 121.933 84.2058 122.453 84.5924 123.16C84.9791 123.853 85.1724 124.747 85.1724 125.84V132H82.0524V126.32C82.0524 125.453 81.8591 124.813 81.4724 124.4C81.0991 123.987 80.5658 123.78 79.8724 123.78C79.3791 123.78 78.9324 123.887 78.5324 124.1C78.1458 124.3 77.8391 124.613 77.6124 125.04C77.3991 125.467 77.2924 126.013 77.2924 126.68V132H74.1724V121.24H77.1524V124.22L76.5924 123.32C76.9791 122.6 77.5324 122.047 78.2524 121.66C78.9724 121.273 79.7924 121.08 80.7124 121.08ZM90.5805 129.8L90.6605 126L95.6805 121.24H99.4005L94.5805 126.14L92.9605 127.46L90.5805 129.8ZM88.0005 132V117.16H91.1205V132H88.0005ZM96.0205 132L92.3805 127.48L94.3405 125.06L99.8005 132H96.0205ZM101.204 132V121.24H104.324V132H101.204ZM102.764 119.74C102.19 119.74 101.724 119.573 101.364 119.24C101.004 118.907 100.824 118.493 100.824 118C100.824 117.507 101.004 117.093 101.364 116.76C101.724 116.427 102.19 116.26 102.764 116.26C103.337 116.26 103.804 116.42 104.164 116.74C104.524 117.047 104.704 117.447 104.704 117.94C104.704 118.46 104.524 118.893 104.164 119.24C103.817 119.573 103.35 119.74 102.764 119.74ZM113.759 121.08C114.613 121.08 115.373 121.253 116.039 121.6C116.719 121.933 117.253 122.453 117.639 123.16C118.026 123.853 118.219 124.747 118.219 125.84V132H115.099V126.32C115.099 125.453 114.906 124.813 114.519 124.4C114.146 123.987 113.613 123.78 112.919 123.78C112.426 123.78 111.979 123.887 111.579 124.1C111.193 124.3 110.886 124.613 110.659 125.04C110.446 125.467 110.339 126.013 110.339 126.68V132H107.219V121.24H110.199V124.22L109.639 123.32C110.026 122.6 110.579 122.047 111.299 121.66C112.019 121.273 112.839 121.08 113.759 121.08ZM126.186 136.04C125.172 136.04 124.192 135.913 123.246 135.66C122.312 135.42 121.532 135.053 120.906 134.56L122.146 132.32C122.599 132.693 123.172 132.987 123.866 133.2C124.572 133.427 125.266 133.54 125.946 133.54C127.052 133.54 127.852 133.293 128.346 132.8C128.852 132.307 129.106 131.573 129.106 130.6V128.98L129.306 126.28L129.266 123.56V121.24H132.226V130.2C132.226 132.2 131.706 133.673 130.666 134.62C129.626 135.567 128.132 136.04 126.186 136.04ZM125.706 131.48C124.706 131.48 123.799 131.267 122.986 130.84C122.186 130.4 121.539 129.793 121.046 129.02C120.566 128.233 120.326 127.32 120.326 126.28C120.326 125.227 120.566 124.313 121.046 123.54C121.539 122.753 122.186 122.147 122.986 121.72C123.799 121.293 124.706 121.08 125.706 121.08C126.612 121.08 127.412 121.267 128.106 121.64C128.799 122 129.339 122.567 129.726 123.34C130.112 124.1 130.306 125.08 130.306 126.28C130.306 127.467 130.112 128.447 129.726 129.22C129.339 129.98 128.799 130.547 128.106 130.92C127.412 131.293 126.612 131.48 125.706 131.48ZM126.326 128.92C126.872 128.92 127.359 128.813 127.786 128.6C128.212 128.373 128.546 128.06 128.786 127.66C129.026 127.26 129.146 126.8 129.146 126.28C129.146 125.747 129.026 125.287 128.786 124.9C128.546 124.5 128.212 124.193 127.786 123.98C127.359 123.753 126.872 123.64 126.326 123.64C125.779 123.64 125.292 123.753 124.866 123.98C124.439 124.193 124.099 124.5 123.846 124.9C123.606 125.287 123.486 125.747 123.486 126.28C123.486 126.8 123.606 127.26 123.846 127.66C124.099 128.06 124.439 128.373 124.866 128.6C125.292 128.813 125.779 128.92 126.326 128.92ZM145.414 132.24C144.387 132.24 143.474 132.073 142.674 131.74C141.874 131.407 141.24 130.953 140.774 130.38C140.307 129.807 140.074 129.147 140.074 128.4C140.074 127.707 140.227 127.087 140.534 126.54C140.84 125.98 141.327 125.46 141.994 124.98C142.66 124.487 143.507 124.007 144.534 123.54C145.28 123.193 145.867 122.887 146.294 122.62C146.72 122.353 147.02 122.1 147.194 121.86C147.367 121.607 147.454 121.353 147.454 121.1C147.454 120.753 147.334 120.473 147.094 120.26C146.867 120.047 146.527 119.94 146.074 119.94C145.594 119.94 145.22 120.06 144.954 120.3C144.687 120.54 144.554 120.847 144.554 121.22C144.554 121.42 144.594 121.62 144.674 121.82C144.754 122.007 144.907 122.227 145.134 122.48C145.36 122.72 145.68 123.033 146.094 123.42L153.474 130.26L151.774 132.24L143.634 124.68C143.167 124.253 142.794 123.853 142.514 123.48C142.234 123.107 142.027 122.74 141.894 122.38C141.774 122.02 141.714 121.647 141.714 121.26C141.714 120.58 141.894 119.98 142.254 119.46C142.614 118.94 143.12 118.54 143.774 118.26C144.427 117.967 145.194 117.82 146.074 117.82C146.887 117.82 147.587 117.953 148.174 118.22C148.774 118.473 149.24 118.84 149.574 119.32C149.92 119.8 150.094 120.373 150.094 121.04C150.094 121.627 149.947 122.167 149.654 122.66C149.36 123.14 148.9 123.593 148.274 124.02C147.66 124.447 146.854 124.88 145.854 125.32C145.174 125.627 144.634 125.927 144.234 126.22C143.847 126.5 143.567 126.787 143.394 127.08C143.22 127.373 143.134 127.7 143.134 128.06C143.134 128.393 143.234 128.693 143.434 128.96C143.647 129.227 143.94 129.433 144.314 129.58C144.687 129.727 145.127 129.8 145.634 129.8C146.447 129.8 147.194 129.613 147.874 129.24C148.554 128.853 149.127 128.287 149.594 127.54C150.074 126.78 150.414 125.86 150.614 124.78L153.114 125.56C152.834 126.92 152.334 128.1 151.614 129.1C150.894 130.1 150.007 130.873 148.954 131.42C147.9 131.967 146.72 132.24 145.414 132.24ZM62.578 148.3H69.298V150.9H62.578V148.3ZM62.818 156H59.578V142H70.158V144.6H62.818V156ZM72.1314 156V145.24H75.2514V156H72.1314ZM73.6914 143.74C73.1181 143.74 72.6514 143.573 72.2914 143.24C71.9314 142.907 71.7514 142.493 71.7514 142C71.7514 141.507 71.9314 141.093 72.2914 140.76C72.6514 140.427 73.1181 140.26 73.6914 140.26C74.2647 140.26 74.7314 140.42 75.0914 140.74C75.4514 141.047 75.6314 141.447 75.6314 141.94C75.6314 142.46 75.4514 142.893 75.0914 143.24C74.7447 143.573 74.2781 143.74 73.6914 143.74ZM84.687 145.08C85.5404 145.08 86.3004 145.253 86.967 145.6C87.647 145.933 88.1804 146.453 88.567 147.16C88.9537 147.853 89.147 148.747 89.147 149.84V156H86.027V150.32C86.027 149.453 85.8337 148.813 85.447 148.4C85.0737 147.987 84.5404 147.78 83.847 147.78C83.3537 147.78 82.907 147.887 82.507 148.1C82.1204 148.3 81.8137 148.613 81.587 149.04C81.3737 149.467 81.267 150.013 81.267 150.68V156H78.147V145.24H81.127V148.22L80.567 147.32C80.9537 146.6 81.507 146.047 82.227 145.66C82.947 145.273 83.767 145.08 84.687 145.08ZM98.5752 156V153.9L98.3752 153.44V149.68C98.3752 149.013 98.1685 148.493 97.7552 148.12C97.3552 147.747 96.7352 147.56 95.8952 147.56C95.3218 147.56 94.7552 147.653 94.1952 147.84C93.6485 148.013 93.1818 148.253 92.7952 148.56L91.6752 146.38C92.2618 145.967 92.9685 145.647 93.7952 145.42C94.6218 145.193 95.4618 145.08 96.3152 145.08C97.9552 145.08 99.2285 145.467 100.135 146.24C101.042 147.013 101.495 148.22 101.495 149.86V156H98.5752ZM95.2952 156.16C94.4552 156.16 93.7352 156.02 93.1352 155.74C92.5352 155.447 92.0752 155.053 91.7552 154.56C91.4352 154.067 91.2752 153.513 91.2752 152.9C91.2752 152.26 91.4285 151.7 91.7352 151.22C92.0552 150.74 92.5552 150.367 93.2352 150.1C93.9152 149.82 94.8018 149.68 95.8952 149.68H98.7552V151.5H96.2352C95.5018 151.5 94.9952 151.62 94.7152 151.86C94.4485 152.1 94.3152 152.4 94.3152 152.76C94.3152 153.16 94.4685 153.48 94.7752 153.72C95.0952 153.947 95.5285 154.06 96.0752 154.06C96.5952 154.06 97.0618 153.94 97.4752 153.7C97.8885 153.447 98.1885 153.08 98.3752 152.6L98.8552 154.04C98.6285 154.733 98.2152 155.26 97.6152 155.62C97.0152 155.98 96.2418 156.16 95.2952 156.16ZM110.859 145.08C111.712 145.08 112.472 145.253 113.139 145.6C113.819 145.933 114.352 146.453 114.739 147.16C115.126 147.853 115.319 148.747 115.319 149.84V156H112.199V150.32C112.199 149.453 112.006 148.813 111.619 148.4C111.246 147.987 110.712 147.78 110.019 147.78C109.526 147.78 109.079 147.887 108.679 148.1C108.292 148.3 107.986 148.613 107.759 149.04C107.546 149.467 107.439 150.013 107.439 150.68V156H104.319V145.24H107.299V148.22L106.739 147.32C107.126 146.6 107.679 146.047 108.399 145.66C109.119 145.273 109.939 145.08 110.859 145.08ZM123.425 156.16C122.265 156.16 121.232 155.927 120.325 155.46C119.418 154.98 118.705 154.32 118.185 153.48C117.678 152.64 117.425 151.687 117.425 150.62C117.425 149.54 117.678 148.587 118.185 147.76C118.705 146.92 119.418 146.267 120.325 145.8C121.232 145.32 122.265 145.08 123.425 145.08C124.558 145.08 125.545 145.32 126.385 145.8C127.225 146.267 127.845 146.94 128.245 147.82L125.825 149.12C125.545 148.613 125.192 148.24 124.765 148C124.352 147.76 123.898 147.64 123.405 147.64C122.872 147.64 122.392 147.76 121.965 148C121.538 148.24 121.198 148.58 120.945 149.02C120.705 149.46 120.585 149.993 120.585 150.62C120.585 151.247 120.705 151.78 120.945 152.22C121.198 152.66 121.538 153 121.965 153.24C122.392 153.48 122.872 153.6 123.405 153.6C123.898 153.6 124.352 153.487 124.765 153.26C125.192 153.02 125.545 152.64 125.825 152.12L128.245 153.44C127.845 154.307 127.225 154.98 126.385 155.46C125.545 155.927 124.558 156.16 123.425 156.16ZM135.245 156.16C134.018 156.16 132.938 155.92 132.005 155.44C131.085 154.96 130.372 154.307 129.865 153.48C129.358 152.64 129.105 151.687 129.105 150.62C129.105 149.54 129.352 148.587 129.845 147.76C130.352 146.92 131.038 146.267 131.905 145.8C132.772 145.32 133.752 145.08 134.845 145.08C135.898 145.08 136.845 145.307 137.685 145.76C138.538 146.2 139.212 146.84 139.705 147.68C140.198 148.507 140.445 149.5 140.445 150.66C140.445 150.78 140.438 150.92 140.425 151.08C140.412 151.227 140.398 151.367 140.385 151.5H131.645V149.68H138.745L137.545 150.22C137.545 149.66 137.432 149.173 137.205 148.76C136.978 148.347 136.665 148.027 136.265 147.8C135.865 147.56 135.398 147.44 134.865 147.44C134.332 147.44 133.858 147.56 133.445 147.8C133.045 148.027 132.732 148.353 132.505 148.78C132.278 149.193 132.165 149.687 132.165 150.26V150.74C132.165 151.327 132.292 151.847 132.545 152.3C132.812 152.74 133.178 153.08 133.645 153.32C134.125 153.547 134.685 153.66 135.325 153.66C135.898 153.66 136.398 153.573 136.825 153.4C137.265 153.227 137.665 152.967 138.025 152.62L139.685 154.42C139.192 154.98 138.572 155.413 137.825 155.72C137.078 156.013 136.218 156.16 135.245 156.16Z" fill="black"/>
<path d="M131.125 53.1212V49.2065H133.675C134.013 49.2065 134.338 49.0691 134.577 48.8244C134.816 48.5797 134.95 48.2477 134.95 47.9017V43.987H136.225C136.563 43.987 136.888 43.8495 137.127 43.6049C137.366 43.3602 137.5 43.0281 137.5 42.6821V36.1577C137.498 35.5542 137.092 35.0305 136.518 34.8918L99.5432 25.7576C99.3514 25.7058 99.1488 25.7058 98.9569 25.7576L61.9819 34.8918C61.4081 35.0305 61.0017 35.5542 61 36.1577V42.6821C61 43.0281 61.1343 43.3602 61.3734 43.6049C61.6125 43.8495 61.9369 43.987 62.275 43.987H63.55V47.9017C63.55 48.2477 63.6843 48.5797 63.9234 48.8244C64.1625 49.0691 64.4869 49.2065 64.825 49.2065H67.375V53.1212C67.375 53.4672 67.5093 53.7993 67.7484 54.0439C67.9875 54.2886 68.3119 54.4261 68.65 54.4261H69.925V90.9629H68.65C67.9459 90.9629 67.375 91.5472 67.375 92.2678V96.1824H62.275C61.5709 96.1824 61 96.7667 61 97.4873V102.707C61 103.053 61.1343 103.385 61.3734 103.63C61.6125 103.874 61.9369 104.012 62.275 104.012H136.225C136.563 104.012 136.888 103.874 137.127 103.63C137.366 103.385 137.5 103.053 137.5 102.707V97.4873C137.5 97.1413 137.366 96.8092 137.127 96.5646C136.888 96.3199 136.563 96.1824 136.225 96.1824H131.125V92.2678C131.125 91.9217 130.991 91.5897 130.752 91.345C130.513 91.1004 130.188 90.9629 129.85 90.9629V89.4233C130.593 89.1524 131.237 88.6537 131.693 87.9955C132.149 87.3366 132.396 86.5508 132.4 85.7433H133.675C134.689 85.7404 135.66 85.3268 136.377 84.5934C137.093 83.86 137.497 82.8662 137.5 81.8287V60.9505C137.497 59.913 137.093 58.9192 136.377 58.1858C135.66 57.4524 134.689 57.0388 133.675 57.0359H129.85V54.4261C130.188 54.4261 130.513 54.2886 130.752 54.0439C130.991 53.7993 131.125 53.4672 131.125 53.1212H131.125ZM63.55 41.3772V37.1888L99.2501 28.3675L134.95 37.1882V41.3772H63.55ZM69.925 93.5726H80.125V96.1824H69.925V93.5726ZM117.1 54.4261V57.0359H95.4251C94.4113 57.0388 93.4403 57.4524 92.7237 58.1858C92.007 58.9192 91.6029 59.913 91.6001 60.9505H90.3251C89.3113 60.9534 88.3403 61.367 87.6237 62.1004C86.907 62.8338 86.5029 63.8276 86.5001 64.8651V85.7433C86.5029 86.7808 86.9071 87.7746 87.6237 88.508C88.3403 89.2414 89.3113 89.655 90.3251 89.6579H117.1V90.9628C116.396 90.9628 115.825 91.5471 115.825 92.2677V96.1824H82.6751V92.2677C82.6751 91.9217 82.5407 91.5896 82.3017 91.345C82.0626 91.1003 81.7382 90.9628 81.4001 90.9628H80.1251V54.426H81.4001C81.7382 54.426 82.0626 54.2886 82.3017 54.0439C82.5407 53.7992 82.6751 53.4672 82.6751 53.1212V49.2065H115.825V53.1212C115.825 53.4672 115.959 53.7992 116.199 54.0439C116.438 54.2886 116.762 54.426 117.1 54.426L117.1 54.4261ZM80.125 51.8163H69.925V49.2065H80.125V51.8163ZM77.575 54.4261V90.9629H72.475V54.4261H77.575ZM134.95 98.7922V101.402H63.55V98.7922H134.95ZM128.575 93.5726V96.1824H118.375V93.5726H128.575ZM119.65 90.9629V89.658H127.3V90.9629H119.65ZM128.575 87.0482H90.3251C89.621 87.0482 89.0501 86.4639 89.0501 85.7433V64.8652C89.0501 64.1446 89.621 63.5603 90.3251 63.5603H91.6001V81.8287C91.6029 82.8662 92.007 83.86 92.7236 84.5934C93.4403 85.3268 94.4113 85.7404 95.425 85.7433H129.85C129.85 86.0893 129.716 86.4214 129.477 86.6661C129.238 86.9107 128.913 87.0482 128.575 87.0482L128.575 87.0482ZM134.95 81.8287C134.95 82.1747 134.816 82.5068 134.577 82.7514C134.338 82.9961 134.013 83.1336 133.675 83.1336H95.4251C94.721 83.1336 94.1501 82.5493 94.1501 81.8287V70.0847H134.95V81.8287ZM134.95 67.4749H94.1501V64.8652H134.95V67.4749ZM133.675 59.6456C134.013 59.6456 134.338 59.7831 134.577 60.0278C134.816 60.2724 134.95 60.6045 134.95 60.9505V62.2554H94.1501V60.9505C94.1501 60.2299 94.721 59.6456 95.4251 59.6456H133.675ZM118.375 51.8163V49.2065H128.575V51.8163H118.375ZM127.3 54.4261V57.0359H119.65V54.4261H127.3ZM66.1 46.5968V43.987H132.4V46.5968H66.1Z" fill="black"/>
<path d="M99.2499 40.0719C100.602 40.0719 101.9 39.522 102.856 38.5433C103.813 37.5641 104.35 36.2364 104.35 34.8524C104.35 33.4683 103.813 32.1406 102.856 31.1614C101.9 30.1827 100.602 29.6328 99.2499 29.6328C97.8975 29.6328 96.6002 30.1827 95.6435 31.1614C94.6872 32.1406 94.1499 33.4683 94.1499 34.8524C94.1499 36.2364 94.6872 37.5641 95.6435 38.5433C96.6003 39.522 97.8975 40.0719 99.2499 40.0719ZM99.2499 32.2426C99.9261 32.2426 100.575 32.5175 101.053 33.0069C101.531 33.4962 101.8 34.1603 101.8 34.8524C101.8 35.5444 101.531 36.2085 101.053 36.6978C100.575 37.1872 99.9261 37.4621 99.2499 37.4621C98.5737 37.4621 97.9248 37.1872 97.4467 36.6978C96.9686 36.2085 96.6999 35.5444 96.6999 34.8524C96.6999 34.1603 96.9686 33.4962 97.4467 33.0069C97.9248 32.5175 98.5737 32.2426 99.2499 32.2426Z" fill="white"/>
<path d="M128.575 72.6954C127.903 72.6966 127.243 72.8801 126.663 73.2278C125.884 72.7636 124.971 72.5952 124.083 72.7531C123.195 72.9109 122.391 73.384 121.811 74.09C121.23 74.7955 120.912 75.6879 120.912 76.61C120.912 77.5321 121.23 78.4246 121.811 79.13C122.391 79.836 123.195 80.309 124.083 80.4669C124.971 80.6248 125.884 80.4564 126.663 79.9921C127.693 80.6061 128.943 80.6941 130.045 80.2298C131.147 79.7655 131.975 78.802 132.283 77.6241C132.592 76.4462 132.346 75.1879 131.62 74.2221C130.893 73.2557 129.767 72.6912 128.575 72.6953L128.575 72.6954ZM128.575 77.9149C128.208 77.912 127.861 77.7466 127.622 77.4606C127.38 77.1798 127.031 77.019 126.665 77.019C126.3 77.019 125.951 77.1798 125.709 77.4606C125.362 77.8759 124.799 78.0262 124.299 77.8369C123.798 77.6476 123.465 77.1588 123.465 76.6124C123.465 76.0665 123.798 75.5778 124.299 75.3885C124.799 75.1992 125.362 75.3495 125.709 75.7642C125.957 76.0345 126.303 76.1871 126.665 76.1871C127.028 76.1871 127.373 76.0345 127.622 75.7642C127.904 75.4246 128.338 75.2557 128.77 75.318C129.202 75.3803 129.573 75.664 129.754 76.0706C129.934 76.4778 129.899 76.9503 129.66 77.3242C129.421 77.6982 129.012 77.9208 128.575 77.9149V77.9149Z" fill="white"/>
<path d="M96.7 72.6953H101.8V75.3051H96.7V72.6953Z" fill="white"/>
<path d="M96.7 77.9141H105.625V80.5238H96.7V77.9141Z" fill="white"/>
</g>
<defs>
<filter id="filter0_d_754_2920" x="0" y="0" width="220" height="202" filterUnits="userSpaceOnUse" color-interpolation-filters="sRGB">
<feFlood flood-opacity="0" result="BackgroundImageFix"/>
<feColorMatrix in="SourceAlpha" type="matrix" values="0 0 0 0 0 0 0 0 0 0 0 0 0 0 0 0 0 0 127 0" result="hardAlpha"/>
<feOffset dx="16" dy="18"/>
<feGaussianBlur stdDeviation="2"/>
<feComposite in2="hardAlpha" operator="out"/>
<feColorMatrix type="matrix" values="0 0 0 0 0 0 0 0 0 0 0 0 0 0 0 0 0 0 0.25 0"/>
<feBlend mode="normal" in2="BackgroundImageFix" result="effect1_dropShadow_754_2920"/>
<feBlend mode="normal" in="SourceGraphic" in2="effect1_dropShadow_754_2920" result="shape"/>
</filter>
</defs>
</svg>
