<svg width="200" height="180" viewBox="0 0 200 180" fill="none" xmlns="http://www.w3.org/2000/svg">
<path d="M0 0H170C186.569 0 200 13.4315 200 30V180H30C13.4315 180 0 166.569 0 150V0Z" fill="#142357"/>
<path d="M46.66 132V118H53.5C55.26 118 56.58 118.333 57.46 119C58.3533 119.667 58.8 120.547 58.8 121.64C58.8 122.373 58.62 123.013 58.26 123.56C57.9 124.093 57.4067 124.507 56.78 124.8C56.1533 125.093 55.4333 125.24 54.62 125.24L55 124.42C55.88 124.42 56.66 124.567 57.34 124.86C58.02 125.14 58.5467 125.56 58.92 126.12C59.3067 126.68 59.5 127.367 59.5 128.18C59.5 129.38 59.0267 130.32 58.08 131C57.1333 131.667 55.74 132 53.9 132H46.66ZM49.88 129.56H53.66C54.5 129.56 55.1333 129.427 55.56 129.16C56 128.88 56.22 128.44 56.22 127.84C56.22 127.253 56 126.82 55.56 126.54C55.1333 126.247 54.5 126.1 53.66 126.1H49.64V123.74H53.1C53.8867 123.74 54.4867 123.607 54.9 123.34C55.3267 123.06 55.54 122.64 55.54 122.08C55.54 121.533 55.3267 121.127 54.9 120.86C54.4867 120.58 53.8867 120.44 53.1 120.44H49.88V129.56ZM68.333 132V129.9L68.133 129.44V125.68C68.133 125.013 67.9263 124.493 67.513 124.12C67.113 123.747 66.493 123.56 65.653 123.56C65.0796 123.56 64.513 123.653 63.953 123.84C63.4063 124.013 62.9396 124.253 62.553 124.56L61.433 122.38C62.0196 121.967 62.7263 121.647 63.553 121.42C64.3796 121.193 65.2196 121.08 66.073 121.08C67.713 121.08 68.9863 121.467 69.893 122.24C70.7996 123.013 71.253 124.22 71.253 125.86V132H68.333ZM65.053 132.16C64.213 132.16 63.493 132.02 62.893 131.74C62.293 131.447 61.833 131.053 61.513 130.56C61.193 130.067 61.033 129.513 61.033 128.9C61.033 128.26 61.1863 127.7 61.493 127.22C61.813 126.74 62.313 126.367 62.993 126.1C63.673 125.82 64.5596 125.68 65.653 125.68H68.513V127.5H65.993C65.2596 127.5 64.753 127.62 64.473 127.86C64.2063 128.1 64.073 128.4 64.073 128.76C64.073 129.16 64.2263 129.48 64.533 129.72C64.853 129.947 65.2863 130.06 65.833 130.06C66.353 130.06 66.8196 129.94 67.233 129.7C67.6463 129.447 67.9463 129.08 68.133 128.6L68.613 130.04C68.3863 130.733 67.973 131.26 67.373 131.62C66.773 131.98 65.9996 132.16 65.053 132.16ZM80.6167 121.08C81.4701 121.08 82.2301 121.253 82.8967 121.6C83.5767 121.933 84.1101 122.453 84.4967 123.16C84.8834 123.853 85.0767 124.747 85.0767 125.84V132H81.9567V126.32C81.9567 125.453 81.7634 124.813 81.3767 124.4C81.0034 123.987 80.4701 123.78 79.7767 123.78C79.2834 123.78 78.8367 123.887 78.4367 124.1C78.0501 124.3 77.7434 124.613 77.5167 125.04C77.3034 125.467 77.1967 126.013 77.1967 126.68V132H74.0767V121.24H77.0567V124.22L76.4967 123.32C76.8834 122.6 77.4367 122.047 78.1567 121.66C78.8767 121.273 79.6967 121.08 80.6167 121.08ZM90.4848 129.8L90.5648 126L95.5848 121.24H99.3048L94.4848 126.14L92.8648 127.46L90.4848 129.8ZM87.9048 132V117.16H91.0248V132H87.9048ZM95.9248 132L92.2848 127.48L94.2448 125.06L99.7048 132H95.9248ZM101.108 132V121.24H104.228V132H101.108ZM102.668 119.74C102.095 119.74 101.628 119.573 101.268 119.24C100.908 118.907 100.728 118.493 100.728 118C100.728 117.507 100.908 117.093 101.268 116.76C101.628 116.427 102.095 116.26 102.668 116.26C103.241 116.26 103.708 116.42 104.068 116.74C104.428 117.047 104.608 117.447 104.608 117.94C104.608 118.46 104.428 118.893 104.068 119.24C103.721 119.573 103.255 119.74 102.668 119.74ZM113.664 121.08C114.517 121.08 115.277 121.253 115.944 121.6C116.624 121.933 117.157 122.453 117.544 123.16C117.93 123.853 118.124 124.747 118.124 125.84V132H115.004V126.32C115.004 125.453 114.81 124.813 114.424 124.4C114.05 123.987 113.517 123.78 112.824 123.78C112.33 123.78 111.884 123.887 111.484 124.1C111.097 124.3 110.79 124.613 110.564 125.04C110.35 125.467 110.244 126.013 110.244 126.68V132H107.124V121.24H110.104V124.22L109.544 123.32C109.93 122.6 110.484 122.047 111.204 121.66C111.924 121.273 112.744 121.08 113.664 121.08ZM126.09 136.04C125.077 136.04 124.097 135.913 123.15 135.66C122.217 135.42 121.437 135.053 120.81 134.56L122.05 132.32C122.503 132.693 123.077 132.987 123.77 133.2C124.477 133.427 125.17 133.54 125.85 133.54C126.957 133.54 127.757 133.293 128.25 132.8C128.757 132.307 129.01 131.573 129.01 130.6V128.98L129.21 126.28L129.17 123.56V121.24H132.13V130.2C132.13 132.2 131.61 133.673 130.57 134.62C129.53 135.567 128.037 136.04 126.09 136.04ZM125.61 131.48C124.61 131.48 123.703 131.267 122.89 130.84C122.09 130.4 121.443 129.793 120.95 129.02C120.47 128.233 120.23 127.32 120.23 126.28C120.23 125.227 120.47 124.313 120.95 123.54C121.443 122.753 122.09 122.147 122.89 121.72C123.703 121.293 124.61 121.08 125.61 121.08C126.517 121.08 127.317 121.267 128.01 121.64C128.703 122 129.243 122.567 129.63 123.34C130.017 124.1 130.21 125.08 130.21 126.28C130.21 127.467 130.017 128.447 129.63 129.22C129.243 129.98 128.703 130.547 128.01 130.92C127.317 131.293 126.517 131.48 125.61 131.48ZM126.23 128.92C126.777 128.92 127.263 128.813 127.69 128.6C128.117 128.373 128.45 128.06 128.69 127.66C128.93 127.26 129.05 126.8 129.05 126.28C129.05 125.747 128.93 125.287 128.69 124.9C128.45 124.5 128.117 124.193 127.69 123.98C127.263 123.753 126.777 123.64 126.23 123.64C125.683 123.64 125.197 123.753 124.77 123.98C124.343 124.193 124.003 124.5 123.75 124.9C123.51 125.287 123.39 125.747 123.39 126.28C123.39 126.8 123.51 127.26 123.75 127.66C124.003 128.06 124.343 128.373 124.77 128.6C125.197 128.813 125.683 128.92 126.23 128.92ZM145.318 132.24C144.291 132.24 143.378 132.073 142.578 131.74C141.778 131.407 141.144 130.953 140.678 130.38C140.211 129.807 139.978 129.147 139.978 128.4C139.978 127.707 140.131 127.087 140.438 126.54C140.744 125.98 141.231 125.46 141.898 124.98C142.564 124.487 143.411 124.007 144.438 123.54C145.184 123.193 145.771 122.887 146.198 122.62C146.624 122.353 146.924 122.1 147.098 121.86C147.271 121.607 147.358 121.353 147.358 121.1C147.358 120.753 147.238 120.473 146.998 120.26C146.771 120.047 146.431 119.94 145.978 119.94C145.498 119.94 145.124 120.06 144.858 120.3C144.591 120.54 144.458 120.847 144.458 121.22C144.458 121.42 144.498 121.62 144.578 121.82C144.658 122.007 144.811 122.227 145.038 122.48C145.264 122.72 145.584 123.033 145.998 123.42L153.378 130.26L151.678 132.24L143.538 124.68C143.071 124.253 142.698 123.853 142.418 123.48C142.138 123.107 141.931 122.74 141.798 122.38C141.678 122.02 141.618 121.647 141.618 121.26C141.618 120.58 141.798 119.98 142.158 119.46C142.518 118.94 143.024 118.54 143.678 118.26C144.331 117.967 145.098 117.82 145.978 117.82C146.791 117.82 147.491 117.953 148.078 118.22C148.678 118.473 149.144 118.84 149.478 119.32C149.824 119.8 149.998 120.373 149.998 121.04C149.998 121.627 149.851 122.167 149.558 122.66C149.264 123.14 148.804 123.593 148.178 124.02C147.564 124.447 146.758 124.88 145.758 125.32C145.078 125.627 144.538 125.927 144.138 126.22C143.751 126.5 143.471 126.787 143.298 127.08C143.124 127.373 143.038 127.7 143.038 128.06C143.038 128.393 143.138 128.693 143.338 128.96C143.551 129.227 143.844 129.433 144.218 129.58C144.591 129.727 145.031 129.8 145.538 129.8C146.351 129.8 147.098 129.613 147.778 129.24C148.458 128.853 149.031 128.287 149.498 127.54C149.978 126.78 150.318 125.86 150.518 124.78L153.018 125.56C152.738 126.92 152.238 128.1 151.518 129.1C150.798 130.1 149.911 130.873 148.858 131.42C147.804 131.967 146.624 132.24 145.318 132.24ZM49.66 148.3H56.38V150.9H49.66V148.3ZM49.9 156H46.66V142H57.24V144.6H49.9V156ZM59.2134 156V145.24H62.3334V156H59.2134ZM60.7734 143.74C60.2001 143.74 59.7334 143.573 59.3734 143.24C59.0134 142.907 58.8334 142.493 58.8334 142C58.8334 141.507 59.0134 141.093 59.3734 140.76C59.7334 140.427 60.2001 140.26 60.7734 140.26C61.3468 140.26 61.8134 140.42 62.1734 140.74C62.5334 141.047 62.7134 141.447 62.7134 141.94C62.7134 142.46 62.5334 142.893 62.1734 143.24C61.8268 143.573 61.3601 143.74 60.7734 143.74ZM71.7691 145.08C72.6224 145.08 73.3824 145.253 74.0491 145.6C74.7291 145.933 75.2624 146.453 75.6491 147.16C76.0357 147.853 76.2291 148.747 76.2291 149.84V156H73.1091V150.32C73.1091 149.453 72.9157 148.813 72.5291 148.4C72.1557 147.987 71.6224 147.78 70.9291 147.78C70.4357 147.78 69.9891 147.887 69.5891 148.1C69.2024 148.3 68.8957 148.613 68.6691 149.04C68.4557 149.467 68.3491 150.013 68.3491 150.68V156H65.2291V145.24H68.2091V148.22L67.6491 147.32C68.0357 146.6 68.5891 146.047 69.3091 145.66C70.0291 145.273 70.8491 145.08 71.7691 145.08ZM85.6572 156V153.9L85.4572 153.44V149.68C85.4572 149.013 85.2505 148.493 84.8372 148.12C84.4372 147.747 83.8172 147.56 82.9772 147.56C82.4039 147.56 81.8372 147.653 81.2772 147.84C80.7305 148.013 80.2639 148.253 79.8772 148.56L78.7572 146.38C79.3439 145.967 80.0505 145.647 80.8772 145.42C81.7039 145.193 82.5439 145.08 83.3972 145.08C85.0372 145.08 86.3105 145.467 87.2172 146.24C88.1239 147.013 88.5772 148.22 88.5772 149.86V156H85.6572ZM82.3772 156.16C81.5372 156.16 80.8172 156.02 80.2172 155.74C79.6172 155.447 79.1572 155.053 78.8372 154.56C78.5172 154.067 78.3572 153.513 78.3572 152.9C78.3572 152.26 78.5105 151.7 78.8172 151.22C79.1372 150.74 79.6372 150.367 80.3172 150.1C80.9972 149.82 81.8839 149.68 82.9772 149.68H85.8372V151.5H83.3172C82.5839 151.5 82.0772 151.62 81.7972 151.86C81.5305 152.1 81.3972 152.4 81.3972 152.76C81.3972 153.16 81.5505 153.48 81.8572 153.72C82.1772 153.947 82.6105 154.06 83.1572 154.06C83.6772 154.06 84.1439 153.94 84.5572 153.7C84.9705 153.447 85.2705 153.08 85.4572 152.6L85.9372 154.04C85.7105 154.733 85.2972 155.26 84.6972 155.62C84.0972 155.98 83.3239 156.16 82.3772 156.16ZM97.9409 145.08C98.7943 145.08 99.5543 145.253 100.221 145.6C100.901 145.933 101.434 146.453 101.821 147.16C102.208 147.853 102.401 148.747 102.401 149.84V156H99.2809V150.32C99.2809 149.453 99.0876 148.813 98.7009 148.4C98.3276 147.987 97.7943 147.78 97.1009 147.78C96.6076 147.78 96.1609 147.887 95.7609 148.1C95.3743 148.3 95.0676 148.613 94.8409 149.04C94.6276 149.467 94.5209 150.013 94.5209 150.68V156H91.4009V145.24H94.3809V148.22L93.8209 147.32C94.2076 146.6 94.7609 146.047 95.4809 145.66C96.2009 145.273 97.0209 145.08 97.9409 145.08ZM110.507 156.16C109.347 156.16 108.314 155.927 107.407 155.46C106.501 154.98 105.787 154.32 105.267 153.48C104.761 152.64 104.507 151.687 104.507 150.62C104.507 149.54 104.761 148.587 105.267 147.76C105.787 146.92 106.501 146.267 107.407 145.8C108.314 145.32 109.347 145.08 110.507 145.08C111.641 145.08 112.627 145.32 113.467 145.8C114.307 146.267 114.927 146.94 115.327 147.82L112.907 149.12C112.627 148.613 112.274 148.24 111.847 148C111.434 147.76 110.981 147.64 110.487 147.64C109.954 147.64 109.474 147.76 109.047 148C108.621 148.24 108.281 148.58 108.027 149.02C107.787 149.46 107.667 149.993 107.667 150.62C107.667 151.247 107.787 151.78 108.027 152.22C108.281 152.66 108.621 153 109.047 153.24C109.474 153.48 109.954 153.6 110.487 153.6C110.981 153.6 111.434 153.487 111.847 153.26C112.274 153.02 112.627 152.64 112.907 152.12L115.327 153.44C114.927 154.307 114.307 154.98 113.467 155.46C112.627 155.927 111.641 156.16 110.507 156.16ZM122.327 156.16C121.1 156.16 120.02 155.92 119.087 155.44C118.167 154.96 117.454 154.307 116.947 153.48C116.44 152.64 116.187 151.687 116.187 150.62C116.187 149.54 116.434 148.587 116.927 147.76C117.434 146.92 118.12 146.267 118.987 145.8C119.854 145.32 120.834 145.08 121.927 145.08C122.98 145.08 123.927 145.307 124.767 145.76C125.62 146.2 126.294 146.84 126.787 147.68C127.28 148.507 127.527 149.5 127.527 150.66C127.527 150.78 127.52 150.92 127.507 151.08C127.494 151.227 127.48 151.367 127.467 151.5H118.727V149.68H125.827L124.627 150.22C124.627 149.66 124.514 149.173 124.287 148.76C124.06 148.347 123.747 148.027 123.347 147.8C122.947 147.56 122.48 147.44 121.947 147.44C121.414 147.44 120.94 147.56 120.527 147.8C120.127 148.027 119.814 148.353 119.587 148.78C119.36 149.193 119.247 149.687 119.247 150.26V150.74C119.247 151.327 119.374 151.847 119.627 152.3C119.894 152.74 120.26 153.08 120.727 153.32C121.207 153.547 121.767 153.66 122.407 153.66C122.98 153.66 123.48 153.573 123.907 153.4C124.347 153.227 124.747 152.967 125.107 152.62L126.767 154.42C126.274 154.98 125.654 155.413 124.907 155.72C124.16 156.013 123.3 156.16 122.327 156.16Z" fill="white"/>
<path d="M131.125 46.7749V42.9499H133.675C134.013 42.9499 134.338 42.8156 134.577 42.5765C134.816 42.3374 134.95 42.013 134.95 41.6749V37.8499H136.225C136.563 37.8499 136.888 37.7156 137.127 37.4765C137.366 37.2374 137.5 36.913 137.5 36.5749V30.1999C137.498 29.6102 137.092 29.0985 136.518 28.963L99.5432 20.038C99.3514 19.9873 99.1488 19.9873 98.9569 20.038L61.9819 28.963C61.4081 29.0985 61.0017 29.6102 61 30.1999V36.5749C61 36.913 61.1343 37.2374 61.3734 37.4765C61.6125 37.7156 61.9369 37.8499 62.275 37.8499H63.55V41.6749C63.55 42.013 63.6843 42.3374 63.9234 42.5765C64.1625 42.8156 64.4869 42.9499 64.825 42.9499H67.375V46.7749C67.375 47.113 67.5093 47.4375 67.7484 47.6765C67.9875 47.9156 68.3119 48.0499 68.65 48.0499H69.925V83.75H68.65C67.9459 83.75 67.375 84.3209 67.375 85.025V88.85H62.275C61.5709 88.85 61 89.4209 61 90.125V95.225C61 95.5631 61.1343 95.8875 61.3734 96.1266C61.6125 96.3657 61.9369 96.5 62.275 96.5H136.225C136.563 96.5 136.888 96.3657 137.127 96.1266C137.366 95.8875 137.5 95.5631 137.5 95.225V90.125C137.5 89.7869 137.366 89.4624 137.127 89.2234C136.888 88.9843 136.563 88.85 136.225 88.85H131.125V85.025C131.125 84.6869 130.991 84.3624 130.752 84.1234C130.513 83.8843 130.188 83.75 129.85 83.75V82.2456C130.593 81.9809 131.237 81.4937 131.693 80.8505C132.149 80.2068 132.396 79.4389 132.4 78.6499H133.675C134.689 78.6471 135.66 78.243 136.377 77.5264C137.093 76.8097 137.497 75.8387 137.5 74.8249V54.4249C137.497 53.4112 137.093 52.4401 136.377 51.7235C135.66 51.0069 134.689 50.6028 133.675 50.5999H129.85V48.0499C130.188 48.0499 130.513 47.9156 130.752 47.6765C130.991 47.4375 131.125 47.113 131.125 46.7749H131.125ZM63.55 35.2999V31.2073L99.2501 22.588L134.95 31.2068V35.2999H63.55ZM69.925 86.3H80.125V88.85H69.925V86.3ZM117.1 48.0499V50.5999H95.4251C94.4113 50.6028 93.4403 51.0069 92.7237 51.7235C92.007 52.4401 91.6029 53.4112 91.6001 54.4249H90.3251C89.3113 54.4278 88.3403 54.8319 87.6237 55.5485C86.907 56.2651 86.5029 57.2362 86.5001 58.2499V78.6499C86.5029 79.6637 86.9071 80.6347 87.6237 81.3513C88.3403 82.068 89.3113 82.4721 90.3251 82.4749H117.1V83.7499C116.396 83.7499 115.825 84.3208 115.825 85.0249V88.8499H82.6751V85.0249C82.6751 84.6868 82.5407 84.3624 82.3017 84.1233C82.0626 83.8843 81.7382 83.7499 81.4001 83.7499H80.125V48.0499H81.4001C81.7382 48.0499 82.0626 47.9155 82.3017 47.6765C82.5407 47.4374 82.6751 47.113 82.6751 46.7749V42.9499H115.825V46.7749C115.825 47.113 115.959 47.4374 116.199 47.6765C116.438 47.9155 116.762 48.0499 117.1 48.0499L117.1 48.0499ZM80.125 45.4999H69.925V42.9499H80.125V45.4999ZM77.575 48.0499V83.75H72.475V48.0499H77.575ZM134.95 91.4V93.95H63.55V91.4H134.95ZM128.575 86.3V88.85H118.375V86.3H128.575ZM119.65 83.75V82.475H127.3V83.75H119.65ZM128.575 79.925H90.3251C89.621 79.925 89.0501 79.3541 89.0501 78.65V58.2499C89.0501 57.5458 89.621 56.9749 90.3251 56.9749H91.6001V74.825C91.6029 75.8387 92.007 76.8097 92.7236 77.5264C93.4403 78.243 94.4113 78.6471 95.425 78.65H129.85C129.85 78.9881 129.716 79.3125 129.477 79.5516C129.238 79.7906 128.913 79.925 128.575 79.925L128.575 79.925ZM134.95 74.825C134.95 75.1631 134.816 75.4875 134.577 75.7266C134.338 75.9656 134.013 76.1 133.675 76.1H95.4251C94.721 76.1 94.1501 75.5291 94.1501 74.825V63.3499H134.95V74.825ZM134.95 60.7999H94.1501V58.2499H134.95V60.7999ZM133.675 53.1499C134.013 53.1499 134.338 53.2843 134.577 53.5233C134.816 53.7624 134.95 54.0868 134.95 54.4249V55.6999H94.1501V54.4249C94.1501 53.7208 94.721 53.1499 95.4251 53.1499H133.675ZM118.375 45.4999V42.9499H128.575V45.4999H118.375ZM127.3 48.0499V50.5999H119.65V48.0499H127.3ZM66.1 40.3999V37.8499H132.4V40.3999H66.1Z" fill="white" stroke="#404CDC"/>
<path d="M99.2499 34.0242C100.602 34.0242 101.9 33.4869 102.856 32.5307C103.813 31.5738 104.35 30.2766 104.35 28.9242C104.35 27.5719 103.813 26.2746 102.856 25.3178C101.9 24.3615 100.602 23.8242 99.2499 23.8242C97.8975 23.8242 96.6002 24.3615 95.6435 25.3178C94.6872 26.2746 94.1499 27.5719 94.1499 28.9242C94.1499 30.2766 94.6872 31.5739 95.6435 32.5307C96.6003 33.4869 97.8975 34.0242 99.2499 34.0242ZM99.2499 26.3742C99.9261 26.3742 100.575 26.6429 101.053 27.121C101.531 27.5991 101.8 28.248 101.8 28.9242C101.8 29.6004 101.531 30.2493 101.053 30.7274C100.575 31.2056 99.9261 31.4742 99.2499 31.4742C98.5737 31.4742 97.9248 31.2056 97.4467 30.7274C96.9686 30.2493 96.6999 29.6004 96.6999 28.9242C96.6999 28.248 96.9686 27.5991 97.4467 27.121C97.9248 26.6429 98.5737 26.3742 99.2499 26.3742Z" fill="white" stroke="#404CDC"/>
<path d="M128.575 65.9005C127.903 65.9016 127.243 66.0809 126.663 66.4207C125.884 65.9671 124.971 65.8026 124.083 65.9568C123.195 66.1111 122.39 66.5733 121.81 67.2631C121.23 67.9524 120.912 68.8245 120.912 69.7254C120.912 70.6264 121.23 71.4985 121.81 72.1877C122.39 72.8776 123.195 73.3398 124.083 73.494C124.971 73.6483 125.884 73.4838 126.663 73.0301C127.692 73.63 128.943 73.716 130.045 73.2623C131.147 72.8087 131.974 71.8672 132.283 70.7163C132.591 69.5654 132.346 68.3359 131.619 67.3922C130.892 66.4479 129.767 65.8963 128.575 65.9004L128.575 65.9005ZM128.575 71.0005C128.208 70.9976 127.86 70.836 127.621 70.5565C127.379 70.2822 127.031 70.1251 126.665 70.1251C126.3 70.1251 125.951 70.2822 125.709 70.5565C125.362 70.9624 124.799 71.1092 124.298 70.9242C123.797 70.7392 123.465 70.2617 123.465 69.7278C123.465 69.1944 123.797 68.7169 124.298 68.5319C124.799 68.3469 125.362 68.4937 125.709 68.899C125.957 69.1631 126.303 69.3122 126.665 69.3122C127.028 69.3122 127.373 69.1631 127.621 68.899C127.904 68.5672 128.338 68.4021 128.77 68.463C129.202 68.5239 129.573 68.8011 129.753 69.1984C129.934 69.5963 129.899 70.0579 129.66 70.4233C129.421 70.7887 129.012 71.0062 128.575 71.0005V71.0005Z" fill="white" stroke="#404CDC"/>
<path d="M96.7002 65.9004H101.8V68.4504H96.7002V65.9004Z" fill="white" stroke="#404CDC"/>
<path d="M96.7002 71H105.625V73.55H96.7002V71Z" fill="white" stroke="#404CDC"/>
</svg>
