<svg width="200" height="180" viewBox="0 0 200 180" fill="none" xmlns="http://www.w3.org/2000/svg">
<path d="M0 0H170C186.569 0 200 13.4315 200 30V180H30C13.4315 180 0 166.569 0 150V0Z" fill="#147F00"/>
<path d="M27.64 119.64H34.38V122.16H27.64V119.64ZM27.88 125.4H35.5V128H24.66V114H35.24V116.6H27.88V125.4ZM37.0673 123.62V121.12H42.7273V123.62H37.0673ZM50.5775 128.16C49.4175 128.16 48.3842 127.927 47.4775 127.46C46.5708 126.98 45.8575 126.32 45.3375 125.48C44.8308 124.64 44.5775 123.687 44.5775 122.62C44.5775 121.54 44.8308 120.587 45.3375 119.76C45.8575 118.92 46.5708 118.267 47.4775 117.8C48.3842 117.32 49.4175 117.08 50.5775 117.08C51.7108 117.08 52.6975 117.32 53.5375 117.8C54.3775 118.267 54.9975 118.94 55.3975 119.82L52.9775 121.12C52.6975 120.613 52.3442 120.24 51.9175 120C51.5042 119.76 51.0508 119.64 50.5575 119.64C50.0242 119.64 49.5442 119.76 49.1175 120C48.6908 120.24 48.3508 120.58 48.0975 121.02C47.8575 121.46 47.7375 121.993 47.7375 122.62C47.7375 123.247 47.8575 123.78 48.0975 124.22C48.3508 124.66 48.6908 125 49.1175 125.24C49.5442 125.48 50.0242 125.6 50.5575 125.6C51.0508 125.6 51.5042 125.487 51.9175 125.26C52.3442 125.02 52.6975 124.64 52.9775 124.12L55.3975 125.44C54.9975 126.307 54.3775 126.98 53.5375 127.46C52.6975 127.927 51.7108 128.16 50.5775 128.16ZM62.1772 128.16C61.0305 128.16 60.0105 127.92 59.1172 127.44C58.2372 126.96 57.5372 126.307 57.0172 125.48C56.5105 124.64 56.2572 123.687 56.2572 122.62C56.2572 121.54 56.5105 120.587 57.0172 119.76C57.5372 118.92 58.2372 118.267 59.1172 117.8C60.0105 117.32 61.0305 117.08 62.1772 117.08C63.3105 117.08 64.3239 117.32 65.2172 117.8C66.1105 118.267 66.8105 118.913 67.3172 119.74C67.8239 120.567 68.0772 121.527 68.0772 122.62C68.0772 123.687 67.8239 124.64 67.3172 125.48C66.8105 126.307 66.1105 126.96 65.2172 127.44C64.3239 127.92 63.3105 128.16 62.1772 128.16ZM62.1772 125.6C62.6972 125.6 63.1639 125.48 63.5772 125.24C63.9905 125 64.3172 124.66 64.5572 124.22C64.7972 123.767 64.9172 123.233 64.9172 122.62C64.9172 121.993 64.7972 121.46 64.5572 121.02C64.3172 120.58 63.9905 120.24 63.5772 120C63.1639 119.76 62.6972 119.64 62.1772 119.64C61.6572 119.64 61.1905 119.76 60.7772 120C60.3639 120.24 60.0305 120.58 59.7772 121.02C59.5372 121.46 59.4172 121.993 59.4172 122.62C59.4172 123.233 59.5372 123.767 59.7772 124.22C60.0305 124.66 60.3639 125 60.7772 125.24C61.1905 125.48 61.6572 125.6 62.1772 125.6ZM83.9427 117.08C84.796 117.08 85.5493 117.253 86.2027 117.6C86.8693 117.933 87.3893 118.453 87.7627 119.16C88.1493 119.853 88.3427 120.747 88.3427 121.84V128H85.2227V122.32C85.2227 121.453 85.0427 120.813 84.6827 120.4C84.3227 119.987 83.816 119.78 83.1627 119.78C82.7093 119.78 82.3027 119.887 81.9427 120.1C81.5827 120.3 81.3027 120.607 81.1027 121.02C80.9027 121.433 80.8027 121.96 80.8027 122.6V128H77.6827V122.32C77.6827 121.453 77.5027 120.813 77.1427 120.4C76.796 119.987 76.296 119.78 75.6427 119.78C75.1893 119.78 74.7827 119.887 74.4227 120.1C74.0627 120.3 73.7827 120.607 73.5827 121.02C73.3827 121.433 73.2827 121.96 73.2827 122.6V128H70.1627V117.24H73.1427V120.18L72.5827 119.32C72.956 118.587 73.4827 118.033 74.1627 117.66C74.856 117.273 75.6427 117.08 76.5227 117.08C77.5093 117.08 78.3693 117.333 79.1027 117.84C79.8493 118.333 80.3427 119.093 80.5827 120.12L79.4827 119.82C79.8427 118.98 80.416 118.313 81.2027 117.82C82.0027 117.327 82.916 117.08 83.9427 117.08ZM104.919 117.08C105.773 117.08 106.526 117.253 107.179 117.6C107.846 117.933 108.366 118.453 108.739 119.16C109.126 119.853 109.319 120.747 109.319 121.84V128H106.199V122.32C106.199 121.453 106.019 120.813 105.659 120.4C105.299 119.987 104.793 119.78 104.139 119.78C103.686 119.78 103.279 119.887 102.919 120.1C102.559 120.3 102.279 120.607 102.079 121.02C101.879 121.433 101.779 121.96 101.779 122.6V128H98.6592V122.32C98.6592 121.453 98.4792 120.813 98.1192 120.4C97.7726 119.987 97.2726 119.78 96.6192 119.78C96.1659 119.78 95.7592 119.887 95.3992 120.1C95.0392 120.3 94.7592 120.607 94.5592 121.02C94.3592 121.433 94.2592 121.96 94.2592 122.6V128H91.1392V117.24H94.1192V120.18L93.5592 119.32C93.9326 118.587 94.4592 118.033 95.1392 117.66C95.8326 117.273 96.6192 117.08 97.4992 117.08C98.4859 117.08 99.3459 117.333 100.079 117.84C100.826 118.333 101.319 119.093 101.559 120.12L100.459 119.82C100.819 118.98 101.393 118.313 102.179 117.82C102.979 117.327 103.893 117.08 104.919 117.08ZM117.534 128.16C116.307 128.16 115.227 127.92 114.294 127.44C113.374 126.96 112.661 126.307 112.154 125.48C111.647 124.64 111.394 123.687 111.394 122.62C111.394 121.54 111.641 120.587 112.134 119.76C112.641 118.92 113.327 118.267 114.194 117.8C115.061 117.32 116.041 117.08 117.134 117.08C118.187 117.08 119.134 117.307 119.974 117.76C120.827 118.2 121.501 118.84 121.994 119.68C122.487 120.507 122.734 121.5 122.734 122.66C122.734 122.78 122.727 122.92 122.714 123.08C122.701 123.227 122.687 123.367 122.674 123.5H113.934V121.68H121.034L119.834 122.22C119.834 121.66 119.721 121.173 119.494 120.76C119.267 120.347 118.954 120.027 118.554 119.8C118.154 119.56 117.687 119.44 117.154 119.44C116.621 119.44 116.147 119.56 115.734 119.8C115.334 120.027 115.021 120.353 114.794 120.78C114.567 121.193 114.454 121.687 114.454 122.26V122.74C114.454 123.327 114.581 123.847 114.834 124.3C115.101 124.74 115.467 125.08 115.934 125.32C116.414 125.547 116.974 125.66 117.614 125.66C118.187 125.66 118.687 125.573 119.114 125.4C119.554 125.227 119.954 124.967 120.314 124.62L121.974 126.42C121.481 126.98 120.861 127.413 120.114 127.72C119.367 128.013 118.507 128.16 117.534 128.16ZM124.811 128V117.24H127.791V120.28L127.371 119.4C127.691 118.64 128.204 118.067 128.911 117.68C129.618 117.28 130.478 117.08 131.491 117.08V119.96C131.358 119.947 131.238 119.94 131.131 119.94C131.024 119.927 130.911 119.92 130.791 119.92C129.938 119.92 129.244 120.167 128.711 120.66C128.191 121.14 127.931 121.893 127.931 122.92V128H124.811ZM138.468 128.16C137.308 128.16 136.275 127.927 135.368 127.46C134.461 126.98 133.748 126.32 133.228 125.48C132.721 124.64 132.468 123.687 132.468 122.62C132.468 121.54 132.721 120.587 133.228 119.76C133.748 118.92 134.461 118.267 135.368 117.8C136.275 117.32 137.308 117.08 138.468 117.08C139.601 117.08 140.588 117.32 141.428 117.8C142.268 118.267 142.888 118.94 143.288 119.82L140.868 121.12C140.588 120.613 140.235 120.24 139.808 120C139.395 119.76 138.941 119.64 138.448 119.64C137.915 119.64 137.435 119.76 137.008 120C136.581 120.24 136.241 120.58 135.988 121.02C135.748 121.46 135.628 121.993 135.628 122.62C135.628 123.247 135.748 123.78 135.988 124.22C136.241 124.66 136.581 125 137.008 125.24C137.435 125.48 137.915 125.6 138.448 125.6C138.941 125.6 139.395 125.487 139.808 125.26C140.235 125.02 140.588 124.64 140.868 124.12L143.288 125.44C142.888 126.307 142.268 126.98 141.428 127.46C140.588 127.927 139.601 128.16 138.468 128.16ZM150.288 128.16C149.061 128.16 147.981 127.92 147.048 127.44C146.128 126.96 145.414 126.307 144.908 125.48C144.401 124.64 144.148 123.687 144.148 122.62C144.148 121.54 144.394 120.587 144.888 119.76C145.394 118.92 146.081 118.267 146.948 117.8C147.814 117.32 148.794 117.08 149.888 117.08C150.941 117.08 151.888 117.307 152.728 117.76C153.581 118.2 154.254 118.84 154.748 119.68C155.241 120.507 155.488 121.5 155.488 122.66C155.488 122.78 155.481 122.92 155.468 123.08C155.454 123.227 155.441 123.367 155.428 123.5H146.688V121.68H153.788L152.588 122.22C152.588 121.66 152.474 121.173 152.248 120.76C152.021 120.347 151.708 120.027 151.308 119.8C150.908 119.56 150.441 119.44 149.908 119.44C149.374 119.44 148.901 119.56 148.488 119.8C148.088 120.027 147.774 120.353 147.548 120.78C147.321 121.193 147.208 121.687 147.208 122.26V122.74C147.208 123.327 147.334 123.847 147.588 124.3C147.854 124.74 148.221 125.08 148.688 125.32C149.168 125.547 149.728 125.66 150.368 125.66C150.941 125.66 151.441 125.573 151.868 125.4C152.308 125.227 152.708 124.967 153.068 124.62L154.728 126.42C154.234 126.98 153.614 127.413 152.868 127.72C152.121 128.013 151.261 128.16 150.288 128.16ZM167.849 128.24C166.822 128.24 165.909 128.073 165.109 127.74C164.309 127.407 163.676 126.953 163.209 126.38C162.742 125.807 162.509 125.147 162.509 124.4C162.509 123.707 162.662 123.087 162.969 122.54C163.276 121.98 163.762 121.46 164.429 120.98C165.096 120.487 165.942 120.007 166.969 119.54C167.716 119.193 168.302 118.887 168.729 118.62C169.156 118.353 169.456 118.1 169.629 117.86C169.802 117.607 169.889 117.353 169.889 117.1C169.889 116.753 169.769 116.473 169.529 116.26C169.302 116.047 168.962 115.94 168.509 115.94C168.029 115.94 167.656 116.06 167.389 116.3C167.122 116.54 166.989 116.847 166.989 117.22C166.989 117.42 167.029 117.62 167.109 117.82C167.189 118.007 167.342 118.227 167.569 118.48C167.796 118.72 168.116 119.033 168.529 119.42L175.909 126.26L174.209 128.24L166.069 120.68C165.602 120.253 165.229 119.853 164.949 119.48C164.669 119.107 164.462 118.74 164.329 118.38C164.209 118.02 164.149 117.647 164.149 117.26C164.149 116.58 164.329 115.98 164.689 115.46C165.049 114.94 165.556 114.54 166.209 114.26C166.862 113.967 167.629 113.82 168.509 113.82C169.322 113.82 170.022 113.953 170.609 114.22C171.209 114.473 171.676 114.84 172.009 115.32C172.356 115.8 172.529 116.373 172.529 117.04C172.529 117.627 172.382 118.167 172.089 118.66C171.796 119.14 171.336 119.593 170.709 120.02C170.096 120.447 169.289 120.88 168.289 121.32C167.609 121.627 167.069 121.927 166.669 122.22C166.282 122.5 166.002 122.787 165.829 123.08C165.656 123.373 165.569 123.7 165.569 124.06C165.569 124.393 165.669 124.693 165.869 124.96C166.082 125.227 166.376 125.433 166.749 125.58C167.122 125.727 167.562 125.8 168.069 125.8C168.882 125.8 169.629 125.613 170.309 125.24C170.989 124.853 171.562 124.287 172.029 123.54C172.509 122.78 172.849 121.86 173.049 120.78L175.549 121.56C175.269 122.92 174.769 124.1 174.049 125.1C173.329 126.1 172.442 126.873 171.389 127.42C170.336 127.967 169.156 128.24 167.849 128.24ZM24.66 152V138H30.72C31.9733 138 33.0533 138.207 33.96 138.62C34.8667 139.02 35.5667 139.6 36.06 140.36C36.5533 141.12 36.8 142.027 36.8 143.08C36.8 144.12 36.5533 145.02 36.06 145.78C35.5667 146.527 34.8667 147.1 33.96 147.5C33.0533 147.9 31.9733 148.1 30.72 148.1H26.46L27.9 146.68V152H24.66ZM33.56 152L30.06 146.92H33.52L37.06 152H33.56ZM27.9 147.04L26.46 145.52H30.54C31.54 145.52 32.2867 145.307 32.78 144.88C33.2733 144.44 33.52 143.84 33.52 143.08C33.52 142.307 33.2733 141.707 32.78 141.28C32.2867 140.853 31.54 140.64 30.54 140.64H26.46L27.9 139.1V147.04ZM44.487 152.16C43.2604 152.16 42.1804 151.92 41.247 151.44C40.327 150.96 39.6137 150.307 39.107 149.48C38.6004 148.64 38.347 147.687 38.347 146.62C38.347 145.54 38.5937 144.587 39.087 143.76C39.5937 142.92 40.2804 142.267 41.147 141.8C42.0137 141.32 42.9937 141.08 44.087 141.08C45.1404 141.08 46.087 141.307 46.927 141.76C47.7804 142.2 48.4537 142.84 48.947 143.68C49.4404 144.507 49.687 145.5 49.687 146.66C49.687 146.78 49.6804 146.92 49.667 147.08C49.6537 147.227 49.6404 147.367 49.627 147.5H40.887V145.68H47.987L46.787 146.22C46.787 145.66 46.6737 145.173 46.447 144.76C46.2204 144.347 45.907 144.027 45.507 143.8C45.107 143.56 44.6404 143.44 44.107 143.44C43.5737 143.44 43.1004 143.56 42.687 143.8C42.287 144.027 41.9737 144.353 41.747 144.78C41.5204 145.193 41.407 145.687 41.407 146.26V146.74C41.407 147.327 41.5337 147.847 41.787 148.3C42.0537 148.74 42.4204 149.08 42.887 149.32C43.367 149.547 43.927 149.66 44.567 149.66C45.1404 149.66 45.6404 149.573 46.067 149.4C46.507 149.227 46.907 148.967 47.267 148.62L48.927 150.42C48.4337 150.98 47.8137 151.413 47.067 151.72C46.3204 152.013 45.4604 152.16 44.487 152.16ZM56.1642 152.16C54.8976 152.16 53.9109 151.84 53.2042 151.2C52.4976 150.547 52.1442 149.58 52.1442 148.3V138.86H55.2642V148.26C55.2642 148.713 55.3842 149.067 55.6242 149.32C55.8642 149.56 56.1909 149.68 56.6042 149.68C57.0976 149.68 57.5176 149.547 57.8642 149.28L58.7042 151.48C58.3842 151.707 57.9976 151.88 57.5442 152C57.1042 152.107 56.6442 152.16 56.1642 152.16ZM50.4842 143.88V141.48H57.9442V143.88H50.4842ZM67.0556 152V149.9L66.8556 149.44V145.68C66.8556 145.013 66.649 144.493 66.2356 144.12C65.8356 143.747 65.2156 143.56 64.3756 143.56C63.8023 143.56 63.2356 143.653 62.6756 143.84C62.129 144.013 61.6623 144.253 61.2756 144.56L60.1556 142.38C60.7423 141.967 61.449 141.647 62.2756 141.42C63.1023 141.193 63.9423 141.08 64.7956 141.08C66.4356 141.08 67.709 141.467 68.6156 142.24C69.5223 143.013 69.9756 144.22 69.9756 145.86V152H67.0556ZM63.7756 152.16C62.9356 152.16 62.2156 152.02 61.6156 151.74C61.0156 151.447 60.5556 151.053 60.2356 150.56C59.9156 150.067 59.7556 149.513 59.7556 148.9C59.7556 148.26 59.909 147.7 60.2156 147.22C60.5356 146.74 61.0356 146.367 61.7156 146.1C62.3956 145.82 63.2823 145.68 64.3756 145.68H67.2356V147.5H64.7156C63.9823 147.5 63.4756 147.62 63.1956 147.86C62.929 148.1 62.7956 148.4 62.7956 148.76C62.7956 149.16 62.949 149.48 63.2556 149.72C63.5756 149.947 64.009 150.06 64.5556 150.06C65.0756 150.06 65.5423 149.94 65.9556 149.7C66.369 149.447 66.669 149.08 66.8556 148.6L67.3356 150.04C67.109 150.733 66.6956 151.26 66.0956 151.62C65.4956 151.98 64.7223 152.16 63.7756 152.16ZM72.7994 152V141.24H75.9194V152H72.7994ZM74.3594 139.74C73.786 139.74 73.3194 139.573 72.9594 139.24C72.5994 138.907 72.4194 138.493 72.4194 138C72.4194 137.507 72.5994 137.093 72.9594 136.76C73.3194 136.427 73.786 136.26 74.3594 136.26C74.9327 136.26 75.3994 136.42 75.7594 136.74C76.1194 137.047 76.2994 137.447 76.2994 137.94C76.2994 138.46 76.1194 138.893 75.7594 139.24C75.4127 139.573 74.946 139.74 74.3594 139.74ZM78.815 152V137.16H81.935V152H78.815Z" fill="white"/>
<path d="M52 82.6049H81.3024V90.7445H73.1629V94H108.977V90.7445H100.837V82.6049H130.14V24H52V82.6049ZM97.5816 90.7445H84.558V82.6049H97.5816V90.7445ZM55.2558 79.3494V72.8376H126.884V79.3494H55.2558ZM126.884 27.2561V69.5819H55.2558V27.2561H126.884Z" fill="white" stroke="#404CDC"/>
<path d="M76.7751 63.0696H81.3025V66.3251H84.558V63.0696H102.465V66.3251H105.721V63.0696H110.218L115.431 43.962L115.488 40.2794H74.4345L72.8067 33.7676H61.7676V37.0231H70.2637L76.7751 63.0696ZM77.6898 53.3017H86.1859V59.8135H79.3176L77.6898 53.3017ZM97.5823 53.3017V59.8135H89.4428V53.3017H97.5823ZM89.4428 50.0461V43.5343H97.5823V50.0461H89.4428ZM100.838 59.8135V53.3017H109.511L107.735 59.8135H100.838ZM110.399 50.0461H100.838V43.5343H112.175L110.399 50.0461ZM86.1862 43.5343V50.0461H76.8758L75.2481 43.5343H86.1862Z" fill="white" stroke="#404CDC"/>
</svg>
