<svg width="220" height="202" viewBox="0 0 220 202" fill="none" xmlns="http://www.w3.org/2000/svg">
<g filter="url(#filter0_d_754_2910)">
<path d="M0 0H170C186.569 0 200 13.4315 200 30V180H30C13.4315 180 0 166.569 0 150V0Z" fill="white"/>
<path d="M27.9701 119.64H34.7101V122.16H27.9701V119.64ZM28.2101 125.4H35.8301V128H24.9901V114H35.5701V116.6H28.2101V125.4ZM37.3974 123.62V121.12H43.0574V123.62H37.3974ZM50.9076 128.16C49.7476 128.16 48.7142 127.927 47.8076 127.46C46.9009 126.98 46.1876 126.32 45.6676 125.48C45.1609 124.64 44.9076 123.687 44.9076 122.62C44.9076 121.54 45.1609 120.587 45.6676 119.76C46.1876 118.92 46.9009 118.267 47.8076 117.8C48.7142 117.32 49.7476 117.08 50.9076 117.08C52.0409 117.08 53.0276 117.32 53.8676 117.8C54.7076 118.267 55.3276 118.94 55.7276 119.82L53.3076 121.12C53.0276 120.613 52.6742 120.24 52.2476 120C51.8342 119.76 51.3809 119.64 50.8876 119.64C50.3542 119.64 49.8742 119.76 49.4476 120C49.0209 120.24 48.6809 120.58 48.4276 121.02C48.1876 121.46 48.0676 121.993 48.0676 122.62C48.0676 123.247 48.1876 123.78 48.4276 124.22C48.6809 124.66 49.0209 125 49.4476 125.24C49.8742 125.48 50.3542 125.6 50.8876 125.6C51.3809 125.6 51.8342 125.487 52.2476 125.26C52.6742 125.02 53.0276 124.64 53.3076 124.12L55.7276 125.44C55.3276 126.307 54.7076 126.98 53.8676 127.46C53.0276 127.927 52.0409 128.16 50.9076 128.16ZM62.5073 128.16C61.3606 128.16 60.3406 127.92 59.4473 127.44C58.5673 126.96 57.8673 126.307 57.3473 125.48C56.8406 124.64 56.5873 123.687 56.5873 122.62C56.5873 121.54 56.8406 120.587 57.3473 119.76C57.8673 118.92 58.5673 118.267 59.4473 117.8C60.3406 117.32 61.3606 117.08 62.5073 117.08C63.6406 117.08 64.6539 117.32 65.5473 117.8C66.4406 118.267 67.1406 118.913 67.6473 119.74C68.1539 120.567 68.4073 121.527 68.4073 122.62C68.4073 123.687 68.1539 124.64 67.6473 125.48C67.1406 126.307 66.4406 126.96 65.5473 127.44C64.6539 127.92 63.6406 128.16 62.5073 128.16ZM62.5073 125.6C63.0273 125.6 63.4939 125.48 63.9073 125.24C64.3206 125 64.6473 124.66 64.8873 124.22C65.1273 123.767 65.2473 123.233 65.2473 122.62C65.2473 121.993 65.1273 121.46 64.8873 121.02C64.6473 120.58 64.3206 120.24 63.9073 120C63.4939 119.76 63.0273 119.64 62.5073 119.64C61.9873 119.64 61.5206 119.76 61.1073 120C60.6939 120.24 60.3606 120.58 60.1073 121.02C59.8673 121.46 59.7473 121.993 59.7473 122.62C59.7473 123.233 59.8673 123.767 60.1073 124.22C60.3606 124.66 60.6939 125 61.1073 125.24C61.5206 125.48 61.9873 125.6 62.5073 125.6ZM84.2727 117.08C85.1261 117.08 85.8794 117.253 86.5327 117.6C87.1994 117.933 87.7194 118.453 88.0927 119.16C88.4794 119.853 88.6727 120.747 88.6727 121.84V128H85.5527V122.32C85.5527 121.453 85.3727 120.813 85.0127 120.4C84.6527 119.987 84.1461 119.78 83.4927 119.78C83.0394 119.78 82.6327 119.887 82.2727 120.1C81.9127 120.3 81.6327 120.607 81.4327 121.02C81.2327 121.433 81.1327 121.96 81.1327 122.6V128H78.0127V122.32C78.0127 121.453 77.8327 120.813 77.4727 120.4C77.1261 119.987 76.6261 119.78 75.9727 119.78C75.5194 119.78 75.1127 119.887 74.7527 120.1C74.3927 120.3 74.1127 120.607 73.9127 121.02C73.7127 121.433 73.6127 121.96 73.6127 122.6V128H70.4927V117.24H73.4727V120.18L72.9127 119.32C73.2861 118.587 73.8127 118.033 74.4927 117.66C75.1861 117.273 75.9727 117.08 76.8527 117.08C77.8394 117.08 78.6994 117.333 79.4327 117.84C80.1794 118.333 80.6727 119.093 80.9127 120.12L79.8127 119.82C80.1727 118.98 80.7461 118.313 81.5327 117.82C82.3327 117.327 83.2461 117.08 84.2727 117.08ZM105.249 117.08C106.103 117.08 106.856 117.253 107.509 117.6C108.176 117.933 108.696 118.453 109.069 119.16C109.456 119.853 109.649 120.747 109.649 121.84V128H106.529V122.32C106.529 121.453 106.349 120.813 105.989 120.4C105.629 119.987 105.123 119.78 104.469 119.78C104.016 119.78 103.609 119.887 103.249 120.1C102.889 120.3 102.609 120.607 102.409 121.02C102.209 121.433 102.109 121.96 102.109 122.6V128H98.9893V122.32C98.9893 121.453 98.8093 120.813 98.4493 120.4C98.1026 119.987 97.6026 119.78 96.9493 119.78C96.496 119.78 96.0893 119.887 95.7293 120.1C95.3693 120.3 95.0893 120.607 94.8893 121.02C94.6893 121.433 94.5893 121.96 94.5893 122.6V128H91.4693V117.24H94.4493V120.18L93.8893 119.32C94.2626 118.587 94.7893 118.033 95.4693 117.66C96.1626 117.273 96.9493 117.08 97.8293 117.08C98.816 117.08 99.676 117.333 100.409 117.84C101.156 118.333 101.649 119.093 101.889 120.12L100.789 119.82C101.149 118.98 101.723 118.313 102.509 117.82C103.309 117.327 104.223 117.08 105.249 117.08ZM117.864 128.16C116.637 128.16 115.557 127.92 114.624 127.44C113.704 126.96 112.991 126.307 112.484 125.48C111.977 124.64 111.724 123.687 111.724 122.62C111.724 121.54 111.971 120.587 112.464 119.76C112.971 118.92 113.657 118.267 114.524 117.8C115.391 117.32 116.371 117.08 117.464 117.08C118.517 117.08 119.464 117.307 120.304 117.76C121.157 118.2 121.831 118.84 122.324 119.68C122.817 120.507 123.064 121.5 123.064 122.66C123.064 122.78 123.057 122.92 123.044 123.08C123.031 123.227 123.017 123.367 123.004 123.5H114.264V121.68H121.364L120.164 122.22C120.164 121.66 120.051 121.173 119.824 120.76C119.597 120.347 119.284 120.027 118.884 119.8C118.484 119.56 118.017 119.44 117.484 119.44C116.951 119.44 116.477 119.56 116.064 119.8C115.664 120.027 115.351 120.353 115.124 120.78C114.897 121.193 114.784 121.687 114.784 122.26V122.74C114.784 123.327 114.911 123.847 115.164 124.3C115.431 124.74 115.797 125.08 116.264 125.32C116.744 125.547 117.304 125.66 117.944 125.66C118.517 125.66 119.017 125.573 119.444 125.4C119.884 125.227 120.284 124.967 120.644 124.62L122.304 126.42C121.811 126.98 121.191 127.413 120.444 127.72C119.697 128.013 118.837 128.16 117.864 128.16ZM125.141 128V117.24H128.121V120.28L127.701 119.4C128.021 118.64 128.535 118.067 129.241 117.68C129.948 117.28 130.808 117.08 131.821 117.08V119.96C131.688 119.947 131.568 119.94 131.461 119.94C131.355 119.927 131.241 119.92 131.121 119.92C130.268 119.92 129.575 120.167 129.041 120.66C128.521 121.14 128.261 121.893 128.261 122.92V128H125.141ZM138.798 128.16C137.638 128.16 136.605 127.927 135.698 127.46C134.792 126.98 134.078 126.32 133.558 125.48C133.052 124.64 132.798 123.687 132.798 122.62C132.798 121.54 133.052 120.587 133.558 119.76C134.078 118.92 134.792 118.267 135.698 117.8C136.605 117.32 137.638 117.08 138.798 117.08C139.932 117.08 140.918 117.32 141.758 117.8C142.598 118.267 143.218 118.94 143.618 119.82L141.198 121.12C140.918 120.613 140.565 120.24 140.138 120C139.725 119.76 139.272 119.64 138.778 119.64C138.245 119.64 137.765 119.76 137.338 120C136.912 120.24 136.572 120.58 136.318 121.02C136.078 121.46 135.958 121.993 135.958 122.62C135.958 123.247 136.078 123.78 136.318 124.22C136.572 124.66 136.912 125 137.338 125.24C137.765 125.48 138.245 125.6 138.778 125.6C139.272 125.6 139.725 125.487 140.138 125.26C140.565 125.02 140.918 124.64 141.198 124.12L143.618 125.44C143.218 126.307 142.598 126.98 141.758 127.46C140.918 127.927 139.932 128.16 138.798 128.16ZM150.618 128.16C149.391 128.16 148.311 127.92 147.378 127.44C146.458 126.96 145.745 126.307 145.238 125.48C144.731 124.64 144.478 123.687 144.478 122.62C144.478 121.54 144.725 120.587 145.218 119.76C145.725 118.92 146.411 118.267 147.278 117.8C148.145 117.32 149.125 117.08 150.218 117.08C151.271 117.08 152.218 117.307 153.058 117.76C153.911 118.2 154.585 118.84 155.078 119.68C155.571 120.507 155.818 121.5 155.818 122.66C155.818 122.78 155.811 122.92 155.798 123.08C155.785 123.227 155.771 123.367 155.758 123.5H147.018V121.68H154.118L152.918 122.22C152.918 121.66 152.805 121.173 152.578 120.76C152.351 120.347 152.038 120.027 151.638 119.8C151.238 119.56 150.771 119.44 150.238 119.44C149.705 119.44 149.231 119.56 148.818 119.8C148.418 120.027 148.105 120.353 147.878 120.78C147.651 121.193 147.538 121.687 147.538 122.26V122.74C147.538 123.327 147.665 123.847 147.918 124.3C148.185 124.74 148.551 125.08 149.018 125.32C149.498 125.547 150.058 125.66 150.698 125.66C151.271 125.66 151.771 125.573 152.198 125.4C152.638 125.227 153.038 124.967 153.398 124.62L155.058 126.42C154.565 126.98 153.945 127.413 153.198 127.72C152.451 128.013 151.591 128.16 150.618 128.16ZM168.179 128.24C167.152 128.24 166.239 128.073 165.439 127.74C164.639 127.407 164.006 126.953 163.539 126.38C163.072 125.807 162.839 125.147 162.839 124.4C162.839 123.707 162.992 123.087 163.299 122.54C163.606 121.98 164.092 121.46 164.759 120.98C165.426 120.487 166.272 120.007 167.299 119.54C168.046 119.193 168.632 118.887 169.059 118.62C169.486 118.353 169.786 118.1 169.959 117.86C170.132 117.607 170.219 117.353 170.219 117.1C170.219 116.753 170.099 116.473 169.859 116.26C169.632 116.047 169.292 115.94 168.839 115.94C168.359 115.94 167.986 116.06 167.719 116.3C167.452 116.54 167.319 116.847 167.319 117.22C167.319 117.42 167.359 117.62 167.439 117.82C167.519 118.007 167.672 118.227 167.899 118.48C168.126 118.72 168.446 119.033 168.859 119.42L176.239 126.26L174.539 128.24L166.399 120.68C165.932 120.253 165.559 119.853 165.279 119.48C164.999 119.107 164.792 118.74 164.659 118.38C164.539 118.02 164.479 117.647 164.479 117.26C164.479 116.58 164.659 115.98 165.019 115.46C165.379 114.94 165.886 114.54 166.539 114.26C167.192 113.967 167.959 113.82 168.839 113.82C169.652 113.82 170.352 113.953 170.939 114.22C171.539 114.473 172.006 114.84 172.339 115.32C172.686 115.8 172.859 116.373 172.859 117.04C172.859 117.627 172.712 118.167 172.419 118.66C172.126 119.14 171.666 119.593 171.039 120.02C170.426 120.447 169.619 120.88 168.619 121.32C167.939 121.627 167.399 121.927 166.999 122.22C166.612 122.5 166.332 122.787 166.159 123.08C165.986 123.373 165.899 123.7 165.899 124.06C165.899 124.393 165.999 124.693 166.199 124.96C166.412 125.227 166.706 125.433 167.079 125.58C167.452 125.727 167.892 125.8 168.399 125.8C169.212 125.8 169.959 125.613 170.639 125.24C171.319 124.853 171.892 124.287 172.359 123.54C172.839 122.78 173.179 121.86 173.379 120.78L175.879 121.56C175.599 122.92 175.099 124.1 174.379 125.1C173.659 126.1 172.772 126.873 171.719 127.42C170.666 127.967 169.486 128.24 168.179 128.24ZM71.4647 152V138H77.5247C78.778 138 79.858 138.207 80.7647 138.62C81.6714 139.02 82.3714 139.6 82.8647 140.36C83.358 141.12 83.6047 142.027 83.6047 143.08C83.6047 144.12 83.358 145.02 82.8647 145.78C82.3714 146.527 81.6714 147.1 80.7647 147.5C79.858 147.9 78.778 148.1 77.5247 148.1H73.2647L74.7047 146.68V152H71.4647ZM80.3647 152L76.8647 146.92H80.3247L83.8647 152H80.3647ZM74.7047 147.04L73.2647 145.52H77.3447C78.3447 145.52 79.0914 145.307 79.5847 144.88C80.078 144.44 80.3247 143.84 80.3247 143.08C80.3247 142.307 80.078 141.707 79.5847 141.28C79.0914 140.853 78.3447 140.64 77.3447 140.64H73.2647L74.7047 139.1V147.04ZM91.2917 152.16C90.0651 152.16 88.9851 151.92 88.0517 151.44C87.1317 150.96 86.4184 150.307 85.9117 149.48C85.4051 148.64 85.1517 147.687 85.1517 146.62C85.1517 145.54 85.3984 144.587 85.8917 143.76C86.3984 142.92 87.0851 142.267 87.9517 141.8C88.8184 141.32 89.7984 141.08 90.8917 141.08C91.9451 141.08 92.8917 141.307 93.7317 141.76C94.5851 142.2 95.2584 142.84 95.7517 143.68C96.2451 144.507 96.4917 145.5 96.4917 146.66C96.4917 146.78 96.4851 146.92 96.4717 147.08C96.4584 147.227 96.4451 147.367 96.4317 147.5H87.6917V145.68H94.7917L93.5917 146.22C93.5917 145.66 93.4784 145.173 93.2517 144.76C93.0251 144.347 92.7117 144.027 92.3117 143.8C91.9117 143.56 91.4451 143.44 90.9117 143.44C90.3784 143.44 89.9051 143.56 89.4917 143.8C89.0917 144.027 88.7784 144.353 88.5517 144.78C88.3251 145.193 88.2117 145.687 88.2117 146.26V146.74C88.2117 147.327 88.3384 147.847 88.5917 148.3C88.8584 148.74 89.2251 149.08 89.6917 149.32C90.1717 149.547 90.7317 149.66 91.3717 149.66C91.9451 149.66 92.4451 149.573 92.8717 149.4C93.3117 149.227 93.7117 148.967 94.0717 148.62L95.7317 150.42C95.2384 150.98 94.6184 151.413 93.8717 151.72C93.1251 152.013 92.2651 152.16 91.2917 152.16ZM102.969 152.16C101.702 152.16 100.716 151.84 100.009 151.2C99.3022 150.547 98.9489 149.58 98.9489 148.3V138.86H102.069V148.26C102.069 148.713 102.189 149.067 102.429 149.32C102.669 149.56 102.996 149.68 103.409 149.68C103.902 149.68 104.322 149.547 104.669 149.28L105.509 151.48C105.189 151.707 104.802 151.88 104.349 152C103.909 152.107 103.449 152.16 102.969 152.16ZM97.2889 143.88V141.48H104.749V143.88H97.2889ZM113.86 152V149.9L113.66 149.44V145.68C113.66 145.013 113.454 144.493 113.04 144.12C112.64 143.747 112.02 143.56 111.18 143.56C110.607 143.56 110.04 143.653 109.48 143.84C108.934 144.013 108.467 144.253 108.08 144.56L106.96 142.38C107.547 141.967 108.254 141.647 109.08 141.42C109.907 141.193 110.747 141.08 111.6 141.08C113.24 141.08 114.514 141.467 115.42 142.24C116.327 143.013 116.78 144.22 116.78 145.86V152H113.86ZM110.58 152.16C109.74 152.16 109.02 152.02 108.42 151.74C107.82 151.447 107.36 151.053 107.04 150.56C106.72 150.067 106.56 149.513 106.56 148.9C106.56 148.26 106.714 147.7 107.02 147.22C107.34 146.74 107.84 146.367 108.52 146.1C109.2 145.82 110.087 145.68 111.18 145.68H114.04V147.5H111.52C110.787 147.5 110.28 147.62 110 147.86C109.734 148.1 109.6 148.4 109.6 148.76C109.6 149.16 109.754 149.48 110.06 149.72C110.38 149.947 110.814 150.06 111.36 150.06C111.88 150.06 112.347 149.94 112.76 149.7C113.174 149.447 113.474 149.08 113.66 148.6L114.14 150.04C113.914 150.733 113.5 151.26 112.9 151.62C112.3 151.98 111.527 152.16 110.58 152.16ZM119.604 152V141.24H122.724V152H119.604ZM121.164 139.74C120.591 139.74 120.124 139.573 119.764 139.24C119.404 138.907 119.224 138.493 119.224 138C119.224 137.507 119.404 137.093 119.764 136.76C120.124 136.427 120.591 136.26 121.164 136.26C121.737 136.26 122.204 136.42 122.564 136.74C122.924 137.047 123.104 137.447 123.104 137.94C123.104 138.46 122.924 138.893 122.564 139.24C122.217 139.573 121.751 139.74 121.164 139.74ZM125.62 152V137.16H128.74V152H125.62Z" fill="black"/>
<path d="M52 89.7909H81.3024V98.1213H73.1629V101.453H108.977V98.1213H100.837V89.7909H130.14V29.8125H52V89.7909ZM97.5816 98.1213H84.558V89.7909H97.5816V98.1213ZM55.2558 86.4591V79.7947H126.884V86.4591H55.2558ZM126.884 33.1449V76.4627H55.2558V33.1449H126.884Z" fill="black"/>
<path d="M76.7751 69.7974H81.3025V73.1292H84.558V69.7974H102.465V73.1292H105.721V69.7974H110.218L115.431 50.2419L115.488 46.473H74.4345L72.8067 39.8086H61.7676V43.1404H70.2637L76.7751 69.7974ZM77.6898 59.8005H86.1859V66.4649H79.3176L77.6898 59.8005ZM97.5823 59.8005V66.4649H89.4428V59.8005H97.5823ZM89.4428 56.4687V49.8043H97.5823V56.4687H89.4428ZM100.838 66.4649V59.8005H109.511L107.735 66.4649H100.838ZM110.399 56.4687H100.838V49.8043H112.175L110.399 56.4687ZM86.1862 49.8043V56.4687H76.8758L75.2481 49.8043H86.1862Z" fill="black"/>
</g>
<defs>
<filter id="filter0_d_754_2910" x="0" y="0" width="220" height="202" filterUnits="userSpaceOnUse" color-interpolation-filters="sRGB">
<feFlood flood-opacity="0" result="BackgroundImageFix"/>
<feColorMatrix in="SourceAlpha" type="matrix" values="0 0 0 0 0 0 0 0 0 0 0 0 0 0 0 0 0 0 127 0" result="hardAlpha"/>
<feOffset dx="16" dy="18"/>
<feGaussianBlur stdDeviation="2"/>
<feComposite in2="hardAlpha" operator="out"/>
<feColorMatrix type="matrix" values="0 0 0 0 0 0 0 0 0 0 0 0 0 0 0 0 0 0 0.25 0"/>
<feBlend mode="normal" in2="BackgroundImageFix" result="effect1_dropShadow_754_2910"/>
<feBlend mode="normal" in="SourceGraphic" in2="effect1_dropShadow_754_2910" result="shape"/>
</filter>
</defs>
</svg>
