<svg width="200" height="180" viewBox="0 0 200 180" fill="none" xmlns="http://www.w3.org/2000/svg">
<path d="M0 0H170C186.569 0 200 13.4315 200 30V180H30C13.4315 180 0 166.569 0 150V0Z" fill="#AA0021"/>
<path d="M50.64 132.64H57.38V135.16H50.64V132.64ZM50.88 138.4H58.5V141H47.66V127H58.24V129.6H50.88V138.4ZM65.4194 141.16C64.406 141.16 63.4927 140.933 62.6794 140.48C61.866 140.013 61.2194 139.367 60.7394 138.54C60.2727 137.713 60.0394 136.74 60.0394 135.62C60.0394 134.487 60.2727 133.507 60.7394 132.68C61.2194 131.853 61.866 131.213 62.6794 130.76C63.4927 130.307 64.406 130.08 65.4194 130.08C66.326 130.08 67.1194 130.28 67.7994 130.68C68.4794 131.08 69.006 131.687 69.3794 132.5C69.7527 133.313 69.9394 134.353 69.9394 135.62C69.9394 136.873 69.7594 137.913 69.3994 138.74C69.0394 139.553 68.5194 140.16 67.8394 140.56C67.1727 140.96 66.366 141.16 65.4194 141.16ZM65.9594 138.6C66.466 138.6 66.926 138.48 67.3394 138.24C67.7527 138 68.0794 137.66 68.3194 137.22C68.5727 136.767 68.6994 136.233 68.6994 135.62C68.6994 134.993 68.5727 134.46 68.3194 134.02C68.0794 133.58 67.7527 133.24 67.3394 133C66.926 132.76 66.466 132.64 65.9594 132.64C65.4394 132.64 64.9727 132.76 64.5594 133C64.146 133.24 63.8127 133.58 63.5594 134.02C63.3194 134.46 63.1994 134.993 63.1994 135.62C63.1994 136.233 63.3194 136.767 63.5594 137.22C63.8127 137.66 64.146 138 64.5594 138.24C64.9727 138.48 65.4394 138.6 65.9594 138.6ZM68.7794 141V138.8L68.8394 135.6L68.6394 132.42V126.16H71.7594V141H68.7794ZM79.187 141.16C78.2937 141.16 77.4937 140.987 76.787 140.64C76.0937 140.293 75.5537 139.767 75.167 139.06C74.7804 138.34 74.587 137.427 74.587 136.32V130.24H77.707V135.86C77.707 136.753 77.8937 137.413 78.267 137.84C78.6537 138.253 79.1937 138.46 79.887 138.46C80.367 138.46 80.7937 138.36 81.167 138.16C81.5404 137.947 81.8337 137.627 82.047 137.2C82.2604 136.76 82.367 136.213 82.367 135.56V130.24H85.487V141H82.527V138.04L83.067 138.9C82.707 139.647 82.1737 140.213 81.467 140.6C80.7737 140.973 80.0137 141.16 79.187 141.16ZM93.5775 141.16C92.4175 141.16 91.3842 140.927 90.4775 140.46C89.5708 139.98 88.8575 139.32 88.3375 138.48C87.8308 137.64 87.5775 136.687 87.5775 135.62C87.5775 134.54 87.8308 133.587 88.3375 132.76C88.8575 131.92 89.5708 131.267 90.4775 130.8C91.3842 130.32 92.4175 130.08 93.5775 130.08C94.7108 130.08 95.6975 130.32 96.5375 130.8C97.3775 131.267 97.9975 131.94 98.3975 132.82L95.9775 134.12C95.6975 133.613 95.3442 133.24 94.9175 133C94.5042 132.76 94.0508 132.64 93.5575 132.64C93.0242 132.64 92.5442 132.76 92.1175 133C91.6908 133.24 91.3508 133.58 91.0975 134.02C90.8575 134.46 90.7375 134.993 90.7375 135.62C90.7375 136.247 90.8575 136.78 91.0975 137.22C91.3508 137.66 91.6908 138 92.1175 138.24C92.5442 138.48 93.0242 138.6 93.5575 138.6C94.0508 138.6 94.5042 138.487 94.9175 138.26C95.3442 138.02 95.6975 137.64 95.9775 137.12L98.3975 138.44C97.9975 139.307 97.3775 139.98 96.5375 140.46C95.6975 140.927 94.7108 141.16 93.5775 141.16ZM106.794 141V138.9L106.594 138.44V134.68C106.594 134.013 106.387 133.493 105.974 133.12C105.574 132.747 104.954 132.56 104.114 132.56C103.541 132.56 102.974 132.653 102.414 132.84C101.867 133.013 101.401 133.253 101.014 133.56L99.8939 131.38C100.481 130.967 101.187 130.647 102.014 130.42C102.841 130.193 103.681 130.08 104.534 130.08C106.174 130.08 107.447 130.467 108.354 131.24C109.261 132.013 109.714 133.22 109.714 134.86V141H106.794ZM103.514 141.16C102.674 141.16 101.954 141.02 101.354 140.74C100.754 140.447 100.294 140.053 99.9739 139.56C99.6539 139.067 99.4939 138.513 99.4939 137.9C99.4939 137.26 99.6472 136.7 99.9539 136.22C100.274 135.74 100.774 135.367 101.454 135.1C102.134 134.82 103.021 134.68 104.114 134.68H106.974V136.5H104.454C103.721 136.5 103.214 136.62 102.934 136.86C102.667 137.1 102.534 137.4 102.534 137.76C102.534 138.16 102.687 138.48 102.994 138.72C103.314 138.947 103.747 139.06 104.294 139.06C104.814 139.06 105.281 138.94 105.694 138.7C106.107 138.447 106.407 138.08 106.594 137.6L107.074 139.04C106.847 139.733 106.434 140.26 105.834 140.62C105.234 140.98 104.461 141.16 103.514 141.16ZM116.938 141.16C115.671 141.16 114.684 140.84 113.978 140.2C113.271 139.547 112.918 138.58 112.918 137.3V127.86H116.038V137.26C116.038 137.713 116.158 138.067 116.398 138.32C116.638 138.56 116.964 138.68 117.378 138.68C117.871 138.68 118.291 138.547 118.638 138.28L119.478 140.48C119.158 140.707 118.771 140.88 118.318 141C117.878 141.107 117.418 141.16 116.938 141.16ZM111.258 132.88V130.48H118.718V132.88H111.258ZM121.229 141V130.24H124.349V141H121.229ZM122.789 128.74C122.216 128.74 121.749 128.573 121.389 128.24C121.029 127.907 120.849 127.493 120.849 127C120.849 126.507 121.029 126.093 121.389 125.76C121.749 125.427 122.216 125.26 122.789 125.26C123.362 125.26 123.829 125.42 124.189 125.74C124.549 126.047 124.729 126.447 124.729 126.94C124.729 127.46 124.549 127.893 124.189 128.24C123.842 128.573 123.376 128.74 122.789 128.74ZM132.365 141.16C131.218 141.16 130.198 140.92 129.305 140.44C128.425 139.96 127.725 139.307 127.205 138.48C126.698 137.64 126.445 136.687 126.445 135.62C126.445 134.54 126.698 133.587 127.205 132.76C127.725 131.92 128.425 131.267 129.305 130.8C130.198 130.32 131.218 130.08 132.365 130.08C133.498 130.08 134.511 130.32 135.405 130.8C136.298 131.267 136.998 131.913 137.505 132.74C138.011 133.567 138.265 134.527 138.265 135.62C138.265 136.687 138.011 137.64 137.505 138.48C136.998 139.307 136.298 139.96 135.405 140.44C134.511 140.92 133.498 141.16 132.365 141.16ZM132.365 138.6C132.885 138.6 133.351 138.48 133.765 138.24C134.178 138 134.505 137.66 134.745 137.22C134.985 136.767 135.105 136.233 135.105 135.62C135.105 134.993 134.985 134.46 134.745 134.02C134.505 133.58 134.178 133.24 133.765 133C133.351 132.76 132.885 132.64 132.365 132.64C131.845 132.64 131.378 132.76 130.965 133C130.551 133.24 130.218 133.58 129.965 134.02C129.725 134.46 129.605 134.993 129.605 135.62C129.605 136.233 129.725 136.767 129.965 137.22C130.218 137.66 130.551 138 130.965 138.24C131.378 138.48 131.845 138.6 132.365 138.6ZM146.89 130.08C147.743 130.08 148.503 130.253 149.17 130.6C149.85 130.933 150.383 131.453 150.77 132.16C151.157 132.853 151.35 133.747 151.35 134.84V141H148.23V135.32C148.23 134.453 148.037 133.813 147.65 133.4C147.277 132.987 146.743 132.78 146.05 132.78C145.557 132.78 145.11 132.887 144.71 133.1C144.323 133.3 144.017 133.613 143.79 134.04C143.577 134.467 143.47 135.013 143.47 135.68V141H140.35V130.24H143.33V133.22L142.77 132.32C143.157 131.6 143.71 131.047 144.43 130.66C145.15 130.273 145.97 130.08 146.89 130.08Z" fill="white"/>
<path d="M141.022 50.0026L99.9133 34.0897C99.6055 33.9701 99.2651 33.9701 98.9561 34.0897L57.8478 50.0026C57.3369 50.2015 57 50.6923 57 51.2399C57 51.7875 57.3369 52.2782 57.8472 52.4771L60.9782 53.6889V84.5796C58.6972 85.1722 57 87.2318 57 89.6957C57 92.6208 59.3792 95 62.3043 95C65.2294 95 67.6086 92.6208 67.6086 89.6957C67.6086 87.2318 65.9114 85.1722 63.6304 84.5796V54.715L71.5868 57.7939V84.3911C71.5868 90.0429 84.5995 94.9997 99.4344 94.9997C114.269 94.9997 127.282 90.0429 127.282 84.3911V57.7939L141.022 52.4747C141.532 52.2776 141.869 51.7868 141.869 51.2392C141.869 50.6916 141.532 50.2009 141.022 50.002L141.022 50.0026ZM64.9565 89.6954C64.9565 91.1582 63.7672 92.3475 62.3044 92.3475C60.8415 92.3475 59.6522 91.1582 59.6522 89.6954C59.6522 88.2325 60.8415 87.0432 62.3044 87.0432C63.7672 87.0432 64.9565 88.2325 64.9565 89.6954ZM124.63 84.3911C124.63 87.5203 113.81 92.3475 99.4344 92.3475C85.0584 92.3475 74.239 87.5203 74.239 84.3911V58.8213L98.9555 68.3892C99.1094 68.449 99.271 68.478 99.4344 68.478C99.5978 68.478 99.7594 68.449 99.9134 68.3892L124.63 58.8213L124.63 84.3911ZM99.4344 65.7306L61.9997 51.2391L99.4344 36.7476L136.868 51.2391L99.4344 65.7306Z" fill="white" stroke="#404CDC"/>
</svg>
