<svg width="200" height="180" viewBox="0 0 200 180" fill="none" xmlns="http://www.w3.org/2000/svg">
<path d="M0 0H170C186.569 0 200 13.4315 200 30V180H30C13.4315 180 0 166.569 0 150V0Z" fill="#E75825"/>
<path d="M56.9256 121.3H63.6456V123.9H56.9256V121.3ZM57.1656 129H53.9256V115H64.5056V117.6H57.1656V129ZM66.4791 129V118.24H69.5991V129H66.4791ZM68.0391 116.74C67.4657 116.74 66.9991 116.573 66.6391 116.24C66.2791 115.907 66.0991 115.493 66.0991 115C66.0991 114.507 66.2791 114.093 66.6391 113.76C66.9991 113.427 67.4657 113.26 68.0391 113.26C68.6124 113.26 69.0791 113.42 69.4391 113.74C69.7991 114.047 69.9791 114.447 69.9791 114.94C69.9791 115.46 69.7991 115.893 69.4391 116.24C69.0924 116.573 68.6257 116.74 68.0391 116.74ZM76.8947 129.16C75.628 129.16 74.6414 128.84 73.9347 128.2C73.228 127.547 72.8747 126.58 72.8747 125.3V115.86H75.9947V125.26C75.9947 125.713 76.1147 126.067 76.3547 126.32C76.5947 126.56 76.9214 126.68 77.3347 126.68C77.828 126.68 78.248 126.547 78.5947 126.28L79.4347 128.48C79.1147 128.707 78.728 128.88 78.2747 129C77.8347 129.107 77.3747 129.16 76.8947 129.16ZM71.2147 120.88V118.48H78.6747V120.88H71.2147ZM87.7261 118.08C88.5794 118.08 89.3394 118.253 90.0061 118.6C90.6861 118.933 91.2194 119.453 91.6061 120.16C91.9928 120.853 92.1861 121.747 92.1861 122.84V129H89.0661V123.32C89.0661 122.453 88.8728 121.813 88.4861 121.4C88.1128 120.987 87.5794 120.78 86.8861 120.78C86.3928 120.78 85.9461 120.887 85.5461 121.1C85.1594 121.3 84.8528 121.613 84.6261 122.04C84.4128 122.467 84.3061 123.013 84.3061 123.68V129H81.1861V118.24H84.1661V121.22L83.6061 120.32C83.9928 119.6 84.5461 119.047 85.2661 118.66C85.9861 118.273 86.8061 118.08 87.7261 118.08ZM100.432 129.16C99.2057 129.16 98.1257 128.92 97.1923 128.44C96.2723 127.96 95.559 127.307 95.0523 126.48C94.5457 125.64 94.2923 124.687 94.2923 123.62C94.2923 122.54 94.539 121.587 95.0323 120.76C95.539 119.92 96.2257 119.267 97.0923 118.8C97.959 118.32 98.939 118.08 100.032 118.08C101.086 118.08 102.032 118.307 102.872 118.76C103.726 119.2 104.399 119.84 104.892 120.68C105.386 121.507 105.632 122.5 105.632 123.66C105.632 123.78 105.626 123.92 105.612 124.08C105.599 124.227 105.586 124.367 105.572 124.5H96.8323V122.68H103.932L102.732 123.22C102.732 122.66 102.619 122.173 102.392 121.76C102.166 121.347 101.852 121.027 101.452 120.8C101.052 120.56 100.586 120.44 100.052 120.44C99.519 120.44 99.0457 120.56 98.6323 120.8C98.2323 121.027 97.919 121.353 97.6923 121.78C97.4657 122.193 97.3523 122.687 97.3523 123.26V123.74C97.3523 124.327 97.479 124.847 97.7323 125.3C97.999 125.74 98.3657 126.08 98.8323 126.32C99.3123 126.547 99.8723 126.66 100.512 126.66C101.086 126.66 101.586 126.573 102.012 126.4C102.452 126.227 102.852 125.967 103.212 125.62L104.872 127.42C104.379 127.98 103.759 128.413 103.012 128.72C102.266 129.013 101.406 129.16 100.432 129.16ZM111.33 129.16C110.41 129.16 109.523 129.053 108.67 128.84C107.83 128.613 107.163 128.333 106.67 128L107.71 125.76C108.203 126.067 108.783 126.32 109.45 126.52C110.13 126.707 110.796 126.8 111.45 126.8C112.17 126.8 112.676 126.713 112.97 126.54C113.276 126.367 113.43 126.127 113.43 125.82C113.43 125.567 113.31 125.38 113.07 125.26C112.843 125.127 112.536 125.027 112.15 124.96C111.763 124.893 111.336 124.827 110.87 124.76C110.416 124.693 109.956 124.607 109.49 124.5C109.023 124.38 108.596 124.207 108.21 123.98C107.823 123.753 107.51 123.447 107.27 123.06C107.043 122.673 106.93 122.173 106.93 121.56C106.93 120.88 107.123 120.28 107.51 119.76C107.91 119.24 108.483 118.833 109.23 118.54C109.976 118.233 110.87 118.08 111.91 118.08C112.643 118.08 113.39 118.16 114.15 118.32C114.91 118.48 115.543 118.713 116.05 119.02L115.01 121.24C114.49 120.933 113.963 120.727 113.43 120.62C112.91 120.5 112.403 120.44 111.91 120.44C111.216 120.44 110.71 120.533 110.39 120.72C110.07 120.907 109.91 121.147 109.91 121.44C109.91 121.707 110.023 121.907 110.25 122.04C110.49 122.173 110.803 122.28 111.19 122.36C111.576 122.44 111.996 122.513 112.45 122.58C112.916 122.633 113.383 122.72 113.85 122.84C114.316 122.96 114.736 123.133 115.11 123.36C115.496 123.573 115.81 123.873 116.05 124.26C116.29 124.633 116.41 125.127 116.41 125.74C116.41 126.407 116.21 127 115.81 127.52C115.41 128.027 114.83 128.427 114.07 128.72C113.323 129.013 112.41 129.16 111.33 129.16ZM121.955 129.16C121.035 129.16 120.148 129.053 119.295 128.84C118.455 128.613 117.788 128.333 117.295 128L118.335 125.76C118.828 126.067 119.408 126.32 120.075 126.52C120.755 126.707 121.421 126.8 122.075 126.8C122.795 126.8 123.301 126.713 123.595 126.54C123.901 126.367 124.055 126.127 124.055 125.82C124.055 125.567 123.935 125.38 123.695 125.26C123.468 125.127 123.161 125.027 122.775 124.96C122.388 124.893 121.961 124.827 121.495 124.76C121.041 124.693 120.581 124.607 120.115 124.5C119.648 124.38 119.221 124.207 118.835 123.98C118.448 123.753 118.135 123.447 117.895 123.06C117.668 122.673 117.555 122.173 117.555 121.56C117.555 120.88 117.748 120.28 118.135 119.76C118.535 119.24 119.108 118.833 119.855 118.54C120.601 118.233 121.495 118.08 122.535 118.08C123.268 118.08 124.015 118.16 124.775 118.32C125.535 118.48 126.168 118.713 126.675 119.02L125.635 121.24C125.115 120.933 124.588 120.727 124.055 120.62C123.535 120.5 123.028 120.44 122.535 120.44C121.841 120.44 121.335 120.533 121.015 120.72C120.695 120.907 120.535 121.147 120.535 121.44C120.535 121.707 120.648 121.907 120.875 122.04C121.115 122.173 121.428 122.28 121.815 122.36C122.201 122.44 122.621 122.513 123.075 122.58C123.541 122.633 124.008 122.72 124.475 122.84C124.941 122.96 125.361 123.133 125.735 123.36C126.121 123.573 126.435 123.873 126.675 124.26C126.915 124.633 127.035 125.127 127.035 125.74C127.035 126.407 126.835 127 126.435 127.52C126.035 128.027 125.455 128.427 124.695 128.72C123.948 129.013 123.035 129.16 121.955 129.16ZM139.244 129.24C138.217 129.24 137.304 129.073 136.504 128.74C135.704 128.407 135.07 127.953 134.604 127.38C134.137 126.807 133.904 126.147 133.904 125.4C133.904 124.707 134.057 124.087 134.364 123.54C134.67 122.98 135.157 122.46 135.824 121.98C136.49 121.487 137.337 121.007 138.364 120.54C139.11 120.193 139.697 119.887 140.124 119.62C140.55 119.353 140.85 119.1 141.024 118.86C141.197 118.607 141.284 118.353 141.284 118.1C141.284 117.753 141.164 117.473 140.924 117.26C140.697 117.047 140.357 116.94 139.904 116.94C139.424 116.94 139.05 117.06 138.784 117.3C138.517 117.54 138.384 117.847 138.384 118.22C138.384 118.42 138.424 118.62 138.504 118.82C138.584 119.007 138.737 119.227 138.964 119.48C139.19 119.72 139.51 120.033 139.924 120.42L147.304 127.26L145.604 129.24L137.464 121.68C136.997 121.253 136.624 120.853 136.344 120.48C136.064 120.107 135.857 119.74 135.724 119.38C135.604 119.02 135.544 118.647 135.544 118.26C135.544 117.58 135.724 116.98 136.084 116.46C136.444 115.94 136.95 115.54 137.604 115.26C138.257 114.967 139.024 114.82 139.904 114.82C140.717 114.82 141.417 114.953 142.004 115.22C142.604 115.473 143.07 115.84 143.404 116.32C143.75 116.8 143.924 117.373 143.924 118.04C143.924 118.627 143.777 119.167 143.484 119.66C143.19 120.14 142.73 120.593 142.104 121.02C141.49 121.447 140.684 121.88 139.684 122.32C139.004 122.627 138.464 122.927 138.064 123.22C137.677 123.5 137.397 123.787 137.224 124.08C137.05 124.373 136.964 124.7 136.964 125.06C136.964 125.393 137.064 125.693 137.264 125.96C137.477 126.227 137.77 126.433 138.144 126.58C138.517 126.727 138.957 126.8 139.464 126.8C140.277 126.8 141.024 126.613 141.704 126.24C142.384 125.853 142.957 125.287 143.424 124.54C143.904 123.78 144.244 122.86 144.444 121.78L146.944 122.56C146.664 123.92 146.164 125.1 145.444 126.1C144.724 127.1 143.837 127.873 142.784 128.42C141.73 128.967 140.55 129.24 139.244 129.24ZM57.7251 153L53.1451 139H56.5051L60.4851 151.4H58.8051L62.9651 139H65.9651L69.9651 151.4H68.3451L72.4251 139H75.5251L70.9451 153H67.4651L63.9251 142.12H64.8451L61.2051 153H57.7251ZM81.653 153.16C80.4264 153.16 79.3464 152.92 78.413 152.44C77.493 151.96 76.7797 151.307 76.273 150.48C75.7664 149.64 75.513 148.687 75.513 147.62C75.513 146.54 75.7597 145.587 76.253 144.76C76.7597 143.92 77.4464 143.267 78.313 142.8C79.1797 142.32 80.1597 142.08 81.253 142.08C82.3064 142.08 83.253 142.307 84.093 142.76C84.9464 143.2 85.6197 143.84 86.113 144.68C86.6064 145.507 86.853 146.5 86.853 147.66C86.853 147.78 86.8464 147.92 86.833 148.08C86.8197 148.227 86.8064 148.367 86.793 148.5H78.053V146.68H85.153L83.953 147.22C83.953 146.66 83.8397 146.173 83.613 145.76C83.3864 145.347 83.073 145.027 82.673 144.8C82.273 144.56 81.8064 144.44 81.273 144.44C80.7397 144.44 80.2664 144.56 79.853 144.8C79.453 145.027 79.1397 145.353 78.913 145.78C78.6864 146.193 78.573 146.687 78.573 147.26V147.74C78.573 148.327 78.6997 148.847 78.953 149.3C79.2197 149.74 79.5864 150.08 80.053 150.32C80.533 150.547 81.093 150.66 81.733 150.66C82.3064 150.66 82.8064 150.573 83.233 150.4C83.673 150.227 84.073 149.967 84.433 149.62L86.093 151.42C85.5997 151.98 84.9797 152.413 84.233 152.72C83.4864 153.013 82.6264 153.16 81.653 153.16ZM88.9302 153V138.16H92.0502V153H88.9302ZM94.9459 153V138.16H98.0659V153H94.9459ZM107.501 142.08C108.355 142.08 109.115 142.253 109.781 142.6C110.461 142.933 110.995 143.453 111.381 144.16C111.768 144.853 111.961 145.747 111.961 146.84V153H108.841V147.32C108.841 146.453 108.648 145.813 108.261 145.4C107.888 144.987 107.355 144.78 106.661 144.78C106.168 144.78 105.721 144.887 105.321 145.1C104.935 145.3 104.628 145.613 104.401 146.04C104.188 146.467 104.081 147.013 104.081 147.68V153H100.961V142.24H103.941V145.22L103.381 144.32C103.768 143.6 104.321 143.047 105.041 142.66C105.761 142.273 106.581 142.08 107.501 142.08ZM120.208 153.16C118.981 153.16 117.901 152.92 116.968 152.44C116.048 151.96 115.334 151.307 114.828 150.48C114.321 149.64 114.068 148.687 114.068 147.62C114.068 146.54 114.314 145.587 114.808 144.76C115.314 143.92 116.001 143.267 116.868 142.8C117.734 142.32 118.714 142.08 119.808 142.08C120.861 142.08 121.808 142.307 122.648 142.76C123.501 143.2 124.174 143.84 124.668 144.68C125.161 145.507 125.408 146.5 125.408 147.66C125.408 147.78 125.401 147.92 125.388 148.08C125.374 148.227 125.361 148.367 125.348 148.5H116.608V146.68H123.708L122.508 147.22C122.508 146.66 122.394 146.173 122.168 145.76C121.941 145.347 121.628 145.027 121.228 144.8C120.828 144.56 120.361 144.44 119.828 144.44C119.294 144.44 118.821 144.56 118.408 144.8C118.008 145.027 117.694 145.353 117.468 145.78C117.241 146.193 117.128 146.687 117.128 147.26V147.74C117.128 148.327 117.254 148.847 117.508 149.3C117.774 149.74 118.141 150.08 118.608 150.32C119.088 150.547 119.648 150.66 120.288 150.66C120.861 150.66 121.361 150.573 121.788 150.4C122.228 150.227 122.628 149.967 122.988 149.62L124.648 151.42C124.154 151.98 123.534 152.413 122.788 152.72C122.041 153.013 121.181 153.16 120.208 153.16ZM131.105 153.16C130.185 153.16 129.298 153.053 128.445 152.84C127.605 152.613 126.938 152.333 126.445 152L127.485 149.76C127.978 150.067 128.558 150.32 129.225 150.52C129.905 150.707 130.572 150.8 131.225 150.8C131.945 150.8 132.452 150.713 132.745 150.54C133.052 150.367 133.205 150.127 133.205 149.82C133.205 149.567 133.085 149.38 132.845 149.26C132.618 149.127 132.312 149.027 131.925 148.96C131.538 148.893 131.112 148.827 130.645 148.76C130.192 148.693 129.732 148.607 129.265 148.5C128.798 148.38 128.372 148.207 127.985 147.98C127.598 147.753 127.285 147.447 127.045 147.06C126.818 146.673 126.705 146.173 126.705 145.56C126.705 144.88 126.898 144.28 127.285 143.76C127.685 143.24 128.258 142.833 129.005 142.54C129.752 142.233 130.645 142.08 131.685 142.08C132.418 142.08 133.165 142.16 133.925 142.32C134.685 142.48 135.318 142.713 135.825 143.02L134.785 145.24C134.265 144.933 133.738 144.727 133.205 144.62C132.685 144.5 132.178 144.44 131.685 144.44C130.992 144.44 130.485 144.533 130.165 144.72C129.845 144.907 129.685 145.147 129.685 145.44C129.685 145.707 129.798 145.907 130.025 146.04C130.265 146.173 130.578 146.28 130.965 146.36C131.352 146.44 131.772 146.513 132.225 146.58C132.692 146.633 133.158 146.72 133.625 146.84C134.092 146.96 134.512 147.133 134.885 147.36C135.272 147.573 135.585 147.873 135.825 148.26C136.065 148.633 136.185 149.127 136.185 149.74C136.185 150.407 135.985 151 135.585 151.52C135.185 152.027 134.605 152.427 133.845 152.72C133.098 153.013 132.185 153.16 131.105 153.16ZM141.73 153.16C140.81 153.16 139.923 153.053 139.07 152.84C138.23 152.613 137.563 152.333 137.07 152L138.11 149.76C138.603 150.067 139.183 150.32 139.85 150.52C140.53 150.707 141.197 150.8 141.85 150.8C142.57 150.8 143.077 150.713 143.37 150.54C143.677 150.367 143.83 150.127 143.83 149.82C143.83 149.567 143.71 149.38 143.47 149.26C143.243 149.127 142.937 149.027 142.55 148.96C142.163 148.893 141.737 148.827 141.27 148.76C140.817 148.693 140.357 148.607 139.89 148.5C139.423 148.38 138.997 148.207 138.61 147.98C138.223 147.753 137.91 147.447 137.67 147.06C137.443 146.673 137.33 146.173 137.33 145.56C137.33 144.88 137.523 144.28 137.91 143.76C138.31 143.24 138.883 142.833 139.63 142.54C140.377 142.233 141.27 142.08 142.31 142.08C143.043 142.08 143.79 142.16 144.55 142.32C145.31 142.48 145.943 142.713 146.45 143.02L145.41 145.24C144.89 144.933 144.363 144.727 143.83 144.62C143.31 144.5 142.803 144.44 142.31 144.44C141.617 144.44 141.11 144.533 140.79 144.72C140.47 144.907 140.31 145.147 140.31 145.44C140.31 145.707 140.423 145.907 140.65 146.04C140.89 146.173 141.203 146.28 141.59 146.36C141.977 146.44 142.397 146.513 142.85 146.58C143.317 146.633 143.783 146.72 144.25 146.84C144.717 146.96 145.137 147.133 145.51 147.36C145.897 147.573 146.21 147.873 146.45 148.26C146.69 148.633 146.81 149.127 146.81 149.74C146.81 150.407 146.61 151 146.21 151.52C145.81 152.027 145.23 152.427 144.47 152.72C143.723 153.013 142.81 153.16 141.73 153.16Z" fill="white"/>
<path d="M126.292 32.2001C124.48 32.2001 122.583 32.9064 121.203 34.4069L120.512 35.1131L114.82 29.2871C113.268 27.6985 111.37 26.9922 109.473 26.9922C107.575 26.9922 105.591 27.6984 104.125 29.199C103.435 29.9052 102.918 30.6995 102.573 31.5824C101.107 30.17 99.2093 29.4638 97.3977 29.4638C95.5002 29.4638 93.5166 30.17 92.0504 31.6706C90.5842 33.1711 89.8081 35.2011 89.8941 37.1432C89.8941 39.0852 90.5842 41.1153 92.0504 42.6159L102.659 53.4731L86.789 69.6267L85.8402 68.6557L76.2665 58.7695C74.8003 57.2689 72.8168 56.4746 70.9192 56.5627C69.0217 56.5627 67.0381 57.2689 65.5719 58.7695C64.1057 60.27 63.4156 62.2121 63.4156 64.2421C63.4156 66.1841 64.1057 68.0375 65.4858 69.5387C64.623 69.8915 63.8469 70.4217 63.1569 71.1273C61.6901 72.6278 61 74.6578 61 76.5999C61 78.5421 61.6901 80.572 63.1562 82.0726L68.8489 87.8987L68.1588 88.6049C66.7787 90.0174 66.0026 91.9594 66.0026 93.8127C66.0026 95.6668 66.6926 97.6081 68.1588 99.0206C69.5389 100.433 71.4364 101.227 73.2474 101.227C75.0589 101.227 76.9558 100.521 78.336 99.0206L79.026 98.3143L84.7187 104.14C86.1848 105.641 88.0824 106.347 89.9799 106.347C91.8774 106.347 93.861 105.641 95.3272 104.14C96.0173 103.434 96.5347 102.64 96.8794 101.757C98.3456 103.169 100.243 103.876 102.055 103.876C103.952 103.876 105.936 103.169 107.402 101.669C108.868 100.168 109.558 98.2262 109.558 96.1961C109.558 94.2542 108.868 92.2241 107.402 90.7235L97.9149 81.0133L97.0521 80.1304L112.922 63.8885L113.785 64.7714L123.359 74.6577C124.825 76.1582 126.722 76.8644 128.706 76.8644C130.603 76.8644 132.587 76.1582 134.053 74.6577C135.519 73.1571 136.209 71.2151 136.209 69.185C136.209 67.243 135.519 65.3897 134.139 63.8884C135.002 63.5356 135.778 63.0055 136.468 62.2998C137.934 60.7993 138.624 58.8573 138.624 56.8272C138.624 54.8852 137.934 52.9431 136.468 51.4426L130.69 45.5285L131.38 44.8222C132.76 43.4097 133.536 41.4678 133.536 39.6144C133.536 37.7604 132.846 35.819 131.38 34.4065C130 32.9054 128.189 32.2001 126.292 32.2001ZM75.7494 94.8727L75.0593 95.5789C74.5419 96.1084 73.9379 96.2852 73.3345 96.2852C72.7305 96.2852 72.127 96.0204 71.6097 95.5789C71.0922 95.0494 70.9196 94.5198 70.9196 93.8136C70.9196 93.1954 71.1783 92.5779 71.6097 92.0484L72.2997 91.3421L75.7494 94.8727ZM92.0506 96.8146C92.568 97.3442 92.8267 98.0504 92.8267 98.7566C92.8267 99.4628 92.568 100.169 92.0506 100.699C91.5332 101.228 90.8431 101.493 90.1531 101.493C89.4631 101.493 88.773 101.228 88.2556 100.699L66.6069 78.5425C66.0895 78.013 65.8308 77.3067 65.8308 76.6005C65.8308 75.8943 66.0895 75.188 66.6069 74.6586C67.1243 74.129 67.8144 73.8643 68.5044 73.8643C69.1945 73.8643 69.8846 74.129 70.4019 74.6586L92.0506 96.8146ZM82.4769 72.187L94.4656 84.4567L104.125 94.3435C104.643 94.873 104.902 95.5793 104.902 96.2855C104.902 96.9917 104.643 97.6979 104.125 98.2274C103.608 98.7569 102.918 99.0217 102.228 99.0217C101.538 99.0217 100.848 98.757 100.33 98.2274L69.0218 66.185C68.5044 65.6555 68.2457 64.9492 68.2457 64.243C68.2457 63.5368 68.5044 62.8305 69.0218 62.3011C69.5392 61.7716 70.2292 61.5068 70.9193 61.5068C71.6093 61.5068 72.2994 61.7715 72.8168 62.3011L82.4769 72.187ZM109.473 60.3588L93.6031 76.6007L90.2394 73.1581L106.109 56.9162L109.473 60.3588ZM104.126 40.1447L130.604 67.2439C131.122 67.7735 131.38 68.4797 131.38 69.1859C131.38 69.8921 131.122 70.5984 130.604 71.1279C130.087 71.6573 129.397 71.9222 128.707 71.9222C128.017 71.9222 127.327 71.6574 126.809 71.1279L105.161 48.9718L95.5009 39.0849C94.9835 38.5554 94.7248 37.8492 94.7248 37.143C94.7248 36.4367 94.9835 35.7305 95.5009 35.201C96.0183 34.6715 96.7084 34.4067 97.3984 34.4067C98.0885 34.4067 98.7785 34.6715 99.2959 35.201L104.126 40.1447ZM118.788 40.3208L133.019 54.8852C133.536 55.4147 133.795 56.121 133.795 56.8272C133.795 57.5334 133.536 58.2397 133.019 58.7691C132.502 59.2986 131.811 59.5634 131.121 59.5634C130.431 59.5634 129.741 59.2987 129.224 58.7691L107.575 36.6131C107.058 36.0835 106.799 35.3773 106.799 34.6711C106.799 33.9649 107.058 33.2586 107.575 32.7291C108.093 32.1996 108.783 31.9348 109.473 31.9348C110.163 31.9348 110.853 32.1996 111.37 32.7291L118.788 40.3208ZM128.707 39.6145C128.707 40.2327 128.448 40.8503 128.017 41.3798L127.327 42.086L123.963 38.6435L124.653 37.9372C125.171 37.4077 125.775 37.231 126.378 37.231C126.982 37.231 127.586 37.4957 128.103 37.9372C128.448 38.3787 128.707 38.9969 128.707 39.6145Z" fill="white" stroke="#0F52BA"/>
</svg>
