<svg width="200" height="180" viewBox="0 0 200 180" fill="none" xmlns="http://www.w3.org/2000/svg">
<path d="M0 0H170C186.569 0 200 13.4315 200 30V180H30C13.4315 180 0 166.569 0 150V0Z" fill="#E75825"/>
<path d="M56.66 121.3H63.38V123.9H56.66V121.3ZM56.9 129H53.66V115H64.24V117.6H56.9V129ZM66.2134 129V118.24H69.3334V129H66.2134ZM67.7734 116.74C67.2001 116.74 66.7334 116.573 66.3734 116.24C66.0134 115.907 65.8334 115.493 65.8334 115C65.8334 114.507 66.0134 114.093 66.3734 113.76C66.7334 113.427 67.2001 113.26 67.7734 113.26C68.3468 113.26 68.8134 113.42 69.1734 113.74C69.5334 114.047 69.7134 114.447 69.7134 114.94C69.7134 115.46 69.5334 115.893 69.1734 116.24C68.8268 116.573 68.3601 116.74 67.7734 116.74ZM76.6291 129.16C75.3624 129.16 74.3757 128.84 73.6691 128.2C72.9624 127.547 72.6091 126.58 72.6091 125.3V115.86H75.7291V125.26C75.7291 125.713 75.8491 126.067 76.0891 126.32C76.3291 126.56 76.6557 126.68 77.0691 126.68C77.5624 126.68 77.9824 126.547 78.3291 126.28L79.1691 128.48C78.8491 128.707 78.4624 128.88 78.0091 129C77.5691 129.107 77.1091 129.16 76.6291 129.16ZM70.9491 120.88V118.48H78.4091V120.88H70.9491ZM87.4605 118.08C88.3138 118.08 89.0738 118.253 89.7405 118.6C90.4205 118.933 90.9538 119.453 91.3405 120.16C91.7271 120.853 91.9205 121.747 91.9205 122.84V129H88.8005V123.32C88.8005 122.453 88.6071 121.813 88.2205 121.4C87.8471 120.987 87.3138 120.78 86.6205 120.78C86.1271 120.78 85.6805 120.887 85.2805 121.1C84.8938 121.3 84.5871 121.613 84.3605 122.04C84.1471 122.467 84.0405 123.013 84.0405 123.68V129H80.9205V118.24H83.9005V121.22L83.3405 120.32C83.7271 119.6 84.2805 119.047 85.0005 118.66C85.7205 118.273 86.5405 118.08 87.4605 118.08ZM100.167 129.16C98.9401 129.16 97.8601 128.92 96.9267 128.44C96.0067 127.96 95.2934 127.307 94.7867 126.48C94.2801 125.64 94.0267 124.687 94.0267 123.62C94.0267 122.54 94.2734 121.587 94.7667 120.76C95.2734 119.92 95.9601 119.267 96.8267 118.8C97.6934 118.32 98.6734 118.08 99.7667 118.08C100.82 118.08 101.767 118.307 102.607 118.76C103.46 119.2 104.133 119.84 104.627 120.68C105.12 121.507 105.367 122.5 105.367 123.66C105.367 123.78 105.36 123.92 105.347 124.08C105.333 124.227 105.32 124.367 105.307 124.5H96.5667V122.68H103.667L102.467 123.22C102.467 122.66 102.353 122.173 102.127 121.76C101.9 121.347 101.587 121.027 101.187 120.8C100.787 120.56 100.32 120.44 99.7867 120.44C99.2534 120.44 98.7801 120.56 98.3667 120.8C97.9667 121.027 97.6534 121.353 97.4267 121.78C97.2001 122.193 97.0867 122.687 97.0867 123.26V123.74C97.0867 124.327 97.2134 124.847 97.4667 125.3C97.7334 125.74 98.1001 126.08 98.5667 126.32C99.0467 126.547 99.6067 126.66 100.247 126.66C100.82 126.66 101.32 126.573 101.747 126.4C102.187 126.227 102.587 125.967 102.947 125.62L104.607 127.42C104.113 127.98 103.493 128.413 102.747 128.72C102 129.013 101.14 129.16 100.167 129.16ZM111.064 129.16C110.144 129.16 109.257 129.053 108.404 128.84C107.564 128.613 106.897 128.333 106.404 128L107.444 125.76C107.937 126.067 108.517 126.32 109.184 126.52C109.864 126.707 110.531 126.8 111.184 126.8C111.904 126.8 112.411 126.713 112.704 126.54C113.011 126.367 113.164 126.127 113.164 125.82C113.164 125.567 113.044 125.38 112.804 125.26C112.577 125.127 112.271 125.027 111.884 124.96C111.497 124.893 111.071 124.827 110.604 124.76C110.151 124.693 109.691 124.607 109.224 124.5C108.757 124.38 108.331 124.207 107.944 123.98C107.557 123.753 107.244 123.447 107.004 123.06C106.777 122.673 106.664 122.173 106.664 121.56C106.664 120.88 106.857 120.28 107.244 119.76C107.644 119.24 108.217 118.833 108.964 118.54C109.711 118.233 110.604 118.08 111.644 118.08C112.377 118.08 113.124 118.16 113.884 118.32C114.644 118.48 115.277 118.713 115.784 119.02L114.744 121.24C114.224 120.933 113.697 120.727 113.164 120.62C112.644 120.5 112.137 120.44 111.644 120.44C110.951 120.44 110.444 120.533 110.124 120.72C109.804 120.907 109.644 121.147 109.644 121.44C109.644 121.707 109.757 121.907 109.984 122.04C110.224 122.173 110.537 122.28 110.924 122.36C111.311 122.44 111.731 122.513 112.184 122.58C112.651 122.633 113.117 122.72 113.584 122.84C114.051 122.96 114.471 123.133 114.844 123.36C115.231 123.573 115.544 123.873 115.784 124.26C116.024 124.633 116.144 125.127 116.144 125.74C116.144 126.407 115.944 127 115.544 127.52C115.144 128.027 114.564 128.427 113.804 128.72C113.057 129.013 112.144 129.16 111.064 129.16ZM121.689 129.16C120.769 129.16 119.882 129.053 119.029 128.84C118.189 128.613 117.522 128.333 117.029 128L118.069 125.76C118.562 126.067 119.142 126.32 119.809 126.52C120.489 126.707 121.156 126.8 121.809 126.8C122.529 126.8 123.036 126.713 123.329 126.54C123.636 126.367 123.789 126.127 123.789 125.82C123.789 125.567 123.669 125.38 123.429 125.26C123.202 125.127 122.896 125.027 122.509 124.96C122.122 124.893 121.696 124.827 121.229 124.76C120.776 124.693 120.316 124.607 119.849 124.5C119.382 124.38 118.956 124.207 118.569 123.98C118.182 123.753 117.869 123.447 117.629 123.06C117.402 122.673 117.289 122.173 117.289 121.56C117.289 120.88 117.482 120.28 117.869 119.76C118.269 119.24 118.842 118.833 119.589 118.54C120.336 118.233 121.229 118.08 122.269 118.08C123.002 118.08 123.749 118.16 124.509 118.32C125.269 118.48 125.902 118.713 126.409 119.02L125.369 121.24C124.849 120.933 124.322 120.727 123.789 120.62C123.269 120.5 122.762 120.44 122.269 120.44C121.576 120.44 121.069 120.533 120.749 120.72C120.429 120.907 120.269 121.147 120.269 121.44C120.269 121.707 120.382 121.907 120.609 122.04C120.849 122.173 121.162 122.28 121.549 122.36C121.936 122.44 122.356 122.513 122.809 122.58C123.276 122.633 123.742 122.72 124.209 122.84C124.676 122.96 125.096 123.133 125.469 123.36C125.856 123.573 126.169 123.873 126.409 124.26C126.649 124.633 126.769 125.127 126.769 125.74C126.769 126.407 126.569 127 126.169 127.52C125.769 128.027 125.189 128.427 124.429 128.72C123.682 129.013 122.769 129.16 121.689 129.16ZM138.978 129.24C137.951 129.24 137.038 129.073 136.238 128.74C135.438 128.407 134.805 127.953 134.338 127.38C133.871 126.807 133.638 126.147 133.638 125.4C133.638 124.707 133.791 124.087 134.098 123.54C134.405 122.98 134.891 122.46 135.558 121.98C136.225 121.487 137.071 121.007 138.098 120.54C138.845 120.193 139.431 119.887 139.858 119.62C140.285 119.353 140.585 119.1 140.758 118.86C140.931 118.607 141.018 118.353 141.018 118.1C141.018 117.753 140.898 117.473 140.658 117.26C140.431 117.047 140.091 116.94 139.638 116.94C139.158 116.94 138.785 117.06 138.518 117.3C138.251 117.54 138.118 117.847 138.118 118.22C138.118 118.42 138.158 118.62 138.238 118.82C138.318 119.007 138.471 119.227 138.698 119.48C138.925 119.72 139.245 120.033 139.658 120.42L147.038 127.26L145.338 129.24L137.198 121.68C136.731 121.253 136.358 120.853 136.078 120.48C135.798 120.107 135.591 119.74 135.458 119.38C135.338 119.02 135.278 118.647 135.278 118.26C135.278 117.58 135.458 116.98 135.818 116.46C136.178 115.94 136.685 115.54 137.338 115.26C137.991 114.967 138.758 114.82 139.638 114.82C140.451 114.82 141.151 114.953 141.738 115.22C142.338 115.473 142.805 115.84 143.138 116.32C143.485 116.8 143.658 117.373 143.658 118.04C143.658 118.627 143.511 119.167 143.218 119.66C142.925 120.14 142.465 120.593 141.838 121.02C141.225 121.447 140.418 121.88 139.418 122.32C138.738 122.627 138.198 122.927 137.798 123.22C137.411 123.5 137.131 123.787 136.958 124.08C136.785 124.373 136.698 124.7 136.698 125.06C136.698 125.393 136.798 125.693 136.998 125.96C137.211 126.227 137.505 126.433 137.878 126.58C138.251 126.727 138.691 126.8 139.198 126.8C140.011 126.8 140.758 126.613 141.438 126.24C142.118 125.853 142.691 125.287 143.158 124.54C143.638 123.78 143.978 122.86 144.178 121.78L146.678 122.56C146.398 123.92 145.898 125.1 145.178 126.1C144.458 127.1 143.571 127.873 142.518 128.42C141.465 128.967 140.285 129.24 138.978 129.24ZM57.02 153L52.44 139H55.8L59.78 151.4H58.1L62.26 139H65.26L69.26 151.4H67.64L71.72 139H74.82L70.24 153H66.76L63.22 142.12H64.14L60.5 153H57.02ZM80.948 153.16C79.7213 153.16 78.6413 152.92 77.708 152.44C76.788 151.96 76.0746 151.307 75.568 150.48C75.0613 149.64 74.808 148.687 74.808 147.62C74.808 146.54 75.0546 145.587 75.548 144.76C76.0546 143.92 76.7413 143.267 77.608 142.8C78.4746 142.32 79.4546 142.08 80.548 142.08C81.6013 142.08 82.548 142.307 83.388 142.76C84.2413 143.2 84.9146 143.84 85.408 144.68C85.9013 145.507 86.148 146.5 86.148 147.66C86.148 147.78 86.1413 147.92 86.128 148.08C86.1146 148.227 86.1013 148.367 86.088 148.5H77.348V146.68H84.448L83.248 147.22C83.248 146.66 83.1346 146.173 82.908 145.76C82.6813 145.347 82.368 145.027 81.968 144.8C81.568 144.56 81.1013 144.44 80.568 144.44C80.0346 144.44 79.5613 144.56 79.148 144.8C78.748 145.027 78.4346 145.353 78.208 145.78C77.9813 146.193 77.868 146.687 77.868 147.26V147.74C77.868 148.327 77.9946 148.847 78.248 149.3C78.5146 149.74 78.8813 150.08 79.348 150.32C79.828 150.547 80.388 150.66 81.028 150.66C81.6013 150.66 82.1013 150.573 82.528 150.4C82.968 150.227 83.368 149.967 83.728 149.62L85.388 151.42C84.8946 151.98 84.2746 152.413 83.528 152.72C82.7813 153.013 81.9213 153.16 80.948 153.16ZM88.2252 153V138.16H91.3452V153H88.2252ZM94.2408 153V138.16H97.3608V153H94.2408ZM106.796 142.08C107.65 142.08 108.41 142.253 109.076 142.6C109.756 142.933 110.29 143.453 110.676 144.16C111.063 144.853 111.256 145.747 111.256 146.84V153H108.136V147.32C108.136 146.453 107.943 145.813 107.556 145.4C107.183 144.987 106.65 144.78 105.956 144.78C105.463 144.78 105.016 144.887 104.616 145.1C104.23 145.3 103.923 145.613 103.696 146.04C103.483 146.467 103.376 147.013 103.376 147.68V153H100.256V142.24H103.236V145.22L102.676 144.32C103.063 143.6 103.616 143.047 104.336 142.66C105.056 142.273 105.876 142.08 106.796 142.08ZM119.503 153.16C118.276 153.16 117.196 152.92 116.263 152.44C115.343 151.96 114.629 151.307 114.123 150.48C113.616 149.64 113.363 148.687 113.363 147.62C113.363 146.54 113.609 145.587 114.103 144.76C114.609 143.92 115.296 143.267 116.163 142.8C117.029 142.32 118.009 142.08 119.103 142.08C120.156 142.08 121.103 142.307 121.943 142.76C122.796 143.2 123.469 143.84 123.963 144.68C124.456 145.507 124.703 146.5 124.703 147.66C124.703 147.78 124.696 147.92 124.683 148.08C124.669 148.227 124.656 148.367 124.643 148.5H115.903V146.68H123.003L121.803 147.22C121.803 146.66 121.689 146.173 121.463 145.76C121.236 145.347 120.923 145.027 120.523 144.8C120.123 144.56 119.656 144.44 119.123 144.44C118.589 144.44 118.116 144.56 117.703 144.8C117.303 145.027 116.989 145.353 116.763 145.78C116.536 146.193 116.423 146.687 116.423 147.26V147.74C116.423 148.327 116.549 148.847 116.803 149.3C117.069 149.74 117.436 150.08 117.903 150.32C118.383 150.547 118.943 150.66 119.583 150.66C120.156 150.66 120.656 150.573 121.083 150.4C121.523 150.227 121.923 149.967 122.283 149.62L123.943 151.42C123.449 151.98 122.829 152.413 122.083 152.72C121.336 153.013 120.476 153.16 119.503 153.16ZM130.4 153.16C129.48 153.16 128.593 153.053 127.74 152.84C126.9 152.613 126.233 152.333 125.74 152L126.78 149.76C127.273 150.067 127.853 150.32 128.52 150.52C129.2 150.707 129.867 150.8 130.52 150.8C131.24 150.8 131.747 150.713 132.04 150.54C132.347 150.367 132.5 150.127 132.5 149.82C132.5 149.567 132.38 149.38 132.14 149.26C131.913 149.127 131.607 149.027 131.22 148.96C130.833 148.893 130.407 148.827 129.94 148.76C129.487 148.693 129.027 148.607 128.56 148.5C128.093 148.38 127.667 148.207 127.28 147.98C126.893 147.753 126.58 147.447 126.34 147.06C126.113 146.673 126 146.173 126 145.56C126 144.88 126.193 144.28 126.58 143.76C126.98 143.24 127.553 142.833 128.3 142.54C129.047 142.233 129.94 142.08 130.98 142.08C131.713 142.08 132.46 142.16 133.22 142.32C133.98 142.48 134.613 142.713 135.12 143.02L134.08 145.24C133.56 144.933 133.033 144.727 132.5 144.62C131.98 144.5 131.473 144.44 130.98 144.44C130.287 144.44 129.78 144.533 129.46 144.72C129.14 144.907 128.98 145.147 128.98 145.44C128.98 145.707 129.093 145.907 129.32 146.04C129.56 146.173 129.873 146.28 130.26 146.36C130.647 146.44 131.067 146.513 131.52 146.58C131.987 146.633 132.453 146.72 132.92 146.84C133.387 146.96 133.807 147.133 134.18 147.36C134.567 147.573 134.88 147.873 135.12 148.26C135.36 148.633 135.48 149.127 135.48 149.74C135.48 150.407 135.28 151 134.88 151.52C134.48 152.027 133.9 152.427 133.14 152.72C132.393 153.013 131.48 153.16 130.4 153.16ZM141.025 153.16C140.105 153.16 139.218 153.053 138.365 152.84C137.525 152.613 136.858 152.333 136.365 152L137.405 149.76C137.898 150.067 138.478 150.32 139.145 150.52C139.825 150.707 140.492 150.8 141.145 150.8C141.865 150.8 142.372 150.713 142.665 150.54C142.972 150.367 143.125 150.127 143.125 149.82C143.125 149.567 143.005 149.38 142.765 149.26C142.538 149.127 142.232 149.027 141.845 148.96C141.458 148.893 141.032 148.827 140.565 148.76C140.112 148.693 139.652 148.607 139.185 148.5C138.718 148.38 138.292 148.207 137.905 147.98C137.518 147.753 137.205 147.447 136.965 147.06C136.738 146.673 136.625 146.173 136.625 145.56C136.625 144.88 136.818 144.28 137.205 143.76C137.605 143.24 138.178 142.833 138.925 142.54C139.672 142.233 140.565 142.08 141.605 142.08C142.338 142.08 143.085 142.16 143.845 142.32C144.605 142.48 145.238 142.713 145.745 143.02L144.705 145.24C144.185 144.933 143.658 144.727 143.125 144.62C142.605 144.5 142.098 144.44 141.605 144.44C140.912 144.44 140.405 144.533 140.085 144.72C139.765 144.907 139.605 145.147 139.605 145.44C139.605 145.707 139.718 145.907 139.945 146.04C140.185 146.173 140.498 146.28 140.885 146.36C141.272 146.44 141.692 146.513 142.145 146.58C142.612 146.633 143.078 146.72 143.545 146.84C144.012 146.96 144.432 147.133 144.805 147.36C145.192 147.573 145.505 147.873 145.745 148.26C145.985 148.633 146.105 149.127 146.105 149.74C146.105 150.407 145.905 151 145.505 151.52C145.105 152.027 144.525 152.427 143.765 152.72C143.018 153.013 142.105 153.16 141.025 153.16Z" fill="white"/>
<path d="M126.292 28.0887C124.48 28.0887 122.583 28.7787 121.203 30.2449L120.512 30.935L114.82 25.2423C113.268 23.6902 111.37 23 109.473 23C107.575 23 105.591 23.6901 104.125 25.1562C103.435 25.8463 102.918 26.6224 102.573 27.4851C101.107 26.105 99.2093 25.415 97.3977 25.415C95.5002 25.415 93.5166 26.1051 92.0504 27.5712C90.5842 29.0374 89.8081 31.0209 89.8941 32.9186C89.8941 34.8161 90.5842 36.7996 92.0504 38.2659L102.659 48.8745L86.789 64.6582L85.8402 63.7094L76.2665 54.0496C74.8003 52.5834 72.8168 51.8072 70.9192 51.8933C69.0217 51.8933 67.0381 52.5834 65.5719 54.0496C64.1057 55.5157 63.4156 57.4133 63.4156 59.3969C63.4156 61.2944 64.1057 63.1053 65.4858 64.5722C64.623 64.9169 63.8469 65.4349 63.1569 66.1244C61.6901 67.5905 61 69.574 61 71.4717C61 73.3693 61.6901 75.3528 63.1562 76.819L68.8489 82.5117L68.1588 83.2017C66.7787 84.5819 66.0026 86.4794 66.0026 88.2903C66.0026 90.1019 66.6926 91.9987 68.1588 93.3789C69.5389 94.759 71.4364 95.5351 73.2474 95.5351C75.0589 95.5351 76.9558 94.8451 78.336 93.3789L79.026 92.6888L84.7187 98.3815C86.1848 99.8476 88.0824 100.538 89.9799 100.538C91.8774 100.538 93.861 99.8476 95.3272 98.3815C96.0173 97.6914 96.5347 96.9153 96.8794 96.0526C98.3456 97.4327 100.243 98.1227 102.055 98.1227C103.952 98.1227 105.936 97.4326 107.402 95.9665C108.868 94.5003 109.558 92.6027 109.558 90.6191C109.558 88.7216 108.868 86.738 107.402 85.2718L97.9149 75.784L97.0521 74.9213L112.922 59.0513L113.785 59.9141L123.359 69.5739C124.825 71.0401 126.722 71.7301 128.706 71.7301C130.603 71.7301 132.587 71.0401 134.053 69.5739C135.519 68.1077 136.209 66.2102 136.209 64.2266C136.209 62.3291 135.519 60.5181 134.139 59.0513C135.002 58.7065 135.778 58.1885 136.468 57.4991C137.934 56.0329 138.624 54.1353 138.624 52.1518C138.624 50.2543 137.934 48.3566 136.468 46.8905L130.69 41.1118L131.38 40.4217C132.76 39.0416 133.536 37.1441 133.536 35.3331C133.536 33.5216 132.846 31.6247 131.38 30.2446C130 28.7778 128.189 28.0887 126.292 28.0887ZM75.7494 89.326L75.0593 90.016C74.5419 90.5334 73.9379 90.7061 73.3345 90.7061C72.7305 90.7061 72.127 90.4474 71.6097 90.016C71.0922 89.4986 70.9196 88.9812 70.9196 88.2912C70.9196 87.6871 71.1783 87.0837 71.6097 86.5663L72.2997 85.8763L75.7494 89.326ZM92.0506 91.2234C92.568 91.7409 92.8267 92.4309 92.8267 93.1209C92.8267 93.811 92.568 94.5011 92.0506 95.0184C91.5332 95.5358 90.8431 95.7945 90.1531 95.7945C89.4631 95.7945 88.773 95.5358 88.2556 95.0184L66.6069 73.3698C66.0895 72.8524 65.8308 72.1623 65.8308 71.4723C65.8308 70.7822 66.0895 70.0921 66.6069 69.5748C67.1243 69.0574 67.8144 68.7987 68.5044 68.7987C69.1945 68.7987 69.8846 69.0574 70.4019 69.5748L92.0506 91.2234ZM82.4769 67.1598L94.4656 79.1485L104.125 88.8089C104.643 89.3263 104.902 90.0164 104.902 90.7064C104.902 91.3965 104.643 92.0865 104.125 92.6039C103.608 93.1213 102.918 93.38 102.228 93.38C101.538 93.38 100.848 93.1213 100.33 92.6039L69.0218 61.2953C68.5044 60.7779 68.2457 60.0878 68.2457 59.3978C68.2457 58.7077 68.5044 58.0176 69.0218 57.5003C69.5392 56.9829 70.2292 56.7242 70.9193 56.7242C71.6093 56.7242 72.2994 56.9829 72.8168 57.5003L82.4769 67.1598ZM109.473 55.6025L93.6031 71.4724L90.2394 68.1087L106.109 52.2387L109.473 55.6025ZM104.126 35.8513L130.604 62.3299C131.122 62.8474 131.38 63.5374 131.38 64.2274C131.38 64.9175 131.122 65.6076 130.604 66.1249C130.087 66.6423 129.397 66.901 128.707 66.901C128.017 66.901 127.327 66.6423 126.809 66.1249L105.161 44.4763L95.5009 34.8158C94.9835 34.2984 94.7248 33.6084 94.7248 32.9183C94.7248 32.2283 94.9835 31.5382 95.5009 31.0208C96.0183 30.5035 96.7084 30.2447 97.3984 30.2447C98.0885 30.2447 98.7785 30.5034 99.2959 31.0208L104.126 35.8513ZM118.788 36.0234L133.019 50.2542C133.536 50.7717 133.795 51.4617 133.795 52.1517C133.795 52.8418 133.536 53.5319 133.019 54.0492C132.502 54.5666 131.811 54.8253 131.121 54.8253C130.431 54.8253 129.741 54.5666 129.224 54.0492L107.575 32.4006C107.058 31.8832 106.799 31.1931 106.799 30.5031C106.799 29.813 107.058 29.1229 107.575 28.6056C108.093 28.0882 108.783 27.8295 109.473 27.8295C110.163 27.8295 110.853 28.0882 111.37 28.6056L118.788 36.0234ZM128.707 35.3333C128.707 35.9373 128.448 36.5407 128.017 37.0581L127.327 37.7482L123.963 34.3845L124.653 33.6944C125.171 33.177 125.775 33.0043 126.378 33.0043C126.982 33.0043 127.586 33.263 128.103 33.6944C128.448 34.1258 128.707 34.7298 128.707 35.3333Z" fill="white" stroke="#404CDC"/>
</svg>
