<svg width="200" height="180" viewBox="0 0 200 180" fill="none" xmlns="http://www.w3.org/2000/svg">
<path d="M0 0H170C186.569 0 200 13.4315 200 30V180H30C13.4315 180 0 166.569 0 150V0Z" fill="#142357"/>
<path d="M23.66 139.3H30.38V141.9H23.66V139.3ZM23.9 147H20.66V133H31.24V135.6H23.9V147ZM38.0795 147.16C36.9329 147.16 35.9129 146.92 35.0195 146.44C34.1395 145.96 33.4395 145.307 32.9195 144.48C32.4129 143.64 32.1595 142.687 32.1595 141.62C32.1595 140.54 32.4129 139.587 32.9195 138.76C33.4395 137.92 34.1395 137.267 35.0195 136.8C35.9129 136.32 36.9329 136.08 38.0795 136.08C39.2129 136.08 40.2262 136.32 41.1195 136.8C42.0129 137.267 42.7129 137.913 43.2195 138.74C43.7262 139.567 43.9795 140.527 43.9795 141.62C43.9795 142.687 43.7262 143.64 43.2195 144.48C42.7129 145.307 42.0129 145.96 41.1195 146.44C40.2262 146.92 39.2129 147.16 38.0795 147.16ZM38.0795 144.6C38.5995 144.6 39.0662 144.48 39.4795 144.24C39.8929 144 40.2195 143.66 40.4595 143.22C40.6995 142.767 40.8195 142.233 40.8195 141.62C40.8195 140.993 40.6995 140.46 40.4595 140.02C40.2195 139.58 39.8929 139.24 39.4795 139C39.0662 138.76 38.5995 138.64 38.0795 138.64C37.5595 138.64 37.0929 138.76 36.6795 139C36.2662 139.24 35.9329 139.58 35.6795 140.02C35.4395 140.46 35.3195 140.993 35.3195 141.62C35.3195 142.233 35.4395 142.767 35.6795 143.22C35.9329 143.66 36.2662 144 36.6795 144.24C37.0929 144.48 37.5595 144.6 38.0795 144.6ZM51.185 147.16C50.0383 147.16 49.0183 146.92 48.125 146.44C47.245 145.96 46.545 145.307 46.025 144.48C45.5183 143.64 45.265 142.687 45.265 141.62C45.265 140.54 45.5183 139.587 46.025 138.76C46.545 137.92 47.245 137.267 48.125 136.8C49.0183 136.32 50.0383 136.08 51.185 136.08C52.3183 136.08 53.3317 136.32 54.225 136.8C55.1183 137.267 55.8183 137.913 56.325 138.74C56.8317 139.567 57.085 140.527 57.085 141.62C57.085 142.687 56.8317 143.64 56.325 144.48C55.8183 145.307 55.1183 145.96 54.225 146.44C53.3317 146.92 52.3183 147.16 51.185 147.16ZM51.185 144.6C51.705 144.6 52.1717 144.48 52.585 144.24C52.9983 144 53.325 143.66 53.565 143.22C53.805 142.767 53.925 142.233 53.925 141.62C53.925 140.993 53.805 140.46 53.565 140.02C53.325 139.58 52.9983 139.24 52.585 139C52.1717 138.76 51.705 138.64 51.185 138.64C50.665 138.64 50.1983 138.76 49.785 139C49.3717 139.24 49.0383 139.58 48.785 140.02C48.545 140.46 48.425 140.993 48.425 141.62C48.425 142.233 48.545 142.767 48.785 143.22C49.0383 143.66 49.3717 144 49.785 144.24C50.1983 144.48 50.665 144.6 51.185 144.6ZM63.7905 147.16C62.7771 147.16 61.8638 146.933 61.0505 146.48C60.2371 146.013 59.5905 145.367 59.1105 144.54C58.6438 143.713 58.4105 142.74 58.4105 141.62C58.4105 140.487 58.6438 139.507 59.1105 138.68C59.5905 137.853 60.2371 137.213 61.0505 136.76C61.8638 136.307 62.7771 136.08 63.7905 136.08C64.6971 136.08 65.4905 136.28 66.1705 136.68C66.8505 137.08 67.3771 137.687 67.7505 138.5C68.1238 139.313 68.3105 140.353 68.3105 141.62C68.3105 142.873 68.1305 143.913 67.7705 144.74C67.4105 145.553 66.8905 146.16 66.2105 146.56C65.5438 146.96 64.7371 147.16 63.7905 147.16ZM64.3305 144.6C64.8371 144.6 65.2971 144.48 65.7105 144.24C66.1238 144 66.4505 143.66 66.6905 143.22C66.9438 142.767 67.0705 142.233 67.0705 141.62C67.0705 140.993 66.9438 140.46 66.6905 140.02C66.4505 139.58 66.1238 139.24 65.7105 139C65.2971 138.76 64.8371 138.64 64.3305 138.64C63.8105 138.64 63.3438 138.76 62.9305 139C62.5171 139.24 62.1838 139.58 61.9305 140.02C61.6905 140.46 61.5705 140.993 61.5705 141.62C61.5705 142.233 61.6905 142.767 61.9305 143.22C62.1838 143.66 62.5171 144 62.9305 144.24C63.3438 144.48 63.8105 144.6 64.3305 144.6ZM67.1505 147V144.8L67.2105 141.6L67.0105 138.42V132.16H70.1305V147H67.1505ZM83.3022 147.24C82.2755 147.24 81.3622 147.073 80.5622 146.74C79.7622 146.407 79.1289 145.953 78.6622 145.38C78.1955 144.807 77.9622 144.147 77.9622 143.4C77.9622 142.707 78.1155 142.087 78.4222 141.54C78.7289 140.98 79.2155 140.46 79.8822 139.98C80.5489 139.487 81.3955 139.007 82.4222 138.54C83.1689 138.193 83.7555 137.887 84.1822 137.62C84.6089 137.353 84.9089 137.1 85.0822 136.86C85.2555 136.607 85.3422 136.353 85.3422 136.1C85.3422 135.753 85.2222 135.473 84.9822 135.26C84.7555 135.047 84.4155 134.94 83.9622 134.94C83.4822 134.94 83.1089 135.06 82.8422 135.3C82.5755 135.54 82.4422 135.847 82.4422 136.22C82.4422 136.42 82.4822 136.62 82.5622 136.82C82.6422 137.007 82.7955 137.227 83.0222 137.48C83.2489 137.72 83.5689 138.033 83.9822 138.42L91.3622 145.26L89.6622 147.24L81.5222 139.68C81.0555 139.253 80.6822 138.853 80.4022 138.48C80.1222 138.107 79.9155 137.74 79.7822 137.38C79.6622 137.02 79.6022 136.647 79.6022 136.26C79.6022 135.58 79.7822 134.98 80.1422 134.46C80.5022 133.94 81.0089 133.54 81.6622 133.26C82.3155 132.967 83.0822 132.82 83.9622 132.82C84.7755 132.82 85.4755 132.953 86.0622 133.22C86.6622 133.473 87.1289 133.84 87.4622 134.32C87.8089 134.8 87.9822 135.373 87.9822 136.04C87.9822 136.627 87.8355 137.167 87.5422 137.66C87.2489 138.14 86.7889 138.593 86.1622 139.02C85.5489 139.447 84.7422 139.88 83.7422 140.32C83.0622 140.627 82.5222 140.927 82.1222 141.22C81.7355 141.5 81.4555 141.787 81.2822 142.08C81.1089 142.373 81.0222 142.7 81.0222 143.06C81.0222 143.393 81.1222 143.693 81.3222 143.96C81.5355 144.227 81.8289 144.433 82.2022 144.58C82.5755 144.727 83.0155 144.8 83.5222 144.8C84.3355 144.8 85.0822 144.613 85.7622 144.24C86.4422 143.853 87.0155 143.287 87.4822 142.54C87.9622 141.78 88.3022 140.86 88.5022 139.78L91.0022 140.56C90.7222 141.92 90.2222 143.1 89.5022 144.1C88.7822 145.1 87.8955 145.873 86.8422 146.42C85.7889 146.967 84.6089 147.24 83.3022 147.24ZM105.877 147.24C104.77 147.24 103.75 147.067 102.817 146.72C101.897 146.36 101.09 145.853 100.397 145.2C99.717 144.547 99.1837 143.78 98.797 142.9C98.4237 142.02 98.237 141.053 98.237 140C98.237 138.947 98.4237 137.98 98.797 137.1C99.1837 136.22 99.7237 135.453 100.417 134.8C101.11 134.147 101.924 133.647 102.857 133.3C103.79 132.94 104.817 132.76 105.937 132.76C107.177 132.76 108.29 132.967 109.277 133.38C110.277 133.793 111.117 134.393 111.797 135.18L109.717 137.1C109.21 136.567 108.657 136.173 108.057 135.92C107.457 135.653 106.804 135.52 106.097 135.52C105.417 135.52 104.797 135.627 104.237 135.84C103.677 136.053 103.19 136.36 102.777 136.76C102.377 137.16 102.064 137.633 101.837 138.18C101.624 138.727 101.517 139.333 101.517 140C101.517 140.653 101.624 141.253 101.837 141.8C102.064 142.347 102.377 142.827 102.777 143.24C103.19 143.64 103.67 143.947 104.217 144.16C104.777 144.373 105.39 144.48 106.057 144.48C106.697 144.48 107.317 144.38 107.917 144.18C108.53 143.967 109.124 143.613 109.697 143.12L111.537 145.46C110.777 146.033 109.89 146.473 108.877 146.78C107.877 147.087 106.877 147.24 105.877 147.24ZM108.577 145.04V139.78H111.537V145.46L108.577 145.04ZM114.327 147V136.24H117.307V139.28L116.887 138.4C117.207 137.64 117.72 137.067 118.427 136.68C119.133 136.28 119.993 136.08 121.007 136.08V138.96C120.873 138.947 120.753 138.94 120.647 138.94C120.54 138.927 120.427 138.92 120.307 138.92C119.453 138.92 118.76 139.167 118.227 139.66C117.707 140.14 117.447 140.893 117.447 141.92V147H114.327ZM127.904 147.16C126.757 147.16 125.737 146.92 124.844 146.44C123.964 145.96 123.264 145.307 122.744 144.48C122.237 143.64 121.984 142.687 121.984 141.62C121.984 140.54 122.237 139.587 122.744 138.76C123.264 137.92 123.964 137.267 124.844 136.8C125.737 136.32 126.757 136.08 127.904 136.08C129.037 136.08 130.05 136.32 130.944 136.8C131.837 137.267 132.537 137.913 133.044 138.74C133.55 139.567 133.804 140.527 133.804 141.62C133.804 142.687 133.55 143.64 133.044 144.48C132.537 145.307 131.837 145.96 130.944 146.44C130.05 146.92 129.037 147.16 127.904 147.16ZM127.904 144.6C128.424 144.6 128.89 144.48 129.304 144.24C129.717 144 130.044 143.66 130.284 143.22C130.524 142.767 130.644 142.233 130.644 141.62C130.644 140.993 130.524 140.46 130.284 140.02C130.044 139.58 129.717 139.24 129.304 139C128.89 138.76 128.424 138.64 127.904 138.64C127.384 138.64 126.917 138.76 126.504 139C126.09 139.24 125.757 139.58 125.504 140.02C125.264 140.46 125.144 140.993 125.144 141.62C125.144 142.233 125.264 142.767 125.504 143.22C125.757 143.66 126.09 144 126.504 144.24C126.917 144.48 127.384 144.6 127.904 144.6ZM141.089 147.16C139.929 147.16 138.896 146.927 137.989 146.46C137.083 145.98 136.369 145.32 135.849 144.48C135.343 143.64 135.089 142.687 135.089 141.62C135.089 140.54 135.343 139.587 135.849 138.76C136.369 137.92 137.083 137.267 137.989 136.8C138.896 136.32 139.929 136.08 141.089 136.08C142.223 136.08 143.209 136.32 144.049 136.8C144.889 137.267 145.509 137.94 145.909 138.82L143.489 140.12C143.209 139.613 142.856 139.24 142.429 139C142.016 138.76 141.563 138.64 141.069 138.64C140.536 138.64 140.056 138.76 139.629 139C139.203 139.24 138.863 139.58 138.609 140.02C138.369 140.46 138.249 140.993 138.249 141.62C138.249 142.247 138.369 142.78 138.609 143.22C138.863 143.66 139.203 144 139.629 144.24C140.056 144.48 140.536 144.6 141.069 144.6C141.563 144.6 142.016 144.487 142.429 144.26C142.856 144.02 143.209 143.64 143.489 143.12L145.909 144.44C145.509 145.307 144.889 145.98 144.049 146.46C143.209 146.927 142.223 147.16 141.089 147.16ZM152.909 147.16C151.682 147.16 150.602 146.92 149.669 146.44C148.749 145.96 148.036 145.307 147.529 144.48C147.022 143.64 146.769 142.687 146.769 141.62C146.769 140.54 147.016 139.587 147.509 138.76C148.016 137.92 148.702 137.267 149.569 136.8C150.436 136.32 151.416 136.08 152.509 136.08C153.562 136.08 154.509 136.307 155.349 136.76C156.202 137.2 156.876 137.84 157.369 138.68C157.862 139.507 158.109 140.5 158.109 141.66C158.109 141.78 158.102 141.92 158.089 142.08C158.076 142.227 158.062 142.367 158.049 142.5H149.309V140.68H156.409L155.209 141.22C155.209 140.66 155.096 140.173 154.869 139.76C154.642 139.347 154.329 139.027 153.929 138.8C153.529 138.56 153.062 138.44 152.529 138.44C151.996 138.44 151.522 138.56 151.109 138.8C150.709 139.027 150.396 139.353 150.169 139.78C149.942 140.193 149.829 140.687 149.829 141.26V141.74C149.829 142.327 149.956 142.847 150.209 143.3C150.476 143.74 150.842 144.08 151.309 144.32C151.789 144.547 152.349 144.66 152.989 144.66C153.562 144.66 154.062 144.573 154.489 144.4C154.929 144.227 155.329 143.967 155.689 143.62L157.349 145.42C156.856 145.98 156.236 146.413 155.489 146.72C154.742 147.013 153.882 147.16 152.909 147.16ZM160.186 147V136.24H163.166V139.28L162.746 138.4C163.066 137.64 163.579 137.067 164.286 136.68C164.993 136.28 165.853 136.08 166.866 136.08V138.96C166.733 138.947 166.613 138.94 166.506 138.94C166.399 138.927 166.286 138.92 166.166 138.92C165.313 138.92 164.619 139.167 164.086 139.66C163.566 140.14 163.306 140.893 163.306 141.92V147H160.186ZM170.452 151.04C169.892 151.04 169.339 150.953 168.792 150.78C168.246 150.607 167.799 150.367 167.452 150.06L168.592 147.84C168.832 148.053 169.106 148.22 169.412 148.34C169.732 148.46 170.046 148.52 170.352 148.52C170.792 148.52 171.139 148.413 171.392 148.2C171.659 148 171.899 147.66 172.112 147.18L172.672 145.86L172.912 145.52L176.772 136.24H179.772L174.912 147.66C174.566 148.527 174.166 149.207 173.712 149.7C173.272 150.193 172.779 150.54 172.232 150.74C171.699 150.94 171.106 151.04 170.452 151.04ZM172.292 147.42L167.492 136.24H170.712L174.432 145.24L172.292 147.42Z" fill="white"/>
<path d="M124.606 41.8761L127.237 41.0195L129.939 49.3197L127.308 50.1763L124.606 41.8761Z" fill="white" stroke="#404CDC"/>
<path d="M120.553 51.5617L123.184 50.7051L125.886 59.0053L123.255 59.8619L120.553 51.5617Z" fill="white" stroke="#404CDC"/>
<path d="M73.9045 55.5954C73.6124 57.7093 74.2294 59.8474 75.6028 61.4803L77.6007 63.9858V87.0999H80.3675V66.1692L82.3666 67.5013C82.8317 67.8113 83.4369 67.8113 83.9019 67.5013L87.2844 65.2435L90.667 67.4983C91.132 67.8083 91.7372 67.8083 92.2023 67.4983L95.5848 65.2435L98.9673 67.4983C99.4324 67.8083 100.038 67.8083 100.503 67.4983L103.885 65.2435L107.268 67.4983C107.733 67.8083 108.338 67.8083 108.803 67.4983L112.185 65.2435L114.952 67.0876V109.235H84.5181V112.002H123.252C125.086 111.999 126.844 111.27 128.141 109.974C129.437 108.677 130.167 106.919 130.169 105.085V63.5841C130.166 63.2796 130.061 62.9856 129.872 62.7473L137.866 41.4639C138.942 38.6052 138.548 35.4005 136.812 32.8871C135.164 30.4489 132.408 28.9913 129.465 29C127.633 29.0173 125.849 29.5898 124.348 30.6422C122.848 31.6946 121.702 33.1773 121.062 34.8948L118.894 40.669L116.335 38.111V33.15C116.335 32.7831 116.19 32.4311 115.93 32.1717C115.671 31.9124 115.319 31.7666 114.952 31.7666H99.7351C98.9711 31.7666 98.3517 32.386 98.3517 33.15V35.524C97.5945 34.8373 96.6181 34.442 95.5966 34.4068C94.5752 34.3722 93.5747 34.7008 92.7725 35.3344V33.1501C92.7725 31.6852 91.9913 30.3315 90.7221 29.599C89.4536 28.8666 87.8906 28.8666 86.622 29.599C85.3535 30.3315 84.5716 31.6852 84.5716 33.1501V35.3357C83.8151 34.7082 82.8616 34.3655 81.8784 34.3673C80.7365 34.3648 79.6421 34.8256 78.846 35.6445C78.0562 36.4578 77.6127 37.5459 77.6084 38.6792C77.6041 39.813 78.0395 40.9043 78.8226 41.7245L80.1102 43.0541V43.0535C79.6415 43.2684 79.216 43.5673 78.8541 43.9348L78.846 43.9403L78.8325 43.9539C78.5101 44.2856 78.2439 44.6666 78.0438 45.0829L76.4665 42.171L74.0332 43.4876L77.6108 50.0908C77.4503 50.1822 77.2897 50.2705 77.1378 50.3743C77.081 50.4132 77.0315 50.457 76.976 50.496L71.6223 45.5634L69.7461 47.5983L75.0641 52.5013V52.5007C74.4533 53.4351 74.0574 54.4924 73.9049 55.5978L73.9045 55.5954ZM103.117 62.4306L99.734 64.6884L96.3514 62.4336C95.8864 62.1236 95.2812 62.1236 94.8162 62.4336L91.4659 64.668C91.4578 64.5297 91.4338 64.4093 91.4338 64.2765V64.2759C91.4282 62.2971 92.3663 60.4339 93.9591 59.2599C95.5524 58.0858 97.6102 57.7419 99.4987 58.3335C101.387 58.9251 102.881 60.382 103.519 62.2551C103.377 62.2922 103.241 62.3515 103.117 62.4305L103.117 62.4306ZM106.651 63.7646L106.624 63.7467C106.458 60.8384 104.891 58.1922 102.422 56.6471C99.9533 55.1025 96.8882 54.8512 94.2005 55.9733V46.9814H106.651L106.651 63.7646ZM127.401 105.082C127.401 106.183 126.964 107.239 126.186 108.017C125.408 108.795 124.352 109.232 123.251 109.232H117.718V67.0877L120.485 65.2411L123.867 67.496C124.332 67.806 124.937 67.806 125.402 67.496L127.402 66.1669L127.401 105.082ZM123.651 35.8632C124.092 34.6726 124.883 33.643 125.921 32.9106C126.958 32.1787 128.194 31.7786 129.464 31.7631C131.497 31.7594 133.399 32.7673 134.537 34.4527C135.758 36.2215 136.034 38.4768 135.275 40.4883L126.709 63.3036L124.634 64.687L121.252 62.4322C120.787 62.1221 120.182 62.1221 119.717 62.4322L116.334 64.687L113.527 62.8151L123.651 35.8632ZM117.824 43.5088L110.483 63.0514L109.417 63.7622V46.1689L114.951 40.6355L117.824 43.5088ZM101.118 34.5298H113.568V37.2966H101.118V34.5298ZM100.307 40.0633H111.612L107.461 44.2134H96.1567L100.307 40.0633ZM80.8195 37.5813C81.0974 37.2954 81.4791 37.1336 81.878 37.1336C82.2769 37.1336 82.6586 37.2954 82.9365 37.5813L84.9671 39.6564C85.3618 40.059 85.9608 40.1819 86.4821 39.967C87.0027 39.7527 87.3417 39.2432 87.338 38.68V33.1465C87.3213 32.7821 87.4547 32.427 87.7067 32.1633C87.9587 31.8996 88.307 31.7508 88.672 31.7508C89.0364 31.7508 89.3853 31.8996 89.6373 32.1633C89.8886 32.427 90.022 32.7821 90.0053 33.1465V38.68C90.0059 39.2413 90.3456 39.7465 90.8656 39.959C91.385 40.1714 91.9816 40.0485 92.375 39.6483L94.413 37.5733C94.996 36.9989 95.9323 36.9989 96.5159 37.5733C97.1168 38.1884 97.1168 39.1715 96.5159 39.7867L92.4406 43.9368L92.4819 43.9781L91.8397 44.6204C91.7285 44.7347 91.6383 44.8687 91.5729 45.0144C91.5537 45.057 91.5426 45.1003 91.5272 45.1447C91.4858 45.2621 91.4605 45.385 91.4525 45.5097C91.4525 45.54 91.4358 45.5653 91.4358 45.5956V57.7983C91.1208 58.099 90.8287 58.4227 90.5619 58.7667L87.9484 53.2054C86.9843 51.2859 85.2403 49.8748 83.1622 49.3319C82.6781 49.2072 82.1828 49.1318 81.6831 49.1077L81.3293 48.6927C81.0526 48.3759 80.8439 48.1283 80.8105 48.0937C80.4523 47.7194 80.2979 47.1951 80.3955 46.6869C80.4468 46.3984 80.5795 46.1304 80.7784 45.9149L80.8031 45.8914L80.8377 45.8544H80.8383C81.3392 45.3634 82.1155 45.2905 82.6985 45.6796C83.2858 46.0724 84.0738 45.96 84.5271 45.419C84.981 44.8786 84.9551 44.0825 84.4666 43.573L80.8105 39.799C80.2164 39.1777 80.2207 38.1976 80.8198 37.5814L80.8195 37.5813ZM76.646 55.9714C76.8263 54.6306 77.5692 53.4295 78.6883 52.6692C79.7981 51.9182 81.1771 51.6804 82.474 52.0164C83.7715 52.353 84.8616 53.2306 85.4668 54.4261L88.9932 61.9365H88.9926C88.9055 62.2601 88.837 62.5887 88.7869 62.9203L88.0582 62.4337L88.0576 62.433C87.5925 62.123 86.9867 62.123 86.5223 62.433L83.1342 64.6866L80.0661 62.6394L79.7703 62.267L83.3369 59.51L81.6435 57.3213L78.0467 60.1035L77.7392 59.72C76.8591 58.6825 76.4614 57.3194 76.6461 55.9713L76.646 55.9714Z" fill="white" stroke="#404CDC"/>
<path d="M63.9535 108.551C64.4691 109.59 65.2652 110.465 66.2521 111.074C67.2389 111.685 68.3771 112.006 69.5369 112.001C70.5059 112 71.4613 111.774 72.3283 111.343L73.4504 110.781L74.5738 111.342V111.343C75.4409 111.775 76.3956 112 77.3639 112.001C78.5237 112.006 79.6619 111.685 80.6488 111.074C81.6356 110.465 82.4316 109.59 82.9474 108.551L83.4303 107.583H83.4297C85.0496 104.333 85.8957 100.752 85.9006 97.1203C85.8982 95.1978 85.1336 93.3537 83.7737 91.9944C82.4144 90.6345 80.5703 89.8698 78.6478 89.8675C77.2978 89.8712 75.9763 90.2547 74.8337 90.9742V89.8675C74.8337 88.4001 74.2507 86.9926 73.2132 85.9545C72.175 84.917 70.7675 84.334 69.3002 84.334V87.1007C70.0339 87.1007 70.7379 87.3922 71.2567 87.911C71.7754 88.4297 72.0669 89.1338 72.0669 89.8675V90.9742C70.9244 90.2547 69.6028 89.8712 68.2528 89.8675C66.3303 89.8699 64.4862 90.6345 63.1269 91.9944C61.767 93.3537 61.0024 95.1978 61 97.1203C61.0049 100.753 61.8504 104.335 63.4709 107.586L63.9535 108.551ZM68.253 92.6336C69.4436 92.6305 70.5862 93.1035 71.4254 93.9478L72.4728 94.9952H72.4722C73.0125 95.5349 73.8883 95.5349 74.4286 94.9952L75.4761 93.9478H75.4754C76.3172 93.1066 77.4578 92.6342 78.6479 92.6342C79.8373 92.6342 80.9786 93.1066 81.8196 93.9478C82.6607 94.7889 83.1338 95.9302 83.1338 97.1195C83.1301 100.323 82.3847 103.482 80.9551 106.348L80.4721 107.316C80.185 107.894 79.7409 108.38 79.1919 108.719C78.6422 109.058 78.0092 109.236 77.3639 109.234C76.8248 109.233 76.2931 109.107 75.8101 108.867L74.0685 107.996C73.6794 107.801 73.2212 107.801 72.8321 107.996L71.0918 108.867C70.6082 109.107 70.0765 109.233 69.5367 109.234C68.8907 109.236 68.2571 109.057 67.7081 108.717C67.1585 108.378 66.7157 107.891 66.4285 107.313L65.9456 106.344C64.5165 103.479 63.7711 100.322 63.7668 97.1195C63.768 95.93 64.2411 94.79 65.0822 93.9488C65.9234 93.1077 67.0634 92.6346 68.2529 92.6334L68.253 92.6336Z" fill="white" stroke="#404CDC"/>
</svg>
