<svg width="200" height="180" viewBox="0 0 200 180" fill="none" xmlns="http://www.w3.org/2000/svg">
<path d="M0 0H170C186.569 0 200 13.4315 200 30V180H30C13.4315 180 0 166.569 0 150V0Z" fill="#142357"/>
<path d="M23.66 139.3H30.38V141.9H23.66V139.3ZM23.9 147H20.66V133H31.24V135.6H23.9V147ZM38.0795 147.16C36.9329 147.16 35.9129 146.92 35.0195 146.44C34.1395 145.96 33.4395 145.307 32.9195 144.48C32.4129 143.64 32.1595 142.687 32.1595 141.62C32.1595 140.54 32.4129 139.587 32.9195 138.76C33.4395 137.92 34.1395 137.267 35.0195 136.8C35.9129 136.32 36.9329 136.08 38.0795 136.08C39.2129 136.08 40.2262 136.32 41.1195 136.8C42.0129 137.267 42.7129 137.913 43.2195 138.74C43.7262 139.567 43.9795 140.527 43.9795 141.62C43.9795 142.687 43.7262 143.64 43.2195 144.48C42.7129 145.307 42.0129 145.96 41.1195 146.44C40.2262 146.92 39.2129 147.16 38.0795 147.16ZM38.0795 144.6C38.5995 144.6 39.0662 144.48 39.4795 144.24C39.8929 144 40.2195 143.66 40.4595 143.22C40.6995 142.767 40.8195 142.233 40.8195 141.62C40.8195 140.993 40.6995 140.46 40.4595 140.02C40.2195 139.58 39.8929 139.24 39.4795 139C39.0662 138.76 38.5995 138.64 38.0795 138.64C37.5595 138.64 37.0929 138.76 36.6795 139C36.2662 139.24 35.9329 139.58 35.6795 140.02C35.4395 140.46 35.3195 140.993 35.3195 141.62C35.3195 142.233 35.4395 142.767 35.6795 143.22C35.9329 143.66 36.2662 144 36.6795 144.24C37.0929 144.48 37.5595 144.6 38.0795 144.6ZM51.185 147.16C50.0383 147.16 49.0183 146.92 48.125 146.44C47.245 145.96 46.545 145.307 46.025 144.48C45.5183 143.64 45.265 142.687 45.265 141.62C45.265 140.54 45.5183 139.587 46.025 138.76C46.545 137.92 47.245 137.267 48.125 136.8C49.0183 136.32 50.0383 136.08 51.185 136.08C52.3183 136.08 53.3317 136.32 54.225 136.8C55.1183 137.267 55.8183 137.913 56.325 138.74C56.8317 139.567 57.085 140.527 57.085 141.62C57.085 142.687 56.8317 143.64 56.325 144.48C55.8183 145.307 55.1183 145.96 54.225 146.44C53.3317 146.92 52.3183 147.16 51.185 147.16ZM51.185 144.6C51.705 144.6 52.1717 144.48 52.585 144.24C52.9983 144 53.325 143.66 53.565 143.22C53.805 142.767 53.925 142.233 53.925 141.62C53.925 140.993 53.805 140.46 53.565 140.02C53.325 139.58 52.9983 139.24 52.585 139C52.1717 138.76 51.705 138.64 51.185 138.64C50.665 138.64 50.1983 138.76 49.785 139C49.3717 139.24 49.0383 139.58 48.785 140.02C48.545 140.46 48.425 140.993 48.425 141.62C48.425 142.233 48.545 142.767 48.785 143.22C49.0383 143.66 49.3717 144 49.785 144.24C50.1983 144.48 50.665 144.6 51.185 144.6ZM63.7905 147.16C62.7771 147.16 61.8638 146.933 61.0505 146.48C60.2371 146.013 59.5905 145.367 59.1105 144.54C58.6438 143.713 58.4105 142.74 58.4105 141.62C58.4105 140.487 58.6438 139.507 59.1105 138.68C59.5905 137.853 60.2371 137.213 61.0505 136.76C61.8638 136.307 62.7771 136.08 63.7905 136.08C64.6971 136.08 65.4905 136.28 66.1705 136.68C66.8505 137.08 67.3771 137.687 67.7505 138.5C68.1238 139.313 68.3105 140.353 68.3105 141.62C68.3105 142.873 68.1305 143.913 67.7705 144.74C67.4105 145.553 66.8905 146.16 66.2105 146.56C65.5438 146.96 64.7371 147.16 63.7905 147.16ZM64.3305 144.6C64.8371 144.6 65.2971 144.48 65.7105 144.24C66.1238 144 66.4505 143.66 66.6905 143.22C66.9438 142.767 67.0705 142.233 67.0705 141.62C67.0705 140.993 66.9438 140.46 66.6905 140.02C66.4505 139.58 66.1238 139.24 65.7105 139C65.2971 138.76 64.8371 138.64 64.3305 138.64C63.8105 138.64 63.3438 138.76 62.9305 139C62.5171 139.24 62.1838 139.58 61.9305 140.02C61.6905 140.46 61.5705 140.993 61.5705 141.62C61.5705 142.233 61.6905 142.767 61.9305 143.22C62.1838 143.66 62.5171 144 62.9305 144.24C63.3438 144.48 63.8105 144.6 64.3305 144.6ZM67.1505 147V144.8L67.2105 141.6L67.0105 138.42V132.16H70.1305V147H67.1505ZM83.3022 147.24C82.2755 147.24 81.3622 147.073 80.5622 146.74C79.7622 146.407 79.1289 145.953 78.6622 145.38C78.1955 144.807 77.9622 144.147 77.9622 143.4C77.9622 142.707 78.1155 142.087 78.4222 141.54C78.7289 140.98 79.2155 140.46 79.8822 139.98C80.5489 139.487 81.3955 139.007 82.4222 138.54C83.1689 138.193 83.7555 137.887 84.1822 137.62C84.6089 137.353 84.9089 137.1 85.0822 136.86C85.2555 136.607 85.3422 136.353 85.3422 136.1C85.3422 135.753 85.2222 135.473 84.9822 135.26C84.7555 135.047 84.4155 134.94 83.9622 134.94C83.4822 134.94 83.1089 135.06 82.8422 135.3C82.5755 135.54 82.4422 135.847 82.4422 136.22C82.4422 136.42 82.4822 136.62 82.5622 136.82C82.6422 137.007 82.7955 137.227 83.0222 137.48C83.2489 137.72 83.5689 138.033 83.9822 138.42L91.3622 145.26L89.6622 147.24L81.5222 139.68C81.0555 139.253 80.6822 138.853 80.4022 138.48C80.1222 138.107 79.9155 137.74 79.7822 137.38C79.6622 137.02 79.6022 136.647 79.6022 136.26C79.6022 135.58 79.7822 134.98 80.1422 134.46C80.5022 133.94 81.0089 133.54 81.6622 133.26C82.3155 132.967 83.0822 132.82 83.9622 132.82C84.7755 132.82 85.4755 132.953 86.0622 133.22C86.6622 133.473 87.1289 133.84 87.4622 134.32C87.8089 134.8 87.9822 135.373 87.9822 136.04C87.9822 136.627 87.8355 137.167 87.5422 137.66C87.2489 138.14 86.7889 138.593 86.1622 139.02C85.5489 139.447 84.7422 139.88 83.7422 140.32C83.0622 140.627 82.5222 140.927 82.1222 141.22C81.7355 141.5 81.4555 141.787 81.2822 142.08C81.1089 142.373 81.0222 142.7 81.0222 143.06C81.0222 143.393 81.1222 143.693 81.3222 143.96C81.5355 144.227 81.8289 144.433 82.2022 144.58C82.5755 144.727 83.0155 144.8 83.5222 144.8C84.3355 144.8 85.0822 144.613 85.7622 144.24C86.4422 143.853 87.0155 143.287 87.4822 142.54C87.9622 141.78 88.3022 140.86 88.5022 139.78L91.0022 140.56C90.7222 141.92 90.2222 143.1 89.5022 144.1C88.7822 145.1 87.8955 145.873 86.8422 146.42C85.7889 146.967 84.6089 147.24 83.3022 147.24ZM105.877 147.24C104.77 147.24 103.75 147.067 102.817 146.72C101.897 146.36 101.09 145.853 100.397 145.2C99.717 144.547 99.1837 143.78 98.797 142.9C98.4237 142.02 98.237 141.053 98.237 140C98.237 138.947 98.4237 137.98 98.797 137.1C99.1837 136.22 99.7237 135.453 100.417 134.8C101.11 134.147 101.924 133.647 102.857 133.3C103.79 132.94 104.817 132.76 105.937 132.76C107.177 132.76 108.29 132.967 109.277 133.38C110.277 133.793 111.117 134.393 111.797 135.18L109.717 137.1C109.21 136.567 108.657 136.173 108.057 135.92C107.457 135.653 106.804 135.52 106.097 135.52C105.417 135.52 104.797 135.627 104.237 135.84C103.677 136.053 103.19 136.36 102.777 136.76C102.377 137.16 102.064 137.633 101.837 138.18C101.624 138.727 101.517 139.333 101.517 140C101.517 140.653 101.624 141.253 101.837 141.8C102.064 142.347 102.377 142.827 102.777 143.24C103.19 143.64 103.67 143.947 104.217 144.16C104.777 144.373 105.39 144.48 106.057 144.48C106.697 144.48 107.317 144.38 107.917 144.18C108.53 143.967 109.124 143.613 109.697 143.12L111.537 145.46C110.777 146.033 109.89 146.473 108.877 146.78C107.877 147.087 106.877 147.24 105.877 147.24ZM108.577 145.04V139.78H111.537V145.46L108.577 145.04ZM114.327 147V136.24H117.307V139.28L116.887 138.4C117.207 137.64 117.72 137.067 118.427 136.68C119.133 136.28 119.993 136.08 121.007 136.08V138.96C120.873 138.947 120.753 138.94 120.647 138.94C120.54 138.927 120.427 138.92 120.307 138.92C119.453 138.92 118.76 139.167 118.227 139.66C117.707 140.14 117.447 140.893 117.447 141.92V147H114.327ZM127.904 147.16C126.757 147.16 125.737 146.92 124.844 146.44C123.964 145.96 123.264 145.307 122.744 144.48C122.237 143.64 121.984 142.687 121.984 141.62C121.984 140.54 122.237 139.587 122.744 138.76C123.264 137.92 123.964 137.267 124.844 136.8C125.737 136.32 126.757 136.08 127.904 136.08C129.037 136.08 130.05 136.32 130.944 136.8C131.837 137.267 132.537 137.913 133.044 138.74C133.55 139.567 133.804 140.527 133.804 141.62C133.804 142.687 133.55 143.64 133.044 144.48C132.537 145.307 131.837 145.96 130.944 146.44C130.05 146.92 129.037 147.16 127.904 147.16ZM127.904 144.6C128.424 144.6 128.89 144.48 129.304 144.24C129.717 144 130.044 143.66 130.284 143.22C130.524 142.767 130.644 142.233 130.644 141.62C130.644 140.993 130.524 140.46 130.284 140.02C130.044 139.58 129.717 139.24 129.304 139C128.89 138.76 128.424 138.64 127.904 138.64C127.384 138.64 126.917 138.76 126.504 139C126.09 139.24 125.757 139.58 125.504 140.02C125.264 140.46 125.144 140.993 125.144 141.62C125.144 142.233 125.264 142.767 125.504 143.22C125.757 143.66 126.09 144 126.504 144.24C126.917 144.48 127.384 144.6 127.904 144.6ZM141.089 147.16C139.929 147.16 138.896 146.927 137.989 146.46C137.083 145.98 136.369 145.32 135.849 144.48C135.343 143.64 135.089 142.687 135.089 141.62C135.089 140.54 135.343 139.587 135.849 138.76C136.369 137.92 137.083 137.267 137.989 136.8C138.896 136.32 139.929 136.08 141.089 136.08C142.223 136.08 143.209 136.32 144.049 136.8C144.889 137.267 145.509 137.94 145.909 138.82L143.489 140.12C143.209 139.613 142.856 139.24 142.429 139C142.016 138.76 141.563 138.64 141.069 138.64C140.536 138.64 140.056 138.76 139.629 139C139.203 139.24 138.863 139.58 138.609 140.02C138.369 140.46 138.249 140.993 138.249 141.62C138.249 142.247 138.369 142.78 138.609 143.22C138.863 143.66 139.203 144 139.629 144.24C140.056 144.48 140.536 144.6 141.069 144.6C141.563 144.6 142.016 144.487 142.429 144.26C142.856 144.02 143.209 143.64 143.489 143.12L145.909 144.44C145.509 145.307 144.889 145.98 144.049 146.46C143.209 146.927 142.223 147.16 141.089 147.16ZM152.909 147.16C151.682 147.16 150.602 146.92 149.669 146.44C148.749 145.96 148.036 145.307 147.529 144.48C147.022 143.64 146.769 142.687 146.769 141.62C146.769 140.54 147.016 139.587 147.509 138.76C148.016 137.92 148.702 137.267 149.569 136.8C150.436 136.32 151.416 136.08 152.509 136.08C153.562 136.08 154.509 136.307 155.349 136.76C156.202 137.2 156.876 137.84 157.369 138.68C157.862 139.507 158.109 140.5 158.109 141.66C158.109 141.78 158.102 141.92 158.089 142.08C158.076 142.227 158.062 142.367 158.049 142.5H149.309V140.68H156.409L155.209 141.22C155.209 140.66 155.096 140.173 154.869 139.76C154.642 139.347 154.329 139.027 153.929 138.8C153.529 138.56 153.062 138.44 152.529 138.44C151.996 138.44 151.522 138.56 151.109 138.8C150.709 139.027 150.396 139.353 150.169 139.78C149.942 140.193 149.829 140.687 149.829 141.26V141.74C149.829 142.327 149.956 142.847 150.209 143.3C150.476 143.74 150.842 144.08 151.309 144.32C151.789 144.547 152.349 144.66 152.989 144.66C153.562 144.66 154.062 144.573 154.489 144.4C154.929 144.227 155.329 143.967 155.689 143.62L157.349 145.42C156.856 145.98 156.236 146.413 155.489 146.72C154.742 147.013 153.882 147.16 152.909 147.16ZM160.186 147V136.24H163.166V139.28L162.746 138.4C163.066 137.64 163.579 137.067 164.286 136.68C164.993 136.28 165.853 136.08 166.866 136.08V138.96C166.733 138.947 166.613 138.94 166.506 138.94C166.399 138.927 166.286 138.92 166.166 138.92C165.313 138.92 164.619 139.167 164.086 139.66C163.566 140.14 163.306 140.893 163.306 141.92V147H160.186ZM170.452 151.04C169.892 151.04 169.339 150.953 168.792 150.78C168.246 150.607 167.799 150.367 167.452 150.06L168.592 147.84C168.832 148.053 169.106 148.22 169.412 148.34C169.732 148.46 170.046 148.52 170.352 148.52C170.792 148.52 171.139 148.413 171.392 148.2C171.659 148 171.899 147.66 172.112 147.18L172.672 145.86L172.912 145.52L176.772 136.24H179.772L174.912 147.66C174.566 148.527 174.166 149.207 173.712 149.7C173.272 150.193 172.779 150.54 172.232 150.74C171.699 150.94 171.106 151.04 170.452 151.04ZM172.292 147.42L167.492 136.24H170.712L174.432 145.24L172.292 147.42Z" fill="white"/>
<path d="M124.606 50.5153L127.237 49.6387L129.939 58.1334L127.308 59.0101L124.606 50.5153Z" fill="white" stroke="#0F52BA"/>
<path d="M120.553 60.4255L123.184 59.5488L125.886 68.0436L123.255 68.9202L120.553 60.4255Z" fill="white" stroke="#0F52BA"/>
<path d="M73.9045 64.5546C73.6124 66.7181 74.2294 68.9064 75.6028 70.5775L77.6007 73.1418V96.7976H80.3675V75.3763L82.3666 76.7396C82.8317 77.0569 83.4369 77.0569 83.9019 76.7396L87.2844 74.4289L90.667 76.7365C91.132 77.0538 91.7372 77.0538 92.2023 76.7365L95.5848 74.4289L98.9673 76.7365C99.4324 77.0538 100.038 77.0538 100.503 76.7365L103.885 74.4289L107.268 76.7365C107.733 77.0538 108.338 77.0538 108.803 76.7365L112.185 74.4289L114.952 76.3162V119.452H84.5181V122.283H123.252C125.086 122.281 126.844 121.534 128.141 120.208C129.437 118.88 130.167 117.081 130.169 115.204V72.7306C130.166 72.419 130.061 72.1181 129.872 71.8741L137.866 50.092C138.942 47.1663 138.548 43.8865 136.812 41.3141C135.164 38.8188 132.408 37.3271 129.465 37.336C127.633 37.3537 125.849 37.9396 124.348 39.0166C122.848 40.0936 121.702 41.6112 121.062 43.3689L118.894 49.2785L116.335 46.6605V41.5832C116.335 41.2078 116.19 40.8475 115.93 40.582C115.671 40.3166 115.319 40.1674 114.952 40.1674H99.7351C98.9711 40.1674 98.3517 40.8013 98.3517 41.5832V44.0128C97.5945 43.31 96.6181 42.9055 95.5966 42.8695C94.5752 42.8341 93.5747 43.1703 92.7725 43.8188V41.5833C92.7725 40.0841 91.9913 38.6987 90.7221 37.949C89.4536 37.1994 87.8906 37.1994 86.622 37.949C85.3535 38.6986 84.5716 40.084 84.5716 41.5833V43.8201C83.8151 43.1779 82.8616 42.8272 81.8784 42.8291C80.7365 42.8265 79.6421 43.298 78.846 44.1361C78.0562 44.9685 77.6127 46.0821 77.6084 47.242C77.6041 48.4024 78.0395 49.5192 78.8226 50.3586L80.1102 51.7195V51.7188C79.6415 51.9388 79.216 52.2447 78.8541 52.6208L78.846 52.6264L78.8325 52.6403C78.5101 52.9798 78.2439 53.3697 78.0438 53.7957L76.4665 50.8156L74.0332 52.1631L77.6108 58.9211C77.4503 59.0146 77.2897 59.105 77.1378 59.2112C77.081 59.251 77.0315 59.2959 76.976 59.3357L71.6223 54.2876L69.7461 56.3701L75.0641 61.388V61.3874C74.4533 62.3437 74.0574 63.4258 73.9049 64.5571L73.9045 64.5546ZM103.117 71.5501L99.734 73.8608L96.3514 71.5532C95.8864 71.2359 95.2812 71.2359 94.8162 71.5532L91.4659 73.8399C91.4578 73.6984 91.4338 73.5751 91.4338 73.4392V73.4386C91.4282 71.4134 92.3663 69.5066 93.9591 68.305C95.5524 67.1035 97.6102 66.7514 99.4987 67.3569C101.387 67.9624 102.881 69.4534 103.519 71.3705C103.377 71.4084 103.241 71.4691 103.117 71.55L103.117 71.5501ZM106.651 72.9153L106.624 72.897C106.458 69.9206 104.891 67.2123 102.422 65.631C99.9533 64.0502 96.8882 63.793 94.2005 64.9414V55.7388H106.651L106.651 72.9153ZM127.401 115.201C127.401 116.328 126.964 117.409 126.186 118.205C125.408 119.001 124.352 119.449 123.251 119.449H117.718V76.3164L120.485 74.4265L123.867 76.7341C124.332 77.0514 124.937 77.0514 125.402 76.7341L127.402 75.374L127.401 115.201ZM123.651 44.36C124.092 43.1414 124.883 42.0878 125.921 41.3382C126.958 40.5892 128.194 40.1796 129.464 40.1638C131.497 40.16 133.399 41.1915 134.537 42.9164C135.758 44.7267 136.034 47.0349 135.275 49.0935L126.709 72.4435L124.634 73.8593L121.252 71.5517C120.787 71.2344 120.182 71.2344 119.717 71.5517L116.334 73.8593L113.527 71.9435L123.651 44.36ZM117.824 52.1847L110.483 72.1854L109.417 72.9129V54.9073L114.951 49.2441L117.824 52.1847ZM101.118 42.9954H113.568V45.827H101.118V42.9954ZM100.307 48.6585H111.612L107.461 52.9059H96.1567L100.307 48.6585ZM80.8195 46.1184C81.0974 45.8257 81.4791 45.6601 81.878 45.6601C82.2769 45.6601 82.6586 45.8257 82.9365 46.1184L84.9671 48.242C85.3618 48.6541 85.9608 48.7799 86.4821 48.56C87.0027 48.3406 87.3417 47.8192 87.338 47.2428V41.5796C87.3213 41.2067 87.4547 40.8433 87.7067 40.5734C87.9587 40.3035 88.307 40.1512 88.672 40.1512C89.0364 40.1512 89.3853 40.3035 89.6373 40.5734C89.8886 40.8433 90.022 41.2067 90.0053 41.5796V47.2428C90.0059 47.8173 90.3456 48.3343 90.8656 48.5517C91.385 48.7692 91.9816 48.6434 92.375 48.2338L94.413 46.1101C94.996 45.5223 95.9323 45.5223 96.5159 46.1101C97.1168 46.7397 97.1168 47.7458 96.5159 48.3754L92.4406 52.6228L92.4819 52.6651L91.8397 53.3225C91.7285 53.4394 91.6383 53.5765 91.5729 53.7257C91.5537 53.7693 91.5426 53.8136 91.5272 53.8591C91.4858 53.9792 91.4605 54.1049 91.4525 54.2326C91.4525 54.2636 91.4358 54.2895 91.4358 54.3205V66.8092C91.1208 67.117 90.8287 67.4482 90.5619 67.8002L87.9484 62.1086C86.9843 60.1441 85.2403 58.7 83.1622 58.1444C82.6781 58.0167 82.1828 57.9396 81.6831 57.915L81.3293 57.4902C81.0526 57.166 80.8439 56.9125 80.8105 56.8771C80.4523 56.4941 80.2979 55.9575 80.3955 55.4373C80.4468 55.1422 80.5795 54.8679 80.7784 54.6473L80.8031 54.6232L80.8377 54.5853H80.8383C81.3392 54.0828 82.1155 54.0083 82.6985 54.4064C83.2858 54.8084 84.0738 54.6934 84.5271 54.1397C84.981 53.5867 84.9551 52.772 84.4666 52.2505L80.8105 48.3881C80.2164 47.7522 80.2207 46.7491 80.8198 46.1184L80.8195 46.1184ZM76.646 64.9395C76.8263 63.5673 77.5692 62.338 78.6883 61.5599C79.7981 60.7913 81.1771 60.548 82.474 60.8918C83.7715 61.2363 84.8616 62.1344 85.4668 63.358L88.9932 71.0444H88.9926C88.9055 71.3756 88.837 71.7118 88.7869 72.0512L88.0582 71.5532L88.0576 71.5526C87.5925 71.2353 86.9867 71.2353 86.5223 71.5526L83.1342 73.8589L80.0661 71.7637L79.7703 71.3826L83.3369 68.561L81.6435 66.321L78.0467 69.1685L77.7392 68.7759C76.8591 67.7141 76.4614 66.3191 76.6461 64.9394L76.646 64.9395Z" fill="white" stroke="#0F52BA"/>
<path d="M63.9535 118.751C64.4691 119.815 65.2652 120.71 66.2521 121.334C67.2389 121.958 68.3771 122.287 69.5369 122.283C70.5059 122.281 71.4613 122.05 72.3283 121.609L73.4504 121.034L74.5738 121.608V121.609C75.4409 122.051 76.3956 122.281 77.3639 122.283C78.5237 122.287 79.6619 121.958 80.6488 121.334C81.6356 120.71 82.4316 119.815 82.9474 118.751L83.4303 117.76H83.4297C85.0496 114.434 85.8957 110.769 85.9006 107.053C85.8982 105.085 85.1336 103.198 83.7737 101.807C82.4144 100.415 80.5703 99.6324 78.6478 99.63C77.2978 99.6338 75.9763 100.026 74.8337 100.763V99.63C74.8337 98.1282 74.2507 96.6877 73.2132 95.6253C72.175 94.5635 70.7675 93.9668 69.3002 93.9668V96.7984C70.0339 96.7984 70.7379 97.0967 71.2567 97.6276C71.7754 98.1585 72.0669 98.8791 72.0669 99.63V100.763C70.9244 100.026 69.6028 99.6337 68.2528 99.63C66.3303 99.6325 64.4862 100.415 63.1269 101.807C61.767 103.198 61.0024 105.085 61 107.053C61.0049 110.771 61.8504 114.436 63.4709 117.763L63.9535 118.751ZM68.253 102.461C69.4436 102.458 70.5862 102.942 71.4254 103.806L72.4728 104.878H72.4722C73.0125 105.43 73.8883 105.43 74.4286 104.878L75.4761 103.806H75.4754C76.3172 102.945 77.4578 102.462 78.6479 102.462C79.8373 102.462 80.9786 102.945 81.8196 103.806C82.6607 104.667 83.1338 105.835 83.1338 107.052C83.1301 110.331 82.3847 113.563 80.9551 116.497L80.4721 117.488C80.185 118.079 79.7409 118.577 79.1919 118.923C78.6422 119.27 78.0092 119.453 77.3639 119.45C76.8248 119.45 76.2931 119.321 75.8101 119.075L74.0685 118.183C73.6794 117.984 73.2212 117.984 72.8321 118.183L71.0918 119.075C70.6082 119.321 70.0765 119.449 69.5367 119.45C68.8907 119.452 68.2571 119.269 67.7081 118.921C67.1585 118.574 66.7157 118.076 66.4285 117.484L65.9456 116.493C64.5165 113.56 63.7711 110.329 63.7668 107.052C63.768 105.835 64.2411 104.668 65.0822 103.807C65.9234 102.946 67.0634 102.462 68.2529 102.461L68.253 102.461Z" fill="white" stroke="#0F52BA"/>
</svg>
