<svg width="220" height="202" viewBox="0 0 220 202" fill="none" xmlns="http://www.w3.org/2000/svg">
<g filter="url(#filter0_d_754_2902)">
<path d="M0 0H170C186.569 0 200 13.4315 200 30V180H30C13.4315 180 0 166.569 0 150V0Z" fill="white"/>
<path d="M43.4182 120H46.6582V134H43.4182V120ZM37.0582 134H33.8182V120H37.0582V134ZM43.6582 128.26H36.8182V125.52H43.6582V128.26ZM55.0905 134.16C53.8639 134.16 52.7839 133.92 51.8505 133.44C50.9305 132.96 50.2172 132.307 49.7105 131.48C49.2039 130.64 48.9505 129.687 48.9505 128.62C48.9505 127.54 49.1972 126.587 49.6905 125.76C50.1972 124.92 50.8839 124.267 51.7505 123.8C52.6172 123.32 53.5972 123.08 54.6905 123.08C55.7439 123.08 56.6905 123.307 57.5305 123.76C58.3839 124.2 59.0572 124.84 59.5505 125.68C60.0439 126.507 60.2905 127.5 60.2905 128.66C60.2905 128.78 60.2839 128.92 60.2705 129.08C60.2572 129.227 60.2439 129.367 60.2305 129.5H51.4905V127.68H58.5905L57.3905 128.22C57.3905 127.66 57.2772 127.173 57.0505 126.76C56.8239 126.347 56.5105 126.027 56.1105 125.8C55.7105 125.56 55.2439 125.44 54.7105 125.44C54.1772 125.44 53.7039 125.56 53.2905 125.8C52.8905 126.027 52.5772 126.353 52.3505 126.78C52.1239 127.193 52.0105 127.687 52.0105 128.26V128.74C52.0105 129.327 52.1372 129.847 52.3905 130.3C52.6572 130.74 53.0239 131.08 53.4905 131.32C53.9705 131.547 54.5305 131.66 55.1705 131.66C55.7439 131.66 56.2439 131.573 56.6705 131.4C57.1105 131.227 57.5105 130.967 57.8705 130.62L59.5305 132.42C59.0372 132.98 58.4172 133.413 57.6705 133.72C56.9239 134.013 56.0639 134.16 55.0905 134.16ZM68.6748 134V131.9L68.4748 131.44V127.68C68.4748 127.013 68.2681 126.493 67.8548 126.12C67.4548 125.747 66.8348 125.56 65.9948 125.56C65.4214 125.56 64.8548 125.653 64.2948 125.84C63.7481 126.013 63.2814 126.253 62.8948 126.56L61.7748 124.38C62.3614 123.967 63.0681 123.647 63.8948 123.42C64.7214 123.193 65.5614 123.08 66.4148 123.08C68.0548 123.08 69.3281 123.467 70.2348 124.24C71.1414 125.013 71.5948 126.22 71.5948 127.86V134H68.6748ZM65.3948 134.16C64.5548 134.16 63.8348 134.02 63.2348 133.74C62.6348 133.447 62.1748 133.053 61.8548 132.56C61.5348 132.067 61.3748 131.513 61.3748 130.9C61.3748 130.26 61.5281 129.7 61.8348 129.22C62.1548 128.74 62.6548 128.367 63.3348 128.1C64.0148 127.82 64.9014 127.68 65.9948 127.68H68.8548V129.5H66.3348C65.6014 129.5 65.0948 129.62 64.8148 129.86C64.5481 130.1 64.4148 130.4 64.4148 130.76C64.4148 131.16 64.5681 131.48 64.8748 131.72C65.1948 131.947 65.6281 132.06 66.1748 132.06C66.6948 132.06 67.1614 131.94 67.5748 131.7C67.9881 131.447 68.2881 131.08 68.4748 130.6L68.9548 132.04C68.7281 132.733 68.3148 133.26 67.7148 133.62C67.1148 133.98 66.3414 134.16 65.3948 134.16ZM74.4185 134V119.16H77.5385V134H74.4185ZM85.6349 134.16C84.3683 134.16 83.3816 133.84 82.6749 133.2C81.9683 132.547 81.6149 131.58 81.6149 130.3V120.86H84.7349V130.26C84.7349 130.713 84.8549 131.067 85.0949 131.32C85.3349 131.56 85.6616 131.68 86.0749 131.68C86.5683 131.68 86.9883 131.547 87.3349 131.28L88.1749 133.48C87.8549 133.707 87.4683 133.88 87.0149 134C86.5749 134.107 86.1149 134.16 85.6349 134.16ZM79.9549 125.88V123.48H87.4149V125.88H79.9549ZM96.4663 123.08C97.3197 123.08 98.0797 123.253 98.7463 123.6C99.4263 123.933 99.9597 124.453 100.346 125.16C100.733 125.853 100.926 126.747 100.926 127.84V134H97.8063V128.32C97.8063 127.453 97.613 126.813 97.2263 126.4C96.853 125.987 96.3197 125.78 95.6263 125.78C95.133 125.78 94.6863 125.887 94.2863 126.1C93.8997 126.3 93.593 126.613 93.3663 127.04C93.153 127.467 93.0463 128.013 93.0463 128.68V134H89.9263V119.16H93.0463V126.22L92.3463 125.32C92.733 124.6 93.2863 124.047 94.0063 123.66C94.7263 123.273 95.5463 123.08 96.4663 123.08ZM109.033 134.16C107.873 134.16 106.839 133.927 105.933 133.46C105.026 132.98 104.313 132.32 103.793 131.48C103.286 130.64 103.033 129.687 103.033 128.62C103.033 127.54 103.286 126.587 103.793 125.76C104.313 124.92 105.026 124.267 105.933 123.8C106.839 123.32 107.873 123.08 109.033 123.08C110.166 123.08 111.153 123.32 111.993 123.8C112.833 124.267 113.453 124.94 113.853 125.82L111.433 127.12C111.153 126.613 110.799 126.24 110.373 126C109.959 125.76 109.506 125.64 109.013 125.64C108.479 125.64 107.999 125.76 107.573 126C107.146 126.24 106.806 126.58 106.553 127.02C106.313 127.46 106.193 127.993 106.193 128.62C106.193 129.247 106.313 129.78 106.553 130.22C106.806 130.66 107.146 131 107.573 131.24C107.999 131.48 108.479 131.6 109.013 131.6C109.506 131.6 109.959 131.487 110.373 131.26C110.799 131.02 111.153 130.64 111.433 130.12L113.853 131.44C113.453 132.307 112.833 132.98 111.993 133.46C111.153 133.927 110.166 134.16 109.033 134.16ZM122.249 134V131.9L122.049 131.44V127.68C122.049 127.013 121.842 126.493 121.429 126.12C121.029 125.747 120.409 125.56 119.569 125.56C118.996 125.56 118.429 125.653 117.869 125.84C117.322 126.013 116.856 126.253 116.469 126.56L115.349 124.38C115.936 123.967 116.642 123.647 117.469 123.42C118.296 123.193 119.136 123.08 119.989 123.08C121.629 123.08 122.902 123.467 123.809 124.24C124.716 125.013 125.169 126.22 125.169 127.86V134H122.249ZM118.969 134.16C118.129 134.16 117.409 134.02 116.809 133.74C116.209 133.447 115.749 133.053 115.429 132.56C115.109 132.067 114.949 131.513 114.949 130.9C114.949 130.26 115.102 129.7 115.409 129.22C115.729 128.74 116.229 128.367 116.909 128.1C117.589 127.82 118.476 127.68 119.569 127.68H122.429V129.5H119.909C119.176 129.5 118.669 129.62 118.389 129.86C118.122 130.1 117.989 130.4 117.989 130.76C117.989 131.16 118.142 131.48 118.449 131.72C118.769 131.947 119.202 132.06 119.749 132.06C120.269 132.06 120.736 131.94 121.149 131.7C121.562 131.447 121.862 131.08 122.049 130.6L122.529 132.04C122.302 132.733 121.889 133.26 121.289 133.62C120.689 133.98 119.916 134.16 118.969 134.16ZM127.993 134V123.24H130.973V126.28L130.553 125.4C130.873 124.64 131.386 124.067 132.093 123.68C132.799 123.28 133.659 123.08 134.673 123.08V125.96C134.539 125.947 134.419 125.94 134.313 125.94C134.206 125.927 134.093 125.92 133.973 125.92C133.119 125.92 132.426 126.167 131.893 126.66C131.373 127.14 131.113 127.893 131.113 128.92V134H127.993ZM141.79 134.16C140.563 134.16 139.483 133.92 138.55 133.44C137.63 132.96 136.916 132.307 136.41 131.48C135.903 130.64 135.65 129.687 135.65 128.62C135.65 127.54 135.896 126.587 136.39 125.76C136.896 124.92 137.583 124.267 138.45 123.8C139.316 123.32 140.296 123.08 141.39 123.08C142.443 123.08 143.39 123.307 144.23 123.76C145.083 124.2 145.756 124.84 146.25 125.68C146.743 126.507 146.99 127.5 146.99 128.66C146.99 128.78 146.983 128.92 146.97 129.08C146.956 129.227 146.943 129.367 146.93 129.5H138.19V127.68H145.29L144.09 128.22C144.09 127.66 143.976 127.173 143.75 126.76C143.523 126.347 143.21 126.027 142.81 125.8C142.41 125.56 141.943 125.44 141.41 125.44C140.876 125.44 140.403 125.56 139.99 125.8C139.59 126.027 139.276 126.353 139.05 126.78C138.823 127.193 138.71 127.687 138.71 128.26V128.74C138.71 129.327 138.836 129.847 139.09 130.3C139.356 130.74 139.723 131.08 140.19 131.32C140.67 131.547 141.23 131.66 141.87 131.66C142.443 131.66 142.943 131.573 143.37 131.4C143.81 131.227 144.21 130.967 144.57 130.62L146.23 132.42C145.736 132.98 145.116 133.413 144.37 133.72C143.623 134.013 142.763 134.16 141.79 134.16ZM159.351 134.24C158.324 134.24 157.411 134.073 156.611 133.74C155.811 133.407 155.178 132.953 154.711 132.38C154.244 131.807 154.011 131.147 154.011 130.4C154.011 129.707 154.164 129.087 154.471 128.54C154.778 127.98 155.264 127.46 155.931 126.98C156.598 126.487 157.444 126.007 158.471 125.54C159.218 125.193 159.804 124.887 160.231 124.62C160.658 124.353 160.958 124.1 161.131 123.86C161.304 123.607 161.391 123.353 161.391 123.1C161.391 122.753 161.271 122.473 161.031 122.26C160.804 122.047 160.464 121.94 160.011 121.94C159.531 121.94 159.158 122.06 158.891 122.3C158.624 122.54 158.491 122.847 158.491 123.22C158.491 123.42 158.531 123.62 158.611 123.82C158.691 124.007 158.844 124.227 159.071 124.48C159.298 124.72 159.618 125.033 160.031 125.42L167.411 132.26L165.711 134.24L157.571 126.68C157.104 126.253 156.731 125.853 156.451 125.48C156.171 125.107 155.964 124.74 155.831 124.38C155.711 124.02 155.651 123.647 155.651 123.26C155.651 122.58 155.831 121.98 156.191 121.46C156.551 120.94 157.058 120.54 157.711 120.26C158.364 119.967 159.131 119.82 160.011 119.82C160.824 119.82 161.524 119.953 162.111 120.22C162.711 120.473 163.178 120.84 163.511 121.32C163.858 121.8 164.031 122.373 164.031 123.04C164.031 123.627 163.884 124.167 163.591 124.66C163.298 125.14 162.838 125.593 162.211 126.02C161.598 126.447 160.791 126.88 159.791 127.32C159.111 127.627 158.571 127.927 158.171 128.22C157.784 128.5 157.504 128.787 157.331 129.08C157.158 129.373 157.071 129.7 157.071 130.06C157.071 130.393 157.171 130.693 157.371 130.96C157.584 131.227 157.878 131.433 158.251 131.58C158.624 131.727 159.064 131.8 159.571 131.8C160.384 131.8 161.131 131.613 161.811 131.24C162.491 130.853 163.064 130.287 163.531 129.54C164.011 128.78 164.351 127.86 164.551 126.78L167.051 127.56C166.771 128.92 166.271 130.1 165.551 131.1C164.831 132.1 163.944 132.873 162.891 133.42C161.838 133.967 160.658 134.24 159.351 134.24ZM42.9002 158V144H46.1402V155.36H53.1602V158H42.9002ZM54.7505 158V147.24H57.8705V158H54.7505ZM56.3105 145.74C55.7372 145.74 55.2705 145.573 54.9105 145.24C54.5505 144.907 54.3705 144.493 54.3705 144C54.3705 143.507 54.5505 143.093 54.9105 142.76C55.2705 142.427 55.7372 142.26 56.3105 142.26C56.8839 142.26 57.3505 142.42 57.7105 142.74C58.0705 143.047 58.2505 143.447 58.2505 143.94C58.2505 144.46 58.0705 144.893 57.7105 145.24C57.3639 145.573 56.8972 145.74 56.3105 145.74ZM61.1462 158V147C61.1462 145.787 61.5062 144.82 62.2262 144.1C62.9462 143.367 63.9728 143 65.3062 143C65.7595 143 66.1928 143.047 66.6062 143.14C67.0328 143.233 67.3928 143.38 67.6862 143.58L66.8662 145.84C66.6928 145.72 66.4995 145.627 66.2862 145.56C66.0728 145.493 65.8462 145.46 65.6062 145.46C65.1528 145.46 64.7995 145.593 64.5462 145.86C64.3062 146.113 64.1862 146.5 64.1862 147.02V148.02L64.2662 149.36V158H61.1462ZM59.4862 149.88V147.48H66.9462V149.88H59.4862ZM73.7038 158.16C72.4772 158.16 71.3972 157.92 70.4638 157.44C69.5438 156.96 68.8305 156.307 68.3238 155.48C67.8172 154.64 67.5638 153.687 67.5638 152.62C67.5638 151.54 67.8105 150.587 68.3038 149.76C68.8105 148.92 69.4972 148.267 70.3638 147.8C71.2305 147.32 72.2105 147.08 73.3038 147.08C74.3572 147.08 75.3038 147.307 76.1438 147.76C76.9972 148.2 77.6705 148.84 78.1638 149.68C78.6572 150.507 78.9038 151.5 78.9038 152.66C78.9038 152.78 78.8972 152.92 78.8838 153.08C78.8705 153.227 78.8572 153.367 78.8438 153.5H70.1038V151.68H77.2038L76.0038 152.22C76.0038 151.66 75.8905 151.173 75.6638 150.76C75.4372 150.347 75.1238 150.027 74.7238 149.8C74.3238 149.56 73.8572 149.44 73.3238 149.44C72.7905 149.44 72.3172 149.56 71.9038 149.8C71.5038 150.027 71.1905 150.353 70.9638 150.78C70.7372 151.193 70.6238 151.687 70.6238 152.26V152.74C70.6238 153.327 70.7505 153.847 71.0038 154.3C71.2705 154.74 71.6372 155.08 72.1038 155.32C72.5838 155.547 73.1438 155.66 73.7838 155.66C74.3572 155.66 74.8572 155.573 75.2838 155.4C75.7238 155.227 76.1238 154.967 76.4838 154.62L78.1438 156.42C77.6505 156.98 77.0305 157.413 76.2838 157.72C75.5372 158.013 74.6772 158.16 73.7038 158.16ZM84.601 158.16C83.681 158.16 82.7943 158.053 81.941 157.84C81.101 157.613 80.4343 157.333 79.941 157L80.981 154.76C81.4743 155.067 82.0543 155.32 82.721 155.52C83.401 155.707 84.0677 155.8 84.721 155.8C85.441 155.8 85.9477 155.713 86.241 155.54C86.5477 155.367 86.701 155.127 86.701 154.82C86.701 154.567 86.581 154.38 86.341 154.26C86.1143 154.127 85.8077 154.027 85.421 153.96C85.0343 153.893 84.6077 153.827 84.141 153.76C83.6877 153.693 83.2277 153.607 82.761 153.5C82.2943 153.38 81.8677 153.207 81.481 152.98C81.0943 152.753 80.781 152.447 80.541 152.06C80.3143 151.673 80.201 151.173 80.201 150.56C80.201 149.88 80.3943 149.28 80.781 148.76C81.181 148.24 81.7543 147.833 82.501 147.54C83.2477 147.233 84.141 147.08 85.181 147.08C85.9143 147.08 86.661 147.16 87.421 147.32C88.181 147.48 88.8143 147.713 89.321 148.02L88.281 150.24C87.761 149.933 87.2343 149.727 86.701 149.62C86.181 149.5 85.6743 149.44 85.181 149.44C84.4877 149.44 83.981 149.533 83.661 149.72C83.341 149.907 83.181 150.147 83.181 150.44C83.181 150.707 83.2943 150.907 83.521 151.04C83.761 151.173 84.0743 151.28 84.461 151.36C84.8477 151.44 85.2677 151.513 85.721 151.58C86.1877 151.633 86.6543 151.72 87.121 151.84C87.5877 151.96 88.0077 152.133 88.381 152.36C88.7677 152.573 89.081 152.873 89.321 153.26C89.561 153.633 89.681 154.127 89.681 154.74C89.681 155.407 89.481 156 89.081 156.52C88.681 157.027 88.101 157.427 87.341 157.72C86.5943 158.013 85.681 158.16 84.601 158.16ZM96.806 158.16C95.646 158.16 94.6127 157.927 93.706 157.46C92.7993 156.98 92.086 156.32 91.566 155.48C91.0593 154.64 90.806 153.687 90.806 152.62C90.806 151.54 91.0593 150.587 91.566 149.76C92.086 148.92 92.7993 148.267 93.706 147.8C94.6127 147.32 95.646 147.08 96.806 147.08C97.9393 147.08 98.926 147.32 99.766 147.8C100.606 148.267 101.226 148.94 101.626 149.82L99.206 151.12C98.926 150.613 98.5727 150.24 98.146 150C97.7327 149.76 97.2793 149.64 96.786 149.64C96.2527 149.64 95.7727 149.76 95.346 150C94.9193 150.24 94.5793 150.58 94.326 151.02C94.086 151.46 93.966 151.993 93.966 152.62C93.966 153.247 94.086 153.78 94.326 154.22C94.5793 154.66 94.9193 155 95.346 155.24C95.7727 155.48 96.2527 155.6 96.786 155.6C97.2793 155.6 97.7327 155.487 98.146 155.26C98.5727 155.02 98.926 154.64 99.206 154.12L101.626 155.44C101.226 156.307 100.606 156.98 99.766 157.46C98.926 157.927 97.9393 158.16 96.806 158.16ZM103.364 158V147.24H106.484V158H103.364ZM104.924 145.74C104.35 145.74 103.884 145.573 103.524 145.24C103.164 144.907 102.984 144.493 102.984 144C102.984 143.507 103.164 143.093 103.524 142.76C103.884 142.427 104.35 142.26 104.924 142.26C105.497 142.26 105.964 142.42 106.324 142.74C106.684 143.047 106.864 143.447 106.864 143.94C106.864 144.46 106.684 144.893 106.324 145.24C105.977 145.573 105.51 145.74 104.924 145.74ZM114.719 158.16C113.493 158.16 112.413 157.92 111.479 157.44C110.559 156.96 109.846 156.307 109.339 155.48C108.833 154.64 108.579 153.687 108.579 152.62C108.579 151.54 108.826 150.587 109.319 149.76C109.826 148.92 110.513 148.267 111.379 147.8C112.246 147.32 113.226 147.08 114.319 147.08C115.373 147.08 116.319 147.307 117.159 147.76C118.013 148.2 118.686 148.84 119.179 149.68C119.673 150.507 119.919 151.5 119.919 152.66C119.919 152.78 119.913 152.92 119.899 153.08C119.886 153.227 119.873 153.367 119.859 153.5H111.119V151.68H118.219L117.019 152.22C117.019 151.66 116.906 151.173 116.679 150.76C116.453 150.347 116.139 150.027 115.739 149.8C115.339 149.56 114.873 149.44 114.339 149.44C113.806 149.44 113.333 149.56 112.919 149.8C112.519 150.027 112.206 150.353 111.979 150.78C111.753 151.193 111.639 151.687 111.639 152.26V152.74C111.639 153.327 111.766 153.847 112.019 154.3C112.286 154.74 112.653 155.08 113.119 155.32C113.599 155.547 114.159 155.66 114.799 155.66C115.373 155.66 115.873 155.573 116.299 155.4C116.739 155.227 117.139 154.967 117.499 154.62L119.159 156.42C118.666 156.98 118.046 157.413 117.299 157.72C116.553 158.013 115.693 158.16 114.719 158.16ZM128.537 147.08C129.39 147.08 130.15 147.253 130.817 147.6C131.497 147.933 132.03 148.453 132.417 149.16C132.803 149.853 132.997 150.747 132.997 151.84V158H129.877V152.32C129.877 151.453 129.683 150.813 129.297 150.4C128.923 149.987 128.39 149.78 127.697 149.78C127.203 149.78 126.757 149.887 126.357 150.1C125.97 150.3 125.663 150.613 125.437 151.04C125.223 151.467 125.117 152.013 125.117 152.68V158H121.997V147.24H124.977V150.22L124.417 149.32C124.803 148.6 125.357 148.047 126.077 147.66C126.797 147.273 127.617 147.08 128.537 147.08ZM141.103 158.16C139.943 158.16 138.91 157.927 138.003 157.46C137.096 156.98 136.383 156.32 135.863 155.48C135.356 154.64 135.103 153.687 135.103 152.62C135.103 151.54 135.356 150.587 135.863 149.76C136.383 148.92 137.096 148.267 138.003 147.8C138.91 147.32 139.943 147.08 141.103 147.08C142.236 147.08 143.223 147.32 144.063 147.8C144.903 148.267 145.523 148.94 145.923 149.82L143.503 151.12C143.223 150.613 142.87 150.24 142.443 150C142.03 149.76 141.576 149.64 141.083 149.64C140.55 149.64 140.07 149.76 139.643 150C139.216 150.24 138.876 150.58 138.623 151.02C138.383 151.46 138.263 151.993 138.263 152.62C138.263 153.247 138.383 153.78 138.623 154.22C138.876 154.66 139.216 155 139.643 155.24C140.07 155.48 140.55 155.6 141.083 155.6C141.576 155.6 142.03 155.487 142.443 155.26C142.87 155.02 143.223 154.64 143.503 154.12L145.923 155.44C145.523 156.307 144.903 156.98 144.063 157.46C143.223 157.927 142.236 158.16 141.103 158.16ZM152.923 158.16C151.696 158.16 150.616 157.92 149.683 157.44C148.763 156.96 148.049 156.307 147.543 155.48C147.036 154.64 146.783 153.687 146.783 152.62C146.783 151.54 147.029 150.587 147.523 149.76C148.029 148.92 148.716 148.267 149.583 147.8C150.449 147.32 151.429 147.08 152.523 147.08C153.576 147.08 154.523 147.307 155.363 147.76C156.216 148.2 156.889 148.84 157.383 149.68C157.876 150.507 158.123 151.5 158.123 152.66C158.123 152.78 158.116 152.92 158.103 153.08C158.089 153.227 158.076 153.367 158.063 153.5H149.323V151.68H156.423L155.223 152.22C155.223 151.66 155.109 151.173 154.883 150.76C154.656 150.347 154.343 150.027 153.943 149.8C153.543 149.56 153.076 149.44 152.543 149.44C152.009 149.44 151.536 149.56 151.123 149.8C150.723 150.027 150.409 150.353 150.183 150.78C149.956 151.193 149.843 151.687 149.843 152.26V152.74C149.843 153.327 149.969 153.847 150.223 154.3C150.489 154.74 150.856 155.08 151.323 155.32C151.803 155.547 152.363 155.66 153.003 155.66C153.576 155.66 154.076 155.573 154.503 155.4C154.943 155.227 155.343 154.967 155.703 154.62L157.363 156.42C156.869 156.98 156.249 157.413 155.503 157.72C154.756 158.013 153.896 158.16 152.923 158.16Z" fill="black"/>
<path fill-rule="evenodd" clip-rule="evenodd" d="M100.437 22.6503H100.436C97.3375 22.5949 94.2211 23.7803 91.8113 26.1276L91.8106 26.1283C91.7295 26.2058 91.6544 26.2826 91.5841 26.3546L91.5848 26.3539L91.5841 26.3546C86.7787 31.2774 86.7787 39.2728 91.5841 44.1955L93.0642 45.7124L108.336 61.357V61.3563C108.621 61.6476 109.006 61.8109 109.408 61.8109C109.81 61.8109 110.196 61.6476 110.48 61.3563L125.751 45.7129L127.235 44.1968C127.236 44.1961 127.236 44.1954 127.237 44.1954C132.042 39.2732 132.042 31.2778 127.237 26.3544C127.236 26.353 127.235 26.3517 127.234 26.3503C127.163 26.2783 127.094 26.207 127.012 26.1295V26.1302V26.1295C122.19 21.4322 114.552 21.5098 109.823 26.3558L109.413 26.7807L109.003 26.3613C109.003 26.3606 109.002 26.3599 109.002 26.3593C106.636 23.9358 103.537 22.6943 100.438 22.6557L100.437 22.6503ZM118.42 25.7395C120.752 25.7395 123.092 26.5906 124.923 28.3746C124.977 28.43 125.03 28.4791 125.095 28.5455C128.75 32.29 128.749 38.2584 125.094 42.0028L123.611 43.5176C123.611 43.5183 123.611 43.5183 123.61 43.519L109.409 58.0662L95.2074 43.519L93.7273 42.0022C90.0714 38.2577 90.0714 32.2893 93.7266 28.5441V28.5434H93.7273L93.8943 28.3725V28.3732C93.895 28.3725 93.8957 28.3725 93.8964 28.3718C95.7287 26.5872 98.0621 25.7186 100.398 25.7471H100.397H100.398C102.735 25.8025 105.055 26.7 106.855 28.5428L108.334 30.0624C108.617 30.3537 109.003 30.5177 109.405 30.5184C109.808 30.5184 110.194 30.3551 110.478 30.0638L111.962 28.5428C113.762 26.7 116.086 25.765 118.418 25.7367L118.42 25.7395ZM109.41 34.9756L109.411 34.9749C109.009 34.9749 108.624 35.1382 108.34 35.4289C108.056 35.7195 107.895 36.114 107.895 36.525V40.1497H104.324C103.922 40.1497 103.537 40.3123 103.253 40.603C102.969 40.8936 102.809 41.288 102.809 41.6991C102.809 42.1101 102.969 42.5046 103.253 42.7952C103.537 43.0865 103.922 43.2499 104.324 43.2492H107.895V46.8739C107.895 47.2849 108.056 47.6794 108.34 47.97C108.624 48.2606 109.009 48.4239 109.411 48.4239C110.246 48.4239 110.925 47.7299 110.925 46.8739V43.2492H114.497C114.898 43.2492 115.284 43.0859 115.568 42.7952C115.852 42.5046 116.011 42.1101 116.011 41.6991C116.011 40.8431 115.333 40.1497 114.497 40.1497H110.925V36.525C110.925 35.669 110.246 34.9756 109.411 34.9749L109.41 34.9756ZM129.382 61.6245C127.777 61.6259 126.161 62.2674 124.942 63.5249C124.941 63.5262 124.941 63.5269 124.939 63.5283L116.129 72.6662C115.447 69.8636 112.974 67.7619 110.039 67.7619H91.6443C91.244 67.7626 90.8607 67.9252 90.5773 68.2145L80.6507 78.308L79.3011 76.9351H79.3004C79.0158 76.6459 78.629 76.4825 78.226 76.4825C77.823 76.4825 77.4363 76.6458 77.1516 76.9351L64.4447 89.8555C63.8518 90.4589 63.8518 91.4367 64.4447 92.0401L84.1741 112.099C84.7677 112.702 85.7292 112.702 86.3229 112.099L99.0298 99.1793H99.0291C99.3144 98.8901 99.4747 98.497 99.4747 98.0874C99.4747 97.677 99.3144 97.2846 99.0291 96.9947L97.6802 95.6231L102.706 90.5093H115.965C116.37 90.51 116.759 90.3453 117.043 90.0519L133.828 72.6577L133.829 72.657C136.267 70.1409 136.267 66.0367 133.828 63.5213C132.606 62.2598 130.984 61.6267 129.382 61.6279L129.382 61.6245ZM129.384 64.7247C130.216 64.724 131.035 65.0389 131.677 65.7011C132.968 67.0332 132.968 69.1396 131.677 70.4711L131.678 70.4704C131.677 70.4718 131.676 70.4725 131.675 70.4732L115.333 87.4085H102.081C101.681 87.4092 101.298 87.5718 101.014 87.8611L95.5308 93.4392L82.7988 80.4934L92.269 70.8643H110.039C111.856 70.8643 113.286 72.3327 113.286 74.228C113.286 75.1505 112.936 75.9601 112.37 76.5663L112.371 76.5656C112.352 76.5836 112.334 76.6015 112.317 76.6202C112.299 76.6382 112.28 76.6569 112.263 76.6756C111.676 77.2603 110.896 77.6146 110.009 77.6146H99.1083C98.2719 77.6146 97.5937 78.3087 97.5937 79.1647C97.5937 79.5758 97.7533 79.9702 98.0372 80.2608C98.3212 80.5515 98.706 80.7148 99.1083 80.7148H111.99H111.989C112.395 80.7141 112.783 80.5473 113.067 80.2518L114.397 78.8734V78.8727C114.416 78.8492 114.433 78.8256 114.451 78.8007C114.472 78.7834 114.494 78.7647 114.516 78.7461L127.066 65.729C127.712 65.0626 128.529 64.7456 129.358 64.7449L129.384 64.7247ZM78.2256 80.2117L79.5812 81.5901H79.5819C79.5826 81.5901 79.5826 81.5908 79.5833 81.5915L94.464 96.7227V96.722C94.4647 96.7227 94.4647 96.7227 94.4654 96.7227L95.8062 98.086L85.2488 108.821L67.6693 90.9464L78.2256 80.2117Z" fill="black"/>
</g>
<defs>
<filter id="filter0_d_754_2902" x="0" y="0" width="220" height="202" filterUnits="userSpaceOnUse" color-interpolation-filters="sRGB">
<feFlood flood-opacity="0" result="BackgroundImageFix"/>
<feColorMatrix in="SourceAlpha" type="matrix" values="0 0 0 0 0 0 0 0 0 0 0 0 0 0 0 0 0 0 127 0" result="hardAlpha"/>
<feOffset dx="16" dy="18"/>
<feGaussianBlur stdDeviation="2"/>
<feComposite in2="hardAlpha" operator="out"/>
<feColorMatrix type="matrix" values="0 0 0 0 0 0 0 0 0 0 0 0 0 0 0 0 0 0 0.25 0"/>
<feBlend mode="normal" in2="BackgroundImageFix" result="effect1_dropShadow_754_2902"/>
<feBlend mode="normal" in="SourceGraphic" in2="effect1_dropShadow_754_2902" result="shape"/>
</filter>
</defs>
</svg>
