<svg width="200" height="180" viewBox="0 0 200 180" fill="none" xmlns="http://www.w3.org/2000/svg">
<path d="M0 0H170C186.569 0 200 13.4315 200 30V180H30C13.4315 180 0 166.569 0 150V0Z" fill="#47175A"/>
<path d="M43.26 120H46.5V134H43.26V120ZM36.9 134H33.66V120H36.9V134ZM43.5 128.26H36.66V125.52H43.5V128.26ZM54.9323 134.16C53.7057 134.16 52.6257 133.92 51.6923 133.44C50.7723 132.96 50.059 132.307 49.5523 131.48C49.0457 130.64 48.7923 129.687 48.7923 128.62C48.7923 127.54 49.039 126.587 49.5323 125.76C50.039 124.92 50.7257 124.267 51.5923 123.8C52.459 123.32 53.439 123.08 54.5323 123.08C55.5857 123.08 56.5323 123.307 57.3723 123.76C58.2257 124.2 58.899 124.84 59.3923 125.68C59.8857 126.507 60.1323 127.5 60.1323 128.66C60.1323 128.78 60.1257 128.92 60.1123 129.08C60.099 129.227 60.0857 129.367 60.0723 129.5H51.3323V127.68H58.4323L57.2323 128.22C57.2323 127.66 57.119 127.173 56.8923 126.76C56.6657 126.347 56.3523 126.027 55.9523 125.8C55.5523 125.56 55.0857 125.44 54.5523 125.44C54.019 125.44 53.5457 125.56 53.1323 125.8C52.7323 126.027 52.419 126.353 52.1923 126.78C51.9657 127.193 51.8523 127.687 51.8523 128.26V128.74C51.8523 129.327 51.979 129.847 52.2323 130.3C52.499 130.74 52.8657 131.08 53.3323 131.32C53.8123 131.547 54.3723 131.66 55.0123 131.66C55.5857 131.66 56.0857 131.573 56.5123 131.4C56.9523 131.227 57.3523 130.967 57.7123 130.62L59.3723 132.42C58.879 132.98 58.259 133.413 57.5123 133.72C56.7657 134.013 55.9057 134.16 54.9323 134.16ZM68.5166 134V131.9L68.3166 131.44V127.68C68.3166 127.013 68.1099 126.493 67.6966 126.12C67.2966 125.747 66.6766 125.56 65.8366 125.56C65.2632 125.56 64.6966 125.653 64.1366 125.84C63.5899 126.013 63.1232 126.253 62.7366 126.56L61.6166 124.38C62.2032 123.967 62.9099 123.647 63.7366 123.42C64.5632 123.193 65.4032 123.08 66.2566 123.08C67.8966 123.08 69.1699 123.467 70.0766 124.24C70.9832 125.013 71.4366 126.22 71.4366 127.86V134H68.5166ZM65.2366 134.16C64.3966 134.16 63.6766 134.02 63.0766 133.74C62.4766 133.447 62.0166 133.053 61.6966 132.56C61.3766 132.067 61.2166 131.513 61.2166 130.9C61.2166 130.26 61.3699 129.7 61.6766 129.22C61.9966 128.74 62.4966 128.367 63.1766 128.1C63.8566 127.82 64.7432 127.68 65.8366 127.68H68.6966V129.5H66.1766C65.4432 129.5 64.9366 129.62 64.6566 129.86C64.3899 130.1 64.2566 130.4 64.2566 130.76C64.2566 131.16 64.4099 131.48 64.7166 131.72C65.0366 131.947 65.4699 132.06 66.0166 132.06C66.5366 132.06 67.0032 131.94 67.4166 131.7C67.8299 131.447 68.1299 131.08 68.3166 130.6L68.7966 132.04C68.5699 132.733 68.1566 133.26 67.5566 133.62C66.9566 133.98 66.1832 134.16 65.2366 134.16ZM74.2603 134V119.16H77.3803V134H74.2603ZM85.4767 134.16C84.2101 134.16 83.2234 133.84 82.5167 133.2C81.8101 132.547 81.4567 131.58 81.4567 130.3V120.86H84.5767V130.26C84.5767 130.713 84.6967 131.067 84.9367 131.32C85.1767 131.56 85.5034 131.68 85.9167 131.68C86.4101 131.68 86.8301 131.547 87.1767 131.28L88.0167 133.48C87.6967 133.707 87.3101 133.88 86.8567 134C86.4167 134.107 85.9567 134.16 85.4767 134.16ZM79.7967 125.88V123.48H87.2567V125.88H79.7967ZM96.3081 123.08C97.1615 123.08 97.9215 123.253 98.5881 123.6C99.2681 123.933 99.8015 124.453 100.188 125.16C100.575 125.853 100.768 126.747 100.768 127.84V134H97.6481V128.32C97.6481 127.453 97.4548 126.813 97.0681 126.4C96.6948 125.987 96.1615 125.78 95.4681 125.78C94.9748 125.78 94.5281 125.887 94.1281 126.1C93.7415 126.3 93.4348 126.613 93.2081 127.04C92.9948 127.467 92.8881 128.013 92.8881 128.68V134H89.7681V119.16H92.8881V126.22L92.1881 125.32C92.5748 124.6 93.1281 124.047 93.8481 123.66C94.5681 123.273 95.3881 123.08 96.3081 123.08ZM108.874 134.16C107.714 134.16 106.681 133.927 105.774 133.46C104.868 132.98 104.154 132.32 103.634 131.48C103.128 130.64 102.874 129.687 102.874 128.62C102.874 127.54 103.128 126.587 103.634 125.76C104.154 124.92 104.868 124.267 105.774 123.8C106.681 123.32 107.714 123.08 108.874 123.08C110.008 123.08 110.994 123.32 111.834 123.8C112.674 124.267 113.294 124.94 113.694 125.82L111.274 127.12C110.994 126.613 110.641 126.24 110.214 126C109.801 125.76 109.348 125.64 108.854 125.64C108.321 125.64 107.841 125.76 107.414 126C106.988 126.24 106.648 126.58 106.394 127.02C106.154 127.46 106.034 127.993 106.034 128.62C106.034 129.247 106.154 129.78 106.394 130.22C106.648 130.66 106.988 131 107.414 131.24C107.841 131.48 108.321 131.6 108.854 131.6C109.348 131.6 109.801 131.487 110.214 131.26C110.641 131.02 110.994 130.64 111.274 130.12L113.694 131.44C113.294 132.307 112.674 132.98 111.834 133.46C110.994 133.927 110.008 134.16 108.874 134.16ZM122.091 134V131.9L121.891 131.44V127.68C121.891 127.013 121.684 126.493 121.271 126.12C120.871 125.747 120.251 125.56 119.411 125.56C118.837 125.56 118.271 125.653 117.711 125.84C117.164 126.013 116.697 126.253 116.311 126.56L115.191 124.38C115.777 123.967 116.484 123.647 117.311 123.42C118.137 123.193 118.977 123.08 119.831 123.08C121.471 123.08 122.744 123.467 123.651 124.24C124.557 125.013 125.011 126.22 125.011 127.86V134H122.091ZM118.811 134.16C117.971 134.16 117.251 134.02 116.651 133.74C116.051 133.447 115.591 133.053 115.271 132.56C114.951 132.067 114.791 131.513 114.791 130.9C114.791 130.26 114.944 129.7 115.251 129.22C115.571 128.74 116.071 128.367 116.751 128.1C117.431 127.82 118.317 127.68 119.411 127.68H122.271V129.5H119.751C119.017 129.5 118.511 129.62 118.231 129.86C117.964 130.1 117.831 130.4 117.831 130.76C117.831 131.16 117.984 131.48 118.291 131.72C118.611 131.947 119.044 132.06 119.591 132.06C120.111 132.06 120.577 131.94 120.991 131.7C121.404 131.447 121.704 131.08 121.891 130.6L122.371 132.04C122.144 132.733 121.731 133.26 121.131 133.62C120.531 133.98 119.757 134.16 118.811 134.16ZM127.835 134V123.24H130.815V126.28L130.395 125.4C130.715 124.64 131.228 124.067 131.935 123.68C132.641 123.28 133.501 123.08 134.515 123.08V125.96C134.381 125.947 134.261 125.94 134.155 125.94C134.048 125.927 133.935 125.92 133.815 125.92C132.961 125.92 132.268 126.167 131.735 126.66C131.215 127.14 130.955 127.893 130.955 128.92V134H127.835ZM141.632 134.16C140.405 134.16 139.325 133.92 138.392 133.44C137.472 132.96 136.758 132.307 136.252 131.48C135.745 130.64 135.492 129.687 135.492 128.62C135.492 127.54 135.738 126.587 136.232 125.76C136.738 124.92 137.425 124.267 138.292 123.8C139.158 123.32 140.138 123.08 141.232 123.08C142.285 123.08 143.232 123.307 144.072 123.76C144.925 124.2 145.598 124.84 146.092 125.68C146.585 126.507 146.832 127.5 146.832 128.66C146.832 128.78 146.825 128.92 146.812 129.08C146.798 129.227 146.785 129.367 146.772 129.5H138.032V127.68H145.132L143.932 128.22C143.932 127.66 143.818 127.173 143.592 126.76C143.365 126.347 143.052 126.027 142.652 125.8C142.252 125.56 141.785 125.44 141.252 125.44C140.718 125.44 140.245 125.56 139.832 125.8C139.432 126.027 139.118 126.353 138.892 126.78C138.665 127.193 138.552 127.687 138.552 128.26V128.74C138.552 129.327 138.678 129.847 138.932 130.3C139.198 130.74 139.565 131.08 140.032 131.32C140.512 131.547 141.072 131.66 141.712 131.66C142.285 131.66 142.785 131.573 143.212 131.4C143.652 131.227 144.052 130.967 144.412 130.62L146.072 132.42C145.578 132.98 144.958 133.413 144.212 133.72C143.465 134.013 142.605 134.16 141.632 134.16ZM159.193 134.24C158.166 134.24 157.253 134.073 156.453 133.74C155.653 133.407 155.019 132.953 154.553 132.38C154.086 131.807 153.853 131.147 153.853 130.4C153.853 129.707 154.006 129.087 154.313 128.54C154.619 127.98 155.106 127.46 155.773 126.98C156.439 126.487 157.286 126.007 158.313 125.54C159.059 125.193 159.646 124.887 160.073 124.62C160.499 124.353 160.799 124.1 160.973 123.86C161.146 123.607 161.233 123.353 161.233 123.1C161.233 122.753 161.113 122.473 160.873 122.26C160.646 122.047 160.306 121.94 159.853 121.94C159.373 121.94 158.999 122.06 158.733 122.3C158.466 122.54 158.333 122.847 158.333 123.22C158.333 123.42 158.373 123.62 158.453 123.82C158.533 124.007 158.686 124.227 158.913 124.48C159.139 124.72 159.459 125.033 159.873 125.42L167.253 132.26L165.553 134.24L157.413 126.68C156.946 126.253 156.573 125.853 156.293 125.48C156.013 125.107 155.806 124.74 155.673 124.38C155.553 124.02 155.493 123.647 155.493 123.26C155.493 122.58 155.673 121.98 156.033 121.46C156.393 120.94 156.899 120.54 157.553 120.26C158.206 119.967 158.973 119.82 159.853 119.82C160.666 119.82 161.366 119.953 161.953 120.22C162.553 120.473 163.019 120.84 163.353 121.32C163.699 121.8 163.873 122.373 163.873 123.04C163.873 123.627 163.726 124.167 163.433 124.66C163.139 125.14 162.679 125.593 162.053 126.02C161.439 126.447 160.633 126.88 159.633 127.32C158.953 127.627 158.413 127.927 158.013 128.22C157.626 128.5 157.346 128.787 157.173 129.08C156.999 129.373 156.913 129.7 156.913 130.06C156.913 130.393 157.013 130.693 157.213 130.96C157.426 131.227 157.719 131.433 158.093 131.58C158.466 131.727 158.906 131.8 159.413 131.8C160.226 131.8 160.973 131.613 161.653 131.24C162.333 130.853 162.906 130.287 163.373 129.54C163.853 128.78 164.193 127.86 164.393 126.78L166.893 127.56C166.613 128.92 166.113 130.1 165.393 131.1C164.673 132.1 163.786 132.873 162.733 133.42C161.679 133.967 160.499 134.24 159.193 134.24ZM33.66 158V144H36.9V155.36H43.92V158H33.66ZM45.5103 158V147.24H48.6303V158H45.5103ZM47.0703 145.74C46.497 145.74 46.0303 145.573 45.6703 145.24C45.3103 144.907 45.1303 144.493 45.1303 144C45.1303 143.507 45.3103 143.093 45.6703 142.76C46.0303 142.427 46.497 142.26 47.0703 142.26C47.6436 142.26 48.1103 142.42 48.4703 142.74C48.8303 143.047 49.0103 143.447 49.0103 143.94C49.0103 144.46 48.8303 144.893 48.4703 145.24C48.1236 145.573 47.657 145.74 47.0703 145.74ZM51.9059 158V147C51.9059 145.787 52.2659 144.82 52.9859 144.1C53.7059 143.367 54.7326 143 56.0659 143C56.5193 143 56.9526 143.047 57.3659 143.14C57.7926 143.233 58.1526 143.38 58.4459 143.58L57.6259 145.84C57.4526 145.72 57.2593 145.627 57.0459 145.56C56.8326 145.493 56.6059 145.46 56.3659 145.46C55.9126 145.46 55.5593 145.593 55.3059 145.86C55.0659 146.113 54.9459 146.5 54.9459 147.02V148.02L55.0259 149.36V158H51.9059ZM50.2459 149.88V147.48H57.7059V149.88H50.2459ZM64.4636 158.16C63.2369 158.16 62.1569 157.92 61.2236 157.44C60.3036 156.96 59.5903 156.307 59.0836 155.48C58.5769 154.64 58.3236 153.687 58.3236 152.62C58.3236 151.54 58.5703 150.587 59.0636 149.76C59.5703 148.92 60.2569 148.267 61.1236 147.8C61.9903 147.32 62.9703 147.08 64.0636 147.08C65.1169 147.08 66.0636 147.307 66.9036 147.76C67.7569 148.2 68.4303 148.84 68.9236 149.68C69.4169 150.507 69.6636 151.5 69.6636 152.66C69.6636 152.78 69.6569 152.92 69.6436 153.08C69.6303 153.227 69.6169 153.367 69.6036 153.5H60.8636V151.68H67.9636L66.7636 152.22C66.7636 151.66 66.6503 151.173 66.4236 150.76C66.1969 150.347 65.8836 150.027 65.4836 149.8C65.0836 149.56 64.6169 149.44 64.0836 149.44C63.5503 149.44 63.0769 149.56 62.6636 149.8C62.2636 150.027 61.9503 150.353 61.7236 150.78C61.4969 151.193 61.3836 151.687 61.3836 152.26V152.74C61.3836 153.327 61.5103 153.847 61.7636 154.3C62.0303 154.74 62.3969 155.08 62.8636 155.32C63.3436 155.547 63.9036 155.66 64.5436 155.66C65.1169 155.66 65.6169 155.573 66.0436 155.4C66.4836 155.227 66.8836 154.967 67.2436 154.62L68.9036 156.42C68.4103 156.98 67.7903 157.413 67.0436 157.72C66.2969 158.013 65.4369 158.16 64.4636 158.16ZM75.3608 158.16C74.4408 158.16 73.5541 158.053 72.7008 157.84C71.8608 157.613 71.1941 157.333 70.7008 157L71.7408 154.76C72.2341 155.067 72.8141 155.32 73.4808 155.52C74.1608 155.707 74.8274 155.8 75.4808 155.8C76.2008 155.8 76.7074 155.713 77.0008 155.54C77.3074 155.367 77.4608 155.127 77.4608 154.82C77.4608 154.567 77.3408 154.38 77.1008 154.26C76.8741 154.127 76.5674 154.027 76.1808 153.96C75.7941 153.893 75.3674 153.827 74.9008 153.76C74.4474 153.693 73.9874 153.607 73.5208 153.5C73.0541 153.38 72.6274 153.207 72.2408 152.98C71.8541 152.753 71.5408 152.447 71.3008 152.06C71.0741 151.673 70.9608 151.173 70.9608 150.56C70.9608 149.88 71.1541 149.28 71.5408 148.76C71.9408 148.24 72.5141 147.833 73.2608 147.54C74.0074 147.233 74.9008 147.08 75.9408 147.08C76.6741 147.08 77.4208 147.16 78.1808 147.32C78.9408 147.48 79.5741 147.713 80.0808 148.02L79.0408 150.24C78.5208 149.933 77.9941 149.727 77.4608 149.62C76.9408 149.5 76.4341 149.44 75.9408 149.44C75.2474 149.44 74.7408 149.533 74.4208 149.72C74.1008 149.907 73.9408 150.147 73.9408 150.44C73.9408 150.707 74.0541 150.907 74.2808 151.04C74.5208 151.173 74.8341 151.28 75.2208 151.36C75.6074 151.44 76.0274 151.513 76.4808 151.58C76.9474 151.633 77.4141 151.72 77.8808 151.84C78.3474 151.96 78.7674 152.133 79.1408 152.36C79.5274 152.573 79.8408 152.873 80.0808 153.26C80.3208 153.633 80.4408 154.127 80.4408 154.74C80.4408 155.407 80.2408 156 79.8408 156.52C79.4408 157.027 78.8608 157.427 78.1008 157.72C77.3541 158.013 76.4408 158.16 75.3608 158.16ZM87.5658 158.16C86.4058 158.16 85.3724 157.927 84.4658 157.46C83.5591 156.98 82.8458 156.32 82.3258 155.48C81.8191 154.64 81.5658 153.687 81.5658 152.62C81.5658 151.54 81.8191 150.587 82.3258 149.76C82.8458 148.92 83.5591 148.267 84.4658 147.8C85.3724 147.32 86.4058 147.08 87.5658 147.08C88.6991 147.08 89.6858 147.32 90.5258 147.8C91.3658 148.267 91.9858 148.94 92.3858 149.82L89.9658 151.12C89.6858 150.613 89.3324 150.24 88.9058 150C88.4924 149.76 88.0391 149.64 87.5458 149.64C87.0124 149.64 86.5324 149.76 86.1058 150C85.6791 150.24 85.3391 150.58 85.0858 151.02C84.8458 151.46 84.7258 151.993 84.7258 152.62C84.7258 153.247 84.8458 153.78 85.0858 154.22C85.3391 154.66 85.6791 155 86.1058 155.24C86.5324 155.48 87.0124 155.6 87.5458 155.6C88.0391 155.6 88.4924 155.487 88.9058 155.26C89.3324 155.02 89.6858 154.64 89.9658 154.12L92.3858 155.44C91.9858 156.307 91.3658 156.98 90.5258 157.46C89.6858 157.927 88.6991 158.16 87.5658 158.16ZM94.1236 158V147.24H97.2436V158H94.1236ZM95.6836 145.74C95.1103 145.74 94.6436 145.573 94.2836 145.24C93.9236 144.907 93.7436 144.493 93.7436 144C93.7436 143.507 93.9236 143.093 94.2836 142.76C94.6436 142.427 95.1103 142.26 95.6836 142.26C96.2569 142.26 96.7236 142.42 97.0836 142.74C97.4436 143.047 97.6236 143.447 97.6236 143.94C97.6236 144.46 97.4436 144.893 97.0836 145.24C96.7369 145.573 96.2703 145.74 95.6836 145.74ZM105.479 158.16C104.253 158.16 103.173 157.92 102.239 157.44C101.319 156.96 100.606 156.307 100.099 155.48C99.5926 154.64 99.3392 153.687 99.3392 152.62C99.3392 151.54 99.5859 150.587 100.079 149.76C100.586 148.92 101.273 148.267 102.139 147.8C103.006 147.32 103.986 147.08 105.079 147.08C106.133 147.08 107.079 147.307 107.919 147.76C108.773 148.2 109.446 148.84 109.939 149.68C110.433 150.507 110.679 151.5 110.679 152.66C110.679 152.78 110.673 152.92 110.659 153.08C110.646 153.227 110.633 153.367 110.619 153.5H101.879V151.68H108.979L107.779 152.22C107.779 151.66 107.666 151.173 107.439 150.76C107.213 150.347 106.899 150.027 106.499 149.8C106.099 149.56 105.633 149.44 105.099 149.44C104.566 149.44 104.093 149.56 103.679 149.8C103.279 150.027 102.966 150.353 102.739 150.78C102.513 151.193 102.399 151.687 102.399 152.26V152.74C102.399 153.327 102.526 153.847 102.779 154.3C103.046 154.74 103.413 155.08 103.879 155.32C104.359 155.547 104.919 155.66 105.559 155.66C106.133 155.66 106.633 155.573 107.059 155.4C107.499 155.227 107.899 154.967 108.259 154.62L109.919 156.42C109.426 156.98 108.806 157.413 108.059 157.72C107.313 158.013 106.453 158.16 105.479 158.16ZM119.296 147.08C120.15 147.08 120.91 147.253 121.576 147.6C122.256 147.933 122.79 148.453 123.176 149.16C123.563 149.853 123.756 150.747 123.756 151.84V158H120.636V152.32C120.636 151.453 120.443 150.813 120.056 150.4C119.683 149.987 119.15 149.78 118.456 149.78C117.963 149.78 117.516 149.887 117.116 150.1C116.73 150.3 116.423 150.613 116.196 151.04C115.983 151.467 115.876 152.013 115.876 152.68V158H112.756V147.24H115.736V150.22L115.176 149.32C115.563 148.6 116.116 148.047 116.836 147.66C117.556 147.273 118.376 147.08 119.296 147.08ZM131.863 158.16C130.703 158.16 129.669 157.927 128.763 157.46C127.856 156.98 127.143 156.32 126.623 155.48C126.116 154.64 125.863 153.687 125.863 152.62C125.863 151.54 126.116 150.587 126.623 149.76C127.143 148.92 127.856 148.267 128.763 147.8C129.669 147.32 130.703 147.08 131.863 147.08C132.996 147.08 133.983 147.32 134.823 147.8C135.663 148.267 136.283 148.94 136.683 149.82L134.263 151.12C133.983 150.613 133.629 150.24 133.203 150C132.789 149.76 132.336 149.64 131.843 149.64C131.309 149.64 130.829 149.76 130.403 150C129.976 150.24 129.636 150.58 129.383 151.02C129.143 151.46 129.023 151.993 129.023 152.62C129.023 153.247 129.143 153.78 129.383 154.22C129.636 154.66 129.976 155 130.403 155.24C130.829 155.48 131.309 155.6 131.843 155.6C132.336 155.6 132.789 155.487 133.203 155.26C133.629 155.02 133.983 154.64 134.263 154.12L136.683 155.44C136.283 156.307 135.663 156.98 134.823 157.46C133.983 157.927 132.996 158.16 131.863 158.16ZM143.682 158.16C142.456 158.16 141.376 157.92 140.442 157.44C139.522 156.96 138.809 156.307 138.302 155.48C137.796 154.64 137.542 153.687 137.542 152.62C137.542 151.54 137.789 150.587 138.282 149.76C138.789 148.92 139.476 148.267 140.342 147.8C141.209 147.32 142.189 147.08 143.282 147.08C144.336 147.08 145.282 147.307 146.122 147.76C146.976 148.2 147.649 148.84 148.142 149.68C148.636 150.507 148.882 151.5 148.882 152.66C148.882 152.78 148.876 152.92 148.862 153.08C148.849 153.227 148.836 153.367 148.822 153.5H140.082V151.68H147.182L145.982 152.22C145.982 151.66 145.869 151.173 145.642 150.76C145.416 150.347 145.102 150.027 144.702 149.8C144.302 149.56 143.836 149.44 143.302 149.44C142.769 149.44 142.296 149.56 141.882 149.8C141.482 150.027 141.169 150.353 140.942 150.78C140.716 151.193 140.602 151.687 140.602 152.26V152.74C140.602 153.327 140.729 153.847 140.982 154.3C141.249 154.74 141.616 155.08 142.082 155.32C142.562 155.547 143.122 155.66 143.762 155.66C144.336 155.66 144.836 155.573 145.262 155.4C145.702 155.227 146.102 154.967 146.462 154.62L148.122 156.42C147.629 156.98 147.009 157.413 146.262 157.72C145.516 158.013 144.656 158.16 143.682 158.16Z" fill="white"/>
<path fill-rule="evenodd" clip-rule="evenodd" d="M100.437 17.0018H100.436C97.3375 16.9477 94.2211 18.106 91.8113 20.3995L91.8106 20.4002C91.7295 20.4759 91.6544 20.5509 91.5841 20.6213L91.5848 20.6206L91.5841 20.6213C86.7787 25.4314 86.7787 33.2437 91.5841 38.0536L93.0642 39.5358L108.336 54.8221V54.8214C108.621 55.1061 109.006 55.2657 109.408 55.2657C109.81 55.2657 110.196 55.1061 110.48 54.8214L125.751 39.5363L127.235 38.0548C127.236 38.0542 127.236 38.0535 127.237 38.0535C132.042 33.2441 132.042 25.4318 127.237 20.6211C127.236 20.6198 127.235 20.6184 127.234 20.6171C127.163 20.5467 127.094 20.4771 127.012 20.4014V20.402V20.4014C122.19 15.8116 114.552 15.8874 109.823 20.6225L109.413 21.0376L109.003 20.6279C109.003 20.6272 109.002 20.6265 109.002 20.6258C106.636 18.2579 103.537 17.0448 100.438 17.0071L100.437 17.0018ZM118.42 20.0202C120.752 20.0202 123.092 20.8519 124.923 22.595C124.977 22.6491 125.03 22.6971 125.095 22.762C128.75 26.4207 128.749 32.2525 125.094 35.9112L123.611 37.3913C123.611 37.392 123.611 37.392 123.61 37.3926L109.409 51.6067L95.2074 37.3926L93.7273 35.9105C90.0714 32.2518 90.0714 26.4201 93.7266 22.7607V22.76H93.7273L93.8943 22.593V22.5937C93.895 22.593 93.8957 22.593 93.8964 22.5923C95.7287 20.8485 98.0621 19.9999 100.398 20.0277H100.397H100.398C102.735 20.0818 105.055 20.9588 106.855 22.7593L108.334 24.2442C108.617 24.5288 109.003 24.6891 109.405 24.6897C109.808 24.6897 110.194 24.5302 110.478 24.2455L111.962 22.7593C113.762 20.9588 116.086 20.0452 118.418 20.0175L118.42 20.0202ZM109.41 29.0449L109.411 29.0442C109.009 29.0442 108.624 29.2038 108.34 29.4878C108.056 29.7717 107.895 30.1572 107.895 30.5588V34.1005H104.324C103.922 34.1005 103.537 34.2594 103.253 34.5434C102.969 34.8273 102.809 35.2127 102.809 35.6144C102.809 36.016 102.969 36.4014 103.253 36.6854C103.537 36.9701 103.922 37.1296 104.324 37.129H107.895V40.6707C107.895 41.0723 108.056 41.4577 108.34 41.7417C108.624 42.0257 109.009 42.1852 109.411 42.1852C110.246 42.1852 110.925 41.507 110.925 40.6707V37.129H114.497C114.898 37.129 115.284 36.9694 115.568 36.6854C115.852 36.4014 116.011 36.016 116.011 35.6144C116.011 34.778 115.333 34.1005 114.497 34.1005H110.925V30.5588C110.925 29.7224 110.246 29.0449 109.411 29.0442L109.41 29.0449ZM129.382 55.0835C127.777 55.0849 126.161 55.7117 124.942 56.9403C124.941 56.9417 124.941 56.9423 124.939 56.9437L116.129 65.8723C115.447 63.1339 112.974 61.0803 110.039 61.0803H91.6443C91.244 61.081 90.8607 61.2399 90.5773 61.5225L80.6507 71.3849L79.3011 70.0435H79.3004C79.0158 69.7608 78.629 69.6013 78.226 69.6013C77.823 69.6013 77.4363 69.7608 77.1516 70.0435L64.4447 82.668C63.8518 83.2575 63.8518 84.213 64.4447 84.8026L84.1741 104.402C84.7677 104.992 85.7292 104.992 86.3229 104.402L99.0298 91.7783H99.0291C99.3144 91.4956 99.4747 91.1116 99.4747 90.7113C99.4747 90.3103 99.3144 89.927 99.0291 89.6437L97.6802 88.3035L102.706 83.3068H115.965C116.37 83.3075 116.759 83.1465 117.043 82.8599L133.828 65.864L133.829 65.8634C136.267 63.4049 136.267 59.3946 133.828 56.9369C132.606 55.7042 130.984 55.0856 129.382 55.0868L129.382 55.0835ZM129.384 58.1127C130.216 58.112 131.035 58.4197 131.677 59.0667C132.968 60.3683 132.968 62.4265 131.677 63.7275L131.678 63.7268C131.677 63.7282 131.676 63.7288 131.675 63.7295L115.333 80.277H102.081C101.681 80.2777 101.298 80.4366 101.014 80.7192L95.5308 86.1696L82.7988 73.5202L92.269 64.1117H110.039C111.856 64.1117 113.286 65.5465 113.286 67.3984C113.286 68.2997 112.936 69.0908 112.37 69.6831L112.371 69.6824C112.352 69.7 112.334 69.7175 112.317 69.7358C112.299 69.7534 112.28 69.7716 112.263 69.7899C111.676 70.3612 110.896 70.7074 110.009 70.7074H99.1083C98.2719 70.7074 97.5937 71.3856 97.5937 72.222C97.5937 72.6236 97.7533 73.0091 98.0372 73.293C98.3212 73.577 98.706 73.7366 99.1083 73.7366H111.99H111.989C112.395 73.7359 112.783 73.573 113.067 73.2842L114.397 71.9374V71.9367C114.416 71.9137 114.433 71.8907 114.451 71.8664C114.472 71.8495 114.494 71.8312 114.516 71.8129L127.066 59.0939C127.712 58.4428 128.529 58.1331 129.358 58.1324L129.384 58.1127ZM78.2256 73.245L79.5812 74.5919H79.5819C79.5826 74.5919 79.5826 74.5925 79.5833 74.5932L94.464 89.3779V89.3773C94.4647 89.3779 94.4647 89.3779 94.4654 89.3779L95.8062 90.71L85.2488 101.199L67.6693 83.7339L78.2256 73.245Z" fill="white" stroke="#404CDC" stroke-width="1.53375"/>
</svg>
