<svg width="200" height="180" viewBox="0 0 200 180" fill="none" xmlns="http://www.w3.org/2000/svg">
<path d="M0 0H170C186.569 0 200 13.4315 200 30V180H30C13.4315 180 0 166.569 0 150V0Z" fill="#47175A"/>
<path d="M54.66 143V129H57.9V140.36H64.92V143H54.66ZM71.5717 143.16C70.4251 143.16 69.4051 142.92 68.5117 142.44C67.6317 141.96 66.9317 141.307 66.4117 140.48C65.9051 139.64 65.6517 138.687 65.6517 137.62C65.6517 136.54 65.9051 135.587 66.4117 134.76C66.9317 133.92 67.6317 133.267 68.5117 132.8C69.4051 132.32 70.4251 132.08 71.5717 132.08C72.7051 132.08 73.7184 132.32 74.6117 132.8C75.5051 133.267 76.2051 133.913 76.7117 134.74C77.2184 135.567 77.4717 136.527 77.4717 137.62C77.4717 138.687 77.2184 139.64 76.7117 140.48C76.2051 141.307 75.5051 141.96 74.6117 142.44C73.7184 142.92 72.7051 143.16 71.5717 143.16ZM71.5717 140.6C72.0917 140.6 72.5584 140.48 72.9717 140.24C73.3851 140 73.7117 139.66 73.9517 139.22C74.1917 138.767 74.3117 138.233 74.3117 137.62C74.3117 136.993 74.1917 136.46 73.9517 136.02C73.7117 135.58 73.3851 135.24 72.9717 135C72.5584 134.76 72.0917 134.64 71.5717 134.64C71.0517 134.64 70.5851 134.76 70.1717 135C69.7584 135.24 69.4251 135.58 69.1717 136.02C68.9317 136.46 68.8117 136.993 68.8117 137.62C68.8117 138.233 68.9317 138.767 69.1717 139.22C69.4251 139.66 69.7584 140 70.1717 140.24C70.5851 140.48 71.0517 140.6 71.5717 140.6ZM84.6172 147.04C83.6039 147.04 82.6239 146.913 81.6772 146.66C80.7439 146.42 79.9639 146.053 79.3372 145.56L80.5772 143.32C81.0305 143.693 81.6039 143.987 82.2972 144.2C83.0039 144.427 83.6972 144.54 84.3772 144.54C85.4839 144.54 86.2839 144.293 86.7772 143.8C87.2839 143.307 87.5372 142.573 87.5372 141.6V139.98L87.7372 137.28L87.6972 134.56V132.24H90.6572V141.2C90.6572 143.2 90.1372 144.673 89.0972 145.62C88.0572 146.567 86.5639 147.04 84.6172 147.04ZM84.1372 142.48C83.1372 142.48 82.2305 142.267 81.4172 141.84C80.6172 141.4 79.9705 140.793 79.4772 140.02C78.9972 139.233 78.7572 138.32 78.7572 137.28C78.7572 136.227 78.9972 135.313 79.4772 134.54C79.9705 133.753 80.6172 133.147 81.4172 132.72C82.2305 132.293 83.1372 132.08 84.1372 132.08C85.0439 132.08 85.8439 132.267 86.5372 132.64C87.2305 133 87.7705 133.567 88.1572 134.34C88.5439 135.1 88.7372 136.08 88.7372 137.28C88.7372 138.467 88.5439 139.447 88.1572 140.22C87.7705 140.98 87.2305 141.547 86.5372 141.92C85.8439 142.293 85.0439 142.48 84.1372 142.48ZM84.7572 139.92C85.3039 139.92 85.7905 139.813 86.2172 139.6C86.6439 139.373 86.9772 139.06 87.2172 138.66C87.4572 138.26 87.5772 137.8 87.5772 137.28C87.5772 136.747 87.4572 136.287 87.2172 135.9C86.9772 135.5 86.6439 135.193 86.2172 134.98C85.7905 134.753 85.3039 134.64 84.7572 134.64C84.2105 134.64 83.7239 134.753 83.2972 134.98C82.8705 135.193 82.5305 135.5 82.2772 135.9C82.0372 136.287 81.9172 136.747 81.9172 137.28C81.9172 137.8 82.0372 138.26 82.2772 138.66C82.5305 139.06 82.8705 139.373 83.2972 139.6C83.7239 139.813 84.2105 139.92 84.7572 139.92ZM93.5611 143V132.24H96.6811V143H93.5611ZM95.1211 130.74C94.5478 130.74 94.0811 130.573 93.7211 130.24C93.3611 129.907 93.1811 129.493 93.1811 129C93.1811 128.507 93.3611 128.093 93.7211 127.76C94.0811 127.427 94.5478 127.26 95.1211 127.26C95.6944 127.26 96.1611 127.42 96.5211 127.74C96.8811 128.047 97.0611 128.447 97.0611 128.94C97.0611 129.46 96.8811 129.893 96.5211 130.24C96.1744 130.573 95.7078 130.74 95.1211 130.74ZM103.197 143.16C102.277 143.16 101.39 143.053 100.537 142.84C99.6967 142.613 99.0301 142.333 98.5367 142L99.5767 139.76C100.07 140.067 100.65 140.32 101.317 140.52C101.997 140.707 102.663 140.8 103.317 140.8C104.037 140.8 104.543 140.713 104.837 140.54C105.143 140.367 105.297 140.127 105.297 139.82C105.297 139.567 105.177 139.38 104.937 139.26C104.71 139.127 104.403 139.027 104.017 138.96C103.63 138.893 103.203 138.827 102.737 138.76C102.283 138.693 101.823 138.607 101.357 138.5C100.89 138.38 100.463 138.207 100.077 137.98C99.6901 137.753 99.3767 137.447 99.1367 137.06C98.9101 136.673 98.7967 136.173 98.7967 135.56C98.7967 134.88 98.9901 134.28 99.3767 133.76C99.7767 133.24 100.35 132.833 101.097 132.54C101.843 132.233 102.737 132.08 103.777 132.08C104.51 132.08 105.257 132.16 106.017 132.32C106.777 132.48 107.41 132.713 107.917 133.02L106.877 135.24C106.357 134.933 105.83 134.727 105.297 134.62C104.777 134.5 104.27 134.44 103.777 134.44C103.083 134.44 102.577 134.533 102.257 134.72C101.937 134.907 101.777 135.147 101.777 135.44C101.777 135.707 101.89 135.907 102.117 136.04C102.357 136.173 102.67 136.28 103.057 136.36C103.443 136.44 103.863 136.513 104.317 136.58C104.783 136.633 105.25 136.72 105.717 136.84C106.183 136.96 106.603 137.133 106.977 137.36C107.363 137.573 107.677 137.873 107.917 138.26C108.157 138.633 108.277 139.127 108.277 139.74C108.277 140.407 108.077 141 107.677 141.52C107.277 142.027 106.697 142.427 105.937 142.72C105.19 143.013 104.277 143.16 103.197 143.16ZM114.602 143.16C113.335 143.16 112.348 142.84 111.642 142.2C110.935 141.547 110.582 140.58 110.582 139.3V129.86H113.702V139.26C113.702 139.713 113.822 140.067 114.062 140.32C114.302 140.56 114.628 140.68 115.042 140.68C115.535 140.68 115.955 140.547 116.302 140.28L117.142 142.48C116.822 142.707 116.435 142.88 115.982 143C115.542 143.107 115.082 143.16 114.602 143.16ZM108.922 134.88V132.48H116.382V134.88H108.922ZM118.893 143V132.24H122.013V143H118.893ZM120.453 130.74C119.88 130.74 119.413 130.573 119.053 130.24C118.693 129.907 118.513 129.493 118.513 129C118.513 128.507 118.693 128.093 119.053 127.76C119.413 127.427 119.88 127.26 120.453 127.26C121.026 127.26 121.493 127.42 121.853 127.74C122.213 128.047 122.393 128.447 122.393 128.94C122.393 129.46 122.213 129.893 121.853 130.24C121.506 130.573 121.04 130.74 120.453 130.74ZM130.109 143.16C128.949 143.16 127.915 142.927 127.009 142.46C126.102 141.98 125.389 141.32 124.869 140.48C124.362 139.64 124.109 138.687 124.109 137.62C124.109 136.54 124.362 135.587 124.869 134.76C125.389 133.92 126.102 133.267 127.009 132.8C127.915 132.32 128.949 132.08 130.109 132.08C131.242 132.08 132.229 132.32 133.069 132.8C133.909 133.267 134.529 133.94 134.929 134.82L132.509 136.12C132.229 135.613 131.875 135.24 131.449 135C131.035 134.76 130.582 134.64 130.089 134.64C129.555 134.64 129.075 134.76 128.649 135C128.222 135.24 127.882 135.58 127.629 136.02C127.389 136.46 127.269 136.993 127.269 137.62C127.269 138.247 127.389 138.78 127.629 139.22C127.882 139.66 128.222 140 128.649 140.24C129.075 140.48 129.555 140.6 130.089 140.6C130.582 140.6 131.035 140.487 131.449 140.26C131.875 140.02 132.229 139.64 132.509 139.12L134.929 140.44C134.529 141.307 133.909 141.98 133.069 142.46C132.229 142.927 131.242 143.16 130.109 143.16ZM140.345 143.16C139.425 143.16 138.538 143.053 137.685 142.84C136.845 142.613 136.178 142.333 135.685 142L136.725 139.76C137.218 140.067 137.798 140.32 138.465 140.52C139.145 140.707 139.812 140.8 140.465 140.8C141.185 140.8 141.692 140.713 141.985 140.54C142.292 140.367 142.445 140.127 142.445 139.82C142.445 139.567 142.325 139.38 142.085 139.26C141.858 139.127 141.552 139.027 141.165 138.96C140.778 138.893 140.352 138.827 139.885 138.76C139.432 138.693 138.972 138.607 138.505 138.5C138.038 138.38 137.612 138.207 137.225 137.98C136.838 137.753 136.525 137.447 136.285 137.06C136.058 136.673 135.945 136.173 135.945 135.56C135.945 134.88 136.138 134.28 136.525 133.76C136.925 133.24 137.498 132.833 138.245 132.54C138.992 132.233 139.885 132.08 140.925 132.08C141.658 132.08 142.405 132.16 143.165 132.32C143.925 132.48 144.558 132.713 145.065 133.02L144.025 135.24C143.505 134.933 142.978 134.727 142.445 134.62C141.925 134.5 141.418 134.44 140.925 134.44C140.232 134.44 139.725 134.533 139.405 134.72C139.085 134.907 138.925 135.147 138.925 135.44C138.925 135.707 139.038 135.907 139.265 136.04C139.505 136.173 139.818 136.28 140.205 136.36C140.592 136.44 141.012 136.513 141.465 136.58C141.932 136.633 142.398 136.72 142.865 136.84C143.332 136.96 143.752 137.133 144.125 137.36C144.512 137.573 144.825 137.873 145.065 138.26C145.305 138.633 145.425 139.127 145.425 139.74C145.425 140.407 145.225 141 144.825 141.52C144.425 142.027 143.845 142.427 143.085 142.72C142.338 143.013 141.425 143.16 140.345 143.16Z" fill="white"/>
<path d="M113.922 86.2156C114.031 86.0911 114.147 85.9782 114.254 85.8512C114.735 85.2777 115.181 84.6746 115.594 84.0486C115.612 84.0221 115.634 83.9987 115.651 83.9715C115.669 83.9438 115.679 83.9123 115.695 83.8834C117.638 80.8666 118.78 77.2874 118.78 73.4406C118.78 69.5938 117.638 66.0146 115.695 62.999C115.678 62.97 115.67 62.9379 115.65 62.9108C115.632 62.883 115.61 62.8608 115.593 62.8337C115.18 62.2065 114.734 61.6041 114.253 61.0312C114.147 60.9041 114.031 60.7894 113.922 60.6667C113.557 60.2535 113.178 59.8545 112.779 59.4734C112.579 59.2817 112.372 59.0979 112.165 58.9141C111.826 58.6169 111.478 58.335 111.119 58.0631C110.892 57.8904 110.669 57.7134 110.434 57.5506C109.969 57.2287 109.49 56.9315 108.999 56.6515C108.783 56.5288 108.566 56.4085 108.347 56.2938C107.822 56.02 107.283 55.7678 106.732 55.5409C106.493 55.4428 106.248 55.3627 106.005 55.2745C105.555 55.1117 105.098 54.9612 104.632 54.8311C104.377 54.7608 104.122 54.6942 103.864 54.6338C103.371 54.5178 102.87 54.4253 102.361 54.3495C102.133 54.3149 101.908 54.2724 101.679 54.2446C100.942 54.1571 100.199 54.1016 99.4414 54.1016C98.6841 54.1016 97.9411 54.1571 97.2066 54.2409C96.9772 54.2674 96.7522 54.31 96.524 54.3458C96.0171 54.4228 95.5145 54.516 95.0211 54.6319C94.7628 54.693 94.5087 54.7589 94.2534 54.8292C93.7878 54.9594 93.3308 55.108 92.88 55.2726C92.6371 55.3608 92.3923 55.441 92.1536 55.539C91.6011 55.7641 91.0639 56.017 90.5386 56.292C90.3178 56.4067 90.102 56.527 89.8868 56.6497C89.3953 56.9302 88.9143 57.2269 88.4518 57.5488C88.2168 57.7116 87.9948 57.8886 87.7666 58.0612C87.4077 58.335 87.0593 58.6162 86.7208 58.9135C86.5123 59.096 86.3076 59.2798 86.1059 59.4716C85.707 59.8527 85.3283 60.2523 84.962 60.6667C84.8528 60.7913 84.7369 60.9041 84.6302 61.0312C84.1492 61.6047 83.7034 62.2078 83.2902 62.8337C83.2723 62.8602 83.2501 62.8837 83.2334 62.9108C83.2156 62.9385 83.2057 62.97 83.189 62.999C81.2447 66.0146 80.1025 69.5937 80.1025 73.4406C80.1025 77.2876 81.2446 80.8666 83.1884 83.8822C83.2051 83.9112 83.2131 83.9433 83.2328 83.9704C83.2507 83.9982 83.2729 84.0204 83.2895 84.0475C83.7027 84.6747 84.1486 85.2772 84.6296 85.8501C84.7357 85.9771 84.8522 86.0918 84.9614 86.2145C85.3258 86.6277 85.7057 87.0279 86.1053 87.4096C86.3057 87.6014 86.5117 87.7852 86.7201 87.9677C87.0587 88.265 87.4083 88.5468 87.766 88.82C87.9923 88.9927 88.2162 89.1696 88.4511 89.3324C88.9155 89.6544 89.3947 89.9516 89.8861 90.2316C90.1014 90.3543 90.3184 90.4745 90.538 90.5892C91.0627 90.863 91.6017 91.1152 92.153 91.3422C92.3922 91.4402 92.6364 91.5204 92.8794 91.6086C93.3308 91.7714 93.7872 91.9219 94.2528 92.052C94.5068 92.1223 94.7627 92.1889 95.0205 92.2493C95.5151 92.3653 96.0165 92.4578 96.5234 92.5355C96.7515 92.57 96.9748 92.6125 97.206 92.6403C97.9411 92.7242 98.6842 92.7797 99.4414 92.7797C100.199 92.7797 100.942 92.7242 101.676 92.6403C101.906 92.6138 102.131 92.5712 102.359 92.5355C102.866 92.4584 103.367 92.3671 103.862 92.2512C104.12 92.1901 104.375 92.1241 104.63 92.0538C105.095 91.9237 105.552 91.7751 106.003 91.6104C106.246 91.5223 106.491 91.4421 106.729 91.344C107.282 91.1189 107.819 90.8661 108.344 90.5911C108.565 90.4764 108.781 90.3561 108.996 90.2334C109.488 89.9528 109.969 89.6562 110.431 89.3343C110.666 89.1715 110.888 88.9945 111.116 88.8218C111.474 88.5499 111.824 88.2681 112.162 87.9708C112.371 87.787 112.577 87.6033 112.777 87.4115C113.178 87.0291 113.556 86.6302 113.922 86.2158L113.922 86.2156ZM111.847 84.3976C111.571 84.7109 111.289 85.0168 110.992 85.3066C110.82 85.4725 110.64 85.6285 110.463 85.7888C110.225 86.0016 109.985 86.2131 109.735 86.4104C109.523 86.5776 109.307 86.7367 109.089 86.8939C108.851 87.0641 108.611 87.2294 108.366 87.3873C108.134 87.5365 107.898 87.6802 107.657 87.8183C107.403 87.9645 107.144 88.1014 106.881 88.2327C106.64 88.3542 106.4 88.4732 106.154 88.5836C105.868 88.7107 105.577 88.8229 105.286 88.9333C105.283 88.9345 105.28 88.9357 105.278 88.9357C106.257 87.4718 107.084 85.6439 107.718 83.5374C109.25 83.6965 110.733 83.8852 112.089 84.1313C112.012 84.2231 111.926 84.3076 111.847 84.3977L111.847 84.3976ZM92.7275 88.583C92.4814 88.4739 92.2415 88.3536 92.001 88.2322C91.7383 88.0996 91.4787 87.9627 91.2246 87.8177C90.9841 87.6796 90.7491 87.5359 90.516 87.3867C90.27 87.2294 90.0301 87.0635 89.7933 86.8933C89.575 86.7361 89.3567 86.577 89.147 86.4099C88.8985 86.2107 88.658 86.001 88.4193 85.7883C88.2411 85.6292 88.0604 85.4731 87.8902 85.306C87.593 85.0162 87.3111 84.7109 87.0349 84.397C86.9559 84.307 86.8702 84.2231 86.7931 84.1306C88.1498 83.8846 89.6329 83.6971 91.1636 83.5368C91.7975 85.6434 92.6251 87.4712 93.6044 88.9351C93.6019 88.9339 93.5989 88.9326 93.5964 88.9326C93.3047 88.8216 93.013 88.71 92.7275 88.583L92.7275 88.583ZM82.9347 74.8219H89.8056C89.8771 76.9408 90.1065 78.9592 90.4809 80.8228C88.5444 81.0356 86.7234 81.3162 85.0658 81.6615C83.8892 79.6124 83.1393 77.2961 82.9345 74.822L82.9347 74.8219ZM85.0665 65.2203C86.7242 65.5656 88.5445 65.8474 90.4816 66.059C90.1073 67.9226 89.8779 69.9391 89.8063 72.0599H82.9354C83.1395 69.5851 83.8894 67.2689 85.0666 65.2204L85.0665 65.2203ZM87.035 62.4835C87.3113 62.1702 87.5931 61.8643 87.8903 61.5745C88.0618 61.4086 88.2425 61.2526 88.4195 61.0922C88.6569 60.8795 88.8974 60.668 89.1471 60.4706C89.3586 60.3035 89.5751 60.1444 89.7934 59.9871C90.0308 59.8169 90.2713 59.6517 90.5162 59.4938C90.748 59.3446 90.9842 59.2009 91.2247 59.0627C91.4788 58.9166 91.7384 58.7797 92.0011 58.6483C92.2416 58.5268 92.4821 58.4078 92.7276 58.2974C93.0137 58.1704 93.3048 58.0582 93.5965 57.9478C93.5989 57.9466 93.602 57.9453 93.6045 57.9453C92.6252 59.4093 91.7977 61.2372 91.1637 63.3437C89.6319 63.1846 88.1493 62.9959 86.7932 62.7498C86.8703 62.6579 86.956 62.5734 87.0349 62.4834L87.035 62.4835ZM106.155 58.298C106.401 58.4072 106.64 58.5274 106.881 58.6489C107.144 58.7815 107.403 58.9184 107.657 59.0633C107.898 59.2015 108.133 59.3452 108.366 59.4944C108.612 59.6516 108.852 59.8175 109.089 59.9877C109.307 60.145 109.525 60.3041 109.735 60.4712C109.984 60.6704 110.224 60.8801 110.463 61.0928C110.641 61.2519 110.822 61.4079 110.992 61.5751C111.289 61.8649 111.571 62.1701 111.847 62.484C111.926 62.5741 112.012 62.6579 112.089 62.7504C110.732 62.9965 109.249 63.184 107.718 63.3443C107.084 61.2377 106.257 59.4099 105.278 57.946C105.28 57.9472 105.283 57.9484 105.286 57.9484C105.577 58.0594 105.869 58.1711 106.155 58.2981L106.155 58.298ZM115.947 72.0592H109.076C109.005 69.9403 108.775 67.9219 108.401 66.0582C110.338 65.8455 112.159 65.5649 113.816 65.2196C114.993 67.2687 115.743 69.585 115.947 72.0591L115.947 72.0592ZM92.5669 72.0592C92.6415 69.9772 92.882 68.052 93.2465 66.3142C95.2451 66.4591 97.3271 66.5337 99.4416 66.5337C101.556 66.5337 103.638 66.4591 105.637 66.3142C106.001 68.0507 106.242 69.9772 106.316 72.0592H92.5669ZM106.316 74.8219C106.242 76.9039 106.001 78.8291 105.637 80.5669C103.638 80.422 101.556 80.3474 99.4417 80.3474C97.3272 80.3474 95.2452 80.422 93.2466 80.5669C92.8821 78.8304 92.6416 76.9039 92.567 74.8219H106.316ZM104.915 63.5805C103.139 63.6964 101.314 63.771 99.4417 63.771C97.5688 63.771 95.744 63.6964 93.9686 63.5805C95.3296 59.3988 97.4522 56.8643 99.4417 56.8643C101.431 56.8643 103.554 59.3988 104.915 63.5805ZM93.9686 83.2999C95.744 83.184 97.5688 83.1094 99.4417 83.1094C101.314 83.1094 103.139 83.184 104.915 83.2999C103.554 87.4816 101.431 90.0162 99.4417 90.0162C97.4522 90.0162 95.3296 87.4816 93.9686 83.2999ZM108.401 80.8222C108.776 78.9585 109.005 76.9421 109.077 74.8213H115.948C115.742 77.2954 114.992 79.6116 113.816 81.6602C112.158 81.3148 110.338 81.033 108.401 80.8221L108.401 80.8222Z" fill="#E6E6E6" stroke="#404CDC" stroke-width="0.676349"/>
<path d="M98.145 110.714L98.0537 113.474C98.5138 113.491 98.9775 113.499 99.4419 113.499C99.9334 113.499 100.424 113.491 100.913 113.471L100.811 110.711C99.9253 110.743 99.0317 110.743 98.1449 110.714H98.145Z" fill="#E6E6E6" stroke="#404CDC" stroke-width="0.676349"/>
<path d="M86.8223 111.469C87.7226 111.768 88.6471 112.038 89.5671 112.271L90.248 109.594C89.3902 109.376 88.5292 109.123 87.6913 108.846L86.8223 111.469Z" fill="#E6E6E6" stroke="#404CDC" stroke-width="0.676349"/>
<path d="M134.851 85.1871L137.473 86.056C137.771 85.1557 138.041 84.2312 138.274 83.3124L135.597 82.6328C135.38 83.4881 135.128 84.3484 134.851 85.1871L134.851 85.1871Z" fill="#E6E6E6" stroke="#404CDC" stroke-width="0.676349"/>
<path d="M92.3647 112.876C93.2996 113.043 94.253 113.179 95.1966 113.277L95.4864 110.531C94.6064 110.438 93.7197 110.312 92.8483 110.156L92.3647 112.876Z" fill="#E6E6E6" stroke="#404CDC" stroke-width="0.676349"/>
<path d="M132.814 90.107L135.285 91.3434C135.711 90.4937 136.11 89.6167 136.473 88.7399L133.92 87.6816C133.582 88.4987 133.21 89.3153 132.814 90.107L132.814 90.107Z" fill="#E6E6E6" stroke="#404CDC" stroke-width="0.676349"/>
<path d="M136.157 80.0302L138.877 80.5161C139.044 79.5812 139.178 78.6278 139.279 77.6831L136.532 77.3945C136.437 78.2733 136.312 79.1601 136.157 80.0302H136.157Z" fill="#E6E6E6" stroke="#404CDC" stroke-width="0.676349"/>
<path d="M136.712 72.0732C136.729 72.5264 136.737 72.9822 136.737 73.441C136.737 73.8733 136.73 74.3056 136.714 74.7366L139.476 74.8334C139.492 74.3709 139.499 73.9066 139.499 73.441C139.499 72.9507 139.491 72.4617 139.473 71.9727L136.712 72.0732Z" fill="#E6E6E6" stroke="#404CDC" stroke-width="0.676349"/>
<path d="M139.27 69.122C139.17 68.1828 139.034 67.2295 138.863 66.2891L136.145 66.7793C136.302 67.6538 136.429 68.5393 136.522 69.412L139.27 69.122Z" fill="#E6E6E6" stroke="#404CDC" stroke-width="0.676349"/>
<path d="M126.755 98.8383L128.779 100.719C129.427 100.022 130.057 99.2946 130.65 98.5565L128.498 96.8242C127.946 97.5106 127.359 98.1877 126.755 98.8383H126.755Z" fill="#E6E6E6" stroke="#404CDC" stroke-width="0.676349"/>
<path d="M103.467 110.523L103.765 113.269C104.714 113.167 105.666 113.029 106.593 112.863L106.104 110.143C105.241 110.299 104.352 110.426 103.467 110.523L103.467 110.523Z" fill="#E6E6E6" stroke="#404CDC" stroke-width="0.676349"/>
<path d="M130.096 94.6864L132.364 96.2651C132.904 95.4875 133.425 94.679 133.912 93.8576L131.536 92.4473C131.084 93.2113 130.598 93.9643 130.096 94.6865L130.096 94.6864Z" fill="#E6E6E6" stroke="#404CDC" stroke-width="0.676349"/>
<path d="M122.862 102.467L124.599 104.618C125.334 104.024 126.059 103.393 126.758 102.744L124.875 100.723C124.223 101.328 123.546 101.915 122.862 102.467Z" fill="#E6E6E6" stroke="#404CDC" stroke-width="0.676349"/>
<path d="M118.497 105.509L119.912 107.884C120.725 107.398 121.534 106.877 122.312 106.336L120.734 104.066C120.01 104.571 119.257 105.057 118.497 105.509H118.497Z" fill="#E6E6E6" stroke="#404CDC" stroke-width="0.676349"/>
<path d="M108.704 109.58L109.389 112.257C110.309 112.021 111.232 111.75 112.133 111.449L111.258 108.83C110.42 109.108 109.561 109.36 108.704 109.58L108.704 109.58Z" fill="#E6E6E6" stroke="#404CDC" stroke-width="0.676349"/>
<path d="M113.745 107.895L114.808 110.445C115.689 110.078 116.562 109.679 117.404 109.256L116.166 106.787C115.381 107.181 114.566 107.553 113.745 107.895L113.745 107.895Z" fill="#E6E6E6" stroke="#404CDC" stroke-width="0.676349"/>
<path d="M69.5734 51.0997L67.362 49.4434C66.7916 50.2043 66.2415 50.9949 65.729 51.7929L68.0527 53.2878C68.5318 52.5447 69.0431 51.8084 69.5734 51.0999L69.5734 51.0997Z" fill="#E6E6E6" stroke="#404CDC" stroke-width="0.676349"/>
<path d="M62.5214 78.771C62.3956 77.8922 62.3006 77.0017 62.2383 76.123L59.4824 76.3179C59.549 77.2627 59.6526 78.2185 59.7864 79.1632L62.5214 78.771Z" fill="#E6E6E6" stroke="#404CDC" stroke-width="0.676349"/>
<path d="M73.1982 43.1727L75.0095 45.2583C75.6792 44.678 76.3754 44.1143 77.0815 43.5852L75.4239 41.375C74.6654 41.9436 73.9167 42.5485 73.1982 43.1727Z" fill="#E6E6E6" stroke="#404CDC" stroke-width="0.676349"/>
<path d="M77.7701 39.7447L79.2674 42.0684C80.0049 41.5917 80.7745 41.1335 81.5546 40.7062L80.2244 38.2832C79.3876 38.7433 78.5613 39.2353 77.77 39.7447L77.7701 39.7447Z" fill="#E6E6E6" stroke="#404CDC" stroke-width="0.676349"/>
<path d="M59.4794 70.6055C59.4146 71.549 59.3813 72.5024 59.3813 73.4416V73.4607L62.1441 73.4416C62.1441 72.5659 62.1743 71.676 62.2353 70.7979L59.4794 70.6055Z" fill="#E6E6E6" stroke="#404CDC" stroke-width="0.676349"/>
<path d="M60.2829 64.9453C60.0812 65.8765 59.9129 66.8225 59.7803 67.7604L62.5152 68.1483C62.6379 67.2751 62.797 66.3927 62.9833 65.528L60.2829 64.9453Z" fill="#E6E6E6" stroke="#404CDC" stroke-width="0.676349"/>
<path d="M83.9301 39.5113C84.7398 39.1394 85.5654 38.7972 86.3845 38.4919L85.42 35.9043C84.5387 36.2317 83.6507 36.6005 82.7788 36.9995L83.9301 39.5113Z" fill="#E6E6E6" stroke="#404CDC" stroke-width="0.676349"/>
<path d="M73.0605 47.0741L71.1056 45.1211C70.4328 45.7951 69.7767 46.5 69.1562 47.2165L71.2449 49.0246C71.8227 48.3573 72.4332 47.7012 73.0604 47.0741H73.0605Z" fill="#E6E6E6" stroke="#404CDC" stroke-width="0.676349"/>
<path d="M99.4202 34.8769L99.1938 36.1213C99.2752 36.1368 99.3585 36.1448 99.4411 36.1448C100.321 36.1448 101.209 36.175 102.084 36.236L102.277 33.4814C101.339 33.4154 100.385 33.3821 99.4411 33.3821L99.4201 33.3809L99.4202 34.8769Z" fill="#E6E6E6" stroke="#404CDC" stroke-width="0.676349"/>
<path d="M107.356 36.9842L107.938 34.2838C107.016 34.0847 106.069 33.9151 105.123 33.7812L104.733 36.5162C105.615 36.6414 106.497 36.8005 107.356 36.9842L107.356 36.9842Z" fill="#E6E6E6" stroke="#404CDC" stroke-width="0.676349"/>
<path d="M88.9108 37.6513C89.7643 37.3997 90.6332 37.179 91.4898 36.994L90.9058 34.293C89.9845 34.4934 89.0508 34.7296 88.1333 34.9991L88.9108 37.6513Z" fill="#E6E6E6" stroke="#404CDC" stroke-width="0.676349"/>
<path d="M66.691 55.5766L64.2669 54.252C63.8124 55.0851 63.3802 55.9454 62.9849 56.8131L65.4978 57.9595C65.8666 57.1528 66.2687 56.3517 66.6911 55.5766L66.691 55.5766Z" fill="#E6E6E6" stroke="#404CDC" stroke-width="0.676349"/>
<path d="M94.1112 36.5221C94.9912 36.3951 95.8823 36.3013 96.758 36.239L96.5644 33.4844C95.6221 33.5491 94.6651 33.6515 93.7202 33.7872L94.1112 36.5221Z" fill="#E6E6E6" stroke="#404CDC" stroke-width="0.676349"/>
<path d="M64.4792 60.4197L61.8905 59.457C61.5575 60.3494 61.2553 61.2638 60.9883 62.1716L63.6406 62.9492C63.8879 62.1019 64.1698 61.2509 64.4793 60.4197L64.4792 60.4197Z" fill="#E6E6E6" stroke="#404CDC" stroke-width="0.676349"/>
<path d="M139.5 32H121.543C120.78 32 120.161 32.6173 120.161 33.3814V36.1441H117.399C115.114 36.1441 113.254 38.0033 113.254 40.2881V41.6695H111.873C109.588 41.6695 107.729 43.5287 107.729 45.8136V49.9576C107.729 50.7217 108.348 51.339 109.11 51.339H112.127C112.699 52.9429 114.218 54.1017 116.017 54.1017C117.815 54.1017 119.335 52.943 119.907 51.339H128.704C129.275 52.9429 130.795 54.1017 132.594 54.1017C134.392 54.1017 135.911 52.943 136.484 51.339H139.5C140.263 51.339 140.882 50.7217 140.882 49.9576V33.3814C140.882 32.6173 140.263 32 139.5 32H139.5ZM110.492 45.8136C110.492 45.0514 111.112 44.4322 111.873 44.4322H114.636C115.398 44.4322 116.017 43.8149 116.017 43.0509V40.2881C116.017 39.5259 116.638 38.9068 117.399 38.9068H120.161V48.5763H110.492V45.8136ZM138.119 48.5763H122.924V34.7627H138.119V48.5763Z" fill="#E6E6E6" stroke="#404CDC" stroke-width="0.676349"/>
<path d="M87.0085 94.1597H85.6271V92.7784C85.6271 90.4935 83.7679 88.6343 81.4831 88.6343H78.7204V85.8716C78.7204 85.1075 78.1012 84.4902 77.339 84.4902H59.3814C58.6191 84.4902 58 85.1075 58 85.8716V102.448C58 103.212 58.6191 103.829 59.3814 103.829H62.3981C62.9704 105.433 64.4899 106.592 66.2881 106.592C68.0864 106.592 69.6059 105.433 70.1782 103.829H78.9745C79.5462 105.433 81.0657 106.592 82.8646 106.592C84.6629 106.592 86.1824 105.433 86.7546 103.829H89.7714C90.5336 103.829 91.1527 103.212 91.1527 102.448V98.3038C91.1527 96.019 89.2935 94.1597 87.0086 94.1597H87.0085ZM60.7627 87.2529H75.9576V101.067H60.7627V87.2529ZM88.3898 101.067H78.7204V91.397H81.4831C82.244 91.397 82.8644 92.0162 82.8644 92.7784V95.5411C82.8644 96.3051 83.4836 96.9224 84.2458 96.9224H87.0085C87.7695 96.9224 88.3898 97.5416 88.3898 98.3038V101.067Z" fill="#E6E6E6" stroke="#404CDC" stroke-width="0.676349"/>
</svg>
