<svg width="200" height="180" viewBox="0 0 200 180" fill="none" xmlns="http://www.w3.org/2000/svg">
<path d="M0 0H170C186.569 0 200 13.4315 200 30V180H30C13.4315 180 0 166.569 0 150V0Z" fill="#47175A"/>
<path d="M54.66 143V129H57.9V140.36H64.92V143H54.66ZM71.5717 143.16C70.4251 143.16 69.4051 142.92 68.5117 142.44C67.6317 141.96 66.9317 141.307 66.4117 140.48C65.9051 139.64 65.6517 138.687 65.6517 137.62C65.6517 136.54 65.9051 135.587 66.4117 134.76C66.9317 133.92 67.6317 133.267 68.5117 132.8C69.4051 132.32 70.4251 132.08 71.5717 132.08C72.7051 132.08 73.7184 132.32 74.6117 132.8C75.5051 133.267 76.2051 133.913 76.7117 134.74C77.2184 135.567 77.4717 136.527 77.4717 137.62C77.4717 138.687 77.2184 139.64 76.7117 140.48C76.2051 141.307 75.5051 141.96 74.6117 142.44C73.7184 142.92 72.7051 143.16 71.5717 143.16ZM71.5717 140.6C72.0917 140.6 72.5584 140.48 72.9717 140.24C73.3851 140 73.7117 139.66 73.9517 139.22C74.1917 138.767 74.3117 138.233 74.3117 137.62C74.3117 136.993 74.1917 136.46 73.9517 136.02C73.7117 135.58 73.3851 135.24 72.9717 135C72.5584 134.76 72.0917 134.64 71.5717 134.64C71.0517 134.64 70.5851 134.76 70.1717 135C69.7584 135.24 69.4251 135.58 69.1717 136.02C68.9317 136.46 68.8117 136.993 68.8117 137.62C68.8117 138.233 68.9317 138.767 69.1717 139.22C69.4251 139.66 69.7584 140 70.1717 140.24C70.5851 140.48 71.0517 140.6 71.5717 140.6ZM84.6172 147.04C83.6039 147.04 82.6239 146.913 81.6772 146.66C80.7439 146.42 79.9639 146.053 79.3372 145.56L80.5772 143.32C81.0305 143.693 81.6039 143.987 82.2972 144.2C83.0039 144.427 83.6972 144.54 84.3772 144.54C85.4839 144.54 86.2839 144.293 86.7772 143.8C87.2839 143.307 87.5372 142.573 87.5372 141.6V139.98L87.7372 137.28L87.6972 134.56V132.24H90.6572V141.2C90.6572 143.2 90.1372 144.673 89.0972 145.62C88.0572 146.567 86.5639 147.04 84.6172 147.04ZM84.1372 142.48C83.1372 142.48 82.2305 142.267 81.4172 141.84C80.6172 141.4 79.9705 140.793 79.4772 140.02C78.9972 139.233 78.7572 138.32 78.7572 137.28C78.7572 136.227 78.9972 135.313 79.4772 134.54C79.9705 133.753 80.6172 133.147 81.4172 132.72C82.2305 132.293 83.1372 132.08 84.1372 132.08C85.0439 132.08 85.8439 132.267 86.5372 132.64C87.2305 133 87.7705 133.567 88.1572 134.34C88.5439 135.1 88.7372 136.08 88.7372 137.28C88.7372 138.467 88.5439 139.447 88.1572 140.22C87.7705 140.98 87.2305 141.547 86.5372 141.92C85.8439 142.293 85.0439 142.48 84.1372 142.48ZM84.7572 139.92C85.3039 139.92 85.7905 139.813 86.2172 139.6C86.6439 139.373 86.9772 139.06 87.2172 138.66C87.4572 138.26 87.5772 137.8 87.5772 137.28C87.5772 136.747 87.4572 136.287 87.2172 135.9C86.9772 135.5 86.6439 135.193 86.2172 134.98C85.7905 134.753 85.3039 134.64 84.7572 134.64C84.2105 134.64 83.7239 134.753 83.2972 134.98C82.8705 135.193 82.5305 135.5 82.2772 135.9C82.0372 136.287 81.9172 136.747 81.9172 137.28C81.9172 137.8 82.0372 138.26 82.2772 138.66C82.5305 139.06 82.8705 139.373 83.2972 139.6C83.7239 139.813 84.2105 139.92 84.7572 139.92ZM93.5611 143V132.24H96.6811V143H93.5611ZM95.1211 130.74C94.5478 130.74 94.0811 130.573 93.7211 130.24C93.3611 129.907 93.1811 129.493 93.1811 129C93.1811 128.507 93.3611 128.093 93.7211 127.76C94.0811 127.427 94.5478 127.26 95.1211 127.26C95.6944 127.26 96.1611 127.42 96.5211 127.74C96.8811 128.047 97.0611 128.447 97.0611 128.94C97.0611 129.46 96.8811 129.893 96.5211 130.24C96.1744 130.573 95.7078 130.74 95.1211 130.74ZM103.197 143.16C102.277 143.16 101.39 143.053 100.537 142.84C99.6967 142.613 99.0301 142.333 98.5367 142L99.5767 139.76C100.07 140.067 100.65 140.32 101.317 140.52C101.997 140.707 102.663 140.8 103.317 140.8C104.037 140.8 104.543 140.713 104.837 140.54C105.143 140.367 105.297 140.127 105.297 139.82C105.297 139.567 105.177 139.38 104.937 139.26C104.71 139.127 104.403 139.027 104.017 138.96C103.63 138.893 103.203 138.827 102.737 138.76C102.283 138.693 101.823 138.607 101.357 138.5C100.89 138.38 100.463 138.207 100.077 137.98C99.6901 137.753 99.3767 137.447 99.1367 137.06C98.9101 136.673 98.7967 136.173 98.7967 135.56C98.7967 134.88 98.9901 134.28 99.3767 133.76C99.7767 133.24 100.35 132.833 101.097 132.54C101.843 132.233 102.737 132.08 103.777 132.08C104.51 132.08 105.257 132.16 106.017 132.32C106.777 132.48 107.41 132.713 107.917 133.02L106.877 135.24C106.357 134.933 105.83 134.727 105.297 134.62C104.777 134.5 104.27 134.44 103.777 134.44C103.083 134.44 102.577 134.533 102.257 134.72C101.937 134.907 101.777 135.147 101.777 135.44C101.777 135.707 101.89 135.907 102.117 136.04C102.357 136.173 102.67 136.28 103.057 136.36C103.443 136.44 103.863 136.513 104.317 136.58C104.783 136.633 105.25 136.72 105.717 136.84C106.183 136.96 106.603 137.133 106.977 137.36C107.363 137.573 107.677 137.873 107.917 138.26C108.157 138.633 108.277 139.127 108.277 139.74C108.277 140.407 108.077 141 107.677 141.52C107.277 142.027 106.697 142.427 105.937 142.72C105.19 143.013 104.277 143.16 103.197 143.16ZM114.602 143.16C113.335 143.16 112.348 142.84 111.642 142.2C110.935 141.547 110.582 140.58 110.582 139.3V129.86H113.702V139.26C113.702 139.713 113.822 140.067 114.062 140.32C114.302 140.56 114.628 140.68 115.042 140.68C115.535 140.68 115.955 140.547 116.302 140.28L117.142 142.48C116.822 142.707 116.435 142.88 115.982 143C115.542 143.107 115.082 143.16 114.602 143.16ZM108.922 134.88V132.48H116.382V134.88H108.922ZM118.893 143V132.24H122.013V143H118.893ZM120.453 130.74C119.88 130.74 119.413 130.573 119.053 130.24C118.693 129.907 118.513 129.493 118.513 129C118.513 128.507 118.693 128.093 119.053 127.76C119.413 127.427 119.88 127.26 120.453 127.26C121.026 127.26 121.493 127.42 121.853 127.74C122.213 128.047 122.393 128.447 122.393 128.94C122.393 129.46 122.213 129.893 121.853 130.24C121.506 130.573 121.04 130.74 120.453 130.74ZM130.109 143.16C128.949 143.16 127.915 142.927 127.009 142.46C126.102 141.98 125.389 141.32 124.869 140.48C124.362 139.64 124.109 138.687 124.109 137.62C124.109 136.54 124.362 135.587 124.869 134.76C125.389 133.92 126.102 133.267 127.009 132.8C127.915 132.32 128.949 132.08 130.109 132.08C131.242 132.08 132.229 132.32 133.069 132.8C133.909 133.267 134.529 133.94 134.929 134.82L132.509 136.12C132.229 135.613 131.875 135.24 131.449 135C131.035 134.76 130.582 134.64 130.089 134.64C129.555 134.64 129.075 134.76 128.649 135C128.222 135.24 127.882 135.58 127.629 136.02C127.389 136.46 127.269 136.993 127.269 137.62C127.269 138.247 127.389 138.78 127.629 139.22C127.882 139.66 128.222 140 128.649 140.24C129.075 140.48 129.555 140.6 130.089 140.6C130.582 140.6 131.035 140.487 131.449 140.26C131.875 140.02 132.229 139.64 132.509 139.12L134.929 140.44C134.529 141.307 133.909 141.98 133.069 142.46C132.229 142.927 131.242 143.16 130.109 143.16ZM140.345 143.16C139.425 143.16 138.538 143.053 137.685 142.84C136.845 142.613 136.178 142.333 135.685 142L136.725 139.76C137.218 140.067 137.798 140.32 138.465 140.52C139.145 140.707 139.812 140.8 140.465 140.8C141.185 140.8 141.692 140.713 141.985 140.54C142.292 140.367 142.445 140.127 142.445 139.82C142.445 139.567 142.325 139.38 142.085 139.26C141.858 139.127 141.552 139.027 141.165 138.96C140.778 138.893 140.352 138.827 139.885 138.76C139.432 138.693 138.972 138.607 138.505 138.5C138.038 138.38 137.612 138.207 137.225 137.98C136.838 137.753 136.525 137.447 136.285 137.06C136.058 136.673 135.945 136.173 135.945 135.56C135.945 134.88 136.138 134.28 136.525 133.76C136.925 133.24 137.498 132.833 138.245 132.54C138.992 132.233 139.885 132.08 140.925 132.08C141.658 132.08 142.405 132.16 143.165 132.32C143.925 132.48 144.558 132.713 145.065 133.02L144.025 135.24C143.505 134.933 142.978 134.727 142.445 134.62C141.925 134.5 141.418 134.44 140.925 134.44C140.232 134.44 139.725 134.533 139.405 134.72C139.085 134.907 138.925 135.147 138.925 135.44C138.925 135.707 139.038 135.907 139.265 136.04C139.505 136.173 139.818 136.28 140.205 136.36C140.592 136.44 141.012 136.513 141.465 136.58C141.932 136.633 142.398 136.72 142.865 136.84C143.332 136.96 143.752 137.133 144.125 137.36C144.512 137.573 144.825 137.873 145.065 138.26C145.305 138.633 145.425 139.127 145.425 139.74C145.425 140.407 145.225 141 144.825 141.52C144.425 142.027 143.845 142.427 143.085 142.72C142.338 143.013 141.425 143.16 140.345 143.16Z" fill="white"/>
<path d="M113.922 90.689C114.031 90.5615 114.147 90.446 114.254 90.316C114.735 89.7291 115.181 89.1118 115.594 88.4712C115.612 88.4441 115.634 88.4201 115.651 88.3923C115.669 88.3639 115.679 88.3317 115.695 88.3021C117.638 85.2146 118.78 81.5515 118.78 77.6146C118.78 73.6776 117.638 70.0145 115.695 66.9282C115.678 66.8986 115.67 66.8657 115.65 66.838C115.632 66.8096 115.61 66.7868 115.593 66.7591C115.18 66.1172 114.734 65.5006 114.253 64.9143C114.147 64.7843 114.031 64.6669 113.922 64.5413C113.557 64.1184 113.178 63.7101 112.779 63.32C112.579 63.1238 112.372 62.9357 112.165 62.7476C111.826 62.4434 111.478 62.155 111.119 61.8766C110.892 61.6999 110.669 61.5188 110.434 61.3522C109.969 61.0227 109.49 60.7185 108.999 60.432C108.783 60.3064 108.566 60.1833 108.347 60.0659C107.822 59.7857 107.283 59.5276 106.732 59.2953C106.493 59.195 106.248 59.1129 106.005 59.0227C105.555 58.8561 105.098 58.7021 104.632 58.5689C104.377 58.4969 104.122 58.4288 103.864 58.3669C103.371 58.2483 102.87 58.1536 102.361 58.076C102.133 58.0406 101.908 57.9971 101.679 57.9687C100.942 57.8791 100.199 57.8223 99.4414 57.8223C98.6841 57.8223 97.9411 57.8791 97.2066 57.9649C96.9772 57.992 96.7522 58.0356 96.524 58.0722C96.0171 58.1511 95.5145 58.2464 95.0211 58.365C94.7628 58.4275 94.5087 58.495 94.2534 58.567C93.7878 58.7002 93.3308 58.8523 92.88 59.0208C92.6371 59.111 92.3923 59.1931 92.1536 59.2934C91.6011 59.5238 91.0639 59.7826 90.5386 60.064C90.3178 60.1814 90.102 60.3045 89.8868 60.4301C89.3953 60.7172 88.9143 61.0208 88.4518 61.3503C88.2168 61.5169 87.9948 61.698 87.7666 61.8747C87.4077 62.155 87.0593 62.4428 86.7208 62.747C86.5123 62.9338 86.3076 63.1218 86.1059 63.3181C85.707 63.7082 85.3283 64.1171 84.962 64.5413C84.8528 64.6688 84.7369 64.7843 84.6302 64.9143C84.1492 65.5012 83.7034 66.1185 83.2902 66.7591C83.2723 66.7862 83.2501 66.8102 83.2334 66.838C83.2156 66.8664 83.2057 66.8985 83.189 66.9282C81.2447 70.0145 80.1025 73.6775 80.1025 77.6146C80.1025 81.5517 81.2446 85.2146 83.1884 88.3009C83.2051 88.3306 83.2131 88.3634 83.2328 88.3912C83.2507 88.4196 83.2729 88.4423 83.2895 88.4701C83.7027 89.1119 84.1486 89.7286 84.6296 90.3149C84.7357 90.4449 84.8522 90.5623 84.9614 90.6879C85.3258 91.1107 85.7057 91.5203 86.1053 91.911C86.3057 92.1073 86.5117 92.2954 86.7201 92.4822C87.0587 92.7864 87.4083 93.0748 87.766 93.3544C87.9923 93.5311 88.2162 93.7122 88.4511 93.8789C88.9155 94.2083 89.3947 94.5125 89.8861 94.7991C90.1014 94.9247 90.3184 95.0477 90.538 95.1651C91.0627 95.4453 91.6017 95.7035 92.153 95.9357C92.3922 96.0361 92.6364 96.1181 92.8794 96.2084C93.3308 96.375 93.7872 96.529 94.2528 96.6622C94.5068 96.7341 94.7627 96.8023 95.0205 96.8641C95.5151 96.9828 96.0165 97.0774 96.5234 97.157C96.7515 97.1923 96.9748 97.2358 97.206 97.2642C97.9411 97.3501 98.6842 97.4069 99.4414 97.4069C100.199 97.4069 100.942 97.3501 101.676 97.2642C101.906 97.2371 102.131 97.1936 102.359 97.157C102.866 97.0781 103.367 96.9847 103.862 96.866C104.12 96.8035 104.375 96.736 104.63 96.664C105.095 96.5309 105.552 96.3788 106.003 96.2103C106.246 96.12 106.491 96.038 106.729 95.9376C107.282 95.7072 107.819 95.4485 108.344 95.167C108.565 95.0496 108.781 94.9265 108.996 94.8009C109.488 94.5138 109.969 94.2102 110.431 93.8808C110.666 93.7142 110.888 93.533 111.116 93.3563C111.474 93.078 111.824 92.7895 112.162 92.4853C112.371 92.2973 112.577 92.1092 112.777 91.9129C113.178 91.5216 113.556 91.1133 113.922 90.6891L113.922 90.689ZM111.847 88.8284C111.571 89.149 111.289 89.462 110.992 89.7587C110.82 89.9284 110.64 90.0881 110.463 90.2522C110.225 90.47 109.985 90.6864 109.735 90.8884C109.523 91.0594 109.307 91.2223 109.089 91.3832C108.851 91.5574 108.611 91.7265 108.366 91.8881C108.134 92.0408 107.898 92.1879 107.657 92.3293C107.403 92.4788 107.144 92.619 106.881 92.7534C106.64 92.8777 106.4 92.9995 106.154 93.1125C105.868 93.2425 105.577 93.3574 105.286 93.4703C105.283 93.4716 105.28 93.4729 105.278 93.4729C106.257 91.9746 107.084 90.1038 107.718 87.948C109.25 88.1108 110.733 88.304 112.089 88.5558C112.012 88.6498 111.926 88.7363 111.847 88.8284L111.847 88.8284ZM92.7275 93.1119C92.4814 93.0002 92.2415 92.8771 92.001 92.7528C91.7383 92.6171 91.4787 92.477 91.2246 92.3287C90.9841 92.1873 90.7491 92.0402 90.516 91.8875C90.27 91.7266 90.0301 91.5568 89.7933 91.3826C89.575 91.2217 89.3567 91.0588 89.147 90.8878C88.8985 90.6839 88.658 90.4694 88.4193 90.2516C88.2411 90.0888 88.0604 89.9291 87.8902 89.7581C87.593 89.4614 87.3111 89.149 87.0349 88.8278C86.9559 88.7356 86.8702 88.6498 86.7931 88.5551C88.1498 88.3033 89.6329 88.1115 91.1636 87.9474C91.7975 90.1033 92.6251 91.974 93.6044 93.4722C93.6019 93.471 93.5989 93.4697 93.5964 93.4697C93.3047 93.3561 93.013 93.2419 92.7275 93.1119L92.7275 93.1119ZM82.9347 79.0282H89.8056C89.8771 81.1968 90.1065 83.2625 90.4809 85.1698C88.5444 85.3876 86.7234 85.6747 85.0658 86.0281C83.8892 83.931 83.1393 81.5604 82.9345 79.0283L82.9347 79.0282ZM85.0665 69.2016C86.7242 69.555 88.5445 69.8434 90.4816 70.0599C90.1073 71.9672 89.8779 74.031 89.8063 76.2015H82.9354C83.1395 73.6687 83.8894 71.2982 85.0666 69.2017L85.0665 69.2016ZM87.035 66.4006C87.3113 66.08 87.5931 65.7669 87.8903 65.4703C88.0618 65.3005 88.2425 65.1409 88.4195 64.9768C88.6569 64.759 88.8974 64.5426 89.1471 64.3406C89.3586 64.1696 89.5751 64.0067 89.7934 63.8458C90.0308 63.6716 90.2713 63.5025 90.5162 63.3409C90.748 63.1882 90.9842 63.0411 91.2247 62.8997C91.4788 62.7501 91.7384 62.61 92.0011 62.4756C92.2416 62.3513 92.4821 62.2295 92.7276 62.1165C93.0137 61.9865 93.3048 61.8716 93.5965 61.7586C93.5989 61.7574 93.602 61.7561 93.6045 61.7561C92.6252 63.2544 91.7977 65.1252 91.1637 67.281C89.6319 67.1181 88.1493 66.925 86.7932 66.6732C86.8703 66.5792 86.956 66.4927 87.0349 66.4006L87.035 66.4006ZM106.155 62.1171C106.401 62.2288 106.64 62.3519 106.881 62.4762C107.144 62.6119 107.403 62.752 107.657 62.9003C107.898 63.0417 108.133 63.1888 108.366 63.3415C108.612 63.5024 108.852 63.6722 109.089 63.8464C109.307 64.0073 109.525 64.1702 109.735 64.3412C109.984 64.545 110.224 64.7596 110.463 64.9774C110.641 65.1402 110.822 65.2999 110.992 65.4709C111.289 65.7675 111.571 66.08 111.847 66.4012C111.926 66.4934 112.012 66.5792 112.089 66.6739C110.732 66.9257 109.249 67.1175 107.718 67.2816C107.084 65.1256 106.257 63.255 105.278 61.7568C105.28 61.758 105.283 61.7593 105.286 61.7593C105.577 61.8729 105.869 61.9871 106.155 62.1171L106.155 62.1171ZM115.947 76.2008H109.076C109.005 74.0322 108.775 71.9665 108.401 70.0592C110.338 69.8414 112.159 69.5543 113.816 69.2008C114.993 71.298 115.743 73.6686 115.947 76.2007L115.947 76.2008ZM92.5669 76.2008C92.6415 74.07 92.882 72.0996 93.2465 70.3211C95.2451 70.4694 97.3271 70.5458 99.4416 70.5458C101.556 70.5458 103.638 70.4694 105.637 70.3211C106.001 72.0984 106.242 74.07 106.316 76.2008H92.5669ZM106.316 79.0282C106.242 81.159 106.001 83.1293 105.637 84.9079C103.638 84.7596 101.556 84.6832 99.4417 84.6832C97.3272 84.6832 95.2452 84.7596 93.2466 84.9079C92.8821 83.1306 92.6416 81.159 92.567 79.0282H106.316ZM104.915 67.5234C103.139 67.642 101.314 67.7184 99.4417 67.7184C97.5688 67.7184 95.744 67.642 93.9686 67.5234C95.3296 63.2437 97.4522 60.6497 99.4417 60.6497C101.431 60.6497 103.554 63.2437 104.915 67.5234ZM93.9686 87.705C95.744 87.5863 97.5688 87.51 99.4417 87.51C101.314 87.51 103.139 87.5863 104.915 87.705C103.554 91.9846 101.431 94.5786 99.4417 94.5786C97.4522 94.5786 95.3296 91.9846 93.9686 87.705ZM108.401 85.1692C108.776 83.2618 109.005 81.1981 109.077 79.0276H115.948C115.742 81.5597 114.992 83.9302 113.816 86.0268C112.158 85.6733 110.338 85.3849 108.401 85.1691L108.401 85.1692Z" fill="#E6E6E6" stroke="#0F52BA" stroke-width="0.676349"/>
<path d="M98.145 115.763L98.0537 118.588C98.5138 118.605 98.9775 118.613 99.4419 118.613C99.9334 118.613 100.424 118.605 100.913 118.585L100.811 115.76C99.9253 115.793 99.0317 115.793 98.1449 115.763H98.145Z" fill="#E6E6E6" stroke="#0F52BA" stroke-width="0.676349"/>
<path d="M86.8223 116.534C87.7226 116.84 88.6471 117.117 89.5671 117.356L90.248 114.616C89.3902 114.392 88.5292 114.134 87.6913 113.85L86.8223 116.534Z" fill="#E6E6E6" stroke="#0F52BA" stroke-width="0.676349"/>
<path d="M134.851 89.6356L137.473 90.5249C137.771 89.6035 138.041 88.6573 138.274 87.717L135.597 87.0215C135.38 87.8969 135.128 88.7773 134.851 89.6357L134.851 89.6356Z" fill="#E6E6E6" stroke="#0F52BA" stroke-width="0.676349"/>
<path d="M92.3647 117.975C93.2996 118.146 94.253 118.285 95.1966 118.385L95.4864 115.575C94.6064 115.48 93.7197 115.351 92.8483 115.191L92.3647 117.975Z" fill="#E6E6E6" stroke="#0F52BA" stroke-width="0.676349"/>
<path d="M132.814 94.6736L135.285 95.939C135.711 95.0693 136.11 94.1718 136.473 93.2744L133.92 92.1914C133.582 93.0277 133.21 93.8633 132.814 94.6736L132.814 94.6736Z" fill="#E6E6E6" stroke="#0F52BA" stroke-width="0.676349"/>
<path d="M136.157 84.3595L138.877 84.8568C139.044 83.9 139.178 82.9243 139.279 81.9575L136.532 81.6621C136.437 82.5615 136.312 83.4691 136.157 84.3595H136.157Z" fill="#E6E6E6" stroke="#0F52BA" stroke-width="0.676349"/>
<path d="M136.712 76.2162C136.729 76.68 136.737 77.1464 136.737 77.616C136.737 78.0584 136.73 78.5009 136.714 78.942L139.476 79.0411C139.492 78.5677 139.499 78.0925 139.499 77.616C139.499 77.1143 139.491 76.6138 139.473 76.1133L136.712 76.2162Z" fill="#E6E6E6" stroke="#0F52BA" stroke-width="0.676349"/>
<path d="M139.27 73.1943C139.17 72.2331 139.034 71.2574 138.863 70.2949L136.145 70.7967C136.302 71.6916 136.429 72.5979 136.522 73.491L139.27 73.1943Z" fill="#E6E6E6" stroke="#0F52BA" stroke-width="0.676349"/>
<path d="M126.755 103.608L128.779 105.532C129.427 104.82 130.057 104.075 130.65 103.32L128.498 101.547C127.946 102.249 127.359 102.942 126.755 103.608H126.755Z" fill="#E6E6E6" stroke="#0F52BA" stroke-width="0.676349"/>
<path d="M103.467 115.565L103.765 118.376C104.714 118.271 105.666 118.129 106.593 117.96L106.104 115.176C105.241 115.336 104.352 115.466 103.467 115.565L103.467 115.565Z" fill="#E6E6E6" stroke="#0F52BA" stroke-width="0.676349"/>
<path d="M130.096 99.358L132.364 100.974C132.904 100.178 133.425 99.3504 133.912 98.5098L131.536 97.0664C131.084 97.8484 130.598 98.619 130.096 99.3581L130.096 99.358Z" fill="#E6E6E6" stroke="#0F52BA" stroke-width="0.676349"/>
<path d="M122.862 107.321L124.599 109.522C125.334 108.914 126.059 108.268 126.758 107.603L124.875 105.535C124.223 106.154 123.546 106.755 122.862 107.321Z" fill="#E6E6E6" stroke="#0F52BA" stroke-width="0.676349"/>
<path d="M118.497 110.434L119.912 112.864C120.725 112.367 121.534 111.834 122.312 111.28L120.734 108.957C120.01 109.474 119.257 109.971 118.497 110.434H118.497Z" fill="#E6E6E6" stroke="#0F52BA" stroke-width="0.676349"/>
<path d="M108.704 114.601L109.389 117.341C110.309 117.099 111.232 116.822 112.133 116.514L111.258 113.834C110.42 114.118 109.561 114.377 108.704 114.601L108.704 114.601Z" fill="#E6E6E6" stroke="#0F52BA" stroke-width="0.676349"/>
<path d="M113.745 112.876L114.808 115.486C115.689 115.11 116.562 114.702 117.404 114.269L116.166 111.742C115.381 112.145 114.566 112.526 113.745 112.876L113.745 112.876Z" fill="#E6E6E6" stroke="#0F52BA" stroke-width="0.676349"/>
<path d="M69.5734 54.7499L67.362 53.0547C66.7916 53.8335 66.2415 54.6426 65.729 55.4593L68.0527 56.9892C68.5318 56.2287 69.0431 55.4751 69.5734 54.75L69.5734 54.7499Z" fill="#E6E6E6" stroke="#0F52BA" stroke-width="0.676349"/>
<path d="M62.5214 83.0694C62.3956 82.17 62.3006 81.2587 62.2383 80.3594L59.4824 80.5588C59.549 81.5257 59.6526 82.5039 59.7864 83.4708L62.5214 83.0694Z" fill="#E6E6E6" stroke="#0F52BA" stroke-width="0.676349"/>
<path d="M73.1982 46.6386L75.0095 48.7731C75.6792 48.1792 76.3754 47.6024 77.0815 47.0608L75.4239 44.7988C74.6654 45.3807 73.9167 45.9999 73.1982 46.6386Z" fill="#E6E6E6" stroke="#0F52BA" stroke-width="0.676349"/>
<path d="M77.7701 43.1286L79.2674 45.5067C80.0049 45.0189 80.7745 44.5499 81.5546 44.1126L80.2244 41.6328C79.3876 42.1036 78.5613 42.6073 77.77 43.1286L77.7701 43.1286Z" fill="#E6E6E6" stroke="#0F52BA" stroke-width="0.676349"/>
<path d="M59.4794 74.7148C59.4146 75.6805 59.3813 76.6563 59.3813 77.6174V77.637L62.1441 77.6174C62.1441 76.7212 62.1743 75.8104 62.2353 74.9118L59.4794 74.7148Z" fill="#E6E6E6" stroke="#0F52BA" stroke-width="0.676349"/>
<path d="M60.2829 68.9199C60.0812 69.8729 59.9129 70.8411 59.7803 71.801L62.5152 72.198C62.6379 71.3043 62.797 70.4012 62.9833 69.5163L60.2829 68.9199Z" fill="#E6E6E6" stroke="#0F52BA" stroke-width="0.676349"/>
<path d="M83.9301 42.8908C84.7398 42.5102 85.5654 42.1599 86.3845 41.8475L85.42 39.1992C84.5387 39.5343 83.6507 39.9118 82.7788 40.3201L83.9301 42.8908Z" fill="#E6E6E6" stroke="#0F52BA" stroke-width="0.676349"/>
<path d="M73.0605 50.6316L71.1056 48.6328C70.4328 49.3226 69.7767 50.044 69.1562 50.7773L71.2449 52.6278C71.8227 51.9449 72.4332 51.2734 73.0604 50.6316H73.0605Z" fill="#E6E6E6" stroke="#0F52BA" stroke-width="0.676349"/>
<path d="M99.4202 38.1463L99.1938 39.4199C99.2752 39.4357 99.3585 39.4439 99.4411 39.4439C100.321 39.4439 101.209 39.4749 102.084 39.5373L102.277 36.7181C101.339 36.6506 100.385 36.6165 99.4411 36.6165L99.4201 36.6152L99.4202 38.1463Z" fill="#E6E6E6" stroke="#0F52BA" stroke-width="0.676349"/>
<path d="M107.356 40.3034L107.938 37.5398C107.016 37.3359 106.069 37.1624 105.123 37.0254L104.733 39.8244C105.615 39.9525 106.497 40.1154 107.356 40.3034L107.356 40.3034Z" fill="#E6E6E6" stroke="#0F52BA" stroke-width="0.676349"/>
<path d="M88.9108 40.9879C89.7643 40.7304 90.6332 40.5044 91.4898 40.3151L90.9058 37.5508C89.9845 37.7559 89.0508 37.9976 88.1333 38.2734L88.9108 40.9879Z" fill="#E6E6E6" stroke="#0F52BA" stroke-width="0.676349"/>
<path d="M66.691 59.3322L64.2669 57.9766C63.8124 58.8292 63.3802 59.7097 62.9849 60.5977L65.4978 61.771C65.8666 60.9454 66.2687 60.1255 66.6911 59.3322L66.691 59.3322Z" fill="#E6E6E6" stroke="#0F52BA" stroke-width="0.676349"/>
<path d="M94.1112 39.8316C94.9912 39.7016 95.8823 39.6056 96.758 39.5419L96.5644 36.7227C95.6221 36.7889 94.6651 36.8937 93.7202 37.0325L94.1112 39.8316Z" fill="#E6E6E6" stroke="#0F52BA" stroke-width="0.676349"/>
<path d="M64.4792 64.2879L61.8905 63.3027C61.5575 64.216 61.2553 65.1519 60.9883 66.0809L63.6406 66.8768C63.8879 66.0096 64.1698 65.1386 64.4793 64.288L64.4792 64.2879Z" fill="#E6E6E6" stroke="#0F52BA" stroke-width="0.676349"/>
<path d="M139.5 35.2031H121.543C120.78 35.2031 120.161 35.8349 120.161 36.6169V39.4443H117.399C115.114 39.4443 113.254 41.3471 113.254 43.6855V45.0993H111.873C109.588 45.0993 107.729 47.0021 107.729 49.3404V53.5816C107.729 54.3636 108.348 54.9954 109.11 54.9954H112.127C112.699 56.6369 114.218 57.8228 116.017 57.8228C117.815 57.8228 119.335 56.637 119.907 54.9954H128.704C129.275 56.6369 130.795 57.8228 132.594 57.8228C134.392 57.8228 135.911 56.637 136.484 54.9954H139.5C140.263 54.9954 140.882 54.3636 140.882 53.5816V36.6169C140.882 35.8349 140.263 35.2031 139.5 35.2031H139.5ZM110.492 49.3404C110.492 48.5604 111.112 47.9267 111.873 47.9267H114.636C115.398 47.9267 116.017 47.2949 116.017 46.513V43.6855C116.017 42.9054 116.638 42.2718 117.399 42.2718H120.161V52.1679H110.492V49.3404ZM138.119 52.1679H122.924V38.0306H138.119V52.1679Z" fill="#E6E6E6" stroke="#0F52BA" stroke-width="0.676349"/>
<path d="M87.0085 98.82H85.6271V97.4062C85.6271 95.0678 83.7679 93.165 81.4831 93.165H78.7204V90.3376C78.7204 89.5556 78.1012 88.9238 77.339 88.9238H59.3814C58.6191 88.9238 58 89.5556 58 90.3376V107.302C58 108.084 58.6191 108.716 59.3814 108.716H62.3981C62.9704 110.358 64.4899 111.544 66.2881 111.544C68.0864 111.544 69.6059 110.358 70.1782 108.716H78.9745C79.5462 110.358 81.0657 111.544 82.8646 111.544C84.6629 111.544 86.1824 110.358 86.7546 108.716H89.7714C90.5336 108.716 91.1527 108.084 91.1527 107.302V103.061C91.1527 100.723 89.2935 98.82 87.0086 98.82H87.0085ZM60.7627 91.7513H75.9576V105.889H60.7627V91.7513ZM88.3898 105.889H78.7204V95.9925H81.4831C82.244 95.9925 82.8644 96.6261 82.8644 97.4062V100.234C82.8644 101.016 83.4836 101.647 84.2458 101.647H87.0085C87.7695 101.647 88.3898 102.281 88.3898 103.061V105.889Z" fill="#E6E6E6" stroke="#0F52BA" stroke-width="0.676349"/>
</svg>
