<svg width="200" height="180" viewBox="0 0 200 180" fill="none" xmlns="http://www.w3.org/2000/svg">
<path d="M0 0H170C186.569 0 200 13.4315 200 30V180H30C13.4315 180 0 166.569 0 150V0Z" fill="#147F00"/>
<path d="M23.66 142V128H26.34L32.3 137.88H30.88L36.74 128H39.4L39.44 142H36.4L36.38 132.66H36.94L32.26 140.52H30.8L26.02 132.66H26.7V142H23.66ZM49.1416 142V139.9L48.9416 139.44V135.68C48.9416 135.013 48.7349 134.493 48.3216 134.12C47.9216 133.747 47.3016 133.56 46.4616 133.56C45.8882 133.56 45.3216 133.653 44.7616 133.84C44.2149 134.013 43.7482 134.253 43.3616 134.56L42.2416 132.38C42.8282 131.967 43.5349 131.647 44.3616 131.42C45.1882 131.193 46.0282 131.08 46.8816 131.08C48.5216 131.08 49.7949 131.467 50.7016 132.24C51.6082 133.013 52.0616 134.22 52.0616 135.86V142H49.1416ZM45.8616 142.16C45.0216 142.16 44.3016 142.02 43.7016 141.74C43.1016 141.447 42.6416 141.053 42.3216 140.56C42.0016 140.067 41.8416 139.513 41.8416 138.9C41.8416 138.26 41.9949 137.7 42.3016 137.22C42.6216 136.74 43.1216 136.367 43.8016 136.1C44.4816 135.82 45.3682 135.68 46.4616 135.68H49.3216V137.5H46.8016C46.0682 137.5 45.5616 137.62 45.2816 137.86C45.0149 138.1 44.8816 138.4 44.8816 138.76C44.8816 139.16 45.0349 139.48 45.3416 139.72C45.6616 139.947 46.0949 140.06 46.6416 140.06C47.1616 140.06 47.6282 139.94 48.0416 139.7C48.4549 139.447 48.7549 139.08 48.9416 138.6L49.4216 140.04C49.1949 140.733 48.7816 141.26 48.1816 141.62C47.5816 141.98 46.8082 142.16 45.8616 142.16ZM61.4253 131.08C62.2786 131.08 63.0386 131.253 63.7053 131.6C64.3853 131.933 64.9186 132.453 65.3053 133.16C65.692 133.853 65.8853 134.747 65.8853 135.84V142H62.7653V136.32C62.7653 135.453 62.572 134.813 62.1853 134.4C61.812 133.987 61.2786 133.78 60.5853 133.78C60.092 133.78 59.6453 133.887 59.2453 134.1C58.8586 134.3 58.552 134.613 58.3253 135.04C58.112 135.467 58.0053 136.013 58.0053 136.68V142H54.8853V131.24H57.8653V134.22L57.3053 133.32C57.692 132.6 58.2453 132.047 58.9653 131.66C59.6853 131.273 60.5053 131.08 61.4253 131.08ZM73.2534 142.16C72.3601 142.16 71.5601 141.987 70.8534 141.64C70.1601 141.293 69.6201 140.767 69.2334 140.06C68.8468 139.34 68.6534 138.427 68.6534 137.32V131.24H71.7734V136.86C71.7734 137.753 71.9601 138.413 72.3334 138.84C72.7201 139.253 73.2601 139.46 73.9534 139.46C74.4334 139.46 74.8601 139.36 75.2334 139.16C75.6068 138.947 75.9001 138.627 76.1134 138.2C76.3268 137.76 76.4334 137.213 76.4334 136.56V131.24H79.5534V142H76.5934V139.04L77.1334 139.9C76.7734 140.647 76.2401 141.213 75.5334 141.6C74.8401 141.973 74.0801 142.16 73.2534 142.16ZM82.8239 142V131C82.8239 129.787 83.1839 128.82 83.9039 128.1C84.6239 127.367 85.6506 127 86.9839 127C87.4372 127 87.8706 127.047 88.2839 127.14C88.7106 127.233 89.0706 127.38 89.3639 127.58L88.5439 129.84C88.3706 129.72 88.1772 129.627 87.9639 129.56C87.7506 129.493 87.5239 129.46 87.2839 129.46C86.8306 129.46 86.4772 129.593 86.2239 129.86C85.9839 130.113 85.8639 130.5 85.8639 131.02V132.02L85.9439 133.36V142H82.8239ZM81.1639 133.88V131.48H88.6239V133.88H81.1639ZM96.583 142V139.9L96.383 139.44V135.68C96.383 135.013 96.1763 134.493 95.763 134.12C95.363 133.747 94.743 133.56 93.903 133.56C93.3296 133.56 92.763 133.653 92.203 133.84C91.6563 134.013 91.1896 134.253 90.803 134.56L89.683 132.38C90.2696 131.967 90.9763 131.647 91.803 131.42C92.6296 131.193 93.4696 131.08 94.323 131.08C95.963 131.08 97.2363 131.467 98.143 132.24C99.0496 133.013 99.503 134.22 99.503 135.86V142H96.583ZM93.303 142.16C92.463 142.16 91.743 142.02 91.143 141.74C90.543 141.447 90.083 141.053 89.763 140.56C89.443 140.067 89.283 139.513 89.283 138.9C89.283 138.26 89.4363 137.7 89.743 137.22C90.063 136.74 90.563 136.367 91.243 136.1C91.923 135.82 92.8096 135.68 93.903 135.68H96.763V137.5H94.243C93.5096 137.5 93.003 137.62 92.723 137.86C92.4563 138.1 92.323 138.4 92.323 138.76C92.323 139.16 92.4763 139.48 92.783 139.72C93.103 139.947 93.5363 140.06 94.083 140.06C94.603 140.06 95.0696 139.94 95.483 139.7C95.8963 139.447 96.1963 139.08 96.383 138.6L96.863 140.04C96.6363 140.733 96.223 141.26 95.623 141.62C95.023 141.98 94.2496 142.16 93.303 142.16ZM107.605 142.16C106.445 142.16 105.412 141.927 104.505 141.46C103.598 140.98 102.885 140.32 102.365 139.48C101.858 138.64 101.605 137.687 101.605 136.62C101.605 135.54 101.858 134.587 102.365 133.76C102.885 132.92 103.598 132.267 104.505 131.8C105.412 131.32 106.445 131.08 107.605 131.08C108.738 131.08 109.725 131.32 110.565 131.8C111.405 132.267 112.025 132.94 112.425 133.82L110.005 135.12C109.725 134.613 109.372 134.24 108.945 134C108.532 133.76 108.078 133.64 107.585 133.64C107.052 133.64 106.572 133.76 106.145 134C105.718 134.24 105.378 134.58 105.125 135.02C104.885 135.46 104.765 135.993 104.765 136.62C104.765 137.247 104.885 137.78 105.125 138.22C105.378 138.66 105.718 139 106.145 139.24C106.572 139.48 107.052 139.6 107.585 139.6C108.078 139.6 108.532 139.487 108.945 139.26C109.372 139.02 109.725 138.64 110.005 138.12L112.425 139.44C112.025 140.307 111.405 140.98 110.565 141.46C109.725 141.927 108.738 142.16 107.605 142.16ZM118.778 142.16C117.511 142.16 116.524 141.84 115.818 141.2C115.111 140.547 114.758 139.58 114.758 138.3V128.86H117.878V138.26C117.878 138.713 117.998 139.067 118.238 139.32C118.478 139.56 118.804 139.68 119.218 139.68C119.711 139.68 120.131 139.547 120.478 139.28L121.318 141.48C120.998 141.707 120.611 141.88 120.158 142C119.718 142.107 119.258 142.16 118.778 142.16ZM113.098 133.88V131.48H120.558V133.88H113.098ZM127.609 142.16C126.716 142.16 125.916 141.987 125.209 141.64C124.516 141.293 123.976 140.767 123.589 140.06C123.202 139.34 123.009 138.427 123.009 137.32V131.24H126.129V136.86C126.129 137.753 126.316 138.413 126.689 138.84C127.076 139.253 127.616 139.46 128.309 139.46C128.789 139.46 129.216 139.36 129.589 139.16C129.962 138.947 130.256 138.627 130.469 138.2C130.682 137.76 130.789 137.213 130.789 136.56V131.24H133.909V142H130.949V139.04L131.489 139.9C131.129 140.647 130.596 141.213 129.889 141.6C129.196 141.973 128.436 142.16 127.609 142.16ZM136.799 142V131.24H139.779V134.28L139.359 133.4C139.679 132.64 140.193 132.067 140.899 131.68C141.606 131.28 142.466 131.08 143.479 131.08V133.96C143.346 133.947 143.226 133.94 143.119 133.94C143.013 133.927 142.899 133.92 142.779 133.92C141.926 133.92 141.233 134.167 140.699 134.66C140.179 135.14 139.919 135.893 139.919 136.92V142H136.799ZM145.354 142V131.24H148.474V142H145.354ZM146.914 129.74C146.341 129.74 145.874 129.573 145.514 129.24C145.154 128.907 144.974 128.493 144.974 128C144.974 127.507 145.154 127.093 145.514 126.76C145.874 126.427 146.341 126.26 146.914 126.26C147.487 126.26 147.954 126.42 148.314 126.74C148.674 127.047 148.854 127.447 148.854 127.94C148.854 128.46 148.674 128.893 148.314 129.24C147.967 129.573 147.501 129.74 146.914 129.74ZM157.91 131.08C158.763 131.08 159.523 131.253 160.19 131.6C160.87 131.933 161.403 132.453 161.79 133.16C162.176 133.853 162.37 134.747 162.37 135.84V142H159.25V136.32C159.25 135.453 159.056 134.813 158.67 134.4C158.296 133.987 157.763 133.78 157.07 133.78C156.576 133.78 156.13 133.887 155.73 134.1C155.343 134.3 155.036 134.613 154.81 135.04C154.596 135.467 154.49 136.013 154.49 136.68V142H151.37V131.24H154.35V134.22L153.79 133.32C154.176 132.6 154.73 132.047 155.45 131.66C156.17 131.273 156.99 131.08 157.91 131.08ZM170.336 146.04C169.323 146.04 168.343 145.913 167.396 145.66C166.463 145.42 165.683 145.053 165.056 144.56L166.296 142.32C166.749 142.693 167.323 142.987 168.016 143.2C168.723 143.427 169.416 143.54 170.096 143.54C171.203 143.54 172.003 143.293 172.496 142.8C173.003 142.307 173.256 141.573 173.256 140.6V138.98L173.456 136.28L173.416 133.56V131.24H176.376V140.2C176.376 142.2 175.856 143.673 174.816 144.62C173.776 145.567 172.283 146.04 170.336 146.04ZM169.856 141.48C168.856 141.48 167.949 141.267 167.136 140.84C166.336 140.4 165.689 139.793 165.196 139.02C164.716 138.233 164.476 137.32 164.476 136.28C164.476 135.227 164.716 134.313 165.196 133.54C165.689 132.753 166.336 132.147 167.136 131.72C167.949 131.293 168.856 131.08 169.856 131.08C170.763 131.08 171.563 131.267 172.256 131.64C172.949 132 173.489 132.567 173.876 133.34C174.263 134.1 174.456 135.08 174.456 136.28C174.456 137.467 174.263 138.447 173.876 139.22C173.489 139.98 172.949 140.547 172.256 140.92C171.563 141.293 170.763 141.48 169.856 141.48ZM170.476 138.92C171.023 138.92 171.509 138.813 171.936 138.6C172.363 138.373 172.696 138.06 172.936 137.66C173.176 137.26 173.296 136.8 173.296 136.28C173.296 135.747 173.176 135.287 172.936 134.9C172.696 134.5 172.363 134.193 171.936 133.98C171.509 133.753 171.023 133.64 170.476 133.64C169.929 133.64 169.443 133.753 169.016 133.98C168.589 134.193 168.249 134.5 167.996 134.9C167.756 135.287 167.636 135.747 167.636 136.28C167.636 136.8 167.756 137.26 167.996 137.66C168.249 138.06 168.589 138.373 169.016 138.6C169.443 138.813 169.929 138.92 170.476 138.92Z" fill="white"/>
<path d="M52.374 88.1389H83.4995V102.574C83.4995 103.052 83.6896 103.511 84.0279 103.85C84.3662 104.188 84.8253 104.378 85.3038 104.378H87.1082V107.987C87.1082 108.983 87.9161 109.791 88.9125 109.791C89.9089 109.791 90.7168 108.983 90.7168 107.987V104.378H108.76V107.987C108.76 108.983 109.568 109.791 110.565 109.791C111.561 109.791 112.369 108.983 112.369 107.987V104.378H114.173C114.299 104.392 114.426 104.392 114.552 104.378H114.642C114.735 104.355 114.826 104.325 114.913 104.288L115.03 104.225L115.238 104.098L115.356 104.008L115.536 103.837L115.59 103.783L122.808 94.761V94.707L122.916 94.5443L122.997 94.4001C123.044 94.2914 123.083 94.1802 123.114 94.0658V93.9031V93.9039C123.118 93.8379 123.118 93.771 123.114 93.705V93.6325V88.1388H147.022C149.787 88.1581 152.445 87.0739 154.408 85.1263C156.37 83.1785 157.476 80.5292 157.478 77.7639V76.8617C157.484 74.6555 156.788 72.5047 155.49 70.7214C154.192 68.9372 152.361 67.6121 150.261 66.9378V57.4649C150.261 56.9865 150.071 56.5273 149.732 56.189C149.394 55.8507 148.935 55.6606 148.456 55.6606H137.63C136.634 55.6606 135.826 56.4685 135.826 57.4649V66.4866H132.217V57.4649C132.217 56.9865 132.027 56.5273 131.689 56.189C131.351 55.8507 130.891 55.6606 130.413 55.6606H123.196V35.8128C123.207 35.696 123.207 35.5776 123.196 35.4608C123.196 35.4068 123.196 35.3617 123.151 35.3077C123.124 35.1829 123.075 35.0637 123.006 34.9557C123.006 34.9106 122.961 34.8655 122.934 34.8204C122.803 34.6239 122.634 34.4555 122.438 34.3242L122.293 34.2429L122.113 34.1526L121.933 34.0987L121.743 34.0085C121.627 33.9972 121.508 33.9972 121.391 34.0085H92.5218C92.405 33.9972 92.2866 33.9972 92.1698 34.0085L92.0167 34.0536L91.8363 34.1075L91.6559 34.1978L91.5205 34.2702C91.4198 34.3355 91.3264 34.4112 91.241 34.4958L84.0236 41.7132C83.9391 41.7986 83.8633 41.892 83.7981 41.9927C83.7981 41.9927 83.753 42.0829 83.7256 42.128C83.6563 42.236 83.608 42.3552 83.5814 42.48C83.5814 42.534 83.5814 42.5791 83.5363 42.6331C83.5097 42.7636 83.4976 42.8973 83.5 43.0302V66.4867H79.8914V57.465C79.8914 56.9865 79.7013 56.5273 79.3629 56.189C79.0246 55.8507 78.5655 55.6606 78.087 55.6606H67.2609C66.2645 55.6606 65.4566 56.4685 65.4566 57.465V66.4867H61.8479V57.465C61.8479 56.9865 61.6578 56.5273 61.3195 56.189C60.9812 55.8507 60.522 55.6606 60.0436 55.6606H49.2175C48.2211 55.6606 47.4131 56.4685 47.4131 57.465V67.7497C45.7755 68.6422 44.4095 69.9601 43.4564 71.563C42.5042 73.1667 42.0008 74.9968 42 76.8616V77.7637C42.0024 80.5146 43.0963 83.1518 45.0416 85.097C46.9869 87.0422 49.6242 88.1362 52.3749 88.1386L52.374 88.1389ZM119.586 92.9205L115.978 97.4314V88.1391H119.586V92.9205ZM139.434 59.2689H141.239V60.3427C141.239 61.3391 142.046 62.147 143.043 62.147C144.039 62.147 144.847 61.3391 144.847 60.3427V59.2689H146.652V66.4863H139.434V59.2689ZM137.63 70.095H147.103C148.897 70.0974 150.616 70.8111 151.884 72.0798C153.153 73.3476 153.867 75.0674 153.869 76.8614V77.7636C153.867 79.5574 153.153 81.2772 151.884 82.5452C150.616 83.8139 148.897 84.5276 147.103 84.53H115.977V70.0952L137.63 70.095ZM121.391 59.2689H123.195V60.3427C123.195 61.3391 124.003 62.147 124.999 62.147C125.996 62.147 126.804 61.3391 126.804 60.3427V59.2689H128.608V66.4863H121.391V59.2689ZM119.586 55.6602C118.59 55.6602 117.782 56.4682 117.782 57.4646V66.4863H115.978V43.7784L119.586 40.1697V55.6602ZM93.2697 37.6168H117.031L113.423 41.2255H89.661L93.2697 37.6168ZM87.1075 90.8439H93.4227C94.4192 90.8439 95.2271 90.036 95.2271 89.0396C95.2271 88.0432 94.4192 87.2353 93.4227 87.2353H87.1075V81.8222H93.4227C94.4192 81.8222 95.2271 81.0143 95.2271 80.0179C95.2271 79.0215 94.4192 78.2135 93.4227 78.2135H87.1075V72.8005H93.4227C94.4192 72.8005 95.2271 71.9926 95.2271 70.9962C95.2271 69.9997 94.4192 69.1918 93.4227 69.1918H87.1075V63.7788H93.4227C94.4192 63.7788 95.2271 62.9708 95.2271 61.9744C95.2271 60.978 94.4192 60.1701 93.4227 60.1701H87.1075V54.757H93.4227C94.4192 54.757 95.2271 53.9491 95.2271 52.9527C95.2271 51.9563 94.4192 51.1483 93.4227 51.1483H87.1075V44.8331H112.368V100.768H87.1075V90.8439ZM69.0641 59.2689H70.8684V60.3427C70.8684 61.3391 71.6764 62.147 72.6728 62.147C73.6692 62.147 74.4771 61.3391 74.4771 60.3427V59.2689H76.2815V66.4863H69.0641V59.2689ZM51.0206 59.2689H52.825V60.3427C52.825 61.3391 53.6329 62.147 54.6293 62.147C55.6257 62.147 56.4337 61.3391 56.4337 60.3427V59.2689H58.238V66.4863H51.0206V59.2689ZM45.6076 76.8612C45.61 75.0673 46.3237 73.3476 47.5924 72.0796C48.8602 70.8109 50.58 70.0972 52.374 70.0948H83.4995V84.5296H52.374C50.5801 84.5271 48.8604 83.8135 47.5924 82.5448C46.3237 81.2769 45.61 79.5572 45.6076 77.7632V76.8612Z" fill="white" stroke="#404CDC"/>
<path d="M60.9462 107.987C61.4247 107.987 61.8838 107.797 62.2221 107.459C62.5605 107.12 62.7506 106.661 62.7506 106.183V94.4544H67.2614C68.2578 94.4544 69.0658 93.6465 69.0658 92.65C69.0658 91.6536 68.2578 90.8457 67.2614 90.8457H54.631C53.6346 90.8457 52.8267 91.6536 52.8267 92.65C52.8267 93.6465 53.6346 94.4544 54.631 94.4544H59.1419V106.183C59.1419 106.661 59.332 107.12 59.6703 107.459C60.0086 107.797 60.4677 107.987 60.9462 107.987Z" fill="white" stroke="#404CDC"/>
<path d="M150.26 92.6481C150.26 92.1696 150.07 91.7105 149.732 91.3722C149.393 91.0339 148.934 90.8438 148.456 90.8438H135.825C134.829 90.8438 134.021 91.6517 134.021 92.6481C134.021 93.6445 134.829 94.4524 135.825 94.4524H140.336V106.181C140.336 107.177 141.144 107.985 142.141 107.985C143.137 107.985 143.945 107.177 143.945 106.181V94.4524H148.456C148.934 94.4524 149.393 94.2623 149.732 93.924C150.07 93.5857 150.26 93.1266 150.26 92.6481Z" fill="white" stroke="#404CDC"/>
<path d="M144.847 82.7263C146.282 82.7263 147.66 82.156 148.675 81.141C149.689 80.1261 150.26 78.7485 150.26 77.3133C150.26 75.8781 149.69 74.5004 148.675 73.4856C147.66 72.4709 146.282 71.9004 144.847 71.9004C143.412 71.9004 142.034 72.4707 141.019 73.4856C140.005 74.5006 139.434 75.8781 139.434 77.3133C139.434 78.7485 140.004 80.1262 141.019 81.141C142.034 82.1558 143.412 82.7263 144.847 82.7263ZM144.847 75.5089C145.577 75.5089 146.235 75.9487 146.514 76.6229C146.793 77.2971 146.639 78.0728 146.123 78.5891C145.607 79.1055 144.831 79.2593 144.157 78.9798C143.482 78.7011 143.043 78.043 143.043 77.3132C143.043 76.3168 143.851 75.5089 144.847 75.5089Z" fill="white" stroke="#404CDC"/>
<path d="M130.412 82.7263C131.848 82.7263 133.225 82.156 134.24 81.141C135.255 80.1261 135.825 78.7485 135.825 77.3133C135.825 75.8781 135.255 74.5004 134.24 73.4856C133.225 72.4709 131.848 71.9004 130.412 71.9004C128.977 71.9004 127.6 72.4707 126.585 73.4856C125.57 74.5006 125 75.8781 125 77.3133C125 78.7485 125.57 80.1262 126.585 81.141C127.6 82.1558 128.977 82.7263 130.412 82.7263ZM130.412 75.5089C131.142 75.5089 131.8 75.9487 132.079 76.6229C132.359 77.2971 132.205 78.0728 131.688 78.5891C131.172 79.1055 130.396 79.2593 129.722 78.9798C129.048 78.7011 128.608 78.043 128.608 77.3132C128.608 76.3168 129.416 75.5089 130.412 75.5089Z" fill="white" stroke="#404CDC"/>
<path d="M69.0648 82.7263C70.5002 82.7263 71.8777 82.156 72.8925 81.141C73.9072 80.1261 74.4777 78.7485 74.4777 77.3133C74.4777 75.8781 73.9074 74.5004 72.8925 73.4856C71.8775 72.4709 70.5 71.9004 69.0648 71.9004C67.6296 71.9004 66.2519 72.4707 65.2371 73.4856C64.2223 74.5006 63.6519 75.8781 63.6519 77.3133C63.6519 78.7485 64.2222 80.1262 65.2371 81.141C66.2521 82.1558 67.6296 82.7263 69.0648 82.7263ZM69.0648 75.5089C69.7946 75.5089 70.4527 75.9487 70.7314 76.6229C71.0109 77.2971 70.857 78.0728 70.3407 78.5891C69.8244 79.1055 69.0487 79.2593 68.3745 78.9798C67.7002 78.7011 67.2604 78.043 67.2604 77.3132C67.2604 76.3168 68.0684 75.5089 69.0648 75.5089Z" fill="white" stroke="#404CDC"/>
<path d="M54.6297 82.7263C56.0651 82.7263 57.4427 82.156 58.4574 81.141C59.4722 80.1261 60.0427 78.7485 60.0427 77.3133C60.0427 75.8781 59.4724 74.5004 58.4574 73.4856C57.4425 72.4709 56.065 71.9004 54.6297 71.9004C53.1945 71.9004 51.8168 72.4707 50.802 73.4856C49.7873 74.5006 49.2168 75.8781 49.2168 77.3133C49.2168 78.7485 49.7871 80.1262 50.802 81.141C51.817 82.1558 53.1945 82.7263 54.6297 82.7263ZM54.6297 75.5089C55.3595 75.5089 56.0176 75.9487 56.2963 76.6229C56.5758 77.2971 56.422 78.0728 55.9057 78.5891C55.3893 79.1055 54.6136 79.2593 53.9394 78.9798C53.2652 78.7011 52.8254 78.043 52.8254 77.3132C52.8254 76.3168 53.6333 75.5089 54.6297 75.5089Z" fill="white" stroke="#404CDC"/>
</svg>
