<svg width="200" height="180" viewBox="0 0 200 180" fill="none" xmlns="http://www.w3.org/2000/svg">
<path d="M0 0H170C186.569 0 200 13.4315 200 30V180H30C13.4315 180 0 166.569 0 150V0Z" fill="#147F00"/>
<path d="M23.66 142V128H26.34L32.3 137.88H30.88L36.74 128H39.4L39.44 142H36.4L36.38 132.66H36.94L32.26 140.52H30.8L26.02 132.66H26.7V142H23.66ZM49.1416 142V139.9L48.9416 139.44V135.68C48.9416 135.013 48.7349 134.493 48.3216 134.12C47.9216 133.747 47.3016 133.56 46.4616 133.56C45.8882 133.56 45.3216 133.653 44.7616 133.84C44.2149 134.013 43.7482 134.253 43.3616 134.56L42.2416 132.38C42.8282 131.967 43.5349 131.647 44.3616 131.42C45.1882 131.193 46.0282 131.08 46.8816 131.08C48.5216 131.08 49.7949 131.467 50.7016 132.24C51.6082 133.013 52.0616 134.22 52.0616 135.86V142H49.1416ZM45.8616 142.16C45.0216 142.16 44.3016 142.02 43.7016 141.74C43.1016 141.447 42.6416 141.053 42.3216 140.56C42.0016 140.067 41.8416 139.513 41.8416 138.9C41.8416 138.26 41.9949 137.7 42.3016 137.22C42.6216 136.74 43.1216 136.367 43.8016 136.1C44.4816 135.82 45.3682 135.68 46.4616 135.68H49.3216V137.5H46.8016C46.0682 137.5 45.5616 137.62 45.2816 137.86C45.0149 138.1 44.8816 138.4 44.8816 138.76C44.8816 139.16 45.0349 139.48 45.3416 139.72C45.6616 139.947 46.0949 140.06 46.6416 140.06C47.1616 140.06 47.6282 139.94 48.0416 139.7C48.4549 139.447 48.7549 139.08 48.9416 138.6L49.4216 140.04C49.1949 140.733 48.7816 141.26 48.1816 141.62C47.5816 141.98 46.8082 142.16 45.8616 142.16ZM61.4253 131.08C62.2786 131.08 63.0386 131.253 63.7053 131.6C64.3853 131.933 64.9186 132.453 65.3053 133.16C65.692 133.853 65.8853 134.747 65.8853 135.84V142H62.7653V136.32C62.7653 135.453 62.572 134.813 62.1853 134.4C61.812 133.987 61.2786 133.78 60.5853 133.78C60.092 133.78 59.6453 133.887 59.2453 134.1C58.8586 134.3 58.552 134.613 58.3253 135.04C58.112 135.467 58.0053 136.013 58.0053 136.68V142H54.8853V131.24H57.8653V134.22L57.3053 133.32C57.692 132.6 58.2453 132.047 58.9653 131.66C59.6853 131.273 60.5053 131.08 61.4253 131.08ZM73.2534 142.16C72.3601 142.16 71.5601 141.987 70.8534 141.64C70.1601 141.293 69.6201 140.767 69.2334 140.06C68.8468 139.34 68.6534 138.427 68.6534 137.32V131.24H71.7734V136.86C71.7734 137.753 71.9601 138.413 72.3334 138.84C72.7201 139.253 73.2601 139.46 73.9534 139.46C74.4334 139.46 74.8601 139.36 75.2334 139.16C75.6068 138.947 75.9001 138.627 76.1134 138.2C76.3268 137.76 76.4334 137.213 76.4334 136.56V131.24H79.5534V142H76.5934V139.04L77.1334 139.9C76.7734 140.647 76.2401 141.213 75.5334 141.6C74.8401 141.973 74.0801 142.16 73.2534 142.16ZM82.8239 142V131C82.8239 129.787 83.1839 128.82 83.9039 128.1C84.6239 127.367 85.6506 127 86.9839 127C87.4372 127 87.8706 127.047 88.2839 127.14C88.7106 127.233 89.0706 127.38 89.3639 127.58L88.5439 129.84C88.3706 129.72 88.1772 129.627 87.9639 129.56C87.7506 129.493 87.5239 129.46 87.2839 129.46C86.8306 129.46 86.4772 129.593 86.2239 129.86C85.9839 130.113 85.8639 130.5 85.8639 131.02V132.02L85.9439 133.36V142H82.8239ZM81.1639 133.88V131.48H88.6239V133.88H81.1639ZM96.583 142V139.9L96.383 139.44V135.68C96.383 135.013 96.1763 134.493 95.763 134.12C95.363 133.747 94.743 133.56 93.903 133.56C93.3296 133.56 92.763 133.653 92.203 133.84C91.6563 134.013 91.1896 134.253 90.803 134.56L89.683 132.38C90.2696 131.967 90.9763 131.647 91.803 131.42C92.6296 131.193 93.4696 131.08 94.323 131.08C95.963 131.08 97.2363 131.467 98.143 132.24C99.0496 133.013 99.503 134.22 99.503 135.86V142H96.583ZM93.303 142.16C92.463 142.16 91.743 142.02 91.143 141.74C90.543 141.447 90.083 141.053 89.763 140.56C89.443 140.067 89.283 139.513 89.283 138.9C89.283 138.26 89.4363 137.7 89.743 137.22C90.063 136.74 90.563 136.367 91.243 136.1C91.923 135.82 92.8096 135.68 93.903 135.68H96.763V137.5H94.243C93.5096 137.5 93.003 137.62 92.723 137.86C92.4563 138.1 92.323 138.4 92.323 138.76C92.323 139.16 92.4763 139.48 92.783 139.72C93.103 139.947 93.5363 140.06 94.083 140.06C94.603 140.06 95.0696 139.94 95.483 139.7C95.8963 139.447 96.1963 139.08 96.383 138.6L96.863 140.04C96.6363 140.733 96.223 141.26 95.623 141.62C95.023 141.98 94.2496 142.16 93.303 142.16ZM107.605 142.16C106.445 142.16 105.412 141.927 104.505 141.46C103.598 140.98 102.885 140.32 102.365 139.48C101.858 138.64 101.605 137.687 101.605 136.62C101.605 135.54 101.858 134.587 102.365 133.76C102.885 132.92 103.598 132.267 104.505 131.8C105.412 131.32 106.445 131.08 107.605 131.08C108.738 131.08 109.725 131.32 110.565 131.8C111.405 132.267 112.025 132.94 112.425 133.82L110.005 135.12C109.725 134.613 109.372 134.24 108.945 134C108.532 133.76 108.078 133.64 107.585 133.64C107.052 133.64 106.572 133.76 106.145 134C105.718 134.24 105.378 134.58 105.125 135.02C104.885 135.46 104.765 135.993 104.765 136.62C104.765 137.247 104.885 137.78 105.125 138.22C105.378 138.66 105.718 139 106.145 139.24C106.572 139.48 107.052 139.6 107.585 139.6C108.078 139.6 108.532 139.487 108.945 139.26C109.372 139.02 109.725 138.64 110.005 138.12L112.425 139.44C112.025 140.307 111.405 140.98 110.565 141.46C109.725 141.927 108.738 142.16 107.605 142.16ZM118.778 142.16C117.511 142.16 116.524 141.84 115.818 141.2C115.111 140.547 114.758 139.58 114.758 138.3V128.86H117.878V138.26C117.878 138.713 117.998 139.067 118.238 139.32C118.478 139.56 118.804 139.68 119.218 139.68C119.711 139.68 120.131 139.547 120.478 139.28L121.318 141.48C120.998 141.707 120.611 141.88 120.158 142C119.718 142.107 119.258 142.16 118.778 142.16ZM113.098 133.88V131.48H120.558V133.88H113.098ZM127.609 142.16C126.716 142.16 125.916 141.987 125.209 141.64C124.516 141.293 123.976 140.767 123.589 140.06C123.202 139.34 123.009 138.427 123.009 137.32V131.24H126.129V136.86C126.129 137.753 126.316 138.413 126.689 138.84C127.076 139.253 127.616 139.46 128.309 139.46C128.789 139.46 129.216 139.36 129.589 139.16C129.962 138.947 130.256 138.627 130.469 138.2C130.682 137.76 130.789 137.213 130.789 136.56V131.24H133.909V142H130.949V139.04L131.489 139.9C131.129 140.647 130.596 141.213 129.889 141.6C129.196 141.973 128.436 142.16 127.609 142.16ZM136.799 142V131.24H139.779V134.28L139.359 133.4C139.679 132.64 140.193 132.067 140.899 131.68C141.606 131.28 142.466 131.08 143.479 131.08V133.96C143.346 133.947 143.226 133.94 143.119 133.94C143.013 133.927 142.899 133.92 142.779 133.92C141.926 133.92 141.233 134.167 140.699 134.66C140.179 135.14 139.919 135.893 139.919 136.92V142H136.799ZM145.354 142V131.24H148.474V142H145.354ZM146.914 129.74C146.341 129.74 145.874 129.573 145.514 129.24C145.154 128.907 144.974 128.493 144.974 128C144.974 127.507 145.154 127.093 145.514 126.76C145.874 126.427 146.341 126.26 146.914 126.26C147.487 126.26 147.954 126.42 148.314 126.74C148.674 127.047 148.854 127.447 148.854 127.94C148.854 128.46 148.674 128.893 148.314 129.24C147.967 129.573 147.501 129.74 146.914 129.74ZM157.91 131.08C158.763 131.08 159.523 131.253 160.19 131.6C160.87 131.933 161.403 132.453 161.79 133.16C162.176 133.853 162.37 134.747 162.37 135.84V142H159.25V136.32C159.25 135.453 159.056 134.813 158.67 134.4C158.296 133.987 157.763 133.78 157.07 133.78C156.576 133.78 156.13 133.887 155.73 134.1C155.343 134.3 155.036 134.613 154.81 135.04C154.596 135.467 154.49 136.013 154.49 136.68V142H151.37V131.24H154.35V134.22L153.79 133.32C154.176 132.6 154.73 132.047 155.45 131.66C156.17 131.273 156.99 131.08 157.91 131.08ZM170.336 146.04C169.323 146.04 168.343 145.913 167.396 145.66C166.463 145.42 165.683 145.053 165.056 144.56L166.296 142.32C166.749 142.693 167.323 142.987 168.016 143.2C168.723 143.427 169.416 143.54 170.096 143.54C171.203 143.54 172.003 143.293 172.496 142.8C173.003 142.307 173.256 141.573 173.256 140.6V138.98L173.456 136.28L173.416 133.56V131.24H176.376V140.2C176.376 142.2 175.856 143.673 174.816 144.62C173.776 145.567 172.283 146.04 170.336 146.04ZM169.856 141.48C168.856 141.48 167.949 141.267 167.136 140.84C166.336 140.4 165.689 139.793 165.196 139.02C164.716 138.233 164.476 137.32 164.476 136.28C164.476 135.227 164.716 134.313 165.196 133.54C165.689 132.753 166.336 132.147 167.136 131.72C167.949 131.293 168.856 131.08 169.856 131.08C170.763 131.08 171.563 131.267 172.256 131.64C172.949 132 173.489 132.567 173.876 133.34C174.263 134.1 174.456 135.08 174.456 136.28C174.456 137.467 174.263 138.447 173.876 139.22C173.489 139.98 172.949 140.547 172.256 140.92C171.563 141.293 170.763 141.48 169.856 141.48ZM170.476 138.92C171.023 138.92 171.509 138.813 171.936 138.6C172.363 138.373 172.696 138.06 172.936 137.66C173.176 137.26 173.296 136.8 173.296 136.28C173.296 135.747 173.176 135.287 172.936 134.9C172.696 134.5 172.363 134.193 171.936 133.98C171.509 133.753 171.023 133.64 170.476 133.64C169.929 133.64 169.443 133.753 169.016 133.98C168.589 134.193 168.249 134.5 167.996 134.9C167.756 135.287 167.636 135.747 167.636 136.28C167.636 136.8 167.756 137.26 167.996 137.66C168.249 138.06 168.589 138.373 169.016 138.6C169.443 138.813 169.929 138.92 170.476 138.92Z" fill="white"/>
<path d="M52.374 96.8609H83.4995V111.634C83.4995 112.124 83.6896 112.594 84.0279 112.94C84.3662 113.286 84.8253 113.481 85.3038 113.481H87.1082V117.174C87.1082 118.194 87.9161 119.02 88.9125 119.02C89.9089 119.02 90.7168 118.194 90.7168 117.174V113.481H108.76V117.174C108.76 118.194 109.568 119.02 110.565 119.02C111.561 119.02 112.369 118.194 112.369 117.174V113.481H114.173C114.299 113.495 114.426 113.495 114.552 113.481H114.642C114.735 113.458 114.826 113.426 114.913 113.388L115.03 113.324L115.238 113.195L115.356 113.102L115.536 112.927L115.59 112.871L122.808 103.638V103.583L122.916 103.416L122.997 103.269C123.044 103.158 123.083 103.044 123.114 102.927V102.76V102.761C123.118 102.693 123.118 102.625 123.114 102.557V102.483V96.8608H147.022C149.787 96.8806 152.445 95.7709 154.408 93.7777C156.37 91.7843 157.476 89.0729 157.478 86.2428V85.3194C157.484 83.0615 156.788 80.8603 155.49 79.0352C154.192 77.2092 152.361 75.8531 150.261 75.1629V65.468C150.261 64.9783 150.071 64.5084 149.732 64.1622C149.394 63.8159 148.935 63.6214 148.456 63.6214H137.63C136.634 63.6214 135.826 64.4482 135.826 65.468V74.7012H132.217V65.468C132.217 64.9783 132.027 64.5084 131.689 64.1622C131.351 63.8159 130.891 63.6214 130.413 63.6214H123.196V43.3084C123.207 43.1889 123.207 43.0677 123.196 42.9481C123.196 42.8929 123.196 42.8467 123.151 42.7915C123.124 42.6637 123.075 42.5417 123.006 42.4313C123.006 42.3851 122.961 42.3389 122.934 42.2928C122.803 42.0916 122.634 41.9193 122.438 41.7849L122.293 41.7017L122.113 41.6093L121.933 41.5541L121.743 41.4618C121.627 41.4502 121.508 41.4502 121.391 41.4618H92.5218C92.405 41.4502 92.2866 41.4502 92.1698 41.4618L92.0167 41.5079L91.8363 41.5632L91.6559 41.6555L91.5205 41.7297C91.4198 41.7965 91.3264 41.874 91.241 41.9605L84.0236 49.3471C83.9391 49.4345 83.8633 49.5301 83.7981 49.6332C83.7981 49.6332 83.753 49.7255 83.7256 49.7717C83.6563 49.8821 83.608 50.0041 83.5814 50.1319C83.5814 50.1871 83.5814 50.2333 83.5363 50.2885C83.5097 50.4221 83.4976 50.5589 83.5 50.695V74.7012H79.8914V65.468C79.8914 64.9784 79.7013 64.5084 79.3629 64.1622C79.0246 63.816 78.5655 63.6214 78.087 63.6214H67.2609C66.2645 63.6214 65.4566 64.4483 65.4566 65.468V74.7012H61.8479V65.468C61.8479 64.9784 61.6578 64.5084 61.3195 64.1622C60.9812 63.816 60.522 63.6214 60.0436 63.6214H49.2175C48.2211 63.6214 47.4131 64.4483 47.4131 65.468V75.9939C45.7755 76.9073 44.4095 78.256 43.4564 79.8965C42.5042 81.5378 42.0008 83.4108 42 85.3193V86.2426C42.0024 89.0579 43.0963 91.757 45.0416 93.7477C46.9869 95.7385 49.6242 96.8581 52.3749 96.8606L52.374 96.8609ZM119.586 101.755L115.978 106.371V96.8611H119.586V101.755ZM139.434 67.3143H141.239V68.4132C141.239 69.433 142.046 70.2598 143.043 70.2598C144.039 70.2598 144.847 69.433 144.847 68.4132V67.3143H146.652V74.7008H139.434V67.3143ZM137.63 78.3941H147.103C148.897 78.3966 150.616 79.127 151.884 80.4254C153.153 81.723 153.867 83.483 153.869 85.3191V86.2424C153.867 88.0783 153.153 89.8384 151.884 91.1361C150.616 92.4345 148.897 93.1649 147.103 93.1674H115.977V78.3943L137.63 78.3941ZM121.391 67.3143H123.195V68.4132C123.195 69.433 124.003 70.2598 124.999 70.2598C125.996 70.2598 126.804 69.433 126.804 68.4132V67.3143H128.608V74.7008H121.391V67.3143ZM119.586 63.621C118.59 63.621 117.782 64.4479 117.782 65.4677V74.7008H115.978V51.4607L119.586 47.7674V63.621ZM93.2697 45.1547H117.031L113.423 48.848H89.661L93.2697 45.1547ZM87.1075 99.6294H93.4227C94.4192 99.6294 95.2271 98.8025 95.2271 97.7827C95.2271 96.763 94.4192 95.9361 93.4227 95.9361H87.1075V90.3962H93.4227C94.4192 90.3962 95.2271 89.5693 95.2271 88.5495C95.2271 87.5298 94.4192 86.7029 93.4227 86.7029H87.1075V81.163H93.4227C94.4192 81.163 95.2271 80.3361 95.2271 79.3164C95.2271 78.2966 94.4192 77.4697 93.4227 77.4697H87.1075V71.9298H93.4227C94.4192 71.9298 95.2271 71.103 95.2271 70.0832C95.2271 69.0634 94.4192 68.2366 93.4227 68.2366H87.1075V62.6967H93.4227C94.4192 62.6967 95.2271 61.8698 95.2271 60.85C95.2271 59.8303 94.4192 59.0034 93.4227 59.0034H87.1075V52.5402H112.368V109.786H87.1075V99.6294ZM69.0641 67.3143H70.8684V68.4132C70.8684 69.433 71.6764 70.2598 72.6728 70.2598C73.6692 70.2598 74.4771 69.433 74.4771 68.4132V67.3143H76.2815V74.7008H69.0641V67.3143ZM51.0206 67.3143H52.825V68.4132C52.825 69.433 53.6329 70.2598 54.6293 70.2598C55.6257 70.2598 56.4337 69.433 56.4337 68.4132V67.3143H58.238V74.7008H51.0206V67.3143ZM45.6076 85.3189C45.61 83.483 46.3237 81.7229 47.5924 80.4252C48.8602 79.1268 50.58 78.3964 52.374 78.3939H83.4995V93.167H52.374C50.5801 93.1645 48.8604 92.4341 47.5924 91.1357C46.3237 89.8381 45.61 88.0781 45.6076 86.242V85.3189Z" fill="white" stroke="#0F52BA"/>
<path d="M60.9462 117.174C61.4247 117.174 61.8838 116.979 62.2221 116.633C62.5605 116.287 62.7506 115.817 62.7506 115.327V103.324H67.2614C68.2578 103.324 69.0658 102.497 69.0658 101.477C69.0658 100.458 68.2578 99.6309 67.2614 99.6309H54.631C53.6346 99.6309 52.8267 100.458 52.8267 101.477C52.8267 102.497 53.6346 103.324 54.631 103.324H59.1419V115.327C59.1419 115.817 59.332 116.287 59.6703 116.633C60.0086 116.979 60.4677 117.174 60.9462 117.174Z" fill="white" stroke="#0F52BA"/>
<path d="M150.26 101.477C150.26 100.988 150.07 100.518 149.732 100.172C149.393 99.8254 148.934 99.6309 148.456 99.6309H135.825C134.829 99.6309 134.021 100.458 134.021 101.477C134.021 102.497 134.829 103.324 135.825 103.324H140.336V115.327C140.336 116.347 141.144 117.174 142.141 117.174C143.137 117.174 143.945 116.347 143.945 115.327V103.324H148.456C148.934 103.324 149.393 103.13 149.732 102.783C150.07 102.437 150.26 101.967 150.26 101.477Z" fill="white" stroke="#0F52BA"/>
<path d="M144.847 91.3218C146.282 91.3218 147.66 90.7381 148.675 89.6994C149.689 88.6606 150.26 87.2508 150.26 85.782C150.26 84.3131 149.69 82.9031 148.675 81.8646C147.66 80.826 146.282 80.2422 144.847 80.2422C143.412 80.2422 142.034 80.8259 141.019 81.8646C140.005 82.9033 139.434 84.3131 139.434 85.782C139.434 87.2508 140.004 88.6608 141.019 89.6994C142.034 90.7379 143.412 91.3218 144.847 91.3218ZM144.847 83.9352C145.577 83.9352 146.235 84.3854 146.514 85.0754C146.793 85.7654 146.639 86.5593 146.123 87.0877C145.607 87.6162 144.831 87.7736 144.157 87.4875C143.482 87.2023 143.043 86.5288 143.043 85.7819C143.043 84.7621 143.851 83.9352 144.847 83.9352Z" fill="white" stroke="#0F52BA"/>
<path d="M130.412 91.3218C131.848 91.3218 133.225 90.7381 134.24 89.6994C135.255 88.6606 135.825 87.2508 135.825 85.782C135.825 84.3131 135.255 82.9031 134.24 81.8646C133.225 80.826 131.848 80.2422 130.412 80.2422C128.977 80.2422 127.6 80.8259 126.585 81.8646C125.57 82.9033 125 84.3131 125 85.782C125 87.2508 125.57 88.6608 126.585 89.6994C127.6 90.7379 128.977 91.3218 130.412 91.3218ZM130.412 83.9352C131.142 83.9352 131.8 84.3854 132.079 85.0754C132.359 85.7654 132.205 86.5593 131.688 87.0877C131.172 87.6162 130.396 87.7736 129.722 87.4875C129.048 87.2023 128.608 86.5288 128.608 85.7819C128.608 84.7621 129.416 83.9352 130.412 83.9352Z" fill="white" stroke="#0F52BA"/>
<path d="M69.0648 91.3218C70.5002 91.3218 71.8777 90.7381 72.8925 89.6994C73.9072 88.6606 74.4777 87.2508 74.4777 85.782C74.4777 84.3131 73.9074 82.9031 72.8925 81.8646C71.8775 80.826 70.5 80.2422 69.0648 80.2422C67.6296 80.2422 66.2519 80.8259 65.2371 81.8646C64.2223 82.9033 63.6519 84.3131 63.6519 85.782C63.6519 87.2508 64.2222 88.6608 65.2371 89.6994C66.2521 90.7379 67.6296 91.3218 69.0648 91.3218ZM69.0648 83.9352C69.7946 83.9352 70.4527 84.3854 70.7314 85.0754C71.0109 85.7654 70.857 86.5593 70.3407 87.0877C69.8244 87.6162 69.0487 87.7736 68.3745 87.4875C67.7002 87.2023 67.2604 86.5288 67.2604 85.7819C67.2604 84.7621 68.0684 83.9352 69.0648 83.9352Z" fill="white" stroke="#0F52BA"/>
<path d="M54.6297 91.3218C56.0651 91.3218 57.4427 90.7381 58.4574 89.6994C59.4722 88.6606 60.0427 87.2508 60.0427 85.782C60.0427 84.3131 59.4724 82.9031 58.4574 81.8646C57.4425 80.826 56.065 80.2422 54.6297 80.2422C53.1945 80.2422 51.8168 80.8259 50.802 81.8646C49.7873 82.9033 49.2168 84.3131 49.2168 85.782C49.2168 87.2508 49.7871 88.6608 50.802 89.6994C51.817 90.7379 53.1945 91.3218 54.6297 91.3218ZM54.6297 83.9352C55.3595 83.9352 56.0176 84.3854 56.2963 85.0754C56.5758 85.7654 56.422 86.5593 55.9057 87.0877C55.3893 87.6162 54.6136 87.7736 53.9394 87.4875C53.2652 87.2023 52.8254 86.5288 52.8254 85.7819C52.8254 84.7621 53.6333 83.9352 54.6297 83.9352Z" fill="white" stroke="#0F52BA"/>
</svg>
