<svg width="200" height="180" viewBox="0 0 200 180" fill="none" xmlns="http://www.w3.org/2000/svg">
<path d="M0 0H170C186.569 0 200 13.4315 200 30V180H30C13.4315 180 0 166.569 0 150V0Z" fill="#AA0021"/>
<path d="M65.66 147V133H68.34L74.3 142.88H72.88L78.74 133H81.4L81.44 147H78.4L78.38 137.66H78.94L74.26 145.52H72.8L68.02 137.66H68.7V147H65.66ZM84.5416 147V136.24H87.6616V147H84.5416ZM86.1016 134.74C85.5282 134.74 85.0616 134.573 84.7016 134.24C84.3416 133.907 84.1616 133.493 84.1616 133C84.1616 132.507 84.3416 132.093 84.7016 131.76C85.0616 131.427 85.5282 131.26 86.1016 131.26C86.6749 131.26 87.1416 131.42 87.5016 131.74C87.8616 132.047 88.0416 132.447 88.0416 132.94C88.0416 133.46 87.8616 133.893 87.5016 134.24C87.1549 134.573 86.6882 134.74 86.1016 134.74ZM97.0972 136.08C97.9505 136.08 98.7105 136.253 99.3772 136.6C100.057 136.933 100.591 137.453 100.977 138.16C101.364 138.853 101.557 139.747 101.557 140.84V147H98.4372V141.32C98.4372 140.453 98.2439 139.813 97.8572 139.4C97.4839 138.987 96.9505 138.78 96.2572 138.78C95.7639 138.78 95.3172 138.887 94.9172 139.1C94.5305 139.3 94.2239 139.613 93.9972 140.04C93.7839 140.467 93.6772 141.013 93.6772 141.68V147H90.5572V136.24H93.5372V139.22L92.9772 138.32C93.3639 137.6 93.9172 137.047 94.6372 136.66C95.3572 136.273 96.1772 136.08 97.0972 136.08ZM104.385 147V136.24H107.505V147H104.385ZM105.945 134.74C105.372 134.74 104.905 134.573 104.545 134.24C104.185 133.907 104.005 133.493 104.005 133C104.005 132.507 104.185 132.093 104.545 131.76C104.905 131.427 105.372 131.26 105.945 131.26C106.519 131.26 106.985 131.42 107.345 131.74C107.705 132.047 107.885 132.447 107.885 132.94C107.885 133.46 107.705 133.893 107.345 134.24C106.999 134.573 106.532 134.74 105.945 134.74ZM116.941 136.08C117.794 136.08 118.554 136.253 119.221 136.6C119.901 136.933 120.434 137.453 120.821 138.16C121.208 138.853 121.401 139.747 121.401 140.84V147H118.281V141.32C118.281 140.453 118.088 139.813 117.701 139.4C117.328 138.987 116.794 138.78 116.101 138.78C115.608 138.78 115.161 138.887 114.761 139.1C114.374 139.3 114.068 139.613 113.841 140.04C113.628 140.467 113.521 141.013 113.521 141.68V147H110.401V136.24H113.381V139.22L112.821 138.32C113.208 137.6 113.761 137.047 114.481 136.66C115.201 136.273 116.021 136.08 116.941 136.08ZM129.367 151.04C128.354 151.04 127.374 150.913 126.427 150.66C125.494 150.42 124.714 150.053 124.087 149.56L125.327 147.32C125.781 147.693 126.354 147.987 127.047 148.2C127.754 148.427 128.447 148.54 129.127 148.54C130.234 148.54 131.034 148.293 131.527 147.8C132.034 147.307 132.287 146.573 132.287 145.6V143.98L132.487 141.28L132.447 138.56V136.24H135.407V145.2C135.407 147.2 134.887 148.673 133.847 149.62C132.807 150.567 131.314 151.04 129.367 151.04ZM128.887 146.48C127.887 146.48 126.981 146.267 126.167 145.84C125.367 145.4 124.721 144.793 124.227 144.02C123.747 143.233 123.507 142.32 123.507 141.28C123.507 140.227 123.747 139.313 124.227 138.54C124.721 137.753 125.367 137.147 126.167 136.72C126.981 136.293 127.887 136.08 128.887 136.08C129.794 136.08 130.594 136.267 131.287 136.64C131.981 137 132.521 137.567 132.907 138.34C133.294 139.1 133.487 140.08 133.487 141.28C133.487 142.467 133.294 143.447 132.907 144.22C132.521 144.98 131.981 145.547 131.287 145.92C130.594 146.293 129.794 146.48 128.887 146.48ZM129.507 143.92C130.054 143.92 130.541 143.813 130.967 143.6C131.394 143.373 131.727 143.06 131.967 142.66C132.207 142.26 132.327 141.8 132.327 141.28C132.327 140.747 132.207 140.287 131.967 139.9C131.727 139.5 131.394 139.193 130.967 138.98C130.541 138.753 130.054 138.64 129.507 138.64C128.961 138.64 128.474 138.753 128.047 138.98C127.621 139.193 127.281 139.5 127.027 139.9C126.787 140.287 126.667 140.747 126.667 141.28C126.667 141.8 126.787 142.26 127.027 142.66C127.281 143.06 127.621 143.373 128.047 143.6C128.474 143.813 128.961 143.92 129.507 143.92Z" fill="white"/>
<path d="M84.2835 29.3667C84.109 30.1062 84.4655 30.9386 85.1222 31.3242C95.2828 37.556 103.35 43.5827 110.415 50.2511L60.5061 98.4787C59.8313 99.1442 59.8313 100.365 60.5061 101.031L65.0073 105.517C65.6746 106.189 66.9 106.189 67.5674 105.517L115.929 55.8025C122.632 62.9956 128.609 71.097 134.974 81.0099C135.432 81.7049 136.412 82.0025 137.181 81.6785C137.949 81.3552 138.419 80.4475 138.238 79.6357C135.746 68.8757 132.321 58.4621 122.54 48.9882L124.284 47.1934C124.935 46.5229 124.921 45.3258 124.256 44.6698L121.555 41.9779C121.218 41.6382 120.74 41.4411 120.261 41.4449H120.092C119.693 41.4882 119.309 41.669 119.023 41.9496L117.138 43.7721C107.834 34.7019 98.1291 30.5372 86.4454 28.0419C85.4071 27.8102 84.5815 28.5799 84.284 29.3652L84.2835 29.3667ZM97.4449 35.1655C112.134 41.6103 126.08 54.515 131.712 70.075C121.785 56.0418 111.69 45.234 97.4449 35.1655ZM113.031 52.7745C113.171 52.9145 113.313 53.0539 113.452 53.1951L66.2453 101.704L64.3325 99.7975L113.031 52.7745ZM104.394 73.6637L101.158 78.5146L96.3193 80.1129C96.0537 80.2052 95.8108 80.3603 95.6162 80.5618L92.9154 83.2537C92.5814 83.5833 92.3849 84.0472 92.3812 84.5155V88.8616C91.9022 89.2069 91.432 89.5465 90.9184 89.8993H86.9798C86.6213 89.8987 86.2635 90.0073 85.9671 90.2076L83.2664 92.0024C82.783 92.3307 82.4779 92.9058 82.4786 93.4883V96.3485L81.2123 97.6103C80.8784 97.9399 80.6819 98.4038 80.6781 98.8722V102.461C80.6781 103.25 81.2626 104.002 82.0284 104.199C85.3556 105.029 89.0803 106.947 93.2819 106.947C95.55 106.964 97.5226 106.899 99.5835 106.639C99.667 107.662 100.377 108.647 101.243 108.742C113.172 109.657 118.708 107.845 128.392 107.845C128.642 107.854 128.893 107.801 129.124 107.705L137.226 104.116C137.752 103.885 138.153 103.388 138.266 102.826L139.167 98.3398C139.263 97.8445 139.137 97.3103 138.829 96.9098L136.494 93.7973V90.7971C136.489 90.4493 136.38 90.1034 136.184 89.8159L134.384 87.124C134.131 86.7298 133.717 86.441 133.258 86.3387L129.179 85.5257L122.371 79.5813C121.418 78.904 120.658 79.2028 119.754 79.6372C115.834 76.8273 111.095 75.8441 106.897 73.1598C105.791 72.6249 105.26 72.8854 104.394 73.6651V73.6637ZM106.532 76.9445C109.812 78.6821 112.643 79.8059 115.731 81.4305C113.652 82.2931 111.339 83.1387 108.811 84.0101C107.003 83.1569 105.092 82.1198 103.691 81.1499C104.643 79.7682 105.589 78.3444 106.532 76.9438L106.532 76.9445ZM100.624 82.4965C102.209 83.447 104.131 84.3077 106.644 84.8519C106.332 85.0697 106.091 85.3886 105.969 85.749C105.817 86.2022 105.639 86.6913 105.435 87.1791C104.655 87.1 103.905 86.8269 102.959 86.4502C101.041 85.8726 99.7388 85.1714 98.0073 85.5531C97.2634 85.8501 96.6036 86.1683 95.9816 86.5067V85.2449L97.8386 83.4224L100.624 82.4965ZM120.88 83.0295L124.65 86.3102C122.474 88.0053 118.685 90.0392 114.887 90.7963C120.067 90.7963 124.012 89.5885 126.76 88.1604C127.108 88.5628 127.617 88.7844 128.026 88.9733L131.824 89.7304L132.893 91.3287V94.3854C132.891 94.7766 133.022 95.167 133.259 95.479L135.454 98.4233L134.891 101.227L127.999 104.284C125.228 104.298 122.828 104.424 120.515 104.592C122.002 103.482 124.461 102.706 130.193 101.563C126.937 101.885 123.891 101.563 119.39 102.46L116.97 104.872C112.939 105.193 108.891 105.478 103.578 105.208C104.595 101.675 104.828 97.5751 104.226 94.3847C105.406 93.6389 106.406 92.6953 107.152 91.5805C107.985 90.335 108.511 89.0098 108.98 87.7673C113.608 86.2048 117.552 84.6159 120.88 83.0289L120.88 83.0295ZM98.9927 89.0864C100.684 89.3073 102.012 89.9728 103.494 90.4606C102.904 91.1254 102.281 91.5925 101.722 91.7783C100.837 92.0589 100.278 93.1048 100.54 93.993C101.258 97.0296 101.124 99.9544 100.484 102.685C98.1176 103.413 95.6598 103.358 93.282 103.358C90.651 103.358 87.5925 102.111 84.279 101.143V99.6003L85.5452 98.3385C88.9754 98.3027 92.8607 95.8563 95.0824 94.3847C91.6578 95.7501 88.7645 96.0672 86.0794 95.6465V94.4406L87.5421 93.4876H91.4808C91.8393 93.4883 92.1971 93.3796 92.4934 93.1794C95.1602 91.4079 96.6643 90.0957 98.9922 89.0856L98.9927 89.0864Z" fill="white" stroke="#404CDC"/>
</svg>
