<svg width="200" height="180" viewBox="0 0 200 180" fill="none" xmlns="http://www.w3.org/2000/svg">
<path d="M0 0H170C186.569 0 200 13.4315 200 30V180H30C13.4315 180 0 166.569 0 150V0Z" fill="#AA0021"/>
<path d="M65.66 147V133H68.34L74.3 142.88H72.88L78.74 133H81.4L81.44 147H78.4L78.38 137.66H78.94L74.26 145.52H72.8L68.02 137.66H68.7V147H65.66ZM84.5416 147V136.24H87.6616V147H84.5416ZM86.1016 134.74C85.5282 134.74 85.0616 134.573 84.7016 134.24C84.3416 133.907 84.1616 133.493 84.1616 133C84.1616 132.507 84.3416 132.093 84.7016 131.76C85.0616 131.427 85.5282 131.26 86.1016 131.26C86.6749 131.26 87.1416 131.42 87.5016 131.74C87.8616 132.047 88.0416 132.447 88.0416 132.94C88.0416 133.46 87.8616 133.893 87.5016 134.24C87.1549 134.573 86.6882 134.74 86.1016 134.74ZM97.0972 136.08C97.9505 136.08 98.7105 136.253 99.3772 136.6C100.057 136.933 100.591 137.453 100.977 138.16C101.364 138.853 101.557 139.747 101.557 140.84V147H98.4372V141.32C98.4372 140.453 98.2439 139.813 97.8572 139.4C97.4839 138.987 96.9505 138.78 96.2572 138.78C95.7639 138.78 95.3172 138.887 94.9172 139.1C94.5305 139.3 94.2239 139.613 93.9972 140.04C93.7839 140.467 93.6772 141.013 93.6772 141.68V147H90.5572V136.24H93.5372V139.22L92.9772 138.32C93.3639 137.6 93.9172 137.047 94.6372 136.66C95.3572 136.273 96.1772 136.08 97.0972 136.08ZM104.385 147V136.24H107.505V147H104.385ZM105.945 134.74C105.372 134.74 104.905 134.573 104.545 134.24C104.185 133.907 104.005 133.493 104.005 133C104.005 132.507 104.185 132.093 104.545 131.76C104.905 131.427 105.372 131.26 105.945 131.26C106.519 131.26 106.985 131.42 107.345 131.74C107.705 132.047 107.885 132.447 107.885 132.94C107.885 133.46 107.705 133.893 107.345 134.24C106.999 134.573 106.532 134.74 105.945 134.74ZM116.941 136.08C117.794 136.08 118.554 136.253 119.221 136.6C119.901 136.933 120.434 137.453 120.821 138.16C121.208 138.853 121.401 139.747 121.401 140.84V147H118.281V141.32C118.281 140.453 118.088 139.813 117.701 139.4C117.328 138.987 116.794 138.78 116.101 138.78C115.608 138.78 115.161 138.887 114.761 139.1C114.374 139.3 114.068 139.613 113.841 140.04C113.628 140.467 113.521 141.013 113.521 141.68V147H110.401V136.24H113.381V139.22L112.821 138.32C113.208 137.6 113.761 137.047 114.481 136.66C115.201 136.273 116.021 136.08 116.941 136.08ZM129.367 151.04C128.354 151.04 127.374 150.913 126.427 150.66C125.494 150.42 124.714 150.053 124.087 149.56L125.327 147.32C125.781 147.693 126.354 147.987 127.047 148.2C127.754 148.427 128.447 148.54 129.127 148.54C130.234 148.54 131.034 148.293 131.527 147.8C132.034 147.307 132.287 146.573 132.287 145.6V143.98L132.487 141.28L132.447 138.56V136.24H135.407V145.2C135.407 147.2 134.887 148.673 133.847 149.62C132.807 150.567 131.314 151.04 129.367 151.04ZM128.887 146.48C127.887 146.48 126.981 146.267 126.167 145.84C125.367 145.4 124.721 144.793 124.227 144.02C123.747 143.233 123.507 142.32 123.507 141.28C123.507 140.227 123.747 139.313 124.227 138.54C124.721 137.753 125.367 137.147 126.167 136.72C126.981 136.293 127.887 136.08 128.887 136.08C129.794 136.08 130.594 136.267 131.287 136.64C131.981 137 132.521 137.567 132.907 138.34C133.294 139.1 133.487 140.08 133.487 141.28C133.487 142.467 133.294 143.447 132.907 144.22C132.521 144.98 131.981 145.547 131.287 145.92C130.594 146.293 129.794 146.48 128.887 146.48ZM129.507 143.92C130.054 143.92 130.541 143.813 130.967 143.6C131.394 143.373 131.727 143.06 131.967 142.66C132.207 142.26 132.327 141.8 132.327 141.28C132.327 140.747 132.207 140.287 131.967 139.9C131.727 139.5 131.394 139.193 130.967 138.98C130.541 138.753 130.054 138.64 129.507 138.64C128.961 138.64 128.474 138.753 128.047 138.98C127.621 139.193 127.281 139.5 127.027 139.9C126.787 140.287 126.667 140.747 126.667 141.28C126.667 141.8 126.787 142.26 127.027 142.66C127.281 143.06 127.621 143.373 128.047 143.6C128.474 143.813 128.961 143.92 129.507 143.92Z" fill="white"/>
<path d="M84.2835 40.5081C84.109 41.265 84.4655 42.1169 85.1222 42.5114C95.2828 48.8894 103.35 55.0573 110.415 61.8819L60.5061 111.24C59.8313 111.921 59.8313 113.171 60.5061 113.852L65.0073 118.443C65.6746 119.131 66.9 119.131 67.5674 118.443L115.929 67.5635C122.632 74.9252 128.609 83.2165 134.974 93.3617C135.432 94.073 136.412 94.3775 137.181 94.046C137.949 93.7151 138.419 92.7861 138.238 91.9553C135.746 80.9431 132.321 70.2854 122.54 60.5895L124.284 58.7526C124.935 58.0664 124.921 56.8412 124.256 56.1698L121.555 53.4148C121.218 53.0673 120.74 52.8655 120.261 52.8694H120.092C119.693 52.9137 119.309 53.0987 119.023 53.3859L117.138 55.2511C107.834 45.9683 98.1291 41.7061 86.4454 39.1522C85.4071 38.9151 84.5815 39.7028 84.284 40.5066L84.2835 40.5081ZM97.4449 46.4428C112.134 53.0386 126.08 66.2458 131.712 82.1705C121.785 67.8084 111.69 56.7473 97.4449 46.4428ZM113.031 64.4646C113.171 64.6078 113.313 64.7505 113.452 64.895L66.2453 114.541L64.3325 112.59L113.031 64.4646ZM104.394 85.8433L101.158 90.8079L96.3193 92.4437C96.0537 92.5381 95.8108 92.6968 95.6162 92.9031L92.9154 95.6581C92.5814 95.9954 92.3849 96.4702 92.3812 96.9495V101.397C91.9022 101.751 91.432 102.098 90.9184 102.459H86.9798C86.6213 102.459 86.2635 102.57 85.9671 102.775L83.2664 104.612C82.783 104.948 82.4779 105.536 82.4786 106.133V109.06L81.2123 110.351C80.8784 110.689 80.6819 111.163 80.6781 111.643V115.316C80.6781 116.123 81.2626 116.893 82.0284 117.095C85.3556 117.943 89.0803 119.907 93.2819 119.907C95.55 119.924 97.5226 119.857 99.5835 119.591C99.667 120.639 100.377 121.646 101.243 121.744C113.172 122.68 118.708 120.826 128.392 120.826C128.642 120.835 128.893 120.781 129.124 120.682L137.226 117.009C137.752 116.773 138.153 116.265 138.266 115.689L139.167 111.098C139.263 110.591 139.137 110.044 138.829 109.634L136.494 106.449V103.378C136.489 103.022 136.38 102.668 136.184 102.374L134.384 99.6191C134.131 99.2156 133.717 98.9201 133.258 98.8154L129.179 97.9833L122.371 91.8996C121.418 91.2064 120.658 91.5122 119.754 91.9568C115.834 89.0811 111.095 88.0748 106.897 85.3276C105.791 84.7802 105.26 85.0468 104.394 85.8448V85.8433ZM106.532 89.201C109.812 90.9793 112.643 92.1295 115.731 93.7922C113.652 94.675 111.339 95.5404 108.811 96.4322C107.003 95.5591 105.092 94.4976 103.691 93.505C104.643 92.0909 105.589 90.6337 106.532 89.2003L106.532 89.201ZM100.624 94.8832C102.209 95.8559 104.131 96.7368 106.644 97.2937C106.332 97.5167 106.091 97.8431 105.969 98.2118C105.817 98.6757 105.639 99.1762 105.435 99.6754C104.655 99.5945 103.905 99.315 102.959 98.9295C101.041 98.3384 99.7388 97.6208 98.0073 98.0114C97.2634 98.3153 96.6036 98.641 95.9816 98.9873V97.6959L97.8386 95.8307L100.624 94.8832ZM120.88 95.4286L124.65 98.7863C122.474 100.521 118.685 102.603 114.887 103.377C120.067 103.377 124.012 102.141 126.76 100.68C127.108 101.092 127.617 101.318 128.026 101.512L131.824 102.287L132.893 103.922V107.051C132.891 107.451 133.022 107.851 133.259 108.17L135.454 111.183L134.891 114.053L127.999 117.181C125.228 117.196 122.828 117.324 120.515 117.496C122.002 116.36 124.461 115.566 130.193 114.397C126.937 114.726 123.891 114.397 119.39 115.315L116.97 117.783C112.939 118.111 108.891 118.403 103.578 118.127C104.595 114.511 104.828 110.315 104.226 107.05C105.406 106.287 106.406 105.321 107.152 104.18C107.985 102.905 108.511 101.549 108.98 100.277C113.608 98.6783 117.552 97.0522 120.88 95.428L120.88 95.4286ZM98.9927 101.627C100.684 101.854 102.012 102.535 103.494 103.034C102.904 103.714 102.281 104.192 101.722 104.382C100.837 104.67 100.278 105.74 100.54 106.649C101.258 109.757 101.124 112.75 100.484 115.545C98.1176 116.29 95.6598 116.233 93.282 116.234C90.651 116.234 87.5925 114.957 84.279 113.966V112.388L85.5452 111.096C88.9754 111.06 92.8607 108.556 95.0824 107.05C91.6578 108.447 88.7645 108.772 86.0794 108.341V107.107L87.5421 106.132H91.4808C91.8393 106.133 92.1971 106.021 92.4934 105.816C95.1602 104.003 96.6643 102.66 98.9922 101.627L98.9927 101.627Z" fill="white" stroke="#0F52BA"/>
</svg>
