<svg width="200" height="180" viewBox="0 0 200 180" fill="none" xmlns="http://www.w3.org/2000/svg">
<path d="M0 0H170C186.569 0 200 13.4315 200 30V180H30C13.4315 180 0 166.569 0 150V0Z" fill="#E75825"/>
<path d="M33.0272 131V117H39.0872C40.3405 117 41.4205 117.207 42.3272 117.62C43.2339 118.02 43.9339 118.6 44.4272 119.36C44.9205 120.12 45.1672 121.027 45.1672 122.08C45.1672 123.12 44.9205 124.02 44.4272 124.78C43.9339 125.527 43.2339 126.1 42.3272 126.5C41.4205 126.9 40.3405 127.1 39.0872 127.1H34.8272L36.2672 125.68V131H33.0272ZM41.9272 131L38.4272 125.92H41.8872L45.4272 131H41.9272ZM36.2672 126.04L34.8272 124.52H38.9072C39.9072 124.52 40.6539 124.307 41.1472 123.88C41.6405 123.44 41.8872 122.84 41.8872 122.08C41.8872 121.307 41.6405 120.707 41.1472 120.28C40.6539 119.853 39.9072 119.64 38.9072 119.64H34.8272L36.2672 118.1V126.04ZM52.8542 131.16C51.6276 131.16 50.5476 130.92 49.6142 130.44C48.6942 129.96 47.9809 129.307 47.4742 128.48C46.9676 127.64 46.7142 126.687 46.7142 125.62C46.7142 124.54 46.9609 123.587 47.4542 122.76C47.9609 121.92 48.6476 121.267 49.5142 120.8C50.3809 120.32 51.3609 120.08 52.4542 120.08C53.5076 120.08 54.4542 120.307 55.2942 120.76C56.1476 121.2 56.8209 121.84 57.3142 122.68C57.8076 123.507 58.0542 124.5 58.0542 125.66C58.0542 125.78 58.0476 125.92 58.0342 126.08C58.0209 126.227 58.0076 126.367 57.9942 126.5H49.2542V124.68H56.3542L55.1542 125.22C55.1542 124.66 55.0409 124.173 54.8142 123.76C54.5876 123.347 54.2742 123.027 53.8742 122.8C53.4742 122.56 53.0076 122.44 52.4742 122.44C51.9409 122.44 51.4676 122.56 51.0542 122.8C50.6542 123.027 50.3409 123.353 50.1142 123.78C49.8876 124.193 49.7742 124.687 49.7742 125.26V125.74C49.7742 126.327 49.9009 126.847 50.1542 127.3C50.4209 127.74 50.7876 128.08 51.2542 128.32C51.7342 128.547 52.2942 128.66 52.9342 128.66C53.5076 128.66 54.0076 128.573 54.4342 128.4C54.8742 128.227 55.2742 127.967 55.6342 127.62L57.2942 129.42C56.8009 129.98 56.1809 130.413 55.4342 130.72C54.6876 131.013 53.8276 131.16 52.8542 131.16ZM66.4384 131V128.9L66.2384 128.44V124.68C66.2384 124.013 66.0318 123.493 65.6184 123.12C65.2184 122.747 64.5984 122.56 63.7584 122.56C63.1851 122.56 62.6184 122.653 62.0584 122.84C61.5118 123.013 61.0451 123.253 60.6584 123.56L59.5384 121.38C60.1251 120.967 60.8318 120.647 61.6584 120.42C62.4851 120.193 63.3251 120.08 64.1784 120.08C65.8184 120.08 67.0918 120.467 67.9984 121.24C68.9051 122.013 69.3584 123.22 69.3584 124.86V131H66.4384ZM63.1584 131.16C62.3184 131.16 61.5984 131.02 60.9984 130.74C60.3984 130.447 59.9384 130.053 59.6184 129.56C59.2984 129.067 59.1384 128.513 59.1384 127.9C59.1384 127.26 59.2918 126.7 59.5984 126.22C59.9184 125.74 60.4184 125.367 61.0984 125.1C61.7784 124.82 62.6651 124.68 63.7584 124.68H66.6184V126.5H64.0984C63.3651 126.5 62.8584 126.62 62.5784 126.86C62.3118 127.1 62.1784 127.4 62.1784 127.76C62.1784 128.16 62.3318 128.48 62.6384 128.72C62.9584 128.947 63.3918 129.06 63.9384 129.06C64.4584 129.06 64.9251 128.94 65.3384 128.7C65.7518 128.447 66.0518 128.08 66.2384 127.6L66.7184 129.04C66.4918 129.733 66.0784 130.26 65.4784 130.62C64.8784 130.98 64.1051 131.16 63.1584 131.16ZM72.1822 131V116.16H75.3022V131H72.1822ZM87.0619 122.64H93.8019V125.16H87.0619V122.64ZM87.3019 128.4H94.9219V131H84.0819V117H94.6619V119.6H87.3019V128.4ZM100.841 131.16C99.9213 131.16 99.0346 131.053 98.1813 130.84C97.3413 130.613 96.6746 130.333 96.1813 130L97.2213 127.76C97.7146 128.067 98.2946 128.32 98.9613 128.52C99.6413 128.707 100.308 128.8 100.961 128.8C101.681 128.8 102.188 128.713 102.481 128.54C102.788 128.367 102.941 128.127 102.941 127.82C102.941 127.567 102.821 127.38 102.581 127.26C102.355 127.127 102.048 127.027 101.661 126.96C101.275 126.893 100.848 126.827 100.381 126.76C99.9279 126.693 99.4679 126.607 99.0013 126.5C98.5346 126.38 98.1079 126.207 97.7213 125.98C97.3346 125.753 97.0213 125.447 96.7813 125.06C96.5546 124.673 96.4412 124.173 96.4412 123.56C96.4412 122.88 96.6346 122.28 97.0213 121.76C97.4213 121.24 97.9946 120.833 98.7413 120.54C99.4879 120.233 100.381 120.08 101.421 120.08C102.155 120.08 102.901 120.16 103.661 120.32C104.421 120.48 105.055 120.713 105.561 121.02L104.521 123.24C104.001 122.933 103.475 122.727 102.941 122.62C102.421 122.5 101.915 122.44 101.421 122.44C100.728 122.44 100.221 122.533 99.9013 122.72C99.5813 122.907 99.4213 123.147 99.4213 123.44C99.4213 123.707 99.5346 123.907 99.7613 124.04C100.001 124.173 100.315 124.28 100.701 124.36C101.088 124.44 101.508 124.513 101.961 124.58C102.428 124.633 102.895 124.72 103.361 124.84C103.828 124.96 104.248 125.133 104.621 125.36C105.008 125.573 105.321 125.873 105.561 126.26C105.801 126.633 105.921 127.127 105.921 127.74C105.921 128.407 105.721 129 105.321 129.52C104.921 130.027 104.341 130.427 103.581 130.72C102.835 131.013 101.921 131.16 100.841 131.16ZM112.246 131.16C110.98 131.16 109.993 130.84 109.286 130.2C108.58 129.547 108.226 128.58 108.226 127.3V117.86H111.346V127.26C111.346 127.713 111.466 128.067 111.706 128.32C111.946 128.56 112.273 128.68 112.686 128.68C113.18 128.68 113.6 128.547 113.946 128.28L114.786 130.48C114.466 130.707 114.08 130.88 113.626 131C113.186 131.107 112.726 131.16 112.246 131.16ZM106.566 122.88V120.48H114.026V122.88H106.566ZM123.138 131V128.9L122.938 128.44V124.68C122.938 124.013 122.731 123.493 122.318 123.12C121.918 122.747 121.298 122.56 120.458 122.56C119.884 122.56 119.318 122.653 118.758 122.84C118.211 123.013 117.744 123.253 117.358 123.56L116.238 121.38C116.824 120.967 117.531 120.647 118.358 120.42C119.184 120.193 120.024 120.08 120.878 120.08C122.518 120.08 123.791 120.467 124.698 121.24C125.604 122.013 126.058 123.22 126.058 124.86V131H123.138ZM119.858 131.16C119.018 131.16 118.298 131.02 117.698 130.74C117.098 130.447 116.638 130.053 116.318 129.56C115.998 129.067 115.838 128.513 115.838 127.9C115.838 127.26 115.991 126.7 116.298 126.22C116.618 125.74 117.118 125.367 117.798 125.1C118.478 124.82 119.364 124.68 120.458 124.68H123.318V126.5H120.798C120.064 126.5 119.558 126.62 119.278 126.86C119.011 127.1 118.878 127.4 118.878 127.76C118.878 128.16 119.031 128.48 119.338 128.72C119.658 128.947 120.091 129.06 120.638 129.06C121.158 129.06 121.624 128.94 122.038 128.7C122.451 128.447 122.751 128.08 122.938 127.6L123.418 129.04C123.191 129.733 122.778 130.26 122.178 130.62C121.578 130.98 120.804 131.16 119.858 131.16ZM133.281 131.16C132.015 131.16 131.028 130.84 130.321 130.2C129.615 129.547 129.261 128.58 129.261 127.3V117.86H132.381V127.26C132.381 127.713 132.501 128.067 132.741 128.32C132.981 128.56 133.308 128.68 133.721 128.68C134.215 128.68 134.635 128.547 134.981 128.28L135.821 130.48C135.501 130.707 135.115 130.88 134.661 131C134.221 131.107 133.761 131.16 133.281 131.16ZM127.601 122.88V120.48H135.061V122.88H127.601ZM142.581 131.16C141.354 131.16 140.274 130.92 139.341 130.44C138.421 129.96 137.707 129.307 137.201 128.48C136.694 127.64 136.441 126.687 136.441 125.62C136.441 124.54 136.687 123.587 137.181 122.76C137.687 121.92 138.374 121.267 139.241 120.8C140.107 120.32 141.087 120.08 142.181 120.08C143.234 120.08 144.181 120.307 145.021 120.76C145.874 121.2 146.547 121.84 147.041 122.68C147.534 123.507 147.781 124.5 147.781 125.66C147.781 125.78 147.774 125.92 147.761 126.08C147.747 126.227 147.734 126.367 147.721 126.5H138.981V124.68H146.081L144.881 125.22C144.881 124.66 144.767 124.173 144.541 123.76C144.314 123.347 144.001 123.027 143.601 122.8C143.201 122.56 142.734 122.44 142.201 122.44C141.667 122.44 141.194 122.56 140.781 122.8C140.381 123.027 140.067 123.353 139.841 123.78C139.614 124.193 139.501 124.687 139.501 125.26V125.74C139.501 126.327 139.627 126.847 139.881 127.3C140.147 127.74 140.514 128.08 140.981 128.32C141.461 128.547 142.021 128.66 142.661 128.66C143.234 128.66 143.734 128.573 144.161 128.4C144.601 128.227 145.001 127.967 145.361 127.62L147.021 129.42C146.527 129.98 145.907 130.413 145.161 130.72C144.414 131.013 143.554 131.16 142.581 131.16ZM160.142 131.24C159.115 131.24 158.202 131.073 157.402 130.74C156.602 130.407 155.969 129.953 155.502 129.38C155.035 128.807 154.802 128.147 154.802 127.4C154.802 126.707 154.955 126.087 155.262 125.54C155.569 124.98 156.055 124.46 156.722 123.98C157.389 123.487 158.235 123.007 159.262 122.54C160.009 122.193 160.595 121.887 161.022 121.62C161.449 121.353 161.749 121.1 161.922 120.86C162.095 120.607 162.182 120.353 162.182 120.1C162.182 119.753 162.062 119.473 161.822 119.26C161.595 119.047 161.255 118.94 160.802 118.94C160.322 118.94 159.949 119.06 159.682 119.3C159.415 119.54 159.282 119.847 159.282 120.22C159.282 120.42 159.322 120.62 159.402 120.82C159.482 121.007 159.635 121.227 159.862 121.48C160.089 121.72 160.409 122.033 160.822 122.42L168.202 129.26L166.502 131.24L158.362 123.68C157.895 123.253 157.522 122.853 157.242 122.48C156.962 122.107 156.755 121.74 156.622 121.38C156.502 121.02 156.442 120.647 156.442 120.26C156.442 119.58 156.622 118.98 156.982 118.46C157.342 117.94 157.849 117.54 158.502 117.26C159.155 116.967 159.922 116.82 160.802 116.82C161.615 116.82 162.315 116.953 162.902 117.22C163.502 117.473 163.969 117.84 164.302 118.32C164.649 118.8 164.822 119.373 164.822 120.04C164.822 120.627 164.675 121.167 164.382 121.66C164.089 122.14 163.629 122.593 163.002 123.02C162.389 123.447 161.582 123.88 160.582 124.32C159.902 124.627 159.362 124.927 158.962 125.22C158.575 125.5 158.295 125.787 158.122 126.08C157.949 126.373 157.862 126.7 157.862 127.06C157.862 127.393 157.962 127.693 158.162 127.96C158.375 128.227 158.669 128.433 159.042 128.58C159.415 128.727 159.855 128.8 160.362 128.8C161.175 128.8 161.922 128.613 162.602 128.24C163.282 127.853 163.855 127.287 164.322 126.54C164.802 125.78 165.142 124.86 165.342 123.78L167.842 124.56C167.562 125.92 167.062 127.1 166.342 128.1C165.622 129.1 164.735 129.873 163.682 130.42C162.629 130.967 161.449 131.24 160.142 131.24ZM55.7713 155V141H61.8313C63.0847 141 64.1647 141.207 65.0713 141.62C65.978 142.02 66.678 142.6 67.1713 143.36C67.6647 144.12 67.9113 145.027 67.9113 146.08C67.9113 147.12 67.6647 148.02 67.1713 148.78C66.678 149.54 65.978 150.127 65.0713 150.54C64.1647 150.94 63.0847 151.14 61.8313 151.14H57.5713L59.0113 149.68V155H55.7713ZM59.0113 150.04L57.5713 148.5H61.6513C62.6513 148.5 63.398 148.287 63.8913 147.86C64.3847 147.433 64.6313 146.84 64.6313 146.08C64.6313 145.307 64.3847 144.707 63.8913 144.28C63.398 143.853 62.6513 143.64 61.6513 143.64H57.5713L59.0113 142.1V150.04ZM69.9849 155V144.24H72.9649V147.28L72.5449 146.4C72.8649 145.64 73.3783 145.067 74.0849 144.68C74.7916 144.28 75.6516 144.08 76.6649 144.08V146.96C76.5316 146.947 76.4116 146.94 76.3049 146.94C76.1983 146.927 76.0849 146.92 75.9649 146.92C75.1116 146.92 74.4183 147.167 73.8849 147.66C73.3649 148.14 73.1049 148.893 73.1049 149.92V155H69.9849ZM83.562 155.16C82.4153 155.16 81.3953 154.92 80.502 154.44C79.622 153.96 78.922 153.307 78.402 152.48C77.8953 151.64 77.642 150.687 77.642 149.62C77.642 148.54 77.8953 147.587 78.402 146.76C78.922 145.92 79.622 145.267 80.502 144.8C81.3953 144.32 82.4153 144.08 83.562 144.08C84.6953 144.08 85.7086 144.32 86.602 144.8C87.4953 145.267 88.1953 145.913 88.702 146.74C89.2086 147.567 89.462 148.527 89.462 149.62C89.462 150.687 89.2086 151.64 88.702 152.48C88.1953 153.307 87.4953 153.96 86.602 154.44C85.7086 154.92 84.6953 155.16 83.562 155.16ZM83.562 152.6C84.082 152.6 84.5486 152.48 84.962 152.24C85.3753 152 85.702 151.66 85.942 151.22C86.182 150.767 86.302 150.233 86.302 149.62C86.302 148.993 86.182 148.46 85.942 148.02C85.702 147.58 85.3753 147.24 84.962 147C84.5486 146.76 84.082 146.64 83.562 146.64C83.042 146.64 82.5753 146.76 82.162 147C81.7486 147.24 81.4153 147.58 81.162 148.02C80.922 148.46 80.802 148.993 80.802 149.62C80.802 150.233 80.922 150.767 81.162 151.22C81.4153 151.66 81.7486 152 82.162 152.24C82.5753 152.48 83.042 152.6 83.562 152.6ZM97.9074 155.16C97.0008 155.16 96.2074 154.96 95.5274 154.56C94.8474 154.16 94.3141 153.553 93.9274 152.74C93.5541 151.913 93.3674 150.873 93.3674 149.62C93.3674 148.353 93.5474 147.313 93.9074 146.5C94.2674 145.687 94.7874 145.08 95.4674 144.68C96.1474 144.28 96.9608 144.08 97.9074 144.08C98.9208 144.08 99.8274 144.313 100.627 144.78C101.441 145.233 102.081 145.873 102.547 146.7C103.027 147.527 103.267 148.5 103.267 149.62C103.267 150.753 103.027 151.733 102.547 152.56C102.081 153.387 101.441 154.027 100.627 154.48C99.8274 154.933 98.9208 155.16 97.9074 155.16ZM91.5474 158.88V144.24H94.5274V146.44L94.4674 149.64L94.6674 152.82V158.88H91.5474ZM97.3674 152.6C97.8874 152.6 98.3474 152.48 98.7474 152.24C99.1608 152 99.4874 151.66 99.7274 151.22C99.9808 150.767 100.107 150.233 100.107 149.62C100.107 148.993 99.9808 148.46 99.7274 148.02C99.4874 147.58 99.1608 147.24 98.7474 147C98.3474 146.76 97.8874 146.64 97.3674 146.64C96.8474 146.64 96.3808 146.76 95.9674 147C95.5541 147.24 95.2274 147.58 94.9874 148.02C94.7474 148.46 94.6274 148.993 94.6274 149.62C94.6274 150.233 94.7474 150.767 94.9874 151.22C95.2274 151.66 95.5541 152 95.9674 152.24C96.3808 152.48 96.8474 152.6 97.3674 152.6ZM110.696 155.16C109.469 155.16 108.389 154.92 107.456 154.44C106.536 153.96 105.823 153.307 105.316 152.48C104.809 151.64 104.556 150.687 104.556 149.62C104.556 148.54 104.803 147.587 105.296 146.76C105.803 145.92 106.489 145.267 107.356 144.8C108.223 144.32 109.203 144.08 110.296 144.08C111.349 144.08 112.296 144.307 113.136 144.76C113.989 145.2 114.663 145.84 115.156 146.68C115.649 147.507 115.896 148.5 115.896 149.66C115.896 149.78 115.889 149.92 115.876 150.08C115.863 150.227 115.849 150.367 115.836 150.5H107.096V148.68H114.196L112.996 149.22C112.996 148.66 112.883 148.173 112.656 147.76C112.429 147.347 112.116 147.027 111.716 146.8C111.316 146.56 110.849 146.44 110.316 146.44C109.783 146.44 109.309 146.56 108.896 146.8C108.496 147.027 108.183 147.353 107.956 147.78C107.729 148.193 107.616 148.687 107.616 149.26V149.74C107.616 150.327 107.743 150.847 107.996 151.3C108.263 151.74 108.629 152.08 109.096 152.32C109.576 152.547 110.136 152.66 110.776 152.66C111.349 152.66 111.849 152.573 112.276 152.4C112.716 152.227 113.116 151.967 113.476 151.62L115.136 153.42C114.643 153.98 114.023 154.413 113.276 154.72C112.529 155.013 111.669 155.16 110.696 155.16ZM117.973 155V144.24H120.953V147.28L120.533 146.4C120.853 145.64 121.367 145.067 122.073 144.68C122.78 144.28 123.64 144.08 124.653 144.08V146.96C124.52 146.947 124.4 146.94 124.293 146.94C124.187 146.927 124.073 146.92 123.953 146.92C123.1 146.92 122.407 147.167 121.873 147.66C121.353 148.14 121.093 148.893 121.093 149.92V155H117.973ZM131.279 155.16C130.013 155.16 129.026 154.84 128.319 154.2C127.613 153.547 127.259 152.58 127.259 151.3V141.86H130.379V151.26C130.379 151.713 130.499 152.067 130.739 152.32C130.979 152.56 131.306 152.68 131.719 152.68C132.213 152.68 132.633 152.547 132.979 152.28L133.819 154.48C133.499 154.707 133.113 154.88 132.659 155C132.219 155.107 131.759 155.16 131.279 155.16ZM125.599 146.88V144.48H133.059V146.88H125.599ZM136.736 159.04C136.176 159.04 135.622 158.953 135.076 158.78C134.529 158.607 134.082 158.367 133.736 158.06L134.876 155.84C135.116 156.053 135.389 156.22 135.696 156.34C136.016 156.46 136.329 156.52 136.636 156.52C137.076 156.52 137.422 156.413 137.676 156.2C137.942 156 138.182 155.66 138.396 155.18L138.956 153.86L139.196 153.52L143.056 144.24H146.056L141.196 155.66C140.849 156.527 140.449 157.207 139.996 157.7C139.556 158.193 139.062 158.54 138.516 158.74C137.982 158.94 137.389 159.04 136.736 159.04ZM138.576 155.42L133.776 144.24H136.996L140.716 153.24L138.576 155.42Z" fill="white"/>
<path d="M84.3599 83.6695C84.0906 83.4298 83.7398 83.3104 83.3775 83.358L51.3929 87.3692C50.7728 87.4527 50.293 87.9914 50.293 88.6386V96.0019C50.293 96.361 50.4333 96.6959 50.6904 96.9356C50.9246 97.1511 51.2281 97.283 51.5447 97.283H51.6263L83.6213 95.0189C84.2765 94.9713 84.7792 94.4201 84.7792 93.7495V84.6265C84.7792 84.2557 84.6266 83.9082 84.3581 83.6694L84.3599 83.6695ZM82.2889 92.5529L52.7965 94.6365V89.7635L82.2889 86.0522V92.5529Z" fill="white" stroke="#0F52BA"/>
<path d="M84.3014 62.777C83.997 62.5373 83.611 62.4538 83.2365 62.5373L51.254 70.5831C50.6926 70.7267 50.3066 71.2295 50.3066 71.8283V79.1916C50.3066 79.5749 50.4707 79.934 50.7628 80.1737C50.9847 80.365 51.2654 80.461 51.5584 80.461C51.64 80.461 51.7102 80.4493 51.7926 80.4368L83.7771 74.1517C84.3622 74.0322 84.7947 73.5053 84.7947 72.8948V63.7717C84.7824 63.3884 84.607 63.0168 84.3026 62.7771L84.3014 62.777ZM82.2891 71.8524L52.7967 77.6349V72.8104L82.2891 65.3994V71.8524Z" fill="white" stroke="#0F52BA"/>
<path d="M84.2422 41.885C83.9027 41.6453 83.4816 41.586 83.0957 41.7296L51.1132 53.7973C50.622 53.9768 50.2939 54.4554 50.2939 54.9949V62.3582C50.2939 62.7649 50.4808 63.1482 50.8088 63.3879C51.0308 63.5558 51.2887 63.6393 51.5457 63.6393C51.6746 63.6393 51.8027 63.6151 51.9202 63.5792L83.9048 53.2828C84.4197 53.1149 84.782 52.6247 84.782 52.0618V42.9388C84.782 42.5195 84.5829 42.1245 84.2434 41.8848L84.2422 41.885ZM82.2886 51.1273L52.7963 60.622V55.8808L82.2886 44.7586V51.1273Z" fill="white" stroke="#0F52BA"/>
<path d="M135.926 97.7834L151.544 99.5072C151.59 99.5072 151.638 99.5189 151.673 99.5189C151.977 99.5189 152.281 99.3994 152.504 99.1957C152.773 98.956 152.913 98.6094 152.913 98.2494V92.6224C152.913 92.0119 152.492 91.4849 151.896 91.3655L136.278 88.3005C135.916 88.2287 135.529 88.3247 135.248 88.5761C134.956 88.8158 134.792 89.1749 134.792 89.5583V96.5267C134.815 97.1731 135.295 97.7118 135.926 97.7836V97.7834ZM137.318 91.0906L150.432 93.6645V96.813L137.318 95.3649V91.0906Z" fill="white" stroke="#0F52BA"/>
<path d="M135.703 81.8256L151.32 86.6268C151.437 86.6627 151.555 86.6744 151.683 86.6744C151.952 86.6744 152.209 86.5909 152.432 86.423C152.748 86.1833 152.934 85.8008 152.934 85.3933V79.7662C152.934 79.2392 152.619 78.7607 152.139 78.5686L136.511 72.4395C136.125 72.2842 135.691 72.3435 135.353 72.5832C135.013 72.8229 134.815 73.2179 134.815 73.6371V80.6055C134.814 81.1676 135.176 81.6578 135.703 81.8257L135.703 81.8256ZM137.318 75.4919L150.432 80.6523V83.6813L137.318 79.6468V75.4919Z" fill="white" stroke="#0F52BA"/>
<path d="M155.463 60.8025L133.693 45.5613L133.682 45.5496C133.541 45.4536 133.401 45.3943 133.237 45.3701C133.226 45.3701 133.213 45.3701 133.19 45.3584C133.155 45.3467 133.109 45.3467 133.074 45.3467H133.015H132.921C132.898 45.3467 132.875 45.3467 132.851 45.3584C132.827 45.3584 132.792 45.3701 132.769 45.3701C132.746 45.3701 132.723 45.3818 132.688 45.3943C132.664 45.406 132.641 45.406 132.606 45.4185C132.583 45.4302 132.547 45.4427 132.525 45.4427C132.513 45.4427 132.501 45.4544 132.49 45.4544L119.575 51.2369V48.3633C119.575 47.9441 119.375 47.5491 119.037 47.3094L90.5367 27.3396C90.5253 27.3396 90.5253 27.3279 90.5131 27.3279C90.3727 27.2319 90.2323 27.1726 90.0683 27.1484C90.0569 27.1484 90.0333 27.1484 90.0218 27.1367C89.9867 27.1367 89.9517 27.125 89.9166 27.125H89.8464H89.7525C89.7289 27.125 89.706 27.125 89.6824 27.1367C89.6587 27.1367 89.6236 27.1484 89.6008 27.1484C89.5771 27.1484 89.542 27.1601 89.5192 27.1726C89.4955 27.1843 89.4727 27.1843 89.449 27.1968C89.4253 27.2085 89.3902 27.221 89.3674 27.2327C89.356 27.2327 89.3437 27.2444 89.3323 27.2444L44.7491 47.19C44.2929 47.3938 44 47.8481 44 48.3634V105.472C44 106.179 44.5614 106.753 45.2518 106.753H154.748C155.439 106.753 156 106.179 156 105.472L155.999 61.856C155.999 61.4367 155.801 61.0417 155.461 60.802L155.463 60.8025ZM117.081 52.3375L114.367 53.5585L94.4805 41.8257C94.0945 41.5985 93.6147 41.5985 93.2288 41.8257C92.8428 42.0528 92.6086 42.472 92.6086 42.9272V52.0502C92.6086 52.5413 92.8779 52.9839 93.3103 53.1994L103.593 58.3831L98.457 60.6822C98.0008 60.886 97.7079 61.3403 97.7079 61.8556V63.9267L94.3158 62.5855C93.9298 62.4302 93.4965 62.4895 93.1579 62.7292C92.8184 62.9688 92.6201 63.3639 92.6201 63.7831V72.9062C92.6201 73.469 92.9824 73.9718 93.5096 74.1271L97.7095 75.4199V84.076L94.0945 83.3695C93.7322 83.2977 93.3454 83.3937 93.0647 83.6451C92.7726 83.8848 92.6085 84.2439 92.6085 84.6273V93.7512C92.6085 94.3976 93.0884 94.9488 93.7199 95.0206L97.6972 95.4632V104.191H91.0761V30.8231L117.082 49.0333L117.081 52.3375ZM106.576 57.0427L95.0997 51.2602V45.1421L111.524 54.828L106.576 57.0427ZM97.6971 72.7509L95.0997 71.9483V65.6273L97.6971 66.6453V72.7509ZM97.6971 92.8885L95.0997 92.6012V86.1724L97.6971 86.6868V92.8885ZM46.4939 49.1888L88.5724 30.3438V104.191L46.4939 104.192V49.1888ZM100.202 62.682L131.752 48.5549V104.18L100.202 104.179V62.682ZM153.511 104.19H134.243V49.0333L153.51 62.5266L153.511 104.19Z" fill="white" stroke="#0F52BA"/>
<path d="M135.517 65.8298L151.122 73.696C151.298 73.7795 151.485 73.8279 151.672 73.8279C151.906 73.8279 152.128 73.7678 152.327 73.6367C152.69 73.4095 152.913 72.9903 152.913 72.5468V66.9198C152.913 66.4646 152.678 66.0454 152.292 65.8182L136.675 56.6118C136.289 56.3846 135.809 56.3846 135.423 56.6118C135.037 56.8389 134.803 57.2582 134.803 57.7133V64.6817C134.815 65.172 135.084 65.6146 135.517 65.8301L135.517 65.8298ZM137.319 59.9154L150.433 67.6497V70.4874L137.319 63.8907V59.9154Z" fill="white" stroke="#0F52BA"/>
<path d="M128.895 56.6584C128.555 56.4187 128.134 56.3594 127.748 56.5031L103.322 65.7095C102.83 65.8891 102.502 66.3676 102.502 66.9071V72.5342C102.502 72.9409 102.689 73.3242 103.017 73.5639C103.239 73.7318 103.497 73.8153 103.754 73.8153C103.883 73.8153 104.011 73.7911 104.129 73.7552L128.555 65.889C129.07 65.7211 129.433 65.2309 129.433 64.668V57.7114C129.433 57.293 129.234 56.8971 128.895 56.6582L128.895 56.6584ZM126.929 63.7461L104.995 70.8097V67.8166L126.929 59.5438V63.7461Z" fill="white" stroke="#0F52BA"/>
<path d="M129.012 88.5894C128.743 88.3497 128.392 88.2303 128.029 88.2779L103.603 91.3546C102.983 91.4381 102.503 91.9768 102.503 92.624V98.2511C102.503 98.6102 102.643 98.9451 102.9 99.1848C103.135 99.412 103.438 99.5322 103.755 99.5322H103.836L128.263 97.8085C128.918 97.7609 129.421 97.2097 129.421 96.5391V89.5707C129.433 89.1756 129.281 88.829 129.012 88.5894V88.5894ZM126.929 95.3297L104.995 96.8739V93.7497L126.929 90.9962V95.3297Z" fill="white" stroke="#0F52BA"/>
<path d="M128.953 72.6188C128.649 72.3791 128.263 72.2956 127.888 72.3791L103.462 78.5208C102.9 78.6645 102.514 79.1672 102.514 79.766V85.3931C102.514 85.7764 102.678 86.1355 102.97 86.3752C103.192 86.5665 103.473 86.6625 103.766 86.6625C103.848 86.6625 103.918 86.6508 104 86.6383L128.427 81.8371C129.012 81.7177 129.444 81.1907 129.444 80.5802V73.6118C129.432 73.241 129.257 72.8702 128.953 72.6188H128.953ZM126.928 79.5387L104.994 83.8488V80.7721L126.928 75.2643V79.5387Z" fill="white" stroke="#0F52BA"/>
</svg>
