<svg width="200" height="180" viewBox="0 0 200 180" fill="none" xmlns="http://www.w3.org/2000/svg">
<path d="M0 0H170C186.569 0 200 13.4315 200 30V180H30C13.4315 180 0 166.569 0 150V0Z" fill="#E75825"/>
<path d="M32.66 131V117H38.72C39.9733 117 41.0533 117.207 41.96 117.62C42.8667 118.02 43.5667 118.6 44.06 119.36C44.5533 120.12 44.8 121.027 44.8 122.08C44.8 123.12 44.5533 124.02 44.06 124.78C43.5667 125.527 42.8667 126.1 41.96 126.5C41.0533 126.9 39.9733 127.1 38.72 127.1H34.46L35.9 125.68V131H32.66ZM41.56 131L38.06 125.92H41.52L45.06 131H41.56ZM35.9 126.04L34.46 124.52H38.54C39.54 124.52 40.2867 124.307 40.78 123.88C41.2733 123.44 41.52 122.84 41.52 122.08C41.52 121.307 41.2733 120.707 40.78 120.28C40.2867 119.853 39.54 119.64 38.54 119.64H34.46L35.9 118.1V126.04ZM52.487 131.16C51.2604 131.16 50.1804 130.92 49.247 130.44C48.327 129.96 47.6137 129.307 47.107 128.48C46.6004 127.64 46.347 126.687 46.347 125.62C46.347 124.54 46.5937 123.587 47.087 122.76C47.5937 121.92 48.2804 121.267 49.147 120.8C50.0137 120.32 50.9937 120.08 52.087 120.08C53.1404 120.08 54.087 120.307 54.927 120.76C55.7804 121.2 56.4537 121.84 56.947 122.68C57.4404 123.507 57.687 124.5 57.687 125.66C57.687 125.78 57.6804 125.92 57.667 126.08C57.6537 126.227 57.6404 126.367 57.627 126.5H48.887V124.68H55.987L54.787 125.22C54.787 124.66 54.6737 124.173 54.447 123.76C54.2204 123.347 53.907 123.027 53.507 122.8C53.107 122.56 52.6404 122.44 52.107 122.44C51.5737 122.44 51.1004 122.56 50.687 122.8C50.287 123.027 49.9737 123.353 49.747 123.78C49.5204 124.193 49.407 124.687 49.407 125.26V125.74C49.407 126.327 49.5337 126.847 49.787 127.3C50.0537 127.74 50.4204 128.08 50.887 128.32C51.367 128.547 51.927 128.66 52.567 128.66C53.1404 128.66 53.6404 128.573 54.067 128.4C54.507 128.227 54.907 127.967 55.267 127.62L56.927 129.42C56.4337 129.98 55.8137 130.413 55.067 130.72C54.3204 131.013 53.4604 131.16 52.487 131.16ZM66.0713 131V128.9L65.8713 128.44V124.68C65.8713 124.013 65.6646 123.493 65.2513 123.12C64.8513 122.747 64.2313 122.56 63.3913 122.56C62.8179 122.56 62.2513 122.653 61.6913 122.84C61.1446 123.013 60.6779 123.253 60.2913 123.56L59.1713 121.38C59.7579 120.967 60.4646 120.647 61.2913 120.42C62.1179 120.193 62.9579 120.08 63.8113 120.08C65.4513 120.08 66.7246 120.467 67.6313 121.24C68.5379 122.013 68.9913 123.22 68.9913 124.86V131H66.0713ZM62.7913 131.16C61.9513 131.16 61.2313 131.02 60.6313 130.74C60.0313 130.447 59.5713 130.053 59.2513 129.56C58.9313 129.067 58.7713 128.513 58.7713 127.9C58.7713 127.26 58.9246 126.7 59.2313 126.22C59.5513 125.74 60.0513 125.367 60.7313 125.1C61.4113 124.82 62.2979 124.68 63.3913 124.68H66.2513V126.5H63.7313C62.9979 126.5 62.4913 126.62 62.2113 126.86C61.9446 127.1 61.8113 127.4 61.8113 127.76C61.8113 128.16 61.9646 128.48 62.2713 128.72C62.5913 128.947 63.0246 129.06 63.5713 129.06C64.0913 129.06 64.5579 128.94 64.9713 128.7C65.3846 128.447 65.6846 128.08 65.8713 127.6L66.3513 129.04C66.1246 129.733 65.7113 130.26 65.1113 130.62C64.5113 130.98 63.7379 131.16 62.7913 131.16ZM71.815 131V116.16H74.935V131H71.815ZM86.6947 122.64H93.4347V125.16H86.6947V122.64ZM86.9347 128.4H94.5547V131H83.7147V117H94.2947V119.6H86.9347V128.4ZM100.474 131.16C99.5541 131.16 98.6674 131.053 97.8141 130.84C96.9741 130.613 96.3074 130.333 95.8141 130L96.8541 127.76C97.3474 128.067 97.9274 128.32 98.5941 128.52C99.2741 128.707 99.9407 128.8 100.594 128.8C101.314 128.8 101.821 128.713 102.114 128.54C102.421 128.367 102.574 128.127 102.574 127.82C102.574 127.567 102.454 127.38 102.214 127.26C101.987 127.127 101.681 127.027 101.294 126.96C100.907 126.893 100.481 126.827 100.014 126.76C99.5607 126.693 99.1007 126.607 98.6341 126.5C98.1674 126.38 97.7407 126.207 97.3541 125.98C96.9674 125.753 96.6541 125.447 96.4141 125.06C96.1874 124.673 96.0741 124.173 96.0741 123.56C96.0741 122.88 96.2674 122.28 96.6541 121.76C97.0541 121.24 97.6274 120.833 98.3741 120.54C99.1207 120.233 100.014 120.08 101.054 120.08C101.787 120.08 102.534 120.16 103.294 120.32C104.054 120.48 104.687 120.713 105.194 121.02L104.154 123.24C103.634 122.933 103.107 122.727 102.574 122.62C102.054 122.5 101.547 122.44 101.054 122.44C100.361 122.44 99.8541 122.533 99.5341 122.72C99.2141 122.907 99.0541 123.147 99.0541 123.44C99.0541 123.707 99.1674 123.907 99.3941 124.04C99.6341 124.173 99.9474 124.28 100.334 124.36C100.721 124.44 101.141 124.513 101.594 124.58C102.061 124.633 102.527 124.72 102.994 124.84C103.461 124.96 103.881 125.133 104.254 125.36C104.641 125.573 104.954 125.873 105.194 126.26C105.434 126.633 105.554 127.127 105.554 127.74C105.554 128.407 105.354 129 104.954 129.52C104.554 130.027 103.974 130.427 103.214 130.72C102.467 131.013 101.554 131.16 100.474 131.16ZM111.879 131.16C110.612 131.16 109.626 130.84 108.919 130.2C108.212 129.547 107.859 128.58 107.859 127.3V117.86H110.979V127.26C110.979 127.713 111.099 128.067 111.339 128.32C111.579 128.56 111.906 128.68 112.319 128.68C112.812 128.68 113.232 128.547 113.579 128.28L114.419 130.48C114.099 130.707 113.712 130.88 113.259 131C112.819 131.107 112.359 131.16 111.879 131.16ZM106.199 122.88V120.48H113.659V122.88H106.199ZM122.77 131V128.9L122.57 128.44V124.68C122.57 124.013 122.364 123.493 121.95 123.12C121.55 122.747 120.93 122.56 120.09 122.56C119.517 122.56 118.95 122.653 118.39 122.84C117.844 123.013 117.377 123.253 116.99 123.56L115.87 121.38C116.457 120.967 117.164 120.647 117.99 120.42C118.817 120.193 119.657 120.08 120.51 120.08C122.15 120.08 123.424 120.467 124.33 121.24C125.237 122.013 125.69 123.22 125.69 124.86V131H122.77ZM119.49 131.16C118.65 131.16 117.93 131.02 117.33 130.74C116.73 130.447 116.27 130.053 115.95 129.56C115.63 129.067 115.47 128.513 115.47 127.9C115.47 127.26 115.624 126.7 115.93 126.22C116.25 125.74 116.75 125.367 117.43 125.1C118.11 124.82 118.997 124.68 120.09 124.68H122.95V126.5H120.43C119.697 126.5 119.19 126.62 118.91 126.86C118.644 127.1 118.51 127.4 118.51 127.76C118.51 128.16 118.664 128.48 118.97 128.72C119.29 128.947 119.724 129.06 120.27 129.06C120.79 129.06 121.257 128.94 121.67 128.7C122.084 128.447 122.384 128.08 122.57 127.6L123.05 129.04C122.824 129.733 122.41 130.26 121.81 130.62C121.21 130.98 120.437 131.16 119.49 131.16ZM132.914 131.16C131.648 131.16 130.661 130.84 129.954 130.2C129.248 129.547 128.894 128.58 128.894 127.3V117.86H132.014V127.26C132.014 127.713 132.134 128.067 132.374 128.32C132.614 128.56 132.941 128.68 133.354 128.68C133.848 128.68 134.268 128.547 134.614 128.28L135.454 130.48C135.134 130.707 134.748 130.88 134.294 131C133.854 131.107 133.394 131.16 132.914 131.16ZM127.234 122.88V120.48H134.694V122.88H127.234ZM142.214 131.16C140.987 131.16 139.907 130.92 138.974 130.44C138.054 129.96 137.34 129.307 136.834 128.48C136.327 127.64 136.074 126.687 136.074 125.62C136.074 124.54 136.32 123.587 136.814 122.76C137.32 121.92 138.007 121.267 138.874 120.8C139.74 120.32 140.72 120.08 141.814 120.08C142.867 120.08 143.814 120.307 144.654 120.76C145.507 121.2 146.18 121.84 146.674 122.68C147.167 123.507 147.414 124.5 147.414 125.66C147.414 125.78 147.407 125.92 147.394 126.08C147.38 126.227 147.367 126.367 147.354 126.5H138.614V124.68H145.714L144.514 125.22C144.514 124.66 144.4 124.173 144.174 123.76C143.947 123.347 143.634 123.027 143.234 122.8C142.834 122.56 142.367 122.44 141.834 122.44C141.3 122.44 140.827 122.56 140.414 122.8C140.014 123.027 139.7 123.353 139.474 123.78C139.247 124.193 139.134 124.687 139.134 125.26V125.74C139.134 126.327 139.26 126.847 139.514 127.3C139.78 127.74 140.147 128.08 140.614 128.32C141.094 128.547 141.654 128.66 142.294 128.66C142.867 128.66 143.367 128.573 143.794 128.4C144.234 128.227 144.634 127.967 144.994 127.62L146.654 129.42C146.16 129.98 145.54 130.413 144.794 130.72C144.047 131.013 143.187 131.16 142.214 131.16ZM159.775 131.24C158.748 131.24 157.835 131.073 157.035 130.74C156.235 130.407 155.602 129.953 155.135 129.38C154.668 128.807 154.435 128.147 154.435 127.4C154.435 126.707 154.588 126.087 154.895 125.54C155.202 124.98 155.688 124.46 156.355 123.98C157.022 123.487 157.868 123.007 158.895 122.54C159.642 122.193 160.228 121.887 160.655 121.62C161.082 121.353 161.382 121.1 161.555 120.86C161.728 120.607 161.815 120.353 161.815 120.1C161.815 119.753 161.695 119.473 161.455 119.26C161.228 119.047 160.888 118.94 160.435 118.94C159.955 118.94 159.582 119.06 159.315 119.3C159.048 119.54 158.915 119.847 158.915 120.22C158.915 120.42 158.955 120.62 159.035 120.82C159.115 121.007 159.268 121.227 159.495 121.48C159.722 121.72 160.042 122.033 160.455 122.42L167.835 129.26L166.135 131.24L157.995 123.68C157.528 123.253 157.155 122.853 156.875 122.48C156.595 122.107 156.388 121.74 156.255 121.38C156.135 121.02 156.075 120.647 156.075 120.26C156.075 119.58 156.255 118.98 156.615 118.46C156.975 117.94 157.482 117.54 158.135 117.26C158.788 116.967 159.555 116.82 160.435 116.82C161.248 116.82 161.948 116.953 162.535 117.22C163.135 117.473 163.602 117.84 163.935 118.32C164.282 118.8 164.455 119.373 164.455 120.04C164.455 120.627 164.308 121.167 164.015 121.66C163.722 122.14 163.262 122.593 162.635 123.02C162.022 123.447 161.215 123.88 160.215 124.32C159.535 124.627 158.995 124.927 158.595 125.22C158.208 125.5 157.928 125.787 157.755 126.08C157.582 126.373 157.495 126.7 157.495 127.06C157.495 127.393 157.595 127.693 157.795 127.96C158.008 128.227 158.302 128.433 158.675 128.58C159.048 128.727 159.488 128.8 159.995 128.8C160.808 128.8 161.555 128.613 162.235 128.24C162.915 127.853 163.488 127.287 163.955 126.54C164.435 125.78 164.775 124.86 164.975 123.78L167.475 124.56C167.195 125.92 166.695 127.1 165.975 128.1C165.255 129.1 164.368 129.873 163.315 130.42C162.262 130.967 161.082 131.24 159.775 131.24ZM32.66 155V141H38.72C39.9733 141 41.0533 141.207 41.96 141.62C42.8667 142.02 43.5667 142.6 44.06 143.36C44.5533 144.12 44.8 145.027 44.8 146.08C44.8 147.12 44.5533 148.02 44.06 148.78C43.5667 149.54 42.8667 150.127 41.96 150.54C41.0533 150.94 39.9733 151.14 38.72 151.14H34.46L35.9 149.68V155H32.66ZM35.9 150.04L34.46 148.5H38.54C39.54 148.5 40.2867 148.287 40.78 147.86C41.2733 147.433 41.52 146.84 41.52 146.08C41.52 145.307 41.2733 144.707 40.78 144.28C40.2867 143.853 39.54 143.64 38.54 143.64H34.46L35.9 142.1V150.04ZM46.8736 155V144.24H49.8536V147.28L49.4336 146.4C49.7536 145.64 50.2669 145.067 50.9736 144.68C51.6803 144.28 52.5403 144.08 53.5536 144.08V146.96C53.4203 146.947 53.3003 146.94 53.1936 146.94C53.0869 146.927 52.9736 146.92 52.8536 146.92C52.0003 146.92 51.3069 147.167 50.7736 147.66C50.2536 148.14 49.9936 148.893 49.9936 149.92V155H46.8736ZM60.4506 155.16C59.304 155.16 58.284 154.92 57.3906 154.44C56.5106 153.96 55.8106 153.307 55.2906 152.48C54.784 151.64 54.5306 150.687 54.5306 149.62C54.5306 148.54 54.784 147.587 55.2906 146.76C55.8106 145.92 56.5106 145.267 57.3906 144.8C58.284 144.32 59.304 144.08 60.4506 144.08C61.584 144.08 62.5973 144.32 63.4906 144.8C64.384 145.267 65.084 145.913 65.5906 146.74C66.0973 147.567 66.3506 148.527 66.3506 149.62C66.3506 150.687 66.0973 151.64 65.5906 152.48C65.084 153.307 64.384 153.96 63.4906 154.44C62.5973 154.92 61.584 155.16 60.4506 155.16ZM60.4506 152.6C60.9706 152.6 61.4373 152.48 61.8506 152.24C62.264 152 62.5906 151.66 62.8306 151.22C63.0706 150.767 63.1906 150.233 63.1906 149.62C63.1906 148.993 63.0706 148.46 62.8306 148.02C62.5906 147.58 62.264 147.24 61.8506 147C61.4373 146.76 60.9706 146.64 60.4506 146.64C59.9306 146.64 59.464 146.76 59.0506 147C58.6373 147.24 58.304 147.58 58.0506 148.02C57.8106 148.46 57.6906 148.993 57.6906 149.62C57.6906 150.233 57.8106 150.767 58.0506 151.22C58.304 151.66 58.6373 152 59.0506 152.24C59.464 152.48 59.9306 152.6 60.4506 152.6ZM74.7961 155.16C73.8894 155.16 73.0961 154.96 72.4161 154.56C71.7361 154.16 71.2028 153.553 70.8161 152.74C70.4428 151.913 70.2561 150.873 70.2561 149.62C70.2561 148.353 70.4361 147.313 70.7961 146.5C71.1561 145.687 71.6761 145.08 72.3561 144.68C73.0361 144.28 73.8494 144.08 74.7961 144.08C75.8094 144.08 76.7161 144.313 77.5161 144.78C78.3294 145.233 78.9694 145.873 79.4361 146.7C79.9161 147.527 80.1561 148.5 80.1561 149.62C80.1561 150.753 79.9161 151.733 79.4361 152.56C78.9694 153.387 78.3294 154.027 77.5161 154.48C76.7161 154.933 75.8094 155.16 74.7961 155.16ZM68.4361 158.88V144.24H71.4161V146.44L71.3561 149.64L71.5561 152.82V158.88H68.4361ZM74.2561 152.6C74.7761 152.6 75.2361 152.48 75.6361 152.24C76.0494 152 76.3761 151.66 76.6161 151.22C76.8694 150.767 76.9961 150.233 76.9961 149.62C76.9961 148.993 76.8694 148.46 76.6161 148.02C76.3761 147.58 76.0494 147.24 75.6361 147C75.2361 146.76 74.7761 146.64 74.2561 146.64C73.7361 146.64 73.2694 146.76 72.8561 147C72.4428 147.24 72.1161 147.58 71.8761 148.02C71.6361 148.46 71.5161 148.993 71.5161 149.62C71.5161 150.233 71.6361 150.767 71.8761 151.22C72.1161 151.66 72.4428 152 72.8561 152.24C73.2694 152.48 73.7361 152.6 74.2561 152.6ZM87.5847 155.16C86.358 155.16 85.278 154.92 84.3447 154.44C83.4247 153.96 82.7114 153.307 82.2047 152.48C81.698 151.64 81.4447 150.687 81.4447 149.62C81.4447 148.54 81.6914 147.587 82.1847 146.76C82.6914 145.92 83.378 145.267 84.2447 144.8C85.1114 144.32 86.0914 144.08 87.1847 144.08C88.238 144.08 89.1847 144.307 90.0247 144.76C90.878 145.2 91.5514 145.84 92.0447 146.68C92.538 147.507 92.7847 148.5 92.7847 149.66C92.7847 149.78 92.778 149.92 92.7647 150.08C92.7514 150.227 92.738 150.367 92.7247 150.5H83.9847V148.68H91.0847L89.8847 149.22C89.8847 148.66 89.7714 148.173 89.5447 147.76C89.318 147.347 89.0047 147.027 88.6047 146.8C88.2047 146.56 87.738 146.44 87.2047 146.44C86.6714 146.44 86.198 146.56 85.7847 146.8C85.3847 147.027 85.0714 147.353 84.8447 147.78C84.618 148.193 84.5047 148.687 84.5047 149.26V149.74C84.5047 150.327 84.6314 150.847 84.8847 151.3C85.1514 151.74 85.518 152.08 85.9847 152.32C86.4647 152.547 87.0247 152.66 87.6647 152.66C88.238 152.66 88.738 152.573 89.1647 152.4C89.6047 152.227 90.0047 151.967 90.3647 151.62L92.0247 153.42C91.5314 153.98 90.9114 154.413 90.1647 154.72C89.418 155.013 88.558 155.16 87.5847 155.16ZM94.8619 155V144.24H97.8419V147.28L97.4219 146.4C97.7419 145.64 98.2552 145.067 98.9619 144.68C99.6685 144.28 100.529 144.08 101.542 144.08V146.96C101.409 146.947 101.289 146.94 101.182 146.94C101.075 146.927 100.962 146.92 100.842 146.92C99.9885 146.92 99.2952 147.167 98.7619 147.66C98.2419 148.14 97.9819 148.893 97.9819 149.92V155H94.8619ZM108.168 155.16C106.901 155.16 105.915 154.84 105.208 154.2C104.501 153.547 104.148 152.58 104.148 151.3V141.86H107.268V151.26C107.268 151.713 107.388 152.067 107.628 152.32C107.868 152.56 108.195 152.68 108.608 152.68C109.101 152.68 109.521 152.547 109.868 152.28L110.708 154.48C110.388 154.707 110.001 154.88 109.548 155C109.108 155.107 108.648 155.16 108.168 155.16ZM102.488 146.88V144.48H109.948V146.88H102.488ZM113.624 159.04C113.064 159.04 112.511 158.953 111.964 158.78C111.418 158.607 110.971 158.367 110.624 158.06L111.764 155.84C112.004 156.053 112.278 156.22 112.584 156.34C112.904 156.46 113.218 156.52 113.524 156.52C113.964 156.52 114.311 156.413 114.564 156.2C114.831 156 115.071 155.66 115.284 155.18L115.844 153.86L116.084 153.52L119.944 144.24H122.944L118.084 155.66C117.738 156.527 117.338 157.207 116.884 157.7C116.444 158.193 115.951 158.54 115.404 158.74C114.871 158.94 114.278 159.04 113.624 159.04ZM115.464 155.42L110.664 144.24H113.884L117.604 153.24L115.464 155.42Z" fill="white"/>
<path d="M84.3599 75.25C84.0906 75.0158 83.7398 74.8991 83.3775 74.9456L51.3929 78.865C50.7728 78.9466 50.293 79.4729 50.293 80.1053V87.3C50.293 87.6509 50.4333 87.9781 50.6904 88.2123C50.9246 88.4228 51.2281 88.5518 51.5447 88.5518H51.6263L83.6213 86.3395C84.2765 86.293 84.7792 85.7545 84.7792 85.0992V76.1851C84.7792 75.8228 84.6266 75.4833 84.3581 75.2499L84.3599 75.25ZM82.2889 83.93L52.7965 85.9659V81.2045L82.2889 77.5782V83.93Z" fill="white" stroke="#404CDC"/>
<path d="M84.3014 54.8372C83.997 54.603 83.611 54.5214 83.2365 54.603L51.254 62.4645C50.6926 62.6049 50.3066 63.0961 50.3066 63.6812V70.8759C50.3066 71.2504 50.4707 71.6013 50.7628 71.8355C50.9847 72.0224 51.2654 72.1162 51.5584 72.1162C51.64 72.1162 51.7102 72.1048 51.7926 72.0926L83.7771 65.9514C84.3622 65.8347 84.7947 65.3198 84.7947 64.7233V55.8091C84.7824 55.4346 84.607 55.0715 84.3026 54.8373L84.3014 54.8372ZM82.2891 63.7048L52.7967 69.3549V64.6409L82.2891 57.3996V63.7048Z" fill="white" stroke="#404CDC"/>
<path d="M84.2422 34.4226C83.9027 34.1884 83.4816 34.1305 83.0957 34.2708L51.1132 46.0621C50.622 46.2376 50.2939 46.7051 50.2939 47.2323V54.427C50.2939 54.8244 50.4808 55.1989 50.8088 55.4331C51.0308 55.5971 51.2887 55.6787 51.5457 55.6787C51.6746 55.6787 51.8027 55.6551 51.9202 55.62L83.9048 45.5594C84.4197 45.3954 84.782 44.9164 84.782 44.3664V35.4523C84.782 35.0427 84.5829 34.6567 84.2434 34.4225L84.2422 34.4226ZM82.2886 43.4533L52.7963 52.7305V48.098L82.2886 37.2304V43.4533Z" fill="white" stroke="#404CDC"/>
<path d="M135.926 89.0404L151.544 90.7246C151.59 90.7246 151.638 90.736 151.673 90.736C151.977 90.736 152.281 90.6193 152.504 90.4202C152.773 90.186 152.913 89.8474 152.913 89.4957V83.9975C152.913 83.401 152.492 82.8861 151.896 82.7694L136.278 79.7746C135.916 79.7044 135.529 79.7983 135.248 80.0439C134.956 80.2781 134.792 80.629 134.792 81.0035V87.8124C134.815 88.444 135.295 88.9703 135.926 89.0405V89.0404ZM137.318 82.5008L150.432 85.0157V88.0922L137.318 86.6772V82.5008Z" fill="white" stroke="#404CDC"/>
<path d="M135.703 73.4466L151.32 78.1378C151.437 78.1729 151.555 78.1843 151.683 78.1843C151.952 78.1843 152.209 78.1027 152.432 77.9387C152.748 77.7045 152.934 77.3308 152.934 76.9326V71.4343C152.934 70.9194 152.619 70.4519 152.139 70.2642L136.511 64.2755C136.125 64.1237 135.691 64.1816 135.353 64.4158C135.013 64.65 134.815 65.036 134.815 65.4456V72.2545C134.814 72.8036 135.176 73.2826 135.703 73.4466L135.703 73.4466ZM137.318 67.2579L150.432 72.3001V75.2598L137.318 71.3177V67.2579Z" fill="white" stroke="#404CDC"/>
<path d="M155.463 52.9063L133.693 38.0141L133.682 38.0027C133.541 37.9088 133.401 37.8509 133.237 37.8272C133.226 37.8272 133.213 37.8272 133.19 37.8158C133.155 37.8044 133.109 37.8044 133.074 37.8044H133.015H132.921C132.898 37.8044 132.875 37.8044 132.851 37.8158C132.827 37.8158 132.792 37.8272 132.769 37.8272C132.746 37.8272 132.723 37.8387 132.688 37.8509C132.664 37.8623 132.641 37.8623 132.606 37.8746C132.583 37.886 132.547 37.8982 132.525 37.8982C132.513 37.8982 132.501 37.9097 132.49 37.9097L119.575 43.5597V40.7519C119.575 40.3423 119.375 39.9563 119.037 39.7221L90.5367 20.2097C90.5253 20.2097 90.5253 20.1983 90.5131 20.1983C90.3727 20.1044 90.2323 20.0465 90.0683 20.0228C90.0569 20.0228 90.0333 20.0228 90.0218 20.0114C89.9867 20.0114 89.9517 20 89.9166 20H89.8464H89.7525C89.7289 20 89.706 20 89.6824 20.0114C89.6587 20.0114 89.6236 20.0228 89.6008 20.0228C89.5771 20.0228 89.542 20.0343 89.5192 20.0465C89.4955 20.0579 89.4727 20.0579 89.449 20.0702C89.4253 20.0816 89.3902 20.0938 89.3674 20.1053C89.356 20.1053 89.3437 20.1167 89.3323 20.1167L44.7491 39.6055C44.2929 39.8046 44 40.2485 44 40.752V96.5531C44 97.2434 44.5614 97.8048 45.2518 97.8048H154.748C155.439 97.8048 156 97.2434 156 96.5531L155.999 53.9356C155.999 53.526 155.801 53.14 155.461 52.9058L155.463 52.9063ZM117.081 44.6352L114.367 45.8282L94.4805 34.364C94.0945 34.142 93.6147 34.142 93.2288 34.364C92.8428 34.586 92.6086 34.9956 92.6086 35.4403V44.3544C92.6086 44.8343 92.8779 45.2667 93.3103 45.4773L103.593 50.5422L98.457 52.7887C98.0008 52.9878 97.7079 53.4317 97.7079 53.9352V55.9589L94.3158 54.6484C93.9298 54.4967 93.4965 54.5546 93.1579 54.7888C92.8184 55.023 92.6201 55.409 92.6201 55.8186V64.7327C92.6201 65.2827 92.9824 65.774 93.5096 65.9257L97.7095 67.1889V75.6468L94.0945 74.9565C93.7322 74.8863 93.3454 74.9801 93.0647 75.2258C92.7726 75.46 92.6085 75.8109 92.6085 76.1854V85.1004C92.6085 85.732 93.0884 86.2706 93.7199 86.3407L97.6972 86.7732V95.3013H91.0761V23.6134L117.082 41.4066L117.081 44.6352ZM106.576 49.2326L95.0997 43.5825V37.6045L111.524 47.0686L106.576 49.2326ZM97.6971 64.581L95.0997 63.7969V57.6205L97.6971 58.6153V64.581ZM97.6971 84.2574L95.0997 83.9767V77.6951L97.6971 78.1978V84.2574ZM46.4939 41.5585L88.5724 23.1451V95.3009L46.4939 95.3017V41.5585ZM100.202 54.7427L131.752 40.9391V95.2904L100.202 95.2896V54.7427ZM153.511 95.3005H134.243V41.4066L153.51 54.5909L153.511 95.3005Z" fill="white" stroke="#404CDC"/>
<path d="M135.517 57.8199L151.122 65.5059C151.298 65.5875 151.485 65.6349 151.672 65.6349C151.906 65.6349 152.128 65.5761 152.327 65.448C152.69 65.226 152.913 64.8164 152.913 64.3831V58.8849C152.913 58.4401 152.678 58.0305 152.292 57.8086L136.675 48.813C136.289 48.591 135.809 48.591 135.423 48.813C135.037 49.0349 134.803 49.4445 134.803 49.8893V56.6981C134.815 57.1771 135.084 57.6096 135.517 57.8201L135.517 57.8199ZM137.319 52.0409L150.433 59.5981V62.3708L137.319 55.9252V52.0409Z" fill="white" stroke="#404CDC"/>
<path d="M128.895 48.8582C128.555 48.624 128.134 48.566 127.748 48.7064L103.322 57.702C102.83 57.8774 102.502 58.345 102.502 58.8722V64.3704C102.502 64.7678 102.689 65.1423 103.017 65.3765C103.239 65.5405 103.497 65.6221 103.754 65.6221C103.883 65.6221 104.011 65.5985 104.129 65.5634L128.555 57.8774C129.07 57.7133 129.433 57.2344 129.433 56.6844V49.887C129.433 49.4782 129.234 49.0914 128.895 48.858L128.895 48.8582ZM126.929 55.7836L104.995 62.6854V59.7608L126.929 51.6775V55.7836Z" fill="white" stroke="#404CDC"/>
<path d="M129.012 80.0566C128.743 79.8224 128.392 79.7057 128.029 79.7523L103.603 82.7585C102.983 82.8401 102.503 83.3665 102.503 83.9989V89.4971C102.503 89.848 102.643 90.1752 102.9 90.4094C103.135 90.6314 103.438 90.7489 103.755 90.7489H103.836L128.263 89.0646C128.918 89.0181 129.421 88.4795 129.421 87.8243V81.0154C129.433 80.6294 129.281 80.2908 129.012 80.0566V80.0566ZM126.929 86.6426L104.995 88.1514V85.0988L126.929 82.4084V86.6426Z" fill="white" stroke="#404CDC"/>
<path d="M128.953 64.4505C128.649 64.2163 128.263 64.1347 127.888 64.2163L103.462 70.2174C102.9 70.3577 102.514 70.8489 102.514 71.434V76.9322C102.514 77.3068 102.678 77.6577 102.97 77.8919C103.192 78.0787 103.473 78.1726 103.766 78.1726C103.848 78.1726 103.918 78.1612 104 78.1489L128.427 73.4577C129.012 73.341 129.444 72.8261 129.444 72.2296V65.4207C129.432 65.0584 129.257 64.6961 128.953 64.4505H128.953ZM126.928 71.2119L104.994 75.4233V72.4171L126.928 67.0354V71.2119Z" fill="white" stroke="#404CDC"/>
</svg>
