<svg width="200" height="180" viewBox="0 0 200 180" fill="none" xmlns="http://www.w3.org/2000/svg">
<path d="M0 0H170C186.569 0 200 13.4315 200 30V180H30C13.4315 180 0 166.569 0 150V0Z" fill="#147F00"/>
<path d="M26.56 147V135.64H22.08V133H34.28V135.64H29.8V147H26.56ZM35.5689 147V136.24H38.5489V139.28L38.1289 138.4C38.4489 137.64 38.9622 137.067 39.6689 136.68C40.3756 136.28 41.2356 136.08 42.2489 136.08V138.96C42.1156 138.947 41.9956 138.94 41.8889 138.94C41.7822 138.927 41.6689 138.92 41.5489 138.92C40.6956 138.92 40.0022 139.167 39.4689 139.66C38.9489 140.14 38.6889 140.893 38.6889 141.92V147H35.5689ZM50.0009 147V144.9L49.8009 144.44V140.68C49.8009 140.013 49.5943 139.493 49.1809 139.12C48.7809 138.747 48.1609 138.56 47.3209 138.56C46.7476 138.56 46.1809 138.653 45.6209 138.84C45.0743 139.013 44.6076 139.253 44.2209 139.56L43.1009 137.38C43.6876 136.967 44.3943 136.647 45.2209 136.42C46.0476 136.193 46.8876 136.08 47.7409 136.08C49.3809 136.08 50.6543 136.467 51.5609 137.24C52.4676 138.013 52.9209 139.22 52.9209 140.86V147H50.0009ZM46.7209 147.16C45.8809 147.16 45.1609 147.02 44.5609 146.74C43.9609 146.447 43.5009 146.053 43.1809 145.56C42.8609 145.067 42.7009 144.513 42.7009 143.9C42.7009 143.26 42.8543 142.7 43.1609 142.22C43.4809 141.74 43.9809 141.367 44.6609 141.1C45.3409 140.82 46.2276 140.68 47.3209 140.68H50.1809V142.5H47.6609C46.9276 142.5 46.4209 142.62 46.1409 142.86C45.8743 143.1 45.7409 143.4 45.7409 143.76C45.7409 144.16 45.8943 144.48 46.2009 144.72C46.5209 144.947 46.9543 145.06 47.5009 145.06C48.0209 145.06 48.4876 144.94 48.9009 144.7C49.3143 144.447 49.6143 144.08 49.8009 143.6L50.2809 145.04C50.0543 145.733 49.6409 146.26 49.0409 146.62C48.4409 146.98 47.6676 147.16 46.7209 147.16ZM62.2847 136.08C63.138 136.08 63.898 136.253 64.5647 136.6C65.2447 136.933 65.778 137.453 66.1647 138.16C66.5514 138.853 66.7447 139.747 66.7447 140.84V147H63.6247V141.32C63.6247 140.453 63.4314 139.813 63.0447 139.4C62.6714 138.987 62.138 138.78 61.4447 138.78C60.9514 138.78 60.5047 138.887 60.1047 139.1C59.718 139.3 59.4114 139.613 59.1847 140.04C58.9714 140.467 58.8647 141.013 58.8647 141.68V147H55.7447V136.24H58.7247V139.22L58.1647 138.32C58.5514 137.6 59.1047 137.047 59.8247 136.66C60.5447 136.273 61.3647 136.08 62.2847 136.08ZM73.1928 147.16C72.2728 147.16 71.3861 147.053 70.5328 146.84C69.6928 146.613 69.0261 146.333 68.5328 146L69.5728 143.76C70.0661 144.067 70.6461 144.32 71.3128 144.52C71.9928 144.707 72.6595 144.8 73.3128 144.8C74.0328 144.8 74.5395 144.713 74.8328 144.54C75.1395 144.367 75.2928 144.127 75.2928 143.82C75.2928 143.567 75.1728 143.38 74.9328 143.26C74.7061 143.127 74.3995 143.027 74.0128 142.96C73.6261 142.893 73.1995 142.827 72.7328 142.76C72.2795 142.693 71.8195 142.607 71.3528 142.5C70.8861 142.38 70.4595 142.207 70.0728 141.98C69.6861 141.753 69.3728 141.447 69.1328 141.06C68.9061 140.673 68.7928 140.173 68.7928 139.56C68.7928 138.88 68.9861 138.28 69.3728 137.76C69.7728 137.24 70.3461 136.833 71.0928 136.54C71.8395 136.233 72.7328 136.08 73.7728 136.08C74.5061 136.08 75.2528 136.16 76.0128 136.32C76.7728 136.48 77.4061 136.713 77.9128 137.02L76.8728 139.24C76.3528 138.933 75.8261 138.727 75.2928 138.62C74.7728 138.5 74.2661 138.44 73.7728 138.44C73.0795 138.44 72.5728 138.533 72.2528 138.72C71.9328 138.907 71.7728 139.147 71.7728 139.44C71.7728 139.707 71.8861 139.907 72.1128 140.04C72.3528 140.173 72.6661 140.28 73.0528 140.36C73.4395 140.44 73.8595 140.513 74.3128 140.58C74.7795 140.633 75.2461 140.72 75.7128 140.84C76.1795 140.96 76.5995 141.133 76.9728 141.36C77.3595 141.573 77.6728 141.873 77.9128 142.26C78.1528 142.633 78.2728 143.127 78.2728 143.74C78.2728 144.407 78.0728 145 77.6728 145.52C77.2728 146.027 76.6928 146.427 75.9328 146.72C75.1861 147.013 74.2728 147.16 73.1928 147.16ZM86.5578 147.16C85.6511 147.16 84.8578 146.96 84.1778 146.56C83.4978 146.16 82.9645 145.553 82.5778 144.74C82.2045 143.913 82.0178 142.873 82.0178 141.62C82.0178 140.353 82.1978 139.313 82.5578 138.5C82.9178 137.687 83.4378 137.08 84.1178 136.68C84.7978 136.28 85.6111 136.08 86.5578 136.08C87.5711 136.08 88.4778 136.313 89.2778 136.78C90.0911 137.233 90.7311 137.873 91.1978 138.7C91.6778 139.527 91.9178 140.5 91.9178 141.62C91.9178 142.753 91.6778 143.733 91.1978 144.56C90.7311 145.387 90.0911 146.027 89.2778 146.48C88.4778 146.933 87.5711 147.16 86.5578 147.16ZM80.1978 150.88V136.24H83.1778V138.44L83.1178 141.64L83.3178 144.82V150.88H80.1978ZM86.0178 144.6C86.5378 144.6 86.9978 144.48 87.3978 144.24C87.8111 144 88.1378 143.66 88.3778 143.22C88.6311 142.767 88.7578 142.233 88.7578 141.62C88.7578 140.993 88.6311 140.46 88.3778 140.02C88.1378 139.58 87.8111 139.24 87.3978 139C86.9978 138.76 86.5378 138.64 86.0178 138.64C85.4978 138.64 85.0311 138.76 84.6178 139C84.2045 139.24 83.8778 139.58 83.6378 140.02C83.3978 140.46 83.2778 140.993 83.2778 141.62C83.2778 142.233 83.3978 142.767 83.6378 143.22C83.8778 143.66 84.2045 144 84.6178 144.24C85.0311 144.48 85.4978 144.6 86.0178 144.6ZM99.1264 147.16C97.9797 147.16 96.9597 146.92 96.0664 146.44C95.1864 145.96 94.4864 145.307 93.9664 144.48C93.4597 143.64 93.2064 142.687 93.2064 141.62C93.2064 140.54 93.4597 139.587 93.9664 138.76C94.4864 137.92 95.1864 137.267 96.0664 136.8C96.9597 136.32 97.9797 136.08 99.1264 136.08C100.26 136.08 101.273 136.32 102.166 136.8C103.06 137.267 103.76 137.913 104.266 138.74C104.773 139.567 105.026 140.527 105.026 141.62C105.026 142.687 104.773 143.64 104.266 144.48C103.76 145.307 103.06 145.96 102.166 146.44C101.273 146.92 100.26 147.16 99.1264 147.16ZM99.1264 144.6C99.6464 144.6 100.113 144.48 100.526 144.24C100.94 144 101.266 143.66 101.506 143.22C101.746 142.767 101.866 142.233 101.866 141.62C101.866 140.993 101.746 140.46 101.506 140.02C101.266 139.58 100.94 139.24 100.526 139C100.113 138.76 99.6464 138.64 99.1264 138.64C98.6064 138.64 98.1397 138.76 97.7264 139C97.3131 139.24 96.9797 139.58 96.7264 140.02C96.4864 140.46 96.3664 140.993 96.3664 141.62C96.3664 142.233 96.4864 142.767 96.7264 143.22C96.9797 143.66 97.3131 144 97.7264 144.24C98.1397 144.48 98.6064 144.6 99.1264 144.6ZM107.112 147V136.24H110.092V139.28L109.672 138.4C109.992 137.64 110.505 137.067 111.212 136.68C111.919 136.28 112.779 136.08 113.792 136.08V138.96C113.659 138.947 113.539 138.94 113.432 138.94C113.325 138.927 113.212 138.92 113.092 138.92C112.239 138.92 111.545 139.167 111.012 139.66C110.492 140.14 110.232 140.893 110.232 141.92V147H107.112ZM120.418 147.16C119.151 147.16 118.165 146.84 117.458 146.2C116.751 145.547 116.398 144.58 116.398 143.3V133.86H119.518V143.26C119.518 143.713 119.638 144.067 119.878 144.32C120.118 144.56 120.445 144.68 120.858 144.68C121.351 144.68 121.771 144.547 122.118 144.28L122.958 146.48C122.638 146.707 122.251 146.88 121.798 147C121.358 147.107 120.898 147.16 120.418 147.16ZM114.738 138.88V136.48H122.198V138.88H114.738ZM131.31 147V144.9L131.11 144.44V140.68C131.11 140.013 130.903 139.493 130.49 139.12C130.09 138.747 129.47 138.56 128.63 138.56C128.056 138.56 127.49 138.653 126.93 138.84C126.383 139.013 125.916 139.253 125.53 139.56L124.41 137.38C124.996 136.967 125.703 136.647 126.53 136.42C127.356 136.193 128.196 136.08 129.05 136.08C130.69 136.08 131.963 136.467 132.87 137.24C133.776 138.013 134.23 139.22 134.23 140.86V147H131.31ZM128.03 147.16C127.19 147.16 126.47 147.02 125.87 146.74C125.27 146.447 124.81 146.053 124.49 145.56C124.17 145.067 124.01 144.513 124.01 143.9C124.01 143.26 124.163 142.7 124.47 142.22C124.79 141.74 125.29 141.367 125.97 141.1C126.65 140.82 127.536 140.68 128.63 140.68H131.49V142.5H128.97C128.236 142.5 127.73 142.62 127.45 142.86C127.183 143.1 127.05 143.4 127.05 143.76C127.05 144.16 127.203 144.48 127.51 144.72C127.83 144.947 128.263 145.06 128.81 145.06C129.33 145.06 129.796 144.94 130.21 144.7C130.623 144.447 130.923 144.08 131.11 143.6L131.59 145.04C131.363 145.733 130.95 146.26 130.35 146.62C129.75 146.98 128.976 147.16 128.03 147.16ZM141.453 147.16C140.187 147.16 139.2 146.84 138.493 146.2C137.787 145.547 137.433 144.58 137.433 143.3V133.86H140.553V143.26C140.553 143.713 140.673 144.067 140.913 144.32C141.153 144.56 141.48 144.68 141.893 144.68C142.387 144.68 142.807 144.547 143.153 144.28L143.993 146.48C143.673 146.707 143.287 146.88 142.833 147C142.393 147.107 141.933 147.16 141.453 147.16ZM135.773 138.88V136.48H143.233V138.88H135.773ZM145.745 147V136.24H148.865V147H145.745ZM147.305 134.74C146.731 134.74 146.265 134.573 145.905 134.24C145.545 133.907 145.365 133.493 145.365 133C145.365 132.507 145.545 132.093 145.905 131.76C146.265 131.427 146.731 131.26 147.305 131.26C147.878 131.26 148.345 131.42 148.705 131.74C149.065 132.047 149.245 132.447 149.245 132.94C149.245 133.46 149.065 133.893 148.705 134.24C148.358 134.573 147.891 134.74 147.305 134.74ZM156.88 147.16C155.734 147.16 154.714 146.92 153.82 146.44C152.94 145.96 152.24 145.307 151.72 144.48C151.214 143.64 150.96 142.687 150.96 141.62C150.96 140.54 151.214 139.587 151.72 138.76C152.24 137.92 152.94 137.267 153.82 136.8C154.714 136.32 155.734 136.08 156.88 136.08C158.014 136.08 159.027 136.32 159.92 136.8C160.814 137.267 161.514 137.913 162.02 138.74C162.527 139.567 162.78 140.527 162.78 141.62C162.78 142.687 162.527 143.64 162.02 144.48C161.514 145.307 160.814 145.96 159.92 146.44C159.027 146.92 158.014 147.16 156.88 147.16ZM156.88 144.6C157.4 144.6 157.867 144.48 158.28 144.24C158.694 144 159.02 143.66 159.26 143.22C159.5 142.767 159.62 142.233 159.62 141.62C159.62 140.993 159.5 140.46 159.26 140.02C159.02 139.58 158.694 139.24 158.28 139C157.867 138.76 157.4 138.64 156.88 138.64C156.36 138.64 155.894 138.76 155.48 139C155.067 139.24 154.734 139.58 154.48 140.02C154.24 140.46 154.12 140.993 154.12 141.62C154.12 142.233 154.24 142.767 154.48 143.22C154.734 143.66 155.067 144 155.48 144.24C155.894 144.48 156.36 144.6 156.88 144.6ZM171.406 136.08C172.259 136.08 173.019 136.253 173.686 136.6C174.366 136.933 174.899 137.453 175.286 138.16C175.672 138.853 175.866 139.747 175.866 140.84V147H172.746V141.32C172.746 140.453 172.552 139.813 172.166 139.4C171.792 138.987 171.259 138.78 170.566 138.78C170.072 138.78 169.626 138.887 169.226 139.1C168.839 139.3 168.532 139.613 168.306 140.04C168.092 140.467 167.986 141.013 167.986 141.68V147H164.866V136.24H167.846V139.22L167.286 138.32C167.672 137.6 168.226 137.047 168.946 136.66C169.666 136.273 170.486 136.08 171.406 136.08Z" fill="white"/>
<path d="M137.986 112.322C137.986 113.325 137.191 114.138 136.212 114.138C135.233 114.138 134.439 113.325 134.439 112.322C134.439 111.321 135.233 110.508 136.212 110.508C137.191 110.508 137.986 111.321 137.986 112.322Z" fill="white"/>
<path d="M137.986 112.322C137.986 113.325 137.191 114.138 136.212 114.138C135.233 114.138 134.439 113.325 134.439 112.322C134.439 111.321 135.233 110.508 136.212 110.508C137.191 110.508 137.986 111.321 137.986 112.322" stroke="#0F52BA" stroke-width="0.6"/>
<path d="M123.537 112.322C123.537 113.325 122.743 114.138 121.764 114.138C120.785 114.138 119.99 113.325 119.99 112.322C119.99 111.321 120.785 110.508 121.764 110.508C122.743 110.508 123.537 111.321 123.537 112.322Z" fill="white" stroke="#0F52BA" stroke-width="0.6"/>
<path d="M65.6511 105.982C62.2353 105.982 59.4561 108.827 59.4561 112.323C59.4561 115.819 62.2353 118.663 65.6511 118.663C69.0669 118.663 71.8462 115.819 71.8462 112.323C71.8462 108.827 69.0675 105.982 65.6511 105.982ZM65.6511 116.848C63.2129 116.848 61.2291 114.818 61.2291 112.323C61.2291 109.827 63.2129 107.797 65.6511 107.797C68.0893 107.797 70.0732 109.827 70.0732 112.323C70.0732 114.818 68.0893 116.848 65.6511 116.848Z" fill="white" stroke="#0F52BA" stroke-width="0.6"/>
<path d="M67.4246 112.322C67.4246 113.325 66.6303 114.138 65.6509 114.138C64.6715 114.138 63.8779 113.325 63.8779 112.322C63.8779 111.321 64.6716 110.508 65.6509 110.508C66.6304 110.508 67.4246 111.321 67.4246 112.322Z" fill="white" stroke="#0F52BA" stroke-width="0.6"/>
<path d="M154.834 105.984H152.691V46.9079C152.691 46.4071 152.294 46.0006 151.805 46.0006L80.6707 46C80.1813 46 79.7841 46.4064 79.7841 46.9073V53.4052C72.6675 54.9671 67.94 61.0286 67.94 68.7171C67.94 69.218 68.3372 69.6244 68.8266 69.6244H79.7834V73.5038H64.291C61.2942 73.5038 57.8098 76.0593 57.8098 79.3534C57.8098 79.8542 58.2069 80.2607 58.6963 80.2607H62.6203V91.1688L48.1858 92.7549C45.7993 93.0165 44 95.0665 44 97.5225V108.435C44 111.079 46.1023 113.231 48.6857 113.231H56.4107C56.9001 113.231 57.2972 112.824 57.2972 112.323C57.2972 107.609 61.0447 103.773 65.6514 103.773C69.9213 103.773 73.4512 107.07 73.9444 111.306C73.9774 111.637 73.9924 111.9 73.9999 112.079C74.0023 112.16 74.0061 112.241 74.0061 112.323V112.325C74.0067 112.825 74.4032 113.231 74.8926 113.231H115.632C116.064 116.298 118.648 118.664 121.763 118.664C124.878 118.664 127.463 116.299 127.894 113.231H130.083C130.514 116.298 133.099 118.664 136.214 118.664C139.329 118.664 141.913 116.299 142.345 113.231L154.833 113.231C155.323 113.231 155.72 112.825 155.72 112.324V106.891C155.72 106.389 155.323 105.983 154.833 105.983L154.834 105.984ZM87.3788 105.984C88.0914 104.323 88.4561 102.546 88.4561 100.679V82.2587H150.917V105.982L87.3788 105.984ZM140.548 107.798H145.107V111.416H142.345C142.147 110.009 141.496 108.749 140.548 107.798H140.548ZM126.097 107.798H131.881C130.933 108.749 130.282 110.008 130.084 111.416H127.895C127.697 110.009 127.046 108.749 126.097 107.798H126.097ZM86.4319 107.798H117.431C116.483 108.749 115.832 110.008 115.634 111.416L83.3305 111.416C84.593 110.306 85.6291 109.095 86.4316 107.798L86.4319 107.798ZM150.918 80.445H88.4572V78.3892H150.918V80.445ZM150.918 76.574H88.4572V47.8161H150.918V76.574ZM69.7377 67.8104C70.0911 61.1224 74.3611 56.1602 80.8175 55.052C81.2445 54.9786 81.5575 54.6002 81.5575 54.1568L81.5581 47.8159H86.6833V100.68C86.6833 104.529 84.9601 107.847 81.5581 110.562V68.717C81.5581 68.2161 81.161 67.8097 80.6716 67.8097L69.7377 67.8104ZM64.2926 75.319H79.785V78.4462H59.728C60.3246 76.5882 62.6512 75.319 64.2923 75.319H64.2926ZM75.8679 80.2614V91.2722H68.0968C68.2196 86.5858 69.3194 83.0593 71.5164 80.2614H75.8679ZM63.6023 92.8865C64.0524 92.8368 64.3941 92.4475 64.3941 91.9843V80.2613H69.3174C67.2756 83.3795 66.3118 87.2193 66.3118 92.1795C66.3118 92.6804 66.709 93.0868 67.1984 93.0868H76.7544C77.2438 93.0868 77.641 92.6804 77.641 92.1795V80.2613H79.7844V111.417H75.7414C75.7221 111.188 75.6922 110.961 75.6585 110.737C75.4852 109.377 75.0656 107.318 74.0475 105.244C72.4409 101.971 69.0106 98.0702 61.7894 98.0702C54.6279 98.0702 51.1959 101.907 49.5724 105.163V94.4289L63.6023 92.8865ZM45.7733 108.436V97.5238C45.7733 96.2024 46.6118 95.0717 47.7988 94.6857V111.275C46.6261 110.889 45.7733 109.763 45.7733 108.436V108.436ZM65.6516 101.959C60.3654 101.959 56.0125 106.124 55.5624 111.416L49.6297 111.417C49.7438 110.259 50.0867 108.156 51.116 106.058C53.1267 101.962 56.7177 99.8852 61.7893 99.8852C66.0031 99.8852 68.7624 101.347 70.5705 103.268C69.1136 102.435 67.4358 101.959 65.6516 101.959L65.6516 101.959ZM121.764 116.85C119.326 116.85 117.342 114.819 117.342 112.324C117.342 109.829 119.326 107.798 121.764 107.798C124.202 107.798 126.186 109.829 126.186 112.324C126.185 114.819 124.202 116.85 121.764 116.85ZM136.214 116.85C133.776 116.85 131.792 114.819 131.792 112.324C131.792 109.829 133.776 107.798 136.214 107.798C138.652 107.798 140.636 109.829 140.636 112.324C140.636 114.819 138.652 116.85 136.214 116.85ZM153.947 111.417H146.88V107.799H153.947V111.417Z" fill="white" stroke="#0F52BA" stroke-width="0.6"/>
<path d="M73.0789 98.6252H76.4181C76.9075 98.6252 77.3046 98.2187 77.3046 97.7179C77.3046 97.217 76.9075 96.8105 76.4181 96.8105H73.0789C72.5895 96.8105 72.1924 97.217 72.1924 97.7179C72.1924 98.2187 72.5889 98.6252 73.0789 98.6252Z" fill="white" stroke="#0F52BA" stroke-width="0.6"/>
<path d="M128.112 69.4623L127.393 72.3527C127.304 72.7112 127.437 73.0902 127.728 73.3091C127.884 73.4252 128.068 73.4839 128.252 73.4839C128.414 73.4839 128.577 73.4386 128.721 73.3467L131.778 71.3994L134.834 73.3467C135.142 73.5433 135.534 73.528 135.826 73.3085C136.119 73.0896 136.251 72.7112 136.162 72.352L135.442 69.4617L137.7 66.868C137.932 66.6013 137.99 66.2191 137.847 65.893C137.704 65.567 137.387 65.3571 137.038 65.3571H134.185L132.548 62.4119C132.39 62.1286 132.096 61.9531 131.778 61.9531C131.459 61.9531 131.165 62.1279 131.007 62.4119L129.37 65.3571H126.518C126.169 65.3571 125.852 65.567 125.708 65.893C125.566 66.2191 125.623 66.6013 125.856 66.868L128.112 69.4623ZM129.885 67.1729C130.203 67.1729 130.498 66.9981 130.655 66.7142L131.777 64.6966L132.899 66.7142C133.056 66.9975 133.35 67.1729 133.669 67.1729H135.059L133.804 68.6156C133.608 68.8408 133.534 69.1509 133.607 69.4431L133.898 70.6133L132.245 69.5605C131.958 69.3774 131.595 69.3774 131.308 69.5605L129.655 70.6133L129.947 69.4431C130.02 69.1509 129.945 68.8408 129.75 68.6156L128.494 67.1729H129.885Z" fill="white" stroke="#0F52BA" stroke-width="0.6"/>
<path d="M115.882 92.5712L113.112 91.8744L112.209 88.6146C112.122 88.3007 111.877 88.0589 111.568 87.981C111.258 87.9038 110.932 88.0015 110.712 88.2382L108.435 90.6984L105.665 90.0017C105.326 89.9175 104.97 90.0431 104.755 90.3245C104.54 90.6066 104.507 90.9913 104.67 91.3071L106.257 94.3768L104.884 97.0074C104.713 97.3341 104.755 97.7341 104.987 98.0181C105.22 98.302 105.598 98.4118 105.942 98.2975L109.364 97.1535L111.877 99.7912C112.048 99.9698 112.278 100.065 112.512 100.065C112.625 100.065 112.74 100.043 112.849 99.9966C113.184 99.8556 113.401 99.5206 113.399 99.1499L113.374 96.1676L116.172 94.2005C116.46 93.9976 116.604 93.6416 116.542 93.2894C116.48 92.9372 116.221 92.6564 115.882 92.5709L115.882 92.5712ZM111.983 94.9447C111.74 95.1157 111.595 95.3983 111.598 95.7001L111.608 96.908L110.248 95.4813C110.079 95.3033 109.849 95.2076 109.614 95.2076C109.521 95.2076 109.428 95.2222 109.338 95.2522L107.487 95.8711L108.043 94.8062C108.182 94.5402 108.183 94.2211 108.044 93.9544L107.162 92.247L108.512 92.5871C108.822 92.6643 109.148 92.5667 109.367 92.33L110.927 90.645L111.546 92.8782C111.633 93.1921 111.877 93.4339 112.187 93.5117L113.537 93.8512L111.983 94.9447Z" fill="white" stroke="#0F52BA" stroke-width="0.6"/>
<path d="M94.1848 68.3351L97.9391 70.4127L98.2988 74.1605C98.3344 74.5293 98.585 74.8388 98.9329 74.9428C99.0152 74.967 99.0987 74.9792 99.1816 74.9792C99.4491 74.9792 99.7078 74.8554 99.8786 74.6327L102.685 70.9812L107.125 71.9472C107.48 72.0251 107.844 71.8732 108.046 71.5657C108.248 71.2581 108.246 70.8555 108.043 70.5493L105.975 67.4343L107.559 63.3789C107.689 63.0465 107.616 62.6681 107.374 62.411C107.13 62.1545 106.763 62.0671 106.435 62.1889L103.036 63.4478L99.8586 60.6743C99.6161 60.4624 99.2813 60.3999 98.9815 60.5116C98.6816 60.6226 98.4634 60.8899 98.4091 61.2115L97.7028 65.4239L94.3044 66.6828C93.9759 66.8047 93.7483 67.1122 93.7221 67.4689C93.6966 67.8268 93.8774 68.1656 94.1847 68.3353L94.1848 68.3351ZM98.7914 66.9512C99.0912 66.8402 99.3094 66.5728 99.3637 66.2512L99.8936 63.0903L102.278 65.1716C102.52 65.3834 102.855 65.4459 103.155 65.3343L105.179 64.5846L104.153 67.2088C104.043 67.4889 104.077 67.8067 104.243 68.0555L105.336 69.703L102.513 69.0892C102.183 69.0164 101.841 69.1434 101.632 69.4152L99.8475 71.7364L99.6573 69.7546C99.6286 69.4547 99.456 69.1887 99.1966 69.0451L96.767 67.7007L98.7914 66.9512Z" fill="white" stroke="#0F52BA" stroke-width="0.6"/>
<path d="M142.425 94.1977L140.357 91.0828L141.941 87.0273C142.071 86.6949 141.998 86.3165 141.755 86.0594C141.512 85.8023 141.145 85.7155 140.817 85.8374L137.418 87.0962L134.241 84.3227C133.998 84.1109 133.663 84.0483 133.363 84.16C133.064 84.271 132.845 84.5384 132.791 84.86L132.085 89.0724L128.686 90.3312C128.358 90.4531 128.13 90.7606 128.104 91.1173C128.078 91.474 128.259 91.8128 128.567 91.9825L132.321 94.06L132.681 97.8079C132.716 98.1767 132.967 98.4862 133.315 98.5902C133.397 98.6144 133.481 98.6265 133.563 98.6265C133.831 98.6265 134.09 98.5028 134.26 98.2801L137.067 94.6286L141.507 95.5946C141.861 95.6718 142.225 95.5206 142.427 95.213C142.629 94.9061 142.628 94.5042 142.425 94.1979L142.425 94.1977ZM136.896 92.7366C136.564 92.6638 136.224 92.7914 136.014 93.0626L134.23 95.3838L134.04 93.402C134.011 93.1021 133.838 92.8361 133.579 92.6925L131.149 91.3481L133.173 90.5984C133.473 90.4874 133.691 90.2201 133.745 89.8985L134.275 86.7375L136.659 88.8188C136.902 89.0306 137.237 89.0931 137.537 88.9815L139.56 88.2318L138.535 90.856C138.425 91.1361 138.459 91.4539 138.625 91.7027L139.718 93.3502L136.896 92.7366Z" fill="white" stroke="#0F52BA" stroke-width="0.6"/>
</svg>
