<svg width="200" height="180" viewBox="0 0 200 180" fill="none" xmlns="http://www.w3.org/2000/svg">
<path d="M0 0H170C186.569 0 200 13.4315 200 30V180H30C13.4315 180 0 166.569 0 150V0Z" fill="#147F00"/>
<path d="M26.56 141V129.64H22.08V127H34.28V129.64H29.8V141H26.56ZM35.5689 141V130.24H38.5489V133.28L38.1289 132.4C38.4489 131.64 38.9622 131.067 39.6689 130.68C40.3756 130.28 41.2356 130.08 42.2489 130.08V132.96C42.1156 132.947 41.9956 132.94 41.8889 132.94C41.7822 132.927 41.6689 132.92 41.5489 132.92C40.6956 132.92 40.0022 133.167 39.4689 133.66C38.9489 134.14 38.6889 134.893 38.6889 135.92V141H35.5689ZM50.0009 141V138.9L49.8009 138.44V134.68C49.8009 134.013 49.5943 133.493 49.1809 133.12C48.7809 132.747 48.1609 132.56 47.3209 132.56C46.7476 132.56 46.1809 132.653 45.6209 132.84C45.0743 133.013 44.6076 133.253 44.2209 133.56L43.1009 131.38C43.6876 130.967 44.3943 130.647 45.2209 130.42C46.0476 130.193 46.8876 130.08 47.7409 130.08C49.3809 130.08 50.6543 130.467 51.5609 131.24C52.4676 132.013 52.9209 133.22 52.9209 134.86V141H50.0009ZM46.7209 141.16C45.8809 141.16 45.1609 141.02 44.5609 140.74C43.9609 140.447 43.5009 140.053 43.1809 139.56C42.8609 139.067 42.7009 138.513 42.7009 137.9C42.7009 137.26 42.8543 136.7 43.1609 136.22C43.4809 135.74 43.9809 135.367 44.6609 135.1C45.3409 134.82 46.2276 134.68 47.3209 134.68H50.1809V136.5H47.6609C46.9276 136.5 46.4209 136.62 46.1409 136.86C45.8743 137.1 45.7409 137.4 45.7409 137.76C45.7409 138.16 45.8943 138.48 46.2009 138.72C46.5209 138.947 46.9543 139.06 47.5009 139.06C48.0209 139.06 48.4876 138.94 48.9009 138.7C49.3143 138.447 49.6143 138.08 49.8009 137.6L50.2809 139.04C50.0543 139.733 49.6409 140.26 49.0409 140.62C48.4409 140.98 47.6676 141.16 46.7209 141.16ZM62.2847 130.08C63.138 130.08 63.898 130.253 64.5647 130.6C65.2447 130.933 65.778 131.453 66.1647 132.16C66.5514 132.853 66.7447 133.747 66.7447 134.84V141H63.6247V135.32C63.6247 134.453 63.4314 133.813 63.0447 133.4C62.6714 132.987 62.138 132.78 61.4447 132.78C60.9514 132.78 60.5047 132.887 60.1047 133.1C59.718 133.3 59.4114 133.613 59.1847 134.04C58.9714 134.467 58.8647 135.013 58.8647 135.68V141H55.7447V130.24H58.7247V133.22L58.1647 132.32C58.5514 131.6 59.1047 131.047 59.8247 130.66C60.5447 130.273 61.3647 130.08 62.2847 130.08ZM73.1928 141.16C72.2728 141.16 71.3861 141.053 70.5328 140.84C69.6928 140.613 69.0261 140.333 68.5328 140L69.5728 137.76C70.0661 138.067 70.6461 138.32 71.3128 138.52C71.9928 138.707 72.6595 138.8 73.3128 138.8C74.0328 138.8 74.5395 138.713 74.8328 138.54C75.1395 138.367 75.2928 138.127 75.2928 137.82C75.2928 137.567 75.1728 137.38 74.9328 137.26C74.7061 137.127 74.3995 137.027 74.0128 136.96C73.6261 136.893 73.1995 136.827 72.7328 136.76C72.2795 136.693 71.8195 136.607 71.3528 136.5C70.8861 136.38 70.4595 136.207 70.0728 135.98C69.6861 135.753 69.3728 135.447 69.1328 135.06C68.9061 134.673 68.7928 134.173 68.7928 133.56C68.7928 132.88 68.9861 132.28 69.3728 131.76C69.7728 131.24 70.3461 130.833 71.0928 130.54C71.8395 130.233 72.7328 130.08 73.7728 130.08C74.5061 130.08 75.2528 130.16 76.0128 130.32C76.7728 130.48 77.4061 130.713 77.9128 131.02L76.8728 133.24C76.3528 132.933 75.8261 132.727 75.2928 132.62C74.7728 132.5 74.2661 132.44 73.7728 132.44C73.0795 132.44 72.5728 132.533 72.2528 132.72C71.9328 132.907 71.7728 133.147 71.7728 133.44C71.7728 133.707 71.8861 133.907 72.1128 134.04C72.3528 134.173 72.6661 134.28 73.0528 134.36C73.4395 134.44 73.8595 134.513 74.3128 134.58C74.7795 134.633 75.2461 134.72 75.7128 134.84C76.1795 134.96 76.5995 135.133 76.9728 135.36C77.3595 135.573 77.6728 135.873 77.9128 136.26C78.1528 136.633 78.2728 137.127 78.2728 137.74C78.2728 138.407 78.0728 139 77.6728 139.52C77.2728 140.027 76.6928 140.427 75.9328 140.72C75.1861 141.013 74.2728 141.16 73.1928 141.16ZM86.5578 141.16C85.6511 141.16 84.8578 140.96 84.1778 140.56C83.4978 140.16 82.9645 139.553 82.5778 138.74C82.2045 137.913 82.0178 136.873 82.0178 135.62C82.0178 134.353 82.1978 133.313 82.5578 132.5C82.9178 131.687 83.4378 131.08 84.1178 130.68C84.7978 130.28 85.6111 130.08 86.5578 130.08C87.5711 130.08 88.4778 130.313 89.2778 130.78C90.0911 131.233 90.7311 131.873 91.1978 132.7C91.6778 133.527 91.9178 134.5 91.9178 135.62C91.9178 136.753 91.6778 137.733 91.1978 138.56C90.7311 139.387 90.0911 140.027 89.2778 140.48C88.4778 140.933 87.5711 141.16 86.5578 141.16ZM80.1978 144.88V130.24H83.1778V132.44L83.1178 135.64L83.3178 138.82V144.88H80.1978ZM86.0178 138.6C86.5378 138.6 86.9978 138.48 87.3978 138.24C87.8111 138 88.1378 137.66 88.3778 137.22C88.6311 136.767 88.7578 136.233 88.7578 135.62C88.7578 134.993 88.6311 134.46 88.3778 134.02C88.1378 133.58 87.8111 133.24 87.3978 133C86.9978 132.76 86.5378 132.64 86.0178 132.64C85.4978 132.64 85.0311 132.76 84.6178 133C84.2045 133.24 83.8778 133.58 83.6378 134.02C83.3978 134.46 83.2778 134.993 83.2778 135.62C83.2778 136.233 83.3978 136.767 83.6378 137.22C83.8778 137.66 84.2045 138 84.6178 138.24C85.0311 138.48 85.4978 138.6 86.0178 138.6ZM99.1264 141.16C97.9797 141.16 96.9597 140.92 96.0664 140.44C95.1864 139.96 94.4864 139.307 93.9664 138.48C93.4597 137.64 93.2064 136.687 93.2064 135.62C93.2064 134.54 93.4597 133.587 93.9664 132.76C94.4864 131.92 95.1864 131.267 96.0664 130.8C96.9597 130.32 97.9797 130.08 99.1264 130.08C100.26 130.08 101.273 130.32 102.166 130.8C103.06 131.267 103.76 131.913 104.266 132.74C104.773 133.567 105.026 134.527 105.026 135.62C105.026 136.687 104.773 137.64 104.266 138.48C103.76 139.307 103.06 139.96 102.166 140.44C101.273 140.92 100.26 141.16 99.1264 141.16ZM99.1264 138.6C99.6464 138.6 100.113 138.48 100.526 138.24C100.94 138 101.266 137.66 101.506 137.22C101.746 136.767 101.866 136.233 101.866 135.62C101.866 134.993 101.746 134.46 101.506 134.02C101.266 133.58 100.94 133.24 100.526 133C100.113 132.76 99.6464 132.64 99.1264 132.64C98.6064 132.64 98.1397 132.76 97.7264 133C97.3131 133.24 96.9797 133.58 96.7264 134.02C96.4864 134.46 96.3664 134.993 96.3664 135.62C96.3664 136.233 96.4864 136.767 96.7264 137.22C96.9797 137.66 97.3131 138 97.7264 138.24C98.1397 138.48 98.6064 138.6 99.1264 138.6ZM107.112 141V130.24H110.092V133.28L109.672 132.4C109.992 131.64 110.505 131.067 111.212 130.68C111.919 130.28 112.779 130.08 113.792 130.08V132.96C113.659 132.947 113.539 132.94 113.432 132.94C113.325 132.927 113.212 132.92 113.092 132.92C112.239 132.92 111.545 133.167 111.012 133.66C110.492 134.14 110.232 134.893 110.232 135.92V141H107.112ZM120.418 141.16C119.151 141.16 118.165 140.84 117.458 140.2C116.751 139.547 116.398 138.58 116.398 137.3V127.86H119.518V137.26C119.518 137.713 119.638 138.067 119.878 138.32C120.118 138.56 120.445 138.68 120.858 138.68C121.351 138.68 121.771 138.547 122.118 138.28L122.958 140.48C122.638 140.707 122.251 140.88 121.798 141C121.358 141.107 120.898 141.16 120.418 141.16ZM114.738 132.88V130.48H122.198V132.88H114.738ZM131.31 141V138.9L131.11 138.44V134.68C131.11 134.013 130.903 133.493 130.49 133.12C130.09 132.747 129.47 132.56 128.63 132.56C128.056 132.56 127.49 132.653 126.93 132.84C126.383 133.013 125.916 133.253 125.53 133.56L124.41 131.38C124.996 130.967 125.703 130.647 126.53 130.42C127.356 130.193 128.196 130.08 129.05 130.08C130.69 130.08 131.963 130.467 132.87 131.24C133.776 132.013 134.23 133.22 134.23 134.86V141H131.31ZM128.03 141.16C127.19 141.16 126.47 141.02 125.87 140.74C125.27 140.447 124.81 140.053 124.49 139.56C124.17 139.067 124.01 138.513 124.01 137.9C124.01 137.26 124.163 136.7 124.47 136.22C124.79 135.74 125.29 135.367 125.97 135.1C126.65 134.82 127.536 134.68 128.63 134.68H131.49V136.5H128.97C128.236 136.5 127.73 136.62 127.45 136.86C127.183 137.1 127.05 137.4 127.05 137.76C127.05 138.16 127.203 138.48 127.51 138.72C127.83 138.947 128.263 139.06 128.81 139.06C129.33 139.06 129.796 138.94 130.21 138.7C130.623 138.447 130.923 138.08 131.11 137.6L131.59 139.04C131.363 139.733 130.95 140.26 130.35 140.62C129.75 140.98 128.976 141.16 128.03 141.16ZM141.453 141.16C140.187 141.16 139.2 140.84 138.493 140.2C137.787 139.547 137.433 138.58 137.433 137.3V127.86H140.553V137.26C140.553 137.713 140.673 138.067 140.913 138.32C141.153 138.56 141.48 138.68 141.893 138.68C142.387 138.68 142.807 138.547 143.153 138.28L143.993 140.48C143.673 140.707 143.287 140.88 142.833 141C142.393 141.107 141.933 141.16 141.453 141.16ZM135.773 132.88V130.48H143.233V132.88H135.773ZM145.745 141V130.24H148.865V141H145.745ZM147.305 128.74C146.731 128.74 146.265 128.573 145.905 128.24C145.545 127.907 145.365 127.493 145.365 127C145.365 126.507 145.545 126.093 145.905 125.76C146.265 125.427 146.731 125.26 147.305 125.26C147.878 125.26 148.345 125.42 148.705 125.74C149.065 126.047 149.245 126.447 149.245 126.94C149.245 127.46 149.065 127.893 148.705 128.24C148.358 128.573 147.891 128.74 147.305 128.74ZM156.88 141.16C155.734 141.16 154.714 140.92 153.82 140.44C152.94 139.96 152.24 139.307 151.72 138.48C151.214 137.64 150.96 136.687 150.96 135.62C150.96 134.54 151.214 133.587 151.72 132.76C152.24 131.92 152.94 131.267 153.82 130.8C154.714 130.32 155.734 130.08 156.88 130.08C158.014 130.08 159.027 130.32 159.92 130.8C160.814 131.267 161.514 131.913 162.02 132.74C162.527 133.567 162.78 134.527 162.78 135.62C162.78 136.687 162.527 137.64 162.02 138.48C161.514 139.307 160.814 139.96 159.92 140.44C159.027 140.92 158.014 141.16 156.88 141.16ZM156.88 138.6C157.4 138.6 157.867 138.48 158.28 138.24C158.694 138 159.02 137.66 159.26 137.22C159.5 136.767 159.62 136.233 159.62 135.62C159.62 134.993 159.5 134.46 159.26 134.02C159.02 133.58 158.694 133.24 158.28 133C157.867 132.76 157.4 132.64 156.88 132.64C156.36 132.64 155.894 132.76 155.48 133C155.067 133.24 154.734 133.58 154.48 134.02C154.24 134.46 154.12 134.993 154.12 135.62C154.12 136.233 154.24 136.767 154.48 137.22C154.734 137.66 155.067 138 155.48 138.24C155.894 138.48 156.36 138.6 156.88 138.6ZM171.406 130.08C172.259 130.08 173.019 130.253 173.686 130.6C174.366 130.933 174.899 131.453 175.286 132.16C175.672 132.853 175.866 133.747 175.866 134.84V141H172.746V135.32C172.746 134.453 172.552 133.813 172.166 133.4C171.792 132.987 171.259 132.78 170.566 132.78C170.072 132.78 169.626 132.887 169.226 133.1C168.839 133.3 168.532 133.613 168.306 134.04C168.092 134.467 167.986 135.013 167.986 135.68V141H164.866V130.24H167.846V133.22L167.286 132.32C167.672 131.6 168.226 131.047 168.946 130.66C169.666 130.273 170.486 130.08 171.406 130.08Z" fill="white"/>
<path d="M137.986 99.8023C137.986 100.782 137.191 101.576 136.212 101.576C135.233 101.576 134.439 100.782 134.439 99.8023C134.439 98.8235 135.233 98.0293 136.212 98.0293C137.191 98.0293 137.986 98.8236 137.986 99.8023Z" fill="white"/>
<path d="M137.986 99.8023C137.986 100.782 137.191 101.576 136.212 101.576C135.233 101.576 134.439 100.782 134.439 99.8023C134.439 98.8235 135.233 98.0293 136.212 98.0293C137.191 98.0293 137.986 98.8236 137.986 99.8023" stroke="#404CDC" stroke-width="0.6"/>
<path d="M123.537 99.8023C123.537 100.782 122.743 101.576 121.764 101.576C120.785 101.576 119.99 100.782 119.99 99.8023C119.99 98.8235 120.785 98.0293 121.764 98.0293C122.743 98.0293 123.537 98.8236 123.537 99.8023Z" fill="white" stroke="#404CDC" stroke-width="0.6"/>
<path d="M65.6516 93.6094C62.2358 93.6094 59.4565 96.3887 59.4565 99.8044C59.4565 103.22 62.2358 105.999 65.6516 105.999C69.0674 105.999 71.8467 103.22 71.8467 99.8044C71.8467 96.3887 69.068 93.6094 65.6516 93.6094ZM65.6516 104.226C63.2134 104.226 61.2295 102.243 61.2295 99.8044C61.2295 97.3662 63.2134 95.3824 65.6516 95.3824C68.0898 95.3824 70.0737 97.3662 70.0737 99.8044C70.0737 102.243 68.0898 104.226 65.6516 104.226Z" fill="white" stroke="#404CDC" stroke-width="0.6"/>
<path d="M67.4246 99.8023C67.4246 100.782 66.6303 101.576 65.6509 101.576C64.6715 101.576 63.8779 100.782 63.8779 99.8023C63.8779 98.8235 64.6716 98.0293 65.6509 98.0293C66.6304 98.0293 67.4246 98.8236 67.4246 99.8023Z" fill="white" stroke="#404CDC" stroke-width="0.6"/>
<path d="M154.834 93.6099H152.691V35.8872C152.691 35.3978 152.294 35.0006 151.805 35.0006L80.6707 35C80.1813 35 79.7841 35.3971 79.7841 35.8865V42.2356C72.6675 43.7618 67.94 49.6845 67.94 57.1969C67.94 57.6863 68.3372 58.0834 68.8266 58.0834H79.7834V61.8739H64.291C61.2942 61.8739 57.8098 64.3709 57.8098 67.5895C57.8098 68.0789 58.2069 68.4761 58.6963 68.4761H62.6203V79.1344L48.1858 80.6842C45.7993 80.9398 44 82.9429 44 85.3426V96.0054C44 98.589 46.1023 100.691 48.6857 100.691H56.4107C56.9001 100.691 57.2972 100.294 57.2972 99.8046C57.2972 95.198 61.0447 91.4504 65.6514 91.4504C69.9213 91.4504 73.4512 94.6712 73.9444 98.8101C73.9774 99.1337 73.9924 99.3911 73.9999 99.5657C74.0023 99.6449 74.0061 99.7241 74.0061 99.8039V99.8057C74.0067 100.295 74.4032 100.691 74.8926 100.691H115.632C116.064 103.688 118.648 106 121.763 106C124.878 106 127.463 103.689 127.894 100.691H130.083C130.514 103.688 133.099 106 136.214 106C139.329 106 141.913 103.689 142.345 100.691L154.833 100.692C155.323 100.692 155.72 100.295 155.72 99.8051V94.4965C155.72 94.0065 155.323 93.6093 154.833 93.6093L154.834 93.6099ZM87.3788 93.6099C88.0914 91.9871 88.4561 90.2514 88.4561 88.4265V70.4284H150.917V93.6088L87.3788 93.6099ZM140.548 95.3829H145.107V98.9177H142.345C142.147 97.543 141.496 96.3124 140.548 95.3829H140.548ZM126.097 95.3829H131.881C130.933 96.3118 130.282 97.5424 130.084 98.9177H127.895C127.697 97.543 127.046 96.3124 126.097 95.3829H126.097ZM86.4319 95.3829H117.431C116.483 96.3118 115.832 97.5424 115.634 98.9177L83.3305 98.9183C84.593 97.8329 85.6291 96.6496 86.4316 95.3829L86.4319 95.3829ZM150.918 68.6562H88.4572V66.6474H150.918V68.6562ZM150.918 64.8738H88.4572V36.7745H150.918V64.8738ZM69.7377 56.3109C70.0911 49.7761 74.3611 44.9276 80.8175 43.8447C81.2445 43.773 81.5575 43.4033 81.5575 42.97L81.5581 36.7743H86.6833V88.4274C86.6833 92.1886 84.9601 95.4305 81.5581 98.0832V57.1968C81.5581 56.7074 81.161 56.3102 80.6716 56.3102L69.7377 56.3109ZM64.2926 63.6476H79.785V66.7031H59.728C60.3246 64.8877 62.6512 63.6476 64.2923 63.6476H64.2926ZM75.8679 68.4768V79.2355H68.0968C68.2196 74.6564 69.3194 71.2106 71.5164 68.4768H75.8679ZM63.6023 80.8128C64.0524 80.7642 64.3941 80.3839 64.3941 79.9313V68.4767H69.3174C67.2756 71.5235 66.3118 75.2754 66.3118 80.122C66.3118 80.6114 66.709 81.0085 67.1984 81.0085H76.7544C77.2438 81.0085 77.641 80.6114 77.641 80.122V68.4767H79.7844V98.9189H75.7414C75.7221 98.6951 75.6922 98.4738 75.6585 98.2543C75.4852 96.9258 75.0656 94.9139 74.0475 92.8871C72.4409 89.6895 69.0106 85.8778 61.7894 85.8778C54.6279 85.8778 51.1959 89.6271 49.5724 92.808V82.3198L63.6023 80.8128ZM45.7733 96.0066V85.3439C45.7733 84.0527 46.6118 82.9479 47.7988 82.5708V98.7798C46.6261 98.4033 45.7733 97.3029 45.7733 96.0061V96.0066ZM65.6516 89.6775C60.3654 89.6775 56.0125 93.7473 55.5624 98.918L49.6297 98.9187C49.7438 97.7878 50.0867 95.7322 51.116 93.683C53.1267 89.6805 56.7177 87.6512 61.7893 87.6512C66.0031 87.6512 68.7624 89.0795 70.5705 90.9567C69.1136 90.1431 67.4358 89.6774 65.6516 89.6774L65.6516 89.6775ZM121.764 104.227C119.326 104.227 117.342 102.243 117.342 99.8053C117.342 97.367 119.326 95.3832 121.764 95.3832C124.202 95.3832 126.186 97.367 126.186 99.8053C126.185 102.243 124.202 104.227 121.764 104.227ZM136.214 104.227C133.776 104.227 131.792 102.243 131.792 99.8053C131.792 97.3677 133.776 95.3832 136.214 95.3832C138.652 95.3832 140.636 97.367 140.636 99.8053C140.636 102.243 138.652 104.227 136.214 104.227ZM153.947 98.9187H146.88V95.3838H153.947V98.9187Z" fill="white" stroke="#404CDC" stroke-width="0.6"/>
<path d="M73.0784 86.4215H76.4176C76.907 86.4215 77.3041 86.0244 77.3041 85.535C77.3041 85.0456 76.907 84.6484 76.4176 84.6484H73.0784C72.589 84.6484 72.1919 85.0456 72.1919 85.535C72.1919 86.0244 72.5884 86.4215 73.0784 86.4215Z" fill="white" stroke="#404CDC" stroke-width="0.6"/>
<path d="M128.112 57.9251L127.393 60.7493C127.304 61.0996 127.437 61.47 127.728 61.6838C127.884 61.7973 128.068 61.8546 128.252 61.8546C128.414 61.8546 128.577 61.8104 128.721 61.7206L131.778 59.8178L134.834 61.7206C135.142 61.9126 135.534 61.8976 135.826 61.6832C136.119 61.4693 136.251 61.0996 136.162 60.7486L135.442 57.9245L137.7 55.3902C137.932 55.1296 137.99 54.7562 137.847 54.4376C137.704 54.119 137.387 53.9139 137.038 53.9139H134.185L132.548 51.0361C132.39 50.7593 132.096 50.5879 131.778 50.5879C131.459 50.5879 131.165 50.7587 131.007 51.0361L129.37 53.9139H126.518C126.169 53.9139 125.852 54.119 125.708 54.4376C125.566 54.7562 125.623 55.1296 125.856 55.3902L128.112 57.9251ZM129.885 55.6882C130.203 55.6882 130.498 55.5173 130.655 55.2399L131.777 53.2685L132.899 55.2399C133.056 55.5167 133.35 55.6882 133.669 55.6882H135.059L133.804 57.0978C133.608 57.3178 133.534 57.6208 133.607 57.9064L133.898 59.0498L132.245 58.0211C131.958 57.8422 131.595 57.8422 131.308 58.0211L129.655 59.0498L129.947 57.9064C130.02 57.6208 129.945 57.3178 129.75 57.0978L128.494 55.6882H129.885Z" fill="white" stroke="#404CDC" stroke-width="0.6"/>
<path d="M115.882 80.5045L113.112 79.8237L112.209 76.6386C112.122 76.3319 111.877 76.0956 111.568 76.0195C111.258 75.9441 110.932 76.0395 110.712 76.2708L108.435 78.6747L105.665 77.9939C105.326 77.9116 104.97 78.0344 104.755 78.3093C104.54 78.5849 104.507 78.9608 104.67 79.2694L106.257 82.2688L104.884 84.8392C104.713 85.1584 104.755 85.5493 104.987 85.8267C105.22 86.1041 105.598 86.2114 105.942 86.0998L109.364 84.9819L111.877 87.5592C112.048 87.7337 112.278 87.8266 112.512 87.8266C112.625 87.8266 112.74 87.8048 112.849 87.7599C113.184 87.6221 113.401 87.2948 113.399 86.9326L113.374 84.0186L116.172 82.0966C116.46 81.8983 116.604 81.5504 116.542 81.2063C116.48 80.8622 116.221 80.5878 115.882 80.5043L115.882 80.5045ZM111.983 82.8237C111.74 82.9908 111.595 83.2669 111.598 83.5618L111.608 84.742L110.248 83.348C110.079 83.1741 109.849 83.0805 109.614 83.0805C109.521 83.0805 109.428 83.0949 109.338 83.1242L107.487 83.7289L108.043 82.6884C108.182 82.4284 108.183 82.1167 108.044 81.8561L107.162 80.1878L108.512 80.5201C108.822 80.5955 109.148 80.5001 109.367 80.2689L110.927 78.6224L111.546 80.8045C111.633 81.1112 111.877 81.3475 112.187 81.4235L113.537 81.7552L111.983 82.8237Z" fill="white" stroke="#404CDC" stroke-width="0.6"/>
<path d="M94.1848 56.8246L97.9391 58.8546L98.2988 62.5166C98.3344 62.877 98.585 63.1793 98.9329 63.281C99.0152 63.3047 99.0987 63.3165 99.1816 63.3165C99.4491 63.3165 99.7078 63.1956 99.8786 62.978L102.685 59.4101L107.125 60.354C107.48 60.4301 107.844 60.2817 108.046 59.9812C108.248 59.6807 108.246 59.2873 108.043 58.9881L105.975 55.9445L107.559 51.9819C107.689 51.6571 107.616 51.2874 107.374 51.0362C107.13 50.7855 106.763 50.7001 106.435 50.8192L103.036 52.0492L99.8586 49.3392C99.6161 49.1322 99.2813 49.0711 98.9815 49.1802C98.6816 49.2887 98.4634 49.5499 98.4091 49.8642L97.7028 53.9801L94.3044 55.2101C93.9759 55.3292 93.7483 55.6297 93.7221 55.9782C93.6966 56.328 93.8774 56.659 94.1847 56.8248L94.1848 56.8246ZM98.7914 55.4724C99.0912 55.3639 99.3094 55.1027 99.3637 54.7885L99.8936 51.6999L102.278 53.7335C102.52 53.9405 102.855 54.0016 103.155 53.8925L105.179 53.16L104.153 55.7241C104.043 55.9978 104.077 56.3083 104.243 56.5514L105.336 58.1611L102.513 57.5614C102.183 57.4903 101.841 57.6144 101.632 57.88L99.8475 60.1481L99.6573 58.2116C99.6286 57.9186 99.456 57.6586 99.1966 57.5183L96.767 56.2048L98.7914 55.4724Z" fill="white" stroke="#404CDC" stroke-width="0.6"/>
<path d="M142.425 82.0935L140.357 79.0499L141.941 75.0874C142.071 74.7626 141.998 74.3929 141.755 74.1416C141.512 73.8904 141.145 73.8056 140.817 73.9247L137.418 75.1547L134.241 72.4447C133.998 72.2377 133.663 72.1766 133.363 72.2857C133.064 72.3942 132.845 72.6554 132.791 72.9696L132.085 77.0856L128.686 78.3156C128.358 78.4347 128.13 78.7352 128.104 79.0837C128.078 79.4322 128.259 79.7632 128.567 79.9291L132.321 81.959L132.681 85.6211C132.716 85.9814 132.967 86.2838 133.315 86.3854C133.397 86.4091 133.481 86.4209 133.563 86.4209C133.831 86.4209 134.09 86.3 134.26 86.0824L137.067 82.5145L141.507 83.4584C141.861 83.5339 142.225 83.3861 142.427 83.0856C142.629 82.7858 142.628 82.393 142.425 82.0937L142.425 82.0935ZM136.896 80.6658C136.564 80.5948 136.224 80.7195 136.014 80.9844L134.23 83.2525L134.04 81.3161C134.011 81.0231 133.838 80.7631 133.579 80.6228L131.149 79.3092L133.173 78.5767C133.473 78.4682 133.691 78.207 133.745 77.8928L134.275 74.8042L136.659 76.8378C136.902 77.0448 137.237 77.1059 137.537 76.9968L139.56 76.2642L138.535 78.8284C138.425 79.1021 138.459 79.4126 138.625 79.6557L139.718 81.2654L136.896 80.6658Z" fill="white" stroke="#404CDC" stroke-width="0.6"/>
</svg>
