<svg xmlns="http://www.w3.org/2000/svg" width="169" height="103.085" viewBox="0 0 169 103.085">
  <g id="badal" transform="translate(3450 -2062)" fill="none">
    <path d="M-3365.75,2164.935c-25.316-.384-35.289-1.726-54.75-5.935s-29.5-13.208-29.5-29.5a29.5,29.5,0,0,1,29.5-29.5h2.185a27.511,27.511,0,0,1,25.815-18,27.479,27.479,0,0,1,8.37,1.3A42.979,42.979,0,0,1-3347,2062h2a43,43,0,0,1,42.834,39.193A29.512,29.512,0,0,1-3281,2129.5c0,16.293-12.417,26.229-29.5,31.024-13.318,3.737-24.063,4.561-40.146,4.561C-3355.194,2165.085-3360.169,2165.019-3365.75,2164.935Z" stroke="none"/>
    <path d="M -3350.645751953125 2159.085205078125 C -3335.686279296875 2159.085205078125 -3325.115966796875 2158.393798828125 -3312.121337890625 2154.747314453125 C -3300.660888671875 2151.5302734375 -3286.99951171875 2144.538818359375 -3286.99951171875 2129.5 C -3286.99951171875 2119.139892578125 -3293.93212890625 2109.86669921875 -3303.858154296875 2106.94970703125 L -3307.785888671875 2105.79541015625 L -3308.1435546875 2101.717529296875 C -3309.802001953125 2082.810546875 -3325.991455078125 2068 -3345.00048828125 2068 L -3347.000244140625 2068 C -3360.086669921875 2068 -3372.329833984375 2075.0234375 -3378.9521484375 2086.329345703125 L -3381.379150390625 2090.472900390625 L -3385.953857421875 2089.0126953125 C -3388.059814453125 2088.340576171875 -3390.26220703125 2087.999755859375 -3392.499755859375 2087.999755859375 C -3401.47412109375 2087.999755859375 -3409.585693359375 2093.655029296875 -3412.684326171875 2102.072509765625 L -3414.130126953125 2105.999755859375 L -3420.49951171875 2105.999755859375 C -3433.45751953125 2105.999755859375 -3443.999755859375 2116.5419921875 -3443.999755859375 2129.5 C -3443.999755859375 2138.539306640625 -3441.05712890625 2148.416015625 -3419.2314453125 2153.1357421875 C -3400.013916015625 2157.29150390625 -3390.651611328125 2158.556884765625 -3365.6591796875 2158.935546875 C -3360.111572265625 2159.01953125 -3355.166748046875 2159.085205078125 -3350.645751953125 2159.085205078125 M -3350.645751953125 2165.085205078125 C -3355.194091796875 2165.085205078125 -3360.168701171875 2165.019287109375 -3365.75 2164.934814453125 C -3391.06591796875 2164.55126953125 -3401.038818359375 2163.20849609375 -3420.49951171875 2159.000244140625 C -3439.961181640625 2154.791748046875 -3449.999755859375 2145.792724609375 -3449.999755859375 2129.5 C -3449.999755859375 2113.207275390625 -3436.792236328125 2099.999755859375 -3420.49951171875 2099.999755859375 L -3418.31494140625 2099.999755859375 C -3414.447265625 2089.4931640625 -3404.348876953125 2081.999755859375 -3392.499755859375 2081.999755859375 C -3389.58056640625 2081.999755859375 -3386.76904296875 2082.454345703125 -3384.12939453125 2083.296875 C -3376.666259765625 2070.555419921875 -3362.832763671875 2062 -3347.000244140625 2062 L -3345.00048828125 2062 C -3322.534912109375 2062 -3304.09326171875 2079.227783203125 -3302.16650390625 2101.193115234375 C -3289.931396484375 2104.788818359375 -3280.99951171875 2116.10107421875 -3280.99951171875 2129.5 C -3280.99951171875 2145.792724609375 -3293.4169921875 2155.728759765625 -3310.499755859375 2160.52392578125 C -3323.8173828125 2164.26123046875 -3334.562744140625 2165.085205078125 -3350.645751953125 2165.085205078125 Z" stroke="none" fill="#0f52ba"/>
  </g>
</svg>
