<svg width="51" height="51" viewBox="0 0 51 51" fill="none" xmlns="http://www.w3.org/2000/svg">
<circle cx="25.5" cy="25.5" r="25.5" fill="#D9D9D9"/>
<path d="M21.675 24.2234C22.6837 24.2234 23.6697 23.9243 24.5084 23.3639C25.3471 22.8035 26.0008 22.007 26.3868 21.0751C26.7728 20.1432 26.8738 19.1178 26.677 18.1285C26.4802 17.1392 25.9945 16.2304 25.2812 15.5172C24.568 14.8039 23.6593 14.3182 22.67 14.1214C21.6807 13.9247 20.6552 14.0256 19.7233 14.4117C18.7914 14.7977 17.9949 15.4513 17.4345 16.29C16.8741 17.1287 16.575 18.1148 16.575 19.1234C16.575 20.476 17.1123 21.7732 18.0688 22.7297C19.0252 23.6861 20.3224 24.2234 21.675 24.2234ZM21.675 16.5734C22.1793 16.5734 22.6724 16.723 23.0917 17.0032C23.511 17.2834 23.8379 17.6816 24.0309 18.1476C24.2239 18.6135 24.2744 19.1263 24.176 19.6209C24.0776 20.1156 23.8347 20.5699 23.4781 20.9266C23.1215 21.2832 22.6671 21.5261 22.1725 21.6244C21.6778 21.7228 21.1651 21.6723 20.6992 21.4793C20.2332 21.2863 19.8349 20.9595 19.5548 20.5401C19.2746 20.1208 19.125 19.6278 19.125 19.1234C19.125 18.4471 19.3937 17.7985 19.8719 17.3203C20.3501 16.8421 20.9987 16.5734 21.675 16.5734ZM31.875 26.7734C32.6315 26.7734 33.371 26.5491 34.0001 26.1288C34.6291 25.7085 35.1193 25.1111 35.4088 24.4122C35.6983 23.7133 35.7741 22.9442 35.6265 22.2022C35.4789 21.4602 35.1146 20.7787 34.5797 20.2438C34.0447 19.7088 33.3632 19.3445 32.6212 19.1969C31.8792 19.0493 31.1102 19.1251 30.4112 19.4146C29.7123 19.7041 29.1149 20.1944 28.6946 20.8234C28.2743 21.4524 28.05 22.1919 28.05 22.9484C28.05 23.9629 28.453 24.9358 29.1703 25.6531C29.8876 26.3705 30.8605 26.7734 31.875 26.7734ZM31.875 21.6734C32.1272 21.6734 32.3737 21.7482 32.5834 21.8883C32.793 22.0284 32.9564 22.2275 33.0529 22.4605C33.1494 22.6935 33.1747 22.9499 33.1255 23.1972C33.0763 23.4445 32.9549 23.6717 32.7766 23.85C32.5982 24.0283 32.3711 24.1497 32.1237 24.1989C31.8764 24.2481 31.6201 24.2229 31.3871 24.1264C31.1541 24.0299 30.955 23.8665 30.8149 23.6568C30.6748 23.4471 30.6 23.2006 30.6 22.9484C30.6 22.6103 30.7343 22.286 30.9734 22.0469C31.2125 21.8078 31.5368 21.6734 31.875 21.6734ZM31.875 28.0484C30.4621 28.05 29.0897 28.5209 27.9735 29.3872C26.7247 28.1432 25.1354 27.2969 23.4062 26.955C21.677 26.6131 19.8853 26.7909 18.257 27.4659C16.6287 28.141 15.2368 29.2831 14.2567 30.7482C13.2767 32.2133 12.7524 33.9358 12.75 35.6984C12.75 36.0366 12.8843 36.3609 13.1234 36.6C13.3625 36.8391 13.6868 36.9734 14.025 36.9734C14.3632 36.9734 14.6875 36.8391 14.9266 36.6C15.1657 36.3609 15.3 36.0366 15.3 35.6984C15.3 34.0077 15.9716 32.3862 17.1672 31.1906C18.3627 29.9951 19.9842 29.3234 21.675 29.3234C23.3658 29.3234 24.9873 29.9951 26.1828 31.1906C27.3784 32.3862 28.05 34.0077 28.05 35.6984C28.05 36.0366 28.1843 36.3609 28.4234 36.6C28.6625 36.8391 28.9868 36.9734 29.325 36.9734C29.6632 36.9734 29.9875 36.8391 30.2266 36.6C30.4657 36.3609 30.6 36.0366 30.6 35.6984C30.603 34.2047 30.2257 32.7348 29.5035 31.4272C30.067 30.9819 30.7444 30.7043 31.4582 30.6261C32.1721 30.5478 32.8936 30.6721 33.5401 30.9847C34.1866 31.2974 34.7321 31.7857 35.1141 32.3938C35.496 33.0019 35.6991 33.7053 35.7 34.4234C35.7 34.7616 35.8343 35.0859 36.0734 35.325C36.3125 35.5641 36.6368 35.6984 36.975 35.6984C37.3132 35.6984 37.6375 35.5641 37.8766 35.325C38.1157 35.0859 38.25 34.7616 38.25 34.4234C38.25 32.7327 37.5784 31.1112 36.3828 29.9156C35.1873 28.7201 33.5658 28.0484 31.875 28.0484Z" fill="#17283F"/>
</svg>
