<svg width="297" height="332" viewBox="0 0 297 332" fill="none" xmlns="http://www.w3.org/2000/svg">
<path d="M283.029 312.469C281.177 313.12 279.189 313.283 277.257 312.942C275.324 312.602 273.512 311.769 271.994 310.525C268.129 307.281 266.916 301.937 265.932 296.988L263.016 282.352L269.121 286.556C273.512 289.579 278.001 292.699 281.041 297.078C284.081 301.458 285.408 307.436 282.966 312.174" fill="#E6E6E6"/>
<path d="M282.507 330.189C283.125 325.688 283.76 321.129 283.327 316.58C282.942 312.539 281.71 308.593 279.2 305.357C277.868 303.643 276.247 302.174 274.41 301.017C273.931 300.715 273.49 301.474 273.967 301.775C277.145 303.783 279.603 306.749 280.987 310.245C282.516 314.132 282.761 318.37 282.495 322.499C282.336 324.997 281.999 327.477 281.658 329.956C281.631 330.068 281.647 330.186 281.704 330.286C281.761 330.387 281.855 330.462 281.965 330.496C282.077 330.526 282.197 330.511 282.298 330.453C282.399 330.396 282.473 330.301 282.505 330.189L282.507 330.189Z" fill="#F2F2F2"/>
<path d="M260.378 255.427H4.95117V0H260.378V255.427Z" fill="white"/>
<path d="M260.378 255.427H4.95117V0H260.378V255.427ZM8.72505 251.653H256.604V3.77391H8.72505V251.653Z" fill="#E5E5E5"/>
<path d="M215.128 39.9609H104.518V43.4065H215.128V39.9609Z" fill="#E5E5E5"/>
<path d="M215.128 48.9199H104.518V52.3655H215.128V48.9199Z" fill="#E5E5E5"/>
<path d="M215.128 57.8789H104.518V61.3245H215.128V57.8789Z" fill="#E5E5E5"/>
<path d="M215.128 116.887H104.518V120.332H215.128V116.887Z" fill="#E5E5E5"/>
<path d="M215.128 125.846H104.518V129.291H215.128V125.846Z" fill="#E5E5E5"/>
<path d="M215.128 134.803H104.518V138.248H215.128V134.803Z" fill="#E5E5E5"/>
<path d="M215.128 193.811H104.518V197.256H215.128V193.811Z" fill="#E5E5E5"/>
<path d="M215.128 202.77H104.518V206.215H215.128V202.77Z" fill="#E5E5E5"/>
<path d="M215.128 211.729H104.518V215.174H215.128V211.729Z" fill="#E5E5E5"/>
<path d="M60.2379 67.4148C58.3483 66.419 56.3759 65.5889 54.3429 64.934L54.0837 62.0663L43.5703 60.9336L42.2341 64.5989L38.4611 66.0148C38.3261 66.066 38.1975 66.133 38.0782 66.2142H38.0741C37.8636 66.3566 37.6842 66.5403 37.5471 66.7543C37.4099 66.9682 37.3178 67.2079 37.2764 67.4586C37.2361 67.708 37.2457 67.9628 37.3045 68.2084L37.5039 69.0261C37.791 69.1976 38.0862 69.3611 38.3812 69.5166L38.5688 69.6124C38.9996 69.8357 39.4383 70.0471 39.889 70.2425C39.9807 70.2824 40.0804 70.3223 40.1721 70.3622C40.1801 70.3662 40.184 70.3662 40.192 70.3702C40.4035 70.4579 40.6148 70.5417 40.8302 70.6214C41.5377 70.8916 42.2593 71.1233 42.9919 71.3154C44.8616 71.8137 46.7883 72.0658 48.7233 72.0653C49.4292 72.0653 50.1272 72.0333 50.8172 71.9655C52.3938 71.82 53.9502 71.5058 55.4598 71.0283C55.4637 71.0283 55.4677 71.0243 55.4716 71.0243C56.4252 70.7205 57.3568 70.3513 58.2596 69.9195C58.2635 69.9155 58.2715 69.9155 58.2756 69.9115C58.4789 69.8158 58.6744 69.7121 58.8739 69.6124L58.9695 69.5645C59.129 69.4807 59.2887 69.397 59.4482 69.3092C59.847 69.0899 60.2379 68.8586 60.6246 68.6113C60.7323 68.5474 60.8361 68.4797 60.9438 68.4079C61.0953 68.3082 61.2469 68.2044 61.3945 68.0967C61.0235 67.8575 60.6367 67.6301 60.2379 67.4148Z" fill="#3F3D56"/>
<path d="M40.5071 69.1804L39.849 66.209H38.13C38.1127 66.2092 38.0954 66.2106 38.0782 66.213H38.0741C37.4563 66.2653 36.8614 66.4709 36.3432 66.8112C35.9917 67.0356 35.6792 67.3158 35.418 67.6408C35.9284 68.0277 36.4589 68.3867 37.0053 68.7296L37.0293 68.7416C37.1847 68.8373 37.3444 68.9331 37.5039 69.0248C37.791 69.1963 38.0862 69.3598 38.3813 69.5154L38.5688 69.6111C38.9996 69.8344 39.4383 70.0458 39.889 70.2412C39.9807 70.2811 40.0804 70.321 40.1721 70.3609C40.1801 70.3649 40.184 70.3649 40.192 70.3689C40.4035 70.4567 40.6148 70.5404 40.8302 70.6202L40.5071 69.1804Z" fill="#3F3D56"/>
<path d="M48.4136 59.1203C52.5955 59.1203 55.9855 55.7302 55.9855 51.5484C55.9855 47.3666 52.5955 43.9766 48.4136 43.9766C44.2318 43.9766 40.8418 47.3666 40.8418 51.5484C40.8418 55.7302 44.2318 59.1203 48.4136 59.1203Z" fill="#FFB8B8"/>
<path d="M43.3301 47.8607C44.1139 48.7883 45.4404 49.0501 46.664 49.1574C49.5249 49.3154 52.3939 49.0811 55.1912 48.4611C55.3645 50.1411 54.8919 51.9525 55.8814 53.3344C56.3453 51.6614 56.615 49.9405 56.6853 48.2057C56.7592 47.4614 56.662 46.7101 56.4012 46.0091C56.2617 45.6578 56.0265 45.3526 55.7223 45.1283C55.418 44.9041 55.057 44.7696 54.6802 44.7403C55.2443 44.3123 55.9051 44.0298 56.6042 43.9177L54.2 42.7095L54.8174 42.0757L50.4646 41.8093L51.7253 41.0084C49.8279 40.7477 47.9083 40.6871 45.9981 40.8276C45.1055 40.828 44.2299 41.0714 43.4651 41.5317C42.7464 42.0456 42.3311 43.0671 42.7773 43.8216C42.2187 43.9133 41.6928 44.1461 41.2494 44.498C40.8059 44.8498 40.4597 45.309 40.2434 45.8321C39.9699 46.6636 39.9039 47.5493 40.0511 48.4121C40.215 49.7965 40.5368 51.1576 41.01 52.4688L43.3301 47.8607Z" fill="#2F2E41"/>
<path d="M69.7073 43.3405C68.6449 40.2885 66.9296 37.505 64.6809 35.184C62.4322 32.8631 59.7043 31.0606 56.6875 29.9022C53.6706 28.7439 50.4373 28.2575 47.2132 28.4771C43.989 28.6967 40.8516 29.617 38.0197 31.1737C35.1877 32.7305 32.7294 34.8862 30.8162 37.4906C28.903 40.095 27.581 43.0854 26.9422 46.2533C26.3035 49.4212 26.3635 52.6902 27.118 55.8325C27.8725 58.9748 29.3033 61.9147 31.3108 64.4472C31.5102 64.6985 31.7176 64.9498 31.9291 65.1931C31.9451 65.209 31.9569 65.225 31.9729 65.2409C32.4928 65.84 33.0453 66.4098 33.628 66.9479C33.7798 67.0876 33.9393 67.2311 34.0988 67.3668C34.4018 67.638 34.713 67.8972 35.0361 68.1445C35.1636 68.2442 35.2873 68.3439 35.4189 68.4397C35.9294 68.8265 36.4599 69.1855 37.0063 69.5285L37.0303 69.5404C37.1857 69.6362 37.3454 69.7319 37.5049 69.8236C37.792 69.9951 38.0872 70.1587 38.3822 70.3142L38.5698 70.4099C39.0005 70.6333 39.4393 70.8447 39.89 71.0401C39.9817 71.08 40.0814 71.1199 40.1731 71.1597C40.1811 71.1637 40.185 71.1637 40.193 71.1677C40.4045 71.2555 40.6158 71.3392 40.8312 71.419C41.5387 71.6892 42.2603 71.9209 42.9929 72.113C44.8625 72.6113 46.7893 72.8634 48.7243 72.8628C49.4302 72.8628 50.1282 72.8309 50.8182 72.7631C52.3948 72.6176 53.9512 72.3033 55.4607 71.8258C55.4646 71.8258 55.4687 71.8218 55.4726 71.8218C56.4262 71.518 57.3578 71.1489 58.2606 70.717C58.2645 70.713 58.2725 70.713 58.2766 70.7091C58.4799 70.6133 58.6754 70.5097 58.8749 70.4099L58.9705 70.362C59.13 70.2783 59.2897 70.1945 59.4492 70.1068C59.848 69.8874 60.2389 69.6561 60.6256 69.4088C60.7333 69.345 60.8371 69.2772 60.9448 69.2054C61.0963 69.1057 61.2479 69.002 61.3955 68.8943C61.5908 68.7587 61.7863 68.6191 61.9778 68.4755C62.0375 68.4317 62.1014 68.3878 62.1612 68.3399C65.8978 65.5037 68.6405 61.5573 69.9961 57.0663C71.3517 52.5753 71.2506 47.7705 69.7073 43.3405V43.3405ZM61.4274 67.3707C61.2958 67.4744 61.1602 67.5741 61.0245 67.6659C60.8928 67.7656 60.7614 67.8613 60.6256 67.9491C60.51 68.0328 60.3943 68.1126 60.2747 68.1884L60.2389 68.2123C60.151 68.2721 60.0634 68.3279 59.9756 68.3838C59.6445 68.5912 59.3095 68.7906 58.9705 68.9821L58.8628 69.0419C58.7113 69.1257 58.5598 69.2054 58.4083 69.2852C58.3882 69.2972 58.3642 69.3051 58.3444 69.3171L58.3204 69.3291C58.129 69.4288 57.9335 69.5245 57.7381 69.6162C56.984 69.9794 56.2073 70.2938 55.4129 70.5575C55.3091 70.5934 55.2055 70.6293 55.1019 70.6612C53.673 71.1156 52.1995 71.4152 50.7066 71.5546C50.0524 71.6144 49.3903 71.6463 48.7243 71.6463C46.8941 71.6501 45.0715 71.4114 43.3041 70.9364C42.397 70.6996 41.508 70.3984 40.6438 70.035C40.5998 70.0151 40.5519 69.9991 40.5081 69.9792C40.4604 69.9593 40.4164 69.9433 40.3725 69.9233C40.3246 69.9034 40.2808 69.8835 40.2329 69.8595C39.858 69.696 39.487 69.5165 39.1242 69.3291L38.9487 69.2373C38.5059 69.006 38.0712 68.7587 37.6484 68.4955C37.5247 68.4197 37.3972 68.34 37.2774 68.2562C37.2457 68.2362 37.2176 68.2163 37.1857 68.1963C36.9025 68.0089 36.6194 67.8135 36.3442 67.61C36.1569 67.4704 35.9693 67.3309 35.7859 67.1873C35.4787 66.9559 35.1835 66.7087 34.8964 66.4534C34.7449 66.3258 34.5973 66.1862 34.4538 66.0546C33.8883 65.5324 33.3529 64.9785 32.8504 64.3954C32.683 64.2039 32.5194 64.0125 32.3638 63.8131C32.3284 63.7736 32.2951 63.7324 32.264 63.6894C29.6726 60.4194 28.114 56.4516 27.7867 52.2921C27.4595 48.1326 28.3786 43.9699 30.4268 40.3349C32.475 36.6999 35.5594 33.7572 39.2868 31.8823C43.0142 30.0074 47.2155 29.2852 51.355 29.8077C55.4945 30.3302 59.3846 32.0739 62.5291 34.8162C65.6736 37.5586 67.93 41.1754 69.0107 45.2054C70.0913 49.2353 69.9471 53.4959 68.5965 57.4436C67.2459 61.3913 64.7501 64.8473 61.4274 67.3708L61.4274 67.3707Z" fill="#3F3D56"/>
<path d="M69.7072 120.264C68.6449 117.212 66.9295 114.429 64.6809 112.108C62.4322 109.787 59.7043 107.984 56.6874 106.826C53.6706 105.668 50.4373 105.181 47.2132 105.401C43.989 105.621 40.8516 106.541 38.0197 108.098C35.1877 109.654 32.7294 111.81 30.8162 114.414C28.903 117.019 27.581 120.009 26.9422 123.177C26.3035 126.345 26.3635 129.614 27.118 132.756C27.8725 135.899 29.3033 138.839 31.3107 141.371C31.5102 141.622 31.7176 141.874 31.9289 142.117C31.9448 142.133 31.9567 142.149 31.9727 142.165C32.4927 142.764 33.0453 143.334 33.628 143.872C33.7795 144.011 33.939 144.155 34.0985 144.291C34.4018 144.562 34.7128 144.821 35.0359 145.068C35.6667 145.565 36.3244 146.028 37.0061 146.452L37.0301 146.464C37.4727 146.739 37.9234 146.995 38.3822 147.238L38.5696 147.334C39.0003 147.557 39.4391 147.768 39.8897 147.964C39.9815 148.004 40.0812 148.044 40.1729 148.084C40.1809 148.088 40.185 148.088 40.193 148.091C41.1036 148.47 42.039 148.786 42.9928 149.037C44.8625 149.535 46.7892 149.787 48.724 149.787C49.43 149.787 50.128 149.755 50.818 149.687C52.3945 149.541 53.951 149.227 55.4605 148.75C55.4646 148.75 55.4685 148.746 55.4724 148.746C56.426 148.442 57.3576 148.073 58.2604 147.641C58.2643 147.637 58.2725 147.637 58.2764 147.633C58.4797 147.537 58.6752 147.433 58.8746 147.334L58.9704 147.286C59.1299 147.202 59.2894 147.118 59.4489 147.031C59.8478 146.811 60.2386 146.58 60.6256 146.333C60.7333 146.269 60.8369 146.201 60.9446 146.129C61.2955 145.898 61.6426 145.651 61.9775 145.399C62.0375 145.355 62.1012 145.312 62.1612 145.264C65.8977 142.427 68.6403 138.481 69.9959 133.99C71.3514 129.499 71.2504 124.694 69.7072 120.264V120.264Z" fill="white"/>
<path d="M56.0545 136.726C57.8936 136.726 59.3845 135.235 59.3845 133.396C59.3845 131.557 57.8936 130.066 56.0545 130.066C54.2155 130.066 52.7246 131.557 52.7246 133.396C52.7246 135.235 54.2155 136.726 56.0545 136.726Z" fill="#2F2E41"/>
<path d="M56.9844 130.159C57.5608 130.159 58.1272 130.308 58.6284 130.593C59.1297 130.877 59.5485 131.287 59.8439 131.782C60.1393 132.277 60.3012 132.84 60.3139 133.416C60.3265 133.992 60.1894 134.562 59.9159 135.069C60.2045 134.708 60.4147 134.291 60.5331 133.844C60.6515 133.397 60.6756 132.93 60.6036 132.473C60.5317 132.017 60.3655 131.58 60.1155 131.191C59.8654 130.802 59.5372 130.47 59.1515 130.214C58.7659 129.959 58.3313 129.787 57.8756 129.71C57.4198 129.632 56.9529 129.65 56.5044 129.762C56.056 129.875 55.6359 130.08 55.271 130.364C54.906 130.647 54.6042 131.004 54.3848 131.411C54.6961 131.02 55.0915 130.705 55.5417 130.488C55.9919 130.271 56.4851 130.159 56.9848 130.159L56.9844 130.159Z" fill="#2F2E41"/>
<path d="M49.8328 133.39C55.2352 133.39 59.6148 129.011 59.6148 123.608C59.6148 118.206 55.2352 113.826 49.8328 113.826C44.4303 113.826 40.0508 118.206 40.0508 123.608C40.0508 129.011 44.4303 133.39 49.8328 133.39Z" fill="#2F2E41"/>
<path d="M42.1567 117.539C43.8422 115.644 46.1982 114.477 48.7276 114.286C51.2569 114.094 53.7617 114.893 55.7133 116.514C55.6335 116.437 55.5537 116.361 55.4712 116.287C53.5389 114.556 50.998 113.663 48.4075 113.806C45.8171 113.948 43.3893 115.114 41.6582 117.046C39.9271 118.978 39.0345 121.519 39.1769 124.11C39.3192 126.7 40.4847 129.128 42.417 130.859C42.4356 130.876 42.4542 130.892 42.4729 130.909C42.5559 130.982 42.6413 131.052 42.7262 131.123C40.8884 129.374 39.8018 126.981 39.6956 124.446C39.5894 121.912 40.472 119.435 42.1571 117.539L42.1567 117.539Z" fill="#2F2E41"/>
<path d="M49.7493 133.307C53.2288 133.307 56.0494 130.487 56.0494 127.007C56.0494 123.528 53.2288 120.707 49.7493 120.707C46.2699 120.707 43.4492 123.528 43.4492 127.007C43.4492 130.487 46.2699 133.307 49.7493 133.307Z" fill="#A0616A"/>
<path d="M61.024 143.421V145.534C60.6371 145.782 60.2462 146.013 59.8474 146.232C59.6879 146.32 59.5284 146.404 59.3689 146.488L59.273 146.536C59.0736 146.635 58.8781 146.739 58.6748 146.835C58.6709 146.839 58.6627 146.839 58.6588 146.843C57.756 147.274 56.8244 147.644 55.8708 147.947C55.8669 147.947 55.863 147.951 55.8589 147.951C54.3494 148.429 52.793 148.743 51.2164 148.889C50.5264 148.956 49.8284 148.988 49.1224 148.988C47.1876 148.989 45.2609 148.737 43.3912 148.239C42.4375 147.988 41.502 147.672 40.5914 147.293C40.5834 147.289 40.5793 147.289 40.5713 147.285C40.4796 147.245 40.3799 147.206 40.2881 147.166C39.8375 146.97 39.3987 146.759 38.968 146.536L38.7806 146.44C38.3218 146.196 37.8711 145.941 37.4285 145.666L37.4045 145.654C36.7228 145.229 36.0651 144.767 35.4343 144.27C35.1112 144.023 34.8002 143.764 34.497 143.492C34.3375 143.357 34.178 143.213 34.0265 143.074C33.4437 142.535 32.8911 141.966 32.3711 141.367C32.4401 140.951 32.5415 140.542 32.6743 140.142L32.6782 140.138C32.7021 140.07 32.73 140.003 32.762 139.939C32.784 139.881 32.8093 139.825 32.8377 139.771C33.5517 138.435 34.844 138.104 36.4473 138.032C37.3527 137.992 38.3537 138.036 39.4108 138.024C39.9692 138.02 40.5473 138 41.1258 137.948C44.7751 137.617 44.1132 135.464 44.2766 134.303C44.4402 133.178 45.4532 134.151 45.521 134.215L45.5249 134.219C47.5901 135.186 49.8749 135.586 52.1457 135.38C52.5366 135.332 52.9274 135.304 53.3183 135.292C54.3473 135.28 54.124 135.575 53.7691 135.819C53.5969 135.932 53.4169 136.033 53.2307 136.122C53.2307 136.122 53.0671 137.119 52.8996 138.611C52.7401 140.038 55.4761 140.708 55.7034 140.76C55.7081 140.763 55.7137 140.765 55.7193 140.764C56.7185 140.505 57.7705 140.533 58.7547 140.844H58.7586C59.3209 141.051 59.8227 141.395 60.2183 141.845C60.6139 142.295 60.8909 142.836 61.024 143.421Z" fill="#6C63FF"/>
<path d="M40.6316 145.987C40.6316 146.282 40.6238 146.565 40.6118 146.833C40.6079 146.992 40.5999 147.148 40.5919 147.295C40.5839 147.291 40.5798 147.291 40.5718 147.287C40.4801 147.247 40.3804 147.208 40.2887 147.168C39.838 146.972 39.3993 146.761 38.9685 146.538L38.7812 146.442C38.3223 146.198 37.8717 145.943 37.429 145.668C37.4409 145.528 37.461 145.389 37.4808 145.249C37.5246 144.942 37.5607 144.631 37.5846 144.324C37.7414 142.166 37.3504 140.004 36.4479 138.038V138.034C36.368 137.875 36.3203 137.787 36.3203 137.787C36.3203 137.787 37.4808 136.79 39.136 137.787C39.2417 137.849 39.3351 137.93 39.4113 138.026C40.4085 139.203 40.6795 143.159 40.6316 145.987Z" fill="#2F2E41"/>
<path d="M58.7434 145.443C58.7274 145.889 58.7035 146.356 58.6756 146.83V146.834C58.6717 146.838 58.6636 146.838 58.6597 146.842C57.7568 147.274 56.8253 147.643 55.8717 147.947C55.8678 147.947 55.8639 147.951 55.8598 147.951L55.816 146.83L55.8119 146.683L55.6006 141.227C55.5949 141.103 55.6143 140.98 55.6577 140.864C55.701 140.748 55.7674 140.642 55.8527 140.553C55.9381 140.464 56.0407 140.392 56.1543 140.344C56.268 140.295 56.3903 140.27 56.5139 140.27H58.536C58.6357 140.27 58.7076 140.473 58.7555 140.84V140.844C58.8535 142.375 58.8495 143.912 58.7434 145.443Z" fill="#2F2E41"/>
<path d="M44.3613 119.131V125.433H45.8203L47.6769 123.443L47.4284 125.433H53.8777L53.4789 123.443L54.2765 125.433H55.3048V119.131H44.3613Z" fill="#2F2E41"/>
<path d="M43.3665 126.593C43.6412 126.593 43.8639 126.185 43.8639 125.681C43.8639 125.178 43.6412 124.77 43.3665 124.77C43.0918 124.77 42.8691 125.178 42.8691 125.681C42.8691 126.185 43.0918 126.593 43.3665 126.593Z" fill="#A0616A"/>
<path d="M56.1341 126.593C56.4088 126.593 56.6314 126.185 56.6314 125.681C56.6314 125.178 56.4088 124.77 56.1341 124.77C55.8594 124.77 55.6367 125.178 55.6367 125.681C55.6367 126.185 55.8594 126.593 56.1341 126.593Z" fill="#A0616A"/>
<path d="M62.3762 144.602C62.0413 144.854 61.6942 145.101 61.3433 145.332C61.2356 145.404 61.132 145.472 61.0243 145.536C60.6373 145.783 60.2465 146.014 59.8476 146.234C59.6881 146.321 59.5286 146.405 59.3691 146.489V142.094C59.3691 142.094 60.0071 142.604 61.0243 143.454C61.1518 143.561 61.2835 143.673 61.4231 143.793C61.7182 144.04 62.0374 144.311 62.3762 144.602Z" fill="#6C63FF"/>
<path d="M69.7072 120.264C68.6449 117.212 66.9295 114.429 64.6809 112.108C62.4322 109.787 59.7043 107.984 56.6874 106.826C53.6706 105.668 50.4373 105.181 47.2132 105.401C43.989 105.621 40.8516 106.541 38.0197 108.098C35.1877 109.654 32.7294 111.81 30.8162 114.414C28.903 117.019 27.581 120.009 26.9422 123.177C26.3035 126.345 26.3635 129.614 27.118 132.756C27.8725 135.899 29.3033 138.839 31.3107 141.371C31.5102 141.622 31.7176 141.874 31.9289 142.117C31.9448 142.133 31.9567 142.149 31.9727 142.165C32.4927 142.764 33.0453 143.334 33.628 143.872C33.7795 144.011 33.939 144.155 34.0985 144.291C34.4018 144.562 34.7128 144.821 35.0359 145.068C35.6667 145.565 36.3244 146.028 37.0061 146.452L37.0301 146.464C37.4727 146.739 37.9234 146.995 38.3822 147.238L38.5696 147.334C39.0003 147.557 39.4391 147.768 39.8897 147.964C39.9815 148.004 40.0812 148.044 40.1729 148.084C40.1809 148.088 40.185 148.088 40.193 148.091C41.1036 148.47 42.039 148.786 42.9928 149.037C44.8625 149.535 46.7892 149.787 48.724 149.787C49.43 149.787 50.128 149.755 50.818 149.687C52.3945 149.541 53.951 149.227 55.4605 148.75C55.4646 148.75 55.4685 148.746 55.4724 148.746C56.426 148.442 57.3576 148.073 58.2604 147.641C58.2643 147.637 58.2725 147.637 58.2764 147.633C58.4797 147.537 58.6752 147.433 58.8746 147.334L58.9704 147.286C59.1299 147.202 59.2894 147.118 59.4489 147.031C59.8478 146.811 60.2386 146.58 60.6256 146.333C60.7333 146.269 60.8369 146.201 60.9446 146.129C61.2955 145.898 61.6426 145.651 61.9775 145.399C62.0375 145.355 62.1012 145.312 62.1612 145.264C65.8977 142.427 68.6403 138.481 69.9959 133.99C71.3514 129.499 71.2504 124.694 69.7072 120.264V120.264ZM61.4272 144.295C61.2955 144.398 61.16 144.498 61.0245 144.59C60.8928 144.689 60.7612 144.785 60.6256 144.873C60.5099 144.957 60.3943 145.036 60.2745 145.112C60.1748 145.18 60.0751 145.244 59.9753 145.308C59.6445 145.515 59.3095 145.714 58.9704 145.906L58.8625 145.966C58.711 146.049 58.5595 146.129 58.408 146.209C58.388 146.221 58.364 146.229 58.3442 146.241L58.3202 146.253C58.1288 146.353 57.9334 146.448 57.7379 146.54C56.9838 146.903 56.2071 147.218 55.4126 147.481C55.309 147.517 55.2052 147.553 55.1016 147.585C53.6728 148.039 52.1992 148.339 50.7064 148.478C50.0522 148.538 49.3901 148.57 48.724 148.57C46.8939 148.574 45.0713 148.335 43.3038 147.86C42.3968 147.623 41.5078 147.322 40.6436 146.959C40.5519 146.923 40.4601 146.883 40.3723 146.847C40.3246 146.827 40.2806 146.807 40.2327 146.783C39.8578 146.62 39.487 146.44 39.124 146.253L38.9485 146.161C38.5059 145.93 38.071 145.682 37.6482 145.419C37.4928 145.324 37.3372 145.224 37.1857 145.12C36.707 144.805 36.2404 144.466 35.7856 144.111C35.4785 143.88 35.1835 143.632 34.8962 143.377C34.7447 143.25 34.5971 143.11 34.4536 142.978C33.8881 142.456 33.3528 141.902 32.8502 141.319C32.6827 141.128 32.5192 140.936 32.3635 140.737C32.3282 140.697 32.2949 140.656 32.2638 140.613C29.6724 137.343 28.1137 133.375 27.7865 129.216C27.4593 125.056 28.3784 120.894 30.4266 117.259C32.4748 113.624 35.5592 110.681 39.2866 108.806C43.014 106.931 47.2153 106.209 51.3548 106.731C55.4943 107.254 59.3843 108.998 62.5288 111.74C65.6734 114.482 67.9298 118.099 69.0104 122.129C70.0911 126.159 69.9469 130.42 68.5963 134.367C67.2457 138.315 64.7499 141.771 61.4272 144.295V144.295Z" fill="#3F3D56"/>
<path d="M48.8479 214.479C53.6557 214.479 57.5532 210.581 57.5532 205.774C57.5532 200.966 53.6557 197.068 48.8479 197.068C44.0401 197.068 40.1426 200.966 40.1426 205.774C40.1426 210.581 44.0401 214.479 48.8479 214.479Z" fill="#2F2E41"/>
<path d="M42.0534 201.08C43.4601 199.673 43.7452 197.678 42.6902 196.623C41.6351 195.568 39.6394 195.853 38.2327 197.259C36.8259 198.666 36.5408 200.662 37.5959 201.717C38.651 202.772 40.6466 202.487 42.0534 201.08Z" fill="#2F2E41"/>
<path d="M57.9229 198.314C58.509 196.942 57.501 195.196 55.6715 194.415C53.842 193.633 51.8837 194.112 51.2976 195.484C50.7115 196.856 51.7194 198.602 53.549 199.384C55.3785 200.165 57.3367 199.686 57.9229 198.314Z" fill="#2F2E41"/>
<path d="M59.261 222.659L58.2354 221.045C57.8002 220.073 56.9974 219.313 56.0029 218.931C55.0084 218.55 53.9032 218.578 52.9294 219.009C51.9556 219.441 51.1926 220.241 50.8075 221.234C50.4224 222.227 50.4465 223.333 50.8747 224.308L51.1663 225.354L51.4983 226.54C52.842 226.371 54.1678 226.081 55.46 225.676C55.4639 225.675 55.4674 225.673 55.4701 225.671C56.4253 225.368 57.3578 224.999 58.2607 224.564C58.2656 224.559 58.2705 224.559 58.2756 224.554C58.4767 224.459 58.6728 224.358 58.8739 224.258C58.9067 224.243 58.9386 224.226 58.9694 224.207C59.1302 224.127 59.2913 224.042 59.4471 223.956C59.6079 223.871 59.7637 223.78 59.9146 223.685L59.261 222.659Z" fill="#CACACA"/>
<path d="M49.1244 215.239C53.2048 215.239 56.5126 211.931 56.5126 207.851C56.5126 203.771 53.2048 200.463 49.1244 200.463C45.0441 200.463 41.7363 203.771 41.7363 207.851C41.7363 211.931 45.0441 215.239 49.1244 215.239Z" fill="#FFB6B6"/>
<path d="M59.7956 222.342C58.9807 220.987 57.9691 219.76 56.7939 218.702C55.989 217.983 54.9473 217.585 53.8679 217.586H43.4603C42.8606 217.586 42.2672 217.708 41.7169 217.947C41.1665 218.185 40.6708 218.533 40.2603 218.97C39.8499 219.408 39.5335 219.925 39.3307 220.489C39.1279 221.053 39.043 221.653 39.0812 222.252C39.1039 222.589 39.1647 222.923 39.2623 223.247C39.3365 223.482 39.429 223.711 39.5388 223.931L40.0516 224.957C40.0919 224.972 40.1321 224.992 40.1721 225.007C40.1822 225.012 40.1874 225.012 40.1923 225.017C40.4034 225.102 40.6147 225.188 40.8308 225.268C41.5383 225.539 42.2601 225.77 42.9928 225.962C44.1724 226.279 45.3766 226.496 46.5926 226.611C47.3015 226.676 48.0105 226.711 48.7244 226.711C49.4334 226.711 50.1272 226.676 50.821 226.611C51.0473 226.591 51.2734 226.565 51.4998 226.54C52.8435 226.371 54.1694 226.081 55.4616 225.676C55.4654 225.675 55.4689 225.673 55.4716 225.671C56.4268 225.368 57.3593 224.999 58.2622 224.564C58.2671 224.559 58.272 224.559 58.2772 224.554C58.4782 224.459 58.6743 224.358 58.8754 224.258C58.9083 224.243 58.9402 224.226 58.9709 224.207C59.1317 224.127 59.2928 224.042 59.4486 223.956C59.6094 223.871 59.7653 223.78 59.9161 223.685C60.0771 223.599 60.2279 223.504 60.3838 223.408C60.1928 223.031 59.9967 222.679 59.7956 222.342Z" fill="#CACACA"/>
<path d="M45.3454 218.936C44.3823 218.485 43.28 218.434 42.2795 218.794C41.2789 219.154 40.4616 219.895 40.0061 220.856L39.0809 222.254L38.6385 222.923L37.9648 223.938C38.1055 224.014 38.2413 224.089 38.3822 224.164L38.568 224.26C39.0006 224.481 39.4378 224.692 39.8905 224.888C39.9406 224.914 39.9961 224.934 40.0513 224.959C40.0916 224.974 40.1318 224.994 40.1718 225.009C40.1819 225.014 40.1871 225.014 40.192 225.019C40.4031 225.105 40.6145 225.19 40.8305 225.271C41.538 225.541 42.2598 225.773 42.9926 225.964C44.1722 226.281 45.3763 226.498 46.5923 226.613L46.9443 225.421L47.2863 224.285C47.737 223.318 47.7858 222.212 47.4219 221.209C47.0581 220.206 46.3113 219.389 45.3454 218.936Z" fill="#CACACA"/>
<path d="M41.3613 203.206C43.0496 204.37 45.0535 204.989 47.1039 204.981C46.3725 205.488 45.5399 205.831 44.6633 205.985C47.3895 206.57 50.2071 206.586 52.9397 206.032C53.5471 205.934 54.1332 205.733 54.6722 205.437C54.9409 205.287 55.1749 205.082 55.3591 204.835C55.5434 204.589 55.6737 204.306 55.7416 204.006C55.9232 202.969 55.1149 202.027 54.2749 201.391C52.9888 200.434 51.5059 199.774 49.9335 199.46C48.3611 199.146 46.7386 199.185 45.1832 199.575C44.1469 199.783 43.2038 200.316 42.4906 201.096C42.1454 201.493 41.9371 201.991 41.8963 202.515C41.8555 203.04 41.9844 203.563 42.264 204.009L41.3613 203.206Z" fill="#2F2E41"/>
<path d="M69.7087 197.191C68.6466 194.138 66.9314 191.354 64.6827 189.033C62.4341 186.712 59.7061 184.909 56.6891 183.75C53.6721 182.592 50.4386 182.105 47.2142 182.325C43.9898 182.544 40.8522 183.465 38.02 185.021C35.1878 186.578 32.7294 188.734 30.8161 191.339C28.9028 193.943 27.5807 196.934 26.9421 200.102C26.3034 203.27 26.3636 206.54 27.1183 209.682C27.873 212.824 29.3042 215.764 31.312 218.297C31.5079 218.548 31.7193 218.8 31.9304 219.041C31.9425 219.059 31.956 219.076 31.9707 219.091C32.4914 219.69 33.0453 220.259 33.6298 220.796C33.7805 220.937 33.9364 221.082 34.0974 221.218C34.3989 221.49 34.7107 221.746 35.0374 221.992C35.1631 222.093 35.2888 222.193 35.4197 222.289C35.9274 222.676 36.4603 223.033 37.0034 223.38C37.0127 223.38 37.0216 223.384 37.0284 223.39C37.1843 223.486 37.3453 223.581 37.5061 223.672C37.6569 223.762 37.8128 223.853 37.9637 223.938C38.1044 224.014 38.2402 224.089 38.3811 224.164L38.5669 224.26C38.9995 224.481 39.4367 224.692 39.8894 224.888C39.9395 224.913 39.995 224.934 40.0502 224.959C40.0905 224.974 40.1307 224.994 40.1707 225.009C40.1808 225.014 40.186 225.014 40.1908 225.019C40.402 225.105 40.6133 225.19 40.8294 225.27C41.5369 225.541 42.2587 225.773 42.9915 225.964C44.1711 226.281 45.3752 226.498 46.5912 226.613C47.3001 226.678 48.0091 226.713 48.723 226.713C49.432 226.713 50.1258 226.678 50.8196 226.613C51.0459 226.593 51.272 226.568 51.4984 226.542C52.8421 226.373 54.168 226.083 55.4602 225.678C55.464 225.677 55.4675 225.675 55.4702 225.673C56.4254 225.37 57.3579 225.001 58.2608 224.567C58.2657 224.562 58.2706 224.562 58.2757 224.557C58.4768 224.461 58.6729 224.36 58.874 224.26C58.9069 224.245 58.9388 224.228 58.9695 224.21C59.1303 224.129 59.2914 224.044 59.4473 223.958C59.6081 223.873 59.7639 223.782 59.9147 223.687C60.0757 223.601 60.2265 223.506 60.3823 223.41C60.4629 223.36 60.5433 223.31 60.6237 223.259C60.7344 223.194 60.8348 223.129 60.9455 223.053C61.0963 222.958 61.2472 222.852 61.3928 222.747C61.589 222.611 61.7851 222.47 61.9761 222.324C62.0405 222.282 62.1026 222.237 62.1622 222.188C65.8959 219.35 68.6365 215.404 69.9919 210.914C71.3473 206.424 71.2482 201.621 69.7087 197.19L69.7087 197.191ZM61.4282 221.218C61.2973 221.324 61.1616 221.424 61.0261 221.515C60.8901 221.615 60.7595 221.711 60.6237 221.801C60.5081 221.882 60.3924 221.962 60.2719 222.038C60.261 222.047 60.2491 222.056 60.2365 222.063C60.1511 222.123 60.0605 222.178 59.9751 222.234C59.9147 222.269 59.8546 222.309 59.7942 222.344C59.6182 222.455 59.4421 222.561 59.2612 222.661C59.1657 222.721 59.0651 222.777 58.9696 222.832C58.9345 222.852 58.8991 222.872 58.864 222.892C58.7081 222.978 58.5573 223.053 58.4064 223.134C58.3865 223.149 58.3612 223.154 58.3462 223.169C58.3369 223.169 58.3279 223.173 58.3209 223.179C58.1299 223.279 57.9338 223.375 57.7379 223.466C56.983 223.829 56.2053 224.143 55.4098 224.406C55.3094 224.441 55.2039 224.481 55.1032 224.511C53.821 224.918 52.5027 225.201 51.1665 225.356C51.0157 225.376 50.8598 225.391 50.704 225.406C50.0504 225.467 49.3918 225.497 48.7231 225.497C48.1297 225.497 47.5314 225.472 46.9432 225.421C45.7135 225.319 44.4953 225.107 43.3033 224.788C42.3959 224.551 41.5069 224.249 40.6436 223.883C40.5982 223.863 40.553 223.848 40.5078 223.828C40.4575 223.807 40.4172 223.792 40.3721 223.772C40.3218 223.752 40.2815 223.732 40.2312 223.707C39.9044 223.566 39.5777 223.41 39.261 223.249C39.2156 223.224 39.1704 223.204 39.1252 223.179L38.9492 223.088C38.8436 223.033 38.7381 222.978 38.6374 222.923C38.3006 222.742 37.9687 222.545 37.6471 222.344C37.5263 222.269 37.3957 222.188 37.2749 222.108L37.1843 222.048C36.9028 221.857 36.6214 221.666 36.3447 221.459C36.1587 221.319 35.9677 221.183 35.7867 221.037C35.4801 220.806 35.1833 220.559 34.8968 220.303C34.7458 220.177 34.5951 220.037 34.4544 219.906C33.8883 219.384 33.3528 218.83 32.8506 218.247C32.6847 218.056 32.5187 217.865 32.3628 217.664C32.3277 217.623 32.2975 217.583 32.2622 217.538C29.6702 214.268 28.111 210.299 27.7834 206.139C27.4559 201.979 28.3748 197.816 30.4231 194.18C32.4713 190.545 35.556 187.601 39.2838 185.726C43.0115 183.851 47.2134 183.128 51.3534 183.651C55.4935 184.173 59.3842 185.917 62.5292 188.659C65.6743 191.402 67.9312 195.019 69.012 199.05C70.0929 203.08 69.9488 207.341 68.5982 211.289C67.2475 215.238 64.7514 218.694 61.4283 221.218H61.4282Z" fill="#3F3D56"/>
<path d="M85.896 88.6341C78.1593 82.1058 68.6919 77.967 58.6459 76.7212C48.5999 75.4754 38.4084 77.1764 29.3115 81.6172C20.2146 86.0581 12.6046 93.0472 7.40743 101.734C2.21028 110.421 -0.349886 120.432 0.0384489 130.547C0.426784 140.663 3.74688 150.447 9.59473 158.71C15.4426 166.973 23.5661 173.358 32.9766 177.089C42.3872 180.819 52.6792 181.734 62.6001 179.721C72.521 177.709 81.6432 172.856 88.8566 165.754L152.91 219.802C153.885 220.622 155.146 221.021 156.415 220.913C157.684 220.805 158.859 220.198 159.681 219.225C160.504 218.253 160.907 216.993 160.802 215.724C160.698 214.454 160.094 213.278 159.124 212.453L159.117 212.447L95.0631 158.399C102.504 147.719 105.689 134.646 103.993 121.741C102.297 108.836 95.8433 97.0287 85.896 88.6341ZM81.7667 153.194C76.7766 159.108 70.1449 163.409 62.7103 165.554C55.2757 167.699 47.372 167.591 39.9987 165.244C32.6254 162.897 26.1137 158.416 21.287 152.368C16.4603 146.32 13.5354 138.977 12.8822 131.267C12.229 123.556 13.8768 115.826 17.6172 109.052C21.3577 102.278 27.0228 96.7658 33.8961 93.2118C40.7695 89.6577 48.5424 88.2216 56.2319 89.0852C63.9214 89.9487 71.1821 93.0731 77.096 98.0631C85.0262 104.755 89.9734 114.322 90.8493 124.661C91.7253 135 88.4581 145.264 81.7667 153.194Z" fill="#3F3D56"/>
<path opacity="0.3" d="M26.6362 157.864C19.1308 151.53 14.2817 142.606 13.0518 132.862C11.822 123.119 14.3012 113.27 19.9973 105.27C19.2492 106.023 18.5261 106.812 17.8278 107.636C14.5145 111.563 12.0071 116.104 10.4487 121C8.89028 125.895 8.31141 131.05 8.74512 136.169C9.17883 141.289 10.6166 146.273 12.9765 150.836C15.3363 155.4 18.5718 159.454 22.4985 162.768C26.4251 166.081 30.9659 168.588 35.8616 170.147C40.7573 171.705 45.912 172.284 51.0314 171.85C56.1508 171.417 61.1346 169.979 65.6984 167.619C70.2621 165.259 74.3163 162.024 77.6296 158.097C78.3263 157.271 78.9824 156.426 79.5978 155.56C72.6701 162.521 63.378 166.622 53.5666 167.049C43.7552 167.475 34.1421 164.197 26.6362 157.864Z" fill="black"/>
<path d="M215.029 221.822C215.529 221.211 215.889 220.498 216.084 219.733C216.279 218.968 216.304 218.169 216.157 217.393C216.01 216.617 215.694 215.883 215.233 215.243C214.771 214.602 214.175 214.07 213.486 213.685L201.81 165.896L193.293 168.615L205.9 216.078C205.33 217.278 205.22 218.647 205.591 219.923C205.962 221.2 206.788 222.296 207.913 223.004C209.038 223.712 210.384 223.983 211.695 223.765C213.007 223.547 214.193 222.856 215.029 221.822H215.029Z" fill="#FFB6B6"/>
<path d="M208.994 191.254L202.769 196.624L194.061 204.131L190.215 184.452L189.813 182.406L189.496 180.782L198.32 165.412L205.675 165.834L206.178 165.864L206.188 165.975L206.304 167.006L207.812 180.57L207.847 180.898L208.994 191.254Z" fill="#3F3D56"/>
<path d="M168.309 324.83L162.146 324.83L159.213 301.055L168.311 301.055L168.309 324.83Z" fill="#FFB6B6"/>
<path d="M169.881 330.804L150.006 330.804V330.552C150.006 328.501 150.821 326.533 152.272 325.082C153.723 323.632 155.69 322.817 157.742 322.816H157.742L169.881 322.817L169.881 330.804Z" fill="#2F2E41"/>
<path d="M232.665 325.332L226.501 325.332L223.568 301.557L232.666 301.557L232.665 325.332Z" fill="#FFB6B6"/>
<path d="M234.236 331.308L214.361 331.308V331.056C214.361 329.004 215.177 327.037 216.627 325.586C218.078 324.135 220.046 323.32 222.097 323.32H222.098L234.237 323.321L234.236 331.308Z" fill="#2F2E41"/>
<path d="M237.592 315.869L221 318.383L196.862 236.692L171.226 318.885L152.623 316.371L176.756 220.844V213.303L180.024 201.99L179.682 198.928L177.304 177.515L176.274 168.229L176.207 167.629C176.151 167.126 176.284 166.619 176.581 166.209C176.878 165.798 177.317 165.513 177.812 165.408L185.555 163.779H198.21L205.676 165.836L206.189 165.976L206.42 166.042L206.304 167.007L204.555 181.678L204.459 182.483L202.77 196.626L202.398 199.728C216.978 210.286 217.481 220.844 217.481 220.844L237.592 315.869Z" fill="#2F2E41"/>
<path d="M190.353 157.418C197.173 157.418 202.701 151.889 202.701 145.069C202.701 138.249 197.173 132.721 190.353 132.721C183.533 132.721 178.004 138.249 178.004 145.069C178.004 151.889 183.533 157.418 190.353 157.418Z" fill="#FFB6B6"/>
<path d="M203.323 196.889L178.895 200.084L179.351 203.574L203.779 200.379L203.323 196.889Z" fill="#3F3D56"/>
<path d="M146.126 201.136C146.36 201.287 146.581 201.457 146.788 201.642L170.95 195.483L172.598 189.654L181.72 190.992L179.805 201.595C179.65 202.451 179.222 203.234 178.584 203.827C177.946 204.419 177.134 204.788 176.268 204.88L148.057 207.851C147.597 208.819 146.853 209.624 145.925 210.159C144.996 210.694 143.927 210.934 142.858 210.846C141.79 210.759 140.774 210.348 139.945 209.669C139.116 208.99 138.513 208.075 138.217 207.044C137.921 206.014 137.946 204.919 138.287 203.903C138.629 202.887 139.272 202 140.131 201.358C140.99 200.717 142.023 200.352 143.094 200.312C144.165 200.273 145.223 200.56 146.126 201.136Z" fill="#FFB6B6"/>
<path d="M183.292 168.555L179.019 165.287C177.863 164.849 176.28 166.094 176.002 167.298L169.969 191.934L182.538 200.984L184.298 198.219L183.292 168.555Z" fill="#3F3D56"/>
<g opacity="0.2">
<path d="M207.812 180.572C206.746 180.995 205.658 181.365 204.554 181.678C204.203 181.784 203.841 181.884 203.484 181.98C201.131 182.633 198.713 183.024 196.274 183.146C195.224 183.191 194.172 183.162 193.126 183.061C192.004 182.949 190.894 182.73 189.813 182.407C189.778 182.397 189.738 182.387 189.702 182.377C187.454 181.739 185.393 180.568 183.694 178.963C183.315 178.593 182.96 178.199 182.633 177.782C181.695 176.632 181.006 175.299 180.611 173.868C180.216 172.437 180.124 170.939 180.341 169.471C180.383 169.205 180.44 168.941 180.512 168.681C180.701 167.974 180.952 167.284 181.261 166.62C181.397 166.308 181.548 166.002 181.708 165.7L187.39 163.779H198.209L205.676 165.836L206.178 165.866L206.188 165.976L206.42 166.042L206.304 167.007L207.812 180.572Z" fill="black"/>
</g>
<path d="M180.89 134.845C178.581 134.562 176.047 134.762 174.247 136.236C172.447 137.71 171.866 140.775 173.57 142.359C175.079 143.761 177.438 143.431 179.459 143.83C181.2 144.22 182.759 145.183 183.888 146.565C185.017 147.946 185.65 149.667 185.685 151.451C185.655 156.566 180.746 160.44 179.864 165.478C179.262 168.917 180.712 172.536 183.22 174.966C185.727 177.395 189.174 178.708 192.647 179.063C196.12 179.419 199.632 178.876 203.007 177.983C206.397 177.087 209.733 175.816 212.577 173.766C215.421 171.716 217.753 168.826 218.666 165.441C219.579 162.056 218.923 158.176 216.57 155.577C213.876 152.601 209.393 151.578 207.063 148.309C204.45 144.645 205.417 139.427 203.302 135.454C201.891 132.802 199.218 130.993 196.368 130.04C193.519 129.087 190.476 128.899 187.473 128.807C185.895 128.758 184.268 128.742 182.797 129.318C181.326 129.893 180.034 131.205 179.957 132.782C179.881 134.359 180.89 134.845 180.89 134.845Z" fill="#2F2E41"/>
<path d="M296.497 331.509H104.94C104.807 331.509 104.679 331.456 104.585 331.362C104.49 331.268 104.438 331.14 104.438 331.007C104.438 330.873 104.49 330.745 104.585 330.651C104.679 330.557 104.807 330.504 104.94 330.504H296.497C296.631 330.504 296.759 330.557 296.853 330.651C296.947 330.745 297 330.873 297 331.007C297 331.14 296.947 331.268 296.853 331.362C296.759 331.456 296.631 331.509 296.497 331.509Z" fill="#CACACA"/>
</svg>
