<svg xmlns="http://www.w3.org/2000/svg" width="388.251" height="489.818" viewBox="0 0 388.251 489.818">
  <g id="clint" transform="translate(-832.128 -2596.763)">
    <g id="Group_409" data-name="Group 409" transform="translate(754 581)">
      <g id="Polygon_5" data-name="Polygon 5" transform="translate(441.809 2114.382) rotate(90)" fill="#e75825">
        <path d="M 293.110595703125 338.605224609375 L 98.08856201171875 338.605224609375 L 0.5772162079811096 169.5526123046875 L 98.08860778808594 0.5000122785568237 L 293.110595703125 0.5000122785568237 L 390.6219787597656 169.5526123046875 L 293.110595703125 338.605224609375 Z" stroke="none"/>
        <path d="M 98.37741088867188 1 L 1.1544189453125 169.5526123046875 L 98.37741088867188 338.105224609375 L 292.8216857910156 338.105224609375 L 390.044677734375 169.5526123046875 L 292.8216857910156 1 L 98.37741088867188 1 M 97.79977416992188 0 L 293.3993225097656 0 L 391.1991271972656 169.5526123046875 L 293.3993225097656 339.105224609375 L 97.79977416992188 339.105224609375 L -3.0517578125e-05 169.5526123046875 L 97.79977416992188 0 Z" stroke="none" fill="#707070"/>
      </g>
      <g id="Polygon_4" data-name="Polygon 4" transform="translate(466.379 2015.763) rotate(90)" fill="#fff">
        <path d="M 335.8674011230469 387.7509155273438 L 112.3407287597656 387.7509155273438 L 0.5773364901542664 194.1254577636719 L 112.3407821655273 0.5000132918357849 L 335.8674011230469 0.5000132918357849 L 447.6307983398438 194.1254577636719 L 335.8674011230469 387.7509155273438 Z" stroke="none"/>
        <path d="M 112.6294555664062 1 L 1.15460205078125 194.1254577636719 L 112.62939453125 387.2509155273438 L 335.5787353515625 387.2509155273438 L 447.0535278320312 194.1254577636719 L 335.5787353515625 1 L 112.6294555664062 1 M 112.0520629882812 0 L 336.1561279296875 0 L 448.2081298828125 194.1254577636719 L 336.1561279296875 388.2509155273438 L 112.052001953125 388.2509155273438 L 0 194.1254577636719 L 112.0520629882812 0 Z" stroke="none" fill="#707070"/>
      </g>
      <path id="Path_464" data-name="Path 464" d="M131.231,21.22a8.978,8.978,0,0,1-3.267-.583,7.792,7.792,0,0,1-2.618-1.65,7.529,7.529,0,0,1-1.727-2.519A8.028,8.028,0,0,1,123,13.3a8.028,8.028,0,0,1,.616-3.168,7.453,7.453,0,0,1,1.738-2.519,7.939,7.939,0,0,1,2.618-1.65,9.511,9.511,0,0,1,6.732.066,6.84,6.84,0,0,1,2.64,1.925L135.5,9.692a5.412,5.412,0,0,0-4.114-1.8,5.961,5.961,0,0,0-2.211.4,5.079,5.079,0,0,0-2.882,2.838,5.675,5.675,0,0,0-.407,2.178,5.675,5.675,0,0,0,.407,2.178,5.079,5.079,0,0,0,2.882,2.838,5.961,5.961,0,0,0,2.211.4,5.551,5.551,0,0,0,2.244-.451,5.464,5.464,0,0,0,1.87-1.375l1.848,1.76a7.045,7.045,0,0,1-2.64,1.914A8.846,8.846,0,0,1,131.231,21.22Zm8.624-.22-.022-16.324h2.75V21Zm6.358,0-.022-11.748,2.728.022L148.941,21Zm1.364-13.684a1.734,1.734,0,0,1-1.265-.484,1.572,1.572,0,0,1-.5-1.166,1.562,1.562,0,0,1,.5-1.177,1.756,1.756,0,0,1,1.265-.473,1.806,1.806,0,0,1,1.265.451,1.468,1.468,0,0,1,.495,1.133,1.679,1.679,0,0,1-.484,1.221A1.7,1.7,0,0,1,147.577,7.316Zm10.494,13.838a7.159,7.159,0,0,1-3.421-.781,5.659,5.659,0,0,1-2.266-2.145,6,6,0,0,1-.8-3.1,6.114,6.114,0,0,1,.781-3.113,5.6,5.6,0,0,1,2.156-2.123,6.306,6.306,0,0,1,3.135-.77,6.174,6.174,0,0,1,3.058.748,5.415,5.415,0,0,1,2.112,2.112,6.427,6.427,0,0,1,.77,3.212q0,.176-.011.4t-.033.418h-9.79V14.18H162.1l-1.078.572a3.376,3.376,0,0,0-.418-1.782,3.219,3.219,0,0,0-1.2-1.21,3.424,3.424,0,0,0-1.749-.44,3.468,3.468,0,0,0-1.771.44,3.119,3.119,0,0,0-1.188,1.221,3.757,3.757,0,0,0-.429,1.837v.44a3.589,3.589,0,0,0,.484,1.87,3.227,3.227,0,0,0,1.364,1.254,4.467,4.467,0,0,0,2.024.44,4.884,4.884,0,0,0,1.782-.308,3.793,3.793,0,0,0,1.408-.968L162.8,19.24a5.176,5.176,0,0,1-1.991,1.419A7.127,7.127,0,0,1,158.071,21.154ZM172.9,9.12a5.6,5.6,0,0,1,2.519.55,4.031,4.031,0,0,1,1.749,1.683,5.9,5.9,0,0,1,.638,2.915V21h-2.75V14.62a3.26,3.26,0,0,0-.737-2.332,2.713,2.713,0,0,0-2.057-.77,3.612,3.612,0,0,0-1.716.4,2.714,2.714,0,0,0-1.155,1.177,4.238,4.238,0,0,0-.407,1.969V21h-2.75V9.252h2.618V12.42l-.462-.968a4.164,4.164,0,0,1,1.793-1.727A5.862,5.862,0,0,1,172.9,9.12Zm12.826,12.034a4.18,4.18,0,0,1-2.992-1,3.888,3.888,0,0,1-1.056-2.959V6.656h2.75V17.128a1.836,1.836,0,0,0,.429,1.3,1.555,1.555,0,0,0,1.2.462,2.416,2.416,0,0,0,1.54-.484l.77,1.958a3.231,3.231,0,0,1-1.188.594A5.337,5.337,0,0,1,185.725,21.154Zm-5.984-9.614V9.34h7.832v2.2ZM196.725,21,196.7,9.252l2.728.022L199.453,21Zm1.364-13.684a1.734,1.734,0,0,1-1.265-.484,1.572,1.572,0,0,1-.5-1.166,1.562,1.562,0,0,1,.5-1.177,1.756,1.756,0,0,1,1.265-.473,1.806,1.806,0,0,1,1.265.451,1.468,1.468,0,0,1,.495,1.133,1.679,1.679,0,0,1-.484,1.221A1.7,1.7,0,0,1,198.089,7.316Zm11.638,1.8a5.6,5.6,0,0,1,2.519.55A4.031,4.031,0,0,1,214,11.353a5.9,5.9,0,0,1,.638,2.915V21h-2.75V14.62a3.26,3.26,0,0,0-.737-2.332,2.713,2.713,0,0,0-2.057-.77,3.612,3.612,0,0,0-1.716.4,2.714,2.714,0,0,0-1.155,1.177,4.238,4.238,0,0,0-.407,1.969V21h-2.75V9.252h2.618V12.42l-.462-.968a4.164,4.164,0,0,1,1.793-1.727A5.862,5.862,0,0,1,209.727,9.12Zm12.826,12.034a4.18,4.18,0,0,1-2.992-1,3.888,3.888,0,0,1-1.056-2.959V6.656h2.75V17.128a1.836,1.836,0,0,0,.429,1.3,1.555,1.555,0,0,0,1.2.462,2.416,2.416,0,0,0,1.54-.484l.77,1.958a3.231,3.231,0,0,1-1.188.594A5.337,5.337,0,0,1,222.553,21.154Zm-5.984-9.614V9.34H224.4v2.2Zm16.016,9.614a7.159,7.159,0,0,1-3.421-.781,5.659,5.659,0,0,1-2.266-2.145,6,6,0,0,1-.8-3.1,6.114,6.114,0,0,1,.781-3.113,5.6,5.6,0,0,1,2.156-2.123,6.306,6.306,0,0,1,3.135-.77,6.174,6.174,0,0,1,3.058.748,5.415,5.415,0,0,1,2.112,2.112,6.427,6.427,0,0,1,.77,3.212q0,.176-.011.4t-.033.418h-9.79V14.18h8.338l-1.078.572a3.376,3.376,0,0,0-.418-1.782,3.219,3.219,0,0,0-1.2-1.21,3.424,3.424,0,0,0-1.749-.44,3.468,3.468,0,0,0-1.771.44,3.119,3.119,0,0,0-1.188,1.221,3.757,3.757,0,0,0-.429,1.837v.44a3.589,3.589,0,0,0,.484,1.87,3.227,3.227,0,0,0,1.364,1.254,4.467,4.467,0,0,0,2.024.44,4.884,4.884,0,0,0,1.782-.308,3.793,3.793,0,0,0,1.408-.968l1.474,1.694a5.176,5.176,0,0,1-1.991,1.419A7.127,7.127,0,0,1,232.585,21.154ZM240.747,21V9.252h2.618v3.234l-.308-.946a3.716,3.716,0,0,1,1.661-1.8,5.864,5.864,0,0,1,2.827-.616v2.618a1.935,1.935,0,0,0-.33-.055q-.154-.011-.308-.011a3.382,3.382,0,0,0-2.486.913A3.661,3.661,0,0,0,243.5,15.3V21Zm15.532,0V18.624l-.154-.506V13.96a2.434,2.434,0,0,0-.726-1.881,3.147,3.147,0,0,0-2.2-.671,6.319,6.319,0,0,0-1.947.308,4.783,4.783,0,0,0-1.617.858l-1.078-2a6.522,6.522,0,0,1,2.255-1.089,10.12,10.12,0,0,1,2.717-.363,5.812,5.812,0,0,1,3.949,1.221,4.751,4.751,0,0,1,1.4,3.773V21Zm-3.7.154a5.525,5.525,0,0,1-2.31-.451,3.569,3.569,0,0,1-1.529-1.254,3.182,3.182,0,0,1-.539-1.815,3.408,3.408,0,0,1,.473-1.782,3.189,3.189,0,0,1,1.551-1.254,7.371,7.371,0,0,1,2.86-.462h3.41v1.826h-3.212a2.865,2.865,0,0,0-1.892.451,1.459,1.459,0,0,0-.484,1.111,1.4,1.4,0,0,0,.594,1.188,2.723,2.723,0,0,0,1.65.44,3.573,3.573,0,0,0,1.815-.462,2.62,2.62,0,0,0,1.155-1.364l.462,1.65a3.056,3.056,0,0,1-1.419,1.606A5.248,5.248,0,0,1,252.583,21.154Zm15.224,0a6.792,6.792,0,0,1-3.289-.781,5.774,5.774,0,0,1-2.255-2.145,5.936,5.936,0,0,1-.814-3.1,5.92,5.92,0,0,1,.814-3.113,5.721,5.721,0,0,1,2.255-2.123,6.87,6.87,0,0,1,3.289-.77,6.37,6.37,0,0,1,3.025.693,4.605,4.605,0,0,1,1.991,2.035l-2.112,1.232a3.378,3.378,0,0,0-1.287-1.232,3.491,3.491,0,0,0-1.639-.4,3.778,3.778,0,0,0-1.826.44,3.162,3.162,0,0,0-1.276,1.265,3.969,3.969,0,0,0-.462,1.969,3.969,3.969,0,0,0,.462,1.969,3.162,3.162,0,0,0,1.276,1.265,3.778,3.778,0,0,0,1.826.44,3.491,3.491,0,0,0,1.639-.4,3.378,3.378,0,0,0,1.287-1.232l2.112,1.232a4.76,4.76,0,0,1-1.991,2.035A6.21,6.21,0,0,1,267.807,21.154Zm11.968,0a4.18,4.18,0,0,1-2.992-1,3.888,3.888,0,0,1-1.056-2.959V6.656h2.75V17.128a1.836,1.836,0,0,0,.429,1.3,1.555,1.555,0,0,0,1.2.462,2.416,2.416,0,0,0,1.54-.484l.77,1.958a3.231,3.231,0,0,1-1.188.594A5.337,5.337,0,0,1,279.775,21.154Zm-5.984-9.614V9.34h7.832v2.2ZM284.7,21l-.022-11.748,2.728.022L287.431,21Zm1.364-13.684a1.734,1.734,0,0,1-1.265-.484,1.572,1.572,0,0,1-.495-1.166,1.562,1.562,0,0,1,.495-1.177,1.757,1.757,0,0,1,1.265-.473,1.806,1.806,0,0,1,1.265.451,1.468,1.468,0,0,1,.5,1.133,1.679,1.679,0,0,1-.484,1.221A1.7,1.7,0,0,1,286.067,7.316Zm10.252,13.838a6.761,6.761,0,0,1-3.212-.792,5.78,5.78,0,0,1-2.222-2.123,5.92,5.92,0,0,1-.814-3.113,5.8,5.8,0,0,1,3.047-5.236,6.522,6.522,0,0,1,3.2-.77,6.631,6.631,0,0,1,3.234.77A5.806,5.806,0,0,1,301.775,12a5.9,5.9,0,0,1,.814,3.124,6,6,0,0,1-.8,3.1,5.637,5.637,0,0,1-2.233,2.134A6.894,6.894,0,0,1,296.319,21.154Zm0-2.354a3.652,3.652,0,0,0,1.8-.44,3.113,3.113,0,0,0,1.243-1.276,4.312,4.312,0,0,0,0-3.927,3.129,3.129,0,0,0-1.243-1.265,3.652,3.652,0,0,0-1.8-.44,3.545,3.545,0,0,0-1.771.44,3.224,3.224,0,0,0-1.243,1.265,3.969,3.969,0,0,0-.462,1.969,3.984,3.984,0,0,0,.462,1.958,3.283,3.283,0,0,0,1.243,1.287A3.324,3.324,0,0,0,296.319,18.8ZM311.9,9.12a5.6,5.6,0,0,1,2.519.55,4.031,4.031,0,0,1,1.749,1.683,5.9,5.9,0,0,1,.638,2.915V21h-2.75V14.62a3.26,3.26,0,0,0-.737-2.332,2.712,2.712,0,0,0-2.057-.77,3.612,3.612,0,0,0-1.716.4,2.714,2.714,0,0,0-1.155,1.177,4.238,4.238,0,0,0-.407,1.969V21h-2.75V9.252h2.618V12.42l-.462-.968a4.164,4.164,0,0,1,1.793-1.727A5.862,5.862,0,0,1,311.9,9.12ZM326.393,21l-.022-11.748,2.728.022L329.121,21Zm1.364-13.684a1.734,1.734,0,0,1-1.265-.484A1.572,1.572,0,0,1,326,5.666a1.562,1.562,0,0,1,.495-1.177,1.757,1.757,0,0,1,1.265-.473,1.806,1.806,0,0,1,1.265.451,1.468,1.468,0,0,1,.5,1.133,1.679,1.679,0,0,1-.484,1.221A1.7,1.7,0,0,1,327.757,7.316Zm8.6,13.838a10.28,10.28,0,0,1-2.827-.385,7.273,7.273,0,0,1-2.145-.935l1.056-2.09a7.51,7.51,0,0,0,1.892.836,7.622,7.622,0,0,0,2.2.33,3.791,3.791,0,0,0,1.881-.352,1.067,1.067,0,0,0,.583-.946.821.821,0,0,0-.4-.737,3.08,3.08,0,0,0-1.034-.385q-.638-.132-1.419-.242t-1.562-.3a5.391,5.391,0,0,1-1.419-.55,2.94,2.94,0,0,1-1.034-.979,2.973,2.973,0,0,1-.4-1.628,3.09,3.09,0,0,1,.638-1.947,4.073,4.073,0,0,1,1.793-1.276,7.521,7.521,0,0,1,2.739-.451,11.223,11.223,0,0,1,2.4.264,6.49,6.49,0,0,1,2,.748l-1.056,2.09a5.569,5.569,0,0,0-1.683-.693,7.787,7.787,0,0,0-1.683-.187,3.619,3.619,0,0,0-1.859.374,1.1,1.1,0,0,0-.605.946.888.888,0,0,0,.4.792,3.231,3.231,0,0,0,1.034.418,13.09,13.09,0,0,0,1.419.253,12.57,12.57,0,0,1,1.551.3,6.54,6.54,0,0,1,1.419.539,2.733,2.733,0,0,1,1.045.957,2.927,2.927,0,0,1,.4,1.606,2.979,2.979,0,0,1-.649,1.914A4.178,4.178,0,0,1,339.2,20.7,8,8,0,0,1,336.359,21.154Zm18.194,0a4.18,4.18,0,0,1-2.992-1,3.888,3.888,0,0,1-1.056-2.959V6.656h2.75V17.128a1.836,1.836,0,0,0,.429,1.3,1.555,1.555,0,0,0,1.2.462,2.416,2.416,0,0,0,1.54-.484l.77,1.958a3.231,3.231,0,0,1-1.188.594A5.337,5.337,0,0,1,354.553,21.154Zm-5.984-9.614V9.34H356.4v2.2Zm17.556-2.42a5.6,5.6,0,0,1,2.519.55,4.031,4.031,0,0,1,1.749,1.683,5.9,5.9,0,0,1,.638,2.915V21h-2.75V14.62a3.26,3.26,0,0,0-.737-2.332,2.712,2.712,0,0,0-2.057-.77,3.612,3.612,0,0,0-1.716.4,2.714,2.714,0,0,0-1.155,1.177,4.238,4.238,0,0,0-.407,1.969V21h-2.75V4.676h2.75V12.42l-.594-.968a4.164,4.164,0,0,1,1.793-1.727A5.862,5.862,0,0,1,366.125,9.12Zm13.948,12.034a7.159,7.159,0,0,1-3.421-.781,5.658,5.658,0,0,1-2.266-2.145,6,6,0,0,1-.8-3.1,6.114,6.114,0,0,1,.781-3.113A5.6,5.6,0,0,1,376.52,9.89a6.306,6.306,0,0,1,3.135-.77,6.174,6.174,0,0,1,3.058.748,5.415,5.415,0,0,1,2.112,2.112,6.427,6.427,0,0,1,.77,3.212q0,.176-.011.4t-.033.418h-9.79V14.18H384.1l-1.078.572a3.376,3.376,0,0,0-.418-1.782,3.219,3.219,0,0,0-1.2-1.21,3.424,3.424,0,0,0-1.749-.44,3.468,3.468,0,0,0-1.771.44,3.118,3.118,0,0,0-1.188,1.221,3.757,3.757,0,0,0-.429,1.837v.44a3.589,3.589,0,0,0,.484,1.87,3.227,3.227,0,0,0,1.364,1.254,4.467,4.467,0,0,0,2.024.44,4.884,4.884,0,0,0,1.782-.308,3.793,3.793,0,0,0,1.408-.968L384.8,19.24a5.176,5.176,0,0,1-1.991,1.419A7.127,7.127,0,0,1,380.073,21.154ZM394.681,21V8.592a4.045,4.045,0,0,1,1.089-2.959,4.163,4.163,0,0,1,3.113-1.111,5.94,5.94,0,0,1,1.375.154,2.914,2.914,0,0,1,1.089.484L400.6,7.228a2.14,2.14,0,0,0-.7-.363,2.77,2.77,0,0,0-.814-.121,1.687,1.687,0,0,0-1.3.473,2.018,2.018,0,0,0-.44,1.419v1.32l.088,1.232V21Zm-1.936-9.46V9.34h7.832v2.2Zm9.79,9.46-.022-11.748,2.728.022L405.263,21ZM403.9,7.316a1.734,1.734,0,0,1-1.265-.484,1.572,1.572,0,0,1-.5-1.166,1.562,1.562,0,0,1,.5-1.177,1.756,1.756,0,0,1,1.265-.473,1.806,1.806,0,0,1,1.265.451,1.468,1.468,0,0,1,.495,1.133,1.679,1.679,0,0,1-.484,1.221A1.7,1.7,0,0,1,403.9,7.316ZM408.871,21V9.252h2.618v3.234l-.308-.946a3.715,3.715,0,0,1,1.661-1.8,5.864,5.864,0,0,1,2.827-.616v2.618a1.935,1.935,0,0,0-.33-.055q-.154-.011-.308-.011a3.382,3.382,0,0,0-2.486.913,3.661,3.661,0,0,0-.924,2.717V21Zm12.87.154a10.28,10.28,0,0,1-2.827-.385,7.273,7.273,0,0,1-2.145-.935l1.056-2.09a7.51,7.51,0,0,0,1.892.836,7.622,7.622,0,0,0,2.2.33,3.791,3.791,0,0,0,1.881-.352,1.067,1.067,0,0,0,.583-.946.821.821,0,0,0-.4-.737,3.08,3.08,0,0,0-1.034-.385q-.638-.132-1.419-.242t-1.562-.3a5.391,5.391,0,0,1-1.419-.55,2.94,2.94,0,0,1-1.034-.979,2.973,2.973,0,0,1-.4-1.628,3.09,3.09,0,0,1,.638-1.947,4.073,4.073,0,0,1,1.793-1.276,7.521,7.521,0,0,1,2.739-.451,11.223,11.223,0,0,1,2.4.264,6.49,6.49,0,0,1,2,.748l-1.056,2.09a5.569,5.569,0,0,0-1.683-.693,7.787,7.787,0,0,0-1.683-.187,3.619,3.619,0,0,0-1.859.374,1.1,1.1,0,0,0-.605.946.888.888,0,0,0,.4.792,3.231,3.231,0,0,0,1.034.418,13.09,13.09,0,0,0,1.419.253,12.57,12.57,0,0,1,1.551.3,6.54,6.54,0,0,1,1.419.539,2.733,2.733,0,0,1,1.045.957,2.927,2.927,0,0,1,.4,1.606,2.979,2.979,0,0,1-.649,1.914,4.178,4.178,0,0,1-1.837,1.265A8,8,0,0,1,421.741,21.154Zm12.122,0a4.18,4.18,0,0,1-2.992-1,3.888,3.888,0,0,1-1.056-2.959V6.656h2.75V17.128a1.836,1.836,0,0,0,.429,1.3,1.555,1.555,0,0,0,1.2.462,2.416,2.416,0,0,0,1.54-.484l.77,1.958a3.231,3.231,0,0,1-1.188.594A5.337,5.337,0,0,1,433.863,21.154Zm-5.984-9.614V9.34h7.832v2.2ZM121.188,48l-.022-11.748,2.728.022L123.916,48Zm1.364-13.684a1.734,1.734,0,0,1-1.265-.484,1.634,1.634,0,0,1,0-2.343,1.756,1.756,0,0,1,1.265-.473,1.806,1.806,0,0,1,1.265.451,1.468,1.468,0,0,1,.495,1.133,1.679,1.679,0,0,1-.484,1.221A1.7,1.7,0,0,1,122.552,34.316Zm19.8,1.8a5.465,5.465,0,0,1,2.5.55,3.933,3.933,0,0,1,1.705,1.683,6.073,6.073,0,0,1,.616,2.915V48h-2.75V41.62a3.433,3.433,0,0,0-.682-2.332,2.478,2.478,0,0,0-1.958-.77,3.158,3.158,0,0,0-1.6.4,2.685,2.685,0,0,0-1.078,1.166,4.371,4.371,0,0,0-.385,1.958V48h-2.75V41.62a3.433,3.433,0,0,0-.682-2.332,2.478,2.478,0,0,0-1.958-.77,3.158,3.158,0,0,0-1.6.4,2.685,2.685,0,0,0-1.078,1.166,4.371,4.371,0,0,0-.385,1.958V48h-2.75V36.252h2.618v3.124l-.462-.924a3.994,3.994,0,0,1,1.727-1.738,5.484,5.484,0,0,1,2.585-.594,5.054,5.054,0,0,1,2.871.814A3.919,3.919,0,0,1,138.48,39.4l-1.078-.374a4.533,4.533,0,0,1,1.892-2.112A5.828,5.828,0,0,1,142.352,36.12ZM157.2,48.154a5.238,5.238,0,0,1-2.607-.66,4.691,4.691,0,0,1-1.87-1.991,7.28,7.28,0,0,1-.693-3.377,7.468,7.468,0,0,1,.671-3.388,4.523,4.523,0,0,1,1.837-1.969,5.38,5.38,0,0,1,2.662-.649,6.157,6.157,0,0,1,3.069.748,5.557,5.557,0,0,1,2.112,2.09,6.838,6.838,0,0,1,0,6.347,5.534,5.534,0,0,1-2.112,2.1A6.157,6.157,0,0,1,157.2,48.154Zm-6.512,4.114V36.252h2.618v2.772l-.088,3.124.22,3.124v7Zm6.2-6.468a3.545,3.545,0,0,0,1.771-.44,3.205,3.205,0,0,0,1.243-1.276,4.4,4.4,0,0,0,0-3.927,3.223,3.223,0,0,0-1.243-1.265,3.545,3.545,0,0,0-1.771-.44,3.607,3.607,0,0,0-1.782.44,3.2,3.2,0,0,0-1.254,1.265,4.4,4.4,0,0,0,0,3.927,3.183,3.183,0,0,0,1.254,1.276A3.607,3.607,0,0,0,156.894,45.8Zm8.888,2.2V36.252H168.4v3.234l-.308-.946a3.716,3.716,0,0,1,1.661-1.8,5.864,5.864,0,0,1,2.827-.616v2.618a1.935,1.935,0,0,0-.33-.055q-.154-.011-.308-.011a3.382,3.382,0,0,0-2.486.913,3.661,3.661,0,0,0-.924,2.717V48Zm14.542.154a7.159,7.159,0,0,1-3.421-.781,5.659,5.659,0,0,1-2.266-2.145,6,6,0,0,1-.8-3.1,6.114,6.114,0,0,1,.781-3.113,5.6,5.6,0,0,1,2.156-2.123,6.306,6.306,0,0,1,3.135-.77,6.174,6.174,0,0,1,3.058.748,5.415,5.415,0,0,1,2.112,2.112,6.427,6.427,0,0,1,.77,3.212q0,.176-.011.4t-.033.418h-9.79V41.18h8.338l-1.078.572a3.376,3.376,0,0,0-.418-1.782,3.219,3.219,0,0,0-1.2-1.21,3.424,3.424,0,0,0-1.749-.44,3.468,3.468,0,0,0-1.771.44,3.119,3.119,0,0,0-1.188,1.221,3.757,3.757,0,0,0-.429,1.837v.44a3.589,3.589,0,0,0,.484,1.87,3.227,3.227,0,0,0,1.364,1.254,4.467,4.467,0,0,0,2.024.44,4.884,4.884,0,0,0,1.782-.308,3.793,3.793,0,0,0,1.408-.968l1.474,1.694a5.176,5.176,0,0,1-1.991,1.419A7.127,7.127,0,0,1,180.324,48.154Zm11.792,0a10.28,10.28,0,0,1-2.827-.385,7.273,7.273,0,0,1-2.145-.935l1.056-2.09a7.51,7.51,0,0,0,1.892.836,7.622,7.622,0,0,0,2.2.33,3.791,3.791,0,0,0,1.881-.352,1.067,1.067,0,0,0,.583-.946.821.821,0,0,0-.4-.737,3.08,3.08,0,0,0-1.034-.385q-.638-.132-1.419-.242t-1.562-.3a5.391,5.391,0,0,1-1.419-.55,2.939,2.939,0,0,1-1.034-.979,2.973,2.973,0,0,1-.4-1.628,3.09,3.09,0,0,1,.638-1.947,4.073,4.073,0,0,1,1.793-1.276,7.521,7.521,0,0,1,2.739-.451,11.224,11.224,0,0,1,2.4.264,6.49,6.49,0,0,1,2,.748l-1.056,2.09a5.569,5.569,0,0,0-1.683-.693,7.788,7.788,0,0,0-1.683-.187,3.619,3.619,0,0,0-1.859.374,1.1,1.1,0,0,0-.6.946.888.888,0,0,0,.4.792,3.23,3.23,0,0,0,1.034.418,13.091,13.091,0,0,0,1.419.253,12.568,12.568,0,0,1,1.551.3,6.541,6.541,0,0,1,1.419.539,2.733,2.733,0,0,1,1.045.957,2.927,2.927,0,0,1,.4,1.606,2.979,2.979,0,0,1-.649,1.914,4.178,4.178,0,0,1-1.837,1.265A8,8,0,0,1,192.116,48.154Zm11.33,0a10.28,10.28,0,0,1-2.827-.385,7.273,7.273,0,0,1-2.145-.935l1.056-2.09a7.51,7.51,0,0,0,1.892.836,7.622,7.622,0,0,0,2.2.33,3.791,3.791,0,0,0,1.881-.352,1.067,1.067,0,0,0,.583-.946.821.821,0,0,0-.4-.737,3.08,3.08,0,0,0-1.034-.385q-.638-.132-1.419-.242t-1.562-.3a5.391,5.391,0,0,1-1.419-.55,2.939,2.939,0,0,1-1.034-.979,2.973,2.973,0,0,1-.4-1.628,3.09,3.09,0,0,1,.638-1.947,4.073,4.073,0,0,1,1.793-1.276A7.521,7.521,0,0,1,204,36.12a11.224,11.224,0,0,1,2.4.264,6.49,6.49,0,0,1,2,.748l-1.056,2.09a5.569,5.569,0,0,0-1.683-.693,7.788,7.788,0,0,0-1.683-.187,3.619,3.619,0,0,0-1.859.374,1.1,1.1,0,0,0-.6.946.888.888,0,0,0,.4.792,3.23,3.23,0,0,0,1.034.418,13.091,13.091,0,0,0,1.419.253,12.568,12.568,0,0,1,1.551.3,6.541,6.541,0,0,1,1.419.539,2.733,2.733,0,0,1,1.045.957,2.927,2.927,0,0,1,.4,1.606,2.979,2.979,0,0,1-.649,1.914,4.178,4.178,0,0,1-1.837,1.265A8,8,0,0,1,203.446,48.154ZM211.168,48l-.022-11.748,2.728.022L213.9,48Zm1.364-13.684a1.734,1.734,0,0,1-1.265-.484,1.634,1.634,0,0,1,0-2.343,1.756,1.756,0,0,1,1.265-.473,1.806,1.806,0,0,1,1.265.451,1.468,1.468,0,0,1,.495,1.133,1.679,1.679,0,0,1-.484,1.221A1.7,1.7,0,0,1,212.532,34.316Zm10.252,13.838a6.761,6.761,0,0,1-3.212-.792,5.781,5.781,0,0,1-2.222-2.123,5.92,5.92,0,0,1-.814-3.113,5.8,5.8,0,0,1,3.047-5.236,6.522,6.522,0,0,1,3.2-.77,6.631,6.631,0,0,1,3.234.77A5.807,5.807,0,0,1,228.24,39a5.9,5.9,0,0,1,.814,3.124,6,6,0,0,1-.8,3.1,5.637,5.637,0,0,1-2.233,2.134A6.894,6.894,0,0,1,222.784,48.154Zm0-2.354a3.652,3.652,0,0,0,1.8-.44,3.112,3.112,0,0,0,1.243-1.276,4.312,4.312,0,0,0,0-3.927,3.129,3.129,0,0,0-1.243-1.265,3.652,3.652,0,0,0-1.8-.44,3.545,3.545,0,0,0-1.771.44,3.223,3.223,0,0,0-1.243,1.265,4.4,4.4,0,0,0,0,3.927,3.283,3.283,0,0,0,1.243,1.287A3.324,3.324,0,0,0,222.784,45.8Zm15.576-9.68a5.6,5.6,0,0,1,2.519.55,4.031,4.031,0,0,1,1.749,1.683,5.9,5.9,0,0,1,.638,2.915V48h-2.75V41.62a3.26,3.26,0,0,0-.737-2.332,2.712,2.712,0,0,0-2.057-.77,3.612,3.612,0,0,0-1.716.4,2.714,2.714,0,0,0-1.155,1.177,4.238,4.238,0,0,0-.407,1.969V48h-2.75V36.252h2.618V39.42l-.462-.968a4.164,4.164,0,0,1,1.793-1.727A5.862,5.862,0,0,1,238.36,36.12ZM260.074,48V45.624l-.154-.506V40.96a2.434,2.434,0,0,0-.726-1.881,3.147,3.147,0,0,0-2.2-.671,6.318,6.318,0,0,0-1.947.308,4.783,4.783,0,0,0-1.617.858l-1.078-2a6.522,6.522,0,0,1,2.255-1.089,10.121,10.121,0,0,1,2.717-.363,5.812,5.812,0,0,1,3.949,1.221,4.751,4.751,0,0,1,1.4,3.773V48Zm-3.7.154a5.525,5.525,0,0,1-2.31-.451,3.569,3.569,0,0,1-1.529-1.254A3.182,3.182,0,0,1,252,44.634a3.408,3.408,0,0,1,.473-1.782,3.189,3.189,0,0,1,1.551-1.254,7.371,7.371,0,0,1,2.86-.462h3.41v1.826h-3.212a2.865,2.865,0,0,0-1.892.451,1.459,1.459,0,0,0-.484,1.111,1.4,1.4,0,0,0,.594,1.188,2.723,2.723,0,0,0,1.65.44,3.573,3.573,0,0,0,1.815-.462,2.619,2.619,0,0,0,1.155-1.364l.462,1.65a3.056,3.056,0,0,1-1.419,1.606A5.248,5.248,0,0,1,256.378,48.154Zm21.274,0a6.792,6.792,0,0,1-3.289-.781,5.774,5.774,0,0,1-2.255-2.145,6.339,6.339,0,0,1,0-6.215,5.721,5.721,0,0,1,2.255-2.123,6.87,6.87,0,0,1,3.289-.77,6.37,6.37,0,0,1,3.025.693,4.605,4.605,0,0,1,1.991,2.035l-2.112,1.232a3.378,3.378,0,0,0-1.287-1.232,3.491,3.491,0,0,0-1.639-.4,3.778,3.778,0,0,0-1.826.44,3.162,3.162,0,0,0-1.276,1.265,4.427,4.427,0,0,0,0,3.938A3.162,3.162,0,0,0,275.8,45.36a3.778,3.778,0,0,0,1.826.44,3.491,3.491,0,0,0,1.639-.4,3.378,3.378,0,0,0,1.287-1.232l2.112,1.232a4.76,4.76,0,0,1-1.991,2.035A6.21,6.21,0,0,1,277.652,48.154Zm7.3-.154-.022-16.324h2.75V48Zm6.358,0-.022-11.748,2.728.022L294.042,48Zm1.364-13.684a1.734,1.734,0,0,1-1.265-.484,1.634,1.634,0,0,1,0-2.343,1.757,1.757,0,0,1,1.265-.473,1.806,1.806,0,0,1,1.265.451,1.468,1.468,0,0,1,.5,1.133,1.679,1.679,0,0,1-.484,1.221A1.7,1.7,0,0,1,292.678,34.316Zm10.494,13.838a7.159,7.159,0,0,1-3.421-.781,5.658,5.658,0,0,1-2.266-2.145,6,6,0,0,1-.8-3.1,6.114,6.114,0,0,1,.781-3.113,5.6,5.6,0,0,1,2.156-2.123,6.306,6.306,0,0,1,3.135-.77,6.174,6.174,0,0,1,3.058.748,5.415,5.415,0,0,1,2.112,2.112,6.427,6.427,0,0,1,.77,3.212q0,.176-.011.4t-.033.418h-9.79V41.18H307.2l-1.078.572a3.376,3.376,0,0,0-.418-1.782,3.219,3.219,0,0,0-1.2-1.21,3.424,3.424,0,0,0-1.749-.44,3.468,3.468,0,0,0-1.771.44,3.118,3.118,0,0,0-1.188,1.221,3.757,3.757,0,0,0-.429,1.837v.44a3.589,3.589,0,0,0,.484,1.87,3.227,3.227,0,0,0,1.364,1.254,4.467,4.467,0,0,0,2.024.44,4.884,4.884,0,0,0,1.782-.308,3.793,3.793,0,0,0,1.408-.968L307.9,46.24a5.176,5.176,0,0,1-1.991,1.419A7.127,7.127,0,0,1,303.172,48.154ZM318,36.12a5.6,5.6,0,0,1,2.519.55,4.031,4.031,0,0,1,1.749,1.683,5.9,5.9,0,0,1,.638,2.915V48h-2.75V41.62a3.26,3.26,0,0,0-.737-2.332,2.712,2.712,0,0,0-2.057-.77,3.612,3.612,0,0,0-1.716.4,2.714,2.714,0,0,0-1.155,1.177,4.238,4.238,0,0,0-.407,1.969V48h-2.75V36.252h2.618V39.42l-.462-.968a4.164,4.164,0,0,1,1.793-1.727A5.862,5.862,0,0,1,318,36.12Zm12.826,12.034a4.18,4.18,0,0,1-2.992-1,3.888,3.888,0,0,1-1.056-2.959V33.656h2.75V44.128a1.836,1.836,0,0,0,.429,1.3,1.555,1.555,0,0,0,1.2.462,2.416,2.416,0,0,0,1.54-.484l.77,1.958a3.231,3.231,0,0,1-1.188.594A5.337,5.337,0,0,1,330.826,48.154Zm-5.984-9.614v-2.2h7.832v2.2ZM344.4,48l-4.312-11.748h2.6l3.7,10.362h-1.232l3.872-10.362h2.31l3.762,10.362h-1.21l3.806-10.362h2.442L355.8,48h-2.64l-3.432-9.174h.814L347.04,48Zm17.644,0-.022-11.748,2.728.022L364.772,48Zm1.364-13.684a1.734,1.734,0,0,1-1.265-.484,1.634,1.634,0,0,1,0-2.343,1.757,1.757,0,0,1,1.265-.473,1.806,1.806,0,0,1,1.265.451,1.468,1.468,0,0,1,.5,1.133,1.679,1.679,0,0,1-.484,1.221A1.7,1.7,0,0,1,363.408,34.316ZM368.4,48l-.022-16.324h2.75V48Zm6.358,0-.022-16.324h2.75V48Zm19.074-11.88a5.6,5.6,0,0,1,2.519.55,4.031,4.031,0,0,1,1.749,1.683,5.9,5.9,0,0,1,.638,2.915V48h-2.75V41.62a3.26,3.26,0,0,0-.737-2.332,2.712,2.712,0,0,0-2.057-.77,3.612,3.612,0,0,0-1.716.4,2.714,2.714,0,0,0-1.155,1.177,4.238,4.238,0,0,0-.407,1.969V48h-2.75V31.676h2.75V39.42l-.594-.968a4.164,4.164,0,0,1,1.793-1.727A5.862,5.862,0,0,1,393.834,36.12ZM409.476,48V45.624l-.154-.506V40.96a2.434,2.434,0,0,0-.726-1.881,3.146,3.146,0,0,0-2.2-.671,6.318,6.318,0,0,0-1.947.308,4.783,4.783,0,0,0-1.617.858l-1.078-2a6.522,6.522,0,0,1,2.255-1.089,10.12,10.12,0,0,1,2.717-.363,5.812,5.812,0,0,1,3.949,1.221,4.751,4.751,0,0,1,1.4,3.773V48Zm-3.7.154a5.525,5.525,0,0,1-2.31-.451,3.569,3.569,0,0,1-1.529-1.254,3.182,3.182,0,0,1-.539-1.815,3.408,3.408,0,0,1,.473-1.782,3.189,3.189,0,0,1,1.551-1.254,7.371,7.371,0,0,1,2.86-.462h3.41v1.826h-3.212a2.865,2.865,0,0,0-1.892.451,1.459,1.459,0,0,0-.484,1.111,1.4,1.4,0,0,0,.594,1.188,2.723,2.723,0,0,0,1.65.44,3.573,3.573,0,0,0,1.815-.462,2.619,2.619,0,0,0,1.155-1.364l.462,1.65a3.056,3.056,0,0,1-1.419,1.606A5.248,5.248,0,0,1,405.78,48.154ZM418.5,48l-5.038-11.748h2.86l4.334,10.362h-1.408l4.488-10.362h2.64L421.334,48Zm14.784.154a7.159,7.159,0,0,1-3.421-.781,5.658,5.658,0,0,1-2.266-2.145,6,6,0,0,1-.8-3.1,6.114,6.114,0,0,1,.781-3.113,5.6,5.6,0,0,1,2.156-2.123,6.306,6.306,0,0,1,3.135-.77,6.174,6.174,0,0,1,3.058.748,5.415,5.415,0,0,1,2.112,2.112,6.427,6.427,0,0,1,.77,3.212q0,.176-.011.4t-.033.418h-9.79V41.18h8.338l-1.078.572a3.376,3.376,0,0,0-.418-1.782,3.219,3.219,0,0,0-1.2-1.21,3.424,3.424,0,0,0-1.749-.44,3.468,3.468,0,0,0-1.771.44,3.118,3.118,0,0,0-1.188,1.221,3.757,3.757,0,0,0-.429,1.837v.44a3.589,3.589,0,0,0,.484,1.87,3.227,3.227,0,0,0,1.364,1.254,4.467,4.467,0,0,0,2.024.44,4.884,4.884,0,0,0,1.782-.308,3.793,3.793,0,0,0,1.408-.968l1.474,1.694a5.176,5.176,0,0,1-1.991,1.419A7.127,7.127,0,0,1,433.28,48.154ZM113.345,75V72.624l-.154-.506V67.96a2.434,2.434,0,0,0-.726-1.881,3.147,3.147,0,0,0-2.2-.671,6.318,6.318,0,0,0-1.947.308,4.783,4.783,0,0,0-1.617.858l-1.078-2a6.522,6.522,0,0,1,2.255-1.089,10.121,10.121,0,0,1,2.717-.363,5.812,5.812,0,0,1,3.949,1.221,4.751,4.751,0,0,1,1.4,3.773V75Zm-3.7.154a5.525,5.525,0,0,1-2.31-.451,3.569,3.569,0,0,1-1.529-1.254,3.182,3.182,0,0,1-.539-1.815,3.408,3.408,0,0,1,.473-1.782,3.189,3.189,0,0,1,1.551-1.254,7.371,7.371,0,0,1,2.86-.462h3.41v1.826h-3.212a2.865,2.865,0,0,0-1.892.451,1.459,1.459,0,0,0-.484,1.111,1.4,1.4,0,0,0,.594,1.188,2.723,2.723,0,0,0,1.65.44,3.573,3.573,0,0,0,1.815-.462,2.62,2.62,0,0,0,1.155-1.364l.462,1.65a3.056,3.056,0,0,1-1.419,1.606A5.248,5.248,0,0,1,109.649,75.154Zm16.324,0a5.309,5.309,0,0,1-2.662-.66,4.58,4.58,0,0,1-1.837-1.991,7.482,7.482,0,0,1-.671-3.377,7.266,7.266,0,0,1,.693-3.388,4.633,4.633,0,0,1,1.87-1.969,5.308,5.308,0,0,1,2.607-.649,6.157,6.157,0,0,1,3.069.748,5.557,5.557,0,0,1,2.112,2.09,6.816,6.816,0,0,1,0,6.336,5.638,5.638,0,0,1-2.112,2.1A6.086,6.086,0,0,1,125.973,75.154ZM119.461,75V58.676h2.75v7.3l-.22,3.124.088,3.124V75Zm6.2-2.2a3.545,3.545,0,0,0,1.771-.44,3.205,3.205,0,0,0,1.243-1.276,4.4,4.4,0,0,0,0-3.927,3.223,3.223,0,0,0-1.243-1.265,3.545,3.545,0,0,0-1.771-.44,3.607,3.607,0,0,0-1.782.44,3.2,3.2,0,0,0-1.254,1.265,4.4,4.4,0,0,0,0,3.927,3.183,3.183,0,0,0,1.254,1.276A3.607,3.607,0,0,0,125.665,72.8Zm14.168,2.354a6.761,6.761,0,0,1-3.212-.792,5.781,5.781,0,0,1-2.222-2.123,5.92,5.92,0,0,1-.814-3.113,5.8,5.8,0,0,1,3.047-5.236,6.522,6.522,0,0,1,3.2-.77,6.631,6.631,0,0,1,3.234.77A5.807,5.807,0,0,1,145.289,66a5.9,5.9,0,0,1,.814,3.124,6,6,0,0,1-.8,3.1,5.637,5.637,0,0,1-2.233,2.134A6.894,6.894,0,0,1,139.833,75.154Zm0-2.354a3.652,3.652,0,0,0,1.8-.44,3.112,3.112,0,0,0,1.243-1.276,4.312,4.312,0,0,0,0-3.927,3.129,3.129,0,0,0-1.243-1.265,3.652,3.652,0,0,0-1.8-.44,3.545,3.545,0,0,0-1.771.44,3.223,3.223,0,0,0-1.243,1.265,4.4,4.4,0,0,0,0,3.927,3.283,3.283,0,0,0,1.243,1.287A3.324,3.324,0,0,0,139.833,72.8Zm13.882,2.354a5.924,5.924,0,0,1-2.64-.561,4.026,4.026,0,0,1-1.782-1.716,5.976,5.976,0,0,1-.638-2.915v-6.71h2.75v6.336a3.4,3.4,0,0,0,.715,2.365,2.62,2.62,0,0,0,2.035.781,3.42,3.42,0,0,0,1.683-.4,2.753,2.753,0,0,0,1.122-1.188,4.252,4.252,0,0,0,.407-1.958v-5.94h2.75V75H157.5V71.832l.462.968a4.044,4.044,0,0,1-1.738,1.749A5.281,5.281,0,0,1,153.715,75.154Zm14.432,0a4.18,4.18,0,0,1-2.992-1,3.888,3.888,0,0,1-1.056-2.959V60.656h2.75V71.128a1.836,1.836,0,0,0,.429,1.3,1.555,1.555,0,0,0,1.2.462,2.416,2.416,0,0,0,1.54-.484l.77,1.958a3.231,3.231,0,0,1-1.188.594A5.337,5.337,0,0,1,168.147,75.154Zm-5.984-9.614v-2.2h7.832v2.2ZM184.4,75.154a6.761,6.761,0,0,1-3.212-.792,5.781,5.781,0,0,1-2.222-2.123,5.92,5.92,0,0,1-.814-3.113A5.8,5.8,0,0,1,181.2,63.89a6.522,6.522,0,0,1,3.2-.77,6.631,6.631,0,0,1,3.234.77A5.807,5.807,0,0,1,189.861,66a5.9,5.9,0,0,1,.814,3.124,6,6,0,0,1-.8,3.1,5.637,5.637,0,0,1-2.233,2.134A6.894,6.894,0,0,1,184.4,75.154Zm0-2.354a3.652,3.652,0,0,0,1.8-.44,3.112,3.112,0,0,0,1.243-1.276,4.312,4.312,0,0,0,0-3.927,3.129,3.129,0,0,0-1.243-1.265,3.652,3.652,0,0,0-1.8-.44,3.545,3.545,0,0,0-1.771.44,3.223,3.223,0,0,0-1.243,1.265,4.4,4.4,0,0,0,0,3.927,3.283,3.283,0,0,0,1.243,1.287A3.324,3.324,0,0,0,184.4,72.8Zm13.882,2.354a5.924,5.924,0,0,1-2.64-.561,4.026,4.026,0,0,1-1.782-1.716,5.976,5.976,0,0,1-.638-2.915v-6.71h2.75v6.336a3.4,3.4,0,0,0,.715,2.365,2.62,2.62,0,0,0,2.035.781,3.42,3.42,0,0,0,1.683-.4,2.753,2.753,0,0,0,1.122-1.188,4.252,4.252,0,0,0,.407-1.958v-5.94h2.75V75h-2.618V71.832l.462.968a4.044,4.044,0,0,1-1.738,1.749A5.281,5.281,0,0,1,198.287,75.154ZM208.3,75V63.252h2.618v3.234l-.308-.946a3.716,3.716,0,0,1,1.661-1.8,5.864,5.864,0,0,1,2.827-.616v2.618a1.934,1.934,0,0,0-.33-.055q-.154-.011-.308-.011a3.382,3.382,0,0,0-2.486.913,3.661,3.661,0,0,0-.924,2.717V75Zm21.824.154a5.309,5.309,0,0,1-2.662-.66,4.58,4.58,0,0,1-1.837-1.991,7.482,7.482,0,0,1-.671-3.377,7.266,7.266,0,0,1,.693-3.388,4.633,4.633,0,0,1,1.87-1.969,5.308,5.308,0,0,1,2.607-.649,6.157,6.157,0,0,1,3.069.748,5.557,5.557,0,0,1,2.112,2.09,6.816,6.816,0,0,1,0,6.336,5.638,5.638,0,0,1-2.112,2.1A6.086,6.086,0,0,1,230.121,75.154ZM223.609,75V58.676h2.75v7.3l-.22,3.124.088,3.124V75Zm6.2-2.2a3.545,3.545,0,0,0,1.771-.44,3.205,3.205,0,0,0,1.243-1.276,4.4,4.4,0,0,0,0-3.927,3.223,3.223,0,0,0-1.243-1.265,3.545,3.545,0,0,0-1.771-.44,3.607,3.607,0,0,0-1.782.44,3.2,3.2,0,0,0-1.254,1.265,4.4,4.4,0,0,0,0,3.927,3.183,3.183,0,0,0,1.254,1.276A3.607,3.607,0,0,0,229.813,72.8Zm13.86,2.354a5.924,5.924,0,0,1-2.64-.561,4.026,4.026,0,0,1-1.782-1.716,5.976,5.976,0,0,1-.638-2.915v-6.71h2.75v6.336a3.4,3.4,0,0,0,.715,2.365,2.62,2.62,0,0,0,2.035.781,3.42,3.42,0,0,0,1.683-.4,2.753,2.753,0,0,0,1.122-1.188,4.252,4.252,0,0,0,.407-1.958v-5.94h2.75V75h-2.618V71.832l.462.968a4.044,4.044,0,0,1-1.738,1.749A5.281,5.281,0,0,1,243.673,75.154Zm13.64,0a10.28,10.28,0,0,1-2.827-.385,7.273,7.273,0,0,1-2.145-.935l1.056-2.09a7.51,7.51,0,0,0,1.892.836,7.622,7.622,0,0,0,2.2.33,3.791,3.791,0,0,0,1.881-.352,1.067,1.067,0,0,0,.583-.946.821.821,0,0,0-.4-.737,3.081,3.081,0,0,0-1.034-.385q-.638-.132-1.419-.242t-1.562-.3a5.391,5.391,0,0,1-1.419-.55,2.939,2.939,0,0,1-1.034-.979,2.973,2.973,0,0,1-.4-1.628,3.09,3.09,0,0,1,.638-1.947,4.073,4.073,0,0,1,1.793-1.276,7.521,7.521,0,0,1,2.739-.451,11.224,11.224,0,0,1,2.4.264,6.49,6.49,0,0,1,2,.748l-1.056,2.09a5.569,5.569,0,0,0-1.683-.693,7.787,7.787,0,0,0-1.683-.187,3.619,3.619,0,0,0-1.859.374,1.1,1.1,0,0,0-.6.946.888.888,0,0,0,.4.792,3.231,3.231,0,0,0,1.034.418,13.09,13.09,0,0,0,1.419.253,12.571,12.571,0,0,1,1.551.3,6.541,6.541,0,0,1,1.419.539,2.733,2.733,0,0,1,1.045.957,2.927,2.927,0,0,1,.4,1.606,2.979,2.979,0,0,1-.649,1.914,4.178,4.178,0,0,1-1.837,1.265A8,8,0,0,1,257.313,75.154ZM265.035,75l-.022-11.748,2.728.022L267.763,75ZM266.4,61.316a1.734,1.734,0,0,1-1.265-.484,1.634,1.634,0,0,1,0-2.343,1.757,1.757,0,0,1,1.265-.473,1.806,1.806,0,0,1,1.265.451,1.468,1.468,0,0,1,.5,1.133,1.679,1.679,0,0,1-.484,1.221A1.7,1.7,0,0,1,266.4,61.316Zm11.638,1.8a5.6,5.6,0,0,1,2.519.55,4.031,4.031,0,0,1,1.749,1.683,5.9,5.9,0,0,1,.638,2.915V75h-2.75V68.62a3.259,3.259,0,0,0-.737-2.332,2.712,2.712,0,0,0-2.057-.77,3.612,3.612,0,0,0-1.716.4,2.714,2.714,0,0,0-1.155,1.177,4.238,4.238,0,0,0-.407,1.969V75h-2.75V63.252h2.618V66.42l-.462-.968a4.164,4.164,0,0,1,1.793-1.727A5.862,5.862,0,0,1,278.037,63.12Zm13.948,12.034a7.159,7.159,0,0,1-3.421-.781,5.658,5.658,0,0,1-2.266-2.145,6,6,0,0,1-.8-3.1,6.114,6.114,0,0,1,.781-3.113,5.6,5.6,0,0,1,2.156-2.123,6.306,6.306,0,0,1,3.135-.77,6.174,6.174,0,0,1,3.058.748,5.415,5.415,0,0,1,2.112,2.112,6.427,6.427,0,0,1,.77,3.212q0,.176-.011.4t-.033.418h-9.79V68.18h8.338l-1.078.572a3.376,3.376,0,0,0-.418-1.782,3.219,3.219,0,0,0-1.2-1.21,3.424,3.424,0,0,0-1.749-.44,3.468,3.468,0,0,0-1.771.44,3.118,3.118,0,0,0-1.188,1.221,3.757,3.757,0,0,0-.429,1.837v.44a3.589,3.589,0,0,0,.484,1.87,3.227,3.227,0,0,0,1.364,1.254,4.467,4.467,0,0,0,2.024.44,4.884,4.884,0,0,0,1.782-.308,3.793,3.793,0,0,0,1.408-.968l1.474,1.694a5.176,5.176,0,0,1-1.991,1.419A7.127,7.127,0,0,1,291.985,75.154Zm11.792,0a10.28,10.28,0,0,1-2.827-.385,7.272,7.272,0,0,1-2.145-.935l1.056-2.09a7.51,7.51,0,0,0,1.892.836,7.622,7.622,0,0,0,2.2.33,3.791,3.791,0,0,0,1.881-.352,1.067,1.067,0,0,0,.583-.946.821.821,0,0,0-.4-.737,3.081,3.081,0,0,0-1.034-.385q-.638-.132-1.419-.242t-1.562-.3a5.391,5.391,0,0,1-1.419-.55,2.94,2.94,0,0,1-1.034-.979,2.973,2.973,0,0,1-.4-1.628,3.09,3.09,0,0,1,.638-1.947,4.073,4.073,0,0,1,1.793-1.276,7.521,7.521,0,0,1,2.739-.451,11.224,11.224,0,0,1,2.4.264,6.49,6.49,0,0,1,2,.748l-1.056,2.09a5.569,5.569,0,0,0-1.683-.693,7.787,7.787,0,0,0-1.683-.187,3.619,3.619,0,0,0-1.859.374,1.1,1.1,0,0,0-.605.946.888.888,0,0,0,.4.792,3.231,3.231,0,0,0,1.034.418,13.09,13.09,0,0,0,1.419.253,12.571,12.571,0,0,1,1.551.3,6.541,6.541,0,0,1,1.419.539,2.733,2.733,0,0,1,1.045.957,2.927,2.927,0,0,1,.4,1.606,2.979,2.979,0,0,1-.649,1.914,4.178,4.178,0,0,1-1.837,1.265A8,8,0,0,1,303.777,75.154Zm11.33,0a10.28,10.28,0,0,1-2.827-.385,7.272,7.272,0,0,1-2.145-.935l1.056-2.09a7.51,7.51,0,0,0,1.892.836,7.622,7.622,0,0,0,2.2.33,3.791,3.791,0,0,0,1.881-.352,1.067,1.067,0,0,0,.583-.946.821.821,0,0,0-.4-.737,3.081,3.081,0,0,0-1.034-.385q-.638-.132-1.419-.242t-1.562-.3a5.391,5.391,0,0,1-1.419-.55,2.94,2.94,0,0,1-1.034-.979,2.973,2.973,0,0,1-.4-1.628,3.09,3.09,0,0,1,.638-1.947,4.073,4.073,0,0,1,1.793-1.276,7.521,7.521,0,0,1,2.739-.451,11.224,11.224,0,0,1,2.4.264,6.49,6.49,0,0,1,2,.748L319,66.222a5.569,5.569,0,0,0-1.683-.693,7.787,7.787,0,0,0-1.683-.187,3.619,3.619,0,0,0-1.859.374,1.1,1.1,0,0,0-.605.946.888.888,0,0,0,.4.792,3.231,3.231,0,0,0,1.034.418,13.09,13.09,0,0,0,1.419.253,12.571,12.571,0,0,1,1.551.3,6.541,6.541,0,0,1,1.419.539,2.733,2.733,0,0,1,1.045.957,2.927,2.927,0,0,1,.4,1.606,2.979,2.979,0,0,1-.649,1.914,4.178,4.178,0,0,1-1.837,1.265A8,8,0,0,1,315.107,75.154Zm18.48.066a7.477,7.477,0,0,1-2.882-.528,4.824,4.824,0,0,1-2-1.452,3.357,3.357,0,0,1-.726-2.134,4.04,4.04,0,0,1,.484-1.98A5.521,5.521,0,0,1,330,67.443a16.754,16.754,0,0,1,2.706-1.617,19.577,19.577,0,0,0,2.035-1.122,3.665,3.665,0,0,0,1.034-.924,1.626,1.626,0,0,0,.3-.924,1.354,1.354,0,0,0-.462-1.067,1.935,1.935,0,0,0-1.32-.407,2.121,2.121,0,0,0-1.441.451,1.488,1.488,0,0,0-.517,1.177,1.912,1.912,0,0,0,.143.726,3.062,3.062,0,0,0,.517.792q.374.44,1.078,1.122l8.14,7.81-1.518,1.782-8.8-8.448a11.718,11.718,0,0,1-1.21-1.342,4.361,4.361,0,0,1-.66-1.2,3.7,3.7,0,0,1-.2-1.2,3.351,3.351,0,0,1,.55-1.9,3.565,3.565,0,0,1,1.562-1.276,5.737,5.737,0,0,1,2.354-.451,5.291,5.291,0,0,1,2.167.407A3.318,3.318,0,0,1,337.888,61a3.146,3.146,0,0,1,.517,1.815,3.289,3.289,0,0,1-.462,1.7A5.068,5.068,0,0,1,336.5,66a16.982,16.982,0,0,1-2.607,1.474,12.257,12.257,0,0,0-1.914,1.122,3.745,3.745,0,0,0-1.012,1.056,2.272,2.272,0,0,0-.308,1.166,1.75,1.75,0,0,0,.385,1.122,2.527,2.527,0,0,0,1.089.759,4.522,4.522,0,0,0,1.65.275,5.119,5.119,0,0,0,4.51-2.508,8.884,8.884,0,0,0,1.144-3.1l2.222.726a10.033,10.033,0,0,1-1.6,3.817,7.8,7.8,0,0,1-2.783,2.453A7.89,7.89,0,0,1,333.587,75.22ZM357.721,75V72.624l-.154-.506V67.96a2.434,2.434,0,0,0-.726-1.881,3.146,3.146,0,0,0-2.2-.671,6.318,6.318,0,0,0-1.947.308,4.783,4.783,0,0,0-1.617.858l-1.078-2a6.521,6.521,0,0,1,2.255-1.089,10.12,10.12,0,0,1,2.717-.363,5.812,5.812,0,0,1,3.949,1.221,4.751,4.751,0,0,1,1.4,3.773V75Zm-3.7.154a5.525,5.525,0,0,1-2.31-.451,3.569,3.569,0,0,1-1.529-1.254,3.182,3.182,0,0,1-.539-1.815,3.408,3.408,0,0,1,.473-1.782,3.189,3.189,0,0,1,1.551-1.254,7.371,7.371,0,0,1,2.86-.462h3.41v1.826h-3.212a2.865,2.865,0,0,0-1.892.451,1.459,1.459,0,0,0-.484,1.111,1.4,1.4,0,0,0,.594,1.188,2.723,2.723,0,0,0,1.65.44,3.573,3.573,0,0,0,1.815-.462,2.619,2.619,0,0,0,1.155-1.364l.462,1.65a3.056,3.056,0,0,1-1.419,1.606A5.248,5.248,0,0,1,354.025,75.154ZM370.283,75V62.592a4.045,4.045,0,0,1,1.089-2.959,4.163,4.163,0,0,1,3.113-1.111,5.94,5.94,0,0,1,1.375.154,2.914,2.914,0,0,1,1.089.484l-.748,2.068a2.14,2.14,0,0,0-.7-.363,2.77,2.77,0,0,0-.814-.121,1.687,1.687,0,0,0-1.3.473,2.018,2.018,0,0,0-.44,1.419v1.32l.088,1.232V75Zm-1.936-9.46v-2.2h7.832v2.2Zm9.7,9.46V63.252h2.618v3.234l-.308-.946a3.715,3.715,0,0,1,1.661-1.8,5.864,5.864,0,0,1,2.827-.616v2.618a1.934,1.934,0,0,0-.33-.055q-.154-.011-.308-.011a3.382,3.382,0,0,0-2.486.913A3.661,3.661,0,0,0,380.8,69.3V75Zm9.152,0-.022-11.748,2.728.022L389.929,75Zm1.364-13.684a1.734,1.734,0,0,1-1.265-.484,1.634,1.634,0,0,1,0-2.343,1.757,1.757,0,0,1,1.265-.473,1.806,1.806,0,0,1,1.265.451,1.468,1.468,0,0,1,.5,1.133,1.679,1.679,0,0,1-.484,1.221A1.7,1.7,0,0,1,388.565,61.316Zm10.494,13.838a7.159,7.159,0,0,1-3.421-.781,5.658,5.658,0,0,1-2.266-2.145,6,6,0,0,1-.8-3.1,6.114,6.114,0,0,1,.781-3.113,5.6,5.6,0,0,1,2.156-2.123,6.306,6.306,0,0,1,3.135-.77,6.174,6.174,0,0,1,3.058.748,5.415,5.415,0,0,1,2.112,2.112,6.427,6.427,0,0,1,.77,3.212q0,.176-.011.4t-.033.418h-9.79V68.18h8.338l-1.078.572a3.376,3.376,0,0,0-.418-1.782,3.219,3.219,0,0,0-1.2-1.21,3.424,3.424,0,0,0-1.749-.44,3.468,3.468,0,0,0-1.771.44,3.118,3.118,0,0,0-1.188,1.221,3.757,3.757,0,0,0-.429,1.837v.44a3.589,3.589,0,0,0,.484,1.87,3.227,3.227,0,0,0,1.364,1.254,4.467,4.467,0,0,0,2.024.44,4.884,4.884,0,0,0,1.782-.308,3.793,3.793,0,0,0,1.408-.968l1.474,1.694a5.176,5.176,0,0,1-1.991,1.419A7.127,7.127,0,0,1,399.059,75.154ZM413.887,63.12a5.6,5.6,0,0,1,2.519.55,4.031,4.031,0,0,1,1.749,1.683,5.9,5.9,0,0,1,.638,2.915V75h-2.75V68.62a3.259,3.259,0,0,0-.737-2.332,2.712,2.712,0,0,0-2.057-.77,3.612,3.612,0,0,0-1.716.4,2.714,2.714,0,0,0-1.155,1.177,4.238,4.238,0,0,0-.407,1.969V75h-2.75V63.252h2.618V66.42l-.462-.968a4.164,4.164,0,0,1,1.793-1.727A5.862,5.862,0,0,1,413.887,63.12Zm13.4,12.034a6.119,6.119,0,0,1-3.047-.759,5.513,5.513,0,0,1-2.123-2.1,6.9,6.9,0,0,1,0-6.336,5.436,5.436,0,0,1,2.123-2.09,6.191,6.191,0,0,1,3.047-.748,5.335,5.335,0,0,1,2.64.649,4.588,4.588,0,0,1,1.848,1.969,7.365,7.365,0,0,1,.682,3.388,7.589,7.589,0,0,1-.66,3.377,4.515,4.515,0,0,1-1.826,1.991A5.354,5.354,0,0,1,427.285,75.154Zm.33-2.354a3.545,3.545,0,0,0,1.771-.44,3.28,3.28,0,0,0,1.254-1.276,4.312,4.312,0,0,0,0-3.927,3.3,3.3,0,0,0-1.254-1.265,3.784,3.784,0,0,0-3.542,0,3.3,3.3,0,0,0-1.254,1.265,4.312,4.312,0,0,0,0,3.927,3.28,3.28,0,0,0,1.254,1.276A3.545,3.545,0,0,0,427.615,72.8Zm3.564,2.2V72.228l.11-3.124-.22-3.124v-7.3H433.8V75Zm6.27,0-.022-16.324h2.75V75Zm7.3,4.422a5.4,5.4,0,0,1-1.716-.286,4.07,4.07,0,0,1-1.43-.792l1.1-2.024a3.326,3.326,0,0,0,.946.594,2.779,2.779,0,0,0,1.078.22,1.864,1.864,0,0,0,1.21-.374,3.384,3.384,0,0,0,.858-1.254l.682-1.54.22-.33,4.444-10.384h2.64l-5.5,12.694a7.663,7.663,0,0,1-1.221,2.09,3.71,3.71,0,0,1-1.5,1.078A5.152,5.152,0,0,1,444.753,79.422Zm2.42-4-5.3-12.166h2.86l4.312,10.142ZM129.933,102V99.624l-.154-.506V94.96a2.434,2.434,0,0,0-.726-1.881,3.147,3.147,0,0,0-2.2-.671,6.318,6.318,0,0,0-1.947.308,4.783,4.783,0,0,0-1.617.858l-1.078-2a6.522,6.522,0,0,1,2.255-1.089,10.121,10.121,0,0,1,2.717-.363,5.812,5.812,0,0,1,3.949,1.221,4.751,4.751,0,0,1,1.4,3.773V102Zm-3.7.154a5.525,5.525,0,0,1-2.31-.451,3.569,3.569,0,0,1-1.529-1.254,3.182,3.182,0,0,1-.539-1.815,3.408,3.408,0,0,1,.473-1.782,3.189,3.189,0,0,1,1.551-1.254,7.371,7.371,0,0,1,2.86-.462h3.41v1.826h-3.212a2.865,2.865,0,0,0-1.892.451,1.459,1.459,0,0,0-.484,1.111,1.4,1.4,0,0,0,.594,1.188,2.723,2.723,0,0,0,1.65.44,3.573,3.573,0,0,0,1.815-.462,2.62,2.62,0,0,0,1.155-1.364l.462,1.65a3.056,3.056,0,0,1-1.419,1.606A5.248,5.248,0,0,1,126.237,102.154ZM142.715,90.12a5.6,5.6,0,0,1,2.519.55,4.031,4.031,0,0,1,1.749,1.683,5.9,5.9,0,0,1,.638,2.915V102h-2.75V95.62a3.259,3.259,0,0,0-.737-2.332,2.713,2.713,0,0,0-2.057-.77,3.612,3.612,0,0,0-1.716.4,2.714,2.714,0,0,0-1.155,1.177,4.238,4.238,0,0,0-.407,1.969V102h-2.75V90.252h2.618V93.42l-.462-.968A4.164,4.164,0,0,1,140,90.725,5.862,5.862,0,0,1,142.715,90.12Zm13.4,12.034a6.119,6.119,0,0,1-3.047-.759,5.513,5.513,0,0,1-2.123-2.1,6.9,6.9,0,0,1,0-6.336,5.436,5.436,0,0,1,2.123-2.09,6.191,6.191,0,0,1,3.047-.748,5.335,5.335,0,0,1,2.64.649,4.588,4.588,0,0,1,1.848,1.969,7.365,7.365,0,0,1,.682,3.388,7.589,7.589,0,0,1-.66,3.377,4.515,4.515,0,0,1-1.826,1.991A5.354,5.354,0,0,1,156.113,102.154Zm.33-2.354a3.545,3.545,0,0,0,1.771-.44,3.279,3.279,0,0,0,1.254-1.276,4.312,4.312,0,0,0,0-3.927,3.3,3.3,0,0,0-1.254-1.265,3.784,3.784,0,0,0-3.542,0,3.3,3.3,0,0,0-1.254,1.265,4.312,4.312,0,0,0,0,3.927,3.28,3.28,0,0,0,1.254,1.276A3.545,3.545,0,0,0,156.443,99.8Zm3.564,2.2V99.228l.11-3.124-.22-3.124v-7.3h2.728V102Zm18.832.154a5.238,5.238,0,0,1-2.607-.66,4.691,4.691,0,0,1-1.87-1.991,7.28,7.28,0,0,1-.693-3.377,7.468,7.468,0,0,1,.671-3.388,4.523,4.523,0,0,1,1.837-1.969,5.38,5.38,0,0,1,2.662-.649,6.157,6.157,0,0,1,3.069.748,5.557,5.557,0,0,1,2.112,2.09,6.838,6.838,0,0,1,0,6.347,5.534,5.534,0,0,1-2.112,2.1A6.157,6.157,0,0,1,178.839,102.154Zm-6.512,4.114V90.252h2.618v2.772l-.088,3.124.22,3.124v7Zm6.2-6.468a3.545,3.545,0,0,0,1.771-.44,3.205,3.205,0,0,0,1.243-1.276,4.4,4.4,0,0,0,0-3.927,3.223,3.223,0,0,0-1.243-1.265,3.545,3.545,0,0,0-1.771-.44,3.607,3.607,0,0,0-1.782.44,3.2,3.2,0,0,0-1.254,1.265,4.4,4.4,0,0,0,0,3.927,3.183,3.183,0,0,0,1.254,1.276A3.607,3.607,0,0,0,178.531,99.8Zm8.888,2.2V90.252h2.618v3.234l-.308-.946a3.716,3.716,0,0,1,1.661-1.8,5.864,5.864,0,0,1,2.827-.616v2.618a1.934,1.934,0,0,0-.33-.055q-.154-.011-.308-.011a3.382,3.382,0,0,0-2.486.913,3.661,3.661,0,0,0-.924,2.717V102Zm14.3.154a6.761,6.761,0,0,1-3.212-.792,5.781,5.781,0,0,1-2.222-2.123,5.92,5.92,0,0,1-.814-3.113,5.8,5.8,0,0,1,3.047-5.236,6.522,6.522,0,0,1,3.2-.77,6.631,6.631,0,0,1,3.234.77A5.807,5.807,0,0,1,207.175,93a5.9,5.9,0,0,1,.814,3.124,6,6,0,0,1-.8,3.1,5.637,5.637,0,0,1-2.233,2.134A6.894,6.894,0,0,1,201.719,102.154Zm0-2.354a3.652,3.652,0,0,0,1.8-.44,3.112,3.112,0,0,0,1.243-1.276,4.312,4.312,0,0,0,0-3.927,3.129,3.129,0,0,0-1.243-1.265,3.652,3.652,0,0,0-1.8-.44,3.545,3.545,0,0,0-1.771.44,3.223,3.223,0,0,0-1.243,1.265,4.4,4.4,0,0,0,0,3.927,3.283,3.283,0,0,0,1.243,1.287A3.324,3.324,0,0,0,201.719,99.8ZM211,102V89.592a4.045,4.045,0,0,1,1.089-2.959,4.163,4.163,0,0,1,3.113-1.111,5.94,5.94,0,0,1,1.375.154,2.914,2.914,0,0,1,1.089.484l-.748,2.068a2.14,2.14,0,0,0-.7-.363,2.77,2.77,0,0,0-.814-.121,1.687,1.687,0,0,0-1.3.473,2.018,2.018,0,0,0-.44,1.419v1.32l.088,1.232V102Zm-1.936-9.46v-2.2H216.9v2.2Zm15.026,9.614a7.159,7.159,0,0,1-3.421-.781,5.659,5.659,0,0,1-2.266-2.145,6,6,0,0,1-.8-3.1,6.114,6.114,0,0,1,.781-3.113,5.6,5.6,0,0,1,2.156-2.123,6.306,6.306,0,0,1,3.135-.77,6.174,6.174,0,0,1,3.058.748,5.415,5.415,0,0,1,2.112,2.112,6.427,6.427,0,0,1,.77,3.212q0,.176-.011.4t-.033.418h-9.79V95.18h8.338l-1.078.572a3.376,3.376,0,0,0-.418-1.782,3.219,3.219,0,0,0-1.2-1.21,3.424,3.424,0,0,0-1.749-.44,3.468,3.468,0,0,0-1.771.44,3.118,3.118,0,0,0-1.188,1.221,3.757,3.757,0,0,0-.429,1.837v.44a3.589,3.589,0,0,0,.484,1.87,3.227,3.227,0,0,0,1.364,1.254,4.467,4.467,0,0,0,2.024.44,4.884,4.884,0,0,0,1.782-.308,3.793,3.793,0,0,0,1.408-.968l1.474,1.694a5.176,5.176,0,0,1-1.991,1.419A7.126,7.126,0,0,1,224.093,102.154Zm11.792,0a10.28,10.28,0,0,1-2.827-.385,7.273,7.273,0,0,1-2.145-.935l1.056-2.09a7.51,7.51,0,0,0,1.892.836,7.622,7.622,0,0,0,2.2.33,3.791,3.791,0,0,0,1.881-.352,1.067,1.067,0,0,0,.583-.946.821.821,0,0,0-.4-.737,3.08,3.08,0,0,0-1.034-.385q-.638-.132-1.419-.242t-1.562-.3a5.391,5.391,0,0,1-1.419-.55,2.939,2.939,0,0,1-1.034-.979,2.973,2.973,0,0,1-.4-1.628,3.09,3.09,0,0,1,.638-1.947,4.073,4.073,0,0,1,1.793-1.276,7.52,7.52,0,0,1,2.739-.451,11.223,11.223,0,0,1,2.4.264,6.49,6.49,0,0,1,2,.748l-1.056,2.09a5.569,5.569,0,0,0-1.683-.693,7.788,7.788,0,0,0-1.683-.187,3.619,3.619,0,0,0-1.859.374,1.1,1.1,0,0,0-.6.946.888.888,0,0,0,.4.792,3.23,3.23,0,0,0,1.034.418,13.091,13.091,0,0,0,1.419.253,12.569,12.569,0,0,1,1.551.3,6.541,6.541,0,0,1,1.419.539,2.733,2.733,0,0,1,1.045.957,2.927,2.927,0,0,1,.4,1.606,2.979,2.979,0,0,1-.649,1.914,4.178,4.178,0,0,1-1.837,1.265A8,8,0,0,1,235.885,102.154Zm11.33,0a10.28,10.28,0,0,1-2.827-.385,7.273,7.273,0,0,1-2.145-.935l1.056-2.09a7.51,7.51,0,0,0,1.892.836,7.622,7.622,0,0,0,2.2.33,3.791,3.791,0,0,0,1.881-.352,1.067,1.067,0,0,0,.583-.946.821.821,0,0,0-.4-.737,3.08,3.08,0,0,0-1.034-.385q-.638-.132-1.419-.242t-1.562-.3a5.391,5.391,0,0,1-1.419-.55,2.939,2.939,0,0,1-1.034-.979,2.973,2.973,0,0,1-.4-1.628,3.09,3.09,0,0,1,.638-1.947,4.073,4.073,0,0,1,1.793-1.276,7.52,7.52,0,0,1,2.739-.451,11.223,11.223,0,0,1,2.4.264,6.49,6.49,0,0,1,2,.748l-1.056,2.09a5.569,5.569,0,0,0-1.683-.693,7.788,7.788,0,0,0-1.683-.187,3.619,3.619,0,0,0-1.859.374,1.1,1.1,0,0,0-.6.946.888.888,0,0,0,.4.792,3.23,3.23,0,0,0,1.034.418,13.091,13.091,0,0,0,1.419.253,12.569,12.569,0,0,1,1.551.3,6.541,6.541,0,0,1,1.419.539,2.733,2.733,0,0,1,1.045.957,2.927,2.927,0,0,1,.4,1.606,2.979,2.979,0,0,1-.649,1.914,4.178,4.178,0,0,1-1.837,1.265A8,8,0,0,1,247.215,102.154Zm7.722-.154-.022-11.748,2.728.022L257.665,102ZM256.3,88.316a1.734,1.734,0,0,1-1.265-.484,1.634,1.634,0,0,1,0-2.343,1.756,1.756,0,0,1,1.265-.473,1.806,1.806,0,0,1,1.265.451,1.468,1.468,0,0,1,.495,1.133,1.679,1.679,0,0,1-.484,1.221A1.7,1.7,0,0,1,256.3,88.316Zm10.252,13.838a6.761,6.761,0,0,1-3.212-.792,5.78,5.78,0,0,1-2.222-2.123,5.92,5.92,0,0,1-.814-3.113,5.8,5.8,0,0,1,3.047-5.236,6.522,6.522,0,0,1,3.2-.77,6.631,6.631,0,0,1,3.234.77A5.806,5.806,0,0,1,272.009,93a5.9,5.9,0,0,1,.814,3.124,6,6,0,0,1-.8,3.1,5.637,5.637,0,0,1-2.233,2.134A6.894,6.894,0,0,1,266.553,102.154Zm0-2.354a3.652,3.652,0,0,0,1.8-.44,3.113,3.113,0,0,0,1.243-1.276,4.312,4.312,0,0,0,0-3.927,3.129,3.129,0,0,0-1.243-1.265,3.652,3.652,0,0,0-1.8-.44,3.545,3.545,0,0,0-1.771.44,3.224,3.224,0,0,0-1.243,1.265,4.4,4.4,0,0,0,0,3.927,3.283,3.283,0,0,0,1.243,1.287A3.324,3.324,0,0,0,266.553,99.8Zm15.576-9.68a5.6,5.6,0,0,1,2.519.55,4.031,4.031,0,0,1,1.749,1.683,5.9,5.9,0,0,1,.638,2.915V102h-2.75V95.62a3.259,3.259,0,0,0-.737-2.332,2.712,2.712,0,0,0-2.057-.77,3.612,3.612,0,0,0-1.716.4,2.714,2.714,0,0,0-1.155,1.177,4.238,4.238,0,0,0-.407,1.969V102h-2.75V90.252h2.618V93.42l-.462-.968a4.164,4.164,0,0,1,1.793-1.727A5.862,5.862,0,0,1,282.129,90.12ZM297.771,102V99.624l-.154-.506V94.96a2.434,2.434,0,0,0-.726-1.881,3.146,3.146,0,0,0-2.2-.671,6.318,6.318,0,0,0-1.947.308,4.783,4.783,0,0,0-1.617.858l-1.078-2a6.521,6.521,0,0,1,2.255-1.089,10.12,10.12,0,0,1,2.717-.363,5.812,5.812,0,0,1,3.949,1.221,4.751,4.751,0,0,1,1.4,3.773V102Zm-3.7.154a5.525,5.525,0,0,1-2.31-.451,3.569,3.569,0,0,1-1.529-1.254,3.182,3.182,0,0,1-.539-1.815,3.408,3.408,0,0,1,.473-1.782,3.189,3.189,0,0,1,1.551-1.254,7.371,7.371,0,0,1,2.86-.462h3.41v1.826h-3.212a2.865,2.865,0,0,0-1.892.451,1.459,1.459,0,0,0-.484,1.111A1.4,1.4,0,0,0,293,99.712a2.723,2.723,0,0,0,1.65.44,3.573,3.573,0,0,0,1.815-.462,2.619,2.619,0,0,0,1.155-1.364l.462,1.65a3.056,3.056,0,0,1-1.419,1.606A5.248,5.248,0,0,1,294.075,102.154Zm9.834-.154-.022-16.324h2.75V102Zm12.43,0-.022-11.748,2.728.022L319.067,102ZM317.7,88.316a1.734,1.734,0,0,1-1.265-.484,1.634,1.634,0,0,1,0-2.343,1.757,1.757,0,0,1,1.265-.473,1.806,1.806,0,0,1,1.265.451,1.468,1.468,0,0,1,.5,1.133,1.679,1.679,0,0,1-.484,1.221A1.7,1.7,0,0,1,317.7,88.316Zm11.638,1.8a5.6,5.6,0,0,1,2.519.55,4.031,4.031,0,0,1,1.749,1.683,5.9,5.9,0,0,1,.638,2.915V102H331.5V95.62a3.259,3.259,0,0,0-.737-2.332,2.712,2.712,0,0,0-2.057-.77,3.612,3.612,0,0,0-1.716.4,2.714,2.714,0,0,0-1.155,1.177,4.238,4.238,0,0,0-.407,1.969V102h-2.75V90.252h2.618V93.42l-.462-.968a4.164,4.164,0,0,1,1.793-1.727A5.862,5.862,0,0,1,329.341,90.12Zm12.826,12.034a4.18,4.18,0,0,1-2.992-1,3.888,3.888,0,0,1-1.056-2.959V87.656h2.75V98.128a1.836,1.836,0,0,0,.429,1.3,1.555,1.555,0,0,0,1.2.462,2.416,2.416,0,0,0,1.54-.484l.77,1.958a3.231,3.231,0,0,1-1.188.594A5.337,5.337,0,0,1,342.167,102.154Zm-5.984-9.614v-2.2h7.832v2.2Zm16.016,9.614a7.159,7.159,0,0,1-3.421-.781,5.658,5.658,0,0,1-2.266-2.145,6,6,0,0,1-.8-3.1,6.114,6.114,0,0,1,.781-3.113,5.6,5.6,0,0,1,2.156-2.123,6.306,6.306,0,0,1,3.135-.77,6.174,6.174,0,0,1,3.058.748,5.415,5.415,0,0,1,2.112,2.112,6.427,6.427,0,0,1,.77,3.212q0,.176-.011.4t-.033.418h-9.79V95.18h8.338l-1.078.572a3.376,3.376,0,0,0-.418-1.782,3.219,3.219,0,0,0-1.2-1.21,3.424,3.424,0,0,0-1.749-.44,3.468,3.468,0,0,0-1.771.44,3.118,3.118,0,0,0-1.188,1.221,3.757,3.757,0,0,0-.429,1.837v.44a3.589,3.589,0,0,0,.484,1.87,3.227,3.227,0,0,0,1.364,1.254,4.467,4.467,0,0,0,2.024.44,4.884,4.884,0,0,0,1.782-.308,3.793,3.793,0,0,0,1.408-.968l1.474,1.694a5.176,5.176,0,0,1-1.991,1.419A7.127,7.127,0,0,1,352.2,102.154Zm8.162-.154V90.252h2.618v3.234l-.308-.946a3.715,3.715,0,0,1,1.661-1.8,5.864,5.864,0,0,1,2.827-.616v2.618a1.934,1.934,0,0,0-.33-.055q-.154-.011-.308-.011a3.382,3.382,0,0,0-2.486.913,3.661,3.661,0,0,0-.924,2.717V102Zm15.532,0V99.624l-.154-.506V94.96a2.434,2.434,0,0,0-.726-1.881,3.146,3.146,0,0,0-2.2-.671,6.318,6.318,0,0,0-1.947.308,4.783,4.783,0,0,0-1.617.858l-1.078-2a6.521,6.521,0,0,1,2.255-1.089,10.12,10.12,0,0,1,2.717-.363,5.812,5.812,0,0,1,3.949,1.221,4.751,4.751,0,0,1,1.4,3.773V102Zm-3.7.154a5.525,5.525,0,0,1-2.31-.451,3.569,3.569,0,0,1-1.529-1.254,3.182,3.182,0,0,1-.539-1.815,3.408,3.408,0,0,1,.473-1.782,3.189,3.189,0,0,1,1.551-1.254,7.371,7.371,0,0,1,2.86-.462h3.41v1.826H372.9a2.865,2.865,0,0,0-1.892.451,1.459,1.459,0,0,0-.484,1.111,1.4,1.4,0,0,0,.594,1.188,2.723,2.723,0,0,0,1.65.44,3.573,3.573,0,0,0,1.815-.462,2.619,2.619,0,0,0,1.155-1.364l.462,1.65a3.056,3.056,0,0,1-1.419,1.606A5.248,5.248,0,0,1,372.2,102.154Zm15.224,0a6.791,6.791,0,0,1-3.289-.781,5.774,5.774,0,0,1-2.255-2.145,6.339,6.339,0,0,1,0-6.215,5.721,5.721,0,0,1,2.255-2.123,6.87,6.87,0,0,1,3.289-.77,6.37,6.37,0,0,1,3.025.693,4.605,4.605,0,0,1,1.991,2.035l-2.112,1.232a3.378,3.378,0,0,0-1.287-1.232,3.491,3.491,0,0,0-1.639-.4,3.778,3.778,0,0,0-1.826.44,3.162,3.162,0,0,0-1.276,1.265,4.427,4.427,0,0,0,0,3.938,3.162,3.162,0,0,0,1.276,1.265,3.777,3.777,0,0,0,1.826.44,3.491,3.491,0,0,0,1.639-.4,3.378,3.378,0,0,0,1.287-1.232l2.112,1.232a4.76,4.76,0,0,1-1.991,2.035A6.21,6.21,0,0,1,387.421,102.154Zm11.968,0a4.18,4.18,0,0,1-2.992-1,3.888,3.888,0,0,1-1.056-2.959V87.656h2.75V98.128a1.836,1.836,0,0,0,.429,1.3,1.555,1.555,0,0,0,1.2.462,2.416,2.416,0,0,0,1.54-.484l.77,1.958a3.231,3.231,0,0,1-1.188.594A5.337,5.337,0,0,1,399.389,102.154Zm-5.984-9.614v-2.2h7.832v2.2ZM404.317,102,404.3,90.252l2.728.022L407.045,102Zm1.364-13.684a1.734,1.734,0,0,1-1.265-.484,1.634,1.634,0,0,1,0-2.343,1.757,1.757,0,0,1,1.265-.473,1.806,1.806,0,0,1,1.265.451,1.468,1.468,0,0,1,.5,1.133,1.679,1.679,0,0,1-.484,1.221A1.7,1.7,0,0,1,405.681,88.316Zm10.252,13.838a6.761,6.761,0,0,1-3.212-.792,5.78,5.78,0,0,1-2.222-2.123,5.92,5.92,0,0,1-.814-3.113,5.8,5.8,0,0,1,3.047-5.236,6.522,6.522,0,0,1,3.2-.77,6.631,6.631,0,0,1,3.234.77A5.806,5.806,0,0,1,421.389,93a5.9,5.9,0,0,1,.814,3.124,6,6,0,0,1-.8,3.1,5.637,5.637,0,0,1-2.233,2.134A6.894,6.894,0,0,1,415.933,102.154Zm0-2.354a3.652,3.652,0,0,0,1.8-.44,3.113,3.113,0,0,0,1.243-1.276,4.312,4.312,0,0,0,0-3.927,3.129,3.129,0,0,0-1.243-1.265,3.652,3.652,0,0,0-1.8-.44,3.545,3.545,0,0,0-1.771.44,3.224,3.224,0,0,0-1.243,1.265,4.4,4.4,0,0,0,0,3.927,3.283,3.283,0,0,0,1.243,1.287A3.324,3.324,0,0,0,415.933,99.8Zm15.576-9.68a5.6,5.6,0,0,1,2.519.55,4.031,4.031,0,0,1,1.749,1.683,5.9,5.9,0,0,1,.638,2.915V102h-2.75V95.62a3.259,3.259,0,0,0-.737-2.332,2.712,2.712,0,0,0-2.057-.77,3.612,3.612,0,0,0-1.716.4A2.714,2.714,0,0,0,428,94.091a4.238,4.238,0,0,0-.407,1.969V102h-2.75V90.252h2.618V93.42L427,92.452a4.164,4.164,0,0,1,1.793-1.727A5.862,5.862,0,0,1,431.509,90.12ZM130.648,129V116.592a4.045,4.045,0,0,1,1.089-2.959,4.163,4.163,0,0,1,3.113-1.111,5.94,5.94,0,0,1,1.375.154,2.913,2.913,0,0,1,1.089.484l-.748,2.068a2.14,2.14,0,0,0-.7-.363,2.77,2.77,0,0,0-.814-.121,1.687,1.687,0,0,0-1.3.473,2.018,2.018,0,0,0-.44,1.419v1.32l.088,1.232V129Zm-1.936-9.46v-2.2h7.832v2.2Zm9.7,9.46V117.252h2.618v3.234l-.308-.946a3.716,3.716,0,0,1,1.661-1.8,5.864,5.864,0,0,1,2.827-.616v2.618a1.934,1.934,0,0,0-.33-.055q-.154-.011-.308-.011a3.382,3.382,0,0,0-2.486.913,3.661,3.661,0,0,0-.924,2.717V129Zm14.3.154a6.761,6.761,0,0,1-3.212-.792,5.781,5.781,0,0,1-2.222-2.123,5.92,5.92,0,0,1-.814-3.113,5.8,5.8,0,0,1,3.047-5.236,6.522,6.522,0,0,1,3.2-.77,6.631,6.631,0,0,1,3.234.77A5.807,5.807,0,0,1,158.17,120a5.9,5.9,0,0,1,.814,3.124,6,6,0,0,1-.8,3.1,5.637,5.637,0,0,1-2.233,2.134A6.894,6.894,0,0,1,152.714,129.154Zm0-2.354a3.652,3.652,0,0,0,1.8-.44,3.112,3.112,0,0,0,1.243-1.276,4.312,4.312,0,0,0,0-3.927,3.129,3.129,0,0,0-1.243-1.265,3.652,3.652,0,0,0-1.8-.44,3.545,3.545,0,0,0-1.771.44,3.223,3.223,0,0,0-1.243,1.265,4.4,4.4,0,0,0,0,3.927,3.283,3.283,0,0,0,1.243,1.287A3.324,3.324,0,0,0,152.714,126.8Zm23.738-9.68a5.465,5.465,0,0,1,2.5.55,3.933,3.933,0,0,1,1.705,1.683,6.073,6.073,0,0,1,.616,2.915V129h-2.75v-6.38a3.433,3.433,0,0,0-.682-2.332,2.478,2.478,0,0,0-1.958-.77,3.158,3.158,0,0,0-1.6.4,2.685,2.685,0,0,0-1.078,1.166,4.371,4.371,0,0,0-.385,1.958V129h-2.75v-6.38a3.433,3.433,0,0,0-.682-2.332,2.478,2.478,0,0,0-1.958-.77,3.158,3.158,0,0,0-1.6.4,2.685,2.685,0,0,0-1.078,1.166,4.371,4.371,0,0,0-.385,1.958V129h-2.75V117.252h2.618v3.124l-.462-.924a3.994,3.994,0,0,1,1.727-1.738,5.484,5.484,0,0,1,2.585-.594,5.054,5.054,0,0,1,2.871.814,3.919,3.919,0,0,1,1.617,2.464l-1.078-.374a4.533,4.533,0,0,1,1.892-2.112A5.828,5.828,0,0,1,176.452,117.12Zm19.69,12.034a6.761,6.761,0,0,1-3.212-.792,5.781,5.781,0,0,1-2.222-2.123,5.92,5.92,0,0,1-.814-3.113,5.8,5.8,0,0,1,3.047-5.236,6.522,6.522,0,0,1,3.2-.77,6.631,6.631,0,0,1,3.234.77A5.807,5.807,0,0,1,201.6,120a5.9,5.9,0,0,1,.814,3.124,6,6,0,0,1-.8,3.1,5.637,5.637,0,0,1-2.233,2.134A6.894,6.894,0,0,1,196.142,129.154Zm0-2.354a3.652,3.652,0,0,0,1.8-.44,3.112,3.112,0,0,0,1.243-1.276,4.312,4.312,0,0,0,0-3.927,3.129,3.129,0,0,0-1.243-1.265,3.652,3.652,0,0,0-1.8-.44,3.545,3.545,0,0,0-1.771.44,3.223,3.223,0,0,0-1.243,1.265,4.4,4.4,0,0,0,0,3.927,3.283,3.283,0,0,0,1.243,1.287A3.324,3.324,0,0,0,196.142,126.8Zm13.882,2.354a5.924,5.924,0,0,1-2.64-.561,4.026,4.026,0,0,1-1.782-1.716,5.976,5.976,0,0,1-.638-2.915v-6.71h2.75v6.336a3.4,3.4,0,0,0,.715,2.365,2.62,2.62,0,0,0,2.035.781,3.42,3.42,0,0,0,1.683-.4,2.753,2.753,0,0,0,1.122-1.188,4.252,4.252,0,0,0,.407-1.958v-5.94h2.75V129h-2.618v-3.168l.462.968a4.044,4.044,0,0,1-1.738,1.749A5.281,5.281,0,0,1,210.024,129.154Zm10.01-.154V117.252h2.618v3.234l-.308-.946a3.716,3.716,0,0,1,1.661-1.8,5.864,5.864,0,0,1,2.827-.616v2.618a1.934,1.934,0,0,0-.33-.055q-.154-.011-.308-.011a3.382,3.382,0,0,0-2.486.913,3.661,3.661,0,0,0-.924,2.717V129Zm18.942.154a10.28,10.28,0,0,1-2.827-.385,7.273,7.273,0,0,1-2.145-.935l1.056-2.09a7.51,7.51,0,0,0,1.892.836,7.622,7.622,0,0,0,2.2.33,3.791,3.791,0,0,0,1.881-.352,1.067,1.067,0,0,0,.583-.946.821.821,0,0,0-.4-.737,3.08,3.08,0,0,0-1.034-.385q-.638-.132-1.419-.242t-1.562-.3a5.391,5.391,0,0,1-1.419-.55,2.939,2.939,0,0,1-1.034-.979,2.973,2.973,0,0,1-.4-1.628,3.09,3.09,0,0,1,.638-1.947,4.073,4.073,0,0,1,1.793-1.276,7.52,7.52,0,0,1,2.739-.451,11.223,11.223,0,0,1,2.4.264,6.49,6.49,0,0,1,2,.748l-1.056,2.09a5.569,5.569,0,0,0-1.683-.693,7.788,7.788,0,0,0-1.683-.187,3.619,3.619,0,0,0-1.859.374,1.1,1.1,0,0,0-.6.946.888.888,0,0,0,.4.792,3.23,3.23,0,0,0,1.034.418,13.091,13.091,0,0,0,1.419.253,12.569,12.569,0,0,1,1.551.3,6.541,6.541,0,0,1,1.419.539,2.733,2.733,0,0,1,1.045.957,2.927,2.927,0,0,1,.4,1.606,2.979,2.979,0,0,1-.649,1.914,4.178,4.178,0,0,1-1.837,1.265A8,8,0,0,1,238.976,129.154ZM246.7,129l-.022-11.748,2.728.022L249.426,129Zm1.364-13.684a1.734,1.734,0,0,1-1.265-.484,1.634,1.634,0,0,1,0-2.343,1.756,1.756,0,0,1,1.265-.473,1.806,1.806,0,0,1,1.265.451,1.468,1.468,0,0,1,.495,1.133,1.679,1.679,0,0,1-.484,1.221A1.7,1.7,0,0,1,248.062,115.316Zm9.944,13.838a6.119,6.119,0,0,1-3.047-.759,5.513,5.513,0,0,1-2.123-2.1,6.9,6.9,0,0,1,0-6.336,5.436,5.436,0,0,1,2.123-2.09,6.191,6.191,0,0,1,3.047-.748,5.335,5.335,0,0,1,2.64.649,4.588,4.588,0,0,1,1.848,1.969,7.366,7.366,0,0,1,.682,3.388,7.589,7.589,0,0,1-.66,3.377,4.515,4.515,0,0,1-1.826,1.991A5.354,5.354,0,0,1,258.006,129.154Zm.33-2.354a3.545,3.545,0,0,0,1.771-.44,3.28,3.28,0,0,0,1.254-1.276,4.312,4.312,0,0,0,0-3.927,3.3,3.3,0,0,0-1.254-1.265,3.784,3.784,0,0,0-3.542,0,3.3,3.3,0,0,0-1.254,1.265,4.312,4.312,0,0,0,0,3.927,3.28,3.28,0,0,0,1.254,1.276A3.545,3.545,0,0,0,258.336,126.8ZM261.9,129v-2.772l.11-3.124-.22-3.124v-7.3h2.728V129Zm11.77.154a7.159,7.159,0,0,1-3.421-.781,5.658,5.658,0,0,1-2.266-2.145,6,6,0,0,1-.8-3.1,6.114,6.114,0,0,1,.781-3.113,5.6,5.6,0,0,1,2.156-2.123,6.306,6.306,0,0,1,3.135-.77,6.174,6.174,0,0,1,3.058.748,5.415,5.415,0,0,1,2.112,2.112,6.427,6.427,0,0,1,.77,3.212q0,.176-.011.4t-.033.418h-9.79V122.18H277.7l-1.078.572a3.376,3.376,0,0,0-.418-1.782,3.219,3.219,0,0,0-1.2-1.21,3.424,3.424,0,0,0-1.749-.44,3.468,3.468,0,0,0-1.771.44,3.118,3.118,0,0,0-1.188,1.221,3.757,3.757,0,0,0-.429,1.837v.44a3.589,3.589,0,0,0,.484,1.87,3.227,3.227,0,0,0,1.364,1.254,4.467,4.467,0,0,0,2.024.44,4.884,4.884,0,0,0,1.782-.308,3.793,3.793,0,0,0,1.408-.968l1.474,1.694a5.176,5.176,0,0,1-1.991,1.419A7.127,7.127,0,0,1,273.67,129.154Zm20.9-12.034a5.6,5.6,0,0,1,2.519.55,4.031,4.031,0,0,1,1.749,1.683,5.9,5.9,0,0,1,.638,2.915V129h-2.75v-6.38a3.259,3.259,0,0,0-.737-2.332,2.712,2.712,0,0,0-2.057-.77,3.612,3.612,0,0,0-1.716.4,2.714,2.714,0,0,0-1.155,1.177,4.238,4.238,0,0,0-.407,1.969V129H287.9V112.676h2.75v7.744l-.594-.968a4.164,4.164,0,0,1,1.793-1.727A5.862,5.862,0,0,1,294.57,117.12Zm13.948,12.034a7.159,7.159,0,0,1-3.421-.781,5.658,5.658,0,0,1-2.266-2.145,6,6,0,0,1-.8-3.1,6.114,6.114,0,0,1,.781-3.113,5.6,5.6,0,0,1,2.156-2.123,6.306,6.306,0,0,1,3.135-.77,6.174,6.174,0,0,1,3.058.748,5.415,5.415,0,0,1,2.112,2.112,6.427,6.427,0,0,1,.77,3.212q0,.176-.011.4t-.033.418h-9.79V122.18h8.338l-1.078.572a3.376,3.376,0,0,0-.418-1.782,3.219,3.219,0,0,0-1.2-1.21,3.424,3.424,0,0,0-1.749-.44,3.468,3.468,0,0,0-1.771.44,3.118,3.118,0,0,0-1.188,1.221,3.757,3.757,0,0,0-.429,1.837v.44a3.589,3.589,0,0,0,.484,1.87,3.227,3.227,0,0,0,1.364,1.254,4.467,4.467,0,0,0,2.024.44,4.884,4.884,0,0,0,1.782-.308,3.793,3.793,0,0,0,1.408-.968l1.474,1.694a5.176,5.176,0,0,1-1.991,1.419A7.127,7.127,0,0,1,308.518,129.154ZM316.7,129l-.022-16.324h2.75V129Zm12.848.154a5.238,5.238,0,0,1-2.607-.66,4.691,4.691,0,0,1-1.87-1.991,7.28,7.28,0,0,1-.693-3.377,7.468,7.468,0,0,1,.671-3.388,4.523,4.523,0,0,1,1.837-1.969,5.381,5.381,0,0,1,2.662-.649,6.157,6.157,0,0,1,3.069.748,5.557,5.557,0,0,1,2.112,2.09,6.838,6.838,0,0,1,0,6.347,5.535,5.535,0,0,1-2.112,2.1A6.157,6.157,0,0,1,329.55,129.154Zm-6.512,4.114V117.252h2.618v2.772l-.088,3.124.22,3.124v7Zm6.2-6.468a3.545,3.545,0,0,0,1.771-.44,3.205,3.205,0,0,0,1.243-1.276,4.4,4.4,0,0,0,0-3.927,3.224,3.224,0,0,0-1.243-1.265,3.545,3.545,0,0,0-1.771-.44,3.607,3.607,0,0,0-1.782.44,3.2,3.2,0,0,0-1.254,1.265,4.4,4.4,0,0,0,0,3.927,3.184,3.184,0,0,0,1.254,1.276A3.606,3.606,0,0,0,329.242,126.8Zm12.518,2.354a10.28,10.28,0,0,1-2.827-.385,7.273,7.273,0,0,1-2.145-.935l1.056-2.09a7.51,7.51,0,0,0,1.892.836,7.622,7.622,0,0,0,2.2.33,3.791,3.791,0,0,0,1.881-.352,1.067,1.067,0,0,0,.583-.946.821.821,0,0,0-.4-.737,3.081,3.081,0,0,0-1.034-.385q-.638-.132-1.419-.242t-1.562-.3a5.391,5.391,0,0,1-1.419-.55,2.94,2.94,0,0,1-1.034-.979,2.973,2.973,0,0,1-.4-1.628,3.09,3.09,0,0,1,.638-1.947,4.073,4.073,0,0,1,1.793-1.276,7.52,7.52,0,0,1,2.739-.451,11.223,11.223,0,0,1,2.4.264,6.49,6.49,0,0,1,2,.748l-1.056,2.09a5.569,5.569,0,0,0-1.683-.693,7.787,7.787,0,0,0-1.683-.187,3.619,3.619,0,0,0-1.859.374,1.1,1.1,0,0,0-.605.946.888.888,0,0,0,.4.792,3.231,3.231,0,0,0,1.034.418,13.09,13.09,0,0,0,1.419.253,12.571,12.571,0,0,1,1.551.3,6.541,6.541,0,0,1,1.419.539,2.733,2.733,0,0,1,1.045.957,2.927,2.927,0,0,1,.4,1.606,2.979,2.979,0,0,1-.649,1.914A4.178,4.178,0,0,1,344.6,128.7,8,8,0,0,1,341.76,129.154ZM362.77,129v-2.376l-.154-.506V121.96a2.434,2.434,0,0,0-.726-1.881,3.146,3.146,0,0,0-2.2-.671,6.318,6.318,0,0,0-1.947.308,4.783,4.783,0,0,0-1.617.858l-1.078-2a6.521,6.521,0,0,1,2.255-1.089,10.12,10.12,0,0,1,2.717-.363,5.812,5.812,0,0,1,3.949,1.221,4.751,4.751,0,0,1,1.4,3.773V129Zm-3.7.154a5.525,5.525,0,0,1-2.31-.451,3.569,3.569,0,0,1-1.529-1.254,3.182,3.182,0,0,1-.539-1.815,3.408,3.408,0,0,1,.473-1.782,3.189,3.189,0,0,1,1.551-1.254,7.371,7.371,0,0,1,2.86-.462h3.41v1.826h-3.212a2.865,2.865,0,0,0-1.892.451,1.459,1.459,0,0,0-.484,1.111,1.4,1.4,0,0,0,.594,1.188,2.723,2.723,0,0,0,1.65.44,3.573,3.573,0,0,0,1.815-.462,2.619,2.619,0,0,0,1.155-1.364l.462,1.65a3.056,3.056,0,0,1-1.419,1.606A5.248,5.248,0,0,1,359.074,129.154ZM374.98,129l-.022-16.324h2.75V129Zm11.616.154a6.761,6.761,0,0,1-3.212-.792,5.78,5.78,0,0,1-2.222-2.123,5.92,5.92,0,0,1-.814-3.113,5.8,5.8,0,0,1,3.047-5.236,6.522,6.522,0,0,1,3.2-.77,6.631,6.631,0,0,1,3.234.77A5.806,5.806,0,0,1,392.052,120a5.9,5.9,0,0,1,.814,3.124,6,6,0,0,1-.8,3.1,5.637,5.637,0,0,1-2.233,2.134A6.894,6.894,0,0,1,386.6,129.154Zm0-2.354a3.652,3.652,0,0,0,1.8-.44,3.113,3.113,0,0,0,1.243-1.276,4.312,4.312,0,0,0,0-3.927,3.129,3.129,0,0,0-1.243-1.265,3.652,3.652,0,0,0-1.8-.44,3.545,3.545,0,0,0-1.771.44,3.224,3.224,0,0,0-1.243,1.265,4.4,4.4,0,0,0,0,3.927,3.283,3.283,0,0,0,1.243,1.287A3.324,3.324,0,0,0,386.6,126.8Zm13.332,2.354a4.18,4.18,0,0,1-2.992-1,3.888,3.888,0,0,1-1.056-2.959V114.656h2.75v10.472a1.836,1.836,0,0,0,.429,1.3,1.555,1.555,0,0,0,1.2.462,2.416,2.416,0,0,0,1.54-.484l.77,1.958a3.231,3.231,0,0,1-1.188.594A5.337,5.337,0,0,1,399.928,129.154Zm-5.984-9.614v-2.2h7.832v2.2ZM410.928,129l-.022-11.748,2.728.022L413.656,129Zm1.364-13.684a1.734,1.734,0,0,1-1.265-.484,1.634,1.634,0,0,1,0-2.343,1.757,1.757,0,0,1,1.265-.473,1.806,1.806,0,0,1,1.265.451,1.468,1.468,0,0,1,.5,1.133,1.679,1.679,0,0,1-.484,1.221A1.7,1.7,0,0,1,412.292,115.316Zm11.638,1.8a5.6,5.6,0,0,1,2.519.55,4.031,4.031,0,0,1,1.749,1.683,5.9,5.9,0,0,1,.638,2.915V129h-2.75v-6.38a3.259,3.259,0,0,0-.737-2.332,2.712,2.712,0,0,0-2.057-.77,3.612,3.612,0,0,0-1.716.4,2.714,2.714,0,0,0-1.155,1.177,4.238,4.238,0,0,0-.407,1.969V129h-2.75V117.252h2.618v3.168l-.462-.968a4.164,4.164,0,0,1,1.793-1.727A5.862,5.862,0,0,1,423.93,117.12ZM119.582,156.154a5.309,5.309,0,0,1-2.662-.66,4.58,4.58,0,0,1-1.837-1.991,7.482,7.482,0,0,1-.671-3.377,7.266,7.266,0,0,1,.693-3.388,4.633,4.633,0,0,1,1.87-1.969,5.308,5.308,0,0,1,2.607-.649,6.157,6.157,0,0,1,3.069.748,5.557,5.557,0,0,1,2.112,2.09,6.816,6.816,0,0,1,0,6.336,5.638,5.638,0,0,1-2.112,2.1A6.086,6.086,0,0,1,119.582,156.154ZM113.07,156V139.676h2.75v7.3l-.22,3.124.088,3.124V156Zm6.2-2.2a3.545,3.545,0,0,0,1.771-.44,3.205,3.205,0,0,0,1.243-1.276,4.4,4.4,0,0,0,0-3.927,3.223,3.223,0,0,0-1.243-1.265,3.545,3.545,0,0,0-1.771-.44,3.607,3.607,0,0,0-1.782.44,3.2,3.2,0,0,0-1.254,1.265,4.4,4.4,0,0,0,0,3.927,3.184,3.184,0,0,0,1.254,1.276A3.607,3.607,0,0,0,119.274,153.8Zm14.168,2.354a6.761,6.761,0,0,1-3.212-.792,5.78,5.78,0,0,1-2.222-2.123,5.92,5.92,0,0,1-.814-3.113,5.8,5.8,0,0,1,3.047-5.236,6.521,6.521,0,0,1,3.2-.77,6.631,6.631,0,0,1,3.234.77A5.806,5.806,0,0,1,138.9,147a5.9,5.9,0,0,1,.814,3.124,6,6,0,0,1-.8,3.1,5.637,5.637,0,0,1-2.233,2.134A6.894,6.894,0,0,1,133.442,156.154Zm0-2.354a3.652,3.652,0,0,0,1.8-.44,3.112,3.112,0,0,0,1.243-1.276,4.312,4.312,0,0,0,0-3.927,3.129,3.129,0,0,0-1.243-1.265,3.652,3.652,0,0,0-1.8-.44,3.545,3.545,0,0,0-1.771.44,3.223,3.223,0,0,0-1.243,1.265,4.4,4.4,0,0,0,0,3.927,3.283,3.283,0,0,0,1.243,1.287A3.324,3.324,0,0,0,133.442,153.8Zm14.19,2.354a6.761,6.761,0,0,1-3.212-.792,5.781,5.781,0,0,1-2.222-2.123,5.92,5.92,0,0,1-.814-3.113,5.8,5.8,0,0,1,3.047-5.236,6.521,6.521,0,0,1,3.2-.77,6.631,6.631,0,0,1,3.234.77A5.807,5.807,0,0,1,153.088,147a5.9,5.9,0,0,1,.814,3.124,6,6,0,0,1-.8,3.1,5.637,5.637,0,0,1-2.233,2.134A6.894,6.894,0,0,1,147.632,156.154Zm0-2.354a3.652,3.652,0,0,0,1.8-.44,3.112,3.112,0,0,0,1.243-1.276,4.312,4.312,0,0,0,0-3.927,3.129,3.129,0,0,0-1.243-1.265,3.652,3.652,0,0,0-1.8-.44,3.545,3.545,0,0,0-1.771.44,3.223,3.223,0,0,0-1.243,1.265,4.4,4.4,0,0,0,0,3.927,3.283,3.283,0,0,0,1.243,1.287A3.324,3.324,0,0,0,147.632,153.8Zm12.54,2.354a10.28,10.28,0,0,1-2.827-.385,7.273,7.273,0,0,1-2.145-.935l1.056-2.09a7.511,7.511,0,0,0,1.892.836,7.622,7.622,0,0,0,2.2.33,3.791,3.791,0,0,0,1.881-.352,1.067,1.067,0,0,0,.583-.946.821.821,0,0,0-.4-.737,3.08,3.08,0,0,0-1.034-.385q-.638-.132-1.419-.242t-1.562-.3a5.391,5.391,0,0,1-1.419-.55,2.939,2.939,0,0,1-1.034-.979,2.973,2.973,0,0,1-.4-1.628,3.09,3.09,0,0,1,.638-1.947,4.073,4.073,0,0,1,1.793-1.276,7.52,7.52,0,0,1,2.739-.451,11.223,11.223,0,0,1,2.4.264,6.49,6.49,0,0,1,2,.748l-1.056,2.09a5.569,5.569,0,0,0-1.683-.693,7.788,7.788,0,0,0-1.683-.187,3.619,3.619,0,0,0-1.859.374,1.1,1.1,0,0,0-.6.946.888.888,0,0,0,.4.792,3.23,3.23,0,0,0,1.034.418,13.087,13.087,0,0,0,1.419.253,12.566,12.566,0,0,1,1.551.3,6.541,6.541,0,0,1,1.419.539,2.733,2.733,0,0,1,1.045.957,2.927,2.927,0,0,1,.4,1.606,2.979,2.979,0,0,1-.649,1.914,4.178,4.178,0,0,1-1.837,1.265A8,8,0,0,1,160.172,156.154Zm12.122,0a4.18,4.18,0,0,1-2.992-1,3.888,3.888,0,0,1-1.056-2.959V141.656H171v10.472a1.836,1.836,0,0,0,.429,1.3,1.555,1.555,0,0,0,1.2.462,2.416,2.416,0,0,0,1.54-.484l.77,1.958a3.231,3.231,0,0,1-1.188.594A5.337,5.337,0,0,1,172.294,156.154Zm-5.984-9.614v-2.2h7.832v2.2ZM177.222,156l-.022-11.748,2.728.022L179.95,156Zm1.364-13.684a1.734,1.734,0,0,1-1.265-.484,1.634,1.634,0,0,1,0-2.343,1.757,1.757,0,0,1,1.265-.473,1.806,1.806,0,0,1,1.265.451,1.468,1.468,0,0,1,.495,1.133,1.679,1.679,0,0,1-.484,1.221A1.7,1.7,0,0,1,178.586,142.316Zm11.638,1.8a5.6,5.6,0,0,1,2.519.55,4.031,4.031,0,0,1,1.749,1.683,5.9,5.9,0,0,1,.638,2.915V156h-2.75v-6.38a3.26,3.26,0,0,0-.737-2.332,2.713,2.713,0,0,0-2.057-.77,3.612,3.612,0,0,0-1.716.4,2.714,2.714,0,0,0-1.155,1.177,4.237,4.237,0,0,0-.407,1.969V156h-2.75V144.252h2.618v3.168l-.462-.968a4.164,4.164,0,0,1,1.793-1.727A5.862,5.862,0,0,1,190.224,144.12Zm13.75,16.3a11.87,11.87,0,0,1-3.179-.429,6.8,6.8,0,0,1-2.541-1.243l1.232-2.068a5.887,5.887,0,0,0,1.947,1.023,7.633,7.633,0,0,0,2.387.385,3.908,3.908,0,0,0,2.838-.891,3.6,3.6,0,0,0,.9-2.673v-2.09l.22-2.662-.088-2.662v-2.86h2.618v9.966a6.114,6.114,0,0,1-1.628,4.7A6.688,6.688,0,0,1,203.974,160.422Zm-.352-4.95a6.373,6.373,0,0,1-3.025-.715,5.421,5.421,0,0,1-2.134-1.991,6.079,6.079,0,0,1,0-5.962,5.342,5.342,0,0,1,2.134-1.98,6.454,6.454,0,0,1,3.025-.7,5.919,5.919,0,0,1,2.684.594,4.48,4.48,0,0,1,1.9,1.848,7.6,7.6,0,0,1,0,6.435,4.534,4.534,0,0,1-1.9,1.87A5.83,5.83,0,0,1,203.622,155.472Zm.418-2.332a3.9,3.9,0,0,0,1.848-.429,3.14,3.14,0,0,0,1.265-1.188,3.617,3.617,0,0,0,0-3.5,2.994,2.994,0,0,0-1.265-1.166,4.076,4.076,0,0,0-1.848-.407,4.146,4.146,0,0,0-1.859.407,2.981,2.981,0,0,0-1.276,1.166,3.617,3.617,0,0,0,0,3.5,3.123,3.123,0,0,0,1.276,1.188A3.969,3.969,0,0,0,204.04,153.14Zm21.23,3.014a6.761,6.761,0,0,1-3.212-.792,5.781,5.781,0,0,1-2.222-2.123,5.92,5.92,0,0,1-.814-3.113,5.8,5.8,0,0,1,3.047-5.236,6.521,6.521,0,0,1,3.2-.77,6.631,6.631,0,0,1,3.234.77A5.807,5.807,0,0,1,230.726,147a5.9,5.9,0,0,1,.814,3.124,6,6,0,0,1-.8,3.1,5.637,5.637,0,0,1-2.233,2.134A6.894,6.894,0,0,1,225.27,156.154Zm0-2.354a3.652,3.652,0,0,0,1.8-.44,3.112,3.112,0,0,0,1.243-1.276,4.312,4.312,0,0,0,0-3.927,3.129,3.129,0,0,0-1.243-1.265,3.652,3.652,0,0,0-1.8-.44,3.545,3.545,0,0,0-1.771.44,3.223,3.223,0,0,0-1.243,1.265,4.4,4.4,0,0,0,0,3.927,3.283,3.283,0,0,0,1.243,1.287A3.324,3.324,0,0,0,225.27,153.8Zm13.882,2.354a5.924,5.924,0,0,1-2.64-.561,4.026,4.026,0,0,1-1.782-1.716,5.976,5.976,0,0,1-.638-2.915v-6.71h2.75v6.336a3.4,3.4,0,0,0,.715,2.365,2.62,2.62,0,0,0,2.035.781,3.42,3.42,0,0,0,1.683-.4,2.753,2.753,0,0,0,1.122-1.188,4.252,4.252,0,0,0,.407-1.958v-5.94h2.75V156h-2.618v-3.168l.462.968a4.044,4.044,0,0,1-1.738,1.749A5.281,5.281,0,0,1,239.152,156.154Zm10.01-.154V144.252h2.618v3.234l-.308-.946a3.716,3.716,0,0,1,1.661-1.8,5.864,5.864,0,0,1,2.827-.616v2.618a1.935,1.935,0,0,0-.33-.055q-.154-.011-.308-.011a3.382,3.382,0,0,0-2.486.913,3.661,3.661,0,0,0-.924,2.717V156Zm20.7.154a6.791,6.791,0,0,1-3.289-.781,5.774,5.774,0,0,1-2.255-2.145,6.339,6.339,0,0,1,0-6.215,5.721,5.721,0,0,1,2.255-2.123,6.87,6.87,0,0,1,3.289-.77,6.37,6.37,0,0,1,3.025.693,4.605,4.605,0,0,1,1.991,2.035l-2.112,1.232a3.378,3.378,0,0,0-1.287-1.232,3.491,3.491,0,0,0-1.639-.4,3.777,3.777,0,0,0-1.826.44,3.162,3.162,0,0,0-1.276,1.265,4.427,4.427,0,0,0,0,3.938,3.162,3.162,0,0,0,1.276,1.265,3.777,3.777,0,0,0,1.826.44,3.491,3.491,0,0,0,1.639-.4,3.378,3.378,0,0,0,1.287-1.232l2.112,1.232a4.76,4.76,0,0,1-1.991,2.035A6.21,6.21,0,0,1,269.864,156.154Zm7.3-.154-.022-16.324h2.75V156Zm6.358,0-.022-11.748,2.728.022L286.254,156Zm1.364-13.684a1.734,1.734,0,0,1-1.265-.484,1.634,1.634,0,0,1,0-2.343,1.757,1.757,0,0,1,1.265-.473,1.806,1.806,0,0,1,1.265.451,1.468,1.468,0,0,1,.5,1.133,1.679,1.679,0,0,1-.484,1.221A1.7,1.7,0,0,1,284.89,142.316Zm10.494,13.838a7.159,7.159,0,0,1-3.421-.781,5.659,5.659,0,0,1-2.266-2.145,6,6,0,0,1-.8-3.1,6.114,6.114,0,0,1,.781-3.113,5.605,5.605,0,0,1,2.156-2.123,6.306,6.306,0,0,1,3.135-.77,6.174,6.174,0,0,1,3.058.748,5.415,5.415,0,0,1,2.112,2.112,6.427,6.427,0,0,1,.77,3.212q0,.176-.011.4t-.033.418h-9.79V149.18h8.338l-1.078.572a3.376,3.376,0,0,0-.418-1.782,3.219,3.219,0,0,0-1.2-1.21,3.424,3.424,0,0,0-1.749-.44,3.468,3.468,0,0,0-1.771.44,3.118,3.118,0,0,0-1.188,1.221,3.757,3.757,0,0,0-.429,1.837v.44a3.589,3.589,0,0,0,.484,1.87,3.227,3.227,0,0,0,1.364,1.254,4.467,4.467,0,0,0,2.024.44,4.884,4.884,0,0,0,1.782-.308,3.793,3.793,0,0,0,1.408-.968l1.474,1.694a5.176,5.176,0,0,1-1.991,1.419A7.127,7.127,0,0,1,295.384,156.154Zm14.828-12.034a5.6,5.6,0,0,1,2.519.55,4.031,4.031,0,0,1,1.749,1.683,5.9,5.9,0,0,1,.638,2.915V156h-2.75v-6.38a3.26,3.26,0,0,0-.737-2.332,2.713,2.713,0,0,0-2.057-.77,3.612,3.612,0,0,0-1.716.4,2.714,2.714,0,0,0-1.155,1.177,4.237,4.237,0,0,0-.407,1.969V156h-2.75V144.252h2.618v3.168l-.462-.968a4.164,4.164,0,0,1,1.793-1.727A5.862,5.862,0,0,1,310.212,144.12Zm12.826,12.034a4.18,4.18,0,0,1-2.992-1,3.888,3.888,0,0,1-1.056-2.959V141.656h2.75v10.472a1.836,1.836,0,0,0,.429,1.3,1.555,1.555,0,0,0,1.2.462,2.416,2.416,0,0,0,1.54-.484l.77,1.958a3.231,3.231,0,0,1-1.188.594A5.337,5.337,0,0,1,323.038,156.154Zm-5.984-9.614v-2.2h7.832v2.2Zm10.164-.2,1.276-4.884.374,1.65a1.811,1.811,0,0,1-1.287-.484,1.693,1.693,0,0,1-.517-1.3,1.729,1.729,0,0,1,.517-1.309,1.76,1.76,0,0,1,1.265-.495,1.73,1.73,0,0,1,1.276.506,1.757,1.757,0,0,1,.506,1.3,3.825,3.825,0,0,1-.033.495,3.473,3.473,0,0,1-.132.572,8.491,8.491,0,0,1-.319.825L329,146.342Zm9.35,9.812a10.28,10.28,0,0,1-2.827-.385,7.273,7.273,0,0,1-2.145-.935l1.056-2.09a7.51,7.51,0,0,0,1.892.836,7.622,7.622,0,0,0,2.2.33,3.791,3.791,0,0,0,1.881-.352,1.067,1.067,0,0,0,.583-.946.821.821,0,0,0-.4-.737,3.08,3.08,0,0,0-1.034-.385q-.638-.132-1.419-.242t-1.562-.3a5.391,5.391,0,0,1-1.419-.55,2.94,2.94,0,0,1-1.034-.979,2.973,2.973,0,0,1-.4-1.628,3.09,3.09,0,0,1,.638-1.947,4.073,4.073,0,0,1,1.793-1.276,7.52,7.52,0,0,1,2.739-.451,11.223,11.223,0,0,1,2.4.264,6.49,6.49,0,0,1,2,.748l-1.056,2.09a5.57,5.57,0,0,0-1.683-.693,7.787,7.787,0,0,0-1.683-.187,3.619,3.619,0,0,0-1.859.374,1.1,1.1,0,0,0-.605.946.888.888,0,0,0,.4.792,3.23,3.23,0,0,0,1.034.418,13.087,13.087,0,0,0,1.419.253,12.568,12.568,0,0,1,1.551.3,6.54,6.54,0,0,1,1.419.539,2.733,2.733,0,0,1,1.045.957,2.927,2.927,0,0,1,.4,1.606,2.979,2.979,0,0,1-.649,1.914,4.178,4.178,0,0,1-1.837,1.265A8,8,0,0,1,336.568,156.154Zm20.284,0a5.309,5.309,0,0,1-2.662-.66,4.58,4.58,0,0,1-1.837-1.991,7.483,7.483,0,0,1-.671-3.377,7.266,7.266,0,0,1,.693-3.388,4.633,4.633,0,0,1,1.87-1.969,5.308,5.308,0,0,1,2.607-.649,6.157,6.157,0,0,1,3.069.748,5.557,5.557,0,0,1,2.112,2.09,6.816,6.816,0,0,1,0,6.336,5.638,5.638,0,0,1-2.112,2.1A6.086,6.086,0,0,1,356.852,156.154ZM350.34,156V139.676h2.75v7.3l-.22,3.124.088,3.124V156Zm6.2-2.2a3.545,3.545,0,0,0,1.771-.44,3.205,3.205,0,0,0,1.243-1.276,4.4,4.4,0,0,0,0-3.927,3.224,3.224,0,0,0-1.243-1.265,3.545,3.545,0,0,0-1.771-.44,3.606,3.606,0,0,0-1.782.44,3.2,3.2,0,0,0-1.254,1.265,4.4,4.4,0,0,0,0,3.927,3.183,3.183,0,0,0,1.254,1.276A3.606,3.606,0,0,0,356.544,153.8Zm13.86,2.354a5.924,5.924,0,0,1-2.64-.561,4.026,4.026,0,0,1-1.782-1.716,5.977,5.977,0,0,1-.638-2.915v-6.71h2.75v6.336a3.4,3.4,0,0,0,.715,2.365,2.62,2.62,0,0,0,2.035.781,3.42,3.42,0,0,0,1.683-.4,2.753,2.753,0,0,0,1.122-1.188,4.252,4.252,0,0,0,.407-1.958v-5.94h2.75V156h-2.618v-3.168l.462.968a4.044,4.044,0,0,1-1.738,1.749A5.281,5.281,0,0,1,370.4,156.154Zm13.64,0a10.28,10.28,0,0,1-2.827-.385,7.273,7.273,0,0,1-2.145-.935l1.056-2.09a7.51,7.51,0,0,0,1.892.836,7.622,7.622,0,0,0,2.2.33,3.791,3.791,0,0,0,1.881-.352,1.067,1.067,0,0,0,.583-.946.821.821,0,0,0-.4-.737,3.08,3.08,0,0,0-1.034-.385q-.638-.132-1.419-.242t-1.562-.3a5.391,5.391,0,0,1-1.419-.55,2.94,2.94,0,0,1-1.034-.979,2.973,2.973,0,0,1-.4-1.628,3.09,3.09,0,0,1,.638-1.947,4.073,4.073,0,0,1,1.793-1.276,7.52,7.52,0,0,1,2.739-.451,11.223,11.223,0,0,1,2.4.264,6.49,6.49,0,0,1,2,.748l-1.056,2.09a5.57,5.57,0,0,0-1.683-.693,7.787,7.787,0,0,0-1.683-.187,3.619,3.619,0,0,0-1.859.374,1.1,1.1,0,0,0-.605.946.888.888,0,0,0,.4.792,3.23,3.23,0,0,0,1.034.418,13.087,13.087,0,0,0,1.419.253,12.568,12.568,0,0,1,1.551.3,6.54,6.54,0,0,1,1.419.539,2.733,2.733,0,0,1,1.045.957,2.927,2.927,0,0,1,.4,1.606,2.979,2.979,0,0,1-.649,1.914,4.178,4.178,0,0,1-1.837,1.265A8,8,0,0,1,384.044,156.154Zm7.722-.154-.022-11.748,2.728.022L394.494,156Zm1.364-13.684a1.734,1.734,0,0,1-1.265-.484,1.634,1.634,0,0,1,0-2.343,1.757,1.757,0,0,1,1.265-.473,1.806,1.806,0,0,1,1.265.451,1.468,1.468,0,0,1,.5,1.133,1.679,1.679,0,0,1-.484,1.221A1.7,1.7,0,0,1,393.13,142.316Zm11.638,1.8a5.6,5.6,0,0,1,2.519.55,4.031,4.031,0,0,1,1.749,1.683,5.9,5.9,0,0,1,.638,2.915V156h-2.75v-6.38a3.26,3.26,0,0,0-.737-2.332,2.713,2.713,0,0,0-2.057-.77,3.612,3.612,0,0,0-1.716.4,2.714,2.714,0,0,0-1.155,1.177,4.237,4.237,0,0,0-.407,1.969V156H398.1V144.252h2.618v3.168l-.462-.968a4.164,4.164,0,0,1,1.793-1.727A5.862,5.862,0,0,1,404.768,144.12Zm13.948,12.034a7.159,7.159,0,0,1-3.421-.781,5.659,5.659,0,0,1-2.266-2.145,6,6,0,0,1-.8-3.1,6.114,6.114,0,0,1,.781-3.113,5.605,5.605,0,0,1,2.156-2.123,6.306,6.306,0,0,1,3.135-.77,6.174,6.174,0,0,1,3.058.748,5.415,5.415,0,0,1,2.112,2.112,6.427,6.427,0,0,1,.77,3.212q0,.176-.011.4t-.033.418H414.4V149.18h8.338l-1.078.572a3.376,3.376,0,0,0-.418-1.782,3.219,3.219,0,0,0-1.2-1.21,3.424,3.424,0,0,0-1.749-.44,3.468,3.468,0,0,0-1.771.44,3.118,3.118,0,0,0-1.188,1.221,3.757,3.757,0,0,0-.429,1.837v.44a3.589,3.589,0,0,0,.484,1.87,3.227,3.227,0,0,0,1.364,1.254,4.467,4.467,0,0,0,2.024.44,4.884,4.884,0,0,0,1.782-.308,3.793,3.793,0,0,0,1.408-.968l1.474,1.694a5.176,5.176,0,0,1-1.991,1.419A7.127,7.127,0,0,1,418.716,156.154Zm11.792,0a10.28,10.28,0,0,1-2.827-.385,7.273,7.273,0,0,1-2.145-.935l1.056-2.09a7.51,7.51,0,0,0,1.892.836,7.622,7.622,0,0,0,2.2.33,3.791,3.791,0,0,0,1.881-.352,1.067,1.067,0,0,0,.583-.946.821.821,0,0,0-.4-.737,3.08,3.08,0,0,0-1.034-.385q-.638-.132-1.419-.242t-1.562-.3a5.391,5.391,0,0,1-1.419-.55,2.94,2.94,0,0,1-1.034-.979,2.973,2.973,0,0,1-.4-1.628,3.09,3.09,0,0,1,.638-1.947,4.073,4.073,0,0,1,1.793-1.276,7.52,7.52,0,0,1,2.739-.451,11.223,11.223,0,0,1,2.4.264,6.49,6.49,0,0,1,2,.748l-1.056,2.09a5.57,5.57,0,0,0-1.683-.693,7.787,7.787,0,0,0-1.683-.187,3.619,3.619,0,0,0-1.859.374,1.1,1.1,0,0,0-.605.946.888.888,0,0,0,.4.792,3.23,3.23,0,0,0,1.034.418,13.087,13.087,0,0,0,1.419.253,12.568,12.568,0,0,1,1.551.3,6.54,6.54,0,0,1,1.419.539,2.733,2.733,0,0,1,1.045.957,2.927,2.927,0,0,1,.4,1.606,2.979,2.979,0,0,1-.649,1.914,4.178,4.178,0,0,1-1.837,1.265A8,8,0,0,1,430.508,156.154Zm11.33,0a10.28,10.28,0,0,1-2.827-.385,7.273,7.273,0,0,1-2.145-.935l1.056-2.09a7.51,7.51,0,0,0,1.892.836,7.622,7.622,0,0,0,2.2.33,3.791,3.791,0,0,0,1.881-.352,1.067,1.067,0,0,0,.583-.946.821.821,0,0,0-.4-.737,3.08,3.08,0,0,0-1.034-.385q-.638-.132-1.419-.242t-1.562-.3a5.391,5.391,0,0,1-1.419-.55,2.94,2.94,0,0,1-1.034-.979,2.973,2.973,0,0,1-.4-1.628,3.09,3.09,0,0,1,.638-1.947,4.073,4.073,0,0,1,1.793-1.276,7.52,7.52,0,0,1,2.739-.451,11.223,11.223,0,0,1,2.4.264,6.49,6.49,0,0,1,2,.748l-1.056,2.09a5.57,5.57,0,0,0-1.683-.693,7.787,7.787,0,0,0-1.683-.187,3.619,3.619,0,0,0-1.859.374,1.1,1.1,0,0,0-.605.946.888.888,0,0,0,.4.792,3.23,3.23,0,0,0,1.034.418,13.087,13.087,0,0,0,1.419.253,12.568,12.568,0,0,1,1.551.3,6.54,6.54,0,0,1,1.419.539,2.733,2.733,0,0,1,1.045.957,2.927,2.927,0,0,1,.4,1.606,2.979,2.979,0,0,1-.649,1.914,4.178,4.178,0,0,1-1.837,1.265A8,8,0,0,1,441.838,156.154ZM151.7,183V171.252h2.618v3.234l-.308-.946a3.716,3.716,0,0,1,1.661-1.8,5.864,5.864,0,0,1,2.827-.616v2.618a1.935,1.935,0,0,0-.33-.055q-.154-.011-.308-.011a3.382,3.382,0,0,0-2.486.913,3.661,3.661,0,0,0-.924,2.717V183Zm14.542.154a7.159,7.159,0,0,1-3.421-.781,5.659,5.659,0,0,1-2.266-2.145,6,6,0,0,1-.8-3.1,6.114,6.114,0,0,1,.781-3.113,5.6,5.6,0,0,1,2.156-2.123,6.306,6.306,0,0,1,3.135-.77,6.174,6.174,0,0,1,3.058.748A5.415,5.415,0,0,1,171,173.98a6.427,6.427,0,0,1,.77,3.212q0,.176-.011.4t-.033.418h-9.79V176.18h8.338l-1.078.572a3.376,3.376,0,0,0-.418-1.782,3.219,3.219,0,0,0-1.2-1.21,3.424,3.424,0,0,0-1.749-.44,3.468,3.468,0,0,0-1.771.44,3.119,3.119,0,0,0-1.188,1.221,3.757,3.757,0,0,0-.429,1.837v.44a3.589,3.589,0,0,0,.484,1.87,3.227,3.227,0,0,0,1.364,1.254,4.467,4.467,0,0,0,2.024.44,4.884,4.884,0,0,0,1.782-.308,3.793,3.793,0,0,0,1.408-.968l1.474,1.694a5.176,5.176,0,0,1-1.991,1.419A7.126,7.126,0,0,1,166.244,183.154Zm14.674,0a5.238,5.238,0,0,1-2.607-.66,4.691,4.691,0,0,1-1.87-1.991,7.28,7.28,0,0,1-.693-3.377,7.468,7.468,0,0,1,.671-3.388,4.523,4.523,0,0,1,1.837-1.969,5.38,5.38,0,0,1,2.662-.649,6.157,6.157,0,0,1,3.069.748,5.557,5.557,0,0,1,2.112,2.09,6.838,6.838,0,0,1,0,6.347,5.535,5.535,0,0,1-2.112,2.1A6.157,6.157,0,0,1,180.918,183.154Zm-6.512,4.114V171.252h2.618v2.772l-.088,3.124.22,3.124v7Zm6.2-6.468a3.545,3.545,0,0,0,1.771-.44,3.205,3.205,0,0,0,1.243-1.276,4.4,4.4,0,0,0,0-3.927,3.223,3.223,0,0,0-1.243-1.265,3.545,3.545,0,0,0-1.771-.44,3.607,3.607,0,0,0-1.782.44,3.2,3.2,0,0,0-1.254,1.265,4.4,4.4,0,0,0,0,3.927,3.184,3.184,0,0,0,1.254,1.276A3.607,3.607,0,0,0,180.61,180.8Zm13.86,2.354a5.924,5.924,0,0,1-2.64-.561,4.026,4.026,0,0,1-1.782-1.716,5.976,5.976,0,0,1-.638-2.915v-6.71h2.75v6.336a3.4,3.4,0,0,0,.715,2.365,2.62,2.62,0,0,0,2.035.781,3.42,3.42,0,0,0,1.683-.4,2.753,2.753,0,0,0,1.122-1.188,4.252,4.252,0,0,0,.407-1.958v-5.94h2.75V183h-2.618v-3.168l.462.968a4.044,4.044,0,0,1-1.738,1.749A5.281,5.281,0,0,1,194.47,183.154Zm14.432,0a4.18,4.18,0,0,1-2.992-1,3.888,3.888,0,0,1-1.056-2.959V168.656h2.75v10.472a1.836,1.836,0,0,0,.429,1.3,1.555,1.555,0,0,0,1.2.462,2.416,2.416,0,0,0,1.54-.484l.77,1.958a3.231,3.231,0,0,1-1.188.594A5.337,5.337,0,0,1,208.9,183.154Zm-5.984-9.614v-2.2h7.832v2.2ZM221.046,183v-2.376l-.154-.506V175.96a2.434,2.434,0,0,0-.726-1.881,3.147,3.147,0,0,0-2.2-.671,6.318,6.318,0,0,0-1.947.308,4.783,4.783,0,0,0-1.617.858l-1.078-2a6.521,6.521,0,0,1,2.255-1.089,10.12,10.12,0,0,1,2.717-.363,5.812,5.812,0,0,1,3.949,1.221,4.751,4.751,0,0,1,1.4,3.773V183Zm-3.7.154a5.525,5.525,0,0,1-2.31-.451,3.569,3.569,0,0,1-1.529-1.254,3.182,3.182,0,0,1-.539-1.815,3.408,3.408,0,0,1,.473-1.782A3.189,3.189,0,0,1,215,176.6a7.371,7.371,0,0,1,2.86-.462h3.41v1.826h-3.212a2.865,2.865,0,0,0-1.892.451,1.459,1.459,0,0,0-.484,1.111,1.4,1.4,0,0,0,.594,1.188,2.723,2.723,0,0,0,1.65.44,3.573,3.573,0,0,0,1.815-.462,2.62,2.62,0,0,0,1.155-1.364l.462,1.65a3.056,3.056,0,0,1-1.419,1.606A5.248,5.248,0,0,1,217.35,183.154Zm14.234,0a4.18,4.18,0,0,1-2.992-1,3.888,3.888,0,0,1-1.056-2.959V168.656h2.75v10.472a1.836,1.836,0,0,0,.429,1.3,1.555,1.555,0,0,0,1.2.462,2.416,2.416,0,0,0,1.54-.484l.77,1.958a3.231,3.231,0,0,1-1.188.594A5.337,5.337,0,0,1,231.584,183.154ZM225.6,173.54v-2.2h7.832v2.2ZM236.512,183l-.022-11.748,2.728.022L239.24,183Zm1.364-13.684a1.734,1.734,0,0,1-1.265-.484,1.634,1.634,0,0,1,0-2.343,1.757,1.757,0,0,1,1.265-.473,1.806,1.806,0,0,1,1.265.451,1.468,1.468,0,0,1,.495,1.133,1.679,1.679,0,0,1-.484,1.221A1.7,1.7,0,0,1,237.876,169.316Zm10.252,13.838a6.761,6.761,0,0,1-3.212-.792,5.781,5.781,0,0,1-2.222-2.123,5.92,5.92,0,0,1-.814-3.113,5.8,5.8,0,0,1,3.047-5.236,6.521,6.521,0,0,1,3.2-.77,6.631,6.631,0,0,1,3.234.77A5.807,5.807,0,0,1,253.584,174a5.9,5.9,0,0,1,.814,3.124,6,6,0,0,1-.8,3.1,5.637,5.637,0,0,1-2.233,2.134A6.894,6.894,0,0,1,248.128,183.154Zm0-2.354a3.652,3.652,0,0,0,1.8-.44,3.112,3.112,0,0,0,1.243-1.276,4.312,4.312,0,0,0,0-3.927,3.129,3.129,0,0,0-1.243-1.265,3.652,3.652,0,0,0-1.8-.44,3.545,3.545,0,0,0-1.771.44,3.223,3.223,0,0,0-1.243,1.265,4.4,4.4,0,0,0,0,3.927,3.283,3.283,0,0,0,1.243,1.287A3.324,3.324,0,0,0,248.128,180.8Zm15.576-9.68a5.6,5.6,0,0,1,2.519.55,4.031,4.031,0,0,1,1.749,1.683,5.9,5.9,0,0,1,.638,2.915V183h-2.75v-6.38a3.26,3.26,0,0,0-.737-2.332,2.713,2.713,0,0,0-2.057-.77,3.612,3.612,0,0,0-1.716.4,2.714,2.714,0,0,0-1.155,1.177,4.237,4.237,0,0,0-.407,1.969V183h-2.75V171.252h2.618v3.168l-.462-.968a4.164,4.164,0,0,1,1.793-1.727A5.862,5.862,0,0,1,263.7,171.12ZM285.418,183v-2.376l-.154-.506V175.96a2.434,2.434,0,0,0-.726-1.881,3.146,3.146,0,0,0-2.2-.671,6.318,6.318,0,0,0-1.947.308,4.783,4.783,0,0,0-1.617.858l-1.078-2a6.521,6.521,0,0,1,2.255-1.089,10.12,10.12,0,0,1,2.717-.363,5.812,5.812,0,0,1,3.949,1.221,4.751,4.751,0,0,1,1.4,3.773V183Zm-3.7.154a5.525,5.525,0,0,1-2.31-.451,3.569,3.569,0,0,1-1.529-1.254,3.182,3.182,0,0,1-.539-1.815,3.408,3.408,0,0,1,.473-1.782,3.189,3.189,0,0,1,1.551-1.254,7.371,7.371,0,0,1,2.86-.462h3.41v1.826h-3.212a2.865,2.865,0,0,0-1.892.451,1.459,1.459,0,0,0-.484,1.111,1.4,1.4,0,0,0,.594,1.188,2.723,2.723,0,0,0,1.65.44,3.573,3.573,0,0,0,1.815-.462,2.619,2.619,0,0,0,1.155-1.364l.462,1.65a3.056,3.056,0,0,1-1.419,1.606A5.248,5.248,0,0,1,281.722,183.154ZM298.2,171.12a5.6,5.6,0,0,1,2.519.55,4.031,4.031,0,0,1,1.749,1.683,5.9,5.9,0,0,1,.638,2.915V183h-2.75v-6.38a3.26,3.26,0,0,0-.737-2.332,2.713,2.713,0,0,0-2.057-.77,3.612,3.612,0,0,0-1.716.4,2.714,2.714,0,0,0-1.155,1.177,4.237,4.237,0,0,0-.407,1.969V183h-2.75V171.252h2.618v3.168l-.462-.968a4.164,4.164,0,0,1,1.793-1.727A5.862,5.862,0,0,1,298.2,171.12Zm13.4,12.034a6.12,6.12,0,0,1-3.047-.759,5.513,5.513,0,0,1-2.123-2.1,6.9,6.9,0,0,1,0-6.336,5.436,5.436,0,0,1,2.123-2.09,6.191,6.191,0,0,1,3.047-.748,5.335,5.335,0,0,1,2.64.649,4.587,4.587,0,0,1,1.848,1.969,7.365,7.365,0,0,1,.682,3.388,7.589,7.589,0,0,1-.66,3.377,4.515,4.515,0,0,1-1.826,1.991A5.354,5.354,0,0,1,311.6,183.154Zm.33-2.354a3.545,3.545,0,0,0,1.771-.44,3.28,3.28,0,0,0,1.254-1.276,4.312,4.312,0,0,0,0-3.927,3.3,3.3,0,0,0-1.254-1.265,3.784,3.784,0,0,0-3.542,0,3.3,3.3,0,0,0-1.254,1.265,4.312,4.312,0,0,0,0,3.927,3.28,3.28,0,0,0,1.254,1.276A3.545,3.545,0,0,0,311.928,180.8Zm3.564,2.2v-2.772l.11-3.124-.22-3.124v-7.3h2.728V183Zm17.644,4.422a11.87,11.87,0,0,1-3.179-.429,6.805,6.805,0,0,1-2.541-1.243l1.232-2.068a5.887,5.887,0,0,0,1.947,1.023,7.633,7.633,0,0,0,2.387.385,3.908,3.908,0,0,0,2.838-.891,3.6,3.6,0,0,0,.9-2.673v-2.09l.22-2.662-.088-2.662v-2.86h2.618v9.966a6.114,6.114,0,0,1-1.628,4.7A6.688,6.688,0,0,1,333.136,187.422Zm-.352-4.95a6.373,6.373,0,0,1-3.025-.715,5.421,5.421,0,0,1-2.134-1.991,6.079,6.079,0,0,1,0-5.962,5.342,5.342,0,0,1,2.134-1.98,6.454,6.454,0,0,1,3.025-.7,5.919,5.919,0,0,1,2.684.594,4.479,4.479,0,0,1,1.9,1.848,7.6,7.6,0,0,1,0,6.435,4.534,4.534,0,0,1-1.9,1.87A5.83,5.83,0,0,1,332.784,182.472Zm.418-2.332a3.9,3.9,0,0,0,1.848-.429,3.14,3.14,0,0,0,1.265-1.188,3.617,3.617,0,0,0,0-3.5,3,3,0,0,0-1.265-1.166,4.076,4.076,0,0,0-1.848-.407,4.146,4.146,0,0,0-1.859.407,2.981,2.981,0,0,0-1.276,1.166,3.617,3.617,0,0,0,0,3.5,3.123,3.123,0,0,0,1.276,1.188A3.969,3.969,0,0,0,333.2,180.14ZM343.08,183V171.252H345.7v3.234l-.308-.946a3.716,3.716,0,0,1,1.661-1.8,5.864,5.864,0,0,1,2.827-.616v2.618a1.934,1.934,0,0,0-.33-.055q-.154-.011-.308-.011a3.382,3.382,0,0,0-2.486.913,3.661,3.661,0,0,0-.924,2.717V183Zm14.3.154a6.761,6.761,0,0,1-3.212-.792,5.78,5.78,0,0,1-2.222-2.123,5.92,5.92,0,0,1-.814-3.113,5.8,5.8,0,0,1,3.047-5.236,6.522,6.522,0,0,1,3.2-.77,6.631,6.631,0,0,1,3.234.77A5.806,5.806,0,0,1,362.836,174a5.9,5.9,0,0,1,.814,3.124,6,6,0,0,1-.8,3.1,5.637,5.637,0,0,1-2.233,2.134A6.894,6.894,0,0,1,357.38,183.154Zm0-2.354a3.652,3.652,0,0,0,1.8-.44,3.113,3.113,0,0,0,1.243-1.276,4.312,4.312,0,0,0,0-3.927,3.129,3.129,0,0,0-1.243-1.265,3.652,3.652,0,0,0-1.8-.44,3.545,3.545,0,0,0-1.771.44,3.223,3.223,0,0,0-1.243,1.265,4.4,4.4,0,0,0,0,3.927,3.283,3.283,0,0,0,1.243,1.287A3.324,3.324,0,0,0,357.38,180.8Zm11.176,2.2-4.312-11.748h2.6l3.7,10.362H369.3l3.872-10.362h2.31l3.762,10.362h-1.21l3.806-10.362h2.442L379.952,183h-2.64l-3.432-9.174h.814L371.2,183Zm22.374.154a4.18,4.18,0,0,1-2.992-1,3.888,3.888,0,0,1-1.056-2.959V168.656h2.75v10.472a1.836,1.836,0,0,0,.429,1.3,1.555,1.555,0,0,0,1.2.462,2.416,2.416,0,0,0,1.54-.484l.77,1.958a3.231,3.231,0,0,1-1.188.594A5.337,5.337,0,0,1,390.93,183.154Zm-5.984-9.614v-2.2h7.832v2.2Zm17.556-2.42a5.6,5.6,0,0,1,2.519.55,4.031,4.031,0,0,1,1.749,1.683,5.9,5.9,0,0,1,.638,2.915V183h-2.75v-6.38a3.26,3.26,0,0,0-.737-2.332,2.713,2.713,0,0,0-2.057-.77,3.612,3.612,0,0,0-1.716.4,2.714,2.714,0,0,0-1.155,1.177,4.237,4.237,0,0,0-.407,1.969V183h-2.75V166.676h2.75v7.744l-.594-.968a4.164,4.164,0,0,1,1.793-1.727A5.862,5.862,0,0,1,402.5,171.12ZM201.609,210l-.022-11.748,2.728.022L204.337,210Zm1.364-13.684a1.734,1.734,0,0,1-1.265-.484,1.634,1.634,0,0,1,0-2.343,1.757,1.757,0,0,1,1.265-.473,1.806,1.806,0,0,1,1.265.451,1.468,1.468,0,0,1,.495,1.133,1.679,1.679,0,0,1-.484,1.221A1.7,1.7,0,0,1,202.973,196.316Zm11.638,1.8a5.6,5.6,0,0,1,2.519.55,4.031,4.031,0,0,1,1.749,1.683,5.9,5.9,0,0,1,.638,2.915V210h-2.75v-6.38a3.26,3.26,0,0,0-.737-2.332,2.713,2.713,0,0,0-2.057-.77,3.612,3.612,0,0,0-1.716.4,2.714,2.714,0,0,0-1.155,1.177,4.237,4.237,0,0,0-.407,1.969V210h-2.75V198.252h2.618v3.168l-.462-.968a4.164,4.164,0,0,1,1.793-1.727A5.862,5.862,0,0,1,214.611,198.12Zm18.9,12.034a4.18,4.18,0,0,1-2.992-1,3.888,3.888,0,0,1-1.056-2.959V195.656h2.75v10.472a1.836,1.836,0,0,0,.429,1.3,1.555,1.555,0,0,0,1.2.462,2.416,2.416,0,0,0,1.54-.484l.77,1.958a3.231,3.231,0,0,1-1.188.594A5.337,5.337,0,0,1,233.509,210.154Zm-5.984-9.614v-2.2h7.832v2.2Zm17.556-2.42a5.6,5.6,0,0,1,2.519.55,4.031,4.031,0,0,1,1.749,1.683,5.9,5.9,0,0,1,.638,2.915V210h-2.75v-6.38a3.26,3.26,0,0,0-.737-2.332,2.713,2.713,0,0,0-2.057-.77,3.612,3.612,0,0,0-1.716.4,2.714,2.714,0,0,0-1.155,1.177,4.237,4.237,0,0,0-.407,1.969V210h-2.75V193.676h2.75v7.744l-.594-.968a4.164,4.164,0,0,1,1.793-1.727A5.862,5.862,0,0,1,245.081,198.12Zm13.948,12.034a7.159,7.159,0,0,1-3.421-.781,5.659,5.659,0,0,1-2.266-2.145,6,6,0,0,1-.8-3.1,6.114,6.114,0,0,1,.781-3.113,5.6,5.6,0,0,1,2.156-2.123,6.306,6.306,0,0,1,3.135-.77,6.174,6.174,0,0,1,3.058.748,5.415,5.415,0,0,1,2.112,2.112,6.427,6.427,0,0,1,.77,3.212q0,.176-.011.4t-.033.418h-9.79V203.18h8.338l-1.078.572a3.376,3.376,0,0,0-.418-1.782,3.219,3.219,0,0,0-1.2-1.21,3.424,3.424,0,0,0-1.749-.44,3.468,3.468,0,0,0-1.771.44,3.118,3.118,0,0,0-1.188,1.221,3.757,3.757,0,0,0-.429,1.837v.44a3.589,3.589,0,0,0,.484,1.87,3.227,3.227,0,0,0,1.364,1.254,4.467,4.467,0,0,0,2.024.44,4.883,4.883,0,0,0,1.782-.308,3.793,3.793,0,0,0,1.408-.968l1.474,1.694a5.176,5.176,0,0,1-1.991,1.419A7.126,7.126,0,0,1,259.029,210.154Zm29.062-12.034a5.464,5.464,0,0,1,2.5.55,3.933,3.933,0,0,1,1.7,1.683,6.073,6.073,0,0,1,.616,2.915V210h-2.75v-6.38a3.432,3.432,0,0,0-.682-2.332,2.478,2.478,0,0,0-1.958-.77,3.158,3.158,0,0,0-1.6.4,2.685,2.685,0,0,0-1.078,1.166,4.371,4.371,0,0,0-.385,1.958V210h-2.75v-6.38a3.432,3.432,0,0,0-.682-2.332,2.478,2.478,0,0,0-1.958-.77,3.158,3.158,0,0,0-1.6.4,2.685,2.685,0,0,0-1.078,1.166,4.37,4.37,0,0,0-.385,1.958V210h-2.75V198.252h2.618v3.124l-.462-.924a3.994,3.994,0,0,1,1.727-1.738,5.484,5.484,0,0,1,2.585-.594,5.054,5.054,0,0,1,2.871.814,3.919,3.919,0,0,1,1.617,2.464l-1.078-.374a4.532,4.532,0,0,1,1.892-2.112A5.828,5.828,0,0,1,288.091,198.12ZM303.667,210v-2.376l-.154-.506V202.96a2.434,2.434,0,0,0-.726-1.881,3.146,3.146,0,0,0-2.2-.671,6.318,6.318,0,0,0-1.947.308,4.783,4.783,0,0,0-1.617.858l-1.078-2a6.521,6.521,0,0,1,2.255-1.089,10.12,10.12,0,0,1,2.717-.363,5.812,5.812,0,0,1,3.949,1.221,4.751,4.751,0,0,1,1.4,3.773V210Zm-3.7.154a5.525,5.525,0,0,1-2.31-.451,3.569,3.569,0,0,1-1.529-1.254,3.182,3.182,0,0,1-.539-1.815,3.408,3.408,0,0,1,.473-1.782,3.189,3.189,0,0,1,1.551-1.254,7.371,7.371,0,0,1,2.86-.462h3.41v1.826h-3.212a2.865,2.865,0,0,0-1.892.451,1.459,1.459,0,0,0-.484,1.111,1.4,1.4,0,0,0,.594,1.188,2.723,2.723,0,0,0,1.65.44,3.573,3.573,0,0,0,1.815-.462,2.619,2.619,0,0,0,1.155-1.364l.462,1.65a3.056,3.056,0,0,1-1.419,1.606A5.248,5.248,0,0,1,299.971,210.154Zm9.812-.154V198.252H312.4v3.234l-.308-.946a3.716,3.716,0,0,1,1.661-1.8,5.864,5.864,0,0,1,2.827-.616v2.618a1.934,1.934,0,0,0-.33-.055q-.154-.011-.308-.011a3.382,3.382,0,0,0-2.486.913,3.661,3.661,0,0,0-.924,2.717V210Zm11.374-2.618.066-3.454,6.138-5.676h3.3l-5.214,5.236-1.452,1.21ZM318.913,210V193.676h2.75V210Zm8.866,0-4.29-5.3,1.738-2.2,5.9,7.5Zm10.164.154a7.159,7.159,0,0,1-3.421-.781,5.659,5.659,0,0,1-2.266-2.145,6,6,0,0,1-.8-3.1,6.114,6.114,0,0,1,.781-3.113,5.605,5.605,0,0,1,2.156-2.123,6.306,6.306,0,0,1,3.135-.77,6.174,6.174,0,0,1,3.058.748,5.415,5.415,0,0,1,2.112,2.112,6.427,6.427,0,0,1,.77,3.212q0,.176-.011.4t-.033.418h-9.79V203.18h8.338l-1.078.572a3.376,3.376,0,0,0-.418-1.782,3.219,3.219,0,0,0-1.2-1.21,3.424,3.424,0,0,0-1.749-.44,3.468,3.468,0,0,0-1.771.44,3.118,3.118,0,0,0-1.188,1.221,3.757,3.757,0,0,0-.429,1.837v.44a3.589,3.589,0,0,0,.484,1.87,3.227,3.227,0,0,0,1.364,1.254,4.467,4.467,0,0,0,2.024.44,4.884,4.884,0,0,0,1.782-.308,3.793,3.793,0,0,0,1.408-.968l1.474,1.694a5.176,5.176,0,0,1-1.991,1.419A7.127,7.127,0,0,1,337.943,210.154Zm12.584,0a4.18,4.18,0,0,1-2.992-1,3.888,3.888,0,0,1-1.056-2.959V195.656h2.75v10.472a1.836,1.836,0,0,0,.429,1.3,1.555,1.555,0,0,0,1.2.462,2.416,2.416,0,0,0,1.54-.484l.77,1.958a3.231,3.231,0,0,1-1.188.594A5.337,5.337,0,0,1,350.527,210.154Zm-5.984-9.614v-2.2h7.832v2.2Zm11.99,9.614a1.785,1.785,0,0,1-1.8-1.826,1.737,1.737,0,0,1,.528-1.331,1.892,1.892,0,0,1,2.552,0,1.914,1.914,0,0,1,0,2.64A1.757,1.757,0,0,1,356.533,210.154Z" transform="translate(-7 2193)"/>
      <path id="Path_465" data-name="Path 465" d="M-119.973.348a12.149,12.149,0,0,1-4.365-.769,10.252,10.252,0,0,1-3.494-2.19,10.16,10.16,0,0,1-2.305-3.335,10.5,10.5,0,0,1-.827-4.205,10.5,10.5,0,0,1,.827-4.205,10.057,10.057,0,0,1,2.32-3.335,10.441,10.441,0,0,1,3.495-2.19,12.116,12.116,0,0,1,4.379-.768,11.994,11.994,0,0,1,4.771.913,9.294,9.294,0,0,1,3.581,2.683l-3.016,2.784a7.058,7.058,0,0,0-2.32-1.783,6.51,6.51,0,0,0-2.784-.594,7.12,7.12,0,0,0-2.61.464,5.917,5.917,0,0,0-2.059,1.334,6.093,6.093,0,0,0-1.348,2.059,7.009,7.009,0,0,0-.479,2.639,7.009,7.009,0,0,0,.479,2.639,6.093,6.093,0,0,0,1.348,2.059,5.917,5.917,0,0,0,2.059,1.334,7.12,7.12,0,0,0,2.61.464,6.51,6.51,0,0,0,2.784-.595,6.905,6.905,0,0,0,2.32-1.812l3.016,2.784a9.426,9.426,0,0,1-3.581,2.7A11.907,11.907,0,0,1-119.973.348ZM-108.721,0l-.029-21.518h4.5L-104.226,0Zm8.758,0-.058-15.6,4.5.029L-95.5,0Zm2.2-17.777a2.869,2.869,0,0,1-2.03-.725,2.351,2.351,0,0,1-.783-1.8,2.351,2.351,0,0,1,.783-1.8,2.869,2.869,0,0,1,2.03-.725,2.98,2.98,0,0,1,2.03.682,2.219,2.219,0,0,1,.783,1.754,2.485,2.485,0,0,1-.769,1.871A2.824,2.824,0,0,1-97.759-17.777ZM-83.549.232A10.044,10.044,0,0,1-88.233-.812,7.7,7.7,0,0,1-91.35-3.669a7.8,7.8,0,0,1-1.1-4.133,7.93,7.93,0,0,1,1.088-4.161A7.71,7.71,0,0,1-88.392-14.8a8.747,8.747,0,0,1,4.263-1.029A8.719,8.719,0,0,1-80-14.863a7.274,7.274,0,0,1,2.915,2.784,8.361,8.361,0,0,1,1.073,4.336q0,.261-.029.595t-.058.624H-88.769V-9.164h10.295l-1.74.783a4.336,4.336,0,0,0-.493-2.117A3.6,3.6,0,0,0-82.07-11.9a3.956,3.956,0,0,0-2.03-.507,4.035,4.035,0,0,0-2.044.507,3.545,3.545,0,0,0-1.378,1.421,4.485,4.485,0,0,0-.493,2.161v.7A4.386,4.386,0,0,0-87.45-5.38a3.69,3.69,0,0,0,1.6,1.479,5.417,5.417,0,0,0,2.422.508,5.868,5.868,0,0,0,2.189-.377A5.333,5.333,0,0,0-79.518-4.9l2.407,2.61a7.012,7.012,0,0,1-2.7,1.871A9.979,9.979,0,0,1-83.549.232ZM-63.51-15.834a7.264,7.264,0,0,1,3.321.739,5.362,5.362,0,0,1,2.306,2.262,8.014,8.014,0,0,1,.841,3.9V0h-4.524V-8.236a4.01,4.01,0,0,0-.826-2.784,3.012,3.012,0,0,0-2.334-.9,4.083,4.083,0,0,0-1.929.45,3.12,3.12,0,0,0-1.334,1.377,5.177,5.177,0,0,0-.479,2.378V0h-4.524V-15.6h4.321v4.321l-.812-1.3a5.779,5.779,0,0,1,2.407-2.407A7.42,7.42,0,0,1-63.51-15.834ZM-46.574.232a6.124,6.124,0,0,1-4.292-1.406A5.4,5.4,0,0,1-52.4-5.365V-19.053h4.524v13.63A2.093,2.093,0,0,0-47.357-3.9a1.891,1.891,0,0,0,1.421.537,2.907,2.907,0,0,0,1.827-.58l1.218,3.19a4.97,4.97,0,0,1-1.667.74A8.164,8.164,0,0,1-46.574.232ZM-54.81-11.774v-3.48h10.817v3.48ZM-32.074,0l-.058-15.6,4.495.029L-27.608,0Zm2.2-17.777A2.869,2.869,0,0,1-31.9-18.5a2.351,2.351,0,0,1-.783-1.8,2.351,2.351,0,0,1,.783-1.8,2.869,2.869,0,0,1,2.03-.725,2.98,2.98,0,0,1,2.03.682,2.219,2.219,0,0,1,.783,1.754,2.485,2.485,0,0,1-.768,1.871A2.824,2.824,0,0,1-29.87-17.777Zm15.95,1.943a7.264,7.264,0,0,1,3.321.739,5.362,5.362,0,0,1,2.306,2.262,8.014,8.014,0,0,1,.841,3.9V0h-4.524V-8.236A4.01,4.01,0,0,0-12.8-11.02a3.012,3.012,0,0,0-2.335-.9,4.083,4.083,0,0,0-1.929.45A3.12,3.12,0,0,0-18.4-10.092a5.177,5.177,0,0,0-.479,2.378V0H-23.4V-15.6h4.321v4.321l-.812-1.3a5.779,5.779,0,0,1,2.407-2.407A7.42,7.42,0,0,1-13.92-15.834ZM3.016.232A6.124,6.124,0,0,1-1.276-1.174,5.4,5.4,0,0,1-2.813-5.365V-19.053H1.711v13.63A2.093,2.093,0,0,0,2.233-3.9a1.891,1.891,0,0,0,1.421.537,2.907,2.907,0,0,0,1.827-.58L6.7-.754a4.97,4.97,0,0,1-1.668.74A8.164,8.164,0,0,1,3.016.232ZM-5.22-11.774v-3.48H5.6v3.48ZM16.5.232A10.044,10.044,0,0,1,11.817-.812,7.7,7.7,0,0,1,8.7-3.669,7.8,7.8,0,0,1,7.6-7.8a7.93,7.93,0,0,1,1.088-4.161A7.71,7.71,0,0,1,11.658-14.8a8.747,8.747,0,0,1,4.263-1.029,8.719,8.719,0,0,1,4.132.971,7.274,7.274,0,0,1,2.915,2.784,8.361,8.361,0,0,1,1.073,4.336q0,.261-.029.595t-.058.624H11.281V-9.164h10.3l-1.74.783a4.336,4.336,0,0,0-.493-2.117A3.6,3.6,0,0,0,17.98-11.9a3.956,3.956,0,0,0-2.03-.507,4.035,4.035,0,0,0-2.045.507,3.545,3.545,0,0,0-1.378,1.421,4.485,4.485,0,0,0-.493,2.161v.7A4.386,4.386,0,0,0,12.6-5.38,3.69,3.69,0,0,0,14.2-3.9a5.417,5.417,0,0,0,2.421.508,5.869,5.869,0,0,0,2.19-.377A5.333,5.333,0,0,0,20.532-4.9l2.407,2.61a7.012,7.012,0,0,1-2.7,1.871A9.979,9.979,0,0,1,16.5.232ZM27.057,0V-15.6h4.321v4.408l-.609-1.276A5.013,5.013,0,0,1,33-14.979a7.59,7.59,0,0,1,3.741-.855v4.176q-.29-.029-.522-.044t-.493-.014a4.247,4.247,0,0,0-3,1.059,4.279,4.279,0,0,0-1.146,3.292V0ZM47.995,0V-3.045l-.29-.667V-9.164a2.917,2.917,0,0,0-.884-2.262,3.9,3.9,0,0,0-2.712-.812,7.875,7.875,0,0,0-2.451.392,6.483,6.483,0,0,0-2.044,1.059L37.99-13.949a9.783,9.783,0,0,1,3.074-1.392,13.757,13.757,0,0,1,3.654-.493,8.281,8.281,0,0,1,5.539,1.682Q52.229-12.47,52.229-8.9V0ZM43.239.232a7.211,7.211,0,0,1-3.132-.624,4.758,4.758,0,0,1-2-1.7,4.328,4.328,0,0,1-.7-2.407,4.355,4.355,0,0,1,.682-2.436,4.462,4.462,0,0,1,2.16-1.638,10.493,10.493,0,0,1,3.857-.595h4.147v2.639H44.6A3.4,3.4,0,0,0,42.412-6,1.665,1.665,0,0,0,41.818-4.7,1.627,1.627,0,0,0,42.5-3.321a3.07,3.07,0,0,0,1.871.507A3.885,3.885,0,0,0,46.4-3.35,3.074,3.074,0,0,0,47.7-4.93l.7,2.088A4.039,4.039,0,0,1,46.6-.551,6.466,6.466,0,0,1,43.239.232Zm20.735,0A9.569,9.569,0,0,1,59.479-.8,7.732,7.732,0,0,1,56.39-3.654,7.792,7.792,0,0,1,55.274-7.8a7.772,7.772,0,0,1,1.116-4.161A7.766,7.766,0,0,1,59.479-14.8a9.569,9.569,0,0,1,4.495-1.029A8.6,8.6,0,0,1,68.266-14.8a6.278,6.278,0,0,1,2.7,2.944L67.454-9.976A4.072,4.072,0,0,0,65.931-11.6a3.936,3.936,0,0,0-1.987-.522,4.184,4.184,0,0,0-2.088.522,3.78,3.78,0,0,0-1.465,1.479,4.678,4.678,0,0,0-.536,2.32,4.678,4.678,0,0,0,.536,2.32A3.78,3.78,0,0,0,61.857-4a4.184,4.184,0,0,0,2.088.522,4.023,4.023,0,0,0,1.987-.508,3.933,3.933,0,0,0,1.522-1.639l3.509,1.914A6.3,6.3,0,0,1,68.266-.8,8.6,8.6,0,0,1,63.974.232Zm16.211,0a6.124,6.124,0,0,1-4.292-1.406,5.4,5.4,0,0,1-1.537-4.191V-19.053H78.88v13.63A2.093,2.093,0,0,0,79.4-3.9a1.891,1.891,0,0,0,1.421.537,2.907,2.907,0,0,0,1.827-.58l1.218,3.19a4.97,4.97,0,0,1-1.668.74A8.164,8.164,0,0,1,80.185.232ZM71.949-11.774v-3.48H82.766v3.48ZM86.478,0,86.42-15.6l4.5.029L90.944,0Zm2.2-17.777a2.869,2.869,0,0,1-2.03-.725,2.351,2.351,0,0,1-.783-1.8,2.351,2.351,0,0,1,.783-1.8,2.869,2.869,0,0,1,2.03-.725,2.98,2.98,0,0,1,2.03.682,2.219,2.219,0,0,1,.783,1.754,2.485,2.485,0,0,1-.769,1.871A2.824,2.824,0,0,1,88.682-17.777ZM102.573.232A9.46,9.46,0,0,1,98.136-.827,7.8,7.8,0,0,1,95.12-3.654a7.775,7.775,0,0,1-1.1-4.147,7.515,7.515,0,0,1,1.1-4.161A7.977,7.977,0,0,1,98.165-14.8a8.872,8.872,0,0,1,4.379-1,9.1,9.1,0,0,1,4.437,1,7.607,7.607,0,0,1,3.031,2.842A7.93,7.93,0,0,1,111.1-7.8a7.606,7.606,0,0,1-1.073,4.133,7.71,7.71,0,0,1-3.045,2.842A9.515,9.515,0,0,1,102.573.232Zm0-3.712A3.968,3.968,0,0,0,104.6-4,3.717,3.717,0,0,0,106.024-5.5a4.8,4.8,0,0,0,.522-2.306,4.784,4.784,0,0,0-.522-2.32A3.74,3.74,0,0,0,104.6-11.6a4.025,4.025,0,0,0-2.059-.522,3.912,3.912,0,0,0-2,.522,3.842,3.842,0,0,0-1.436,1.479,4.678,4.678,0,0,0-.536,2.32A4.7,4.7,0,0,0,99.108-5.5a3.959,3.959,0,0,0,1.421,1.508A3.68,3.68,0,0,0,102.573-3.48Zm21.054-12.354a7.264,7.264,0,0,1,3.321.739,5.362,5.362,0,0,1,2.306,2.262,8.014,8.014,0,0,1,.841,3.9V0H125.57V-8.236a4.01,4.01,0,0,0-.826-2.784,3.012,3.012,0,0,0-2.335-.9,4.083,4.083,0,0,0-1.928.45,3.12,3.12,0,0,0-1.334,1.377,5.177,5.177,0,0,0-.479,2.378V0h-4.524V-15.6h4.321v4.321l-.812-1.3a5.779,5.779,0,0,1,2.407-2.407A7.42,7.42,0,0,1,123.627-15.834Z" transform="translate(273 2174)"/>
      <g id="client" transform="translate(222.643 2057.717)">
        <path id="Path_452" data-name="Path 452" d="M2.124,56.291c-.061,0-.122-.009-.182-.009a2.061,2.061,0,0,1-1.875-2.23,86.728,86.728,0,0,1,1.658-9.13A2.107,2.107,0,0,1,2.4,43.784a20.865,20.865,0,0,1,8.592-4.148,2.024,2.024,0,0,1,1.779.5c.035.017,3.194,2.847,6.422,2.847h.39a2.066,2.066,0,0,1,0,4.131H19.2c-3.576,0-6.8-2.057-8.3-3.2A16.958,16.958,0,0,0,5.6,46.5c-1.241,5.841-1.432,7.889-1.432,7.907A2.064,2.064,0,0,1,2.124,56.291Z" transform="translate(0 22.989)" fill="#ff8f2e"/>
        <path id="Path_453" data-name="Path 453" d="M30.06,56.291a2.058,2.058,0,0,1-2.048-1.84c-.009-.069-.252-2.135-1.484-7.95a17.148,17.148,0,0,0-5.32-2.586c-1.51,1.137-4.739,3.2-8.314,3.2h-.2a2.066,2.066,0,1,1,0-4.131h.2c3.228,0,6.414-2.829,6.448-2.855a2.061,2.061,0,0,1,1.771-.495,21.025,21.025,0,0,1,8.618,4.149,2.107,2.107,0,0,1,.677,1.137c1.441,6.709,1.692,8.991,1.7,9.087a2.067,2.067,0,0,1-1.831,2.274A1.828,1.828,0,0,1,30.06,56.291Z" transform="translate(6.287 22.992)" fill="#ff8f2e"/>
        <path id="Path_454" data-name="Path 454" d="M16.14,49.173h-.2A10.462,10.462,0,0,1,5.5,38.707v-4.4A10.462,10.462,0,0,1,15.941,23.84h.2A10.469,10.469,0,0,1,26.59,34.307v4.4A10.469,10.469,0,0,1,16.14,49.173Zm-.2-21.211a6.343,6.343,0,0,0-6.327,6.344v4.4a6.336,6.336,0,0,0,6.327,6.336h.2a6.336,6.336,0,0,0,6.327-6.336v-4.4a6.343,6.343,0,0,0-6.327-6.344Z" transform="translate(3.237 13.616)" fill="#ff8f2e"/>
        <path id="Path_455" data-name="Path 455" d="M32.271,56.291c-.061,0-.122-.009-.182-.009a2.067,2.067,0,0,1-1.875-2.23,85.889,85.889,0,0,1,1.666-9.13,2.094,2.094,0,0,1,.668-1.137,20.866,20.866,0,0,1,8.592-4.148,2.048,2.048,0,0,1,1.788.5c.026.017,3.185,2.847,6.414,2.847h.39a2.066,2.066,0,0,1,0,4.131h-.39c-3.576,0-6.8-2.057-8.3-3.2A16.955,16.955,0,0,0,35.752,46.5c-1.241,5.841-1.432,7.889-1.432,7.907A2.064,2.064,0,0,1,32.271,56.291Z" transform="translate(17.936 22.989)" fill="#ff8f2e"/>
        <path id="Path_456" data-name="Path 456" d="M60.2,56.291a2.058,2.058,0,0,1-2.048-1.84c-.009-.069-.243-2.135-1.484-7.95a17.146,17.146,0,0,0-5.32-2.586c-1.51,1.137-4.739,3.2-8.314,3.2h-.2a2.066,2.066,0,0,1,0-4.131h.2c3.229,0,6.414-2.829,6.448-2.855a2.068,2.068,0,0,1,1.77-.495,21.025,21.025,0,0,1,8.618,4.149,2.106,2.106,0,0,1,.677,1.137c1.441,6.709,1.692,8.991,1.7,9.087a2.06,2.06,0,0,1-1.831,2.274A1.83,1.83,0,0,1,60.2,56.291Z" transform="translate(24.225 22.992)" fill="#ff8f2e"/>
        <path id="Path_457" data-name="Path 457" d="M46.289,49.173h-.2A10.467,10.467,0,0,1,35.648,38.707v-4.4A10.467,10.467,0,0,1,46.089,23.84h.2A10.469,10.469,0,0,1,56.738,34.307v4.4A10.469,10.469,0,0,1,46.289,49.173Zm-.2-21.211a6.343,6.343,0,0,0-6.327,6.344v4.4a6.336,6.336,0,0,0,6.327,6.336h.2a6.336,6.336,0,0,0,6.327-6.336v-4.4a6.343,6.343,0,0,0-6.327-6.344Z" transform="translate(21.173 13.616)" fill="#ff8f2e"/>
        <path id="Path_458" data-name="Path 458" d="M30.881,38.333a2.089,2.089,0,0,1-.755-.148,2.068,2.068,0,0,1-1.3-1.883l-.191-11.4H2.2A2.063,2.063,0,0,1,.132,22.841V3.019A2.065,2.065,0,0,1,2.2.953H45.036a2.058,2.058,0,0,1,2.057,2.066v2.89a2.057,2.057,0,1,1-4.114,0V5.084H4.254V20.776h26.4a2.056,2.056,0,0,1,2.057,2.031l.148,8.462.1-.1a2.062,2.062,0,1,1,2.951,2.881l-3.55,3.654A2.042,2.042,0,0,1,30.881,38.333Z" transform="translate(0.043)" fill="#ff8f2e"/>
        <path id="Path_459" data-name="Path 459" d="M39.3,41.149a2.051,2.051,0,0,1-1.293-.46L24.667,29.9a2.063,2.063,0,0,1-.772-1.606V8.2a2.056,2.056,0,0,1,2.057-2.057H65.5A2.056,2.056,0,0,1,67.558,8.2V28.018a2.061,2.061,0,0,1-2.048,2.065l-24.032.122-.113,8.9a2.087,2.087,0,0,1-1.189,1.84A2.055,2.055,0,0,1,39.3,41.149ZM28.017,27.306,37.3,34.814l.087-6.683a2.067,2.067,0,0,1,2.048-2.04l24.006-.13v-15.7H28.017Z" transform="translate(14.18 3.085)" fill="#ff8f2e"/>
        <path id="Path_460" data-name="Path 460" d="M53.1,14.412H30.859a2.066,2.066,0,0,1,0-4.131H53.1a2.066,2.066,0,1,1,0,4.131Z" transform="translate(17.1 5.55)" fill="#ff8f2e"/>
        <path id="Path_461" data-name="Path 461" d="M44.866,18.037H30.859a2.066,2.066,0,0,1,0-4.131H44.866a2.066,2.066,0,0,1,0,4.131Z" transform="translate(17.1 7.706)" fill="#ff8f2e"/>
        <path id="Path_462" data-name="Path 462" d="M29.349,9.229H7.1A2.066,2.066,0,0,1,7.1,5.1H29.349a2.066,2.066,0,0,1,0,4.131Z" transform="translate(2.962 2.466)" fill="#ff8f2e"/>
        <path id="Path_463" data-name="Path 463" d="M21.1,12.856H7.1a2.066,2.066,0,0,1,0-4.131h14a2.066,2.066,0,1,1,0,4.131Z" transform="translate(2.962 4.623)" fill="#ff8f2e"/>
      </g>
    </g>
  </g>
</svg>
