<svg width="230" height="295" viewBox="0 0 230 295" fill="none" xmlns="http://www.w3.org/2000/svg">
<path d="M12.1504 116.343V235.447L115.06 294.999L217.971 235.447V116.343L115.06 56.791L12.1504 116.343Z" fill="#E75825"/>
<path d="M0 66.6042V199.813L114.925 266.417L229.85 199.813V66.6042L114.925 0L0 66.6042Z" fill="white"/>
<path d="M89.3539 79.0632C89.3158 79.0632 89.2777 79.0577 89.2396 79.0577C88.5268 78.9924 88.0044 78.3721 88.0642 77.6593C88.0697 77.5994 88.1948 76.1574 89.1036 71.9348C89.1634 71.6573 89.3158 71.407 89.528 71.2219C91.8352 69.2467 94.79 68.6427 94.9151 68.6209C95.3178 68.5393 95.7313 68.659 96.0306 68.9365C96.0524 68.9474 98.0331 70.7213 100.057 70.7213H100.302C101.015 70.7213 101.592 71.3036 101.592 72.0164C101.592 72.7292 101.015 73.3115 100.302 73.3115H100.057C97.8154 73.3115 95.7966 72.0218 94.8553 71.3036C94.1043 71.5267 92.7276 72.0164 91.5359 72.9251C90.7578 76.5873 90.6381 77.8715 90.6381 77.8824C90.5782 78.5571 90.0123 79.0632 89.3539 79.0632Z" fill="#FF8F2E"/>
<path d="M110.811 79.065C110.159 79.065 109.598 78.5753 109.527 77.9114C109.522 77.8679 109.369 76.5728 108.597 72.927C107.405 72.0237 106.018 71.5285 105.261 71.3054C104.314 72.0182 102.29 73.3133 100.048 73.3133H99.923C99.2102 73.3133 98.6279 72.7311 98.6279 72.0182C98.6279 71.3054 99.2102 70.7232 99.923 70.7232H100.048C102.072 70.7232 104.069 68.9492 104.091 68.9329C104.391 68.6608 104.804 68.5466 105.201 68.6227C105.326 68.6499 108.298 69.2485 110.605 71.2238C110.817 71.4088 110.969 71.6591 111.029 71.9366C111.932 76.1429 112.09 77.574 112.096 77.6339C112.172 78.3467 111.655 78.9834 110.948 79.0596C110.904 79.065 110.855 79.065 110.811 79.065Z" fill="#FF8F2E"/>
<path d="M100.171 68.7236H100.046C96.433 68.7236 93.5 65.7798 93.5 62.1612V59.4023C93.5 55.7837 96.433 52.8398 100.046 52.8398H100.171C103.784 52.8398 106.723 55.7837 106.723 59.4023V62.1612C106.723 65.7798 103.784 68.7236 100.171 68.7236ZM100.046 55.4246C97.8587 55.4246 96.0793 57.2094 96.0793 59.4023V62.1612C96.0793 64.3541 97.8587 66.1335 100.046 66.1335H100.171C102.359 66.1335 104.138 64.3541 104.138 62.1612V59.4023C104.138 57.2094 102.359 55.4246 100.171 55.4246H100.046Z" fill="#FF8F2E"/>
<path d="M119.501 79.0632C119.463 79.0632 119.425 79.0577 119.387 79.0577C118.68 78.9924 118.152 78.3721 118.212 77.6593C118.217 77.5994 118.342 76.1574 119.256 71.9348C119.316 71.6573 119.463 71.407 119.675 71.2219C121.983 69.2467 124.937 68.6427 125.063 68.6209C125.465 68.5393 125.879 68.659 126.183 68.9365C126.2 68.9474 128.181 70.7213 130.205 70.7213H130.45C131.162 70.7213 131.739 71.3036 131.739 72.0164C131.739 72.7292 131.162 73.3115 130.45 73.3115H130.205C127.963 73.3115 125.944 72.0218 125.003 71.3036C124.252 71.5267 122.875 72.0164 121.683 72.9251C120.905 76.5873 120.785 77.8715 120.785 77.8824C120.726 78.5571 120.16 79.0632 119.501 79.0632Z" fill="#FF8F2E"/>
<path d="M140.956 79.065C140.303 79.065 139.743 78.5753 139.672 77.9114C139.667 77.8679 139.52 76.5728 138.742 72.927C137.55 72.0237 136.162 71.5285 135.406 71.3054C134.459 72.0182 132.435 73.3133 130.193 73.3133H130.068C129.355 73.3133 128.778 72.7311 128.778 72.0182C128.778 71.3054 129.355 70.7232 130.068 70.7232H130.193C132.217 70.7232 134.214 68.9492 134.236 68.9329C134.535 68.6608 134.954 68.5466 135.346 68.6227C135.471 68.6499 138.442 69.2485 140.75 71.2238C140.962 71.4088 141.114 71.6591 141.174 71.9366C142.077 76.1429 142.235 77.574 142.241 77.6339C142.317 78.3467 141.805 78.9834 141.092 79.0596C141.049 79.065 141 79.065 140.956 79.065Z" fill="#FF8F2E"/>
<path d="M130.32 68.7236H130.195C126.587 68.7236 123.648 65.7798 123.648 62.1612V59.4023C123.648 55.7837 126.587 52.8398 130.195 52.8398H130.32C133.933 52.8398 136.871 55.7837 136.871 59.4023V62.1612C136.871 65.7798 133.933 68.7236 130.32 68.7236ZM130.195 55.4246C128.007 55.4246 126.228 57.2094 126.228 59.4023V62.1612C126.228 64.3541 128.007 66.1335 130.195 66.1335H130.32C132.507 66.1335 134.287 64.3541 134.287 62.1612V59.4023C134.287 57.2094 132.507 55.4246 130.32 55.4246H130.195Z" fill="#FF8F2E"/>
<path d="M107.411 53.3898C107.253 53.3898 107.09 53.3571 106.938 53.2973C106.453 53.1068 106.132 52.6388 106.122 52.1165L106.002 44.9663H89.4269C88.7141 44.9663 88.1318 44.3895 88.1318 43.6766V31.2482C88.1318 30.5299 88.7141 29.9531 89.4269 29.9531H116.286C116.999 29.9531 117.576 30.5299 117.576 31.2482V33.0602C117.576 33.7731 116.999 34.3553 116.286 34.3553C115.573 34.3553 114.997 33.7731 114.997 33.0602V32.5433H90.7166V42.3816H107.27C107.977 42.3816 108.548 42.9475 108.559 43.6549L108.652 48.9604L108.712 48.9005C109.212 48.3836 110.029 48.3727 110.54 48.8733C111.052 49.3739 111.062 50.1902 110.562 50.7071L108.336 52.998C108.091 53.2537 107.754 53.3898 107.411 53.3898Z" fill="#FF8F2E"/>
<path d="M121.553 57.0898C121.265 57.0898 120.976 56.9918 120.742 56.8014L112.379 50.0376C112.074 49.7927 111.895 49.4227 111.895 49.0309V36.4283C111.895 35.7155 112.471 35.1387 113.184 35.1387H137.981C138.694 35.1387 139.271 35.7155 139.271 36.4283V48.8568C139.271 49.5696 138.699 50.1464 137.987 50.1518L122.919 50.228L122.848 55.811C122.837 56.3062 122.549 56.7524 122.103 56.9646C121.929 57.0462 121.744 57.0898 121.553 57.0898ZM114.479 48.4105L120.302 53.1175L120.356 48.9275C120.367 48.2201 120.938 47.6542 121.64 47.6487L136.692 47.5671V37.7234H114.479V48.4105Z" fill="#FF8F2E"/>
<path d="M132.038 41.8714H118.091C117.379 41.8714 116.802 41.2892 116.802 40.5763C116.802 39.8581 117.379 39.2812 118.091 39.2812H132.038C132.756 39.2812 133.333 39.8581 133.333 40.5763C133.333 41.2892 132.756 41.8714 132.038 41.8714Z" fill="#FF8F2E"/>
<path d="M126.874 45.4964H118.091C117.379 45.4964 116.802 44.9142 116.802 44.2013C116.802 43.4831 117.379 42.9062 118.091 42.9062H126.874C127.587 42.9062 128.164 43.4831 128.164 44.2013C128.164 44.9142 127.587 45.4964 126.874 45.4964Z" fill="#FF8F2E"/>
<path d="M108.281 36.6878H94.3341C93.6159 36.6878 93.0391 36.111 93.0391 35.3927C93.0391 34.6799 93.6159 34.0977 94.3341 34.0977H108.281C108.994 34.0977 109.57 34.6799 109.57 35.3927C109.57 36.111 108.994 36.6878 108.281 36.6878Z" fill="#FF8F2E"/>
<path d="M103.111 40.3148H94.3341C93.6159 40.3148 93.0391 39.738 93.0391 39.0197C93.0391 38.3069 93.6159 37.7246 94.3341 37.7246H103.111C103.824 37.7246 104.406 38.3069 104.406 39.0197C104.406 39.738 103.824 40.3148 103.111 40.3148Z" fill="#FF8F2E"/>
<path d="M28.9771 168.732H28.1064V161.244H32.2855V162.006H28.9771V164.748H32.0896V165.532H28.9771V168.732Z" fill="#323131"/>
<path d="M34.2403 168.742H33.3915V163.127H34.2403V168.742ZM33.3262 161.603C33.3262 161.418 33.3697 161.277 33.4568 161.189C33.5547 161.092 33.6799 161.037 33.8268 161.037C33.9683 161.037 34.088 161.092 34.175 161.189C34.273 161.277 34.3274 161.418 34.3274 161.603C34.3274 161.793 34.273 161.94 34.175 162.038C34.088 162.125 33.9683 162.169 33.8268 162.169C33.6799 162.169 33.5547 162.125 33.4568 162.038C33.3697 161.94 33.3262 161.793 33.3262 161.603Z" fill="#323131"/>
<path d="M39.8956 168.736V165.101C39.8956 164.655 39.7867 164.318 39.5691 164.1C39.3623 163.871 39.0467 163.752 38.6114 163.752C38.0128 163.752 37.5775 163.915 37.3054 164.231C37.0279 164.535 36.8918 165.058 36.8918 165.798V168.736H36.043V163.121H36.7395L36.8918 163.882H36.9136C37.0877 163.61 37.3326 163.398 37.6537 163.251C37.9693 163.093 38.3175 163.012 38.6984 163.012C39.3786 163.012 39.8847 163.18 40.2221 163.512C40.5703 163.833 40.7444 164.356 40.7444 165.079V168.736H39.8956Z" fill="#323131"/>
<path d="M46.3133 167.974H46.2698C45.878 168.556 45.2903 168.845 44.5067 168.845C43.7667 168.845 43.1899 168.6 42.7872 168.105C42.3791 167.599 42.1777 166.88 42.1777 165.95C42.1777 165.025 42.3791 164.307 42.7872 163.795C43.2062 163.273 43.7775 163.011 44.5067 163.011C45.2576 163.011 45.8399 163.289 46.248 163.839H46.3133L46.2698 163.055V160.77H47.1186V168.736H46.4221L46.3133 167.974ZM44.6155 168.126C45.1923 168.126 45.6168 167.969 45.878 167.648C46.1392 167.332 46.2698 166.821 46.2698 166.124V165.95C46.2698 165.155 46.1283 164.589 45.8562 164.252C45.595 163.904 45.1706 163.73 44.5938 163.73C44.0986 163.73 43.7231 163.926 43.4619 164.317C43.2007 164.698 43.0701 165.242 43.0701 165.95C43.0701 166.679 43.2007 167.223 43.4619 167.582C43.7231 167.947 44.104 168.126 44.6155 168.126Z" fill="#323131"/>
<path d="M56.4896 165.928C56.4896 166.843 56.2556 167.561 55.7931 168.083C55.3415 168.595 54.7102 168.845 53.8995 168.845C53.388 168.845 52.9417 168.731 52.55 168.497C52.1582 168.252 51.8534 167.909 51.6358 167.474C51.429 167.038 51.3311 166.527 51.3311 165.928C51.3311 165.014 51.5542 164.307 52.0058 163.795C52.4683 163.273 53.105 163.012 53.9212 163.012C54.7048 163.012 55.3251 163.273 55.7931 163.795C56.2556 164.318 56.4896 165.031 56.4896 165.928ZM52.2235 165.928C52.2235 166.641 52.3595 167.185 52.637 167.561C52.9254 167.942 53.3444 168.127 53.8995 168.127C54.4654 168.127 54.8898 167.942 55.1837 167.561C55.4721 167.185 55.619 166.641 55.619 165.928C55.619 165.221 55.4721 164.682 55.1837 164.318C54.8898 163.942 54.4654 163.752 53.8995 163.752C53.3444 163.752 52.9254 163.937 52.637 164.296C52.3595 164.661 52.2235 165.205 52.2235 165.928Z" fill="#323131"/>
<path d="M58.7766 163.119V166.754C58.7766 167.222 58.8746 167.57 59.0813 167.799C59.299 168.017 59.6255 168.125 60.0608 168.125C60.6539 168.125 61.0838 167.968 61.345 167.646C61.6171 167.331 61.7586 166.808 61.7586 166.079V163.119H62.6074V168.735H61.9109L61.8021 167.973H61.7368C61.5627 168.25 61.3232 168.468 61.0185 168.626C60.7138 168.767 60.3655 168.844 59.9737 168.844C59.2772 168.844 58.7603 168.686 58.4284 168.365C58.091 168.033 57.9277 167.51 57.9277 166.798V163.119H58.7766Z" fill="#323131"/>
<path d="M66.2393 168.131C66.3808 168.131 66.5223 168.125 66.6529 168.109C66.7943 168.082 66.914 168.06 67.0011 168.043V168.696C66.914 168.74 66.7726 168.773 66.5876 168.805C66.4134 168.832 66.2502 168.849 66.1087 168.849C65.0204 168.849 64.4762 168.277 64.4762 167.129V163.777H63.6709V163.386L64.4762 163.015L64.8463 161.818H65.3251V163.124H66.9576V163.777H65.3251V167.086C65.3251 167.434 65.4013 167.695 65.5645 167.869C65.7224 168.043 65.9455 168.131 66.2393 168.131Z" fill="#323131"/>
<path d="M75.4329 168.735L74.4099 165.448C74.3337 165.247 74.214 164.79 74.0398 164.077H73.9963C73.8657 164.675 73.746 165.133 73.648 165.448L72.5815 168.735H71.602L70.0566 163.119H70.9491C71.3082 164.528 71.5857 165.6 71.7762 166.341C71.9612 167.081 72.07 167.581 72.1027 167.842H72.1462C72.1897 167.641 72.2441 167.385 72.3203 167.081C72.4074 166.776 72.4836 166.531 72.5597 166.341L73.5827 163.119H74.4969L75.4982 166.341C75.6995 166.939 75.8301 167.429 75.89 167.821H75.9335C75.9444 167.706 75.9825 167.516 76.0423 167.255C76.0967 166.994 76.4559 165.617 77.1089 163.119H78.0013L76.4341 168.735H75.4329Z" fill="#323131"/>
<path d="M82.8516 168.736V165.101C82.8516 164.655 82.7428 164.317 82.5251 164.1C82.3184 163.871 82.0027 163.751 81.5674 163.751C80.9689 163.751 80.5335 163.915 80.2615 164.23C79.9839 164.551 79.8479 165.074 79.8479 165.797V168.736H78.999V160.77H79.8479V163.186C79.8479 163.479 79.837 163.719 79.8261 163.904H79.8697C80.0275 163.632 80.2615 163.42 80.5662 163.273C80.8818 163.115 81.2409 163.033 81.6327 163.033C82.3292 163.033 82.8407 163.202 83.1781 163.534C83.5264 163.855 83.7005 164.372 83.7005 165.079V168.736H82.8516Z" fill="#323131"/>
<path d="M88.8978 168.732L88.7237 167.927H88.6801C88.4026 168.291 88.1251 168.536 87.853 168.667C87.5755 168.781 87.2273 168.841 86.8083 168.841C86.2532 168.841 85.8179 168.699 85.5023 168.406C85.1812 168.117 85.0234 167.709 85.0234 167.187C85.0234 166.055 85.9267 165.462 87.7442 165.402L88.7019 165.358V165.01C88.7019 164.575 88.604 164.259 88.4189 164.052C88.2285 163.835 87.9238 163.726 87.5048 163.726C87.0368 163.726 86.509 163.873 85.9158 164.161L85.6547 163.508C85.9267 163.367 86.2315 163.247 86.5688 163.16C86.9008 163.073 87.2273 163.029 87.5483 163.029C88.2285 163.029 88.7291 163.182 89.0502 163.486C89.3658 163.78 89.529 164.248 89.529 164.901V168.732H88.8978ZM86.9824 168.123C87.5048 168.123 87.9183 167.981 88.2231 167.687C88.5278 167.399 88.6801 166.991 88.6801 166.468V165.968L87.8313 166.011C87.1456 166.028 86.6559 166.131 86.3512 166.316C86.0573 166.506 85.9158 166.795 85.9158 167.187C85.9158 167.491 86.0084 167.725 86.1988 167.883C86.3838 168.046 86.645 168.123 86.9824 168.123Z" fill="#323131"/>
<path d="M93.1006 168.131C93.2421 168.131 93.3836 168.125 93.5142 168.109C93.6557 168.082 93.7754 168.06 93.8624 168.043V168.696C93.7754 168.74 93.6339 168.773 93.4489 168.805C93.2748 168.832 93.1115 168.849 92.97 168.849C91.8817 168.849 91.3376 168.277 91.3376 167.129V163.777H90.5322V163.386L91.3376 163.015L91.7076 161.818H92.1864V163.124H93.8189V163.777H92.1864V167.086C92.1864 167.434 92.2626 167.695 92.4259 167.869C92.5837 168.043 92.8068 168.131 93.1006 168.131Z" fill="#323131"/>
<path d="M96.8076 163.119H97.7218L98.9625 166.319C99.2237 167.059 99.3869 167.592 99.4631 167.908H99.5066C99.5501 167.734 99.6372 167.44 99.7678 167.015C99.9093 166.596 100.383 165.296 101.183 163.119H102.075L99.6807 169.518C99.4304 170.139 99.1475 170.585 98.8319 170.846C98.5108 171.118 98.119 171.26 97.6565 171.26C97.3953 171.26 97.1395 171.227 96.8947 171.173V170.476C97.0797 170.52 97.2919 170.541 97.5259 170.541C98.1027 170.541 98.5163 170.215 98.7666 169.562L99.0713 168.757L96.8076 163.119Z" fill="#323131"/>
<path d="M107.84 165.928C107.84 166.843 107.606 167.561 107.144 168.083C106.692 168.595 106.061 168.845 105.25 168.845C104.739 168.845 104.292 168.731 103.901 168.497C103.509 168.252 103.204 167.909 102.986 167.474C102.78 167.038 102.682 166.527 102.682 165.928C102.682 165.014 102.905 164.307 103.356 163.795C103.819 163.273 104.456 163.012 105.272 163.012C106.055 163.012 106.676 163.273 107.144 163.795C107.606 164.318 107.84 165.031 107.84 165.928ZM103.574 165.928C103.574 166.641 103.71 167.185 103.988 167.561C104.276 167.942 104.695 168.127 105.25 168.127C105.816 168.127 106.24 167.942 106.534 167.561C106.823 167.185 106.97 166.641 106.97 165.928C106.97 165.221 106.823 164.682 106.534 164.318C106.24 163.942 105.816 163.752 105.25 163.752C104.695 163.752 104.276 163.937 103.988 164.296C103.71 164.661 103.574 165.205 103.574 165.928Z" fill="#323131"/>
<path d="M110.128 163.119V166.754C110.128 167.222 110.226 167.57 110.433 167.799C110.651 168.017 110.977 168.125 111.412 168.125C112.005 168.125 112.435 167.968 112.697 167.646C112.969 167.331 113.11 166.808 113.11 166.079V163.119H113.959V168.735H113.262L113.154 167.973H113.088C112.914 168.25 112.675 168.468 112.37 168.626C112.065 168.767 111.717 168.844 111.325 168.844C110.629 168.844 110.112 168.686 109.78 168.365C109.443 168.033 109.279 167.51 109.279 166.798V163.119H110.128Z" fill="#323131"/>
<path d="M118.33 163.012C118.575 163.012 118.798 163.033 119.005 163.077L118.896 163.861C118.662 163.817 118.45 163.795 118.265 163.795C117.813 163.795 117.421 163.986 117.089 164.361C116.768 164.726 116.611 165.183 116.611 165.732V168.736H115.762V163.121H116.48L116.567 164.165H116.611C116.812 163.806 117.057 163.523 117.351 163.316C117.655 163.115 117.982 163.012 118.33 163.012Z" fill="#323131"/>
<path d="M125.033 168.845C124.206 168.845 123.564 168.6 123.118 168.105C122.683 167.599 122.465 166.886 122.465 165.972C122.465 165.031 122.688 164.307 123.14 163.795C123.586 163.273 124.233 163.012 125.077 163.012C125.349 163.012 125.621 163.044 125.882 163.099C126.154 163.159 126.366 163.229 126.513 163.316L126.252 164.035C126.078 163.964 125.871 163.904 125.643 163.861C125.425 163.806 125.229 163.774 125.055 163.774C123.923 163.774 123.357 164.503 123.357 165.95C123.357 166.647 123.493 167.185 123.771 167.561C124.043 167.925 124.456 168.105 125.011 168.105C125.474 168.105 125.953 168.007 126.448 167.8V168.54C126.067 168.742 125.599 168.845 125.033 168.845Z" fill="#323131"/>
<path d="M128.569 163.119V166.754C128.569 167.222 128.667 167.57 128.873 167.799C129.091 168.017 129.417 168.125 129.853 168.125C130.446 168.125 130.876 167.968 131.137 167.646C131.409 167.331 131.551 166.808 131.551 166.079V163.119H132.399V168.735H131.703L131.594 167.973H131.529C131.355 168.25 131.115 168.468 130.811 168.626C130.506 168.767 130.158 168.844 129.766 168.844C129.069 168.844 128.552 168.686 128.22 168.365C127.883 168.033 127.72 167.51 127.72 166.798V163.119H128.569Z" fill="#323131"/>
<path d="M137.838 167.213C137.838 167.735 137.642 168.143 137.25 168.431C136.858 168.709 136.314 168.845 135.618 168.845C134.861 168.845 134.279 168.725 133.876 168.475V167.691C134.137 167.838 134.42 167.947 134.725 168.018C135.041 168.094 135.345 168.127 135.639 168.127C136.075 168.127 136.407 168.061 136.641 167.931C136.885 167.789 137.011 167.572 137.011 167.278C137.011 167.06 136.913 166.875 136.728 166.712C136.537 166.554 136.167 166.375 135.618 166.168C135.095 165.966 134.725 165.792 134.507 165.645C134.29 165.504 134.121 165.341 134.007 165.167C133.903 164.982 133.854 164.753 133.854 164.492C133.854 164.046 134.034 163.686 134.399 163.425C134.774 163.153 135.291 163.012 135.944 163.012C136.553 163.012 137.141 163.137 137.707 163.382L137.424 164.078C136.858 163.85 136.341 163.73 135.879 163.73C135.471 163.73 135.166 163.795 134.965 163.926C134.758 164.046 134.66 164.22 134.66 164.448C134.66 164.595 134.692 164.726 134.769 164.84C134.856 164.943 134.975 165.047 135.139 165.145C135.313 165.232 135.645 165.362 136.14 165.537C136.804 165.787 137.255 166.032 137.489 166.277C137.718 166.527 137.838 166.837 137.838 167.213Z" fill="#323131"/>
<path d="M141.035 168.132C141.177 168.132 141.318 168.127 141.449 168.111C141.59 168.084 141.71 168.062 141.797 168.045V168.698C141.71 168.742 141.568 168.775 141.383 168.807C141.209 168.834 141.046 168.851 140.905 168.851C139.816 168.851 139.272 168.279 139.272 167.131V163.779H138.467V163.387L139.272 163.017L139.642 161.82H140.121V163.126H141.753V163.779H140.121V167.088C140.121 167.436 140.197 167.697 140.36 167.871C140.518 168.045 140.741 168.132 141.035 168.132Z" fill="#323131"/>
<path d="M147.765 165.928C147.765 166.843 147.531 167.561 147.068 168.083C146.617 168.595 145.986 168.845 145.175 168.845C144.663 168.845 144.217 168.731 143.825 168.497C143.434 168.252 143.129 167.909 142.911 167.474C142.704 167.038 142.606 166.527 142.606 165.928C142.606 165.014 142.83 164.307 143.281 163.795C143.744 163.273 144.38 163.012 145.197 163.012C145.98 163.012 146.601 163.273 147.068 163.795C147.531 164.318 147.765 165.031 147.765 165.928ZM143.499 165.928C143.499 166.641 143.635 167.185 143.912 167.561C144.201 167.942 144.62 168.127 145.175 168.127C145.741 168.127 146.165 167.942 146.459 167.561C146.747 167.185 146.894 166.641 146.894 165.928C146.894 165.221 146.747 164.682 146.459 164.318C146.165 163.942 145.741 163.752 145.175 163.752C144.62 163.752 144.201 163.937 143.912 164.296C143.635 164.661 143.499 165.205 143.499 165.928Z" fill="#323131"/>
<path d="M156.406 168.736V165.079C156.406 164.633 156.308 164.296 156.123 164.078C155.933 163.861 155.633 163.752 155.231 163.752C154.708 163.752 154.317 163.904 154.055 164.209C153.805 164.503 153.685 164.965 153.685 165.602V168.736H152.837V165.079C152.837 164.633 152.733 164.296 152.532 164.078C152.341 163.861 152.042 163.752 151.639 163.752C151.117 163.752 150.725 163.915 150.464 164.231C150.214 164.552 150.094 165.074 150.094 165.798V168.736H149.245V163.121H149.942L150.094 163.882H150.116C150.274 163.621 150.497 163.414 150.791 163.251C151.095 163.093 151.427 163.012 151.792 163.012C152.662 163.012 153.234 163.333 153.511 163.969H153.555C153.713 163.681 153.952 163.447 154.273 163.273C154.589 163.099 154.953 163.012 155.361 163.012C155.998 163.012 156.471 163.18 156.776 163.512C157.092 163.833 157.255 164.356 157.255 165.079V168.736H156.406Z" fill="#323131"/>
<path d="M161.377 168.845C160.55 168.845 159.897 168.595 159.418 168.083C158.94 167.577 158.7 166.875 158.7 165.972C158.7 165.074 158.918 164.356 159.353 163.817C159.799 163.284 160.403 163.012 161.16 163.012C161.867 163.012 162.428 163.246 162.836 163.708C163.238 164.176 163.445 164.786 163.445 165.537V166.081H159.593C159.603 166.75 159.767 167.256 160.071 167.604C160.387 167.942 160.839 168.105 161.421 168.105C162.014 168.105 162.607 167.974 163.206 167.713V168.475C162.901 168.606 162.618 168.704 162.357 168.758C162.096 168.812 161.769 168.845 161.377 168.845ZM161.16 163.73C160.708 163.73 160.344 163.882 160.071 164.187C159.81 164.481 159.647 164.878 159.593 165.384H162.531C162.531 164.851 162.406 164.443 162.161 164.165C161.927 163.877 161.595 163.73 161.16 163.73Z" fill="#323131"/>
<path d="M167.458 163.012C167.703 163.012 167.926 163.033 168.133 163.077L168.024 163.861C167.79 163.817 167.578 163.795 167.393 163.795C166.941 163.795 166.549 163.986 166.217 164.361C165.896 164.726 165.739 165.183 165.739 165.732V168.736H164.89V163.121H165.608L165.695 164.165H165.739C165.94 163.806 166.185 163.523 166.479 163.316C166.783 163.115 167.11 163.012 167.458 163.012Z" fill="#323131"/>
<path d="M172.809 167.213C172.809 167.735 172.613 168.143 172.222 168.431C171.83 168.709 171.286 168.845 170.589 168.845C169.833 168.845 169.251 168.725 168.848 168.475V167.691C169.109 167.838 169.392 167.947 169.697 168.018C170.012 168.094 170.317 168.127 170.611 168.127C171.046 168.127 171.378 168.061 171.612 167.931C171.857 167.789 171.982 167.572 171.982 167.278C171.982 167.06 171.884 166.875 171.699 166.712C171.509 166.554 171.139 166.375 170.589 166.168C170.067 165.966 169.697 165.792 169.479 165.645C169.261 165.504 169.093 165.341 168.979 165.167C168.875 164.982 168.826 164.753 168.826 164.492C168.826 164.046 169.006 163.686 169.37 163.425C169.746 163.153 170.263 163.012 170.916 163.012C171.525 163.012 172.113 163.137 172.679 163.382L172.396 164.078C171.83 163.85 171.313 163.73 170.85 163.73C170.442 163.73 170.138 163.795 169.936 163.926C169.729 164.046 169.632 164.22 169.632 164.448C169.632 164.595 169.664 164.726 169.74 164.84C169.827 164.943 169.947 165.047 170.11 165.145C170.285 165.232 170.616 165.362 171.112 165.537C171.775 165.787 172.227 166.032 172.461 166.277C172.69 166.527 172.809 166.837 172.809 167.213Z" fill="#323131"/>
<path d="M180.754 168.736V165.101C180.754 164.655 180.645 164.318 180.427 164.1C180.221 163.871 179.905 163.752 179.47 163.752C178.871 163.752 178.436 163.915 178.164 164.231C177.886 164.535 177.75 165.058 177.75 165.798V168.736H176.901V163.121H177.598L177.75 163.882H177.772C177.946 163.61 178.191 163.398 178.512 163.251C178.828 163.093 179.176 163.012 179.557 163.012C180.237 163.012 180.743 163.18 181.08 163.512C181.429 163.833 181.603 164.356 181.603 165.079V168.736H180.754Z" fill="#323131"/>
<path d="M185.714 168.845C184.887 168.845 184.234 168.595 183.755 168.083C183.277 167.577 183.037 166.875 183.037 165.972C183.037 165.074 183.255 164.356 183.69 163.817C184.136 163.284 184.74 163.012 185.497 163.012C186.204 163.012 186.765 163.246 187.173 163.708C187.575 164.176 187.782 164.786 187.782 165.537V166.081H183.93C183.94 166.75 184.104 167.256 184.408 167.604C184.724 167.942 185.176 168.105 185.758 168.105C186.351 168.105 186.944 167.974 187.543 167.713V168.475C187.238 168.606 186.955 168.704 186.694 168.758C186.433 168.812 186.106 168.845 185.714 168.845ZM185.497 163.73C185.045 163.73 184.68 163.882 184.408 164.187C184.147 164.481 183.984 164.878 183.93 165.384H186.868C186.868 164.851 186.743 164.443 186.498 164.165C186.264 163.877 185.932 163.73 185.497 163.73Z" fill="#323131"/>
<path d="M191.598 168.845C190.771 168.845 190.118 168.595 189.639 168.083C189.16 167.577 188.921 166.875 188.921 165.972C188.921 165.074 189.139 164.356 189.574 163.817C190.02 163.284 190.624 163.012 191.38 163.012C192.088 163.012 192.648 163.246 193.056 163.708C193.459 164.176 193.666 164.786 193.666 165.537V166.081H189.813C189.824 166.75 189.987 167.256 190.292 167.604C190.608 167.942 191.059 168.105 191.642 168.105C192.235 168.105 192.828 167.974 193.426 167.713V168.475C193.122 168.606 192.839 168.704 192.578 168.758C192.316 168.812 191.99 168.845 191.598 168.845ZM191.38 163.73C190.929 163.73 190.564 163.882 190.292 164.187C190.031 164.481 189.868 164.878 189.813 165.384H192.752C192.752 164.851 192.627 164.443 192.382 164.165C192.148 163.877 191.816 163.73 191.38 163.73Z" fill="#323131"/>
<path d="M198.943 167.974H198.9C198.508 168.556 197.92 168.845 197.137 168.845C196.397 168.845 195.82 168.6 195.417 168.105C195.009 167.599 194.808 166.88 194.808 165.95C194.808 165.025 195.009 164.307 195.417 163.795C195.836 163.273 196.407 163.011 197.137 163.011C197.888 163.011 198.47 163.289 198.878 163.839H198.943L198.9 163.055V160.77H199.749V168.736H199.052L198.943 167.974ZM197.245 168.126C197.822 168.126 198.247 167.969 198.508 167.648C198.769 167.332 198.9 166.821 198.9 166.124V165.95C198.9 165.155 198.758 164.589 198.486 164.252C198.225 163.904 197.8 163.73 197.224 163.73C196.728 163.73 196.353 163.926 196.092 164.317C195.831 164.698 195.7 165.242 195.7 165.95C195.7 166.679 195.831 167.223 196.092 167.582C196.353 167.947 196.734 168.126 197.245 168.126Z" fill="#323131"/>
<path d="M202.431 167.52L202.518 167.628C202.431 167.977 202.3 168.379 202.126 168.825C201.963 169.272 201.789 169.696 201.604 170.088H200.973C201.06 169.74 201.152 169.304 201.256 168.782C201.37 168.26 201.457 167.841 201.517 167.52H202.431Z" fill="#323131"/>
<path d="M39.1055 182.113C39.247 182.113 39.3885 182.108 39.5191 182.091C39.6605 182.064 39.7803 182.042 39.8673 182.026V182.679C39.7803 182.722 39.6388 182.755 39.4538 182.788C39.2796 182.815 39.1164 182.831 38.9749 182.831C37.8866 182.831 37.3425 182.26 37.3425 181.112V177.76H36.5371V177.368L37.3425 176.998L37.7125 175.801H38.1913V177.107H39.8238V177.76H38.1913V181.068C38.1913 181.416 38.2675 181.678 38.4308 181.852C38.5886 182.026 38.8117 182.113 39.1055 182.113Z" fill="#323131"/>
<path d="M44.835 182.726V179.091C44.835 178.645 44.7262 178.308 44.5085 178.09C44.3018 177.861 43.9861 177.742 43.5508 177.742C42.9523 177.742 42.5169 177.905 42.2449 178.221C41.9673 178.542 41.8313 179.064 41.8313 179.788V182.726H40.9824V174.76H41.8313V177.176C41.8313 177.47 41.8204 177.709 41.8095 177.894H41.8531C42.0109 177.622 42.2449 177.41 42.5496 177.263C42.8652 177.105 43.2243 177.023 43.6161 177.023C44.3126 177.023 44.8241 177.192 45.1615 177.524C45.5098 177.845 45.6839 178.362 45.6839 179.069V182.726H44.835Z" fill="#323131"/>
<path d="M49.7905 182.827C48.9634 182.827 48.3104 182.577 47.8316 182.066C47.3527 181.56 47.1133 180.858 47.1133 179.954C47.1133 179.056 47.3309 178.338 47.7663 177.799C48.2125 177.266 48.8165 176.994 49.5728 176.994C50.2802 176.994 50.8407 177.228 51.2488 177.691C51.6515 178.159 51.8583 178.768 51.8583 179.519V180.063H48.0057C48.0166 180.732 48.1798 181.239 48.4845 181.587C48.8002 181.924 49.2518 182.087 49.834 182.087C50.4272 182.087 51.0203 181.957 51.6189 181.696V182.457C51.3141 182.588 51.0312 182.686 50.77 182.74C50.5088 182.795 50.1823 182.827 49.7905 182.827ZM49.5728 177.712C49.1212 177.712 48.7566 177.865 48.4845 178.17C48.2234 178.463 48.0601 178.861 48.0057 179.367H50.9441C50.9441 178.833 50.819 178.425 50.5741 178.148C50.3401 177.859 50.0082 177.712 49.5728 177.712Z" fill="#323131"/>
<path d="M57.1583 182.719V179.084C57.1583 178.637 57.0494 178.3 56.8318 178.082C56.625 177.854 56.3094 177.734 55.8741 177.734C55.2755 177.734 54.8402 177.897 54.5681 178.213C54.2906 178.518 54.1545 179.04 54.1545 179.78V182.719H53.3057V177.103H54.0022L54.1545 177.865H54.1763C54.3504 177.593 54.5953 177.38 54.9164 177.234C55.232 177.076 55.5802 176.994 55.9611 176.994C56.6413 176.994 57.1474 177.163 57.4848 177.495C57.833 177.816 58.0071 178.338 58.0071 179.062V182.719H57.1583Z" fill="#323131"/>
<path d="M66.1043 181.195C66.1043 181.717 65.9084 182.125 65.5166 182.414C65.1248 182.691 64.5807 182.827 63.8841 182.827C63.1278 182.827 62.5455 182.708 62.1429 182.457V181.674C62.4041 181.821 62.687 181.93 62.9917 182C63.3073 182.077 63.6121 182.109 63.9059 182.109C64.3412 182.109 64.6732 182.044 64.9072 181.913C65.152 181.772 65.2772 181.554 65.2772 181.26C65.2772 181.043 65.1792 180.858 64.9942 180.694C64.8038 180.537 64.4337 180.357 63.8841 180.15C63.3618 179.949 62.9917 179.775 62.7741 179.628C62.5564 179.486 62.3877 179.323 62.2735 179.149C62.1701 178.964 62.1211 178.735 62.1211 178.474C62.1211 178.028 62.3007 177.669 62.6652 177.408C63.0407 177.136 63.5577 176.994 64.2106 176.994C64.8201 176.994 65.4078 177.119 65.9737 177.364L65.6907 178.061C65.1248 177.832 64.6079 177.712 64.1453 177.712C63.7372 177.712 63.4325 177.778 63.2312 177.908C63.0244 178.028 62.9264 178.202 62.9264 178.431C62.9264 178.578 62.9591 178.708 63.0353 178.822C63.1223 178.926 63.242 179.029 63.4053 179.127C63.5794 179.214 63.9114 179.345 64.4065 179.519C65.0704 179.769 65.522 180.014 65.756 180.259C65.9846 180.509 66.1043 180.82 66.1043 181.195Z" fill="#323131"/>
<path d="M71.3253 182.726V179.091C71.3253 178.645 71.2164 178.308 70.9988 178.09C70.792 177.861 70.4764 177.742 70.0411 177.742C69.4425 177.742 69.0072 177.905 68.7351 178.221C68.4576 178.542 68.3215 179.064 68.3215 179.788V182.726H67.4727V174.76H68.3215V177.176C68.3215 177.47 68.3107 177.709 68.2998 177.894H68.3433C68.5011 177.622 68.7351 177.41 69.0398 177.263C69.3554 177.105 69.7146 177.023 70.1064 177.023C70.8029 177.023 71.3144 177.192 71.6517 177.524C72 177.845 72.1741 178.362 72.1741 179.069V182.726H71.3253Z" fill="#323131"/>
<path d="M78.7679 179.911C78.7679 180.825 78.534 181.543 78.0714 182.066C77.6198 182.577 76.9886 182.827 76.1778 182.827C75.6663 182.827 75.2201 182.713 74.8283 182.479C74.4365 182.234 74.1318 181.892 73.9141 181.456C73.7073 181.021 73.6094 180.509 73.6094 179.911C73.6094 178.997 73.8325 178.289 74.2841 177.778C74.7467 177.255 75.3833 176.994 76.1995 176.994C76.9831 176.994 77.6035 177.255 78.0714 177.778C78.534 178.3 78.7679 179.013 78.7679 179.911ZM74.5018 179.911C74.5018 180.624 74.6378 181.168 74.9153 181.543C75.2037 181.924 75.6227 182.109 76.1778 182.109C76.7437 182.109 77.1681 181.924 77.462 181.543C77.7504 181.168 77.8973 180.624 77.8973 179.911C77.8973 179.203 77.7504 178.665 77.462 178.3C77.1681 177.925 76.7437 177.734 76.1778 177.734C75.6227 177.734 75.2037 177.919 74.9153 178.278C74.6378 178.643 74.5018 179.187 74.5018 179.911Z" fill="#323131"/>
<path d="M84.8411 182.729L83.8181 179.442C83.7419 179.241 83.6222 178.784 83.448 178.071H83.4045C83.2739 178.67 83.1542 179.127 83.0562 179.442L81.9897 182.729H81.0102L79.4648 177.113H80.3573C80.7164 178.523 80.9939 179.595 81.1844 180.335C81.3694 181.075 81.4782 181.575 81.5109 181.837H81.5544C81.5979 181.635 81.6523 181.379 81.7285 181.075C81.8156 180.77 81.8918 180.525 81.9679 180.335L82.991 177.113H83.9051L84.9064 180.335C85.1077 180.933 85.2383 181.423 85.2982 181.815H85.3417C85.3526 181.7 85.3907 181.51 85.4505 181.249C85.5049 180.988 85.8641 179.611 86.5171 177.113H87.4095L85.8423 182.729H84.8411Z" fill="#323131"/>
<path d="M92.961 182.113C93.1025 182.113 93.2439 182.108 93.3745 182.091C93.516 182.064 93.6357 182.042 93.7228 182.026V182.679C93.6357 182.722 93.4942 182.755 93.3092 182.788C93.1351 182.815 92.9719 182.831 92.8304 182.831C91.7421 182.831 91.1979 182.26 91.1979 181.112V177.76H90.3926V177.368L91.1979 176.998L91.5679 175.801H92.0468V177.107H93.6793V177.76H92.0468V181.068C92.0468 181.416 92.123 181.678 92.2862 181.852C92.444 182.026 92.6671 182.113 92.961 182.113Z" fill="#323131"/>
<path d="M98.6885 182.726V179.091C98.6885 178.645 98.5797 178.308 98.362 178.09C98.1553 177.861 97.8397 177.742 97.4043 177.742C96.8058 177.742 96.3704 177.905 96.0984 178.221C95.8209 178.542 95.6848 179.064 95.6848 179.788V182.726H94.8359V174.76H95.6848V177.176C95.6848 177.47 95.6739 177.709 95.663 177.894H95.7066C95.8644 177.622 96.0984 177.41 96.4031 177.263C96.7187 177.105 97.0778 177.023 97.4696 177.023C98.1661 177.023 98.6777 177.192 99.015 177.524C99.3633 177.845 99.5374 178.362 99.5374 179.069V182.726H98.6885Z" fill="#323131"/>
<path d="M103.648 182.827C102.821 182.827 102.168 182.577 101.689 182.066C101.21 181.56 100.971 180.858 100.971 179.954C100.971 179.056 101.188 178.338 101.624 177.799C102.07 177.266 102.674 176.994 103.43 176.994C104.138 176.994 104.698 177.228 105.106 177.691C105.509 178.159 105.716 178.768 105.716 179.519V180.063H101.863C101.874 180.732 102.037 181.239 102.342 181.587C102.658 181.924 103.109 182.087 103.691 182.087C104.285 182.087 104.878 181.957 105.476 181.696V182.457C105.172 182.588 104.889 182.686 104.627 182.74C104.366 182.795 104.04 182.827 103.648 182.827ZM103.43 177.712C102.979 177.712 102.614 177.865 102.342 178.17C102.081 178.463 101.918 178.861 101.863 179.367H104.802C104.802 178.833 104.676 178.425 104.432 178.148C104.198 177.859 103.866 177.712 103.43 177.712Z" fill="#323131"/>
<path d="M114.322 182.719V179.062C114.322 178.616 114.224 178.278 114.039 178.061C113.849 177.843 113.549 177.734 113.147 177.734C112.624 177.734 112.233 177.887 111.971 178.191C111.721 178.485 111.601 178.948 111.601 179.584V182.719H110.753V179.062C110.753 178.616 110.649 178.278 110.448 178.061C110.257 177.843 109.958 177.734 109.555 177.734C109.033 177.734 108.641 177.897 108.38 178.213C108.13 178.534 108.01 179.056 108.01 179.78V182.719H107.161V177.103H107.858L108.01 177.865H108.032C108.19 177.604 108.413 177.397 108.707 177.234C109.011 177.076 109.343 176.994 109.708 176.994C110.578 176.994 111.15 177.315 111.427 177.952H111.471C111.629 177.663 111.868 177.429 112.189 177.255C112.505 177.081 112.869 176.994 113.277 176.994C113.914 176.994 114.387 177.163 114.692 177.495C115.008 177.816 115.171 178.338 115.171 179.062V182.719H114.322Z" fill="#323131"/>
<path d="M121.474 182.113C121.615 182.113 121.757 182.108 121.887 182.091C122.029 182.064 122.148 182.042 122.235 182.026V182.679C122.148 182.722 122.007 182.755 121.822 182.788C121.648 182.815 121.485 182.831 121.343 182.831C120.255 182.831 119.711 182.26 119.711 181.112V177.76H118.905V177.368L119.711 176.998L120.081 175.801H120.559V177.107H122.192V177.76H120.559V181.068C120.559 181.416 120.636 181.678 120.799 181.852C120.957 182.026 121.18 182.113 121.474 182.113Z" fill="#323131"/>
<path d="M127.199 182.726V179.091C127.199 178.645 127.09 178.308 126.873 178.09C126.666 177.861 126.35 177.742 125.915 177.742C125.317 177.742 124.881 177.905 124.609 178.221C124.332 178.542 124.196 179.064 124.196 179.788V182.726H123.347V174.76H124.196V177.176C124.196 177.47 124.185 177.709 124.174 177.894H124.217C124.375 177.622 124.609 177.41 124.914 177.263C125.229 177.105 125.589 177.023 125.98 177.023C126.677 177.023 127.188 177.192 127.526 177.524C127.874 177.845 128.048 178.362 128.048 179.069V182.726H127.199Z" fill="#323131"/>
<path d="M133.246 182.726L133.072 181.921H133.029C132.751 182.285 132.474 182.53 132.202 182.661C131.924 182.775 131.576 182.835 131.157 182.835C130.602 182.835 130.167 182.694 129.851 182.4C129.53 182.111 129.372 181.703 129.372 181.181C129.372 180.049 130.275 179.456 132.093 179.396L133.051 179.352V179.004C133.051 178.569 132.953 178.253 132.768 178.046C132.577 177.829 132.272 177.72 131.853 177.72C131.385 177.72 130.858 177.867 130.264 178.155L130.003 177.502C130.275 177.361 130.58 177.241 130.917 177.154C131.249 177.067 131.576 177.023 131.897 177.023C132.577 177.023 133.078 177.176 133.399 177.481C133.714 177.774 133.878 178.242 133.878 178.895V182.726H133.246ZM131.331 182.117C131.853 182.117 132.267 181.975 132.572 181.681C132.876 181.393 133.029 180.985 133.029 180.462V179.962L132.18 180.005C131.494 180.022 131.005 180.125 130.7 180.31C130.406 180.501 130.264 180.789 130.264 181.181C130.264 181.485 130.357 181.719 130.547 181.877C130.732 182.041 130.994 182.117 131.331 182.117Z" fill="#323131"/>
<path d="M137.449 182.113C137.591 182.113 137.732 182.108 137.863 182.091C138.004 182.064 138.124 182.042 138.211 182.026V182.679C138.124 182.722 137.983 182.755 137.798 182.788C137.623 182.815 137.46 182.831 137.319 182.831C136.23 182.831 135.686 182.26 135.686 181.112V177.76H134.881V177.368L135.686 176.998L136.056 175.801H136.535V177.107H138.168V177.76H136.535V181.068C136.535 181.416 136.611 181.678 136.775 181.852C136.932 182.026 137.155 182.113 137.449 182.113Z" fill="#323131"/>
<path d="M141.156 177.113H142.07L143.311 180.313C143.572 181.053 143.736 181.586 143.812 181.902H143.855C143.899 181.728 143.986 181.434 144.116 181.009C144.258 180.59 144.731 179.29 145.531 177.113H146.424L144.029 183.513C143.779 184.133 143.496 184.579 143.18 184.84C142.859 185.112 142.468 185.254 142.005 185.254C141.744 185.254 141.488 185.221 141.243 185.167V184.47C141.428 184.514 141.641 184.536 141.875 184.536C142.451 184.536 142.865 184.209 143.115 183.556L143.42 182.751L141.156 177.113Z" fill="#323131"/>
<path d="M152.189 179.911C152.189 180.825 151.955 181.543 151.492 182.066C151.041 182.577 150.409 182.827 149.599 182.827C149.087 182.827 148.641 182.713 148.249 182.479C147.857 182.234 147.553 181.892 147.335 181.456C147.128 181.021 147.03 180.509 147.03 179.911C147.03 178.997 147.253 178.289 147.705 177.778C148.168 177.255 148.804 176.994 149.62 176.994C150.404 176.994 151.024 177.255 151.492 177.778C151.955 178.3 152.189 179.013 152.189 179.911ZM147.923 179.911C147.923 180.624 148.059 181.168 148.336 181.543C148.625 181.924 149.044 182.109 149.599 182.109C150.165 182.109 150.589 181.924 150.883 181.543C151.171 181.168 151.318 180.624 151.318 179.911C151.318 179.203 151.171 178.665 150.883 178.3C150.589 177.925 150.165 177.734 149.599 177.734C149.044 177.734 148.625 177.919 148.336 178.278C148.059 178.643 147.923 179.187 147.923 179.911Z" fill="#323131"/>
<path d="M154.477 177.113V180.748C154.477 181.216 154.575 181.564 154.782 181.793C154.999 182.011 155.326 182.119 155.761 182.119C156.354 182.119 156.784 181.962 157.045 181.641C157.317 181.325 157.459 180.803 157.459 180.073V177.113H158.308V182.729H157.611L157.502 181.967H157.437C157.263 182.245 157.023 182.462 156.719 182.62C156.414 182.762 156.066 182.838 155.674 182.838C154.977 182.838 154.46 182.68 154.129 182.359C153.791 182.027 153.628 181.505 153.628 180.792V177.113H154.477Z" fill="#323131"/>
<path d="M166.687 182.726V179.091C166.687 178.645 166.578 178.308 166.36 178.09C166.153 177.861 165.838 177.742 165.402 177.742C164.804 177.742 164.368 177.905 164.096 178.221C163.819 178.542 163.683 179.064 163.683 179.788V182.726H162.834V174.76H163.683V177.176C163.683 177.47 163.672 177.709 163.661 177.894H163.705C163.862 177.622 164.096 177.41 164.401 177.263C164.717 177.105 165.076 177.023 165.468 177.023C166.164 177.023 166.676 177.192 167.013 177.524C167.361 177.845 167.535 178.362 167.535 179.069V182.726H166.687Z" fill="#323131"/>
<path d="M172.735 182.726L172.561 181.921H172.517C172.24 182.285 171.962 182.53 171.69 182.661C171.412 182.775 171.064 182.835 170.645 182.835C170.09 182.835 169.655 182.694 169.339 182.4C169.018 182.111 168.86 181.703 168.86 181.181C168.86 180.049 169.764 179.456 171.581 179.396L172.539 179.352V179.004C172.539 178.569 172.441 178.253 172.256 178.046C172.065 177.829 171.761 177.72 171.342 177.72C170.874 177.72 170.346 177.867 169.753 178.155L169.492 177.502C169.764 177.361 170.068 177.241 170.406 177.154C170.738 177.067 171.064 177.023 171.385 177.023C172.065 177.023 172.566 177.176 172.887 177.481C173.203 177.774 173.366 178.242 173.366 178.895V182.726H172.735ZM170.819 182.117C171.342 182.117 171.755 181.975 172.06 181.681C172.365 181.393 172.517 180.985 172.517 180.462V179.962L171.668 180.005C170.983 180.022 170.493 180.125 170.188 180.31C169.894 180.501 169.753 180.789 169.753 181.181C169.753 181.485 169.845 181.719 170.036 181.877C170.221 182.041 170.482 182.117 170.819 182.117Z" fill="#323131"/>
<path d="M176.349 182.729L174.216 177.113H175.13L176.327 180.443C176.599 181.227 176.768 181.739 176.828 181.967H176.85C176.893 181.782 177.013 181.401 177.22 180.835C177.421 180.269 177.873 179.029 178.569 177.113H179.461L177.35 182.729H176.349Z" fill="#323131"/>
<path d="M182.737 182.827C181.91 182.827 181.257 182.577 180.778 182.066C180.299 181.56 180.06 180.858 180.06 179.954C180.06 179.056 180.277 178.338 180.713 177.799C181.159 177.266 181.763 176.994 182.519 176.994C183.227 176.994 183.787 177.228 184.195 177.691C184.598 178.159 184.805 178.768 184.805 179.519V180.063H180.952C180.963 180.732 181.126 181.239 181.431 181.587C181.746 181.924 182.198 182.087 182.78 182.087C183.373 182.087 183.967 181.957 184.565 181.696V182.457C184.26 182.588 183.977 182.686 183.716 182.74C183.455 182.795 183.129 182.827 182.737 182.827ZM182.519 177.712C182.067 177.712 181.703 177.865 181.431 178.17C181.17 178.463 181.006 178.861 180.952 179.367H183.89C183.89 178.833 183.765 178.425 183.52 178.148C183.286 177.859 182.954 177.712 182.519 177.712Z" fill="#323131"/>
<path d="M192.436 182.726L192.262 181.921H192.218C191.941 182.285 191.663 182.53 191.391 182.661C191.114 182.775 190.765 182.835 190.346 182.835C189.791 182.835 189.356 182.694 189.04 182.4C188.719 182.111 188.562 181.703 188.562 181.181C188.562 180.049 189.465 179.456 191.282 179.396L192.24 179.352V179.004C192.24 178.569 192.142 178.253 191.957 178.046C191.767 177.829 191.462 177.72 191.043 177.72C190.575 177.72 190.047 177.867 189.454 178.155L189.193 177.502C189.465 177.361 189.77 177.241 190.107 177.154C190.439 177.067 190.765 177.023 191.086 177.023C191.767 177.023 192.267 177.176 192.588 177.481C192.904 177.774 193.067 178.242 193.067 178.895V182.726H192.436ZM190.52 182.117C191.043 182.117 191.456 181.975 191.761 181.681C192.066 181.393 192.218 180.985 192.218 180.462V179.962L191.369 180.005C190.684 180.022 190.194 180.125 189.889 180.31C189.595 180.501 189.454 180.789 189.454 181.181C189.454 181.485 189.546 181.719 189.737 181.877C189.922 182.041 190.183 182.117 190.52 182.117Z" fill="#323131"/>
<path d="M57.031 195.191C57.031 195.713 56.8352 196.122 56.4434 196.41C56.0516 196.688 55.5074 196.824 54.8109 196.824C54.0545 196.824 53.4723 196.704 53.0696 196.454V195.67C53.3308 195.817 53.6138 195.926 53.9185 195.996C54.2341 196.073 54.5388 196.105 54.8327 196.105C55.268 196.105 55.5999 196.04 55.8339 195.909C56.0788 195.768 56.2039 195.55 56.2039 195.256C56.2039 195.039 56.106 194.854 55.921 194.69C55.7305 194.533 55.3605 194.353 54.8109 194.146C54.2885 193.945 53.9185 193.771 53.7008 193.624C53.4832 193.482 53.3145 193.319 53.2002 193.145C53.0968 192.96 53.0479 192.732 53.0479 192.47C53.0479 192.024 53.2274 191.665 53.592 191.404C53.9675 191.132 54.4844 190.99 55.1374 190.99C55.7468 190.99 56.3345 191.115 56.9004 191.36L56.6175 192.057C56.0516 191.828 55.5346 191.709 55.0721 191.709C54.664 191.709 54.3593 191.774 54.1579 191.904C53.9511 192.024 53.8532 192.198 53.8532 192.427C53.8532 192.574 53.8858 192.704 53.962 192.819C54.0491 192.922 54.1688 193.025 54.3321 193.123C54.5062 193.21 54.8381 193.341 55.3333 193.515C55.9972 193.765 56.4488 194.01 56.6828 194.255C56.9113 194.505 57.031 194.816 57.031 195.191Z" fill="#323131"/>
<path d="M63.2552 193.907C63.2552 194.821 63.0213 195.539 62.5587 196.062C62.1071 196.573 61.4759 196.824 60.6651 196.824C60.1536 196.824 59.7074 196.709 59.3156 196.475C58.9238 196.23 58.6191 195.888 58.4014 195.452C58.1946 195.017 58.0967 194.505 58.0967 193.907C58.0967 192.993 58.3198 192.285 58.7714 191.774C59.234 191.251 59.8706 190.99 60.6868 190.99C61.4704 190.99 62.0908 191.251 62.5587 191.774C63.0213 192.296 63.2552 193.009 63.2552 193.907ZM58.9891 193.907C58.9891 194.62 59.1251 195.164 59.4026 195.539C59.691 195.92 60.11 196.105 60.6651 196.105C61.231 196.105 61.6554 195.92 61.9493 195.539C62.2377 195.164 62.3846 194.62 62.3846 193.907C62.3846 193.199 62.2377 192.661 61.9493 192.296C61.6554 191.921 61.231 191.73 60.6651 191.73C60.11 191.73 59.691 191.915 59.4026 192.274C59.1251 192.639 58.9891 193.183 58.9891 193.907Z" fill="#323131"/>
<path d="M65.5862 196.712H64.7373V188.746H65.5862V196.712Z" fill="#323131"/>
<path d="M68.1956 191.1V194.735C68.1956 195.203 68.2935 195.551 68.5003 195.779C68.7179 195.997 69.0444 196.106 69.4798 196.106C70.0729 196.106 70.5028 195.948 70.764 195.627C71.036 195.311 71.1775 194.789 71.1775 194.06V191.1H72.0264V196.715H71.3299L71.221 195.953H71.1557C70.9816 196.231 70.7422 196.449 70.4375 196.606C70.1327 196.748 69.7845 196.824 69.3927 196.824C68.6962 196.824 68.1792 196.666 67.8473 196.345C67.5099 196.013 67.3467 195.491 67.3467 194.778V191.1H68.1956Z" fill="#323131"/>
<path d="M75.6553 196.103C75.7968 196.103 75.9383 196.098 76.0689 196.081C76.2103 196.054 76.3301 196.032 76.4171 196.016V196.669C76.3301 196.713 76.1886 196.745 76.0036 196.778C75.8294 196.805 75.6662 196.821 75.5247 196.821C74.4364 196.821 73.8923 196.25 73.8923 195.102V191.75H73.0869V191.358L73.8923 190.988L74.2623 189.791H74.7411V191.097H76.3736V191.75H74.7411V195.058C74.7411 195.407 74.8173 195.668 74.9806 195.842C75.1384 196.016 75.3615 196.103 75.6553 196.103Z" fill="#323131"/>
<path d="M78.3829 196.719H77.534V191.103H78.3829V196.719ZM77.4688 189.58C77.4688 189.395 77.5123 189.253 77.5993 189.166C77.6973 189.068 77.8224 189.014 77.9694 189.014C78.1109 189.014 78.2306 189.068 78.3176 189.166C78.4156 189.253 78.47 189.395 78.47 189.58C78.47 189.77 78.4156 189.917 78.3176 190.015C78.2306 190.102 78.1109 190.146 77.9694 190.146C77.8224 190.146 77.6973 190.102 77.5993 190.015C77.5123 189.917 77.4688 189.77 77.4688 189.58Z" fill="#323131"/>
<path d="M85.0384 193.907C85.0384 194.821 84.8045 195.539 84.3419 196.062C83.8903 196.573 83.2591 196.824 82.4483 196.824C81.9368 196.824 81.4906 196.709 81.0988 196.475C80.707 196.23 80.4023 195.888 80.1846 195.452C79.9778 195.017 79.8799 194.505 79.8799 193.907C79.8799 192.993 80.103 192.285 80.5546 191.774C81.0172 191.251 81.6538 190.99 82.47 190.99C83.2536 190.99 83.874 191.251 84.3419 191.774C84.8045 192.296 85.0384 193.009 85.0384 193.907ZM80.7723 193.907C80.7723 194.62 80.9083 195.164 81.1858 195.539C81.4742 195.92 81.8932 196.105 82.4483 196.105C83.0142 196.105 83.4386 195.92 83.7325 195.539C84.0209 195.164 84.1678 194.62 84.1678 193.907C84.1678 193.199 84.0209 192.661 83.7325 192.296C83.4386 191.921 83.0142 191.73 82.4483 191.73C81.8932 191.73 81.4742 191.915 81.1858 192.274C80.9083 192.639 80.7723 193.183 80.7723 193.907Z" fill="#323131"/>
<path d="M90.3751 196.715V193.08C90.3751 192.634 90.2662 192.296 90.0486 192.079C89.8418 191.85 89.5262 191.73 89.0909 191.73C88.4923 191.73 88.057 191.894 87.7849 192.209C87.5074 192.514 87.3713 193.036 87.3713 193.776V196.715H86.5225V191.099H87.219L87.3713 191.861H87.3931C87.5672 191.589 87.8121 191.377 88.1332 191.23C88.4488 191.072 88.797 190.99 89.1779 190.99C89.8581 190.99 90.3642 191.159 90.7016 191.491C91.0498 191.812 91.2239 192.334 91.2239 193.058V196.715H90.3751Z" fill="#323131"/>
<path d="M97.5137 196.103C97.6552 196.103 97.7967 196.098 97.9273 196.081C98.0687 196.054 98.1885 196.032 98.2755 196.016V196.669C98.1885 196.713 98.047 196.745 97.862 196.778C97.6878 196.805 97.5246 196.821 97.3831 196.821C96.2948 196.821 95.7507 196.25 95.7507 195.102V191.75H94.9453V191.358L95.7507 190.988L96.1207 189.791H96.5995V191.097H98.232V191.75H96.5995V195.058C96.5995 195.407 96.6757 195.668 96.839 195.842C96.9968 196.016 97.2199 196.103 97.5137 196.103Z" fill="#323131"/>
<path d="M104.245 193.907C104.245 194.821 104.011 195.539 103.548 196.062C103.096 196.573 102.465 196.824 101.654 196.824C101.143 196.824 100.697 196.709 100.305 196.475C99.913 196.23 99.6083 195.888 99.3907 195.452C99.1839 195.017 99.0859 194.505 99.0859 193.907C99.0859 192.993 99.309 192.285 99.7607 191.774C100.223 191.251 100.86 190.99 101.676 190.99C102.46 190.99 103.08 191.251 103.548 191.774C104.011 192.296 104.245 193.009 104.245 193.907ZM99.9783 193.907C99.9783 194.62 100.114 195.164 100.392 195.539C100.68 195.92 101.099 196.105 101.654 196.105C102.22 196.105 102.645 195.92 102.939 195.539C103.227 195.164 103.374 194.62 103.374 193.907C103.374 193.199 103.227 192.661 102.939 192.296C102.645 191.921 102.22 191.73 101.654 191.73C101.099 191.73 100.68 191.915 100.392 192.274C100.114 192.639 99.9783 193.183 99.9783 193.907Z" fill="#323131"/>
<path d="M110.278 196.103C110.42 196.103 110.561 196.098 110.692 196.081C110.833 196.054 110.953 196.032 111.04 196.016V196.669C110.953 196.713 110.812 196.745 110.627 196.778C110.452 196.805 110.289 196.821 110.148 196.821C109.059 196.821 108.515 196.25 108.515 195.102V191.75H107.71V191.358L108.515 190.988L108.885 189.791H109.364V191.097H110.997V191.75H109.364V195.058C109.364 195.407 109.44 195.668 109.604 195.842C109.761 196.016 109.985 196.103 110.278 196.103Z" fill="#323131"/>
<path d="M116.008 196.712V193.078C116.008 192.631 115.899 192.294 115.681 192.076C115.475 191.848 115.159 191.728 114.724 191.728C114.125 191.728 113.69 191.891 113.418 192.207C113.14 192.528 113.004 193.05 113.004 193.774V196.712H112.155V188.746H113.004V191.162C113.004 191.456 112.993 191.695 112.982 191.88H113.026C113.184 191.608 113.418 191.396 113.722 191.249C114.038 191.091 114.397 191.01 114.789 191.01C115.485 191.01 115.997 191.178 116.334 191.51C116.683 191.831 116.857 192.348 116.857 193.056V196.712H116.008Z" fill="#323131"/>
<path d="M120.965 196.824C120.138 196.824 119.485 196.573 119.006 196.062C118.528 195.556 118.288 194.854 118.288 193.95C118.288 193.053 118.506 192.334 118.941 191.796C119.387 191.262 119.991 190.99 120.748 190.99C121.455 190.99 122.016 191.224 122.424 191.687C122.826 192.155 123.033 192.764 123.033 193.515V194.059H119.18C119.191 194.729 119.355 195.235 119.659 195.583C119.975 195.92 120.427 196.083 121.009 196.083C121.602 196.083 122.195 195.953 122.794 195.692V196.454C122.489 196.584 122.206 196.682 121.945 196.736C121.684 196.791 121.357 196.824 120.965 196.824ZM120.748 191.709C120.296 191.709 119.931 191.861 119.659 192.166C119.398 192.459 119.235 192.857 119.18 193.363H122.119C122.119 192.829 121.994 192.421 121.749 192.144C121.515 191.855 121.183 191.709 120.748 191.709Z" fill="#323131"/>
<path d="M125.327 196.719H124.478V191.103H125.327V196.719ZM124.413 189.58C124.413 189.395 124.457 189.253 124.544 189.166C124.642 189.068 124.767 189.014 124.914 189.014C125.055 189.014 125.175 189.068 125.262 189.166C125.36 189.253 125.414 189.395 125.414 189.58C125.414 189.77 125.36 189.917 125.262 190.015C125.175 190.102 125.055 190.146 124.914 190.146C124.767 190.146 124.642 190.102 124.544 190.015C124.457 189.917 124.413 189.77 124.413 189.58Z" fill="#323131"/>
<path d="M129.698 190.99C129.943 190.99 130.166 191.012 130.373 191.056L130.264 191.839C130.03 191.796 129.818 191.774 129.633 191.774C129.181 191.774 128.79 191.964 128.458 192.34C128.137 192.704 127.979 193.161 127.979 193.711V196.715H127.13V191.099H127.848L127.935 192.144H127.979C128.18 191.785 128.425 191.502 128.719 191.295C129.024 191.094 129.35 190.99 129.698 190.99Z" fill="#323131"/>
<path d="M136.749 196.824C136.384 196.824 136.052 196.758 135.747 196.628C135.454 196.486 135.203 196.274 134.986 195.996H134.942C134.969 196.317 134.986 196.628 134.986 196.932V199.24H134.137V191.099H134.833L134.964 191.861H134.986C135.214 191.556 135.475 191.338 135.769 191.208C136.058 191.066 136.384 190.99 136.749 190.99C137.5 190.99 138.082 191.246 138.49 191.752C138.893 192.264 139.099 192.982 139.099 193.907C139.099 194.821 138.887 195.539 138.468 196.062C138.06 196.573 137.489 196.824 136.749 196.824ZM136.64 191.73C136.058 191.73 135.639 191.894 135.377 192.209C135.127 192.514 134.996 193.014 134.986 193.711V193.907C134.986 194.69 135.116 195.256 135.377 195.605C135.649 195.942 136.079 196.105 136.662 196.105C137.14 196.105 137.516 195.909 137.793 195.518C138.065 195.126 138.207 194.582 138.207 193.885C138.207 193.189 138.065 192.661 137.793 192.296C137.516 191.921 137.13 191.73 136.64 191.73Z" fill="#323131"/>
<path d="M143.136 190.99C143.381 190.99 143.604 191.012 143.811 191.056L143.702 191.839C143.468 191.796 143.255 191.774 143.07 191.774C142.619 191.774 142.227 191.964 141.895 192.34C141.574 192.704 141.416 193.161 141.416 193.711V196.715H140.567V191.099H141.286L141.373 192.144H141.416C141.618 191.785 141.862 191.502 142.156 191.295C142.461 191.094 142.788 190.99 143.136 190.99Z" fill="#323131"/>
<path d="M149.703 193.907C149.703 194.821 149.469 195.539 149.007 196.062C148.555 196.573 147.924 196.824 147.113 196.824C146.602 196.824 146.156 196.709 145.764 196.475C145.372 196.23 145.067 195.888 144.85 195.452C144.643 195.017 144.545 194.505 144.545 193.907C144.545 192.993 144.768 192.285 145.22 191.774C145.682 191.251 146.319 190.99 147.135 190.99C147.919 190.99 148.539 191.251 149.007 191.774C149.469 192.296 149.703 193.009 149.703 193.907ZM145.437 193.907C145.437 194.62 145.573 195.164 145.851 195.539C146.139 195.92 146.558 196.105 147.113 196.105C147.679 196.105 148.104 195.92 148.398 195.539C148.686 195.164 148.833 194.62 148.833 193.907C148.833 193.199 148.686 192.661 148.398 192.296C148.104 191.921 147.679 191.73 147.113 191.73C146.558 191.73 146.139 191.915 145.851 192.274C145.573 192.639 145.437 193.183 145.437 193.907Z" fill="#323131"/>
<path d="M153.798 191.01C154.539 191.01 155.11 191.266 155.518 191.772C155.937 192.267 156.149 192.98 156.149 193.905C156.149 194.819 155.937 195.537 155.518 196.06C155.11 196.571 154.539 196.821 153.798 196.821C153.434 196.821 153.102 196.756 152.797 196.625C152.503 196.484 152.253 196.272 152.035 195.994H151.992L151.796 196.712H151.187V188.746H152.035V190.683C152.035 191.119 152.025 191.505 152.014 191.837H152.035C152.438 191.287 153.026 191.01 153.798 191.01ZM153.69 191.728C153.107 191.728 152.688 191.897 152.427 192.229C152.166 192.55 152.035 193.11 152.035 193.905C152.035 194.688 152.166 195.254 152.427 195.602C152.699 195.94 153.129 196.103 153.711 196.103C154.234 196.103 154.615 195.918 154.865 195.537C155.126 195.162 155.257 194.612 155.257 193.883C155.257 193.159 155.126 192.62 154.865 192.272C154.615 191.913 154.223 191.728 153.69 191.728Z" fill="#323131"/>
<path d="M158.463 196.712H157.614V188.746H158.463V196.712Z" fill="#323131"/>
<path d="M162.642 196.824C161.815 196.824 161.162 196.573 160.683 196.062C160.204 195.556 159.965 194.854 159.965 193.95C159.965 193.053 160.183 192.334 160.618 191.796C161.064 191.262 161.668 190.99 162.424 190.99C163.132 190.99 163.692 191.224 164.1 191.687C164.503 192.155 164.71 192.764 164.71 193.515V194.059H160.857C160.868 194.729 161.031 195.235 161.336 195.583C161.652 195.92 162.103 196.083 162.686 196.083C163.279 196.083 163.872 195.953 164.47 195.692V196.454C164.166 196.584 163.883 196.682 163.622 196.736C163.36 196.791 163.034 196.824 162.642 196.824ZM162.424 191.709C161.973 191.709 161.608 191.861 161.336 192.166C161.075 192.459 160.912 192.857 160.857 193.363H163.796C163.796 192.829 163.671 192.421 163.426 192.144C163.192 191.855 162.86 191.709 162.424 191.709Z" fill="#323131"/>
<path d="M173.315 196.715V193.058C173.315 192.612 173.217 192.274 173.032 192.057C172.842 191.839 172.543 191.73 172.14 191.73C171.618 191.73 171.226 191.883 170.965 192.187C170.714 192.481 170.595 192.944 170.595 193.58V196.715H169.746V193.058C169.746 192.612 169.642 192.274 169.441 192.057C169.251 191.839 168.951 191.73 168.549 191.73C168.026 191.73 167.634 191.894 167.373 192.209C167.123 192.53 167.003 193.053 167.003 193.776V196.715H166.154V191.099H166.851L167.003 191.861H167.025C167.183 191.6 167.406 191.393 167.7 191.23C168.004 191.072 168.336 190.99 168.701 190.99C169.572 190.99 170.143 191.311 170.42 191.948H170.464C170.622 191.66 170.861 191.426 171.182 191.251C171.498 191.077 171.862 190.99 172.271 190.99C172.907 190.99 173.381 191.159 173.685 191.491C174.001 191.812 174.164 192.334 174.164 193.058V196.715H173.315Z" fill="#323131"/>
<path d="M175.803 196.175C175.803 195.946 175.852 195.772 175.955 195.653C176.053 195.538 176.205 195.479 176.412 195.479C176.597 195.479 176.744 195.538 176.848 195.653C176.962 195.772 177.022 195.946 177.022 196.175C177.022 196.393 176.962 196.567 176.848 196.697C176.744 196.812 176.597 196.872 176.412 196.872C176.238 196.872 176.091 196.817 175.977 196.719C175.857 196.605 175.803 196.425 175.803 196.175Z" fill="#323131"/>
<path d="M29.3296 119.75C28.2264 119.75 27.1991 119.571 26.2476 119.212C25.31 118.84 24.4895 118.323 23.7862 117.661C23.0968 116.985 22.559 116.192 22.1729 115.282C21.7868 114.372 21.5937 113.379 21.5937 112.303C21.5937 111.228 21.7868 110.235 22.1729 109.325C22.559 108.415 23.1036 107.629 23.8069 106.967C24.5102 106.291 25.3306 105.774 26.2683 105.416C27.206 105.043 28.2333 104.857 29.3503 104.857C30.5362 104.857 31.6186 105.064 32.5977 105.478C33.5768 105.878 34.4041 106.477 35.0798 107.277L33.3423 108.911C32.8183 108.346 32.2323 107.925 31.5842 107.65C30.9361 107.36 30.2328 107.215 29.4744 107.215C28.716 107.215 28.0196 107.339 27.3853 107.587C26.7648 107.836 26.2201 108.187 25.7512 108.642C25.2962 109.097 24.9376 109.635 24.6756 110.256C24.4274 110.876 24.3033 111.559 24.3033 112.303C24.3033 113.048 24.4274 113.731 24.6756 114.351C24.9376 114.972 25.2962 115.51 25.7512 115.965C26.2201 116.42 26.7648 116.771 27.3853 117.019C28.0196 117.268 28.716 117.392 29.4744 117.392C30.2328 117.392 30.9361 117.254 31.5842 116.978C32.2323 116.689 32.8183 116.254 33.3423 115.675L35.0798 117.33C34.4041 118.116 33.5768 118.716 32.5977 119.129C31.6186 119.543 30.5293 119.75 29.3296 119.75ZM37.4081 119.543V104.195H39.9936V119.543H37.4081ZM43.3871 119.543V108.498H45.9726V119.543H43.3871ZM44.6902 106.677C44.2076 106.677 43.8077 106.526 43.4905 106.222C43.1872 105.919 43.0355 105.554 43.0355 105.126C43.0355 104.685 43.1872 104.319 43.4905 104.03C43.8077 103.726 44.2076 103.575 44.6902 103.575C45.1728 103.575 45.5658 103.72 45.8692 104.009C46.1864 104.285 46.3449 104.637 46.3449 105.064C46.3449 105.519 46.1933 105.905 45.8899 106.222C45.5865 106.526 45.1866 106.677 44.6902 106.677ZM54.5579 119.688C53.3306 119.688 52.255 119.446 51.3311 118.964C50.421 118.467 49.7109 117.792 49.2007 116.937C48.7042 116.082 48.456 115.11 48.456 114.02C48.456 112.917 48.6973 111.945 49.18 111.104C49.6764 110.249 50.3521 109.58 51.207 109.097C52.0758 108.615 53.0617 108.373 54.1649 108.373C55.2405 108.373 56.1988 108.608 57.04 109.077C57.8811 109.546 58.543 110.207 59.0257 111.062C59.5083 111.917 59.7496 112.924 59.7496 114.082C59.7496 114.193 59.7427 114.317 59.7289 114.455C59.7289 114.593 59.722 114.724 59.7082 114.848H50.5038V113.131H58.3431L57.3296 113.669C57.3433 113.034 57.2123 112.476 56.9366 111.993C56.6608 111.511 56.2816 111.131 55.7989 110.856C55.3301 110.58 54.7854 110.442 54.1649 110.442C53.5306 110.442 52.9721 110.58 52.4895 110.856C52.0206 111.131 51.6483 111.517 51.3725 112.014C51.1105 112.497 50.9795 113.069 50.9795 113.731V114.144C50.9795 114.806 51.1312 115.392 51.4346 115.903C51.7379 116.413 52.1654 116.806 52.717 117.082C53.2686 117.357 53.9029 117.495 54.6199 117.495C55.2405 117.495 55.7989 117.399 56.2953 117.206C56.7918 117.013 57.233 116.709 57.6191 116.296L59.005 117.888C58.5086 118.467 57.8811 118.916 57.1227 119.233C56.3781 119.536 55.5231 119.688 54.5579 119.688ZM68.5005 108.373C69.383 108.373 70.169 108.546 70.8585 108.891C71.5617 109.235 72.1133 109.766 72.5132 110.483C72.9131 111.187 73.1131 112.097 73.1131 113.214V119.543H70.5275V113.545C70.5275 112.565 70.2931 111.835 69.8243 111.352C69.3692 110.869 68.728 110.628 67.9006 110.628C67.2939 110.628 66.7561 110.752 66.2873 111C65.8184 111.249 65.453 111.621 65.191 112.117C64.9428 112.6 64.8187 113.214 64.8187 113.958V119.543H62.2332V108.498H64.6946V111.476L64.2602 110.566C64.6463 109.863 65.2048 109.325 65.9356 108.953C66.6803 108.567 67.5352 108.373 68.5005 108.373ZM80.5505 119.688C79.337 119.688 78.3993 119.377 77.7374 118.757C77.0755 118.123 76.7446 117.192 76.7446 115.965V106.057H79.3301V115.903C79.3301 116.427 79.4611 116.833 79.7231 117.123C79.9989 117.412 80.3781 117.557 80.8608 117.557C81.4399 117.557 81.9225 117.406 82.3087 117.102L83.0326 118.943C82.7292 119.191 82.3569 119.377 81.9157 119.502C81.4744 119.626 81.0193 119.688 80.5505 119.688ZM74.9244 110.649V108.58H82.288V110.649H74.9244ZM91.1242 119.543V105.064H93.8131V119.543H91.1242ZM103.748 108.373C104.631 108.373 105.417 108.546 106.106 108.891C106.81 109.235 107.361 109.766 107.761 110.483C108.161 111.187 108.361 112.097 108.361 113.214V119.543H105.776V113.545C105.776 112.565 105.541 111.835 105.072 111.352C104.617 110.869 103.976 110.628 103.149 110.628C102.542 110.628 102.004 110.752 101.535 111C101.066 111.249 100.701 111.621 100.439 112.117C100.191 112.6 100.067 113.214 100.067 113.958V119.543H97.4812V108.498H99.9426V111.476L99.5082 110.566C99.8943 109.863 100.453 109.325 101.184 108.953C101.928 108.567 102.783 108.373 103.748 108.373ZM115.798 119.688C114.585 119.688 113.647 119.377 112.985 118.757C112.324 118.123 111.993 117.192 111.993 115.965V106.057H114.578V115.903C114.578 116.427 114.709 116.833 114.971 117.123C115.247 117.412 115.626 117.557 116.109 117.557C116.688 117.557 117.171 117.406 117.557 117.102L118.281 118.943C117.977 119.191 117.605 119.377 117.164 119.502C116.722 119.626 116.267 119.688 115.798 119.688ZM110.172 110.649V108.58H117.536V110.649H110.172ZM125.236 119.688C124.008 119.688 122.933 119.446 122.009 118.964C121.099 118.467 120.389 117.792 119.878 116.937C119.382 116.082 119.134 115.11 119.134 114.02C119.134 112.917 119.375 111.945 119.858 111.104C120.354 110.249 121.03 109.58 121.885 109.097C122.754 108.615 123.74 108.373 124.843 108.373C125.918 108.373 126.877 108.608 127.718 109.077C128.559 109.546 129.221 110.207 129.703 111.062C130.186 111.917 130.427 112.924 130.427 114.082C130.427 114.193 130.421 114.317 130.407 114.455C130.407 114.593 130.4 114.724 130.386 114.848H121.182V113.131H129.021L128.007 113.669C128.021 113.034 127.89 112.476 127.614 111.993C127.339 111.511 126.959 111.131 126.477 110.856C126.008 110.58 125.463 110.442 124.843 110.442C124.208 110.442 123.65 110.58 123.167 110.856C122.698 111.131 122.326 111.517 122.05 112.014C121.788 112.497 121.657 113.069 121.657 113.731V114.144C121.657 114.806 121.809 115.392 122.112 115.903C122.416 116.413 122.843 116.806 123.395 117.082C123.946 117.357 124.581 117.495 125.298 117.495C125.918 117.495 126.477 117.399 126.973 117.206C127.47 117.013 127.911 116.709 128.297 116.296L129.683 117.888C129.186 118.467 128.559 118.916 127.801 119.233C127.056 119.536 126.201 119.688 125.236 119.688ZM132.911 119.543V108.498H135.372V111.538L135.083 110.649C135.414 109.904 135.931 109.339 136.634 108.953C137.351 108.567 138.241 108.373 139.302 108.373V110.835C139.192 110.807 139.089 110.794 138.992 110.794C138.896 110.78 138.799 110.773 138.703 110.773C137.723 110.773 136.944 111.062 136.365 111.642C135.786 112.207 135.496 113.055 135.496 114.186V119.543H132.911ZM147.513 119.543V117.309L147.368 116.833V112.924C147.368 112.166 147.141 111.58 146.686 111.166C146.231 110.738 145.541 110.525 144.617 110.525C143.997 110.525 143.383 110.621 142.776 110.814C142.183 111.007 141.68 111.276 141.266 111.621L140.253 109.739C140.846 109.284 141.549 108.946 142.363 108.725C143.19 108.491 144.045 108.373 144.928 108.373C146.527 108.373 147.761 108.76 148.63 109.532C149.513 110.29 149.954 111.469 149.954 113.069V119.543H147.513ZM144.038 119.688C143.211 119.688 142.487 119.55 141.866 119.274C141.246 118.984 140.763 118.591 140.418 118.095C140.087 117.585 139.922 117.013 139.922 116.378C139.922 115.758 140.067 115.199 140.356 114.703C140.66 114.206 141.149 113.813 141.825 113.524C142.501 113.234 143.397 113.089 144.514 113.089H147.72V114.806H144.7C143.817 114.806 143.225 114.951 142.921 115.241C142.618 115.516 142.466 115.861 142.466 116.275C142.466 116.744 142.652 117.116 143.025 117.392C143.397 117.668 143.914 117.805 144.576 117.805C145.21 117.805 145.776 117.661 146.272 117.371C146.782 117.082 147.148 116.654 147.368 116.089L147.803 117.64C147.554 118.288 147.106 118.791 146.458 119.15C145.824 119.508 145.017 119.688 144.038 119.688ZM158.36 119.688C157.202 119.688 156.167 119.446 155.257 118.964C154.361 118.467 153.658 117.792 153.147 116.937C152.637 116.082 152.382 115.11 152.382 114.02C152.382 112.917 152.637 111.945 153.147 111.104C153.658 110.249 154.361 109.58 155.257 109.097C156.167 108.615 157.202 108.373 158.36 108.373C159.435 108.373 160.38 108.594 161.194 109.035C162.021 109.463 162.648 110.097 163.076 110.938L161.09 112.097C160.759 111.573 160.352 111.187 159.87 110.938C159.401 110.69 158.891 110.566 158.339 110.566C157.705 110.566 157.133 110.704 156.622 110.98C156.112 111.255 155.712 111.655 155.423 112.179C155.133 112.69 154.988 113.303 154.988 114.02C154.988 114.737 155.133 115.358 155.423 115.882C155.712 116.392 156.112 116.785 156.622 117.061C157.133 117.337 157.705 117.475 158.339 117.475C158.891 117.475 159.401 117.35 159.87 117.102C160.352 116.854 160.759 116.468 161.09 115.944L163.076 117.102C162.648 117.93 162.021 118.571 161.194 119.026C160.38 119.467 159.435 119.688 158.36 119.688ZM169.61 119.688C168.396 119.688 167.459 119.377 166.797 118.757C166.135 118.123 165.804 117.192 165.804 115.965V106.057H168.389V115.903C168.389 116.427 168.52 116.833 168.782 117.123C169.058 117.412 169.437 117.557 169.92 117.557C170.499 117.557 170.982 117.406 171.368 117.102L172.092 118.943C171.789 119.191 171.416 119.377 170.975 119.502C170.534 119.626 170.079 119.688 169.61 119.688ZM163.984 110.649V108.58H171.347V110.649H163.984ZM174.219 119.543V108.498H176.804V119.543H174.219ZM175.522 106.677C175.039 106.677 174.639 106.526 174.322 106.222C174.019 105.919 173.867 105.554 173.867 105.126C173.867 104.685 174.019 104.319 174.322 104.03C174.639 103.726 175.039 103.575 175.522 103.575C176.005 103.575 176.398 103.72 176.701 104.009C177.018 104.285 177.177 104.637 177.177 105.064C177.177 105.519 177.025 105.905 176.722 106.222C176.418 106.526 176.018 106.677 175.522 106.677ZM185.162 119.688C184.031 119.688 183.025 119.446 182.142 118.964C181.26 118.467 180.563 117.792 180.053 116.937C179.543 116.082 179.288 115.11 179.288 114.02C179.288 112.917 179.543 111.945 180.053 111.104C180.563 110.249 181.26 109.58 182.142 109.097C183.025 108.615 184.031 108.373 185.162 108.373C186.307 108.373 187.32 108.615 188.203 109.097C189.099 109.58 189.795 110.242 190.292 111.083C190.802 111.924 191.057 112.903 191.057 114.02C191.057 115.11 190.802 116.082 190.292 116.937C189.795 117.792 189.099 118.467 188.203 118.964C187.32 119.446 186.307 119.688 185.162 119.688ZM185.162 117.475C185.796 117.475 186.362 117.337 186.858 117.061C187.355 116.785 187.741 116.385 188.016 115.861C188.306 115.337 188.451 114.724 188.451 114.02C188.451 113.303 188.306 112.69 188.016 112.179C187.741 111.655 187.355 111.255 186.858 110.98C186.362 110.704 185.803 110.566 185.183 110.566C184.548 110.566 183.983 110.704 183.487 110.98C183.004 111.255 182.618 111.655 182.328 112.179C182.039 112.69 181.894 113.303 181.894 114.02C181.894 114.724 182.039 115.337 182.328 115.861C182.618 116.385 183.004 116.785 183.487 117.061C183.983 117.337 184.542 117.475 185.162 117.475ZM199.797 108.373C200.679 108.373 201.465 108.546 202.155 108.891C202.858 109.235 203.41 109.766 203.81 110.483C204.209 111.187 204.409 112.097 204.409 113.214V119.543H201.824V113.545C201.824 112.565 201.589 111.835 201.121 111.352C200.666 110.869 200.024 110.628 199.197 110.628C198.59 110.628 198.052 110.752 197.584 111C197.115 111.249 196.749 111.621 196.487 112.117C196.239 112.6 196.115 113.214 196.115 113.958V119.543H193.529V108.498H195.991V111.476L195.557 110.566C195.943 109.863 196.501 109.325 197.232 108.953C197.977 108.567 198.832 108.373 199.797 108.373Z" fill="black"/>
</svg>
