<svg width="230" height="295" viewBox="0 0 230 295" fill="none" xmlns="http://www.w3.org/2000/svg">
<path d="M12.1504 116.343V235.447L115.06 294.999L217.971 235.447V116.343L115.06 56.791L12.1504 116.343Z" fill="#E75825"/>
<path d="M0 66.6042V199.813L114.925 266.417L229.85 199.813V66.6042L114.925 0L0 66.6042Z" fill="white"/>
<path d="M89.3544 79.0632C89.3163 79.0632 89.2782 79.0577 89.2401 79.0577C88.5273 78.9924 88.0049 78.3721 88.0647 77.6593C88.0702 77.5994 88.1953 76.1574 89.1041 71.9348C89.1639 71.6573 89.3163 71.407 89.5285 71.2219C91.8357 69.2467 94.7905 68.6427 94.9156 68.6209C95.3183 68.5393 95.7318 68.659 96.0311 68.9365C96.0529 68.9474 98.0336 70.7213 100.058 70.7213H100.303C101.016 70.7213 101.592 71.3036 101.592 72.0164C101.592 72.7292 101.016 73.3115 100.303 73.3115H100.058C97.8159 73.3115 95.7971 72.0218 94.8557 71.3036C94.1048 71.5267 92.7281 72.0164 91.5364 72.9251C90.7583 76.5873 90.6386 77.8715 90.6386 77.8824C90.5787 78.5571 90.0128 79.0632 89.3544 79.0632Z" fill="#FF8F2E"/>
<path d="M110.811 79.065C110.158 79.065 109.598 78.5753 109.527 77.9114C109.521 77.8679 109.369 76.5728 108.596 72.927C107.405 72.0237 106.017 71.5285 105.261 71.3054C104.314 72.0182 102.29 73.3133 100.048 73.3133H99.9225C99.2097 73.3133 98.6274 72.7311 98.6274 72.0182C98.6274 71.3054 99.2097 70.7232 99.9225 70.7232H100.048C102.072 70.7232 104.069 68.9492 104.091 68.9329C104.39 68.6608 104.804 68.5466 105.201 68.6227C105.326 68.6499 108.297 69.2485 110.604 71.2238C110.816 71.4088 110.969 71.6591 111.029 71.9366C111.932 76.1429 112.09 77.574 112.095 77.6339C112.171 78.3467 111.654 78.9834 110.947 79.0596C110.904 79.065 110.855 79.065 110.811 79.065Z" fill="#FF8F2E"/>
<path d="M100.172 68.7236H100.047C96.4335 68.7236 93.5005 65.7798 93.5005 62.1612V59.4023C93.5005 55.7837 96.4335 52.8398 100.047 52.8398H100.172C103.785 52.8398 106.723 55.7837 106.723 59.4023V62.1612C106.723 65.7798 103.785 68.7236 100.172 68.7236ZM100.047 55.4246C97.8591 55.4246 96.0798 57.2094 96.0798 59.4023V62.1612C96.0798 64.3541 97.8591 66.1335 100.047 66.1335H100.172C102.359 66.1335 104.139 64.3541 104.139 62.1612V59.4023C104.139 57.2094 102.359 55.4246 100.172 55.4246H100.047Z" fill="#FF8F2E"/>
<path d="M119.501 79.0632C119.463 79.0632 119.425 79.0577 119.387 79.0577C118.68 78.9924 118.152 78.3721 118.212 77.6593C118.217 77.5994 118.342 76.1574 119.256 71.9348C119.316 71.6573 119.463 71.407 119.675 71.2219C121.983 69.2467 124.937 68.6427 125.063 68.6209C125.465 68.5393 125.879 68.659 126.183 68.9365C126.2 68.9474 128.181 70.7213 130.205 70.7213H130.45C131.162 70.7213 131.739 71.3036 131.739 72.0164C131.739 72.7292 131.162 73.3115 130.45 73.3115H130.205C127.963 73.3115 125.944 72.0218 125.003 71.3036C124.252 71.5267 122.875 72.0164 121.683 72.9251C120.905 76.5873 120.785 77.8715 120.785 77.8824C120.726 78.5571 120.16 79.0632 119.501 79.0632Z" fill="#FF8F2E"/>
<path d="M140.956 79.065C140.303 79.065 139.743 78.5753 139.672 77.9114C139.666 77.8679 139.519 76.5728 138.741 72.927C137.55 72.0237 136.162 71.5285 135.406 71.3054C134.459 72.0182 132.435 73.3133 130.193 73.3133H130.067C129.355 73.3133 128.778 72.7311 128.778 72.0182C128.778 71.3054 129.355 70.7232 130.067 70.7232H130.193C132.217 70.7232 134.214 68.9492 134.236 68.9329C134.535 68.6608 134.954 68.5466 135.346 68.6227C135.471 68.6499 138.442 69.2485 140.749 71.2238C140.961 71.4088 141.114 71.6591 141.174 71.9366C142.077 76.1429 142.235 77.574 142.24 77.6339C142.316 78.3467 141.805 78.9834 141.092 79.0596C141.048 79.065 140.999 79.065 140.956 79.065Z" fill="#FF8F2E"/>
<path d="M130.319 68.7236H130.194C126.586 68.7236 123.648 65.7798 123.648 62.1612V59.4023C123.648 55.7837 126.586 52.8398 130.194 52.8398H130.319C133.932 52.8398 136.871 55.7837 136.871 59.4023V62.1612C136.871 65.7798 133.932 68.7236 130.319 68.7236ZM130.194 55.4246C128.007 55.4246 126.227 57.2094 126.227 59.4023V62.1612C126.227 64.3541 128.007 66.1335 130.194 66.1335H130.319C132.507 66.1335 134.286 64.3541 134.286 62.1612V59.4023C134.286 57.2094 132.507 55.4246 130.319 55.4246H130.194Z" fill="#FF8F2E"/>
<path d="M107.411 53.3898C107.253 53.3898 107.09 53.3571 106.938 53.2973C106.453 53.1068 106.132 52.6388 106.122 52.1165L106.002 44.9663H89.4269C88.7141 44.9663 88.1318 44.3895 88.1318 43.6766V31.2482C88.1318 30.5299 88.7141 29.9531 89.4269 29.9531H116.286C116.999 29.9531 117.576 30.5299 117.576 31.2482V33.0602C117.576 33.7731 116.999 34.3553 116.286 34.3553C115.573 34.3553 114.997 33.7731 114.997 33.0602V32.5433H90.7166V42.3816H107.27C107.977 42.3816 108.548 42.9475 108.559 43.6549L108.652 48.9604L108.712 48.9005C109.212 48.3836 110.029 48.3727 110.54 48.8733C111.052 49.3739 111.062 50.1902 110.562 50.7071L108.336 52.998C108.091 53.2537 107.754 53.3898 107.411 53.3898Z" fill="#FF8F2E"/>
<path d="M121.553 57.0898C121.265 57.0898 120.976 56.9918 120.742 56.8014L112.379 50.0376C112.074 49.7927 111.895 49.4227 111.895 49.0309V36.4283C111.895 35.7155 112.471 35.1387 113.184 35.1387H137.981C138.694 35.1387 139.271 35.7155 139.271 36.4283V48.8568C139.271 49.5696 138.699 50.1464 137.987 50.1518L122.919 50.228L122.848 55.811C122.837 56.3062 122.549 56.7524 122.103 56.9646C121.929 57.0462 121.744 57.0898 121.553 57.0898ZM114.479 48.4105L120.302 53.1175L120.356 48.9275C120.367 48.2201 120.938 47.6542 121.64 47.6487L136.692 47.5671V37.7234H114.479V48.4105Z" fill="#FF8F2E"/>
<path d="M132.038 41.8714H118.091C117.379 41.8714 116.802 41.2892 116.802 40.5763C116.802 39.8581 117.379 39.2812 118.091 39.2812H132.038C132.756 39.2812 133.333 39.8581 133.333 40.5763C133.333 41.2892 132.756 41.8714 132.038 41.8714Z" fill="#FF8F2E"/>
<path d="M126.874 45.4964H118.091C117.379 45.4964 116.802 44.9142 116.802 44.2013C116.802 43.4831 117.379 42.9062 118.091 42.9062H126.874C127.587 42.9062 128.164 43.4831 128.164 44.2013C128.164 44.9142 127.587 45.4964 126.874 45.4964Z" fill="#FF8F2E"/>
<path d="M108.281 36.6878H94.3341C93.6159 36.6878 93.0391 36.111 93.0391 35.3927C93.0391 34.6799 93.6159 34.0977 94.3341 34.0977H108.281C108.994 34.0977 109.57 34.6799 109.57 35.3927C109.57 36.111 108.994 36.6878 108.281 36.6878Z" fill="#FF8F2E"/>
<path d="M103.111 40.3148H94.3341C93.6159 40.3148 93.0391 39.738 93.0391 39.0197C93.0391 38.3069 93.6159 37.7246 94.3341 37.7246H103.111C103.824 37.7246 104.406 38.3069 104.406 39.0197C104.406 39.738 103.824 40.3148 103.111 40.3148Z" fill="#FF8F2E"/>
<path d="M29.3301 119.75C28.2269 119.75 27.1996 119.571 26.2481 119.212C25.3105 118.84 24.49 118.323 23.7867 117.661C23.0972 116.985 22.5595 116.192 22.1733 115.282C21.7872 114.372 21.5942 113.379 21.5942 112.303C21.5942 111.228 21.7872 110.235 22.1733 109.325C22.5595 108.415 23.1041 107.629 23.8074 106.967C24.5107 106.291 25.3311 105.774 26.2688 105.416C27.2065 105.043 28.2338 104.857 29.3508 104.857C30.5367 104.857 31.6191 105.064 32.5982 105.478C33.5772 105.878 34.4046 106.477 35.0803 107.277L33.3428 108.911C32.8188 108.346 32.2328 107.925 31.5847 107.65C30.9366 107.36 30.2333 107.215 29.4749 107.215C28.7165 107.215 28.0201 107.339 27.3858 107.587C26.7652 107.836 26.2206 108.187 25.7517 108.642C25.2967 109.097 24.9381 109.635 24.6761 110.256C24.4279 110.876 24.3038 111.559 24.3038 112.303C24.3038 113.048 24.4279 113.731 24.6761 114.351C24.9381 114.972 25.2967 115.51 25.7517 115.965C26.2206 116.42 26.7652 116.771 27.3858 117.019C28.0201 117.268 28.7165 117.392 29.4749 117.392C30.2333 117.392 30.9366 117.254 31.5847 116.978C32.2328 116.689 32.8188 116.254 33.3428 115.675L35.0803 117.33C34.4046 118.116 33.5772 118.716 32.5982 119.129C31.6191 119.543 30.5298 119.75 29.3301 119.75ZM37.4086 119.543V104.195H39.9941V119.543H37.4086ZM43.3876 119.543V108.498H45.9731V119.543H43.3876ZM44.6907 106.677C44.2081 106.677 43.8082 106.526 43.491 106.222C43.1876 105.919 43.036 105.554 43.036 105.126C43.036 104.685 43.1876 104.319 43.491 104.03C43.8082 103.726 44.2081 103.575 44.6907 103.575C45.1733 103.575 45.5663 103.72 45.8697 104.009C46.1869 104.285 46.3454 104.637 46.3454 105.064C46.3454 105.519 46.1938 105.905 45.8904 106.222C45.587 106.526 45.1871 106.677 44.6907 106.677ZM54.5584 119.688C53.3311 119.688 52.2555 119.446 51.3316 118.964C50.4215 118.467 49.7114 117.792 49.2011 116.937C48.7047 116.082 48.4565 115.11 48.4565 114.02C48.4565 112.917 48.6978 111.945 49.1805 111.104C49.6769 110.249 50.3526 109.58 51.2075 109.097C52.0763 108.615 53.0622 108.373 54.1654 108.373C55.2409 108.373 56.1993 108.608 57.0405 109.077C57.8816 109.546 58.5435 110.207 59.0262 111.062C59.5088 111.917 59.7501 112.924 59.7501 114.082C59.7501 114.193 59.7432 114.317 59.7294 114.455C59.7294 114.593 59.7225 114.724 59.7087 114.848H50.5043V113.131H58.3436L57.33 113.669C57.3438 113.034 57.2128 112.476 56.937 111.993C56.6613 111.511 56.282 111.131 55.7994 110.856C55.3306 110.58 54.7859 110.442 54.1654 110.442C53.531 110.442 52.9726 110.58 52.4899 110.856C52.0211 111.131 51.6488 111.517 51.373 112.014C51.111 112.497 50.98 113.069 50.98 113.731V114.144C50.98 114.806 51.1317 115.392 51.435 115.903C51.7384 116.413 52.1659 116.806 52.7175 117.082C53.269 117.357 53.9034 117.495 54.6204 117.495C55.2409 117.495 55.7994 117.399 56.2958 117.206C56.7923 117.013 57.2335 116.709 57.6196 116.296L59.0055 117.888C58.509 118.467 57.8816 118.916 57.1232 119.233C56.3786 119.536 55.5236 119.688 54.5584 119.688ZM68.501 108.373C69.3835 108.373 70.1695 108.546 70.859 108.891C71.5622 109.235 72.1138 109.766 72.5137 110.483C72.9136 111.187 73.1136 112.097 73.1136 113.214V119.543H70.528V113.545C70.528 112.565 70.2936 111.835 69.8248 111.352C69.3697 110.869 68.7285 110.628 67.9011 110.628C67.2944 110.628 66.7566 110.752 66.2878 111C65.8189 111.249 65.4535 111.621 65.1915 112.117C64.9433 112.6 64.8192 113.214 64.8192 113.958V119.543H62.2337V108.498H64.6951V111.476L64.2607 110.566C64.6468 109.863 65.2053 109.325 65.9361 108.953C66.6808 108.567 67.5357 108.373 68.501 108.373ZM80.551 119.688C79.3375 119.688 78.3998 119.377 77.7379 118.757C77.076 118.123 76.7451 117.192 76.7451 115.965V106.057H79.3306V115.903C79.3306 116.427 79.4616 116.833 79.7236 117.123C79.9994 117.412 80.3786 117.557 80.8612 117.557C81.4404 117.557 81.923 117.406 82.3091 117.102L83.0331 118.943C82.7297 119.191 82.3574 119.377 81.9161 119.502C81.4749 119.626 81.0198 119.688 80.551 119.688ZM74.9249 110.649V108.58H82.2885V110.649H74.9249ZM91.1247 119.543V105.064H93.8136V119.543H91.1247ZM103.749 108.373C104.632 108.373 105.418 108.546 106.107 108.891C106.81 109.235 107.362 109.766 107.762 110.483C108.162 111.187 108.362 112.097 108.362 113.214V119.543H105.776V113.545C105.776 112.565 105.542 111.835 105.073 111.352C104.618 110.869 103.977 110.628 103.149 110.628C102.542 110.628 102.005 110.752 101.536 111C101.067 111.249 100.702 111.621 100.44 112.117C100.191 112.6 100.067 113.214 100.067 113.958V119.543H97.4817V108.498H99.9431V111.476L99.5087 110.566C99.8948 109.863 100.453 109.325 101.184 108.953C101.929 108.567 102.784 108.373 103.749 108.373ZM115.799 119.688C114.586 119.688 113.648 119.377 112.986 118.757C112.324 118.123 111.993 117.192 111.993 115.965V106.057H114.579V115.903C114.579 116.427 114.71 116.833 114.972 117.123C115.247 117.412 115.627 117.557 116.109 117.557C116.688 117.557 117.171 117.406 117.557 117.102L118.281 118.943C117.978 119.191 117.605 119.377 117.164 119.502C116.723 119.626 116.268 119.688 115.799 119.688ZM110.173 110.649V108.58H117.536V110.649H110.173ZM125.236 119.688C124.009 119.688 122.933 119.446 122.009 118.964C121.099 118.467 120.389 117.792 119.879 116.937C119.383 116.082 119.134 115.11 119.134 114.02C119.134 112.917 119.376 111.945 119.858 111.104C120.355 110.249 121.03 109.58 121.885 109.097C122.754 108.615 123.74 108.373 124.843 108.373C125.919 108.373 126.877 108.608 127.718 109.077C128.559 109.546 129.221 110.207 129.704 111.062C130.187 111.917 130.428 112.924 130.428 114.082C130.428 114.193 130.421 114.317 130.407 114.455C130.407 114.593 130.4 114.724 130.387 114.848H121.182V113.131H129.021L128.008 113.669C128.022 113.034 127.891 112.476 127.615 111.993C127.339 111.511 126.96 111.131 126.477 110.856C126.008 110.58 125.464 110.442 124.843 110.442C124.209 110.442 123.65 110.58 123.168 110.856C122.699 111.131 122.327 111.517 122.051 112.014C121.789 112.497 121.658 113.069 121.658 113.731V114.144C121.658 114.806 121.809 115.392 122.113 115.903C122.416 116.413 122.844 116.806 123.395 117.082C123.947 117.357 124.581 117.495 125.298 117.495C125.919 117.495 126.477 117.399 126.974 117.206C127.47 117.013 127.911 116.709 128.297 116.296L129.683 117.888C129.187 118.467 128.559 118.916 127.801 119.233C127.056 119.536 126.201 119.688 125.236 119.688ZM132.911 119.543V108.498H135.373V111.538L135.083 110.649C135.414 109.904 135.931 109.339 136.635 108.953C137.352 108.567 138.241 108.373 139.303 108.373V110.835C139.193 110.807 139.089 110.794 138.993 110.794C138.896 110.78 138.8 110.773 138.703 110.773C137.724 110.773 136.945 111.062 136.366 111.642C135.787 112.207 135.497 113.055 135.497 114.186V119.543H132.911ZM147.514 119.543V117.309L147.369 116.833V112.924C147.369 112.166 147.141 111.58 146.686 111.166C146.231 110.738 145.542 110.525 144.618 110.525C143.997 110.525 143.384 110.621 142.777 110.814C142.184 111.007 141.681 111.276 141.267 111.621L140.253 109.739C140.846 109.284 141.55 108.946 142.363 108.725C143.191 108.491 144.045 108.373 144.928 108.373C146.528 108.373 147.762 108.76 148.63 109.532C149.513 110.29 149.954 111.469 149.954 113.069V119.543H147.514ZM144.039 119.688C143.211 119.688 142.487 119.55 141.867 119.274C141.246 118.984 140.764 118.591 140.419 118.095C140.088 117.585 139.922 117.013 139.922 116.378C139.922 115.758 140.067 115.199 140.357 114.703C140.66 114.206 141.15 113.813 141.825 113.524C142.501 113.234 143.397 113.089 144.514 113.089H147.72V114.806H144.7C143.818 114.806 143.225 114.951 142.922 115.241C142.618 115.516 142.467 115.861 142.467 116.275C142.467 116.744 142.653 117.116 143.025 117.392C143.397 117.668 143.914 117.805 144.576 117.805C145.211 117.805 145.776 117.661 146.272 117.371C146.783 117.082 147.148 116.654 147.369 116.089L147.803 117.64C147.555 118.288 147.107 118.791 146.459 119.15C145.824 119.508 145.018 119.688 144.039 119.688ZM158.36 119.688C157.202 119.688 156.168 119.446 155.258 118.964C154.361 118.467 153.658 117.792 153.148 116.937C152.638 116.082 152.383 115.11 152.383 114.02C152.383 112.917 152.638 111.945 153.148 111.104C153.658 110.249 154.361 109.58 155.258 109.097C156.168 108.615 157.202 108.373 158.36 108.373C159.436 108.373 160.38 108.594 161.194 109.035C162.021 109.463 162.649 110.097 163.076 110.938L161.091 112.097C160.76 111.573 160.353 111.187 159.87 110.938C159.401 110.69 158.891 110.566 158.34 110.566C157.705 110.566 157.133 110.704 156.623 110.98C156.113 111.255 155.713 111.655 155.423 112.179C155.134 112.69 154.989 113.303 154.989 114.02C154.989 114.737 155.134 115.358 155.423 115.882C155.713 116.392 156.113 116.785 156.623 117.061C157.133 117.337 157.705 117.475 158.34 117.475C158.891 117.475 159.401 117.35 159.87 117.102C160.353 116.854 160.76 116.468 161.091 115.944L163.076 117.102C162.649 117.93 162.021 118.571 161.194 119.026C160.38 119.467 159.436 119.688 158.36 119.688ZM169.61 119.688C168.397 119.688 167.459 119.377 166.797 118.757C166.135 118.123 165.804 117.192 165.804 115.965V106.057H168.39V115.903C168.39 116.427 168.521 116.833 168.783 117.123C169.059 117.412 169.438 117.557 169.921 117.557C170.5 117.557 170.982 117.406 171.368 117.102L172.092 118.943C171.789 119.191 171.417 119.377 170.975 119.502C170.534 119.626 170.079 119.688 169.61 119.688ZM163.984 110.649V108.58H171.348V110.649H163.984ZM174.219 119.543V108.498H176.805V119.543H174.219ZM175.522 106.677C175.04 106.677 174.64 106.526 174.323 106.222C174.019 105.919 173.868 105.554 173.868 105.126C173.868 104.685 174.019 104.319 174.323 104.03C174.64 103.726 175.04 103.575 175.522 103.575C176.005 103.575 176.398 103.72 176.701 104.009C177.019 104.285 177.177 104.637 177.177 105.064C177.177 105.519 177.025 105.905 176.722 106.222C176.419 106.526 176.019 106.677 175.522 106.677ZM185.163 119.688C184.032 119.688 183.025 119.446 182.143 118.964C181.26 118.467 180.564 117.792 180.054 116.937C179.543 116.082 179.288 115.11 179.288 114.02C179.288 112.917 179.543 111.945 180.054 111.104C180.564 110.249 181.26 109.58 182.143 109.097C183.025 108.615 184.032 108.373 185.163 108.373C186.307 108.373 187.321 108.615 188.203 109.097C189.099 109.58 189.796 110.242 190.292 111.083C190.802 111.924 191.058 112.903 191.058 114.02C191.058 115.11 190.802 116.082 190.292 116.937C189.796 117.792 189.099 118.467 188.203 118.964C187.321 119.446 186.307 119.688 185.163 119.688ZM185.163 117.475C185.797 117.475 186.362 117.337 186.859 117.061C187.355 116.785 187.741 116.385 188.017 115.861C188.307 115.337 188.451 114.724 188.451 114.02C188.451 113.303 188.307 112.69 188.017 112.179C187.741 111.655 187.355 111.255 186.859 110.98C186.362 110.704 185.804 110.566 185.183 110.566C184.549 110.566 183.984 110.704 183.487 110.98C183.004 111.255 182.618 111.655 182.329 112.179C182.039 112.69 181.894 113.303 181.894 114.02C181.894 114.724 182.039 115.337 182.329 115.861C182.618 116.385 183.004 116.785 183.487 117.061C183.984 117.337 184.542 117.475 185.163 117.475ZM199.797 108.373C200.68 108.373 201.466 108.546 202.155 108.891C202.859 109.235 203.41 109.766 203.81 110.483C204.21 111.187 204.41 112.097 204.41 113.214V119.543H201.824V113.545C201.824 112.565 201.59 111.835 201.121 111.352C200.666 110.869 200.025 110.628 199.197 110.628C198.591 110.628 198.053 110.752 197.584 111C197.115 111.249 196.75 111.621 196.488 112.117C196.24 112.6 196.115 113.214 196.115 113.958V119.543H193.53V108.498H195.991V111.476L195.557 110.566C195.943 109.863 196.502 109.325 197.232 108.953C197.977 108.567 198.832 108.373 199.797 108.373Z" fill="black"/>
</svg>
