<svg width="231" height="295" viewBox="0 0 231 295" fill="none" xmlns="http://www.w3.org/2000/svg">
<path d="M12.3477 110.682V235.31L115.252 294.709L218.162 235.31V110.682L115.252 51.2773L12.3477 110.682Z" fill="#AA0021"/>
<path d="M0.195312 66.6042V199.813L115.12 266.417L230.045 199.813V66.6042L115.12 0L0.195312 66.6042Z" fill="white"/>
<path d="M128.43 41.0509C128.43 41.3883 128.37 41.7093 128.245 42.0195C128.115 42.3296 127.935 42.6017 127.701 42.8357C127.467 43.0751 127.2 43.2547 126.896 43.3853C126.591 43.5105 126.27 43.5758 125.943 43.5758C125.612 43.5758 125.29 43.5105 124.986 43.3853C124.681 43.2547 124.414 43.0751 124.18 42.8357C123.946 42.6017 123.767 42.3296 123.642 42.0195C123.511 41.7093 123.451 41.3883 123.451 41.0509C123.451 40.8223 123.37 40.621 123.206 40.4578C123.043 40.2945 122.847 40.2129 122.619 40.2129C122.39 40.2129 122.194 40.2945 122.031 40.4578C121.868 40.621 121.786 40.8223 121.786 41.0509C121.786 41.6114 121.895 42.1446 122.107 42.6616C122.314 43.1785 122.613 43.6302 123.005 44.0274C123.397 44.4192 123.843 44.7239 124.355 44.9361C124.861 45.1484 125.388 45.2572 125.943 45.2572C126.493 45.2572 127.021 45.1484 127.532 44.9361C128.038 44.7239 128.49 44.4192 128.876 44.0274C129.268 43.6302 129.568 43.1785 129.78 42.6616C129.987 42.1446 130.095 41.6114 130.095 41.0509C130.095 40.8223 130.014 40.621 129.85 40.4578C129.687 40.2945 129.491 40.2129 129.263 40.2129C129.034 40.2129 128.838 40.2945 128.675 40.4578C128.512 40.621 128.43 40.8223 128.43 41.0509Z" fill="#FF3874"/>
<path d="M139.227 33.4889H130.009C129.905 32.9774 129.715 32.504 129.437 32.0632C129.165 31.6224 128.817 31.2524 128.404 30.9423C127.99 30.6321 127.533 30.409 127.038 30.2729C126.543 30.1369 126.037 30.0934 125.525 30.1478C125.013 30.1968 124.529 30.3437 124.067 30.5777C123.61 30.8117 123.207 31.1218 122.864 31.5082C122.516 31.8945 122.249 32.3298 122.064 32.8196C121.879 33.3039 121.787 33.8099 121.787 34.3269V36.8517H121.357C121.063 36.8517 120.78 36.9007 120.502 37.0041C120.23 37.1021 119.98 37.249 119.752 37.4394C119.528 37.6299 119.343 37.8584 119.197 38.1142C119.05 38.3699 118.952 38.6475 118.903 38.9359L117.33 48.0395C117.243 48.5293 117.265 49.0136 117.395 49.4978C117.521 49.9767 117.744 50.4066 118.059 50.7875C118.375 51.1684 118.756 51.4622 119.197 51.669C119.643 51.8812 120.111 51.9846 120.6 51.9846H131.282C131.772 51.9846 132.24 51.8812 132.686 51.669C133.127 51.4622 133.508 51.1684 133.823 50.7875C134.139 50.4066 134.362 49.9767 134.487 49.4978C134.618 49.0136 134.64 48.5293 134.552 48.0395L132.98 38.9413C132.931 38.6475 132.833 38.3699 132.686 38.1142C132.539 37.8584 132.354 37.6299 132.131 37.4394C131.902 37.249 131.652 37.1021 131.38 37.0041C131.103 36.9007 130.82 36.8517 130.526 36.8517H130.096V35.1703H138.4V53.6661H124.279C124.094 53.6661 123.931 53.7259 123.784 53.8347L118.467 57.8724V54.5095C118.467 54.2755 118.386 54.0796 118.222 53.9109C118.065 53.7477 117.869 53.6661 117.635 53.6661H113.483V35.1703H120.127C120.356 35.1703 120.551 35.0887 120.715 34.9254C120.878 34.7568 120.96 34.5609 120.96 34.3269C120.96 34.0983 120.878 33.897 120.715 33.7338C120.551 33.5705 120.356 33.4889 120.127 33.4889H112.656C112.427 33.4889 112.231 33.5705 112.068 33.7338C111.905 33.897 111.823 34.0983 111.823 34.3269V54.5095C111.823 54.738 111.905 54.9394 112.068 55.1026C112.231 55.2659 112.427 55.3475 112.656 55.3475H116.808V59.5538C116.808 59.902 116.96 60.1524 117.265 60.3047C117.569 60.4625 117.863 60.4353 118.135 60.2231L124.556 55.3475H139.227C139.461 55.3475 139.657 55.2659 139.814 55.1026C139.978 54.9394 140.059 54.738 140.059 54.5095V34.3269C140.059 34.0983 139.978 33.897 139.814 33.7338C139.657 33.5705 139.461 33.4889 139.227 33.4889ZM131.342 39.2297L132.915 48.3334C132.958 48.5782 132.947 48.8177 132.887 49.0571C132.822 49.2965 132.713 49.5142 132.555 49.7046C132.398 49.8951 132.207 50.042 131.984 50.1454C131.761 50.2542 131.527 50.3032 131.282 50.3032H120.6C120.356 50.3032 120.122 50.2488 119.898 50.1454C119.681 50.042 119.49 49.8951 119.333 49.7046C119.175 49.5142 119.06 49.2965 119.001 49.0571C118.935 48.8177 118.924 48.5782 118.968 48.3334L120.541 39.2297C120.573 39.0284 120.671 38.8597 120.824 38.7291C120.976 38.5985 121.155 38.5332 121.357 38.5332H130.526C130.727 38.5332 130.907 38.5985 131.059 38.7291C131.217 38.8597 131.309 39.0284 131.342 39.2297ZM123.452 36.8517V35.1703H126.771C127 35.1703 127.196 35.0887 127.359 34.9254C127.522 34.7568 127.604 34.5609 127.604 34.3269C127.604 34.0983 127.522 33.897 127.359 33.7338C127.196 33.5705 127 33.4889 126.771 33.4889H123.604C123.702 33.2059 123.844 32.9502 124.029 32.7216C124.214 32.4931 124.437 32.3026 124.687 32.1503C124.943 32.0033 125.215 31.9 125.503 31.8455C125.792 31.7911 126.08 31.7911 126.368 31.8401C126.657 31.8945 126.929 31.9925 127.185 32.1394C127.44 32.2863 127.664 32.4768 127.849 32.7053C128.039 32.9284 128.186 33.1842 128.284 33.4617C128.382 33.7446 128.436 34.033 128.431 34.3269V36.8517H123.452Z" fill="#FF3874"/>
<path d="M114.317 61.8896V57.8738C114.317 57.6398 114.235 57.4439 114.072 57.2806C113.908 57.112 113.713 57.0303 113.484 57.0303C113.256 57.0303 113.06 57.112 112.896 57.2806C112.739 57.4439 112.657 57.6398 112.657 57.8738V61.2366H110.992V57.8738C110.992 57.6398 110.916 57.4439 110.752 57.2806C110.589 57.112 110.393 57.0303 110.165 57.0303C107.966 57.0303 101.866 56.4862 100.033 54.0048C99.8476 53.7545 99.6027 53.6403 99.2926 53.6729C98.9878 53.7001 98.7647 53.8525 98.6233 54.1354C98.6124 54.1627 97.1377 57.0303 95.2169 57.0303C94.9883 57.0303 94.7924 57.112 94.6292 57.2806C94.4659 57.4439 94.3843 57.6398 94.3843 57.8738V61.2366H92.7246V53.6675C92.7246 53.3355 92.7899 53.0145 92.9151 52.7043C93.0402 52.3942 93.2198 52.1221 93.4538 51.8881C93.6878 51.6487 93.9544 51.4691 94.2646 51.3385C94.5693 51.2133 94.8849 51.148 95.2169 51.148C95.4454 51.148 95.6413 51.0664 95.8045 50.8977C95.9623 50.7345 96.044 50.5386 96.044 50.3046C96.044 49.9727 96.1093 49.6462 96.2344 49.3415C96.3596 49.0313 96.5391 48.7592 96.7731 48.5198C97.0071 48.2858 97.2792 48.1008 97.5839 47.9756C97.8886 47.845 98.2043 47.7797 98.5362 47.7852H105.18C106.513 47.7852 107.76 48.1226 108.919 48.7973C109.115 48.9116 109.327 48.9388 109.55 48.8789C109.767 48.8191 109.936 48.6885 110.05 48.4871C110.165 48.2858 110.197 48.0736 110.138 47.8505C110.078 47.6274 109.947 47.4587 109.751 47.339C108.336 46.5119 106.813 46.1038 105.18 46.1038H98.5362C98.0519 46.0983 97.5839 46.1854 97.1268 46.3486C96.6697 46.5173 96.2562 46.7567 95.8807 47.0723C95.5107 47.3825 95.2005 47.7525 94.9557 48.177C94.7108 48.6014 94.5421 49.0531 94.455 49.5374C93.9762 49.6244 93.53 49.7931 93.111 50.0434C92.6974 50.2937 92.3328 50.6039 92.0227 50.9848C91.7125 51.3603 91.4785 51.7793 91.3098 52.2418C91.1466 52.7043 91.065 53.1777 91.065 53.6675V61.8896C90.5099 62.3902 90.2324 63.0106 90.2324 63.7561V65.4429C90.2324 65.7749 90.2977 66.0959 90.4229 66.4061C90.548 66.7162 90.7276 66.9883 90.9616 67.2223C91.1956 67.4617 91.4676 67.6413 91.7724 67.7719C92.0771 67.8971 92.3927 67.9624 92.7246 67.9624H94.4278C94.5965 69.5241 95.2332 70.8572 96.3324 71.9619L96.8765 72.5169V74.1711L90.6895 77.3C90.4882 77.4034 90.3467 77.5666 90.276 77.7843C90.2052 78.0074 90.2215 78.2196 90.3195 78.4264C90.4229 78.6332 90.5861 78.7747 90.7983 78.8508C91.016 78.9216 91.2282 78.9107 91.435 78.8073L96.8765 76.0485V78.0509C96.8765 78.2849 96.9581 78.4808 97.1214 78.6495C97.2792 78.8127 97.4751 78.8944 97.7091 78.8944C97.9376 78.8944 98.1335 78.8127 98.2913 78.6495C98.4546 78.4808 98.5362 78.2849 98.5362 78.0509V73.6651C98.8736 73.7848 99.2164 73.8446 99.5701 73.8501H105.812C106.165 73.8446 106.508 73.7848 106.84 73.6651V78.0509C106.84 78.2849 106.922 78.4808 107.085 78.6495C107.248 78.8127 107.444 78.8944 107.673 78.8944C107.901 78.8944 108.097 78.8127 108.26 78.6495C108.423 78.4808 108.505 78.2849 108.505 78.0509V76.0485L113.947 78.8073C114.148 78.9107 114.36 78.927 114.578 78.8508C114.795 78.7801 114.959 78.6386 115.062 78.4318C115.165 78.2196 115.176 78.0074 115.106 77.7843C115.035 77.5666 114.893 77.4034 114.687 77.3L108.505 74.1711V72.5169L109.049 71.9619C110.148 70.8572 110.78 69.5241 110.948 67.9624H112.657C112.983 67.9624 113.304 67.8971 113.609 67.7719C113.914 67.6413 114.181 67.4617 114.415 67.2223C114.649 66.9883 114.828 66.7162 114.959 66.4061C115.084 66.0959 115.144 65.7749 115.149 65.4429V63.7561C115.144 63.0106 114.866 62.3902 114.317 61.8896ZM91.8921 65.4429V63.7561C91.8921 63.5275 91.9737 63.3262 92.137 63.1629C92.3002 62.9997 92.4961 62.9181 92.7246 62.9181H94.3843V66.2809H92.7246C92.4961 66.2809 92.3002 66.1993 92.137 66.0361C91.9737 65.8728 91.8921 65.6715 91.8921 65.4429ZM109.332 67.206C109.338 68.599 108.853 69.7907 107.874 70.7756C107.711 70.9389 107.15 71.5048 106.987 71.6735C106.66 72.0054 106.269 72.1686 105.812 72.1686H99.5701C99.1075 72.1686 98.7158 72.0054 98.3947 71.6735C98.2315 71.5048 97.671 70.9389 97.5023 70.7756C96.5283 69.7907 96.044 68.599 96.044 67.206V58.6193C97.5349 58.135 98.694 57.2208 99.5157 55.8767C102.177 58.1513 107.313 58.6029 109.332 58.69V67.206ZM113.484 65.4429C113.484 65.6715 113.402 65.8728 113.245 66.0361C113.081 66.1993 112.885 66.2809 112.657 66.2809H110.992V62.9181H112.657C112.885 62.9181 113.081 62.9997 113.245 63.1629C113.402 63.3262 113.484 63.5275 113.484 63.7561V65.4429Z" fill="#FF3874"/>
<path d="M105.609 66.401C105.414 66.2813 105.201 66.2487 104.978 66.3085C104.755 66.3629 104.586 66.4881 104.467 66.6894C104.374 66.8472 104.265 66.9887 104.135 67.1139C104.01 67.239 103.868 67.3479 103.71 67.4349C103.553 67.5274 103.389 67.5927 103.215 67.6417C103.046 67.6852 102.867 67.707 102.687 67.707C102.508 67.707 102.334 67.6852 102.159 67.6417C101.985 67.5927 101.822 67.5274 101.664 67.4349C101.512 67.3479 101.37 67.239 101.24 67.1139C101.109 66.9887 101 66.8472 100.908 66.6894C100.794 66.4881 100.62 66.3629 100.396 66.3085C100.173 66.2487 99.9666 66.2813 99.7707 66.401C99.5748 66.5208 99.4442 66.6949 99.3898 66.918C99.3353 67.1411 99.368 67.3533 99.4877 67.5546C99.651 67.8376 99.8523 68.0879 100.081 68.3165C100.309 68.545 100.565 68.7409 100.848 68.8987C101.131 69.0619 101.425 69.1817 101.735 69.2687C102.051 69.3503 102.366 69.3884 102.687 69.3884C103.014 69.3884 103.329 69.3503 103.64 69.2687C103.95 69.1817 104.249 69.0619 104.527 68.8987C104.81 68.7409 105.065 68.545 105.299 68.3165C105.528 68.0879 105.724 67.8376 105.892 67.5546C106.012 67.3533 106.039 67.1411 105.985 66.918C105.93 66.6949 105.805 66.5208 105.609 66.401Z" fill="#FF3874"/>
<path d="M105.593 61.2344C105.157 61.2344 104.76 61.3541 104.396 61.599C104.031 61.8438 103.764 62.1649 103.59 62.573C103.498 62.7852 103.492 62.9974 103.574 63.2151C103.656 63.4328 103.803 63.5851 104.009 63.6831C104.216 63.7756 104.428 63.781 104.646 63.6994C104.858 63.6178 105.011 63.4708 105.109 63.2586C105.19 63.0301 105.353 62.9158 105.593 62.9158C105.838 62.9158 106.001 63.0301 106.083 63.2586C106.175 63.4708 106.333 63.6178 106.545 63.6994C106.757 63.781 106.97 63.7756 107.182 63.6831C107.389 63.5851 107.535 63.4328 107.617 63.2151C107.699 62.9974 107.693 62.7852 107.601 62.573C107.427 62.1649 107.16 61.8438 106.795 61.599C106.431 61.3541 106.028 61.2344 105.593 61.2344Z" fill="#FF3874"/>
<path d="M99.7813 62.9158C100.021 62.9158 100.184 63.0301 100.271 63.2586C100.364 63.4708 100.516 63.6178 100.734 63.6994C100.946 63.781 101.158 63.7756 101.365 63.6831C101.577 63.5851 101.718 63.4328 101.8 63.2151C101.882 62.9974 101.876 62.7852 101.784 62.573C101.615 62.1649 101.343 61.8438 100.984 61.599C100.619 61.3541 100.217 61.2344 99.7813 61.2344C99.346 61.2344 98.9433 61.3541 98.5841 61.599C98.2196 61.8438 97.9475 62.1649 97.7788 62.573C97.6863 62.7852 97.6808 62.9974 97.7625 63.2151C97.8441 63.4328 97.9856 63.5851 98.1978 63.6831C98.4046 63.7756 98.6168 63.781 98.829 63.6994C99.0467 63.6178 99.199 63.4708 99.2915 63.2586C99.3786 63.0301 99.5418 62.9158 99.7813 62.9158Z" fill="#FF3874"/>
<path d="M30.2422 168.739H29.3715V162.014H26.999V161.252H32.6147V162.014H30.2422V168.739Z" fill="#323131"/>
<path d="M38.4584 165.928C38.4584 166.843 38.2244 167.561 37.7619 168.083C37.3102 168.595 36.679 168.845 35.8682 168.845C35.3567 168.845 34.9105 168.731 34.5187 168.497C34.1269 168.252 33.8222 167.909 33.6045 167.474C33.3978 167.038 33.2998 166.527 33.2998 165.928C33.2998 165.014 33.5229 164.307 33.9746 163.795C34.4371 163.273 35.0737 163.012 35.89 163.012C36.6735 163.012 37.2939 163.273 37.7619 163.795C38.2244 164.318 38.4584 165.031 38.4584 165.928ZM34.1922 165.928C34.1922 166.641 34.3283 167.185 34.6058 167.561C34.8942 167.942 35.3132 168.127 35.8682 168.127C36.4341 168.127 36.8586 167.942 37.1524 167.561C37.4408 167.185 37.5877 166.641 37.5877 165.928C37.5877 165.221 37.4408 164.682 37.1524 164.318C36.8586 163.942 36.4341 163.752 35.8682 163.752C35.3132 163.752 34.8942 163.937 34.6058 164.296C34.3283 164.661 34.1922 165.205 34.1922 165.928Z" fill="#323131"/>
<path d="M45.2799 168.845C44.9153 168.845 44.5834 168.78 44.2787 168.649C43.9848 168.508 43.7345 168.295 43.5168 168.018H43.4733C43.5005 168.339 43.5168 168.649 43.5168 168.954V171.261H42.668V163.121H43.3645L43.4951 163.882H43.5168C43.7454 163.578 44.0066 163.36 44.3004 163.229C44.5888 163.088 44.9153 163.012 45.2799 163.012C46.0308 163.012 46.6131 163.267 47.0212 163.774C47.4239 164.285 47.6306 165.003 47.6306 165.928C47.6306 166.843 47.4184 167.561 46.9994 168.083C46.5913 168.595 46.0199 168.845 45.2799 168.845ZM45.1711 163.752C44.5888 163.752 44.1698 163.915 43.9086 164.231C43.6583 164.535 43.5277 165.036 43.5168 165.732V165.928C43.5168 166.712 43.6474 167.278 43.9086 167.626C44.1807 167.964 44.6106 168.127 45.1928 168.127C45.6717 168.127 46.0472 167.931 46.3247 167.539C46.5967 167.147 46.7382 166.603 46.7382 165.907C46.7382 165.21 46.5967 164.682 46.3247 164.318C46.0472 163.942 45.6608 163.752 45.1711 163.752Z" fill="#323131"/>
<path d="M49.9006 163.127V166.762C49.9006 167.23 49.9986 167.578 50.2054 167.807C50.423 168.024 50.7495 168.133 51.1848 168.133C51.778 168.133 52.2078 167.975 52.469 167.654C52.7411 167.339 52.8826 166.816 52.8826 166.087V163.127H53.7315V168.743H53.035L52.9261 167.981H52.8608C52.6867 168.258 52.4473 168.476 52.1425 168.634C51.8378 168.775 51.4896 168.851 51.0978 168.851C50.4013 168.851 49.8843 168.694 49.5524 168.373C49.215 168.041 49.0518 167.518 49.0518 166.805V163.127H49.9006Z" fill="#323131"/>
<path d="M57.3623 168.129C57.5038 168.129 57.6453 168.123 57.7759 168.107C57.9174 168.08 58.0371 168.058 58.1242 168.042V168.694C58.0371 168.738 57.8956 168.771 57.7106 168.803C57.5365 168.831 57.3732 168.847 57.2317 168.847C56.1434 168.847 55.5993 168.275 55.5993 167.127V163.775H54.7939V163.384L55.5993 163.014L55.9693 161.816H56.4482V163.122H58.0806V163.775H56.4482V167.084C56.4482 167.432 56.5243 167.693 56.6876 167.867C56.8454 168.042 57.0685 168.129 57.3623 168.129Z" fill="#323131"/>
<path d="M62.8136 168.744H61.9647V163.129H62.8136V168.744ZM61.8994 161.605C61.8994 161.42 61.9429 161.278 62.03 161.191C62.128 161.093 62.2531 161.039 62.4 161.039C62.5415 161.039 62.6612 161.093 62.7483 161.191C62.8462 161.278 62.9007 161.42 62.9007 161.605C62.9007 161.795 62.8462 161.942 62.7483 162.04C62.6612 162.127 62.5415 162.171 62.4 162.171C62.2531 162.171 62.128 162.127 62.03 162.04C61.9429 161.942 61.8994 161.795 61.8994 161.605Z" fill="#323131"/>
<path d="M66.4454 168.129C66.5868 168.129 66.7283 168.123 66.8589 168.107C67.0004 168.08 67.1201 168.058 67.2072 168.042V168.694C67.1201 168.738 66.9786 168.771 66.7936 168.803C66.6195 168.831 66.4562 168.847 66.3148 168.847C65.2265 168.847 64.6823 168.275 64.6823 167.127V163.775H63.877V163.384L64.6823 163.014L65.0523 161.816H65.5312V163.122H67.1636V163.775H65.5312V167.084C65.5312 167.432 65.6074 167.693 65.7706 167.867C65.9284 168.042 66.1515 168.129 66.4454 168.129Z" fill="#323131"/>
<path d="M74.6805 167.213C74.6805 167.735 74.4846 168.143 74.0928 168.431C73.701 168.709 73.1568 168.845 72.4603 168.845C71.7039 168.845 71.1217 168.725 70.719 168.475V167.691C70.9802 167.838 71.2632 167.947 71.5679 168.018C71.8835 168.094 72.1882 168.127 72.4821 168.127C72.9174 168.127 73.2493 168.061 73.4833 167.931C73.7282 167.789 73.8533 167.572 73.8533 167.278C73.8533 167.06 73.7554 166.875 73.5704 166.712C73.3799 166.554 73.0099 166.375 72.4603 166.168C71.9379 165.966 71.5679 165.792 71.3502 165.645C71.1326 165.504 70.9639 165.341 70.8496 165.167C70.7462 164.982 70.6973 164.753 70.6973 164.492C70.6973 164.046 70.8768 163.686 71.2414 163.425C71.6169 163.153 72.1338 163.012 72.7868 163.012C73.3963 163.012 73.9839 163.137 74.5499 163.382L74.2669 164.078C73.701 163.85 73.184 163.73 72.7215 163.73C72.3134 163.73 72.0087 163.795 71.8073 163.926C71.6006 164.046 71.5026 164.22 71.5026 164.448C71.5026 164.595 71.5353 164.726 71.6114 164.84C71.6985 164.943 71.8182 165.047 71.9815 165.145C72.1556 165.232 72.4875 165.362 72.9827 165.537C73.6466 165.787 74.0982 166.032 74.3322 166.277C74.5607 166.527 74.6805 166.837 74.6805 167.213Z" fill="#323131"/>
<path d="M76.8976 168.744H76.0487V163.129H76.8976V168.744ZM75.9834 161.605C75.9834 161.42 76.0269 161.278 76.114 161.191C76.2119 161.093 76.3371 161.039 76.484 161.039C76.6255 161.039 76.7452 161.093 76.8323 161.191C76.9302 161.278 76.9846 161.42 76.9846 161.605C76.9846 161.795 76.9302 161.942 76.8323 162.04C76.7452 162.127 76.6255 162.171 76.484 162.171C76.3371 162.171 76.2119 162.127 76.114 162.04C76.0269 161.942 75.9834 161.795 75.9834 161.605Z" fill="#323131"/>
<path d="M85.8661 168.736V165.079C85.8661 164.633 85.7682 164.296 85.5832 164.078C85.3927 163.861 85.0934 163.752 84.6908 163.752C84.1684 163.752 83.7766 163.904 83.5154 164.209C83.2651 164.503 83.1454 164.965 83.1454 165.602V168.736H82.2965V165.079C82.2965 164.633 82.1931 164.296 81.9918 164.078C81.8013 163.861 81.502 163.752 81.0993 163.752C80.577 163.752 80.1852 163.915 79.924 164.231C79.6737 164.552 79.554 165.074 79.554 165.798V168.736H78.7051V163.121H79.4016L79.554 163.882H79.5757C79.7335 163.621 79.9566 163.414 80.2505 163.251C80.5552 163.093 80.8871 163.012 81.2517 163.012C82.1224 163.012 82.6937 163.333 82.9712 163.969H83.0148C83.1726 163.681 83.412 163.447 83.733 163.273C84.0487 163.099 84.4132 163.012 84.8213 163.012C85.458 163.012 85.9314 163.18 86.2361 163.512C86.5518 163.833 86.715 164.356 86.715 165.079V168.736H85.8661Z" fill="#323131"/>
<path d="M91.0729 168.845C90.7083 168.845 90.3764 168.78 90.0716 168.649C89.7778 168.508 89.5275 168.295 89.3098 168.018H89.2663C89.2935 168.339 89.3098 168.649 89.3098 168.954V171.261H88.4609V163.121H89.1575L89.288 163.882H89.3098C89.5384 163.578 89.7996 163.36 90.0934 163.229C90.3818 163.088 90.7083 163.012 91.0729 163.012C91.8238 163.012 92.406 163.267 92.8142 163.774C93.2168 164.285 93.4236 165.003 93.4236 165.928C93.4236 166.843 93.2114 167.561 92.7924 168.083C92.3843 168.595 91.8129 168.845 91.0729 168.845ZM90.964 163.752C90.3818 163.752 89.9628 163.915 89.7016 164.231C89.4513 164.535 89.3207 165.036 89.3098 165.732V165.928C89.3098 166.712 89.4404 167.278 89.7016 167.626C89.9737 167.964 90.4036 168.127 90.9858 168.127C91.4647 168.127 91.8401 167.931 92.1176 167.539C92.3897 167.147 92.5312 166.603 92.5312 165.907C92.5312 165.21 92.3897 164.682 92.1176 164.318C91.8401 163.942 91.4538 163.752 90.964 163.752Z" fill="#323131"/>
<path d="M95.7395 168.744H94.8906V160.777H95.7395V168.744Z" fill="#323131"/>
<path d="M96.6504 163.127H97.5646L98.8052 166.327C99.0664 167.067 99.2297 167.6 99.3059 167.915H99.3494C99.3929 167.741 99.48 167.448 99.6106 167.023C99.7521 166.604 100.225 165.304 101.025 163.127H101.918L99.5235 169.526C99.2732 170.147 98.9902 170.593 98.6746 170.854C98.3536 171.126 97.9618 171.267 97.4993 171.267C97.2381 171.267 96.9823 171.235 96.7375 171.18V170.484C96.9225 170.527 97.1347 170.549 97.3687 170.549C97.9455 170.549 98.359 170.223 98.6093 169.57L98.9141 168.764L96.6504 163.127Z" fill="#323131"/>
<path d="M103.722 167.521L103.809 167.63C103.722 167.979 103.591 168.381 103.417 168.827C103.254 169.274 103.08 169.698 102.895 170.09H102.264C102.351 169.742 102.443 169.306 102.547 168.784C102.661 168.262 102.748 167.843 102.808 167.521H103.722Z" fill="#323131"/>
<path d="M108.931 163.127V166.762C108.931 167.23 109.029 167.578 109.236 167.807C109.453 168.024 109.78 168.133 110.215 168.133C110.808 168.133 111.238 167.975 111.499 167.654C111.771 167.339 111.913 166.816 111.913 166.087V163.127H112.762V168.743H112.065L111.956 167.981H111.891C111.717 168.258 111.478 168.476 111.173 168.634C110.868 168.775 110.52 168.851 110.128 168.851C109.432 168.851 108.915 168.694 108.583 168.373C108.245 168.041 108.082 167.518 108.082 166.805V163.127H108.931Z" fill="#323131"/>
<path d="M118.416 168.736V165.101C118.416 164.655 118.307 164.318 118.09 164.1C117.883 163.871 117.567 163.752 117.132 163.752C116.533 163.752 116.098 163.915 115.826 164.231C115.548 164.535 115.412 165.058 115.412 165.798V168.736H114.563V163.121H115.26L115.412 163.882H115.434C115.608 163.61 115.853 163.398 116.174 163.251C116.49 163.093 116.838 163.012 117.219 163.012C117.899 163.012 118.405 163.18 118.743 163.512C119.091 163.833 119.265 164.356 119.265 165.079V168.736H118.416Z" fill="#323131"/>
<path d="M124.835 167.982H124.791C124.399 168.564 123.812 168.853 123.028 168.853C122.288 168.853 121.711 168.608 121.309 168.113C120.901 167.606 120.699 166.888 120.699 165.958C120.699 165.033 120.901 164.314 121.309 163.803C121.728 163.28 122.299 163.019 123.028 163.019C123.779 163.019 124.361 163.297 124.769 163.846H124.835L124.791 163.063V160.777H125.64V168.744H124.944L124.835 167.982ZM123.137 168.134C123.714 168.134 124.138 167.976 124.399 167.655C124.661 167.34 124.791 166.828 124.791 166.132V165.958C124.791 165.163 124.65 164.597 124.378 164.26C124.116 163.912 123.692 163.738 123.115 163.738C122.62 163.738 122.245 163.933 121.983 164.325C121.722 164.706 121.592 165.25 121.592 165.958C121.592 166.687 121.722 167.231 121.983 167.59C122.245 167.955 122.626 168.134 123.137 168.134Z" fill="#323131"/>
<path d="M129.806 168.845C128.979 168.845 128.326 168.595 127.847 168.083C127.368 167.577 127.129 166.875 127.129 165.972C127.129 165.074 127.347 164.356 127.782 163.817C128.228 163.284 128.832 163.012 129.588 163.012C130.296 163.012 130.856 163.246 131.264 163.708C131.667 164.176 131.874 164.786 131.874 165.537V166.081H128.021C128.032 166.75 128.195 167.256 128.5 167.604C128.816 167.942 129.267 168.105 129.85 168.105C130.443 168.105 131.036 167.974 131.634 167.713V168.475C131.33 168.606 131.047 168.704 130.786 168.758C130.524 168.812 130.198 168.845 129.806 168.845ZM129.588 163.73C129.137 163.73 128.772 163.882 128.5 164.187C128.239 164.481 128.076 164.878 128.021 165.384H130.96C130.96 164.851 130.835 164.443 130.59 164.165C130.356 163.877 130.024 163.73 129.588 163.73Z" fill="#323131"/>
<path d="M135.885 163.012C136.13 163.012 136.353 163.033 136.56 163.077L136.451 163.861C136.217 163.817 136.005 163.795 135.82 163.795C135.368 163.795 134.976 163.986 134.644 164.361C134.323 164.726 134.165 165.183 134.165 165.732V168.736H133.316V163.121H134.035L134.122 164.165H134.165C134.367 163.806 134.611 163.523 134.905 163.316C135.21 163.115 135.537 163.012 135.885 163.012Z" fill="#323131"/>
<path d="M142.937 168.845C142.573 168.845 142.241 168.78 141.936 168.649C141.642 168.508 141.392 168.295 141.174 168.018H141.131C141.158 168.339 141.174 168.649 141.174 168.954V171.261H140.325V163.121H141.022L141.152 163.882H141.174C141.403 163.578 141.664 163.36 141.958 163.229C142.246 163.088 142.573 163.012 142.937 163.012C143.688 163.012 144.27 163.267 144.678 163.774C145.081 164.285 145.288 165.003 145.288 165.928C145.288 166.843 145.076 167.561 144.657 168.083C144.249 168.595 143.677 168.845 142.937 168.845ZM142.828 163.752C142.246 163.752 141.827 163.915 141.566 164.231C141.316 164.535 141.185 165.036 141.174 165.732V165.928C141.174 166.712 141.305 167.278 141.566 167.626C141.838 167.964 142.268 168.127 142.85 168.127C143.329 168.127 143.704 167.931 143.982 167.539C144.254 167.147 144.395 166.603 144.395 165.907C144.395 165.21 144.254 164.682 143.982 164.318C143.704 163.942 143.318 163.752 142.828 163.752Z" fill="#323131"/>
<path d="M149.321 163.012C149.566 163.012 149.789 163.033 149.996 163.077L149.887 163.861C149.653 163.817 149.441 163.795 149.256 163.795C148.804 163.795 148.413 163.986 148.081 164.361C147.76 164.726 147.602 165.183 147.602 165.732V168.736H146.753V163.121H147.471L147.558 164.165H147.602C147.803 163.806 148.048 163.523 148.342 163.316C148.647 163.115 148.973 163.012 149.321 163.012Z" fill="#323131"/>
<path d="M155.889 165.928C155.889 166.843 155.655 167.561 155.193 168.083C154.741 168.595 154.11 168.845 153.299 168.845C152.787 168.845 152.341 168.731 151.949 168.497C151.558 168.252 151.253 167.909 151.035 167.474C150.828 167.038 150.73 166.527 150.73 165.928C150.73 165.014 150.954 164.307 151.405 163.795C151.868 163.273 152.504 163.012 153.321 163.012C154.104 163.012 154.725 163.273 155.193 163.795C155.655 164.318 155.889 165.031 155.889 165.928ZM151.623 165.928C151.623 166.641 151.759 167.185 152.036 167.561C152.325 167.942 152.744 168.127 153.299 168.127C153.865 168.127 154.289 167.942 154.583 167.561C154.871 167.185 155.018 166.641 155.018 165.928C155.018 165.221 154.871 164.682 154.583 164.318C154.289 163.942 153.865 163.752 153.299 163.752C152.744 163.752 152.325 163.937 152.036 164.296C151.759 164.661 151.623 165.205 151.623 165.928Z" fill="#323131"/>
<path d="M164.532 168.736V165.079C164.532 164.633 164.434 164.296 164.249 164.078C164.059 163.861 163.759 163.752 163.357 163.752C162.834 163.752 162.443 163.904 162.181 164.209C161.931 164.503 161.811 164.965 161.811 165.602V168.736H160.962V165.079C160.962 164.633 160.859 164.296 160.658 164.078C160.467 163.861 160.168 163.752 159.765 163.752C159.243 163.752 158.851 163.915 158.59 164.231C158.34 164.552 158.22 165.074 158.22 165.798V168.736H157.371V163.121H158.068L158.22 163.882H158.242C158.4 163.621 158.623 163.414 158.916 163.251C159.221 163.093 159.553 163.012 159.918 163.012C160.788 163.012 161.36 163.333 161.637 163.969H161.681C161.839 163.681 162.078 163.447 162.399 163.273C162.715 163.099 163.079 163.012 163.487 163.012C164.124 163.012 164.597 163.18 164.902 163.512C165.218 163.833 165.381 164.356 165.381 165.079V168.736H164.532Z" fill="#323131"/>
<path d="M167.98 168.744H167.131V163.129H167.98V168.744ZM167.065 161.605C167.065 161.42 167.109 161.278 167.196 161.191C167.294 161.093 167.419 161.039 167.566 161.039C167.708 161.039 167.827 161.093 167.914 161.191C168.012 161.278 168.067 161.42 168.067 161.605C168.067 161.795 168.012 161.942 167.914 162.04C167.827 162.127 167.708 162.171 167.566 162.171C167.419 162.171 167.294 162.127 167.196 162.04C167.109 161.942 167.065 161.795 167.065 161.605Z" fill="#323131"/>
<path d="M173.418 167.213C173.418 167.735 173.222 168.143 172.83 168.431C172.438 168.709 171.894 168.845 171.198 168.845C170.441 168.845 169.859 168.725 169.456 168.475V167.691C169.718 167.838 170 167.947 170.305 168.018C170.621 168.094 170.926 168.127 171.219 168.127C171.655 168.127 171.987 168.061 172.221 167.931C172.465 167.789 172.591 167.572 172.591 167.278C172.591 167.06 172.493 166.875 172.308 166.712C172.117 166.554 171.747 166.375 171.198 166.168C170.675 165.966 170.305 165.792 170.088 165.645C169.87 165.504 169.701 165.341 169.587 165.167C169.484 164.982 169.435 164.753 169.435 164.492C169.435 164.046 169.614 163.686 169.979 163.425C170.354 163.153 170.871 163.012 171.524 163.012C172.134 163.012 172.721 163.137 173.287 163.382L173.004 164.078C172.438 163.85 171.921 163.73 171.459 163.73C171.051 163.73 170.746 163.795 170.545 163.926C170.338 164.046 170.24 164.22 170.24 164.448C170.24 164.595 170.273 164.726 170.349 164.84C170.436 164.943 170.556 165.047 170.719 165.145C170.893 165.232 171.225 165.362 171.72 165.537C172.384 165.787 172.836 166.032 173.07 166.277C173.298 166.527 173.418 166.837 173.418 167.213Z" fill="#323131"/>
<path d="M177.159 168.845C176.332 168.845 175.679 168.595 175.2 168.083C174.721 167.577 174.481 166.875 174.481 165.972C174.481 165.074 174.699 164.356 175.134 163.817C175.581 163.284 176.185 163.012 176.941 163.012C177.648 163.012 178.209 163.246 178.617 163.708C179.02 164.176 179.226 164.786 179.226 165.537V166.081H175.374C175.385 166.75 175.548 167.256 175.853 167.604C176.168 167.942 176.62 168.105 177.202 168.105C177.795 168.105 178.388 167.974 178.987 167.713V168.475C178.682 168.606 178.399 168.704 178.138 168.758C177.877 168.812 177.55 168.845 177.159 168.845ZM176.941 163.73C176.489 163.73 176.125 163.882 175.853 164.187C175.592 164.481 175.428 164.878 175.374 165.384H178.312C178.312 164.851 178.187 164.443 177.942 164.165C177.708 163.877 177.376 163.73 176.941 163.73Z" fill="#323131"/>
<path d="M181.566 167.521L181.653 167.63C181.566 167.979 181.435 168.381 181.261 168.827C181.098 169.274 180.924 169.698 180.739 170.09H180.107C180.194 169.742 180.287 169.306 180.39 168.784C180.505 168.262 180.592 167.843 180.652 167.521H181.566Z" fill="#323131"/>
<path d="M189.43 168.74L189.256 167.934H189.212C188.935 168.299 188.657 168.544 188.385 168.675C188.108 168.789 187.759 168.849 187.34 168.849C186.785 168.849 186.35 168.707 186.035 168.413C185.713 168.125 185.556 167.717 185.556 167.194C185.556 166.063 186.459 165.469 188.276 165.41L189.234 165.366V165.018C189.234 164.583 189.136 164.267 188.951 164.06C188.761 163.842 188.456 163.734 188.037 163.734C187.569 163.734 187.041 163.881 186.448 164.169L186.187 163.516C186.459 163.374 186.764 163.255 187.101 163.168C187.433 163.081 187.759 163.037 188.081 163.037C188.761 163.037 189.261 163.189 189.582 163.494C189.898 163.788 190.061 164.256 190.061 164.909V168.74H189.43ZM187.515 168.13C188.037 168.13 188.451 167.989 188.755 167.695C189.06 167.407 189.212 166.999 189.212 166.476V165.976L188.363 166.019C187.678 166.035 187.188 166.139 186.883 166.324C186.59 166.514 186.448 166.803 186.448 167.194C186.448 167.499 186.541 167.733 186.731 167.891C186.916 168.054 187.177 168.13 187.515 168.13Z" fill="#323131"/>
<path d="M195.656 168.736V165.101C195.656 164.655 195.547 164.318 195.33 164.1C195.123 163.871 194.807 163.752 194.372 163.752C193.774 163.752 193.338 163.915 193.066 164.231C192.789 164.535 192.653 165.058 192.653 165.798V168.736H191.804V163.121H192.5L192.653 163.882H192.674C192.848 163.61 193.093 163.398 193.414 163.251C193.73 163.093 194.078 163.012 194.459 163.012C195.139 163.012 195.645 163.18 195.983 163.512C196.331 163.833 196.505 164.356 196.505 165.079V168.736H195.656Z" fill="#323131"/>
<path d="M202.073 167.982H202.03C201.638 168.564 201.05 168.853 200.266 168.853C199.526 168.853 198.95 168.608 198.547 168.113C198.139 167.606 197.938 166.888 197.938 165.958C197.938 165.033 198.139 164.314 198.547 163.803C198.966 163.28 199.537 163.019 200.266 163.019C201.017 163.019 201.6 163.297 202.008 163.846H202.073L202.03 163.063V160.777H202.878V168.744H202.182L202.073 167.982ZM200.375 168.134C200.952 168.134 201.377 167.976 201.638 167.655C201.899 167.34 202.03 166.828 202.03 166.132V165.958C202.03 165.163 201.888 164.597 201.616 164.26C201.355 163.912 200.93 163.738 200.354 163.738C199.858 163.738 199.483 163.933 199.222 164.325C198.961 164.706 198.83 165.25 198.83 165.958C198.83 166.687 198.961 167.231 199.222 167.59C199.483 167.955 199.864 168.134 200.375 168.134Z" fill="#323131"/>
<path d="M44.0736 179.911C44.0736 180.825 43.8396 181.543 43.3771 182.066C42.9254 182.577 42.2942 182.827 41.4834 182.827C40.9719 182.827 40.5257 182.713 40.1339 182.479C39.7422 182.234 39.4374 181.892 39.2198 181.456C39.013 181.021 38.915 180.509 38.915 179.911C38.915 178.997 39.1381 178.289 39.5898 177.778C40.0523 177.255 40.689 176.994 41.5052 176.994C42.2888 176.994 42.9091 177.255 43.3771 177.778C43.8396 178.3 44.0736 179.013 44.0736 179.911ZM39.8074 179.911C39.8074 180.624 39.9435 181.168 40.221 181.543C40.5094 181.924 40.9284 182.109 41.4834 182.109C42.0494 182.109 42.4738 181.924 42.7676 181.543C43.056 181.168 43.203 180.624 43.203 179.911C43.203 179.203 43.056 178.665 42.7676 178.3C42.4738 177.925 42.0494 177.734 41.4834 177.734C40.9284 177.734 40.5094 177.919 40.221 178.278C39.9435 178.643 39.8074 179.187 39.8074 179.911Z" fill="#323131"/>
<path d="M46.7981 182.725L44.665 177.109H45.5792L46.7763 180.44C47.0484 181.223 47.2171 181.735 47.277 181.963H47.2987C47.3423 181.778 47.462 181.397 47.6688 180.831C47.8701 180.265 48.3217 179.025 49.0183 177.109H49.9107L47.7994 182.725H46.7981Z" fill="#323131"/>
<path d="M53.187 182.827C52.3599 182.827 51.7069 182.577 51.228 182.066C50.7492 181.56 50.5098 180.858 50.5098 179.954C50.5098 179.056 50.7274 178.338 51.1627 177.799C51.609 177.266 52.213 176.994 52.9693 176.994C53.6767 176.994 54.2372 177.228 54.6453 177.691C55.048 178.159 55.2548 178.768 55.2548 179.519V180.063H51.4022C51.4131 180.732 51.5763 181.239 51.881 181.587C52.1966 181.924 52.6483 182.087 53.2305 182.087C53.8237 182.087 54.4168 181.957 55.0153 181.696V182.457C54.7106 182.588 54.4277 182.686 54.1665 182.74C53.9053 182.795 53.5788 182.827 53.187 182.827ZM52.9693 177.712C52.5177 177.712 52.1531 177.865 51.881 178.17C51.6198 178.463 51.4566 178.861 51.4022 179.367H54.3406C54.3406 178.833 54.2154 178.425 53.9706 178.148C53.7366 177.859 53.4047 177.712 52.9693 177.712Z" fill="#323131"/>
<path d="M59.2696 176.994C59.5144 176.994 59.7375 177.016 59.9443 177.059L59.8355 177.843C59.6015 177.799 59.3893 177.778 59.2043 177.778C58.7526 177.778 58.3608 177.968 58.0289 178.344C57.7079 178.708 57.55 179.165 57.55 179.715V182.719H56.7012V177.103H57.4195L57.5065 178.148H57.55C57.7514 177.789 57.9963 177.506 58.2901 177.299C58.5948 177.098 58.9213 176.994 59.2696 176.994Z" fill="#323131"/>
<path d="M67.5359 181.964H67.4924C67.1006 182.547 66.5129 182.835 65.7294 182.835C64.9893 182.835 64.4125 182.59 64.0098 182.095C63.6017 181.589 63.4004 180.871 63.4004 179.94C63.4004 179.015 63.6017 178.297 64.0098 177.785C64.4288 177.263 65.0002 177.002 65.7294 177.002C66.4803 177.002 67.0625 177.279 67.4706 177.829H67.5359L67.4924 177.045V174.76H68.3413V182.726H67.6448L67.5359 181.964ZM65.8382 182.117C66.415 182.117 66.8394 181.959 67.1006 181.638C67.3618 181.322 67.4924 180.811 67.4924 180.114V179.94C67.4924 179.146 67.3509 178.58 67.0789 178.242C66.8177 177.894 66.3932 177.72 65.8164 177.72C65.3212 177.72 64.9458 177.916 64.6846 178.308C64.4234 178.689 64.2928 179.233 64.2928 179.94C64.2928 180.669 64.4234 181.213 64.6846 181.573C64.9458 181.937 65.3267 182.117 65.8382 182.117Z" fill="#323131"/>
<path d="M72.5063 182.827C71.6792 182.827 71.0262 182.577 70.5474 182.066C70.0685 181.56 69.8291 180.858 69.8291 179.954C69.8291 179.056 70.0468 178.338 70.4821 177.799C70.9283 177.266 71.5323 176.994 72.2887 176.994C72.9961 176.994 73.5565 177.228 73.9647 177.691C74.3673 178.159 74.5741 178.768 74.5741 179.519V180.063H70.7215C70.7324 180.732 70.8956 181.239 71.2004 181.587C71.516 181.924 71.9676 182.087 72.5499 182.087C73.143 182.087 73.7361 181.957 74.3347 181.696V182.457C74.03 182.588 73.747 182.686 73.4858 182.74C73.2246 182.795 72.8981 182.827 72.5063 182.827ZM72.2887 177.712C71.837 177.712 71.4724 177.865 71.2004 178.17C70.9392 178.463 70.7759 178.861 70.7215 179.367H73.6599C73.6599 178.833 73.5348 178.425 73.2899 178.148C73.0559 177.859 72.724 177.712 72.2887 177.712Z" fill="#323131"/>
<path d="M76.8694 182.726H76.0205V174.76H76.8694V182.726Z" fill="#323131"/>
<path d="M79.5226 182.729H78.6737V177.113H79.5226V182.729ZM78.6084 175.589C78.6084 175.404 78.6519 175.263 78.739 175.176C78.8369 175.078 78.9621 175.023 79.109 175.023C79.2505 175.023 79.3702 175.078 79.4573 175.176C79.5552 175.263 79.6096 175.404 79.6096 175.589C79.6096 175.78 79.5552 175.927 79.4573 176.025C79.3702 176.112 79.2505 176.155 79.109 176.155C78.9621 176.155 78.8369 176.112 78.739 176.025C78.6519 175.927 78.6084 175.78 78.6084 175.589Z" fill="#323131"/>
<path d="M82.5686 182.725L80.4355 177.109H81.3497L82.5469 180.44C82.8189 181.223 82.9876 181.735 83.0475 181.963H83.0692C83.1128 181.778 83.2325 181.397 83.4393 180.831C83.6406 180.265 84.0923 179.025 84.7888 177.109H85.6812L83.5699 182.725H82.5686Z" fill="#323131"/>
<path d="M88.9555 182.827C88.1284 182.827 87.4755 182.577 86.9966 182.066C86.5177 181.56 86.2783 180.858 86.2783 179.954C86.2783 179.056 86.496 178.338 86.9313 177.799C87.3775 177.266 87.9815 176.994 88.7379 176.994C89.4453 176.994 90.0058 177.228 90.4139 177.691C90.8166 178.159 91.0233 178.768 91.0233 179.519V180.063H87.1707C87.1816 180.732 87.3449 181.239 87.6496 181.587C87.9652 181.924 88.4168 182.087 88.9991 182.087C89.5922 182.087 90.1853 181.957 90.7839 181.696V182.457C90.4792 182.588 90.1962 182.686 89.935 182.74C89.6738 182.795 89.3473 182.827 88.9555 182.827ZM88.7379 177.712C88.2862 177.712 87.9217 177.865 87.6496 178.17C87.3884 178.463 87.2251 178.861 87.1707 179.367H90.1092C90.1092 178.833 89.984 178.425 89.7391 178.148C89.5051 177.859 89.1732 177.712 88.7379 177.712Z" fill="#323131"/>
<path d="M95.0342 176.994C95.2791 176.994 95.5022 177.016 95.709 177.059L95.6001 177.843C95.3662 177.799 95.1539 177.778 94.9689 177.778C94.5173 177.778 94.1255 177.968 93.7936 178.344C93.4725 178.708 93.3147 179.165 93.3147 179.715V182.719H92.4658V177.103H93.1841L93.2712 178.148H93.3147C93.516 177.789 93.7609 177.506 94.0547 177.299C94.3595 177.098 94.686 176.994 95.0342 176.994Z" fill="#323131"/>
<path d="M96.6416 182.179C96.6416 181.95 96.6906 181.776 96.794 181.657C96.8919 181.542 97.0443 181.482 97.2511 181.482C97.4361 181.482 97.583 181.542 97.6864 181.657C97.8006 181.776 97.8605 181.95 97.8605 182.179C97.8605 182.397 97.8006 182.571 97.6864 182.701C97.583 182.816 97.4361 182.875 97.2511 182.875C97.0769 182.875 96.93 182.821 96.8157 182.723C96.696 182.609 96.6416 182.429 96.6416 182.179Z" fill="#323131"/>
<path d="M108.95 182.718H108.079L106.577 177.712C106.501 177.483 106.414 177.2 106.316 176.863C106.229 176.531 106.186 176.33 106.186 176.253C106.109 176.705 105.995 177.2 105.837 177.734L104.357 182.718H103.508L101.506 175.23H102.442L103.617 179.845C103.775 180.498 103.9 181.086 103.987 181.608C104.074 180.988 104.205 180.378 104.379 179.78L105.728 175.23H106.643L108.057 179.823C108.215 180.362 108.351 180.955 108.471 181.608C108.542 181.129 108.667 180.541 108.841 179.845L110.016 175.23H110.952L108.95 182.718Z" fill="#323131"/>
<path d="M115.832 182.726V179.091C115.832 178.645 115.723 178.308 115.506 178.09C115.299 177.861 114.983 177.742 114.548 177.742C113.949 177.742 113.514 177.905 113.242 178.221C112.964 178.542 112.828 179.064 112.828 179.788V182.726H111.979V174.76H112.828V177.176C112.828 177.47 112.817 177.709 112.807 177.894H112.85C113.008 177.622 113.242 177.41 113.547 177.263C113.862 177.105 114.221 177.023 114.613 177.023C115.31 177.023 115.821 177.192 116.159 177.524C116.507 177.845 116.681 178.362 116.681 179.069V182.726H115.832Z" fill="#323131"/>
<path d="M120.79 182.827C119.962 182.827 119.309 182.577 118.831 182.066C118.352 181.56 118.112 180.858 118.112 179.954C118.112 179.056 118.33 178.338 118.765 177.799C119.211 177.266 119.816 176.994 120.572 176.994C121.279 176.994 121.84 177.228 122.248 177.691C122.651 178.159 122.857 178.768 122.857 179.519V180.063H119.005C119.016 180.732 119.179 181.239 119.484 181.587C119.799 181.924 120.251 182.087 120.833 182.087C121.426 182.087 122.019 181.957 122.618 181.696V182.457C122.313 182.588 122.03 182.686 121.769 182.74C121.508 182.795 121.181 182.827 120.79 182.827ZM120.572 177.712C120.12 177.712 119.756 177.865 119.484 178.17C119.222 178.463 119.059 178.861 119.005 179.367H121.943C121.943 178.833 121.818 178.425 121.573 178.148C121.339 177.859 121.007 177.712 120.572 177.712Z" fill="#323131"/>
<path d="M128.154 182.719V179.084C128.154 178.637 128.046 178.3 127.828 178.082C127.621 177.854 127.305 177.734 126.87 177.734C126.272 177.734 125.836 177.897 125.564 178.213C125.287 178.518 125.151 179.04 125.151 179.78V182.719H124.302V177.103H124.998L125.151 177.865H125.172C125.347 177.593 125.591 177.38 125.912 177.234C126.228 177.076 126.576 176.994 126.957 176.994C127.637 176.994 128.143 177.163 128.481 177.495C128.829 177.816 129.003 178.338 129.003 179.062V182.719H128.154Z" fill="#323131"/>
<path d="M132.574 177.109H133.488L134.729 180.309C134.99 181.049 135.154 181.582 135.23 181.898H135.273C135.317 181.724 135.404 181.43 135.534 181.006C135.676 180.587 136.149 179.286 136.949 177.109H137.842L135.447 183.509C135.197 184.129 134.914 184.575 134.598 184.836C134.277 185.108 133.886 185.25 133.423 185.25C133.162 185.25 132.906 185.217 132.661 185.163V184.466C132.846 184.51 133.059 184.532 133.292 184.532C133.869 184.532 134.283 184.205 134.533 183.552L134.838 182.747L132.574 177.109Z" fill="#323131"/>
<path d="M143.606 179.911C143.606 180.825 143.372 181.543 142.909 182.066C142.458 182.577 141.826 182.827 141.016 182.827C140.504 182.827 140.058 182.713 139.666 182.479C139.274 182.234 138.97 181.892 138.752 181.456C138.545 181.021 138.447 180.509 138.447 179.911C138.447 178.997 138.67 178.289 139.122 177.778C139.585 177.255 140.221 176.994 141.037 176.994C141.821 176.994 142.441 177.255 142.909 177.778C143.372 178.3 143.606 179.013 143.606 179.911ZM139.34 179.911C139.34 180.624 139.476 181.168 139.753 181.543C140.042 181.924 140.461 182.109 141.016 182.109C141.582 182.109 142.006 181.924 142.3 181.543C142.588 181.168 142.735 180.624 142.735 179.911C142.735 179.203 142.588 178.665 142.3 178.3C142.006 177.925 141.582 177.734 141.016 177.734C140.461 177.734 140.042 177.919 139.753 178.278C139.476 178.643 139.34 179.187 139.34 179.911Z" fill="#323131"/>
<path d="M145.896 177.109V180.744C145.896 181.212 145.994 181.561 146.2 181.789C146.418 182.007 146.745 182.116 147.18 182.116C147.773 182.116 148.203 181.958 148.464 181.637C148.736 181.321 148.878 180.799 148.878 180.07V177.109H149.727V182.725H149.03L148.921 181.963H148.856C148.682 182.241 148.442 182.458 148.138 182.616C147.833 182.758 147.485 182.834 147.093 182.834C146.396 182.834 145.879 182.676 145.547 182.355C145.21 182.023 145.047 181.501 145.047 180.788V177.109H145.896Z" fill="#323131"/>
<path d="M155.103 182.729H154.254V177.113H155.103V182.729ZM154.188 175.589C154.188 175.404 154.232 175.263 154.319 175.176C154.417 175.078 154.542 175.023 154.689 175.023C154.831 175.023 154.95 175.078 155.037 175.176C155.135 175.263 155.19 175.404 155.19 175.589C155.19 175.78 155.135 175.927 155.037 176.025C154.95 176.112 154.831 176.155 154.689 176.155C154.542 176.155 154.417 176.112 154.319 176.025C154.232 175.927 154.188 175.78 154.188 175.589Z" fill="#323131"/>
<path d="M164.068 182.719V179.062C164.068 178.616 163.97 178.278 163.785 178.061C163.595 177.843 163.296 177.734 162.893 177.734C162.371 177.734 161.979 177.887 161.718 178.191C161.467 178.485 161.348 178.948 161.348 179.584V182.719H160.499V179.062C160.499 178.616 160.395 178.278 160.194 178.061C160.003 177.843 159.704 177.734 159.301 177.734C158.779 177.734 158.387 177.897 158.126 178.213C157.876 178.534 157.756 179.056 157.756 179.78V182.719H156.907V177.103H157.604L157.756 177.865H157.778C157.936 177.604 158.159 177.397 158.453 177.234C158.757 177.076 159.089 176.994 159.454 176.994C160.325 176.994 160.896 177.315 161.173 177.952H161.217C161.375 177.663 161.614 177.429 161.935 177.255C162.251 177.081 162.615 176.994 163.023 176.994C163.66 176.994 164.134 177.163 164.438 177.495C164.754 177.816 164.917 178.338 164.917 179.062V182.719H164.068Z" fill="#323131"/>
<path d="M169.277 182.827C168.912 182.827 168.58 182.762 168.276 182.632C167.982 182.49 167.732 182.278 167.514 182H167.47C167.498 182.321 167.514 182.632 167.514 182.936V185.243H166.665V177.103H167.362L167.492 177.865H167.514C167.742 177.56 168.004 177.342 168.297 177.212C168.586 177.07 168.912 176.994 169.277 176.994C170.028 176.994 170.61 177.25 171.018 177.756C171.421 178.267 171.628 178.986 171.628 179.911C171.628 180.825 171.415 181.543 170.996 182.066C170.588 182.577 170.017 182.827 169.277 182.827ZM169.168 177.734C168.586 177.734 168.167 177.897 167.906 178.213C167.655 178.518 167.525 179.018 167.514 179.715V179.911C167.514 180.694 167.645 181.26 167.906 181.609C168.178 181.946 168.608 182.109 169.19 182.109C169.669 182.109 170.044 181.913 170.322 181.521C170.594 181.13 170.735 180.586 170.735 179.889C170.735 179.193 170.594 178.665 170.322 178.3C170.044 177.925 169.658 177.734 169.168 177.734Z" fill="#323131"/>
<path d="M175.661 176.994C175.906 176.994 176.129 177.016 176.336 177.059L176.227 177.843C175.993 177.799 175.781 177.778 175.596 177.778C175.144 177.778 174.752 177.968 174.421 178.344C174.099 178.708 173.942 179.165 173.942 179.715V182.719H173.093V177.103H173.811L173.898 178.148H173.942C174.143 177.789 174.388 177.506 174.682 177.299C174.986 177.098 175.313 176.994 175.661 176.994Z" fill="#323131"/>
<path d="M179.749 182.827C178.921 182.827 178.268 182.577 177.79 182.066C177.311 181.56 177.071 180.858 177.071 179.954C177.071 179.056 177.289 178.338 177.724 177.799C178.17 177.266 178.774 176.994 179.531 176.994C180.238 176.994 180.799 177.228 181.207 177.691C181.61 178.159 181.816 178.768 181.816 179.519V180.063H177.964C177.975 180.732 178.138 181.239 178.443 181.587C178.758 181.924 179.21 182.087 179.792 182.087C180.385 182.087 180.978 181.957 181.577 181.696V182.457C181.272 182.588 180.989 182.686 180.728 182.74C180.467 182.795 180.14 182.827 179.749 182.827ZM179.531 177.712C179.079 177.712 178.715 177.865 178.443 178.17C178.181 178.463 178.018 178.861 177.964 179.367H180.902C180.902 178.833 180.777 178.425 180.532 178.148C180.298 177.859 179.966 177.712 179.531 177.712Z" fill="#323131"/>
<path d="M186.897 181.195C186.897 181.717 186.701 182.125 186.31 182.414C185.918 182.691 185.374 182.827 184.677 182.827C183.921 182.827 183.339 182.708 182.936 182.457V181.674C183.197 181.821 183.48 181.93 183.785 182C184.1 182.077 184.405 182.109 184.699 182.109C185.134 182.109 185.466 182.044 185.7 181.913C185.945 181.772 186.07 181.554 186.07 181.26C186.07 181.043 185.972 180.858 185.787 180.694C185.597 180.537 185.227 180.357 184.677 180.15C184.155 179.949 183.785 179.775 183.567 179.628C183.349 179.486 183.181 179.323 183.066 179.149C182.963 178.964 182.914 178.735 182.914 178.474C182.914 178.028 183.094 177.669 183.458 177.408C183.834 177.136 184.351 176.994 185.004 176.994C185.613 176.994 186.201 177.119 186.767 177.364L186.484 178.061C185.918 177.832 185.401 177.712 184.938 177.712C184.53 177.712 184.225 177.778 184.024 177.908C183.817 178.028 183.719 178.202 183.719 178.431C183.719 178.578 183.752 178.708 183.828 178.822C183.915 178.926 184.035 179.029 184.198 179.127C184.372 179.214 184.704 179.345 185.2 179.519C185.863 179.769 186.315 180.014 186.549 180.259C186.778 180.509 186.897 180.82 186.897 181.195Z" fill="#323131"/>
<path d="M191.901 181.195C191.901 181.717 191.705 182.125 191.313 182.414C190.922 182.691 190.378 182.827 189.681 182.827C188.925 182.827 188.342 182.708 187.94 182.457V181.674C188.201 181.821 188.484 181.93 188.789 182C189.104 182.077 189.409 182.109 189.703 182.109C190.138 182.109 190.47 182.044 190.704 181.913C190.949 181.772 191.074 181.554 191.074 181.26C191.074 181.043 190.976 180.858 190.791 180.694C190.601 180.537 190.231 180.357 189.681 180.15C189.159 179.949 188.789 179.775 188.571 179.628C188.353 179.486 188.185 179.323 188.07 179.149C187.967 178.964 187.918 178.735 187.918 178.474C187.918 178.028 188.098 177.669 188.462 177.408C188.838 177.136 189.355 176.994 190.008 176.994C190.617 176.994 191.205 177.119 191.771 177.364L191.488 178.061C190.922 177.832 190.405 177.712 189.942 177.712C189.534 177.712 189.229 177.778 189.028 177.908C188.821 178.028 188.723 178.202 188.723 178.431C188.723 178.578 188.756 178.708 188.832 178.822C188.919 178.926 189.039 179.029 189.202 179.127C189.376 179.214 189.708 179.345 190.203 179.519C190.867 179.769 191.319 180.014 191.553 180.259C191.781 180.509 191.901 180.82 191.901 181.195Z" fill="#323131"/>
<path d="M32.8116 196.827C31.9845 196.827 31.3424 196.583 30.8961 196.087C30.4608 195.581 30.2432 194.869 30.2432 193.954C30.2432 193.013 30.4663 192.289 30.9179 191.778C31.3641 191.255 32.0117 190.994 32.8551 190.994C33.1272 190.994 33.3992 191.027 33.6604 191.081C33.9325 191.141 34.1447 191.212 34.2917 191.299L34.0305 192.017C33.8563 191.946 33.6496 191.887 33.421 191.843C33.2034 191.789 33.0075 191.756 32.8333 191.756C31.7015 191.756 31.1356 192.485 31.1356 193.933C31.1356 194.629 31.2716 195.168 31.5491 195.543C31.8212 195.908 32.2348 196.087 32.7898 196.087C33.2523 196.087 33.7312 195.989 34.2264 195.783V196.523C33.8455 196.724 33.3775 196.827 32.8116 196.827Z" fill="#323131"/>
<path d="M36.3479 191.094V194.729C36.3479 195.197 36.4458 195.545 36.6526 195.773C36.8703 195.991 37.1968 196.1 37.6321 196.1C38.2252 196.1 38.6551 195.942 38.9163 195.621C39.1884 195.305 39.3299 194.783 39.3299 194.054V191.094H40.1787V196.709H39.4822L39.3734 195.948H39.3081C39.134 196.225 38.8945 196.443 38.5898 196.601C38.2851 196.742 37.9368 196.818 37.545 196.818C36.8485 196.818 36.3316 196.66 35.9996 196.339C35.6623 196.007 35.499 195.485 35.499 194.772V191.094H36.3479Z" fill="#323131"/>
<path d="M45.617 195.195C45.617 195.717 45.4211 196.125 45.0293 196.414C44.6375 196.691 44.0934 196.827 43.3968 196.827C42.6405 196.827 42.0582 196.708 41.6556 196.457V195.674C41.9167 195.821 42.1997 195.93 42.5044 196C42.82 196.077 43.1248 196.109 43.4186 196.109C43.8539 196.109 44.1859 196.044 44.4198 195.913C44.6647 195.772 44.7899 195.554 44.7899 195.26C44.7899 195.043 44.6919 194.858 44.5069 194.694C44.3165 194.537 43.9464 194.357 43.3968 194.15C42.8745 193.949 42.5044 193.775 42.2868 193.628C42.0691 193.486 41.9004 193.323 41.7862 193.149C41.6828 192.964 41.6338 192.735 41.6338 192.474C41.6338 192.028 41.8134 191.669 42.1779 191.408C42.5534 191.136 43.0704 190.994 43.7233 190.994C44.3328 190.994 44.9205 191.119 45.4864 191.364L45.2034 192.061C44.6375 191.832 44.1206 191.712 43.658 191.712C43.2499 191.712 42.9452 191.778 42.7439 191.908C42.5371 192.028 42.4391 192.202 42.4391 192.431C42.4391 192.578 42.4718 192.708 42.548 192.822C42.635 192.926 42.7547 193.029 42.918 193.127C43.0921 193.214 43.424 193.345 43.9192 193.519C44.5831 193.769 45.0347 194.014 45.2687 194.259C45.4973 194.509 45.617 194.82 45.617 195.195Z" fill="#323131"/>
<path d="M48.8155 196.103C48.9569 196.103 49.0984 196.098 49.229 196.081C49.3705 196.054 49.4902 196.032 49.5773 196.016V196.669C49.4902 196.713 49.3487 196.745 49.1637 196.778C48.9896 196.805 48.8264 196.821 48.6849 196.821C47.5966 196.821 47.0524 196.25 47.0524 195.102V191.75H46.2471V191.358L47.0524 190.988L47.4224 189.791H47.9013V191.097H49.5338V191.75H47.9013V195.058C47.9013 195.407 47.9775 195.668 48.1407 195.842C48.2985 196.016 48.5216 196.103 48.8155 196.103Z" fill="#323131"/>
<path d="M55.5433 193.911C55.5433 194.825 55.3093 195.543 54.8468 196.066C54.3952 196.577 53.764 196.827 52.9532 196.827C52.4417 196.827 51.9955 196.713 51.6037 196.479C51.2119 196.234 50.9072 195.892 50.6895 195.456C50.4827 195.021 50.3848 194.509 50.3848 193.911C50.3848 192.997 50.6079 192.289 51.0595 191.778C51.522 191.255 52.1587 190.994 52.9749 190.994C53.7585 190.994 54.3788 191.255 54.8468 191.778C55.3093 192.3 55.5433 193.013 55.5433 193.911ZM51.2772 193.911C51.2772 194.624 51.4132 195.168 51.6907 195.543C51.9791 195.924 52.3981 196.109 52.9532 196.109C53.5191 196.109 53.9435 195.924 54.2374 195.543C54.5258 195.168 54.6727 194.624 54.6727 193.911C54.6727 193.203 54.5258 192.665 54.2374 192.3C53.9435 191.925 53.5191 191.734 52.9532 191.734C52.3981 191.734 51.9791 191.919 51.6907 192.278C51.4132 192.643 51.2772 193.187 51.2772 193.911Z" fill="#323131"/>
<path d="M64.1874 196.719V193.062C64.1874 192.616 64.0895 192.278 63.9045 192.061C63.714 191.843 63.4147 191.734 63.012 191.734C62.4897 191.734 62.0979 191.887 61.8367 192.191C61.5864 192.485 61.4666 192.948 61.4666 193.584V196.719H60.6178V193.062C60.6178 192.616 60.5144 192.278 60.313 192.061C60.1226 191.843 59.8233 191.734 59.4206 191.734C58.8983 191.734 58.5065 191.897 58.2453 192.213C57.995 192.534 57.8752 193.056 57.8752 193.78V196.719H57.0264V191.103H57.7229L57.8752 191.865H57.897C58.0548 191.604 58.2779 191.397 58.5718 191.234C58.8765 191.076 59.2084 190.994 59.573 190.994C60.4436 190.994 61.015 191.315 61.2925 191.952H61.3361C61.4939 191.663 61.7333 191.429 62.0543 191.255C62.3699 191.081 62.7345 190.994 63.1426 190.994C63.7793 190.994 64.2527 191.163 64.5574 191.495C64.873 191.816 65.0363 192.338 65.0363 193.062V196.719H64.1874Z" fill="#323131"/>
<path d="M69.1557 196.827C68.3286 196.827 67.6757 196.577 67.1968 196.066C66.7179 195.56 66.4785 194.858 66.4785 193.954C66.4785 193.056 66.6962 192.338 67.1315 191.799C67.5777 191.266 68.1817 190.994 68.9381 190.994C69.6455 190.994 70.206 191.228 70.6141 191.691C71.0167 192.159 71.2235 192.768 71.2235 193.519V194.063H67.3709C67.3818 194.732 67.5451 195.239 67.8498 195.587C68.1654 195.924 68.617 196.087 69.1993 196.087C69.7924 196.087 70.3855 195.957 70.9841 195.696V196.457C70.6794 196.588 70.3964 196.686 70.1352 196.74C69.874 196.795 69.5475 196.827 69.1557 196.827ZM68.9381 191.712C68.4864 191.712 68.1219 191.865 67.8498 192.17C67.5886 192.463 67.4253 192.861 67.3709 193.367H70.3093C70.3093 192.833 70.1842 192.425 69.9393 192.148C69.7053 191.859 69.3734 191.712 68.9381 191.712Z" fill="#323131"/>
<path d="M75.2373 190.994C75.4822 190.994 75.7053 191.016 75.9121 191.059L75.8033 191.843C75.5693 191.799 75.3571 191.778 75.172 191.778C74.7204 191.778 74.3286 191.968 73.9967 192.344C73.6756 192.708 73.5178 193.165 73.5178 193.715V196.719H72.6689V191.103H73.3872L73.4743 192.148H73.5178C73.7192 191.789 73.964 191.506 74.2579 191.299C74.5626 191.098 74.8891 190.994 75.2373 190.994Z" fill="#323131"/>
<path d="M80.5848 195.195C80.5848 195.717 80.3889 196.125 79.9971 196.414C79.6053 196.691 79.0611 196.827 78.3646 196.827C77.6082 196.827 77.026 196.708 76.6233 196.457V195.674C76.8845 195.821 77.1675 195.93 77.4722 196C77.7878 196.077 78.0925 196.109 78.3864 196.109C78.8217 196.109 79.1536 196.044 79.3876 195.913C79.6325 195.772 79.7576 195.554 79.7576 195.26C79.7576 195.043 79.6597 194.858 79.4747 194.694C79.2842 194.537 78.9142 194.357 78.3646 194.15C77.8422 193.949 77.4722 193.775 77.2545 193.628C77.0369 193.486 76.8682 193.323 76.7539 193.149C76.6505 192.964 76.6016 192.735 76.6016 192.474C76.6016 192.028 76.7811 191.669 77.1457 191.408C77.5212 191.136 78.0381 190.994 78.6911 190.994C79.3006 190.994 79.8882 191.119 80.4542 191.364L80.1712 192.061C79.6053 191.832 79.0883 191.712 78.6258 191.712C78.2177 191.712 77.913 191.778 77.7116 191.908C77.5049 192.028 77.4069 192.202 77.4069 192.431C77.4069 192.578 77.4396 192.708 77.5157 192.822C77.6028 192.926 77.7225 193.029 77.8858 193.127C78.0599 193.214 78.3918 193.345 78.887 193.519C79.5509 193.769 80.0025 194.014 80.2365 194.259C80.465 194.509 80.5848 194.82 80.5848 195.195Z" fill="#323131"/>
<path d="M82.847 195.49L82.9341 195.599C82.847 195.947 82.7164 196.35 82.5423 196.796C82.379 197.242 82.2049 197.667 82.0199 198.059H81.3887C81.4757 197.71 81.5682 197.275 81.6716 196.753C81.7859 196.23 81.873 195.811 81.9328 195.49H82.847Z" fill="#323131"/>
<path d="M89.0821 196.103C89.2236 196.103 89.365 196.098 89.4956 196.081C89.6371 196.054 89.7568 196.032 89.8439 196.016V196.669C89.7568 196.713 89.6153 196.745 89.4303 196.778C89.2562 196.805 89.093 196.821 88.9515 196.821C87.8632 196.821 87.319 196.25 87.319 195.102V191.75H86.5137V191.358L87.319 190.988L87.689 189.791H88.1679V191.097H89.8004V191.75H88.1679V195.058C88.1679 195.407 88.2441 195.668 88.4073 195.842C88.5651 196.016 88.7882 196.103 89.0821 196.103Z" fill="#323131"/>
<path d="M94.8077 196.707V193.072C94.8077 192.625 94.6988 192.288 94.4812 192.07C94.2744 191.842 93.9588 191.722 93.5235 191.722C92.9249 191.722 92.4896 191.885 92.2175 192.201C91.94 192.522 91.804 193.044 91.804 193.768V196.707H90.9551V188.74H91.804V191.156C91.804 191.45 91.7931 191.69 91.7822 191.875H91.8257C91.9835 191.602 92.2175 191.39 92.5222 191.243C92.8378 191.086 93.197 191.004 93.5888 191.004C94.2853 191.004 94.7968 191.173 95.1342 191.505C95.4824 191.826 95.6566 192.343 95.6566 193.05V196.707H94.8077Z" fill="#323131"/>
<path d="M99.769 196.827C98.9419 196.827 98.2889 196.577 97.8101 196.066C97.3312 195.56 97.0918 194.858 97.0918 193.954C97.0918 193.056 97.3095 192.338 97.7448 191.799C98.191 191.266 98.795 190.994 99.5514 190.994C100.259 190.994 100.819 191.228 101.227 191.691C101.63 192.159 101.837 192.768 101.837 193.519V194.063H97.9842C97.9951 194.732 98.1583 195.239 98.4631 195.587C98.7787 195.924 99.2303 196.087 99.8126 196.087C100.406 196.087 100.999 195.957 101.597 195.696V196.457C101.293 196.588 101.01 196.686 100.749 196.74C100.487 196.795 100.161 196.827 99.769 196.827ZM99.5514 191.712C99.0997 191.712 98.7351 191.865 98.4631 192.17C98.2019 192.463 98.0386 192.861 97.9842 193.367H100.923C100.923 192.833 100.797 192.425 100.553 192.148C100.319 191.859 99.9867 191.712 99.5514 191.712Z" fill="#323131"/>
<path d="M102.388 191.094H103.302L104.543 194.293C104.804 195.033 104.967 195.567 105.043 195.882H105.087C105.13 195.708 105.217 195.414 105.348 194.99C105.489 194.571 105.963 193.27 106.763 191.094H107.655L105.261 197.493C105.011 198.113 104.728 198.56 104.412 198.821C104.091 199.093 103.699 199.234 103.237 199.234C102.975 199.234 102.72 199.202 102.475 199.147V198.451C102.66 198.494 102.872 198.516 103.106 198.516C103.683 198.516 104.096 198.189 104.347 197.537L104.651 196.731L102.388 191.094Z" fill="#323131"/>
<path d="M112.141 193.833C112.282 193.632 112.511 193.355 112.816 193.006L114.622 191.091H115.645L113.36 193.485L115.798 196.707H114.775L112.772 194.051L112.141 194.617V196.707H111.292V188.74H112.141V192.963C112.141 193.153 112.125 193.442 112.097 193.833H112.141Z" fill="#323131"/>
<path d="M119.171 196.827C118.344 196.827 117.691 196.577 117.212 196.066C116.734 195.56 116.494 194.858 116.494 193.954C116.494 193.056 116.712 192.338 117.147 191.799C117.593 191.266 118.197 190.994 118.954 190.994C119.661 190.994 120.222 191.228 120.63 191.691C121.032 192.159 121.239 192.768 121.239 193.519V194.063H117.387C117.397 194.732 117.561 195.239 117.865 195.587C118.181 195.924 118.633 196.087 119.215 196.087C119.808 196.087 120.401 195.957 121 195.696V196.457C120.695 196.588 120.412 196.686 120.151 196.74C119.89 196.795 119.563 196.827 119.171 196.827ZM118.954 191.712C118.502 191.712 118.137 191.865 117.865 192.17C117.604 192.463 117.441 192.861 117.387 193.367H120.325C120.325 192.833 120.2 192.425 119.955 192.148C119.721 191.859 119.389 191.712 118.954 191.712Z" fill="#323131"/>
<path d="M125.056 196.827C124.229 196.827 123.576 196.577 123.097 196.066C122.618 195.56 122.379 194.858 122.379 193.954C122.379 193.056 122.597 192.338 123.032 191.799C123.478 191.266 124.082 190.994 124.838 190.994C125.546 190.994 126.106 191.228 126.514 191.691C126.917 192.159 127.124 192.768 127.124 193.519V194.063H123.271C123.282 194.732 123.445 195.239 123.75 195.587C124.066 195.924 124.517 196.087 125.1 196.087C125.693 196.087 126.286 195.957 126.884 195.696V196.457C126.58 196.588 126.297 196.686 126.036 196.74C125.774 196.795 125.448 196.827 125.056 196.827ZM124.838 191.712C124.387 191.712 124.022 191.865 123.75 192.17C123.489 192.463 123.326 192.861 123.271 193.367H126.21C126.21 192.833 126.085 192.425 125.84 192.148C125.606 191.859 125.274 191.712 124.838 191.712Z" fill="#323131"/>
<path d="M131.18 196.827C130.816 196.827 130.484 196.762 130.179 196.632C129.885 196.49 129.635 196.278 129.417 196H129.374C129.401 196.321 129.417 196.632 129.417 196.936V199.243H128.568V191.103H129.265L129.395 191.865H129.417C129.646 191.56 129.907 191.342 130.201 191.212C130.489 191.07 130.816 190.994 131.18 190.994C131.931 190.994 132.513 191.25 132.922 191.756C133.324 192.267 133.531 192.986 133.531 193.911C133.531 194.825 133.319 195.543 132.9 196.066C132.492 196.577 131.92 196.827 131.18 196.827ZM131.071 191.734C130.489 191.734 130.07 191.897 129.809 192.213C129.559 192.518 129.428 193.018 129.417 193.715V193.911C129.417 194.694 129.548 195.26 129.809 195.609C130.081 195.946 130.511 196.109 131.093 196.109C131.572 196.109 131.948 195.913 132.225 195.521C132.497 195.13 132.639 194.586 132.639 193.889C132.639 193.193 132.497 192.665 132.225 192.3C131.948 191.925 131.561 191.734 131.071 191.734Z" fill="#323131"/>
<path d="M139.985 196.827C139.158 196.827 138.516 196.583 138.07 196.087C137.635 195.581 137.417 194.869 137.417 193.954C137.417 193.013 137.64 192.289 138.092 191.778C138.538 191.255 139.185 190.994 140.029 190.994C140.301 190.994 140.573 191.027 140.834 191.081C141.106 191.141 141.319 191.212 141.465 191.299L141.204 192.017C141.03 191.946 140.823 191.887 140.595 191.843C140.377 191.789 140.181 191.756 140.007 191.756C138.875 191.756 138.309 192.485 138.309 193.933C138.309 194.629 138.445 195.168 138.723 195.543C138.995 195.908 139.409 196.087 139.964 196.087C140.426 196.087 140.905 195.989 141.4 195.783V196.523C141.019 196.724 140.551 196.827 139.985 196.827Z" fill="#323131"/>
<path d="M147.569 193.911C147.569 194.825 147.335 195.543 146.872 196.066C146.421 196.577 145.789 196.827 144.979 196.827C144.467 196.827 144.021 196.713 143.629 196.479C143.237 196.234 142.933 195.892 142.715 195.456C142.508 195.021 142.41 194.509 142.41 193.911C142.41 192.997 142.633 192.289 143.085 191.778C143.547 191.255 144.184 190.994 145 190.994C145.784 190.994 146.404 191.255 146.872 191.778C147.335 192.3 147.569 193.013 147.569 193.911ZM143.303 193.911C143.303 194.624 143.439 195.168 143.716 195.543C144.005 195.924 144.424 196.109 144.979 196.109C145.544 196.109 145.969 195.924 146.263 195.543C146.551 195.168 146.698 194.624 146.698 193.911C146.698 193.203 146.551 192.665 146.263 192.3C145.969 191.925 145.544 191.734 144.979 191.734C144.424 191.734 144.005 191.919 143.716 192.278C143.439 192.643 143.303 193.187 143.303 193.911Z" fill="#323131"/>
<path d="M156.214 196.719V193.062C156.214 192.616 156.116 192.278 155.931 192.061C155.74 191.843 155.441 191.734 155.038 191.734C154.516 191.734 154.124 191.887 153.863 192.191C153.613 192.485 153.493 192.948 153.493 193.584V196.719H152.644V193.062C152.644 192.616 152.541 192.278 152.339 192.061C152.149 191.843 151.85 191.734 151.447 191.734C150.925 191.734 150.533 191.897 150.272 192.213C150.021 192.534 149.902 193.056 149.902 193.78V196.719H149.053V191.103H149.749L149.902 191.865H149.923C150.081 191.604 150.304 191.397 150.598 191.234C150.903 191.076 151.235 190.994 151.599 190.994C152.47 190.994 153.041 191.315 153.319 191.952H153.362C153.52 191.663 153.76 191.429 154.081 191.255C154.396 191.081 154.761 190.994 155.169 190.994C155.806 190.994 156.279 191.163 156.584 191.495C156.899 191.816 157.063 192.338 157.063 193.062V196.719H156.214Z" fill="#323131"/>
<path d="M159.659 196.713H158.81V191.097H159.659V196.713ZM158.745 189.574C158.745 189.389 158.789 189.247 158.876 189.16C158.974 189.062 159.099 189.008 159.246 189.008C159.387 189.008 159.507 189.062 159.594 189.16C159.692 189.247 159.746 189.389 159.746 189.574C159.746 189.764 159.692 189.911 159.594 190.009C159.507 190.096 159.387 190.14 159.246 190.14C159.099 190.14 158.974 190.096 158.876 190.009C158.789 189.911 158.745 189.764 158.745 189.574Z" fill="#323131"/>
<path d="M165.316 196.719V193.084C165.316 192.637 165.208 192.3 164.99 192.082C164.783 191.854 164.468 191.734 164.032 191.734C163.434 191.734 162.998 191.897 162.726 192.213C162.449 192.518 162.313 193.04 162.313 193.78V196.719H161.464V191.103H162.16L162.313 191.865H162.335C162.509 191.593 162.754 191.38 163.075 191.234C163.39 191.076 163.738 190.994 164.119 190.994C164.8 190.994 165.306 191.163 165.643 191.495C165.991 191.816 166.165 192.338 166.165 193.062V196.719H165.316Z" fill="#323131"/>
<path d="M172.516 191.103V191.647L171.471 191.756C171.558 191.887 171.634 192.05 171.711 192.235C171.798 192.425 171.841 192.643 171.841 192.888C171.841 193.443 171.651 193.884 171.275 194.216C170.894 194.537 170.383 194.694 169.73 194.694C169.556 194.694 169.393 194.683 169.251 194.651C168.887 194.841 168.707 195.081 168.707 195.369C168.707 195.532 168.772 195.647 168.903 195.717C169.033 195.794 169.251 195.826 169.556 195.826H170.535C171.145 195.826 171.607 195.957 171.928 196.218C172.26 196.468 172.429 196.833 172.429 197.328C172.429 197.948 172.179 198.422 171.689 198.743C171.194 199.075 170.47 199.243 169.512 199.243C168.772 199.243 168.195 199.102 167.793 198.83C167.401 198.552 167.205 198.166 167.205 197.676C167.205 197.328 167.314 197.029 167.532 196.784C167.749 196.539 168.059 196.37 168.468 196.283C168.321 196.213 168.195 196.109 168.097 195.979C167.994 195.837 167.945 195.674 167.945 195.5C167.945 195.298 167.994 195.124 168.097 194.977C168.212 194.82 168.391 194.667 168.642 194.52C168.348 194.406 168.108 194.205 167.923 193.911C167.733 193.622 167.64 193.296 167.64 192.931C167.64 192.311 167.82 191.832 168.185 191.495C168.56 191.163 169.088 190.994 169.773 190.994C170.062 190.994 170.323 191.032 170.557 191.103H172.516ZM168.032 197.655C168.032 197.959 168.152 198.188 168.402 198.351C168.663 198.509 169.033 198.591 169.512 198.591C170.22 198.591 170.753 198.482 171.101 198.264C171.449 198.046 171.624 197.753 171.624 197.393C171.624 197.089 171.526 196.876 171.341 196.762C171.15 196.648 170.796 196.588 170.274 196.588H169.251C168.859 196.588 168.555 196.686 168.337 196.871C168.13 197.056 168.032 197.317 168.032 197.655ZM168.489 192.91C168.489 193.301 168.598 193.601 168.816 193.802C169.044 193.992 169.36 194.085 169.752 194.085C170.579 194.085 170.992 193.688 170.992 192.888C170.992 192.05 170.568 191.625 169.73 191.625C169.338 191.625 169.033 191.734 168.816 191.952C168.598 192.159 168.489 192.474 168.489 192.91Z" fill="#323131"/>
<path d="M178.987 191.004C179.727 191.004 180.298 191.26 180.706 191.766C181.125 192.261 181.338 192.974 181.338 193.899C181.338 194.813 181.125 195.531 180.706 196.054C180.298 196.565 179.727 196.815 178.987 196.815C178.622 196.815 178.29 196.75 177.986 196.62C177.692 196.478 177.442 196.266 177.224 195.988H177.18L176.984 196.707H176.375V188.74H177.224V190.677C177.224 191.113 177.213 191.499 177.202 191.831H177.224C177.627 191.281 178.214 191.004 178.987 191.004ZM178.878 191.722C178.296 191.722 177.877 191.891 177.616 192.223C177.354 192.544 177.224 193.104 177.224 193.899C177.224 194.682 177.354 195.248 177.616 195.597C177.888 195.934 178.318 196.097 178.9 196.097C179.422 196.097 179.803 195.912 180.053 195.531C180.315 195.156 180.445 194.606 180.445 193.877C180.445 193.153 180.315 192.615 180.053 192.266C179.803 191.907 179.411 191.722 178.878 191.722Z" fill="#323131"/>
<path d="M186.264 196.707L186.09 195.901H186.046C185.769 196.266 185.491 196.511 185.219 196.641C184.942 196.756 184.593 196.815 184.174 196.815C183.619 196.815 183.184 196.674 182.869 196.38C182.547 196.092 182.39 195.684 182.39 195.161C182.39 194.029 183.293 193.436 185.11 193.376L186.068 193.333V192.985C186.068 192.549 185.97 192.234 185.785 192.027C185.595 191.809 185.29 191.7 184.871 191.7C184.403 191.7 183.875 191.847 183.282 192.136L183.021 191.483C183.293 191.341 183.598 191.222 183.935 191.135C184.267 191.047 184.593 191.004 184.915 191.004C185.595 191.004 186.095 191.156 186.416 191.461C186.732 191.755 186.895 192.223 186.895 192.876V196.707H186.264ZM184.349 196.097C184.871 196.097 185.285 195.956 185.589 195.662C185.894 195.373 186.046 194.965 186.046 194.443V193.942L185.197 193.986C184.512 194.002 184.022 194.106 183.717 194.291C183.424 194.481 183.282 194.769 183.282 195.161C183.282 195.466 183.375 195.7 183.565 195.858C183.75 196.021 184.011 196.097 184.349 196.097Z" fill="#323131"/>
<path d="M190.902 196.827C190.075 196.827 189.433 196.583 188.987 196.087C188.552 195.581 188.334 194.869 188.334 193.954C188.334 193.013 188.557 192.289 189.009 191.778C189.455 191.255 190.102 190.994 190.946 190.994C191.218 190.994 191.49 191.027 191.751 191.081C192.023 191.141 192.236 191.212 192.382 191.299L192.121 192.017C191.947 191.946 191.74 191.887 191.512 191.843C191.294 191.789 191.098 191.756 190.924 191.756C189.792 191.756 189.226 192.485 189.226 193.933C189.226 194.629 189.362 195.168 189.64 195.543C189.912 195.908 190.326 196.087 190.881 196.087C191.343 196.087 191.822 195.989 192.317 195.783V196.523C191.936 196.724 191.468 196.827 190.902 196.827Z" fill="#323131"/>
<path d="M194.481 193.833C194.622 193.632 194.851 193.355 195.155 193.006L196.962 191.091H197.985L195.7 193.485L198.137 196.707H197.114L195.112 194.051L194.481 194.617V196.707H193.632V188.74H194.481V192.963C194.481 193.153 194.464 193.442 194.437 193.833H194.481Z" fill="#323131"/>
<path d="M199.029 196.169C199.029 195.941 199.078 195.766 199.182 195.647C199.28 195.533 199.432 195.473 199.639 195.473C199.824 195.473 199.971 195.533 200.074 195.647C200.188 195.766 200.248 195.941 200.248 196.169C200.248 196.387 200.188 196.561 200.074 196.692C199.971 196.806 199.824 196.866 199.639 196.866C199.465 196.866 199.318 196.811 199.203 196.713C199.084 196.599 199.029 196.419 199.029 196.169Z" fill="#323131"/>
<path d="M43.7456 122.336C42.6425 122.336 41.6151 122.156 40.6637 121.798C39.726 121.426 38.9055 120.909 38.2022 120.247C37.5128 119.571 36.975 118.778 36.5889 117.868C36.2028 116.958 36.0097 115.965 36.0097 114.889C36.0097 113.814 36.2028 112.821 36.5889 111.911C36.975 111.001 37.5197 110.215 38.2229 109.553C38.9262 108.877 39.7467 108.36 40.6843 108.002C41.622 107.629 42.6493 107.443 43.7663 107.443C44.9522 107.443 46.0347 107.65 47.0137 108.064C47.9928 108.464 48.8201 109.063 49.4958 109.863L47.7583 111.497C47.2343 110.932 46.6483 110.511 46.0002 110.235C45.3521 109.946 44.6488 109.801 43.8904 109.801C43.132 109.801 42.4356 109.925 41.8013 110.173C41.1808 110.422 40.6361 110.773 40.1672 111.228C39.7122 111.683 39.3537 112.221 39.0917 112.842C38.8435 113.462 38.7193 114.145 38.7193 114.889C38.7193 115.634 38.8435 116.317 39.0917 116.937C39.3537 117.558 39.7122 118.095 40.1672 118.551C40.6361 119.006 41.1808 119.357 41.8013 119.605C42.4356 119.854 43.132 119.978 43.8904 119.978C44.6488 119.978 45.3521 119.84 46.0002 119.564C46.6483 119.274 47.2343 118.84 47.7583 118.261L49.4958 119.916C48.8201 120.702 47.9928 121.302 47.0137 121.715C46.0347 122.129 44.9453 122.336 43.7456 122.336ZM56.3641 122.274C55.2334 122.274 54.2267 122.032 53.3442 121.55C52.4617 121.053 51.7653 120.378 51.2551 119.523C50.7449 118.668 50.4898 117.696 50.4898 116.606C50.4898 115.503 50.7449 114.531 51.2551 113.69C51.7653 112.835 52.4617 112.166 53.3442 111.683C54.2267 111.201 55.2334 110.959 56.3641 110.959C57.5086 110.959 58.5222 111.201 59.4047 111.683C60.301 112.166 60.9974 112.828 61.4938 113.669C62.004 114.51 62.2591 115.489 62.2591 116.606C62.2591 117.696 62.004 118.668 61.4938 119.523C60.9974 120.378 60.301 121.053 59.4047 121.55C58.5222 122.032 57.5086 122.274 56.3641 122.274ZM56.3641 120.06C56.9984 120.06 57.5638 119.923 58.0602 119.647C58.5566 119.371 58.9427 118.971 59.2185 118.447C59.5081 117.923 59.6529 117.309 59.6529 116.606C59.6529 115.889 59.5081 115.276 59.2185 114.765C58.9427 114.241 58.5566 113.841 58.0602 113.566C57.5638 113.29 57.0053 113.152 56.3848 113.152C55.7505 113.152 55.1851 113.29 54.6887 113.566C54.2061 113.841 53.82 114.241 53.5304 114.765C53.2408 115.276 53.096 115.889 53.096 116.606C53.096 117.309 53.2408 117.923 53.5304 118.447C53.82 118.971 54.2061 119.371 54.6887 119.647C55.1851 119.923 55.7436 120.06 56.3641 120.06ZM70.9988 110.959C71.8814 110.959 72.6674 111.132 73.3568 111.477C74.0601 111.821 74.6117 112.352 75.0116 113.069C75.4115 113.772 75.6114 114.683 75.6114 115.8V122.129H73.0259V116.13C73.0259 115.151 72.7915 114.421 72.3226 113.938C71.8676 113.455 71.2264 113.214 70.399 113.214C69.7923 113.214 69.2545 113.338 68.7856 113.586C68.3168 113.835 67.9514 114.207 67.6894 114.703C67.4412 115.186 67.3171 115.8 67.3171 116.544V122.129H64.7315V111.084H67.1929V114.062L66.7586 113.152C67.1447 112.449 67.7032 111.911 68.434 111.539C69.1786 111.152 70.0336 110.959 70.9988 110.959ZM82.3042 122.274C81.3803 122.274 80.4909 122.156 79.636 121.922C78.7948 121.674 78.126 121.377 77.6296 121.033L78.6224 119.068C79.1188 119.385 79.7118 119.647 80.4013 119.854C81.0907 120.06 81.7802 120.164 82.4697 120.164C83.2833 120.164 83.8693 120.054 84.2278 119.833C84.6002 119.612 84.7863 119.316 84.7863 118.944C84.7863 118.64 84.6622 118.413 84.414 118.261C84.1658 118.095 83.8417 117.971 83.4418 117.889C83.042 117.806 82.5938 117.73 82.0974 117.661C81.6147 117.592 81.1252 117.503 80.6288 117.392C80.1462 117.268 79.7049 117.096 79.305 116.875C78.9051 116.641 78.5811 116.33 78.3328 115.944C78.0846 115.558 77.9605 115.048 77.9605 114.414C77.9605 113.71 78.1605 113.104 78.5604 112.593C78.9603 112.069 79.5187 111.67 80.2358 111.394C80.9666 111.104 81.8285 110.959 82.8213 110.959C83.566 110.959 84.3175 111.042 85.0759 111.208C85.8343 111.373 86.4617 111.608 86.9582 111.911L85.9653 113.876C85.4413 113.559 84.9104 113.345 84.3726 113.235C83.8486 113.111 83.3246 113.049 82.8006 113.049C82.0146 113.049 81.4286 113.166 81.0425 113.4C80.6702 113.635 80.484 113.931 80.484 114.29C80.484 114.621 80.6081 114.869 80.8563 115.034C81.1045 115.2 81.4286 115.331 81.8285 115.427C82.2284 115.524 82.6696 115.606 83.1523 115.675C83.6487 115.731 84.1382 115.82 84.6209 115.944C85.1035 116.068 85.5447 116.241 85.9446 116.461C86.3583 116.668 86.6893 116.965 86.9375 117.351C87.1857 117.737 87.3098 118.24 87.3098 118.861C87.3098 119.55 87.103 120.15 86.6893 120.66C86.2894 121.171 85.7171 121.57 84.9725 121.86C84.2279 122.136 83.3384 122.274 82.3042 122.274ZM94.5006 122.274C93.3699 122.274 92.3633 122.032 91.4807 121.55C90.5982 121.053 89.9018 120.378 89.3916 119.523C88.8814 118.668 88.6263 117.696 88.6263 116.606C88.6263 115.503 88.8814 114.531 89.3916 113.69C89.9018 112.835 90.5982 112.166 91.4807 111.683C92.3633 111.201 93.3699 110.959 94.5006 110.959C95.6452 110.959 96.6587 111.201 97.5412 111.683C98.4375 112.166 99.1339 112.828 99.6303 113.669C100.141 114.51 100.396 115.489 100.396 116.606C100.396 117.696 100.141 118.668 99.6303 119.523C99.1339 120.378 98.4375 121.053 97.5412 121.55C96.6587 122.032 95.6452 122.274 94.5006 122.274ZM94.5006 120.06C95.135 120.06 95.7003 119.923 96.1967 119.647C96.6932 119.371 97.0793 118.971 97.3551 118.447C97.6446 117.923 97.7894 117.309 97.7894 116.606C97.7894 115.889 97.6446 115.276 97.3551 114.765C97.0793 114.241 96.6932 113.841 96.1967 113.566C95.7003 113.29 95.1418 113.152 94.5213 113.152C93.887 113.152 93.3216 113.29 92.8252 113.566C92.3426 113.841 91.9565 114.241 91.6669 114.765C91.3773 115.276 91.2325 115.889 91.2325 116.606C91.2325 117.309 91.3773 117.923 91.6669 118.447C91.9565 118.971 92.3426 119.371 92.8252 119.647C93.3216 119.923 93.8801 120.06 94.5006 120.06ZM102.868 122.129V106.781H105.454V122.129H102.868ZM108.847 122.129V111.084H111.433V122.129H108.847ZM110.15 109.263C109.668 109.263 109.268 109.112 108.95 108.808C108.647 108.505 108.495 108.139 108.495 107.712C108.495 107.271 108.647 106.905 108.95 106.616C109.268 106.312 109.668 106.161 110.15 106.161C110.633 106.161 111.026 106.305 111.329 106.595C111.646 106.871 111.805 107.222 111.805 107.65C111.805 108.105 111.653 108.491 111.35 108.808C111.046 109.112 110.647 109.263 110.15 109.263ZM119.501 122.274C118.439 122.274 117.481 122.039 116.626 121.57C115.784 121.088 115.123 120.426 114.64 119.585C114.157 118.744 113.916 117.751 113.916 116.606C113.916 115.462 114.157 114.469 114.64 113.628C115.123 112.787 115.784 112.132 116.626 111.663C117.481 111.194 118.439 110.959 119.501 110.959C120.425 110.959 121.252 111.166 121.983 111.58C122.714 111.98 123.293 112.593 123.72 113.421C124.148 114.248 124.362 115.31 124.362 116.606C124.362 117.889 124.155 118.95 123.741 119.792C123.327 120.619 122.755 121.239 122.024 121.653C121.293 122.067 120.452 122.274 119.501 122.274ZM119.811 120.06C120.432 120.06 120.983 119.923 121.466 119.647C121.962 119.371 122.355 118.971 122.645 118.447C122.948 117.923 123.1 117.309 123.1 116.606C123.1 115.889 122.948 115.276 122.645 114.765C122.355 114.241 121.962 113.841 121.466 113.566C120.983 113.29 120.432 113.152 119.811 113.152C119.19 113.152 118.632 113.29 118.136 113.566C117.653 113.841 117.26 114.241 116.957 114.765C116.667 115.276 116.522 115.889 116.522 116.606C116.522 117.309 116.667 117.923 116.957 118.447C117.26 118.971 117.653 119.371 118.136 119.647C118.632 119.923 119.19 120.06 119.811 120.06ZM123.162 122.129V119.523L123.265 116.586L123.058 113.648V106.781H125.623V122.129H123.162ZM135.831 122.129V119.895L135.687 119.419V115.51C135.687 114.752 135.459 114.165 135.004 113.752C134.549 113.324 133.86 113.111 132.936 113.111C132.315 113.111 131.701 113.207 131.095 113.4C130.502 113.593 129.998 113.862 129.585 114.207L128.571 112.325C129.164 111.87 129.867 111.532 130.681 111.311C131.508 111.077 132.363 110.959 133.246 110.959C134.845 110.959 136.08 111.346 136.948 112.118C137.831 112.876 138.272 114.055 138.272 115.655V122.129H135.831ZM132.356 122.274C131.529 122.274 130.805 122.136 130.185 121.86C129.564 121.57 129.081 121.177 128.737 120.681C128.406 120.171 128.24 119.599 128.24 118.964C128.24 118.344 128.385 117.785 128.675 117.289C128.978 116.792 129.468 116.399 130.143 116.11C130.819 115.82 131.715 115.675 132.832 115.675H136.038V117.392H133.018C132.136 117.392 131.543 117.537 131.24 117.827C130.936 118.102 130.784 118.447 130.784 118.861C130.784 119.33 130.971 119.702 131.343 119.978C131.715 120.254 132.232 120.391 132.894 120.391C133.529 120.391 134.094 120.247 134.59 119.957C135.101 119.667 135.466 119.24 135.687 118.675L136.121 120.226C135.873 120.874 135.425 121.377 134.777 121.736C134.142 122.094 133.336 122.274 132.356 122.274ZM145.748 122.274C144.534 122.274 143.597 121.963 142.935 121.343C142.273 120.709 141.942 119.778 141.942 118.551V108.643H144.528V118.488C144.528 119.012 144.659 119.419 144.921 119.709C145.196 119.998 145.576 120.143 146.058 120.143C146.637 120.143 147.12 119.992 147.506 119.688L148.23 121.529C147.927 121.777 147.554 121.963 147.113 122.088C146.672 122.212 146.217 122.274 145.748 122.274ZM140.122 113.235V111.166H147.485V113.235H140.122ZM150.357 122.129V111.084H152.942V122.129H150.357ZM151.66 109.263C151.177 109.263 150.777 109.112 150.46 108.808C150.157 108.505 150.005 108.139 150.005 107.712C150.005 107.271 150.157 106.905 150.46 106.616C150.777 106.312 151.177 106.161 151.66 106.161C152.143 106.161 152.536 106.305 152.839 106.595C153.156 106.871 153.315 107.222 153.315 107.65C153.315 108.105 153.163 108.491 152.86 108.808C152.556 109.112 152.156 109.263 151.66 109.263ZM161.3 122.274C160.169 122.274 159.163 122.032 158.28 121.55C157.398 121.053 156.701 120.378 156.191 119.523C155.681 118.668 155.426 117.696 155.426 116.606C155.426 115.503 155.681 114.531 156.191 113.69C156.701 112.835 157.398 112.166 158.28 111.683C159.163 111.201 160.169 110.959 161.3 110.959C162.445 110.959 163.458 111.201 164.341 111.683C165.237 112.166 165.933 112.828 166.43 113.669C166.94 114.51 167.195 115.489 167.195 116.606C167.195 117.696 166.94 118.668 166.43 119.523C165.933 120.378 165.237 121.053 164.341 121.55C163.458 122.032 162.445 122.274 161.3 122.274ZM161.3 120.06C161.934 120.06 162.5 119.923 162.996 119.647C163.493 119.371 163.879 118.971 164.155 118.447C164.444 117.923 164.589 117.309 164.589 116.606C164.589 115.889 164.444 115.276 164.155 114.765C163.879 114.241 163.493 113.841 162.996 113.566C162.5 113.29 161.941 113.152 161.321 113.152C160.687 113.152 160.121 113.29 159.625 113.566C159.142 113.841 158.756 114.241 158.466 114.765C158.177 115.276 158.032 115.889 158.032 116.606C158.032 117.309 158.177 117.923 158.466 118.447C158.756 118.971 159.142 119.371 159.625 119.647C160.121 119.923 160.68 120.06 161.3 120.06ZM175.935 110.959C176.817 110.959 177.603 111.132 178.293 111.477C178.996 111.821 179.548 112.352 179.948 113.069C180.347 113.772 180.547 114.683 180.547 115.8V122.129H177.962V116.13C177.962 115.151 177.727 114.421 177.259 113.938C176.804 113.455 176.162 113.214 175.335 113.214C174.728 113.214 174.19 113.338 173.722 113.586C173.253 113.835 172.887 114.207 172.625 114.703C172.377 115.186 172.253 115.8 172.253 116.544V122.129H169.668V111.084H172.129V114.062L171.695 113.152C172.081 112.449 172.639 111.911 173.37 111.539C174.115 111.152 174.97 110.959 175.935 110.959Z" fill="black"/>
</svg>
