<svg xmlns="http://www.w3.org/2000/svg" width="388.251" height="489.818" viewBox="0 0 388.251 489.818">
  <g id="consolidation" transform="translate(-240.511 -2015.763)">
    <g id="Group_403" data-name="Group 403" transform="translate(-1185.885 -363.737)">
      <path id="Polygon_5" data-name="Polygon 5" d="M293.4,0l97.8,169.553L293.4,339.105H97.8L0,169.553,97.8,0Z" transform="translate(1790.074 2478.119) rotate(90)" fill="#aa0021"/>
      <g id="Polygon_4" data-name="Polygon 4" transform="translate(1814.646 2379.5) rotate(90)" fill="#fff">
        <path d="M 335.8674011230469 387.7509155273438 L 112.3407287597656 387.7509155273438 L 0.5773364901542664 194.1254577636719 L 112.3407821655273 0.5000132918357849 L 335.8674011230469 0.5000132918357849 L 447.6307983398438 194.1254577636719 L 335.8674011230469 387.7509155273438 Z" stroke="none"/>
        <path d="M 112.6294555664062 1 L 1.15460205078125 194.1254577636719 L 112.62939453125 387.2509155273438 L 335.5787353515625 387.2509155273438 L 447.0535278320312 194.1254577636719 L 335.5787353515625 1 L 112.6294555664062 1 M 112.0520629882812 0 L 336.1561279296875 0 L 448.2081298828125 194.1254577636719 L 336.1561279296875 388.2509155273438 L 112.052001953125 388.2509155273438 L 0 194.1254577636719 L 112.0520629882812 0 Z" stroke="none" fill="#707070"/>
      </g>
    </g>
    <g id="Group_408" data-name="Group 408" transform="translate(-311)">
      <path id="Path_467" data-name="Path 467" d="M124.686,21.22a8.978,8.978,0,0,1-3.267-.583,7.792,7.792,0,0,1-2.618-1.65,7.529,7.529,0,0,1-1.727-2.519,8.028,8.028,0,0,1-.616-3.168,8.028,8.028,0,0,1,.616-3.168,7.453,7.453,0,0,1,1.738-2.519,7.939,7.939,0,0,1,2.618-1.65,9.511,9.511,0,0,1,6.732.066,6.84,6.84,0,0,1,2.64,1.925l-1.848,1.738a5.411,5.411,0,0,0-4.114-1.8,5.961,5.961,0,0,0-2.211.4,5.079,5.079,0,0,0-2.882,2.838,5.675,5.675,0,0,0-.407,2.178,5.675,5.675,0,0,0,.407,2.178,5.079,5.079,0,0,0,2.882,2.838,5.961,5.961,0,0,0,2.211.4,5.551,5.551,0,0,0,2.244-.451,5.464,5.464,0,0,0,1.87-1.375l1.848,1.76a7.045,7.045,0,0,1-2.64,1.914A8.846,8.846,0,0,1,124.686,21.22Zm13.442-.066a6.761,6.761,0,0,1-3.212-.792,5.781,5.781,0,0,1-2.222-2.123,5.92,5.92,0,0,1-.814-3.113,5.8,5.8,0,0,1,3.047-5.236,6.522,6.522,0,0,1,3.2-.77,6.631,6.631,0,0,1,3.234.77A5.807,5.807,0,0,1,143.584,12a5.9,5.9,0,0,1,.814,3.124,6,6,0,0,1-.8,3.1,5.637,5.637,0,0,1-2.233,2.134A6.894,6.894,0,0,1,138.128,21.154Zm0-2.354a3.652,3.652,0,0,0,1.8-.44,3.112,3.112,0,0,0,1.243-1.276,4.312,4.312,0,0,0,0-3.927,3.129,3.129,0,0,0-1.243-1.265,3.652,3.652,0,0,0-1.8-.44,3.545,3.545,0,0,0-1.771.44,3.223,3.223,0,0,0-1.243,1.265,3.969,3.969,0,0,0-.462,1.969,3.984,3.984,0,0,0,.462,1.958,3.283,3.283,0,0,0,1.243,1.287A3.324,3.324,0,0,0,138.128,18.8ZM153.7,9.12a5.6,5.6,0,0,1,2.519.55,4.031,4.031,0,0,1,1.749,1.683,5.9,5.9,0,0,1,.638,2.915V21h-2.75V14.62a3.26,3.26,0,0,0-.737-2.332,2.712,2.712,0,0,0-2.057-.77,3.612,3.612,0,0,0-1.716.4,2.714,2.714,0,0,0-1.155,1.177,4.238,4.238,0,0,0-.407,1.969V21h-2.75V9.252h2.618V12.42l-.462-.968a4.164,4.164,0,0,1,1.793-1.727A5.862,5.862,0,0,1,153.7,9.12Zm12.034,12.034a10.28,10.28,0,0,1-2.827-.385,7.273,7.273,0,0,1-2.145-.935l1.056-2.09a7.51,7.51,0,0,0,1.892.836,7.622,7.622,0,0,0,2.2.33,3.791,3.791,0,0,0,1.881-.352,1.067,1.067,0,0,0,.583-.946.821.821,0,0,0-.4-.737,3.08,3.08,0,0,0-1.034-.385q-.638-.132-1.419-.242t-1.562-.3a5.391,5.391,0,0,1-1.419-.55,2.939,2.939,0,0,1-1.034-.979,2.973,2.973,0,0,1-.4-1.628,3.09,3.09,0,0,1,.638-1.947,4.073,4.073,0,0,1,1.793-1.276,7.52,7.52,0,0,1,2.739-.451,11.224,11.224,0,0,1,2.4.264,6.49,6.49,0,0,1,2,.748l-1.056,2.09a5.569,5.569,0,0,0-1.683-.693,7.788,7.788,0,0,0-1.683-.187,3.619,3.619,0,0,0-1.859.374,1.1,1.1,0,0,0-.6.946.888.888,0,0,0,.4.792,3.23,3.23,0,0,0,1.034.418,13.091,13.091,0,0,0,1.419.253,12.568,12.568,0,0,1,1.551.3,6.541,6.541,0,0,1,1.419.539,2.733,2.733,0,0,1,1.045.957,2.927,2.927,0,0,1,.4,1.606,2.979,2.979,0,0,1-.649,1.914,4.178,4.178,0,0,1-1.837,1.265A8,8,0,0,1,165.738,21.154Zm12.98,0a6.761,6.761,0,0,1-3.212-.792,5.781,5.781,0,0,1-2.222-2.123,5.92,5.92,0,0,1-.814-3.113,5.8,5.8,0,0,1,3.047-5.236,6.522,6.522,0,0,1,3.2-.77,6.631,6.631,0,0,1,3.234.77A5.807,5.807,0,0,1,184.174,12a5.9,5.9,0,0,1,.814,3.124,6,6,0,0,1-.8,3.1,5.637,5.637,0,0,1-2.233,2.134A6.894,6.894,0,0,1,178.718,21.154Zm0-2.354a3.652,3.652,0,0,0,1.8-.44,3.112,3.112,0,0,0,1.243-1.276,4.312,4.312,0,0,0,0-3.927,3.129,3.129,0,0,0-1.243-1.265,3.652,3.652,0,0,0-1.8-.44,3.545,3.545,0,0,0-1.771.44,3.223,3.223,0,0,0-1.243,1.265,3.969,3.969,0,0,0-.462,1.969,3.984,3.984,0,0,0,.462,1.958,3.283,3.283,0,0,0,1.243,1.287A3.324,3.324,0,0,0,178.718,18.8ZM187.65,21l-.022-16.324h2.75V21Zm6.358,0-.022-11.748,2.728.022L196.736,21Zm1.364-13.684a1.734,1.734,0,0,1-1.265-.484,1.572,1.572,0,0,1-.5-1.166,1.562,1.562,0,0,1,.5-1.177,1.756,1.756,0,0,1,1.265-.473,1.806,1.806,0,0,1,1.265.451,1.468,1.468,0,0,1,.495,1.133,1.679,1.679,0,0,1-.484,1.221A1.7,1.7,0,0,1,195.372,7.316Zm9.944,13.838a6.119,6.119,0,0,1-3.047-.759,5.513,5.513,0,0,1-2.123-2.1,6.258,6.258,0,0,1-.77-3.168,6.258,6.258,0,0,1,.77-3.168,5.436,5.436,0,0,1,2.123-2.09,6.191,6.191,0,0,1,3.047-.748,5.335,5.335,0,0,1,2.64.649,4.587,4.587,0,0,1,1.848,1.969,7.365,7.365,0,0,1,.682,3.388,7.589,7.589,0,0,1-.66,3.377A4.515,4.515,0,0,1,208,20.494,5.354,5.354,0,0,1,205.316,21.154Zm.33-2.354a3.545,3.545,0,0,0,1.771-.44,3.279,3.279,0,0,0,1.254-1.276,3.91,3.91,0,0,0,.473-1.958,3.894,3.894,0,0,0-.473-1.969,3.3,3.3,0,0,0-1.254-1.265,3.784,3.784,0,0,0-3.542,0,3.3,3.3,0,0,0-1.254,1.265,3.894,3.894,0,0,0-.473,1.969,3.91,3.91,0,0,0,.473,1.958,3.28,3.28,0,0,0,1.254,1.276A3.545,3.545,0,0,0,205.646,18.8ZM209.21,21V18.228l.11-3.124-.22-3.124v-7.3h2.728V21ZM222.7,21V18.624l-.154-.506V13.96a2.434,2.434,0,0,0-.726-1.881,3.147,3.147,0,0,0-2.2-.671,6.319,6.319,0,0,0-1.947.308,4.783,4.783,0,0,0-1.617.858l-1.078-2a6.522,6.522,0,0,1,2.255-1.089,10.12,10.12,0,0,1,2.717-.363,5.812,5.812,0,0,1,3.949,1.221,4.751,4.751,0,0,1,1.4,3.773V21Zm-3.7.154a5.525,5.525,0,0,1-2.31-.451,3.569,3.569,0,0,1-1.529-1.254,3.182,3.182,0,0,1-.539-1.815,3.408,3.408,0,0,1,.473-1.782,3.189,3.189,0,0,1,1.551-1.254,7.371,7.371,0,0,1,2.86-.462h3.41v1.826H219.7a2.865,2.865,0,0,0-1.892.451,1.459,1.459,0,0,0-.484,1.111,1.4,1.4,0,0,0,.594,1.188,2.723,2.723,0,0,0,1.65.44,3.573,3.573,0,0,0,1.815-.462,2.62,2.62,0,0,0,1.155-1.364l.462,1.65a3.056,3.056,0,0,1-1.419,1.606A5.248,5.248,0,0,1,219,21.154Zm14.234,0a4.18,4.18,0,0,1-2.992-1,3.888,3.888,0,0,1-1.056-2.959V6.656h2.75V17.128a1.836,1.836,0,0,0,.429,1.3,1.555,1.555,0,0,0,1.2.462,2.416,2.416,0,0,0,1.54-.484l.77,1.958a3.231,3.231,0,0,1-1.188.594A5.337,5.337,0,0,1,233.234,21.154ZM227.25,11.54V9.34h7.832v2.2ZM238.162,21,238.14,9.252l2.728.022L240.89,21Zm1.364-13.684a1.734,1.734,0,0,1-1.265-.484,1.572,1.572,0,0,1-.5-1.166,1.562,1.562,0,0,1,.5-1.177,1.756,1.756,0,0,1,1.265-.473,1.806,1.806,0,0,1,1.265.451,1.468,1.468,0,0,1,.495,1.133,1.679,1.679,0,0,1-.484,1.221A1.7,1.7,0,0,1,239.526,7.316Zm10.252,13.838a6.761,6.761,0,0,1-3.212-.792,5.781,5.781,0,0,1-2.222-2.123,5.92,5.92,0,0,1-.814-3.113,5.8,5.8,0,0,1,3.047-5.236,6.522,6.522,0,0,1,3.2-.77,6.631,6.631,0,0,1,3.234.77A5.806,5.806,0,0,1,255.234,12a5.9,5.9,0,0,1,.814,3.124,6,6,0,0,1-.8,3.1,5.637,5.637,0,0,1-2.233,2.134A6.894,6.894,0,0,1,249.778,21.154Zm0-2.354a3.652,3.652,0,0,0,1.8-.44,3.112,3.112,0,0,0,1.243-1.276,4.312,4.312,0,0,0,0-3.927,3.129,3.129,0,0,0-1.243-1.265,3.652,3.652,0,0,0-1.8-.44,3.545,3.545,0,0,0-1.771.44,3.223,3.223,0,0,0-1.243,1.265,3.969,3.969,0,0,0-.462,1.969,3.984,3.984,0,0,0,.462,1.958,3.283,3.283,0,0,0,1.243,1.287A3.324,3.324,0,0,0,249.778,18.8Zm15.576-9.68a5.6,5.6,0,0,1,2.519.55,4.031,4.031,0,0,1,1.749,1.683,5.9,5.9,0,0,1,.638,2.915V21h-2.75V14.62a3.26,3.26,0,0,0-.737-2.332,2.712,2.712,0,0,0-2.057-.77,3.612,3.612,0,0,0-1.716.4,2.714,2.714,0,0,0-1.155,1.177,4.238,4.238,0,0,0-.407,1.969V21h-2.75V9.252h2.618V12.42l-.462-.968a4.164,4.164,0,0,1,1.793-1.727A5.862,5.862,0,0,1,265.354,9.12ZM279.852,21,279.83,9.252l2.728.022L282.58,21Zm1.364-13.684a1.734,1.734,0,0,1-1.265-.484,1.572,1.572,0,0,1-.495-1.166,1.562,1.562,0,0,1,.495-1.177,1.757,1.757,0,0,1,1.265-.473,1.806,1.806,0,0,1,1.265.451,1.468,1.468,0,0,1,.5,1.133,1.679,1.679,0,0,1-.484,1.221A1.7,1.7,0,0,1,281.216,7.316Zm8.6,13.838a10.28,10.28,0,0,1-2.827-.385,7.273,7.273,0,0,1-2.145-.935l1.056-2.09a7.51,7.51,0,0,0,1.892.836,7.622,7.622,0,0,0,2.2.33,3.791,3.791,0,0,0,1.881-.352,1.067,1.067,0,0,0,.583-.946.821.821,0,0,0-.4-.737,3.08,3.08,0,0,0-1.034-.385q-.638-.132-1.419-.242t-1.562-.3a5.391,5.391,0,0,1-1.419-.55,2.94,2.94,0,0,1-1.034-.979,2.973,2.973,0,0,1-.4-1.628,3.09,3.09,0,0,1,.638-1.947,4.073,4.073,0,0,1,1.793-1.276,7.521,7.521,0,0,1,2.739-.451,11.223,11.223,0,0,1,2.4.264,6.49,6.49,0,0,1,2,.748l-1.056,2.09a5.569,5.569,0,0,0-1.683-.693,7.787,7.787,0,0,0-1.683-.187,3.619,3.619,0,0,0-1.859.374,1.1,1.1,0,0,0-.605.946.888.888,0,0,0,.4.792,3.231,3.231,0,0,0,1.034.418,13.091,13.091,0,0,0,1.419.253,12.569,12.569,0,0,1,1.551.3,6.54,6.54,0,0,1,1.419.539,2.733,2.733,0,0,1,1.045.957,2.927,2.927,0,0,1,.4,1.606,2.979,2.979,0,0,1-.649,1.914,4.178,4.178,0,0,1-1.837,1.265A8,8,0,0,1,289.818,21.154Zm20.284,0a5.309,5.309,0,0,1-2.662-.66A4.58,4.58,0,0,1,305.6,18.5a7.483,7.483,0,0,1-.671-3.377,7.266,7.266,0,0,1,.693-3.388,4.633,4.633,0,0,1,1.87-1.969A5.308,5.308,0,0,1,310.1,9.12a6.157,6.157,0,0,1,3.069.748,5.557,5.557,0,0,1,2.112,2.09,6.188,6.188,0,0,1,.781,3.168,6.188,6.188,0,0,1-.781,3.168,5.638,5.638,0,0,1-2.112,2.1A6.086,6.086,0,0,1,310.1,21.154ZM303.59,21V4.676h2.75v7.3l-.22,3.124.088,3.124V21Zm6.2-2.2a3.545,3.545,0,0,0,1.771-.44,3.205,3.205,0,0,0,1.243-1.276,3.984,3.984,0,0,0,.462-1.958,3.969,3.969,0,0,0-.462-1.969,3.224,3.224,0,0,0-1.243-1.265,3.545,3.545,0,0,0-1.771-.44,3.606,3.606,0,0,0-1.782.44,3.2,3.2,0,0,0-1.254,1.265,3.969,3.969,0,0,0-.462,1.969,3.984,3.984,0,0,0,.462,1.958,3.184,3.184,0,0,0,1.254,1.276A3.606,3.606,0,0,0,309.794,18.8ZM325.766,21V18.624l-.154-.506V13.96a2.434,2.434,0,0,0-.726-1.881,3.146,3.146,0,0,0-2.2-.671,6.318,6.318,0,0,0-1.947.308,4.783,4.783,0,0,0-1.617.858l-1.078-2A6.521,6.521,0,0,1,320.3,9.483a10.12,10.12,0,0,1,2.717-.363,5.812,5.812,0,0,1,3.949,1.221,4.751,4.751,0,0,1,1.4,3.773V21Zm-3.7.154a5.525,5.525,0,0,1-2.31-.451,3.569,3.569,0,0,1-1.529-1.254,3.182,3.182,0,0,1-.539-1.815,3.408,3.408,0,0,1,.473-1.782,3.189,3.189,0,0,1,1.551-1.254,7.371,7.371,0,0,1,2.86-.462h3.41v1.826h-3.212a2.865,2.865,0,0,0-1.892.451,1.459,1.459,0,0,0-.484,1.111,1.4,1.4,0,0,0,.594,1.188,2.723,2.723,0,0,0,1.65.44,3.573,3.573,0,0,0,1.815-.462,2.619,2.619,0,0,0,1.155-1.364l.462,1.65a3.056,3.056,0,0,1-1.419,1.606A5.248,5.248,0,0,1,322.07,21.154Zm13.442,0a10.28,10.28,0,0,1-2.827-.385,7.273,7.273,0,0,1-2.145-.935l1.056-2.09a7.51,7.51,0,0,0,1.892.836,7.622,7.622,0,0,0,2.2.33,3.791,3.791,0,0,0,1.881-.352,1.067,1.067,0,0,0,.583-.946.821.821,0,0,0-.4-.737,3.08,3.08,0,0,0-1.034-.385q-.638-.132-1.419-.242t-1.562-.3a5.391,5.391,0,0,1-1.419-.55,2.94,2.94,0,0,1-1.034-.979,2.973,2.973,0,0,1-.4-1.628,3.09,3.09,0,0,1,.638-1.947,4.073,4.073,0,0,1,1.793-1.276,7.521,7.521,0,0,1,2.739-.451,11.223,11.223,0,0,1,2.4.264,6.49,6.49,0,0,1,2,.748l-1.056,2.09a5.569,5.569,0,0,0-1.683-.693,7.787,7.787,0,0,0-1.683-.187,3.619,3.619,0,0,0-1.859.374,1.1,1.1,0,0,0-.605.946.888.888,0,0,0,.4.792,3.231,3.231,0,0,0,1.034.418,13.09,13.09,0,0,0,1.419.253,12.57,12.57,0,0,1,1.551.3,6.54,6.54,0,0,1,1.419.539,2.733,2.733,0,0,1,1.045.957,2.927,2.927,0,0,1,.4,1.606,2.979,2.979,0,0,1-.649,1.914A4.178,4.178,0,0,1,338.35,20.7,8,8,0,0,1,335.512,21.154ZM343.234,21l-.022-11.748,2.728.022L345.962,21ZM344.6,7.316a1.734,1.734,0,0,1-1.265-.484,1.572,1.572,0,0,1-.495-1.166,1.562,1.562,0,0,1,.495-1.177,1.757,1.757,0,0,1,1.265-.473,1.806,1.806,0,0,1,1.265.451,1.468,1.468,0,0,1,.5,1.133,1.679,1.679,0,0,1-.484,1.221A1.7,1.7,0,0,1,344.6,7.316ZM354.96,21.154a6.792,6.792,0,0,1-3.289-.781,5.774,5.774,0,0,1-2.255-2.145,5.936,5.936,0,0,1-.814-3.1,5.92,5.92,0,0,1,.814-3.113,5.721,5.721,0,0,1,2.255-2.123,6.87,6.87,0,0,1,3.289-.77,6.37,6.37,0,0,1,3.025.693,4.605,4.605,0,0,1,1.991,2.035l-2.112,1.232a3.378,3.378,0,0,0-1.287-1.232,3.491,3.491,0,0,0-1.639-.4,3.778,3.778,0,0,0-1.826.44,3.162,3.162,0,0,0-1.276,1.265,3.969,3.969,0,0,0-.462,1.969,3.969,3.969,0,0,0,.462,1.969,3.162,3.162,0,0,0,1.276,1.265,3.778,3.778,0,0,0,1.826.44,3.491,3.491,0,0,0,1.639-.4,3.378,3.378,0,0,0,1.287-1.232l2.112,1.232a4.76,4.76,0,0,1-1.991,2.035A6.21,6.21,0,0,1,354.96,21.154ZM369.59,21V18.624l-.154-.506V13.96a2.434,2.434,0,0,0-.726-1.881,3.146,3.146,0,0,0-2.2-.671,6.318,6.318,0,0,0-1.947.308,4.783,4.783,0,0,0-1.617.858l-1.078-2a6.521,6.521,0,0,1,2.255-1.089,10.12,10.12,0,0,1,2.717-.363,5.812,5.812,0,0,1,3.949,1.221,4.751,4.751,0,0,1,1.4,3.773V21Zm-3.7.154a5.525,5.525,0,0,1-2.31-.451,3.569,3.569,0,0,1-1.529-1.254,3.182,3.182,0,0,1-.539-1.815,3.408,3.408,0,0,1,.473-1.782A3.189,3.189,0,0,1,363.54,14.6a7.371,7.371,0,0,1,2.86-.462h3.41v1.826H366.6a2.865,2.865,0,0,0-1.892.451,1.459,1.459,0,0,0-.484,1.111,1.4,1.4,0,0,0,.594,1.188,2.723,2.723,0,0,0,1.65.44,3.573,3.573,0,0,0,1.815-.462,2.619,2.619,0,0,0,1.155-1.364l.462,1.65a3.056,3.056,0,0,1-1.419,1.606A5.248,5.248,0,0,1,365.894,21.154ZM375.728,21l-.022-16.324h2.75V21Zm6.358,0-.022-16.324h2.75V21Zm7.3,4.422a5.4,5.4,0,0,1-1.716-.286,4.07,4.07,0,0,1-1.43-.792l1.1-2.024a3.326,3.326,0,0,0,.946.594,2.779,2.779,0,0,0,1.078.22,1.864,1.864,0,0,0,1.21-.374,3.384,3.384,0,0,0,.858-1.254l.682-1.54.22-.33,4.444-10.384h2.64l-5.5,12.694a7.663,7.663,0,0,1-1.221,2.09,3.71,3.71,0,0,1-1.5,1.078A5.152,5.152,0,0,1,389.39,25.422Zm2.42-4-5.3-12.166h2.86l4.312,10.142Zm19.822-.264a4.18,4.18,0,0,1-2.992-1,3.888,3.888,0,0,1-1.056-2.959V6.656h2.75V17.128a1.836,1.836,0,0,0,.429,1.3,1.555,1.555,0,0,0,1.2.462,2.416,2.416,0,0,0,1.54-.484l.77,1.958a3.231,3.231,0,0,1-1.188.594A5.337,5.337,0,0,1,411.632,21.154Zm-5.984-9.614V9.34h7.832v2.2ZM423.2,9.12a5.6,5.6,0,0,1,2.519.55,4.031,4.031,0,0,1,1.749,1.683,5.9,5.9,0,0,1,.638,2.915V21h-2.75V14.62a3.26,3.26,0,0,0-.737-2.332,2.712,2.712,0,0,0-2.057-.77,3.612,3.612,0,0,0-1.716.4,2.714,2.714,0,0,0-1.155,1.177,4.238,4.238,0,0,0-.407,1.969V21h-2.75V4.676h2.75V12.42l-.594-.968a4.164,4.164,0,0,1,1.793-1.727A5.862,5.862,0,0,1,423.2,9.12Zm13.948,12.034a7.159,7.159,0,0,1-3.421-.781,5.658,5.658,0,0,1-2.266-2.145,6,6,0,0,1-.8-3.1,6.114,6.114,0,0,1,.781-3.113A5.6,5.6,0,0,1,433.6,9.89a6.306,6.306,0,0,1,3.135-.77,6.174,6.174,0,0,1,3.058.748A5.415,5.415,0,0,1,441.9,11.98a6.427,6.427,0,0,1,.77,3.212q0,.176-.011.4t-.033.418h-9.79V14.18h8.338l-1.078.572a3.376,3.376,0,0,0-.418-1.782,3.219,3.219,0,0,0-1.2-1.21,3.424,3.424,0,0,0-1.749-.44,3.468,3.468,0,0,0-1.771.44,3.118,3.118,0,0,0-1.188,1.221,3.757,3.757,0,0,0-.429,1.837v.44a3.589,3.589,0,0,0,.484,1.87,3.227,3.227,0,0,0,1.364,1.254,4.467,4.467,0,0,0,2.024.44A4.884,4.884,0,0,0,439,18.514a3.793,3.793,0,0,0,1.408-.968l1.474,1.694a5.176,5.176,0,0,1-1.991,1.419A7.127,7.127,0,0,1,437.152,21.154Zm-295,27a5.924,5.924,0,0,1-2.64-.561,4.026,4.026,0,0,1-1.782-1.716,5.976,5.976,0,0,1-.638-2.915v-6.71h2.75v6.336a3.4,3.4,0,0,0,.715,2.365,2.62,2.62,0,0,0,2.035.781,3.42,3.42,0,0,0,1.683-.4A2.753,2.753,0,0,0,145.4,44.15a4.252,4.252,0,0,0,.407-1.958v-5.94h2.75V48h-2.618V44.832l.462.968a4.044,4.044,0,0,1-1.738,1.749A5.281,5.281,0,0,1,142.154,48.154ZM158.83,36.12a5.6,5.6,0,0,1,2.519.55,4.031,4.031,0,0,1,1.749,1.683,5.9,5.9,0,0,1,.638,2.915V48h-2.75V41.62a3.26,3.26,0,0,0-.737-2.332,2.712,2.712,0,0,0-2.057-.77,3.612,3.612,0,0,0-1.716.4,2.714,2.714,0,0,0-1.155,1.177,4.238,4.238,0,0,0-.407,1.969V48h-2.75V36.252h2.618V39.42l-.462-.968a4.164,4.164,0,0,1,1.793-1.727A5.862,5.862,0,0,1,158.83,36.12ZM167.256,48l-.022-11.748,2.728.022L169.984,48Zm1.364-13.684a1.734,1.734,0,0,1-1.265-.484,1.634,1.634,0,0,1,0-2.343,1.756,1.756,0,0,1,1.265-.473,1.806,1.806,0,0,1,1.265.451,1.468,1.468,0,0,1,.495,1.133,1.679,1.679,0,0,1-.484,1.221A1.7,1.7,0,0,1,168.62,34.316ZM173.966,48V35.592a4.045,4.045,0,0,1,1.089-2.959,4.163,4.163,0,0,1,3.113-1.111,5.94,5.94,0,0,1,1.375.154,2.914,2.914,0,0,1,1.089.484l-.748,2.068a2.14,2.14,0,0,0-.7-.363,2.77,2.77,0,0,0-.814-.121,1.687,1.687,0,0,0-1.3.473,2.018,2.018,0,0,0-.44,1.419v1.32l.088,1.232V48Zm-1.936-9.46v-2.2h7.832v2.2ZM181.82,48,181.8,36.252l2.728.022L184.548,48Zm1.364-13.684a1.734,1.734,0,0,1-1.265-.484,1.634,1.634,0,0,1,0-2.343,1.757,1.757,0,0,1,1.265-.473,1.806,1.806,0,0,1,1.265.451,1.468,1.468,0,0,1,.5,1.133,1.679,1.679,0,0,1-.484,1.221A1.7,1.7,0,0,1,183.184,34.316Zm10.362,13.838a6.792,6.792,0,0,1-3.289-.781A5.774,5.774,0,0,1,188,45.228a6.339,6.339,0,0,1,0-6.215,5.721,5.721,0,0,1,2.255-2.123,6.87,6.87,0,0,1,3.289-.77,6.37,6.37,0,0,1,3.025.693,4.605,4.605,0,0,1,1.991,2.035L196.45,40.08a3.378,3.378,0,0,0-1.287-1.232,3.491,3.491,0,0,0-1.639-.4,3.778,3.778,0,0,0-1.826.44,3.162,3.162,0,0,0-1.276,1.265,4.427,4.427,0,0,0,0,3.938A3.162,3.162,0,0,0,191.7,45.36a3.778,3.778,0,0,0,1.826.44,3.491,3.491,0,0,0,1.639-.4,3.378,3.378,0,0,0,1.287-1.232l2.112,1.232a4.76,4.76,0,0,1-1.991,2.035A6.21,6.21,0,0,1,193.546,48.154ZM208.176,48V45.624l-.154-.506V40.96a2.434,2.434,0,0,0-.726-1.881,3.147,3.147,0,0,0-2.2-.671,6.318,6.318,0,0,0-1.947.308,4.783,4.783,0,0,0-1.617.858l-1.078-2a6.522,6.522,0,0,1,2.255-1.089,10.12,10.12,0,0,1,2.717-.363,5.812,5.812,0,0,1,3.949,1.221,4.751,4.751,0,0,1,1.4,3.773V48Zm-3.7.154a5.525,5.525,0,0,1-2.31-.451,3.569,3.569,0,0,1-1.529-1.254,3.182,3.182,0,0,1-.539-1.815,3.408,3.408,0,0,1,.473-1.782,3.189,3.189,0,0,1,1.551-1.254,7.371,7.371,0,0,1,2.86-.462h3.41v1.826h-3.212a2.865,2.865,0,0,0-1.892.451,1.459,1.459,0,0,0-.484,1.111,1.4,1.4,0,0,0,.594,1.188,2.723,2.723,0,0,0,1.65.44,3.573,3.573,0,0,0,1.815-.462,2.62,2.62,0,0,0,1.155-1.364l.462,1.65a3.056,3.056,0,0,1-1.419,1.606A5.248,5.248,0,0,1,204.48,48.154Zm14.234,0a4.18,4.18,0,0,1-2.992-1,3.888,3.888,0,0,1-1.056-2.959V33.656h2.75V44.128a1.836,1.836,0,0,0,.429,1.3,1.555,1.555,0,0,0,1.2.462,2.416,2.416,0,0,0,1.54-.484l.77,1.958a3.231,3.231,0,0,1-1.188.594A5.337,5.337,0,0,1,218.714,48.154ZM212.73,38.54v-2.2h7.832v2.2ZM223.642,48l-.022-11.748,2.728.022L226.37,48Zm1.364-13.684a1.734,1.734,0,0,1-1.265-.484,1.634,1.634,0,0,1,0-2.343,1.756,1.756,0,0,1,1.265-.473,1.806,1.806,0,0,1,1.265.451,1.468,1.468,0,0,1,.495,1.133,1.679,1.679,0,0,1-.484,1.221A1.7,1.7,0,0,1,225.006,34.316Zm10.252,13.838a6.761,6.761,0,0,1-3.212-.792,5.781,5.781,0,0,1-2.222-2.123,5.92,5.92,0,0,1-.814-3.113,5.8,5.8,0,0,1,3.047-5.236,6.522,6.522,0,0,1,3.2-.77,6.631,6.631,0,0,1,3.234.77A5.806,5.806,0,0,1,240.714,39a5.9,5.9,0,0,1,.814,3.124,6,6,0,0,1-.8,3.1,5.637,5.637,0,0,1-2.233,2.134A6.894,6.894,0,0,1,235.258,48.154Zm0-2.354a3.652,3.652,0,0,0,1.8-.44,3.112,3.112,0,0,0,1.243-1.276,4.312,4.312,0,0,0,0-3.927,3.129,3.129,0,0,0-1.243-1.265,3.652,3.652,0,0,0-1.8-.44,3.545,3.545,0,0,0-1.771.44,3.223,3.223,0,0,0-1.243,1.265,4.4,4.4,0,0,0,0,3.927,3.283,3.283,0,0,0,1.243,1.287A3.324,3.324,0,0,0,235.258,45.8Zm15.576-9.68a5.6,5.6,0,0,1,2.519.55,4.031,4.031,0,0,1,1.749,1.683,5.9,5.9,0,0,1,.638,2.915V48h-2.75V41.62a3.26,3.26,0,0,0-.737-2.332,2.713,2.713,0,0,0-2.057-.77,3.612,3.612,0,0,0-1.716.4,2.714,2.714,0,0,0-1.155,1.177,4.238,4.238,0,0,0-.407,1.969V48h-2.75V36.252h2.618V39.42l-.462-.968a4.164,4.164,0,0,1,1.793-1.727A5.862,5.862,0,0,1,250.834,36.12Zm20.988,12.034a5.238,5.238,0,0,1-2.607-.66,4.691,4.691,0,0,1-1.87-1.991,7.28,7.28,0,0,1-.693-3.377,7.468,7.468,0,0,1,.671-3.388,4.523,4.523,0,0,1,1.837-1.969,5.381,5.381,0,0,1,2.662-.649,6.157,6.157,0,0,1,3.069.748A5.557,5.557,0,0,1,277,38.958a6.838,6.838,0,0,1,0,6.347,5.534,5.534,0,0,1-2.112,2.1A6.157,6.157,0,0,1,271.822,48.154Zm-6.512,4.114V36.252h2.618v2.772l-.088,3.124.22,3.124v7Zm6.2-6.468a3.545,3.545,0,0,0,1.771-.44,3.205,3.205,0,0,0,1.243-1.276,4.4,4.4,0,0,0,0-3.927,3.224,3.224,0,0,0-1.243-1.265,3.545,3.545,0,0,0-1.771-.44,3.606,3.606,0,0,0-1.782.44,3.2,3.2,0,0,0-1.254,1.265,4.4,4.4,0,0,0,0,3.927,3.184,3.184,0,0,0,1.254,1.276A3.606,3.606,0,0,0,271.514,45.8ZM280.4,48V36.252h2.618v3.234l-.308-.946a3.715,3.715,0,0,1,1.661-1.8,5.864,5.864,0,0,1,2.827-.616v2.618a1.935,1.935,0,0,0-.33-.055q-.154-.011-.308-.011a3.382,3.382,0,0,0-2.486.913,3.661,3.661,0,0,0-.924,2.717V48Zm14.3.154a6.761,6.761,0,0,1-3.212-.792,5.78,5.78,0,0,1-2.222-2.123,5.92,5.92,0,0,1-.814-3.113A5.8,5.8,0,0,1,291.5,36.89a6.522,6.522,0,0,1,3.2-.77,6.631,6.631,0,0,1,3.234.77A5.806,5.806,0,0,1,300.158,39a5.9,5.9,0,0,1,.814,3.124,6,6,0,0,1-.8,3.1,5.637,5.637,0,0,1-2.233,2.134A6.894,6.894,0,0,1,294.7,48.154Zm0-2.354a3.652,3.652,0,0,0,1.8-.44,3.113,3.113,0,0,0,1.243-1.276,4.312,4.312,0,0,0,0-3.927,3.129,3.129,0,0,0-1.243-1.265,3.652,3.652,0,0,0-1.8-.44,3.545,3.545,0,0,0-1.771.44,3.224,3.224,0,0,0-1.243,1.265,4.4,4.4,0,0,0,0,3.927,3.283,3.283,0,0,0,1.243,1.287A3.324,3.324,0,0,0,294.7,45.8ZM309,48.154a6.792,6.792,0,0,1-3.289-.781,5.774,5.774,0,0,1-2.255-2.145,6.339,6.339,0,0,1,0-6.215,5.721,5.721,0,0,1,2.255-2.123A6.87,6.87,0,0,1,309,36.12a6.37,6.37,0,0,1,3.025.693,4.605,4.605,0,0,1,1.991,2.035l-2.112,1.232a3.378,3.378,0,0,0-1.287-1.232,3.491,3.491,0,0,0-1.639-.4,3.778,3.778,0,0,0-1.826.44,3.162,3.162,0,0,0-1.276,1.265,4.427,4.427,0,0,0,0,3.938,3.162,3.162,0,0,0,1.276,1.265,3.778,3.778,0,0,0,1.826.44,3.491,3.491,0,0,0,1.639-.4,3.378,3.378,0,0,0,1.287-1.232l2.112,1.232a4.76,4.76,0,0,1-1.991,2.035A6.21,6.21,0,0,1,309,48.154Zm12.738,0a7.159,7.159,0,0,1-3.421-.781,5.658,5.658,0,0,1-2.266-2.145,6,6,0,0,1-.8-3.1,6.114,6.114,0,0,1,.781-3.113,5.6,5.6,0,0,1,2.156-2.123,6.306,6.306,0,0,1,3.135-.77,6.174,6.174,0,0,1,3.058.748,5.415,5.415,0,0,1,2.112,2.112,6.427,6.427,0,0,1,.77,3.212q0,.176-.011.4t-.033.418h-9.79V41.18h8.338l-1.078.572a3.376,3.376,0,0,0-.418-1.782,3.219,3.219,0,0,0-1.2-1.21,3.424,3.424,0,0,0-1.749-.44,3.468,3.468,0,0,0-1.771.44,3.118,3.118,0,0,0-1.188,1.221,3.757,3.757,0,0,0-.429,1.837v.44a3.589,3.589,0,0,0,.484,1.87,3.227,3.227,0,0,0,1.364,1.254,4.467,4.467,0,0,0,2.024.44,4.884,4.884,0,0,0,1.782-.308A3.793,3.793,0,0,0,325,44.546l1.474,1.694a5.176,5.176,0,0,1-1.991,1.419A7.127,7.127,0,0,1,321.74,48.154Zm11.792,0a10.28,10.28,0,0,1-2.827-.385,7.273,7.273,0,0,1-2.145-.935l1.056-2.09a7.51,7.51,0,0,0,1.892.836,7.622,7.622,0,0,0,2.2.33,3.791,3.791,0,0,0,1.881-.352,1.067,1.067,0,0,0,.583-.946.821.821,0,0,0-.4-.737,3.08,3.08,0,0,0-1.034-.385q-.638-.132-1.419-.242t-1.562-.3a5.391,5.391,0,0,1-1.419-.55,2.94,2.94,0,0,1-1.034-.979,2.973,2.973,0,0,1-.4-1.628,3.09,3.09,0,0,1,.638-1.947,4.073,4.073,0,0,1,1.793-1.276,7.521,7.521,0,0,1,2.739-.451,11.224,11.224,0,0,1,2.4.264,6.49,6.49,0,0,1,2,.748l-1.056,2.09a5.569,5.569,0,0,0-1.683-.693,7.788,7.788,0,0,0-1.683-.187,3.619,3.619,0,0,0-1.859.374,1.1,1.1,0,0,0-.605.946.888.888,0,0,0,.4.792,3.231,3.231,0,0,0,1.034.418,13.09,13.09,0,0,0,1.419.253,12.569,12.569,0,0,1,1.551.3,6.54,6.54,0,0,1,1.419.539,2.733,2.733,0,0,1,1.045.957,2.927,2.927,0,0,1,.4,1.606,2.979,2.979,0,0,1-.649,1.914A4.178,4.178,0,0,1,336.37,47.7,8,8,0,0,1,333.532,48.154Zm11.33,0a10.28,10.28,0,0,1-2.827-.385,7.273,7.273,0,0,1-2.145-.935l1.056-2.09a7.51,7.51,0,0,0,1.892.836,7.622,7.622,0,0,0,2.2.33,3.791,3.791,0,0,0,1.881-.352,1.067,1.067,0,0,0,.583-.946.821.821,0,0,0-.4-.737,3.08,3.08,0,0,0-1.034-.385q-.638-.132-1.419-.242t-1.562-.3a5.391,5.391,0,0,1-1.419-.55,2.94,2.94,0,0,1-1.034-.979,2.973,2.973,0,0,1-.4-1.628,3.09,3.09,0,0,1,.638-1.947,4.073,4.073,0,0,1,1.793-1.276,7.521,7.521,0,0,1,2.739-.451,11.224,11.224,0,0,1,2.4.264,6.49,6.49,0,0,1,2,.748l-1.056,2.09a5.569,5.569,0,0,0-1.683-.693,7.788,7.788,0,0,0-1.683-.187,3.619,3.619,0,0,0-1.859.374,1.1,1.1,0,0,0-.605.946.888.888,0,0,0,.4.792,3.231,3.231,0,0,0,1.034.418,13.091,13.091,0,0,0,1.419.253,12.569,12.569,0,0,1,1.551.3,6.54,6.54,0,0,1,1.419.539,2.733,2.733,0,0,1,1.045.957,2.927,2.927,0,0,1,.4,1.606,2.979,2.979,0,0,1-.649,1.914A4.178,4.178,0,0,1,347.7,47.7,8,8,0,0,1,344.862,48.154Zm19.052,0a6.761,6.761,0,0,1-3.212-.792,5.78,5.78,0,0,1-2.222-2.123,5.92,5.92,0,0,1-.814-3.113,5.8,5.8,0,0,1,3.047-5.236,6.522,6.522,0,0,1,3.2-.77,6.631,6.631,0,0,1,3.234.77A5.806,5.806,0,0,1,369.37,39a5.9,5.9,0,0,1,.814,3.124,6,6,0,0,1-.8,3.1,5.637,5.637,0,0,1-2.233,2.134A6.894,6.894,0,0,1,363.914,48.154Zm0-2.354a3.652,3.652,0,0,0,1.8-.44,3.113,3.113,0,0,0,1.243-1.276,4.312,4.312,0,0,0,0-3.927,3.129,3.129,0,0,0-1.243-1.265,3.652,3.652,0,0,0-1.8-.44,3.545,3.545,0,0,0-1.771.44,3.224,3.224,0,0,0-1.243,1.265,4.4,4.4,0,0,0,0,3.927,3.283,3.283,0,0,0,1.243,1.287A3.324,3.324,0,0,0,363.914,45.8ZM373.2,48V35.592a4.045,4.045,0,0,1,1.089-2.959,4.163,4.163,0,0,1,3.113-1.111,5.94,5.94,0,0,1,1.375.154,2.914,2.914,0,0,1,1.089.484l-.748,2.068a2.14,2.14,0,0,0-.7-.363,2.77,2.77,0,0,0-.814-.121,1.687,1.687,0,0,0-1.3.473,2.018,2.018,0,0,0-.44,1.419v1.32l.088,1.232V48Zm-1.936-9.46v-2.2h7.832v2.2Zm21.032,9.614a6.761,6.761,0,0,1-3.212-.792,5.78,5.78,0,0,1-2.222-2.123,5.92,5.92,0,0,1-.814-3.113,5.8,5.8,0,0,1,3.047-5.236,6.522,6.522,0,0,1,3.2-.77,6.631,6.631,0,0,1,3.234.77A5.806,5.806,0,0,1,397.75,39a5.9,5.9,0,0,1,.814,3.124,6,6,0,0,1-.8,3.1,5.637,5.637,0,0,1-2.233,2.134A6.894,6.894,0,0,1,392.294,48.154Zm0-2.354a3.652,3.652,0,0,0,1.8-.44,3.113,3.113,0,0,0,1.243-1.276,4.312,4.312,0,0,0,0-3.927,3.129,3.129,0,0,0-1.243-1.265,3.652,3.652,0,0,0-1.8-.44,3.545,3.545,0,0,0-1.771.44,3.224,3.224,0,0,0-1.243,1.265,4.4,4.4,0,0,0,0,3.927,3.283,3.283,0,0,0,1.243,1.287A3.324,3.324,0,0,0,392.294,45.8Zm13.882,2.354a5.924,5.924,0,0,1-2.64-.561,4.026,4.026,0,0,1-1.782-1.716,5.977,5.977,0,0,1-.638-2.915v-6.71h2.75v6.336a3.4,3.4,0,0,0,.715,2.365,2.62,2.62,0,0,0,2.035.781,3.419,3.419,0,0,0,1.683-.4,2.753,2.753,0,0,0,1.122-1.188,4.252,4.252,0,0,0,.407-1.958v-5.94h2.75V48H409.96V44.832l.462.968a4.044,4.044,0,0,1-1.738,1.749A5.281,5.281,0,0,1,406.176,48.154ZM416.186,48V36.252H418.8v3.234l-.308-.946a3.715,3.715,0,0,1,1.661-1.8,5.864,5.864,0,0,1,2.827-.616v2.618a1.935,1.935,0,0,0-.33-.055q-.154-.011-.308-.011a3.382,3.382,0,0,0-2.486.913,3.661,3.661,0,0,0-.924,2.717V48ZM110.694,75.154a6.791,6.791,0,0,1-3.289-.781,5.774,5.774,0,0,1-2.255-2.145,6.339,6.339,0,0,1,0-6.215A5.721,5.721,0,0,1,107.4,63.89a6.87,6.87,0,0,1,3.289-.77,6.37,6.37,0,0,1,3.025.693,4.605,4.605,0,0,1,1.991,2.035L113.6,67.08a3.378,3.378,0,0,0-1.287-1.232,3.491,3.491,0,0,0-1.639-.4,3.778,3.778,0,0,0-1.826.44,3.162,3.162,0,0,0-1.276,1.265,4.427,4.427,0,0,0,0,3.938,3.162,3.162,0,0,0,1.276,1.265,3.778,3.778,0,0,0,1.826.44,3.491,3.491,0,0,0,1.639-.4,3.378,3.378,0,0,0,1.287-1.232L115.71,72.4a4.76,4.76,0,0,1-1.991,2.035A6.21,6.21,0,0,1,110.694,75.154Zm12.5,0a6.761,6.761,0,0,1-3.212-.792,5.78,5.78,0,0,1-2.222-2.123,5.92,5.92,0,0,1-.814-3.113,5.8,5.8,0,0,1,3.047-5.236,6.521,6.521,0,0,1,3.2-.77,6.631,6.631,0,0,1,3.234.77A5.807,5.807,0,0,1,128.646,66a5.9,5.9,0,0,1,.814,3.124,6,6,0,0,1-.8,3.1,5.637,5.637,0,0,1-2.233,2.134A6.894,6.894,0,0,1,123.19,75.154Zm0-2.354a3.652,3.652,0,0,0,1.8-.44,3.112,3.112,0,0,0,1.243-1.276,4.312,4.312,0,0,0,0-3.927,3.129,3.129,0,0,0-1.243-1.265,3.652,3.652,0,0,0-1.8-.44,3.545,3.545,0,0,0-1.771.44,3.223,3.223,0,0,0-1.243,1.265,4.4,4.4,0,0,0,0,3.927,3.283,3.283,0,0,0,1.243,1.287A3.324,3.324,0,0,0,123.19,72.8Zm23.738-9.68a5.465,5.465,0,0,1,2.5.55,3.933,3.933,0,0,1,1.705,1.683,6.073,6.073,0,0,1,.616,2.915V75H149V68.62a3.433,3.433,0,0,0-.682-2.332,2.478,2.478,0,0,0-1.958-.77,3.158,3.158,0,0,0-1.6.4,2.685,2.685,0,0,0-1.078,1.166,4.371,4.371,0,0,0-.385,1.958V75h-2.75V68.62a3.433,3.433,0,0,0-.682-2.332,2.478,2.478,0,0,0-1.958-.77,3.158,3.158,0,0,0-1.6.4,2.685,2.685,0,0,0-1.078,1.166,4.371,4.371,0,0,0-.385,1.958V75H132.1V63.252h2.618v3.124l-.462-.924a3.994,3.994,0,0,1,1.727-1.738,5.484,5.484,0,0,1,2.585-.594,5.054,5.054,0,0,1,2.871.814,3.919,3.919,0,0,1,1.617,2.464l-1.078-.374a4.533,4.533,0,0,1,1.892-2.112A5.828,5.828,0,0,1,146.928,63.12Zm14.85,12.034a5.238,5.238,0,0,1-2.607-.66A4.691,4.691,0,0,1,157.3,72.5a7.28,7.28,0,0,1-.693-3.377,7.468,7.468,0,0,1,.671-3.388,4.523,4.523,0,0,1,1.837-1.969,5.38,5.38,0,0,1,2.662-.649,6.157,6.157,0,0,1,3.069.748,5.557,5.557,0,0,1,2.112,2.09,6.838,6.838,0,0,1,0,6.347,5.534,5.534,0,0,1-2.112,2.1A6.157,6.157,0,0,1,161.778,75.154Zm-6.512,4.114V63.252h2.618v2.772l-.088,3.124.22,3.124v7Zm6.2-6.468a3.545,3.545,0,0,0,1.771-.44,3.205,3.205,0,0,0,1.243-1.276,4.4,4.4,0,0,0,0-3.927,3.223,3.223,0,0,0-1.243-1.265,3.545,3.545,0,0,0-1.771-.44,3.607,3.607,0,0,0-1.782.44,3.2,3.2,0,0,0-1.254,1.265,4.4,4.4,0,0,0,0,3.927,3.183,3.183,0,0,0,1.254,1.276A3.607,3.607,0,0,0,161.47,72.8ZM177.442,75V72.624l-.154-.506V67.96a2.434,2.434,0,0,0-.726-1.881,3.147,3.147,0,0,0-2.2-.671,6.318,6.318,0,0,0-1.947.308,4.783,4.783,0,0,0-1.617.858l-1.078-2a6.522,6.522,0,0,1,2.255-1.089,10.12,10.12,0,0,1,2.717-.363,5.812,5.812,0,0,1,3.949,1.221,4.751,4.751,0,0,1,1.4,3.773V75Zm-3.7.154a5.525,5.525,0,0,1-2.31-.451,3.569,3.569,0,0,1-1.529-1.254,3.182,3.182,0,0,1-.539-1.815,3.408,3.408,0,0,1,.473-1.782,3.189,3.189,0,0,1,1.551-1.254,7.371,7.371,0,0,1,2.86-.462h3.41v1.826H174.45a2.865,2.865,0,0,0-1.892.451,1.459,1.459,0,0,0-.484,1.111,1.4,1.4,0,0,0,.594,1.188,2.723,2.723,0,0,0,1.65.44,3.573,3.573,0,0,0,1.815-.462,2.62,2.62,0,0,0,1.155-1.364l.462,1.65a3.056,3.056,0,0,1-1.419,1.606A5.248,5.248,0,0,1,173.746,75.154ZM190.224,63.12a5.6,5.6,0,0,1,2.519.55,4.031,4.031,0,0,1,1.749,1.683,5.9,5.9,0,0,1,.638,2.915V75h-2.75V68.62a3.259,3.259,0,0,0-.737-2.332,2.712,2.712,0,0,0-2.057-.77,3.612,3.612,0,0,0-1.716.4,2.714,2.714,0,0,0-1.155,1.177,4.238,4.238,0,0,0-.407,1.969V75h-2.75V63.252h2.618V66.42l-.462-.968a4.164,4.164,0,0,1,1.793-1.727A5.862,5.862,0,0,1,190.224,63.12Zm9.152,16.3a5.4,5.4,0,0,1-1.716-.286,4.07,4.07,0,0,1-1.43-.792l1.1-2.024a3.326,3.326,0,0,0,.946.594,2.779,2.779,0,0,0,1.078.22,1.864,1.864,0,0,0,1.21-.374,3.384,3.384,0,0,0,.858-1.254l.682-1.54.22-.33,4.444-10.384h2.64l-5.5,12.694a7.663,7.663,0,0,1-1.221,2.09,3.71,3.71,0,0,1-1.5,1.078A5.152,5.152,0,0,1,199.376,79.422Zm2.42-4-5.3-12.166h2.86l4.312,10.142Zm18-.418L215.48,63.252h2.6l3.7,10.362H220.54l3.872-10.362h2.31l3.762,10.362h-1.21l3.806-10.362h2.442L231.188,75h-2.64l-3.432-9.174h.814L222.432,75Zm17.644,0-.022-11.748,2.728.022L240.164,75ZM238.8,61.316a1.734,1.734,0,0,1-1.265-.484,1.634,1.634,0,0,1,0-2.343,1.756,1.756,0,0,1,1.265-.473,1.806,1.806,0,0,1,1.265.451,1.468,1.468,0,0,1,.495,1.133,1.679,1.679,0,0,1-.484,1.221A1.7,1.7,0,0,1,238.8,61.316Zm9.394,13.838a4.18,4.18,0,0,1-2.992-1,3.888,3.888,0,0,1-1.056-2.959V60.656h2.75V71.128a1.836,1.836,0,0,0,.429,1.3,1.555,1.555,0,0,0,1.2.462,2.416,2.416,0,0,0,1.54-.484l.77,1.958a3.231,3.231,0,0,1-1.188.594A5.337,5.337,0,0,1,248.194,75.154ZM242.21,65.54v-2.2h7.832v2.2Zm17.556-2.42a5.6,5.6,0,0,1,2.519.55,4.031,4.031,0,0,1,1.749,1.683,5.9,5.9,0,0,1,.638,2.915V75h-2.75V68.62a3.259,3.259,0,0,0-.737-2.332,2.712,2.712,0,0,0-2.057-.77,3.612,3.612,0,0,0-1.716.4,2.714,2.714,0,0,0-1.155,1.177,4.238,4.238,0,0,0-.407,1.969V75H253.1V58.676h2.75V66.42l-.594-.968a4.164,4.164,0,0,1,1.793-1.727A5.862,5.862,0,0,1,259.766,63.12Zm18.9,12.034a4.18,4.18,0,0,1-2.992-1,3.888,3.888,0,0,1-1.056-2.959V60.656h2.75V71.128a1.836,1.836,0,0,0,.429,1.3,1.555,1.555,0,0,0,1.2.462,2.416,2.416,0,0,0,1.54-.484l.77,1.958a3.231,3.231,0,0,1-1.188.594A5.337,5.337,0,0,1,278.664,75.154ZM272.68,65.54v-2.2h7.832v2.2Zm17.556-2.42a5.6,5.6,0,0,1,2.519.55,4.031,4.031,0,0,1,1.749,1.683,5.9,5.9,0,0,1,.638,2.915V75h-2.75V68.62a3.259,3.259,0,0,0-.737-2.332,2.712,2.712,0,0,0-2.057-.77,3.612,3.612,0,0,0-1.716.4,2.714,2.714,0,0,0-1.155,1.177,4.238,4.238,0,0,0-.407,1.969V75h-2.75V58.676h2.75V66.42l-.594-.968a4.164,4.164,0,0,1,1.793-1.727A5.862,5.862,0,0,1,290.236,63.12Zm13.948,12.034a7.159,7.159,0,0,1-3.421-.781,5.658,5.658,0,0,1-2.266-2.145,6,6,0,0,1-.8-3.1,6.114,6.114,0,0,1,.781-3.113,5.6,5.6,0,0,1,2.156-2.123,6.306,6.306,0,0,1,3.135-.77,6.174,6.174,0,0,1,3.058.748,5.415,5.415,0,0,1,2.112,2.112,6.427,6.427,0,0,1,.77,3.212q0,.176-.011.4t-.033.418h-9.79V68.18h8.338l-1.078.572a3.376,3.376,0,0,0-.418-1.782,3.219,3.219,0,0,0-1.2-1.21,3.424,3.424,0,0,0-1.749-.44,3.468,3.468,0,0,0-1.771.44,3.118,3.118,0,0,0-1.188,1.221,3.757,3.757,0,0,0-.429,1.837v.44a3.589,3.589,0,0,0,.484,1.87,3.227,3.227,0,0,0,1.364,1.254,4.467,4.467,0,0,0,2.024.44,4.884,4.884,0,0,0,1.782-.308,3.793,3.793,0,0,0,1.408-.968l1.474,1.694a5.176,5.176,0,0,1-1.991,1.419A7.127,7.127,0,0,1,304.184,75.154ZM321.542,75,316.5,63.252h2.86L323.7,73.614H322.29l4.488-10.362h2.64L324.38,75Zm9.614,0-.022-11.748,2.728.022L333.884,75Zm1.364-13.684a1.734,1.734,0,0,1-1.265-.484,1.634,1.634,0,0,1,0-2.343,1.757,1.757,0,0,1,1.265-.473,1.806,1.806,0,0,1,1.265.451,1.468,1.468,0,0,1,.5,1.133,1.679,1.679,0,0,1-.484,1.221A1.7,1.7,0,0,1,332.52,61.316Zm8.6,13.838a10.28,10.28,0,0,1-2.827-.385,7.272,7.272,0,0,1-2.145-.935l1.056-2.09a7.51,7.51,0,0,0,1.892.836,7.622,7.622,0,0,0,2.2.33,3.791,3.791,0,0,0,1.881-.352,1.067,1.067,0,0,0,.583-.946.821.821,0,0,0-.4-.737,3.081,3.081,0,0,0-1.034-.385q-.638-.132-1.419-.242t-1.562-.3a5.391,5.391,0,0,1-1.419-.55,2.94,2.94,0,0,1-1.034-.979,2.973,2.973,0,0,1-.4-1.628,3.09,3.09,0,0,1,.638-1.947,4.073,4.073,0,0,1,1.793-1.276,7.521,7.521,0,0,1,2.739-.451,11.224,11.224,0,0,1,2.4.264,6.49,6.49,0,0,1,2,.748l-1.056,2.09a5.569,5.569,0,0,0-1.683-.693,7.787,7.787,0,0,0-1.683-.187,3.619,3.619,0,0,0-1.859.374,1.1,1.1,0,0,0-.605.946.888.888,0,0,0,.4.792,3.231,3.231,0,0,0,1.034.418,13.091,13.091,0,0,0,1.419.253,12.57,12.57,0,0,1,1.551.3,6.541,6.541,0,0,1,1.419.539,2.733,2.733,0,0,1,1.045.957,2.927,2.927,0,0,1,.4,1.606,2.979,2.979,0,0,1-.649,1.914A4.178,4.178,0,0,1,343.96,74.7,8,8,0,0,1,341.122,75.154ZM348.844,75l-.022-11.748,2.728.022L351.572,75Zm1.364-13.684a1.734,1.734,0,0,1-1.265-.484,1.634,1.634,0,0,1,0-2.343,1.757,1.757,0,0,1,1.265-.473,1.806,1.806,0,0,1,1.265.451,1.468,1.468,0,0,1,.5,1.133,1.679,1.679,0,0,1-.484,1.221A1.7,1.7,0,0,1,350.208,61.316ZM360.46,75.154a6.761,6.761,0,0,1-3.212-.792,5.78,5.78,0,0,1-2.222-2.123,5.92,5.92,0,0,1-.814-3.113,5.8,5.8,0,0,1,3.047-5.236,6.522,6.522,0,0,1,3.2-.77,6.631,6.631,0,0,1,3.234.77A5.806,5.806,0,0,1,365.916,66a5.9,5.9,0,0,1,.814,3.124,6,6,0,0,1-.8,3.1,5.637,5.637,0,0,1-2.233,2.134A6.894,6.894,0,0,1,360.46,75.154Zm0-2.354a3.652,3.652,0,0,0,1.8-.44,3.113,3.113,0,0,0,1.243-1.276,4.312,4.312,0,0,0,0-3.927,3.129,3.129,0,0,0-1.243-1.265,3.652,3.652,0,0,0-1.8-.44,3.545,3.545,0,0,0-1.771.44,3.224,3.224,0,0,0-1.243,1.265,4.4,4.4,0,0,0,0,3.927,3.283,3.283,0,0,0,1.243,1.287A3.324,3.324,0,0,0,360.46,72.8Zm15.576-9.68a5.6,5.6,0,0,1,2.519.55,4.031,4.031,0,0,1,1.749,1.683,5.9,5.9,0,0,1,.638,2.915V75h-2.75V68.62a3.259,3.259,0,0,0-.737-2.332,2.712,2.712,0,0,0-2.057-.77,3.612,3.612,0,0,0-1.716.4,2.714,2.714,0,0,0-1.155,1.177,4.238,4.238,0,0,0-.407,1.969V75h-2.75V63.252h2.618V66.42l-.462-.968a4.164,4.164,0,0,1,1.793-1.727A5.862,5.862,0,0,1,376.036,63.12Zm19.756,12.034a6.761,6.761,0,0,1-3.212-.792,5.78,5.78,0,0,1-2.222-2.123,5.92,5.92,0,0,1-.814-3.113,5.8,5.8,0,0,1,3.047-5.236,6.522,6.522,0,0,1,3.2-.77,6.631,6.631,0,0,1,3.234.77A5.806,5.806,0,0,1,401.248,66a5.9,5.9,0,0,1,.814,3.124,6,6,0,0,1-.8,3.1,5.637,5.637,0,0,1-2.233,2.134A6.894,6.894,0,0,1,395.792,75.154Zm0-2.354a3.652,3.652,0,0,0,1.8-.44,3.113,3.113,0,0,0,1.243-1.276,4.312,4.312,0,0,0,0-3.927,3.129,3.129,0,0,0-1.243-1.265,3.652,3.652,0,0,0-1.8-.44,3.545,3.545,0,0,0-1.771.44,3.224,3.224,0,0,0-1.243,1.265,4.4,4.4,0,0,0,0,3.927,3.283,3.283,0,0,0,1.243,1.287A3.324,3.324,0,0,0,395.792,72.8Zm9.284,2.2V62.592a4.045,4.045,0,0,1,1.089-2.959,4.163,4.163,0,0,1,3.113-1.111,5.94,5.94,0,0,1,1.375.154,2.914,2.914,0,0,1,1.089.484l-.748,2.068a2.14,2.14,0,0,0-.7-.363,2.77,2.77,0,0,0-.814-.121,1.687,1.687,0,0,0-1.3.473,2.018,2.018,0,0,0-.44,1.419v1.32l.088,1.232V75Zm-1.936-9.46v-2.2h7.832v2.2Zm21.032,9.614a6.761,6.761,0,0,1-3.212-.792,5.78,5.78,0,0,1-2.222-2.123,5.92,5.92,0,0,1-.814-3.113,5.8,5.8,0,0,1,3.047-5.236,6.522,6.522,0,0,1,3.2-.77,6.631,6.631,0,0,1,3.234.77A5.806,5.806,0,0,1,429.628,66a5.9,5.9,0,0,1,.814,3.124,6,6,0,0,1-.8,3.1,5.637,5.637,0,0,1-2.233,2.134A6.894,6.894,0,0,1,424.172,75.154Zm0-2.354a3.652,3.652,0,0,0,1.8-.44,3.113,3.113,0,0,0,1.243-1.276,4.312,4.312,0,0,0,0-3.927,3.129,3.129,0,0,0-1.243-1.265,3.652,3.652,0,0,0-1.8-.44,3.545,3.545,0,0,0-1.771.44,3.224,3.224,0,0,0-1.243,1.265,4.4,4.4,0,0,0,0,3.927,3.283,3.283,0,0,0,1.243,1.287A3.324,3.324,0,0,0,424.172,72.8Zm13.882,2.354a5.924,5.924,0,0,1-2.64-.561,4.026,4.026,0,0,1-1.782-1.716,5.977,5.977,0,0,1-.638-2.915v-6.71h2.75v6.336a3.4,3.4,0,0,0,.715,2.365,2.62,2.62,0,0,0,2.035.781,3.419,3.419,0,0,0,1.683-.4A2.753,2.753,0,0,0,441.3,71.15a4.252,4.252,0,0,0,.407-1.958v-5.94h2.75V75h-2.618V71.832l.462.968a4.044,4.044,0,0,1-1.738,1.749A5.281,5.281,0,0,1,438.054,75.154ZM448.064,75V63.252h2.618v3.234l-.308-.946a3.715,3.715,0,0,1,1.661-1.8,5.864,5.864,0,0,1,2.827-.616v2.618a1.934,1.934,0,0,0-.33-.055q-.154-.011-.308-.011a3.382,3.382,0,0,0-2.486.913,3.661,3.661,0,0,0-.924,2.717V75ZM101.619,102.154a6.791,6.791,0,0,1-3.289-.781,5.774,5.774,0,0,1-2.255-2.145,6.339,6.339,0,0,1,0-6.215A5.721,5.721,0,0,1,98.33,90.89a6.87,6.87,0,0,1,3.289-.77,6.37,6.37,0,0,1,3.025.693,4.605,4.605,0,0,1,1.991,2.035l-2.112,1.232a3.378,3.378,0,0,0-1.287-1.232,3.491,3.491,0,0,0-1.639-.4,3.778,3.778,0,0,0-1.826.44,3.162,3.162,0,0,0-1.276,1.265,4.427,4.427,0,0,0,0,3.938,3.162,3.162,0,0,0,1.276,1.265,3.777,3.777,0,0,0,1.826.44,3.491,3.491,0,0,0,1.639-.4,3.378,3.378,0,0,0,1.287-1.232l2.112,1.232a4.76,4.76,0,0,1-1.991,2.035A6.21,6.21,0,0,1,101.619,102.154Zm7.3-.154L108.9,85.676h2.75V102Zm6.358,0-.022-11.748,2.728.022L118.009,102Zm1.364-13.684a1.734,1.734,0,0,1-1.265-.484,1.634,1.634,0,0,1,0-2.343,1.756,1.756,0,0,1,1.265-.473,1.806,1.806,0,0,1,1.265.451A1.468,1.468,0,0,1,118.4,86.6a1.679,1.679,0,0,1-.484,1.221A1.7,1.7,0,0,1,116.645,88.316Zm10.494,13.838a7.159,7.159,0,0,1-3.421-.781,5.659,5.659,0,0,1-2.266-2.145,6,6,0,0,1-.8-3.1,6.114,6.114,0,0,1,.781-3.113,5.6,5.6,0,0,1,2.156-2.123,6.306,6.306,0,0,1,3.135-.77,6.174,6.174,0,0,1,3.058.748,5.415,5.415,0,0,1,2.112,2.112,6.427,6.427,0,0,1,.77,3.212q0,.176-.011.4t-.033.418h-9.79V95.18h8.338l-1.078.572a3.376,3.376,0,0,0-.418-1.782,3.219,3.219,0,0,0-1.2-1.21,3.424,3.424,0,0,0-1.749-.44,3.468,3.468,0,0,0-1.771.44,3.119,3.119,0,0,0-1.188,1.221,3.757,3.757,0,0,0-.429,1.837v.44a3.588,3.588,0,0,0,.484,1.87,3.227,3.227,0,0,0,1.364,1.254,4.467,4.467,0,0,0,2.024.44,4.884,4.884,0,0,0,1.782-.308,3.793,3.793,0,0,0,1.408-.968l1.474,1.694a5.176,5.176,0,0,1-1.991,1.419A7.126,7.126,0,0,1,127.139,102.154ZM141.967,90.12a5.6,5.6,0,0,1,2.519.55,4.031,4.031,0,0,1,1.749,1.683,5.9,5.9,0,0,1,.638,2.915V102h-2.75V95.62a3.259,3.259,0,0,0-.737-2.332,2.712,2.712,0,0,0-2.057-.77,3.612,3.612,0,0,0-1.716.4,2.714,2.714,0,0,0-1.155,1.177,4.238,4.238,0,0,0-.407,1.969V102H135.3V90.252h2.618V93.42l-.462-.968a4.164,4.164,0,0,1,1.793-1.727A5.862,5.862,0,0,1,141.967,90.12Zm12.826,12.034a4.18,4.18,0,0,1-2.992-1,3.888,3.888,0,0,1-1.056-2.959V87.656h2.75V98.128a1.836,1.836,0,0,0,.429,1.3,1.555,1.555,0,0,0,1.2.462,2.416,2.416,0,0,0,1.54-.484l.77,1.958a3.231,3.231,0,0,1-1.188.594A5.337,5.337,0,0,1,154.793,102.154Zm-5.984-9.614v-2.2h7.832v2.2Zm14.52,9.614a10.28,10.28,0,0,1-2.827-.385,7.273,7.273,0,0,1-2.145-.935l1.056-2.09a7.51,7.51,0,0,0,1.892.836,7.622,7.622,0,0,0,2.2.33,3.791,3.791,0,0,0,1.881-.352,1.067,1.067,0,0,0,.583-.946.821.821,0,0,0-.4-.737,3.08,3.08,0,0,0-1.034-.385q-.638-.132-1.419-.242t-1.562-.3a5.391,5.391,0,0,1-1.419-.55,2.939,2.939,0,0,1-1.034-.979,2.973,2.973,0,0,1-.4-1.628,3.09,3.09,0,0,1,.638-1.947,4.073,4.073,0,0,1,1.793-1.276,7.52,7.52,0,0,1,2.739-.451,11.223,11.223,0,0,1,2.4.264,6.49,6.49,0,0,1,2,.748l-1.056,2.09a5.569,5.569,0,0,0-1.683-.693,7.788,7.788,0,0,0-1.683-.187,3.619,3.619,0,0,0-1.859.374,1.1,1.1,0,0,0-.6.946.888.888,0,0,0,.4.792,3.23,3.23,0,0,0,1.034.418,13.091,13.091,0,0,0,1.419.253,12.569,12.569,0,0,1,1.551.3,6.541,6.541,0,0,1,1.419.539,2.733,2.733,0,0,1,1.045.957,2.927,2.927,0,0,1,.4,1.606,2.979,2.979,0,0,1-.649,1.914,4.178,4.178,0,0,1-1.837,1.265A8,8,0,0,1,163.329,102.154Zm6.974,3.168,1.276-4.862.374,1.628a1.835,1.835,0,0,1-1.287-.473,1.658,1.658,0,0,1-.517-1.287,1.733,1.733,0,0,1,1.782-1.826,1.73,1.73,0,0,1,1.276.506,1.785,1.785,0,0,1,.506,1.32,2.769,2.769,0,0,1-.044.473,5.117,5.117,0,0,1-.143.583,7.857,7.857,0,0,1-.319.836l-1.122,3.1ZM185.065,102l-4.312-11.748h2.6l3.7,10.362h-1.232l3.872-10.362h2.31l3.762,10.362h-1.21l3.806-10.362h2.442L196.461,102h-2.64l-3.432-9.174h.814L187.7,102Zm24.288-11.88a5.6,5.6,0,0,1,2.519.55,4.031,4.031,0,0,1,1.749,1.683,5.9,5.9,0,0,1,.638,2.915V102h-2.75V95.62a3.259,3.259,0,0,0-.737-2.332,2.712,2.712,0,0,0-2.057-.77,3.612,3.612,0,0,0-1.716.4,2.714,2.714,0,0,0-1.155,1.177,4.238,4.238,0,0,0-.407,1.969V102h-2.75V85.676h2.75V93.42l-.594-.968a4.164,4.164,0,0,1,1.793-1.727A5.862,5.862,0,0,1,209.353,90.12ZM217.779,102l-.022-11.748,2.728.022L220.507,102Zm1.364-13.684a1.734,1.734,0,0,1-1.265-.484,1.634,1.634,0,0,1,0-2.343,1.756,1.756,0,0,1,1.265-.473,1.806,1.806,0,0,1,1.265.451A1.468,1.468,0,0,1,220.9,86.6a1.679,1.679,0,0,1-.484,1.221A1.7,1.7,0,0,1,219.143,88.316ZM229.5,102.154a6.791,6.791,0,0,1-3.289-.781,5.774,5.774,0,0,1-2.255-2.145,6.339,6.339,0,0,1,0-6.215,5.721,5.721,0,0,1,2.255-2.123,6.87,6.87,0,0,1,3.289-.77,6.37,6.37,0,0,1,3.025.693,4.605,4.605,0,0,1,1.991,2.035l-2.112,1.232a3.378,3.378,0,0,0-1.287-1.232,3.491,3.491,0,0,0-1.639-.4,3.778,3.778,0,0,0-1.826.44,3.162,3.162,0,0,0-1.276,1.265,4.427,4.427,0,0,0,0,3.938,3.162,3.162,0,0,0,1.276,1.265,3.778,3.778,0,0,0,1.826.44,3.491,3.491,0,0,0,1.639-.4,3.378,3.378,0,0,0,1.287-1.232l2.112,1.232a4.76,4.76,0,0,1-1.991,2.035A6.21,6.21,0,0,1,229.5,102.154ZM243.453,90.12a5.6,5.6,0,0,1,2.519.55,4.031,4.031,0,0,1,1.749,1.683,5.9,5.9,0,0,1,.638,2.915V102h-2.75V95.62a3.259,3.259,0,0,0-.737-2.332,2.713,2.713,0,0,0-2.057-.77,3.612,3.612,0,0,0-1.716.4,2.714,2.714,0,0,0-1.155,1.177,4.238,4.238,0,0,0-.407,1.969V102h-2.75V85.676h2.75V93.42l-.594-.968a4.164,4.164,0,0,1,1.793-1.727A5.862,5.862,0,0,1,243.453,90.12Zm20,12.034a7.159,7.159,0,0,1-3.421-.781,5.658,5.658,0,0,1-2.266-2.145,6,6,0,0,1-.8-3.1,6.114,6.114,0,0,1,.781-3.113A5.6,5.6,0,0,1,259.9,90.89a6.306,6.306,0,0,1,3.135-.77,6.174,6.174,0,0,1,3.058.748A5.415,5.415,0,0,1,268.2,92.98a6.427,6.427,0,0,1,.77,3.212q0,.176-.011.4t-.033.418h-9.79V95.18h8.338l-1.078.572a3.376,3.376,0,0,0-.418-1.782,3.219,3.219,0,0,0-1.2-1.21,3.424,3.424,0,0,0-1.749-.44,3.468,3.468,0,0,0-1.771.44,3.118,3.118,0,0,0-1.188,1.221,3.757,3.757,0,0,0-.429,1.837v.44a3.589,3.589,0,0,0,.484,1.87,3.227,3.227,0,0,0,1.364,1.254,4.467,4.467,0,0,0,2.024.44,4.884,4.884,0,0,0,1.782-.308,3.793,3.793,0,0,0,1.408-.968l1.474,1.694a5.176,5.176,0,0,1-1.991,1.419A7.127,7.127,0,0,1,263.451,102.154ZM274.517,102l-5.038-11.748h2.86l4.334,10.362h-1.408l4.488-10.362h2.64L277.355,102Zm14.784.154a7.159,7.159,0,0,1-3.421-.781,5.658,5.658,0,0,1-2.266-2.145,6,6,0,0,1-.8-3.1,6.114,6.114,0,0,1,.781-3.113,5.6,5.6,0,0,1,2.156-2.123,6.306,6.306,0,0,1,3.135-.77,6.174,6.174,0,0,1,3.058.748,5.415,5.415,0,0,1,2.112,2.112,6.427,6.427,0,0,1,.77,3.212q0,.176-.011.4t-.033.418h-9.79V95.18h8.338l-1.078.572a3.376,3.376,0,0,0-.418-1.782,3.219,3.219,0,0,0-1.2-1.21,3.424,3.424,0,0,0-1.749-.44,3.468,3.468,0,0,0-1.771.44,3.118,3.118,0,0,0-1.188,1.221,3.757,3.757,0,0,0-.429,1.837v.44a3.589,3.589,0,0,0,.484,1.87,3.227,3.227,0,0,0,1.364,1.254,4.467,4.467,0,0,0,2.024.44,4.884,4.884,0,0,0,1.782-.308,3.793,3.793,0,0,0,1.408-.968l1.474,1.694a5.176,5.176,0,0,1-1.991,1.419A7.127,7.127,0,0,1,289.3,102.154ZM304.129,90.12a5.6,5.6,0,0,1,2.519.55,4.031,4.031,0,0,1,1.749,1.683,5.9,5.9,0,0,1,.638,2.915V102h-2.75V95.62a3.259,3.259,0,0,0-.737-2.332,2.712,2.712,0,0,0-2.057-.77,3.612,3.612,0,0,0-1.716.4,2.714,2.714,0,0,0-1.155,1.177,4.238,4.238,0,0,0-.407,1.969V102h-2.75V90.252h2.618V93.42l-.462-.968a4.164,4.164,0,0,1,1.793-1.727A5.862,5.862,0,0,1,304.129,90.12Zm12.826,12.034a4.18,4.18,0,0,1-2.992-1,3.888,3.888,0,0,1-1.056-2.959V87.656h2.75V98.128a1.836,1.836,0,0,0,.429,1.3,1.555,1.555,0,0,0,1.2.462,2.416,2.416,0,0,0,1.54-.484l.77,1.958a3.231,3.231,0,0,1-1.188.594A5.337,5.337,0,0,1,316.955,102.154Zm-5.984-9.614v-2.2H318.8v2.2Zm15.862,9.614a5.924,5.924,0,0,1-2.64-.561,4.026,4.026,0,0,1-1.782-1.716,5.977,5.977,0,0,1-.638-2.915v-6.71h2.75v6.336a3.4,3.4,0,0,0,.715,2.365,2.62,2.62,0,0,0,2.035.781,3.419,3.419,0,0,0,1.683-.4,2.753,2.753,0,0,0,1.122-1.188,4.252,4.252,0,0,0,.407-1.958v-5.94h2.75V102h-2.618V98.832l.462.968a4.044,4.044,0,0,1-1.738,1.749A5.281,5.281,0,0,1,326.833,102.154ZM344.081,102V99.624l-.154-.506V94.96a2.434,2.434,0,0,0-.726-1.881,3.146,3.146,0,0,0-2.2-.671,6.318,6.318,0,0,0-1.947.308,4.783,4.783,0,0,0-1.617.858l-1.078-2a6.521,6.521,0,0,1,2.255-1.089,10.12,10.12,0,0,1,2.717-.363,5.812,5.812,0,0,1,3.949,1.221,4.751,4.751,0,0,1,1.4,3.773V102Zm-3.7.154a5.525,5.525,0,0,1-2.31-.451,3.569,3.569,0,0,1-1.529-1.254,3.182,3.182,0,0,1-.539-1.815,3.408,3.408,0,0,1,.473-1.782,3.189,3.189,0,0,1,1.551-1.254,7.371,7.371,0,0,1,2.86-.462h3.41v1.826h-3.212a2.865,2.865,0,0,0-1.892.451,1.459,1.459,0,0,0-.484,1.111,1.4,1.4,0,0,0,.594,1.188,2.723,2.723,0,0,0,1.65.44,3.573,3.573,0,0,0,1.815-.462,2.619,2.619,0,0,0,1.155-1.364l.462,1.65a3.056,3.056,0,0,1-1.419,1.606A5.248,5.248,0,0,1,340.385,102.154Zm9.834-.154L350.2,85.676h2.75V102Zm6.358,0-.022-16.324h2.75V102Zm7.3,4.422a5.4,5.4,0,0,1-1.716-.286,4.07,4.07,0,0,1-1.43-.792l1.1-2.024a3.326,3.326,0,0,0,.946.594,2.779,2.779,0,0,0,1.078.22,1.864,1.864,0,0,0,1.21-.374,3.384,3.384,0,0,0,.858-1.254l.682-1.54.22-.33,4.444-10.384h2.64l-5.5,12.694a7.663,7.663,0,0,1-1.221,2.09,3.71,3.71,0,0,1-1.5,1.078A5.152,5.152,0,0,1,363.881,106.422Zm2.42-4L361,90.252h2.86l4.312,10.142Zm22.066-12.3a5.6,5.6,0,0,1,2.519.55,4.031,4.031,0,0,1,1.749,1.683,5.9,5.9,0,0,1,.638,2.915V102h-2.75V95.62a3.259,3.259,0,0,0-.737-2.332,2.712,2.712,0,0,0-2.057-.77,3.612,3.612,0,0,0-1.716.4,2.714,2.714,0,0,0-1.155,1.177,4.238,4.238,0,0,0-.407,1.969V102H381.7V85.676h2.75V93.42l-.594-.968a4.164,4.164,0,0,1,1.793-1.727A5.862,5.862,0,0,1,388.367,90.12Zm13.948,12.034a7.159,7.159,0,0,1-3.421-.781,5.658,5.658,0,0,1-2.266-2.145,6,6,0,0,1-.8-3.1,6.114,6.114,0,0,1,.781-3.113,5.6,5.6,0,0,1,2.156-2.123,6.306,6.306,0,0,1,3.135-.77,6.174,6.174,0,0,1,3.058.748,5.415,5.415,0,0,1,2.112,2.112,6.427,6.427,0,0,1,.77,3.212q0,.176-.011.4t-.033.418H398V95.18h8.338l-1.078.572a3.376,3.376,0,0,0-.418-1.782,3.219,3.219,0,0,0-1.2-1.21,3.424,3.424,0,0,0-1.749-.44,3.468,3.468,0,0,0-1.771.44,3.118,3.118,0,0,0-1.188,1.221,3.757,3.757,0,0,0-.429,1.837v.44a3.589,3.589,0,0,0,.484,1.87,3.227,3.227,0,0,0,1.364,1.254,4.467,4.467,0,0,0,2.024.44,4.884,4.884,0,0,0,1.782-.308,3.793,3.793,0,0,0,1.408-.968l1.474,1.694a5.176,5.176,0,0,1-1.991,1.419A7.127,7.127,0,0,1,402.315,102.154ZM410.5,102l-.022-16.324h2.75V102Zm12.848.154a5.238,5.238,0,0,1-2.607-.66,4.691,4.691,0,0,1-1.87-1.991,7.28,7.28,0,0,1-.693-3.377,7.468,7.468,0,0,1,.671-3.388,4.523,4.523,0,0,1,1.837-1.969,5.381,5.381,0,0,1,2.662-.649,6.157,6.157,0,0,1,3.069.748,5.557,5.557,0,0,1,2.112,2.09,6.838,6.838,0,0,1,0,6.347,5.534,5.534,0,0,1-2.112,2.1A6.157,6.157,0,0,1,423.347,102.154Zm-6.512,4.114V90.252h2.618v2.772l-.088,3.124.22,3.124v7Zm6.2-6.468a3.545,3.545,0,0,0,1.771-.44,3.205,3.205,0,0,0,1.243-1.276,4.4,4.4,0,0,0,0-3.927,3.224,3.224,0,0,0-1.243-1.265,3.545,3.545,0,0,0-1.771-.44,3.607,3.607,0,0,0-1.782.44A3.2,3.2,0,0,0,420,94.157a4.4,4.4,0,0,0,0,3.927,3.184,3.184,0,0,0,1.254,1.276A3.606,3.606,0,0,0,423.039,99.8Zm12.518,2.354a10.28,10.28,0,0,1-2.827-.385,7.272,7.272,0,0,1-2.145-.935l1.056-2.09a7.51,7.51,0,0,0,1.892.836,7.622,7.622,0,0,0,2.2.33,3.791,3.791,0,0,0,1.881-.352,1.067,1.067,0,0,0,.583-.946.821.821,0,0,0-.4-.737,3.081,3.081,0,0,0-1.034-.385q-.638-.132-1.419-.242t-1.562-.3a5.391,5.391,0,0,1-1.419-.55,2.94,2.94,0,0,1-1.034-.979,2.973,2.973,0,0,1-.4-1.628,3.09,3.09,0,0,1,.638-1.947,4.073,4.073,0,0,1,1.793-1.276,7.52,7.52,0,0,1,2.739-.451,11.223,11.223,0,0,1,2.4.264,6.49,6.49,0,0,1,2,.748l-1.056,2.09a5.569,5.569,0,0,0-1.683-.693,7.787,7.787,0,0,0-1.683-.187,3.619,3.619,0,0,0-1.859.374,1.1,1.1,0,0,0-.605.946.888.888,0,0,0,.4.792,3.231,3.231,0,0,0,1.034.418,13.09,13.09,0,0,0,1.419.253,12.571,12.571,0,0,1,1.551.3,6.541,6.541,0,0,1,1.419.539,2.733,2.733,0,0,1,1.045.957,2.927,2.927,0,0,1,.4,1.606,2.979,2.979,0,0,1-.649,1.914A4.178,4.178,0,0,1,438.4,101.7,8,8,0,0,1,435.557,102.154Zm18.194,0a4.18,4.18,0,0,1-2.992-1,3.888,3.888,0,0,1-1.056-2.959V87.656h2.75V98.128a1.836,1.836,0,0,0,.429,1.3,1.555,1.555,0,0,0,1.2.462,2.416,2.416,0,0,0,1.54-.484l.77,1.958a3.231,3.231,0,0,1-1.188.594A5.337,5.337,0,0,1,453.751,102.154Zm-5.984-9.614v-2.2H455.6v2.2Zm15.774,9.614a6.761,6.761,0,0,1-3.212-.792,5.78,5.78,0,0,1-2.222-2.123,5.92,5.92,0,0,1-.814-3.113,5.8,5.8,0,0,1,3.047-5.236,6.522,6.522,0,0,1,3.2-.77,6.631,6.631,0,0,1,3.234.77A5.806,5.806,0,0,1,469,93a5.9,5.9,0,0,1,.814,3.124,6,6,0,0,1-.8,3.1,5.637,5.637,0,0,1-2.233,2.134A6.894,6.894,0,0,1,463.541,102.154Zm0-2.354a3.652,3.652,0,0,0,1.8-.44,3.113,3.113,0,0,0,1.243-1.276,4.312,4.312,0,0,0,0-3.927,3.129,3.129,0,0,0-1.243-1.265,3.652,3.652,0,0,0-1.8-.44,3.545,3.545,0,0,0-1.771.44,3.224,3.224,0,0,0-1.243,1.265,4.4,4.4,0,0,0,0,3.927,3.283,3.283,0,0,0,1.243,1.287A3.324,3.324,0,0,0,463.541,99.8ZM112.652,129.154a5.238,5.238,0,0,1-2.607-.66,4.691,4.691,0,0,1-1.87-1.991,7.28,7.28,0,0,1-.693-3.377,7.468,7.468,0,0,1,.671-3.388,4.522,4.522,0,0,1,1.837-1.969,5.381,5.381,0,0,1,2.662-.649,6.157,6.157,0,0,1,3.069.748,5.557,5.557,0,0,1,2.112,2.09,6.838,6.838,0,0,1,0,6.347,5.535,5.535,0,0,1-2.112,2.1A6.157,6.157,0,0,1,112.652,129.154Zm-6.512,4.114V117.252h2.618v2.772l-.088,3.124.22,3.124v7Zm6.2-6.468a3.545,3.545,0,0,0,1.771-.44,3.205,3.205,0,0,0,1.243-1.276,4.4,4.4,0,0,0,0-3.927,3.223,3.223,0,0,0-1.243-1.265,3.545,3.545,0,0,0-1.771-.44,3.607,3.607,0,0,0-1.782.44,3.2,3.2,0,0,0-1.254,1.265,4.4,4.4,0,0,0,0,3.927,3.183,3.183,0,0,0,1.254,1.276A3.607,3.607,0,0,0,112.344,126.8Zm8.888,2.2V117.252h2.618v3.234l-.308-.946a3.716,3.716,0,0,1,1.661-1.8,5.864,5.864,0,0,1,2.827-.616v2.618a1.934,1.934,0,0,0-.33-.055q-.154-.011-.308-.011a3.382,3.382,0,0,0-2.486.913,3.661,3.661,0,0,0-.924,2.717V129Zm14.3.154a6.761,6.761,0,0,1-3.212-.792,5.781,5.781,0,0,1-2.222-2.123,5.92,5.92,0,0,1-.814-3.113,5.8,5.8,0,0,1,3.047-5.236,6.522,6.522,0,0,1,3.2-.77,6.631,6.631,0,0,1,3.234.77A5.807,5.807,0,0,1,140.988,120a5.9,5.9,0,0,1,.814,3.124,6,6,0,0,1-.8,3.1,5.637,5.637,0,0,1-2.233,2.134A6.894,6.894,0,0,1,135.532,129.154Zm0-2.354a3.652,3.652,0,0,0,1.8-.44,3.112,3.112,0,0,0,1.243-1.276,4.312,4.312,0,0,0,0-3.927,3.129,3.129,0,0,0-1.243-1.265,3.652,3.652,0,0,0-1.8-.44,3.545,3.545,0,0,0-1.771.44,3.223,3.223,0,0,0-1.243,1.265,4.4,4.4,0,0,0,0,3.927,3.283,3.283,0,0,0,1.243,1.287A3.324,3.324,0,0,0,135.532,126.8Zm13.882,2.354a6.119,6.119,0,0,1-3.047-.759,5.513,5.513,0,0,1-2.123-2.1,6.9,6.9,0,0,1,0-6.336,5.436,5.436,0,0,1,2.123-2.09,6.191,6.191,0,0,1,3.047-.748,5.335,5.335,0,0,1,2.64.649,4.588,4.588,0,0,1,1.848,1.969,7.365,7.365,0,0,1,.682,3.388,7.589,7.589,0,0,1-.66,3.377,4.515,4.515,0,0,1-1.826,1.991A5.354,5.354,0,0,1,149.414,129.154Zm.33-2.354a3.545,3.545,0,0,0,1.771-.44,3.279,3.279,0,0,0,1.254-1.276,4.312,4.312,0,0,0,0-3.927,3.3,3.3,0,0,0-1.254-1.265,3.784,3.784,0,0,0-3.542,0,3.3,3.3,0,0,0-1.254,1.265,4.312,4.312,0,0,0,0,3.927,3.28,3.28,0,0,0,1.254,1.276A3.545,3.545,0,0,0,149.744,126.8Zm3.564,2.2v-2.772l.11-3.124-.22-3.124v-7.3h2.728V129Zm11.22.154a5.924,5.924,0,0,1-2.64-.561,4.026,4.026,0,0,1-1.782-1.716,5.976,5.976,0,0,1-.638-2.915v-6.71h2.75v6.336a3.4,3.4,0,0,0,.715,2.365,2.62,2.62,0,0,0,2.035.781,3.42,3.42,0,0,0,1.683-.4,2.753,2.753,0,0,0,1.122-1.188,4.252,4.252,0,0,0,.407-1.958v-5.94h2.75V129h-2.618v-3.168l.462.968a4.044,4.044,0,0,1-1.738,1.749A5.281,5.281,0,0,1,164.528,129.154Zm15.4,0a6.791,6.791,0,0,1-3.289-.781,5.774,5.774,0,0,1-2.255-2.145,6.339,6.339,0,0,1,0-6.215,5.721,5.721,0,0,1,2.255-2.123,6.87,6.87,0,0,1,3.289-.77,6.37,6.37,0,0,1,3.025.693,4.605,4.605,0,0,1,1.991,2.035l-2.112,1.232a3.378,3.378,0,0,0-1.287-1.232,3.491,3.491,0,0,0-1.639-.4,3.778,3.778,0,0,0-1.826.44,3.162,3.162,0,0,0-1.276,1.265,4.427,4.427,0,0,0,0,3.938,3.162,3.162,0,0,0,1.276,1.265,3.778,3.778,0,0,0,1.826.44,3.491,3.491,0,0,0,1.639-.4,3.378,3.378,0,0,0,1.287-1.232l2.112,1.232a4.76,4.76,0,0,1-1.991,2.035A6.21,6.21,0,0,1,179.928,129.154Zm12.738,0a7.159,7.159,0,0,1-3.421-.781,5.659,5.659,0,0,1-2.266-2.145,6,6,0,0,1-.8-3.1,6.114,6.114,0,0,1,.781-3.113,5.6,5.6,0,0,1,2.156-2.123,6.306,6.306,0,0,1,3.135-.77,6.174,6.174,0,0,1,3.058.748,5.415,5.415,0,0,1,2.112,2.112,6.427,6.427,0,0,1,.77,3.212q0,.176-.011.4t-.033.418h-9.79V122.18h8.338l-1.078.572a3.376,3.376,0,0,0-.418-1.782,3.219,3.219,0,0,0-1.2-1.21,3.424,3.424,0,0,0-1.749-.44,3.468,3.468,0,0,0-1.771.44,3.118,3.118,0,0,0-1.188,1.221,3.757,3.757,0,0,0-.429,1.837v.44a3.589,3.589,0,0,0,.484,1.87,3.227,3.227,0,0,0,1.364,1.254,4.467,4.467,0,0,0,2.024.44,4.884,4.884,0,0,0,1.782-.308,3.793,3.793,0,0,0,1.408-.968l1.474,1.694a5.176,5.176,0,0,1-1.991,1.419A7.126,7.126,0,0,1,192.666,129.154Zm20.746,0a5.309,5.309,0,0,1-2.662-.66,4.58,4.58,0,0,1-1.837-1.991,7.482,7.482,0,0,1-.671-3.377,7.266,7.266,0,0,1,.693-3.388,4.633,4.633,0,0,1,1.87-1.969,5.308,5.308,0,0,1,2.607-.649,6.157,6.157,0,0,1,3.069.748,5.557,5.557,0,0,1,2.112,2.09,6.816,6.816,0,0,1,0,6.336,5.638,5.638,0,0,1-2.112,2.1A6.086,6.086,0,0,1,213.412,129.154ZM206.9,129V112.676h2.75v7.3l-.22,3.124.088,3.124V129Zm6.2-2.2a3.545,3.545,0,0,0,1.771-.44,3.205,3.205,0,0,0,1.243-1.276,4.4,4.4,0,0,0,0-3.927,3.223,3.223,0,0,0-1.243-1.265,3.545,3.545,0,0,0-1.771-.44,3.607,3.607,0,0,0-1.782.44,3.2,3.2,0,0,0-1.254,1.265,4.4,4.4,0,0,0,0,3.927,3.183,3.183,0,0,0,1.254,1.276A3.607,3.607,0,0,0,213.1,126.8Zm14.41,2.354a7.159,7.159,0,0,1-3.421-.781,5.659,5.659,0,0,1-2.266-2.145,6,6,0,0,1-.8-3.1,6.114,6.114,0,0,1,.781-3.113,5.6,5.6,0,0,1,2.156-2.123,6.306,6.306,0,0,1,3.135-.77,6.174,6.174,0,0,1,3.058.748,5.415,5.415,0,0,1,2.112,2.112,6.427,6.427,0,0,1,.77,3.212q0,.176-.011.4t-.033.418H223.2V122.18h8.338l-1.078.572a3.376,3.376,0,0,0-.418-1.782,3.219,3.219,0,0,0-1.2-1.21,3.424,3.424,0,0,0-1.749-.44,3.468,3.468,0,0,0-1.771.44,3.118,3.118,0,0,0-1.188,1.221,3.757,3.757,0,0,0-.429,1.837v.44a3.589,3.589,0,0,0,.484,1.87,3.227,3.227,0,0,0,1.364,1.254,4.467,4.467,0,0,0,2.024.44,4.884,4.884,0,0,0,1.782-.308,3.793,3.793,0,0,0,1.408-.968l1.474,1.694a5.176,5.176,0,0,1-1.991,1.419A7.126,7.126,0,0,1,227.514,129.154Zm12.584,0a4.18,4.18,0,0,1-2.992-1,3.888,3.888,0,0,1-1.056-2.959V114.656h2.75v10.472a1.836,1.836,0,0,0,.429,1.3,1.555,1.555,0,0,0,1.2.462,2.416,2.416,0,0,0,1.54-.484l.77,1.958a3.231,3.231,0,0,1-1.188.594A5.337,5.337,0,0,1,240.1,129.154Zm-5.984-9.614v-2.2h7.832v2.2Zm15.026,9.614a4.18,4.18,0,0,1-2.992-1,3.888,3.888,0,0,1-1.056-2.959V114.656h2.75v10.472a1.836,1.836,0,0,0,.429,1.3,1.555,1.555,0,0,0,1.2.462,2.416,2.416,0,0,0,1.54-.484l.77,1.958a3.231,3.231,0,0,1-1.188.594A5.337,5.337,0,0,1,249.14,129.154Zm-5.984-9.614v-2.2h7.832v2.2Zm16.016,9.614a7.159,7.159,0,0,1-3.421-.781,5.659,5.659,0,0,1-2.266-2.145,6,6,0,0,1-.8-3.1,6.114,6.114,0,0,1,.781-3.113,5.6,5.6,0,0,1,2.156-2.123,6.306,6.306,0,0,1,3.135-.77,6.174,6.174,0,0,1,3.058.748,5.415,5.415,0,0,1,2.112,2.112,6.427,6.427,0,0,1,.77,3.212q0,.176-.011.4t-.033.418h-9.79V122.18H263.2l-1.078.572a3.376,3.376,0,0,0-.418-1.782,3.219,3.219,0,0,0-1.2-1.21,3.424,3.424,0,0,0-1.749-.44,3.468,3.468,0,0,0-1.771.44,3.118,3.118,0,0,0-1.188,1.221,3.757,3.757,0,0,0-.429,1.837v.44a3.589,3.589,0,0,0,.484,1.87,3.227,3.227,0,0,0,1.364,1.254,4.467,4.467,0,0,0,2.024.44,4.884,4.884,0,0,0,1.782-.308,3.793,3.793,0,0,0,1.408-.968l1.474,1.694a5.176,5.176,0,0,1-1.991,1.419A7.127,7.127,0,0,1,259.172,129.154Zm8.162-.154V117.252h2.618v3.234l-.308-.946a3.715,3.715,0,0,1,1.661-1.8,5.864,5.864,0,0,1,2.827-.616v2.618a1.934,1.934,0,0,0-.33-.055q-.154-.011-.308-.011a3.382,3.382,0,0,0-2.486.913,3.661,3.661,0,0,0-.924,2.717V129Zm15.312,0V117.252h2.618v3.234l-.308-.946a3.715,3.715,0,0,1,1.661-1.8,5.864,5.864,0,0,1,2.827-.616v2.618a1.934,1.934,0,0,0-.33-.055q-.154-.011-.308-.011a3.382,3.382,0,0,0-2.486.913,3.661,3.661,0,0,0-.924,2.717V129Zm14.542.154a7.159,7.159,0,0,1-3.421-.781,5.658,5.658,0,0,1-2.266-2.145,6,6,0,0,1-.8-3.1,6.114,6.114,0,0,1,.781-3.113,5.6,5.6,0,0,1,2.156-2.123,6.306,6.306,0,0,1,3.135-.77,6.174,6.174,0,0,1,3.058.748,5.415,5.415,0,0,1,2.112,2.112,6.427,6.427,0,0,1,.77,3.212q0,.176-.011.4t-.033.418h-9.79V122.18h8.338l-1.078.572a3.376,3.376,0,0,0-.418-1.782,3.219,3.219,0,0,0-1.2-1.21,3.424,3.424,0,0,0-1.749-.44,3.468,3.468,0,0,0-1.771.44,3.118,3.118,0,0,0-1.188,1.221,3.757,3.757,0,0,0-.429,1.837v.44a3.589,3.589,0,0,0,.484,1.87,3.227,3.227,0,0,0,1.364,1.254,4.467,4.467,0,0,0,2.024.44,4.884,4.884,0,0,0,1.782-.308,3.793,3.793,0,0,0,1.408-.968l1.474,1.694a5.176,5.176,0,0,1-1.991,1.419A7.127,7.127,0,0,1,297.188,129.154Zm11.792,0a10.28,10.28,0,0,1-2.827-.385,7.273,7.273,0,0,1-2.145-.935l1.056-2.09a7.51,7.51,0,0,0,1.892.836,7.622,7.622,0,0,0,2.2.33,3.791,3.791,0,0,0,1.881-.352,1.067,1.067,0,0,0,.583-.946.821.821,0,0,0-.4-.737,3.081,3.081,0,0,0-1.034-.385q-.638-.132-1.419-.242t-1.562-.3a5.391,5.391,0,0,1-1.419-.55,2.94,2.94,0,0,1-1.034-.979,2.973,2.973,0,0,1-.4-1.628,3.09,3.09,0,0,1,.638-1.947,4.073,4.073,0,0,1,1.793-1.276,7.52,7.52,0,0,1,2.739-.451,11.223,11.223,0,0,1,2.4.264,6.49,6.49,0,0,1,2,.748l-1.056,2.09a5.569,5.569,0,0,0-1.683-.693,7.787,7.787,0,0,0-1.683-.187,3.619,3.619,0,0,0-1.859.374,1.1,1.1,0,0,0-.605.946.888.888,0,0,0,.4.792,3.231,3.231,0,0,0,1.034.418,13.09,13.09,0,0,0,1.419.253,12.571,12.571,0,0,1,1.551.3,6.541,6.541,0,0,1,1.419.539,2.733,2.733,0,0,1,1.045.957,2.927,2.927,0,0,1,.4,1.606,2.979,2.979,0,0,1-.649,1.914,4.178,4.178,0,0,1-1.837,1.265A8,8,0,0,1,308.98,129.154Zm12.672,0a5.924,5.924,0,0,1-2.64-.561,4.026,4.026,0,0,1-1.782-1.716,5.977,5.977,0,0,1-.638-2.915v-6.71h2.75v6.336a3.4,3.4,0,0,0,.715,2.365,2.62,2.62,0,0,0,2.035.781,3.419,3.419,0,0,0,1.683-.4,2.753,2.753,0,0,0,1.122-1.188,4.252,4.252,0,0,0,.407-1.958v-5.94h2.75V129h-2.618v-3.168l.462.968a4.044,4.044,0,0,1-1.738,1.749A5.281,5.281,0,0,1,321.652,129.154ZM331.684,129l-.022-16.324h2.75V129Zm11.33.154a4.18,4.18,0,0,1-2.992-1,3.888,3.888,0,0,1-1.056-2.959V114.656h2.75v10.472a1.836,1.836,0,0,0,.429,1.3,1.555,1.555,0,0,0,1.2.462,2.416,2.416,0,0,0,1.54-.484l.77,1.958a3.231,3.231,0,0,1-1.188.594A5.337,5.337,0,0,1,343.014,129.154Zm-5.984-9.614v-2.2h7.832v2.2Zm14.52,9.614a10.28,10.28,0,0,1-2.827-.385,7.273,7.273,0,0,1-2.145-.935l1.056-2.09a7.51,7.51,0,0,0,1.892.836,7.622,7.622,0,0,0,2.2.33,3.791,3.791,0,0,0,1.881-.352,1.067,1.067,0,0,0,.583-.946.821.821,0,0,0-.4-.737,3.081,3.081,0,0,0-1.034-.385q-.638-.132-1.419-.242t-1.562-.3a5.391,5.391,0,0,1-1.419-.55,2.94,2.94,0,0,1-1.034-.979,2.973,2.973,0,0,1-.4-1.628,3.09,3.09,0,0,1,.638-1.947,4.073,4.073,0,0,1,1.793-1.276,7.52,7.52,0,0,1,2.739-.451,11.223,11.223,0,0,1,2.4.264,6.49,6.49,0,0,1,2,.748l-1.056,2.09a5.569,5.569,0,0,0-1.683-.693,7.787,7.787,0,0,0-1.683-.187,3.619,3.619,0,0,0-1.859.374,1.1,1.1,0,0,0-.605.946.888.888,0,0,0,.4.792,3.231,3.231,0,0,0,1.034.418,13.09,13.09,0,0,0,1.419.253,12.571,12.571,0,0,1,1.551.3,6.541,6.541,0,0,1,1.419.539,2.733,2.733,0,0,1,1.045.957,2.927,2.927,0,0,1,.4,1.606,2.979,2.979,0,0,1-.649,1.914,4.178,4.178,0,0,1-1.837,1.265A8,8,0,0,1,351.55,129.154ZM365.7,129V116.592a4.045,4.045,0,0,1,1.089-2.959,4.163,4.163,0,0,1,3.113-1.111,5.941,5.941,0,0,1,1.375.154,2.914,2.914,0,0,1,1.089.484l-.748,2.068a2.14,2.14,0,0,0-.7-.363,2.77,2.77,0,0,0-.814-.121,1.687,1.687,0,0,0-1.3.473,2.018,2.018,0,0,0-.44,1.419v1.32l.088,1.232V129Zm-1.936-9.46v-2.2h7.832v2.2Zm14.784,9.614a6.761,6.761,0,0,1-3.212-.792,5.78,5.78,0,0,1-2.222-2.123,5.92,5.92,0,0,1-.814-3.113,5.8,5.8,0,0,1,3.047-5.236,6.522,6.522,0,0,1,3.2-.77,6.631,6.631,0,0,1,3.234.77A5.806,5.806,0,0,1,384,120a5.9,5.9,0,0,1,.814,3.124,6,6,0,0,1-.8,3.1,5.637,5.637,0,0,1-2.233,2.134A6.894,6.894,0,0,1,378.544,129.154Zm0-2.354a3.652,3.652,0,0,0,1.8-.44,3.113,3.113,0,0,0,1.243-1.276,4.312,4.312,0,0,0,0-3.927,3.129,3.129,0,0,0-1.243-1.265,3.652,3.652,0,0,0-1.8-.44,3.545,3.545,0,0,0-1.771.44,3.224,3.224,0,0,0-1.243,1.265,4.4,4.4,0,0,0,0,3.927,3.283,3.283,0,0,0,1.243,1.287A3.324,3.324,0,0,0,378.544,126.8Zm8.91,2.2V117.252h2.618v3.234l-.308-.946a3.715,3.715,0,0,1,1.661-1.8,5.864,5.864,0,0,1,2.827-.616v2.618a1.934,1.934,0,0,0-.33-.055q-.154-.011-.308-.011a3.382,3.382,0,0,0-2.486.913,3.661,3.661,0,0,0-.924,2.717V129Zm19.734.154a4.18,4.18,0,0,1-2.992-1,3.888,3.888,0,0,1-1.056-2.959V114.656h2.75v10.472a1.836,1.836,0,0,0,.429,1.3,1.555,1.555,0,0,0,1.2.462,2.416,2.416,0,0,0,1.54-.484l.77,1.958a3.231,3.231,0,0,1-1.188.594A5.337,5.337,0,0,1,407.188,129.154ZM401.2,119.54v-2.2h7.832v2.2Zm17.556-2.42a5.6,5.6,0,0,1,2.519.55,4.031,4.031,0,0,1,1.749,1.683,5.9,5.9,0,0,1,.638,2.915V129h-2.75v-6.38a3.259,3.259,0,0,0-.737-2.332,2.712,2.712,0,0,0-2.057-.77,3.612,3.612,0,0,0-1.716.4,2.714,2.714,0,0,0-1.155,1.177,4.238,4.238,0,0,0-.407,1.969V129h-2.75V112.676h2.75v7.744l-.594-.968a4.164,4.164,0,0,1,1.793-1.727A5.862,5.862,0,0,1,418.76,117.12Zm13.948,12.034a7.159,7.159,0,0,1-3.421-.781,5.658,5.658,0,0,1-2.266-2.145,6,6,0,0,1-.8-3.1,6.114,6.114,0,0,1,.781-3.113,5.6,5.6,0,0,1,2.156-2.123,6.306,6.306,0,0,1,3.135-.77,6.174,6.174,0,0,1,3.058.748,5.415,5.415,0,0,1,2.112,2.112,6.427,6.427,0,0,1,.77,3.212q0,.176-.011.4t-.033.418H428.4V122.18h8.338l-1.078.572a3.376,3.376,0,0,0-.418-1.782,3.219,3.219,0,0,0-1.2-1.21,3.424,3.424,0,0,0-1.749-.44,3.468,3.468,0,0,0-1.771.44,3.118,3.118,0,0,0-1.188,1.221,3.757,3.757,0,0,0-.429,1.837v.44a3.589,3.589,0,0,0,.484,1.87,3.227,3.227,0,0,0,1.364,1.254,4.467,4.467,0,0,0,2.024.44,4.884,4.884,0,0,0,1.782-.308,3.793,3.793,0,0,0,1.408-.968l1.474,1.694a5.176,5.176,0,0,1-1.991,1.419A7.127,7.127,0,0,1,432.708,129.154Zm8.184-.154-.022-11.748,2.728.022L443.62,129Zm1.364-13.684a1.734,1.734,0,0,1-1.265-.484,1.634,1.634,0,0,1,0-2.343,1.757,1.757,0,0,1,1.265-.473,1.806,1.806,0,0,1,1.265.451,1.468,1.468,0,0,1,.5,1.133,1.679,1.679,0,0,1-.484,1.221A1.7,1.7,0,0,1,442.256,115.316ZM447.228,129V117.252h2.618v3.234l-.308-.946a3.715,3.715,0,0,1,1.661-1.8,5.864,5.864,0,0,1,2.827-.616v2.618a1.934,1.934,0,0,0-.33-.055q-.154-.011-.308-.011a3.382,3.382,0,0,0-2.486.913,3.661,3.661,0,0,0-.924,2.717V129ZM190.95,156.154a5.309,5.309,0,0,1-2.662-.66,4.58,4.58,0,0,1-1.837-1.991,7.482,7.482,0,0,1-.671-3.377,7.266,7.266,0,0,1,.693-3.388,4.633,4.633,0,0,1,1.87-1.969,5.308,5.308,0,0,1,2.607-.649,6.157,6.157,0,0,1,3.069.748,5.557,5.557,0,0,1,2.112,2.09,6.816,6.816,0,0,1,0,6.336,5.638,5.638,0,0,1-2.112,2.1A6.086,6.086,0,0,1,190.95,156.154ZM184.438,156V139.676h2.75v7.3l-.22,3.124.088,3.124V156Zm6.2-2.2a3.545,3.545,0,0,0,1.771-.44,3.205,3.205,0,0,0,1.243-1.276,4.4,4.4,0,0,0,0-3.927,3.223,3.223,0,0,0-1.243-1.265,3.545,3.545,0,0,0-1.771-.44,3.607,3.607,0,0,0-1.782.44,3.2,3.2,0,0,0-1.254,1.265,4.4,4.4,0,0,0,0,3.927,3.184,3.184,0,0,0,1.254,1.276A3.607,3.607,0,0,0,190.642,153.8Zm13.86,2.354a5.924,5.924,0,0,1-2.64-.561,4.026,4.026,0,0,1-1.782-1.716,5.976,5.976,0,0,1-.638-2.915v-6.71h2.75v6.336a3.4,3.4,0,0,0,.715,2.365,2.62,2.62,0,0,0,2.035.781,3.42,3.42,0,0,0,1.683-.4,2.753,2.753,0,0,0,1.122-1.188,4.252,4.252,0,0,0,.407-1.958v-5.94h2.75V156h-2.618v-3.168l.462.968a4.044,4.044,0,0,1-1.738,1.749A5.281,5.281,0,0,1,204.5,156.154Zm13.64,0a10.28,10.28,0,0,1-2.827-.385,7.273,7.273,0,0,1-2.145-.935l1.056-2.09a7.511,7.511,0,0,0,1.892.836,7.622,7.622,0,0,0,2.2.33,3.791,3.791,0,0,0,1.881-.352,1.067,1.067,0,0,0,.583-.946.821.821,0,0,0-.4-.737,3.08,3.08,0,0,0-1.034-.385q-.638-.132-1.419-.242t-1.562-.3a5.391,5.391,0,0,1-1.419-.55,2.939,2.939,0,0,1-1.034-.979,2.973,2.973,0,0,1-.4-1.628,3.09,3.09,0,0,1,.638-1.947,4.073,4.073,0,0,1,1.793-1.276,7.52,7.52,0,0,1,2.739-.451,11.223,11.223,0,0,1,2.4.264,6.49,6.49,0,0,1,2,.748l-1.056,2.09a5.569,5.569,0,0,0-1.683-.693,7.788,7.788,0,0,0-1.683-.187,3.619,3.619,0,0,0-1.859.374,1.1,1.1,0,0,0-.6.946.888.888,0,0,0,.4.792,3.23,3.23,0,0,0,1.034.418,13.087,13.087,0,0,0,1.419.253,12.566,12.566,0,0,1,1.551.3,6.541,6.541,0,0,1,1.419.539,2.733,2.733,0,0,1,1.045.957,2.927,2.927,0,0,1,.4,1.606,2.979,2.979,0,0,1-.649,1.914,4.178,4.178,0,0,1-1.837,1.265A8,8,0,0,1,218.142,156.154Zm7.722-.154-.022-11.748,2.728.022L228.592,156Zm1.364-13.684a1.734,1.734,0,0,1-1.265-.484,1.634,1.634,0,0,1,0-2.343,1.757,1.757,0,0,1,1.265-.473,1.806,1.806,0,0,1,1.265.451,1.468,1.468,0,0,1,.495,1.133,1.679,1.679,0,0,1-.484,1.221A1.7,1.7,0,0,1,227.228,142.316Zm11.638,1.8a5.6,5.6,0,0,1,2.519.55,4.031,4.031,0,0,1,1.749,1.683,5.9,5.9,0,0,1,.638,2.915V156h-2.75v-6.38a3.26,3.26,0,0,0-.737-2.332,2.713,2.713,0,0,0-2.057-.77,3.612,3.612,0,0,0-1.716.4,2.714,2.714,0,0,0-1.155,1.177,4.237,4.237,0,0,0-.407,1.969V156H232.2V144.252h2.618v3.168l-.462-.968a4.164,4.164,0,0,1,1.793-1.727A5.862,5.862,0,0,1,238.866,144.12Zm13.948,12.034a7.159,7.159,0,0,1-3.421-.781,5.659,5.659,0,0,1-2.266-2.145,6,6,0,0,1-.8-3.1,6.114,6.114,0,0,1,.781-3.113,5.6,5.6,0,0,1,2.156-2.123,6.306,6.306,0,0,1,3.135-.77,6.174,6.174,0,0,1,3.058.748,5.415,5.415,0,0,1,2.112,2.112,6.427,6.427,0,0,1,.77,3.212q0,.176-.011.4t-.033.418H248.5V149.18h8.338l-1.078.572a3.376,3.376,0,0,0-.418-1.782,3.219,3.219,0,0,0-1.2-1.21,3.424,3.424,0,0,0-1.749-.44,3.468,3.468,0,0,0-1.771.44,3.119,3.119,0,0,0-1.188,1.221,3.757,3.757,0,0,0-.429,1.837v.44a3.589,3.589,0,0,0,.484,1.87,3.227,3.227,0,0,0,1.364,1.254,4.467,4.467,0,0,0,2.024.44,4.884,4.884,0,0,0,1.782-.308,3.793,3.793,0,0,0,1.408-.968l1.474,1.694a5.176,5.176,0,0,1-1.991,1.419A7.126,7.126,0,0,1,252.814,156.154Zm11.792,0a10.28,10.28,0,0,1-2.827-.385,7.273,7.273,0,0,1-2.145-.935l1.056-2.09a7.51,7.51,0,0,0,1.892.836,7.622,7.622,0,0,0,2.2.33,3.791,3.791,0,0,0,1.881-.352,1.067,1.067,0,0,0,.583-.946.821.821,0,0,0-.4-.737,3.08,3.08,0,0,0-1.034-.385q-.638-.132-1.419-.242t-1.562-.3a5.391,5.391,0,0,1-1.419-.55,2.94,2.94,0,0,1-1.034-.979,2.973,2.973,0,0,1-.4-1.628,3.09,3.09,0,0,1,.638-1.947,4.073,4.073,0,0,1,1.793-1.276,7.52,7.52,0,0,1,2.739-.451,11.223,11.223,0,0,1,2.4.264,6.49,6.49,0,0,1,2,.748l-1.056,2.09a5.57,5.57,0,0,0-1.683-.693,7.787,7.787,0,0,0-1.683-.187,3.619,3.619,0,0,0-1.859.374,1.1,1.1,0,0,0-.605.946.888.888,0,0,0,.4.792,3.23,3.23,0,0,0,1.034.418,13.087,13.087,0,0,0,1.419.253,12.568,12.568,0,0,1,1.551.3,6.54,6.54,0,0,1,1.419.539,2.733,2.733,0,0,1,1.045.957,2.927,2.927,0,0,1,.4,1.606,2.979,2.979,0,0,1-.649,1.914,4.178,4.178,0,0,1-1.837,1.265A8,8,0,0,1,264.606,156.154Zm11.33,0a10.28,10.28,0,0,1-2.827-.385,7.273,7.273,0,0,1-2.145-.935l1.056-2.09a7.51,7.51,0,0,0,1.892.836,7.622,7.622,0,0,0,2.2.33,3.791,3.791,0,0,0,1.881-.352,1.067,1.067,0,0,0,.583-.946.821.821,0,0,0-.4-.737,3.08,3.08,0,0,0-1.034-.385q-.638-.132-1.419-.242t-1.562-.3a5.391,5.391,0,0,1-1.419-.55,2.94,2.94,0,0,1-1.034-.979,2.973,2.973,0,0,1-.4-1.628,3.09,3.09,0,0,1,.638-1.947,4.073,4.073,0,0,1,1.793-1.276,7.52,7.52,0,0,1,2.739-.451,11.223,11.223,0,0,1,2.4.264,6.49,6.49,0,0,1,2,.748l-1.056,2.09a5.57,5.57,0,0,0-1.683-.693,7.787,7.787,0,0,0-1.683-.187,3.619,3.619,0,0,0-1.859.374,1.1,1.1,0,0,0-.605.946.888.888,0,0,0,.4.792,3.23,3.23,0,0,0,1.034.418,13.087,13.087,0,0,0,1.419.253,12.568,12.568,0,0,1,1.551.3,6.54,6.54,0,0,1,1.419.539,2.733,2.733,0,0,1,1.045.957,2.927,2.927,0,0,1,.4,1.606,2.979,2.979,0,0,1-.649,1.914,4.178,4.178,0,0,1-1.837,1.265A8,8,0,0,1,275.936,156.154Zm19.1,4.268a11.87,11.87,0,0,1-3.179-.429,6.805,6.805,0,0,1-2.541-1.243l1.232-2.068a5.887,5.887,0,0,0,1.947,1.023,7.633,7.633,0,0,0,2.387.385,3.908,3.908,0,0,0,2.838-.891,3.6,3.6,0,0,0,.9-2.673v-2.09l.22-2.662-.088-2.662v-2.86h2.618v9.966a6.114,6.114,0,0,1-1.628,4.7A6.688,6.688,0,0,1,295.032,160.422Zm-.352-4.95a6.373,6.373,0,0,1-3.025-.715,5.421,5.421,0,0,1-2.134-1.991,6.079,6.079,0,0,1,0-5.962,5.342,5.342,0,0,1,2.134-1.98,6.454,6.454,0,0,1,3.025-.7,5.919,5.919,0,0,1,2.684.594,4.479,4.479,0,0,1,1.9,1.848,7.6,7.6,0,0,1,0,6.435,4.534,4.534,0,0,1-1.9,1.87A5.83,5.83,0,0,1,294.68,155.472Zm.418-2.332a3.9,3.9,0,0,0,1.848-.429,3.14,3.14,0,0,0,1.265-1.188,3.617,3.617,0,0,0,0-3.5,3,3,0,0,0-1.265-1.166,4.076,4.076,0,0,0-1.848-.407,4.146,4.146,0,0,0-1.859.407,2.981,2.981,0,0,0-1.276,1.166,3.617,3.617,0,0,0,0,3.5,3.123,3.123,0,0,0,1.276,1.188A3.969,3.969,0,0,0,295.1,153.14Zm9.878,2.86V144.252h2.618v3.234l-.308-.946a3.716,3.716,0,0,1,1.661-1.8,5.864,5.864,0,0,1,2.827-.616v2.618a1.934,1.934,0,0,0-.33-.055q-.154-.011-.308-.011a3.382,3.382,0,0,0-2.486.913,3.661,3.661,0,0,0-.924,2.717V156Zm14.3.154a6.761,6.761,0,0,1-3.212-.792,5.78,5.78,0,0,1-2.222-2.123,5.92,5.92,0,0,1-.814-3.113,5.8,5.8,0,0,1,3.047-5.236,6.522,6.522,0,0,1,3.2-.77,6.631,6.631,0,0,1,3.234.77A5.806,5.806,0,0,1,324.732,147a5.9,5.9,0,0,1,.814,3.124,6,6,0,0,1-.8,3.1,5.637,5.637,0,0,1-2.233,2.134A6.894,6.894,0,0,1,319.276,156.154Zm0-2.354a3.652,3.652,0,0,0,1.8-.44,3.113,3.113,0,0,0,1.243-1.276,4.312,4.312,0,0,0,0-3.927,3.129,3.129,0,0,0-1.243-1.265,3.652,3.652,0,0,0-1.8-.44,3.545,3.545,0,0,0-1.771.44,3.223,3.223,0,0,0-1.243,1.265,4.4,4.4,0,0,0,0,3.927,3.283,3.283,0,0,0,1.243,1.287A3.324,3.324,0,0,0,319.276,153.8Zm11.176,2.2-4.312-11.748h2.6l3.7,10.362H331.2l3.872-10.362h2.31l3.762,10.362h-1.21l3.806-10.362h2.442L341.848,156h-2.64l-3.432-9.174h.814l-3.5,9.174Zm22.374.154a4.18,4.18,0,0,1-2.992-1,3.888,3.888,0,0,1-1.056-2.959V141.656h2.75v10.472a1.836,1.836,0,0,0,.429,1.3,1.555,1.555,0,0,0,1.2.462,2.416,2.416,0,0,0,1.54-.484l.77,1.958a3.231,3.231,0,0,1-1.188.594A5.337,5.337,0,0,1,352.826,156.154Zm-5.984-9.614v-2.2h7.832v2.2Zm17.556-2.42a5.6,5.6,0,0,1,2.519.55,4.031,4.031,0,0,1,1.749,1.683,5.9,5.9,0,0,1,.638,2.915V156h-2.75v-6.38a3.26,3.26,0,0,0-.737-2.332,2.713,2.713,0,0,0-2.057-.77,3.612,3.612,0,0,0-1.716.4,2.714,2.714,0,0,0-1.155,1.177,4.237,4.237,0,0,0-.407,1.969V156h-2.75V139.676h2.75v7.744l-.594-.968a4.164,4.164,0,0,1,1.793-1.727A5.862,5.862,0,0,1,364.4,144.12Zm9.284,12.034a1.785,1.785,0,0,1-1.8-1.826,1.737,1.737,0,0,1,.528-1.331,1.892,1.892,0,0,1,2.552,0,1.914,1.914,0,0,1,0,2.64A1.757,1.757,0,0,1,373.682,156.154Z" transform="translate(460.381 2202)"/>
      <path id="Path_466" data-name="Path 466" d="M-92.844.348a12.149,12.149,0,0,1-4.365-.769A10.252,10.252,0,0,1-100.7-2.61a10.161,10.161,0,0,1-2.306-3.335,10.5,10.5,0,0,1-.826-4.205,10.5,10.5,0,0,1,.826-4.205,10.057,10.057,0,0,1,2.32-3.335,10.441,10.441,0,0,1,3.494-2.19,12.116,12.116,0,0,1,4.379-.768,11.994,11.994,0,0,1,4.771.913,9.294,9.294,0,0,1,3.581,2.683l-3.016,2.784a7.058,7.058,0,0,0-2.32-1.783,6.51,6.51,0,0,0-2.784-.594,7.12,7.12,0,0,0-2.61.464,5.917,5.917,0,0,0-2.059,1.334A6.093,6.093,0,0,0-98.6-12.789a7.009,7.009,0,0,0-.479,2.639A7.009,7.009,0,0,0-98.6-7.511a6.093,6.093,0,0,0,1.348,2.059,5.917,5.917,0,0,0,2.059,1.334,7.12,7.12,0,0,0,2.61.464A6.51,6.51,0,0,0-89.8-4.249a6.905,6.905,0,0,0,2.32-1.812l3.016,2.784a9.426,9.426,0,0,1-3.581,2.7A11.907,11.907,0,0,1-92.844.348Zm18.1-.116A9.46,9.46,0,0,1-79.185-.827,7.8,7.8,0,0,1-82.2-3.654,7.775,7.775,0,0,1-83.3-7.8a7.515,7.515,0,0,1,1.1-4.161A7.977,7.977,0,0,1-79.156-14.8a8.872,8.872,0,0,1,4.379-1,9.1,9.1,0,0,1,4.437,1,7.607,7.607,0,0,1,3.031,2.842A7.93,7.93,0,0,1-66.222-7.8a7.606,7.606,0,0,1-1.073,4.133A7.71,7.71,0,0,1-70.34-.827,9.515,9.515,0,0,1-74.748.232Zm0-3.712A3.968,3.968,0,0,0-72.718-4,3.717,3.717,0,0,0-71.3-5.5,4.8,4.8,0,0,0-70.775-7.8a4.784,4.784,0,0,0-.522-2.32A3.74,3.74,0,0,0-72.718-11.6a4.025,4.025,0,0,0-2.059-.522,3.912,3.912,0,0,0-2,.522,3.842,3.842,0,0,0-1.436,1.479A4.678,4.678,0,0,0-78.75-7.8,4.7,4.7,0,0,0-78.213-5.5a3.959,3.959,0,0,0,1.421,1.508A3.68,3.68,0,0,0-74.748-3.48Zm21.054-12.354a7.264,7.264,0,0,1,3.321.739,5.362,5.362,0,0,1,2.306,2.262,8.014,8.014,0,0,1,.841,3.9V0h-4.524V-8.236a4.01,4.01,0,0,0-.826-2.784,3.012,3.012,0,0,0-2.334-.9,4.083,4.083,0,0,0-1.929.45,3.12,3.12,0,0,0-1.334,1.377,5.177,5.177,0,0,0-.479,2.378V0h-4.524V-15.6h4.321v4.321l-.812-1.3a5.779,5.779,0,0,1,2.407-2.407A7.42,7.42,0,0,1-53.694-15.834ZM-37.889.232a15.219,15.219,0,0,1-3.843-.479,9.514,9.514,0,0,1-2.914-1.2L-43.138-4.7A10.033,10.033,0,0,0-40.6-3.611a10.422,10.422,0,0,0,2.886.42A4.729,4.729,0,0,0-35.5-3.567a1.159,1.159,0,0,0,.653-1.044.888.888,0,0,0-.507-.827,4.441,4.441,0,0,0-1.348-.42q-.841-.145-1.841-.29t-2.016-.392a6.837,6.837,0,0,1-1.856-.739,3.793,3.793,0,0,1-1.348-1.334,4.163,4.163,0,0,1-.507-2.175,4.209,4.209,0,0,1,.855-2.61,5.659,5.659,0,0,1,2.479-1.783,10.412,10.412,0,0,1,3.886-.652,15.739,15.739,0,0,1,3.248.348,8.819,8.819,0,0,1,2.755,1.015l-1.508,3.219a7.647,7.647,0,0,0-2.277-.913,10.537,10.537,0,0,0-2.218-.247,4.548,4.548,0,0,0-2.2.406,1.2,1.2,0,0,0-.7,1.044.941.941,0,0,0,.507.87,4.644,4.644,0,0,0,1.348.464q.841.174,1.842.3a16.831,16.831,0,0,1,2.015.391,7.267,7.267,0,0,1,1.841.74,3.87,3.87,0,0,1,1.348,1.3,3.994,3.994,0,0,1,.522,2.161,4.06,4.06,0,0,1-.87,2.567A5.713,5.713,0,0,1-33.9-.406,11.018,11.018,0,0,1-37.889.232Zm17.574,0A9.46,9.46,0,0,1-24.752-.827a7.8,7.8,0,0,1-3.016-2.827A7.775,7.775,0,0,1-28.87-7.8a7.514,7.514,0,0,1,1.1-4.161A7.977,7.977,0,0,1-24.723-14.8a8.872,8.872,0,0,1,4.379-1,9.1,9.1,0,0,1,4.437,1,7.607,7.607,0,0,1,3.031,2.842A7.93,7.93,0,0,1-11.789-7.8a7.606,7.606,0,0,1-1.073,4.133A7.71,7.71,0,0,1-15.907-.827,9.515,9.515,0,0,1-20.315.232Zm0-3.712A3.968,3.968,0,0,0-18.285-4,3.717,3.717,0,0,0-16.864-5.5,4.8,4.8,0,0,0-16.342-7.8a4.784,4.784,0,0,0-.522-2.32A3.74,3.74,0,0,0-18.285-11.6a4.025,4.025,0,0,0-2.059-.522,3.912,3.912,0,0,0-2,.522,3.842,3.842,0,0,0-1.435,1.479,4.678,4.678,0,0,0-.537,2.32A4.7,4.7,0,0,0-23.78-5.5a3.959,3.959,0,0,0,1.421,1.508A3.68,3.68,0,0,0-20.315-3.48ZM-8.715,0l-.029-21.518h4.495L-4.22,0ZM.043,0-.015-15.6l4.5.029L4.509,0Zm2.2-17.777A2.869,2.869,0,0,1,.217-18.5a2.351,2.351,0,0,1-.783-1.8,2.351,2.351,0,0,1,.783-1.8,2.869,2.869,0,0,1,2.03-.725,2.98,2.98,0,0,1,2.03.682,2.219,2.219,0,0,1,.783,1.754,2.485,2.485,0,0,1-.768,1.871A2.824,2.824,0,0,1,2.247-17.777ZM15.414.232a7.928,7.928,0,0,1-3.973-1,7.342,7.342,0,0,1-2.8-2.8A8.376,8.376,0,0,1,7.613-7.8a8.437,8.437,0,0,1,1.03-4.263,7.238,7.238,0,0,1,2.8-2.784,8.02,8.02,0,0,1,3.973-.986,6.681,6.681,0,0,1,3.451.87,5.717,5.717,0,0,1,2.291,2.639A10.887,10.887,0,0,1,21.968-7.8a11.264,11.264,0,0,1-.783,4.51A5.577,5.577,0,0,1,18.937-.638,6.779,6.779,0,0,1,15.414.232ZM16.2-3.48A3.912,3.912,0,0,0,18.2-4,3.816,3.816,0,0,0,19.633-5.5,4.7,4.7,0,0,0,20.17-7.8a4.678,4.678,0,0,0-.536-2.32A3.842,3.842,0,0,0,18.2-11.6a3.912,3.912,0,0,0-2-.522,3.968,3.968,0,0,0-2.03.522,3.842,3.842,0,0,0-1.436,1.479,4.678,4.678,0,0,0-.536,2.32A4.7,4.7,0,0,0,12.731-5.5,3.816,3.816,0,0,0,14.167-4,3.968,3.968,0,0,0,16.2-3.48ZM20.286,0V-3.19l.087-4.64-.29-4.611v-9.077h4.524V0ZM38.352,0V-3.045l-.29-.667V-9.164a2.917,2.917,0,0,0-.884-2.262,3.9,3.9,0,0,0-2.712-.812,7.875,7.875,0,0,0-2.451.392,6.483,6.483,0,0,0-2.044,1.059l-1.624-3.161a9.783,9.783,0,0,1,3.074-1.392,13.757,13.757,0,0,1,3.654-.493,8.281,8.281,0,0,1,5.539,1.682Q42.586-12.47,42.586-8.9V0ZM33.6.232a7.211,7.211,0,0,1-3.132-.624,4.758,4.758,0,0,1-2-1.7,4.328,4.328,0,0,1-.7-2.407,4.355,4.355,0,0,1,.681-2.436,4.462,4.462,0,0,1,2.161-1.638,10.493,10.493,0,0,1,3.857-.595h4.147v2.639H34.959A3.4,3.4,0,0,0,32.77-6,1.665,1.665,0,0,0,32.175-4.7a1.627,1.627,0,0,0,.681,1.377,3.07,3.07,0,0,0,1.871.507,3.885,3.885,0,0,0,2.03-.536,3.074,3.074,0,0,0,1.305-1.58l.7,2.088a4.039,4.039,0,0,1-1.8,2.291A6.466,6.466,0,0,1,33.6.232Zm19.459,0a6.124,6.124,0,0,1-4.292-1.406,5.4,5.4,0,0,1-1.537-4.191V-19.053h4.524v13.63A2.093,2.093,0,0,0,52.273-3.9a1.891,1.891,0,0,0,1.421.537,2.907,2.907,0,0,0,1.827-.58l1.218,3.19a4.97,4.97,0,0,1-1.667.74A8.164,8.164,0,0,1,53.056.232ZM44.819-11.774v-3.48H55.637v3.48ZM59.349,0l-.058-15.6,4.495.029L63.815,0Zm2.2-17.777a2.869,2.869,0,0,1-2.03-.725,2.351,2.351,0,0,1-.783-1.8,2.351,2.351,0,0,1,.783-1.8,2.869,2.869,0,0,1,2.03-.725,2.98,2.98,0,0,1,2.03.682,2.219,2.219,0,0,1,.783,1.754,2.485,2.485,0,0,1-.769,1.871A2.824,2.824,0,0,1,61.553-17.777ZM75.444.232A9.46,9.46,0,0,1,71.007-.827a7.8,7.8,0,0,1-3.016-2.827,7.775,7.775,0,0,1-1.1-4.147,7.515,7.515,0,0,1,1.1-4.161A7.977,7.977,0,0,1,71.036-14.8a8.872,8.872,0,0,1,4.379-1,9.1,9.1,0,0,1,4.437,1,7.607,7.607,0,0,1,3.031,2.842A7.93,7.93,0,0,1,83.97-7.8,7.606,7.606,0,0,1,82.9-3.669,7.71,7.71,0,0,1,79.852-.827,9.515,9.515,0,0,1,75.444.232Zm0-3.712A3.968,3.968,0,0,0,77.474-4,3.717,3.717,0,0,0,78.895-5.5,4.8,4.8,0,0,0,79.417-7.8a4.784,4.784,0,0,0-.522-2.32A3.74,3.74,0,0,0,77.474-11.6a4.025,4.025,0,0,0-2.059-.522,3.912,3.912,0,0,0-2,.522,3.842,3.842,0,0,0-1.436,1.479,4.678,4.678,0,0,0-.536,2.32A4.7,4.7,0,0,0,71.978-5.5,3.959,3.959,0,0,0,73.4-3.988,3.68,3.68,0,0,0,75.444-3.48ZM96.5-15.834a7.264,7.264,0,0,1,3.321.739,5.362,5.362,0,0,1,2.305,2.262,8.014,8.014,0,0,1,.841,3.9V0H98.441V-8.236a4.01,4.01,0,0,0-.826-2.784,3.012,3.012,0,0,0-2.334-.9,4.083,4.083,0,0,0-1.929.45,3.12,3.12,0,0,0-1.334,1.377,5.177,5.177,0,0,0-.479,2.378V0H87.015V-15.6h4.321v4.321l-.812-1.3a5.779,5.779,0,0,1,2.407-2.407A7.42,7.42,0,0,1,96.5-15.834Z" transform="translate(746.381 2186)"/>
      <g id="consolidation-2" data-name="consolidation" transform="translate(693.307 2045.426)">
        <path id="Path_446" data-name="Path 446" d="M45.878,11.99a5.419,5.419,0,0,1-.392,2.054,5.355,5.355,0,0,1-1.154,1.731,5.233,5.233,0,0,1-1.708,1.166,5.279,5.279,0,0,1-4.051,0,5.232,5.232,0,0,1-1.708-1.166,5.144,5.144,0,0,1-1.143-1.731,5.218,5.218,0,0,1-.4-2.054,1.726,1.726,0,0,0-.519-1.258,1.755,1.755,0,0,0-2.493,0,1.726,1.726,0,0,0-.519,1.258,8.89,8.89,0,0,0,.681,3.416,8.659,8.659,0,0,0,1.9,2.9,8.756,8.756,0,0,0,2.862,1.927,8.679,8.679,0,0,0,6.74,0A8.708,8.708,0,0,0,46.825,18.3a8.869,8.869,0,0,0,1.916-2.9,9.1,9.1,0,0,0,.669-3.416,1.726,1.726,0,0,0-.519-1.258,1.755,1.755,0,0,0-2.493,0A1.726,1.726,0,0,0,45.878,11.99Z" transform="translate(35.372 11.309)" fill="#aa0021"/>
        <path id="Path_447" data-name="Path 447" d="M79.947,7.26H60.4a8.949,8.949,0,0,0-1.212-3.024A8.738,8.738,0,0,0,45.241,3.059a8.709,8.709,0,0,0-1.7,2.782,8.915,8.915,0,0,0-.589,3.2v5.355h-.912a5.128,5.128,0,0,0-1.812.323,5.271,5.271,0,0,0-1.593.923,5.419,5.419,0,0,0-1.177,1.431,5.254,5.254,0,0,0-.623,1.743L33.5,38.122A7.224,7.224,0,0,0,35.05,43.95a6.916,6.916,0,0,0,2.412,1.87,6.845,6.845,0,0,0,2.978.669H63.1a6.845,6.845,0,0,0,2.978-.669,6.916,6.916,0,0,0,2.412-1.87,7.223,7.223,0,0,0,1.547-5.829L66.7,18.824a5.225,5.225,0,0,0-.623-1.754A5.419,5.419,0,0,0,64.9,15.639a5.268,5.268,0,0,0-1.593-.923,5.129,5.129,0,0,0-1.812-.323H60.58V10.826H78.192v39.23H48.242a1.724,1.724,0,0,0-1.05.358L35.915,58.978V51.845a1.752,1.752,0,0,0-.519-1.27,1.664,1.664,0,0,0-1.247-.519H25.343V10.826H39.436a1.7,1.7,0,0,0,1.247-.519,1.752,1.752,0,0,0,.519-1.27,1.726,1.726,0,0,0-.519-1.258,1.7,1.7,0,0,0-1.247-.519H23.589a1.7,1.7,0,0,0-1.247.519,1.726,1.726,0,0,0-.519,1.258V51.845a1.726,1.726,0,0,0,.519,1.258,1.7,1.7,0,0,0,1.247.519H32.4v8.922a1.652,1.652,0,0,0,.97,1.593,1.6,1.6,0,0,0,1.847-.173L48.831,53.622H79.947a1.663,1.663,0,0,0,1.246-.519,1.725,1.725,0,0,0,.519-1.258V9.037a1.725,1.725,0,0,0-.519-1.258A1.664,1.664,0,0,0,79.947,7.26ZM63.223,19.436l3.336,19.309a3.558,3.558,0,0,1-.762,2.908,3.425,3.425,0,0,1-1.212.935,3.343,3.343,0,0,1-1.489.335H40.44a3.487,3.487,0,0,1-2.689-1.27,3.62,3.62,0,0,1-.773-2.908l3.336-19.309a1.737,1.737,0,0,1,.6-1.062,1.692,1.692,0,0,1,1.131-.415H61.492a1.758,1.758,0,0,1,1.731,1.477ZM46.488,14.393V10.826h7.04a1.7,1.7,0,0,0,1.247-.519,1.752,1.752,0,0,0,.519-1.27,1.726,1.726,0,0,0-.519-1.258,1.7,1.7,0,0,0-1.247-.519H46.811a5.315,5.315,0,0,1,2.3-2.839,5.511,5.511,0,0,1,1.731-.646,5.16,5.16,0,0,1,1.835-.012,5.489,5.489,0,0,1,1.731.635,5.025,5.025,0,0,1,1.408,1.2,5.056,5.056,0,0,1,.923,1.6,5.289,5.289,0,0,1,.312,1.835v5.355Z" transform="translate(24.204 0)" fill="#aa0021"/>
        <path id="Path_448" data-name="Path 448" d="M51.315,49.586V41.068A1.707,1.707,0,0,0,50.8,39.81a1.729,1.729,0,0,0-2.493,0,1.743,1.743,0,0,0-.508,1.258V48.2H44.263V41.068a1.7,1.7,0,0,0-.508-1.258,1.668,1.668,0,0,0-1.247-.531c-4.663,0-17.6-1.154-21.49-6.417a1.626,1.626,0,0,0-1.57-.7,1.664,1.664,0,0,0-1.42.981c-.023.058-3.151,6.14-7.225,6.14a1.668,1.668,0,0,0-1.247.531,1.708,1.708,0,0,0-.519,1.258V48.2H5.518V32.147a5.417,5.417,0,0,1,.4-2.043,5.334,5.334,0,0,1,2.862-2.9,5.256,5.256,0,0,1,2.02-.4,1.667,1.667,0,0,0,1.246-.531,1.742,1.742,0,0,0,.508-1.258,5.373,5.373,0,0,1,.4-2.043,5.309,5.309,0,0,1,1.143-1.743,5.247,5.247,0,0,1,1.72-1.154,4.859,4.859,0,0,1,2.02-.4H31.937a15.5,15.5,0,0,1,7.929,2.147,1.747,1.747,0,0,0,2.4-.658,1.733,1.733,0,0,0,.185-1.35,1.767,1.767,0,0,0-.819-1.085,18.873,18.873,0,0,0-9.695-2.62H17.845a8.535,8.535,0,0,0-2.989.519,8.906,8.906,0,0,0-5.667,6.763A8.453,8.453,0,0,0,6.338,24.46a8.863,8.863,0,0,0-2.308,2A8.913,8.913,0,0,0,2,32.147V49.586A5.109,5.109,0,0,0,.232,53.545v3.578a5.417,5.417,0,0,0,.4,2.043A5.146,5.146,0,0,0,1.779,60.9a5.229,5.229,0,0,0,3.739,1.57H9.131a13.8,13.8,0,0,0,4.04,8.483l1.154,1.177v3.509L1.2,82.272A1.721,1.721,0,0,0,.325,83.3a1.8,1.8,0,0,0,.092,1.362,1.77,1.77,0,0,0,1.016.9,1.719,1.719,0,0,0,1.35-.092l11.542-5.851v4.247a1.752,1.752,0,0,0,.519,1.27,1.741,1.741,0,0,0,2.481,0,1.752,1.752,0,0,0,.519-1.27v-9.3a6.811,6.811,0,0,0,2.193.392H33.276a6.688,6.688,0,0,0,2.181-.392v9.3a1.752,1.752,0,0,0,.519,1.27,1.755,1.755,0,0,0,2.493,0,1.752,1.752,0,0,0,.519-1.27V79.617l11.542,5.851a1.641,1.641,0,0,0,1.339.092,1.7,1.7,0,0,0,1.027-.889,1.775,1.775,0,0,0,.092-1.373,1.7,1.7,0,0,0-.889-1.027L38.989,75.635V72.127l1.154-1.177a13.782,13.782,0,0,0,4.028-8.483H47.8a5.3,5.3,0,0,0,2.02-.4A5.233,5.233,0,0,0,51.523,60.9a5.359,5.359,0,0,0,1.154-1.731,5.651,5.651,0,0,0,.4-2.043V53.545A5.187,5.187,0,0,0,51.315,49.586ZM3.753,57.123V53.545a1.726,1.726,0,0,1,.519-1.258,1.7,1.7,0,0,1,1.246-.519h3.52V58.9H5.518a1.7,1.7,0,0,1-1.246-.519A1.726,1.726,0,0,1,3.753,57.123Zm36.991,3.74a10.285,10.285,0,0,1-3.093,7.571c-.346.346-1.535,1.547-1.881,1.9a3.367,3.367,0,0,1-2.493,1.05H20.038a3.331,3.331,0,0,1-2.493-1.05c-.346-.358-1.535-1.558-1.893-1.9a10.374,10.374,0,0,1-3.093-7.571V42.65a13.135,13.135,0,0,0,7.364-5.817c5.644,4.824,16.539,5.782,20.821,5.967Zm8.806-3.74a1.762,1.762,0,0,1-.508,1.258A1.7,1.7,0,0,1,47.8,58.9H44.263V51.767H47.8a1.7,1.7,0,0,1,1.247.519,1.762,1.762,0,0,1,.508,1.258Z" transform="translate(0 17.912)" fill="#aa0021"/>
        <path id="Path_449" data-name="Path 449" d="M22.61,36.537a1.767,1.767,0,0,0-2.424.612,4.118,4.118,0,0,1-.7.9,4.021,4.021,0,0,1-.9.681,4.4,4.4,0,0,1-1.05.439,4.512,4.512,0,0,1-1.12.139,4.579,4.579,0,0,1-1.119-.139,4.4,4.4,0,0,1-1.05-.439,4.621,4.621,0,0,1-.9-.681,4.125,4.125,0,0,1-.7-.9,1.757,1.757,0,0,0-2.412-.612,1.777,1.777,0,0,0-.6,2.447A7.8,7.8,0,0,0,10.884,40.6a7.388,7.388,0,0,0,1.627,1.235,8.114,8.114,0,0,0,1.881.785,8.009,8.009,0,0,0,2.02.254,7.564,7.564,0,0,0,3.9-1.039A7.739,7.739,0,0,0,21.953,40.6a8.209,8.209,0,0,0,1.258-1.616,1.738,1.738,0,0,0,.2-1.35A1.717,1.717,0,0,0,22.61,36.537Z" transform="translate(10.237 40.53)" fill="#aa0021"/>
        <path id="Path_450" data-name="Path 450" d="M17.92,31.234a4.445,4.445,0,0,0-2.539.773,4.6,4.6,0,0,0-1.708,2.066,1.8,1.8,0,0,0,.889,2.355,1.714,1.714,0,0,0,1.35.035,1.733,1.733,0,0,0,.981-.935,1.1,1.1,0,0,1,2.066,0,1.765,1.765,0,0,0,2.331.9,1.8,1.8,0,0,0,.889-2.355,4.6,4.6,0,0,0-1.708-2.066A4.482,4.482,0,0,0,17.92,31.234Z" transform="translate(14.892 34.874)" fill="#aa0021"/>
        <path id="Path_451" data-name="Path 451" d="M12.109,34.8a1.029,1.029,0,0,1,1.039.727,1.668,1.668,0,0,0,.981.935,1.739,1.739,0,0,0,2.262-1.027,1.744,1.744,0,0,0-.035-1.362,4.578,4.578,0,0,0-1.7-2.066,4.482,4.482,0,0,0-2.551-.773,4.419,4.419,0,0,0-2.539.773,4.529,4.529,0,0,0-1.708,2.066,1.744,1.744,0,0,0-.035,1.362,1.739,1.739,0,0,0,2.262,1.027,1.668,1.668,0,0,0,.981-.935A1.029,1.029,0,0,1,12.109,34.8Z" transform="translate(8.377 34.874)" fill="#aa0021"/>
      </g>
    </g>
  </g>
</svg>
