<svg width="231" height="295" viewBox="0 0 231 295" fill="none" xmlns="http://www.w3.org/2000/svg">
<path d="M12.3472 110.682V235.31L115.252 294.709L218.162 235.31V110.682L115.252 51.2773L12.3472 110.682Z" fill="#AA0021"/>
<path d="M0.194824 66.6042V199.813L115.12 266.417L230.045 199.813V66.6042L115.12 0L0.194824 66.6042Z" fill="white"/>
<path d="M128.43 41.0509C128.43 41.3883 128.37 41.7093 128.245 42.0195C128.114 42.3296 127.935 42.6017 127.701 42.8357C127.467 43.0751 127.2 43.2547 126.895 43.3853C126.591 43.5105 126.269 43.5758 125.943 43.5758C125.611 43.5758 125.29 43.5105 124.985 43.3853C124.681 43.2547 124.414 43.0751 124.18 42.8357C123.946 42.6017 123.766 42.3296 123.641 42.0195C123.511 41.7093 123.451 41.3883 123.451 41.0509C123.451 40.8223 123.369 40.621 123.206 40.4578C123.043 40.2945 122.847 40.2129 122.618 40.2129C122.39 40.2129 122.194 40.2945 122.031 40.4578C121.867 40.621 121.786 40.8223 121.786 41.0509C121.786 41.6114 121.894 42.1446 122.107 42.6616C122.313 43.1785 122.613 43.6302 123.005 44.0274C123.396 44.4192 123.843 44.7239 124.354 44.9361C124.86 45.1484 125.388 45.2572 125.943 45.2572C126.493 45.2572 127.02 45.1484 127.532 44.9361C128.038 44.7239 128.49 44.4192 128.876 44.0274C129.268 43.6302 129.567 43.1785 129.779 42.6616C129.986 42.1446 130.095 41.6114 130.095 41.0509C130.095 40.8223 130.013 40.621 129.85 40.4578C129.687 40.2945 129.491 40.2129 129.262 40.2129C129.034 40.2129 128.838 40.2945 128.675 40.4578C128.511 40.621 128.43 40.8223 128.43 41.0509Z" fill="#FF3874"/>
<path d="M139.226 33.4889H130.008C129.905 32.9774 129.714 32.504 129.437 32.0632C129.165 31.6224 128.817 31.2524 128.403 30.9423C127.99 30.6321 127.532 30.409 127.037 30.2729C126.542 30.1369 126.036 30.0934 125.525 30.1478C125.013 30.1968 124.529 30.3437 124.066 30.5777C123.609 30.8117 123.206 31.1218 122.864 31.5082C122.515 31.8945 122.249 32.3298 122.064 32.8196C121.879 33.3039 121.786 33.8099 121.786 34.3269V36.8517H121.356C121.062 36.8517 120.78 36.9007 120.502 37.0041C120.23 37.1021 119.98 37.249 119.751 37.4394C119.528 37.6299 119.343 37.8584 119.196 38.1142C119.049 38.3699 118.951 38.6475 118.902 38.9359L117.33 48.0395C117.243 48.5293 117.264 49.0136 117.395 49.4978C117.52 49.9767 117.743 50.4066 118.059 50.7875C118.374 51.1684 118.755 51.4622 119.196 51.669C119.642 51.8812 120.11 51.9846 120.6 51.9846H131.282C131.771 51.9846 132.239 51.8812 132.686 51.669C133.126 51.4622 133.507 51.1684 133.823 50.7875C134.138 50.4066 134.362 49.9767 134.487 49.4978C134.617 49.0136 134.639 48.5293 134.552 48.0395L132.979 38.9413C132.93 38.6475 132.832 38.3699 132.686 38.1142C132.539 37.8584 132.354 37.6299 132.131 37.4394C131.902 37.249 131.652 37.1021 131.38 37.0041C131.102 36.9007 130.819 36.8517 130.525 36.8517H130.095V35.1703H138.399V53.6661H124.278C124.093 53.6661 123.93 53.7259 123.783 53.8347L118.467 57.8724V54.5095C118.467 54.2755 118.385 54.0796 118.222 53.9109C118.064 53.7477 117.868 53.6661 117.634 53.6661H113.482V35.1703H120.127C120.355 35.1703 120.551 35.0887 120.714 34.9254C120.877 34.7568 120.959 34.5609 120.959 34.3269C120.959 34.0983 120.877 33.897 120.714 33.7338C120.551 33.5705 120.355 33.4889 120.127 33.4889H112.655C112.427 33.4889 112.231 33.5705 112.068 33.7338C111.904 33.897 111.823 34.0983 111.823 34.3269V54.5095C111.823 54.738 111.904 54.9394 112.068 55.1026C112.231 55.2659 112.427 55.3475 112.655 55.3475H116.807V59.5538C116.807 59.902 116.96 60.1524 117.264 60.3047C117.569 60.4625 117.863 60.4353 118.135 60.2231L124.556 55.3475H139.226C139.46 55.3475 139.656 55.2659 139.814 55.1026C139.977 54.9394 140.059 54.738 140.059 54.5095V34.3269C140.059 34.0983 139.977 33.897 139.814 33.7338C139.656 33.5705 139.46 33.4889 139.226 33.4889ZM131.341 39.2297L132.914 48.3334C132.958 48.5782 132.947 48.8177 132.887 49.0571C132.822 49.2965 132.713 49.5142 132.555 49.7046C132.397 49.8951 132.207 50.042 131.984 50.1454C131.76 50.2542 131.527 50.3032 131.282 50.3032H120.6C120.355 50.3032 120.121 50.2488 119.898 50.1454C119.68 50.042 119.49 49.8951 119.332 49.7046C119.174 49.5142 119.06 49.2965 119 49.0571C118.935 48.8177 118.924 48.5782 118.967 48.3334L120.54 39.2297C120.573 39.0284 120.671 38.8597 120.823 38.7291C120.975 38.5985 121.155 38.5332 121.356 38.5332H130.525C130.727 38.5332 130.906 38.5985 131.059 38.7291C131.216 38.8597 131.309 39.0284 131.341 39.2297ZM123.451 36.8517V35.1703H126.771C126.999 35.1703 127.195 35.0887 127.358 34.9254C127.522 34.7568 127.603 34.5609 127.603 34.3269C127.603 34.0983 127.522 33.897 127.358 33.7338C127.195 33.5705 126.999 33.4889 126.771 33.4889H123.604C123.702 33.2059 123.843 32.9502 124.028 32.7216C124.213 32.4931 124.436 32.3026 124.687 32.1503C124.942 32.0033 125.214 31.9 125.503 31.8455C125.791 31.7911 126.08 31.7911 126.368 31.8401C126.656 31.8945 126.928 31.9925 127.184 32.1394C127.44 32.2863 127.663 32.4768 127.848 32.7053C128.038 32.9284 128.185 33.1842 128.283 33.4617C128.381 33.7446 128.436 34.033 128.43 34.3269V36.8517H123.451Z" fill="#AA0021"/>
<path d="M114.316 61.8896V57.8738C114.316 57.6398 114.234 57.4439 114.071 57.2806C113.908 57.112 113.712 57.0303 113.483 57.0303C113.255 57.0303 113.059 57.112 112.895 57.2806C112.738 57.4439 112.656 57.6398 112.656 57.8738V61.2366H110.991V57.8738C110.991 57.6398 110.915 57.4439 110.751 57.2806C110.588 57.112 110.392 57.0303 110.164 57.0303C107.965 57.0303 101.865 56.4862 100.032 54.0048C99.8466 53.7545 99.6017 53.6403 99.2916 53.6729C98.9869 53.7001 98.7638 53.8525 98.6223 54.1354C98.6114 54.1627 97.1367 57.0303 95.2159 57.0303C94.9873 57.0303 94.7914 57.112 94.6282 57.2806C94.4649 57.4439 94.3833 57.6398 94.3833 57.8738V61.2366H92.7237V53.6675C92.7237 53.3355 92.789 53.0145 92.9141 52.7043C93.0393 52.3942 93.2188 52.1221 93.4528 51.8881C93.6868 51.6487 93.9534 51.4691 94.2636 51.3385C94.5683 51.2133 94.8839 51.148 95.2159 51.148C95.4444 51.148 95.6403 51.0664 95.8036 50.8977C95.9614 50.7345 96.043 50.5386 96.043 50.3046C96.043 49.9727 96.1083 49.6462 96.2334 49.3415C96.3586 49.0313 96.5382 48.7592 96.7722 48.5198C97.0061 48.2858 97.2782 48.1008 97.5829 47.9756C97.8877 47.845 98.2033 47.7797 98.5352 47.7852H105.179C106.512 47.7852 107.759 48.1226 108.918 48.7973C109.114 48.9116 109.326 48.9388 109.549 48.8789C109.767 48.8191 109.935 48.6885 110.049 48.4871C110.164 48.2858 110.196 48.0736 110.137 47.8505C110.077 47.6274 109.946 47.4587 109.75 47.339C108.335 46.5119 106.812 46.1038 105.179 46.1038H98.5352C98.0509 46.0983 97.5829 46.1854 97.1259 46.3486C96.6688 46.5173 96.2552 46.7567 95.8797 47.0723C95.5097 47.3825 95.1996 47.7525 94.9547 48.177C94.7098 48.6014 94.5411 49.0531 94.4541 49.5374C93.9752 49.6244 93.529 49.7931 93.11 50.0434C92.6965 50.2937 92.3319 50.6039 92.0217 50.9848C91.7115 51.3603 91.4776 51.7793 91.3089 52.2418C91.1456 52.7043 91.064 53.1777 91.064 53.6675V61.8896C90.509 62.3902 90.2314 63.0106 90.2314 63.7561V65.4429C90.2314 65.7749 90.2967 66.0959 90.4219 66.4061C90.5471 66.7162 90.7266 66.9883 90.9606 67.2223C91.1946 67.4617 91.4667 67.6413 91.7714 67.7719C92.0761 67.8971 92.3917 67.9624 92.7237 67.9624H94.4269C94.5955 69.5241 95.2322 70.8572 96.3314 71.9619L96.8755 72.5169V74.1711L90.6885 77.3C90.4872 77.4034 90.3457 77.5666 90.275 77.7843C90.2042 78.0074 90.2206 78.2196 90.3185 78.4264C90.4219 78.6332 90.5851 78.7747 90.7974 78.8508C91.015 78.9216 91.2272 78.9107 91.434 78.8073L96.8755 76.0485V78.0509C96.8755 78.2849 96.9572 78.4808 97.1204 78.6495C97.2782 78.8127 97.4741 78.8944 97.7081 78.8944C97.9366 78.8944 98.1325 78.8127 98.2903 78.6495C98.4536 78.4808 98.5352 78.2849 98.5352 78.0509V73.6651C98.8726 73.7848 99.2154 73.8446 99.5691 73.8501H105.811C106.164 73.8446 106.507 73.7848 106.839 73.6651V78.0509C106.839 78.2849 106.921 78.4808 107.084 78.6495C107.247 78.8127 107.443 78.8944 107.672 78.8944C107.9 78.8944 108.096 78.8127 108.259 78.6495C108.422 78.4808 108.504 78.2849 108.504 78.0509V76.0485L113.946 78.8073C114.147 78.9107 114.359 78.927 114.577 78.8508C114.794 78.7801 114.958 78.6386 115.061 78.4318C115.165 78.2196 115.175 78.0074 115.105 77.7843C115.034 77.5666 114.892 77.4034 114.686 77.3L108.504 74.1711V72.5169L109.048 71.9619C110.147 70.8572 110.779 69.5241 110.947 67.9624H112.656C112.982 67.9624 113.304 67.8971 113.608 67.7719C113.913 67.6413 114.18 67.4617 114.414 67.2223C114.648 66.9883 114.827 66.7162 114.958 66.4061C115.083 66.0959 115.143 65.7749 115.148 65.4429V63.7561C115.143 63.0106 114.865 62.3902 114.316 61.8896ZM91.8911 65.4429V63.7561C91.8911 63.5275 91.9727 63.3262 92.136 63.1629C92.2992 62.9997 92.4951 62.9181 92.7237 62.9181H94.3833V66.2809H92.7237C92.4951 66.2809 92.2992 66.1993 92.136 66.0361C91.9727 65.8728 91.8911 65.6715 91.8911 65.4429ZM109.331 67.206C109.337 68.599 108.852 69.7907 107.873 70.7756C107.71 70.9389 107.149 71.5048 106.986 71.6735C106.659 72.0054 106.268 72.1686 105.811 72.1686H99.5691C99.1066 72.1686 98.7148 72.0054 98.3937 71.6735C98.2305 71.5048 97.67 70.9389 97.5013 70.7756C96.5273 69.7907 96.043 68.599 96.043 67.206V58.6193C97.534 58.135 98.693 57.2208 99.5147 55.8767C102.176 58.1513 107.312 58.6029 109.331 58.69V67.206ZM113.483 65.4429C113.483 65.6715 113.401 65.8728 113.244 66.0361C113.08 66.1993 112.885 66.2809 112.656 66.2809H110.991V62.9181H112.656C112.885 62.9181 113.08 62.9997 113.244 63.1629C113.401 63.3262 113.483 63.5275 113.483 63.7561V65.4429Z" fill="#AA0021"/>
<path d="M105.609 66.401C105.414 66.2813 105.201 66.2487 104.978 66.3085C104.755 66.3629 104.586 66.4881 104.467 66.6894C104.374 66.8472 104.265 66.9887 104.135 67.1139C104.01 67.239 103.868 67.3479 103.71 67.4349C103.553 67.5274 103.389 67.5927 103.215 67.6417C103.046 67.6852 102.867 67.707 102.687 67.707C102.508 67.707 102.334 67.6852 102.159 67.6417C101.985 67.5927 101.822 67.5274 101.664 67.4349C101.512 67.3479 101.37 67.239 101.24 67.1139C101.109 66.9887 101 66.8472 100.908 66.6894C100.794 66.4881 100.62 66.3629 100.396 66.3085C100.173 66.2487 99.9666 66.2813 99.7707 66.401C99.5748 66.5208 99.4442 66.6949 99.3898 66.918C99.3353 67.1411 99.368 67.3533 99.4877 67.5546C99.651 67.8376 99.8523 68.0879 100.081 68.3165C100.309 68.545 100.565 68.7409 100.848 68.8987C101.131 69.0619 101.425 69.1817 101.735 69.2687C102.051 69.3503 102.366 69.3884 102.687 69.3884C103.014 69.3884 103.329 69.3503 103.64 69.2687C103.95 69.1817 104.249 69.0619 104.527 68.8987C104.81 68.7409 105.065 68.545 105.299 68.3165C105.528 68.0879 105.724 67.8376 105.892 67.5546C106.012 67.3533 106.039 67.1411 105.985 66.918C105.93 66.6949 105.805 66.5208 105.609 66.401Z" fill="#FF3874"/>
<path d="M105.592 61.2344C105.157 61.2344 104.76 61.3541 104.395 61.599C104.031 61.8438 103.764 62.1649 103.59 62.573C103.497 62.7852 103.492 62.9974 103.574 63.2151C103.655 63.4328 103.802 63.5851 104.009 63.6831C104.216 63.7756 104.428 63.781 104.645 63.6994C104.858 63.6178 105.01 63.4708 105.108 63.2586C105.19 63.0301 105.353 62.9158 105.592 62.9158C105.837 62.9158 106 63.0301 106.082 63.2586C106.175 63.4708 106.332 63.6178 106.545 63.6994C106.757 63.781 106.969 63.7756 107.181 63.6831C107.388 63.5851 107.535 63.4328 107.617 63.2151C107.698 62.9974 107.693 62.7852 107.6 62.573C107.426 62.1649 107.159 61.8438 106.795 61.599C106.43 61.3541 106.028 61.2344 105.592 61.2344Z" fill="#FF3874"/>
<path d="M99.7808 62.9158C100.02 62.9158 100.183 63.0301 100.271 63.2586C100.363 63.4708 100.515 63.6178 100.733 63.6994C100.945 63.781 101.157 63.7756 101.364 63.6831C101.576 63.5851 101.718 63.4328 101.8 63.2151C101.881 62.9974 101.876 62.7852 101.783 62.573C101.615 62.1649 101.343 61.8438 100.983 61.599C100.619 61.3541 100.216 61.2344 99.7808 61.2344C99.3455 61.2344 98.9428 61.3541 98.5837 61.599C98.2191 61.8438 97.947 62.1649 97.7783 62.573C97.6858 62.7852 97.6804 62.9974 97.762 63.2151C97.8436 63.4328 97.9851 63.5851 98.1973 63.6831C98.4041 63.7756 98.6163 63.781 98.8285 63.6994C99.0462 63.6178 99.1985 63.4708 99.291 63.2586C99.3781 63.0301 99.5414 62.9158 99.7808 62.9158Z" fill="#FF3874"/>
<path d="M43.7456 122.336C42.6425 122.336 41.6151 122.156 40.6637 121.798C39.726 121.426 38.9055 120.909 38.2022 120.247C37.5128 119.571 36.975 118.778 36.5889 117.868C36.2028 116.958 36.0097 115.965 36.0097 114.889C36.0097 113.814 36.2028 112.821 36.5889 111.911C36.975 111.001 37.5197 110.215 38.2229 109.553C38.9262 108.877 39.7467 108.36 40.6843 108.002C41.622 107.629 42.6493 107.443 43.7663 107.443C44.9522 107.443 46.0347 107.65 47.0137 108.064C47.9928 108.464 48.8201 109.063 49.4958 109.863L47.7583 111.497C47.2343 110.932 46.6483 110.511 46.0002 110.235C45.3521 109.946 44.6488 109.801 43.8904 109.801C43.132 109.801 42.4356 109.925 41.8013 110.173C41.1808 110.422 40.6361 110.773 40.1672 111.228C39.7122 111.683 39.3537 112.221 39.0917 112.842C38.8435 113.462 38.7193 114.145 38.7193 114.889C38.7193 115.634 38.8435 116.317 39.0917 116.937C39.3537 117.558 39.7122 118.095 40.1672 118.551C40.6361 119.006 41.1808 119.357 41.8013 119.605C42.4356 119.854 43.132 119.978 43.8904 119.978C44.6488 119.978 45.3521 119.84 46.0002 119.564C46.6483 119.274 47.2343 118.84 47.7583 118.261L49.4958 119.916C48.8201 120.702 47.9928 121.302 47.0137 121.715C46.0347 122.129 44.9453 122.336 43.7456 122.336ZM56.3641 122.274C55.2334 122.274 54.2267 122.032 53.3442 121.55C52.4617 121.053 51.7653 120.378 51.2551 119.523C50.7449 118.668 50.4898 117.696 50.4898 116.606C50.4898 115.503 50.7449 114.531 51.2551 113.69C51.7653 112.835 52.4617 112.166 53.3442 111.683C54.2267 111.201 55.2334 110.959 56.3641 110.959C57.5086 110.959 58.5222 111.201 59.4047 111.683C60.301 112.166 60.9974 112.828 61.4938 113.669C62.004 114.51 62.2591 115.489 62.2591 116.606C62.2591 117.696 62.004 118.668 61.4938 119.523C60.9974 120.378 60.301 121.053 59.4047 121.55C58.5222 122.032 57.5086 122.274 56.3641 122.274ZM56.3641 120.06C56.9984 120.06 57.5638 119.923 58.0602 119.647C58.5566 119.371 58.9427 118.971 59.2185 118.447C59.5081 117.923 59.6529 117.309 59.6529 116.606C59.6529 115.889 59.5081 115.276 59.2185 114.765C58.9427 114.241 58.5566 113.841 58.0602 113.566C57.5638 113.29 57.0053 113.152 56.3848 113.152C55.7505 113.152 55.1851 113.29 54.6887 113.566C54.2061 113.841 53.82 114.241 53.5304 114.765C53.2408 115.276 53.096 115.889 53.096 116.606C53.096 117.309 53.2408 117.923 53.5304 118.447C53.82 118.971 54.2061 119.371 54.6887 119.647C55.1851 119.923 55.7436 120.06 56.3641 120.06ZM70.9988 110.959C71.8814 110.959 72.6674 111.132 73.3568 111.477C74.0601 111.821 74.6117 112.352 75.0116 113.069C75.4115 113.772 75.6114 114.683 75.6114 115.8V122.129H73.0259V116.13C73.0259 115.151 72.7915 114.421 72.3226 113.938C71.8676 113.455 71.2264 113.214 70.399 113.214C69.7923 113.214 69.2545 113.338 68.7856 113.586C68.3168 113.835 67.9514 114.207 67.6894 114.703C67.4412 115.186 67.3171 115.8 67.3171 116.544V122.129H64.7315V111.084H67.1929V114.062L66.7586 113.152C67.1447 112.449 67.7032 111.911 68.434 111.539C69.1786 111.152 70.0336 110.959 70.9988 110.959ZM82.3042 122.274C81.3803 122.274 80.4909 122.156 79.636 121.922C78.7948 121.674 78.126 121.377 77.6296 121.033L78.6224 119.068C79.1188 119.385 79.7118 119.647 80.4013 119.854C81.0907 120.06 81.7802 120.164 82.4697 120.164C83.2833 120.164 83.8693 120.054 84.2278 119.833C84.6002 119.612 84.7863 119.316 84.7863 118.944C84.7863 118.64 84.6622 118.413 84.414 118.261C84.1658 118.095 83.8417 117.971 83.4418 117.889C83.042 117.806 82.5938 117.73 82.0974 117.661C81.6147 117.592 81.1252 117.503 80.6288 117.392C80.1462 117.268 79.7049 117.096 79.305 116.875C78.9051 116.641 78.5811 116.33 78.3328 115.944C78.0846 115.558 77.9605 115.048 77.9605 114.414C77.9605 113.71 78.1605 113.104 78.5604 112.593C78.9603 112.069 79.5187 111.67 80.2358 111.394C80.9666 111.104 81.8285 110.959 82.8213 110.959C83.566 110.959 84.3175 111.042 85.0759 111.208C85.8343 111.373 86.4617 111.608 86.9582 111.911L85.9653 113.876C85.4413 113.559 84.9104 113.345 84.3726 113.235C83.8486 113.111 83.3246 113.049 82.8006 113.049C82.0146 113.049 81.4286 113.166 81.0425 113.4C80.6702 113.635 80.484 113.931 80.484 114.29C80.484 114.621 80.6081 114.869 80.8563 115.034C81.1045 115.2 81.4286 115.331 81.8285 115.427C82.2284 115.524 82.6696 115.606 83.1523 115.675C83.6487 115.731 84.1382 115.82 84.6209 115.944C85.1035 116.068 85.5447 116.241 85.9446 116.461C86.3583 116.668 86.6893 116.965 86.9375 117.351C87.1857 117.737 87.3098 118.24 87.3098 118.861C87.3098 119.55 87.103 120.15 86.6893 120.66C86.2894 121.171 85.7171 121.57 84.9725 121.86C84.2279 122.136 83.3384 122.274 82.3042 122.274ZM94.5006 122.274C93.3699 122.274 92.3633 122.032 91.4807 121.55C90.5982 121.053 89.9018 120.378 89.3916 119.523C88.8814 118.668 88.6263 117.696 88.6263 116.606C88.6263 115.503 88.8814 114.531 89.3916 113.69C89.9018 112.835 90.5982 112.166 91.4807 111.683C92.3633 111.201 93.3699 110.959 94.5006 110.959C95.6452 110.959 96.6587 111.201 97.5412 111.683C98.4375 112.166 99.1339 112.828 99.6303 113.669C100.141 114.51 100.396 115.489 100.396 116.606C100.396 117.696 100.141 118.668 99.6303 119.523C99.1339 120.378 98.4375 121.053 97.5412 121.55C96.6587 122.032 95.6452 122.274 94.5006 122.274ZM94.5006 120.06C95.135 120.06 95.7003 119.923 96.1967 119.647C96.6932 119.371 97.0793 118.971 97.3551 118.447C97.6446 117.923 97.7894 117.309 97.7894 116.606C97.7894 115.889 97.6446 115.276 97.3551 114.765C97.0793 114.241 96.6932 113.841 96.1967 113.566C95.7003 113.29 95.1418 113.152 94.5213 113.152C93.887 113.152 93.3216 113.29 92.8252 113.566C92.3426 113.841 91.9565 114.241 91.6669 114.765C91.3773 115.276 91.2325 115.889 91.2325 116.606C91.2325 117.309 91.3773 117.923 91.6669 118.447C91.9565 118.971 92.3426 119.371 92.8252 119.647C93.3216 119.923 93.8801 120.06 94.5006 120.06ZM102.868 122.129V106.781H105.454V122.129H102.868ZM108.847 122.129V111.084H111.433V122.129H108.847ZM110.15 109.263C109.668 109.263 109.268 109.112 108.95 108.808C108.647 108.505 108.495 108.139 108.495 107.712C108.495 107.271 108.647 106.905 108.95 106.616C109.268 106.312 109.668 106.161 110.15 106.161C110.633 106.161 111.026 106.305 111.329 106.595C111.646 106.871 111.805 107.222 111.805 107.65C111.805 108.105 111.653 108.491 111.35 108.808C111.046 109.112 110.647 109.263 110.15 109.263ZM119.501 122.274C118.439 122.274 117.481 122.039 116.626 121.57C115.784 121.088 115.123 120.426 114.64 119.585C114.157 118.744 113.916 117.751 113.916 116.606C113.916 115.462 114.157 114.469 114.64 113.628C115.123 112.787 115.784 112.132 116.626 111.663C117.481 111.194 118.439 110.959 119.501 110.959C120.425 110.959 121.252 111.166 121.983 111.58C122.714 111.98 123.293 112.593 123.72 113.421C124.148 114.248 124.362 115.31 124.362 116.606C124.362 117.889 124.155 118.95 123.741 119.792C123.327 120.619 122.755 121.239 122.024 121.653C121.293 122.067 120.452 122.274 119.501 122.274ZM119.811 120.06C120.432 120.06 120.983 119.923 121.466 119.647C121.962 119.371 122.355 118.971 122.645 118.447C122.948 117.923 123.1 117.309 123.1 116.606C123.1 115.889 122.948 115.276 122.645 114.765C122.355 114.241 121.962 113.841 121.466 113.566C120.983 113.29 120.432 113.152 119.811 113.152C119.19 113.152 118.632 113.29 118.136 113.566C117.653 113.841 117.26 114.241 116.957 114.765C116.667 115.276 116.522 115.889 116.522 116.606C116.522 117.309 116.667 117.923 116.957 118.447C117.26 118.971 117.653 119.371 118.136 119.647C118.632 119.923 119.19 120.06 119.811 120.06ZM123.162 122.129V119.523L123.265 116.586L123.058 113.648V106.781H125.623V122.129H123.162ZM135.831 122.129V119.895L135.687 119.419V115.51C135.687 114.752 135.459 114.165 135.004 113.752C134.549 113.324 133.86 113.111 132.936 113.111C132.315 113.111 131.701 113.207 131.095 113.4C130.502 113.593 129.998 113.862 129.585 114.207L128.571 112.325C129.164 111.87 129.867 111.532 130.681 111.311C131.508 111.077 132.363 110.959 133.246 110.959C134.845 110.959 136.08 111.346 136.948 112.118C137.831 112.876 138.272 114.055 138.272 115.655V122.129H135.831ZM132.356 122.274C131.529 122.274 130.805 122.136 130.185 121.86C129.564 121.57 129.081 121.177 128.737 120.681C128.406 120.171 128.24 119.599 128.24 118.964C128.24 118.344 128.385 117.785 128.675 117.289C128.978 116.792 129.468 116.399 130.143 116.11C130.819 115.82 131.715 115.675 132.832 115.675H136.038V117.392H133.018C132.136 117.392 131.543 117.537 131.24 117.827C130.936 118.102 130.784 118.447 130.784 118.861C130.784 119.33 130.971 119.702 131.343 119.978C131.715 120.254 132.232 120.391 132.894 120.391C133.529 120.391 134.094 120.247 134.59 119.957C135.101 119.667 135.466 119.24 135.687 118.675L136.121 120.226C135.873 120.874 135.425 121.377 134.777 121.736C134.142 122.094 133.336 122.274 132.356 122.274ZM145.748 122.274C144.534 122.274 143.597 121.963 142.935 121.343C142.273 120.709 141.942 119.778 141.942 118.551V108.643H144.528V118.488C144.528 119.012 144.659 119.419 144.921 119.709C145.196 119.998 145.576 120.143 146.058 120.143C146.637 120.143 147.12 119.992 147.506 119.688L148.23 121.529C147.927 121.777 147.554 121.963 147.113 122.088C146.672 122.212 146.217 122.274 145.748 122.274ZM140.122 113.235V111.166H147.485V113.235H140.122ZM150.357 122.129V111.084H152.942V122.129H150.357ZM151.66 109.263C151.177 109.263 150.777 109.112 150.46 108.808C150.157 108.505 150.005 108.139 150.005 107.712C150.005 107.271 150.157 106.905 150.46 106.616C150.777 106.312 151.177 106.161 151.66 106.161C152.143 106.161 152.536 106.305 152.839 106.595C153.156 106.871 153.315 107.222 153.315 107.65C153.315 108.105 153.163 108.491 152.86 108.808C152.556 109.112 152.156 109.263 151.66 109.263ZM161.3 122.274C160.169 122.274 159.163 122.032 158.28 121.55C157.398 121.053 156.701 120.378 156.191 119.523C155.681 118.668 155.426 117.696 155.426 116.606C155.426 115.503 155.681 114.531 156.191 113.69C156.701 112.835 157.398 112.166 158.28 111.683C159.163 111.201 160.169 110.959 161.3 110.959C162.445 110.959 163.458 111.201 164.341 111.683C165.237 112.166 165.933 112.828 166.43 113.669C166.94 114.51 167.195 115.489 167.195 116.606C167.195 117.696 166.94 118.668 166.43 119.523C165.933 120.378 165.237 121.053 164.341 121.55C163.458 122.032 162.445 122.274 161.3 122.274ZM161.3 120.06C161.934 120.06 162.5 119.923 162.996 119.647C163.493 119.371 163.879 118.971 164.155 118.447C164.444 117.923 164.589 117.309 164.589 116.606C164.589 115.889 164.444 115.276 164.155 114.765C163.879 114.241 163.493 113.841 162.996 113.566C162.5 113.29 161.941 113.152 161.321 113.152C160.687 113.152 160.121 113.29 159.625 113.566C159.142 113.841 158.756 114.241 158.466 114.765C158.177 115.276 158.032 115.889 158.032 116.606C158.032 117.309 158.177 117.923 158.466 118.447C158.756 118.971 159.142 119.371 159.625 119.647C160.121 119.923 160.68 120.06 161.3 120.06ZM175.935 110.959C176.817 110.959 177.603 111.132 178.293 111.477C178.996 111.821 179.548 112.352 179.948 113.069C180.347 113.772 180.547 114.683 180.547 115.8V122.129H177.962V116.13C177.962 115.151 177.727 114.421 177.259 113.938C176.804 113.455 176.162 113.214 175.335 113.214C174.728 113.214 174.19 113.338 173.722 113.586C173.253 113.835 172.887 114.207 172.625 114.703C172.377 115.186 172.253 115.8 172.253 116.544V122.129H169.668V111.084H172.129V114.062L171.695 113.152C172.081 112.449 172.639 111.911 173.37 111.539C174.115 111.152 174.97 110.959 175.935 110.959Z" fill="black"/>
</svg>
