<svg width="232" height="298" viewBox="0 0 232 298" fill="none" xmlns="http://www.w3.org/2000/svg">
<path d="M12.6416 117.129V237.044L116.252 297.001L219.862 237.044V117.129L116.252 57.1719L12.6416 117.129Z" fill="#147F00"/>
<path d="M0.414062 67.0574V201.172L116.121 268.23L231.828 201.172V67.0574L116.121 0L0.414062 67.0574Z" fill="white"/>
<path d="M112.034 59.4209C111.722 59.4209 111.459 59.3113 111.239 59.0977C111.015 58.8785 110.905 58.6101 110.905 58.3033V56.0626C110.905 55.7503 111.015 55.4873 111.239 55.2682C111.459 55.049 111.722 54.9395 112.034 54.9395C112.346 54.9395 112.615 55.049 112.834 55.2682C113.053 55.4873 113.162 55.7503 113.162 56.0626V58.3033C113.162 58.6101 113.053 58.8785 112.834 59.0977C112.615 59.3113 112.346 59.4209 112.034 59.4209Z" fill="#147F00"/>
<path d="M118.806 59.4209C118.494 59.4209 118.231 59.3113 118.006 59.0977C117.787 58.8785 117.677 58.6101 117.677 58.3033V56.0626C117.677 55.7503 117.787 55.4873 118.006 55.2682C118.231 55.049 118.494 54.9395 118.806 54.9395C119.118 54.9395 119.381 55.049 119.606 55.2682C119.825 55.4873 119.934 55.7503 119.934 56.0626V58.3033C119.934 58.6101 119.825 58.8785 119.606 59.0977C119.381 59.3113 119.118 59.4209 118.806 59.4209Z" fill="#147F00"/>
<path d="M125.577 59.4209C125.265 59.4209 124.996 59.3113 124.777 59.0977C124.558 58.8785 124.448 58.6101 124.448 58.3033V56.0626C124.448 55.7503 124.558 55.4873 124.777 55.2682C124.996 55.049 125.265 54.9395 125.577 54.9395C125.889 54.9395 126.152 55.049 126.371 55.2682C126.596 55.4873 126.705 55.7503 126.705 56.0626V58.3033C126.705 58.6101 126.596 58.8785 126.371 59.0977C126.152 59.3113 125.889 59.4209 125.577 59.4209Z" fill="#147F00"/>
<path d="M116.548 67.2706H109.776C109.464 67.2706 109.201 67.1611 108.982 66.9419C108.763 66.7228 108.648 66.4598 108.648 66.1475C108.648 65.8407 108.763 65.5723 108.982 65.3586C109.201 65.1395 109.464 65.0299 109.776 65.0299H116.548C116.854 65.0354 117.117 64.9258 117.326 64.7012C117.556 64.4875 117.671 64.2191 117.676 63.9068C117.676 63.5945 117.567 63.3316 117.347 63.1124C117.123 62.8933 116.86 62.7837 116.548 62.7837H101.882C101.569 62.7837 101.301 62.6741 101.082 62.455C100.863 62.2358 100.753 61.9729 100.753 61.6661C100.753 61.3538 100.863 61.0908 101.082 60.8717C101.301 60.6525 101.569 60.543 101.882 60.543H116.548C116.997 60.543 117.43 60.6306 117.846 60.8005C118.257 60.9703 118.624 61.2114 118.942 61.5291C119.259 61.8414 119.506 62.2084 119.676 62.6193C119.846 63.0302 119.933 63.463 119.933 63.9068C119.933 64.3506 119.846 64.7834 119.676 65.1943C119.506 65.6051 119.259 65.9667 118.942 66.2845C118.624 66.6022 118.257 66.8433 117.846 67.0131C117.43 67.183 116.997 67.2706 116.548 67.2706Z" fill="#147F00"/>
<path d="M121.062 76.2364H101.882C101.569 76.2364 101.301 76.1269 101.082 75.9077C100.863 75.6886 100.753 75.4256 100.753 75.1133C100.753 74.8065 100.863 74.5381 101.082 74.3244C101.301 74.1053 101.569 73.9957 101.882 73.9957H121.062C122.503 73.5903 130.085 65.8327 136.484 58.5681C136.736 58.3435 136.862 58.0641 136.857 57.7244C136.857 57.4176 136.747 57.1546 136.528 56.9355C136.309 56.7164 136.04 56.6068 135.728 56.6068C135.421 56.6068 135.158 56.7109 134.939 56.9191L124.864 66.9284C124.639 67.142 124.371 67.2516 124.064 67.2571H109.776C109.464 67.2571 109.201 67.1475 108.982 66.9284C108.763 66.7092 108.648 66.4463 108.648 66.134C108.648 65.8272 108.763 65.5587 108.982 65.3396C109.201 65.1259 109.464 65.0164 109.776 65.0164H123.609L133.35 55.3412C134.008 54.6948 134.802 54.3715 135.728 54.377C136.177 54.377 136.61 54.4592 137.026 54.629C137.437 54.8043 137.804 55.0454 138.122 55.3577C138.44 55.6754 138.686 56.037 138.856 56.4534C139.026 56.8643 139.114 57.2916 139.114 57.7409C139.125 58.6722 138.796 59.4666 138.122 60.1131C132.841 66.1449 123.522 76.2364 121.062 76.2364Z" fill="#147F00"/>
<path d="M99.6244 79.6034H97.3672C96.9179 79.6034 96.4851 79.5157 96.0688 79.3459C95.6579 79.1761 95.2908 78.935 94.9731 78.6173C94.6553 78.2995 94.4088 77.9379 94.2389 77.527C94.0691 77.1161 93.9814 76.6833 93.9814 76.2396V60.5435C93.9814 60.0998 94.0691 59.6669 94.2389 59.2561C94.4088 58.8452 94.6553 58.4836 94.9731 58.1658C95.2908 57.8481 95.6579 57.607 96.0688 57.4372C96.4851 57.2673 96.9179 57.1797 97.3672 57.1797H99.6244C100.074 57.1797 100.506 57.2673 100.917 57.4372C101.334 57.607 101.701 57.8481 102.018 58.1658C102.336 58.4836 102.577 58.8452 102.753 59.2561C102.922 59.6669 103.01 60.0998 103.01 60.5435V76.2396C103.01 76.6833 102.922 77.1161 102.753 77.527C102.577 77.9379 102.336 78.2995 102.018 78.6173C101.701 78.935 101.334 79.1761 100.917 79.3459C100.506 79.5157 100.074 79.6034 99.6244 79.6034ZM97.3672 59.4204C97.0549 59.4204 96.7865 59.53 96.5673 59.7491C96.3482 59.9683 96.2386 60.2367 96.2386 60.5435V76.2396C96.2386 76.5464 96.3482 76.8148 96.5673 77.034C96.7865 77.2531 97.0549 77.3572 97.3672 77.3572H99.6244C99.9366 77.3572 100.2 77.2531 100.419 77.034C100.643 76.8148 100.753 76.5464 100.753 76.2396V60.5435C100.753 60.2367 100.643 59.9683 100.419 59.7491C100.2 59.53 99.9366 59.4204 99.6244 59.4204H97.3672Z" fill="#147F00"/>
<path d="M127.834 53.8151H109.776C109.327 53.8151 108.9 53.7329 108.483 53.5631C108.067 53.3877 107.7 53.1467 107.382 52.8344C107.07 52.5167 106.823 52.1551 106.654 51.7387C106.478 51.3278 106.391 50.9005 106.391 50.4512V41.4829C106.391 41.1761 106.506 40.9131 106.725 40.6939C106.944 40.4748 107.212 40.3652 107.519 40.3652C107.831 40.3652 108.1 40.4748 108.319 40.6939C108.538 40.9131 108.648 41.1761 108.648 41.4829V50.4512C108.648 50.7635 108.763 51.0265 108.982 51.2456C109.201 51.4648 109.464 51.5743 109.776 51.5743H127.834C128.14 51.5743 128.409 51.4648 128.628 51.2456C128.847 51.0265 128.962 50.7635 128.962 50.4512V41.4829C128.962 41.1761 129.072 40.9131 129.291 40.6939C129.51 40.4748 129.779 40.3652 130.085 40.3652C130.398 40.3652 130.666 40.4748 130.885 40.6939C131.104 40.9131 131.214 41.1761 131.214 41.4829V50.4512C131.214 50.9005 131.132 51.3278 130.956 51.7387C130.787 52.1551 130.54 52.5167 130.222 52.8344C129.91 53.1467 129.543 53.3877 129.127 53.5631C128.71 53.7329 128.283 53.8151 127.834 53.8151Z" fill="#147F00"/>
<path d="M121.062 53.8151H116.548C116.236 53.8151 115.973 53.7055 115.748 53.4864C115.529 53.2672 115.419 53.0043 115.419 52.6975V41.4829C115.419 41.1761 115.529 40.9131 115.748 40.6939C115.973 40.4748 116.236 40.3652 116.548 40.3652C116.86 40.3652 117.123 40.4748 117.348 40.6939C117.567 40.9131 117.677 41.1761 117.677 41.4829V51.5743H119.934V41.4829C119.934 41.1761 120.043 40.9131 120.262 40.6939C120.482 40.4748 120.75 40.3652 121.062 40.3652C121.375 40.3652 121.638 40.4748 121.862 40.6939C122.081 40.9131 122.191 41.1761 122.191 41.4829V52.6975C122.191 53.0043 122.081 53.2672 121.862 53.4864C121.638 53.7055 121.375 53.8151 121.062 53.8151Z" fill="#147F00"/>
<path d="M115.118 38.1255C114.91 38.1255 114.718 38.0708 114.538 37.9667C114.275 37.8078 114.099 37.5777 114.023 37.2818C113.946 36.9805 113.984 36.6956 114.143 36.4327C114.242 36.2574 114.291 36.0766 114.291 35.8793V34.7617C114.351 34.0495 114.083 33.4962 113.48 33.1017C112.68 32.6634 111.82 32.4662 110.905 32.5155C110.593 32.5155 110.33 32.6251 110.111 32.8442C109.886 33.0634 109.777 33.3318 109.777 33.6386V35.8793C109.777 36.0766 109.826 36.2574 109.925 36.4327C110.045 36.6902 110.062 36.9586 109.974 37.2325C109.881 37.5065 109.716 37.7147 109.464 37.8626C109.212 38.005 108.949 38.0488 108.665 37.9886C108.38 37.9283 108.155 37.7859 107.985 37.5503C107.678 37.0353 107.525 36.4765 107.52 35.8793V33.6386C107.52 33.1949 107.607 32.762 107.777 32.3512C107.952 31.9403 108.193 31.5787 108.511 31.2609C108.829 30.9432 109.196 30.7021 109.612 30.5323C110.029 30.3624 110.456 30.2748 110.905 30.2748C112.269 30.2145 113.54 30.5323 114.707 31.2281C115.31 31.6116 115.776 32.1211 116.104 32.7511C116.433 33.3811 116.581 34.0495 116.548 34.7617V35.8793C116.548 36.4875 116.395 37.0517 116.088 37.5722C115.869 37.9393 115.546 38.1255 115.118 38.1255Z" fill="#147F00"/>
<path d="M128.656 38.1237C128.448 38.1237 128.256 38.0689 128.08 37.9648C127.812 37.8059 127.642 37.5758 127.56 37.28C127.483 36.9787 127.527 36.6938 127.686 36.4308C127.785 36.2555 127.828 36.0747 127.834 35.8775V33.6368C127.834 33.33 127.719 33.0615 127.5 32.8424C127.281 32.6232 127.018 32.5137 126.705 32.5137C125.796 32.4644 124.941 32.6561 124.141 33.0889C123.862 33.2697 123.648 33.5108 123.5 33.8121C123.352 34.1079 123.292 34.4257 123.32 34.7599V35.8775C123.32 36.0747 123.369 36.2555 123.468 36.4308C123.583 36.6883 123.599 36.9568 123.511 37.2307C123.424 37.5046 123.254 37.7128 123.002 37.8607C122.755 38.0032 122.487 38.047 122.202 37.9867C121.923 37.9265 121.692 37.784 121.523 37.5484C121.221 37.0335 121.068 36.4747 121.062 35.8775V34.7599C121.03 34.0477 121.183 33.3738 121.512 32.7438C121.84 32.1082 122.306 31.5987 122.914 31.2152C124.081 30.5249 125.347 30.2127 126.705 30.2729C127.155 30.2729 127.582 30.3606 127.998 30.5304C128.415 30.7003 128.782 30.9413 129.099 31.2591C129.412 31.5768 129.658 31.9384 129.828 32.3493C130.003 32.7602 130.086 33.193 130.086 33.6368V35.8775C130.086 36.4856 129.932 37.0499 129.625 37.5704C129.406 37.9374 129.083 38.1237 128.656 38.1237Z" fill="#147F00"/>
<path d="M121.884 38.1261C121.681 38.1261 121.489 38.0713 121.309 37.9672C121.04 37.8083 120.87 37.5782 120.794 37.2824C120.717 36.9811 120.755 36.6962 120.914 36.4332C121.013 36.2579 121.062 36.0771 121.062 35.8799V34.7623C121.062 34.45 120.952 34.187 120.733 33.9679C120.509 33.7487 120.246 33.6392 119.933 33.6392H117.676C117.364 33.6392 117.101 33.7487 116.876 33.9679C116.657 34.187 116.548 34.45 116.548 34.7623V35.8799C116.548 36.0771 116.597 36.2579 116.696 36.4332C116.816 36.6907 116.827 36.9592 116.739 37.2331C116.652 37.507 116.482 37.7152 116.235 37.8631C115.983 38.0056 115.715 38.0494 115.436 37.9891C115.151 37.9289 114.926 37.7864 114.756 37.5508C114.449 37.0359 114.296 36.4771 114.291 35.8799V34.7623C114.291 34.313 114.378 33.8857 114.548 33.4748C114.723 33.0639 114.964 32.6969 115.282 32.3846C115.6 32.0668 115.967 31.8258 116.383 31.6559C116.794 31.4806 117.227 31.3984 117.676 31.3984H119.933C120.383 31.3984 120.815 31.4806 121.226 31.6559C121.643 31.8258 122.01 32.0668 122.328 32.3846C122.645 32.6969 122.886 33.0639 123.062 33.4748C123.232 33.8857 123.319 34.313 123.319 34.7623V35.8799C123.319 36.488 123.16 37.0523 122.854 37.5728C122.634 37.9398 122.311 38.1261 121.884 38.1261Z" fill="#147F00"/>
<path d="M130.086 42.6066H107.519C107.076 42.6066 106.643 42.5244 106.226 42.3491C105.81 42.1792 105.443 41.9382 105.131 41.6204C104.813 41.3081 104.566 40.9411 104.397 40.5302C104.221 40.1193 104.139 39.692 104.139 39.2427C104.139 38.799 104.221 38.3662 104.397 37.9553C104.566 37.5444 104.813 37.1828 105.131 36.865C105.443 36.5528 105.81 36.3062 106.226 36.1364C106.643 35.9666 107.076 35.8789 107.519 35.8789H130.086C130.535 35.8789 130.968 35.9666 131.384 36.1364C131.8 36.3062 132.162 36.5528 132.48 36.865C132.797 37.1828 133.044 37.5444 133.214 37.9553C133.389 38.3662 133.471 38.799 133.471 39.2427C133.471 39.692 133.389 40.1193 133.214 40.5302C133.044 40.9411 132.797 41.3081 132.48 41.6204C132.162 41.9382 131.8 42.1792 131.384 42.3491C130.968 42.5244 130.535 42.6066 130.086 42.6066ZM107.519 38.1251C107.213 38.1251 106.944 38.2347 106.725 38.4538C106.506 38.6675 106.391 38.9359 106.391 39.2427C106.391 39.555 106.506 39.818 106.725 40.0371C106.944 40.2563 107.213 40.3658 107.519 40.3658H130.086C130.398 40.3658 130.666 40.2563 130.885 40.0371C131.105 39.818 131.214 39.555 131.214 39.2427C131.214 38.9359 131.105 38.6675 130.885 38.4538C130.666 38.2347 130.398 38.1251 130.086 38.1251H107.519Z" fill="#147F00"/>
<path d="M123.32 42.6066H114.291C113.979 42.6066 113.716 42.497 113.497 42.2779C113.272 42.0587 113.163 41.7957 113.163 41.4835V37.002C113.163 36.6897 113.272 36.4268 113.497 36.2076C113.716 35.9885 113.979 35.8789 114.291 35.8789H123.32C123.632 35.8789 123.895 35.9885 124.114 36.2076C124.339 36.4268 124.448 36.6897 124.448 37.002V41.4835C124.448 41.7957 124.339 42.0587 124.114 42.2779C123.895 42.497 123.632 42.6066 123.32 42.6066ZM115.42 40.3658H122.191V38.1251H115.42V40.3658Z" fill="#147F00"/>
<path d="M51.8306 118.918V104.34H58.203C59.7857 104.34 61.1741 104.646 62.368 105.257C63.562 105.868 64.4922 106.715 65.1586 107.797C65.825 108.88 66.1582 110.158 66.1582 111.629C66.1582 113.087 65.825 114.364 65.1586 115.461C64.4922 116.544 63.562 117.391 62.368 118.002C61.1741 118.613 59.7857 118.918 58.203 118.918H51.8306ZM54.5378 116.627H58.0781C59.1749 116.627 60.1189 116.419 60.9103 116.002C61.7155 115.586 62.3333 115.003 62.7637 114.253C63.208 113.503 63.4301 112.629 63.4301 111.629C63.4301 110.616 63.208 109.741 62.7637 109.005C62.3333 108.256 61.7155 107.672 60.9103 107.256C60.1189 106.839 59.1749 106.631 58.0781 106.631H54.5378V116.627ZM74.0128 119.064C72.7771 119.064 71.6942 118.821 70.7641 118.335C69.8478 117.835 69.1328 117.155 68.6191 116.294C68.1193 115.433 67.8694 114.454 67.8694 113.358C67.8694 112.247 68.1123 111.268 68.5983 110.421C69.0981 109.561 69.7783 108.887 70.6391 108.401C71.5138 107.915 72.5064 107.672 73.6171 107.672C74.7 107.672 75.6649 107.909 76.5117 108.381C77.3586 108.853 78.025 109.519 78.5109 110.38C78.9969 111.241 79.2398 112.254 79.2398 113.42C79.2398 113.531 79.2329 113.656 79.219 113.795C79.219 113.934 79.212 114.066 79.1982 114.191H69.9311V112.462H77.8237L76.8033 113.004C76.8172 112.365 76.6853 111.803 76.4076 111.317C76.13 110.831 75.7482 110.449 75.2622 110.171C74.7902 109.894 74.2418 109.755 73.6171 109.755C72.9784 109.755 72.4162 109.894 71.9303 110.171C71.4582 110.449 71.0834 110.838 70.8057 111.338C70.5419 111.824 70.41 112.4 70.41 113.066V113.483C70.41 114.149 70.5628 114.739 70.8682 115.253C71.1736 115.766 71.604 116.162 72.1593 116.44C72.7147 116.717 73.3533 116.856 74.0752 116.856C74.7 116.856 75.2622 116.759 75.762 116.565C76.2618 116.37 76.7061 116.065 77.0948 115.648L78.4901 117.252C77.9903 117.835 77.3586 118.286 76.595 118.606C75.8453 118.911 74.9846 119.064 74.0128 119.064ZM81.7403 118.918V103.466H84.3434V118.918H81.7403ZM87.76 118.918V107.797H90.3631V118.918H87.76ZM89.072 105.965C88.586 105.965 88.1834 105.812 87.8641 105.507C87.5587 105.201 87.406 104.833 87.406 104.403C87.406 103.959 87.5587 103.591 87.8641 103.299C88.1834 102.994 88.586 102.841 89.072 102.841C89.5579 102.841 89.9536 102.987 90.259 103.278C90.5783 103.556 90.738 103.91 90.738 104.34C90.738 104.799 90.5852 105.187 90.2798 105.507C89.9744 105.812 89.5718 105.965 89.072 105.965ZM96.7368 118.918L91.9679 107.797H94.6752L98.7777 117.606H97.4449L101.693 107.797H104.192L99.4233 118.918H96.7368ZM110.741 119.064C109.506 119.064 108.423 118.821 107.492 118.335C106.576 117.835 105.861 117.155 105.347 116.294C104.848 115.433 104.598 114.454 104.598 113.358C104.598 112.247 104.841 111.268 105.327 110.421C105.826 109.561 106.507 108.887 107.367 108.401C108.242 107.915 109.235 107.672 110.345 107.672C111.428 107.672 112.393 107.909 113.24 108.381C114.087 108.853 114.753 109.519 115.239 110.38C115.725 111.241 115.968 112.254 115.968 113.42C115.968 113.531 115.961 113.656 115.947 113.795C115.947 113.934 115.94 114.066 115.927 114.191H106.659V112.462H114.552L113.532 113.004C113.546 112.365 113.414 111.803 113.136 111.317C112.858 110.831 112.477 110.449 111.991 110.171C111.519 109.894 110.97 109.755 110.345 109.755C109.707 109.755 109.145 109.894 108.659 110.171C108.187 110.449 107.812 110.838 107.534 111.338C107.27 111.824 107.138 112.4 107.138 113.066V113.483C107.138 114.149 107.291 114.739 107.597 115.253C107.902 115.766 108.332 116.162 108.888 116.44C109.443 116.717 110.082 116.856 110.804 116.856C111.428 116.856 111.991 116.759 112.49 116.565C112.99 116.37 113.435 116.065 113.823 115.648L115.219 117.252C114.719 117.835 114.087 118.286 113.323 118.606C112.574 118.911 111.713 119.064 110.741 119.064ZM118.469 118.918V107.797H120.947V110.859L120.655 109.963C120.988 109.214 121.509 108.644 122.217 108.256C122.939 107.867 123.835 107.672 124.904 107.672V110.151C124.793 110.123 124.688 110.109 124.591 110.109C124.494 110.095 124.397 110.088 124.3 110.088C123.314 110.088 122.53 110.38 121.946 110.963C121.363 111.532 121.072 112.386 121.072 113.524V118.918H118.469ZM133.17 118.918V116.669L133.024 116.19V112.254C133.024 111.49 132.795 110.9 132.337 110.484C131.879 110.053 131.185 109.838 130.255 109.838C129.63 109.838 129.012 109.935 128.401 110.13C127.804 110.324 127.297 110.595 126.881 110.942L125.861 109.047C126.458 108.589 127.166 108.249 127.985 108.027C128.818 107.79 129.678 107.672 130.567 107.672C132.177 107.672 133.42 108.061 134.295 108.839C135.183 109.602 135.627 110.789 135.627 112.4V118.918H133.17ZM129.672 119.064C128.839 119.064 128.11 118.925 127.485 118.647C126.86 118.356 126.374 117.96 126.027 117.46C125.694 116.947 125.527 116.37 125.527 115.732C125.527 115.107 125.673 114.545 125.965 114.045C126.27 113.545 126.763 113.149 127.443 112.858C128.124 112.566 129.026 112.421 130.15 112.421H133.378V114.149H130.338C129.449 114.149 128.852 114.295 128.547 114.586C128.242 114.864 128.089 115.211 128.089 115.628C128.089 116.1 128.276 116.475 128.651 116.752C129.026 117.03 129.547 117.169 130.213 117.169C130.852 117.169 131.421 117.023 131.921 116.731C132.434 116.44 132.802 116.009 133.024 115.44L133.462 117.002C133.212 117.655 132.761 118.161 132.108 118.522C131.469 118.883 130.657 119.064 129.672 119.064ZM145.132 119.064C144.188 119.064 143.348 118.855 142.613 118.439C141.877 118.022 141.294 117.398 140.863 116.565C140.447 115.718 140.239 114.649 140.239 113.358C140.239 112.053 140.454 110.984 140.884 110.151C141.328 109.318 141.918 108.7 142.654 108.297C143.404 107.881 144.23 107.672 145.132 107.672C146.229 107.672 147.194 107.909 148.027 108.381C148.874 108.853 149.54 109.512 150.026 110.359C150.526 111.206 150.776 112.205 150.776 113.358C150.776 114.51 150.526 115.51 150.026 116.356C149.54 117.203 148.874 117.87 148.027 118.356C147.194 118.828 146.229 119.064 145.132 119.064ZM138.968 118.918V103.466H141.571V110.38L141.363 113.337L141.446 116.294V118.918H138.968ZM144.841 116.835C145.466 116.835 146.021 116.697 146.507 116.419C147.007 116.141 147.402 115.739 147.694 115.211C147.985 114.684 148.131 114.066 148.131 113.358C148.131 112.636 147.985 112.018 147.694 111.504C147.402 110.977 147.007 110.574 146.507 110.296C146.021 110.019 145.466 109.88 144.841 109.88C144.216 109.88 143.654 110.019 143.154 110.296C142.654 110.574 142.259 110.977 141.967 111.504C141.675 112.018 141.53 112.636 141.53 113.358C141.53 114.066 141.675 114.684 141.967 115.211C142.259 115.739 142.654 116.141 143.154 116.419C143.654 116.697 144.216 116.835 144.841 116.835ZM153.245 118.918V103.466H155.848V118.918H153.245ZM164.491 119.064C163.256 119.064 162.173 118.821 161.243 118.335C160.327 117.835 159.612 117.155 159.098 116.294C158.598 115.433 158.348 114.454 158.348 113.358C158.348 112.247 158.591 111.268 159.077 110.421C159.577 109.561 160.257 108.887 161.118 108.401C161.993 107.915 162.985 107.672 164.096 107.672C165.179 107.672 166.144 107.909 166.99 108.381C167.837 108.853 168.504 109.519 168.99 110.38C169.476 111.241 169.719 112.254 169.719 113.42C169.719 113.531 169.712 113.656 169.698 113.795C169.698 113.934 169.691 114.066 169.677 114.191H160.41V112.462H168.302L167.282 113.004C167.296 112.365 167.164 111.803 166.886 111.317C166.609 110.831 166.227 110.449 165.741 110.171C165.269 109.894 164.721 109.755 164.096 109.755C163.457 109.755 162.895 109.894 162.409 110.171C161.937 110.449 161.562 110.838 161.284 111.338C161.021 111.824 160.889 112.4 160.889 113.066V113.483C160.889 114.149 161.041 114.739 161.347 115.253C161.652 115.766 162.083 116.162 162.638 116.44C163.193 116.717 163.832 116.856 164.554 116.856C165.179 116.856 165.741 116.759 166.241 116.565C166.741 116.37 167.185 116.065 167.574 115.648L168.969 117.252C168.469 117.835 167.837 118.286 167.074 118.606C166.324 118.911 165.463 119.064 164.491 119.064ZM175.655 119.064C174.725 119.064 173.829 118.946 172.969 118.71C172.122 118.46 171.448 118.161 170.949 117.814L171.948 115.836C172.448 116.155 173.045 116.419 173.739 116.627C174.433 116.835 175.128 116.94 175.822 116.94C176.641 116.94 177.231 116.829 177.592 116.606C177.967 116.384 178.154 116.086 178.154 115.711C178.154 115.405 178.029 115.176 177.779 115.024C177.529 114.857 177.203 114.732 176.801 114.649C176.398 114.566 175.947 114.489 175.447 114.42C174.961 114.35 174.468 114.26 173.968 114.149C173.482 114.024 173.038 113.851 172.636 113.628C172.233 113.392 171.907 113.08 171.657 112.691C171.407 112.303 171.282 111.789 171.282 111.15C171.282 110.442 171.483 109.831 171.886 109.318C172.288 108.79 172.851 108.387 173.573 108.11C174.308 107.818 175.176 107.672 176.176 107.672C176.925 107.672 177.682 107.756 178.446 107.922C179.209 108.089 179.841 108.325 180.341 108.63L179.341 110.609C178.814 110.289 178.279 110.074 177.738 109.963C177.21 109.838 176.682 109.776 176.155 109.776C175.364 109.776 174.774 109.894 174.385 110.13C174.01 110.366 173.823 110.664 173.823 111.025C173.823 111.359 173.947 111.608 174.197 111.775C174.447 111.942 174.774 112.073 175.176 112.171C175.579 112.268 176.023 112.351 176.509 112.421C177.009 112.476 177.502 112.566 177.988 112.691C178.473 112.816 178.918 112.99 179.32 113.212C179.737 113.42 180.07 113.719 180.32 114.107C180.57 114.496 180.695 115.003 180.695 115.628C180.695 116.322 180.487 116.926 180.07 117.439C179.667 117.953 179.091 118.356 178.342 118.647C177.592 118.925 176.696 119.064 175.655 119.064Z" fill="black"/>
</svg>
