<svg xmlns="http://www.w3.org/2000/svg" width="388.251" height="489.818" viewBox="0 0 388.251 489.818">
  <g id="deliverables" transform="translate(-1525.472 -2015.763)">
    <g id="Group_405" data-name="Group 405" transform="translate(99.076 -363.737)">
      <path id="Polygon_5" data-name="Polygon 5" d="M293.4,0l97.8,169.553L293.4,339.105H97.8L0,169.553,97.8,0Z" transform="translate(1790.074 2478.119) rotate(90)" fill="#419817"/>
      <g id="Polygon_4" data-name="Polygon 4" transform="translate(1814.646 2379.5) rotate(90)" fill="#fff">
        <path d="M 335.8673400878906 387.7508850097656 L 112.3407287597656 387.7508850097656 L 0.5773364901542664 194.1253814697266 L 112.3407821655273 0.4999980628490448 L 335.8673400878906 0.4999980628490448 L 447.6307983398438 194.1254425048828 L 335.8673400878906 387.7508850097656 Z" stroke="none"/>
        <path d="M 112.6294555664062 1 L 1.15460205078125 194.1253814697266 L 112.6293334960938 387.2508850097656 L 335.5786743164062 387.2508850097656 L 447.0535278320312 194.1254425048828 L 335.5786743164062 1 L 112.6294555664062 1 M 112.0520629882812 0 L 336.1560668945312 0 L 448.2081298828125 194.1254425048828 L 336.1560668945312 388.2508850097656 L 112.0519409179688 388.2508850097656 L 0 194.1253814697266 L 112.0520629882812 0 Z" stroke="none" fill="#707070"/>
      </g>
    </g>
    <path id="Path_470" data-name="Path 470" d="M96.909,21,96.887,8.02,91.783,8V5.6h13.046l.022,2.42L99.7,8l.044,13Zm16.5-11.88a5.6,5.6,0,0,1,2.519.55,4.031,4.031,0,0,1,1.749,1.683,5.9,5.9,0,0,1,.638,2.915V21h-2.75V14.62a3.26,3.26,0,0,0-.737-2.332,2.712,2.712,0,0,0-2.057-.77,3.612,3.612,0,0,0-1.716.4,2.714,2.714,0,0,0-1.155,1.177,4.238,4.238,0,0,0-.407,1.969V21h-2.75V4.676h2.75V12.42l-.594-.968a4.164,4.164,0,0,1,1.793-1.727A5.862,5.862,0,0,1,113.409,9.12ZM121.835,21l-.022-11.748,2.728.022L124.563,21ZM123.2,7.316a1.734,1.734,0,0,1-1.265-.484,1.572,1.572,0,0,1-.5-1.166,1.562,1.562,0,0,1,.5-1.177,1.756,1.756,0,0,1,1.265-.473,1.806,1.806,0,0,1,1.265.451,1.468,1.468,0,0,1,.495,1.133,1.679,1.679,0,0,1-.484,1.221A1.7,1.7,0,0,1,123.2,7.316Zm8.6,13.838a10.28,10.28,0,0,1-2.827-.385,7.273,7.273,0,0,1-2.145-.935l1.056-2.09a7.51,7.51,0,0,0,1.892.836,7.622,7.622,0,0,0,2.2.33,3.791,3.791,0,0,0,1.881-.352,1.067,1.067,0,0,0,.583-.946.821.821,0,0,0-.4-.737,3.08,3.08,0,0,0-1.034-.385q-.638-.132-1.419-.242t-1.562-.3a5.391,5.391,0,0,1-1.419-.55,2.939,2.939,0,0,1-1.034-.979,2.973,2.973,0,0,1-.4-1.628,3.09,3.09,0,0,1,.638-1.947,4.073,4.073,0,0,1,1.793-1.276,7.52,7.52,0,0,1,2.739-.451,11.224,11.224,0,0,1,2.4.264,6.49,6.49,0,0,1,2,.748l-1.056,2.09a5.569,5.569,0,0,0-1.683-.693,7.788,7.788,0,0,0-1.683-.187,3.619,3.619,0,0,0-1.859.374,1.1,1.1,0,0,0-.6.946.888.888,0,0,0,.4.792,3.23,3.23,0,0,0,1.034.418,13.091,13.091,0,0,0,1.419.253,12.568,12.568,0,0,1,1.551.3,6.541,6.541,0,0,1,1.419.539,2.733,2.733,0,0,1,1.045.957,2.927,2.927,0,0,1,.4,1.606,2.979,2.979,0,0,1-.649,1.914,4.178,4.178,0,0,1-1.837,1.265A8,8,0,0,1,131.8,21.154Zm20.284,0a5.238,5.238,0,0,1-2.607-.66,4.691,4.691,0,0,1-1.87-1.991,7.28,7.28,0,0,1-.693-3.377,7.468,7.468,0,0,1,.671-3.388,4.523,4.523,0,0,1,1.837-1.969,5.38,5.38,0,0,1,2.662-.649,6.157,6.157,0,0,1,3.069.748,5.557,5.557,0,0,1,2.112,2.09,6.188,6.188,0,0,1,.781,3.168,6.248,6.248,0,0,1-.781,3.179,5.535,5.535,0,0,1-2.112,2.1A6.157,6.157,0,0,1,152.085,21.154Zm-6.512,4.114V9.252h2.618v2.772l-.088,3.124.22,3.124v7Zm6.2-6.468a3.545,3.545,0,0,0,1.771-.44,3.205,3.205,0,0,0,1.243-1.276,3.984,3.984,0,0,0,.462-1.958,3.969,3.969,0,0,0-.462-1.969,3.223,3.223,0,0,0-1.243-1.265,3.545,3.545,0,0,0-1.771-.44,3.607,3.607,0,0,0-1.782.44,3.2,3.2,0,0,0-1.254,1.265,3.969,3.969,0,0,0-.462,1.969,3.984,3.984,0,0,0,.462,1.958,3.183,3.183,0,0,0,1.254,1.276A3.607,3.607,0,0,0,151.777,18.8Zm8.888,2.2V9.252h2.618v3.234l-.308-.946a3.716,3.716,0,0,1,1.661-1.8,5.864,5.864,0,0,1,2.827-.616v2.618a1.935,1.935,0,0,0-.33-.055q-.154-.011-.308-.011a3.382,3.382,0,0,0-2.486.913,3.661,3.661,0,0,0-.924,2.717V21Zm14.3.154a6.761,6.761,0,0,1-3.212-.792,5.781,5.781,0,0,1-2.222-2.123,5.92,5.92,0,0,1-.814-3.113,5.8,5.8,0,0,1,3.047-5.236,6.522,6.522,0,0,1,3.2-.77,6.631,6.631,0,0,1,3.234.77A5.807,5.807,0,0,1,180.421,12a5.9,5.9,0,0,1,.814,3.124,6,6,0,0,1-.8,3.1,5.637,5.637,0,0,1-2.233,2.134A6.894,6.894,0,0,1,174.965,21.154Zm0-2.354a3.652,3.652,0,0,0,1.8-.44,3.112,3.112,0,0,0,1.243-1.276,4.312,4.312,0,0,0,0-3.927,3.129,3.129,0,0,0-1.243-1.265,3.652,3.652,0,0,0-1.8-.44,3.545,3.545,0,0,0-1.771.44,3.223,3.223,0,0,0-1.243,1.265,3.969,3.969,0,0,0-.462,1.969,3.984,3.984,0,0,0,.462,1.958,3.283,3.283,0,0,0,1.243,1.287A3.324,3.324,0,0,0,174.965,18.8Zm14.3,2.354a6.792,6.792,0,0,1-3.289-.781,5.774,5.774,0,0,1-2.255-2.145,5.936,5.936,0,0,1-.814-3.1,5.92,5.92,0,0,1,.814-3.113,5.721,5.721,0,0,1,2.255-2.123,6.87,6.87,0,0,1,3.289-.77,6.37,6.37,0,0,1,3.025.693,4.605,4.605,0,0,1,1.991,2.035l-2.112,1.232a3.378,3.378,0,0,0-1.287-1.232,3.491,3.491,0,0,0-1.639-.4,3.778,3.778,0,0,0-1.826.44,3.162,3.162,0,0,0-1.276,1.265,3.969,3.969,0,0,0-.462,1.969,3.969,3.969,0,0,0,.462,1.969,3.162,3.162,0,0,0,1.276,1.265,3.778,3.778,0,0,0,1.826.44,3.491,3.491,0,0,0,1.639-.4,3.378,3.378,0,0,0,1.287-1.232l2.112,1.232a4.76,4.76,0,0,1-1.991,2.035A6.21,6.21,0,0,1,189.265,21.154Zm12.738,0a7.159,7.159,0,0,1-3.421-.781,5.659,5.659,0,0,1-2.266-2.145,6,6,0,0,1-.8-3.1,6.114,6.114,0,0,1,.781-3.113A5.6,5.6,0,0,1,198.45,9.89a6.306,6.306,0,0,1,3.135-.77,6.174,6.174,0,0,1,3.058.748,5.415,5.415,0,0,1,2.112,2.112,6.427,6.427,0,0,1,.77,3.212q0,.176-.011.4t-.033.418h-9.79V14.18h8.338l-1.078.572a3.376,3.376,0,0,0-.418-1.782,3.219,3.219,0,0,0-1.2-1.21,3.424,3.424,0,0,0-1.749-.44,3.468,3.468,0,0,0-1.771.44,3.119,3.119,0,0,0-1.188,1.221,3.757,3.757,0,0,0-.429,1.837v.44a3.589,3.589,0,0,0,.484,1.87,3.227,3.227,0,0,0,1.364,1.254,4.467,4.467,0,0,0,2.024.44,4.884,4.884,0,0,0,1.782-.308,3.793,3.793,0,0,0,1.408-.968l1.474,1.694a5.176,5.176,0,0,1-1.991,1.419A7.127,7.127,0,0,1,202,21.154Zm11.792,0a10.28,10.28,0,0,1-2.827-.385,7.273,7.273,0,0,1-2.145-.935l1.056-2.09a7.51,7.51,0,0,0,1.892.836,7.622,7.622,0,0,0,2.2.33,3.791,3.791,0,0,0,1.881-.352,1.067,1.067,0,0,0,.583-.946.821.821,0,0,0-.4-.737A3.08,3.08,0,0,0,215,16.49q-.638-.132-1.419-.242t-1.562-.3a5.391,5.391,0,0,1-1.419-.55,2.939,2.939,0,0,1-1.034-.979,2.973,2.973,0,0,1-.4-1.628,3.09,3.09,0,0,1,.638-1.947,4.073,4.073,0,0,1,1.793-1.276,7.52,7.52,0,0,1,2.739-.451,11.224,11.224,0,0,1,2.4.264,6.49,6.49,0,0,1,2,.748l-1.056,2.09a5.569,5.569,0,0,0-1.683-.693,7.788,7.788,0,0,0-1.683-.187,3.619,3.619,0,0,0-1.859.374,1.1,1.1,0,0,0-.6.946.888.888,0,0,0,.4.792,3.23,3.23,0,0,0,1.034.418,13.091,13.091,0,0,0,1.419.253,12.568,12.568,0,0,1,1.551.3,6.541,6.541,0,0,1,1.419.539,2.733,2.733,0,0,1,1.045.957,2.927,2.927,0,0,1,.4,1.606,2.979,2.979,0,0,1-.649,1.914,4.178,4.178,0,0,1-1.837,1.265A8,8,0,0,1,213.795,21.154Zm11.33,0a10.28,10.28,0,0,1-2.827-.385,7.273,7.273,0,0,1-2.145-.935l1.056-2.09a7.51,7.51,0,0,0,1.892.836,7.622,7.622,0,0,0,2.2.33,3.791,3.791,0,0,0,1.881-.352,1.067,1.067,0,0,0,.583-.946.821.821,0,0,0-.4-.737,3.08,3.08,0,0,0-1.034-.385q-.638-.132-1.419-.242t-1.562-.3a5.391,5.391,0,0,1-1.419-.55,2.939,2.939,0,0,1-1.034-.979,2.973,2.973,0,0,1-.4-1.628,3.09,3.09,0,0,1,.638-1.947,4.073,4.073,0,0,1,1.793-1.276,7.52,7.52,0,0,1,2.739-.451,11.224,11.224,0,0,1,2.4.264,6.49,6.49,0,0,1,2,.748l-1.056,2.09a5.569,5.569,0,0,0-1.683-.693,7.788,7.788,0,0,0-1.683-.187,3.619,3.619,0,0,0-1.859.374,1.1,1.1,0,0,0-.6.946.888.888,0,0,0,.4.792,3.23,3.23,0,0,0,1.034.418,13.091,13.091,0,0,0,1.419.253,12.568,12.568,0,0,1,1.551.3,6.541,6.541,0,0,1,1.419.539,2.733,2.733,0,0,1,1.045.957,2.927,2.927,0,0,1,.4,1.606,2.979,2.979,0,0,1-.649,1.914,4.178,4.178,0,0,1-1.837,1.265A8,8,0,0,1,225.125,21.154ZM238.919,21,238.9,9.252l2.728.022L241.647,21Zm1.364-13.684a1.734,1.734,0,0,1-1.265-.484,1.572,1.572,0,0,1-.5-1.166,1.562,1.562,0,0,1,.5-1.177,1.756,1.756,0,0,1,1.265-.473,1.806,1.806,0,0,1,1.265.451,1.468,1.468,0,0,1,.495,1.133,1.679,1.679,0,0,1-.484,1.221A1.7,1.7,0,0,1,240.283,7.316Zm8.6,13.838a10.28,10.28,0,0,1-2.827-.385,7.273,7.273,0,0,1-2.145-.935l1.056-2.09a7.51,7.51,0,0,0,1.892.836,7.622,7.622,0,0,0,2.2.33,3.791,3.791,0,0,0,1.881-.352,1.067,1.067,0,0,0,.583-.946.821.821,0,0,0-.4-.737,3.08,3.08,0,0,0-1.034-.385q-.638-.132-1.419-.242t-1.562-.3a5.391,5.391,0,0,1-1.419-.55,2.939,2.939,0,0,1-1.034-.979,2.973,2.973,0,0,1-.4-1.628,3.09,3.09,0,0,1,.638-1.947A4.073,4.073,0,0,1,246.7,9.571a7.52,7.52,0,0,1,2.739-.451,11.224,11.224,0,0,1,2.4.264,6.49,6.49,0,0,1,2,.748l-1.056,2.09a5.569,5.569,0,0,0-1.683-.693,7.788,7.788,0,0,0-1.683-.187,3.619,3.619,0,0,0-1.859.374,1.1,1.1,0,0,0-.6.946.888.888,0,0,0,.4.792,3.23,3.23,0,0,0,1.034.418,13.091,13.091,0,0,0,1.419.253,12.568,12.568,0,0,1,1.551.3,6.541,6.541,0,0,1,1.419.539,2.733,2.733,0,0,1,1.045.957,2.927,2.927,0,0,1,.4,1.606,2.979,2.979,0,0,1-.649,1.914,4.178,4.178,0,0,1-1.837,1.265A8,8,0,0,1,248.885,21.154ZM269.895,21V18.624l-.154-.506V13.96a2.434,2.434,0,0,0-.726-1.881,3.146,3.146,0,0,0-2.2-.671,6.318,6.318,0,0,0-1.947.308,4.783,4.783,0,0,0-1.617.858l-1.078-2a6.521,6.521,0,0,1,2.255-1.089,10.12,10.12,0,0,1,2.717-.363,5.812,5.812,0,0,1,3.949,1.221,4.751,4.751,0,0,1,1.4,3.773V21Zm-3.7.154a5.525,5.525,0,0,1-2.31-.451,3.569,3.569,0,0,1-1.529-1.254,3.182,3.182,0,0,1-.539-1.815,3.408,3.408,0,0,1,.473-1.782,3.189,3.189,0,0,1,1.551-1.254,7.371,7.371,0,0,1,2.86-.462h3.41v1.826H266.9a2.865,2.865,0,0,0-1.892.451,1.459,1.459,0,0,0-.484,1.111,1.4,1.4,0,0,0,.594,1.188,2.723,2.723,0,0,0,1.65.44,3.573,3.573,0,0,0,1.815-.462,2.619,2.619,0,0,0,1.155-1.364l.462,1.65a3.056,3.056,0,0,1-1.419,1.606A5.248,5.248,0,0,1,266.2,21.154Zm19.514,0a10.28,10.28,0,0,1-2.827-.385,7.273,7.273,0,0,1-2.145-.935l1.056-2.09a7.51,7.51,0,0,0,1.892.836,7.622,7.622,0,0,0,2.2.33,3.791,3.791,0,0,0,1.881-.352,1.067,1.067,0,0,0,.583-.946.821.821,0,0,0-.4-.737,3.08,3.08,0,0,0-1.034-.385q-.638-.132-1.419-.242t-1.562-.3a5.391,5.391,0,0,1-1.419-.55,2.94,2.94,0,0,1-1.034-.979,2.973,2.973,0,0,1-.4-1.628,3.09,3.09,0,0,1,.638-1.947,4.073,4.073,0,0,1,1.793-1.276,7.521,7.521,0,0,1,2.739-.451,11.223,11.223,0,0,1,2.4.264,6.49,6.49,0,0,1,2,.748l-1.056,2.09a5.569,5.569,0,0,0-1.683-.693,7.787,7.787,0,0,0-1.683-.187,3.619,3.619,0,0,0-1.859.374,1.1,1.1,0,0,0-.605.946.888.888,0,0,0,.4.792,3.231,3.231,0,0,0,1.034.418,13.091,13.091,0,0,0,1.419.253,12.569,12.569,0,0,1,1.551.3,6.54,6.54,0,0,1,1.419.539,2.733,2.733,0,0,1,1.045.957,2.927,2.927,0,0,1,.4,1.606,2.979,2.979,0,0,1-.649,1.914,4.178,4.178,0,0,1-1.837,1.265A8,8,0,0,1,285.713,21.154Zm8.448,4.268a5.4,5.4,0,0,1-1.716-.286,4.07,4.07,0,0,1-1.43-.792l1.1-2.024a3.326,3.326,0,0,0,.946.594,2.779,2.779,0,0,0,1.078.22,1.864,1.864,0,0,0,1.21-.374,3.384,3.384,0,0,0,.858-1.254l.682-1.54.22-.33,4.444-10.384h2.64l-5.5,12.694a7.663,7.663,0,0,1-1.221,2.09,3.71,3.71,0,0,1-1.5,1.078A5.152,5.152,0,0,1,294.161,25.422Zm2.42-4-5.3-12.166h2.86l4.312,10.142Zm12.8-.264a10.28,10.28,0,0,1-2.827-.385,7.273,7.273,0,0,1-2.145-.935l1.056-2.09a7.51,7.51,0,0,0,1.892.836,7.622,7.622,0,0,0,2.2.33,3.791,3.791,0,0,0,1.881-.352,1.067,1.067,0,0,0,.583-.946.821.821,0,0,0-.4-.737,3.08,3.08,0,0,0-1.034-.385q-.638-.132-1.419-.242t-1.562-.3a5.391,5.391,0,0,1-1.419-.55,2.94,2.94,0,0,1-1.034-.979,2.973,2.973,0,0,1-.4-1.628,3.09,3.09,0,0,1,.638-1.947A4.073,4.073,0,0,1,307.2,9.571a7.521,7.521,0,0,1,2.739-.451,11.223,11.223,0,0,1,2.4.264,6.49,6.49,0,0,1,2,.748l-1.056,2.09a5.569,5.569,0,0,0-1.683-.693,7.787,7.787,0,0,0-1.683-.187,3.619,3.619,0,0,0-1.859.374,1.1,1.1,0,0,0-.605.946.888.888,0,0,0,.4.792,3.231,3.231,0,0,0,1.034.418,13.091,13.091,0,0,0,1.419.253,12.569,12.569,0,0,1,1.551.3,6.54,6.54,0,0,1,1.419.539,2.733,2.733,0,0,1,1.045.957,2.927,2.927,0,0,1,.4,1.606,2.979,2.979,0,0,1-.649,1.914,4.178,4.178,0,0,1-1.837,1.265A8,8,0,0,1,309.385,21.154Zm12.122,0a4.18,4.18,0,0,1-2.992-1,3.888,3.888,0,0,1-1.056-2.959V6.656h2.75V17.128a1.836,1.836,0,0,0,.429,1.3,1.555,1.555,0,0,0,1.2.462,2.416,2.416,0,0,0,1.54-.484l.77,1.958a3.231,3.231,0,0,1-1.188.594A5.337,5.337,0,0,1,321.507,21.154Zm-5.984-9.614V9.34h7.832v2.2Zm16.016,9.614a7.159,7.159,0,0,1-3.421-.781,5.658,5.658,0,0,1-2.266-2.145,6,6,0,0,1-.8-3.1,6.114,6.114,0,0,1,.781-3.113,5.6,5.6,0,0,1,2.156-2.123,6.306,6.306,0,0,1,3.135-.77,6.174,6.174,0,0,1,3.058.748,5.415,5.415,0,0,1,2.112,2.112,6.427,6.427,0,0,1,.77,3.212q0,.176-.011.4t-.033.418h-9.79V14.18h8.338l-1.078.572a3.376,3.376,0,0,0-.418-1.782,3.219,3.219,0,0,0-1.2-1.21,3.424,3.424,0,0,0-1.749-.44,3.468,3.468,0,0,0-1.771.44,3.118,3.118,0,0,0-1.188,1.221,3.757,3.757,0,0,0-.429,1.837v.44a3.589,3.589,0,0,0,.484,1.87,3.227,3.227,0,0,0,1.364,1.254,4.467,4.467,0,0,0,2.024.44,4.884,4.884,0,0,0,1.782-.308,3.793,3.793,0,0,0,1.408-.968l1.474,1.694a5.176,5.176,0,0,1-1.991,1.419A7.127,7.127,0,0,1,331.539,21.154ZM354.529,9.12a5.464,5.464,0,0,1,2.5.55,3.933,3.933,0,0,1,1.7,1.683,6.073,6.073,0,0,1,.616,2.915V21H356.6V14.62a3.432,3.432,0,0,0-.682-2.332,2.478,2.478,0,0,0-1.958-.77,3.158,3.158,0,0,0-1.6.4,2.685,2.685,0,0,0-1.078,1.166,4.371,4.371,0,0,0-.385,1.958V21h-2.75V14.62a3.432,3.432,0,0,0-.682-2.332,2.478,2.478,0,0,0-1.958-.77,3.158,3.158,0,0,0-1.6.4,2.685,2.685,0,0,0-1.078,1.166,4.37,4.37,0,0,0-.385,1.958V21H339.7V9.252h2.618v3.124l-.462-.924a3.994,3.994,0,0,1,1.727-1.738,5.484,5.484,0,0,1,2.585-.594,5.054,5.054,0,0,1,2.871.814,3.919,3.919,0,0,1,1.617,2.464l-1.078-.374a4.533,4.533,0,0,1,1.892-2.112A5.828,5.828,0,0,1,354.529,9.12ZM370.1,21V18.624l-.154-.506V13.96a2.434,2.434,0,0,0-.726-1.881,3.146,3.146,0,0,0-2.2-.671,6.318,6.318,0,0,0-1.947.308,4.783,4.783,0,0,0-1.617.858l-1.078-2a6.521,6.521,0,0,1,2.255-1.089,10.12,10.12,0,0,1,2.717-.363,5.812,5.812,0,0,1,3.949,1.221,4.751,4.751,0,0,1,1.4,3.773V21Zm-3.7.154a5.525,5.525,0,0,1-2.31-.451,3.569,3.569,0,0,1-1.529-1.254,3.182,3.182,0,0,1-.539-1.815,3.408,3.408,0,0,1,.473-1.782,3.189,3.189,0,0,1,1.551-1.254,7.371,7.371,0,0,1,2.86-.462h3.41v1.826h-3.212a2.865,2.865,0,0,0-1.892.451,1.459,1.459,0,0,0-.484,1.111,1.4,1.4,0,0,0,.594,1.188,2.723,2.723,0,0,0,1.65.44,3.573,3.573,0,0,0,1.815-.462,2.619,2.619,0,0,0,1.155-1.364l.462,1.65a3.056,3.056,0,0,1-1.419,1.606A5.248,5.248,0,0,1,366.409,21.154Zm14.234,0a4.18,4.18,0,0,1-2.992-1,3.888,3.888,0,0,1-1.056-2.959V6.656h2.75V17.128a1.836,1.836,0,0,0,.429,1.3,1.555,1.555,0,0,0,1.2.462,2.416,2.416,0,0,0,1.54-.484l.77,1.958a3.231,3.231,0,0,1-1.188.594A5.337,5.337,0,0,1,380.643,21.154Zm-5.984-9.614V9.34h7.832v2.2ZM385.571,21l-.022-11.748,2.728.022L388.3,21Zm1.364-13.684a1.734,1.734,0,0,1-1.265-.484,1.572,1.572,0,0,1-.495-1.166,1.562,1.562,0,0,1,.495-1.177,1.757,1.757,0,0,1,1.265-.473,1.806,1.806,0,0,1,1.265.451,1.468,1.468,0,0,1,.5,1.133,1.679,1.679,0,0,1-.484,1.221A1.7,1.7,0,0,1,386.935,7.316ZM397.3,21.154a6.792,6.792,0,0,1-3.289-.781,5.774,5.774,0,0,1-2.255-2.145,5.936,5.936,0,0,1-.814-3.1,5.92,5.92,0,0,1,.814-3.113,5.721,5.721,0,0,1,2.255-2.123,6.87,6.87,0,0,1,3.289-.77,6.37,6.37,0,0,1,3.025.693,4.605,4.605,0,0,1,1.991,2.035L400.2,13.08a3.378,3.378,0,0,0-1.287-1.232,3.491,3.491,0,0,0-1.639-.4,3.778,3.778,0,0,0-1.826.44,3.162,3.162,0,0,0-1.276,1.265,3.969,3.969,0,0,0-.462,1.969,3.969,3.969,0,0,0,.462,1.969,3.162,3.162,0,0,0,1.276,1.265,3.778,3.778,0,0,0,1.826.44,3.491,3.491,0,0,0,1.639-.4,3.378,3.378,0,0,0,1.287-1.232l2.112,1.232a4.76,4.76,0,0,1-1.991,2.035A6.21,6.21,0,0,1,397.3,21.154ZM100.275,48V45.624l-.154-.506V40.96a2.434,2.434,0,0,0-.726-1.881,3.147,3.147,0,0,0-2.2-.671,6.318,6.318,0,0,0-1.947.308,4.783,4.783,0,0,0-1.617.858l-1.078-2a6.522,6.522,0,0,1,2.255-1.089,10.121,10.121,0,0,1,2.717-.363,5.812,5.812,0,0,1,3.949,1.221,4.751,4.751,0,0,1,1.4,3.773V48Zm-3.7.154a5.525,5.525,0,0,1-2.31-.451,3.569,3.569,0,0,1-1.529-1.254,3.182,3.182,0,0,1-.539-1.815,3.408,3.408,0,0,1,.473-1.782A3.189,3.189,0,0,1,94.225,41.6a7.371,7.371,0,0,1,2.86-.462h3.41v1.826H97.283a2.865,2.865,0,0,0-1.892.451,1.459,1.459,0,0,0-.484,1.111,1.4,1.4,0,0,0,.594,1.188,2.723,2.723,0,0,0,1.65.44,3.573,3.573,0,0,0,1.815-.462,2.619,2.619,0,0,0,1.155-1.364l.462,1.65a3.056,3.056,0,0,1-1.419,1.606A5.248,5.248,0,0,1,96.579,48.154Zm16.324,0a5.238,5.238,0,0,1-2.607-.66,4.691,4.691,0,0,1-1.87-1.991,7.28,7.28,0,0,1-.693-3.377,7.468,7.468,0,0,1,.671-3.388,4.522,4.522,0,0,1,1.837-1.969,5.381,5.381,0,0,1,2.662-.649,6.157,6.157,0,0,1,3.069.748,5.557,5.557,0,0,1,2.112,2.09,6.838,6.838,0,0,1,0,6.347,5.534,5.534,0,0,1-2.112,2.1A6.157,6.157,0,0,1,112.9,48.154Zm-6.512,4.114V36.252h2.618v2.772l-.088,3.124.22,3.124v7Zm6.2-6.468a3.545,3.545,0,0,0,1.771-.44,3.205,3.205,0,0,0,1.243-1.276,4.4,4.4,0,0,0,0-3.927,3.223,3.223,0,0,0-1.243-1.265,3.545,3.545,0,0,0-1.771-.44,3.607,3.607,0,0,0-1.782.44,3.2,3.2,0,0,0-1.254,1.265,4.4,4.4,0,0,0,0,3.927,3.183,3.183,0,0,0,1.254,1.276A3.607,3.607,0,0,0,112.595,45.8Zm15.4,2.354a5.238,5.238,0,0,1-2.607-.66,4.691,4.691,0,0,1-1.87-1.991,7.28,7.28,0,0,1-.693-3.377,7.468,7.468,0,0,1,.671-3.388,4.522,4.522,0,0,1,1.837-1.969,5.381,5.381,0,0,1,2.662-.649,6.157,6.157,0,0,1,3.069.748,5.557,5.557,0,0,1,2.112,2.09,6.838,6.838,0,0,1,0,6.347,5.534,5.534,0,0,1-2.112,2.1A6.157,6.157,0,0,1,127.995,48.154Zm-6.512,4.114V36.252H124.1v2.772l-.088,3.124.22,3.124v7Zm6.2-6.468a3.545,3.545,0,0,0,1.771-.44,3.205,3.205,0,0,0,1.243-1.276,4.4,4.4,0,0,0,0-3.927,3.223,3.223,0,0,0-1.243-1.265,3.545,3.545,0,0,0-1.771-.44,3.607,3.607,0,0,0-1.782.44,3.2,3.2,0,0,0-1.254,1.265,4.4,4.4,0,0,0,0,3.927A3.183,3.183,0,0,0,125.9,45.36,3.607,3.607,0,0,0,127.687,45.8Zm8.888,2.2V36.252h2.618v3.234l-.308-.946a3.716,3.716,0,0,1,1.661-1.8,5.864,5.864,0,0,1,2.827-.616v2.618a1.935,1.935,0,0,0-.33-.055q-.154-.011-.308-.011a3.382,3.382,0,0,0-2.486.913,3.661,3.661,0,0,0-.924,2.717V48Zm14.3.154a6.761,6.761,0,0,1-3.212-.792,5.781,5.781,0,0,1-2.222-2.123,5.92,5.92,0,0,1-.814-3.113,5.8,5.8,0,0,1,3.047-5.236,6.522,6.522,0,0,1,3.2-.77,6.631,6.631,0,0,1,3.234.77A5.806,5.806,0,0,1,156.331,39a5.9,5.9,0,0,1,.814,3.124,6,6,0,0,1-.8,3.1,5.637,5.637,0,0,1-2.233,2.134A6.894,6.894,0,0,1,150.875,48.154Zm0-2.354a3.652,3.652,0,0,0,1.8-.44,3.112,3.112,0,0,0,1.243-1.276,4.312,4.312,0,0,0,0-3.927,3.129,3.129,0,0,0-1.243-1.265,3.652,3.652,0,0,0-1.8-.44,3.545,3.545,0,0,0-1.771.44,3.223,3.223,0,0,0-1.243,1.265,4.4,4.4,0,0,0,0,3.927,3.283,3.283,0,0,0,1.243,1.287A3.324,3.324,0,0,0,150.875,45.8ZM166.869,48V45.624l-.154-.506V40.96a2.434,2.434,0,0,0-.726-1.881,3.147,3.147,0,0,0-2.2-.671,6.318,6.318,0,0,0-1.947.308,4.783,4.783,0,0,0-1.617.858l-1.078-2a6.522,6.522,0,0,1,2.255-1.089,10.12,10.12,0,0,1,2.717-.363,5.812,5.812,0,0,1,3.949,1.221,4.751,4.751,0,0,1,1.4,3.773V48Zm-3.7.154a5.525,5.525,0,0,1-2.31-.451,3.569,3.569,0,0,1-1.529-1.254,3.182,3.182,0,0,1-.539-1.815,3.408,3.408,0,0,1,.473-1.782,3.189,3.189,0,0,1,1.551-1.254,7.371,7.371,0,0,1,2.86-.462h3.41v1.826h-3.212a2.865,2.865,0,0,0-1.892.451,1.459,1.459,0,0,0-.484,1.111,1.4,1.4,0,0,0,.594,1.188,2.723,2.723,0,0,0,1.65.44,3.573,3.573,0,0,0,1.815-.462,2.62,2.62,0,0,0,1.155-1.364l.462,1.65a3.056,3.056,0,0,1-1.419,1.606A5.248,5.248,0,0,1,163.173,48.154Zm15.224,0a6.792,6.792,0,0,1-3.289-.781,5.774,5.774,0,0,1-2.255-2.145,6.339,6.339,0,0,1,0-6.215,5.721,5.721,0,0,1,2.255-2.123,6.87,6.87,0,0,1,3.289-.77,6.37,6.37,0,0,1,3.025.693,4.605,4.605,0,0,1,1.991,2.035L181.3,40.08a3.378,3.378,0,0,0-1.287-1.232,3.491,3.491,0,0,0-1.639-.4,3.778,3.778,0,0,0-1.826.44,3.162,3.162,0,0,0-1.276,1.265,4.427,4.427,0,0,0,0,3.938,3.162,3.162,0,0,0,1.276,1.265,3.778,3.778,0,0,0,1.826.44,3.491,3.491,0,0,0,1.639-.4,3.378,3.378,0,0,0,1.287-1.232l2.112,1.232a4.76,4.76,0,0,1-1.991,2.035A6.21,6.21,0,0,1,178.4,48.154ZM192.345,36.12a5.6,5.6,0,0,1,2.519.55,4.031,4.031,0,0,1,1.749,1.683,5.9,5.9,0,0,1,.638,2.915V48H194.5V41.62a3.26,3.26,0,0,0-.737-2.332,2.712,2.712,0,0,0-2.057-.77,3.612,3.612,0,0,0-1.716.4,2.714,2.714,0,0,0-1.155,1.177,4.238,4.238,0,0,0-.407,1.969V48h-2.75V31.676h2.75V39.42l-.594-.968a4.164,4.164,0,0,1,1.793-1.727A5.862,5.862,0,0,1,192.345,36.12Zm18.9,12.034a4.18,4.18,0,0,1-2.992-1,3.888,3.888,0,0,1-1.056-2.959V33.656h2.75V44.128a1.836,1.836,0,0,0,.429,1.3,1.555,1.555,0,0,0,1.2.462,2.416,2.416,0,0,0,1.54-.484l.77,1.958a3.231,3.231,0,0,1-1.188.594A5.337,5.337,0,0,1,211.243,48.154Zm-5.984-9.614v-2.2h7.832v2.2Zm15.774,9.614a6.761,6.761,0,0,1-3.212-.792,5.781,5.781,0,0,1-2.222-2.123,5.92,5.92,0,0,1-.814-3.113,5.8,5.8,0,0,1,3.047-5.236,6.522,6.522,0,0,1,3.2-.77,6.631,6.631,0,0,1,3.234.77A5.807,5.807,0,0,1,226.489,39a5.9,5.9,0,0,1,.814,3.124,6,6,0,0,1-.8,3.1,5.637,5.637,0,0,1-2.233,2.134A6.894,6.894,0,0,1,221.033,48.154Zm0-2.354a3.652,3.652,0,0,0,1.8-.44,3.112,3.112,0,0,0,1.243-1.276,4.312,4.312,0,0,0,0-3.927,3.129,3.129,0,0,0-1.243-1.265,3.652,3.652,0,0,0-1.8-.44,3.545,3.545,0,0,0-1.771.44,3.223,3.223,0,0,0-1.243,1.265,4.4,4.4,0,0,0,0,3.927,3.283,3.283,0,0,0,1.243,1.287A3.324,3.324,0,0,0,221.033,45.8ZM236.389,48V35.592a4.045,4.045,0,0,1,1.089-2.959,4.163,4.163,0,0,1,3.113-1.111,5.94,5.94,0,0,1,1.375.154,2.914,2.914,0,0,1,1.089.484l-.748,2.068a2.14,2.14,0,0,0-.7-.363,2.77,2.77,0,0,0-.814-.121,1.687,1.687,0,0,0-1.3.473,2.018,2.018,0,0,0-.44,1.419v1.32l.088,1.232V48Zm-1.936-9.46v-2.2h7.832v2.2ZM249.1,48.154a5.924,5.924,0,0,1-2.64-.561,4.026,4.026,0,0,1-1.782-1.716,5.976,5.976,0,0,1-.638-2.915v-6.71h2.75v6.336a3.4,3.4,0,0,0,.715,2.365,2.62,2.62,0,0,0,2.035.781,3.42,3.42,0,0,0,1.683-.4,2.753,2.753,0,0,0,1.122-1.188,4.252,4.252,0,0,0,.407-1.958v-5.94h2.75V48h-2.618V44.832l.462.968a4.044,4.044,0,0,1-1.738,1.749A5.281,5.281,0,0,1,249.1,48.154ZM259.137,48l-.022-16.324h2.75V48Zm7.282,0V35.592a4.045,4.045,0,0,1,1.089-2.959,4.163,4.163,0,0,1,3.113-1.111,5.94,5.94,0,0,1,1.375.154,2.914,2.914,0,0,1,1.089.484l-.748,2.068a2.14,2.14,0,0,0-.7-.363,2.77,2.77,0,0,0-.814-.121,1.687,1.687,0,0,0-1.3.473,2.018,2.018,0,0,0-.44,1.419v1.32l.088,1.232V48Zm-1.936-9.46v-2.2h7.832v2.2Zm9.79,9.46-.022-11.748,2.728.022L277,48Zm1.364-13.684a1.734,1.734,0,0,1-1.265-.484,1.634,1.634,0,0,1,0-2.343,1.756,1.756,0,0,1,1.265-.473,1.806,1.806,0,0,1,1.265.451A1.468,1.468,0,0,1,277.4,32.6a1.679,1.679,0,0,1-.484,1.221A1.7,1.7,0,0,1,275.637,34.316ZM280.631,48l-.022-16.324h2.75V48Zm6.358,0-.022-16.324h2.75V48Zm19.646,0V45.624l-.154-.506V40.96a2.434,2.434,0,0,0-.726-1.881,3.146,3.146,0,0,0-2.2-.671,6.318,6.318,0,0,0-1.947.308,4.783,4.783,0,0,0-1.617.858l-1.078-2a6.522,6.522,0,0,1,2.255-1.089,10.12,10.12,0,0,1,2.717-.363,5.812,5.812,0,0,1,3.949,1.221,4.751,4.751,0,0,1,1.4,3.773V48Zm-3.7.154a5.525,5.525,0,0,1-2.31-.451,3.569,3.569,0,0,1-1.529-1.254,3.182,3.182,0,0,1-.539-1.815,3.408,3.408,0,0,1,.473-1.782,3.189,3.189,0,0,1,1.551-1.254,7.371,7.371,0,0,1,2.86-.462h3.41v1.826h-3.212a2.865,2.865,0,0,0-1.892.451,1.459,1.459,0,0,0-.484,1.111,1.4,1.4,0,0,0,.594,1.188,2.723,2.723,0,0,0,1.65.44,3.573,3.573,0,0,0,1.815-.462,2.619,2.619,0,0,0,1.155-1.364l.462,1.65a3.056,3.056,0,0,1-1.419,1.606A5.248,5.248,0,0,1,302.939,48.154Zm22.4,0a5.238,5.238,0,0,1-2.607-.66,4.691,4.691,0,0,1-1.87-1.991,7.28,7.28,0,0,1-.693-3.377,7.468,7.468,0,0,1,.671-3.388,4.523,4.523,0,0,1,1.837-1.969,5.381,5.381,0,0,1,2.662-.649,6.157,6.157,0,0,1,3.069.748,5.557,5.557,0,0,1,2.112,2.09,6.838,6.838,0,0,1,0,6.347,5.534,5.534,0,0,1-2.112,2.1A6.157,6.157,0,0,1,325.335,48.154Zm-6.512,4.114V36.252h2.618v2.772l-.088,3.124.22,3.124v7Zm6.2-6.468a3.545,3.545,0,0,0,1.771-.44,3.205,3.205,0,0,0,1.243-1.276,4.4,4.4,0,0,0,0-3.927,3.224,3.224,0,0,0-1.243-1.265,3.545,3.545,0,0,0-1.771-.44,3.606,3.606,0,0,0-1.782.44,3.2,3.2,0,0,0-1.254,1.265,4.4,4.4,0,0,0,0,3.927,3.184,3.184,0,0,0,1.254,1.276A3.606,3.606,0,0,0,325.027,45.8Zm8.888,2.2V36.252h2.618v3.234l-.308-.946a3.715,3.715,0,0,1,1.661-1.8,5.864,5.864,0,0,1,2.827-.616v2.618a1.935,1.935,0,0,0-.33-.055q-.154-.011-.308-.011a3.382,3.382,0,0,0-2.486.913,3.661,3.661,0,0,0-.924,2.717V48Zm14.3.154A6.761,6.761,0,0,1,345,47.362a5.78,5.78,0,0,1-2.222-2.123,5.92,5.92,0,0,1-.814-3.113,5.8,5.8,0,0,1,3.047-5.236,6.522,6.522,0,0,1,3.2-.77,6.631,6.631,0,0,1,3.234.77A5.806,5.806,0,0,1,353.671,39a5.9,5.9,0,0,1,.814,3.124,6,6,0,0,1-.8,3.1,5.637,5.637,0,0,1-2.233,2.134A6.894,6.894,0,0,1,348.215,48.154Zm0-2.354a3.652,3.652,0,0,0,1.8-.44,3.113,3.113,0,0,0,1.243-1.276,4.312,4.312,0,0,0,0-3.927,3.129,3.129,0,0,0-1.243-1.265,3.652,3.652,0,0,0-1.8-.44,3.545,3.545,0,0,0-1.771.44,3.224,3.224,0,0,0-1.243,1.265,4.4,4.4,0,0,0,0,3.927,3.283,3.283,0,0,0,1.243,1.287A3.324,3.324,0,0,0,348.215,45.8Zm7.7,6.622a6.3,6.3,0,0,1-1.463-.165,3.262,3.262,0,0,1-1.177-.517l.792-2.046a2.668,2.668,0,0,0,1.606.462,1.475,1.475,0,0,0,1.166-.473,2.052,2.052,0,0,0,.418-1.4V36.252h2.75V48.22a4.3,4.3,0,0,1-1.067,3.069A3.954,3.954,0,0,1,355.915,52.422Zm2.706-18.106a1.734,1.734,0,0,1-1.265-.484,1.634,1.634,0,0,1,0-2.343,1.756,1.756,0,0,1,1.265-.473,1.806,1.806,0,0,1,1.265.451,1.468,1.468,0,0,1,.495,1.133,1.679,1.679,0,0,1-.484,1.221A1.7,1.7,0,0,1,358.621,34.316Zm10.516,13.838a7.159,7.159,0,0,1-3.421-.781,5.658,5.658,0,0,1-2.266-2.145,6,6,0,0,1-.8-3.1,6.114,6.114,0,0,1,.781-3.113,5.6,5.6,0,0,1,2.156-2.123,6.306,6.306,0,0,1,3.135-.77,6.174,6.174,0,0,1,3.058.748,5.415,5.415,0,0,1,2.112,2.112,6.427,6.427,0,0,1,.77,3.212q0,.176-.011.4t-.033.418h-9.79V41.18h8.338l-1.078.572a3.376,3.376,0,0,0-.418-1.782,3.219,3.219,0,0,0-1.2-1.21,3.424,3.424,0,0,0-1.749-.44,3.468,3.468,0,0,0-1.771.44,3.118,3.118,0,0,0-1.188,1.221,3.757,3.757,0,0,0-.429,1.837v.44a3.589,3.589,0,0,0,.484,1.87,3.227,3.227,0,0,0,1.364,1.254,4.467,4.467,0,0,0,2.024.44,4.884,4.884,0,0,0,1.782-.308,3.793,3.793,0,0,0,1.408-.968l1.474,1.694a5.176,5.176,0,0,1-1.991,1.419A7.127,7.127,0,0,1,369.137,48.154Zm13.552,0a6.792,6.792,0,0,1-3.289-.781,5.774,5.774,0,0,1-2.255-2.145,6.339,6.339,0,0,1,0-6.215A5.721,5.721,0,0,1,379.4,36.89a6.87,6.87,0,0,1,3.289-.77,6.37,6.37,0,0,1,3.025.693,4.605,4.605,0,0,1,1.991,2.035l-2.112,1.232a3.378,3.378,0,0,0-1.287-1.232,3.491,3.491,0,0,0-1.639-.4,3.778,3.778,0,0,0-1.826.44,3.162,3.162,0,0,0-1.276,1.265,4.427,4.427,0,0,0,0,3.938,3.162,3.162,0,0,0,1.276,1.265,3.778,3.778,0,0,0,1.826.44,3.491,3.491,0,0,0,1.639-.4,3.378,3.378,0,0,0,1.287-1.232L387.7,45.4a4.76,4.76,0,0,1-1.991,2.035A6.21,6.21,0,0,1,382.689,48.154Zm11.968,0a4.18,4.18,0,0,1-2.992-1,3.888,3.888,0,0,1-1.056-2.959V33.656h2.75V44.128a1.836,1.836,0,0,0,.429,1.3,1.555,1.555,0,0,0,1.2.462,2.416,2.416,0,0,0,1.54-.484l.77,1.958a3.231,3.231,0,0,1-1.188.594A5.337,5.337,0,0,1,394.657,48.154Zm-5.984-9.614v-2.2H396.5v2.2Zm10.384,12.782,1.276-4.862.374,1.628a1.835,1.835,0,0,1-1.287-.473,1.658,1.658,0,0,1-.517-1.287,1.733,1.733,0,0,1,1.782-1.826,1.73,1.73,0,0,1,1.276.506,1.785,1.785,0,0,1,.506,1.32,2.77,2.77,0,0,1-.044.473,5.111,5.111,0,0,1-.143.583,7.859,7.859,0,0,1-.319.836l-1.122,3.1ZM63.073,75,58.761,63.252h2.6l3.7,10.362H63.821l3.872-10.362H70l3.762,10.362h-1.21l3.806-10.362H78.8L74.469,75h-2.64L68.4,65.826h.814L65.713,75ZM87.361,63.12a5.6,5.6,0,0,1,2.519.55,4.031,4.031,0,0,1,1.749,1.683,5.9,5.9,0,0,1,.638,2.915V75h-2.75V68.62a3.259,3.259,0,0,0-.737-2.332,2.712,2.712,0,0,0-2.057-.77,3.612,3.612,0,0,0-1.716.4,2.714,2.714,0,0,0-1.155,1.177,4.238,4.238,0,0,0-.407,1.969V75h-2.75V58.676h2.75V66.42l-.594-.968a4.164,4.164,0,0,1,1.793-1.727A5.862,5.862,0,0,1,87.361,63.12ZM95.787,75l-.022-11.748,2.728.022L98.515,75Zm1.364-13.684a1.734,1.734,0,0,1-1.265-.484,1.634,1.634,0,0,1,0-2.343,1.756,1.756,0,0,1,1.265-.473,1.806,1.806,0,0,1,1.265.451,1.468,1.468,0,0,1,.495,1.133,1.679,1.679,0,0,1-.484,1.221A1.7,1.7,0,0,1,97.151,61.316Zm10.362,13.838a6.791,6.791,0,0,1-3.289-.781,5.774,5.774,0,0,1-2.255-2.145,6.339,6.339,0,0,1,0-6.215,5.721,5.721,0,0,1,2.255-2.123,6.87,6.87,0,0,1,3.289-.77,6.37,6.37,0,0,1,3.025.693,4.605,4.605,0,0,1,1.991,2.035l-2.112,1.232a3.378,3.378,0,0,0-1.287-1.232,3.491,3.491,0,0,0-1.639-.4,3.778,3.778,0,0,0-1.826.44,3.162,3.162,0,0,0-1.276,1.265,4.427,4.427,0,0,0,0,3.938,3.162,3.162,0,0,0,1.276,1.265,3.777,3.777,0,0,0,1.826.44,3.491,3.491,0,0,0,1.639-.4,3.378,3.378,0,0,0,1.287-1.232l2.112,1.232a4.76,4.76,0,0,1-1.991,2.035A6.21,6.21,0,0,1,107.513,75.154ZM121.461,63.12a5.6,5.6,0,0,1,2.519.55,4.031,4.031,0,0,1,1.749,1.683,5.9,5.9,0,0,1,.638,2.915V75h-2.75V68.62a3.259,3.259,0,0,0-.737-2.332,2.712,2.712,0,0,0-2.057-.77,3.612,3.612,0,0,0-1.716.4,2.714,2.714,0,0,0-1.155,1.177,4.238,4.238,0,0,0-.407,1.969V75h-2.75V58.676h2.75V66.42l-.594-.968a4.164,4.164,0,0,1,1.793-1.727A5.862,5.862,0,0,1,121.461,63.12Zm21.142,0a5.6,5.6,0,0,1,2.519.55,4.031,4.031,0,0,1,1.749,1.683,5.9,5.9,0,0,1,.638,2.915V75h-2.75V68.62a3.259,3.259,0,0,0-.737-2.332,2.712,2.712,0,0,0-2.057-.77,3.612,3.612,0,0,0-1.716.4,2.714,2.714,0,0,0-1.155,1.177,4.238,4.238,0,0,0-.407,1.969V75h-2.75V58.676h2.75V66.42l-.594-.968a4.164,4.164,0,0,1,1.793-1.727A5.862,5.862,0,0,1,142.6,63.12Zm13.948,12.034a7.159,7.159,0,0,1-3.421-.781,5.659,5.659,0,0,1-2.266-2.145,6,6,0,0,1-.8-3.1,6.114,6.114,0,0,1,.781-3.113A5.6,5.6,0,0,1,153,63.89a6.306,6.306,0,0,1,3.135-.77,6.174,6.174,0,0,1,3.058.748A5.415,5.415,0,0,1,161.3,65.98a6.427,6.427,0,0,1,.77,3.212q0,.176-.011.4t-.033.418h-9.79V68.18h8.338l-1.078.572a3.376,3.376,0,0,0-.418-1.782,3.219,3.219,0,0,0-1.2-1.21,3.424,3.424,0,0,0-1.749-.44,3.468,3.468,0,0,0-1.771.44,3.118,3.118,0,0,0-1.188,1.221,3.757,3.757,0,0,0-.429,1.837v.44a3.589,3.589,0,0,0,.484,1.87,3.227,3.227,0,0,0,1.364,1.254,4.467,4.467,0,0,0,2.024.44,4.884,4.884,0,0,0,1.782-.308,3.793,3.793,0,0,0,1.408-.968l1.474,1.694a5.176,5.176,0,0,1-1.991,1.419A7.126,7.126,0,0,1,156.551,75.154ZM164.735,75l-.022-16.324h2.75V75Zm12.848.154a5.238,5.238,0,0,1-2.607-.66,4.691,4.691,0,0,1-1.87-1.991,7.28,7.28,0,0,1-.693-3.377,7.468,7.468,0,0,1,.671-3.388,4.523,4.523,0,0,1,1.837-1.969,5.38,5.38,0,0,1,2.662-.649,6.157,6.157,0,0,1,3.069.748,5.557,5.557,0,0,1,2.112,2.09,6.838,6.838,0,0,1,0,6.347,5.534,5.534,0,0,1-2.112,2.1A6.157,6.157,0,0,1,177.583,75.154Zm-6.512,4.114V63.252h2.618v2.772l-.088,3.124.22,3.124v7Zm6.2-6.468a3.545,3.545,0,0,0,1.771-.44,3.205,3.205,0,0,0,1.243-1.276,4.4,4.4,0,0,0,0-3.927,3.223,3.223,0,0,0-1.243-1.265,3.545,3.545,0,0,0-1.771-.44,3.607,3.607,0,0,0-1.782.44,3.2,3.2,0,0,0-1.254,1.265,4.4,4.4,0,0,0,0,3.927,3.183,3.183,0,0,0,1.254,1.276A3.607,3.607,0,0,0,177.275,72.8Zm12.518,2.354a10.28,10.28,0,0,1-2.827-.385,7.273,7.273,0,0,1-2.145-.935l1.056-2.09a7.51,7.51,0,0,0,1.892.836,7.622,7.622,0,0,0,2.2.33,3.791,3.791,0,0,0,1.881-.352,1.067,1.067,0,0,0,.583-.946.821.821,0,0,0-.4-.737A3.08,3.08,0,0,0,191,70.49q-.638-.132-1.419-.242t-1.562-.3a5.391,5.391,0,0,1-1.419-.55,2.939,2.939,0,0,1-1.034-.979,2.973,2.973,0,0,1-.4-1.628,3.09,3.09,0,0,1,.638-1.947,4.073,4.073,0,0,1,1.793-1.276,7.521,7.521,0,0,1,2.739-.451,11.224,11.224,0,0,1,2.4.264,6.49,6.49,0,0,1,2,.748l-1.056,2.09A5.569,5.569,0,0,0,192,65.529a7.788,7.788,0,0,0-1.683-.187,3.619,3.619,0,0,0-1.859.374,1.1,1.1,0,0,0-.6.946.888.888,0,0,0,.4.792,3.23,3.23,0,0,0,1.034.418,13.091,13.091,0,0,0,1.419.253,12.569,12.569,0,0,1,1.551.3,6.541,6.541,0,0,1,1.419.539,2.733,2.733,0,0,1,1.045.957,2.927,2.927,0,0,1,.4,1.606,2.979,2.979,0,0,1-.649,1.914,4.178,4.178,0,0,1-1.837,1.265A8,8,0,0,1,189.793,75.154Zm18.194,0a4.18,4.18,0,0,1-2.992-1,3.888,3.888,0,0,1-1.056-2.959V60.656h2.75V71.128a1.836,1.836,0,0,0,.429,1.3,1.555,1.555,0,0,0,1.2.462,2.416,2.416,0,0,0,1.54-.484l.77,1.958a3.231,3.231,0,0,1-1.188.594A5.337,5.337,0,0,1,207.987,75.154ZM202,65.54v-2.2h7.832v2.2Zm17.556-2.42a5.6,5.6,0,0,1,2.519.55,4.031,4.031,0,0,1,1.749,1.683,5.9,5.9,0,0,1,.638,2.915V75h-2.75V68.62a3.259,3.259,0,0,0-.737-2.332,2.713,2.713,0,0,0-2.057-.77,3.612,3.612,0,0,0-1.716.4,2.714,2.714,0,0,0-1.155,1.177,4.238,4.238,0,0,0-.407,1.969V75h-2.75V58.676h2.75V66.42l-.594-.968a4.164,4.164,0,0,1,1.793-1.727A5.862,5.862,0,0,1,219.559,63.12Zm13.948,12.034a7.159,7.159,0,0,1-3.421-.781,5.659,5.659,0,0,1-2.266-2.145,6,6,0,0,1-.8-3.1,6.114,6.114,0,0,1,.781-3.113,5.6,5.6,0,0,1,2.156-2.123,6.306,6.306,0,0,1,3.135-.77,6.174,6.174,0,0,1,3.058.748,5.415,5.415,0,0,1,2.112,2.112,6.427,6.427,0,0,1,.77,3.212q0,.176-.011.4t-.033.418h-9.79V68.18h8.338l-1.078.572a3.376,3.376,0,0,0-.418-1.782,3.219,3.219,0,0,0-1.2-1.21,3.424,3.424,0,0,0-1.749-.44,3.468,3.468,0,0,0-1.771.44,3.118,3.118,0,0,0-1.188,1.221,3.757,3.757,0,0,0-.429,1.837v.44a3.589,3.589,0,0,0,.484,1.87,3.227,3.227,0,0,0,1.364,1.254,4.467,4.467,0,0,0,2.024.44,4.884,4.884,0,0,0,1.782-.308,3.793,3.793,0,0,0,1.408-.968l1.474,1.694a5.176,5.176,0,0,1-1.991,1.419A7.126,7.126,0,0,1,233.507,75.154Zm20.746,0a5.238,5.238,0,0,1-2.607-.66,4.691,4.691,0,0,1-1.87-1.991,7.28,7.28,0,0,1-.693-3.377,7.468,7.468,0,0,1,.671-3.388,4.523,4.523,0,0,1,1.837-1.969,5.38,5.38,0,0,1,2.662-.649,6.157,6.157,0,0,1,3.069.748,5.557,5.557,0,0,1,2.112,2.09,6.838,6.838,0,0,1,0,6.347,5.534,5.534,0,0,1-2.112,2.1A6.157,6.157,0,0,1,254.253,75.154Zm-6.512,4.114V63.252h2.618v2.772l-.088,3.124.22,3.124v7Zm6.2-6.468a3.545,3.545,0,0,0,1.771-.44,3.205,3.205,0,0,0,1.243-1.276,4.4,4.4,0,0,0,0-3.927,3.224,3.224,0,0,0-1.243-1.265,3.545,3.545,0,0,0-1.771-.44,3.607,3.607,0,0,0-1.782.44,3.2,3.2,0,0,0-1.254,1.265,4.4,4.4,0,0,0,0,3.927,3.183,3.183,0,0,0,1.254,1.276A3.607,3.607,0,0,0,253.945,72.8Zm8.888,2.2V63.252h2.618v3.234l-.308-.946a3.715,3.715,0,0,1,1.661-1.8,5.864,5.864,0,0,1,2.827-.616v2.618a1.934,1.934,0,0,0-.33-.055q-.154-.011-.308-.011a3.382,3.382,0,0,0-2.486.913,3.661,3.661,0,0,0-.924,2.717V75Zm14.3.154a6.761,6.761,0,0,1-3.212-.792,5.78,5.78,0,0,1-2.222-2.123,5.92,5.92,0,0,1-.814-3.113,5.8,5.8,0,0,1,3.047-5.236,6.522,6.522,0,0,1,3.2-.77,6.631,6.631,0,0,1,3.234.77A5.806,5.806,0,0,1,282.589,66a5.9,5.9,0,0,1,.814,3.124,6,6,0,0,1-.8,3.1,5.637,5.637,0,0,1-2.233,2.134A6.894,6.894,0,0,1,277.133,75.154Zm0-2.354a3.652,3.652,0,0,0,1.8-.44,3.113,3.113,0,0,0,1.243-1.276,4.312,4.312,0,0,0,0-3.927,3.129,3.129,0,0,0-1.243-1.265,3.652,3.652,0,0,0-1.8-.44,3.545,3.545,0,0,0-1.771.44,3.224,3.224,0,0,0-1.243,1.265,4.4,4.4,0,0,0,0,3.927,3.283,3.283,0,0,0,1.243,1.287A3.324,3.324,0,0,0,277.133,72.8Zm7.7,6.622a6.3,6.3,0,0,1-1.463-.165,3.262,3.262,0,0,1-1.177-.517l.792-2.046a2.668,2.668,0,0,0,1.606.462,1.475,1.475,0,0,0,1.166-.473,2.052,2.052,0,0,0,.418-1.4V63.252h2.75V75.22a4.3,4.3,0,0,1-1.067,3.069A3.954,3.954,0,0,1,284.833,79.422Zm2.706-18.106a1.734,1.734,0,0,1-1.265-.484,1.634,1.634,0,0,1,0-2.343,1.756,1.756,0,0,1,1.265-.473,1.806,1.806,0,0,1,1.265.451A1.468,1.468,0,0,1,289.3,59.6a1.679,1.679,0,0,1-.484,1.221A1.7,1.7,0,0,1,287.539,61.316Zm10.516,13.838a7.159,7.159,0,0,1-3.421-.781,5.658,5.658,0,0,1-2.266-2.145,6,6,0,0,1-.8-3.1,6.114,6.114,0,0,1,.781-3.113A5.6,5.6,0,0,1,294.5,63.89a6.306,6.306,0,0,1,3.135-.77,6.174,6.174,0,0,1,3.058.748,5.415,5.415,0,0,1,2.112,2.112,6.427,6.427,0,0,1,.77,3.212q0,.176-.011.4t-.033.418h-9.79V68.18h8.338L301,68.752a3.376,3.376,0,0,0-.418-1.782,3.219,3.219,0,0,0-1.2-1.21,3.424,3.424,0,0,0-1.749-.44,3.468,3.468,0,0,0-1.771.44,3.118,3.118,0,0,0-1.188,1.221,3.757,3.757,0,0,0-.429,1.837v.44a3.589,3.589,0,0,0,.484,1.87,3.227,3.227,0,0,0,1.364,1.254,4.467,4.467,0,0,0,2.024.44,4.884,4.884,0,0,0,1.782-.308,3.793,3.793,0,0,0,1.408-.968l1.474,1.694a5.176,5.176,0,0,1-1.991,1.419A7.127,7.127,0,0,1,298.055,75.154Zm13.552,0a6.791,6.791,0,0,1-3.289-.781,5.774,5.774,0,0,1-2.255-2.145,6.339,6.339,0,0,1,0-6.215,5.721,5.721,0,0,1,2.255-2.123,6.87,6.87,0,0,1,3.289-.77,6.37,6.37,0,0,1,3.025.693,4.605,4.605,0,0,1,1.991,2.035l-2.112,1.232a3.378,3.378,0,0,0-1.287-1.232,3.491,3.491,0,0,0-1.639-.4,3.778,3.778,0,0,0-1.826.44,3.162,3.162,0,0,0-1.276,1.265,4.427,4.427,0,0,0,0,3.938,3.162,3.162,0,0,0,1.276,1.265,3.777,3.777,0,0,0,1.826.44,3.491,3.491,0,0,0,1.639-.4,3.378,3.378,0,0,0,1.287-1.232l2.112,1.232a4.76,4.76,0,0,1-1.991,2.035A6.21,6.21,0,0,1,311.607,75.154Zm11.968,0a4.18,4.18,0,0,1-2.992-1,3.888,3.888,0,0,1-1.056-2.959V60.656h2.75V71.128a1.836,1.836,0,0,0,.429,1.3,1.555,1.555,0,0,0,1.2.462,2.416,2.416,0,0,0,1.54-.484l.77,1.958a3.231,3.231,0,0,1-1.188.594A5.337,5.337,0,0,1,323.575,75.154Zm-5.984-9.614v-2.2h7.832v2.2Zm31.79-2.42a5.464,5.464,0,0,1,2.5.55,3.933,3.933,0,0,1,1.7,1.683,6.073,6.073,0,0,1,.616,2.915V75h-2.75V68.62a3.432,3.432,0,0,0-.682-2.332,2.478,2.478,0,0,0-1.958-.77,3.158,3.158,0,0,0-1.6.4,2.685,2.685,0,0,0-1.078,1.166,4.371,4.371,0,0,0-.385,1.958V75H343V68.62a3.432,3.432,0,0,0-.682-2.332,2.478,2.478,0,0,0-1.958-.77,3.158,3.158,0,0,0-1.6.4,2.685,2.685,0,0,0-1.078,1.166,4.37,4.37,0,0,0-.385,1.958V75h-2.75V63.252h2.618v3.124l-.462-.924a3.994,3.994,0,0,1,1.727-1.738,5.484,5.484,0,0,1,2.585-.594,5.054,5.054,0,0,1,2.871.814,3.919,3.919,0,0,1,1.617,2.464l-1.078-.374a4.533,4.533,0,0,1,1.892-2.112A5.828,5.828,0,0,1,349.381,63.12ZM364.957,75V72.624l-.154-.506V67.96a2.434,2.434,0,0,0-.726-1.881,3.146,3.146,0,0,0-2.2-.671,6.318,6.318,0,0,0-1.947.308,4.783,4.783,0,0,0-1.617.858l-1.078-2a6.521,6.521,0,0,1,2.255-1.089,10.12,10.12,0,0,1,2.717-.363,5.812,5.812,0,0,1,3.949,1.221,4.751,4.751,0,0,1,1.4,3.773V75Zm-3.7.154a5.525,5.525,0,0,1-2.31-.451,3.569,3.569,0,0,1-1.529-1.254,3.182,3.182,0,0,1-.539-1.815,3.408,3.408,0,0,1,.473-1.782,3.189,3.189,0,0,1,1.551-1.254,7.371,7.371,0,0,1,2.86-.462h3.41v1.826h-3.212a2.865,2.865,0,0,0-1.892.451,1.459,1.459,0,0,0-.484,1.111,1.4,1.4,0,0,0,.594,1.188,2.723,2.723,0,0,0,1.65.44,3.573,3.573,0,0,0,1.815-.462,2.619,2.619,0,0,0,1.155-1.364l.462,1.65a3.056,3.056,0,0,1-1.419,1.606A5.248,5.248,0,0,1,361.261,75.154ZM377.739,63.12a5.6,5.6,0,0,1,2.519.55,4.031,4.031,0,0,1,1.749,1.683,5.9,5.9,0,0,1,.638,2.915V75h-2.75V68.62a3.259,3.259,0,0,0-.737-2.332,2.712,2.712,0,0,0-2.057-.77,3.612,3.612,0,0,0-1.716.4,2.714,2.714,0,0,0-1.155,1.177,4.238,4.238,0,0,0-.407,1.969V75h-2.75V63.252h2.618V66.42l-.462-.968a4.164,4.164,0,0,1,1.793-1.727A5.862,5.862,0,0,1,377.739,63.12ZM393.381,75V72.624l-.154-.506V67.96a2.434,2.434,0,0,0-.726-1.881,3.146,3.146,0,0,0-2.2-.671,6.318,6.318,0,0,0-1.947.308,4.783,4.783,0,0,0-1.617.858l-1.078-2a6.521,6.521,0,0,1,2.255-1.089,10.12,10.12,0,0,1,2.717-.363,5.812,5.812,0,0,1,3.949,1.221,4.751,4.751,0,0,1,1.4,3.773V75Zm-3.7.154a5.525,5.525,0,0,1-2.31-.451,3.569,3.569,0,0,1-1.529-1.254,3.182,3.182,0,0,1-.539-1.815,3.408,3.408,0,0,1,.473-1.782,3.189,3.189,0,0,1,1.551-1.254,7.371,7.371,0,0,1,2.86-.462h3.41v1.826h-3.212a2.865,2.865,0,0,0-1.892.451,1.459,1.459,0,0,0-.484,1.111,1.4,1.4,0,0,0,.594,1.188,2.723,2.723,0,0,0,1.65.44,3.573,3.573,0,0,0,1.815-.462,2.619,2.619,0,0,0,1.155-1.364l.462,1.65a3.056,3.056,0,0,1-1.419,1.606A5.248,5.248,0,0,1,389.685,75.154Zm15.158,4.268a11.87,11.87,0,0,1-3.179-.429,6.805,6.805,0,0,1-2.541-1.243l1.232-2.068a5.887,5.887,0,0,0,1.947,1.023,7.633,7.633,0,0,0,2.387.385,3.908,3.908,0,0,0,2.838-.891,3.6,3.6,0,0,0,.9-2.673v-2.09l.22-2.662-.088-2.662v-2.86h2.618v9.966a6.114,6.114,0,0,1-1.628,4.7A6.688,6.688,0,0,1,404.843,79.422Zm-.352-4.95a6.373,6.373,0,0,1-3.025-.715,5.421,5.421,0,0,1-2.134-1.991,6.079,6.079,0,0,1,0-5.962,5.343,5.343,0,0,1,2.134-1.98,6.454,6.454,0,0,1,3.025-.7,5.919,5.919,0,0,1,2.684.594,4.479,4.479,0,0,1,1.9,1.848,7.6,7.6,0,0,1,0,6.435,4.534,4.534,0,0,1-1.9,1.87A5.83,5.83,0,0,1,404.491,74.472Zm.418-2.332a3.9,3.9,0,0,0,1.848-.429,3.14,3.14,0,0,0,1.265-1.188,3.617,3.617,0,0,0,0-3.5,2.994,2.994,0,0,0-1.265-1.166,4.076,4.076,0,0,0-1.848-.407,4.146,4.146,0,0,0-1.859.407,2.981,2.981,0,0,0-1.276,1.166,3.617,3.617,0,0,0,0,3.5,3.123,3.123,0,0,0,1.276,1.188A3.969,3.969,0,0,0,404.909,72.14Zm15.4,3.014a7.159,7.159,0,0,1-3.421-.781,5.658,5.658,0,0,1-2.266-2.145,6,6,0,0,1-.8-3.1,6.114,6.114,0,0,1,.781-3.113,5.6,5.6,0,0,1,2.156-2.123,6.306,6.306,0,0,1,3.135-.77,6.174,6.174,0,0,1,3.058.748,5.415,5.415,0,0,1,2.112,2.112,6.427,6.427,0,0,1,.77,3.212q0,.176-.011.4t-.033.418H416V68.18h8.338l-1.078.572a3.376,3.376,0,0,0-.418-1.782,3.219,3.219,0,0,0-1.2-1.21,3.424,3.424,0,0,0-1.749-.44,3.468,3.468,0,0,0-1.771.44,3.118,3.118,0,0,0-1.188,1.221,3.757,3.757,0,0,0-.429,1.837v.44a3.589,3.589,0,0,0,.484,1.87,3.227,3.227,0,0,0,1.364,1.254,4.467,4.467,0,0,0,2.024.44,4.884,4.884,0,0,0,1.782-.308,3.793,3.793,0,0,0,1.408-.968l1.474,1.694a5.176,5.176,0,0,1-1.991,1.419A7.127,7.127,0,0,1,420.309,75.154ZM428.471,75V63.252h2.618v3.234l-.308-.946a3.715,3.715,0,0,1,1.661-1.8,5.864,5.864,0,0,1,2.827-.616v2.618a1.934,1.934,0,0,0-.33-.055q-.154-.011-.308-.011a3.382,3.382,0,0,0-2.486.913,3.661,3.661,0,0,0-.924,2.717V75ZM99.021,102V99.624l-.154-.506V94.96a2.434,2.434,0,0,0-.726-1.881,3.147,3.147,0,0,0-2.2-.671,6.318,6.318,0,0,0-1.947.308,4.783,4.783,0,0,0-1.617.858l-1.078-2a6.522,6.522,0,0,1,2.255-1.089,10.121,10.121,0,0,1,2.717-.363,5.812,5.812,0,0,1,3.949,1.221,4.751,4.751,0,0,1,1.4,3.773V102Zm-3.7.154a5.525,5.525,0,0,1-2.31-.451,3.569,3.569,0,0,1-1.529-1.254,3.182,3.182,0,0,1-.539-1.815,3.408,3.408,0,0,1,.473-1.782A3.189,3.189,0,0,1,92.971,95.6a7.371,7.371,0,0,1,2.86-.462h3.41v1.826H96.029a2.865,2.865,0,0,0-1.892.451,1.459,1.459,0,0,0-.484,1.111,1.4,1.4,0,0,0,.594,1.188,2.723,2.723,0,0,0,1.65.44,3.573,3.573,0,0,0,1.815-.462,2.62,2.62,0,0,0,1.155-1.364l.462,1.65a3.056,3.056,0,0,1-1.419,1.606A5.248,5.248,0,0,1,95.325,102.154ZM111.8,90.12a5.6,5.6,0,0,1,2.519.55,4.031,4.031,0,0,1,1.749,1.683,5.9,5.9,0,0,1,.638,2.915V102h-2.75V95.62a3.259,3.259,0,0,0-.737-2.332,2.712,2.712,0,0,0-2.057-.77,3.612,3.612,0,0,0-1.716.4,2.714,2.714,0,0,0-1.155,1.177,4.238,4.238,0,0,0-.407,1.969V102h-2.75V90.252h2.618V93.42l-.462-.968a4.164,4.164,0,0,1,1.793-1.727A5.862,5.862,0,0,1,111.8,90.12Zm13.4,12.034a6.119,6.119,0,0,1-3.047-.759,5.513,5.513,0,0,1-2.123-2.1,6.9,6.9,0,0,1,0-6.336,5.436,5.436,0,0,1,2.123-2.09,6.191,6.191,0,0,1,3.047-.748,5.335,5.335,0,0,1,2.64.649,4.588,4.588,0,0,1,1.848,1.969,7.365,7.365,0,0,1,.682,3.388,7.589,7.589,0,0,1-.66,3.377,4.516,4.516,0,0,1-1.826,1.991A5.354,5.354,0,0,1,125.2,102.154Zm.33-2.354a3.545,3.545,0,0,0,1.771-.44,3.279,3.279,0,0,0,1.254-1.276,4.312,4.312,0,0,0,0-3.927,3.3,3.3,0,0,0-1.254-1.265,3.784,3.784,0,0,0-3.542,0,3.3,3.3,0,0,0-1.254,1.265,4.312,4.312,0,0,0,0,3.927,3.279,3.279,0,0,0,1.254,1.276A3.545,3.545,0,0,0,125.531,99.8Zm3.564,2.2V99.228l.11-3.124-.22-3.124v-7.3h2.728V102Zm17.6.154a6.761,6.761,0,0,1-3.212-.792,5.781,5.781,0,0,1-2.222-2.123,5.92,5.92,0,0,1-.814-3.113,5.8,5.8,0,0,1,3.047-5.236,6.522,6.522,0,0,1,3.2-.77,6.631,6.631,0,0,1,3.234.77A5.807,5.807,0,0,1,152.151,93a5.9,5.9,0,0,1,.814,3.124,6,6,0,0,1-.8,3.1,5.637,5.637,0,0,1-2.233,2.134A6.894,6.894,0,0,1,146.695,102.154Zm0-2.354a3.652,3.652,0,0,0,1.8-.44,3.112,3.112,0,0,0,1.243-1.276,4.312,4.312,0,0,0,0-3.927,3.129,3.129,0,0,0-1.243-1.265,3.652,3.652,0,0,0-1.8-.44,3.545,3.545,0,0,0-1.771.44,3.223,3.223,0,0,0-1.243,1.265,4.4,4.4,0,0,0,0,3.927,3.283,3.283,0,0,0,1.243,1.287A3.324,3.324,0,0,0,146.695,99.8Zm13.332,2.354a4.18,4.18,0,0,1-2.992-1,3.888,3.888,0,0,1-1.056-2.959V87.656h2.75V98.128a1.836,1.836,0,0,0,.429,1.3,1.555,1.555,0,0,0,1.2.462,2.416,2.416,0,0,0,1.54-.484l.77,1.958a3.231,3.231,0,0,1-1.188.594A5.337,5.337,0,0,1,160.027,102.154Zm-5.984-9.614v-2.2h7.832v2.2ZM171.6,90.12a5.6,5.6,0,0,1,2.519.55,4.031,4.031,0,0,1,1.749,1.683,5.9,5.9,0,0,1,.638,2.915V102h-2.75V95.62a3.259,3.259,0,0,0-.737-2.332,2.712,2.712,0,0,0-2.057-.77,3.612,3.612,0,0,0-1.716.4,2.714,2.714,0,0,0-1.155,1.177,4.238,4.238,0,0,0-.407,1.969V102h-2.75V85.676h2.75V93.42l-.594-.968a4.164,4.164,0,0,1,1.793-1.727A5.862,5.862,0,0,1,171.6,90.12Zm13.948,12.034a7.159,7.159,0,0,1-3.421-.781,5.659,5.659,0,0,1-2.266-2.145,6,6,0,0,1-.8-3.1,6.114,6.114,0,0,1,.781-3.113,5.6,5.6,0,0,1,2.156-2.123,6.306,6.306,0,0,1,3.135-.77,6.174,6.174,0,0,1,3.058.748A5.415,5.415,0,0,1,190.3,92.98a6.427,6.427,0,0,1,.77,3.212q0,.176-.011.4t-.033.418h-9.79V95.18h8.338l-1.078.572a3.376,3.376,0,0,0-.418-1.782,3.219,3.219,0,0,0-1.2-1.21,3.424,3.424,0,0,0-1.749-.44,3.468,3.468,0,0,0-1.771.44,3.118,3.118,0,0,0-1.188,1.221,3.757,3.757,0,0,0-.429,1.837v.44a3.589,3.589,0,0,0,.484,1.87,3.227,3.227,0,0,0,1.364,1.254,4.467,4.467,0,0,0,2.024.44,4.884,4.884,0,0,0,1.782-.308,3.793,3.793,0,0,0,1.408-.968l1.474,1.694a5.176,5.176,0,0,1-1.991,1.419A7.126,7.126,0,0,1,185.547,102.154Zm8.162-.154V90.252h2.618v3.234l-.308-.946a3.716,3.716,0,0,1,1.661-1.8,5.864,5.864,0,0,1,2.827-.616v2.618a1.934,1.934,0,0,0-.33-.055q-.154-.011-.308-.011a3.382,3.382,0,0,0-2.486.913,3.661,3.661,0,0,0-.924,2.717V102Zm19.734.154a4.18,4.18,0,0,1-2.992-1,3.888,3.888,0,0,1-1.056-2.959V87.656h2.75V98.128a1.836,1.836,0,0,0,.429,1.3,1.555,1.555,0,0,0,1.2.462,2.416,2.416,0,0,0,1.54-.484l.77,1.958a3.231,3.231,0,0,1-1.188.594A5.337,5.337,0,0,1,213.443,102.154Zm-5.984-9.614v-2.2h7.832v2.2Zm16.016,9.614a7.159,7.159,0,0,1-3.421-.781,5.659,5.659,0,0,1-2.266-2.145,6,6,0,0,1-.8-3.1,6.114,6.114,0,0,1,.781-3.113,5.6,5.6,0,0,1,2.156-2.123,6.306,6.306,0,0,1,3.135-.77,6.174,6.174,0,0,1,3.058.748,5.415,5.415,0,0,1,2.112,2.112,6.427,6.427,0,0,1,.77,3.212q0,.176-.011.4t-.033.418h-9.79V95.18H227.5l-1.078.572A3.376,3.376,0,0,0,226,93.97a3.219,3.219,0,0,0-1.2-1.21,3.424,3.424,0,0,0-1.749-.44,3.468,3.468,0,0,0-1.771.44,3.118,3.118,0,0,0-1.188,1.221,3.757,3.757,0,0,0-.429,1.837v.44a3.589,3.589,0,0,0,.484,1.87,3.227,3.227,0,0,0,1.364,1.254,4.467,4.467,0,0,0,2.024.44,4.884,4.884,0,0,0,1.782-.308,3.793,3.793,0,0,0,1.408-.968l1.474,1.694a5.176,5.176,0,0,1-1.991,1.419A7.126,7.126,0,0,1,223.475,102.154Zm15.07-.154V99.624l-.154-.506V94.96a2.434,2.434,0,0,0-.726-1.881,3.147,3.147,0,0,0-2.2-.671,6.318,6.318,0,0,0-1.947.308,4.783,4.783,0,0,0-1.617.858l-1.078-2a6.522,6.522,0,0,1,2.255-1.089,10.12,10.12,0,0,1,2.717-.363,5.812,5.812,0,0,1,3.949,1.221,4.751,4.751,0,0,1,1.4,3.773V102Zm-3.7.154a5.525,5.525,0,0,1-2.31-.451,3.569,3.569,0,0,1-1.529-1.254,3.182,3.182,0,0,1-.539-1.815,3.408,3.408,0,0,1,.473-1.782,3.189,3.189,0,0,1,1.551-1.254,7.371,7.371,0,0,1,2.86-.462h3.41v1.826h-3.212a2.865,2.865,0,0,0-1.892.451,1.459,1.459,0,0,0-.484,1.111,1.4,1.4,0,0,0,.594,1.188,2.723,2.723,0,0,0,1.65.44,3.573,3.573,0,0,0,1.815-.462,2.62,2.62,0,0,0,1.155-1.364l.462,1.65a3.056,3.056,0,0,1-1.419,1.606A5.248,5.248,0,0,1,234.849,102.154Zm24.64-12.034a5.465,5.465,0,0,1,2.5.55,3.933,3.933,0,0,1,1.7,1.683,6.073,6.073,0,0,1,.616,2.915V102h-2.75V95.62a3.432,3.432,0,0,0-.682-2.332,2.478,2.478,0,0,0-1.958-.77,3.158,3.158,0,0,0-1.6.4,2.685,2.685,0,0,0-1.078,1.166,4.371,4.371,0,0,0-.385,1.958V102h-2.75V95.62a3.433,3.433,0,0,0-.682-2.332,2.478,2.478,0,0,0-1.958-.77,3.158,3.158,0,0,0-1.6.4A2.685,2.685,0,0,0,247.8,94.08a4.371,4.371,0,0,0-.385,1.958V102h-2.75V90.252h2.618v3.124l-.462-.924a3.994,3.994,0,0,1,1.727-1.738,5.484,5.484,0,0,1,2.585-.594,5.054,5.054,0,0,1,2.871.814,3.919,3.919,0,0,1,1.617,2.464l-1.078-.374a4.533,4.533,0,0,1,1.892-2.112A5.828,5.828,0,0,1,259.489,90.12Zm29.238,0a5.464,5.464,0,0,1,2.5.55,3.933,3.933,0,0,1,1.7,1.683,6.073,6.073,0,0,1,.616,2.915V102h-2.75V95.62a3.432,3.432,0,0,0-.682-2.332,2.478,2.478,0,0,0-1.958-.77,3.158,3.158,0,0,0-1.6.4,2.685,2.685,0,0,0-1.078,1.166,4.371,4.371,0,0,0-.385,1.958V102h-2.75V95.62a3.432,3.432,0,0,0-.682-2.332,2.478,2.478,0,0,0-1.958-.77,3.158,3.158,0,0,0-1.6.4,2.685,2.685,0,0,0-1.078,1.166,4.37,4.37,0,0,0-.385,1.958V102H273.9V90.252h2.618v3.124l-.462-.924a3.994,3.994,0,0,1,1.727-1.738,5.484,5.484,0,0,1,2.585-.594,5.054,5.054,0,0,1,2.871.814,3.919,3.919,0,0,1,1.617,2.464l-1.078-.374a4.533,4.533,0,0,1,1.892-2.112A5.828,5.828,0,0,1,288.727,90.12Zm13.882,12.034a7.159,7.159,0,0,1-3.421-.781,5.658,5.658,0,0,1-2.266-2.145,6,6,0,0,1-.8-3.1,6.114,6.114,0,0,1,.781-3.113,5.6,5.6,0,0,1,2.156-2.123,6.306,6.306,0,0,1,3.135-.77,6.174,6.174,0,0,1,3.058.748,5.415,5.415,0,0,1,2.112,2.112,6.427,6.427,0,0,1,.77,3.212q0,.176-.011.4t-.033.418H298.3V95.18h8.338l-1.078.572a3.376,3.376,0,0,0-.418-1.782,3.219,3.219,0,0,0-1.2-1.21,3.424,3.424,0,0,0-1.749-.44,3.468,3.468,0,0,0-1.771.44,3.118,3.118,0,0,0-1.188,1.221,3.757,3.757,0,0,0-.429,1.837v.44a3.589,3.589,0,0,0,.484,1.87,3.227,3.227,0,0,0,1.364,1.254,4.467,4.467,0,0,0,2.024.44,4.884,4.884,0,0,0,1.782-.308,3.793,3.793,0,0,0,1.408-.968l1.474,1.694a5.176,5.176,0,0,1-1.991,1.419A7.127,7.127,0,0,1,302.609,102.154ZM325.6,90.12a5.464,5.464,0,0,1,2.5.55,3.933,3.933,0,0,1,1.7,1.683,6.073,6.073,0,0,1,.616,2.915V102h-2.75V95.62a3.432,3.432,0,0,0-.682-2.332,2.478,2.478,0,0,0-1.958-.77,3.158,3.158,0,0,0-1.6.4,2.685,2.685,0,0,0-1.078,1.166,4.371,4.371,0,0,0-.385,1.958V102h-2.75V95.62a3.432,3.432,0,0,0-.682-2.332,2.478,2.478,0,0,0-1.958-.77,3.158,3.158,0,0,0-1.6.4,2.685,2.685,0,0,0-1.078,1.166,4.37,4.37,0,0,0-.385,1.958V102h-2.75V90.252h2.618v3.124l-.462-.924a3.994,3.994,0,0,1,1.727-1.738,5.484,5.484,0,0,1,2.585-.594,5.054,5.054,0,0,1,2.871.814,3.919,3.919,0,0,1,1.617,2.464l-1.078-.374a4.533,4.533,0,0,1,1.892-2.112A5.828,5.828,0,0,1,325.6,90.12Zm14.85,12.034a5.309,5.309,0,0,1-2.662-.66A4.58,4.58,0,0,1,335.95,99.5a7.483,7.483,0,0,1-.671-3.377,7.266,7.266,0,0,1,.693-3.388,4.633,4.633,0,0,1,1.87-1.969,5.308,5.308,0,0,1,2.607-.649,6.157,6.157,0,0,1,3.069.748,5.557,5.557,0,0,1,2.112,2.09,6.816,6.816,0,0,1,0,6.336,5.638,5.638,0,0,1-2.112,2.1A6.086,6.086,0,0,1,340.449,102.154ZM333.937,102V85.676h2.75v7.3l-.22,3.124.088,3.124V102Zm6.2-2.2a3.545,3.545,0,0,0,1.771-.44,3.205,3.205,0,0,0,1.243-1.276,4.4,4.4,0,0,0,0-3.927,3.224,3.224,0,0,0-1.243-1.265,3.545,3.545,0,0,0-1.771-.44,3.607,3.607,0,0,0-1.782.44,3.2,3.2,0,0,0-1.254,1.265,4.4,4.4,0,0,0,0,3.927,3.184,3.184,0,0,0,1.254,1.276A3.606,3.606,0,0,0,340.141,99.8Zm14.41,2.354a7.159,7.159,0,0,1-3.421-.781,5.658,5.658,0,0,1-2.266-2.145,6,6,0,0,1-.8-3.1,6.114,6.114,0,0,1,.781-3.113A5.6,5.6,0,0,1,351,90.89a6.306,6.306,0,0,1,3.135-.77,6.174,6.174,0,0,1,3.058.748A5.415,5.415,0,0,1,359.3,92.98a6.427,6.427,0,0,1,.77,3.212q0,.176-.011.4t-.033.418h-9.79V95.18h8.338l-1.078.572a3.376,3.376,0,0,0-.418-1.782,3.219,3.219,0,0,0-1.2-1.21,3.424,3.424,0,0,0-1.749-.44,3.468,3.468,0,0,0-1.771.44,3.118,3.118,0,0,0-1.188,1.221,3.757,3.757,0,0,0-.429,1.837v.44a3.589,3.589,0,0,0,.484,1.87,3.227,3.227,0,0,0,1.364,1.254,4.467,4.467,0,0,0,2.024.44,4.884,4.884,0,0,0,1.782-.308,3.793,3.793,0,0,0,1.408-.968l1.474,1.694a5.176,5.176,0,0,1-1.991,1.419A7.127,7.127,0,0,1,354.551,102.154Zm8.162-.154V90.252h2.618v3.234l-.308-.946a3.715,3.715,0,0,1,1.661-1.8,5.864,5.864,0,0,1,2.827-.616v2.618a1.934,1.934,0,0,0-.33-.055q-.154-.011-.308-.011a3.382,3.382,0,0,0-2.486.913,3.661,3.661,0,0,0-.924,2.717V102Zm12.87.154a10.28,10.28,0,0,1-2.827-.385,7.272,7.272,0,0,1-2.145-.935l1.056-2.09a7.51,7.51,0,0,0,1.892.836,7.622,7.622,0,0,0,2.2.33,3.791,3.791,0,0,0,1.881-.352,1.067,1.067,0,0,0,.583-.946.821.821,0,0,0-.4-.737,3.081,3.081,0,0,0-1.034-.385q-.638-.132-1.419-.242t-1.562-.3a5.391,5.391,0,0,1-1.419-.55,2.94,2.94,0,0,1-1.034-.979,2.973,2.973,0,0,1-.4-1.628,3.09,3.09,0,0,1,.638-1.947,4.073,4.073,0,0,1,1.793-1.276,7.52,7.52,0,0,1,2.739-.451,11.223,11.223,0,0,1,2.4.264,6.49,6.49,0,0,1,2,.748l-1.056,2.09a5.569,5.569,0,0,0-1.683-.693,7.787,7.787,0,0,0-1.683-.187,3.619,3.619,0,0,0-1.859.374,1.1,1.1,0,0,0-.605.946.888.888,0,0,0,.4.792,3.231,3.231,0,0,0,1.034.418,13.09,13.09,0,0,0,1.419.253,12.571,12.571,0,0,1,1.551.3,6.541,6.541,0,0,1,1.419.539,2.733,2.733,0,0,1,1.045.957,2.927,2.927,0,0,1,.4,1.606,2.979,2.979,0,0,1-.649,1.914,4.178,4.178,0,0,1-1.837,1.265A8,8,0,0,1,375.583,102.154Zm18.194,0a4.18,4.18,0,0,1-2.992-1,3.888,3.888,0,0,1-1.056-2.959V87.656h2.75V98.128a1.836,1.836,0,0,0,.429,1.3,1.555,1.555,0,0,0,1.2.462,2.416,2.416,0,0,0,1.54-.484l.77,1.958a3.231,3.231,0,0,1-1.188.594A5.337,5.337,0,0,1,393.777,102.154Zm-5.984-9.614v-2.2h7.832v2.2Zm15.774,9.614a6.761,6.761,0,0,1-3.212-.792,5.78,5.78,0,0,1-2.222-2.123,5.92,5.92,0,0,1-.814-3.113,5.8,5.8,0,0,1,3.047-5.236,6.522,6.522,0,0,1,3.2-.77,6.631,6.631,0,0,1,3.234.77A5.806,5.806,0,0,1,409.023,93a5.9,5.9,0,0,1,.814,3.124,6,6,0,0,1-.8,3.1,5.637,5.637,0,0,1-2.233,2.134A6.894,6.894,0,0,1,403.567,102.154Zm0-2.354a3.652,3.652,0,0,0,1.8-.44,3.113,3.113,0,0,0,1.243-1.276,4.312,4.312,0,0,0,0-3.927,3.129,3.129,0,0,0-1.243-1.265,3.652,3.652,0,0,0-1.8-.44,3.545,3.545,0,0,0-1.771.44,3.224,3.224,0,0,0-1.243,1.265,4.4,4.4,0,0,0,0,3.927,3.283,3.283,0,0,0,1.243,1.287A3.324,3.324,0,0,0,403.567,99.8ZM85.051,129.154a5.238,5.238,0,0,1-2.607-.66,4.691,4.691,0,0,1-1.87-1.991,7.28,7.28,0,0,1-.693-3.377,7.468,7.468,0,0,1,.671-3.388,4.522,4.522,0,0,1,1.837-1.969,5.381,5.381,0,0,1,2.662-.649,6.157,6.157,0,0,1,3.069.748,5.557,5.557,0,0,1,2.112,2.09,6.838,6.838,0,0,1,0,6.347,5.535,5.535,0,0,1-2.112,2.1A6.157,6.157,0,0,1,85.051,129.154Zm-6.512,4.114V117.252h2.618v2.772l-.088,3.124.22,3.124v7Zm6.2-6.468a3.545,3.545,0,0,0,1.771-.44,3.205,3.205,0,0,0,1.243-1.276,4.4,4.4,0,0,0,0-3.927,3.223,3.223,0,0,0-1.243-1.265,3.545,3.545,0,0,0-1.771-.44,3.607,3.607,0,0,0-1.782.44,3.2,3.2,0,0,0-1.254,1.265,4.4,4.4,0,0,0,0,3.927,3.183,3.183,0,0,0,1.254,1.276A3.607,3.607,0,0,0,84.743,126.8Zm8.91,2.2-.022-16.324h2.75V129Zm13.574,0v-2.376l-.154-.506V121.96a2.434,2.434,0,0,0-.726-1.881,3.147,3.147,0,0,0-2.2-.671,6.318,6.318,0,0,0-1.947.308,4.783,4.783,0,0,0-1.617.858l-1.078-2a6.522,6.522,0,0,1,2.255-1.089,10.121,10.121,0,0,1,2.717-.363,5.812,5.812,0,0,1,3.949,1.221,4.751,4.751,0,0,1,1.4,3.773V129Zm-3.7.154a5.525,5.525,0,0,1-2.31-.451,3.569,3.569,0,0,1-1.529-1.254,3.182,3.182,0,0,1-.539-1.815,3.408,3.408,0,0,1,.473-1.782,3.189,3.189,0,0,1,1.551-1.254,7.371,7.371,0,0,1,2.86-.462h3.41v1.826h-3.212a2.865,2.865,0,0,0-1.892.451,1.459,1.459,0,0,0-.484,1.111,1.4,1.4,0,0,0,.594,1.188,2.723,2.723,0,0,0,1.65.44,3.573,3.573,0,0,0,1.815-.462,2.62,2.62,0,0,0,1.155-1.364l.462,1.65a3.056,3.056,0,0,1-1.419,1.606A5.248,5.248,0,0,1,103.531,129.154Zm16.478-12.034a5.6,5.6,0,0,1,2.519.55,4.031,4.031,0,0,1,1.749,1.683,5.9,5.9,0,0,1,.638,2.915V129h-2.75v-6.38a3.259,3.259,0,0,0-.737-2.332,2.712,2.712,0,0,0-2.057-.77,3.612,3.612,0,0,0-1.716.4,2.714,2.714,0,0,0-1.155,1.177,4.238,4.238,0,0,0-.407,1.969V129h-2.75V117.252h2.618v3.168l-.462-.968a4.164,4.164,0,0,1,1.793-1.727A5.862,5.862,0,0,1,120.009,117.12Zm7.678,15.2,1.276-4.862.374,1.628a1.835,1.835,0,0,1-1.287-.473,1.658,1.658,0,0,1-.517-1.287,1.733,1.733,0,0,1,1.782-1.826,1.73,1.73,0,0,1,1.276.506,1.785,1.785,0,0,1,.506,1.32,2.769,2.769,0,0,1-.044.473,5.117,5.117,0,0,1-.143.583,7.855,7.855,0,0,1-.319.836l-1.122,3.1Zm17.688-3.168a7.159,7.159,0,0,1-3.421-.781,5.659,5.659,0,0,1-2.266-2.145,6,6,0,0,1-.8-3.1,6.114,6.114,0,0,1,.781-3.113,5.6,5.6,0,0,1,2.156-2.123,6.306,6.306,0,0,1,3.135-.77,6.174,6.174,0,0,1,3.058.748,5.415,5.415,0,0,1,2.112,2.112,6.427,6.427,0,0,1,.77,3.212q0,.176-.011.4t-.033.418h-9.79V122.18H149.4l-1.078.572a3.376,3.376,0,0,0-.418-1.782,3.219,3.219,0,0,0-1.2-1.21,3.424,3.424,0,0,0-1.749-.44,3.468,3.468,0,0,0-1.771.44A3.118,3.118,0,0,0,142,120.981a3.757,3.757,0,0,0-.429,1.837v.44a3.589,3.589,0,0,0,.484,1.87,3.227,3.227,0,0,0,1.364,1.254,4.467,4.467,0,0,0,2.024.44,4.884,4.884,0,0,0,1.782-.308,3.793,3.793,0,0,0,1.408-.968l1.474,1.694a5.176,5.176,0,0,1-1.991,1.419A7.126,7.126,0,0,1,145.375,129.154ZM151.6,129l5.17-6.732-.044,1.474-4.928-6.49h3.058l3.454,4.62h-1.166l3.476-4.62h2.97l-4.972,6.49.022-1.474L163.789,129h-3.1l-3.63-4.906,1.144.154L154.637,129Zm19.338.154a7.159,7.159,0,0,1-3.421-.781,5.659,5.659,0,0,1-2.266-2.145,6,6,0,0,1-.8-3.1,6.114,6.114,0,0,1,.781-3.113,5.6,5.6,0,0,1,2.156-2.123,6.306,6.306,0,0,1,3.135-.77,6.174,6.174,0,0,1,3.058.748,5.415,5.415,0,0,1,2.112,2.112,6.427,6.427,0,0,1,.77,3.212q0,.176-.011.4t-.033.418h-9.79V122.18h8.338l-1.078.572a3.376,3.376,0,0,0-.418-1.782,3.219,3.219,0,0,0-1.2-1.21,3.424,3.424,0,0,0-1.749-.44,3.468,3.468,0,0,0-1.771.44,3.118,3.118,0,0,0-1.188,1.221,3.757,3.757,0,0,0-.429,1.837v.44a3.589,3.589,0,0,0,.484,1.87,3.227,3.227,0,0,0,1.364,1.254,4.467,4.467,0,0,0,2.024.44,4.884,4.884,0,0,0,1.782-.308,3.793,3.793,0,0,0,1.408-.968l1.474,1.694a5.176,5.176,0,0,1-1.991,1.419A7.126,7.126,0,0,1,170.939,129.154Zm13.552,0a6.791,6.791,0,0,1-3.289-.781,5.774,5.774,0,0,1-2.255-2.145,6.339,6.339,0,0,1,0-6.215,5.721,5.721,0,0,1,2.255-2.123,6.87,6.87,0,0,1,3.289-.77,6.37,6.37,0,0,1,3.025.693,4.605,4.605,0,0,1,1.991,2.035l-2.112,1.232a3.378,3.378,0,0,0-1.287-1.232,3.491,3.491,0,0,0-1.639-.4,3.778,3.778,0,0,0-1.826.44,3.162,3.162,0,0,0-1.276,1.265,4.427,4.427,0,0,0,0,3.938,3.162,3.162,0,0,0,1.276,1.265,3.778,3.778,0,0,0,1.826.44,3.491,3.491,0,0,0,1.639-.4,3.378,3.378,0,0,0,1.287-1.232l2.112,1.232a4.76,4.76,0,0,1-1.991,2.035A6.21,6.21,0,0,1,184.491,129.154Zm12.364,0a5.924,5.924,0,0,1-2.64-.561,4.026,4.026,0,0,1-1.782-1.716,5.976,5.976,0,0,1-.638-2.915v-6.71h2.75v6.336a3.4,3.4,0,0,0,.715,2.365,2.62,2.62,0,0,0,2.035.781,3.42,3.42,0,0,0,1.683-.4,2.753,2.753,0,0,0,1.122-1.188,4.252,4.252,0,0,0,.407-1.958v-5.94h2.75V129h-2.618v-3.168l.462.968a4.044,4.044,0,0,1-1.738,1.749A5.281,5.281,0,0,1,196.855,129.154Zm14.432,0a4.18,4.18,0,0,1-2.992-1,3.888,3.888,0,0,1-1.056-2.959V114.656h2.75v10.472a1.836,1.836,0,0,0,.429,1.3,1.555,1.555,0,0,0,1.2.462,2.416,2.416,0,0,0,1.54-.484l.77,1.958a3.231,3.231,0,0,1-1.188.594A5.337,5.337,0,0,1,211.287,129.154ZM205.3,119.54v-2.2h7.832v2.2Zm16.016,9.614a7.159,7.159,0,0,1-3.421-.781,5.659,5.659,0,0,1-2.266-2.145,6,6,0,0,1-.8-3.1,6.114,6.114,0,0,1,.781-3.113,5.6,5.6,0,0,1,2.156-2.123,6.306,6.306,0,0,1,3.135-.77,6.174,6.174,0,0,1,3.058.748,5.415,5.415,0,0,1,2.112,2.112,6.427,6.427,0,0,1,.77,3.212q0,.176-.011.4t-.033.418h-9.79V122.18h8.338l-1.078.572a3.376,3.376,0,0,0-.418-1.782,3.219,3.219,0,0,0-1.2-1.21,3.424,3.424,0,0,0-1.749-.44,3.468,3.468,0,0,0-1.771.44,3.118,3.118,0,0,0-1.188,1.221,3.757,3.757,0,0,0-.429,1.837v.44a3.589,3.589,0,0,0,.484,1.87,3.227,3.227,0,0,0,1.364,1.254,4.467,4.467,0,0,0,2.024.44,4.884,4.884,0,0,0,1.782-.308,3.793,3.793,0,0,0,1.408-.968l1.474,1.694a5.176,5.176,0,0,1-1.991,1.419A7.126,7.126,0,0,1,221.319,129.154ZM242.791,129v-2.376l-.154-.506V121.96a2.434,2.434,0,0,0-.726-1.881,3.147,3.147,0,0,0-2.2-.671,6.318,6.318,0,0,0-1.947.308,4.783,4.783,0,0,0-1.617.858l-1.078-2a6.522,6.522,0,0,1,2.255-1.089,10.12,10.12,0,0,1,2.717-.363,5.812,5.812,0,0,1,3.949,1.221,4.751,4.751,0,0,1,1.4,3.773V129Zm-3.7.154a5.525,5.525,0,0,1-2.31-.451,3.569,3.569,0,0,1-1.529-1.254,3.182,3.182,0,0,1-.539-1.815,3.408,3.408,0,0,1,.473-1.782,3.189,3.189,0,0,1,1.551-1.254,7.371,7.371,0,0,1,2.86-.462h3.41v1.826H239.8a2.865,2.865,0,0,0-1.892.451,1.459,1.459,0,0,0-.484,1.111,1.4,1.4,0,0,0,.594,1.188,2.723,2.723,0,0,0,1.65.44,3.573,3.573,0,0,0,1.815-.462,2.62,2.62,0,0,0,1.155-1.364l.462,1.65a3.056,3.056,0,0,1-1.419,1.606A5.248,5.248,0,0,1,239.095,129.154Zm16.478-12.034a5.6,5.6,0,0,1,2.519.55,4.031,4.031,0,0,1,1.749,1.683,5.9,5.9,0,0,1,.638,2.915V129h-2.75v-6.38a3.259,3.259,0,0,0-.737-2.332,2.712,2.712,0,0,0-2.057-.77,3.612,3.612,0,0,0-1.716.4,2.714,2.714,0,0,0-1.155,1.177,4.238,4.238,0,0,0-.407,1.969V129h-2.75V117.252h2.618v3.168l-.462-.968a4.164,4.164,0,0,1,1.793-1.727A5.862,5.862,0,0,1,255.573,117.12Zm13.4,12.034a6.12,6.12,0,0,1-3.047-.759,5.513,5.513,0,0,1-2.123-2.1,6.9,6.9,0,0,1,0-6.336,5.436,5.436,0,0,1,2.123-2.09,6.191,6.191,0,0,1,3.047-.748,5.335,5.335,0,0,1,2.64.649,4.588,4.588,0,0,1,1.848,1.969,7.365,7.365,0,0,1,.682,3.388,7.589,7.589,0,0,1-.66,3.377,4.515,4.515,0,0,1-1.826,1.991A5.354,5.354,0,0,1,268.971,129.154Zm.33-2.354a3.545,3.545,0,0,0,1.771-.44,3.28,3.28,0,0,0,1.254-1.276,4.312,4.312,0,0,0,0-3.927,3.3,3.3,0,0,0-1.254-1.265,3.784,3.784,0,0,0-3.542,0,3.3,3.3,0,0,0-1.254,1.265,4.312,4.312,0,0,0,0,3.927,3.28,3.28,0,0,0,1.254,1.276A3.545,3.545,0,0,0,269.3,126.8Zm3.564,2.2v-2.772l.11-3.124-.22-3.124v-7.3h2.728V129Zm17.71.154a6.791,6.791,0,0,1-3.289-.781,5.774,5.774,0,0,1-2.255-2.145,6.339,6.339,0,0,1,0-6.215,5.721,5.721,0,0,1,2.255-2.123,6.87,6.87,0,0,1,3.289-.77,6.37,6.37,0,0,1,3.025.693,4.605,4.605,0,0,1,1.991,2.035l-2.112,1.232a3.378,3.378,0,0,0-1.287-1.232,3.491,3.491,0,0,0-1.639-.4,3.778,3.778,0,0,0-1.826.44,3.162,3.162,0,0,0-1.276,1.265,4.427,4.427,0,0,0,0,3.938,3.162,3.162,0,0,0,1.276,1.265,3.777,3.777,0,0,0,1.826.44,3.491,3.491,0,0,0,1.639-.4,3.378,3.378,0,0,0,1.287-1.232l2.112,1.232a4.76,4.76,0,0,1-1.991,2.035A6.21,6.21,0,0,1,290.575,129.154Zm12.5,0a6.761,6.761,0,0,1-3.212-.792,5.78,5.78,0,0,1-2.222-2.123,5.92,5.92,0,0,1-.814-3.113,5.8,5.8,0,0,1,3.047-5.236,6.522,6.522,0,0,1,3.2-.77,6.631,6.631,0,0,1,3.234.77A5.806,5.806,0,0,1,308.527,120a5.9,5.9,0,0,1,.814,3.124,6,6,0,0,1-.8,3.1,5.637,5.637,0,0,1-2.233,2.134A6.894,6.894,0,0,1,303.071,129.154Zm0-2.354a3.652,3.652,0,0,0,1.8-.44,3.113,3.113,0,0,0,1.243-1.276,4.312,4.312,0,0,0,0-3.927,3.129,3.129,0,0,0-1.243-1.265,3.652,3.652,0,0,0-1.8-.44,3.545,3.545,0,0,0-1.771.44,3.224,3.224,0,0,0-1.243,1.265,4.4,4.4,0,0,0,0,3.927,3.283,3.283,0,0,0,1.243,1.287A3.324,3.324,0,0,0,303.071,126.8Zm15.576-9.68a5.6,5.6,0,0,1,2.519.55,4.031,4.031,0,0,1,1.749,1.683,5.9,5.9,0,0,1,.638,2.915V129H320.8v-6.38a3.259,3.259,0,0,0-.737-2.332,2.712,2.712,0,0,0-2.057-.77,3.612,3.612,0,0,0-1.716.4,2.714,2.714,0,0,0-1.155,1.177,4.238,4.238,0,0,0-.407,1.969V129h-2.75V117.252H314.6v3.168l-.462-.968a4.164,4.164,0,0,1,1.793-1.727A5.862,5.862,0,0,1,318.647,117.12Zm12.826,12.034a4.18,4.18,0,0,1-2.992-1,3.888,3.888,0,0,1-1.056-2.959V114.656h2.75v10.472a1.836,1.836,0,0,0,.429,1.3,1.555,1.555,0,0,0,1.2.462,2.416,2.416,0,0,0,1.54-.484l.77,1.958a3.231,3.231,0,0,1-1.188.594A5.337,5.337,0,0,1,331.473,129.154Zm-5.984-9.614v-2.2h7.832v2.2Zm10.89,9.46V117.252H339v3.234l-.308-.946a3.715,3.715,0,0,1,1.661-1.8,5.864,5.864,0,0,1,2.827-.616v2.618a1.934,1.934,0,0,0-.33-.055q-.154-.011-.308-.011a3.382,3.382,0,0,0-2.486.913,3.661,3.661,0,0,0-.924,2.717V129Zm14.3.154a6.761,6.761,0,0,1-3.212-.792,5.78,5.78,0,0,1-2.222-2.123,5.92,5.92,0,0,1-.814-3.113,5.8,5.8,0,0,1,3.047-5.236,6.522,6.522,0,0,1,3.2-.77,6.631,6.631,0,0,1,3.234.77A5.806,5.806,0,0,1,356.135,120a5.9,5.9,0,0,1,.814,3.124,6,6,0,0,1-.8,3.1,5.637,5.637,0,0,1-2.233,2.134A6.894,6.894,0,0,1,350.679,129.154Zm0-2.354a3.652,3.652,0,0,0,1.8-.44,3.113,3.113,0,0,0,1.243-1.276,4.312,4.312,0,0,0,0-3.927,3.129,3.129,0,0,0-1.243-1.265,3.652,3.652,0,0,0-1.8-.44,3.545,3.545,0,0,0-1.771.44,3.224,3.224,0,0,0-1.243,1.265,4.4,4.4,0,0,0,0,3.927,3.283,3.283,0,0,0,1.243,1.287A3.324,3.324,0,0,0,350.679,126.8Zm8.932,2.2-.022-16.324h2.75V129Zm16.83.154a4.18,4.18,0,0,1-2.992-1,3.888,3.888,0,0,1-1.056-2.959V114.656h2.75v10.472a1.836,1.836,0,0,0,.429,1.3,1.555,1.555,0,0,0,1.2.462,2.416,2.416,0,0,0,1.54-.484l.77,1.958a3.231,3.231,0,0,1-1.188.594A5.337,5.337,0,0,1,376.441,129.154Zm-5.984-9.614v-2.2h7.832v2.2Zm17.556-2.42a5.6,5.6,0,0,1,2.519.55,4.031,4.031,0,0,1,1.749,1.683,5.9,5.9,0,0,1,.638,2.915V129h-2.75v-6.38a3.259,3.259,0,0,0-.737-2.332,2.712,2.712,0,0,0-2.057-.77,3.612,3.612,0,0,0-1.716.4,2.714,2.714,0,0,0-1.155,1.177,4.238,4.238,0,0,0-.407,1.969V129h-2.75V112.676h2.75v7.744l-.594-.968a4.164,4.164,0,0,1,1.793-1.727A5.862,5.862,0,0,1,388.013,117.12Zm13.948,12.034a7.159,7.159,0,0,1-3.421-.781,5.658,5.658,0,0,1-2.266-2.145,6,6,0,0,1-.8-3.1,6.114,6.114,0,0,1,.781-3.113,5.6,5.6,0,0,1,2.156-2.123,6.306,6.306,0,0,1,3.135-.77,6.174,6.174,0,0,1,3.058.748,5.415,5.415,0,0,1,2.112,2.112,6.427,6.427,0,0,1,.77,3.212q0,.176-.011.4t-.033.418h-9.79V122.18h8.338l-1.078.572a3.376,3.376,0,0,0-.418-1.782,3.219,3.219,0,0,0-1.2-1.21,3.424,3.424,0,0,0-1.749-.44,3.468,3.468,0,0,0-1.771.44,3.118,3.118,0,0,0-1.188,1.221,3.757,3.757,0,0,0-.429,1.837v.44a3.589,3.589,0,0,0,.484,1.87A3.227,3.227,0,0,0,400,126.382a4.467,4.467,0,0,0,2.024.44,4.884,4.884,0,0,0,1.782-.308,3.793,3.793,0,0,0,1.408-.968l1.474,1.694a5.176,5.176,0,0,1-1.991,1.419A7.127,7.127,0,0,1,401.961,129.154Zm8.184-.154-.022-11.748,2.728.022L412.873,129Zm1.364-13.684a1.734,1.734,0,0,1-1.265-.484,1.634,1.634,0,0,1,0-2.343,1.757,1.757,0,0,1,1.265-.473,1.806,1.806,0,0,1,1.265.451,1.468,1.468,0,0,1,.5,1.133,1.679,1.679,0,0,1-.484,1.221A1.7,1.7,0,0,1,411.509,115.316ZM416.481,129V117.252H419.1v3.234l-.308-.946a3.715,3.715,0,0,1,1.661-1.8,5.864,5.864,0,0,1,2.827-.616v2.618a1.934,1.934,0,0,0-.33-.055q-.154-.011-.308-.011a3.382,3.382,0,0,0-2.486.913,3.661,3.661,0,0,0-.924,2.717V129ZM126.026,156l-4.312-11.748h2.6l3.7,10.362h-1.232l3.872-10.362h2.31l3.762,10.362h-1.21l3.806-10.362h2.442L137.422,156h-2.64l-3.432-9.174h.814l-3.5,9.174Zm22.572.154a6.761,6.761,0,0,1-3.212-.792,5.781,5.781,0,0,1-2.222-2.123,5.92,5.92,0,0,1-.814-3.113,5.8,5.8,0,0,1,3.047-5.236,6.521,6.521,0,0,1,3.2-.77,6.631,6.631,0,0,1,3.234.77A5.807,5.807,0,0,1,154.054,147a5.9,5.9,0,0,1,.814,3.124,6,6,0,0,1-.8,3.1,5.637,5.637,0,0,1-2.233,2.134A6.894,6.894,0,0,1,148.6,156.154Zm0-2.354a3.652,3.652,0,0,0,1.8-.44,3.112,3.112,0,0,0,1.243-1.276,4.312,4.312,0,0,0,0-3.927,3.129,3.129,0,0,0-1.243-1.265,3.652,3.652,0,0,0-1.8-.44,3.545,3.545,0,0,0-1.771.44,3.223,3.223,0,0,0-1.243,1.265,4.4,4.4,0,0,0,0,3.927,3.283,3.283,0,0,0,1.243,1.287A3.324,3.324,0,0,0,148.6,153.8Zm8.91,2.2V144.252h2.618v3.234l-.308-.946a3.716,3.716,0,0,1,1.661-1.8,5.864,5.864,0,0,1,2.827-.616v2.618a1.935,1.935,0,0,0-.33-.055q-.154-.011-.308-.011a3.382,3.382,0,0,0-2.486.913,3.661,3.661,0,0,0-.924,2.717V156Zm11.374-2.618.066-3.454,6.138-5.676h3.3l-5.214,5.236-1.452,1.21ZM166.638,156V139.676h2.75V156Zm8.866,0-4.29-5.3,1.738-2.2,5.9,7.5Zm26.026-11.88a5.464,5.464,0,0,1,2.5.55,3.933,3.933,0,0,1,1.705,1.683,6.073,6.073,0,0,1,.616,2.915V156H203.6v-6.38a3.433,3.433,0,0,0-.682-2.332,2.478,2.478,0,0,0-1.958-.77,3.158,3.158,0,0,0-1.6.4,2.685,2.685,0,0,0-1.078,1.166,4.371,4.371,0,0,0-.385,1.958V156h-2.75v-6.38a3.433,3.433,0,0,0-.682-2.332,2.478,2.478,0,0,0-1.958-.77,3.158,3.158,0,0,0-1.6.4,2.685,2.685,0,0,0-1.078,1.166,4.371,4.371,0,0,0-.385,1.958V156H186.7V144.252h2.618v3.124l-.462-.924a3.994,3.994,0,0,1,1.727-1.738,5.484,5.484,0,0,1,2.585-.594,5.054,5.054,0,0,1,2.871.814,3.919,3.919,0,0,1,1.617,2.464l-1.078-.374a4.533,4.533,0,0,1,1.892-2.112A5.828,5.828,0,0,1,201.53,144.12Zm13.64,12.034a6.761,6.761,0,0,1-3.212-.792,5.781,5.781,0,0,1-2.222-2.123,5.92,5.92,0,0,1-.814-3.113,5.8,5.8,0,0,1,3.047-5.236,6.521,6.521,0,0,1,3.2-.77,6.631,6.631,0,0,1,3.234.77A5.807,5.807,0,0,1,220.626,147a5.9,5.9,0,0,1,.814,3.124,6,6,0,0,1-.8,3.1,5.637,5.637,0,0,1-2.233,2.134A6.894,6.894,0,0,1,215.17,156.154Zm0-2.354a3.652,3.652,0,0,0,1.8-.44,3.112,3.112,0,0,0,1.243-1.276,4.312,4.312,0,0,0,0-3.927,3.129,3.129,0,0,0-1.243-1.265,3.652,3.652,0,0,0-1.8-.44,3.545,3.545,0,0,0-1.771.44,3.223,3.223,0,0,0-1.243,1.265,4.4,4.4,0,0,0,0,3.927,3.283,3.283,0,0,0,1.243,1.287A3.324,3.324,0,0,0,215.17,153.8Zm8.91,2.2V144.252H226.7v3.234l-.308-.946a3.716,3.716,0,0,1,1.661-1.8,5.864,5.864,0,0,1,2.827-.616v2.618a1.935,1.935,0,0,0-.33-.055q-.154-.011-.308-.011a3.382,3.382,0,0,0-2.486.913,3.661,3.661,0,0,0-.924,2.717V156Zm14.542.154a7.159,7.159,0,0,1-3.421-.781,5.659,5.659,0,0,1-2.266-2.145,6,6,0,0,1-.8-3.1,6.114,6.114,0,0,1,.781-3.113,5.6,5.6,0,0,1,2.156-2.123,6.306,6.306,0,0,1,3.135-.77,6.174,6.174,0,0,1,3.058.748,5.415,5.415,0,0,1,2.112,2.112,6.427,6.427,0,0,1,.77,3.212q0,.176-.011.4t-.033.418h-9.79V149.18h8.338l-1.078.572a3.376,3.376,0,0,0-.418-1.782,3.219,3.219,0,0,0-1.2-1.21,3.424,3.424,0,0,0-1.749-.44,3.468,3.468,0,0,0-1.771.44,3.119,3.119,0,0,0-1.188,1.221,3.757,3.757,0,0,0-.429,1.837v.44a3.589,3.589,0,0,0,.484,1.87,3.227,3.227,0,0,0,1.364,1.254,4.467,4.467,0,0,0,2.024.44,4.884,4.884,0,0,0,1.782-.308,3.793,3.793,0,0,0,1.408-.968l1.474,1.694a5.176,5.176,0,0,1-1.991,1.419A7.126,7.126,0,0,1,238.622,156.154Zm19.756,0a7.159,7.159,0,0,1-3.421-.781,5.659,5.659,0,0,1-2.266-2.145,6,6,0,0,1-.8-3.1,6.114,6.114,0,0,1,.781-3.113,5.6,5.6,0,0,1,2.156-2.123,6.306,6.306,0,0,1,3.135-.77,6.174,6.174,0,0,1,3.058.748,5.415,5.415,0,0,1,2.112,2.112,6.427,6.427,0,0,1,.77,3.212q0,.176-.011.4t-.033.418h-9.79V149.18H262.4l-1.078.572a3.376,3.376,0,0,0-.418-1.782,3.219,3.219,0,0,0-1.2-1.21,3.424,3.424,0,0,0-1.749-.44,3.468,3.468,0,0,0-1.771.44A3.119,3.119,0,0,0,255,147.981a3.757,3.757,0,0,0-.429,1.837v.44a3.589,3.589,0,0,0,.484,1.87,3.227,3.227,0,0,0,1.364,1.254,4.467,4.467,0,0,0,2.024.44,4.884,4.884,0,0,0,1.782-.308,3.793,3.793,0,0,0,1.408-.968l1.474,1.694a5.176,5.176,0,0,1-1.991,1.419A7.127,7.127,0,0,1,258.378,156.154Zm8.536-.154V143.592A4.045,4.045,0,0,1,268,140.633a4.163,4.163,0,0,1,3.113-1.111,5.941,5.941,0,0,1,1.375.154,2.914,2.914,0,0,1,1.089.484l-.748,2.068a2.14,2.14,0,0,0-.7-.363,2.77,2.77,0,0,0-.814-.121,1.687,1.687,0,0,0-1.3.473,2.018,2.018,0,0,0-.44,1.419v1.32l.088,1.232V156Zm-1.936-9.46v-2.2h7.832v2.2ZM275.1,156V143.592a4.045,4.045,0,0,1,1.089-2.959,4.163,4.163,0,0,1,3.113-1.111,5.941,5.941,0,0,1,1.375.154,2.914,2.914,0,0,1,1.089.484l-.748,2.068a2.14,2.14,0,0,0-.7-.363,2.77,2.77,0,0,0-.814-.121,1.687,1.687,0,0,0-1.3.473,2.018,2.018,0,0,0-.44,1.419v1.32l.088,1.232V156Zm-1.936-9.46v-2.2h7.832v2.2Zm15.026,9.614a7.159,7.159,0,0,1-3.421-.781,5.659,5.659,0,0,1-2.266-2.145,6,6,0,0,1-.8-3.1,6.114,6.114,0,0,1,.781-3.113,5.605,5.605,0,0,1,2.156-2.123,6.306,6.306,0,0,1,3.135-.77,6.174,6.174,0,0,1,3.058.748,5.415,5.415,0,0,1,2.112,2.112,6.427,6.427,0,0,1,.77,3.212q0,.176-.011.4t-.033.418h-9.79V149.18h8.338l-1.078.572a3.376,3.376,0,0,0-.418-1.782,3.219,3.219,0,0,0-1.2-1.21,3.424,3.424,0,0,0-1.749-.44,3.468,3.468,0,0,0-1.771.44,3.118,3.118,0,0,0-1.188,1.221,3.757,3.757,0,0,0-.429,1.837v.44a3.589,3.589,0,0,0,.484,1.87,3.227,3.227,0,0,0,1.364,1.254,4.467,4.467,0,0,0,2.024.44,4.884,4.884,0,0,0,1.782-.308,3.793,3.793,0,0,0,1.408-.968l1.474,1.694a5.176,5.176,0,0,1-1.991,1.419A7.127,7.127,0,0,1,288.188,156.154Zm13.552,0a6.791,6.791,0,0,1-3.289-.781,5.774,5.774,0,0,1-2.255-2.145,6.339,6.339,0,0,1,0-6.215,5.721,5.721,0,0,1,2.255-2.123,6.87,6.87,0,0,1,3.289-.77,6.37,6.37,0,0,1,3.025.693,4.605,4.605,0,0,1,1.991,2.035l-2.112,1.232a3.378,3.378,0,0,0-1.287-1.232,3.491,3.491,0,0,0-1.639-.4,3.777,3.777,0,0,0-1.826.44,3.162,3.162,0,0,0-1.276,1.265,4.427,4.427,0,0,0,0,3.938,3.162,3.162,0,0,0,1.276,1.265,3.777,3.777,0,0,0,1.826.44,3.491,3.491,0,0,0,1.639-.4,3.378,3.378,0,0,0,1.287-1.232l2.112,1.232a4.76,4.76,0,0,1-1.991,2.035A6.21,6.21,0,0,1,301.74,156.154Zm11.968,0a4.18,4.18,0,0,1-2.992-1,3.888,3.888,0,0,1-1.056-2.959V141.656h2.75v10.472a1.836,1.836,0,0,0,.429,1.3,1.555,1.555,0,0,0,1.2.462,2.416,2.416,0,0,0,1.54-.484l.77,1.958a3.231,3.231,0,0,1-1.188.594A5.337,5.337,0,0,1,313.708,156.154Zm-5.984-9.614v-2.2h7.832v2.2ZM318.636,156l-.022-11.748,2.728.022L321.364,156ZM320,142.316a1.734,1.734,0,0,1-1.265-.484,1.634,1.634,0,0,1,0-2.343,1.757,1.757,0,0,1,1.265-.473,1.806,1.806,0,0,1,1.265.451,1.468,1.468,0,0,1,.5,1.133,1.679,1.679,0,0,1-.484,1.221A1.7,1.7,0,0,1,320,142.316ZM328.1,156l-5.038-11.748h2.86l4.334,10.362h-1.408l4.488-10.362h2.64L330.934,156Zm14.784.154a7.159,7.159,0,0,1-3.421-.781,5.659,5.659,0,0,1-2.266-2.145,6,6,0,0,1-.8-3.1,6.114,6.114,0,0,1,.781-3.113,5.605,5.605,0,0,1,2.156-2.123,6.306,6.306,0,0,1,3.135-.77,6.174,6.174,0,0,1,3.058.748,5.415,5.415,0,0,1,2.112,2.112,6.427,6.427,0,0,1,.77,3.212q0,.176-.011.4t-.033.418h-9.79V149.18h8.338l-1.078.572a3.376,3.376,0,0,0-.418-1.782,3.219,3.219,0,0,0-1.2-1.21,3.424,3.424,0,0,0-1.749-.44,3.468,3.468,0,0,0-1.771.44,3.118,3.118,0,0,0-1.188,1.221,3.757,3.757,0,0,0-.429,1.837v.44a3.589,3.589,0,0,0,.484,1.87,3.227,3.227,0,0,0,1.364,1.254,4.467,4.467,0,0,0,2.024.44,4.884,4.884,0,0,0,1.782-.308,3.793,3.793,0,0,0,1.408-.968l1.474,1.694a5.176,5.176,0,0,1-1.991,1.419A7.127,7.127,0,0,1,342.88,156.154Zm8.184-.154-.022-16.324h2.75V156Zm7.3,4.422a5.4,5.4,0,0,1-1.716-.286,4.07,4.07,0,0,1-1.43-.792l1.1-2.024a3.326,3.326,0,0,0,.946.594,2.779,2.779,0,0,0,1.078.22,1.863,1.863,0,0,0,1.21-.374,3.384,3.384,0,0,0,.858-1.254l.682-1.54.22-.33,4.444-10.384h2.64l-5.5,12.694a7.663,7.663,0,0,1-1.221,2.09,3.71,3.71,0,0,1-1.5,1.078A5.152,5.152,0,0,1,358.368,160.422Zm2.42-4-5.3-12.166h2.86l4.312,10.142Zm9.482-.264a1.785,1.785,0,0,1-1.8-1.826,1.737,1.737,0,0,1,.528-1.331,1.892,1.892,0,0,1,2.552,0,1.914,1.914,0,0,1,0,2.64A1.757,1.757,0,0,1,370.27,156.154Z" transform="translate(1473.053 2214)"/>
    <path id="Path_471" data-name="Path 471" d="M-90.9,0V-20.3h9.222a12.869,12.869,0,0,1,5.829,1.261,9.631,9.631,0,0,1,3.944,3.524,9.7,9.7,0,0,1,1.392,5.365A9.716,9.716,0,0,1-71.905-4.8a9.6,9.6,0,0,1-3.944,3.538A12.869,12.869,0,0,1-81.678,0Zm4.7-3.857h4.292a7.26,7.26,0,0,0,3.523-.754,5.668,5.668,0,0,0,2.32-2.2,6.724,6.724,0,0,0,.855-3.335,6.7,6.7,0,0,0-.855-3.35,5.7,5.7,0,0,0-2.32-2.189,7.26,7.26,0,0,0-3.523-.754l-4.292-.029ZM-59.522.232A10.044,10.044,0,0,1-64.206-.812a7.7,7.7,0,0,1-3.118-2.857,7.8,7.8,0,0,1-1.1-4.133,7.93,7.93,0,0,1,1.088-4.161A7.71,7.71,0,0,1-64.366-14.8,8.747,8.747,0,0,1-60.1-15.834a8.719,8.719,0,0,1,4.132.971,7.274,7.274,0,0,1,2.915,2.784,8.36,8.36,0,0,1,1.073,4.336q0,.261-.029.595t-.058.624H-64.743V-9.164h10.295l-1.74.783a4.336,4.336,0,0,0-.493-2.117A3.6,3.6,0,0,0-58.043-11.9a3.956,3.956,0,0,0-2.03-.507,4.035,4.035,0,0,0-2.044.507A3.545,3.545,0,0,0-63.5-10.484a4.485,4.485,0,0,0-.493,2.161v.7a4.386,4.386,0,0,0,.565,2.247,3.69,3.69,0,0,0,1.6,1.479,5.417,5.417,0,0,0,2.421.508,5.869,5.869,0,0,0,2.19-.377A5.333,5.333,0,0,0-55.492-4.9l2.407,2.61a7.012,7.012,0,0,1-2.7,1.871A9.979,9.979,0,0,1-59.522.232ZM-48.937,0l-.029-21.518h4.495L-44.442,0Zm8.758,0-.058-15.6,4.495.029L-35.713,0Zm2.2-17.777a2.869,2.869,0,0,1-2.03-.725,2.351,2.351,0,0,1-.783-1.8,2.351,2.351,0,0,1,.783-1.8,2.869,2.869,0,0,1,2.03-.725,2.98,2.98,0,0,1,2.03.682,2.219,2.219,0,0,1,.783,1.754,2.485,2.485,0,0,1-.768,1.871A2.824,2.824,0,0,1-37.975-17.777ZM-27.274,0l-6.554-15.6h4.669l5.452,13.427h-2.32L-20.372-15.6h4.35L-22.605,0ZM-6.858.232A10.044,10.044,0,0,1-11.542-.812a7.7,7.7,0,0,1-3.118-2.857,7.8,7.8,0,0,1-1.1-4.133,7.93,7.93,0,0,1,1.087-4.161A7.71,7.71,0,0,1-11.7-14.8a8.747,8.747,0,0,1,4.263-1.029,8.719,8.719,0,0,1,4.132.971A7.274,7.274,0,0,1-.391-12.079,8.361,8.361,0,0,1,.682-7.743q0,.261-.029.595t-.058.624H-12.078V-9.164h10.3l-1.74.783A4.336,4.336,0,0,0-4.016-10.5,3.6,3.6,0,0,0-5.379-11.9a3.956,3.956,0,0,0-2.03-.507,4.035,4.035,0,0,0-2.045.507,3.545,3.545,0,0,0-1.378,1.421,4.485,4.485,0,0,0-.493,2.161v.7a4.386,4.386,0,0,0,.566,2.247A3.69,3.69,0,0,0-9.164-3.9a5.417,5.417,0,0,0,2.421.508A5.868,5.868,0,0,0-4.553-3.77,5.333,5.333,0,0,0-2.827-4.9L-.42-2.291a7.012,7.012,0,0,1-2.7,1.871A9.979,9.979,0,0,1-6.858.232ZM3.7,0V-15.6H8.018v4.408L7.409-12.47a5.013,5.013,0,0,1,2.233-2.509,7.59,7.59,0,0,1,3.741-.855v4.176q-.29-.029-.522-.044t-.493-.014a4.247,4.247,0,0,0-3,1.059A4.279,4.279,0,0,0,8.221-7.366V0ZM24.635,0V-3.045l-.29-.667V-9.164a2.917,2.917,0,0,0-.884-2.262,3.9,3.9,0,0,0-2.712-.812,7.875,7.875,0,0,0-2.45.392,6.483,6.483,0,0,0-2.045,1.059L14.63-13.949A9.783,9.783,0,0,1,17.7-15.341a13.757,13.757,0,0,1,3.654-.493A8.281,8.281,0,0,1,26.9-14.152Q28.869-12.47,28.869-8.9V0ZM19.879.232a7.211,7.211,0,0,1-3.132-.624,4.758,4.758,0,0,1-2-1.7,4.328,4.328,0,0,1-.7-2.407,4.355,4.355,0,0,1,.682-2.436,4.462,4.462,0,0,1,2.161-1.638,10.493,10.493,0,0,1,3.857-.595H24.9v2.639H21.242A3.4,3.4,0,0,0,19.053-6,1.665,1.665,0,0,0,18.458-4.7a1.627,1.627,0,0,0,.681,1.377,3.07,3.07,0,0,0,1.871.507,3.885,3.885,0,0,0,2.03-.536,3.074,3.074,0,0,0,1.305-1.58l.7,2.088a4.039,4.039,0,0,1-1.8,2.291A6.466,6.466,0,0,1,19.879.232Zm22.3,0a6.857,6.857,0,0,1-3.538-.87A5.55,5.55,0,0,1,36.38-3.292,11.264,11.264,0,0,1,35.6-7.8a10.72,10.72,0,0,1,.826-4.524,5.8,5.8,0,0,1,2.306-2.639,6.681,6.681,0,0,1,3.451-.87,7.939,7.939,0,0,1,3.958.986,7.267,7.267,0,0,1,2.784,2.784A8.437,8.437,0,0,1,49.952-7.8a8.376,8.376,0,0,1-1.03,4.234,7.372,7.372,0,0,1-2.784,2.8A7.848,7.848,0,0,1,42.18.232ZM32.958,0V-21.518h4.524v9.077l-.29,4.611.087,4.64V0ZM41.4-3.48A3.89,3.89,0,0,0,43.413-4,3.85,3.85,0,0,0,44.834-5.5,4.7,4.7,0,0,0,45.37-7.8a4.678,4.678,0,0,0-.536-2.32A3.876,3.876,0,0,0,43.413-11.6a3.89,3.89,0,0,0-2.016-.522,3.968,3.968,0,0,0-2.03.522,3.74,3.74,0,0,0-1.421,1.479,4.784,4.784,0,0,0-.522,2.32A4.8,4.8,0,0,0,37.946-5.5,3.717,3.717,0,0,0,39.367-4,3.968,3.968,0,0,0,41.4-3.48ZM53,0l-.029-21.518h4.495L57.492,0ZM69.44.232A10.044,10.044,0,0,1,64.757-.812a7.7,7.7,0,0,1-3.118-2.857,7.8,7.8,0,0,1-1.1-4.133,7.93,7.93,0,0,1,1.087-4.161A7.71,7.71,0,0,1,64.6-14.8a8.747,8.747,0,0,1,4.263-1.029,8.719,8.719,0,0,1,4.132.971,7.274,7.274,0,0,1,2.915,2.784A8.361,8.361,0,0,1,76.98-7.743q0,.261-.029.595t-.058.624H64.22V-9.164H74.515l-1.74.783a4.336,4.336,0,0,0-.493-2.117A3.6,3.6,0,0,0,70.919-11.9a3.956,3.956,0,0,0-2.03-.507,4.035,4.035,0,0,0-2.044.507,3.545,3.545,0,0,0-1.378,1.421,4.485,4.485,0,0,0-.493,2.161v.7A4.386,4.386,0,0,0,65.54-5.38a3.69,3.69,0,0,0,1.6,1.479,5.417,5.417,0,0,0,2.422.508,5.868,5.868,0,0,0,2.189-.377A5.333,5.333,0,0,0,73.471-4.9l2.407,2.61a7.012,7.012,0,0,1-2.7,1.871A9.979,9.979,0,0,1,69.44.232Zm15.8,0A15.219,15.219,0,0,1,81.4-.247a9.514,9.514,0,0,1-2.914-1.2L80-4.7a10.033,10.033,0,0,0,2.538,1.087,10.422,10.422,0,0,0,2.885.42,4.729,4.729,0,0,0,2.218-.377,1.159,1.159,0,0,0,.653-1.044.888.888,0,0,0-.507-.827,4.441,4.441,0,0,0-1.349-.42q-.841-.145-1.841-.29T82.577-6.54a6.837,6.837,0,0,1-1.856-.739,3.793,3.793,0,0,1-1.349-1.334,4.163,4.163,0,0,1-.507-2.175,4.209,4.209,0,0,1,.855-2.61A5.659,5.659,0,0,1,82.2-15.182a10.412,10.412,0,0,1,3.886-.652,15.739,15.739,0,0,1,3.248.348,8.819,8.819,0,0,1,2.755,1.015l-1.508,3.219a7.647,7.647,0,0,0-2.277-.913,10.537,10.537,0,0,0-2.218-.247,4.548,4.548,0,0,0-2.2.406,1.2,1.2,0,0,0-.7,1.044.941.941,0,0,0,.507.87,4.644,4.644,0,0,0,1.349.464q.841.174,1.841.3a16.831,16.831,0,0,1,2.015.391,7.267,7.267,0,0,1,1.842.74,3.87,3.87,0,0,1,1.348,1.3,3.994,3.994,0,0,1,.522,2.161,4.06,4.06,0,0,1-.87,2.567A5.713,5.713,0,0,1,89.233-.406,11.018,11.018,0,0,1,85.245.232Z" transform="translate(1720.342 2191.5)"/>
    <g id="Group_407" data-name="Group 407" transform="translate(154.336 -647.965)">
      <g id="deliverables-2" data-name="deliverables" transform="translate(1517.999 2701)">
        <path id="Path_433" data-name="Path 433" d="M19.892,34.474a2.332,2.332,0,0,1-1.69-.688,2.282,2.282,0,0,1-.711-1.69V27.329a2.263,2.263,0,0,1,.711-1.69,2.3,2.3,0,0,1,1.69-.7,2.322,2.322,0,0,1,1.7.7,2.3,2.3,0,0,1,.7,1.69V32.1a2.316,2.316,0,0,1-.7,1.69A2.359,2.359,0,0,1,19.892,34.474Z" transform="translate(18.514 27.554)" fill="#419817"/>
        <path id="Path_434" data-name="Path 434" d="M26.665,34.474a2.378,2.378,0,0,1-1.7-.688,2.315,2.315,0,0,1-.7-1.69V27.329a2.3,2.3,0,0,1,.7-1.69,2.42,2.42,0,0,1,3.4,0,2.3,2.3,0,0,1,.7,1.69V32.1a2.315,2.315,0,0,1-.7,1.69A2.378,2.378,0,0,1,26.665,34.474Z" transform="translate(26.15 27.554)" fill="#419817"/>
        <path id="Path_435" data-name="Path 435" d="M33.435,34.474a2.359,2.359,0,0,1-1.7-.688,2.316,2.316,0,0,1-.7-1.69V27.329a2.3,2.3,0,0,1,.7-1.69,2.322,2.322,0,0,1,1.7-.7,2.3,2.3,0,0,1,1.69.7,2.263,2.263,0,0,1,.711,1.69V32.1a2.282,2.282,0,0,1-.711,1.69A2.332,2.332,0,0,1,33.435,34.474Z" transform="translate(33.783 27.554)" fill="#419817"/>
        <path id="Path_436" data-name="Path 436" d="M40.942,44.856H26.535a2.384,2.384,0,1,1,0-4.767H40.942a2.121,2.121,0,0,0,1.655-.7,2.338,2.338,0,0,0,.047-3.38,2.342,2.342,0,0,0-1.7-.7H9.74a2.323,2.323,0,0,1-1.7-.7,2.378,2.378,0,0,1,0-3.368,2.322,2.322,0,0,1,1.7-.7h31.2a7.248,7.248,0,0,1,2.762.548,7.1,7.1,0,0,1,2.331,1.55A6.966,6.966,0,0,1,47.6,34.96,7.153,7.153,0,0,1,43.7,44.308,7.248,7.248,0,0,1,40.942,44.856Z" transform="translate(7.067 33.871)" fill="#419817"/>
        <path id="Path_437" data-name="Path 437" d="M50.546,70.882H9.74a2.322,2.322,0,0,1-1.7-.7,2.3,2.3,0,0,1-.7-1.69,2.271,2.271,0,0,1,.7-1.678,2.323,2.323,0,0,1,1.7-.7H50.546c3.065-.862,19.2-17.367,32.81-32.822a2.251,2.251,0,0,0,.792-1.795,2.289,2.289,0,0,0-.7-1.678,2.323,2.323,0,0,0-1.7-.7,2.351,2.351,0,0,0-1.678.664L58.635,51.08a2.46,2.46,0,0,1-1.7.7h-30.4a2.407,2.407,0,0,1-2.4-2.389,2.387,2.387,0,0,1,2.4-2.378h29.43L76.689,26.428a6.9,6.9,0,0,1,5.059-2.051,7.241,7.241,0,0,1,2.762.536,7.481,7.481,0,0,1,2.331,1.55A7.012,7.012,0,0,1,88.4,28.795a7.094,7.094,0,0,1,.548,2.739,6.617,6.617,0,0,1-2.11,5.047C75.605,49.413,55.779,70.882,50.546,70.882Z" transform="translate(7.067 26.919)" fill="#419817"/>
        <path id="Path_438" data-name="Path 438" d="M12.573,74.886H7.77a7.254,7.254,0,0,1-2.762-.548A7.145,7.145,0,0,1,.567,67.729V34.336a7.168,7.168,0,0,1,4.441-6.609A7.25,7.25,0,0,1,7.77,27.18h4.8a7.148,7.148,0,0,1,2.751.548,7.026,7.026,0,0,1,2.343,1.55,7.268,7.268,0,0,1,1.562,2.32,7.135,7.135,0,0,1,.548,2.739V67.729a7.136,7.136,0,0,1-.548,2.739,7.268,7.268,0,0,1-1.562,2.32,7.026,7.026,0,0,1-2.343,1.55A7.152,7.152,0,0,1,12.573,74.886ZM7.77,31.947a2.388,2.388,0,0,0-2.4,2.389V67.729a2.368,2.368,0,0,0,2.4,2.378h4.8a2.388,2.388,0,0,0,2.4-2.378V34.336a2.408,2.408,0,0,0-2.4-2.389Z" transform="translate(-0.567 30.079)" fill="#419817"/>
        <path id="Path_439" data-name="Path 439" d="M58.6,38.98H20.18a7.183,7.183,0,0,1-2.751-.536,7.4,7.4,0,0,1-2.343-1.55,7.158,7.158,0,0,1-1.55-2.331,6.9,6.9,0,0,1-.559-2.739V12.743a2.407,2.407,0,0,1,4.1-1.679,2.289,2.289,0,0,1,.7,1.679v19.08a2.408,2.408,0,0,0,2.4,2.389H58.6A2.408,2.408,0,0,0,61,31.823V12.743a2.29,2.29,0,0,1,.7-1.679,2.406,2.406,0,0,1,3.392,0,2.29,2.29,0,0,1,.7,1.679v19.08a6.885,6.885,0,0,1-.548,2.739,7.012,7.012,0,0,1-1.562,2.331A7.149,7.149,0,0,1,58.6,38.98Z" transform="translate(13.424 11.121)" fill="#419817"/>
        <path id="Path_440" data-name="Path 440" d="M34.01,38.98h-9.6a2.342,2.342,0,0,1-1.7-.7A2.289,2.289,0,0,1,22,36.6V12.743a2.29,2.29,0,0,1,.7-1.679,2.42,2.42,0,0,1,3.4,0,2.289,2.289,0,0,1,.7,1.679V34.212h4.8V12.743a2.29,2.29,0,0,1,.7-1.679,2.42,2.42,0,0,1,3.4,0,2.29,2.29,0,0,1,.7,1.679V36.6a2.289,2.289,0,0,1-.7,1.678A2.342,2.342,0,0,1,34.01,38.98Z" transform="translate(23.603 11.121)" fill="#419817"/>
        <path id="Path_441" data-name="Path 441" d="M30.272,16.985a2.431,2.431,0,0,1-1.235-.338,2.344,2.344,0,0,1-1.1-1.457,2.282,2.282,0,0,1,.256-1.807,2.346,2.346,0,0,0,.315-1.177V9.829A3.586,3.586,0,0,0,26.787,6.3,10.072,10.072,0,0,0,21.309,5.05a2.408,2.408,0,0,0-2.4,2.389v4.767a2.344,2.344,0,0,0,.315,1.177,2.265,2.265,0,0,1,.1,1.7,2.378,2.378,0,0,1-1.084,1.34,2.346,2.346,0,0,1-1.7.268,2.3,2.3,0,0,1-1.445-.932,6.955,6.955,0,0,1-.991-3.555V7.439A7.134,7.134,0,0,1,14.653,4.7a7.265,7.265,0,0,1,1.562-2.319A7.024,7.024,0,0,1,18.558.831,7.193,7.193,0,0,1,21.309.283,14.257,14.257,0,0,1,29.4,2.311a8.367,8.367,0,0,1,2.972,3.24,8.256,8.256,0,0,1,.944,4.278v2.378a6.968,6.968,0,0,1-.979,3.6A2.263,2.263,0,0,1,30.272,16.985Z" transform="translate(14.697 -0.263)" fill="#419817"/>
        <path id="Path_442" data-name="Path 442" d="M43.808,16.983a2.426,2.426,0,0,1-2.331-1.795,2.285,2.285,0,0,1,.268-1.807A2.471,2.471,0,0,0,42.06,12.2V7.438a2.326,2.326,0,0,0-.711-1.69,2.3,2.3,0,0,0-1.69-.7A10.1,10.1,0,0,0,34.2,6.272a3.873,3.873,0,0,0-1.748,3.555V12.2a2.345,2.345,0,0,0,.315,1.177,2.4,2.4,0,0,1-4.138,2.378,7.061,7.061,0,0,1-.979-3.555V9.827a8.307,8.307,0,0,1,.956-4.289,8.261,8.261,0,0,1,2.984-3.252,14.28,14.28,0,0,1,8.066-2A7.193,7.193,0,0,1,42.41.829a7.024,7.024,0,0,1,2.343,1.55A7.235,7.235,0,0,1,46.3,4.7a6.926,6.926,0,0,1,.548,2.739V12.2a6.968,6.968,0,0,1-.979,3.6A2.263,2.263,0,0,1,43.808,16.983Z" transform="translate(29.962 -0.266)" fill="#419817"/>
        <path id="Path_443" data-name="Path 443" d="M37.031,15.711a2.421,2.421,0,0,1-1.224-.338,2.382,2.382,0,0,1-.839-3.264,2.346,2.346,0,0,0,.315-1.177V8.555a2.3,2.3,0,0,0-.7-1.69,2.341,2.341,0,0,0-1.7-.7h-4.8a2.341,2.341,0,0,0-1.7.7,2.3,2.3,0,0,0-.7,1.69v2.378a2.346,2.346,0,0,0,.315,1.177,2.263,2.263,0,0,1,.093,1.7,2.378,2.378,0,0,1-2.774,1.608,2.3,2.3,0,0,1-1.445-.932,6.955,6.955,0,0,1-.991-3.555V8.555A7.115,7.115,0,0,1,22.987,3.5a7.024,7.024,0,0,1,2.343-1.55A6.941,6.941,0,0,1,28.08,1.4h4.8a6.941,6.941,0,0,1,2.751.548A7.026,7.026,0,0,1,37.976,3.5a7.118,7.118,0,0,1,2.11,5.058v2.378a6.979,6.979,0,0,1-.991,3.6A2.263,2.263,0,0,1,37.031,15.711Z" transform="translate(22.331 1.012)" fill="#419817"/>
        <path id="Path_444" data-name="Path 444" d="M65.925,20.192H17.916a7.024,7.024,0,0,1-2.751-.548,6.866,6.866,0,0,1-2.331-1.55,6.963,6.963,0,0,1-1.562-2.319,7.121,7.121,0,0,1,0-5.478,7.2,7.2,0,0,1,3.893-3.87,7.238,7.238,0,0,1,2.751-.548H65.925a7.251,7.251,0,0,1,2.762.548,7.156,7.156,0,0,1,2.331,1.55A7.083,7.083,0,0,1,72.58,10.3a7.118,7.118,0,0,1-1.562,7.8,7.225,7.225,0,0,1-5.093,2.1ZM17.916,10.658a2.315,2.315,0,0,0-1.69.7,2.281,2.281,0,0,0-.711,1.678,2.408,2.408,0,0,0,2.4,2.389H65.925a2.322,2.322,0,0,0,1.7-.7,2.3,2.3,0,0,0,.7-1.69,2.271,2.271,0,0,0-.7-1.678,2.323,2.323,0,0,0-1.7-.7Z" transform="translate(10.885 6.063)" fill="#419817"/>
        <path id="Path_445" data-name="Path 445" d="M41.357,20.192H22.149a2.3,2.3,0,0,1-1.69-.7,2.264,2.264,0,0,1-.711-1.69V8.268a2.263,2.263,0,0,1,.711-1.69,2.3,2.3,0,0,1,1.69-.7H41.357a2.3,2.3,0,0,1,1.69.7,2.263,2.263,0,0,1,.711,1.69V17.8a2.264,2.264,0,0,1-.711,1.69A2.3,2.3,0,0,1,41.357,20.192ZM24.55,15.425H38.956V10.658H24.55Z" transform="translate(21.058 6.063)" fill="#419817"/>
      </g>
    </g>
  </g>
</svg>
