<svg width="232" height="298" viewBox="0 0 232 298" fill="none" xmlns="http://www.w3.org/2000/svg">
<path d="M12.6416 117.129V237.044L116.252 297.001L219.862 237.044V117.129L116.252 57.1719L12.6416 117.129Z" fill="#147F00"/>
<path d="M0.414062 67.0574V201.172L116.121 268.23L231.828 201.172V67.0574L116.121 0L0.414062 67.0574Z" fill="white"/>
<path d="M112.034 59.4209C111.722 59.4209 111.459 59.3113 111.239 59.0977C111.015 58.8785 110.905 58.6101 110.905 58.3033V56.0626C110.905 55.7503 111.015 55.4873 111.239 55.2682C111.459 55.049 111.722 54.9395 112.034 54.9395C112.346 54.9395 112.615 55.049 112.834 55.2682C113.053 55.4873 113.162 55.7503 113.162 56.0626V58.3033C113.162 58.6101 113.053 58.8785 112.834 59.0977C112.615 59.3113 112.346 59.4209 112.034 59.4209Z" fill="#147F00"/>
<path d="M118.806 59.4209C118.494 59.4209 118.231 59.3113 118.006 59.0977C117.787 58.8785 117.678 58.6101 117.678 58.3033V56.0626C117.678 55.7503 117.787 55.4873 118.006 55.2682C118.231 55.049 118.494 54.9395 118.806 54.9395C119.119 54.9395 119.382 55.049 119.606 55.2682C119.825 55.4873 119.935 55.7503 119.935 56.0626V58.3033C119.935 58.6101 119.825 58.8785 119.606 59.0977C119.382 59.3113 119.119 59.4209 118.806 59.4209Z" fill="#147F00"/>
<path d="M125.577 59.4209C125.265 59.4209 124.996 59.3113 124.777 59.0977C124.558 58.8785 124.448 58.6101 124.448 58.3033V56.0626C124.448 55.7503 124.558 55.4873 124.777 55.2682C124.996 55.049 125.265 54.9395 125.577 54.9395C125.889 54.9395 126.152 55.049 126.371 55.2682C126.596 55.4873 126.705 55.7503 126.705 56.0626V58.3033C126.705 58.6101 126.596 58.8785 126.371 59.0977C126.152 59.3113 125.889 59.4209 125.577 59.4209Z" fill="#147F00"/>
<path d="M116.548 67.2706H109.776C109.464 67.2706 109.201 67.1611 108.982 66.9419C108.763 66.7228 108.648 66.4598 108.648 66.1475C108.648 65.8407 108.763 65.5723 108.982 65.3586C109.201 65.1395 109.464 65.0299 109.776 65.0299H116.548C116.854 65.0354 117.117 64.9258 117.326 64.7012C117.556 64.4875 117.671 64.2191 117.676 63.9068C117.676 63.5945 117.567 63.3316 117.347 63.1124C117.123 62.8933 116.86 62.7837 116.548 62.7837H101.882C101.569 62.7837 101.301 62.6741 101.082 62.455C100.863 62.2358 100.753 61.9729 100.753 61.6661C100.753 61.3538 100.863 61.0908 101.082 60.8717C101.301 60.6525 101.569 60.543 101.882 60.543H116.548C116.997 60.543 117.43 60.6306 117.846 60.8005C118.257 60.9703 118.624 61.2114 118.942 61.5291C119.259 61.8414 119.506 62.2084 119.676 62.6193C119.846 63.0302 119.933 63.463 119.933 63.9068C119.933 64.3506 119.846 64.7834 119.676 65.1943C119.506 65.6051 119.259 65.9667 118.942 66.2845C118.624 66.6022 118.257 66.8433 117.846 67.0131C117.43 67.183 116.997 67.2706 116.548 67.2706Z" fill="#147F00"/>
<path d="M121.062 76.2364H101.882C101.569 76.2364 101.301 76.1269 101.082 75.9077C100.863 75.6886 100.753 75.4256 100.753 75.1133C100.753 74.8065 100.863 74.5381 101.082 74.3244C101.301 74.1053 101.569 73.9957 101.882 73.9957H121.062C122.503 73.5903 130.085 65.8327 136.484 58.5681C136.736 58.3435 136.862 58.0641 136.857 57.7244C136.857 57.4176 136.747 57.1546 136.528 56.9355C136.309 56.7164 136.04 56.6068 135.728 56.6068C135.421 56.6068 135.158 56.7109 134.939 56.9191L124.864 66.9284C124.639 67.142 124.371 67.2516 124.064 67.2571H109.776C109.464 67.2571 109.201 67.1475 108.982 66.9284C108.763 66.7092 108.648 66.4463 108.648 66.134C108.648 65.8272 108.763 65.5587 108.982 65.3396C109.201 65.1259 109.464 65.0164 109.776 65.0164H123.609L133.35 55.3412C134.008 54.6948 134.802 54.3715 135.728 54.377C136.177 54.377 136.61 54.4592 137.026 54.629C137.437 54.8043 137.804 55.0454 138.122 55.3577C138.44 55.6754 138.686 56.037 138.856 56.4534C139.026 56.8643 139.114 57.2916 139.114 57.7409C139.125 58.6722 138.796 59.4666 138.122 60.1131C132.841 66.1449 123.522 76.2364 121.062 76.2364Z" fill="#147F00"/>
<path d="M99.6244 79.6034H97.3672C96.9179 79.6034 96.4851 79.5157 96.0688 79.3459C95.6579 79.1761 95.2908 78.935 94.9731 78.6173C94.6553 78.2995 94.4088 77.9379 94.2389 77.527C94.0691 77.1161 93.9814 76.6833 93.9814 76.2396V60.5435C93.9814 60.0998 94.0691 59.6669 94.2389 59.2561C94.4088 58.8452 94.6553 58.4836 94.9731 58.1658C95.2908 57.8481 95.6579 57.607 96.0688 57.4372C96.4851 57.2673 96.9179 57.1797 97.3672 57.1797H99.6244C100.074 57.1797 100.506 57.2673 100.917 57.4372C101.334 57.607 101.701 57.8481 102.018 58.1658C102.336 58.4836 102.577 58.8452 102.753 59.2561C102.922 59.6669 103.01 60.0998 103.01 60.5435V76.2396C103.01 76.6833 102.922 77.1161 102.753 77.527C102.577 77.9379 102.336 78.2995 102.018 78.6173C101.701 78.935 101.334 79.1761 100.917 79.3459C100.506 79.5157 100.074 79.6034 99.6244 79.6034ZM97.3672 59.4204C97.0549 59.4204 96.7865 59.53 96.5673 59.7491C96.3482 59.9683 96.2386 60.2367 96.2386 60.5435V76.2396C96.2386 76.5464 96.3482 76.8148 96.5673 77.034C96.7865 77.2531 97.0549 77.3572 97.3672 77.3572H99.6244C99.9366 77.3572 100.2 77.2531 100.419 77.034C100.643 76.8148 100.753 76.5464 100.753 76.2396V60.5435C100.753 60.2367 100.643 59.9683 100.419 59.7491C100.2 59.53 99.9366 59.4204 99.6244 59.4204H97.3672Z" fill="#147F00"/>
<path d="M127.834 53.8151H109.776C109.327 53.8151 108.9 53.7329 108.483 53.5631C108.067 53.3877 107.7 53.1467 107.382 52.8344C107.07 52.5167 106.823 52.1551 106.654 51.7387C106.478 51.3278 106.391 50.9005 106.391 50.4512V41.4829C106.391 41.1761 106.506 40.9131 106.725 40.6939C106.944 40.4748 107.212 40.3652 107.519 40.3652C107.831 40.3652 108.1 40.4748 108.319 40.6939C108.538 40.9131 108.648 41.1761 108.648 41.4829V50.4512C108.648 50.7635 108.763 51.0265 108.982 51.2456C109.201 51.4648 109.464 51.5743 109.776 51.5743H127.834C128.14 51.5743 128.409 51.4648 128.628 51.2456C128.847 51.0265 128.962 50.7635 128.962 50.4512V41.4829C128.962 41.1761 129.072 40.9131 129.291 40.6939C129.51 40.4748 129.779 40.3652 130.085 40.3652C130.398 40.3652 130.666 40.4748 130.885 40.6939C131.104 40.9131 131.214 41.1761 131.214 41.4829V50.4512C131.214 50.9005 131.132 51.3278 130.956 51.7387C130.787 52.1551 130.54 52.5167 130.222 52.8344C129.91 53.1467 129.543 53.3877 129.127 53.5631C128.71 53.7329 128.283 53.8151 127.834 53.8151Z" fill="#147F00"/>
<path d="M121.062 53.8151H116.548C116.235 53.8151 115.972 53.7055 115.748 53.4864C115.529 53.2672 115.419 53.0043 115.419 52.6975V41.4829C115.419 41.1761 115.529 40.9131 115.748 40.6939C115.972 40.4748 116.235 40.3652 116.548 40.3652C116.86 40.3652 117.123 40.4748 117.347 40.6939C117.567 40.9131 117.676 41.1761 117.676 41.4829V51.5743H119.933V41.4829C119.933 41.1761 120.043 40.9131 120.262 40.6939C120.481 40.4748 120.75 40.3652 121.062 40.3652C121.374 40.3652 121.637 40.4748 121.862 40.6939C122.081 40.9131 122.19 41.1761 122.19 41.4829V52.6975C122.19 53.0043 122.081 53.2672 121.862 53.4864C121.637 53.7055 121.374 53.8151 121.062 53.8151Z" fill="#147F00"/>
<path d="M115.118 38.1255C114.91 38.1255 114.718 38.0708 114.538 37.9667C114.275 37.8078 114.099 37.5777 114.023 37.2818C113.946 36.9805 113.984 36.6956 114.143 36.4327C114.242 36.2574 114.291 36.0766 114.291 35.8793V34.7617C114.351 34.0495 114.083 33.4962 113.48 33.1017C112.68 32.6634 111.82 32.4662 110.905 32.5155C110.593 32.5155 110.33 32.6251 110.111 32.8442C109.886 33.0634 109.777 33.3318 109.777 33.6386V35.8793C109.777 36.0766 109.826 36.2574 109.925 36.4327C110.045 36.6902 110.062 36.9586 109.974 37.2325C109.881 37.5065 109.716 37.7147 109.464 37.8626C109.212 38.005 108.949 38.0488 108.665 37.9886C108.38 37.9283 108.155 37.7859 107.985 37.5503C107.678 37.0353 107.525 36.4765 107.52 35.8793V33.6386C107.52 33.1949 107.607 32.762 107.777 32.3512C107.952 31.9403 108.193 31.5787 108.511 31.2609C108.829 30.9432 109.196 30.7021 109.612 30.5323C110.029 30.3624 110.456 30.2748 110.905 30.2748C112.269 30.2145 113.54 30.5323 114.707 31.2281C115.31 31.6116 115.776 32.1211 116.104 32.7511C116.433 33.3811 116.581 34.0495 116.548 34.7617V35.8793C116.548 36.4875 116.395 37.0517 116.088 37.5722C115.869 37.9393 115.546 38.1255 115.118 38.1255Z" fill="#147F00"/>
<path d="M128.656 38.1237C128.448 38.1237 128.256 38.0689 128.081 37.9648C127.813 37.8059 127.643 37.5758 127.561 37.28C127.484 36.9787 127.528 36.6938 127.687 36.4308C127.785 36.2555 127.829 36.0747 127.834 35.8775V33.6368C127.834 33.33 127.719 33.0615 127.5 32.8424C127.281 32.6232 127.018 32.5137 126.706 32.5137C125.796 32.4644 124.942 32.6561 124.142 33.0889C123.862 33.2697 123.649 33.5108 123.501 33.8121C123.353 34.1079 123.293 34.4257 123.32 34.7599V35.8775C123.32 36.0747 123.369 36.2555 123.468 36.4308C123.583 36.6883 123.6 36.9568 123.512 37.2307C123.424 37.5046 123.254 37.7128 123.002 37.8607C122.756 38.0032 122.487 38.047 122.202 37.9867C121.923 37.9265 121.693 37.784 121.523 37.5484C121.222 37.0335 121.068 36.4747 121.063 35.8775V34.7599C121.03 34.0477 121.183 33.3738 121.512 32.7438C121.841 32.1082 122.307 31.5987 122.915 31.2152C124.082 30.5249 125.347 30.2127 126.706 30.2729C127.155 30.2729 127.582 30.3606 127.999 30.5304C128.415 30.7003 128.782 30.9413 129.1 31.2591C129.412 31.5768 129.659 31.9384 129.829 32.3493C130.004 32.7602 130.086 33.193 130.086 33.6368V35.8775C130.086 36.4856 129.933 37.0499 129.626 37.5704C129.407 37.9374 129.084 38.1237 128.656 38.1237Z" fill="#147F00"/>
<path d="M121.884 38.1261C121.682 38.1261 121.49 38.0713 121.309 37.9672C121.041 37.8083 120.871 37.5782 120.794 37.2824C120.717 36.9811 120.756 36.6962 120.915 36.4332C121.013 36.2579 121.063 36.0771 121.063 35.8799V34.7623C121.063 34.45 120.953 34.187 120.734 33.9679C120.509 33.7487 120.246 33.6392 119.934 33.6392H117.677C117.364 33.6392 117.102 33.7487 116.877 33.9679C116.658 34.187 116.548 34.45 116.548 34.7623V35.8799C116.548 36.0771 116.597 36.2579 116.696 36.4332C116.817 36.6907 116.828 36.9592 116.74 37.2331C116.652 37.507 116.482 37.7152 116.236 37.8631C115.984 38.0056 115.715 38.0494 115.436 37.9891C115.151 37.9289 114.927 37.7864 114.757 37.5508C114.45 37.0359 114.296 36.4771 114.291 35.8799V34.7623C114.291 34.313 114.379 33.8857 114.549 33.4748C114.724 33.0639 114.965 32.6969 115.283 32.3846C115.6 32.0668 115.967 31.8258 116.384 31.6559C116.795 31.4806 117.228 31.3984 117.677 31.3984H119.934C120.383 31.3984 120.816 31.4806 121.227 31.6559C121.643 31.8258 122.01 32.0668 122.328 32.3846C122.646 32.6969 122.887 33.0639 123.062 33.4748C123.232 33.8857 123.32 34.313 123.32 34.7623V35.8799C123.32 36.488 123.161 37.0523 122.854 37.5728C122.635 37.9398 122.312 38.1261 121.884 38.1261Z" fill="#147F00"/>
<path d="M130.085 42.6066H107.519C107.075 42.6066 106.642 42.5244 106.226 42.3491C105.81 42.1792 105.443 41.9382 105.13 41.6204C104.813 41.3081 104.566 40.9411 104.396 40.5302C104.221 40.1193 104.139 39.692 104.139 39.2427C104.139 38.799 104.221 38.3662 104.396 37.9553C104.566 37.5444 104.813 37.1828 105.13 36.865C105.443 36.5528 105.81 36.3062 106.226 36.1364C106.642 35.9666 107.075 35.8789 107.519 35.8789H130.085C130.534 35.8789 130.967 35.9666 131.384 36.1364C131.8 36.3062 132.161 36.5528 132.479 36.865C132.797 37.1828 133.044 37.5444 133.213 37.9553C133.389 38.3662 133.471 38.799 133.471 39.2427C133.471 39.692 133.389 40.1193 133.213 40.5302C133.044 40.9411 132.797 41.3081 132.479 41.6204C132.161 41.9382 131.8 42.1792 131.384 42.3491C130.967 42.5244 130.534 42.6066 130.085 42.6066ZM107.519 38.1251C107.212 38.1251 106.944 38.2347 106.725 38.4538C106.505 38.6675 106.39 38.9359 106.39 39.2427C106.39 39.555 106.505 39.818 106.725 40.0371C106.944 40.2563 107.212 40.3658 107.519 40.3658H130.085C130.397 40.3658 130.666 40.2563 130.885 40.0371C131.104 39.818 131.214 39.555 131.214 39.2427C131.214 38.9359 131.104 38.6675 130.885 38.4538C130.666 38.2347 130.397 38.1251 130.085 38.1251H107.519Z" fill="#147F00"/>
<path d="M123.319 42.6066H114.291C113.978 42.6066 113.715 42.497 113.496 42.2779C113.272 42.0587 113.162 41.7957 113.162 41.4835V37.002C113.162 36.6897 113.272 36.4268 113.496 36.2076C113.715 35.9885 113.978 35.8789 114.291 35.8789H123.319C123.632 35.8789 123.895 35.9885 124.114 36.2076C124.338 36.4268 124.448 36.6897 124.448 37.002V41.4835C124.448 41.7957 124.338 42.0587 124.114 42.2779C123.895 42.497 123.632 42.6066 123.319 42.6066ZM115.419 40.3658H122.191V38.1251H115.419V40.3658Z" fill="#147F00"/>
<path d="M26.9165 169.888H26.04L24.5279 164.848C24.4512 164.618 24.3635 164.333 24.2649 163.993C24.1773 163.659 24.1334 163.456 24.1334 163.38C24.0567 163.834 23.9417 164.333 23.7828 164.87L22.2926 169.888H21.438L19.4219 162.35H20.3642L21.5476 166.995C21.7064 167.653 21.8324 168.245 21.9201 168.77C22.0078 168.146 22.1392 167.532 22.3145 166.93L23.6732 162.35H24.5936L26.018 166.974C26.1769 167.516 26.3139 168.113 26.4344 168.77C26.5056 168.288 26.6316 167.697 26.807 166.995L27.9903 162.35H28.9326L26.9165 169.888Z" fill="#323131"/>
<path d="M30.8208 169.89H29.9661V164.237H30.8208V169.89ZM29.9004 162.703C29.9004 162.516 29.9442 162.374 30.0319 162.286C30.1305 162.188 30.2565 162.133 30.4044 162.133C30.5469 162.133 30.6674 162.188 30.755 162.286C30.8537 162.374 30.9084 162.516 30.9084 162.703C30.9084 162.894 30.8537 163.042 30.755 163.141C30.6674 163.229 30.5469 163.272 30.4044 163.272C30.2565 163.272 30.1305 163.229 30.0319 163.141C29.9442 163.042 29.9004 162.894 29.9004 162.703Z" fill="#323131"/>
<path d="M34.4804 169.277C34.6228 169.277 34.7653 169.272 34.8968 169.255C35.0392 169.228 35.1597 169.206 35.2474 169.189V169.847C35.1597 169.891 35.0173 169.923 34.831 169.956C34.6557 169.984 34.4914 170 34.3489 170C33.2532 170 32.7054 169.425 32.7054 168.269V164.894H31.8945V164.5L32.7054 164.127L33.0779 162.922H33.56V164.237H35.2036V164.894H33.56V168.225C33.56 168.576 33.6367 168.839 33.8011 169.014C33.9599 169.189 34.1846 169.277 34.4804 169.277Z" fill="#323131"/>
<path d="M40.246 169.888V166.228C40.246 165.779 40.1364 165.439 39.9173 165.22C39.7091 164.99 39.3913 164.869 38.9531 164.869C38.3504 164.869 37.9121 165.034 37.6382 165.352C37.3588 165.675 37.2218 166.201 37.2218 166.929V169.888H36.3672V161.867H37.2218V164.3C37.2218 164.596 37.2109 164.837 37.1999 165.023H37.2438C37.4026 164.749 37.6382 164.535 37.945 164.387C38.2628 164.228 38.6243 164.146 39.0188 164.146C39.7201 164.146 40.235 164.316 40.5747 164.65C40.9253 164.974 41.1007 165.494 41.1007 166.206V169.888H40.246Z" fill="#323131"/>
<path d="M49.0765 169.886L48.9012 169.075H48.8574C48.578 169.442 48.2986 169.689 48.0246 169.82C47.7452 169.935 47.3946 169.996 46.9727 169.996C46.4139 169.996 45.9756 169.853 45.6579 169.557C45.3347 169.267 45.1758 168.856 45.1758 168.33C45.1758 167.191 46.0852 166.593 47.9151 166.533L48.8793 166.489V166.139C48.8793 165.7 48.7807 165.383 48.5944 165.174C48.4026 164.955 48.0958 164.846 47.674 164.846C47.2028 164.846 46.6714 164.994 46.0743 165.284L45.8113 164.627C46.0852 164.484 46.392 164.364 46.7317 164.276C47.0659 164.188 47.3946 164.145 47.7178 164.145C48.4026 164.145 48.9067 164.298 49.2299 164.605C49.5477 164.901 49.712 165.372 49.712 166.029V169.886H49.0765ZM47.1481 169.272C47.674 169.272 48.0904 169.13 48.3972 168.834C48.704 168.544 48.8574 168.133 48.8574 167.607V167.103L48.0027 167.147C47.3124 167.163 46.8193 167.267 46.5125 167.454C46.2167 167.645 46.0743 167.936 46.0743 168.33C46.0743 168.637 46.1674 168.873 46.3591 169.031C46.5454 169.196 46.8084 169.272 47.1481 169.272Z" fill="#323131"/>
<path d="M55.0646 169.888H54.21V161.867H55.0646V169.888Z" fill="#323131"/>
<path d="M61.7689 167.063C61.7689 167.984 61.5333 168.707 61.0676 169.233C60.6129 169.748 59.9774 170 59.1611 170C58.6461 170 58.1968 169.885 57.8024 169.649C57.4079 169.403 57.1011 169.058 56.882 168.619C56.6738 168.181 56.5752 167.666 56.5752 167.063C56.5752 166.143 56.7998 165.431 57.2545 164.916C57.7202 164.39 58.3612 164.127 59.183 164.127C59.9719 164.127 60.5965 164.39 61.0676 164.916C61.5333 165.442 61.7689 166.159 61.7689 167.063ZM57.4737 167.063C57.4737 167.781 57.6106 168.329 57.89 168.707C58.1804 169.091 58.6023 169.277 59.1611 169.277C59.7308 169.277 60.1582 169.091 60.454 168.707C60.7444 168.329 60.8923 167.781 60.8923 167.063C60.8923 166.351 60.7444 165.809 60.454 165.442C60.1582 165.064 59.7308 164.872 59.1611 164.872C58.6023 164.872 58.1804 165.058 57.89 165.42C57.6106 165.787 57.4737 166.335 57.4737 167.063Z" fill="#323131"/>
<path d="M62.3633 164.232H63.2837L64.5328 167.454C64.7958 168.199 64.9601 168.736 65.0368 169.054H65.0806C65.1245 168.878 65.2121 168.582 65.3436 168.155C65.4861 167.733 65.9627 166.424 66.768 164.232H67.6665L65.256 170.675C65.0039 171.3 64.7191 171.749 64.4013 172.012C64.0781 172.286 63.6836 172.428 63.2179 172.428C62.955 172.428 62.6975 172.395 62.4509 172.341V171.639C62.6372 171.683 62.8509 171.705 63.0864 171.705C63.6672 171.705 64.0835 171.376 64.3356 170.719L64.6424 169.908L62.3633 164.232Z" fill="#323131"/>
<path d="M72.0677 169.886L71.8924 169.075H71.8486C71.5692 169.442 71.2898 169.689 71.0158 169.82C70.7364 169.935 70.3858 169.996 69.964 169.996C69.4051 169.996 68.9669 169.853 68.6491 169.557C68.3259 169.267 68.167 168.856 68.167 168.33C68.167 167.191 69.0764 166.593 70.9063 166.533L71.8705 166.489V166.139C71.8705 165.7 71.7719 165.383 71.5856 165.174C71.3939 164.955 71.0871 164.846 70.6652 164.846C70.1941 164.846 69.6626 164.994 69.0655 165.284L68.8025 164.627C69.0764 164.484 69.3832 164.364 69.7229 164.276C70.0571 164.188 70.3858 164.145 70.709 164.145C71.3939 164.145 71.8979 164.298 72.2211 164.605C72.5389 164.901 72.7032 165.372 72.7032 166.029V169.886H72.0677ZM70.1393 169.272C70.6652 169.272 71.0816 169.13 71.3884 168.834C71.6952 168.544 71.8486 168.133 71.8486 167.607V167.103L70.9939 167.147C70.3036 167.163 69.8106 167.267 69.5038 167.454C69.2079 167.645 69.0655 167.936 69.0655 168.33C69.0655 168.637 69.1586 168.873 69.3504 169.031C69.5366 169.196 69.7996 169.272 70.1393 169.272Z" fill="#323131"/>
<path d="M75.3127 169.888H74.458V161.867H75.3127V169.888Z" fill="#323131"/>
<path d="M78.9706 169.277C79.1131 169.277 79.2555 169.272 79.387 169.255C79.5295 169.228 79.65 169.206 79.7376 169.189V169.847C79.65 169.891 79.5075 169.923 79.3213 169.956C79.146 169.984 78.9816 170 78.8392 170C77.7434 170 77.1956 169.425 77.1956 168.269V164.894H76.3848V164.5L77.1956 164.127L77.5681 162.922H78.0502V164.237H79.6938V164.894H78.0502V168.225C78.0502 168.576 78.1269 168.839 78.2913 169.014C78.4502 169.189 78.6748 169.277 78.9706 169.277Z" fill="#323131"/>
<path d="M79.959 164.232H80.8794L82.1285 167.454C82.3915 168.199 82.5558 168.736 82.6325 169.054H82.6763C82.7202 168.878 82.8078 168.582 82.9393 168.155C83.0818 167.733 83.5584 166.424 84.3637 164.232H85.2622L82.8517 170.675C82.5996 171.3 82.3148 171.749 81.997 172.012C81.6738 172.286 81.2793 172.428 80.8136 172.428C80.5507 172.428 80.2932 172.395 80.0466 172.341V171.639C80.2329 171.683 80.4466 171.705 80.6822 171.705C81.2629 171.705 81.6792 171.376 81.9313 170.719L82.2381 169.908L79.959 164.232Z" fill="#323131"/>
<path d="M91.5535 170C91.1865 170 90.8523 169.934 90.5455 169.803C90.2496 169.66 89.9976 169.447 89.7785 169.167H89.7347C89.762 169.49 89.7785 169.803 89.7785 170.11V172.432H88.9238V164.237H89.6251L89.7566 165.004H89.7785C90.0086 164.697 90.2716 164.478 90.5674 164.346C90.8578 164.204 91.1865 164.127 91.5535 164.127C92.3096 164.127 92.8958 164.384 93.3067 164.894C93.7121 165.409 93.9203 166.132 93.9203 167.063C93.9203 167.984 93.7066 168.707 93.2848 169.233C92.8739 169.748 92.2986 170 91.5535 170ZM91.444 164.872C90.8578 164.872 90.4359 165.036 90.1729 165.354C89.9209 165.661 89.7894 166.165 89.7785 166.866V167.063C89.7785 167.852 89.91 168.422 90.1729 168.773C90.4469 169.112 90.8797 169.277 91.4659 169.277C91.948 169.277 92.326 169.08 92.6054 168.685C92.8793 168.291 93.0218 167.743 93.0218 167.042C93.0218 166.34 92.8793 165.809 92.6054 165.442C92.326 165.064 91.937 164.872 91.444 164.872Z" fill="#323131"/>
<path d="M97.9814 164.127C98.2279 164.127 98.4525 164.149 98.6607 164.193L98.5512 164.982C98.3156 164.938 98.1019 164.916 97.9156 164.916C97.4609 164.916 97.0665 165.108 96.7323 165.486C96.409 165.853 96.2502 166.313 96.2502 166.866V169.89H95.3955V164.237H96.1187L96.2063 165.288H96.2502C96.4529 164.927 96.6994 164.642 96.9952 164.434C97.302 164.231 97.6308 164.127 97.9814 164.127Z" fill="#323131"/>
<path d="M104.594 167.063C104.594 167.984 104.358 168.707 103.893 169.233C103.438 169.748 102.803 170 101.986 170C101.471 170 101.022 169.885 100.628 169.649C100.233 169.403 99.9263 169.058 99.7072 168.619C99.499 168.181 99.4004 167.666 99.4004 167.063C99.4004 166.143 99.625 165.431 100.08 164.916C100.545 164.39 101.186 164.127 102.008 164.127C102.797 164.127 103.422 164.39 103.893 164.916C104.358 165.442 104.594 166.159 104.594 167.063ZM100.299 167.063C100.299 167.781 100.436 168.329 100.715 168.707C101.006 169.091 101.427 169.277 101.986 169.277C102.556 169.277 102.983 169.091 103.279 168.707C103.57 168.329 103.717 167.781 103.717 167.063C103.717 166.351 103.57 165.809 103.279 165.442C102.983 165.064 102.556 164.872 101.986 164.872C101.427 164.872 101.006 165.058 100.715 165.42C100.436 165.787 100.299 166.335 100.299 167.063Z" fill="#323131"/>
<path d="M110.732 164.237V164.784L109.68 164.894C109.768 165.025 109.844 165.19 109.921 165.376C110.009 165.568 110.052 165.787 110.052 166.033C110.052 166.592 109.861 167.036 109.483 167.37C109.099 167.693 108.584 167.852 107.927 167.852C107.751 167.852 107.587 167.841 107.445 167.809C107.078 168 106.897 168.241 106.897 168.532C106.897 168.696 106.963 168.811 107.094 168.882C107.226 168.959 107.445 168.992 107.751 168.992H108.738C109.351 168.992 109.817 169.123 110.14 169.386C110.474 169.638 110.644 170.005 110.644 170.504C110.644 171.129 110.392 171.605 109.899 171.928C109.401 172.263 108.672 172.432 107.708 172.432C106.963 172.432 106.382 172.29 105.976 172.016C105.582 171.737 105.385 171.348 105.385 170.855C105.385 170.504 105.494 170.203 105.713 169.956C105.933 169.71 106.245 169.54 106.656 169.452C106.508 169.381 106.382 169.277 106.283 169.145C106.179 169.003 106.13 168.839 106.13 168.663C106.13 168.46 106.179 168.285 106.283 168.137C106.398 167.978 106.579 167.825 106.831 167.677C106.535 167.562 106.294 167.359 106.108 167.063C105.916 166.773 105.823 166.444 105.823 166.077C105.823 165.453 106.004 164.971 106.371 164.631C106.749 164.297 107.28 164.127 107.971 164.127C108.261 164.127 108.524 164.165 108.76 164.237H110.732ZM106.218 170.833C106.218 171.139 106.338 171.37 106.59 171.534C106.853 171.693 107.226 171.775 107.708 171.775C108.42 171.775 108.957 171.665 109.307 171.446C109.658 171.227 109.833 170.931 109.833 170.57C109.833 170.263 109.735 170.049 109.548 169.934C109.357 169.819 109.001 169.759 108.475 169.759H107.445C107.05 169.759 106.743 169.858 106.524 170.044C106.316 170.23 106.218 170.493 106.218 170.833ZM106.678 166.055C106.678 166.45 106.787 166.751 107.006 166.954C107.237 167.146 107.554 167.239 107.949 167.239C108.781 167.239 109.198 166.839 109.198 166.033C109.198 165.19 108.771 164.762 107.927 164.762C107.532 164.762 107.226 164.872 107.006 165.091C106.787 165.299 106.678 165.617 106.678 166.055Z" fill="#323131"/>
<path d="M114.459 164.127C114.705 164.127 114.93 164.149 115.138 164.193L115.029 164.982C114.793 164.938 114.579 164.916 114.393 164.916C113.938 164.916 113.544 165.108 113.21 165.486C112.887 165.853 112.728 166.313 112.728 166.866V169.89H111.873V164.237H112.596L112.684 165.288H112.728C112.93 164.927 113.177 164.642 113.473 164.434C113.78 164.231 114.108 164.127 114.459 164.127Z" fill="#323131"/>
<path d="M119.668 169.886L119.493 169.075H119.449C119.17 169.442 118.89 169.689 118.616 169.82C118.337 169.935 117.986 169.996 117.565 169.996C117.006 169.996 116.567 169.853 116.25 169.557C115.926 169.267 115.768 168.856 115.768 168.33C115.768 167.191 116.677 166.593 118.507 166.533L119.471 166.489V166.139C119.471 165.7 119.372 165.383 119.186 165.174C118.994 164.955 118.688 164.846 118.266 164.846C117.795 164.846 117.263 164.994 116.666 165.284L116.403 164.627C116.677 164.484 116.984 164.364 117.323 164.276C117.658 164.188 117.986 164.145 118.31 164.145C118.994 164.145 119.498 164.298 119.822 164.605C120.139 164.901 120.304 165.372 120.304 166.029V169.886H119.668ZM117.74 169.272C118.266 169.272 118.682 169.13 118.989 168.834C119.296 168.544 119.449 168.133 119.449 167.607V167.103L118.595 167.147C117.904 167.163 117.411 167.267 117.104 167.454C116.809 167.645 116.666 167.936 116.666 168.33C116.666 168.637 116.759 168.873 116.951 169.031C117.137 169.196 117.4 169.272 117.74 169.272Z" fill="#323131"/>
<path d="M129.267 169.89V166.209C129.267 165.76 129.169 165.42 128.983 165.201C128.791 164.982 128.489 164.872 128.084 164.872C127.558 164.872 127.164 165.025 126.901 165.332C126.649 165.628 126.528 166.094 126.528 166.735V169.89H125.673V166.209C125.673 165.76 125.569 165.42 125.367 165.201C125.175 164.982 124.874 164.872 124.468 164.872C123.942 164.872 123.548 165.036 123.285 165.354C123.033 165.677 122.912 166.203 122.912 166.932V169.89H122.058V164.237H122.759L122.912 165.004H122.934C123.093 164.741 123.318 164.532 123.614 164.368C123.92 164.209 124.255 164.127 124.622 164.127C125.498 164.127 126.073 164.45 126.353 165.091H126.397C126.556 164.801 126.797 164.565 127.12 164.39C127.438 164.215 127.805 164.127 128.216 164.127C128.856 164.127 129.333 164.297 129.64 164.631C129.958 164.954 130.122 165.48 130.122 166.209V169.89H129.267Z" fill="#323131"/>
<path d="M132.782 168.664L132.869 168.774C132.782 169.124 132.65 169.53 132.475 169.979C132.311 170.428 132.135 170.855 131.949 171.25H131.313C131.401 170.899 131.494 170.461 131.598 169.935C131.713 169.409 131.801 168.987 131.861 168.664H132.782Z" fill="#323131"/>
<path d="M139.494 170C138.661 170 138.015 169.753 137.566 169.255C137.127 168.745 136.908 168.028 136.908 167.107C136.908 166.159 137.133 165.431 137.588 164.916C138.037 164.39 138.689 164.127 139.538 164.127C139.812 164.127 140.086 164.16 140.349 164.215C140.623 164.275 140.836 164.346 140.984 164.434L140.721 165.157C140.546 165.086 140.338 165.025 140.108 164.982C139.889 164.927 139.691 164.894 139.516 164.894C138.376 164.894 137.807 165.628 137.807 167.085C137.807 167.787 137.944 168.329 138.223 168.707C138.497 169.074 138.913 169.255 139.472 169.255C139.938 169.255 140.42 169.156 140.919 168.948V169.693C140.535 169.896 140.064 170 139.494 170Z" fill="#323131"/>
<path d="M143.054 164.232V167.892C143.054 168.363 143.152 168.714 143.361 168.944C143.58 169.163 143.909 169.273 144.347 169.273C144.944 169.273 145.377 169.114 145.64 168.791C145.914 168.473 146.056 167.947 146.056 167.213V164.232H146.911V169.886H146.21L146.1 169.119H146.034C145.859 169.399 145.618 169.618 145.311 169.777C145.004 169.919 144.654 169.996 144.259 169.996C143.558 169.996 143.037 169.837 142.703 169.514C142.364 169.18 142.199 168.654 142.199 167.936V164.232H143.054Z" fill="#323131"/>
<path d="M152.385 168.356C152.385 168.882 152.188 169.293 151.794 169.584C151.399 169.863 150.851 170 150.15 170C149.389 170 148.802 169.879 148.397 169.627V168.839C148.66 168.986 148.945 169.096 149.252 169.167C149.569 169.244 149.876 169.277 150.172 169.277C150.61 169.277 150.944 169.211 151.18 169.08C151.427 168.937 151.553 168.718 151.553 168.422C151.553 168.203 151.454 168.017 151.268 167.852C151.076 167.693 150.703 167.513 150.15 167.305C149.624 167.102 149.252 166.926 149.032 166.779C148.813 166.636 148.643 166.472 148.528 166.296C148.424 166.11 148.375 165.88 148.375 165.617C148.375 165.168 148.556 164.806 148.923 164.543C149.301 164.269 149.821 164.127 150.479 164.127C151.092 164.127 151.684 164.253 152.254 164.499L151.969 165.201C151.399 164.971 150.879 164.85 150.413 164.85C150.002 164.85 149.695 164.916 149.493 165.047C149.284 165.168 149.186 165.343 149.186 165.573C149.186 165.721 149.219 165.853 149.295 165.968C149.383 166.072 149.504 166.176 149.668 166.275C149.843 166.362 150.177 166.494 150.676 166.669C151.344 166.921 151.799 167.168 152.035 167.414C152.265 167.666 152.385 167.978 152.385 168.356Z" fill="#323131"/>
<path d="M155.603 169.277C155.746 169.277 155.888 169.272 156.02 169.255C156.162 169.228 156.283 169.206 156.37 169.189V169.847C156.283 169.891 156.14 169.923 155.954 169.956C155.779 169.984 155.614 170 155.472 170C154.376 170 153.828 169.425 153.828 168.269V164.894H153.018V164.5L153.828 164.127L154.201 162.922H154.683V164.237H156.327V164.894H154.683V168.225C154.683 168.576 154.76 168.839 154.924 169.014C155.083 169.189 155.308 169.277 155.603 169.277Z" fill="#323131"/>
<path d="M162.379 167.063C162.379 167.984 162.144 168.707 161.678 169.233C161.223 169.748 160.588 170 159.771 170C159.256 170 158.807 169.885 158.413 169.649C158.018 169.403 157.711 169.058 157.492 168.619C157.284 168.181 157.186 167.666 157.186 167.063C157.186 166.143 157.41 165.431 157.865 164.916C158.331 164.39 158.972 164.127 159.793 164.127C160.582 164.127 161.207 164.39 161.678 164.916C162.144 165.442 162.379 166.159 162.379 167.063ZM158.084 167.063C158.084 167.781 158.221 168.329 158.5 168.707C158.791 169.091 159.213 169.277 159.771 169.277C160.341 169.277 160.769 169.091 161.064 168.707C161.355 168.329 161.503 167.781 161.503 167.063C161.503 166.351 161.355 165.809 161.064 165.442C160.769 165.064 160.341 164.872 159.771 164.872C159.213 164.872 158.791 165.058 158.5 165.42C158.221 165.787 158.084 166.335 158.084 167.063Z" fill="#323131"/>
<path d="M171.082 169.89V166.209C171.082 165.76 170.983 165.42 170.797 165.201C170.605 164.982 170.304 164.872 169.898 164.872C169.373 164.872 168.978 165.025 168.715 165.332C168.463 165.628 168.343 166.094 168.343 166.735V169.89H167.488V166.209C167.488 165.76 167.384 165.42 167.181 165.201C166.989 164.982 166.688 164.872 166.283 164.872C165.757 164.872 165.362 165.036 165.099 165.354C164.847 165.677 164.727 166.203 164.727 166.932V169.89H163.872V164.237H164.573L164.727 165.004H164.749C164.908 164.741 165.132 164.532 165.428 164.368C165.735 164.209 166.069 164.127 166.436 164.127C167.313 164.127 167.888 164.45 168.167 165.091H168.211C168.37 164.801 168.611 164.565 168.934 164.39C169.252 164.215 169.619 164.127 170.03 164.127C170.671 164.127 171.148 164.297 171.454 164.631C171.772 164.954 171.936 165.48 171.936 166.209V169.89H171.082Z" fill="#323131"/>
<path d="M176.086 170C175.253 170 174.596 169.748 174.114 169.233C173.632 168.723 173.391 168.017 173.391 167.107C173.391 166.203 173.61 165.48 174.048 164.938C174.497 164.401 175.105 164.127 175.867 164.127C176.579 164.127 177.143 164.363 177.554 164.828C177.96 165.299 178.168 165.913 178.168 166.669V167.217H174.289C174.3 167.891 174.464 168.4 174.771 168.751C175.089 169.091 175.544 169.255 176.13 169.255C176.727 169.255 177.324 169.123 177.927 168.86V169.627C177.62 169.759 177.335 169.858 177.072 169.912C176.809 169.967 176.481 170 176.086 170ZM175.867 164.85C175.412 164.85 175.045 165.004 174.771 165.31C174.508 165.606 174.344 166.006 174.289 166.516H177.248C177.248 165.979 177.122 165.568 176.875 165.288C176.639 164.998 176.305 164.85 175.867 164.85Z" fill="#323131"/>
<path d="M182.208 164.127C182.454 164.127 182.679 164.149 182.887 164.193L182.778 164.982C182.542 164.938 182.328 164.916 182.142 164.916C181.687 164.916 181.293 165.108 180.959 165.486C180.636 165.853 180.477 166.313 180.477 166.866V169.89H179.622V164.237H180.345L180.433 165.288H180.477C180.679 164.927 180.926 164.642 181.222 164.434C181.529 164.231 181.857 164.127 182.208 164.127Z" fill="#323131"/>
<path d="M187.593 168.356C187.593 168.882 187.396 169.293 187.002 169.584C186.607 169.863 186.059 170 185.358 170C184.597 170 184.01 169.879 183.605 169.627V168.839C183.868 168.986 184.153 169.096 184.46 169.167C184.777 169.244 185.084 169.277 185.38 169.277C185.818 169.277 186.152 169.211 186.388 169.08C186.635 168.937 186.761 168.718 186.761 168.422C186.761 168.203 186.662 168.017 186.476 167.852C186.284 167.693 185.911 167.513 185.358 167.305C184.832 167.102 184.46 166.926 184.24 166.779C184.021 166.636 183.851 166.472 183.736 166.296C183.632 166.11 183.583 165.88 183.583 165.617C183.583 165.168 183.764 164.806 184.131 164.543C184.509 164.269 185.029 164.127 185.687 164.127C186.3 164.127 186.892 164.253 187.462 164.499L187.177 165.201C186.607 164.971 186.087 164.85 185.621 164.85C185.21 164.85 184.903 164.916 184.701 165.047C184.492 165.168 184.394 165.343 184.394 165.573C184.394 165.721 184.427 165.853 184.503 165.968C184.591 166.072 184.712 166.176 184.876 166.275C185.051 166.362 185.385 166.494 185.884 166.669C186.552 166.921 187.007 167.168 187.243 167.414C187.473 167.666 187.593 167.978 187.593 168.356Z" fill="#323131"/>
<path d="M194.106 170C193.273 170 192.615 169.748 192.133 169.233C191.651 168.723 191.41 168.017 191.41 167.107C191.41 166.203 191.629 165.48 192.068 164.938C192.517 164.401 193.125 164.127 193.886 164.127C194.599 164.127 195.163 164.363 195.574 164.828C195.979 165.299 196.187 165.913 196.187 166.669V167.217H192.309C192.32 167.891 192.484 168.4 192.791 168.751C193.109 169.091 193.563 169.255 194.149 169.255C194.747 169.255 195.344 169.123 195.946 168.86V169.627C195.64 169.759 195.355 169.858 195.092 169.912C194.829 169.967 194.5 170 194.106 170ZM193.886 164.85C193.432 164.85 193.065 165.004 192.791 165.31C192.528 165.606 192.363 166.006 192.309 166.516H195.267C195.267 165.979 195.141 165.568 194.895 165.288C194.659 164.998 194.325 164.85 193.886 164.85Z" fill="#323131"/>
<path d="M201.125 169.886L200.95 169.075H200.906C200.627 169.442 200.347 169.689 200.073 169.82C199.794 169.935 199.443 169.996 199.022 169.996C198.463 169.996 198.024 169.853 197.707 169.557C197.383 169.267 197.225 168.856 197.225 168.33C197.225 167.191 198.134 166.593 199.964 166.533L200.928 166.489V166.139C200.928 165.7 200.829 165.383 200.643 165.174C200.451 164.955 200.145 164.846 199.723 164.846C199.252 164.846 198.72 164.994 198.123 165.284L197.86 164.627C198.134 164.484 198.441 164.364 198.781 164.276C199.115 164.188 199.443 164.145 199.767 164.145C200.451 164.145 200.956 164.298 201.279 164.605C201.596 164.901 201.761 165.372 201.761 166.029V169.886H201.125ZM199.197 169.272C199.723 169.272 200.139 169.13 200.446 168.834C200.753 168.544 200.906 168.133 200.906 167.607V167.103L200.052 167.147C199.361 167.163 198.868 167.267 198.561 167.454C198.266 167.645 198.123 167.936 198.123 168.33C198.123 168.637 198.216 168.873 198.408 169.031C198.594 169.196 198.857 169.272 199.197 169.272Z" fill="#323131"/>
<path d="M206.1 164.127C206.346 164.127 206.571 164.149 206.779 164.193L206.669 164.982C206.434 164.938 206.22 164.916 206.034 164.916C205.579 164.916 205.185 165.108 204.85 165.486C204.527 165.853 204.368 166.313 204.368 166.866V169.89H203.514V164.237H204.237L204.324 165.288H204.368C204.571 164.927 204.818 164.642 205.113 164.434C205.42 164.231 205.749 164.127 206.1 164.127Z" fill="#323131"/>
<path d="M211.705 169.89V166.231C211.705 165.781 211.595 165.442 211.376 165.223C211.168 164.993 210.85 164.872 210.412 164.872C209.809 164.872 209.371 165.036 209.097 165.354C208.818 165.661 208.681 166.187 208.681 166.932V169.89H207.826V164.237H208.527L208.681 165.004H208.703C208.878 164.73 209.125 164.516 209.448 164.368C209.766 164.209 210.116 164.127 210.5 164.127C211.185 164.127 211.694 164.297 212.034 164.631C212.384 164.954 212.56 165.48 212.56 166.209V169.89H211.705Z" fill="#323131"/>
<path d="M21.2801 184.074C20.913 184.074 20.5788 184.008 20.272 183.877C19.9762 183.735 19.7242 183.521 19.505 183.241H19.4612C19.4886 183.565 19.505 183.877 19.505 184.184V186.507H18.6504V178.311H19.3516L19.4831 179.078H19.505C19.7351 178.771 19.9981 178.552 20.294 178.42C20.5843 178.278 20.913 178.201 21.2801 178.201C22.0361 178.201 22.6223 178.459 23.0332 178.968C23.4386 179.483 23.6468 180.206 23.6468 181.138C23.6468 182.058 23.4332 182.781 23.0113 183.307C22.6004 183.822 22.0252 184.074 21.2801 184.074ZM21.1705 178.946C20.5843 178.946 20.1625 179.111 19.8995 179.428C19.6475 179.735 19.516 180.239 19.505 180.94V181.138C19.505 181.927 19.6365 182.496 19.8995 182.847C20.1734 183.187 20.6062 183.351 21.1924 183.351C21.6746 183.351 22.0526 183.154 22.332 182.759C22.6059 182.365 22.7483 181.817 22.7483 181.116C22.7483 180.415 22.6059 179.883 22.332 179.516C22.0526 179.138 21.6636 178.946 21.1705 178.946Z" fill="#323131"/>
<path d="M30.0101 181.138C30.0101 182.058 29.7745 182.781 29.3088 183.307C28.8541 183.822 28.2186 184.074 27.4023 184.074C26.8873 184.074 26.4381 183.959 26.0436 183.724C25.6491 183.477 25.3423 183.132 25.1232 182.694C24.915 182.255 24.8164 181.74 24.8164 181.138C24.8164 180.217 25.041 179.505 25.4957 178.99C25.9614 178.464 26.6024 178.201 27.4242 178.201C28.2131 178.201 28.8377 178.464 29.3088 178.99C29.7745 179.516 30.0101 180.234 30.0101 181.138ZM25.7149 181.138C25.7149 181.855 25.8519 182.403 26.1313 182.781C26.4216 183.165 26.8435 183.351 27.4023 183.351C27.9721 183.351 28.3994 183.165 28.6952 182.781C28.9856 182.403 29.1335 181.855 29.1335 181.138C29.1335 180.425 28.9856 179.883 28.6952 179.516C28.3994 179.138 27.9721 178.946 27.4023 178.946C26.8435 178.946 26.4216 179.133 26.1313 179.494C25.8519 179.861 25.7149 180.409 25.7149 181.138Z" fill="#323131"/>
<path d="M32.3579 183.965H31.5032V178.311H32.3579V183.965ZM31.4375 176.777C31.4375 176.591 31.4813 176.448 31.569 176.36C31.6676 176.262 31.7936 176.207 31.9415 176.207C32.084 176.207 32.2045 176.262 32.2922 176.36C32.3908 176.448 32.4456 176.591 32.4456 176.777C32.4456 176.969 32.3908 177.116 32.2922 177.215C32.2045 177.303 32.084 177.347 31.9415 177.347C31.7936 177.347 31.6676 177.303 31.569 177.215C31.4813 177.116 31.4375 176.969 31.4375 176.777Z" fill="#323131"/>
<path d="M38.0526 183.965V180.305C38.0526 179.856 37.9431 179.516 37.7239 179.297C37.5157 179.067 37.198 178.946 36.7597 178.946C36.1571 178.946 35.7188 179.111 35.4449 179.428C35.1654 179.735 35.0285 180.261 35.0285 181.006V183.965H34.1738V178.311H34.8751L35.0285 179.078H35.0504C35.2257 178.804 35.4722 178.59 35.7955 178.442C36.1132 178.283 36.4639 178.201 36.8474 178.201C37.5322 178.201 38.0417 178.371 38.3814 178.705C38.732 179.028 38.9073 179.554 38.9073 180.283V183.965H38.0526Z" fill="#323131"/>
<path d="M42.498 183.347C42.6404 183.347 42.7829 183.342 42.9144 183.325C43.0568 183.298 43.1773 183.276 43.265 183.26V183.917C43.1773 183.961 43.0349 183.994 42.8486 184.027C42.6733 184.054 42.5089 184.07 42.3665 184.07C41.2708 184.07 40.7229 183.495 40.7229 182.339V178.964H39.9121V178.57L40.7229 178.197L41.0955 176.992H41.5776V178.307H43.2212V178.964H41.5776V182.295C41.5776 182.646 41.6543 182.909 41.8186 183.084C41.9775 183.26 42.2021 183.347 42.498 183.347Z" fill="#323131"/>
<path d="M48.0435 182.431C48.0435 182.957 47.8463 183.367 47.4518 183.658C47.0574 183.937 46.5095 184.074 45.8083 184.074C45.0467 184.074 44.4605 183.954 44.0551 183.702V182.913C44.3181 183.061 44.603 183.17 44.9098 183.241C45.2275 183.318 45.5343 183.351 45.8302 183.351C46.2685 183.351 46.6026 183.285 46.8382 183.154C47.0848 183.011 47.2108 182.792 47.2108 182.496C47.2108 182.277 47.1121 182.091 46.9259 181.927C46.7341 181.768 46.3616 181.587 45.8083 181.379C45.2823 181.176 44.9098 181.001 44.6906 180.853C44.4715 180.71 44.3017 180.546 44.1866 180.371C44.0825 180.184 44.0332 179.954 44.0332 179.691C44.0332 179.242 44.214 178.881 44.5811 178.618C44.9591 178.344 45.4795 178.201 46.137 178.201C46.7506 178.201 47.3422 178.327 47.912 178.574L47.6271 179.275C47.0574 179.045 46.5369 178.924 46.0712 178.924C45.6603 178.924 45.3535 178.99 45.1508 179.122C44.9426 179.242 44.844 179.417 44.844 179.648C44.844 179.795 44.8769 179.927 44.9536 180.042C45.0413 180.146 45.1618 180.25 45.3261 180.349C45.5015 180.436 45.8356 180.568 46.3342 180.743C47.0026 180.995 47.4573 181.242 47.6929 181.488C47.923 181.74 48.0435 182.053 48.0435 182.431Z" fill="#323131"/>
<path d="M54.7299 178.969H53.2836V183.965H52.429V178.969H51.4209V178.596L52.429 178.289V177.961C52.429 176.575 53.0316 175.879 54.2478 175.879C54.5546 175.879 54.9053 175.939 55.2997 176.054L55.0806 176.755C54.7409 176.64 54.456 176.58 54.2259 176.58C53.9027 176.58 53.6616 176.69 53.5027 176.909C53.3548 177.128 53.2836 177.473 53.2836 177.939V178.311H54.7299V178.969Z" fill="#323131"/>
<path d="M60.6331 181.138C60.6331 182.058 60.3975 182.781 59.9319 183.307C59.4771 183.822 58.8416 184.074 58.0253 184.074C57.5103 184.074 57.0611 183.959 56.6666 183.724C56.2722 183.477 55.9654 183.132 55.7463 182.694C55.5381 182.255 55.4395 181.74 55.4395 181.138C55.4395 180.217 55.6641 179.505 56.1188 178.99C56.5845 178.464 57.2255 178.201 58.0472 178.201C58.8362 178.201 59.4607 178.464 59.9319 178.99C60.3975 179.516 60.6331 180.234 60.6331 181.138ZM56.3379 181.138C56.3379 181.855 56.4749 182.403 56.7543 182.781C57.0447 183.165 57.4665 183.351 58.0253 183.351C58.5951 183.351 59.0224 183.165 59.3183 182.781C59.6086 182.403 59.7566 181.855 59.7566 181.138C59.7566 180.425 59.6086 179.883 59.3183 179.516C59.0224 179.138 58.5951 178.946 58.0253 178.946C57.4665 178.946 57.0447 179.133 56.7543 179.494C56.4749 179.861 56.3379 180.409 56.3379 181.138Z" fill="#323131"/>
<path d="M64.7119 178.201C64.9584 178.201 65.183 178.223 65.3912 178.267L65.2816 179.056C65.046 179.012 64.8324 178.99 64.6461 178.99C64.1914 178.99 63.7969 179.182 63.4627 179.56C63.1395 179.927 62.9806 180.387 62.9806 180.94V183.965H62.126V178.311H62.8491L62.9368 179.363H62.9806C63.1833 179.001 63.4299 178.716 63.7257 178.508C64.0325 178.305 64.3612 178.201 64.7119 178.201Z" fill="#323131"/>
<path d="M71.8113 178.219C72.5564 178.219 73.1317 178.476 73.5426 178.986C73.9644 179.484 74.1781 180.202 74.1781 181.133C74.1781 182.054 73.9644 182.777 73.5426 183.303C73.1317 183.818 72.5564 184.07 71.8113 184.07C71.4443 184.07 71.1101 184.004 70.8033 183.872C70.5075 183.73 70.2554 183.516 70.0363 183.237H69.9925L69.7952 183.96H69.1816V175.939H70.0363V177.89C70.0363 178.328 70.0253 178.717 70.0144 179.051H70.0363C70.4417 178.498 71.0334 178.219 71.8113 178.219ZM71.7018 178.942C71.1156 178.942 70.6937 179.112 70.4308 179.446C70.1678 179.769 70.0363 180.333 70.0363 181.133C70.0363 181.922 70.1678 182.492 70.4308 182.842C70.7047 183.182 71.1375 183.346 71.7237 183.346C72.2496 183.346 72.6331 183.16 72.8851 182.777C73.1481 182.399 73.2796 181.845 73.2796 181.111C73.2796 180.383 73.1481 179.84 72.8851 179.49C72.6331 179.128 72.2387 178.942 71.7018 178.942Z" fill="#323131"/>
<path d="M76.464 178.311V181.97C76.464 182.441 76.5626 182.792 76.7708 183.022C76.99 183.241 77.3187 183.351 77.757 183.351C78.3541 183.351 78.7869 183.192 79.0499 182.869C79.3238 182.551 79.4663 182.025 79.4663 181.291V178.311H80.3209V183.964H79.6197L79.5101 183.197H79.4444C79.269 183.477 79.028 183.696 78.7212 183.855C78.4144 183.997 78.0638 184.074 77.6693 184.074C76.9681 184.074 76.4476 183.915 76.1134 183.592C75.7737 183.258 75.6094 182.732 75.6094 182.014V178.311H76.464Z" fill="#323131"/>
<path d="M81.2354 178.311H82.1557L83.4049 181.532C83.6678 182.277 83.8322 182.814 83.9089 183.132H83.9527C83.9965 182.956 84.0842 182.661 84.2157 182.233C84.3581 181.811 84.8348 180.502 85.6401 178.311H86.5386L84.128 184.753C83.876 185.378 83.5911 185.827 83.2734 186.09C82.9501 186.364 82.5557 186.506 82.09 186.506C81.827 186.506 81.5695 186.474 81.323 186.419V185.718C81.5093 185.761 81.7229 185.783 81.9585 185.783C82.5392 185.783 82.9556 185.455 83.2076 184.797L83.5144 183.986L81.2354 178.311Z" fill="#323131"/>
<path d="M88.313 183.965H87.4583V178.311H88.313V183.965ZM87.3926 176.777C87.3926 176.591 87.4364 176.448 87.5241 176.36C87.6227 176.262 87.7487 176.207 87.8966 176.207C88.039 176.207 88.1596 176.262 88.2472 176.36C88.3458 176.448 88.4006 176.591 88.4006 176.777C88.4006 176.969 88.3458 177.116 88.2472 177.215C88.1596 177.303 88.039 177.347 87.8966 177.347C87.7487 177.347 87.6227 177.303 87.5241 177.215C87.4364 177.116 87.3926 176.969 87.3926 176.777Z" fill="#323131"/>
<path d="M94.0077 183.965V180.305C94.0077 179.856 93.8981 179.516 93.679 179.297C93.4708 179.067 93.1531 178.946 92.7148 178.946C92.1121 178.946 91.6739 179.111 91.3999 179.428C91.1205 179.735 90.9836 180.261 90.9836 181.006V183.965H90.1289V178.311H90.8302L90.9836 179.078H91.0055C91.1808 178.804 91.4273 178.59 91.7506 178.442C92.0683 178.283 92.4189 178.201 92.8024 178.201C93.4873 178.201 93.9968 178.371 94.3364 178.705C94.6871 179.028 94.8624 179.554 94.8624 180.283V183.965H94.0077Z" fill="#323131"/>
<path d="M101.257 178.311V178.859L100.205 178.968C100.293 179.1 100.37 179.264 100.446 179.45C100.534 179.642 100.578 179.861 100.578 180.108C100.578 180.667 100.386 181.11 100.008 181.444C99.6246 181.768 99.1096 181.927 98.4522 181.927C98.2769 181.927 98.1125 181.916 97.9701 181.883C97.603 182.075 97.4222 182.316 97.4222 182.606C97.4222 182.77 97.488 182.885 97.6195 182.957C97.7509 183.033 97.9701 183.066 98.2769 183.066H99.263C99.8766 183.066 100.342 183.198 100.666 183.461C101 183.713 101.17 184.08 101.17 184.578C101.17 185.203 100.918 185.679 100.424 186.003C99.9259 186.337 99.1973 186.507 98.2331 186.507C97.488 186.507 96.9073 186.364 96.5018 186.09C96.1074 185.811 95.9102 185.422 95.9102 184.929C95.9102 184.578 96.0197 184.277 96.2389 184.03C96.458 183.784 96.7703 183.614 97.1812 183.526C97.0333 183.455 96.9073 183.351 96.8086 183.22C96.7045 183.077 96.6552 182.913 96.6552 182.737C96.6552 182.535 96.7045 182.359 96.8086 182.211C96.9237 182.053 97.1045 181.899 97.3565 181.751C97.0607 181.636 96.8196 181.434 96.6333 181.138C96.4416 180.847 96.3484 180.519 96.3484 180.152C96.3484 179.527 96.5292 179.045 96.8963 178.705C97.2743 178.371 97.8057 178.201 98.496 178.201C98.7864 178.201 99.0494 178.24 99.2849 178.311H101.257ZM96.7429 184.907C96.7429 185.214 96.8634 185.444 97.1154 185.608C97.3784 185.767 97.7509 185.849 98.2331 185.849C98.9453 185.849 99.4822 185.74 99.8328 185.521C100.183 185.301 100.359 185.006 100.359 184.644C100.359 184.337 100.26 184.123 100.074 184.008C99.8821 183.893 99.526 183.833 99.0001 183.833H97.9701C97.5756 183.833 97.2688 183.932 97.0497 184.118C96.8415 184.304 96.7429 184.567 96.7429 184.907ZM97.2031 180.13C97.2031 180.524 97.3127 180.825 97.5318 181.028C97.7619 181.22 98.0797 181.313 98.4741 181.313C99.3069 181.313 99.7232 180.913 99.7232 180.108C99.7232 179.264 99.2959 178.837 98.4522 178.837C98.0577 178.837 97.7509 178.946 97.5318 179.165C97.3127 179.374 97.2031 179.691 97.2031 180.13Z" fill="#323131"/>
<path d="M104.244 178.311H105.165L106.414 181.532C106.677 182.277 106.841 182.814 106.918 183.132H106.962C107.005 182.956 107.093 182.661 107.224 182.233C107.367 181.811 107.844 180.502 108.649 178.311H109.547L107.137 184.753C106.885 185.378 106.6 185.827 106.282 186.09C105.959 186.364 105.564 186.506 105.099 186.506C104.836 186.506 104.578 186.474 104.332 186.419V185.718C104.518 185.761 104.732 185.783 104.967 185.783C105.548 185.783 105.964 185.455 106.216 184.797L106.523 183.986L104.244 178.311Z" fill="#323131"/>
<path d="M115.351 181.138C115.351 182.058 115.115 182.781 114.65 183.307C114.195 183.822 113.559 184.074 112.743 184.074C112.228 184.074 111.779 183.959 111.384 183.724C110.99 183.477 110.683 183.132 110.464 182.694C110.256 182.255 110.157 181.74 110.157 181.138C110.157 180.217 110.382 179.505 110.837 178.99C111.302 178.464 111.943 178.201 112.765 178.201C113.554 178.201 114.178 178.464 114.65 178.99C115.115 179.516 115.351 180.234 115.351 181.138ZM111.056 181.138C111.056 181.855 111.193 182.403 111.472 182.781C111.762 183.165 112.184 183.351 112.743 183.351C113.313 183.351 113.74 183.165 114.036 182.781C114.326 182.403 114.474 181.855 114.474 181.138C114.474 180.425 114.326 179.883 114.036 179.516C113.74 179.138 113.313 178.946 112.743 178.946C112.184 178.946 111.762 179.133 111.472 179.494C111.193 179.861 111.056 180.409 111.056 181.138Z" fill="#323131"/>
<path d="M117.653 178.311V181.97C117.653 182.441 117.752 182.792 117.96 183.022C118.179 183.241 118.508 183.351 118.946 183.351C119.544 183.351 119.976 183.192 120.239 182.869C120.513 182.551 120.656 182.025 120.656 181.291V178.311H121.51V183.964H120.809L120.7 183.197H120.634C120.458 183.477 120.217 183.696 119.911 183.855C119.604 183.997 119.253 184.074 118.859 184.074C118.158 184.074 117.637 183.915 117.303 183.592C116.963 183.258 116.799 182.732 116.799 182.014V178.311H117.653Z" fill="#323131"/>
<path d="M125.911 178.201C126.158 178.201 126.382 178.223 126.59 178.267L126.481 179.056C126.245 179.012 126.032 178.99 125.845 178.99C125.391 178.99 124.996 179.182 124.662 179.56C124.339 179.927 124.18 180.387 124.18 180.94V183.965H123.325V178.311H124.048L124.136 179.363H124.18C124.383 179.001 124.629 178.716 124.925 178.508C125.232 178.305 125.56 178.201 125.911 178.201Z" fill="#323131"/>
<path d="M135.026 178.311V178.859L133.974 178.968C134.062 179.1 134.138 179.264 134.215 179.45C134.303 179.642 134.346 179.861 134.346 180.108C134.346 180.667 134.155 181.11 133.777 181.444C133.393 181.768 132.878 181.927 132.221 181.927C132.045 181.927 131.881 181.916 131.739 181.883C131.372 182.075 131.191 182.316 131.191 182.606C131.191 182.77 131.257 182.885 131.388 182.957C131.52 183.033 131.739 183.066 132.045 183.066H133.032C133.645 183.066 134.111 183.198 134.434 183.461C134.768 183.713 134.938 184.08 134.938 184.578C134.938 185.203 134.686 185.679 134.193 186.003C133.694 186.337 132.966 186.507 132.002 186.507C131.257 186.507 130.676 186.364 130.27 186.09C129.876 185.811 129.679 185.422 129.679 184.929C129.679 184.578 129.788 184.277 130.007 184.03C130.227 183.784 130.539 183.614 130.95 183.526C130.802 183.455 130.676 183.351 130.577 183.22C130.473 183.077 130.424 182.913 130.424 182.737C130.424 182.535 130.473 182.359 130.577 182.211C130.692 182.053 130.873 181.899 131.125 181.751C130.829 181.636 130.588 181.434 130.402 181.138C130.21 180.847 130.117 180.519 130.117 180.152C130.117 179.527 130.298 179.045 130.665 178.705C131.043 178.371 131.574 178.201 132.265 178.201C132.555 178.201 132.818 178.24 133.053 178.311H135.026ZM130.511 184.907C130.511 185.214 130.632 185.444 130.884 185.608C131.147 185.767 131.52 185.849 132.002 185.849C132.714 185.849 133.251 185.74 133.601 185.521C133.952 185.301 134.127 185.006 134.127 184.644C134.127 184.337 134.029 184.123 133.842 184.008C133.651 183.893 133.295 183.833 132.769 183.833H131.739C131.344 183.833 131.037 183.932 130.818 184.118C130.61 184.304 130.511 184.567 130.511 184.907ZM130.972 180.13C130.972 180.524 131.081 180.825 131.3 181.028C131.53 181.22 131.848 181.313 132.243 181.313C133.075 181.313 133.492 180.913 133.492 180.108C133.492 179.264 133.064 178.837 132.221 178.837C131.826 178.837 131.52 178.946 131.3 179.165C131.081 179.374 130.972 179.691 130.972 180.13Z" fill="#323131"/>
<path d="M141.053 181.138C141.053 182.058 140.817 182.781 140.352 183.307C139.897 183.822 139.262 184.074 138.445 184.074C137.93 184.074 137.481 183.959 137.087 183.724C136.692 183.477 136.385 183.132 136.166 182.694C135.958 182.255 135.859 181.74 135.859 181.138C135.859 180.217 136.084 179.505 136.539 178.99C137.004 178.464 137.645 178.201 138.467 178.201C139.256 178.201 139.881 178.464 140.352 178.99C140.817 179.516 141.053 180.234 141.053 181.138ZM136.758 181.138C136.758 181.855 136.895 182.403 137.174 182.781C137.465 183.165 137.886 183.351 138.445 183.351C139.015 183.351 139.442 183.165 139.738 182.781C140.029 182.403 140.176 181.855 140.176 181.138C140.176 180.425 140.029 179.883 139.738 179.516C139.442 179.138 139.015 178.946 138.445 178.946C137.886 178.946 137.465 179.133 137.174 179.494C136.895 179.861 136.758 180.409 136.758 181.138Z" fill="#323131"/>
<path d="M147.432 181.138C147.432 182.058 147.196 182.781 146.731 183.307C146.276 183.822 145.64 184.074 144.824 184.074C144.309 184.074 143.86 183.959 143.465 183.724C143.071 183.477 142.764 183.132 142.545 182.694C142.337 182.255 142.238 181.74 142.238 181.138C142.238 180.217 142.463 179.505 142.918 178.99C143.383 178.464 144.024 178.201 144.846 178.201C145.635 178.201 146.26 178.464 146.731 178.99C147.196 179.516 147.432 180.234 147.432 181.138ZM143.137 181.138C143.137 181.855 143.274 182.403 143.553 182.781C143.843 183.165 144.265 183.351 144.824 183.351C145.394 183.351 145.821 183.165 146.117 182.781C146.407 182.403 146.555 181.855 146.555 181.138C146.555 180.425 146.407 179.883 146.117 179.516C145.821 179.138 145.394 178.946 144.824 178.946C144.265 178.946 143.843 179.133 143.553 179.494C143.274 179.861 143.137 180.409 143.137 181.138Z" fill="#323131"/>
<path d="M152.783 183.193H152.739C152.345 183.779 151.753 184.07 150.964 184.07C150.219 184.07 149.638 183.823 149.233 183.325C148.822 182.815 148.619 182.092 148.619 181.155C148.619 180.224 148.822 179.501 149.233 178.986C149.655 178.46 150.23 178.197 150.964 178.197C151.72 178.197 152.306 178.476 152.717 179.029H152.783L152.739 178.24V175.939H153.594V183.96H152.892L152.783 183.193ZM151.074 183.346C151.654 183.346 152.082 183.188 152.345 182.864C152.608 182.547 152.739 182.032 152.739 181.33V181.155C152.739 180.355 152.597 179.785 152.323 179.446C152.06 179.095 151.632 178.92 151.052 178.92C150.553 178.92 150.175 179.117 149.912 179.511C149.649 179.895 149.518 180.443 149.518 181.155C149.518 181.889 149.649 182.437 149.912 182.799C150.175 183.166 150.559 183.346 151.074 183.346Z" fill="#323131"/>
<path d="M159.057 182.431C159.057 182.957 158.86 183.367 158.465 183.658C158.071 183.937 157.523 184.074 156.822 184.074C156.06 184.074 155.474 183.954 155.069 183.702V182.913C155.332 183.061 155.617 183.17 155.923 183.241C156.241 183.318 156.548 183.351 156.844 183.351C157.282 183.351 157.616 183.285 157.852 183.154C158.098 183.011 158.224 182.792 158.224 182.496C158.224 182.277 158.126 182.091 157.94 181.927C157.748 181.768 157.375 181.587 156.822 181.379C156.296 181.176 155.923 181.001 155.704 180.853C155.485 180.71 155.315 180.546 155.2 180.371C155.096 180.184 155.047 179.954 155.047 179.691C155.047 179.242 155.228 178.881 155.595 178.618C155.973 178.344 156.493 178.201 157.151 178.201C157.764 178.201 158.356 178.327 158.926 178.574L158.641 179.275C158.071 179.045 157.551 178.924 157.085 178.924C156.674 178.924 156.367 178.99 156.164 179.122C155.956 179.242 155.858 179.417 155.858 179.648C155.858 179.795 155.891 179.927 155.967 180.042C156.055 180.146 156.175 180.25 156.34 180.349C156.515 180.436 156.849 180.568 157.348 180.743C158.016 180.995 158.471 181.242 158.707 181.488C158.937 181.74 159.057 182.053 159.057 182.431Z" fill="#323131"/>
<path d="M168.067 181.138C168.067 182.058 167.831 182.781 167.365 183.307C166.911 183.822 166.275 184.074 165.459 184.074C164.944 184.074 164.495 183.959 164.1 183.724C163.706 183.477 163.399 183.132 163.18 182.694C162.972 182.255 162.873 181.74 162.873 181.138C162.873 180.217 163.098 179.505 163.552 178.99C164.018 178.464 164.659 178.201 165.481 178.201C166.27 178.201 166.894 178.464 167.365 178.99C167.831 179.516 168.067 180.234 168.067 181.138ZM163.772 181.138C163.772 181.855 163.908 182.403 164.188 182.781C164.478 183.165 164.9 183.351 165.459 183.351C166.029 183.351 166.456 183.165 166.752 182.781C167.042 182.403 167.19 181.855 167.19 181.138C167.19 180.425 167.042 179.883 166.752 179.516C166.456 179.138 166.029 178.946 165.459 178.946C164.9 178.946 164.478 179.133 164.188 179.494C163.908 179.861 163.772 180.409 163.772 181.138Z" fill="#323131"/>
<path d="M172.146 178.201C172.393 178.201 172.618 178.223 172.826 178.267L172.716 179.056C172.481 179.012 172.267 178.99 172.081 178.99C171.626 178.99 171.232 179.182 170.897 179.56C170.574 179.927 170.415 180.387 170.415 180.94V183.965H169.561V178.311H170.284L170.371 179.363H170.415C170.618 179.001 170.864 178.716 171.16 178.508C171.467 178.305 171.796 178.201 172.146 178.201Z" fill="#323131"/>
<path d="M180.273 182.431C180.273 182.957 180.076 183.367 179.681 183.658C179.287 183.937 178.739 184.074 178.038 184.074C177.276 184.074 176.69 183.954 176.285 183.702V182.913C176.548 183.061 176.832 183.17 177.139 183.241C177.457 183.318 177.764 183.351 178.06 183.351C178.498 183.351 178.832 183.285 179.068 183.154C179.314 183.011 179.44 182.792 179.44 182.496C179.44 182.277 179.342 182.091 179.155 181.927C178.964 181.768 178.591 181.587 178.038 181.379C177.512 181.176 177.139 181.001 176.92 180.853C176.701 180.71 176.531 180.546 176.416 180.371C176.312 180.184 176.263 179.954 176.263 179.691C176.263 179.242 176.443 178.881 176.811 178.618C177.189 178.344 177.709 178.201 178.366 178.201C178.98 178.201 179.572 178.327 180.142 178.574L179.857 179.275C179.287 179.045 178.766 178.924 178.301 178.924C177.89 178.924 177.583 178.99 177.38 179.122C177.172 179.242 177.074 179.417 177.074 179.648C177.074 179.795 177.106 179.927 177.183 180.042C177.271 180.146 177.391 180.25 177.556 180.349C177.731 180.436 178.065 180.568 178.564 180.743C179.232 180.995 179.687 181.242 179.922 181.488C180.152 181.74 180.273 182.053 180.273 182.431Z" fill="#323131"/>
<path d="M184.042 184.074C183.209 184.074 182.552 183.822 182.07 183.307C181.588 182.798 181.347 182.091 181.347 181.182C181.347 180.278 181.566 179.554 182.004 179.012C182.453 178.475 183.061 178.201 183.823 178.201C184.535 178.201 185.099 178.437 185.51 178.902C185.916 179.374 186.124 179.987 186.124 180.743V181.291H182.245C182.256 181.965 182.42 182.474 182.727 182.825C183.045 183.165 183.5 183.329 184.086 183.329C184.683 183.329 185.28 183.198 185.883 182.935V183.702C185.576 183.833 185.291 183.932 185.028 183.987C184.765 184.041 184.437 184.074 184.042 184.074ZM183.823 178.924C183.368 178.924 183.001 179.078 182.727 179.385C182.464 179.68 182.3 180.08 182.245 180.59H185.204C185.204 180.053 185.078 179.642 184.831 179.363C184.595 179.072 184.261 178.924 183.823 178.924Z" fill="#323131"/>
<path d="M190.166 178.201C190.412 178.201 190.637 178.223 190.845 178.267L190.736 179.056C190.5 179.012 190.286 178.99 190.1 178.99C189.645 178.99 189.251 179.182 188.917 179.56C188.594 179.927 188.435 180.387 188.435 180.94V183.965H187.58V178.311H188.303L188.391 179.363H188.435C188.637 179.001 188.884 178.716 189.18 178.508C189.487 178.305 189.815 178.201 190.166 178.201Z" fill="#323131"/>
<path d="M193.138 183.964L190.99 178.311H191.911L193.116 181.663C193.39 182.452 193.56 182.967 193.62 183.197H193.642C193.686 183.011 193.806 182.628 194.014 182.058C194.217 181.488 194.672 180.239 195.373 178.311H196.272L194.146 183.964H193.138Z" fill="#323131"/>
<path d="M198.037 183.965H197.182V178.311H198.037V183.965ZM197.116 176.777C197.116 176.591 197.16 176.448 197.248 176.36C197.346 176.262 197.472 176.207 197.62 176.207C197.763 176.207 197.883 176.262 197.971 176.36C198.069 176.448 198.124 176.591 198.124 176.777C198.124 176.969 198.069 177.116 197.971 177.215C197.883 177.303 197.763 177.347 197.62 177.347C197.472 177.347 197.346 177.303 197.248 177.215C197.16 177.116 197.116 176.969 197.116 176.777Z" fill="#323131"/>
<path d="M202.132 184.074C201.299 184.074 200.653 183.828 200.203 183.329C199.765 182.82 199.546 182.102 199.546 181.182C199.546 180.234 199.771 179.505 200.225 178.99C200.674 178.464 201.326 178.201 202.176 178.201C202.45 178.201 202.723 178.234 202.986 178.289C203.26 178.349 203.474 178.42 203.622 178.508L203.359 179.231C203.184 179.16 202.975 179.1 202.745 179.056C202.526 179.001 202.329 178.968 202.154 178.968C201.014 178.968 200.444 179.702 200.444 181.16C200.444 181.861 200.581 182.403 200.861 182.781C201.135 183.148 201.551 183.329 202.11 183.329C202.576 183.329 203.058 183.23 203.556 183.022V183.767C203.173 183.97 202.702 184.074 202.132 184.074Z" fill="#323131"/>
<path d="M207.27 184.074C206.437 184.074 205.779 183.822 205.297 183.307C204.815 182.798 204.574 182.091 204.574 181.182C204.574 180.278 204.793 179.554 205.232 179.012C205.681 178.475 206.289 178.201 207.051 178.201C207.763 178.201 208.327 178.437 208.738 178.902C209.143 179.374 209.352 179.987 209.352 180.743V181.291H205.473C205.484 181.965 205.648 182.474 205.955 182.825C206.273 183.165 206.727 183.329 207.313 183.329C207.911 183.329 208.508 183.198 209.11 182.935V183.702C208.804 183.833 208.519 183.932 208.256 183.987C207.993 184.041 207.664 184.074 207.27 184.074ZM207.051 178.924C206.596 178.924 206.229 179.078 205.955 179.385C205.692 179.68 205.527 180.08 205.473 180.59H208.431C208.431 180.053 208.305 179.642 208.059 179.363C207.823 179.072 207.489 178.924 207.051 178.924Z" fill="#323131"/>
<path d="M214.467 182.431C214.467 182.957 214.27 183.367 213.876 183.658C213.481 183.937 212.933 184.074 212.232 184.074C211.471 184.074 210.884 183.954 210.479 183.702V182.913C210.742 183.061 211.027 183.17 211.334 183.241C211.651 183.318 211.958 183.351 212.254 183.351C212.692 183.351 213.026 183.285 213.262 183.154C213.509 183.011 213.635 182.792 213.635 182.496C213.635 182.277 213.536 182.091 213.35 181.927C213.158 181.768 212.785 181.587 212.232 181.379C211.706 181.176 211.334 181.001 211.114 180.853C210.895 180.71 210.725 180.546 210.61 180.371C210.506 180.184 210.457 179.954 210.457 179.691C210.457 179.242 210.638 178.881 211.005 178.618C211.383 178.344 211.903 178.201 212.561 178.201C213.174 178.201 213.766 178.327 214.336 178.574L214.051 179.275C213.481 179.045 212.961 178.924 212.495 178.924C212.084 178.924 211.777 178.99 211.575 179.122C211.366 179.242 211.268 179.417 211.268 179.648C211.268 179.795 211.301 179.927 211.377 180.042C211.465 180.146 211.586 180.25 211.75 180.349C211.925 180.436 212.259 180.568 212.758 180.743C213.426 180.995 213.881 181.242 214.117 181.488C214.347 181.74 214.467 182.053 214.467 182.431Z" fill="#323131"/>
<path d="M37.7855 198.048L37.6102 197.237H37.5664C37.2869 197.604 37.0075 197.851 36.7336 197.982C36.4542 198.097 36.1036 198.158 35.6817 198.158C35.1229 198.158 34.6846 198.015 34.3669 197.719C34.0436 197.429 33.8848 197.018 33.8848 196.492C33.8848 195.353 34.7942 194.756 36.624 194.695L37.5883 194.651V194.301C37.5883 193.863 37.4897 193.545 37.3034 193.337C37.1116 193.117 36.8048 193.008 36.383 193.008C35.9118 193.008 35.3804 193.156 34.7832 193.446L34.5203 192.789C34.7942 192.646 35.101 192.526 35.4407 192.438C35.7749 192.35 36.1036 192.307 36.4268 192.307C37.1116 192.307 37.6157 192.46 37.9389 192.767C38.2566 193.063 38.421 193.534 38.421 194.191V198.048H37.7855ZM35.857 197.435C36.383 197.435 36.7994 197.292 37.1062 196.996C37.413 196.706 37.5664 196.295 37.5664 195.769V195.265L36.7117 195.309C36.0214 195.325 35.5283 195.429 35.2215 195.616C34.9257 195.807 34.7832 196.098 34.7832 196.492C34.7832 196.799 34.8764 197.035 35.0681 197.194C35.2544 197.358 35.5174 197.435 35.857 197.435Z" fill="#323131"/>
<path d="M44.0526 198.049V194.389C44.0526 193.94 43.9431 193.6 43.7239 193.381C43.5157 193.151 43.198 193.03 42.7597 193.03C42.1571 193.03 41.7188 193.195 41.4449 193.512C41.1654 193.819 41.0285 194.345 41.0285 195.09V198.049H40.1738V192.395H40.8751L41.0285 193.162H41.0504C41.2257 192.888 41.4722 192.674 41.7955 192.526C42.1132 192.367 42.4639 192.285 42.8474 192.285C43.5322 192.285 44.0417 192.455 44.3814 192.789C44.732 193.112 44.9073 193.638 44.9073 194.367V198.049H44.0526Z" fill="#323131"/>
<path d="M50.5123 197.283H50.4685C50.074 197.869 49.4824 198.159 48.6935 198.159C47.9484 198.159 47.3676 197.913 46.9622 197.414C46.5513 196.905 46.3486 196.182 46.3486 195.245C46.3486 194.314 46.5513 193.59 46.9622 193.075C47.3841 192.549 47.9593 192.286 48.6935 192.286C49.4495 192.286 50.0357 192.566 50.4466 193.119H50.5123L50.4685 192.33V190.029H51.3232V198.05H50.6219L50.5123 197.283ZM48.803 197.436C49.3838 197.436 49.8111 197.277 50.074 196.954C50.337 196.636 50.4685 196.121 50.4685 195.42V195.245C50.4685 194.445 50.3261 193.875 50.0521 193.536C49.7892 193.185 49.3618 193.01 48.7811 193.01C48.2826 193.01 47.9045 193.207 47.6416 193.601C47.3786 193.985 47.2471 194.533 47.2471 195.245C47.2471 195.979 47.3786 196.527 47.6416 196.888C47.9045 197.256 48.288 197.436 48.803 197.436Z" fill="#323131"/>
<path d="M57.7128 197.435C57.8553 197.435 57.9977 197.43 58.1292 197.413C58.2716 197.386 58.3922 197.364 58.4798 197.348V198.005C58.3922 198.049 58.2497 198.082 58.0635 198.115C57.8881 198.142 57.7238 198.158 57.5813 198.158C56.4856 198.158 55.9378 197.583 55.9378 196.427V193.052H55.127V192.658L55.9378 192.285L56.3103 191.08H56.7924V192.395H58.436V193.052H56.7924V196.383C56.7924 196.734 56.8691 196.997 57.0335 197.172C57.1924 197.348 57.417 197.435 57.7128 197.435Z" fill="#323131"/>
<path d="M63.4804 198.05V194.39C63.4804 193.941 63.3708 193.601 63.1517 193.382C62.9435 193.152 62.6257 193.032 62.1874 193.032C61.5848 193.032 61.1465 193.196 60.8726 193.514C60.5932 193.837 60.4562 194.363 60.4562 195.091V198.05H59.6016V190.029H60.4562V192.462C60.4562 192.758 60.4453 192.999 60.4343 193.185H60.4781C60.637 192.911 60.8726 192.697 61.1794 192.549C61.4971 192.391 61.8587 192.308 62.2532 192.308C62.9544 192.308 63.4694 192.478 63.8091 192.812C64.1597 193.136 64.335 193.656 64.335 194.368V198.05H63.4804Z" fill="#323131"/>
<path d="M68.4718 198.158C67.6391 198.158 66.9816 197.906 66.4995 197.391C66.0174 196.882 65.7764 196.175 65.7764 195.265C65.7764 194.362 65.9955 193.638 66.4338 193.096C66.883 192.559 67.4912 192.285 68.2527 192.285C68.9649 192.285 69.5292 192.521 69.9401 192.986C70.3455 193.458 70.5537 194.071 70.5537 194.827V195.375H66.6748C66.6858 196.049 66.8502 196.558 67.157 196.909C67.4747 197.249 67.9294 197.413 68.5156 197.413C69.1128 197.413 69.71 197.282 70.3126 197.019V197.786C70.0058 197.917 69.7209 198.016 69.458 198.071C69.195 198.125 68.8663 198.158 68.4718 198.158ZM68.2527 193.008C67.798 193.008 67.4309 193.162 67.157 193.469C66.894 193.764 66.7296 194.164 66.6748 194.674H69.6333C69.6333 194.137 69.5073 193.726 69.2607 193.447C69.0251 193.156 68.691 193.008 68.2527 193.008Z" fill="#323131"/>
<path d="M71.1094 192.4H72.0298L73.2789 195.622C73.5419 196.367 73.7062 196.904 73.7829 197.222H73.8267C73.8706 197.046 73.9582 196.75 74.0897 196.323C74.2321 195.901 74.7088 194.592 75.5141 192.4H76.4126L74.002 198.843C73.75 199.468 73.4652 199.917 73.1474 200.18C72.8242 200.454 72.4297 200.596 71.964 200.596C71.7011 200.596 71.4436 200.563 71.197 200.509V199.807C71.3833 199.851 71.597 199.873 71.8325 199.873C72.4133 199.873 72.8296 199.544 73.0817 198.887L73.3885 198.076L71.1094 192.4Z" fill="#323131"/>
<path d="M84.7019 198.054L83.6719 194.745C83.5952 194.543 83.4747 194.082 83.2994 193.365H83.2555C83.124 193.967 83.0035 194.427 82.9049 194.745L81.8311 198.054H80.845L79.2891 192.4H80.1875C80.5491 193.819 80.8285 194.899 81.0203 195.644C81.2066 196.389 81.3161 196.893 81.349 197.156H81.3928C81.4367 196.953 81.4914 196.696 81.5681 196.389C81.6558 196.082 81.7325 195.835 81.8092 195.644L82.8392 192.4H83.7596L84.7676 195.644C84.9703 196.246 85.1018 196.739 85.1621 197.134H85.2059C85.2169 197.019 85.2552 196.827 85.3155 196.564C85.3703 196.301 85.7318 194.915 86.3893 192.4H87.2877L85.7099 198.054H84.7019Z" fill="#323131"/>
<path d="M89.146 198.049H88.2913V192.395H89.146V198.049ZM88.2256 190.861C88.2256 190.675 88.2694 190.532 88.3571 190.444C88.4557 190.346 88.5817 190.291 88.7296 190.291C88.8721 190.291 88.9926 190.346 89.0802 190.444C89.1789 190.532 89.2336 190.675 89.2336 190.861C89.2336 191.053 89.1789 191.2 89.0802 191.299C88.9926 191.387 88.8721 191.431 88.7296 191.431C88.5817 191.431 88.4557 191.387 88.3571 191.299C88.2694 191.2 88.2256 191.053 88.2256 190.861Z" fill="#323131"/>
<path d="M91.8175 198.05H90.9629V190.029H91.8175V198.05Z" fill="#323131"/>
<path d="M94.4884 198.05H93.6338V190.029H94.4884V198.05Z" fill="#323131"/>
<path d="M103.695 192.395V192.943L102.643 193.052C102.73 193.184 102.807 193.348 102.884 193.534C102.972 193.726 103.015 193.945 103.015 194.192C103.015 194.751 102.824 195.194 102.446 195.528C102.062 195.852 101.547 196.011 100.89 196.011C100.714 196.011 100.55 196 100.408 195.967C100.041 196.158 99.8597 196.4 99.8597 196.69C99.8597 196.854 99.9255 196.969 100.057 197.041C100.188 197.117 100.408 197.15 100.714 197.15H101.701C102.314 197.15 102.78 197.282 103.103 197.545C103.437 197.797 103.607 198.164 103.607 198.662C103.607 199.287 103.355 199.763 102.862 200.087C102.363 200.421 101.635 200.591 100.671 200.591C99.9255 200.591 99.3448 200.448 98.9393 200.174C98.5449 199.895 98.3477 199.506 98.3477 199.013C98.3477 198.662 98.4572 198.361 98.6764 198.114C98.8955 197.868 99.2078 197.698 99.6187 197.61C99.4708 197.539 99.3448 197.435 99.2461 197.304C99.142 197.161 99.0927 196.997 99.0927 196.821C99.0927 196.619 99.142 196.443 99.2461 196.295C99.3612 196.137 99.542 195.983 99.794 195.835C99.4982 195.72 99.2571 195.518 99.0708 195.222C98.8791 194.931 98.7859 194.603 98.7859 194.236C98.7859 193.611 98.9667 193.129 99.3338 192.789C99.7118 192.455 100.243 192.285 100.934 192.285C101.224 192.285 101.487 192.324 101.722 192.395H103.695ZM99.1804 198.991C99.1804 199.298 99.3009 199.528 99.5529 199.692C99.8159 199.851 100.188 199.933 100.671 199.933C101.383 199.933 101.92 199.824 102.27 199.604C102.621 199.385 102.796 199.09 102.796 198.728C102.796 198.421 102.698 198.207 102.511 198.092C102.32 197.977 101.963 197.917 101.438 197.917H100.408C100.013 197.917 99.7063 198.016 99.4872 198.202C99.279 198.388 99.1804 198.651 99.1804 198.991ZM99.6406 194.214C99.6406 194.608 99.7502 194.909 99.9693 195.112C100.199 195.304 100.517 195.397 100.912 195.397C101.744 195.397 102.161 194.997 102.161 194.192C102.161 193.348 101.733 192.921 100.89 192.921C100.495 192.921 100.188 193.03 99.9693 193.249C99.7502 193.458 99.6406 193.775 99.6406 194.214Z" fill="#323131"/>
<path d="M107.224 198.158C106.391 198.158 105.734 197.906 105.251 197.391C104.769 196.882 104.528 196.175 104.528 195.265C104.528 194.362 104.747 193.638 105.186 193.096C105.635 192.559 106.243 192.285 107.005 192.285C107.717 192.285 108.281 192.521 108.692 192.986C109.097 193.458 109.306 194.071 109.306 194.827V195.375H105.427C105.438 196.049 105.602 196.558 105.909 196.909C106.227 197.249 106.681 197.413 107.268 197.413C107.865 197.413 108.462 197.282 109.065 197.019V197.786C108.758 197.917 108.473 198.016 108.21 198.071C107.947 198.125 107.618 198.158 107.224 198.158ZM107.005 193.008C106.55 193.008 106.183 193.162 105.909 193.469C105.646 193.764 105.482 194.164 105.427 194.674H108.385C108.385 194.137 108.259 193.726 108.013 193.447C107.777 193.156 107.443 193.008 107.005 193.008Z" fill="#323131"/>
<path d="M112.602 197.435C112.744 197.435 112.886 197.43 113.018 197.413C113.16 197.386 113.281 197.364 113.368 197.348V198.005C113.281 198.049 113.138 198.082 112.952 198.115C112.777 198.142 112.612 198.158 112.47 198.158C111.374 198.158 110.826 197.583 110.826 196.427V193.052H110.016V192.658L110.826 192.285L111.199 191.08H111.681V192.395H113.325V193.052H111.681V196.383C111.681 196.734 111.758 196.997 111.922 197.172C112.081 197.348 112.306 197.435 112.602 197.435Z" fill="#323131"/>
<path d="M120.717 198.048L120.542 197.237H120.498C120.219 197.604 119.939 197.851 119.665 197.982C119.386 198.097 119.035 198.158 118.613 198.158C118.055 198.158 117.616 198.015 117.299 197.719C116.975 197.429 116.816 197.018 116.816 196.492C116.816 195.353 117.726 194.756 119.556 194.695L120.52 194.651V194.301C120.52 193.863 120.421 193.545 120.235 193.337C120.043 193.117 119.736 193.008 119.315 193.008C118.843 193.008 118.312 193.156 117.715 193.446L117.452 192.789C117.726 192.646 118.033 192.526 118.372 192.438C118.707 192.35 119.035 192.307 119.358 192.307C120.043 192.307 120.547 192.46 120.871 192.767C121.188 193.063 121.353 193.534 121.353 194.191V198.048H120.717ZM118.789 197.435C119.315 197.435 119.731 197.292 120.038 196.996C120.345 196.706 120.498 196.295 120.498 195.769V195.265L119.643 195.309C118.953 195.325 118.46 195.429 118.153 195.616C117.857 195.807 117.715 196.098 117.715 196.492C117.715 196.799 117.808 197.035 118 197.194C118.186 197.358 118.449 197.435 118.789 197.435Z" fill="#323131"/>
<path d="M129.509 196.515C129.509 197.041 129.312 197.451 128.918 197.742C128.523 198.021 127.975 198.158 127.274 198.158C126.513 198.158 125.926 198.038 125.521 197.786V196.997C125.784 197.145 126.069 197.254 126.376 197.325C126.693 197.402 127 197.435 127.296 197.435C127.734 197.435 128.068 197.369 128.304 197.238C128.551 197.095 128.677 196.876 128.677 196.58C128.677 196.361 128.578 196.175 128.392 196.011C128.2 195.852 127.827 195.671 127.274 195.463C126.748 195.26 126.376 195.085 126.156 194.937C125.937 194.794 125.767 194.63 125.652 194.455C125.548 194.268 125.499 194.038 125.499 193.775C125.499 193.326 125.68 192.964 126.047 192.702C126.425 192.428 126.945 192.285 127.603 192.285C128.216 192.285 128.808 192.411 129.378 192.658L129.093 193.359C128.523 193.129 128.003 193.008 127.537 193.008C127.126 193.008 126.819 193.074 126.617 193.206C126.408 193.326 126.31 193.501 126.31 193.731C126.31 193.879 126.343 194.011 126.419 194.126C126.507 194.23 126.628 194.334 126.792 194.433C126.967 194.52 127.301 194.652 127.8 194.827C128.468 195.079 128.923 195.326 129.159 195.572C129.389 195.824 129.509 196.137 129.509 196.515Z" fill="#323131"/>
<path d="M133.518 198.158C133.151 198.158 132.817 198.092 132.51 197.961C132.214 197.818 131.962 197.605 131.743 197.325H131.699C131.727 197.649 131.743 197.961 131.743 198.268V200.591H130.889V192.395H131.59L131.721 193.162H131.743C131.973 192.855 132.236 192.636 132.532 192.504C132.823 192.362 133.151 192.285 133.518 192.285C134.274 192.285 134.861 192.543 135.272 193.052C135.677 193.567 135.885 194.29 135.885 195.222C135.885 196.142 135.671 196.865 135.25 197.391C134.839 197.906 134.263 198.158 133.518 198.158ZM133.409 193.03C132.823 193.03 132.401 193.195 132.138 193.512C131.886 193.819 131.754 194.323 131.743 195.024V195.222C131.743 196.011 131.875 196.58 132.138 196.931C132.412 197.271 132.845 197.435 133.431 197.435C133.913 197.435 134.291 197.238 134.57 196.843C134.844 196.449 134.987 195.901 134.987 195.2C134.987 194.498 134.844 193.967 134.57 193.6C134.291 193.222 133.902 193.03 133.409 193.03Z" fill="#323131"/>
<path d="M139.751 198.158C138.918 198.158 138.261 197.906 137.779 197.391C137.297 196.882 137.056 196.175 137.056 195.265C137.056 194.362 137.275 193.638 137.713 193.096C138.162 192.559 138.77 192.285 139.532 192.285C140.244 192.285 140.808 192.521 141.219 192.986C141.625 193.458 141.833 194.071 141.833 194.827V195.375H137.954C137.965 196.049 138.129 196.558 138.436 196.909C138.754 197.249 139.209 197.413 139.795 197.413C140.392 197.413 140.989 197.282 141.592 197.019V197.786C141.285 197.917 141 198.016 140.737 198.071C140.474 198.125 140.146 198.158 139.751 198.158ZM139.532 193.008C139.077 193.008 138.71 193.162 138.436 193.469C138.173 193.764 138.009 194.164 137.954 194.674H140.913C140.913 194.137 140.787 193.726 140.54 193.447C140.304 193.156 139.97 193.008 139.532 193.008Z" fill="#323131"/>
<path d="M145.567 198.158C144.735 198.158 144.088 197.912 143.639 197.413C143.201 196.904 142.981 196.186 142.981 195.265C142.981 194.318 143.206 193.589 143.661 193.074C144.11 192.548 144.762 192.285 145.611 192.285C145.885 192.285 146.159 192.318 146.422 192.373C146.696 192.433 146.91 192.504 147.057 192.592L146.795 193.315C146.619 193.244 146.411 193.184 146.181 193.14C145.962 193.085 145.765 193.052 145.589 193.052C144.45 193.052 143.88 193.786 143.88 195.244C143.88 195.945 144.017 196.487 144.296 196.865C144.57 197.232 144.987 197.413 145.545 197.413C146.011 197.413 146.493 197.314 146.992 197.106V197.851C146.608 198.054 146.137 198.158 145.567 198.158Z" fill="#323131"/>
<path d="M149.168 198.049H148.314V192.395H149.168V198.049ZM148.248 190.861C148.248 190.675 148.292 190.532 148.38 190.444C148.478 190.346 148.604 190.291 148.752 190.291C148.895 190.291 149.015 190.346 149.103 190.444C149.201 190.532 149.256 190.675 149.256 190.861C149.256 191.053 149.201 191.2 149.103 191.299C149.015 191.387 148.895 191.431 148.752 191.431C148.604 191.431 148.478 191.387 148.38 191.299C148.292 191.2 148.248 191.053 148.248 190.861Z" fill="#323131"/>
<path d="M154.471 198.048L154.296 197.237H154.252C153.972 197.604 153.693 197.851 153.419 197.982C153.14 198.097 152.789 198.158 152.367 198.158C151.808 198.158 151.37 198.015 151.052 197.719C150.729 197.429 150.57 197.018 150.57 196.492C150.57 195.353 151.48 194.756 153.31 194.695L154.274 194.651V194.301C154.274 193.863 154.175 193.545 153.989 193.337C153.797 193.117 153.49 193.008 153.069 193.008C152.597 193.008 152.066 193.156 151.469 193.446L151.206 192.789C151.48 192.646 151.787 192.526 152.126 192.438C152.46 192.35 152.789 192.307 153.112 192.307C153.797 192.307 154.301 192.46 154.624 192.767C154.942 193.063 155.107 193.534 155.107 194.191V198.048H154.471ZM152.543 197.435C153.069 197.435 153.485 197.292 153.792 196.996C154.098 196.706 154.252 196.295 154.252 195.769V195.265L153.397 195.309C152.707 195.325 152.214 195.429 151.907 195.616C151.611 195.807 151.469 196.098 151.469 196.492C151.469 196.799 151.562 197.035 151.754 197.194C151.94 197.358 152.203 197.435 152.543 197.435Z" fill="#323131"/>
<path d="M157.715 198.05H156.86V190.029H157.715V198.05Z" fill="#323131"/>
<path d="M164.86 192.285C165.107 192.285 165.331 192.307 165.54 192.351L165.43 193.14C165.194 193.096 164.981 193.074 164.795 193.074C164.34 193.074 163.945 193.266 163.611 193.644C163.288 194.011 163.129 194.471 163.129 195.024V198.049H162.274V192.395H162.998L163.085 193.447H163.129C163.332 193.085 163.578 192.8 163.874 192.592C164.181 192.389 164.51 192.285 164.86 192.285Z" fill="#323131"/>
<path d="M168.975 198.158C168.142 198.158 167.485 197.906 167.002 197.391C166.52 196.882 166.279 196.175 166.279 195.265C166.279 194.362 166.498 193.638 166.937 193.096C167.386 192.559 167.994 192.285 168.756 192.285C169.468 192.285 170.032 192.521 170.443 192.986C170.848 193.458 171.057 194.071 171.057 194.827V195.375H167.178C167.189 196.049 167.353 196.558 167.66 196.909C167.978 197.249 168.432 197.413 169.019 197.413C169.616 197.413 170.213 197.282 170.816 197.019V197.786C170.509 197.917 170.224 198.016 169.961 198.071C169.698 198.125 169.369 198.158 168.975 198.158ZM168.756 193.008C168.301 193.008 167.934 193.162 167.66 193.469C167.397 193.764 167.233 194.164 167.178 194.674H170.136C170.136 194.137 170.01 193.726 169.764 193.447C169.528 193.156 169.194 193.008 168.756 193.008Z" fill="#323131"/>
<path d="M177.135 198.054L176.105 194.745C176.029 194.543 175.908 194.082 175.733 193.365H175.689C175.558 193.967 175.437 194.427 175.338 194.745L174.265 198.054H173.279L171.723 192.4H172.621C172.983 193.819 173.262 194.899 173.454 195.644C173.64 196.389 173.75 196.893 173.783 197.156H173.826C173.87 196.953 173.925 196.696 174.002 196.389C174.089 196.082 174.166 195.835 174.243 195.644L175.273 192.4H176.193L177.201 195.644C177.404 196.246 177.535 196.739 177.596 197.134H177.639C177.65 197.019 177.689 196.827 177.749 196.564C177.804 196.301 178.165 194.915 178.823 192.4H179.721L178.144 198.054H177.135Z" fill="#323131"/>
<path d="M184.212 198.048L184.037 197.237H183.993C183.714 197.604 183.434 197.851 183.16 197.982C182.881 198.097 182.53 198.158 182.108 198.158C181.55 198.158 181.111 198.015 180.794 197.719C180.47 197.429 180.312 197.018 180.312 196.492C180.312 195.353 181.221 194.756 183.051 194.695L184.015 194.651V194.301C184.015 193.863 183.916 193.545 183.73 193.337C183.538 193.117 183.232 193.008 182.81 193.008C182.339 193.008 181.807 193.156 181.21 193.446L180.947 192.789C181.221 192.646 181.528 192.526 181.867 192.438C182.202 192.35 182.53 192.307 182.854 192.307C183.538 192.307 184.042 192.46 184.366 192.767C184.683 193.063 184.848 193.534 184.848 194.191V198.048H184.212ZM182.284 197.435C182.81 197.435 183.226 197.292 183.533 196.996C183.84 196.706 183.993 196.295 183.993 195.769V195.265L183.138 195.309C182.448 195.325 181.955 195.429 181.648 195.616C181.352 195.807 181.21 196.098 181.21 196.492C181.21 196.799 181.303 197.035 181.495 197.194C181.681 197.358 181.944 197.435 182.284 197.435Z" fill="#323131"/>
<path d="M189.185 192.285C189.432 192.285 189.657 192.307 189.865 192.351L189.755 193.14C189.52 193.096 189.306 193.074 189.12 193.074C188.665 193.074 188.271 193.266 187.936 193.644C187.613 194.011 187.454 194.471 187.454 195.024V198.049H186.6V192.395H187.323L187.41 193.447H187.454C187.657 193.085 187.904 192.8 188.199 192.592C188.506 192.389 188.835 192.285 189.185 192.285Z" fill="#323131"/>
<path d="M194.768 197.283H194.724C194.33 197.869 193.738 198.159 192.949 198.159C192.204 198.159 191.624 197.913 191.218 197.414C190.807 196.905 190.604 196.182 190.604 195.245C190.604 194.314 190.807 193.59 191.218 193.075C191.64 192.549 192.215 192.286 192.949 192.286C193.705 192.286 194.292 192.566 194.702 193.119H194.768L194.724 192.33V190.029H195.579V198.05H194.878L194.768 197.283ZM193.059 197.436C193.64 197.436 194.067 197.277 194.33 196.954C194.593 196.636 194.724 196.121 194.724 195.42V195.245C194.724 194.445 194.582 193.875 194.308 193.536C194.045 193.185 193.618 193.01 193.037 193.01C192.538 193.01 192.16 193.207 191.897 193.601C191.634 193.985 191.503 194.533 191.503 195.245C191.503 195.979 191.634 196.527 191.897 196.888C192.16 197.256 192.544 197.436 193.059 197.436Z" fill="#323131"/>
<path d="M197.275 197.504C197.275 197.274 197.325 197.099 197.429 196.978C197.527 196.863 197.681 196.803 197.889 196.803C198.075 196.803 198.223 196.863 198.327 196.978C198.442 197.099 198.503 197.274 198.503 197.504C198.503 197.723 198.442 197.898 198.327 198.03C198.223 198.145 198.075 198.205 197.889 198.205C197.714 198.205 197.566 198.15 197.451 198.052C197.33 197.937 197.275 197.756 197.275 197.504Z" fill="#323131"/>
<path d="M51.8306 118.918V104.34H58.203C59.7857 104.34 61.1741 104.646 62.368 105.257C63.562 105.868 64.4922 106.715 65.1586 107.797C65.825 108.88 66.1582 110.158 66.1582 111.629C66.1582 113.087 65.825 114.364 65.1586 115.461C64.4922 116.544 63.562 117.391 62.368 118.002C61.1741 118.613 59.7857 118.918 58.203 118.918H51.8306ZM54.5378 116.627H58.0781C59.1749 116.627 60.1189 116.419 60.9103 116.002C61.7155 115.586 62.3333 115.003 62.7637 114.253C63.208 113.503 63.4301 112.629 63.4301 111.629C63.4301 110.616 63.208 109.741 62.7637 109.005C62.3333 108.256 61.7155 107.672 60.9103 107.256C60.1189 106.839 59.1749 106.631 58.0781 106.631H54.5378V116.627ZM74.0128 119.064C72.7771 119.064 71.6942 118.821 70.7641 118.335C69.8478 117.835 69.1328 117.155 68.6191 116.294C68.1193 115.433 67.8694 114.454 67.8694 113.358C67.8694 112.247 68.1123 111.268 68.5983 110.421C69.0981 109.561 69.7783 108.887 70.6391 108.401C71.5138 107.915 72.5064 107.672 73.6171 107.672C74.7 107.672 75.6649 107.909 76.5117 108.381C77.3586 108.853 78.025 109.519 78.5109 110.38C78.9969 111.241 79.2398 112.254 79.2398 113.42C79.2398 113.531 79.2329 113.656 79.219 113.795C79.219 113.934 79.212 114.066 79.1982 114.191H69.9311V112.462H77.8237L76.8033 113.004C76.8172 112.365 76.6853 111.803 76.4076 111.317C76.13 110.831 75.7482 110.449 75.2622 110.171C74.7902 109.894 74.2418 109.755 73.6171 109.755C72.9784 109.755 72.4162 109.894 71.9303 110.171C71.4582 110.449 71.0834 110.838 70.8057 111.338C70.5419 111.824 70.41 112.4 70.41 113.066V113.483C70.41 114.149 70.5628 114.739 70.8682 115.253C71.1736 115.766 71.604 116.162 72.1593 116.44C72.7147 116.717 73.3533 116.856 74.0752 116.856C74.7 116.856 75.2622 116.759 75.762 116.565C76.2618 116.37 76.7061 116.065 77.0948 115.648L78.4901 117.252C77.9903 117.835 77.3586 118.286 76.595 118.606C75.8453 118.911 74.9846 119.064 74.0128 119.064ZM81.7403 118.918V103.466H84.3434V118.918H81.7403ZM87.76 118.918V107.797H90.3631V118.918H87.76ZM89.072 105.965C88.586 105.965 88.1834 105.812 87.8641 105.507C87.5587 105.201 87.406 104.833 87.406 104.403C87.406 103.959 87.5587 103.591 87.8641 103.299C88.1834 102.994 88.586 102.841 89.072 102.841C89.5579 102.841 89.9536 102.987 90.259 103.278C90.5783 103.556 90.738 103.91 90.738 104.34C90.738 104.799 90.5852 105.187 90.2798 105.507C89.9744 105.812 89.5718 105.965 89.072 105.965ZM96.7368 118.918L91.9679 107.797H94.6752L98.7777 117.606H97.4449L101.693 107.797H104.192L99.4233 118.918H96.7368ZM110.741 119.064C109.506 119.064 108.423 118.821 107.492 118.335C106.576 117.835 105.861 117.155 105.347 116.294C104.848 115.433 104.598 114.454 104.598 113.358C104.598 112.247 104.841 111.268 105.327 110.421C105.826 109.561 106.507 108.887 107.367 108.401C108.242 107.915 109.235 107.672 110.345 107.672C111.428 107.672 112.393 107.909 113.24 108.381C114.087 108.853 114.753 109.519 115.239 110.38C115.725 111.241 115.968 112.254 115.968 113.42C115.968 113.531 115.961 113.656 115.947 113.795C115.947 113.934 115.94 114.066 115.927 114.191H106.659V112.462H114.552L113.532 113.004C113.546 112.365 113.414 111.803 113.136 111.317C112.858 110.831 112.477 110.449 111.991 110.171C111.519 109.894 110.97 109.755 110.345 109.755C109.707 109.755 109.145 109.894 108.659 110.171C108.187 110.449 107.812 110.838 107.534 111.338C107.27 111.824 107.138 112.4 107.138 113.066V113.483C107.138 114.149 107.291 114.739 107.597 115.253C107.902 115.766 108.332 116.162 108.888 116.44C109.443 116.717 110.082 116.856 110.804 116.856C111.428 116.856 111.991 116.759 112.49 116.565C112.99 116.37 113.435 116.065 113.823 115.648L115.219 117.252C114.719 117.835 114.087 118.286 113.323 118.606C112.574 118.911 111.713 119.064 110.741 119.064ZM118.469 118.918V107.797H120.947V110.859L120.655 109.963C120.988 109.214 121.509 108.644 122.217 108.256C122.939 107.867 123.835 107.672 124.904 107.672V110.151C124.793 110.123 124.688 110.109 124.591 110.109C124.494 110.095 124.397 110.088 124.3 110.088C123.314 110.088 122.53 110.38 121.946 110.963C121.363 111.532 121.072 112.386 121.072 113.524V118.918H118.469ZM133.17 118.918V116.669L133.024 116.19V112.254C133.024 111.49 132.795 110.9 132.337 110.484C131.879 110.053 131.185 109.838 130.255 109.838C129.63 109.838 129.012 109.935 128.401 110.13C127.804 110.324 127.297 110.595 126.881 110.942L125.861 109.047C126.458 108.589 127.166 108.249 127.985 108.027C128.818 107.79 129.678 107.672 130.567 107.672C132.177 107.672 133.42 108.061 134.295 108.839C135.183 109.602 135.627 110.789 135.627 112.4V118.918H133.17ZM129.672 119.064C128.839 119.064 128.11 118.925 127.485 118.647C126.86 118.356 126.374 117.96 126.027 117.46C125.694 116.947 125.527 116.37 125.527 115.732C125.527 115.107 125.673 114.545 125.965 114.045C126.27 113.545 126.763 113.149 127.443 112.858C128.124 112.566 129.026 112.421 130.15 112.421H133.378V114.149H130.338C129.449 114.149 128.852 114.295 128.547 114.586C128.242 114.864 128.089 115.211 128.089 115.628C128.089 116.1 128.276 116.475 128.651 116.752C129.026 117.03 129.547 117.169 130.213 117.169C130.852 117.169 131.421 117.023 131.921 116.731C132.434 116.44 132.802 116.009 133.024 115.44L133.462 117.002C133.212 117.655 132.761 118.161 132.108 118.522C131.469 118.883 130.657 119.064 129.672 119.064ZM145.132 119.064C144.188 119.064 143.348 118.855 142.613 118.439C141.877 118.022 141.294 117.398 140.863 116.565C140.447 115.718 140.239 114.649 140.239 113.358C140.239 112.053 140.454 110.984 140.884 110.151C141.328 109.318 141.918 108.7 142.654 108.297C143.404 107.881 144.23 107.672 145.132 107.672C146.229 107.672 147.194 107.909 148.027 108.381C148.874 108.853 149.54 109.512 150.026 110.359C150.526 111.206 150.776 112.205 150.776 113.358C150.776 114.51 150.526 115.51 150.026 116.356C149.54 117.203 148.874 117.87 148.027 118.356C147.194 118.828 146.229 119.064 145.132 119.064ZM138.968 118.918V103.466H141.571V110.38L141.363 113.337L141.446 116.294V118.918H138.968ZM144.841 116.835C145.466 116.835 146.021 116.697 146.507 116.419C147.007 116.141 147.402 115.739 147.694 115.211C147.985 114.684 148.131 114.066 148.131 113.358C148.131 112.636 147.985 112.018 147.694 111.504C147.402 110.977 147.007 110.574 146.507 110.296C146.021 110.019 145.466 109.88 144.841 109.88C144.216 109.88 143.654 110.019 143.154 110.296C142.654 110.574 142.259 110.977 141.967 111.504C141.675 112.018 141.53 112.636 141.53 113.358C141.53 114.066 141.675 114.684 141.967 115.211C142.259 115.739 142.654 116.141 143.154 116.419C143.654 116.697 144.216 116.835 144.841 116.835ZM153.245 118.918V103.466H155.848V118.918H153.245ZM164.491 119.064C163.256 119.064 162.173 118.821 161.243 118.335C160.327 117.835 159.612 117.155 159.098 116.294C158.598 115.433 158.348 114.454 158.348 113.358C158.348 112.247 158.591 111.268 159.077 110.421C159.577 109.561 160.257 108.887 161.118 108.401C161.993 107.915 162.985 107.672 164.096 107.672C165.179 107.672 166.144 107.909 166.99 108.381C167.837 108.853 168.504 109.519 168.99 110.38C169.476 111.241 169.719 112.254 169.719 113.42C169.719 113.531 169.712 113.656 169.698 113.795C169.698 113.934 169.691 114.066 169.677 114.191H160.41V112.462H168.302L167.282 113.004C167.296 112.365 167.164 111.803 166.886 111.317C166.609 110.831 166.227 110.449 165.741 110.171C165.269 109.894 164.721 109.755 164.096 109.755C163.457 109.755 162.895 109.894 162.409 110.171C161.937 110.449 161.562 110.838 161.284 111.338C161.021 111.824 160.889 112.4 160.889 113.066V113.483C160.889 114.149 161.041 114.739 161.347 115.253C161.652 115.766 162.083 116.162 162.638 116.44C163.193 116.717 163.832 116.856 164.554 116.856C165.179 116.856 165.741 116.759 166.241 116.565C166.741 116.37 167.185 116.065 167.574 115.648L168.969 117.252C168.469 117.835 167.837 118.286 167.074 118.606C166.324 118.911 165.463 119.064 164.491 119.064ZM175.655 119.064C174.725 119.064 173.829 118.946 172.969 118.71C172.122 118.46 171.448 118.161 170.949 117.814L171.948 115.836C172.448 116.155 173.045 116.419 173.739 116.627C174.433 116.835 175.128 116.94 175.822 116.94C176.641 116.94 177.231 116.829 177.592 116.606C177.967 116.384 178.154 116.086 178.154 115.711C178.154 115.405 178.029 115.176 177.779 115.024C177.529 114.857 177.203 114.732 176.801 114.649C176.398 114.566 175.947 114.489 175.447 114.42C174.961 114.35 174.468 114.26 173.968 114.149C173.482 114.024 173.038 113.851 172.636 113.628C172.233 113.392 171.907 113.08 171.657 112.691C171.407 112.303 171.282 111.789 171.282 111.15C171.282 110.442 171.483 109.831 171.886 109.318C172.288 108.79 172.851 108.387 173.573 108.11C174.308 107.818 175.176 107.672 176.176 107.672C176.925 107.672 177.682 107.756 178.446 107.922C179.209 108.089 179.841 108.325 180.341 108.63L179.341 110.609C178.814 110.289 178.279 110.074 177.738 109.963C177.21 109.838 176.682 109.776 176.155 109.776C175.364 109.776 174.774 109.894 174.385 110.13C174.01 110.366 173.823 110.664 173.823 111.025C173.823 111.359 173.947 111.608 174.197 111.775C174.447 111.942 174.774 112.073 175.176 112.171C175.579 112.268 176.023 112.351 176.509 112.421C177.009 112.476 177.502 112.566 177.988 112.691C178.473 112.816 178.918 112.99 179.32 113.212C179.737 113.42 180.07 113.719 180.32 114.107C180.57 114.496 180.695 115.003 180.695 115.628C180.695 116.322 180.487 116.926 180.07 117.439C179.667 117.953 179.091 118.356 178.342 118.647C177.592 118.925 176.696 119.064 175.655 119.064Z" fill="black"/>
</svg>
