<svg width="232" height="297" viewBox="0 0 232 297" fill="none" xmlns="http://www.w3.org/2000/svg">
<path d="M12.2329 107.375V227.29L115.843 287.247L219.448 227.29V107.375L115.843 47.418L12.2329 107.375Z" fill="#91D5D8"/>
<path d="M12.2329 116.846V236.76L115.843 296.718L219.448 236.76V116.846L115.843 56.8887L12.2329 116.846Z" fill="#142357"/>
<path d="M0 67.0574V201.172L115.707 268.23L231.414 201.172V67.0574L115.707 0L0 67.0574Z" fill="white"/>
<path d="M0 67.0574V201.172L115.707 268.23L231.414 201.172V67.0574L115.707 0L0 67.0574Z" fill="white"/>
<path d="M141.089 35.7385L135.945 30.5339C135.693 30.2819 135.386 30.1504 135.03 30.1504C134.674 30.1504 134.372 30.2819 134.12 30.5339L118.676 46.1423C118.43 46.3998 118.304 46.7066 118.298 47.0682V52.2673C118.298 52.6289 118.424 52.9357 118.676 53.1877C118.928 53.4452 119.23 53.5712 119.586 53.5712H124.736C125.086 53.5657 125.393 53.4397 125.645 53.1932L141.089 37.5848C141.347 37.3273 141.473 37.0205 141.473 36.6589C141.473 36.3028 141.347 35.9905 141.089 35.7385ZM124.199 50.9689H120.873V47.6105L135.03 33.3006L138.355 36.6589L124.199 50.9689Z" fill="#91D5D8"/>
<path d="M137.603 45.7651C137.247 45.7651 136.946 45.8966 136.694 46.1486C136.442 46.4006 136.316 46.7074 136.316 47.069V65.2797C136.316 65.7947 136.217 66.2932 136.02 66.7699C135.828 67.2465 135.549 67.6683 135.187 68.0354C134.826 68.4025 134.404 68.6819 133.933 68.8846C133.462 69.0818 132.969 69.1804 132.454 69.1804H119.584C119.3 69.1804 119.042 69.2681 118.812 69.4379L110.578 75.6835V70.4788C110.578 70.1227 110.452 69.8159 110.2 69.5584C109.948 69.3064 109.646 69.1804 109.29 69.1804H96.4212C95.9062 69.1804 95.4131 69.0818 94.942 68.8846C94.4708 68.6819 94.0544 68.4025 93.6874 68.0354C93.3258 67.6683 93.0464 67.2465 92.8546 66.7699C92.6574 66.2932 92.5588 65.7947 92.5588 65.2797V41.8644C92.5588 41.3494 92.6574 40.8508 92.8546 40.3742C93.0464 39.8921 93.3258 39.4702 93.6874 39.1032C94.0544 38.7416 94.4708 38.4567 94.942 38.2595C95.4131 38.0623 95.9062 37.9636 96.4212 37.9636H119.584C119.941 37.9636 120.242 37.8376 120.494 37.5801C120.746 37.3281 120.872 37.0213 120.872 36.6597C120.872 36.3036 120.746 35.9968 120.494 35.7448C120.242 35.4873 119.941 35.3613 119.584 35.3613H96.4212C95.9993 35.3613 95.5775 35.4052 95.1666 35.4873C94.7502 35.5695 94.3503 35.6955 93.9613 35.8599C93.5669 36.0242 93.1998 36.2215 92.8492 36.4625C92.4985 36.6981 92.1698 36.9665 91.874 37.2679C91.5727 37.5692 91.3097 37.8979 91.0741 38.254C90.8385 38.6101 90.6413 38.9826 90.477 39.3771C90.3181 39.7716 90.1921 40.177 90.1099 40.5988C90.0277 41.0152 89.9839 41.437 89.9839 41.8644V65.2797C89.9839 65.7015 90.0277 66.1289 90.1099 66.5452C90.1921 66.9616 90.3181 67.3725 90.477 67.7669C90.6413 68.1559 90.8385 68.5339 91.0741 68.8901C91.3097 69.2407 91.5727 69.5694 91.874 69.8707C92.1698 70.172 92.4985 70.446 92.8492 70.6815C93.1998 70.9171 93.5669 71.1198 93.9613 71.2842C94.3503 71.4485 94.7502 71.5691 95.1666 71.6512C95.5775 71.7389 95.9993 71.7827 96.4212 71.7827H108.003V78.2858C108.003 78.8227 108.238 79.2062 108.715 79.4417C108.896 79.5404 109.088 79.5842 109.29 79.5842C109.575 79.5897 109.833 79.502 110.063 79.3267L120.017 71.7827H132.454C132.875 71.7827 133.297 71.7389 133.708 71.6567C134.125 71.5691 134.524 71.4485 134.919 71.2842C135.308 71.1198 135.675 70.9171 136.026 70.6815C136.376 70.446 136.705 70.172 137.001 69.8707C137.302 69.5694 137.565 69.2407 137.801 68.8901C138.036 68.5339 138.233 68.1559 138.398 67.7669C138.562 67.3725 138.683 66.9616 138.765 66.5452C138.847 66.1289 138.891 65.7015 138.891 65.2797V47.069C138.891 46.7074 138.765 46.4006 138.513 46.1486C138.261 45.8966 137.96 45.7651 137.603 45.7651Z" fill="#91D5D8"/>
<path d="M111.866 43.1641H98.9964C98.6403 43.1641 98.3335 43.2955 98.087 43.5476C97.835 43.7996 97.709 44.1064 97.709 44.468C97.709 44.8241 97.835 45.1309 98.087 45.3884C98.3335 45.6404 98.6403 45.7664 98.9964 45.7664H111.866C112.222 45.7664 112.523 45.6404 112.775 45.3884C113.027 45.1309 113.153 44.8241 113.153 44.468C113.153 44.1064 113.027 43.7996 112.775 43.5476C112.523 43.2955 112.222 43.1641 111.866 43.1641Z" fill="#91D5D8"/>
<path d="M98.9964 53.573H111.866C112.222 53.573 112.523 53.447 112.775 53.1895C113.027 52.9375 113.153 52.6307 113.153 52.2691C113.153 51.913 113.027 51.6062 112.775 51.3542C112.523 51.0967 112.222 50.9707 111.866 50.9707H98.9964C98.6403 50.9707 98.3335 51.0967 98.087 51.3542C97.835 51.6062 97.709 51.913 97.709 52.2691C97.709 52.6307 97.835 52.9375 98.087 53.1895C98.3335 53.447 98.6403 53.573 98.9964 53.573Z" fill="#91D5D8"/>
<path d="M98.9964 61.3757H129.885C130.235 61.3757 130.542 61.2497 130.794 60.9977C131.046 60.7402 131.166 60.4334 131.166 60.0773C131.166 59.7157 131.046 59.4089 130.794 59.1569C130.542 58.9049 130.235 58.7734 129.885 58.7734H98.9964C98.6403 58.7734 98.3335 58.9049 98.087 59.1569C97.835 59.4089 97.709 59.7157 97.709 60.0773C97.709 60.4334 97.835 60.7402 98.087 60.9977C98.3335 61.2497 98.6403 61.3757 98.9964 61.3757Z" fill="#91D5D8"/>
<path d="M141.089 35.7385L135.945 30.5339C135.693 30.2819 135.386 30.1504 135.03 30.1504C134.674 30.1504 134.372 30.2819 134.12 30.5339L118.676 46.1423C118.43 46.3998 118.304 46.7066 118.298 47.0682V52.2673C118.298 52.6289 118.424 52.9357 118.676 53.1877C118.928 53.4452 119.23 53.5712 119.586 53.5712H124.736C125.086 53.5657 125.393 53.4397 125.645 53.1932L141.089 37.5848C141.347 37.3273 141.473 37.0205 141.473 36.6589C141.473 36.3028 141.347 35.9905 141.089 35.7385ZM124.199 50.9689H120.873V47.6105L135.03 33.3006L138.355 36.6589L124.199 50.9689Z" fill="#142357"/>
<path d="M137.603 45.7651C137.247 45.7651 136.946 45.8966 136.694 46.1486C136.442 46.4006 136.316 46.7074 136.316 47.069V65.2797C136.316 65.7947 136.217 66.2932 136.02 66.7699C135.828 67.2465 135.549 67.6683 135.187 68.0354C134.826 68.4025 134.404 68.6819 133.933 68.8846C133.462 69.0818 132.969 69.1804 132.454 69.1804H119.584C119.3 69.1804 119.042 69.2681 118.812 69.4379L110.578 75.6835V70.4788C110.578 70.1227 110.452 69.8159 110.2 69.5584C109.948 69.3064 109.646 69.1804 109.29 69.1804H96.4212C95.9062 69.1804 95.4131 69.0818 94.942 68.8846C94.4708 68.6819 94.0544 68.4025 93.6874 68.0354C93.3258 67.6683 93.0464 67.2465 92.8546 66.7699C92.6574 66.2932 92.5588 65.7947 92.5588 65.2797V41.8644C92.5588 41.3494 92.6574 40.8508 92.8546 40.3742C93.0464 39.8921 93.3258 39.4702 93.6874 39.1032C94.0544 38.7416 94.4708 38.4567 94.942 38.2595C95.4131 38.0623 95.9062 37.9636 96.4212 37.9636H119.584C119.941 37.9636 120.242 37.8376 120.494 37.5801C120.746 37.3281 120.872 37.0213 120.872 36.6597C120.872 36.3036 120.746 35.9968 120.494 35.7448C120.242 35.4873 119.941 35.3613 119.584 35.3613H96.4212C95.9993 35.3613 95.5775 35.4052 95.1666 35.4873C94.7502 35.5695 94.3503 35.6955 93.9613 35.8599C93.5669 36.0242 93.1998 36.2215 92.8492 36.4625C92.4985 36.6981 92.1698 36.9665 91.874 37.2679C91.5727 37.5692 91.3097 37.8979 91.0741 38.254C90.8385 38.6101 90.6413 38.9826 90.477 39.3771C90.3181 39.7716 90.1921 40.177 90.1099 40.5988C90.0277 41.0152 89.9839 41.437 89.9839 41.8644V65.2797C89.9839 65.7015 90.0277 66.1289 90.1099 66.5452C90.1921 66.9616 90.3181 67.3725 90.477 67.7669C90.6413 68.1559 90.8385 68.5339 91.0741 68.8901C91.3097 69.2407 91.5727 69.5694 91.874 69.8707C92.1698 70.172 92.4985 70.446 92.8492 70.6815C93.1998 70.9171 93.5669 71.1198 93.9613 71.2842C94.3503 71.4485 94.7502 71.5691 95.1666 71.6512C95.5775 71.7389 95.9993 71.7827 96.4212 71.7827H108.003V78.2858C108.003 78.8227 108.238 79.2062 108.715 79.4417C108.896 79.5404 109.088 79.5842 109.29 79.5842C109.575 79.5897 109.833 79.502 110.063 79.3267L120.017 71.7827H132.454C132.875 71.7827 133.297 71.7389 133.708 71.6567C134.125 71.5691 134.524 71.4485 134.919 71.2842C135.308 71.1198 135.675 70.9171 136.026 70.6815C136.376 70.446 136.705 70.172 137.001 69.8707C137.302 69.5694 137.565 69.2407 137.801 68.8901C138.036 68.5339 138.233 68.1559 138.398 67.7669C138.562 67.3725 138.683 66.9616 138.765 66.5452C138.847 66.1289 138.891 65.7015 138.891 65.2797V47.069C138.891 46.7074 138.765 46.4006 138.513 46.1486C138.261 45.8966 137.96 45.7651 137.603 45.7651Z" fill="#142357"/>
<path d="M111.866 43.1641H98.9964C98.6403 43.1641 98.3335 43.2955 98.087 43.5476C97.835 43.7996 97.709 44.1064 97.709 44.468C97.709 44.8241 97.835 45.1309 98.087 45.3884C98.3335 45.6404 98.6403 45.7664 98.9964 45.7664H111.866C112.222 45.7664 112.523 45.6404 112.775 45.3884C113.027 45.1309 113.153 44.8241 113.153 44.468C113.153 44.1064 113.027 43.7996 112.775 43.5476C112.523 43.2955 112.222 43.1641 111.866 43.1641Z" fill="#142357"/>
<path d="M98.9964 53.573H111.866C112.222 53.573 112.523 53.447 112.775 53.1895C113.027 52.9375 113.153 52.6307 113.153 52.2691C113.153 51.913 113.027 51.6062 112.775 51.3542C112.523 51.0967 112.222 50.9707 111.866 50.9707H98.9964C98.6403 50.9707 98.3335 51.0967 98.087 51.3542C97.835 51.6062 97.709 51.913 97.709 52.2691C97.709 52.6307 97.835 52.9375 98.087 53.1895C98.3335 53.447 98.6403 53.573 98.9964 53.573Z" fill="#142357"/>
<path d="M98.9964 61.3757H129.885C130.235 61.3757 130.542 61.2497 130.794 60.9977C131.046 60.7402 131.166 60.4334 131.166 60.0773C131.166 59.7157 131.046 59.4089 130.794 59.1569C130.542 58.9049 130.235 58.7734 129.885 58.7734H98.9964C98.6403 58.7734 98.3335 58.9049 98.087 59.1569C97.835 59.4089 97.709 59.7157 97.709 60.0773C97.709 60.4334 97.835 60.7402 98.087 60.9977C98.3335 61.2497 98.6403 61.3757 98.9964 61.3757Z" fill="#142357"/>
<path d="M41.0039 118.918V104.34H47.3764C48.9591 104.34 50.3474 104.646 51.5414 105.257C52.7353 105.868 53.6655 106.715 54.3319 107.797C54.9983 108.88 55.3315 110.158 55.3315 111.629C55.3315 113.087 54.9983 114.364 54.3319 115.461C53.6655 116.544 52.7353 117.391 51.5414 118.002C50.3474 118.613 48.9591 118.918 47.3764 118.918H41.0039ZM43.7112 116.627H47.2514C48.3482 116.627 49.2923 116.419 50.0836 116.002C50.8888 115.586 51.5067 115.003 51.937 114.253C52.3813 113.503 52.6034 112.629 52.6034 111.629C52.6034 110.616 52.3813 109.741 51.937 109.005C51.5067 108.256 50.8888 107.672 50.0836 107.256C49.2923 106.839 48.3482 106.631 47.2514 106.631H43.7112V116.627ZM63.1861 119.064C61.9505 119.064 60.8676 118.821 59.9374 118.335C59.0211 117.835 58.3061 117.155 57.7924 116.294C57.2926 115.433 57.0427 114.454 57.0427 113.358C57.0427 112.247 57.2857 111.268 57.7716 110.421C58.2714 109.561 58.9517 108.887 59.8124 108.401C60.6871 107.915 61.6798 107.672 62.7904 107.672C63.8733 107.672 64.8382 107.909 65.6851 108.381C66.532 108.853 67.1984 109.519 67.6843 110.38C68.1702 111.241 68.4132 112.254 68.4132 113.42C68.4132 113.531 68.4062 113.656 68.3923 113.795C68.3923 113.934 68.3854 114.066 68.3715 114.191H59.1044V112.462H66.9971L65.9766 113.004C65.9905 112.365 65.8586 111.803 65.581 111.317C65.3033 110.831 64.9215 110.449 64.4356 110.171C63.9636 109.894 63.4152 109.755 62.7904 109.755C62.1518 109.755 61.5895 109.894 61.1036 110.171C60.6316 110.449 60.2567 110.838 59.979 111.338C59.7153 111.824 59.5834 112.4 59.5834 113.066V113.483C59.5834 114.149 59.7361 114.739 60.0415 115.253C60.347 115.766 60.7773 116.162 61.3327 116.44C61.888 116.717 62.5266 116.856 63.2486 116.856C63.8733 116.856 64.4356 116.759 64.9354 116.565C65.4352 116.37 65.8795 116.065 66.2682 115.648L67.6635 117.252C67.1637 117.835 66.532 118.286 65.7684 118.606C65.0187 118.911 64.1579 119.064 63.1861 119.064ZM73.6674 118.918L68.8985 107.797H71.6057L75.7082 117.606H74.3754L78.6237 107.797H81.1227L76.3538 118.918H73.6674ZM87.6717 119.064C86.4361 119.064 85.3532 118.821 84.423 118.335C83.5067 117.835 82.7917 117.155 82.278 116.294C81.7782 115.433 81.5283 114.454 81.5283 113.358C81.5283 112.247 81.7713 111.268 82.2572 110.421C82.757 109.561 83.4373 108.887 84.298 108.401C85.1727 107.915 86.1653 107.672 87.276 107.672C88.3589 107.672 89.3238 107.909 90.1707 108.381C91.0176 108.853 91.684 109.519 92.1699 110.38C92.6558 111.241 92.8988 112.254 92.8988 113.42C92.8988 113.531 92.8918 113.656 92.8779 113.795C92.8779 113.934 92.871 114.066 92.8571 114.191H83.59V112.462H91.4827L90.4622 113.004C90.4761 112.365 90.3442 111.803 90.0666 111.317C89.7889 110.831 89.4071 110.449 88.9212 110.171C88.4492 109.894 87.9008 109.755 87.276 109.755C86.6374 109.755 86.0751 109.894 85.5892 110.171C85.1172 110.449 84.7423 110.838 84.4646 111.338C84.2009 111.824 84.069 112.4 84.069 113.066V113.483C84.069 114.149 84.2217 114.739 84.5271 115.253C84.8326 115.766 85.2629 116.162 85.8183 116.44C86.3736 116.717 87.0122 116.856 87.7342 116.856C88.3589 116.856 88.9212 116.759 89.421 116.565C89.9208 116.37 90.365 116.065 90.7538 115.648L92.1491 117.252C91.6493 117.835 91.0176 118.286 90.254 118.606C89.5043 118.911 88.6435 119.064 87.6717 119.064ZM95.3992 118.918V103.466H98.0023V118.918H95.3992ZM106.417 119.064C105.278 119.064 104.265 118.821 103.376 118.335C102.488 117.835 101.787 117.155 101.273 116.294C100.759 115.433 100.503 114.454 100.503 113.358C100.503 112.247 100.759 111.268 101.273 110.421C101.787 109.561 102.488 108.887 103.376 108.401C104.265 107.915 105.278 107.672 106.417 107.672C107.569 107.672 108.59 107.915 109.478 108.401C110.381 108.887 111.082 109.554 111.582 110.401C112.095 111.247 112.352 112.233 112.352 113.358C112.352 114.454 112.095 115.433 111.582 116.294C111.082 117.155 110.381 117.835 109.478 118.335C108.59 118.821 107.569 119.064 106.417 119.064ZM106.417 116.835C107.056 116.835 107.625 116.697 108.125 116.419C108.624 116.141 109.013 115.739 109.291 115.211C109.582 114.684 109.728 114.066 109.728 113.358C109.728 112.636 109.582 112.018 109.291 111.504C109.013 110.977 108.624 110.574 108.125 110.296C107.625 110.019 107.062 109.88 106.438 109.88C105.799 109.88 105.23 110.019 104.73 110.296C104.244 110.574 103.855 110.977 103.564 111.504C103.272 112.018 103.127 112.636 103.127 113.358C103.127 114.066 103.272 114.684 103.564 115.211C103.855 115.739 104.244 116.141 104.73 116.419C105.23 116.697 105.792 116.835 106.417 116.835ZM121.005 119.064C120.103 119.064 119.277 118.855 118.527 118.439C117.791 118.022 117.201 117.398 116.757 116.565C116.327 115.718 116.112 114.649 116.112 113.358C116.112 112.053 116.32 110.984 116.736 110.151C117.167 109.318 117.75 108.7 118.486 108.297C119.221 107.881 120.061 107.672 121.005 107.672C122.102 107.672 123.067 107.909 123.9 108.381C124.747 108.853 125.413 109.512 125.899 110.359C126.399 111.206 126.649 112.205 126.649 113.358C126.649 114.51 126.399 115.517 125.899 116.377C125.413 117.224 124.747 117.884 123.9 118.356C123.067 118.828 122.102 119.064 121.005 119.064ZM114.841 122.958V107.797H117.319V110.421L117.236 113.379L117.444 116.336V122.958H114.841ZM120.714 116.835C121.339 116.835 121.894 116.697 122.38 116.419C122.88 116.141 123.275 115.739 123.567 115.211C123.858 114.684 124.004 114.066 124.004 113.358C124.004 112.636 123.858 112.018 123.567 111.504C123.275 110.977 122.88 110.574 122.38 110.296C121.894 110.019 121.339 109.88 120.714 109.88C120.089 109.88 119.527 110.019 119.027 110.296C118.527 110.574 118.132 110.977 117.84 111.504C117.549 112.018 117.403 112.636 117.403 113.358C117.403 114.066 117.549 114.684 117.84 115.211C118.132 115.739 118.527 116.141 119.027 116.419C119.527 116.697 120.089 116.835 120.714 116.835ZM143.154 107.672C144.042 107.672 144.827 107.846 145.507 108.193C146.201 108.54 146.743 109.075 147.131 109.797C147.52 110.505 147.714 111.421 147.714 112.546V118.918H145.111V112.879C145.111 111.893 144.896 111.157 144.466 110.671C144.035 110.185 143.418 109.942 142.612 109.942C142.043 109.942 141.536 110.067 141.092 110.317C140.662 110.567 140.322 110.935 140.072 111.421C139.836 111.907 139.718 112.525 139.718 113.274V118.918H137.115V112.879C137.115 111.893 136.899 111.157 136.469 110.671C136.039 110.185 135.421 109.942 134.616 109.942C134.046 109.942 133.54 110.067 133.095 110.317C132.665 110.567 132.325 110.935 132.075 111.421C131.839 111.907 131.721 112.525 131.721 113.274V118.918H129.118V107.797H131.596V110.755L131.159 109.88C131.533 109.158 132.075 108.61 132.783 108.235C133.505 107.86 134.324 107.672 135.24 107.672C136.282 107.672 137.184 107.929 137.948 108.443C138.725 108.957 139.239 109.734 139.489 110.775L138.468 110.421C138.829 109.588 139.426 108.922 140.259 108.422C141.092 107.922 142.057 107.672 143.154 107.672ZM156.288 119.064C155.053 119.064 153.97 118.821 153.04 118.335C152.123 117.835 151.408 117.155 150.895 116.294C150.395 115.433 150.145 114.454 150.145 113.358C150.145 112.247 150.388 111.268 150.874 110.421C151.374 109.561 152.054 108.887 152.915 108.401C153.789 107.915 154.782 107.672 155.893 107.672C156.976 107.672 157.94 107.909 158.787 108.381C159.634 108.853 160.301 109.519 160.786 110.38C161.272 111.241 161.515 112.254 161.515 113.42C161.515 113.531 161.508 113.656 161.495 113.795C161.495 113.934 161.488 114.066 161.474 114.191H152.207V112.462H160.099L159.079 113.004C159.093 112.365 158.961 111.803 158.683 111.317C158.405 110.831 158.024 110.449 157.538 110.171C157.066 109.894 156.517 109.755 155.893 109.755C155.254 109.755 154.692 109.894 154.206 110.171C153.734 110.449 153.359 110.838 153.081 111.338C152.817 111.824 152.686 112.4 152.686 113.066V113.483C152.686 114.149 152.838 114.739 153.144 115.253C153.449 115.766 153.88 116.162 154.435 116.44C154.99 116.717 155.629 116.856 156.351 116.856C156.976 116.856 157.538 116.759 158.038 116.565C158.537 116.37 158.982 116.065 159.37 115.648L160.766 117.252C160.266 117.835 159.634 118.286 158.871 118.606C158.121 118.911 157.26 119.064 156.288 119.064ZM170.326 107.672C171.214 107.672 172.006 107.846 172.7 108.193C173.408 108.54 173.963 109.075 174.366 109.797C174.768 110.505 174.97 111.421 174.97 112.546V118.918H172.367V112.879C172.367 111.893 172.131 111.157 171.659 110.671C171.2 110.185 170.555 109.942 169.722 109.942C169.111 109.942 168.57 110.067 168.098 110.317C167.625 110.567 167.258 110.942 166.994 111.442C166.744 111.928 166.619 112.546 166.619 113.295V118.918H164.016V107.797H166.494V110.796L166.057 109.88C166.445 109.172 167.008 108.63 167.743 108.256C168.493 107.867 169.354 107.672 170.326 107.672ZM182.458 119.064C181.236 119.064 180.292 118.751 179.626 118.127C178.959 117.488 178.626 116.551 178.626 115.315V105.34H181.229V115.253C181.229 115.78 181.361 116.19 181.625 116.481C181.902 116.773 182.284 116.919 182.77 116.919C183.353 116.919 183.839 116.766 184.228 116.461L184.957 118.314C184.651 118.564 184.276 118.751 183.832 118.876C183.388 119.001 182.93 119.064 182.458 119.064ZM176.793 109.963V107.881H184.207V109.963H176.793Z" fill="black"/>
</svg>
