<svg xmlns="http://www.w3.org/2000/svg" width="388.251" height="489.818" viewBox="0 0 388.251 489.818">
  <g id="development" transform="translate(-1030.891 -2015.763)">
    <g id="Group_404" data-name="Group 404" transform="translate(-395.504 -363.737)">
      <path id="Polygon_5" data-name="Polygon 5" d="M293.4,0l97.8,169.553L293.4,339.105H97.8L0,169.553,97.8,0Z" transform="translate(1790.074 2478.119) rotate(90)" fill="#0f52ba"/>
      <g id="Polygon_4" data-name="Polygon 4" transform="translate(1814.646 2379.5) rotate(90)" fill="#fff">
        <path d="M 335.8673400878906 387.7508850097656 L 112.3407287597656 387.7508850097656 L 0.5773364901542664 194.1253814697266 L 112.3407821655273 0.4999980628490448 L 335.8673400878906 0.4999980628490448 L 447.6307983398438 194.1254425048828 L 335.8673400878906 387.7508850097656 Z" stroke="none"/>
        <path d="M 112.6294555664062 1 L 1.15460205078125 194.1253814697266 L 112.6293334960938 387.2508850097656 L 335.5786743164062 387.2508850097656 L 447.0535278320312 194.1254425048828 L 335.5786743164062 1 L 112.6294555664062 1 M 112.0520629882812 0 L 336.1560668945312 0 L 448.2081298828125 194.1254425048828 L 336.1560668945312 388.2508850097656 L 112.0519409179688 388.2508850097656 L 0 194.1253814697266 L 112.0520629882812 0 Z" stroke="none" fill="#707070"/>
      </g>
    </g>
    <g id="Group_406" data-name="Group 406" transform="translate(28.629 -792.916)">
      <g id="development-2" data-name="development" transform="translate(1148 2858)">
        <path id="Path_423" data-name="Path 423" d="M72.136,10.654,62.467.871a2.4,2.4,0,0,0-3.429,0L30.009,30.209a2.48,2.48,0,0,0-.71,1.74v9.772a2.354,2.354,0,0,0,.71,1.73,2.3,2.3,0,0,0,1.709.721H41.4a2.426,2.426,0,0,0,1.709-.71L72.136,14.124a2.449,2.449,0,0,0,0-3.47ZM40.389,39.281H34.139V32.968l26.609-26.9L67,12.384Z" transform="translate(23.921 -0.15)" fill="#0f52ba"/>
        <path id="Path_424" data-name="Path 424" d="M90.49,24.916a2.444,2.444,0,0,0-2.42,2.451V61.6a7.266,7.266,0,0,1-.556,2.8,7.185,7.185,0,0,1-1.565,2.379,7.348,7.348,0,0,1-2.358,1.6,7.131,7.131,0,0,1-2.78.556H56.621a2.391,2.391,0,0,0-1.452.484L39.692,81.15V71.368a2.388,2.388,0,0,0-.71-1.73,2.325,2.325,0,0,0-1.709-.71H13.084a7.131,7.131,0,0,1-2.78-.556,7.462,7.462,0,0,1-2.358-1.6A7.187,7.187,0,0,1,6.38,64.4a7.269,7.269,0,0,1-.556-2.8V17.584a7.268,7.268,0,0,1,.556-2.8,7.125,7.125,0,0,1,1.565-2.389A7.433,7.433,0,0,1,10.3,10.809a7.129,7.129,0,0,1,2.78-.556H56.621a2.3,2.3,0,0,0,1.709-.721,2.354,2.354,0,0,0,.71-1.73,2.348,2.348,0,0,0-.71-1.72,2.3,2.3,0,0,0-1.709-.721H13.084a12.052,12.052,0,0,0-2.358.237,11.544,11.544,0,0,0-2.265.7A11.381,11.381,0,0,0,6.37,7.431,11.987,11.987,0,0,0,3.034,10.8a12.184,12.184,0,0,0-1.812,4.407,12.26,12.26,0,0,0-.237,2.379V61.6a12.339,12.339,0,0,0,.237,2.379,12.808,12.808,0,0,0,.69,2.3,12.979,12.979,0,0,0,1.122,2.111,12.247,12.247,0,0,0,1.5,1.843A11.8,11.8,0,0,0,6.37,71.749a12.038,12.038,0,0,0,2.09,1.133,11.513,11.513,0,0,0,2.265.69,11.314,11.314,0,0,0,2.358.247H34.853V86.042a2.247,2.247,0,0,0,1.339,2.173,2.213,2.213,0,0,0,1.081.268A2.266,2.266,0,0,0,38.724,88l18.71-14.18H80.81a12.048,12.048,0,0,0,2.358-.237,12.634,12.634,0,0,0,2.276-.7,12.328,12.328,0,0,0,2.08-1.133,11.807,11.807,0,0,0,1.833-1.524,12.253,12.253,0,0,0,1.5-1.843,12.981,12.981,0,0,0,1.122-2.111,12.017,12.017,0,0,0,.69-2.3,12.336,12.336,0,0,0,.237-2.379V27.367a2.444,2.444,0,0,0-2.42-2.451Z" transform="translate(-0.984 4.433)" fill="#0f52ba"/>
        <path id="Path_425" data-name="Path 425" d="M35.318,13.164H11.129a2.317,2.317,0,0,0-1.709.721,2.354,2.354,0,0,0-.711,1.73,2.388,2.388,0,0,0,.711,1.73,2.309,2.309,0,0,0,1.709.71H35.318a2.325,2.325,0,0,0,1.709-.71,2.388,2.388,0,0,0,.71-1.73,2.444,2.444,0,0,0-2.42-2.451Z" transform="translate(5.81 11.296)" fill="#0f52ba"/>
        <path id="Path_426" data-name="Path 426" d="M11.129,25.862H35.318a2.3,2.3,0,0,0,1.709-.721,2.449,2.449,0,0,0,0-3.45,2.3,2.3,0,0,0-1.709-.721H11.129a2.28,2.28,0,0,0-1.709.721,2.449,2.449,0,0,0,0,3.45A2.28,2.28,0,0,0,11.129,25.862Z" transform="translate(5.81 18.163)" fill="#0f52ba"/>
        <path id="Path_427" data-name="Path 427" d="M11.129,33.665H69.186a2.341,2.341,0,0,0,1.709-.71,2.378,2.378,0,0,0,.7-1.73,2.426,2.426,0,0,0-2.41-2.451H11.129a2.318,2.318,0,0,0-1.709.721,2.354,2.354,0,0,0-.711,1.73,2.388,2.388,0,0,0,.711,1.73A2.309,2.309,0,0,0,11.129,33.665Z" transform="translate(5.81 25.026)" fill="#0f52ba"/>
        <path id="Path_428" data-name="Path 428" d="M72.136,10.654,62.467.871a2.4,2.4,0,0,0-3.429,0L30.009,30.209a2.48,2.48,0,0,0-.71,1.74v9.772a2.354,2.354,0,0,0,.71,1.73,2.3,2.3,0,0,0,1.709.721H41.4a2.426,2.426,0,0,0,1.709-.71L72.136,14.124a2.449,2.449,0,0,0,0-3.47ZM40.389,39.281H34.139V32.968l26.609-26.9L67,12.384Z" transform="translate(23.921 -0.15)" fill="#0f52ba"/>
        <path id="Path_429" data-name="Path 429" d="M90.49,24.916a2.444,2.444,0,0,0-2.42,2.451V61.6a7.266,7.266,0,0,1-.556,2.8,7.185,7.185,0,0,1-1.565,2.379,7.348,7.348,0,0,1-2.358,1.6,7.131,7.131,0,0,1-2.78.556H56.621a2.391,2.391,0,0,0-1.452.484L39.692,81.15V71.368a2.388,2.388,0,0,0-.71-1.73,2.325,2.325,0,0,0-1.709-.71H13.084a7.131,7.131,0,0,1-2.78-.556,7.462,7.462,0,0,1-2.358-1.6A7.187,7.187,0,0,1,6.38,64.4a7.269,7.269,0,0,1-.556-2.8V17.584a7.268,7.268,0,0,1,.556-2.8,7.125,7.125,0,0,1,1.565-2.389A7.433,7.433,0,0,1,10.3,10.809a7.129,7.129,0,0,1,2.78-.556H56.621a2.3,2.3,0,0,0,1.709-.721,2.354,2.354,0,0,0,.71-1.73,2.348,2.348,0,0,0-.71-1.72,2.3,2.3,0,0,0-1.709-.721H13.084a12.052,12.052,0,0,0-2.358.237,11.544,11.544,0,0,0-2.265.7A11.381,11.381,0,0,0,6.37,7.431,11.987,11.987,0,0,0,3.034,10.8a12.184,12.184,0,0,0-1.812,4.407,12.26,12.26,0,0,0-.237,2.379V61.6a12.339,12.339,0,0,0,.237,2.379,12.808,12.808,0,0,0,.69,2.3,12.979,12.979,0,0,0,1.122,2.111,12.247,12.247,0,0,0,1.5,1.843A11.8,11.8,0,0,0,6.37,71.749a12.038,12.038,0,0,0,2.09,1.133,11.513,11.513,0,0,0,2.265.69,11.314,11.314,0,0,0,2.358.247H34.853V86.042a2.247,2.247,0,0,0,1.339,2.173,2.213,2.213,0,0,0,1.081.268A2.266,2.266,0,0,0,38.724,88l18.71-14.18H80.81a12.048,12.048,0,0,0,2.358-.237,12.634,12.634,0,0,0,2.276-.7,12.328,12.328,0,0,0,2.08-1.133,11.807,11.807,0,0,0,1.833-1.524,12.253,12.253,0,0,0,1.5-1.843,12.981,12.981,0,0,0,1.122-2.111,12.017,12.017,0,0,0,.69-2.3,12.336,12.336,0,0,0,.237-2.379V27.367a2.444,2.444,0,0,0-2.42-2.451Z" transform="translate(-0.984 4.433)" fill="#0f52ba"/>
        <path id="Path_430" data-name="Path 430" d="M35.318,13.164H11.129a2.317,2.317,0,0,0-1.709.721,2.354,2.354,0,0,0-.711,1.73,2.388,2.388,0,0,0,.711,1.73,2.309,2.309,0,0,0,1.709.71H35.318a2.325,2.325,0,0,0,1.709-.71,2.388,2.388,0,0,0,.71-1.73,2.444,2.444,0,0,0-2.42-2.451Z" transform="translate(5.81 11.296)" fill="#0f52ba"/>
        <path id="Path_431" data-name="Path 431" d="M11.129,25.862H35.318a2.3,2.3,0,0,0,1.709-.721,2.449,2.449,0,0,0,0-3.45,2.3,2.3,0,0,0-1.709-.721H11.129a2.28,2.28,0,0,0-1.709.721,2.449,2.449,0,0,0,0,3.45A2.28,2.28,0,0,0,11.129,25.862Z" transform="translate(5.81 18.163)" fill="#0f52ba"/>
        <path id="Path_432" data-name="Path 432" d="M11.129,33.665H69.186a2.341,2.341,0,0,0,1.709-.71,2.378,2.378,0,0,0,.7-1.73,2.426,2.426,0,0,0-2.41-2.451H11.129a2.318,2.318,0,0,0-1.709.721,2.354,2.354,0,0,0-.711,1.73,2.388,2.388,0,0,0,.711,1.73A2.309,2.309,0,0,0,11.129,33.665Z" transform="translate(5.81 25.026)" fill="#0f52ba"/>
      </g>
    </g>
    <path id="Path_468" data-name="Path 468" d="M59.157,12.046,66.835,12l-.022,2.31-7.634.044Zm.22,6.578,8.712-.022L68.067,21H56.539l.044-15.4h11.2l-.022,2.376L59.4,8ZM69.189,21l5.17-6.732-.044,1.474-4.928-6.49h3.058l3.454,4.62H74.733l3.476-4.62h2.97l-4.972,6.49.022-1.474L81.377,21h-3.1l-3.63-4.906,1.144.154L72.225,21Zm19.338.154a7.159,7.159,0,0,1-3.421-.781,5.659,5.659,0,0,1-2.266-2.145,6,6,0,0,1-.8-3.1,6.114,6.114,0,0,1,.781-3.113A5.6,5.6,0,0,1,84.974,9.89a6.306,6.306,0,0,1,3.135-.77,6.174,6.174,0,0,1,3.058.748,5.415,5.415,0,0,1,2.112,2.112,6.427,6.427,0,0,1,.77,3.212q0,.176-.011.4T94,16.006h-9.79V14.18h8.338l-1.078.572a3.376,3.376,0,0,0-.418-1.782,3.219,3.219,0,0,0-1.2-1.21,3.424,3.424,0,0,0-1.749-.44,3.468,3.468,0,0,0-1.771.44,3.119,3.119,0,0,0-1.188,1.221,3.757,3.757,0,0,0-.429,1.837v.44a3.589,3.589,0,0,0,.484,1.87,3.227,3.227,0,0,0,1.364,1.254,4.467,4.467,0,0,0,2.024.44,4.884,4.884,0,0,0,1.782-.308,3.793,3.793,0,0,0,1.408-.968l1.474,1.694a5.176,5.176,0,0,1-1.991,1.419A7.127,7.127,0,0,1,88.527,21.154Zm13.552,0a6.792,6.792,0,0,1-3.289-.781,5.774,5.774,0,0,1-2.255-2.145,5.936,5.936,0,0,1-.814-3.1,5.92,5.92,0,0,1,.814-3.113A5.72,5.72,0,0,1,98.79,9.89a6.87,6.87,0,0,1,3.289-.77,6.37,6.37,0,0,1,3.025.693,4.605,4.605,0,0,1,1.991,2.035l-2.112,1.232a3.378,3.378,0,0,0-1.287-1.232,3.491,3.491,0,0,0-1.639-.4,3.778,3.778,0,0,0-1.826.44,3.162,3.162,0,0,0-1.276,1.265,3.969,3.969,0,0,0-.462,1.969,3.969,3.969,0,0,0,.462,1.969,3.162,3.162,0,0,0,1.276,1.265,3.778,3.778,0,0,0,1.826.44,3.491,3.491,0,0,0,1.639-.4,3.378,3.378,0,0,0,1.287-1.232l2.112,1.232a4.76,4.76,0,0,1-1.991,2.035A6.21,6.21,0,0,1,102.079,21.154Zm12.364,0a5.924,5.924,0,0,1-2.64-.561,4.026,4.026,0,0,1-1.782-1.716,5.977,5.977,0,0,1-.638-2.915V9.252h2.75v6.336a3.4,3.4,0,0,0,.715,2.365,2.62,2.62,0,0,0,2.035.781,3.42,3.42,0,0,0,1.683-.4,2.753,2.753,0,0,0,1.122-1.188,4.252,4.252,0,0,0,.407-1.958V9.252h2.75V21h-2.618V17.832l.462.968a4.044,4.044,0,0,1-1.738,1.749A5.281,5.281,0,0,1,114.443,21.154Zm14.432,0a4.18,4.18,0,0,1-2.992-1,3.888,3.888,0,0,1-1.056-2.959V6.656h2.75V17.128a1.836,1.836,0,0,0,.429,1.3,1.555,1.555,0,0,0,1.2.462,2.416,2.416,0,0,0,1.54-.484l.77,1.958a3.231,3.231,0,0,1-1.188.594A5.337,5.337,0,0,1,128.875,21.154Zm-5.984-9.614V9.34h7.832v2.2ZM133.8,21l-.022-11.748,2.728.022L136.531,21Zm1.364-13.684a1.734,1.734,0,0,1-1.265-.484,1.572,1.572,0,0,1-.5-1.166,1.562,1.562,0,0,1,.5-1.177,1.756,1.756,0,0,1,1.265-.473,1.806,1.806,0,0,1,1.265.451,1.468,1.468,0,0,1,.495,1.133,1.679,1.679,0,0,1-.484,1.221A1.7,1.7,0,0,1,135.167,7.316ZM146.8,9.12a5.6,5.6,0,0,1,2.519.55,4.031,4.031,0,0,1,1.749,1.683,5.9,5.9,0,0,1,.638,2.915V21h-2.75V14.62a3.26,3.26,0,0,0-.737-2.332,2.712,2.712,0,0,0-2.057-.77,3.612,3.612,0,0,0-1.716.4,2.714,2.714,0,0,0-1.155,1.177,4.238,4.238,0,0,0-.407,1.969V21h-2.75V9.252h2.618V12.42l-.462-.968a4.164,4.164,0,0,1,1.793-1.727A5.862,5.862,0,0,1,146.8,9.12Zm13.75,16.3a11.87,11.87,0,0,1-3.179-.429,6.8,6.8,0,0,1-2.541-1.243l1.232-2.068a5.887,5.887,0,0,0,1.947,1.023,7.633,7.633,0,0,0,2.387.385,3.908,3.908,0,0,0,2.838-.891,3.6,3.6,0,0,0,.9-2.673v-2.09l.22-2.662-.088-2.662V9.252h2.618v9.966a6.114,6.114,0,0,1-1.628,4.7A6.688,6.688,0,0,1,160.555,25.422Zm-.352-4.95a6.373,6.373,0,0,1-3.025-.715,5.421,5.421,0,0,1-2.134-1.991,5.617,5.617,0,0,1-.781-2.992,5.574,5.574,0,0,1,.781-2.97,5.343,5.343,0,0,1,2.134-1.98,6.454,6.454,0,0,1,3.025-.7,5.919,5.919,0,0,1,2.684.594,4.48,4.48,0,0,1,1.9,1.848,6.429,6.429,0,0,1,.715,3.212A6.493,6.493,0,0,1,164.79,18a4.534,4.534,0,0,1-1.9,1.87A5.83,5.83,0,0,1,160.2,20.472Zm.418-2.332a3.9,3.9,0,0,0,1.848-.429,3.14,3.14,0,0,0,1.265-1.188,3.617,3.617,0,0,0,0-3.5,2.994,2.994,0,0,0-1.265-1.166,4.076,4.076,0,0,0-1.848-.407,4.146,4.146,0,0,0-1.859.407,2.981,2.981,0,0,0-1.276,1.166,3.617,3.617,0,0,0,0,3.5,3.123,3.123,0,0,0,1.276,1.188A3.969,3.969,0,0,0,160.621,18.14Zm19.58,3.014a10.28,10.28,0,0,1-2.827-.385,7.273,7.273,0,0,1-2.145-.935l1.056-2.09a7.51,7.51,0,0,0,1.892.836,7.622,7.622,0,0,0,2.2.33,3.791,3.791,0,0,0,1.881-.352,1.067,1.067,0,0,0,.583-.946.821.821,0,0,0-.4-.737,3.08,3.08,0,0,0-1.034-.385q-.638-.132-1.419-.242t-1.562-.3a5.391,5.391,0,0,1-1.419-.55,2.939,2.939,0,0,1-1.034-.979,2.973,2.973,0,0,1-.4-1.628,3.09,3.09,0,0,1,.638-1.947,4.073,4.073,0,0,1,1.793-1.276,7.52,7.52,0,0,1,2.739-.451,11.224,11.224,0,0,1,2.4.264,6.49,6.49,0,0,1,2,.748l-1.056,2.09a5.569,5.569,0,0,0-1.683-.693,7.788,7.788,0,0,0-1.683-.187,3.619,3.619,0,0,0-1.859.374,1.1,1.1,0,0,0-.6.946.888.888,0,0,0,.4.792,3.23,3.23,0,0,0,1.034.418,13.091,13.091,0,0,0,1.419.253,12.568,12.568,0,0,1,1.551.3,6.541,6.541,0,0,1,1.419.539,2.733,2.733,0,0,1,1.045.957,2.927,2.927,0,0,1,.4,1.606,2.979,2.979,0,0,1-.649,1.914,4.178,4.178,0,0,1-1.837,1.265A8,8,0,0,1,180.2,21.154Zm12.122,0a4.18,4.18,0,0,1-2.992-1,3.888,3.888,0,0,1-1.056-2.959V6.656h2.75V17.128a1.836,1.836,0,0,0,.429,1.3,1.555,1.555,0,0,0,1.2.462,2.416,2.416,0,0,0,1.54-.484l.77,1.958a3.231,3.231,0,0,1-1.188.594A5.337,5.337,0,0,1,192.323,21.154Zm-5.984-9.614V9.34h7.832v2.2ZM197.229,21V9.252h2.618v3.234l-.308-.946a3.716,3.716,0,0,1,1.661-1.8,5.864,5.864,0,0,1,2.827-.616v2.618a1.935,1.935,0,0,0-.33-.055q-.154-.011-.308-.011a3.382,3.382,0,0,0-2.486.913,3.661,3.661,0,0,0-.924,2.717V21Zm15.532,0V18.624l-.154-.506V13.96a2.434,2.434,0,0,0-.726-1.881,3.147,3.147,0,0,0-2.2-.671,6.319,6.319,0,0,0-1.947.308,4.783,4.783,0,0,0-1.617.858l-1.078-2a6.522,6.522,0,0,1,2.255-1.089,10.12,10.12,0,0,1,2.717-.363,5.812,5.812,0,0,1,3.949,1.221,4.751,4.751,0,0,1,1.4,3.773V21Zm-3.7.154a5.525,5.525,0,0,1-2.31-.451,3.569,3.569,0,0,1-1.529-1.254,3.182,3.182,0,0,1-.539-1.815,3.408,3.408,0,0,1,.473-1.782,3.189,3.189,0,0,1,1.551-1.254,7.371,7.371,0,0,1,2.86-.462h3.41v1.826h-3.212a2.865,2.865,0,0,0-1.892.451,1.459,1.459,0,0,0-.484,1.111,1.4,1.4,0,0,0,.594,1.188,2.723,2.723,0,0,0,1.65.44,3.573,3.573,0,0,0,1.815-.462,2.62,2.62,0,0,0,1.155-1.364l.462,1.65a3.056,3.056,0,0,1-1.419,1.606A5.248,5.248,0,0,1,209.065,21.154Zm14.234,0a4.18,4.18,0,0,1-2.992-1,3.888,3.888,0,0,1-1.056-2.959V6.656H222V17.128a1.836,1.836,0,0,0,.429,1.3,1.555,1.555,0,0,0,1.2.462,2.416,2.416,0,0,0,1.54-.484l.77,1.958a3.231,3.231,0,0,1-1.188.594A5.337,5.337,0,0,1,223.3,21.154Zm-5.984-9.614V9.34h7.832v2.2Zm16.016,9.614a7.159,7.159,0,0,1-3.421-.781,5.659,5.659,0,0,1-2.266-2.145,6,6,0,0,1-.8-3.1,6.114,6.114,0,0,1,.781-3.113,5.6,5.6,0,0,1,2.156-2.123,6.306,6.306,0,0,1,3.135-.77,6.174,6.174,0,0,1,3.058.748,5.415,5.415,0,0,1,2.112,2.112,6.427,6.427,0,0,1,.77,3.212q0,.176-.011.4t-.033.418h-9.79V14.18h8.338l-1.078.572a3.376,3.376,0,0,0-.418-1.782,3.219,3.219,0,0,0-1.2-1.21,3.424,3.424,0,0,0-1.749-.44,3.468,3.468,0,0,0-1.771.44,3.119,3.119,0,0,0-1.188,1.221,3.757,3.757,0,0,0-.429,1.837v.44a3.589,3.589,0,0,0,.484,1.87,3.227,3.227,0,0,0,1.364,1.254,4.467,4.467,0,0,0,2.024.44,4.884,4.884,0,0,0,1.782-.308,3.793,3.793,0,0,0,1.408-.968l1.474,1.694a5.176,5.176,0,0,1-1.991,1.419A7.127,7.127,0,0,1,233.331,21.154Zm13.486,4.268a11.87,11.87,0,0,1-3.179-.429A6.8,6.8,0,0,1,241.1,23.75l1.232-2.068a5.887,5.887,0,0,0,1.947,1.023,7.633,7.633,0,0,0,2.387.385A3.908,3.908,0,0,0,249.5,22.2a3.6,3.6,0,0,0,.9-2.673v-2.09l.22-2.662-.088-2.662V9.252h2.618v9.966a6.114,6.114,0,0,1-1.628,4.7A6.688,6.688,0,0,1,246.817,25.422Zm-.352-4.95a6.373,6.373,0,0,1-3.025-.715,5.421,5.421,0,0,1-2.134-1.991,5.617,5.617,0,0,1-.781-2.992,5.574,5.574,0,0,1,.781-2.97,5.343,5.343,0,0,1,2.134-1.98,6.454,6.454,0,0,1,3.025-.7,5.919,5.919,0,0,1,2.684.594,4.48,4.48,0,0,1,1.9,1.848,6.429,6.429,0,0,1,.715,3.212A6.493,6.493,0,0,1,251.052,18a4.534,4.534,0,0,1-1.9,1.87A5.83,5.83,0,0,1,246.465,20.472Zm.418-2.332a3.9,3.9,0,0,0,1.848-.429A3.14,3.14,0,0,0,250,16.523a3.617,3.617,0,0,0,0-3.5,2.994,2.994,0,0,0-1.265-1.166,4.076,4.076,0,0,0-1.848-.407,4.146,4.146,0,0,0-1.859.407,2.981,2.981,0,0,0-1.276,1.166,3.617,3.617,0,0,0,0,3.5,3.123,3.123,0,0,0,1.276,1.188A3.969,3.969,0,0,0,246.883,18.14Zm9.9,2.86-.022-11.748,2.728.022L259.511,21Zm1.364-13.684a1.734,1.734,0,0,1-1.265-.484,1.572,1.572,0,0,1-.495-1.166,1.562,1.562,0,0,1,.495-1.177,1.757,1.757,0,0,1,1.265-.473,1.806,1.806,0,0,1,1.265.451,1.468,1.468,0,0,1,.5,1.133,1.679,1.679,0,0,1-.484,1.221A1.7,1.7,0,0,1,258.147,7.316Zm10.362,13.838a6.792,6.792,0,0,1-3.289-.781,5.774,5.774,0,0,1-2.255-2.145,5.936,5.936,0,0,1-.814-3.1,5.92,5.92,0,0,1,.814-3.113A5.721,5.721,0,0,1,265.22,9.89a6.87,6.87,0,0,1,3.289-.77,6.37,6.37,0,0,1,3.025.693,4.605,4.605,0,0,1,1.991,2.035l-2.112,1.232a3.378,3.378,0,0,0-1.287-1.232,3.491,3.491,0,0,0-1.639-.4,3.778,3.778,0,0,0-1.826.44,3.162,3.162,0,0,0-1.276,1.265,3.969,3.969,0,0,0-.462,1.969,3.969,3.969,0,0,0,.462,1.969,3.162,3.162,0,0,0,1.276,1.265,3.778,3.778,0,0,0,1.826.44,3.491,3.491,0,0,0,1.639-.4,3.378,3.378,0,0,0,1.287-1.232l2.112,1.232a4.76,4.76,0,0,1-1.991,2.035A6.21,6.21,0,0,1,268.509,21.154Zm18.744,0a6.761,6.761,0,0,1-3.212-.792,5.78,5.78,0,0,1-2.222-2.123A5.92,5.92,0,0,1,281,15.126a5.8,5.8,0,0,1,3.047-5.236,6.522,6.522,0,0,1,3.2-.77,6.631,6.631,0,0,1,3.234.77A5.806,5.806,0,0,1,292.709,12a5.9,5.9,0,0,1,.814,3.124,6,6,0,0,1-.8,3.1,5.637,5.637,0,0,1-2.233,2.134A6.894,6.894,0,0,1,287.253,21.154Zm0-2.354a3.652,3.652,0,0,0,1.8-.44,3.113,3.113,0,0,0,1.243-1.276,4.312,4.312,0,0,0,0-3.927,3.129,3.129,0,0,0-1.243-1.265,3.652,3.652,0,0,0-1.8-.44,3.545,3.545,0,0,0-1.771.44,3.224,3.224,0,0,0-1.243,1.265,3.969,3.969,0,0,0-.462,1.969,3.984,3.984,0,0,0,.462,1.958,3.283,3.283,0,0,0,1.243,1.287A3.324,3.324,0,0,0,287.253,18.8Zm15.422,2.354a5.238,5.238,0,0,1-2.607-.66A4.691,4.691,0,0,1,298.2,18.5a7.28,7.28,0,0,1-.693-3.377,7.468,7.468,0,0,1,.671-3.388,4.523,4.523,0,0,1,1.837-1.969,5.381,5.381,0,0,1,2.662-.649,6.157,6.157,0,0,1,3.069.748,5.557,5.557,0,0,1,2.112,2.09,6.188,6.188,0,0,1,.781,3.168,6.248,6.248,0,0,1-.781,3.179,5.534,5.534,0,0,1-2.112,2.1A6.157,6.157,0,0,1,302.675,21.154Zm-6.512,4.114V9.252h2.618v2.772l-.088,3.124.22,3.124v7Zm6.2-6.468a3.545,3.545,0,0,0,1.771-.44,3.205,3.205,0,0,0,1.243-1.276,3.984,3.984,0,0,0,.462-1.958,3.969,3.969,0,0,0-.462-1.969,3.224,3.224,0,0,0-1.243-1.265,3.545,3.545,0,0,0-1.771-.44,3.606,3.606,0,0,0-1.782.44,3.2,3.2,0,0,0-1.254,1.265,3.969,3.969,0,0,0-.462,1.969,3.984,3.984,0,0,0,.462,1.958,3.183,3.183,0,0,0,1.254,1.276A3.606,3.606,0,0,0,302.367,18.8Zm15.4,2.354a5.238,5.238,0,0,1-2.607-.66,4.691,4.691,0,0,1-1.87-1.991,7.28,7.28,0,0,1-.693-3.377,7.468,7.468,0,0,1,.671-3.388A4.523,4.523,0,0,1,315.1,9.769a5.381,5.381,0,0,1,2.662-.649,6.157,6.157,0,0,1,3.069.748,5.557,5.557,0,0,1,2.112,2.09,6.188,6.188,0,0,1,.781,3.168,6.248,6.248,0,0,1-.781,3.179,5.534,5.534,0,0,1-2.112,2.1A6.157,6.157,0,0,1,317.767,21.154Zm-6.512,4.114V9.252h2.618v2.772l-.088,3.124.22,3.124v7Zm6.2-6.468a3.545,3.545,0,0,0,1.771-.44,3.205,3.205,0,0,0,1.243-1.276,3.984,3.984,0,0,0,.462-1.958,3.969,3.969,0,0,0-.462-1.969,3.224,3.224,0,0,0-1.243-1.265,3.545,3.545,0,0,0-1.771-.44,3.606,3.606,0,0,0-1.782.44,3.2,3.2,0,0,0-1.254,1.265,3.969,3.969,0,0,0-.462,1.969,3.984,3.984,0,0,0,.462,1.958,3.184,3.184,0,0,0,1.254,1.276A3.606,3.606,0,0,0,317.459,18.8Zm14.168,2.354a6.761,6.761,0,0,1-3.212-.792,5.78,5.78,0,0,1-2.222-2.123,5.92,5.92,0,0,1-.814-3.113,5.8,5.8,0,0,1,3.047-5.236,6.522,6.522,0,0,1,3.2-.77,6.631,6.631,0,0,1,3.234.77A5.806,5.806,0,0,1,337.083,12a5.9,5.9,0,0,1,.814,3.124,6,6,0,0,1-.8,3.1,5.637,5.637,0,0,1-2.233,2.134A6.894,6.894,0,0,1,331.627,21.154Zm0-2.354a3.652,3.652,0,0,0,1.8-.44,3.113,3.113,0,0,0,1.243-1.276,4.312,4.312,0,0,0,0-3.927,3.129,3.129,0,0,0-1.243-1.265,3.652,3.652,0,0,0-1.8-.44,3.545,3.545,0,0,0-1.771.44,3.224,3.224,0,0,0-1.243,1.265,3.969,3.969,0,0,0-.462,1.969,3.984,3.984,0,0,0,.462,1.958,3.283,3.283,0,0,0,1.243,1.287A3.324,3.324,0,0,0,331.627,18.8Zm8.91,2.2V9.252h2.618v3.234l-.308-.946a3.715,3.715,0,0,1,1.661-1.8,5.864,5.864,0,0,1,2.827-.616v2.618a1.935,1.935,0,0,0-.33-.055q-.154-.011-.308-.011a3.382,3.382,0,0,0-2.486.913,3.661,3.661,0,0,0-.924,2.717V21Zm13.992.154a4.18,4.18,0,0,1-2.992-1,3.888,3.888,0,0,1-1.056-2.959V6.656h2.75V17.128a1.836,1.836,0,0,0,.429,1.3,1.555,1.555,0,0,0,1.2.462,2.416,2.416,0,0,0,1.54-.484l.77,1.958a3.231,3.231,0,0,1-1.188.594A5.337,5.337,0,0,1,354.529,21.154Zm-5.984-9.614V9.34h7.832v2.2Zm15.862,9.614a5.924,5.924,0,0,1-2.64-.561,4.026,4.026,0,0,1-1.782-1.716,5.977,5.977,0,0,1-.638-2.915V9.252h2.75v6.336a3.4,3.4,0,0,0,.715,2.365,2.62,2.62,0,0,0,2.035.781,3.419,3.419,0,0,0,1.683-.4,2.753,2.753,0,0,0,1.122-1.188,4.252,4.252,0,0,0,.407-1.958V9.252h2.75V21h-2.618V17.832l.462.968a4.044,4.044,0,0,1-1.738,1.749A5.281,5.281,0,0,1,364.407,21.154ZM381.083,9.12a5.6,5.6,0,0,1,2.519.55,4.031,4.031,0,0,1,1.749,1.683,5.9,5.9,0,0,1,.638,2.915V21h-2.75V14.62a3.26,3.26,0,0,0-.737-2.332,2.712,2.712,0,0,0-2.057-.77,3.612,3.612,0,0,0-1.716.4,2.714,2.714,0,0,0-1.155,1.177,4.238,4.238,0,0,0-.407,1.969V21h-2.75V9.252h2.618V12.42l-.462-.968a4.164,4.164,0,0,1,1.793-1.727A5.862,5.862,0,0,1,381.083,9.12ZM389.509,21l-.022-11.748,2.728.022L392.237,21Zm1.364-13.684a1.734,1.734,0,0,1-1.265-.484,1.572,1.572,0,0,1-.495-1.166,1.562,1.562,0,0,1,.495-1.177,1.757,1.757,0,0,1,1.265-.473,1.806,1.806,0,0,1,1.265.451,1.468,1.468,0,0,1,.5,1.133,1.679,1.679,0,0,1-.484,1.221A1.7,1.7,0,0,1,390.873,7.316Zm9.394,13.838a4.18,4.18,0,0,1-2.992-1,3.888,3.888,0,0,1-1.056-2.959V6.656h2.75V17.128a1.836,1.836,0,0,0,.429,1.3,1.555,1.555,0,0,0,1.2.462,2.416,2.416,0,0,0,1.54-.484l.77,1.958a3.231,3.231,0,0,1-1.188.594A5.337,5.337,0,0,1,400.267,21.154Zm-5.984-9.614V9.34h7.832v2.2ZM405.195,21l-.022-11.748,2.728.022L407.923,21Zm1.364-13.684a1.734,1.734,0,0,1-1.265-.484,1.572,1.572,0,0,1-.495-1.166,1.562,1.562,0,0,1,.495-1.177,1.757,1.757,0,0,1,1.265-.473,1.806,1.806,0,0,1,1.265.451,1.468,1.468,0,0,1,.5,1.133,1.679,1.679,0,0,1-.484,1.221A1.7,1.7,0,0,1,406.559,7.316Zm10.494,13.838a7.159,7.159,0,0,1-3.421-.781,5.658,5.658,0,0,1-2.266-2.145,6,6,0,0,1-.8-3.1,6.114,6.114,0,0,1,.781-3.113A5.6,5.6,0,0,1,413.5,9.89a6.306,6.306,0,0,1,3.135-.77,6.174,6.174,0,0,1,3.058.748A5.415,5.415,0,0,1,421.8,11.98a6.427,6.427,0,0,1,.77,3.212q0,.176-.011.4t-.033.418h-9.79V14.18h8.338L420,14.752a3.376,3.376,0,0,0-.418-1.782,3.219,3.219,0,0,0-1.2-1.21,3.424,3.424,0,0,0-1.749-.44,3.468,3.468,0,0,0-1.771.44,3.118,3.118,0,0,0-1.188,1.221,3.757,3.757,0,0,0-.429,1.837v.44a3.589,3.589,0,0,0,.484,1.87,3.227,3.227,0,0,0,1.364,1.254,4.467,4.467,0,0,0,2.024.44,4.884,4.884,0,0,0,1.782-.308,3.793,3.793,0,0,0,1.408-.968l1.474,1.694a5.176,5.176,0,0,1-1.991,1.419A7.127,7.127,0,0,1,417.053,21.154Zm11.792,0a10.28,10.28,0,0,1-2.827-.385,7.273,7.273,0,0,1-2.145-.935l1.056-2.09a7.51,7.51,0,0,0,1.892.836,7.622,7.622,0,0,0,2.2.33,3.791,3.791,0,0,0,1.881-.352,1.067,1.067,0,0,0,.583-.946.821.821,0,0,0-.4-.737,3.08,3.08,0,0,0-1.034-.385q-.638-.132-1.419-.242t-1.562-.3a5.391,5.391,0,0,1-1.419-.55,2.94,2.94,0,0,1-1.034-.979,2.973,2.973,0,0,1-.4-1.628,3.09,3.09,0,0,1,.638-1.947,4.073,4.073,0,0,1,1.793-1.276,7.521,7.521,0,0,1,2.739-.451,11.223,11.223,0,0,1,2.4.264,6.49,6.49,0,0,1,2,.748l-1.056,2.09a5.569,5.569,0,0,0-1.683-.693,7.787,7.787,0,0,0-1.683-.187,3.619,3.619,0,0,0-1.859.374,1.1,1.1,0,0,0-.605.946.888.888,0,0,0,.4.792,3.231,3.231,0,0,0,1.034.418,13.09,13.09,0,0,0,1.419.253,12.57,12.57,0,0,1,1.551.3,6.54,6.54,0,0,1,1.419.539,2.733,2.733,0,0,1,1.045.957,2.927,2.927,0,0,1,.4,1.606,2.979,2.979,0,0,1-.649,1.914,4.178,4.178,0,0,1-1.837,1.265A8,8,0,0,1,428.845,21.154Zm6.974,3.168,1.276-4.862.374,1.628a1.835,1.835,0,0,1-1.287-.473,1.658,1.658,0,0,1-.517-1.287,1.733,1.733,0,0,1,1.782-1.826,1.73,1.73,0,0,1,1.276.506,1.785,1.785,0,0,1,.506,1.32,2.77,2.77,0,0,1-.044.473,5.111,5.111,0,0,1-.143.583,7.859,7.859,0,0,1-.319.836l-1.122,3.1ZM76.614,48l-.022-11.748,2.728.022L79.342,48Zm1.364-13.684a1.734,1.734,0,0,1-1.265-.484,1.634,1.634,0,0,1,0-2.343,1.756,1.756,0,0,1,1.265-.473,1.806,1.806,0,0,1,1.265.451,1.468,1.468,0,0,1,.495,1.133,1.679,1.679,0,0,1-.484,1.221A1.7,1.7,0,0,1,77.978,34.316Zm11.638,1.8a5.6,5.6,0,0,1,2.519.55,4.031,4.031,0,0,1,1.749,1.683,5.9,5.9,0,0,1,.638,2.915V48h-2.75V41.62a3.26,3.26,0,0,0-.737-2.332,2.712,2.712,0,0,0-2.057-.77,3.612,3.612,0,0,0-1.716.4,2.714,2.714,0,0,0-1.155,1.177A4.238,4.238,0,0,0,85.7,42.06V48H82.95V36.252h2.618V39.42l-.462-.968A4.164,4.164,0,0,1,86.9,36.725,5.862,5.862,0,0,1,89.616,36.12ZM98.042,48,98.02,36.252l2.728.022L100.77,48Zm1.364-13.684a1.734,1.734,0,0,1-1.265-.484,1.634,1.634,0,0,1,0-2.343,1.756,1.756,0,0,1,1.265-.473,1.806,1.806,0,0,1,1.265.451,1.468,1.468,0,0,1,.495,1.133,1.679,1.679,0,0,1-.484,1.221A1.7,1.7,0,0,1,99.406,34.316ZM108.8,48.154a4.18,4.18,0,0,1-2.992-1,3.888,3.888,0,0,1-1.056-2.959V33.656h2.75V44.128a1.836,1.836,0,0,0,.429,1.3,1.555,1.555,0,0,0,1.2.462,2.416,2.416,0,0,0,1.54-.484l.77,1.958a3.231,3.231,0,0,1-1.188.594A5.337,5.337,0,0,1,108.8,48.154Zm-5.984-9.614v-2.2h7.832v2.2ZM113.728,48l-.022-11.748,2.728.022L116.456,48Zm1.364-13.684a1.734,1.734,0,0,1-1.265-.484,1.634,1.634,0,0,1,0-2.343,1.756,1.756,0,0,1,1.265-.473,1.806,1.806,0,0,1,1.265.451,1.468,1.468,0,0,1,.495,1.133,1.679,1.679,0,0,1-.484,1.221A1.7,1.7,0,0,1,115.092,34.316ZM127.3,48V45.624l-.154-.506V40.96a2.434,2.434,0,0,0-.726-1.881,3.147,3.147,0,0,0-2.2-.671,6.318,6.318,0,0,0-1.947.308,4.783,4.783,0,0,0-1.617.858l-1.078-2a6.522,6.522,0,0,1,2.255-1.089,10.121,10.121,0,0,1,2.717-.363,5.812,5.812,0,0,1,3.949,1.221,4.751,4.751,0,0,1,1.4,3.773V48Zm-3.7.154a5.525,5.525,0,0,1-2.31-.451,3.569,3.569,0,0,1-1.529-1.254,3.182,3.182,0,0,1-.539-1.815,3.408,3.408,0,0,1,.473-1.782,3.189,3.189,0,0,1,1.551-1.254,7.371,7.371,0,0,1,2.86-.462h3.41v1.826H124.31a2.865,2.865,0,0,0-1.892.451,1.459,1.459,0,0,0-.484,1.111,1.4,1.4,0,0,0,.594,1.188,2.723,2.723,0,0,0,1.65.44,3.573,3.573,0,0,0,1.815-.462,2.619,2.619,0,0,0,1.155-1.364l.462,1.65a3.056,3.056,0,0,1-1.419,1.606A5.248,5.248,0,0,1,123.606,48.154Zm14.234,0a4.18,4.18,0,0,1-2.992-1,3.888,3.888,0,0,1-1.056-2.959V33.656h2.75V44.128a1.836,1.836,0,0,0,.429,1.3,1.555,1.555,0,0,0,1.2.462,2.416,2.416,0,0,0,1.54-.484l.77,1.958a3.231,3.231,0,0,1-1.188.594A5.337,5.337,0,0,1,137.84,48.154Zm-5.984-9.614v-2.2h7.832v2.2ZM142.768,48l-.022-11.748,2.728.022L145.5,48Zm1.364-13.684a1.734,1.734,0,0,1-1.265-.484,1.634,1.634,0,0,1,0-2.343,1.756,1.756,0,0,1,1.265-.473,1.806,1.806,0,0,1,1.265.451,1.468,1.468,0,0,1,.495,1.133,1.679,1.679,0,0,1-.484,1.221A1.7,1.7,0,0,1,144.132,34.316ZM152.228,48,147.19,36.252h2.86l4.334,10.362h-1.408l4.488-10.362h2.64L155.066,48Zm14.784.154a7.159,7.159,0,0,1-3.421-.781,5.659,5.659,0,0,1-2.266-2.145,6,6,0,0,1-.8-3.1,6.114,6.114,0,0,1,.781-3.113,5.6,5.6,0,0,1,2.156-2.123,6.306,6.306,0,0,1,3.135-.77,6.174,6.174,0,0,1,3.058.748,5.415,5.415,0,0,1,2.112,2.112,6.427,6.427,0,0,1,.77,3.212q0,.176-.011.4t-.033.418H162.7V41.18h8.338l-1.078.572a3.376,3.376,0,0,0-.418-1.782,3.219,3.219,0,0,0-1.2-1.21,3.424,3.424,0,0,0-1.749-.44,3.468,3.468,0,0,0-1.771.44,3.119,3.119,0,0,0-1.188,1.221,3.757,3.757,0,0,0-.429,1.837v.44a3.589,3.589,0,0,0,.484,1.87,3.227,3.227,0,0,0,1.364,1.254,4.467,4.467,0,0,0,2.024.44,4.884,4.884,0,0,0,1.782-.308,3.793,3.793,0,0,0,1.408-.968l1.474,1.694a5.176,5.176,0,0,1-1.991,1.419A7.127,7.127,0,0,1,167.012,48.154Zm11.792,0a10.28,10.28,0,0,1-2.827-.385,7.273,7.273,0,0,1-2.145-.935l1.056-2.09a7.51,7.51,0,0,0,1.892.836,7.622,7.622,0,0,0,2.2.33,3.791,3.791,0,0,0,1.881-.352,1.067,1.067,0,0,0,.583-.946.821.821,0,0,0-.4-.737,3.08,3.08,0,0,0-1.034-.385q-.638-.132-1.419-.242t-1.562-.3a5.391,5.391,0,0,1-1.419-.55,2.939,2.939,0,0,1-1.034-.979,2.973,2.973,0,0,1-.4-1.628,3.09,3.09,0,0,1,.638-1.947,4.073,4.073,0,0,1,1.793-1.276,7.521,7.521,0,0,1,2.739-.451,11.224,11.224,0,0,1,2.4.264,6.49,6.49,0,0,1,2,.748l-1.056,2.09a5.569,5.569,0,0,0-1.683-.693,7.788,7.788,0,0,0-1.683-.187,3.619,3.619,0,0,0-1.859.374,1.1,1.1,0,0,0-.6.946.888.888,0,0,0,.4.792,3.23,3.23,0,0,0,1.034.418,13.091,13.091,0,0,0,1.419.253,12.568,12.568,0,0,1,1.551.3,6.541,6.541,0,0,1,1.419.539,2.733,2.733,0,0,1,1.045.957,2.927,2.927,0,0,1,.4,1.606,2.979,2.979,0,0,1-.649,1.914,4.178,4.178,0,0,1-1.837,1.265A8,8,0,0,1,178.8,48.154Zm6.974,3.168,1.276-4.862.374,1.628a1.835,1.835,0,0,1-1.287-.473,1.658,1.658,0,0,1-.517-1.287,1.733,1.733,0,0,1,1.782-1.826,1.73,1.73,0,0,1,1.276.506,1.785,1.785,0,0,1,.506,1.32,2.769,2.769,0,0,1-.044.473,5.117,5.117,0,0,1-.143.583,7.856,7.856,0,0,1-.319.836l-1.122,3.1ZM197.966,48l-.022-11.748,2.728.022L200.694,48Zm1.364-13.684a1.734,1.734,0,0,1-1.265-.484,1.634,1.634,0,0,1,0-2.343,1.756,1.756,0,0,1,1.265-.473,1.806,1.806,0,0,1,1.265.451,1.468,1.468,0,0,1,.495,1.133,1.679,1.679,0,0,1-.484,1.221A1.7,1.7,0,0,1,199.33,34.316Zm9.944,13.838a6.119,6.119,0,0,1-3.047-.759,5.513,5.513,0,0,1-2.123-2.1,6.9,6.9,0,0,1,0-6.336,5.436,5.436,0,0,1,2.123-2.09,6.191,6.191,0,0,1,3.047-.748,5.335,5.335,0,0,1,2.64.649,4.587,4.587,0,0,1,1.848,1.969,7.365,7.365,0,0,1,.682,3.388,7.589,7.589,0,0,1-.66,3.377,4.515,4.515,0,0,1-1.826,1.991A5.354,5.354,0,0,1,209.274,48.154Zm.33-2.354a3.545,3.545,0,0,0,1.771-.44,3.279,3.279,0,0,0,1.254-1.276,4.312,4.312,0,0,0,0-3.927,3.3,3.3,0,0,0-1.254-1.265,3.784,3.784,0,0,0-3.542,0,3.3,3.3,0,0,0-1.254,1.265,4.312,4.312,0,0,0,0,3.927,3.28,3.28,0,0,0,1.254,1.276A3.545,3.545,0,0,0,209.6,45.8Zm3.564,2.2V45.228l.11-3.124-.22-3.124v-7.3h2.728V48Zm11.77.154a7.159,7.159,0,0,1-3.421-.781,5.659,5.659,0,0,1-2.266-2.145,6,6,0,0,1-.8-3.1,6.114,6.114,0,0,1,.781-3.113,5.6,5.6,0,0,1,2.156-2.123,6.306,6.306,0,0,1,3.135-.77,6.174,6.174,0,0,1,3.058.748,5.415,5.415,0,0,1,2.112,2.112,6.427,6.427,0,0,1,.77,3.212q0,.176-.011.4t-.033.418h-9.79V41.18h8.338l-1.078.572a3.376,3.376,0,0,0-.418-1.782,3.219,3.219,0,0,0-1.2-1.21,3.424,3.424,0,0,0-1.749-.44,3.468,3.468,0,0,0-1.771.44,3.119,3.119,0,0,0-1.188,1.221,3.757,3.757,0,0,0-.429,1.837v.44a3.589,3.589,0,0,0,.484,1.87,3.227,3.227,0,0,0,1.364,1.254,4.467,4.467,0,0,0,2.024.44,4.884,4.884,0,0,0,1.782-.308,3.793,3.793,0,0,0,1.408-.968l1.474,1.694a5.176,5.176,0,0,1-1.991,1.419A7.127,7.127,0,0,1,224.938,48.154ZM240.008,48V45.624l-.154-.506V40.96a2.434,2.434,0,0,0-.726-1.881,3.147,3.147,0,0,0-2.2-.671,6.318,6.318,0,0,0-1.947.308,4.783,4.783,0,0,0-1.617.858l-1.078-2a6.522,6.522,0,0,1,2.255-1.089,10.12,10.12,0,0,1,2.717-.363,5.812,5.812,0,0,1,3.949,1.221,4.751,4.751,0,0,1,1.4,3.773V48Zm-3.7.154A5.525,5.525,0,0,1,234,47.7a3.569,3.569,0,0,1-1.529-1.254,3.182,3.182,0,0,1-.539-1.815,3.408,3.408,0,0,1,.473-1.782,3.189,3.189,0,0,1,1.551-1.254,7.371,7.371,0,0,1,2.86-.462h3.41v1.826h-3.212a2.865,2.865,0,0,0-1.892.451,1.459,1.459,0,0,0-.484,1.111,1.4,1.4,0,0,0,.594,1.188,2.723,2.723,0,0,0,1.65.44,3.573,3.573,0,0,0,1.815-.462,2.62,2.62,0,0,0,1.155-1.364l.462,1.65a3.056,3.056,0,0,1-1.419,1.606A5.248,5.248,0,0,1,236.312,48.154Zm13.442,0a10.28,10.28,0,0,1-2.827-.385,7.273,7.273,0,0,1-2.145-.935l1.056-2.09a7.51,7.51,0,0,0,1.892.836,7.622,7.622,0,0,0,2.2.33,3.791,3.791,0,0,0,1.881-.352,1.067,1.067,0,0,0,.583-.946.821.821,0,0,0-.4-.737,3.08,3.08,0,0,0-1.034-.385q-.638-.132-1.419-.242t-1.562-.3a5.391,5.391,0,0,1-1.419-.55,2.939,2.939,0,0,1-1.034-.979,2.973,2.973,0,0,1-.4-1.628,3.09,3.09,0,0,1,.638-1.947,4.073,4.073,0,0,1,1.793-1.276,7.521,7.521,0,0,1,2.739-.451,11.224,11.224,0,0,1,2.4.264,6.49,6.49,0,0,1,2,.748l-1.056,2.09a5.569,5.569,0,0,0-1.683-.693,7.788,7.788,0,0,0-1.683-.187,3.619,3.619,0,0,0-1.859.374,1.1,1.1,0,0,0-.6.946.888.888,0,0,0,.4.792,3.23,3.23,0,0,0,1.034.418,13.091,13.091,0,0,0,1.419.253,12.568,12.568,0,0,1,1.551.3,6.541,6.541,0,0,1,1.419.539,2.733,2.733,0,0,1,1.045.957,2.927,2.927,0,0,1,.4,1.606,2.979,2.979,0,0,1-.649,1.914,4.178,4.178,0,0,1-1.837,1.265A8,8,0,0,1,249.754,48.154Zm18.48.066a7.477,7.477,0,0,1-2.882-.528,4.825,4.825,0,0,1-2-1.452,3.357,3.357,0,0,1-.726-2.134,4.04,4.04,0,0,1,.484-1.98,5.521,5.521,0,0,1,1.54-1.683,16.753,16.753,0,0,1,2.706-1.617,19.577,19.577,0,0,0,2.035-1.122,3.665,3.665,0,0,0,1.034-.924,1.626,1.626,0,0,0,.3-.924,1.354,1.354,0,0,0-.462-1.067,1.935,1.935,0,0,0-1.32-.407,2.121,2.121,0,0,0-1.441.451,1.488,1.488,0,0,0-.517,1.177,1.912,1.912,0,0,0,.143.726,3.062,3.062,0,0,0,.517.792q.374.44,1.078,1.122l8.14,7.81-1.518,1.782-8.8-8.448a11.718,11.718,0,0,1-1.21-1.342,4.361,4.361,0,0,1-.66-1.2,3.7,3.7,0,0,1-.2-1.2,3.351,3.351,0,0,1,.55-1.9,3.565,3.565,0,0,1,1.562-1.276,5.737,5.737,0,0,1,2.354-.451,5.291,5.291,0,0,1,2.167.407A3.318,3.318,0,0,1,272.535,34a3.146,3.146,0,0,1,.517,1.815,3.289,3.289,0,0,1-.462,1.7A5.068,5.068,0,0,1,271.149,39a16.982,16.982,0,0,1-2.607,1.474,12.257,12.257,0,0,0-1.914,1.122,3.745,3.745,0,0,0-1.012,1.056,2.272,2.272,0,0,0-.308,1.166,1.75,1.75,0,0,0,.385,1.122,2.527,2.527,0,0,0,1.089.759,4.522,4.522,0,0,0,1.65.275,5.119,5.119,0,0,0,4.51-2.508,8.884,8.884,0,0,0,1.144-3.1l2.222.726a10.033,10.033,0,0,1-1.6,3.817,7.8,7.8,0,0,1-2.783,2.453A7.89,7.89,0,0,1,268.234,48.22Zm22.286-.066a6.792,6.792,0,0,1-3.289-.781,5.774,5.774,0,0,1-2.255-2.145,6.339,6.339,0,0,1,0-6.215,5.721,5.721,0,0,1,2.255-2.123,6.87,6.87,0,0,1,3.289-.77,6.37,6.37,0,0,1,3.025.693,4.605,4.605,0,0,1,1.991,2.035l-2.112,1.232a3.378,3.378,0,0,0-1.287-1.232,3.491,3.491,0,0,0-1.639-.4,3.778,3.778,0,0,0-1.826.44,3.162,3.162,0,0,0-1.276,1.265,4.427,4.427,0,0,0,0,3.938,3.162,3.162,0,0,0,1.276,1.265,3.778,3.778,0,0,0,1.826.44,3.491,3.491,0,0,0,1.639-.4,3.378,3.378,0,0,0,1.287-1.232l2.112,1.232a4.76,4.76,0,0,1-1.991,2.035A6.21,6.21,0,0,1,290.52,48.154ZM297.912,48V36.252h2.618v3.234l-.308-.946a3.715,3.715,0,0,1,1.661-1.8,5.864,5.864,0,0,1,2.827-.616v2.618a1.935,1.935,0,0,0-.33-.055q-.154-.011-.308-.011a3.382,3.382,0,0,0-2.486.913,3.661,3.661,0,0,0-.924,2.717V48Zm14.542.154a7.159,7.159,0,0,1-3.421-.781,5.658,5.658,0,0,1-2.266-2.145,6,6,0,0,1-.8-3.1,6.114,6.114,0,0,1,.781-3.113A5.6,5.6,0,0,1,308.9,36.89a6.306,6.306,0,0,1,3.135-.77,6.174,6.174,0,0,1,3.058.748,5.415,5.415,0,0,1,2.112,2.112,6.427,6.427,0,0,1,.77,3.212q0,.176-.011.4t-.033.418h-9.79V41.18h8.338l-1.078.572a3.376,3.376,0,0,0-.418-1.782,3.219,3.219,0,0,0-1.2-1.21,3.424,3.424,0,0,0-1.749-.44,3.468,3.468,0,0,0-1.771.44,3.118,3.118,0,0,0-1.188,1.221,3.757,3.757,0,0,0-.429,1.837v.44a3.589,3.589,0,0,0,.484,1.87,3.227,3.227,0,0,0,1.364,1.254,4.467,4.467,0,0,0,2.024.44,4.884,4.884,0,0,0,1.782-.308,3.793,3.793,0,0,0,1.408-.968l1.474,1.694a5.176,5.176,0,0,1-1.991,1.419A7.127,7.127,0,0,1,312.454,48.154ZM327.524,48V45.624l-.154-.506V40.96a2.434,2.434,0,0,0-.726-1.881,3.146,3.146,0,0,0-2.2-.671,6.318,6.318,0,0,0-1.947.308,4.783,4.783,0,0,0-1.617.858l-1.078-2a6.522,6.522,0,0,1,2.255-1.089,10.12,10.12,0,0,1,2.717-.363,5.812,5.812,0,0,1,3.949,1.221,4.751,4.751,0,0,1,1.4,3.773V48Zm-3.7.154a5.525,5.525,0,0,1-2.31-.451,3.569,3.569,0,0,1-1.529-1.254,3.182,3.182,0,0,1-.539-1.815,3.408,3.408,0,0,1,.473-1.782,3.189,3.189,0,0,1,1.551-1.254,7.371,7.371,0,0,1,2.86-.462h3.41v1.826h-3.212a2.865,2.865,0,0,0-1.892.451,1.459,1.459,0,0,0-.484,1.111,1.4,1.4,0,0,0,.594,1.188,2.723,2.723,0,0,0,1.65.44,3.573,3.573,0,0,0,1.815-.462,2.619,2.619,0,0,0,1.155-1.364l.462,1.65a3.056,3.056,0,0,1-1.419,1.606A5.248,5.248,0,0,1,323.828,48.154Zm14.234,0a4.18,4.18,0,0,1-2.992-1,3.888,3.888,0,0,1-1.056-2.959V33.656h2.75V44.128a1.836,1.836,0,0,0,.429,1.3,1.555,1.555,0,0,0,1.2.462,2.416,2.416,0,0,0,1.54-.484l.77,1.958a3.231,3.231,0,0,1-1.188.594A5.337,5.337,0,0,1,338.062,48.154Zm-5.984-9.614v-2.2h7.832v2.2ZM342.99,48l-.022-11.748,2.728.022L345.718,48Zm1.364-13.684a1.734,1.734,0,0,1-1.265-.484,1.634,1.634,0,0,1,0-2.343,1.757,1.757,0,0,1,1.265-.473,1.806,1.806,0,0,1,1.265.451,1.468,1.468,0,0,1,.5,1.133,1.679,1.679,0,0,1-.484,1.221A1.7,1.7,0,0,1,344.354,34.316ZM352.45,48l-5.038-11.748h2.86l4.334,10.362H353.2l4.488-10.362h2.64L355.288,48Zm9.614,0-.022-11.748,2.728.022L364.792,48Zm1.364-13.684a1.734,1.734,0,0,1-1.265-.484,1.634,1.634,0,0,1,0-2.343,1.757,1.757,0,0,1,1.265-.473,1.806,1.806,0,0,1,1.265.451,1.468,1.468,0,0,1,.5,1.133,1.679,1.679,0,0,1-.484,1.221A1.7,1.7,0,0,1,363.428,34.316Zm9.394,13.838a4.18,4.18,0,0,1-2.992-1,3.888,3.888,0,0,1-1.056-2.959V33.656h2.75V44.128a1.836,1.836,0,0,0,.429,1.3,1.555,1.555,0,0,0,1.2.462,2.416,2.416,0,0,0,1.54-.484l.77,1.958a3.231,3.231,0,0,1-1.188.594A5.337,5.337,0,0,1,372.822,48.154Zm-5.984-9.614v-2.2h7.832v2.2Zm11.638,13.882a5.4,5.4,0,0,1-1.716-.286,4.07,4.07,0,0,1-1.43-.792l1.1-2.024a3.326,3.326,0,0,0,.946.594,2.779,2.779,0,0,0,1.078.22,1.864,1.864,0,0,0,1.21-.374,3.384,3.384,0,0,0,.858-1.254l.682-1.54.22-.33,4.444-10.384h2.64l-5.5,12.694a7.663,7.663,0,0,1-1.221,2.09,3.71,3.71,0,0,1-1.5,1.078A5.152,5.152,0,0,1,378.476,52.422Zm2.42-4-5.3-12.166h2.86l4.312,10.142ZM396.67,48V35.592a4.045,4.045,0,0,1,1.089-2.959,4.163,4.163,0,0,1,3.113-1.111,5.94,5.94,0,0,1,1.375.154,2.914,2.914,0,0,1,1.089.484l-.748,2.068a2.14,2.14,0,0,0-.7-.363,2.77,2.77,0,0,0-.814-.121,1.687,1.687,0,0,0-1.3.473,2.018,2.018,0,0,0-.44,1.419v1.32l.088,1.232V48Zm-1.936-9.46v-2.2h7.832v2.2Zm14.784,9.614a6.761,6.761,0,0,1-3.212-.792,5.78,5.78,0,0,1-2.222-2.123,5.92,5.92,0,0,1-.814-3.113,5.8,5.8,0,0,1,3.047-5.236,6.522,6.522,0,0,1,3.2-.77,6.631,6.631,0,0,1,3.234.77A5.806,5.806,0,0,1,414.974,39a5.9,5.9,0,0,1,.814,3.124,6,6,0,0,1-.8,3.1,5.637,5.637,0,0,1-2.233,2.134A6.894,6.894,0,0,1,409.518,48.154Zm0-2.354a3.652,3.652,0,0,0,1.8-.44,3.113,3.113,0,0,0,1.243-1.276,4.312,4.312,0,0,0,0-3.927,3.129,3.129,0,0,0-1.243-1.265,3.652,3.652,0,0,0-1.8-.44,3.545,3.545,0,0,0-1.771.44,3.224,3.224,0,0,0-1.243,1.265,4.4,4.4,0,0,0,0,3.927,3.283,3.283,0,0,0,1.243,1.287A3.324,3.324,0,0,0,409.518,45.8Zm8.91,2.2V36.252h2.618v3.234l-.308-.946a3.715,3.715,0,0,1,1.661-1.8,5.864,5.864,0,0,1,2.827-.616v2.618a1.935,1.935,0,0,0-.33-.055q-.154-.011-.308-.011a3.382,3.382,0,0,0-2.486.913,3.661,3.661,0,0,0-.924,2.717V48ZM90.023,75.154a5.309,5.309,0,0,1-2.662-.66A4.58,4.58,0,0,1,85.524,72.5a7.482,7.482,0,0,1-.671-3.377,7.266,7.266,0,0,1,.693-3.388,4.633,4.633,0,0,1,1.87-1.969,5.308,5.308,0,0,1,2.607-.649,6.157,6.157,0,0,1,3.069.748,5.557,5.557,0,0,1,2.112,2.09,6.816,6.816,0,0,1,0,6.336,5.638,5.638,0,0,1-2.112,2.1A6.086,6.086,0,0,1,90.023,75.154ZM83.511,75V58.676h2.75v7.3l-.22,3.124.088,3.124V75Zm6.2-2.2a3.545,3.545,0,0,0,1.771-.44,3.205,3.205,0,0,0,1.243-1.276,4.4,4.4,0,0,0,0-3.927,3.223,3.223,0,0,0-1.243-1.265,3.545,3.545,0,0,0-1.771-.44,3.607,3.607,0,0,0-1.782.44,3.2,3.2,0,0,0-1.254,1.265,4.4,4.4,0,0,0,0,3.927,3.183,3.183,0,0,0,1.254,1.276A3.607,3.607,0,0,0,89.715,72.8Zm13.86,2.354a5.924,5.924,0,0,1-2.64-.561,4.026,4.026,0,0,1-1.782-1.716,5.977,5.977,0,0,1-.638-2.915v-6.71h2.75v6.336a3.4,3.4,0,0,0,.715,2.365,2.62,2.62,0,0,0,2.035.781,3.42,3.42,0,0,0,1.683-.4,2.753,2.753,0,0,0,1.122-1.188,4.252,4.252,0,0,0,.407-1.958v-5.94h2.75V75h-2.618V71.832l.462.968a4.044,4.044,0,0,1-1.738,1.749A5.281,5.281,0,0,1,103.575,75.154Zm13.64,0a10.28,10.28,0,0,1-2.827-.385,7.273,7.273,0,0,1-2.145-.935l1.056-2.09a7.51,7.51,0,0,0,1.892.836,7.622,7.622,0,0,0,2.2.33,3.791,3.791,0,0,0,1.881-.352,1.067,1.067,0,0,0,.583-.946.821.821,0,0,0-.4-.737,3.081,3.081,0,0,0-1.034-.385q-.638-.132-1.419-.242t-1.562-.3a5.391,5.391,0,0,1-1.419-.55,2.94,2.94,0,0,1-1.034-.979,2.973,2.973,0,0,1-.4-1.628,3.09,3.09,0,0,1,.638-1.947,4.073,4.073,0,0,1,1.793-1.276,7.521,7.521,0,0,1,2.739-.451,11.224,11.224,0,0,1,2.4.264,6.49,6.49,0,0,1,2,.748l-1.056,2.09a5.569,5.569,0,0,0-1.683-.693,7.788,7.788,0,0,0-1.683-.187,3.619,3.619,0,0,0-1.859.374,1.1,1.1,0,0,0-.6.946.888.888,0,0,0,.4.792,3.231,3.231,0,0,0,1.034.418,13.091,13.091,0,0,0,1.419.253,12.57,12.57,0,0,1,1.551.3,6.541,6.541,0,0,1,1.419.539,2.733,2.733,0,0,1,1.045.957,2.927,2.927,0,0,1,.4,1.606,2.979,2.979,0,0,1-.649,1.914,4.178,4.178,0,0,1-1.837,1.265A8,8,0,0,1,117.215,75.154ZM124.937,75l-.022-11.748,2.728.022L127.665,75ZM126.3,61.316a1.734,1.734,0,0,1-1.265-.484,1.634,1.634,0,0,1,0-2.343,1.756,1.756,0,0,1,1.265-.473,1.806,1.806,0,0,1,1.265.451,1.468,1.468,0,0,1,.495,1.133,1.679,1.679,0,0,1-.484,1.221A1.7,1.7,0,0,1,126.3,61.316Zm11.638,1.8a5.6,5.6,0,0,1,2.519.55,4.031,4.031,0,0,1,1.749,1.683,5.9,5.9,0,0,1,.638,2.915V75h-2.75V68.62a3.259,3.259,0,0,0-.737-2.332,2.712,2.712,0,0,0-2.057-.77,3.612,3.612,0,0,0-1.716.4,2.714,2.714,0,0,0-1.155,1.177,4.238,4.238,0,0,0-.407,1.969V75h-2.75V63.252h2.618V66.42l-.462-.968a4.164,4.164,0,0,1,1.793-1.727A5.862,5.862,0,0,1,137.939,63.12Zm13.948,12.034a7.159,7.159,0,0,1-3.421-.781,5.659,5.659,0,0,1-2.266-2.145,6,6,0,0,1-.8-3.1,6.114,6.114,0,0,1,.781-3.113,5.6,5.6,0,0,1,2.156-2.123,6.306,6.306,0,0,1,3.135-.77,6.174,6.174,0,0,1,3.058.748,5.415,5.415,0,0,1,2.112,2.112,6.427,6.427,0,0,1,.77,3.212q0,.176-.011.4t-.033.418h-9.79V68.18h8.338l-1.078.572a3.376,3.376,0,0,0-.418-1.782,3.219,3.219,0,0,0-1.2-1.21,3.424,3.424,0,0,0-1.749-.44,3.468,3.468,0,0,0-1.771.44,3.118,3.118,0,0,0-1.188,1.221,3.757,3.757,0,0,0-.429,1.837v.44a3.589,3.589,0,0,0,.484,1.87,3.227,3.227,0,0,0,1.364,1.254,4.467,4.467,0,0,0,2.024.44,4.884,4.884,0,0,0,1.782-.308,3.793,3.793,0,0,0,1.408-.968l1.474,1.694a5.176,5.176,0,0,1-1.991,1.419A7.126,7.126,0,0,1,151.887,75.154Zm11.792,0a10.28,10.28,0,0,1-2.827-.385,7.273,7.273,0,0,1-2.145-.935l1.056-2.09a7.51,7.51,0,0,0,1.892.836,7.622,7.622,0,0,0,2.2.33,3.791,3.791,0,0,0,1.881-.352,1.067,1.067,0,0,0,.583-.946.821.821,0,0,0-.4-.737,3.08,3.08,0,0,0-1.034-.385q-.638-.132-1.419-.242t-1.562-.3a5.391,5.391,0,0,1-1.419-.55,2.939,2.939,0,0,1-1.034-.979,2.973,2.973,0,0,1-.4-1.628,3.09,3.09,0,0,1,.638-1.947,4.073,4.073,0,0,1,1.793-1.276,7.521,7.521,0,0,1,2.739-.451,11.224,11.224,0,0,1,2.4.264,6.49,6.49,0,0,1,2,.748l-1.056,2.09a5.569,5.569,0,0,0-1.683-.693,7.788,7.788,0,0,0-1.683-.187,3.619,3.619,0,0,0-1.859.374,1.1,1.1,0,0,0-.6.946.888.888,0,0,0,.4.792,3.23,3.23,0,0,0,1.034.418,13.091,13.091,0,0,0,1.419.253,12.569,12.569,0,0,1,1.551.3,6.541,6.541,0,0,1,1.419.539,2.733,2.733,0,0,1,1.045.957,2.927,2.927,0,0,1,.4,1.606,2.979,2.979,0,0,1-.649,1.914,4.178,4.178,0,0,1-1.837,1.265A8,8,0,0,1,163.679,75.154Zm11.33,0a10.28,10.28,0,0,1-2.827-.385,7.273,7.273,0,0,1-2.145-.935l1.056-2.09a7.51,7.51,0,0,0,1.892.836,7.622,7.622,0,0,0,2.2.33,3.791,3.791,0,0,0,1.881-.352,1.067,1.067,0,0,0,.583-.946.821.821,0,0,0-.4-.737,3.08,3.08,0,0,0-1.034-.385q-.638-.132-1.419-.242t-1.562-.3a5.391,5.391,0,0,1-1.419-.55,2.939,2.939,0,0,1-1.034-.979,2.973,2.973,0,0,1-.4-1.628,3.09,3.09,0,0,1,.638-1.947,4.073,4.073,0,0,1,1.793-1.276,7.521,7.521,0,0,1,2.739-.451,11.224,11.224,0,0,1,2.4.264,6.49,6.49,0,0,1,2,.748l-1.056,2.09a5.569,5.569,0,0,0-1.683-.693,7.788,7.788,0,0,0-1.683-.187,3.619,3.619,0,0,0-1.859.374,1.1,1.1,0,0,0-.6.946.888.888,0,0,0,.4.792,3.23,3.23,0,0,0,1.034.418,13.091,13.091,0,0,0,1.419.253,12.569,12.569,0,0,1,1.551.3,6.541,6.541,0,0,1,1.419.539,2.733,2.733,0,0,1,1.045.957,2.927,2.927,0,0,1,.4,1.606,2.979,2.979,0,0,1-.649,1.914,4.178,4.178,0,0,1-1.837,1.265A8,8,0,0,1,175.009,75.154Zm19.294,0a7.159,7.159,0,0,1-3.421-.781,5.659,5.659,0,0,1-2.266-2.145,6,6,0,0,1-.8-3.1,6.114,6.114,0,0,1,.781-3.113,5.6,5.6,0,0,1,2.156-2.123,6.306,6.306,0,0,1,3.135-.77,6.174,6.174,0,0,1,3.058.748,5.415,5.415,0,0,1,2.112,2.112,6.427,6.427,0,0,1,.77,3.212q0,.176-.011.4t-.033.418h-9.79V68.18h8.338l-1.078.572a3.376,3.376,0,0,0-.418-1.782,3.219,3.219,0,0,0-1.2-1.21,3.424,3.424,0,0,0-1.749-.44,3.468,3.468,0,0,0-1.771.44,3.118,3.118,0,0,0-1.188,1.221,3.757,3.757,0,0,0-.429,1.837v.44a3.589,3.589,0,0,0,.484,1.87,3.227,3.227,0,0,0,1.364,1.254,4.467,4.467,0,0,0,2.024.44,4.884,4.884,0,0,0,1.782-.308,3.793,3.793,0,0,0,1.408-.968l1.474,1.694a5.176,5.176,0,0,1-1.991,1.419A7.126,7.126,0,0,1,194.3,75.154ZM200.529,75l5.17-6.732-.044,1.474-4.928-6.49h3.058l3.454,4.62h-1.166l3.476-4.62h2.97l-4.972,6.49.022-1.474L212.717,75h-3.1l-3.63-4.906,1.144.154L203.565,75Zm20.724.154a5.238,5.238,0,0,1-2.607-.66,4.691,4.691,0,0,1-1.87-1.991,7.28,7.28,0,0,1-.693-3.377,7.468,7.468,0,0,1,.671-3.388,4.523,4.523,0,0,1,1.837-1.969,5.38,5.38,0,0,1,2.662-.649,6.157,6.157,0,0,1,3.069.748,5.557,5.557,0,0,1,2.112,2.09,6.838,6.838,0,0,1,0,6.347,5.534,5.534,0,0,1-2.112,2.1A6.157,6.157,0,0,1,221.253,75.154Zm-6.512,4.114V63.252h2.618v2.772l-.088,3.124.22,3.124v7Zm6.2-6.468a3.545,3.545,0,0,0,1.771-.44,3.205,3.205,0,0,0,1.243-1.276,4.4,4.4,0,0,0,0-3.927,3.223,3.223,0,0,0-1.243-1.265,3.545,3.545,0,0,0-1.771-.44,3.607,3.607,0,0,0-1.782.44,3.2,3.2,0,0,0-1.254,1.265,4.4,4.4,0,0,0,0,3.927,3.183,3.183,0,0,0,1.254,1.276A3.607,3.607,0,0,0,220.945,72.8ZM236.917,75V72.624l-.154-.506V67.96a2.434,2.434,0,0,0-.726-1.881,3.147,3.147,0,0,0-2.2-.671,6.318,6.318,0,0,0-1.947.308,4.783,4.783,0,0,0-1.617.858l-1.078-2a6.522,6.522,0,0,1,2.255-1.089,10.12,10.12,0,0,1,2.717-.363,5.812,5.812,0,0,1,3.949,1.221,4.751,4.751,0,0,1,1.4,3.773V75Zm-3.7.154a5.525,5.525,0,0,1-2.31-.451,3.569,3.569,0,0,1-1.529-1.254,3.182,3.182,0,0,1-.539-1.815,3.408,3.408,0,0,1,.473-1.782,3.189,3.189,0,0,1,1.551-1.254,7.371,7.371,0,0,1,2.86-.462h3.41v1.826h-3.212a2.865,2.865,0,0,0-1.892.451,1.459,1.459,0,0,0-.484,1.111,1.4,1.4,0,0,0,.594,1.188,2.723,2.723,0,0,0,1.65.44,3.573,3.573,0,0,0,1.815-.462,2.62,2.62,0,0,0,1.155-1.364l.462,1.65a3.056,3.056,0,0,1-1.419,1.606A5.248,5.248,0,0,1,233.221,75.154ZM249.7,63.12a5.6,5.6,0,0,1,2.519.55,4.031,4.031,0,0,1,1.749,1.683,5.9,5.9,0,0,1,.638,2.915V75h-2.75V68.62a3.259,3.259,0,0,0-.737-2.332,2.712,2.712,0,0,0-2.057-.77,3.612,3.612,0,0,0-1.716.4,2.714,2.714,0,0,0-1.155,1.177,4.238,4.238,0,0,0-.407,1.969V75h-2.75V63.252h2.618V66.42l-.462-.968a4.164,4.164,0,0,1,1.793-1.727A5.862,5.862,0,0,1,249.7,63.12Zm12.034,12.034a10.28,10.28,0,0,1-2.827-.385,7.272,7.272,0,0,1-2.145-.935l1.056-2.09a7.51,7.51,0,0,0,1.892.836,7.622,7.622,0,0,0,2.2.33,3.791,3.791,0,0,0,1.881-.352,1.067,1.067,0,0,0,.583-.946.821.821,0,0,0-.4-.737,3.081,3.081,0,0,0-1.034-.385q-.638-.132-1.419-.242t-1.562-.3a5.391,5.391,0,0,1-1.419-.55,2.94,2.94,0,0,1-1.034-.979,2.973,2.973,0,0,1-.4-1.628,3.09,3.09,0,0,1,.638-1.947,4.073,4.073,0,0,1,1.793-1.276,7.521,7.521,0,0,1,2.739-.451,11.224,11.224,0,0,1,2.4.264,6.49,6.49,0,0,1,2,.748l-1.056,2.09a5.569,5.569,0,0,0-1.683-.693,7.787,7.787,0,0,0-1.683-.187,3.619,3.619,0,0,0-1.859.374,1.1,1.1,0,0,0-.605.946.888.888,0,0,0,.4.792,3.231,3.231,0,0,0,1.034.418,13.09,13.09,0,0,0,1.419.253,12.571,12.571,0,0,1,1.551.3,6.541,6.541,0,0,1,1.419.539,2.733,2.733,0,0,1,1.045.957,2.927,2.927,0,0,1,.4,1.606,2.979,2.979,0,0,1-.649,1.914,4.178,4.178,0,0,1-1.837,1.265A8,8,0,0,1,261.733,75.154ZM269.455,75l-.022-11.748,2.728.022L272.183,75Zm1.364-13.684a1.734,1.734,0,0,1-1.265-.484,1.634,1.634,0,0,1,0-2.343,1.757,1.757,0,0,1,1.265-.473,1.806,1.806,0,0,1,1.265.451,1.468,1.468,0,0,1,.5,1.133,1.679,1.679,0,0,1-.484,1.221A1.7,1.7,0,0,1,270.819,61.316Zm10.252,13.838a6.761,6.761,0,0,1-3.212-.792,5.78,5.78,0,0,1-2.222-2.123,5.92,5.92,0,0,1-.814-3.113,5.8,5.8,0,0,1,3.047-5.236,6.522,6.522,0,0,1,3.2-.77,6.631,6.631,0,0,1,3.234.77A5.806,5.806,0,0,1,286.527,66a5.9,5.9,0,0,1,.814,3.124,6,6,0,0,1-.8,3.1,5.637,5.637,0,0,1-2.233,2.134A6.894,6.894,0,0,1,281.071,75.154Zm0-2.354a3.652,3.652,0,0,0,1.8-.44,3.113,3.113,0,0,0,1.243-1.276,4.312,4.312,0,0,0,0-3.927,3.129,3.129,0,0,0-1.243-1.265,3.652,3.652,0,0,0-1.8-.44,3.545,3.545,0,0,0-1.771.44,3.224,3.224,0,0,0-1.243,1.265,4.4,4.4,0,0,0,0,3.927,3.283,3.283,0,0,0,1.243,1.287A3.324,3.324,0,0,0,281.071,72.8Zm15.576-9.68a5.6,5.6,0,0,1,2.519.55,4.031,4.031,0,0,1,1.749,1.683,5.9,5.9,0,0,1,.638,2.915V75H298.8V68.62a3.259,3.259,0,0,0-.737-2.332,2.712,2.712,0,0,0-2.057-.77,3.612,3.612,0,0,0-1.716.4,2.714,2.714,0,0,0-1.155,1.177,4.238,4.238,0,0,0-.407,1.969V75h-2.75V63.252H292.6V66.42l-.462-.968a4.164,4.164,0,0,1,1.793-1.727A5.862,5.862,0,0,1,296.647,63.12ZM311.145,75l-.022-11.748,2.728.022L313.873,75Zm1.364-13.684a1.734,1.734,0,0,1-1.265-.484,1.634,1.634,0,0,1,0-2.343,1.757,1.757,0,0,1,1.265-.473,1.806,1.806,0,0,1,1.265.451,1.468,1.468,0,0,1,.5,1.133,1.679,1.679,0,0,1-.484,1.221A1.7,1.7,0,0,1,312.509,61.316Zm8.6,13.838a10.28,10.28,0,0,1-2.827-.385,7.272,7.272,0,0,1-2.145-.935l1.056-2.09a7.51,7.51,0,0,0,1.892.836,7.622,7.622,0,0,0,2.2.33,3.791,3.791,0,0,0,1.881-.352,1.067,1.067,0,0,0,.583-.946.821.821,0,0,0-.4-.737,3.081,3.081,0,0,0-1.034-.385q-.638-.132-1.419-.242t-1.562-.3a5.391,5.391,0,0,1-1.419-.55,2.94,2.94,0,0,1-1.034-.979,2.973,2.973,0,0,1-.4-1.628,3.09,3.09,0,0,1,.638-1.947,4.073,4.073,0,0,1,1.793-1.276,7.521,7.521,0,0,1,2.739-.451,11.224,11.224,0,0,1,2.4.264,6.49,6.49,0,0,1,2,.748L325,66.222a5.569,5.569,0,0,0-1.683-.693,7.787,7.787,0,0,0-1.683-.187,3.619,3.619,0,0,0-1.859.374,1.1,1.1,0,0,0-.605.946.888.888,0,0,0,.4.792,3.231,3.231,0,0,0,1.034.418,13.091,13.091,0,0,0,1.419.253,12.57,12.57,0,0,1,1.551.3,6.541,6.541,0,0,1,1.419.539,2.733,2.733,0,0,1,1.045.957,2.927,2.927,0,0,1,.4,1.606,2.979,2.979,0,0,1-.649,1.914,4.178,4.178,0,0,1-1.837,1.265A8,8,0,0,1,321.111,75.154ZM342.121,75V72.624l-.154-.506V67.96a2.434,2.434,0,0,0-.726-1.881,3.146,3.146,0,0,0-2.2-.671,6.318,6.318,0,0,0-1.947.308,4.783,4.783,0,0,0-1.617.858l-1.078-2a6.521,6.521,0,0,1,2.255-1.089,10.12,10.12,0,0,1,2.717-.363,5.812,5.812,0,0,1,3.949,1.221,4.751,4.751,0,0,1,1.4,3.773V75Zm-3.7.154a5.525,5.525,0,0,1-2.31-.451,3.569,3.569,0,0,1-1.529-1.254,3.182,3.182,0,0,1-.539-1.815,3.408,3.408,0,0,1,.473-1.782,3.189,3.189,0,0,1,1.551-1.254,7.371,7.371,0,0,1,2.86-.462h3.41v1.826h-3.212a2.865,2.865,0,0,0-1.892.451,1.459,1.459,0,0,0-.484,1.111,1.4,1.4,0,0,0,.594,1.188,2.723,2.723,0,0,0,1.65.44,3.573,3.573,0,0,0,1.815-.462,2.619,2.619,0,0,0,1.155-1.364l.462,1.65a3.056,3.056,0,0,1-1.419,1.606A5.248,5.248,0,0,1,338.425,75.154ZM369.137,63.12a5.464,5.464,0,0,1,2.5.55,3.933,3.933,0,0,1,1.7,1.683,6.073,6.073,0,0,1,.616,2.915V75H371.2V68.62a3.432,3.432,0,0,0-.682-2.332,2.478,2.478,0,0,0-1.958-.77,3.158,3.158,0,0,0-1.6.4,2.685,2.685,0,0,0-1.078,1.166,4.371,4.371,0,0,0-.385,1.958V75h-2.75V68.62a3.432,3.432,0,0,0-.682-2.332,2.478,2.478,0,0,0-1.958-.77,3.158,3.158,0,0,0-1.6.4,2.685,2.685,0,0,0-1.078,1.166,4.37,4.37,0,0,0-.385,1.958V75h-2.75V63.252h2.618v3.124l-.462-.924a3.994,3.994,0,0,1,1.727-1.738,5.484,5.484,0,0,1,2.585-.594,5.054,5.054,0,0,1,2.871.814,3.919,3.919,0,0,1,1.617,2.464l-1.078-.374a4.533,4.533,0,0,1,1.892-2.112A5.828,5.828,0,0,1,369.137,63.12ZM384.713,75V72.624l-.154-.506V67.96a2.434,2.434,0,0,0-.726-1.881,3.146,3.146,0,0,0-2.2-.671,6.318,6.318,0,0,0-1.947.308,4.783,4.783,0,0,0-1.617.858l-1.078-2a6.521,6.521,0,0,1,2.255-1.089,10.12,10.12,0,0,1,2.717-.363,5.812,5.812,0,0,1,3.949,1.221,4.751,4.751,0,0,1,1.4,3.773V75Zm-3.7.154a5.525,5.525,0,0,1-2.31-.451,3.569,3.569,0,0,1-1.529-1.254,3.182,3.182,0,0,1-.539-1.815,3.408,3.408,0,0,1,.473-1.782,3.189,3.189,0,0,1,1.551-1.254,7.371,7.371,0,0,1,2.86-.462h3.41v1.826h-3.212a2.865,2.865,0,0,0-1.892.451,1.459,1.459,0,0,0-.484,1.111,1.4,1.4,0,0,0,.594,1.188,2.723,2.723,0,0,0,1.65.44,3.573,3.573,0,0,0,1.815-.462,2.619,2.619,0,0,0,1.155-1.364l.462,1.65a3.056,3.056,0,0,1-1.419,1.606A5.248,5.248,0,0,1,381.017,75.154Zm8.6,4.268a6.3,6.3,0,0,1-1.463-.165,3.262,3.262,0,0,1-1.177-.517l.792-2.046a2.668,2.668,0,0,0,1.606.462,1.475,1.475,0,0,0,1.166-.473,2.052,2.052,0,0,0,.418-1.4V63.252h2.75V75.22a4.3,4.3,0,0,1-1.067,3.069A3.954,3.954,0,0,1,389.619,79.422Zm2.706-18.106a1.734,1.734,0,0,1-1.265-.484,1.634,1.634,0,0,1,0-2.343,1.756,1.756,0,0,1,1.265-.473,1.806,1.806,0,0,1,1.265.451,1.468,1.468,0,0,1,.495,1.133,1.679,1.679,0,0,1-.484,1.221A1.7,1.7,0,0,1,392.325,61.316ZM402.6,75.154a6.761,6.761,0,0,1-3.212-.792,5.78,5.78,0,0,1-2.222-2.123,5.92,5.92,0,0,1-.814-3.113A5.8,5.8,0,0,1,399.4,63.89a6.522,6.522,0,0,1,3.2-.77,6.631,6.631,0,0,1,3.234.77A5.806,5.806,0,0,1,408.055,66a5.9,5.9,0,0,1,.814,3.124,6,6,0,0,1-.8,3.1,5.637,5.637,0,0,1-2.233,2.134A6.894,6.894,0,0,1,402.6,75.154Zm0-2.354a3.652,3.652,0,0,0,1.8-.44,3.113,3.113,0,0,0,1.243-1.276,4.312,4.312,0,0,0,0-3.927,3.129,3.129,0,0,0-1.243-1.265,3.652,3.652,0,0,0-1.8-.44,3.545,3.545,0,0,0-1.771.44,3.224,3.224,0,0,0-1.243,1.265,4.4,4.4,0,0,0,0,3.927,3.283,3.283,0,0,0,1.243,1.287A3.324,3.324,0,0,0,402.6,72.8Zm8.91,2.2V63.252h2.618v3.234l-.308-.946a3.715,3.715,0,0,1,1.661-1.8,5.864,5.864,0,0,1,2.827-.616v2.618a1.934,1.934,0,0,0-.33-.055q-.154-.011-.308-.011a3.382,3.382,0,0,0-2.486.913,3.661,3.661,0,0,0-.924,2.717V75ZM67.572,102.154a5.238,5.238,0,0,1-2.607-.66,4.691,4.691,0,0,1-1.87-1.991,7.28,7.28,0,0,1-.693-3.377,7.468,7.468,0,0,1,.671-3.388,4.522,4.522,0,0,1,1.837-1.969,5.381,5.381,0,0,1,2.662-.649,6.157,6.157,0,0,1,3.069.748,5.557,5.557,0,0,1,2.112,2.09,6.838,6.838,0,0,1,0,6.347,5.534,5.534,0,0,1-2.112,2.1A6.157,6.157,0,0,1,67.572,102.154Zm-6.512,4.114V90.252h2.618v2.772l-.088,3.124.22,3.124v7Zm6.2-6.468a3.545,3.545,0,0,0,1.771-.44,3.205,3.205,0,0,0,1.243-1.276,4.4,4.4,0,0,0,0-3.927,3.223,3.223,0,0,0-1.243-1.265,3.545,3.545,0,0,0-1.771-.44,3.607,3.607,0,0,0-1.782.44,3.2,3.2,0,0,0-1.254,1.265,4.4,4.4,0,0,0,0,3.927,3.183,3.183,0,0,0,1.254,1.276A3.607,3.607,0,0,0,67.264,99.8ZM83.236,102V99.624l-.154-.506V94.96a2.434,2.434,0,0,0-.726-1.881,3.147,3.147,0,0,0-2.2-.671,6.318,6.318,0,0,0-1.947.308,4.783,4.783,0,0,0-1.617.858l-1.078-2a6.522,6.522,0,0,1,2.255-1.089,10.121,10.121,0,0,1,2.717-.363,5.812,5.812,0,0,1,3.949,1.221,4.751,4.751,0,0,1,1.4,3.773V102Zm-3.7.154a5.525,5.525,0,0,1-2.31-.451,3.569,3.569,0,0,1-1.529-1.254,3.182,3.182,0,0,1-.539-1.815,3.408,3.408,0,0,1,.473-1.782A3.189,3.189,0,0,1,77.186,95.6a7.371,7.371,0,0,1,2.86-.462h3.41v1.826H80.244a2.865,2.865,0,0,0-1.892.451,1.459,1.459,0,0,0-.484,1.111,1.4,1.4,0,0,0,.594,1.188,2.723,2.723,0,0,0,1.65.44,3.573,3.573,0,0,0,1.815-.462,2.62,2.62,0,0,0,1.155-1.364l.462,1.65a3.056,3.056,0,0,1-1.419,1.606A5.248,5.248,0,0,1,79.54,102.154ZM89.352,102V90.252H91.97v3.234l-.308-.946a3.716,3.716,0,0,1,1.661-1.8,5.864,5.864,0,0,1,2.827-.616v2.618a1.934,1.934,0,0,0-.33-.055q-.154-.011-.308-.011a3.382,3.382,0,0,0-2.486.913A3.661,3.661,0,0,0,92.1,96.3V102Zm13.992.154a4.18,4.18,0,0,1-2.992-1A3.888,3.888,0,0,1,99.3,98.194V87.656h2.75V98.128a1.836,1.836,0,0,0,.429,1.3,1.555,1.555,0,0,0,1.2.462,2.416,2.416,0,0,0,1.54-.484l.77,1.958a3.231,3.231,0,0,1-1.188.594A5.338,5.338,0,0,1,103.344,102.154ZM97.36,92.54v-2.2h7.832v2.2Zm22.242,9.614a6.761,6.761,0,0,1-3.212-.792,5.78,5.78,0,0,1-2.222-2.123,5.92,5.92,0,0,1-.814-3.113A5.8,5.8,0,0,1,116.4,90.89a6.521,6.521,0,0,1,3.2-.77,6.631,6.631,0,0,1,3.234.77A5.807,5.807,0,0,1,125.058,93a5.9,5.9,0,0,1,.814,3.124,6,6,0,0,1-.8,3.1,5.637,5.637,0,0,1-2.233,2.134A6.894,6.894,0,0,1,119.6,102.154Zm0-2.354a3.652,3.652,0,0,0,1.8-.44,3.112,3.112,0,0,0,1.243-1.276,4.312,4.312,0,0,0,0-3.927,3.129,3.129,0,0,0-1.243-1.265,3.652,3.652,0,0,0-1.8-.44,3.545,3.545,0,0,0-1.771.44,3.223,3.223,0,0,0-1.243,1.265,4.4,4.4,0,0,0,0,3.927,3.283,3.283,0,0,0,1.243,1.287A3.324,3.324,0,0,0,119.6,99.8Zm9.284,2.2V89.592a4.045,4.045,0,0,1,1.089-2.959,4.163,4.163,0,0,1,3.113-1.111,5.94,5.94,0,0,1,1.375.154,2.914,2.914,0,0,1,1.089.484l-.748,2.068a2.14,2.14,0,0,0-.7-.363,2.77,2.77,0,0,0-.814-.121,1.687,1.687,0,0,0-1.3.473,2.018,2.018,0,0,0-.44,1.419v1.32l.088,1.232V102Zm-1.936-9.46v-2.2h7.832v2.2Zm20.174,9.614a4.18,4.18,0,0,1-2.992-1,3.888,3.888,0,0,1-1.056-2.959V87.656h2.75V98.128a1.836,1.836,0,0,0,.429,1.3,1.555,1.555,0,0,0,1.2.462,2.416,2.416,0,0,0,1.54-.484l.77,1.958a3.231,3.231,0,0,1-1.188.594A5.337,5.337,0,0,1,147.124,102.154ZM141.14,92.54v-2.2h7.832v2.2ZM158.7,90.12a5.6,5.6,0,0,1,2.519.55,4.031,4.031,0,0,1,1.749,1.683,5.9,5.9,0,0,1,.638,2.915V102h-2.75V95.62a3.259,3.259,0,0,0-.737-2.332,2.712,2.712,0,0,0-2.057-.77,3.612,3.612,0,0,0-1.716.4,2.714,2.714,0,0,0-1.155,1.177,4.238,4.238,0,0,0-.407,1.969V102h-2.75V85.676h2.75V93.42l-.594-.968a4.164,4.164,0,0,1,1.793-1.727A5.862,5.862,0,0,1,158.7,90.12Zm13.948,12.034a7.159,7.159,0,0,1-3.421-.781,5.659,5.659,0,0,1-2.266-2.145,6,6,0,0,1-.8-3.1,6.114,6.114,0,0,1,.781-3.113,5.6,5.6,0,0,1,2.156-2.123,6.306,6.306,0,0,1,3.135-.77,6.174,6.174,0,0,1,3.058.748A5.415,5.415,0,0,1,177.4,92.98a6.427,6.427,0,0,1,.77,3.212q0,.176-.011.4t-.033.418h-9.79V95.18h8.338l-1.078.572a3.376,3.376,0,0,0-.418-1.782,3.219,3.219,0,0,0-1.2-1.21,3.424,3.424,0,0,0-1.749-.44,3.468,3.468,0,0,0-1.771.44,3.118,3.118,0,0,0-1.188,1.221,3.757,3.757,0,0,0-.429,1.837v.44a3.589,3.589,0,0,0,.484,1.87,3.227,3.227,0,0,0,1.364,1.254,4.467,4.467,0,0,0,2.024.44,4.884,4.884,0,0,0,1.782-.308,3.793,3.793,0,0,0,1.408-.968l1.474,1.694a5.176,5.176,0,0,1-1.991,1.419A7.126,7.126,0,0,1,172.644,102.154Zm19.206,0a6.119,6.119,0,0,1-3.047-.759,5.513,5.513,0,0,1-2.123-2.1,6.9,6.9,0,0,1,0-6.336,5.436,5.436,0,0,1,2.123-2.09,6.191,6.191,0,0,1,3.047-.748,5.335,5.335,0,0,1,2.64.649,4.588,4.588,0,0,1,1.848,1.969,7.365,7.365,0,0,1,.682,3.388,7.589,7.589,0,0,1-.66,3.377,4.515,4.515,0,0,1-1.826,1.991A5.354,5.354,0,0,1,191.85,102.154Zm.33-2.354a3.545,3.545,0,0,0,1.771-.44,3.279,3.279,0,0,0,1.254-1.276,4.312,4.312,0,0,0,0-3.927,3.3,3.3,0,0,0-1.254-1.265,3.784,3.784,0,0,0-3.542,0,3.3,3.3,0,0,0-1.254,1.265,4.312,4.312,0,0,0,0,3.927,3.28,3.28,0,0,0,1.254,1.276A3.545,3.545,0,0,0,192.18,99.8Zm3.564,2.2V99.228l.11-3.124-.22-3.124v-7.3h2.728V102Zm11.77.154a7.159,7.159,0,0,1-3.421-.781,5.659,5.659,0,0,1-2.266-2.145,6,6,0,0,1-.8-3.1,6.114,6.114,0,0,1,.781-3.113,5.6,5.6,0,0,1,2.156-2.123,6.306,6.306,0,0,1,3.135-.77,6.174,6.174,0,0,1,3.058.748,5.415,5.415,0,0,1,2.112,2.112,6.427,6.427,0,0,1,.77,3.212q0,.176-.011.4t-.033.418H203.2V95.18h8.338l-1.078.572a3.376,3.376,0,0,0-.418-1.782,3.219,3.219,0,0,0-1.2-1.21,3.424,3.424,0,0,0-1.749-.44,3.468,3.468,0,0,0-1.771.44,3.118,3.118,0,0,0-1.188,1.221,3.757,3.757,0,0,0-.429,1.837v.44a3.589,3.589,0,0,0,.484,1.87,3.227,3.227,0,0,0,1.364,1.254,4.467,4.467,0,0,0,2.024.44,4.884,4.884,0,0,0,1.782-.308,3.793,3.793,0,0,0,1.408-.968l1.474,1.694a5.176,5.176,0,0,1-1.991,1.419A7.126,7.126,0,0,1,207.514,102.154ZM218.58,102l-5.038-11.748h2.86l4.334,10.362h-1.408l4.488-10.362h2.64L221.418,102Zm14.784.154a7.159,7.159,0,0,1-3.421-.781,5.659,5.659,0,0,1-2.266-2.145,6,6,0,0,1-.8-3.1,6.114,6.114,0,0,1,.781-3.113,5.6,5.6,0,0,1,2.156-2.123,6.306,6.306,0,0,1,3.135-.77,6.174,6.174,0,0,1,3.058.748,5.415,5.415,0,0,1,2.112,2.112,6.427,6.427,0,0,1,.77,3.212q0,.176-.011.4t-.033.418h-9.79V95.18h8.338l-1.078.572a3.376,3.376,0,0,0-.418-1.782,3.219,3.219,0,0,0-1.2-1.21,3.424,3.424,0,0,0-1.749-.44,3.468,3.468,0,0,0-1.771.44,3.118,3.118,0,0,0-1.188,1.221,3.757,3.757,0,0,0-.429,1.837v.44a3.589,3.589,0,0,0,.484,1.87,3.227,3.227,0,0,0,1.364,1.254,4.467,4.467,0,0,0,2.024.44,4.884,4.884,0,0,0,1.782-.308,3.793,3.793,0,0,0,1.408-.968l1.474,1.694a5.176,5.176,0,0,1-1.991,1.419A7.126,7.126,0,0,1,233.364,102.154Zm8.184-.154-.022-16.324h2.75V102Zm11.616.154a6.761,6.761,0,0,1-3.212-.792,5.781,5.781,0,0,1-2.222-2.123,5.92,5.92,0,0,1-.814-3.113,5.8,5.8,0,0,1,3.047-5.236,6.522,6.522,0,0,1,3.2-.77,6.631,6.631,0,0,1,3.234.77A5.806,5.806,0,0,1,258.62,93a5.9,5.9,0,0,1,.814,3.124,6,6,0,0,1-.8,3.1,5.637,5.637,0,0,1-2.233,2.134A6.894,6.894,0,0,1,253.164,102.154Zm0-2.354a3.652,3.652,0,0,0,1.8-.44,3.112,3.112,0,0,0,1.243-1.276,4.312,4.312,0,0,0,0-3.927,3.129,3.129,0,0,0-1.243-1.265,3.652,3.652,0,0,0-1.8-.44,3.545,3.545,0,0,0-1.771.44,3.223,3.223,0,0,0-1.243,1.265,4.4,4.4,0,0,0,0,3.927,3.283,3.283,0,0,0,1.243,1.287A3.324,3.324,0,0,0,253.164,99.8Zm15.422,2.354a5.238,5.238,0,0,1-2.607-.66,4.691,4.691,0,0,1-1.87-1.991,7.28,7.28,0,0,1-.693-3.377,7.468,7.468,0,0,1,.671-3.388,4.523,4.523,0,0,1,1.837-1.969,5.381,5.381,0,0,1,2.662-.649,6.157,6.157,0,0,1,3.069.748,5.557,5.557,0,0,1,2.112,2.09,6.838,6.838,0,0,1,0,6.347,5.534,5.534,0,0,1-2.112,2.1A6.157,6.157,0,0,1,268.586,102.154Zm-6.512,4.114V90.252h2.618v2.772l-.088,3.124.22,3.124v7Zm6.2-6.468a3.545,3.545,0,0,0,1.771-.44,3.205,3.205,0,0,0,1.243-1.276,4.4,4.4,0,0,0,0-3.927,3.224,3.224,0,0,0-1.243-1.265,3.545,3.545,0,0,0-1.771-.44,3.607,3.607,0,0,0-1.782.44,3.2,3.2,0,0,0-1.254,1.265,4.4,4.4,0,0,0,0,3.927A3.183,3.183,0,0,0,266.5,99.36,3.606,3.606,0,0,0,268.278,99.8Zm23.716-9.68a5.464,5.464,0,0,1,2.5.55,3.933,3.933,0,0,1,1.7,1.683,6.073,6.073,0,0,1,.616,2.915V102h-2.75V95.62a3.432,3.432,0,0,0-.682-2.332,2.478,2.478,0,0,0-1.958-.77,3.158,3.158,0,0,0-1.6.4,2.685,2.685,0,0,0-1.078,1.166,4.371,4.371,0,0,0-.385,1.958V102h-2.75V95.62a3.432,3.432,0,0,0-.682-2.332,2.478,2.478,0,0,0-1.958-.77,3.158,3.158,0,0,0-1.6.4A2.685,2.685,0,0,0,280.3,94.08a4.37,4.37,0,0,0-.385,1.958V102h-2.75V90.252h2.618v3.124l-.462-.924a3.994,3.994,0,0,1,1.727-1.738,5.484,5.484,0,0,1,2.585-.594,5.054,5.054,0,0,1,2.871.814,3.919,3.919,0,0,1,1.617,2.464l-1.078-.374a4.533,4.533,0,0,1,1.892-2.112A5.828,5.828,0,0,1,291.994,90.12Zm13.882,12.034a7.159,7.159,0,0,1-3.421-.781,5.658,5.658,0,0,1-2.266-2.145,6,6,0,0,1-.8-3.1,6.114,6.114,0,0,1,.781-3.113,5.6,5.6,0,0,1,2.156-2.123,6.306,6.306,0,0,1,3.135-.77,6.174,6.174,0,0,1,3.058.748,5.415,5.415,0,0,1,2.112,2.112,6.427,6.427,0,0,1,.77,3.212q0,.176-.011.4t-.033.418h-9.79V95.18H309.9l-1.078.572a3.376,3.376,0,0,0-.418-1.782,3.219,3.219,0,0,0-1.2-1.21,3.424,3.424,0,0,0-1.749-.44,3.468,3.468,0,0,0-1.771.44,3.118,3.118,0,0,0-1.188,1.221,3.757,3.757,0,0,0-.429,1.837v.44a3.589,3.589,0,0,0,.484,1.87,3.227,3.227,0,0,0,1.364,1.254,4.467,4.467,0,0,0,2.024.44,4.884,4.884,0,0,0,1.782-.308,3.793,3.793,0,0,0,1.408-.968l1.474,1.694a5.176,5.176,0,0,1-1.991,1.419A7.127,7.127,0,0,1,305.876,102.154ZM320.7,90.12a5.6,5.6,0,0,1,2.519.55,4.031,4.031,0,0,1,1.749,1.683,5.9,5.9,0,0,1,.638,2.915V102h-2.75V95.62a3.259,3.259,0,0,0-.737-2.332,2.712,2.712,0,0,0-2.057-.77,3.612,3.612,0,0,0-1.716.4,2.714,2.714,0,0,0-1.155,1.177,4.238,4.238,0,0,0-.407,1.969V102h-2.75V90.252h2.618V93.42l-.462-.968a4.164,4.164,0,0,1,1.793-1.727A5.862,5.862,0,0,1,320.7,90.12Zm12.826,12.034a4.18,4.18,0,0,1-2.992-1,3.888,3.888,0,0,1-1.056-2.959V87.656h2.75V98.128a1.836,1.836,0,0,0,.429,1.3,1.555,1.555,0,0,0,1.2.462,2.416,2.416,0,0,0,1.54-.484l.77,1.958a3.231,3.231,0,0,1-1.188.594A5.337,5.337,0,0,1,333.53,102.154Zm-5.984-9.614v-2.2h7.832v2.2Zm23.474,9.614a5.238,5.238,0,0,1-2.607-.66,4.691,4.691,0,0,1-1.87-1.991,7.28,7.28,0,0,1-.693-3.377,7.468,7.468,0,0,1,.671-3.388,4.523,4.523,0,0,1,1.837-1.969,5.381,5.381,0,0,1,2.662-.649,6.157,6.157,0,0,1,3.069.748,5.557,5.557,0,0,1,2.112,2.09,6.838,6.838,0,0,1,0,6.347,5.534,5.534,0,0,1-2.112,2.1A6.157,6.157,0,0,1,351.02,102.154Zm-6.512,4.114V90.252h2.618v2.772l-.088,3.124.22,3.124v7Zm6.2-6.468a3.545,3.545,0,0,0,1.771-.44,3.205,3.205,0,0,0,1.243-1.276,4.4,4.4,0,0,0,0-3.927,3.224,3.224,0,0,0-1.243-1.265,3.545,3.545,0,0,0-1.771-.44,3.607,3.607,0,0,0-1.782.44,3.2,3.2,0,0,0-1.254,1.265,4.4,4.4,0,0,0,0,3.927,3.184,3.184,0,0,0,1.254,1.276A3.606,3.606,0,0,0,350.712,99.8ZM359.6,102V90.252h2.618v3.234l-.308-.946a3.715,3.715,0,0,1,1.661-1.8,5.864,5.864,0,0,1,2.827-.616v2.618a1.934,1.934,0,0,0-.33-.055q-.154-.011-.308-.011a3.382,3.382,0,0,0-2.486.913,3.661,3.661,0,0,0-.924,2.717V102Zm14.3.154a6.761,6.761,0,0,1-3.212-.792,5.78,5.78,0,0,1-2.222-2.123,5.92,5.92,0,0,1-.814-3.113A5.8,5.8,0,0,1,370.7,90.89a6.522,6.522,0,0,1,3.2-.77,6.631,6.631,0,0,1,3.234.77A5.806,5.806,0,0,1,379.356,93a5.9,5.9,0,0,1,.814,3.124,6,6,0,0,1-.8,3.1,5.637,5.637,0,0,1-2.233,2.134A6.894,6.894,0,0,1,373.9,102.154Zm0-2.354a3.652,3.652,0,0,0,1.8-.44,3.113,3.113,0,0,0,1.243-1.276,4.312,4.312,0,0,0,0-3.927,3.129,3.129,0,0,0-1.243-1.265,3.652,3.652,0,0,0-1.8-.44,3.545,3.545,0,0,0-1.771.44,3.224,3.224,0,0,0-1.243,1.265,4.4,4.4,0,0,0,0,3.927,3.283,3.283,0,0,0,1.243,1.287A3.324,3.324,0,0,0,373.9,99.8Zm14.3,2.354a6.791,6.791,0,0,1-3.289-.781,5.774,5.774,0,0,1-2.255-2.145,6.339,6.339,0,0,1,0-6.215,5.721,5.721,0,0,1,2.255-2.123,6.87,6.87,0,0,1,3.289-.77,6.37,6.37,0,0,1,3.025.693,4.605,4.605,0,0,1,1.991,2.035L391.1,94.08a3.378,3.378,0,0,0-1.287-1.232,3.491,3.491,0,0,0-1.639-.4,3.778,3.778,0,0,0-1.826.44,3.162,3.162,0,0,0-1.276,1.265,4.427,4.427,0,0,0,0,3.938,3.162,3.162,0,0,0,1.276,1.265,3.777,3.777,0,0,0,1.826.44,3.491,3.491,0,0,0,1.639-.4,3.378,3.378,0,0,0,1.287-1.232l2.112,1.232a4.76,4.76,0,0,1-1.991,2.035A6.21,6.21,0,0,1,388.2,102.154Zm12.738,0a7.159,7.159,0,0,1-3.421-.781,5.658,5.658,0,0,1-2.266-2.145,6,6,0,0,1-.8-3.1,6.114,6.114,0,0,1,.781-3.113,5.6,5.6,0,0,1,2.156-2.123,6.306,6.306,0,0,1,3.135-.77,6.174,6.174,0,0,1,3.058.748,5.415,5.415,0,0,1,2.112,2.112,6.427,6.427,0,0,1,.77,3.212q0,.176-.011.4t-.033.418h-9.79V95.18h8.338l-1.078.572a3.376,3.376,0,0,0-.418-1.782,3.219,3.219,0,0,0-1.2-1.21,3.424,3.424,0,0,0-1.749-.44,3.468,3.468,0,0,0-1.771.44,3.118,3.118,0,0,0-1.188,1.221,3.757,3.757,0,0,0-.429,1.837v.44a3.589,3.589,0,0,0,.484,1.87,3.227,3.227,0,0,0,1.364,1.254,4.467,4.467,0,0,0,2.024.44,4.884,4.884,0,0,0,1.782-.308,3.793,3.793,0,0,0,1.408-.968l1.474,1.694a5.176,5.176,0,0,1-1.991,1.419A7.127,7.127,0,0,1,400.938,102.154Zm11.792,0a10.28,10.28,0,0,1-2.827-.385,7.272,7.272,0,0,1-2.145-.935l1.056-2.09a7.51,7.51,0,0,0,1.892.836,7.622,7.622,0,0,0,2.2.33,3.791,3.791,0,0,0,1.881-.352,1.067,1.067,0,0,0,.583-.946.821.821,0,0,0-.4-.737,3.081,3.081,0,0,0-1.034-.385q-.638-.132-1.419-.242t-1.562-.3a5.391,5.391,0,0,1-1.419-.55,2.94,2.94,0,0,1-1.034-.979,2.973,2.973,0,0,1-.4-1.628,3.09,3.09,0,0,1,.638-1.947,4.073,4.073,0,0,1,1.793-1.276,7.52,7.52,0,0,1,2.739-.451,11.223,11.223,0,0,1,2.4.264,6.49,6.49,0,0,1,2,.748l-1.056,2.09a5.569,5.569,0,0,0-1.683-.693,7.787,7.787,0,0,0-1.683-.187,3.619,3.619,0,0,0-1.859.374,1.1,1.1,0,0,0-.605.946.888.888,0,0,0,.4.792,3.231,3.231,0,0,0,1.034.418,13.09,13.09,0,0,0,1.419.253,12.571,12.571,0,0,1,1.551.3,6.541,6.541,0,0,1,1.419.539,2.733,2.733,0,0,1,1.045.957,2.927,2.927,0,0,1,.4,1.606,2.979,2.979,0,0,1-.649,1.914,4.178,4.178,0,0,1-1.837,1.265A8,8,0,0,1,412.73,102.154Zm11.33,0a10.28,10.28,0,0,1-2.827-.385,7.272,7.272,0,0,1-2.145-.935l1.056-2.09a7.51,7.51,0,0,0,1.892.836,7.622,7.622,0,0,0,2.2.33,3.791,3.791,0,0,0,1.881-.352,1.067,1.067,0,0,0,.583-.946.821.821,0,0,0-.4-.737,3.081,3.081,0,0,0-1.034-.385q-.638-.132-1.419-.242t-1.562-.3a5.391,5.391,0,0,1-1.419-.55,2.94,2.94,0,0,1-1.034-.979,2.973,2.973,0,0,1-.4-1.628,3.09,3.09,0,0,1,.638-1.947,4.073,4.073,0,0,1,1.793-1.276,7.52,7.52,0,0,1,2.739-.451,11.223,11.223,0,0,1,2.4.264,6.49,6.49,0,0,1,2,.748l-1.056,2.09a5.569,5.569,0,0,0-1.683-.693,7.787,7.787,0,0,0-1.683-.187,3.619,3.619,0,0,0-1.859.374,1.1,1.1,0,0,0-.605.946.888.888,0,0,0,.4.792,3.231,3.231,0,0,0,1.034.418,13.091,13.091,0,0,0,1.419.253,12.57,12.57,0,0,1,1.551.3,6.541,6.541,0,0,1,1.419.539,2.733,2.733,0,0,1,1.045.957,2.927,2.927,0,0,1,.4,1.606,2.979,2.979,0,0,1-.649,1.914A4.178,4.178,0,0,1,426.9,101.7,8,8,0,0,1,424.06,102.154Zm8.58,0a1.785,1.785,0,0,1-1.8-1.826A1.737,1.737,0,0,1,431.364,99a1.892,1.892,0,0,1,2.552,0,1.914,1.914,0,0,1,0,2.64A1.757,1.757,0,0,1,432.64,102.154Z" transform="translate(977.727 2228)"/>
    <path id="Path_469" data-name="Path 469" d="M-100.789,0V-20.3h9.222a12.869,12.869,0,0,1,5.829,1.261,9.631,9.631,0,0,1,3.944,3.524A9.7,9.7,0,0,1-80.4-10.15,9.715,9.715,0,0,1-81.794-4.8a9.6,9.6,0,0,1-3.944,3.538A12.869,12.869,0,0,1-91.567,0Zm4.7-3.857H-91.8a7.26,7.26,0,0,0,3.523-.754,5.668,5.668,0,0,0,2.32-2.2A6.724,6.724,0,0,0-85.1-10.15a6.7,6.7,0,0,0-.855-3.35,5.7,5.7,0,0,0-2.32-2.189,7.26,7.26,0,0,0-3.523-.754l-4.292-.029ZM-69.411.232A10.044,10.044,0,0,1-74.095-.812a7.7,7.7,0,0,1-3.118-2.857,7.8,7.8,0,0,1-1.1-4.133,7.93,7.93,0,0,1,1.088-4.161A7.71,7.71,0,0,1-74.254-14.8a8.747,8.747,0,0,1,4.263-1.029,8.719,8.719,0,0,1,4.132.971,7.274,7.274,0,0,1,2.915,2.784,8.36,8.36,0,0,1,1.073,4.336q0,.261-.029.595t-.058.624H-74.631V-9.164h10.295l-1.74.783a4.336,4.336,0,0,0-.493-2.117A3.6,3.6,0,0,0-67.932-11.9a3.956,3.956,0,0,0-2.03-.507,4.035,4.035,0,0,0-2.044.507,3.545,3.545,0,0,0-1.378,1.421,4.485,4.485,0,0,0-.493,2.161v.7a4.386,4.386,0,0,0,.565,2.247,3.69,3.69,0,0,0,1.6,1.479,5.417,5.417,0,0,0,2.422.508,5.868,5.868,0,0,0,2.189-.377A5.333,5.333,0,0,0-65.38-4.9l2.407,2.61a7.012,7.012,0,0,1-2.7,1.871A9.979,9.979,0,0,1-69.411.232ZM-54.911,0l-6.554-15.6H-56.8l5.452,13.427h-2.32L-48.009-15.6h4.35L-50.242,0ZM-34.5.232A10.044,10.044,0,0,1-39.179-.812,7.7,7.7,0,0,1-42.3-3.669,7.8,7.8,0,0,1-43.4-7.8a7.93,7.93,0,0,1,1.087-4.161A7.71,7.71,0,0,1-39.339-14.8a8.747,8.747,0,0,1,4.263-1.029,8.719,8.719,0,0,1,4.132.971,7.274,7.274,0,0,1,2.915,2.784,8.361,8.361,0,0,1,1.073,4.336q0,.261-.029.595t-.058.624H-39.715V-9.164h10.3l-1.74.783a4.336,4.336,0,0,0-.493-2.117A3.6,3.6,0,0,0-33.016-11.9a3.956,3.956,0,0,0-2.03-.507,4.035,4.035,0,0,0-2.044.507,3.545,3.545,0,0,0-1.377,1.421,4.485,4.485,0,0,0-.493,2.161v.7A4.386,4.386,0,0,0-38.4-5.38,3.69,3.69,0,0,0-36.8-3.9a5.417,5.417,0,0,0,2.421.508,5.869,5.869,0,0,0,2.19-.377A5.333,5.333,0,0,0-30.465-4.9l2.407,2.61a7.012,7.012,0,0,1-2.7,1.871A9.979,9.979,0,0,1-34.5.232ZM-23.911,0l-.029-21.518h4.5L-19.416,0ZM-7.786.232A9.46,9.46,0,0,1-12.223-.827,7.8,7.8,0,0,1-15.24-3.654a7.775,7.775,0,0,1-1.1-4.147,7.514,7.514,0,0,1,1.1-4.161A7.977,7.977,0,0,1-12.194-14.8a8.872,8.872,0,0,1,4.379-1,9.1,9.1,0,0,1,4.437,1A7.607,7.607,0,0,1-.348-11.963,7.93,7.93,0,0,1,.74-7.8,7.606,7.606,0,0,1-.333-3.669,7.71,7.71,0,0,1-3.378-.827,9.515,9.515,0,0,1-7.786.232Zm0-3.712A3.968,3.968,0,0,0-5.756-4,3.717,3.717,0,0,0-4.335-5.5,4.8,4.8,0,0,0-3.813-7.8a4.784,4.784,0,0,0-.522-2.32A3.74,3.74,0,0,0-5.756-11.6a4.025,4.025,0,0,0-2.059-.522,3.912,3.912,0,0,0-2,.522,3.842,3.842,0,0,0-1.436,1.479,4.678,4.678,0,0,0-.536,2.32A4.7,4.7,0,0,0-11.252-5.5,3.959,3.959,0,0,0-9.831-3.988,3.68,3.68,0,0,0-7.786-3.48ZM13.006.232a6.681,6.681,0,0,1-3.451-.87A5.788,5.788,0,0,1,7.25-3.292,10.74,10.74,0,0,1,6.423-7.8a11.242,11.242,0,0,1,.783-4.524,5.558,5.558,0,0,1,2.262-2.639,6.857,6.857,0,0,1,3.538-.87,7.848,7.848,0,0,1,3.959,1,7.372,7.372,0,0,1,2.784,2.8A8.376,8.376,0,0,1,20.778-7.8a8.437,8.437,0,0,1-1.03,4.263A7.267,7.267,0,0,1,16.965-.754,7.939,7.939,0,0,1,13.006.232ZM3.784,5.626V-15.6H8.105v3.19l-.087,4.64.29,4.611V5.626ZM12.223-3.48A3.89,3.89,0,0,0,14.239-4,3.85,3.85,0,0,0,15.66-5.5,4.7,4.7,0,0,0,16.2-7.8a4.678,4.678,0,0,0-.536-2.32A3.876,3.876,0,0,0,14.239-11.6a3.89,3.89,0,0,0-2.016-.522,3.968,3.968,0,0,0-2.03.522,3.74,3.74,0,0,0-1.421,1.479A4.784,4.784,0,0,0,8.25-7.8,4.8,4.8,0,0,0,8.772-5.5,3.717,3.717,0,0,0,10.193-4,3.968,3.968,0,0,0,12.223-3.48ZM43.775-15.834a7.086,7.086,0,0,1,3.292.739,5.319,5.319,0,0,1,2.262,2.262,8.131,8.131,0,0,1,.826,3.9V0H45.632V-8.236a4.162,4.162,0,0,0-.783-2.784,2.767,2.767,0,0,0-2.2-.9,3.489,3.489,0,0,0-1.769.45,3.018,3.018,0,0,0-1.218,1.349,5.262,5.262,0,0,0-.435,2.291V0H34.7V-8.236a4.218,4.218,0,0,0-.768-2.784,2.723,2.723,0,0,0-2.19-.9,3.489,3.489,0,0,0-1.769.45,3.018,3.018,0,0,0-1.218,1.349,5.262,5.262,0,0,0-.435,2.291V0H23.794V-15.6h4.321v4.263L27.3-12.586a5.588,5.588,0,0,1,2.306-2.422,6.919,6.919,0,0,1,3.408-.826,6.547,6.547,0,0,1,3.755,1.087A5.256,5.256,0,0,1,38.9-11.426l-1.6-.435a6.246,6.246,0,0,1,2.508-2.9A7.34,7.34,0,0,1,43.775-15.834ZM62.074.232A10.044,10.044,0,0,1,57.391-.812a7.7,7.7,0,0,1-3.118-2.857,7.8,7.8,0,0,1-1.1-4.133,7.93,7.93,0,0,1,1.087-4.161A7.71,7.71,0,0,1,57.231-14.8a8.747,8.747,0,0,1,4.263-1.029,8.719,8.719,0,0,1,4.132.971,7.274,7.274,0,0,1,2.914,2.784,8.36,8.36,0,0,1,1.073,4.336q0,.261-.029.595t-.058.624H56.854V-9.164H67.149l-1.74.783a4.336,4.336,0,0,0-.493-2.117A3.6,3.6,0,0,0,63.553-11.9a3.956,3.956,0,0,0-2.03-.507,4.035,4.035,0,0,0-2.044.507A3.545,3.545,0,0,0,58.1-10.484a4.485,4.485,0,0,0-.493,2.161v.7a4.386,4.386,0,0,0,.565,2.247,3.69,3.69,0,0,0,1.6,1.479,5.417,5.417,0,0,0,2.421.508A5.868,5.868,0,0,0,64.38-3.77,5.333,5.333,0,0,0,66.105-4.9l2.407,2.61a7.012,7.012,0,0,1-2.7,1.871A9.979,9.979,0,0,1,62.074.232ZM82.113-15.834a7.264,7.264,0,0,1,3.321.739,5.362,5.362,0,0,1,2.305,2.262,8.014,8.014,0,0,1,.841,3.9V0H84.056V-8.236a4.01,4.01,0,0,0-.826-2.784,3.012,3.012,0,0,0-2.334-.9,4.083,4.083,0,0,0-1.929.45,3.12,3.12,0,0,0-1.334,1.377,5.177,5.177,0,0,0-.479,2.378V0H72.63V-15.6h4.321v4.321l-.812-1.3a5.779,5.779,0,0,1,2.407-2.407A7.42,7.42,0,0,1,82.113-15.834ZM99.049.232a6.124,6.124,0,0,1-4.292-1.406A5.4,5.4,0,0,1,93.22-5.365V-19.053h4.524v13.63A2.093,2.093,0,0,0,98.266-3.9a1.891,1.891,0,0,0,1.421.537,2.907,2.907,0,0,0,1.827-.58l1.218,3.19a4.97,4.97,0,0,1-1.668.74A8.164,8.164,0,0,1,99.049.232ZM90.813-11.774v-3.48H101.63v3.48Z" transform="translate(1225.762 2191.5)"/>
  </g>
</svg>
