<svg xmlns="http://www.w3.org/2000/svg" width="388.251" height="489.818" viewBox="0 0 388.251 489.818">
  <g id="development" transform="translate(-1030.891 -2015.763)">
    <g id="Group_404" data-name="Group 404" transform="translate(-395.504 -363.737)">
      <path id="Polygon_5" data-name="Polygon 5" d="M293.4,0l97.8,169.553L293.4,339.105H97.8L0,169.553,97.8,0Z" transform="translate(1790.074 2478.119) rotate(90)" fill="#0f52ba"/>
      <g id="Polygon_4" data-name="Polygon 4" transform="translate(1814.646 2379.5) rotate(90)" fill="#fff">
        <path d="M 335.8674011230469 387.7509155273438 L 112.3407287597656 387.7509155273438 L 0.5773364901542664 194.1254577636719 L 112.3407821655273 0.5000132918357849 L 335.8674011230469 0.5000132918357849 L 447.6307983398438 194.1254577636719 L 335.8674011230469 387.7509155273438 Z" stroke="none"/>
        <path d="M 112.6294555664062 1 L 1.15460205078125 194.1254577636719 L 112.62939453125 387.2509155273438 L 335.5787353515625 387.2509155273438 L 447.0535278320312 194.1254577636719 L 335.5787353515625 1 L 112.6294555664062 1 M 112.0520629882812 0 L 336.1561279296875 0 L 448.2081298828125 194.1254577636719 L 336.1561279296875 388.2509155273438 L 112.052001953125 388.2509155273438 L 0 194.1254577636719 L 112.0520629882812 0 Z" stroke="none" fill="#707070"/>
      </g>
    </g>
    <g id="Group_406" data-name="Group 406" transform="translate(28.629 -792.916)">
      <g id="development-2" data-name="development" transform="translate(1148 2858)">
        <path id="Path_423" data-name="Path 423" d="M72.136,10.654,62.467.871a2.4,2.4,0,0,0-3.429,0L30.009,30.209a2.48,2.48,0,0,0-.71,1.74v9.772a2.354,2.354,0,0,0,.71,1.73,2.3,2.3,0,0,0,1.709.721H41.4a2.426,2.426,0,0,0,1.709-.71L72.136,14.124a2.449,2.449,0,0,0,0-3.47ZM40.389,39.281H34.139V32.968l26.609-26.9L67,12.384Z" transform="translate(23.921 -0.15)" fill="#0f52ba"/>
        <path id="Path_424" data-name="Path 424" d="M90.49,24.916a2.444,2.444,0,0,0-2.42,2.451V61.6a7.266,7.266,0,0,1-.556,2.8,7.185,7.185,0,0,1-1.565,2.379,7.348,7.348,0,0,1-2.358,1.6,7.131,7.131,0,0,1-2.78.556H56.621a2.391,2.391,0,0,0-1.452.484L39.692,81.15V71.368a2.388,2.388,0,0,0-.71-1.73,2.325,2.325,0,0,0-1.709-.71H13.084a7.131,7.131,0,0,1-2.78-.556,7.462,7.462,0,0,1-2.358-1.6A7.187,7.187,0,0,1,6.38,64.4a7.269,7.269,0,0,1-.556-2.8V17.584a7.268,7.268,0,0,1,.556-2.8,7.125,7.125,0,0,1,1.565-2.389A7.433,7.433,0,0,1,10.3,10.809a7.129,7.129,0,0,1,2.78-.556H56.621a2.3,2.3,0,0,0,1.709-.721,2.354,2.354,0,0,0,.71-1.73,2.348,2.348,0,0,0-.71-1.72,2.3,2.3,0,0,0-1.709-.721H13.084a12.052,12.052,0,0,0-2.358.237,11.544,11.544,0,0,0-2.265.7A11.381,11.381,0,0,0,6.37,7.431,11.987,11.987,0,0,0,3.034,10.8a12.184,12.184,0,0,0-1.812,4.407,12.26,12.26,0,0,0-.237,2.379V61.6a12.339,12.339,0,0,0,.237,2.379,12.808,12.808,0,0,0,.69,2.3,12.979,12.979,0,0,0,1.122,2.111,12.247,12.247,0,0,0,1.5,1.843A11.8,11.8,0,0,0,6.37,71.749a12.038,12.038,0,0,0,2.09,1.133,11.513,11.513,0,0,0,2.265.69,11.314,11.314,0,0,0,2.358.247H34.853V86.042a2.247,2.247,0,0,0,1.339,2.173,2.213,2.213,0,0,0,1.081.268A2.266,2.266,0,0,0,38.724,88l18.71-14.18H80.81a12.048,12.048,0,0,0,2.358-.237,12.634,12.634,0,0,0,2.276-.7,12.328,12.328,0,0,0,2.08-1.133,11.807,11.807,0,0,0,1.833-1.524,12.253,12.253,0,0,0,1.5-1.843,12.981,12.981,0,0,0,1.122-2.111,12.017,12.017,0,0,0,.69-2.3,12.336,12.336,0,0,0,.237-2.379V27.367a2.444,2.444,0,0,0-2.42-2.451Z" transform="translate(-0.984 4.433)" fill="#0f52ba"/>
        <path id="Path_425" data-name="Path 425" d="M35.318,13.164H11.129a2.317,2.317,0,0,0-1.709.721,2.354,2.354,0,0,0-.711,1.73,2.388,2.388,0,0,0,.711,1.73,2.309,2.309,0,0,0,1.709.71H35.318a2.325,2.325,0,0,0,1.709-.71,2.388,2.388,0,0,0,.71-1.73,2.444,2.444,0,0,0-2.42-2.451Z" transform="translate(5.81 11.296)" fill="#0f52ba"/>
        <path id="Path_426" data-name="Path 426" d="M11.129,25.862H35.318a2.3,2.3,0,0,0,1.709-.721,2.449,2.449,0,0,0,0-3.45,2.3,2.3,0,0,0-1.709-.721H11.129a2.28,2.28,0,0,0-1.709.721,2.449,2.449,0,0,0,0,3.45A2.28,2.28,0,0,0,11.129,25.862Z" transform="translate(5.81 18.163)" fill="#0f52ba"/>
        <path id="Path_427" data-name="Path 427" d="M11.129,33.665H69.186a2.341,2.341,0,0,0,1.709-.71,2.378,2.378,0,0,0,.7-1.73,2.426,2.426,0,0,0-2.41-2.451H11.129a2.318,2.318,0,0,0-1.709.721,2.354,2.354,0,0,0-.711,1.73,2.388,2.388,0,0,0,.711,1.73A2.309,2.309,0,0,0,11.129,33.665Z" transform="translate(5.81 25.026)" fill="#0f52ba"/>
        <path id="Path_428" data-name="Path 428" d="M72.136,10.654,62.467.871a2.4,2.4,0,0,0-3.429,0L30.009,30.209a2.48,2.48,0,0,0-.71,1.74v9.772a2.354,2.354,0,0,0,.71,1.73,2.3,2.3,0,0,0,1.709.721H41.4a2.426,2.426,0,0,0,1.709-.71L72.136,14.124a2.449,2.449,0,0,0,0-3.47ZM40.389,39.281H34.139V32.968l26.609-26.9L67,12.384Z" transform="translate(23.921 -0.15)" fill="#0f52ba"/>
        <path id="Path_429" data-name="Path 429" d="M90.49,24.916a2.444,2.444,0,0,0-2.42,2.451V61.6a7.266,7.266,0,0,1-.556,2.8,7.185,7.185,0,0,1-1.565,2.379,7.348,7.348,0,0,1-2.358,1.6,7.131,7.131,0,0,1-2.78.556H56.621a2.391,2.391,0,0,0-1.452.484L39.692,81.15V71.368a2.388,2.388,0,0,0-.71-1.73,2.325,2.325,0,0,0-1.709-.71H13.084a7.131,7.131,0,0,1-2.78-.556,7.462,7.462,0,0,1-2.358-1.6A7.187,7.187,0,0,1,6.38,64.4a7.269,7.269,0,0,1-.556-2.8V17.584a7.268,7.268,0,0,1,.556-2.8,7.125,7.125,0,0,1,1.565-2.389A7.433,7.433,0,0,1,10.3,10.809a7.129,7.129,0,0,1,2.78-.556H56.621a2.3,2.3,0,0,0,1.709-.721,2.354,2.354,0,0,0,.71-1.73,2.348,2.348,0,0,0-.71-1.72,2.3,2.3,0,0,0-1.709-.721H13.084a12.052,12.052,0,0,0-2.358.237,11.544,11.544,0,0,0-2.265.7A11.381,11.381,0,0,0,6.37,7.431,11.987,11.987,0,0,0,3.034,10.8a12.184,12.184,0,0,0-1.812,4.407,12.26,12.26,0,0,0-.237,2.379V61.6a12.339,12.339,0,0,0,.237,2.379,12.808,12.808,0,0,0,.69,2.3,12.979,12.979,0,0,0,1.122,2.111,12.247,12.247,0,0,0,1.5,1.843A11.8,11.8,0,0,0,6.37,71.749a12.038,12.038,0,0,0,2.09,1.133,11.513,11.513,0,0,0,2.265.69,11.314,11.314,0,0,0,2.358.247H34.853V86.042a2.247,2.247,0,0,0,1.339,2.173,2.213,2.213,0,0,0,1.081.268A2.266,2.266,0,0,0,38.724,88l18.71-14.18H80.81a12.048,12.048,0,0,0,2.358-.237,12.634,12.634,0,0,0,2.276-.7,12.328,12.328,0,0,0,2.08-1.133,11.807,11.807,0,0,0,1.833-1.524,12.253,12.253,0,0,0,1.5-1.843,12.981,12.981,0,0,0,1.122-2.111,12.017,12.017,0,0,0,.69-2.3,12.336,12.336,0,0,0,.237-2.379V27.367a2.444,2.444,0,0,0-2.42-2.451Z" transform="translate(-0.984 4.433)" fill="#0f52ba"/>
        <path id="Path_430" data-name="Path 430" d="M35.318,13.164H11.129a2.317,2.317,0,0,0-1.709.721,2.354,2.354,0,0,0-.711,1.73,2.388,2.388,0,0,0,.711,1.73,2.309,2.309,0,0,0,1.709.71H35.318a2.325,2.325,0,0,0,1.709-.71,2.388,2.388,0,0,0,.71-1.73,2.444,2.444,0,0,0-2.42-2.451Z" transform="translate(5.81 11.296)" fill="#0f52ba"/>
        <path id="Path_431" data-name="Path 431" d="M11.129,25.862H35.318a2.3,2.3,0,0,0,1.709-.721,2.449,2.449,0,0,0,0-3.45,2.3,2.3,0,0,0-1.709-.721H11.129a2.28,2.28,0,0,0-1.709.721,2.449,2.449,0,0,0,0,3.45A2.28,2.28,0,0,0,11.129,25.862Z" transform="translate(5.81 18.163)" fill="#0f52ba"/>
        <path id="Path_432" data-name="Path 432" d="M11.129,33.665H69.186a2.341,2.341,0,0,0,1.709-.71,2.378,2.378,0,0,0,.7-1.73,2.426,2.426,0,0,0-2.41-2.451H11.129a2.318,2.318,0,0,0-1.709.721,2.354,2.354,0,0,0-.711,1.73,2.388,2.388,0,0,0,.711,1.73A2.309,2.309,0,0,0,11.129,33.665Z" transform="translate(5.81 25.026)" fill="#0f52ba"/>
      </g>
    </g>
    <path id="Path_468" data-name="Path 468" d="M59.06,11.748l7.393-.042-.021,2.224-7.351.042Zm.212,6.334,8.389-.021-.021,2.309h-11.1l.042-14.829H67.363l-.021,2.288-8.05.021Zm9.448,2.288L73.7,13.888l-.042,1.419L68.91,9.058h2.945l3.326,4.449H74.058L77.4,9.058h2.86l-4.787,6.249.021-1.419,4.957,6.482H77.468l-3.5-4.724,1.1.148L71.643,20.37Zm18.62.148a6.894,6.894,0,0,1-3.294-.752A5.449,5.449,0,0,1,81.864,17.7a5.776,5.776,0,0,1-.773-2.987,5.887,5.887,0,0,1,.752-3,5.4,5.4,0,0,1,2.076-2.044,6.072,6.072,0,0,1,3.019-.741,5.945,5.945,0,0,1,2.945.72,5.214,5.214,0,0,1,2.034,2.034,6.188,6.188,0,0,1,.741,3.093q0,.169-.011.381t-.032.4H83.188V13.8h8.029l-1.038.551a3.251,3.251,0,0,0-.4-1.716,3.1,3.1,0,0,0-1.155-1.165,3.3,3.3,0,0,0-1.684-.424,3.339,3.339,0,0,0-1.705.424,3,3,0,0,0-1.144,1.176,3.618,3.618,0,0,0-.413,1.769v.424a3.455,3.455,0,0,0,.466,1.8,3.107,3.107,0,0,0,1.313,1.207,4.3,4.3,0,0,0,1.949.424,4.7,4.7,0,0,0,1.716-.3,3.652,3.652,0,0,0,1.356-.932l1.419,1.631a4.984,4.984,0,0,1-1.917,1.366A6.862,6.862,0,0,1,87.34,20.518Zm13.049,0a6.539,6.539,0,0,1-3.167-.752A5.559,5.559,0,0,1,95.05,17.7a5.715,5.715,0,0,1-.784-2.987,5.7,5.7,0,0,1,.784-3,5.508,5.508,0,0,1,2.171-2.044,6.615,6.615,0,0,1,3.167-.741A6.133,6.133,0,0,1,103.3,9.6a4.435,4.435,0,0,1,1.917,1.959l-2.034,1.186a3.253,3.253,0,0,0-1.239-1.186,3.361,3.361,0,0,0-1.578-.381,3.637,3.637,0,0,0-1.758.424,3.045,3.045,0,0,0-1.229,1.218,3.821,3.821,0,0,0-.445,1.9,3.821,3.821,0,0,0,.445,1.9,3.045,3.045,0,0,0,1.229,1.218,3.637,3.637,0,0,0,1.758.424,3.361,3.361,0,0,0,1.578-.381,3.253,3.253,0,0,0,1.239-1.186l2.034,1.186A4.584,4.584,0,0,1,103.3,19.83,5.979,5.979,0,0,1,100.389,20.518Zm11.905,0a5.7,5.7,0,0,1-2.542-.54,3.877,3.877,0,0,1-1.716-1.652,5.755,5.755,0,0,1-.614-2.807V9.058h2.648v6.1a3.277,3.277,0,0,0,.688,2.277,2.523,2.523,0,0,0,1.959.752,3.293,3.293,0,0,0,1.621-.381,2.651,2.651,0,0,0,1.08-1.144,4.094,4.094,0,0,0,.392-1.885V9.058h2.648V20.37h-2.521v-3.05l.445.932a3.894,3.894,0,0,1-1.674,1.684A5.085,5.085,0,0,1,112.294,20.518Zm13.9,0a4.025,4.025,0,0,1-2.881-.964,3.744,3.744,0,0,1-1.017-2.849V6.558h2.648V16.641a1.768,1.768,0,0,0,.413,1.25,1.5,1.5,0,0,0,1.155.445,2.326,2.326,0,0,0,1.483-.466l.741,1.885a3.111,3.111,0,0,1-1.144.572A5.139,5.139,0,0,1,126.19,20.518Zm-5.762-9.257V9.142h7.541v2.118Zm10.507,9.109-.021-11.312,2.627.021.021,11.291Zm1.313-13.176a1.67,1.67,0,0,1-1.218-.466,1.573,1.573,0,0,1,0-2.256,1.691,1.691,0,0,1,1.218-.455,1.739,1.739,0,0,1,1.218.434,1.413,1.413,0,0,1,.477,1.091,1.616,1.616,0,0,1-.466,1.176A1.641,1.641,0,0,1,132.249,7.194Zm11.206,1.737a5.4,5.4,0,0,1,2.426.53,3.881,3.881,0,0,1,1.684,1.621,5.68,5.68,0,0,1,.614,2.807V20.37h-2.648V14.226a3.139,3.139,0,0,0-.71-2.245,2.612,2.612,0,0,0-1.981-.741,3.478,3.478,0,0,0-1.652.381,2.613,2.613,0,0,0-1.112,1.133,4.08,4.08,0,0,0-.392,1.9v5.72h-2.648V9.058h2.521v3.05l-.445-.932a4.009,4.009,0,0,1,1.726-1.663A5.644,5.644,0,0,1,143.455,8.931Zm13.24,15.7a11.43,11.43,0,0,1-3.061-.413,6.552,6.552,0,0,1-2.447-1.2l1.186-1.991a5.668,5.668,0,0,0,1.875.985,7.35,7.35,0,0,0,2.3.371,3.763,3.763,0,0,0,2.733-.858,3.469,3.469,0,0,0,.869-2.574V16.938l.212-2.563-.085-2.563V9.058H162.8v9.6a5.887,5.887,0,0,1-1.568,4.523A6.44,6.44,0,0,1,156.695,24.628Zm-.339-4.766a6.137,6.137,0,0,1-2.913-.688,5.22,5.22,0,0,1-2.055-1.917,5.408,5.408,0,0,1-.752-2.881,5.368,5.368,0,0,1,.752-2.86,5.144,5.144,0,0,1,2.055-1.907,6.215,6.215,0,0,1,2.913-.678,5.7,5.7,0,0,1,2.584.572,4.313,4.313,0,0,1,1.832,1.779,6.19,6.19,0,0,1,.688,3.093,6.252,6.252,0,0,1-.688,3.1,4.366,4.366,0,0,1-1.832,1.8A5.614,5.614,0,0,1,156.356,19.861Zm.4-2.245a3.758,3.758,0,0,0,1.779-.413,3.023,3.023,0,0,0,1.218-1.144,3.483,3.483,0,0,0,0-3.368,2.883,2.883,0,0,0-1.218-1.123,3.925,3.925,0,0,0-1.779-.392,3.992,3.992,0,0,0-1.79.392,2.87,2.87,0,0,0-1.229,1.123,3.483,3.483,0,0,0,0,3.368,3.007,3.007,0,0,0,1.229,1.144A3.822,3.822,0,0,0,156.758,17.616Zm18.853,2.9a9.9,9.9,0,0,1-2.722-.371,7,7,0,0,1-2.065-.9l1.017-2.012a7.232,7.232,0,0,0,1.822.8,7.339,7.339,0,0,0,2.118.318,3.65,3.65,0,0,0,1.811-.339,1.027,1.027,0,0,0,.561-.911.791.791,0,0,0-.381-.71,2.966,2.966,0,0,0-1-.371q-.614-.127-1.366-.233t-1.5-.286a5.191,5.191,0,0,1-1.366-.53,2.83,2.83,0,0,1-1-.943,2.862,2.862,0,0,1-.381-1.568,2.975,2.975,0,0,1,.614-1.875A3.922,3.922,0,0,1,173.5,9.365a7.241,7.241,0,0,1,2.637-.434,10.807,10.807,0,0,1,2.309.254,6.249,6.249,0,0,1,1.928.72l-1.017,2.012a5.362,5.362,0,0,0-1.621-.667,7.5,7.5,0,0,0-1.621-.18,3.485,3.485,0,0,0-1.79.36,1.055,1.055,0,0,0-.583.911.855.855,0,0,0,.381.763,3.11,3.11,0,0,0,1,.4,12.6,12.6,0,0,0,1.366.244,12.1,12.1,0,0,1,1.493.286,6.3,6.3,0,0,1,1.366.519,2.632,2.632,0,0,1,1.006.921,2.818,2.818,0,0,1,.381,1.546,2.868,2.868,0,0,1-.625,1.843,4.023,4.023,0,0,1-1.769,1.218A7.7,7.7,0,0,1,175.612,20.518Zm11.672,0a4.025,4.025,0,0,1-2.881-.964,3.744,3.744,0,0,1-1.017-2.849V6.558h2.648V16.641a1.768,1.768,0,0,0,.413,1.25,1.5,1.5,0,0,0,1.155.445,2.326,2.326,0,0,0,1.483-.466l.741,1.885a3.111,3.111,0,0,1-1.144.572A5.139,5.139,0,0,1,187.284,20.518Zm-5.762-9.257V9.142h7.541v2.118Zm10.486,9.109V9.058h2.521v3.114l-.3-.911a3.578,3.578,0,0,1,1.6-1.737,5.646,5.646,0,0,1,2.722-.593v2.521a1.863,1.863,0,0,0-.318-.053q-.148-.011-.3-.011a3.257,3.257,0,0,0-2.394.879,3.525,3.525,0,0,0-.89,2.616V20.37Zm14.956,0V18.082l-.148-.487v-4a2.344,2.344,0,0,0-.7-1.811A3.03,3.03,0,0,0,204,11.134a6.084,6.084,0,0,0-1.875.3,4.605,4.605,0,0,0-1.557.826l-1.038-1.928A6.28,6.28,0,0,1,201.7,9.28a9.745,9.745,0,0,1,2.616-.35,5.6,5.6,0,0,1,3.8,1.176,4.575,4.575,0,0,1,1.345,3.633v6.63Zm-3.559.148a5.32,5.32,0,0,1-2.224-.434,3.437,3.437,0,0,1-1.472-1.207,3.064,3.064,0,0,1-.519-1.748,3.282,3.282,0,0,1,.455-1.716,3.071,3.071,0,0,1,1.493-1.207,7.1,7.1,0,0,1,2.754-.445h3.283v1.758h-3.093a2.758,2.758,0,0,0-1.822.434,1.4,1.4,0,0,0-.466,1.07,1.35,1.35,0,0,0,.572,1.144,2.622,2.622,0,0,0,1.589.424,3.441,3.441,0,0,0,1.748-.445,2.522,2.522,0,0,0,1.112-1.313l.445,1.589a2.943,2.943,0,0,1-1.366,1.546A5.053,5.053,0,0,1,203.4,20.518Zm13.706,0a4.025,4.025,0,0,1-2.881-.964,3.744,3.744,0,0,1-1.017-2.849V6.558h2.648V16.641a1.768,1.768,0,0,0,.413,1.25,1.5,1.5,0,0,0,1.155.445,2.326,2.326,0,0,0,1.483-.466l.741,1.885a3.111,3.111,0,0,1-1.144.572A5.139,5.139,0,0,1,217.11,20.518Zm-5.762-9.257V9.142h7.541v2.118Zm15.422,9.257a6.894,6.894,0,0,1-3.294-.752,5.449,5.449,0,0,1-2.182-2.065,5.776,5.776,0,0,1-.773-2.987,5.887,5.887,0,0,1,.752-3,5.4,5.4,0,0,1,2.076-2.044,6.072,6.072,0,0,1,3.019-.741,5.945,5.945,0,0,1,2.945.72,5.214,5.214,0,0,1,2.034,2.034,6.188,6.188,0,0,1,.741,3.093q0,.169-.011.381t-.032.4h-9.427V13.8h8.029l-1.038.551a3.251,3.251,0,0,0-.4-1.716,3.1,3.1,0,0,0-1.155-1.165,3.3,3.3,0,0,0-1.684-.424,3.339,3.339,0,0,0-1.705.424,3,3,0,0,0-1.144,1.176,3.618,3.618,0,0,0-.413,1.769v.424a3.455,3.455,0,0,0,.466,1.8,3.107,3.107,0,0,0,1.313,1.207,4.3,4.3,0,0,0,1.949.424,4.7,4.7,0,0,0,1.716-.3,3.652,3.652,0,0,0,1.356-.932l1.419,1.631a4.984,4.984,0,0,1-1.917,1.366A6.862,6.862,0,0,1,226.77,20.518Zm12.986,4.11a11.43,11.43,0,0,1-3.061-.413,6.552,6.552,0,0,1-2.447-1.2l1.186-1.991a5.668,5.668,0,0,0,1.875.985,7.35,7.35,0,0,0,2.3.371,3.763,3.763,0,0,0,2.733-.858,3.469,3.469,0,0,0,.869-2.574V16.938l.212-2.563-.085-2.563V9.058h2.521v9.6a5.887,5.887,0,0,1-1.568,4.523A6.44,6.44,0,0,1,239.756,24.628Zm-.339-4.766a6.137,6.137,0,0,1-2.913-.688,5.22,5.22,0,0,1-2.055-1.917,5.408,5.408,0,0,1-.752-2.881,5.368,5.368,0,0,1,.752-2.86A5.144,5.144,0,0,1,236.5,9.608a6.215,6.215,0,0,1,2.913-.678A5.7,5.7,0,0,1,242,9.5a4.313,4.313,0,0,1,1.832,1.779,6.19,6.19,0,0,1,.688,3.093,6.252,6.252,0,0,1-.688,3.1,4.366,4.366,0,0,1-1.832,1.8A5.614,5.614,0,0,1,239.417,19.861Zm.4-2.245A3.758,3.758,0,0,0,241.6,17.2a3.023,3.023,0,0,0,1.218-1.144,3.483,3.483,0,0,0,0-3.368,2.883,2.883,0,0,0-1.218-1.123,3.925,3.925,0,0,0-1.779-.392,3.992,3.992,0,0,0-1.79.392,2.87,2.87,0,0,0-1.229,1.123,3.483,3.483,0,0,0,0,3.368,3.007,3.007,0,0,0,1.229,1.144A3.822,3.822,0,0,0,239.819,17.616Zm9.533,2.754-.021-11.312,2.627.021.021,11.291Zm1.313-13.176a1.67,1.67,0,0,1-1.218-.466,1.573,1.573,0,0,1,0-2.256,1.691,1.691,0,0,1,1.218-.455,1.739,1.739,0,0,1,1.218.434,1.413,1.413,0,0,1,.477,1.091,1.616,1.616,0,0,1-.466,1.176A1.641,1.641,0,0,1,250.665,7.194Zm9.977,13.324a6.54,6.54,0,0,1-3.167-.752A5.559,5.559,0,0,1,255.3,17.7a5.715,5.715,0,0,1-.784-2.987,5.7,5.7,0,0,1,.784-3,5.508,5.508,0,0,1,2.171-2.044,6.615,6.615,0,0,1,3.167-.741,6.133,6.133,0,0,1,2.913.667,4.434,4.434,0,0,1,1.917,1.959l-2.034,1.186a3.253,3.253,0,0,0-1.239-1.186,3.361,3.361,0,0,0-1.578-.381,3.637,3.637,0,0,0-1.758.424,3.045,3.045,0,0,0-1.229,1.218,3.821,3.821,0,0,0-.445,1.9,3.821,3.821,0,0,0,.445,1.9,3.045,3.045,0,0,0,1.229,1.218,3.637,3.637,0,0,0,1.758.424,3.361,3.361,0,0,0,1.578-.381,3.253,3.253,0,0,0,1.239-1.186l2.034,1.186a4.583,4.583,0,0,1-1.917,1.959A5.979,5.979,0,0,1,260.643,20.518Zm18.048,0a6.51,6.51,0,0,1-3.093-.763,5.566,5.566,0,0,1-2.14-2.044,5.7,5.7,0,0,1-.784-3,5.588,5.588,0,0,1,2.934-5.042,6.28,6.28,0,0,1,3.082-.741,6.385,6.385,0,0,1,3.114.741,5.591,5.591,0,0,1,2.14,2.034,5.685,5.685,0,0,1,.784,3.008,5.776,5.776,0,0,1-.773,2.987,5.428,5.428,0,0,1-2.15,2.055A6.638,6.638,0,0,1,278.691,20.518Zm0-2.267a3.516,3.516,0,0,0,1.737-.424,3,3,0,0,0,1.2-1.229,4.152,4.152,0,0,0,0-3.781,3.013,3.013,0,0,0-1.2-1.218,3.516,3.516,0,0,0-1.737-.424,3.413,3.413,0,0,0-1.705.424,3.1,3.1,0,0,0-1.2,1.218,3.821,3.821,0,0,0-.445,1.9,3.836,3.836,0,0,0,.445,1.885,3.161,3.161,0,0,0,1.2,1.239A3.2,3.2,0,0,0,278.691,18.251Zm14.85,2.267a5.044,5.044,0,0,1-2.51-.636,4.517,4.517,0,0,1-1.8-1.917,7.01,7.01,0,0,1-.667-3.252,7.191,7.191,0,0,1,.646-3.262,4.355,4.355,0,0,1,1.769-1.9,5.181,5.181,0,0,1,2.563-.625,5.929,5.929,0,0,1,2.955.72,5.351,5.351,0,0,1,2.034,2.012,5.958,5.958,0,0,1,.752,3.05,6.016,6.016,0,0,1-.752,3.061A5.329,5.329,0,0,1,296.5,19.8,5.929,5.929,0,0,1,293.541,20.518Zm-6.27,3.961V9.058h2.521v2.669l-.085,3.008.212,3.008v6.736Zm5.974-6.228a3.413,3.413,0,0,0,1.705-.424,3.086,3.086,0,0,0,1.2-1.229,3.836,3.836,0,0,0,.445-1.885,3.821,3.821,0,0,0-.445-1.9,3.1,3.1,0,0,0-1.2-1.218,3.413,3.413,0,0,0-1.705-.424,3.473,3.473,0,0,0-1.716.424,3.082,3.082,0,0,0-1.207,1.218,3.821,3.821,0,0,0-.445,1.9,3.836,3.836,0,0,0,.445,1.885,3.065,3.065,0,0,0,1.207,1.229A3.473,3.473,0,0,0,293.244,18.251Zm14.829,2.267a5.044,5.044,0,0,1-2.51-.636,4.517,4.517,0,0,1-1.8-1.917,7.01,7.01,0,0,1-.667-3.252,7.191,7.191,0,0,1,.646-3.262,4.355,4.355,0,0,1,1.769-1.9,5.181,5.181,0,0,1,2.563-.625,5.929,5.929,0,0,1,2.955.72,5.351,5.351,0,0,1,2.034,2.012,5.958,5.958,0,0,1,.752,3.05,6.016,6.016,0,0,1-.752,3.061,5.329,5.329,0,0,1-2.034,2.023A5.929,5.929,0,0,1,308.073,20.518Zm-6.27,3.961V9.058h2.521v2.669l-.085,3.008.212,3.008v6.736Zm5.974-6.228a3.413,3.413,0,0,0,1.705-.424,3.086,3.086,0,0,0,1.2-1.229,3.836,3.836,0,0,0,.445-1.885,3.821,3.821,0,0,0-.445-1.9,3.1,3.1,0,0,0-1.2-1.218,3.413,3.413,0,0,0-1.705-.424,3.473,3.473,0,0,0-1.716.424,3.083,3.083,0,0,0-1.207,1.218,3.821,3.821,0,0,0-.445,1.9,3.836,3.836,0,0,0,.445,1.885,3.065,3.065,0,0,0,1.207,1.229A3.473,3.473,0,0,0,307.776,18.251Zm13.642,2.267a6.51,6.51,0,0,1-3.093-.763,5.566,5.566,0,0,1-2.14-2.044,5.7,5.7,0,0,1-.784-3,5.588,5.588,0,0,1,2.934-5.042,6.279,6.279,0,0,1,3.082-.741,6.385,6.385,0,0,1,3.114.741,5.591,5.591,0,0,1,2.14,2.034,5.685,5.685,0,0,1,.784,3.008,5.776,5.776,0,0,1-.773,2.987,5.428,5.428,0,0,1-2.15,2.055A6.638,6.638,0,0,1,321.418,20.518Zm0-2.267a3.516,3.516,0,0,0,1.737-.424,3,3,0,0,0,1.2-1.229,4.152,4.152,0,0,0,0-3.781,3.013,3.013,0,0,0-1.2-1.218,3.516,3.516,0,0,0-1.737-.424,3.413,3.413,0,0,0-1.705.424,3.1,3.1,0,0,0-1.2,1.218,3.821,3.821,0,0,0-.445,1.9,3.836,3.836,0,0,0,.445,1.885,3.161,3.161,0,0,0,1.2,1.239A3.2,3.2,0,0,0,321.418,18.251ZM330,20.37V9.058h2.521v3.114l-.3-.911a3.577,3.577,0,0,1,1.6-1.737,5.646,5.646,0,0,1,2.722-.593v2.521a1.863,1.863,0,0,0-.318-.053q-.148-.011-.3-.011a3.257,3.257,0,0,0-2.394.879,3.525,3.525,0,0,0-.89,2.616V20.37Zm13.473.148a4.025,4.025,0,0,1-2.881-.964,3.744,3.744,0,0,1-1.017-2.849V6.558h2.648V16.641a1.768,1.768,0,0,0,.413,1.25,1.5,1.5,0,0,0,1.155.445,2.326,2.326,0,0,0,1.483-.466l.741,1.885a3.111,3.111,0,0,1-1.144.572A5.139,5.139,0,0,1,343.47,20.518Zm-5.762-9.257V9.142h7.541v2.118Zm15.273,9.257a5.7,5.7,0,0,1-2.542-.54,3.876,3.876,0,0,1-1.716-1.652,5.755,5.755,0,0,1-.614-2.807V9.058h2.648v6.1a3.278,3.278,0,0,0,.688,2.277,2.523,2.523,0,0,0,1.959.752,3.293,3.293,0,0,0,1.621-.381,2.651,2.651,0,0,0,1.08-1.144,4.094,4.094,0,0,0,.392-1.885V9.058h2.648V20.37h-2.521v-3.05l.445.932a3.894,3.894,0,0,1-1.673,1.684A5.085,5.085,0,0,1,352.982,20.518ZM369.039,8.931a5.4,5.4,0,0,1,2.426.53,3.881,3.881,0,0,1,1.684,1.621,5.68,5.68,0,0,1,.614,2.807V20.37h-2.648V14.226a3.139,3.139,0,0,0-.71-2.245,2.612,2.612,0,0,0-1.981-.741,3.478,3.478,0,0,0-1.652.381,2.613,2.613,0,0,0-1.112,1.133,4.08,4.08,0,0,0-.392,1.9v5.72H362.62V9.058h2.521v3.05l-.445-.932a4.009,4.009,0,0,1,1.726-1.663A5.644,5.644,0,0,1,369.039,8.931Zm8.113,11.439-.021-11.312,2.627.021.021,11.291Zm1.313-13.176a1.67,1.67,0,0,1-1.218-.466,1.573,1.573,0,0,1,0-2.256,1.691,1.691,0,0,1,1.218-.455,1.739,1.739,0,0,1,1.218.434,1.413,1.413,0,0,1,.477,1.091,1.616,1.616,0,0,1-.466,1.176A1.641,1.641,0,0,1,378.466,7.194Zm9.045,13.324a4.025,4.025,0,0,1-2.881-.964,3.744,3.744,0,0,1-1.017-2.849V6.558h2.648V16.641a1.768,1.768,0,0,0,.413,1.25,1.5,1.5,0,0,0,1.155.445,2.326,2.326,0,0,0,1.483-.466l.741,1.885a3.111,3.111,0,0,1-1.144.572A5.139,5.139,0,0,1,387.511,20.518Zm-5.762-9.257V9.142h7.541v2.118Zm10.507,9.109-.021-11.312,2.627.021.021,11.291ZM393.57,7.194a1.67,1.67,0,0,1-1.218-.466,1.573,1.573,0,0,1,0-2.256,1.691,1.691,0,0,1,1.218-.455,1.739,1.739,0,0,1,1.218.434,1.414,1.414,0,0,1,.477,1.091,1.616,1.616,0,0,1-.466,1.176A1.641,1.641,0,0,1,393.57,7.194Zm10.1,13.324a6.894,6.894,0,0,1-3.294-.752A5.448,5.448,0,0,1,398.2,17.7a5.776,5.776,0,0,1-.773-2.987,5.887,5.887,0,0,1,.752-3,5.4,5.4,0,0,1,2.076-2.044,6.072,6.072,0,0,1,3.019-.741,5.945,5.945,0,0,1,2.945.72,5.214,5.214,0,0,1,2.034,2.034,6.189,6.189,0,0,1,.741,3.093q0,.169-.011.381t-.032.4h-9.427V13.8h8.029l-1.038.551a3.25,3.25,0,0,0-.4-1.716,3.1,3.1,0,0,0-1.154-1.165,3.3,3.3,0,0,0-1.684-.424,3.339,3.339,0,0,0-1.705.424,3,3,0,0,0-1.144,1.176,3.618,3.618,0,0,0-.413,1.769v.424a3.455,3.455,0,0,0,.466,1.8,3.107,3.107,0,0,0,1.313,1.207,4.3,4.3,0,0,0,1.949.424,4.7,4.7,0,0,0,1.716-.3,3.652,3.652,0,0,0,1.356-.932l1.419,1.631a4.984,4.984,0,0,1-1.917,1.366A6.862,6.862,0,0,1,403.674,20.518Zm11.354,0a9.9,9.9,0,0,1-2.722-.371,7,7,0,0,1-2.065-.9l1.017-2.012a7.231,7.231,0,0,0,1.822.8,7.339,7.339,0,0,0,2.118.318,3.65,3.65,0,0,0,1.811-.339,1.027,1.027,0,0,0,.561-.911.791.791,0,0,0-.381-.71,2.966,2.966,0,0,0-1-.371q-.614-.127-1.366-.233t-1.5-.286a5.191,5.191,0,0,1-1.366-.53,2.831,2.831,0,0,1-1-.943,2.862,2.862,0,0,1-.381-1.568,2.975,2.975,0,0,1,.614-1.875,3.922,3.922,0,0,1,1.726-1.229,7.241,7.241,0,0,1,2.637-.434,10.807,10.807,0,0,1,2.309.254,6.25,6.25,0,0,1,1.928.72l-1.017,2.012a5.363,5.363,0,0,0-1.621-.667,7.5,7.5,0,0,0-1.621-.18,3.485,3.485,0,0,0-1.79.36,1.055,1.055,0,0,0-.583.911.855.855,0,0,0,.381.763,3.111,3.111,0,0,0,1,.4,12.6,12.6,0,0,0,1.366.244,12.1,12.1,0,0,1,1.493.286,6.3,6.3,0,0,1,1.366.519,2.632,2.632,0,0,1,1.006.921,2.818,2.818,0,0,1,.381,1.546,2.868,2.868,0,0,1-.625,1.843,4.023,4.023,0,0,1-1.769,1.218A7.7,7.7,0,0,1,415.029,20.518Zm6.715,3.05,1.229-4.682.36,1.568A1.767,1.767,0,0,1,422.093,20a1.6,1.6,0,0,1-.5-1.239A1.669,1.669,0,0,1,423.311,17a1.666,1.666,0,0,1,1.229.487,1.719,1.719,0,0,1,.487,1.271,2.665,2.665,0,0,1-.042.455,4.917,4.917,0,0,1-.138.561,7.56,7.56,0,0,1-.307.8l-1.08,2.987ZM75.869,46.368l-.021-11.312,2.627.021L78.5,46.368Zm1.313-13.176a1.67,1.67,0,0,1-1.218-.466,1.573,1.573,0,0,1,0-2.256,1.691,1.691,0,0,1,1.218-.455,1.739,1.739,0,0,1,1.218.434,1.413,1.413,0,0,1,.477,1.091,1.616,1.616,0,0,1-.466,1.176A1.641,1.641,0,0,1,77.182,33.192Zm11.206,1.737a5.4,5.4,0,0,1,2.426.53A3.881,3.881,0,0,1,92.5,37.079a5.68,5.68,0,0,1,.614,2.807v6.482H90.464V40.225a3.139,3.139,0,0,0-.71-2.245,2.612,2.612,0,0,0-1.981-.741,3.478,3.478,0,0,0-1.652.381,2.613,2.613,0,0,0-1.112,1.133,4.08,4.08,0,0,0-.392,1.9v5.72H81.97V35.056H84.49v3.05l-.445-.932a4.009,4.009,0,0,1,1.726-1.663A5.644,5.644,0,0,1,88.388,34.929ZM96.5,46.368,96.48,35.056l2.627.021.021,11.291Zm1.313-13.176a1.67,1.67,0,0,1-1.218-.466,1.573,1.573,0,0,1,0-2.256,1.691,1.691,0,0,1,1.218-.455,1.739,1.739,0,0,1,1.218.434,1.413,1.413,0,0,1,.477,1.091,1.616,1.616,0,0,1-.466,1.176A1.641,1.641,0,0,1,97.815,33.192Zm9.045,13.324a4.025,4.025,0,0,1-2.881-.964,3.744,3.744,0,0,1-1.017-2.849V32.556h2.648V42.639a1.768,1.768,0,0,0,.413,1.25,1.5,1.5,0,0,0,1.155.445,2.326,2.326,0,0,0,1.483-.466l.741,1.885a3.111,3.111,0,0,1-1.144.572A5.139,5.139,0,0,1,106.86,46.516ZM101.1,37.259V35.14h7.541v2.118Zm10.507,9.109-.021-11.312,2.627.021.021,11.291Zm1.313-13.176a1.67,1.67,0,0,1-1.218-.466,1.573,1.573,0,0,1,0-2.256,1.691,1.691,0,0,1,1.218-.455,1.739,1.739,0,0,1,1.218.434,1.413,1.413,0,0,1,.477,1.091,1.616,1.616,0,0,1-.466,1.176A1.641,1.641,0,0,1,112.919,33.192Zm11.757,13.176V44.08l-.148-.487v-4a2.344,2.344,0,0,0-.7-1.811,3.03,3.03,0,0,0-2.118-.646,6.084,6.084,0,0,0-1.875.3,4.605,4.605,0,0,0-1.557.826l-1.038-1.928a6.28,6.28,0,0,1,2.171-1.049,9.745,9.745,0,0,1,2.616-.35,5.6,5.6,0,0,1,3.8,1.176,4.575,4.575,0,0,1,1.345,3.633v6.63Zm-3.559.148a5.32,5.32,0,0,1-2.224-.434,3.437,3.437,0,0,1-1.472-1.207,3.064,3.064,0,0,1-.519-1.748,3.282,3.282,0,0,1,.455-1.716A3.071,3.071,0,0,1,118.85,40.2a7.1,7.1,0,0,1,2.754-.445h3.283v1.758h-3.093a2.758,2.758,0,0,0-1.822.434,1.4,1.4,0,0,0-.466,1.07,1.35,1.35,0,0,0,.572,1.144,2.622,2.622,0,0,0,1.589.424,3.441,3.441,0,0,0,1.748-.445,2.522,2.522,0,0,0,1.112-1.313l.445,1.589a2.943,2.943,0,0,1-1.366,1.546A5.053,5.053,0,0,1,121.117,46.516Zm13.706,0a4.025,4.025,0,0,1-2.881-.964,3.744,3.744,0,0,1-1.017-2.849V32.556h2.648V42.639a1.768,1.768,0,0,0,.413,1.25,1.5,1.5,0,0,0,1.154.445,2.326,2.326,0,0,0,1.483-.466l.741,1.885a3.111,3.111,0,0,1-1.144.572A5.139,5.139,0,0,1,134.823,46.516Zm-5.762-9.257V35.14H136.6v2.118Zm10.507,9.109-.021-11.312,2.627.021.021,11.291Zm1.313-13.176a1.67,1.67,0,0,1-1.218-.466,1.573,1.573,0,0,1,0-2.256,1.691,1.691,0,0,1,1.218-.455,1.739,1.739,0,0,1,1.218.434,1.413,1.413,0,0,1,.477,1.091,1.616,1.616,0,0,1-.466,1.176A1.641,1.641,0,0,1,140.881,33.192Zm7.8,13.176-4.851-11.312h2.754l4.173,9.977H149.4l4.321-9.977h2.542l-4.851,11.312Zm14.235.148a6.894,6.894,0,0,1-3.294-.752,5.449,5.449,0,0,1-2.182-2.065,5.776,5.776,0,0,1-.773-2.987,5.887,5.887,0,0,1,.752-3,5.4,5.4,0,0,1,2.076-2.044,6.072,6.072,0,0,1,3.019-.741,5.945,5.945,0,0,1,2.945.72,5.214,5.214,0,0,1,2.034,2.034,6.188,6.188,0,0,1,.741,3.093q0,.169-.011.381t-.032.4H158.76V39.8h8.029l-1.038.551a3.25,3.25,0,0,0-.4-1.716,3.1,3.1,0,0,0-1.155-1.165,3.3,3.3,0,0,0-1.684-.424,3.339,3.339,0,0,0-1.705.424,3,3,0,0,0-1.144,1.176,3.618,3.618,0,0,0-.413,1.769v.424a3.455,3.455,0,0,0,.466,1.8,3.107,3.107,0,0,0,1.313,1.207,4.3,4.3,0,0,0,1.949.424,4.7,4.7,0,0,0,1.716-.3,3.652,3.652,0,0,0,1.356-.932l1.419,1.631a4.984,4.984,0,0,1-1.917,1.366A6.862,6.862,0,0,1,162.912,46.516Zm11.354,0a9.9,9.9,0,0,1-2.722-.371,7,7,0,0,1-2.065-.9l1.017-2.012a7.232,7.232,0,0,0,1.822.8,7.339,7.339,0,0,0,2.118.318,3.65,3.65,0,0,0,1.811-.339,1.027,1.027,0,0,0,.561-.911.791.791,0,0,0-.381-.71,2.966,2.966,0,0,0-1-.371q-.614-.127-1.366-.233t-1.5-.286a5.191,5.191,0,0,1-1.366-.53,2.83,2.83,0,0,1-1-.943,2.862,2.862,0,0,1-.381-1.568,2.975,2.975,0,0,1,.614-1.875,3.922,3.922,0,0,1,1.726-1.229,7.242,7.242,0,0,1,2.637-.434,10.808,10.808,0,0,1,2.309.254,6.25,6.25,0,0,1,1.928.72l-1.017,2.012a5.362,5.362,0,0,0-1.621-.667,7.5,7.5,0,0,0-1.621-.18,3.485,3.485,0,0,0-1.79.36,1.055,1.055,0,0,0-.583.911.855.855,0,0,0,.381.763,3.111,3.111,0,0,0,1,.4,12.606,12.606,0,0,0,1.366.244,12.1,12.1,0,0,1,1.493.286,6.3,6.3,0,0,1,1.366.519,2.632,2.632,0,0,1,1.006.921,2.818,2.818,0,0,1,.381,1.546,2.868,2.868,0,0,1-.625,1.843A4.023,4.023,0,0,1,177,46.082,7.7,7.7,0,0,1,174.266,46.516Zm6.715,3.05,1.229-4.682.36,1.568A1.767,1.767,0,0,1,181.331,46a1.6,1.6,0,0,1-.5-1.239A1.669,1.669,0,0,1,182.549,43a1.666,1.666,0,0,1,1.229.487,1.719,1.719,0,0,1,.487,1.271,2.665,2.665,0,0,1-.042.455,4.923,4.923,0,0,1-.138.561,7.564,7.564,0,0,1-.307.8l-1.08,2.987Zm11.736-3.2L192.7,35.056l2.627.021.021,11.291Zm1.313-13.176a1.67,1.67,0,0,1-1.218-.466,1.573,1.573,0,0,1,0-2.256,1.691,1.691,0,0,1,1.218-.455,1.739,1.739,0,0,1,1.218.434,1.413,1.413,0,0,1,.477,1.091,1.616,1.616,0,0,1-.466,1.176A1.641,1.641,0,0,1,194.031,33.192Zm9.575,13.324a5.892,5.892,0,0,1-2.934-.731,5.309,5.309,0,0,1-2.044-2.023,6.646,6.646,0,0,1,0-6.1,5.234,5.234,0,0,1,2.044-2.012,5.961,5.961,0,0,1,2.934-.72,5.137,5.137,0,0,1,2.542.625,4.417,4.417,0,0,1,1.779,1.9,7.092,7.092,0,0,1,.657,3.262,7.307,7.307,0,0,1-.636,3.252,4.348,4.348,0,0,1-1.758,1.917A5.155,5.155,0,0,1,203.606,46.516Zm.318-2.267a3.413,3.413,0,0,0,1.705-.424,3.158,3.158,0,0,0,1.207-1.229,4.152,4.152,0,0,0,0-3.781,3.177,3.177,0,0,0-1.207-1.218,3.644,3.644,0,0,0-3.411,0,3.177,3.177,0,0,0-1.207,1.218,4.152,4.152,0,0,0,0,3.781,3.158,3.158,0,0,0,1.207,1.229A3.413,3.413,0,0,0,203.924,44.249Zm3.432,2.118V43.7l.106-3.008-.212-3.008V30.65h2.627V46.368Zm11.333.148a6.894,6.894,0,0,1-3.294-.752,5.449,5.449,0,0,1-2.182-2.065,5.776,5.776,0,0,1-.773-2.987,5.887,5.887,0,0,1,.752-3,5.4,5.4,0,0,1,2.076-2.044,6.072,6.072,0,0,1,3.019-.741,5.945,5.945,0,0,1,2.945.72,5.214,5.214,0,0,1,2.034,2.034,6.188,6.188,0,0,1,.741,3.093q0,.169-.011.381t-.032.4h-9.427V39.8h8.029l-1.038.551a3.251,3.251,0,0,0-.4-1.716,3.1,3.1,0,0,0-1.155-1.165,3.3,3.3,0,0,0-1.684-.424,3.339,3.339,0,0,0-1.705.424,3,3,0,0,0-1.144,1.176,3.618,3.618,0,0,0-.413,1.769v.424a3.455,3.455,0,0,0,.466,1.8,3.107,3.107,0,0,0,1.313,1.207,4.3,4.3,0,0,0,1.949.424,4.7,4.7,0,0,0,1.716-.3,3.652,3.652,0,0,0,1.356-.932l1.419,1.631a4.984,4.984,0,0,1-1.917,1.366A6.862,6.862,0,0,1,218.688,46.516Zm14.511-.148V44.08l-.148-.487v-4a2.344,2.344,0,0,0-.7-1.811,3.03,3.03,0,0,0-2.118-.646,6.084,6.084,0,0,0-1.875.3,4.606,4.606,0,0,0-1.557.826l-1.038-1.928a6.28,6.28,0,0,1,2.171-1.049,9.745,9.745,0,0,1,2.616-.35,5.6,5.6,0,0,1,3.8,1.176,4.575,4.575,0,0,1,1.345,3.633v6.63Zm-3.559.148a5.32,5.32,0,0,1-2.224-.434,3.437,3.437,0,0,1-1.472-1.207,3.064,3.064,0,0,1-.519-1.748,3.282,3.282,0,0,1,.455-1.716,3.071,3.071,0,0,1,1.493-1.207,7.1,7.1,0,0,1,2.754-.445h3.283v1.758h-3.093a2.758,2.758,0,0,0-1.822.434,1.4,1.4,0,0,0-.466,1.07,1.35,1.35,0,0,0,.572,1.144,2.622,2.622,0,0,0,1.589.424,3.441,3.441,0,0,0,1.748-.445,2.522,2.522,0,0,0,1.112-1.313l.445,1.589a2.943,2.943,0,0,1-1.366,1.546A5.053,5.053,0,0,1,229.64,46.516Zm12.943,0a9.9,9.9,0,0,1-2.722-.371,7,7,0,0,1-2.065-.9l1.017-2.012a7.232,7.232,0,0,0,1.822.8,7.339,7.339,0,0,0,2.118.318,3.65,3.65,0,0,0,1.811-.339,1.027,1.027,0,0,0,.561-.911.791.791,0,0,0-.381-.71,2.966,2.966,0,0,0-1-.371q-.614-.127-1.366-.233t-1.5-.286a5.191,5.191,0,0,1-1.366-.53,2.83,2.83,0,0,1-1-.943,2.862,2.862,0,0,1-.381-1.568,2.975,2.975,0,0,1,.614-1.875,3.922,3.922,0,0,1,1.726-1.229,7.242,7.242,0,0,1,2.637-.434,10.808,10.808,0,0,1,2.309.254,6.25,6.25,0,0,1,1.928.72l-1.017,2.012a5.362,5.362,0,0,0-1.621-.667,7.5,7.5,0,0,0-1.621-.18,3.485,3.485,0,0,0-1.79.36,1.055,1.055,0,0,0-.583.911.855.855,0,0,0,.381.763,3.111,3.111,0,0,0,1,.4,12.6,12.6,0,0,0,1.366.244,12.1,12.1,0,0,1,1.493.286,6.3,6.3,0,0,1,1.366.519,2.632,2.632,0,0,1,1.006.921,2.818,2.818,0,0,1,.381,1.546,2.868,2.868,0,0,1-.625,1.843,4.023,4.023,0,0,1-1.769,1.218A7.7,7.7,0,0,1,242.584,46.516Zm17.794.064a7.2,7.2,0,0,1-2.775-.508,4.645,4.645,0,0,1-1.928-1.4,3.232,3.232,0,0,1-.7-2.055,3.89,3.89,0,0,1,.466-1.907,5.316,5.316,0,0,1,1.483-1.621,16.132,16.132,0,0,1,2.606-1.557,18.852,18.852,0,0,0,1.96-1.08,3.529,3.529,0,0,0,1-.89,1.566,1.566,0,0,0,.286-.89,1.3,1.3,0,0,0-.445-1.027,1.863,1.863,0,0,0-1.271-.392,2.042,2.042,0,0,0-1.388.434,1.432,1.432,0,0,0-.5,1.133,1.841,1.841,0,0,0,.138.7,2.949,2.949,0,0,0,.5.763q.36.424,1.038,1.08l7.838,7.52L267.22,46.6l-8.473-8.134a11.284,11.284,0,0,1-1.165-1.292,4.2,4.2,0,0,1-.635-1.155,3.566,3.566,0,0,1-.191-1.155,3.226,3.226,0,0,1,.53-1.832,3.433,3.433,0,0,1,1.5-1.229,5.524,5.524,0,0,1,2.267-.434,5.094,5.094,0,0,1,2.087.392,3.2,3.2,0,0,1,1.377,1.123,3.029,3.029,0,0,1,.5,1.748,3.166,3.166,0,0,1-.445,1.642,4.879,4.879,0,0,1-1.388,1.43,16.351,16.351,0,0,1-2.51,1.419,11.8,11.8,0,0,0-1.843,1.08,3.606,3.606,0,0,0-.974,1.017,2.188,2.188,0,0,0-.3,1.123,1.685,1.685,0,0,0,.371,1.08,2.433,2.433,0,0,0,1.049.731,4.354,4.354,0,0,0,1.589.265A4.929,4.929,0,0,0,264.911,42a8.555,8.555,0,0,0,1.1-2.987l2.14.7a9.661,9.661,0,0,1-1.536,3.675,7.512,7.512,0,0,1-2.68,2.362A7.6,7.6,0,0,1,260.378,46.58Zm21.459-.064a6.54,6.54,0,0,1-3.167-.752A5.56,5.56,0,0,1,276.5,43.7a6.1,6.1,0,0,1,0-5.984,5.508,5.508,0,0,1,2.171-2.044,6.615,6.615,0,0,1,3.167-.741,6.133,6.133,0,0,1,2.913.667,4.435,4.435,0,0,1,1.917,1.959l-2.034,1.186a3.253,3.253,0,0,0-1.239-1.186,3.361,3.361,0,0,0-1.578-.381,3.637,3.637,0,0,0-1.758.424,3.045,3.045,0,0,0-1.229,1.218,4.263,4.263,0,0,0,0,3.792,3.045,3.045,0,0,0,1.229,1.218,3.637,3.637,0,0,0,1.758.424,3.361,3.361,0,0,0,1.578-.381,3.253,3.253,0,0,0,1.239-1.186l2.034,1.186a4.584,4.584,0,0,1-1.917,1.959A5.979,5.979,0,0,1,281.837,46.516Zm7.118-.148V35.056h2.521V38.17l-.3-.911a3.578,3.578,0,0,1,1.6-1.737,5.646,5.646,0,0,1,2.722-.593v2.521a1.863,1.863,0,0,0-.318-.053q-.148-.011-.3-.011a3.257,3.257,0,0,0-2.394.879,3.525,3.525,0,0,0-.89,2.616v5.487Zm14,.148a6.894,6.894,0,0,1-3.294-.752,5.449,5.449,0,0,1-2.182-2.065,5.776,5.776,0,0,1-.773-2.987,5.887,5.887,0,0,1,.752-3,5.4,5.4,0,0,1,2.076-2.044,6.072,6.072,0,0,1,3.019-.741,5.945,5.945,0,0,1,2.945.72,5.214,5.214,0,0,1,2.034,2.034,6.188,6.188,0,0,1,.741,3.093q0,.169-.011.381t-.032.4H298.8V39.8h8.029l-1.038.551a3.25,3.25,0,0,0-.4-1.716,3.1,3.1,0,0,0-1.154-1.165,3.3,3.3,0,0,0-1.684-.424,3.339,3.339,0,0,0-1.705.424,3,3,0,0,0-1.144,1.176,3.618,3.618,0,0,0-.413,1.769v.424a3.455,3.455,0,0,0,.466,1.8,3.107,3.107,0,0,0,1.313,1.207,4.3,4.3,0,0,0,1.949.424,4.7,4.7,0,0,0,1.716-.3,3.652,3.652,0,0,0,1.356-.932l1.419,1.631a4.984,4.984,0,0,1-1.917,1.366A6.862,6.862,0,0,1,302.957,46.516Zm14.511-.148V44.08l-.148-.487v-4a2.344,2.344,0,0,0-.7-1.811,3.03,3.03,0,0,0-2.118-.646,6.084,6.084,0,0,0-1.875.3,4.605,4.605,0,0,0-1.557.826l-1.038-1.928a6.28,6.28,0,0,1,2.171-1.049,9.745,9.745,0,0,1,2.616-.35,5.6,5.6,0,0,1,3.8,1.176,4.575,4.575,0,0,1,1.345,3.633v6.63Zm-3.559.148a5.32,5.32,0,0,1-2.224-.434,3.437,3.437,0,0,1-1.472-1.207,3.064,3.064,0,0,1-.519-1.748,3.282,3.282,0,0,1,.455-1.716,3.071,3.071,0,0,1,1.493-1.207,7.1,7.1,0,0,1,2.754-.445h3.283v1.758h-3.093a2.758,2.758,0,0,0-1.822.434,1.4,1.4,0,0,0-.466,1.07,1.35,1.35,0,0,0,.572,1.144,2.622,2.622,0,0,0,1.589.424,3.441,3.441,0,0,0,1.748-.445,2.522,2.522,0,0,0,1.112-1.313l.445,1.589a2.943,2.943,0,0,1-1.366,1.546A5.053,5.053,0,0,1,313.909,46.516Zm13.706,0a4.025,4.025,0,0,1-2.881-.964,3.744,3.744,0,0,1-1.017-2.849V32.556h2.648V42.639a1.768,1.768,0,0,0,.413,1.25,1.5,1.5,0,0,0,1.155.445,2.326,2.326,0,0,0,1.483-.466l.741,1.885a3.111,3.111,0,0,1-1.144.572A5.139,5.139,0,0,1,327.615,46.516Zm-5.762-9.257V35.14h7.541v2.118Zm10.507,9.109-.021-11.312,2.627.021.021,11.291Zm1.313-13.176a1.67,1.67,0,0,1-1.218-.466,1.573,1.573,0,0,1,0-2.256,1.691,1.691,0,0,1,1.218-.455,1.739,1.739,0,0,1,1.218.434,1.413,1.413,0,0,1,.477,1.091,1.616,1.616,0,0,1-.466,1.176A1.641,1.641,0,0,1,333.673,33.192Zm7.8,13.176-4.851-11.312h2.754l4.173,9.977h-1.356l4.321-9.977h2.542L344.2,46.368Zm9.257,0L350.7,35.056l2.627.021.021,11.291Zm1.313-13.176a1.67,1.67,0,0,1-1.218-.466,1.573,1.573,0,0,1,0-2.256,1.691,1.691,0,0,1,1.218-.455,1.739,1.739,0,0,1,1.218.434,1.414,1.414,0,0,1,.477,1.091,1.616,1.616,0,0,1-.466,1.176A1.641,1.641,0,0,1,352.039,33.192Zm9.045,13.324a4.025,4.025,0,0,1-2.881-.964,3.744,3.744,0,0,1-1.017-2.849V32.556h2.648V42.639a1.768,1.768,0,0,0,.413,1.25,1.5,1.5,0,0,0,1.155.445,2.327,2.327,0,0,0,1.483-.466l.741,1.885a3.111,3.111,0,0,1-1.144.572A5.139,5.139,0,0,1,361.085,46.516Zm-5.762-9.257V35.14h7.541v2.118Zm11.206,13.367a5.2,5.2,0,0,1-1.652-.275,3.919,3.919,0,0,1-1.377-.763l1.059-1.949a3.2,3.2,0,0,0,.911.572,2.676,2.676,0,0,0,1.038.212,1.794,1.794,0,0,0,1.165-.36,3.258,3.258,0,0,0,.826-1.207l.657-1.483.212-.318,4.279-10h2.542l-5.3,12.223a7.379,7.379,0,0,1-1.176,2.012,3.572,3.572,0,0,1-1.44,1.038A4.961,4.961,0,0,1,366.529,50.626Zm2.33-3.855-5.105-11.715h2.754l4.152,9.766Zm15.189-.4V34.42a3.9,3.9,0,0,1,1.049-2.849,4.009,4.009,0,0,1,3-1.07,5.72,5.72,0,0,1,1.324.148,2.805,2.805,0,0,1,1.049.466l-.72,1.991a2.06,2.06,0,0,0-.678-.35,2.667,2.667,0,0,0-.784-.117,1.625,1.625,0,0,0-1.25.455,1.943,1.943,0,0,0-.424,1.366v1.271l.085,1.186v9.448Zm-1.864-9.109V35.14h7.541v2.118Zm14.235,9.257a6.51,6.51,0,0,1-3.093-.763,5.566,5.566,0,0,1-2.14-2.044,5.7,5.7,0,0,1-.784-3,5.588,5.588,0,0,1,2.934-5.042,6.28,6.28,0,0,1,3.082-.741,6.385,6.385,0,0,1,3.114.741,5.591,5.591,0,0,1,2.14,2.034,5.686,5.686,0,0,1,.784,3.008,5.776,5.776,0,0,1-.773,2.987,5.428,5.428,0,0,1-2.15,2.055A6.638,6.638,0,0,1,396.419,46.516Zm0-2.267a3.516,3.516,0,0,0,1.737-.424,3,3,0,0,0,1.2-1.229,4.152,4.152,0,0,0,0-3.781,3.013,3.013,0,0,0-1.2-1.218,3.516,3.516,0,0,0-1.737-.424,3.413,3.413,0,0,0-1.705.424,3.1,3.1,0,0,0-1.2,1.218,4.24,4.24,0,0,0,0,3.781,3.161,3.161,0,0,0,1.2,1.239A3.2,3.2,0,0,0,396.419,44.249ZM405,46.368V35.056h2.521V38.17l-.3-.911a3.578,3.578,0,0,1,1.6-1.737,5.646,5.646,0,0,1,2.722-.593v2.521a1.863,1.863,0,0,0-.318-.053q-.148-.011-.3-.011a3.257,3.257,0,0,0-2.394.879,3.525,3.525,0,0,0-.89,2.616v5.487ZM88.78,72.514a5.112,5.112,0,0,1-2.563-.636,4.41,4.41,0,0,1-1.769-1.917A7.2,7.2,0,0,1,83.8,66.71a7,7,0,0,1,.667-3.262,4.461,4.461,0,0,1,1.8-1.9,5.111,5.111,0,0,1,2.51-.625,5.929,5.929,0,0,1,2.955.72,5.351,5.351,0,0,1,2.034,2.012,6.563,6.563,0,0,1,0,6.1,5.429,5.429,0,0,1-2.034,2.023A5.86,5.86,0,0,1,88.78,72.514Zm-6.27-.148V56.648h2.648v7.033l-.212,3.008.085,3.008v2.669Zm5.974-2.118a3.413,3.413,0,0,0,1.705-.424,3.086,3.086,0,0,0,1.2-1.229,4.24,4.24,0,0,0,0-3.781,3.1,3.1,0,0,0-1.2-1.218,3.413,3.413,0,0,0-1.705-.424,3.473,3.473,0,0,0-1.716.424,3.083,3.083,0,0,0-1.207,1.218,4.24,4.24,0,0,0,0,3.781,3.065,3.065,0,0,0,1.207,1.229A3.473,3.473,0,0,0,88.484,70.247Zm13.346,2.267a5.7,5.7,0,0,1-2.542-.54,3.877,3.877,0,0,1-1.716-1.652,5.755,5.755,0,0,1-.614-2.807V61.054H99.6v6.1a3.278,3.278,0,0,0,.688,2.277,2.523,2.523,0,0,0,1.959.752,3.293,3.293,0,0,0,1.621-.381,2.651,2.651,0,0,0,1.08-1.144,4.1,4.1,0,0,0,.392-1.885v-5.72h2.648V72.366h-2.521v-3.05l.445.932a3.894,3.894,0,0,1-1.674,1.684A5.085,5.085,0,0,1,101.829,72.514Zm13.134,0a9.9,9.9,0,0,1-2.722-.371,7,7,0,0,1-2.065-.9l1.017-2.012a7.232,7.232,0,0,0,1.822.8,7.339,7.339,0,0,0,2.118.318,3.65,3.65,0,0,0,1.811-.339,1.027,1.027,0,0,0,.561-.911.791.791,0,0,0-.381-.71,2.966,2.966,0,0,0-1-.371q-.614-.127-1.366-.233t-1.5-.286a5.191,5.191,0,0,1-1.366-.53,2.83,2.83,0,0,1-1-.943,2.862,2.862,0,0,1-.381-1.568,2.975,2.975,0,0,1,.614-1.875,3.922,3.922,0,0,1,1.726-1.229,7.241,7.241,0,0,1,2.637-.434,10.807,10.807,0,0,1,2.309.254,6.25,6.25,0,0,1,1.928.72l-1.017,2.012a5.363,5.363,0,0,0-1.621-.667,7.5,7.5,0,0,0-1.621-.18,3.485,3.485,0,0,0-1.79.36,1.055,1.055,0,0,0-.583.911.855.855,0,0,0,.381.763,3.111,3.111,0,0,0,1,.4,12.607,12.607,0,0,0,1.366.244,12.1,12.1,0,0,1,1.493.286,6.3,6.3,0,0,1,1.366.519,2.632,2.632,0,0,1,1.006.921,2.818,2.818,0,0,1,.381,1.546,2.868,2.868,0,0,1-.625,1.843A4.023,4.023,0,0,1,117.7,72.08,7.7,7.7,0,0,1,114.963,72.514Zm7.435-.148-.021-11.312,2.627.021.021,11.291Zm1.313-13.176a1.67,1.67,0,0,1-1.218-.466,1.573,1.573,0,0,1,0-2.256,1.691,1.691,0,0,1,1.218-.455,1.739,1.739,0,0,1,1.218.434,1.413,1.413,0,0,1,.477,1.091,1.616,1.616,0,0,1-.466,1.176A1.641,1.641,0,0,1,123.712,59.19Zm11.206,1.737a5.4,5.4,0,0,1,2.426.53,3.881,3.881,0,0,1,1.684,1.621,5.68,5.68,0,0,1,.614,2.807v6.482h-2.648V66.223a3.139,3.139,0,0,0-.71-2.245,2.612,2.612,0,0,0-1.981-.741,3.478,3.478,0,0,0-1.652.381,2.613,2.613,0,0,0-1.112,1.133,4.08,4.08,0,0,0-.392,1.9v5.72H128.5V61.054h2.521V64.1l-.445-.932a4.009,4.009,0,0,1,1.726-1.663A5.644,5.644,0,0,1,134.918,60.927Zm13.43,11.587a6.894,6.894,0,0,1-3.294-.752,5.449,5.449,0,0,1-2.182-2.065,5.776,5.776,0,0,1-.773-2.987,5.887,5.887,0,0,1,.752-3,5.4,5.4,0,0,1,2.076-2.044,6.072,6.072,0,0,1,3.019-.741,5.945,5.945,0,0,1,2.945.72,5.214,5.214,0,0,1,2.034,2.034,6.189,6.189,0,0,1,.741,3.093q0,.169-.011.381t-.032.4H144.2V65.8h8.029l-1.038.551a3.251,3.251,0,0,0-.4-1.716,3.1,3.1,0,0,0-1.155-1.165,3.3,3.3,0,0,0-1.684-.424,3.339,3.339,0,0,0-1.705.424,3,3,0,0,0-1.144,1.176,3.618,3.618,0,0,0-.413,1.769v.424a3.455,3.455,0,0,0,.466,1.8,3.107,3.107,0,0,0,1.313,1.207,4.3,4.3,0,0,0,1.949.424,4.7,4.7,0,0,0,1.716-.3,3.652,3.652,0,0,0,1.356-.932l1.419,1.631a4.984,4.984,0,0,1-1.917,1.366A6.862,6.862,0,0,1,148.348,72.514Zm11.354,0a9.9,9.9,0,0,1-2.722-.371,7,7,0,0,1-2.065-.9l1.017-2.012a7.232,7.232,0,0,0,1.822.8,7.339,7.339,0,0,0,2.118.318,3.65,3.65,0,0,0,1.811-.339,1.027,1.027,0,0,0,.561-.911.791.791,0,0,0-.381-.71,2.966,2.966,0,0,0-1-.371q-.614-.127-1.366-.233T158,67.5a5.191,5.191,0,0,1-1.366-.53,2.83,2.83,0,0,1-1-.943,2.862,2.862,0,0,1-.381-1.568,2.975,2.975,0,0,1,.614-1.875,3.922,3.922,0,0,1,1.726-1.229,7.241,7.241,0,0,1,2.637-.434,10.807,10.807,0,0,1,2.309.254,6.25,6.25,0,0,1,1.928.72l-1.017,2.012a5.363,5.363,0,0,0-1.621-.667,7.5,7.5,0,0,0-1.621-.18,3.485,3.485,0,0,0-1.79.36,1.055,1.055,0,0,0-.583.911.855.855,0,0,0,.381.763,3.111,3.111,0,0,0,1,.4,12.607,12.607,0,0,0,1.366.244,12.1,12.1,0,0,1,1.493.286,6.3,6.3,0,0,1,1.366.519,2.632,2.632,0,0,1,1.006.921,2.818,2.818,0,0,1,.381,1.546,2.868,2.868,0,0,1-.625,1.843,4.023,4.023,0,0,1-1.769,1.218A7.7,7.7,0,0,1,159.7,72.514Zm10.91,0a9.9,9.9,0,0,1-2.722-.371,7,7,0,0,1-2.065-.9l1.017-2.012a7.232,7.232,0,0,0,1.822.8,7.339,7.339,0,0,0,2.118.318,3.65,3.65,0,0,0,1.811-.339,1.027,1.027,0,0,0,.561-.911.791.791,0,0,0-.381-.71,2.966,2.966,0,0,0-1-.371q-.614-.127-1.366-.233t-1.5-.286a5.191,5.191,0,0,1-1.366-.53,2.83,2.83,0,0,1-1-.943,2.862,2.862,0,0,1-.381-1.568,2.975,2.975,0,0,1,.614-1.875,3.922,3.922,0,0,1,1.726-1.229,7.241,7.241,0,0,1,2.637-.434,10.807,10.807,0,0,1,2.309.254,6.249,6.249,0,0,1,1.928.72l-1.017,2.012a5.363,5.363,0,0,0-1.621-.667,7.5,7.5,0,0,0-1.621-.18,3.485,3.485,0,0,0-1.79.36,1.055,1.055,0,0,0-.583.911.855.855,0,0,0,.381.763,3.111,3.111,0,0,0,1,.4,12.606,12.606,0,0,0,1.366.244,12.1,12.1,0,0,1,1.493.286,6.3,6.3,0,0,1,1.366.519,2.632,2.632,0,0,1,1.006.921,2.818,2.818,0,0,1,.381,1.546,2.868,2.868,0,0,1-.625,1.843,4.023,4.023,0,0,1-1.769,1.218A7.7,7.7,0,0,1,170.612,72.514Zm18.578,0a6.894,6.894,0,0,1-3.294-.752,5.449,5.449,0,0,1-2.182-2.065,5.776,5.776,0,0,1-.773-2.987,5.887,5.887,0,0,1,.752-3,5.4,5.4,0,0,1,2.076-2.044,6.072,6.072,0,0,1,3.019-.741,5.945,5.945,0,0,1,2.945.72,5.214,5.214,0,0,1,2.034,2.034,6.189,6.189,0,0,1,.741,3.093q0,.169-.011.381t-.032.4h-9.427V65.8h8.029l-1.038.551a3.251,3.251,0,0,0-.4-1.716,3.1,3.1,0,0,0-1.155-1.165,3.3,3.3,0,0,0-1.684-.424,3.339,3.339,0,0,0-1.705.424,3,3,0,0,0-1.144,1.176,3.618,3.618,0,0,0-.413,1.769v.424a3.455,3.455,0,0,0,.466,1.8,3.107,3.107,0,0,0,1.313,1.207,4.3,4.3,0,0,0,1.949.424,4.7,4.7,0,0,0,1.716-.3,3.652,3.652,0,0,0,1.356-.932l1.419,1.631a4.984,4.984,0,0,1-1.917,1.366A6.862,6.862,0,0,1,189.19,72.514Zm5.995-.148,4.978-6.482-.042,1.419-4.745-6.249h2.945l3.326,4.449h-1.123l3.347-4.449h2.86L201.943,67.3l.021-1.419,4.957,6.482h-2.987l-3.5-4.724,1.1.148-3.432,4.576Zm19.955.148a5.044,5.044,0,0,1-2.51-.636,4.517,4.517,0,0,1-1.8-1.917,7.01,7.01,0,0,1-.667-3.252,7.191,7.191,0,0,1,.646-3.262,4.355,4.355,0,0,1,1.769-1.9,5.181,5.181,0,0,1,2.563-.625,5.929,5.929,0,0,1,2.955.72,5.351,5.351,0,0,1,2.034,2.012,6.584,6.584,0,0,1,0,6.111,5.329,5.329,0,0,1-2.034,2.023A5.929,5.929,0,0,1,215.14,72.514Zm-6.27,3.961V61.054h2.521v2.669l-.085,3.008.212,3.008v6.736Zm5.974-6.228a3.413,3.413,0,0,0,1.705-.424,3.086,3.086,0,0,0,1.2-1.229,4.24,4.24,0,0,0,0-3.781,3.1,3.1,0,0,0-1.2-1.218,3.414,3.414,0,0,0-1.705-.424,3.473,3.473,0,0,0-1.716.424,3.083,3.083,0,0,0-1.207,1.218,4.24,4.24,0,0,0,0,3.781,3.065,3.065,0,0,0,1.207,1.229A3.473,3.473,0,0,0,214.844,70.247Zm15.379,2.118V70.078l-.148-.487v-4a2.344,2.344,0,0,0-.7-1.811,3.03,3.03,0,0,0-2.118-.646,6.084,6.084,0,0,0-1.875.3,4.606,4.606,0,0,0-1.557.826l-1.038-1.928a6.28,6.28,0,0,1,2.171-1.049,9.745,9.745,0,0,1,2.616-.35,5.6,5.6,0,0,1,3.8,1.176,4.575,4.575,0,0,1,1.345,3.633v6.63Zm-3.559.148a5.32,5.32,0,0,1-2.224-.434,3.437,3.437,0,0,1-1.472-1.207,3.064,3.064,0,0,1-.519-1.748,3.282,3.282,0,0,1,.455-1.716A3.071,3.071,0,0,1,224.4,66.2a7.1,7.1,0,0,1,2.754-.445h3.283v1.758h-3.093a2.758,2.758,0,0,0-1.822.434,1.4,1.4,0,0,0-.466,1.07,1.35,1.35,0,0,0,.572,1.144,2.622,2.622,0,0,0,1.589.424,3.441,3.441,0,0,0,1.748-.445,2.522,2.522,0,0,0,1.112-1.313l.445,1.589a2.943,2.943,0,0,1-1.366,1.546A5.053,5.053,0,0,1,226.664,72.514Zm15.867-11.587a5.4,5.4,0,0,1,2.426.53,3.881,3.881,0,0,1,1.684,1.621,5.68,5.68,0,0,1,.614,2.807v6.482h-2.648V66.223a3.139,3.139,0,0,0-.71-2.245,2.612,2.612,0,0,0-1.981-.741,3.478,3.478,0,0,0-1.652.381,2.613,2.613,0,0,0-1.112,1.133,4.08,4.08,0,0,0-.392,1.9v5.72h-2.648V61.054h2.521V64.1l-.445-.932a4.009,4.009,0,0,1,1.726-1.663A5.644,5.644,0,0,1,242.531,60.927Zm11.587,11.587a9.9,9.9,0,0,1-2.722-.371,7,7,0,0,1-2.065-.9l1.017-2.012a7.232,7.232,0,0,0,1.822.8,7.339,7.339,0,0,0,2.118.318,3.65,3.65,0,0,0,1.811-.339,1.027,1.027,0,0,0,.561-.911.791.791,0,0,0-.381-.71,2.966,2.966,0,0,0-1-.371q-.614-.127-1.366-.233t-1.5-.286a5.191,5.191,0,0,1-1.366-.53,2.831,2.831,0,0,1-1-.943,2.862,2.862,0,0,1-.381-1.568,2.975,2.975,0,0,1,.614-1.875,3.922,3.922,0,0,1,1.726-1.229,7.241,7.241,0,0,1,2.637-.434,10.807,10.807,0,0,1,2.309.254,6.249,6.249,0,0,1,1.928.72l-1.017,2.012a5.363,5.363,0,0,0-1.621-.667,7.5,7.5,0,0,0-1.621-.18,3.485,3.485,0,0,0-1.79.36,1.055,1.055,0,0,0-.583.911.855.855,0,0,0,.381.763,3.111,3.111,0,0,0,1,.4,12.607,12.607,0,0,0,1.366.244,12.1,12.1,0,0,1,1.493.286,6.3,6.3,0,0,1,1.366.519,2.632,2.632,0,0,1,1.006.921,2.818,2.818,0,0,1,.381,1.546,2.868,2.868,0,0,1-.625,1.843,4.023,4.023,0,0,1-1.769,1.218A7.7,7.7,0,0,1,254.118,72.514Zm7.435-.148-.021-11.312,2.627.021.021,11.291Zm1.313-13.176a1.67,1.67,0,0,1-1.218-.466,1.573,1.573,0,0,1,0-2.256,1.691,1.691,0,0,1,1.218-.455,1.739,1.739,0,0,1,1.218.434,1.413,1.413,0,0,1,.477,1.091,1.616,1.616,0,0,1-.466,1.176A1.641,1.641,0,0,1,262.867,59.19Zm9.872,13.324a6.51,6.51,0,0,1-3.093-.763,5.566,5.566,0,0,1-2.14-2.044,5.7,5.7,0,0,1-.784-3,5.588,5.588,0,0,1,2.934-5.042,6.28,6.28,0,0,1,3.082-.741,6.385,6.385,0,0,1,3.114.741,5.591,5.591,0,0,1,2.14,2.034,5.686,5.686,0,0,1,.784,3.008A5.776,5.776,0,0,1,278,69.7a5.428,5.428,0,0,1-2.15,2.055A6.638,6.638,0,0,1,272.738,72.514Zm0-2.267a3.516,3.516,0,0,0,1.737-.424,3,3,0,0,0,1.2-1.229,4.152,4.152,0,0,0,0-3.781,3.013,3.013,0,0,0-1.2-1.218,3.516,3.516,0,0,0-1.737-.424,3.414,3.414,0,0,0-1.705.424,3.1,3.1,0,0,0-1.2,1.218,4.24,4.24,0,0,0,0,3.781,3.161,3.161,0,0,0,1.2,1.239A3.2,3.2,0,0,0,272.738,70.247Zm15-9.321a5.4,5.4,0,0,1,2.426.53,3.881,3.881,0,0,1,1.684,1.621,5.68,5.68,0,0,1,.614,2.807v6.482h-2.648V66.223a3.138,3.138,0,0,0-.71-2.245,2.612,2.612,0,0,0-1.981-.741,3.478,3.478,0,0,0-1.652.381,2.613,2.613,0,0,0-1.112,1.133,4.08,4.08,0,0,0-.392,1.9v5.72h-2.648V61.054h2.521V64.1l-.445-.932a4.009,4.009,0,0,1,1.726-1.663A5.644,5.644,0,0,1,287.736,60.927ZM301.7,72.366l-.021-11.312,2.627.021.021,11.291ZM303.01,59.19a1.67,1.67,0,0,1-1.218-.466,1.573,1.573,0,0,1,0-2.256,1.691,1.691,0,0,1,1.218-.455,1.739,1.739,0,0,1,1.218.434,1.413,1.413,0,0,1,.477,1.091,1.616,1.616,0,0,1-.466,1.176A1.641,1.641,0,0,1,303.01,59.19Zm8.283,13.324a9.9,9.9,0,0,1-2.722-.371,7,7,0,0,1-2.065-.9l1.017-2.012a7.232,7.232,0,0,0,1.822.8,7.339,7.339,0,0,0,2.118.318,3.65,3.65,0,0,0,1.811-.339,1.027,1.027,0,0,0,.561-.911.791.791,0,0,0-.381-.71,2.966,2.966,0,0,0-1-.371q-.614-.127-1.366-.233t-1.5-.286a5.191,5.191,0,0,1-1.366-.53,2.831,2.831,0,0,1-1-.943,2.862,2.862,0,0,1-.381-1.568,2.975,2.975,0,0,1,.614-1.875,3.922,3.922,0,0,1,1.726-1.229,7.242,7.242,0,0,1,2.637-.434,10.807,10.807,0,0,1,2.309.254,6.249,6.249,0,0,1,1.928.72l-1.017,2.012a5.362,5.362,0,0,0-1.621-.667,7.5,7.5,0,0,0-1.621-.18,3.485,3.485,0,0,0-1.79.36,1.055,1.055,0,0,0-.583.911.855.855,0,0,0,.381.763,3.111,3.111,0,0,0,1,.4,12.607,12.607,0,0,0,1.366.244,12.1,12.1,0,0,1,1.493.286,6.3,6.3,0,0,1,1.366.519,2.632,2.632,0,0,1,1.006.921,2.818,2.818,0,0,1,.381,1.546,2.868,2.868,0,0,1-.625,1.843,4.023,4.023,0,0,1-1.769,1.218A7.7,7.7,0,0,1,311.293,72.514Zm20.23-.148V70.078l-.148-.487v-4a2.344,2.344,0,0,0-.7-1.811,3.03,3.03,0,0,0-2.118-.646,6.084,6.084,0,0,0-1.875.3,4.606,4.606,0,0,0-1.557.826l-1.038-1.928a6.279,6.279,0,0,1,2.171-1.049,9.745,9.745,0,0,1,2.616-.35,5.6,5.6,0,0,1,3.8,1.176,4.575,4.575,0,0,1,1.345,3.633v6.63Zm-3.559.148a5.32,5.32,0,0,1-2.224-.434,3.437,3.437,0,0,1-1.472-1.207,3.064,3.064,0,0,1-.519-1.748,3.282,3.282,0,0,1,.455-1.716A3.071,3.071,0,0,1,325.7,66.2a7.1,7.1,0,0,1,2.754-.445h3.283v1.758h-3.093a2.758,2.758,0,0,0-1.822.434,1.4,1.4,0,0,0-.466,1.07,1.35,1.35,0,0,0,.572,1.144,2.622,2.622,0,0,0,1.589.424,3.441,3.441,0,0,0,1.748-.445,2.522,2.522,0,0,0,1.112-1.313l.445,1.589a2.943,2.943,0,0,1-1.366,1.546A5.053,5.053,0,0,1,327.964,72.514Zm29.572-11.587a5.262,5.262,0,0,1,2.4.53,3.787,3.787,0,0,1,1.642,1.621,5.847,5.847,0,0,1,.593,2.807v6.482h-2.648V66.223a3.305,3.305,0,0,0-.657-2.245,2.386,2.386,0,0,0-1.885-.741,3.041,3.041,0,0,0-1.536.381,2.586,2.586,0,0,0-1.038,1.123,4.209,4.209,0,0,0-.371,1.885v5.741h-2.648V66.223a3.305,3.305,0,0,0-.657-2.245,2.386,2.386,0,0,0-1.885-.741,3.04,3.04,0,0,0-1.536.381,2.586,2.586,0,0,0-1.038,1.123,4.208,4.208,0,0,0-.371,1.885v5.741h-2.648V61.054h2.521v3.008l-.445-.89A3.846,3.846,0,0,1,347,61.5a5.281,5.281,0,0,1,2.489-.572,4.867,4.867,0,0,1,2.764.784,3.774,3.774,0,0,1,1.557,2.373l-1.038-.36a4.364,4.364,0,0,1,1.822-2.034A5.612,5.612,0,0,1,357.536,60.927Zm15,11.439V70.078l-.148-.487v-4a2.344,2.344,0,0,0-.7-1.811,3.03,3.03,0,0,0-2.118-.646,6.084,6.084,0,0,0-1.875.3,4.606,4.606,0,0,0-1.557.826L365.1,62.325a6.279,6.279,0,0,1,2.171-1.049,9.745,9.745,0,0,1,2.616-.35,5.6,5.6,0,0,1,3.8,1.176,4.575,4.575,0,0,1,1.345,3.633v6.63Zm-3.559.148a5.32,5.32,0,0,1-2.224-.434,3.437,3.437,0,0,1-1.472-1.207,3.064,3.064,0,0,1-.519-1.748,3.282,3.282,0,0,1,.455-1.716,3.071,3.071,0,0,1,1.493-1.207,7.1,7.1,0,0,1,2.754-.445h3.283v1.758h-3.093a2.758,2.758,0,0,0-1.822.434,1.4,1.4,0,0,0-.466,1.07,1.35,1.35,0,0,0,.572,1.144,2.622,2.622,0,0,0,1.589.424,3.441,3.441,0,0,0,1.748-.445,2.522,2.522,0,0,0,1.112-1.313l.445,1.589a2.943,2.943,0,0,1-1.366,1.546A5.053,5.053,0,0,1,368.975,72.514Zm8.283,4.11a6.066,6.066,0,0,1-1.409-.159,3.141,3.141,0,0,1-1.133-.5l.763-1.97a2.569,2.569,0,0,0,1.546.445,1.42,1.42,0,0,0,1.123-.455,1.976,1.976,0,0,0,.4-1.345V61.054H381.2V72.578a4.136,4.136,0,0,1-1.027,2.955A3.807,3.807,0,0,1,377.258,76.624Zm2.606-17.434a1.67,1.67,0,0,1-1.218-.466,1.573,1.573,0,0,1,0-2.256,1.691,1.691,0,0,1,1.218-.455,1.739,1.739,0,0,1,1.218.434,1.414,1.414,0,0,1,.477,1.091,1.616,1.616,0,0,1-.466,1.176A1.641,1.641,0,0,1,379.864,59.19Zm9.893,13.324a6.51,6.51,0,0,1-3.093-.763,5.566,5.566,0,0,1-2.14-2.044,5.7,5.7,0,0,1-.784-3,5.588,5.588,0,0,1,2.934-5.042,6.28,6.28,0,0,1,3.082-.741,6.385,6.385,0,0,1,3.114.741,5.591,5.591,0,0,1,2.14,2.034,5.686,5.686,0,0,1,.784,3.008,5.776,5.776,0,0,1-.773,2.987,5.428,5.428,0,0,1-2.15,2.055A6.638,6.638,0,0,1,389.757,72.514Zm0-2.267a3.516,3.516,0,0,0,1.737-.424,3,3,0,0,0,1.2-1.229,4.152,4.152,0,0,0,0-3.781,3.013,3.013,0,0,0-1.2-1.218,3.516,3.516,0,0,0-1.737-.424,3.414,3.414,0,0,0-1.705.424,3.1,3.1,0,0,0-1.2,1.218,4.24,4.24,0,0,0,0,3.781,3.161,3.161,0,0,0,1.2,1.239A3.2,3.2,0,0,0,389.757,70.247Zm8.579,2.118V61.054h2.521v3.114l-.3-.911a3.578,3.578,0,0,1,1.6-1.737,5.646,5.646,0,0,1,2.722-.593v2.521a1.862,1.862,0,0,0-.318-.053q-.148-.011-.3-.011a3.257,3.257,0,0,0-2.394.879,3.525,3.525,0,0,0-.89,2.616v5.487ZM67.162,98.512a5.044,5.044,0,0,1-2.51-.635,4.517,4.517,0,0,1-1.8-1.917,7.01,7.01,0,0,1-.667-3.252,7.191,7.191,0,0,1,.646-3.262,4.355,4.355,0,0,1,1.769-1.9,5.181,5.181,0,0,1,2.563-.625,5.929,5.929,0,0,1,2.955.72,5.351,5.351,0,0,1,2.034,2.012,6.584,6.584,0,0,1,0,6.111,5.329,5.329,0,0,1-2.034,2.023A5.929,5.929,0,0,1,67.162,98.512Zm-6.27,3.961V87.052h2.521v2.669l-.085,3.008.212,3.008v6.736Zm5.974-6.228a3.413,3.413,0,0,0,1.705-.424,3.086,3.086,0,0,0,1.2-1.229,4.24,4.24,0,0,0,0-3.781,3.1,3.1,0,0,0-1.2-1.218,3.414,3.414,0,0,0-1.705-.424,3.473,3.473,0,0,0-1.716.424,3.083,3.083,0,0,0-1.207,1.218,4.24,4.24,0,0,0,0,3.781,3.065,3.065,0,0,0,1.207,1.229A3.473,3.473,0,0,0,66.866,96.245Zm15.379,2.118V96.076l-.148-.487v-4a2.344,2.344,0,0,0-.7-1.811,3.03,3.03,0,0,0-2.118-.646,6.084,6.084,0,0,0-1.875.3,4.605,4.605,0,0,0-1.557.826L74.81,88.323a6.28,6.28,0,0,1,2.171-1.049,9.745,9.745,0,0,1,2.616-.35A5.6,5.6,0,0,1,83.4,88.1a4.575,4.575,0,0,1,1.345,3.633v6.63Zm-3.559.148a5.32,5.32,0,0,1-2.224-.434A3.437,3.437,0,0,1,74.99,96.87a3.064,3.064,0,0,1-.519-1.748,3.282,3.282,0,0,1,.455-1.716A3.071,3.071,0,0,1,76.42,92.2a7.1,7.1,0,0,1,2.754-.445h3.283v1.758H79.364a2.758,2.758,0,0,0-1.822.434,1.4,1.4,0,0,0-.466,1.07,1.35,1.35,0,0,0,.572,1.144,2.622,2.622,0,0,0,1.589.424,3.441,3.441,0,0,0,1.748-.445A2.522,2.522,0,0,0,82.1,94.826l.445,1.589a2.943,2.943,0,0,1-1.366,1.546A5.053,5.053,0,0,1,78.686,98.512Zm9.448-.148V87.052h2.521v3.114l-.3-.911a3.578,3.578,0,0,1,1.6-1.737,5.646,5.646,0,0,1,2.722-.593v2.521a1.862,1.862,0,0,0-.318-.053q-.148-.011-.3-.011a3.257,3.257,0,0,0-2.394.879,3.525,3.525,0,0,0-.89,2.616v5.487Zm13.473.148a4.025,4.025,0,0,1-2.881-.964A3.744,3.744,0,0,1,97.709,94.7V84.552h2.648V94.636a1.768,1.768,0,0,0,.413,1.25,1.5,1.5,0,0,0,1.155.445,2.326,2.326,0,0,0,1.483-.466l.741,1.885a3.111,3.111,0,0,1-1.144.572A5.139,5.139,0,0,1,101.607,98.512Zm-5.762-9.257V87.137h7.541v2.118Zm21.417,9.257a6.51,6.51,0,0,1-3.093-.763,5.566,5.566,0,0,1-2.14-2.044,5.7,5.7,0,0,1-.784-3,5.588,5.588,0,0,1,2.934-5.042,6.279,6.279,0,0,1,3.082-.741,6.385,6.385,0,0,1,3.114.741,5.591,5.591,0,0,1,2.14,2.034,5.685,5.685,0,0,1,.784,3.008,5.776,5.776,0,0,1-.773,2.987,5.428,5.428,0,0,1-2.15,2.055A6.638,6.638,0,0,1,117.261,98.512Zm0-2.267A3.516,3.516,0,0,0,119,95.822a3,3,0,0,0,1.2-1.229,4.152,4.152,0,0,0,0-3.781,3.013,3.013,0,0,0-1.2-1.218,3.516,3.516,0,0,0-1.737-.424,3.414,3.414,0,0,0-1.705.424,3.1,3.1,0,0,0-1.2,1.218,4.24,4.24,0,0,0,0,3.781,3.161,3.161,0,0,0,1.2,1.239A3.2,3.2,0,0,0,117.261,96.245Zm8.939,2.118V86.416a3.9,3.9,0,0,1,1.049-2.849,4.009,4.009,0,0,1,3-1.07,5.72,5.72,0,0,1,1.324.148,2.805,2.805,0,0,1,1.049.466L131.9,85.1a2.06,2.06,0,0,0-.678-.35,2.667,2.667,0,0,0-.784-.117,1.625,1.625,0,0,0-1.25.455,1.943,1.943,0,0,0-.424,1.366V87.73l.085,1.186v9.448Zm-1.864-9.109V87.137h7.541v2.118Zm19.425,9.257a4.025,4.025,0,0,1-2.881-.964,3.744,3.744,0,0,1-1.017-2.849V84.552h2.648V94.636a1.768,1.768,0,0,0,.413,1.25,1.5,1.5,0,0,0,1.155.445,2.326,2.326,0,0,0,1.483-.466l.741,1.885a3.111,3.111,0,0,1-1.144.572A5.139,5.139,0,0,1,143.762,98.512ZM138,89.255V87.137h7.541v2.118Zm16.9-2.33a5.4,5.4,0,0,1,2.426.53,3.881,3.881,0,0,1,1.684,1.621,5.68,5.68,0,0,1,.614,2.807v6.482h-2.648V92.221a3.139,3.139,0,0,0-.71-2.245,2.612,2.612,0,0,0-1.981-.741,3.478,3.478,0,0,0-1.652.381,2.613,2.613,0,0,0-1.112,1.133,4.08,4.08,0,0,0-.392,1.9v5.72h-2.648V82.646h2.648V90.1l-.572-.932a4.009,4.009,0,0,1,1.726-1.663A5.644,5.644,0,0,1,154.9,86.925Zm13.43,11.587a6.894,6.894,0,0,1-3.294-.752,5.449,5.449,0,0,1-2.182-2.065,5.776,5.776,0,0,1-.773-2.987,5.887,5.887,0,0,1,.752-3,5.4,5.4,0,0,1,2.076-2.044,6.072,6.072,0,0,1,3.019-.741,5.945,5.945,0,0,1,2.945.72,5.214,5.214,0,0,1,2.034,2.034,6.188,6.188,0,0,1,.741,3.093q0,.169-.011.381t-.032.4h-9.427V91.8h8.029l-1.038.551a3.251,3.251,0,0,0-.4-1.716,3.1,3.1,0,0,0-1.155-1.165,3.3,3.3,0,0,0-1.684-.424,3.339,3.339,0,0,0-1.705.424,3,3,0,0,0-1.144,1.176,3.618,3.618,0,0,0-.413,1.769v.424a3.455,3.455,0,0,0,.466,1.8,3.107,3.107,0,0,0,1.313,1.207,4.3,4.3,0,0,0,1.949.424,4.7,4.7,0,0,0,1.716-.3,3.652,3.652,0,0,0,1.356-.932l1.419,1.631a4.984,4.984,0,0,1-1.917,1.366A6.862,6.862,0,0,1,168.335,98.512Zm18.493,0a5.892,5.892,0,0,1-2.934-.731,5.309,5.309,0,0,1-2.044-2.023,6.646,6.646,0,0,1,0-6.1,5.234,5.234,0,0,1,2.044-2.012,5.961,5.961,0,0,1,2.934-.72,5.137,5.137,0,0,1,2.542.625,4.417,4.417,0,0,1,1.779,1.9,7.092,7.092,0,0,1,.657,3.262,7.307,7.307,0,0,1-.636,3.252,4.348,4.348,0,0,1-1.758,1.917A5.155,5.155,0,0,1,186.828,98.512Zm.318-2.267a3.413,3.413,0,0,0,1.705-.424,3.158,3.158,0,0,0,1.207-1.229,4.152,4.152,0,0,0,0-3.781,3.177,3.177,0,0,0-1.207-1.218,3.644,3.644,0,0,0-3.411,0,3.177,3.177,0,0,0-1.207,1.218,4.152,4.152,0,0,0,0,3.781,3.158,3.158,0,0,0,1.207,1.229A3.413,3.413,0,0,0,187.146,96.245Zm3.432,2.118V95.695l.106-3.008-.212-3.008V82.646H193.1V98.364Zm11.333.148a6.894,6.894,0,0,1-3.294-.752,5.449,5.449,0,0,1-2.182-2.065,5.776,5.776,0,0,1-.773-2.987,5.887,5.887,0,0,1,.752-3,5.4,5.4,0,0,1,2.076-2.044,6.072,6.072,0,0,1,3.019-.741,5.945,5.945,0,0,1,2.945.72,5.214,5.214,0,0,1,2.034,2.034,6.188,6.188,0,0,1,.741,3.093q0,.169-.011.381t-.032.4h-9.427V91.8h8.029l-1.038.551a3.25,3.25,0,0,0-.4-1.716,3.1,3.1,0,0,0-1.155-1.165,3.3,3.3,0,0,0-1.684-.424,3.339,3.339,0,0,0-1.705.424,3,3,0,0,0-1.144,1.176,3.618,3.618,0,0,0-.413,1.769v.424a3.455,3.455,0,0,0,.466,1.8,3.107,3.107,0,0,0,1.313,1.207,4.3,4.3,0,0,0,1.949.424,4.7,4.7,0,0,0,1.716-.3,3.652,3.652,0,0,0,1.356-.932l1.419,1.631a4.984,4.984,0,0,1-1.917,1.366A6.862,6.862,0,0,1,201.911,98.512Zm10.655-.148-4.851-11.312h2.754l4.173,9.977h-1.356l4.321-9.977h2.542L215.3,98.364Zm14.235.148a6.894,6.894,0,0,1-3.294-.752,5.449,5.449,0,0,1-2.182-2.065,5.776,5.776,0,0,1-.773-2.987,5.887,5.887,0,0,1,.752-3,5.4,5.4,0,0,1,2.076-2.044,6.072,6.072,0,0,1,3.019-.741,5.945,5.945,0,0,1,2.945.72,5.214,5.214,0,0,1,2.034,2.034,6.188,6.188,0,0,1,.741,3.093q0,.169-.011.381t-.032.4H222.65V91.8h8.029l-1.038.551a3.25,3.25,0,0,0-.4-1.716,3.1,3.1,0,0,0-1.155-1.165,3.3,3.3,0,0,0-1.684-.424,3.339,3.339,0,0,0-1.705.424,3,3,0,0,0-1.144,1.176,3.618,3.618,0,0,0-.413,1.769v.424a3.455,3.455,0,0,0,.466,1.8,3.107,3.107,0,0,0,1.313,1.207,4.3,4.3,0,0,0,1.949.424,4.7,4.7,0,0,0,1.716-.3,3.652,3.652,0,0,0,1.356-.932l1.419,1.631a4.984,4.984,0,0,1-1.917,1.366A6.862,6.862,0,0,1,226.8,98.512Zm7.88-.148-.021-15.718h2.648V98.364Zm11.185.148a6.51,6.51,0,0,1-3.093-.763,5.566,5.566,0,0,1-2.14-2.044,5.7,5.7,0,0,1-.784-3,5.588,5.588,0,0,1,2.934-5.042,6.28,6.28,0,0,1,3.082-.741,6.385,6.385,0,0,1,3.114.741,5.591,5.591,0,0,1,2.14,2.034,5.685,5.685,0,0,1,.784,3.008,5.776,5.776,0,0,1-.773,2.987,5.428,5.428,0,0,1-2.15,2.055A6.638,6.638,0,0,1,245.867,98.512Zm0-2.267a3.516,3.516,0,0,0,1.737-.424,3,3,0,0,0,1.2-1.229,4.152,4.152,0,0,0,0-3.781,3.013,3.013,0,0,0-1.2-1.218,3.516,3.516,0,0,0-1.737-.424,3.413,3.413,0,0,0-1.705.424,3.1,3.1,0,0,0-1.2,1.218,4.24,4.24,0,0,0,0,3.781,3.161,3.161,0,0,0,1.2,1.239A3.2,3.2,0,0,0,245.867,96.245Zm14.85,2.267a5.044,5.044,0,0,1-2.51-.635,4.517,4.517,0,0,1-1.8-1.917,7.01,7.01,0,0,1-.667-3.252,7.191,7.191,0,0,1,.646-3.262,4.355,4.355,0,0,1,1.769-1.9,5.181,5.181,0,0,1,2.563-.625,5.929,5.929,0,0,1,2.955.72,5.351,5.351,0,0,1,2.034,2.012,6.584,6.584,0,0,1,0,6.111,5.329,5.329,0,0,1-2.034,2.023A5.929,5.929,0,0,1,260.717,98.512Zm-6.27,3.961V87.052h2.521v2.669l-.085,3.008.212,3.008v6.736Zm5.974-6.228a3.413,3.413,0,0,0,1.705-.424,3.087,3.087,0,0,0,1.2-1.229,4.24,4.24,0,0,0,0-3.781,3.1,3.1,0,0,0-1.2-1.218,3.413,3.413,0,0,0-1.705-.424,3.473,3.473,0,0,0-1.716.424,3.083,3.083,0,0,0-1.207,1.218,4.24,4.24,0,0,0,0,3.781,3.065,3.065,0,0,0,1.207,1.229A3.472,3.472,0,0,0,260.42,96.245Zm22.836-9.321a5.262,5.262,0,0,1,2.4.53,3.788,3.788,0,0,1,1.642,1.621,5.847,5.847,0,0,1,.593,2.807v6.482h-2.648V92.221a3.305,3.305,0,0,0-.657-2.245,2.386,2.386,0,0,0-1.885-.741,3.04,3.04,0,0,0-1.536.381,2.586,2.586,0,0,0-1.038,1.123,4.209,4.209,0,0,0-.371,1.885v5.741h-2.648V92.221a3.305,3.305,0,0,0-.657-2.245,2.386,2.386,0,0,0-1.885-.741,3.04,3.04,0,0,0-1.536.381A2.586,2.586,0,0,0,272,90.738a4.209,4.209,0,0,0-.371,1.885v5.741h-2.648V87.052H271.5V90.06l-.445-.89a3.846,3.846,0,0,1,1.663-1.674,5.281,5.281,0,0,1,2.489-.572,4.867,4.867,0,0,1,2.764.784,3.774,3.774,0,0,1,1.557,2.373l-1.038-.36a4.364,4.364,0,0,1,1.822-2.034A5.612,5.612,0,0,1,283.256,86.925Zm13.367,11.587a6.894,6.894,0,0,1-3.294-.752,5.448,5.448,0,0,1-2.182-2.065,5.776,5.776,0,0,1-.773-2.987,5.887,5.887,0,0,1,.752-3,5.4,5.4,0,0,1,2.076-2.044,6.072,6.072,0,0,1,3.019-.741,5.945,5.945,0,0,1,2.945.72,5.214,5.214,0,0,1,2.034,2.034,6.188,6.188,0,0,1,.741,3.093q0,.169-.011.381t-.032.4h-9.427V91.8H300.5l-1.038.551a3.25,3.25,0,0,0-.4-1.716,3.1,3.1,0,0,0-1.154-1.165,3.3,3.3,0,0,0-1.684-.424,3.339,3.339,0,0,0-1.705.424,3,3,0,0,0-1.144,1.176,3.618,3.618,0,0,0-.413,1.769v.424a3.455,3.455,0,0,0,.466,1.8,3.107,3.107,0,0,0,1.313,1.207,4.3,4.3,0,0,0,1.949.424,4.7,4.7,0,0,0,1.716-.3,3.652,3.652,0,0,0,1.356-.932l1.419,1.631a4.984,4.984,0,0,1-1.917,1.366A6.862,6.862,0,0,1,296.623,98.512ZM310.9,86.925a5.4,5.4,0,0,1,2.426.53,3.881,3.881,0,0,1,1.684,1.621,5.68,5.68,0,0,1,.614,2.807v6.482h-2.648V92.221a3.138,3.138,0,0,0-.71-2.245,2.612,2.612,0,0,0-1.981-.741,3.478,3.478,0,0,0-1.652.381,2.613,2.613,0,0,0-1.112,1.133,4.08,4.08,0,0,0-.392,1.9v5.72h-2.648V87.052H307V90.1l-.445-.932a4.009,4.009,0,0,1,1.726-1.663A5.644,5.644,0,0,1,310.9,86.925Zm12.35,11.587a4.025,4.025,0,0,1-2.881-.964,3.744,3.744,0,0,1-1.017-2.849V84.552H322V94.636a1.768,1.768,0,0,0,.413,1.25,1.5,1.5,0,0,0,1.155.445,2.326,2.326,0,0,0,1.483-.466l.741,1.885a3.111,3.111,0,0,1-1.144.572A5.14,5.14,0,0,1,323.251,98.512Zm-5.762-9.257V87.137h7.541v2.118Zm22.6,9.257a5.044,5.044,0,0,1-2.51-.635,4.517,4.517,0,0,1-1.8-1.917,7.01,7.01,0,0,1-.667-3.252,7.191,7.191,0,0,1,.646-3.262,4.355,4.355,0,0,1,1.769-1.9,5.181,5.181,0,0,1,2.563-.625,5.929,5.929,0,0,1,2.955.72,5.351,5.351,0,0,1,2.034,2.012,6.584,6.584,0,0,1,0,6.111,5.329,5.329,0,0,1-2.034,2.023A5.929,5.929,0,0,1,340.092,98.512Zm-6.27,3.961V87.052h2.521v2.669l-.085,3.008.212,3.008v6.736Zm5.974-6.228a3.413,3.413,0,0,0,1.705-.424,3.087,3.087,0,0,0,1.2-1.229,4.24,4.24,0,0,0,0-3.781,3.1,3.1,0,0,0-1.2-1.218,3.413,3.413,0,0,0-1.705-.424,3.473,3.473,0,0,0-1.716.424,3.083,3.083,0,0,0-1.207,1.218,4.24,4.24,0,0,0,0,3.781,3.065,3.065,0,0,0,1.207,1.229A3.473,3.473,0,0,0,339.8,96.245Zm8.558,2.118V87.052h2.521v3.114l-.3-.911a3.578,3.578,0,0,1,1.6-1.737,5.646,5.646,0,0,1,2.722-.593v2.521a1.862,1.862,0,0,0-.318-.053q-.148-.011-.3-.011a3.257,3.257,0,0,0-2.394.879,3.525,3.525,0,0,0-.89,2.616v5.487Zm13.769.148a6.51,6.51,0,0,1-3.093-.763,5.566,5.566,0,0,1-2.14-2.044,5.7,5.7,0,0,1-.784-3,5.588,5.588,0,0,1,2.934-5.042,6.28,6.28,0,0,1,3.082-.741,6.385,6.385,0,0,1,3.114.741,5.591,5.591,0,0,1,2.14,2.034,5.685,5.685,0,0,1,.784,3.008,5.776,5.776,0,0,1-.773,2.987,5.428,5.428,0,0,1-2.15,2.055A6.638,6.638,0,0,1,362.123,98.512Zm0-2.267a3.516,3.516,0,0,0,1.737-.424,3,3,0,0,0,1.2-1.229,4.152,4.152,0,0,0,0-3.781,3.013,3.013,0,0,0-1.2-1.218,3.516,3.516,0,0,0-1.737-.424,3.414,3.414,0,0,0-1.705.424,3.1,3.1,0,0,0-1.2,1.218,4.24,4.24,0,0,0,0,3.781,3.161,3.161,0,0,0,1.2,1.239A3.2,3.2,0,0,0,362.123,96.245Zm13.769,2.267a6.539,6.539,0,0,1-3.167-.752,5.56,5.56,0,0,1-2.171-2.065,6.1,6.1,0,0,1,0-5.984,5.508,5.508,0,0,1,2.171-2.044,6.615,6.615,0,0,1,3.167-.741,6.133,6.133,0,0,1,2.913.667,4.434,4.434,0,0,1,1.917,1.959l-2.034,1.186a3.253,3.253,0,0,0-1.239-1.186,3.361,3.361,0,0,0-1.578-.381,3.638,3.638,0,0,0-1.758.424,3.045,3.045,0,0,0-1.229,1.218,4.262,4.262,0,0,0,0,3.792,3.045,3.045,0,0,0,1.229,1.218,3.637,3.637,0,0,0,1.758.424,3.361,3.361,0,0,0,1.578-.381,3.253,3.253,0,0,0,1.239-1.186l2.034,1.186a4.583,4.583,0,0,1-1.917,1.959A5.979,5.979,0,0,1,375.892,98.512Zm12.265,0a6.894,6.894,0,0,1-3.294-.752,5.448,5.448,0,0,1-2.182-2.065,5.776,5.776,0,0,1-.773-2.987,5.887,5.887,0,0,1,.752-3,5.4,5.4,0,0,1,2.076-2.044,6.072,6.072,0,0,1,3.019-.741,5.945,5.945,0,0,1,2.945.72,5.214,5.214,0,0,1,2.034,2.034,6.188,6.188,0,0,1,.741,3.093q0,.169-.011.381t-.032.4h-9.427V91.8h8.029L391,92.348a3.25,3.25,0,0,0-.4-1.716,3.1,3.1,0,0,0-1.154-1.165,3.3,3.3,0,0,0-1.684-.424,3.339,3.339,0,0,0-1.705.424,3,3,0,0,0-1.144,1.176,3.618,3.618,0,0,0-.413,1.769v.424a3.455,3.455,0,0,0,.466,1.8,3.107,3.107,0,0,0,1.313,1.207,4.3,4.3,0,0,0,1.949.424,4.7,4.7,0,0,0,1.716-.3,3.652,3.652,0,0,0,1.356-.932l1.419,1.631a4.984,4.984,0,0,1-1.917,1.366A6.862,6.862,0,0,1,388.157,98.512Zm11.354,0a9.9,9.9,0,0,1-2.722-.371,7,7,0,0,1-2.065-.9l1.017-2.012a7.231,7.231,0,0,0,1.822.8,7.339,7.339,0,0,0,2.118.318,3.65,3.65,0,0,0,1.811-.339,1.027,1.027,0,0,0,.561-.911.791.791,0,0,0-.381-.71,2.966,2.966,0,0,0-1-.371q-.614-.127-1.366-.233t-1.5-.286a5.191,5.191,0,0,1-1.366-.53,2.83,2.83,0,0,1-1-.943,2.862,2.862,0,0,1-.381-1.568,2.975,2.975,0,0,1,.614-1.875,3.922,3.922,0,0,1,1.726-1.229,7.241,7.241,0,0,1,2.637-.434,10.807,10.807,0,0,1,2.309.254,6.249,6.249,0,0,1,1.928.72l-1.017,2.012a5.362,5.362,0,0,0-1.621-.667,7.5,7.5,0,0,0-1.621-.18,3.485,3.485,0,0,0-1.79.36,1.055,1.055,0,0,0-.583.911.855.855,0,0,0,.381.763,3.111,3.111,0,0,0,1,.4,12.6,12.6,0,0,0,1.366.244,12.1,12.1,0,0,1,1.493.286,6.3,6.3,0,0,1,1.366.519,2.632,2.632,0,0,1,1.006.921,2.819,2.819,0,0,1,.381,1.546,2.868,2.868,0,0,1-.625,1.843,4.023,4.023,0,0,1-1.769,1.218A7.7,7.7,0,0,1,399.512,98.512Zm10.91,0a9.9,9.9,0,0,1-2.722-.371,7,7,0,0,1-2.065-.9l1.017-2.012a7.231,7.231,0,0,0,1.822.8,7.339,7.339,0,0,0,2.118.318,3.65,3.65,0,0,0,1.811-.339,1.027,1.027,0,0,0,.561-.911.791.791,0,0,0-.381-.71,2.966,2.966,0,0,0-1-.371q-.614-.127-1.366-.233t-1.5-.286a5.191,5.191,0,0,1-1.366-.53,2.83,2.83,0,0,1-1-.943,2.862,2.862,0,0,1-.381-1.568,2.975,2.975,0,0,1,.614-1.875,3.922,3.922,0,0,1,1.726-1.229,7.241,7.241,0,0,1,2.637-.434,10.807,10.807,0,0,1,2.309.254,6.249,6.249,0,0,1,1.928.72l-1.017,2.012a5.363,5.363,0,0,0-1.621-.667,7.5,7.5,0,0,0-1.621-.18,3.485,3.485,0,0,0-1.79.36,1.055,1.055,0,0,0-.583.911.855.855,0,0,0,.381.763,3.111,3.111,0,0,0,1,.4,12.6,12.6,0,0,0,1.366.244,12.1,12.1,0,0,1,1.493.286,6.3,6.3,0,0,1,1.366.519,2.632,2.632,0,0,1,1.006.921,2.818,2.818,0,0,1,.381,1.546,2.868,2.868,0,0,1-.625,1.843,4.023,4.023,0,0,1-1.769,1.218A7.7,7.7,0,0,1,410.421,98.512Zm8.262,0a1.719,1.719,0,0,1-1.737-1.758,1.673,1.673,0,0,1,.508-1.282,1.822,1.822,0,0,1,2.457,0,1.843,1.843,0,0,1,0,2.542A1.692,1.692,0,0,1,418.683,98.512Z" transform="translate(985.928 2229.897)"/>
    <path id="Path_469" data-name="Path 469" d="M-100.789,0V-20.3h9.222a12.869,12.869,0,0,1,5.829,1.261,9.631,9.631,0,0,1,3.944,3.524A9.7,9.7,0,0,1-80.4-10.15,9.715,9.715,0,0,1-81.794-4.8a9.6,9.6,0,0,1-3.944,3.538A12.869,12.869,0,0,1-91.567,0Zm4.7-3.857H-91.8a7.26,7.26,0,0,0,3.523-.754,5.668,5.668,0,0,0,2.32-2.2A6.724,6.724,0,0,0-85.1-10.15a6.7,6.7,0,0,0-.855-3.35,5.7,5.7,0,0,0-2.32-2.189,7.26,7.26,0,0,0-3.523-.754l-4.292-.029ZM-69.411.232A10.044,10.044,0,0,1-74.095-.812a7.7,7.7,0,0,1-3.118-2.857,7.8,7.8,0,0,1-1.1-4.133,7.93,7.93,0,0,1,1.088-4.161A7.71,7.71,0,0,1-74.254-14.8a8.747,8.747,0,0,1,4.263-1.029,8.719,8.719,0,0,1,4.132.971,7.274,7.274,0,0,1,2.915,2.784,8.36,8.36,0,0,1,1.073,4.336q0,.261-.029.595t-.058.624H-74.631V-9.164h10.295l-1.74.783a4.336,4.336,0,0,0-.493-2.117A3.6,3.6,0,0,0-67.932-11.9a3.956,3.956,0,0,0-2.03-.507,4.035,4.035,0,0,0-2.044.507,3.545,3.545,0,0,0-1.378,1.421,4.485,4.485,0,0,0-.493,2.161v.7a4.386,4.386,0,0,0,.565,2.247,3.69,3.69,0,0,0,1.6,1.479,5.417,5.417,0,0,0,2.422.508,5.868,5.868,0,0,0,2.189-.377A5.333,5.333,0,0,0-65.38-4.9l2.407,2.61a7.012,7.012,0,0,1-2.7,1.871A9.979,9.979,0,0,1-69.411.232ZM-54.911,0l-6.554-15.6H-56.8l5.452,13.427h-2.32L-48.009-15.6h4.35L-50.242,0ZM-34.5.232A10.044,10.044,0,0,1-39.179-.812,7.7,7.7,0,0,1-42.3-3.669,7.8,7.8,0,0,1-43.4-7.8a7.93,7.93,0,0,1,1.087-4.161A7.71,7.71,0,0,1-39.339-14.8a8.747,8.747,0,0,1,4.263-1.029,8.719,8.719,0,0,1,4.132.971,7.274,7.274,0,0,1,2.915,2.784,8.361,8.361,0,0,1,1.073,4.336q0,.261-.029.595t-.058.624H-39.715V-9.164h10.3l-1.74.783a4.336,4.336,0,0,0-.493-2.117A3.6,3.6,0,0,0-33.016-11.9a3.956,3.956,0,0,0-2.03-.507,4.035,4.035,0,0,0-2.044.507,3.545,3.545,0,0,0-1.377,1.421,4.485,4.485,0,0,0-.493,2.161v.7A4.386,4.386,0,0,0-38.4-5.38,3.69,3.69,0,0,0-36.8-3.9a5.417,5.417,0,0,0,2.421.508,5.869,5.869,0,0,0,2.19-.377A5.333,5.333,0,0,0-30.465-4.9l2.407,2.61a7.012,7.012,0,0,1-2.7,1.871A9.979,9.979,0,0,1-34.5.232ZM-23.911,0l-.029-21.518h4.5L-19.416,0ZM-7.786.232A9.46,9.46,0,0,1-12.223-.827,7.8,7.8,0,0,1-15.24-3.654a7.775,7.775,0,0,1-1.1-4.147,7.514,7.514,0,0,1,1.1-4.161A7.977,7.977,0,0,1-12.194-14.8a8.872,8.872,0,0,1,4.379-1,9.1,9.1,0,0,1,4.437,1A7.607,7.607,0,0,1-.348-11.963,7.93,7.93,0,0,1,.74-7.8,7.606,7.606,0,0,1-.333-3.669,7.71,7.71,0,0,1-3.378-.827,9.515,9.515,0,0,1-7.786.232Zm0-3.712A3.968,3.968,0,0,0-5.756-4,3.717,3.717,0,0,0-4.335-5.5,4.8,4.8,0,0,0-3.813-7.8a4.784,4.784,0,0,0-.522-2.32A3.74,3.74,0,0,0-5.756-11.6a4.025,4.025,0,0,0-2.059-.522,3.912,3.912,0,0,0-2,.522,3.842,3.842,0,0,0-1.436,1.479,4.678,4.678,0,0,0-.536,2.32A4.7,4.7,0,0,0-11.252-5.5,3.959,3.959,0,0,0-9.831-3.988,3.68,3.68,0,0,0-7.786-3.48ZM13.006.232a6.681,6.681,0,0,1-3.451-.87A5.788,5.788,0,0,1,7.25-3.292,10.74,10.74,0,0,1,6.423-7.8a11.242,11.242,0,0,1,.783-4.524,5.558,5.558,0,0,1,2.262-2.639,6.857,6.857,0,0,1,3.538-.87,7.848,7.848,0,0,1,3.959,1,7.372,7.372,0,0,1,2.784,2.8A8.376,8.376,0,0,1,20.778-7.8a8.437,8.437,0,0,1-1.03,4.263A7.267,7.267,0,0,1,16.965-.754,7.939,7.939,0,0,1,13.006.232ZM3.784,5.626V-15.6H8.105v3.19l-.087,4.64.29,4.611V5.626ZM12.223-3.48A3.89,3.89,0,0,0,14.239-4,3.85,3.85,0,0,0,15.66-5.5,4.7,4.7,0,0,0,16.2-7.8a4.678,4.678,0,0,0-.536-2.32A3.876,3.876,0,0,0,14.239-11.6a3.89,3.89,0,0,0-2.016-.522,3.968,3.968,0,0,0-2.03.522,3.74,3.74,0,0,0-1.421,1.479A4.784,4.784,0,0,0,8.25-7.8,4.8,4.8,0,0,0,8.772-5.5,3.717,3.717,0,0,0,10.193-4,3.968,3.968,0,0,0,12.223-3.48ZM43.775-15.834a7.086,7.086,0,0,1,3.292.739,5.319,5.319,0,0,1,2.262,2.262,8.131,8.131,0,0,1,.826,3.9V0H45.632V-8.236a4.162,4.162,0,0,0-.783-2.784,2.767,2.767,0,0,0-2.2-.9,3.489,3.489,0,0,0-1.769.45,3.018,3.018,0,0,0-1.218,1.349,5.262,5.262,0,0,0-.435,2.291V0H34.7V-8.236a4.218,4.218,0,0,0-.768-2.784,2.723,2.723,0,0,0-2.19-.9,3.489,3.489,0,0,0-1.769.45,3.018,3.018,0,0,0-1.218,1.349,5.262,5.262,0,0,0-.435,2.291V0H23.794V-15.6h4.321v4.263L27.3-12.586a5.588,5.588,0,0,1,2.306-2.422,6.919,6.919,0,0,1,3.408-.826,6.547,6.547,0,0,1,3.755,1.087A5.256,5.256,0,0,1,38.9-11.426l-1.6-.435a6.246,6.246,0,0,1,2.508-2.9A7.34,7.34,0,0,1,43.775-15.834ZM62.074.232A10.044,10.044,0,0,1,57.391-.812a7.7,7.7,0,0,1-3.118-2.857,7.8,7.8,0,0,1-1.1-4.133,7.93,7.93,0,0,1,1.087-4.161A7.71,7.71,0,0,1,57.231-14.8a8.747,8.747,0,0,1,4.263-1.029,8.719,8.719,0,0,1,4.132.971,7.274,7.274,0,0,1,2.914,2.784,8.36,8.36,0,0,1,1.073,4.336q0,.261-.029.595t-.058.624H56.854V-9.164H67.149l-1.74.783a4.336,4.336,0,0,0-.493-2.117A3.6,3.6,0,0,0,63.553-11.9a3.956,3.956,0,0,0-2.03-.507,4.035,4.035,0,0,0-2.044.507A3.545,3.545,0,0,0,58.1-10.484a4.485,4.485,0,0,0-.493,2.161v.7a4.386,4.386,0,0,0,.565,2.247,3.69,3.69,0,0,0,1.6,1.479,5.417,5.417,0,0,0,2.421.508A5.868,5.868,0,0,0,64.38-3.77,5.333,5.333,0,0,0,66.105-4.9l2.407,2.61a7.012,7.012,0,0,1-2.7,1.871A9.979,9.979,0,0,1,62.074.232ZM82.113-15.834a7.264,7.264,0,0,1,3.321.739,5.362,5.362,0,0,1,2.305,2.262,8.014,8.014,0,0,1,.841,3.9V0H84.056V-8.236a4.01,4.01,0,0,0-.826-2.784,3.012,3.012,0,0,0-2.334-.9,4.083,4.083,0,0,0-1.929.45,3.12,3.12,0,0,0-1.334,1.377,5.177,5.177,0,0,0-.479,2.378V0H72.63V-15.6h4.321v4.321l-.812-1.3a5.779,5.779,0,0,1,2.407-2.407A7.42,7.42,0,0,1,82.113-15.834ZM99.049.232a6.124,6.124,0,0,1-4.292-1.406A5.4,5.4,0,0,1,93.22-5.365V-19.053h4.524v13.63A2.093,2.093,0,0,0,98.266-3.9a1.891,1.891,0,0,0,1.421.537,2.907,2.907,0,0,0,1.827-.58l1.218,3.19a4.97,4.97,0,0,1-1.668.74A8.164,8.164,0,0,1,99.049.232ZM90.813-11.774v-3.48H101.63v3.48Z" transform="translate(1225.762 2191.5)"/>
  </g>
</svg>
