<svg width="232" height="297" viewBox="0 0 232 297" fill="none" xmlns="http://www.w3.org/2000/svg">
<path d="M12.2324 107.375V227.29L115.843 287.247L219.448 227.29V107.375L115.843 47.418L12.2324 107.375Z" fill="#91D5D8"/>
<path d="M12.2324 116.846V236.76L115.843 296.718L219.448 236.76V116.846L115.843 56.8887L12.2324 116.846Z" fill="#142357"/>
<path d="M0 67.0574V201.172L115.707 268.23L231.414 201.172V67.0574L115.707 0L0 67.0574Z" fill="white"/>
<path d="M0 67.0574V201.172L115.707 268.23L231.414 201.172V67.0574L115.707 0L0 67.0574Z" fill="white"/>
<path d="M141.09 35.7385L135.945 30.5339C135.693 30.2819 135.386 30.1504 135.03 30.1504C134.674 30.1504 134.373 30.2819 134.121 30.5339L118.677 46.1423C118.43 46.3998 118.304 46.7066 118.299 47.0682V52.2673C118.299 52.6289 118.425 52.9357 118.677 53.1877C118.929 53.4452 119.23 53.5712 119.586 53.5712H124.736C125.087 53.5657 125.394 53.4397 125.646 53.1932L141.09 37.5848C141.347 37.3273 141.473 37.0205 141.473 36.6589C141.473 36.3028 141.347 35.9905 141.09 35.7385ZM124.199 50.9689H120.874V47.6105L135.03 33.3006L138.356 36.6589L124.199 50.9689Z" fill="#91D5D8"/>
<path d="M137.604 45.7651C137.248 45.7651 136.947 45.8966 136.694 46.1486C136.442 46.4006 136.316 46.7074 136.316 47.069V65.2797C136.316 65.7947 136.218 66.2932 136.021 66.7699C135.829 67.2465 135.549 67.6683 135.188 68.0354C134.826 68.4025 134.404 68.6819 133.933 68.8846C133.462 69.0818 132.969 69.1804 132.454 69.1804H119.585C119.3 69.1804 119.043 69.2681 118.813 69.4379L110.578 75.6835V70.4788C110.578 70.1227 110.452 69.8159 110.2 69.5584C109.948 69.3064 109.647 69.1804 109.291 69.1804H96.4217C95.9067 69.1804 95.4136 69.0818 94.9425 68.8846C94.4713 68.6819 94.0549 68.4025 93.6879 68.0354C93.3263 67.6683 93.0469 67.2465 92.8551 66.7699C92.6579 66.2932 92.5593 65.7947 92.5593 65.2797V41.8644C92.5593 41.3494 92.6579 40.8508 92.8551 40.3742C93.0469 39.8921 93.3263 39.4702 93.6879 39.1032C94.0549 38.7416 94.4713 38.4567 94.9425 38.2595C95.4136 38.0623 95.9067 37.9636 96.4217 37.9636H119.585C119.941 37.9636 120.242 37.8376 120.494 37.5801C120.746 37.3281 120.872 37.0213 120.872 36.6597C120.872 36.3036 120.746 35.9968 120.494 35.7448C120.242 35.4873 119.941 35.3613 119.585 35.3613H96.4217C95.9998 35.3613 95.578 35.4052 95.1671 35.4873C94.7507 35.5695 94.3508 35.6955 93.9618 35.8599C93.5673 36.0242 93.2003 36.2215 92.8497 36.4625C92.499 36.6981 92.1703 36.9665 91.8745 37.2679C91.5732 37.5692 91.3102 37.8979 91.0746 38.254C90.839 38.6101 90.6418 38.9826 90.4774 39.3771C90.3186 39.7716 90.1926 40.177 90.1104 40.5988C90.0282 41.0152 89.9844 41.437 89.9844 41.8644V65.2797C89.9844 65.7015 90.0282 66.1289 90.1104 66.5452C90.1926 66.9616 90.3186 67.3725 90.4774 67.7669C90.6418 68.1559 90.839 68.5339 91.0746 68.8901C91.3102 69.2407 91.5732 69.5694 91.8745 69.8707C92.1703 70.172 92.499 70.446 92.8497 70.6815C93.2003 70.9171 93.5673 71.1198 93.9618 71.2842C94.3508 71.4485 94.7507 71.5691 95.1671 71.6512C95.578 71.7389 95.9998 71.7827 96.4217 71.7827H108.003V78.2858C108.003 78.8227 108.239 79.2062 108.716 79.4417C108.896 79.5404 109.088 79.5842 109.291 79.5842C109.576 79.5897 109.833 79.502 110.063 79.3267L120.018 71.7827H132.454C132.876 71.7827 133.298 71.7389 133.709 71.6567C134.125 71.5691 134.525 71.4485 134.919 71.2842C135.308 71.1198 135.675 70.9171 136.026 70.6815C136.377 70.446 136.705 70.172 137.001 69.8707C137.303 69.5694 137.566 69.2407 137.801 68.8901C138.037 68.5339 138.234 68.1559 138.398 67.7669C138.563 67.3725 138.683 66.9616 138.765 66.5452C138.848 66.1289 138.891 65.7015 138.891 65.2797V47.069C138.891 46.7074 138.765 46.4006 138.513 46.1486C138.261 45.8966 137.96 45.7651 137.604 45.7651Z" fill="#91D5D8"/>
<path d="M111.866 43.1641H98.9964C98.6403 43.1641 98.3335 43.2955 98.087 43.5476C97.835 43.7996 97.709 44.1064 97.709 44.468C97.709 44.8241 97.835 45.1309 98.087 45.3884C98.3335 45.6404 98.6403 45.7664 98.9964 45.7664H111.866C112.222 45.7664 112.523 45.6404 112.775 45.3884C113.027 45.1309 113.153 44.8241 113.153 44.468C113.153 44.1064 113.027 43.7996 112.775 43.5476C112.523 43.2955 112.222 43.1641 111.866 43.1641Z" fill="#91D5D8"/>
<path d="M98.9964 53.573H111.866C112.222 53.573 112.523 53.447 112.775 53.1895C113.027 52.9375 113.153 52.6307 113.153 52.2691C113.153 51.913 113.027 51.6062 112.775 51.3542C112.523 51.0967 112.222 50.9707 111.866 50.9707H98.9964C98.6403 50.9707 98.3335 51.0967 98.087 51.3542C97.835 51.6062 97.709 51.913 97.709 52.2691C97.709 52.6307 97.835 52.9375 98.087 53.1895C98.3335 53.447 98.6403 53.573 98.9964 53.573Z" fill="#91D5D8"/>
<path d="M98.9964 61.3757H129.885C130.235 61.3757 130.542 61.2497 130.794 60.9977C131.046 60.7402 131.166 60.4334 131.166 60.0773C131.166 59.7157 131.046 59.4089 130.794 59.1569C130.542 58.9049 130.235 58.7734 129.885 58.7734H98.9964C98.6403 58.7734 98.3335 58.9049 98.087 59.1569C97.835 59.4089 97.709 59.7157 97.709 60.0773C97.709 60.4334 97.835 60.7402 98.087 60.9977C98.3335 61.2497 98.6403 61.3757 98.9964 61.3757Z" fill="#91D5D8"/>
<path d="M141.09 35.7385L135.945 30.5339C135.693 30.2819 135.386 30.1504 135.03 30.1504C134.674 30.1504 134.373 30.2819 134.121 30.5339L118.677 46.1423C118.43 46.3998 118.304 46.7066 118.299 47.0682V52.2673C118.299 52.6289 118.425 52.9357 118.677 53.1877C118.929 53.4452 119.23 53.5712 119.586 53.5712H124.736C125.087 53.5657 125.394 53.4397 125.646 53.1932L141.09 37.5848C141.347 37.3273 141.473 37.0205 141.473 36.6589C141.473 36.3028 141.347 35.9905 141.09 35.7385ZM124.199 50.9689H120.874V47.6105L135.03 33.3006L138.356 36.6589L124.199 50.9689Z" fill="#8C52FF"/>
<path d="M137.604 45.7651C137.248 45.7651 136.947 45.8966 136.694 46.1486C136.442 46.4006 136.316 46.7074 136.316 47.069V65.2797C136.316 65.7947 136.218 66.2932 136.021 66.7699C135.829 67.2465 135.549 67.6683 135.188 68.0354C134.826 68.4025 134.404 68.6819 133.933 68.8846C133.462 69.0818 132.969 69.1804 132.454 69.1804H119.585C119.3 69.1804 119.043 69.2681 118.813 69.4379L110.578 75.6835V70.4788C110.578 70.1227 110.452 69.8159 110.2 69.5584C109.948 69.3064 109.647 69.1804 109.291 69.1804H96.4217C95.9067 69.1804 95.4136 69.0818 94.9425 68.8846C94.4713 68.6819 94.0549 68.4025 93.6879 68.0354C93.3263 67.6683 93.0469 67.2465 92.8551 66.7699C92.6579 66.2932 92.5593 65.7947 92.5593 65.2797V41.8644C92.5593 41.3494 92.6579 40.8508 92.8551 40.3742C93.0469 39.8921 93.3263 39.4702 93.6879 39.1032C94.0549 38.7416 94.4713 38.4567 94.9425 38.2595C95.4136 38.0623 95.9067 37.9636 96.4217 37.9636H119.585C119.941 37.9636 120.242 37.8376 120.494 37.5801C120.746 37.3281 120.872 37.0213 120.872 36.6597C120.872 36.3036 120.746 35.9968 120.494 35.7448C120.242 35.4873 119.941 35.3613 119.585 35.3613H96.4217C95.9998 35.3613 95.578 35.4052 95.1671 35.4873C94.7507 35.5695 94.3508 35.6955 93.9618 35.8599C93.5673 36.0242 93.2003 36.2215 92.8497 36.4625C92.499 36.6981 92.1703 36.9665 91.8745 37.2679C91.5732 37.5692 91.3102 37.8979 91.0746 38.254C90.839 38.6101 90.6418 38.9826 90.4774 39.3771C90.3186 39.7716 90.1926 40.177 90.1104 40.5988C90.0282 41.0152 89.9844 41.437 89.9844 41.8644V65.2797C89.9844 65.7015 90.0282 66.1289 90.1104 66.5452C90.1926 66.9616 90.3186 67.3725 90.4774 67.7669C90.6418 68.1559 90.839 68.5339 91.0746 68.8901C91.3102 69.2407 91.5732 69.5694 91.8745 69.8707C92.1703 70.172 92.499 70.446 92.8497 70.6815C93.2003 70.9171 93.5673 71.1198 93.9618 71.2842C94.3508 71.4485 94.7507 71.5691 95.1671 71.6512C95.578 71.7389 95.9998 71.7827 96.4217 71.7827H108.003V78.2858C108.003 78.8227 108.239 79.2062 108.716 79.4417C108.896 79.5404 109.088 79.5842 109.291 79.5842C109.576 79.5897 109.833 79.502 110.063 79.3267L120.018 71.7827H132.454C132.876 71.7827 133.298 71.7389 133.709 71.6567C134.125 71.5691 134.525 71.4485 134.919 71.2842C135.308 71.1198 135.675 70.9171 136.026 70.6815C136.377 70.446 136.705 70.172 137.001 69.8707C137.303 69.5694 137.566 69.2407 137.801 68.8901C138.037 68.5339 138.234 68.1559 138.398 67.7669C138.563 67.3725 138.683 66.9616 138.765 66.5452C138.848 66.1289 138.891 65.7015 138.891 65.2797V47.069C138.891 46.7074 138.765 46.4006 138.513 46.1486C138.261 45.8966 137.96 45.7651 137.604 45.7651Z" fill="#8C52FF"/>
<path d="M111.866 43.1641H98.9964C98.6403 43.1641 98.3335 43.2955 98.087 43.5476C97.835 43.7996 97.709 44.1064 97.709 44.468C97.709 44.8241 97.835 45.1309 98.087 45.3884C98.3335 45.6404 98.6403 45.7664 98.9964 45.7664H111.866C112.222 45.7664 112.523 45.6404 112.775 45.3884C113.027 45.1309 113.153 44.8241 113.153 44.468C113.153 44.1064 113.027 43.7996 112.775 43.5476C112.523 43.2955 112.222 43.1641 111.866 43.1641Z" fill="#8C52FF"/>
<path d="M98.9964 53.573H111.866C112.222 53.573 112.523 53.447 112.775 53.1895C113.027 52.9375 113.153 52.6307 113.153 52.2691C113.153 51.913 113.027 51.6062 112.775 51.3542C112.523 51.0967 112.222 50.9707 111.866 50.9707H98.9964C98.6403 50.9707 98.3335 51.0967 98.087 51.3542C97.835 51.6062 97.709 51.913 97.709 52.2691C97.709 52.6307 97.835 52.9375 98.087 53.1895C98.3335 53.447 98.6403 53.573 98.9964 53.573Z" fill="#8C52FF"/>
<path d="M98.9964 61.3757H129.885C130.235 61.3757 130.542 61.2497 130.794 60.9977C131.046 60.7402 131.166 60.4334 131.166 60.0773C131.166 59.7157 131.046 59.4089 130.794 59.1569C130.542 58.9049 130.235 58.7734 129.885 58.7734H98.9964C98.6403 58.7734 98.3335 58.9049 98.087 59.1569C97.835 59.4089 97.709 59.7157 97.709 60.0773C97.709 60.4334 97.835 60.7402 98.087 60.9977C98.3335 61.2497 98.6403 61.3757 98.9964 61.3757Z" fill="#8C52FF"/>
<path d="M20.4835 163.029C19.6507 163.029 18.9933 163.309 18.5112 163.862C18.0291 164.404 17.788 165.155 17.788 166.119C17.788 167.116 18.0181 167.883 18.4893 168.42C18.9549 168.946 19.6124 169.209 20.4615 169.209C20.9875 169.209 21.5846 169.116 22.2585 168.924V169.691C21.7435 169.894 21.1025 169.998 20.3301 169.998C19.2179 169.998 18.3578 169.664 17.7442 168.99C17.1415 168.305 16.8457 167.341 16.8457 166.097C16.8457 165.325 16.9881 164.645 17.284 164.059C17.5743 163.478 17.9907 163.029 18.5331 162.722C19.0864 162.405 19.7384 162.24 20.4835 162.24C21.2724 162.24 21.9627 162.388 22.5653 162.679L22.1928 163.424C21.623 163.161 21.0532 163.029 20.4835 163.029Z" fill="#323131"/>
<path d="M24.5841 164.234V167.894C24.5841 168.365 24.6828 168.716 24.8909 168.946C25.1101 169.165 25.4388 169.275 25.8771 169.275C26.4742 169.275 26.9071 169.116 27.17 168.793C27.4439 168.475 27.5864 167.949 27.5864 167.215V164.234H28.441V169.888H27.7398L27.6302 169.121H27.5645C27.3892 169.401 27.1481 169.62 26.8413 169.779C26.5345 169.921 26.1839 169.998 25.7894 169.998C25.0882 169.998 24.5677 169.839 24.2335 169.516C23.8938 169.182 23.7295 168.656 23.7295 167.938V164.234H24.5841Z" fill="#323131"/>
<path d="M33.9136 168.354C33.9136 168.88 33.7164 169.291 33.3219 169.582C32.9275 169.861 32.3796 169.998 31.6784 169.998C30.9169 169.998 30.3306 169.877 29.9252 169.625V168.837C30.1882 168.984 30.4731 169.094 30.7799 169.165C31.0976 169.242 31.4044 169.275 31.7003 169.275C32.1386 169.275 32.4728 169.209 32.7083 169.078C32.9549 168.935 33.0809 168.716 33.0809 168.42C33.0809 168.201 32.9823 168.015 32.796 167.85C32.6042 167.692 32.2317 167.511 31.6784 167.303C31.1524 167.1 30.7799 166.925 30.5607 166.777C30.3416 166.634 30.1718 166.47 30.0567 166.295C29.9526 166.108 29.9033 165.878 29.9033 165.615C29.9033 165.166 30.0841 164.804 30.4512 164.541C30.8292 164.267 31.3497 164.125 32.0071 164.125C32.6207 164.125 33.2124 164.251 33.7821 164.498L33.4972 165.199C32.9275 164.969 32.407 164.848 31.9413 164.848C31.5304 164.848 31.2237 164.914 31.0209 165.045C30.8128 165.166 30.7141 165.341 30.7141 165.571C30.7141 165.719 30.747 165.851 30.8237 165.966C30.9114 166.07 31.0319 166.174 31.1963 166.273C31.3716 166.36 31.7058 166.492 32.2043 166.667C32.8727 166.919 33.3274 167.166 33.563 167.412C33.7931 167.664 33.9136 167.976 33.9136 168.354Z" fill="#323131"/>
<path d="M37.1328 169.273C37.2752 169.273 37.4176 169.268 37.5491 169.251C37.6916 169.224 37.8121 169.202 37.8997 169.185V169.843C37.8121 169.887 37.6696 169.92 37.4834 169.952C37.3081 169.98 37.1437 169.996 37.0013 169.996C35.9056 169.996 35.3577 169.421 35.3577 168.265V164.89H34.5469V164.496L35.3577 164.123L35.7302 162.918H36.2124V164.233H37.8559V164.89H36.2124V168.221C36.2124 168.572 36.2891 168.835 36.4534 169.01C36.6123 169.185 36.8369 169.273 37.1328 169.273Z" fill="#323131"/>
<path d="M43.9085 167.062C43.9085 167.982 43.6729 168.705 43.2073 169.231C42.7525 169.746 42.117 169.998 41.3007 169.998C40.7857 169.998 40.3365 169.883 39.942 169.647C39.5476 169.401 39.2408 169.056 39.0216 168.617C38.8135 168.179 38.7148 167.664 38.7148 167.062C38.7148 166.141 38.9395 165.429 39.3942 164.914C39.8599 164.388 40.5009 164.125 41.3226 164.125C42.1115 164.125 42.7361 164.388 43.2073 164.914C43.6729 165.44 43.9085 166.158 43.9085 167.062ZM39.6133 167.062C39.6133 167.779 39.7503 168.327 40.0297 168.705C40.3201 169.089 40.7419 169.275 41.3007 169.275C41.8705 169.275 42.2978 169.089 42.5937 168.705C42.884 168.327 43.0319 167.779 43.0319 167.062C43.0319 166.349 42.884 165.807 42.5937 165.44C42.2978 165.062 41.8705 164.87 41.3007 164.87C40.7419 164.87 40.3201 165.056 40.0297 165.418C39.7503 165.785 39.6133 166.333 39.6133 167.062Z" fill="#323131"/>
<path d="M52.6111 169.888V166.207C52.6111 165.758 52.5125 165.418 52.3263 165.199C52.1345 164.98 51.8332 164.87 51.4278 164.87C50.9018 164.87 50.5074 165.023 50.2444 165.33C49.9924 165.626 49.8719 166.092 49.8719 166.733V169.888H49.0172V166.207C49.0172 165.758 48.9131 165.418 48.7104 165.199C48.5187 164.98 48.2173 164.87 47.8119 164.87C47.286 164.87 46.8915 165.034 46.6286 165.352C46.3765 165.675 46.256 166.201 46.256 166.93V169.888H45.4014V164.235H46.1026L46.256 165.002H46.2779C46.4368 164.739 46.6614 164.53 46.9573 164.366C47.2641 164.207 47.5983 164.125 47.9653 164.125C48.8419 164.125 49.4171 164.448 49.6966 165.089H49.7404C49.8993 164.799 50.1403 164.563 50.4635 164.388C50.7813 164.213 51.1484 164.125 51.5593 164.125C52.2002 164.125 52.6769 164.295 52.9837 164.629C53.3014 164.952 53.4658 165.478 53.4658 166.207V169.888H52.6111Z" fill="#323131"/>
<path d="M57.6154 169.998C56.7826 169.998 56.1252 169.746 55.6431 169.231C55.161 168.722 54.9199 168.015 54.9199 167.105C54.9199 166.201 55.1391 165.478 55.5773 164.936C56.0266 164.399 56.6347 164.125 57.3962 164.125C58.1084 164.125 58.6727 164.361 59.0836 164.826C59.489 165.297 59.6972 165.911 59.6972 166.667V167.215H55.8184C55.8294 167.889 55.9937 168.398 56.3005 168.749C56.6183 169.089 57.073 169.253 57.6592 169.253C58.2564 169.253 58.8535 169.121 59.4562 168.858V169.625C59.1494 169.757 58.8645 169.856 58.6015 169.91C58.3385 169.965 58.0098 169.998 57.6154 169.998ZM57.3962 164.848C56.9415 164.848 56.5744 165.002 56.3005 165.308C56.0375 165.604 55.8732 166.004 55.8184 166.514H58.7768C58.7768 165.977 58.6508 165.566 58.4043 165.286C58.1687 164.996 57.8345 164.848 57.3962 164.848Z" fill="#323131"/>
<path d="M63.7372 164.125C63.9838 164.125 64.2084 164.147 64.4166 164.191L64.307 164.98C64.0714 164.936 63.8578 164.914 63.6715 164.914C63.2168 164.914 62.8223 165.106 62.4881 165.484C62.1649 165.851 62.006 166.311 62.006 166.864V169.888H61.1514V164.235H61.8745L61.9622 165.286H62.006C62.2087 164.925 62.4553 164.64 62.7511 164.432C63.0579 164.229 63.3866 164.125 63.7372 164.125Z" fill="#323131"/>
<path d="M70.769 164.893H69.3227V169.889H68.468V164.893H67.46V164.52L68.468 164.213V163.885C68.468 162.499 69.0707 161.803 70.2869 161.803C70.5937 161.803 70.9443 161.863 71.3388 161.978L71.1196 162.679C70.78 162.564 70.4951 162.504 70.265 162.504C69.9417 162.504 69.7007 162.614 69.5418 162.833C69.3939 163.052 69.3227 163.397 69.3227 163.863V164.235H70.769V164.893Z" fill="#323131"/>
<path d="M74.173 169.998C73.3402 169.998 72.6828 169.746 72.2007 169.231C71.7186 168.722 71.4775 168.015 71.4775 167.105C71.4775 166.201 71.6967 165.478 72.135 164.936C72.5842 164.399 73.1923 164.125 73.9538 164.125C74.6661 164.125 75.2303 164.361 75.6412 164.826C76.0467 165.297 76.2548 165.911 76.2548 166.667V167.215H72.376C72.387 167.889 72.5513 168.398 72.8581 168.749C73.1759 169.089 73.6306 169.253 74.2168 169.253C74.814 169.253 75.4111 169.121 76.0138 168.858V169.625C75.707 169.757 75.4221 169.856 75.1591 169.91C74.8962 169.965 74.5674 169.998 74.173 169.998ZM73.9538 164.848C73.4991 164.848 73.1321 165.002 72.8581 165.308C72.5952 165.604 72.4308 166.004 72.376 166.514H75.3344C75.3344 165.977 75.2084 165.566 74.9619 165.286C74.7263 164.996 74.3921 164.848 73.9538 164.848Z" fill="#323131"/>
<path d="M80.0997 169.998C79.267 169.998 78.6096 169.746 78.1275 169.231C77.6454 168.722 77.4043 168.015 77.4043 167.105C77.4043 166.201 77.6234 165.478 78.0617 164.936C78.511 164.399 79.1191 164.125 79.8806 164.125C80.5928 164.125 81.1571 164.361 81.568 164.826C81.9734 165.297 82.1816 165.911 82.1816 166.667V167.215H78.3028C78.3137 167.889 78.4781 168.398 78.7849 168.749C79.1026 169.089 79.5574 169.253 80.1436 169.253C80.7407 169.253 81.3379 169.121 81.9405 168.858V169.625C81.6337 169.757 81.3489 169.856 81.0859 169.91C80.8229 169.965 80.4942 169.998 80.0997 169.998ZM79.8806 164.848C79.4259 164.848 79.0588 165.002 78.7849 165.308C78.5219 165.604 78.3576 166.004 78.3028 166.514H81.2612C81.2612 165.977 81.1352 165.566 80.8887 165.286C80.6531 164.996 80.3189 164.848 79.8806 164.848Z" fill="#323131"/>
<path d="M87.4938 169.123H87.4499C87.0555 169.709 86.4638 169.999 85.6749 169.999C84.9298 169.999 84.3491 169.753 83.9437 169.254C83.5328 168.745 83.3301 168.022 83.3301 167.085C83.3301 166.153 83.5328 165.43 83.9437 164.915C84.3655 164.389 84.9408 164.126 85.6749 164.126C86.4309 164.126 87.0171 164.406 87.428 164.959H87.4938L87.4499 164.17V161.869H88.3046V169.89H87.6033L87.4938 169.123ZM85.7845 169.276C86.3652 169.276 86.7925 169.117 87.0555 168.794C87.3185 168.476 87.4499 167.961 87.4499 167.26V167.085C87.4499 166.285 87.3075 165.715 87.0336 165.375C86.7706 165.025 86.3433 164.849 85.7626 164.849C85.264 164.849 84.886 165.047 84.623 165.441C84.36 165.825 84.2286 166.373 84.2286 167.085C84.2286 167.819 84.36 168.367 84.623 168.728C84.886 169.095 85.2695 169.276 85.7845 169.276Z" fill="#323131"/>
<path d="M92.7391 164.148C93.4842 164.148 94.0594 164.406 94.4703 164.915C94.8921 165.414 95.1058 166.131 95.1058 167.063C95.1058 167.983 94.8921 168.706 94.4703 169.232C94.0594 169.747 93.4842 169.999 92.7391 169.999C92.372 169.999 92.0378 169.934 91.731 169.802C91.4352 169.66 91.1832 169.446 90.964 169.167H90.9202L90.723 169.89H90.1094V161.869H90.964V163.82C90.964 164.258 90.9531 164.647 90.9421 164.981H90.964C91.3694 164.428 91.9611 164.148 92.7391 164.148ZM92.6295 164.871C92.0433 164.871 91.6215 165.041 91.3585 165.375C91.0955 165.699 90.964 166.263 90.964 167.063C90.964 167.852 91.0955 168.421 91.3585 168.772C91.6324 169.112 92.0652 169.276 92.6514 169.276C93.1774 169.276 93.5609 169.09 93.8129 168.706C94.0758 168.328 94.2073 167.775 94.2073 167.041C94.2073 166.312 94.0758 165.77 93.8129 165.419C93.5609 165.058 93.1664 164.871 92.6295 164.871Z" fill="#323131"/>
<path d="M100.064 169.886L99.8885 169.075H99.8447C99.5653 169.442 99.2859 169.689 99.0119 169.82C98.7325 169.935 98.3819 169.996 97.9601 169.996C97.4012 169.996 96.963 169.853 96.6452 169.557C96.322 169.267 96.1631 168.856 96.1631 168.33C96.1631 167.191 97.0725 166.593 98.9024 166.533L99.8666 166.489V166.139C99.8666 165.7 99.768 165.383 99.5817 165.174C99.39 164.955 99.0832 164.846 98.6613 164.846C98.1901 164.846 97.6587 164.994 97.0616 165.284L96.7986 164.627C97.0725 164.484 97.3793 164.364 97.719 164.276C98.0532 164.188 98.3819 164.145 98.7051 164.145C99.39 164.145 99.894 164.298 100.217 164.605C100.535 164.901 100.699 165.372 100.699 166.029V169.886H100.064ZM98.1354 169.272C98.6613 169.272 99.0777 169.13 99.3845 168.834C99.6913 168.544 99.8447 168.133 99.8447 167.607V167.103L98.99 167.147C98.2997 167.163 97.8067 167.267 97.4999 167.454C97.204 167.645 97.0616 167.936 97.0616 168.33C97.0616 168.637 97.1547 168.873 97.3465 169.031C97.5327 169.196 97.7957 169.272 98.1354 169.272Z" fill="#323131"/>
<path d="M104.733 169.998C103.901 169.998 103.254 169.751 102.805 169.253C102.367 168.743 102.147 168.026 102.147 167.105C102.147 166.158 102.372 165.429 102.827 164.914C103.276 164.388 103.928 164.125 104.777 164.125C105.051 164.125 105.325 164.158 105.588 164.213C105.862 164.273 106.076 164.344 106.224 164.432L105.961 165.155C105.785 165.084 105.577 165.023 105.347 164.98C105.128 164.925 104.931 164.892 104.755 164.892C103.616 164.892 103.046 165.626 103.046 167.083C103.046 167.785 103.183 168.327 103.462 168.705C103.736 169.072 104.153 169.253 104.711 169.253C105.177 169.253 105.659 169.154 106.158 168.946V169.691C105.774 169.894 105.303 169.998 104.733 169.998Z" fill="#323131"/>
<path d="M108.338 166.997C108.48 166.794 108.711 166.515 109.017 166.164L110.836 164.236H111.866L109.565 166.646L112.02 169.89H110.99L108.974 167.216L108.338 167.786V169.89H107.483V161.869H108.338V166.12C108.338 166.312 108.322 166.603 108.294 166.997H108.338Z" fill="#323131"/>
<path d="M119.651 169.89V166.23C119.651 165.781 119.542 165.441 119.323 165.222C119.114 164.992 118.797 164.871 118.358 164.871C117.756 164.871 117.317 165.036 117.043 165.353C116.764 165.677 116.627 166.203 116.627 166.931V169.89H115.772V161.869H116.627V164.302C116.627 164.597 116.616 164.839 116.605 165.025H116.649C116.808 164.751 117.043 164.537 117.35 164.389C117.668 164.23 118.03 164.148 118.424 164.148C119.125 164.148 119.64 164.318 119.98 164.652C120.331 164.975 120.506 165.496 120.506 166.208V169.89H119.651Z" fill="#323131"/>
<path d="M124.641 169.998C123.808 169.998 123.151 169.746 122.668 169.231C122.186 168.722 121.945 168.015 121.945 167.105C121.945 166.201 122.164 165.478 122.603 164.936C123.052 164.399 123.66 164.125 124.422 164.125C125.134 164.125 125.698 164.361 126.109 164.826C126.514 165.297 126.723 165.911 126.723 166.667V167.215H122.844C122.855 167.889 123.019 168.398 123.326 168.749C123.644 169.089 124.098 169.253 124.685 169.253C125.282 169.253 125.879 169.121 126.482 168.858V169.625C126.175 169.757 125.89 169.856 125.627 169.91C125.364 169.965 125.035 169.998 124.641 169.998ZM124.422 164.848C123.967 164.848 123.6 165.002 123.326 165.308C123.063 165.604 122.899 166.004 122.844 166.514H125.802C125.802 165.977 125.676 165.566 125.43 165.286C125.194 164.996 124.86 164.848 124.422 164.848Z" fill="#323131"/>
<path d="M129.033 169.89H128.179V161.869H129.033V169.89Z" fill="#323131"/>
<path d="M133.479 169.998C133.112 169.998 132.778 169.932 132.471 169.801C132.175 169.658 131.923 169.445 131.704 169.165H131.66C131.688 169.489 131.704 169.801 131.704 170.108V172.43H130.85V164.235H131.551L131.682 165.002H131.704C131.934 164.695 132.197 164.476 132.493 164.344C132.784 164.202 133.112 164.125 133.479 164.125C134.235 164.125 134.822 164.382 135.232 164.892C135.638 165.407 135.846 166.13 135.846 167.062C135.846 167.982 135.632 168.705 135.211 169.231C134.8 169.746 134.224 169.998 133.479 169.998ZM133.37 164.87C132.784 164.87 132.362 165.034 132.099 165.352C131.847 165.659 131.715 166.163 131.704 166.864V167.062C131.704 167.85 131.836 168.42 132.099 168.771C132.373 169.11 132.805 169.275 133.392 169.275C133.874 169.275 134.252 169.078 134.531 168.683C134.805 168.289 134.948 167.741 134.948 167.04C134.948 166.338 134.805 165.807 134.531 165.44C134.252 165.062 133.863 164.87 133.37 164.87Z" fill="#323131"/>
<path d="M140.983 168.354C140.983 168.88 140.786 169.291 140.391 169.582C139.997 169.861 139.449 169.998 138.748 169.998C137.986 169.998 137.4 169.877 136.995 169.625V168.837C137.258 168.984 137.542 169.094 137.849 169.165C138.167 169.242 138.474 169.275 138.77 169.275C139.208 169.275 139.542 169.209 139.778 169.078C140.024 168.935 140.15 168.716 140.15 168.42C140.15 168.201 140.052 168.015 139.865 167.85C139.674 167.692 139.301 167.511 138.748 167.303C138.222 167.1 137.849 166.925 137.63 166.777C137.411 166.634 137.241 166.47 137.126 166.295C137.022 166.108 136.973 165.878 136.973 165.615C136.973 165.166 137.153 164.804 137.521 164.541C137.899 164.267 138.419 164.125 139.076 164.125C139.69 164.125 140.282 164.251 140.851 164.498L140.567 165.199C139.997 164.969 139.476 164.848 139.011 164.848C138.6 164.848 138.293 164.914 138.09 165.045C137.882 165.166 137.783 165.341 137.783 165.571C137.783 165.719 137.816 165.851 137.893 165.966C137.981 166.07 138.101 166.174 138.266 166.273C138.441 166.36 138.775 166.492 139.274 166.667C139.942 166.919 140.397 167.166 140.632 167.412C140.862 167.664 140.983 167.976 140.983 168.354Z" fill="#323131"/>
<path d="M144.206 164.234H145.126L146.376 167.456C146.639 168.201 146.803 168.738 146.88 169.055H146.923C146.967 168.88 147.055 168.584 147.186 168.157C147.329 167.735 147.805 166.426 148.611 164.234H149.509L147.099 170.677C146.847 171.302 146.562 171.751 146.244 172.014C145.921 172.288 145.526 172.43 145.061 172.43C144.798 172.43 144.54 172.397 144.294 172.343V171.641C144.48 171.685 144.694 171.707 144.929 171.707C145.51 171.707 145.926 171.378 146.178 170.721L146.485 169.91L144.206 164.234Z" fill="#323131"/>
<path d="M155.313 167.062C155.313 167.982 155.077 168.705 154.612 169.231C154.157 169.746 153.521 169.998 152.705 169.998C152.19 169.998 151.741 169.883 151.346 169.647C150.952 169.401 150.645 169.056 150.426 168.617C150.218 168.179 150.119 167.664 150.119 167.062C150.119 166.141 150.344 165.429 150.798 164.914C151.264 164.388 151.905 164.125 152.727 164.125C153.516 164.125 154.14 164.388 154.612 164.914C155.077 165.44 155.313 166.158 155.313 167.062ZM151.018 167.062C151.018 167.779 151.155 168.327 151.434 168.705C151.724 169.089 152.146 169.275 152.705 169.275C153.275 169.275 153.702 169.089 153.998 168.705C154.288 168.327 154.436 167.779 154.436 167.062C154.436 166.349 154.288 165.807 153.998 165.44C153.702 165.062 153.275 164.87 152.705 164.87C152.146 164.87 151.724 165.056 151.434 165.418C151.155 165.785 151.018 166.333 151.018 167.062Z" fill="#323131"/>
<path d="M157.617 164.234V167.894C157.617 168.365 157.716 168.716 157.924 168.946C158.143 169.165 158.472 169.275 158.91 169.275C159.507 169.275 159.94 169.116 160.203 168.793C160.477 168.475 160.62 167.949 160.62 167.215V164.234H161.474V169.888H160.773L160.663 169.121H160.598C160.422 169.401 160.181 169.62 159.875 169.779C159.568 169.921 159.217 169.998 158.823 169.998C158.121 169.998 157.601 169.839 157.267 169.516C156.927 169.182 156.763 168.656 156.763 167.938V164.234H157.617Z" fill="#323131"/>
<path d="M169.912 169.89V166.23C169.912 165.781 169.802 165.441 169.583 165.222C169.375 164.992 169.057 164.871 168.619 164.871C168.016 164.871 167.578 165.036 167.304 165.353C167.025 165.677 166.888 166.203 166.888 166.931V169.89H166.033V161.869H166.888V164.302C166.888 164.597 166.877 164.839 166.866 165.025H166.91C167.069 164.751 167.304 164.537 167.611 164.389C167.929 164.23 168.29 164.148 168.685 164.148C169.386 164.148 169.901 164.318 170.241 164.652C170.591 164.975 170.767 165.496 170.767 166.208V169.89H169.912Z" fill="#323131"/>
<path d="M177.403 167.062C177.403 167.982 177.167 168.705 176.701 169.231C176.247 169.746 175.611 169.998 174.795 169.998C174.28 169.998 173.831 169.883 173.436 169.647C173.042 169.401 172.735 169.056 172.516 168.617C172.308 168.179 172.209 167.664 172.209 167.062C172.209 166.141 172.434 165.429 172.888 164.914C173.354 164.388 173.995 164.125 174.817 164.125C175.606 164.125 176.23 164.388 176.701 164.914C177.167 165.44 177.403 166.158 177.403 167.062ZM173.107 167.062C173.107 167.779 173.244 168.327 173.524 168.705C173.814 169.089 174.236 169.275 174.795 169.275C175.365 169.275 175.792 169.089 176.088 168.705C176.378 168.327 176.526 167.779 176.526 167.062C176.526 166.349 176.378 165.807 176.088 165.44C175.792 165.062 175.365 164.87 174.795 164.87C174.236 164.87 173.814 165.056 173.524 165.418C173.244 165.785 173.107 166.333 173.107 167.062Z" fill="#323131"/>
<path d="M182.773 169.888V166.229C182.773 165.78 182.664 165.44 182.445 165.221C182.236 164.991 181.919 164.87 181.48 164.87C180.878 164.87 180.439 165.034 180.166 165.352C179.886 165.659 179.749 166.185 179.749 166.93V169.888H178.895V164.235H179.596L179.749 165.002H179.771C179.946 164.728 180.193 164.514 180.516 164.366C180.834 164.207 181.185 164.125 181.568 164.125C182.253 164.125 182.762 164.295 183.102 164.629C183.453 164.952 183.628 165.478 183.628 166.207V169.888H182.773Z" fill="#323131"/>
<path d="M187.766 169.998C186.933 169.998 186.276 169.746 185.793 169.231C185.311 168.722 185.07 168.015 185.07 167.105C185.07 166.201 185.289 165.478 185.728 164.936C186.177 164.399 186.785 164.125 187.547 164.125C188.259 164.125 188.823 164.361 189.234 164.826C189.639 165.297 189.848 165.911 189.848 166.667V167.215H185.969C185.98 167.889 186.144 168.398 186.451 168.749C186.769 169.089 187.223 169.253 187.81 169.253C188.407 169.253 189.004 169.121 189.607 168.858V169.625C189.3 169.757 189.015 169.856 188.752 169.91C188.489 169.965 188.16 169.998 187.766 169.998ZM187.547 164.848C187.092 164.848 186.725 165.002 186.451 165.308C186.188 165.604 186.024 166.004 185.969 166.514H188.927C188.927 165.977 188.801 165.566 188.555 165.286C188.319 164.996 187.985 164.848 187.547 164.848Z" fill="#323131"/>
<path d="M193.146 164.234H194.067L195.316 167.456C195.579 168.201 195.743 168.738 195.82 169.055H195.864C195.908 168.88 195.995 168.584 196.127 168.157C196.269 167.735 196.746 166.426 197.551 164.234H198.45L196.039 170.677C195.787 171.302 195.502 171.751 195.185 172.014C194.861 172.288 194.467 172.43 194.001 172.43C193.738 172.43 193.481 172.397 193.234 172.343V171.641C193.42 171.685 193.634 171.707 193.87 171.707C194.45 171.707 194.867 171.378 195.119 170.721L195.426 169.91L193.146 164.234Z" fill="#323131"/>
<path d="M204.256 167.062C204.256 167.982 204.021 168.705 203.555 169.231C203.1 169.746 202.465 169.998 201.648 169.998C201.133 169.998 200.684 169.883 200.29 169.647C199.895 169.401 199.588 169.056 199.369 168.617C199.161 168.179 199.062 167.664 199.062 167.062C199.062 166.141 199.287 165.429 199.742 164.914C200.208 164.388 200.849 164.125 201.67 164.125C202.459 164.125 203.084 164.388 203.555 164.914C204.021 165.44 204.256 166.158 204.256 167.062ZM199.961 167.062C199.961 167.779 200.098 168.327 200.377 168.705C200.668 169.089 201.09 169.275 201.648 169.275C202.218 169.275 202.645 169.089 202.941 168.705C203.232 168.327 203.38 167.779 203.38 167.062C203.38 166.349 203.232 165.807 202.941 165.44C202.645 165.062 202.218 164.87 201.648 164.87C201.09 164.87 200.668 165.056 200.377 165.418C200.098 165.785 199.961 166.333 199.961 167.062Z" fill="#323131"/>
<path d="M206.559 164.234V167.894C206.559 168.365 206.657 168.716 206.866 168.946C207.085 169.165 207.413 169.275 207.852 169.275C208.449 169.275 208.882 169.116 209.145 168.793C209.419 168.475 209.561 167.949 209.561 167.215V164.234H210.416V169.888H209.714L209.605 169.121H209.539C209.364 169.401 209.123 169.62 208.816 169.779C208.509 169.921 208.158 169.998 207.764 169.998C207.063 169.998 206.542 169.839 206.208 169.516C205.868 169.182 205.704 168.656 205.704 167.938V164.234H206.559Z" fill="#323131"/>
<path d="M214.816 164.125C215.063 164.125 215.287 164.147 215.496 164.191L215.386 164.98C215.151 164.936 214.937 164.914 214.751 164.914C214.296 164.914 213.901 165.106 213.567 165.484C213.244 165.851 213.085 166.311 213.085 166.864V169.888H212.23V164.235H212.954L213.041 165.286H213.085C213.288 164.925 213.534 164.64 213.83 164.432C214.137 164.229 214.466 164.125 214.816 164.125Z" fill="#323131"/>
<path d="M17.8779 184.074C17.0451 184.074 16.3987 183.828 15.9494 183.329C15.5111 182.82 15.292 182.102 15.292 181.182C15.292 180.234 15.5166 179.505 15.9713 178.99C16.4206 178.464 17.0725 178.201 17.9217 178.201C18.1956 178.201 18.4696 178.234 18.7325 178.289C19.0064 178.349 19.2201 178.42 19.368 178.508L19.1051 179.231C18.9297 179.16 18.7216 179.1 18.4915 179.056C18.2723 179.001 18.0751 178.968 17.8998 178.968C16.7602 178.968 16.1905 179.702 16.1905 181.16C16.1905 181.861 16.3274 182.403 16.6068 182.781C16.8808 183.148 17.2971 183.329 17.856 183.329C18.3216 183.329 18.8037 183.23 19.3023 183.022V183.767C18.9188 183.97 18.4476 184.074 17.8779 184.074Z" fill="#323131"/>
<path d="M21.4367 178.305V181.964C21.4367 182.436 21.5353 182.786 21.7435 183.016C21.9626 183.235 22.2913 183.345 22.7296 183.345C23.3268 183.345 23.7596 183.186 24.0226 182.863C24.2965 182.545 24.4389 182.019 24.4389 181.285V178.305H25.2936V183.959H24.5923L24.4828 183.192H24.417C24.2417 183.471 24.0006 183.69 23.6938 183.849C23.387 183.991 23.0364 184.068 22.642 184.068C21.9407 184.068 21.4202 183.909 21.0861 183.586C20.7464 183.252 20.582 182.726 20.582 182.008V178.305H21.4367Z" fill="#323131"/>
<path d="M30.7681 182.431C30.7681 182.957 30.5709 183.367 30.1764 183.658C29.782 183.937 29.2341 184.074 28.5329 184.074C27.7713 184.074 27.1851 183.954 26.7797 183.702V182.913C27.0427 183.061 27.3276 183.17 27.6344 183.241C27.9521 183.318 28.2589 183.351 28.5548 183.351C28.9931 183.351 29.3273 183.285 29.5628 183.154C29.8094 183.011 29.9354 182.792 29.9354 182.496C29.9354 182.277 29.8368 182.091 29.6505 181.927C29.4587 181.768 29.0862 181.587 28.5329 181.379C28.0069 181.176 27.6344 181.001 27.4152 180.853C27.1961 180.71 27.0263 180.546 26.9112 180.371C26.8071 180.184 26.7578 179.954 26.7578 179.691C26.7578 179.242 26.9386 178.881 27.3057 178.618C27.6837 178.344 28.2041 178.201 28.8616 178.201C29.4752 178.201 30.0669 178.327 30.6366 178.574L30.3517 179.275C29.782 179.045 29.2615 178.924 28.7958 178.924C28.3849 178.924 28.0781 178.99 27.8754 179.122C27.6673 179.242 27.5686 179.417 27.5686 179.648C27.5686 179.795 27.6015 179.927 27.6782 180.042C27.7659 180.146 27.8864 180.25 28.0508 180.349C28.2261 180.436 28.5603 180.568 29.0588 180.743C29.7272 180.995 30.1819 181.242 30.4175 181.488C30.6476 181.74 30.7681 182.053 30.7681 182.431Z" fill="#323131"/>
<path d="M33.9882 183.357C34.1307 183.357 34.2731 183.352 34.4046 183.335C34.547 183.308 34.6676 183.286 34.7552 183.269V183.927C34.6676 183.971 34.5251 184.004 34.3388 184.036C34.1635 184.064 33.9992 184.08 33.8567 184.08C32.761 184.08 32.2132 183.505 32.2132 182.349V178.974H31.4023V178.58L32.2132 178.207L32.5857 177.002H33.0678V178.317H34.7114V178.974H33.0678V182.305C33.0678 182.656 33.1445 182.919 33.3089 183.094C33.4678 183.269 33.6924 183.357 33.9882 183.357Z" fill="#323131"/>
<path d="M40.763 181.138C40.763 182.058 40.5274 182.781 40.0617 183.307C39.607 183.822 38.9715 184.074 38.1552 184.074C37.6402 184.074 37.191 183.959 36.7965 183.724C36.4021 183.477 36.0953 183.132 35.8761 182.694C35.668 182.255 35.5693 181.74 35.5693 181.138C35.5693 180.217 35.794 179.505 36.2487 178.99C36.7144 178.464 37.3553 178.201 38.1771 178.201C38.966 178.201 39.5906 178.464 40.0617 178.99C40.5274 179.516 40.763 180.234 40.763 181.138ZM36.4678 181.138C36.4678 181.855 36.6048 182.403 36.8842 182.781C37.1746 183.165 37.5964 183.351 38.1552 183.351C38.725 183.351 39.1523 183.165 39.4481 182.781C39.7385 182.403 39.8864 181.855 39.8864 181.138C39.8864 180.425 39.7385 179.883 39.4481 179.516C39.1523 179.138 38.725 178.946 38.1552 178.946C37.5964 178.946 37.1746 179.133 36.8842 179.494C36.6048 179.861 36.4678 180.409 36.4678 181.138Z" fill="#323131"/>
<path d="M49.4637 183.965V180.283C49.4637 179.834 49.3651 179.494 49.1788 179.275C48.987 179.056 48.6857 178.946 48.2803 178.946C47.7544 178.946 47.3599 179.1 47.0969 179.406C46.8449 179.702 46.7244 180.168 46.7244 180.809V183.965H45.8697V180.283C45.8697 179.834 45.7657 179.494 45.563 179.275C45.3712 179.056 45.0699 178.946 44.6645 178.946C44.1385 178.946 43.7441 179.111 43.4811 179.428C43.2291 179.752 43.1086 180.278 43.1086 181.006V183.965H42.2539V178.311H42.9552L43.1086 179.078H43.1305C43.2894 178.815 43.514 178.607 43.8098 178.442C44.1166 178.283 44.4508 178.201 44.8179 178.201C45.6944 178.201 46.2697 178.524 46.5491 179.165H46.5929C46.7518 178.875 46.9929 178.639 47.3161 178.464C47.6338 178.289 48.0009 178.201 48.4118 178.201C49.0528 178.201 49.5294 178.371 49.8362 178.705C50.154 179.028 50.3183 179.554 50.3183 180.283V183.965H49.4637Z" fill="#323131"/>
<path d="M54.4669 184.074C53.6342 184.074 52.9768 183.822 52.4947 183.307C52.0125 182.798 51.7715 182.091 51.7715 181.182C51.7715 180.278 51.9906 179.554 52.4289 179.012C52.8782 178.475 53.4863 178.201 54.2478 178.201C54.96 178.201 55.5243 178.437 55.9352 178.902C56.3406 179.374 56.5488 179.987 56.5488 180.743V181.291H52.67C52.6809 181.965 52.8453 182.474 53.1521 182.825C53.4698 183.165 53.9246 183.329 54.5108 183.329C55.1079 183.329 55.7051 183.198 56.3077 182.935V183.702C56.0009 183.833 55.716 183.932 55.4531 183.987C55.1901 184.041 54.8614 184.074 54.4669 184.074ZM54.2478 178.924C53.7931 178.924 53.426 179.078 53.1521 179.385C52.8891 179.68 52.7248 180.08 52.67 180.59H55.6284C55.6284 180.053 55.5024 179.642 55.2558 179.363C55.0203 179.072 54.6861 178.924 54.2478 178.924Z" fill="#323131"/>
<path d="M60.5917 178.201C60.8383 178.201 61.0629 178.223 61.2711 178.267L61.1615 179.056C60.9259 179.012 60.7123 178.99 60.526 178.99C60.0713 178.99 59.6768 179.182 59.3426 179.56C59.0194 179.927 58.8605 180.387 58.8605 180.94V183.965H58.0059V178.311H58.729L58.8167 179.363H58.8605C59.0632 179.001 59.3098 178.716 59.6056 178.508C59.9124 178.305 60.2411 178.201 60.5917 178.201Z" fill="#323131"/>
<path d="M65.9771 182.431C65.9771 182.957 65.7799 183.367 65.3854 183.658C64.991 183.937 64.4431 184.074 63.7418 184.074C62.9803 184.074 62.3941 183.954 61.9887 183.702V182.913C62.2517 183.061 62.5366 183.17 62.8434 183.241C63.1611 183.318 63.4679 183.351 63.7638 183.351C64.202 183.351 64.5362 183.285 64.7718 183.154C65.0183 183.011 65.1444 182.792 65.1444 182.496C65.1444 182.277 65.0457 182.091 64.8595 181.927C64.6677 181.768 64.2952 181.587 63.7418 181.379C63.2159 181.176 62.8434 181.001 62.6242 180.853C62.4051 180.71 62.2352 180.546 62.1202 180.371C62.0161 180.184 61.9668 179.954 61.9668 179.691C61.9668 179.242 62.1476 178.881 62.5147 178.618C62.8927 178.344 63.4131 178.201 64.0706 178.201C64.6842 178.201 65.2758 178.327 65.8456 178.574L65.5607 179.275C64.991 179.045 64.4705 178.924 64.0048 178.924C63.5939 178.924 63.2871 178.99 63.0844 179.122C62.8762 179.242 62.7776 179.417 62.7776 179.648C62.7776 179.795 62.8105 179.927 62.8872 180.042C62.9749 180.146 63.0954 180.25 63.2597 180.349C63.435 180.436 63.7692 180.568 64.2678 180.743C64.9362 180.995 65.3909 181.242 65.6265 181.488C65.8566 181.74 65.9771 182.053 65.9771 182.431Z" fill="#323131"/>
<path d="M68.0561 176.422L68.1219 176.531C68.0342 176.882 67.9027 177.287 67.7274 177.737C67.5631 178.191 67.3987 178.613 67.2234 179.008H66.5879C66.818 178.033 66.9933 177.167 67.1138 176.422H68.0561Z" fill="#323131"/>
<path d="M75.5523 182.431C75.5523 182.957 75.3551 183.367 74.9606 183.658C74.5662 183.937 74.0183 184.074 73.317 184.074C72.5555 184.074 71.9693 183.954 71.5639 183.702V182.913C71.8269 183.061 72.1118 183.17 72.4186 183.241C72.7363 183.318 73.0431 183.351 73.339 183.351C73.7772 183.351 74.1114 183.285 74.347 183.154C74.5935 183.011 74.7196 182.792 74.7196 182.496C74.7196 182.277 74.6209 182.091 74.4347 181.927C74.2429 181.768 73.8704 181.587 73.317 181.379C72.7911 181.176 72.4186 181.001 72.1994 180.853C71.9803 180.71 71.8104 180.546 71.6954 180.371C71.5913 180.184 71.542 179.954 71.542 179.691C71.542 179.242 71.7228 178.881 72.0898 178.618C72.4679 178.344 72.9883 178.201 73.6458 178.201C74.2594 178.201 74.851 178.327 75.4208 178.574L75.1359 179.275C74.5662 179.045 74.0457 178.924 73.58 178.924C73.1691 178.924 72.8623 178.99 72.6596 179.122C72.4514 179.242 72.3528 179.417 72.3528 179.648C72.3528 179.795 72.3857 179.927 72.4624 180.042C72.55 180.146 72.6706 180.25 72.8349 180.349C73.0102 180.436 73.3444 180.568 73.843 180.743C74.5114 180.995 74.9661 181.242 75.2017 181.488C75.4318 181.74 75.5523 182.053 75.5523 182.431Z" fill="#323131"/>
<path d="M79.5613 184.074C79.1943 184.074 78.8601 184.008 78.5533 183.877C78.2575 183.735 78.0054 183.521 77.7863 183.241H77.7425C77.7699 183.565 77.7863 183.877 77.7863 184.184V186.507H76.9316V178.311H77.6329L77.7644 179.078H77.7863C78.0164 178.771 78.2794 178.552 78.5752 178.42C78.8656 178.278 79.1943 178.201 79.5613 178.201C80.3174 178.201 80.9036 178.459 81.3145 178.968C81.7199 179.483 81.9281 180.206 81.9281 181.138C81.9281 182.058 81.7144 182.781 81.2926 183.307C80.8817 183.822 80.3064 184.074 79.5613 184.074ZM79.4518 178.946C78.8656 178.946 78.4437 179.111 78.1808 179.428C77.9287 179.735 77.7973 180.239 77.7863 180.94V181.138C77.7863 181.927 77.9178 182.496 78.1808 182.847C78.4547 183.187 78.8875 183.351 79.4737 183.351C79.9558 183.351 80.3338 183.154 80.6132 182.759C80.8872 182.365 81.0296 181.817 81.0296 181.116C81.0296 180.415 80.8872 179.883 80.6132 179.516C80.3338 179.138 79.9448 178.946 79.4518 178.946Z" fill="#323131"/>
<path d="M85.7911 184.074C84.9584 184.074 84.301 183.822 83.8189 183.307C83.3368 182.798 83.0957 182.091 83.0957 181.182C83.0957 180.278 83.3148 179.554 83.7531 179.012C84.2024 178.475 84.8105 178.201 85.572 178.201C86.2842 178.201 86.8485 178.437 87.2594 178.902C87.6648 179.374 87.873 179.987 87.873 180.743V181.291H83.9942C84.0051 181.965 84.1695 182.474 84.4763 182.825C84.7941 183.165 85.2488 183.329 85.835 183.329C86.4321 183.329 87.0293 183.198 87.6319 182.935V183.702C87.3251 183.833 87.0403 183.932 86.7773 183.987C86.5143 184.041 86.1856 184.074 85.7911 184.074ZM85.572 178.924C85.1173 178.924 84.7502 179.078 84.4763 179.385C84.2133 179.68 84.049 180.08 83.9942 180.59H86.9526C86.9526 180.053 86.8266 179.642 86.5801 179.363C86.3445 179.072 86.0103 178.924 85.572 178.924Z" fill="#323131"/>
<path d="M91.6093 184.074C90.7766 184.074 90.1301 183.828 89.6809 183.329C89.2426 182.82 89.0234 182.102 89.0234 181.182C89.0234 180.234 89.2481 179.505 89.7028 178.99C90.152 178.464 90.804 178.201 91.6531 178.201C91.9271 178.201 92.201 178.234 92.464 178.289C92.7379 178.349 92.9516 178.42 93.0995 178.508L92.8365 179.231C92.6612 179.16 92.453 179.1 92.2229 179.056C92.0038 179.001 91.8065 178.968 91.6312 178.968C90.4917 178.968 89.9219 179.702 89.9219 181.16C89.9219 181.861 90.0589 182.403 90.3383 182.781C90.6122 183.148 91.0286 183.329 91.5874 183.329C92.0531 183.329 92.5352 183.23 93.0337 183.022V183.767C92.6502 183.97 92.1791 184.074 91.6093 184.074Z" fill="#323131"/>
<path d="M95.2114 183.969H94.3568V178.315H95.2114V183.969ZM94.291 176.781C94.291 176.594 94.3348 176.452 94.4225 176.364C94.5211 176.266 94.6471 176.211 94.795 176.211C94.9375 176.211 95.058 176.266 95.1457 176.364C95.2443 176.452 95.2991 176.594 95.2991 176.781C95.2991 176.972 95.2443 177.12 95.1457 177.219C95.058 177.307 94.9375 177.35 94.795 177.35C94.6471 177.35 94.5211 177.307 94.4225 177.219C94.3348 177.12 94.291 176.972 94.291 176.781Z" fill="#323131"/>
<path d="M99.5922 178.969H98.1459V183.965H97.2913V178.969H96.2832V178.596L97.2913 178.289V177.961C97.2913 176.575 97.8939 175.879 99.1101 175.879C99.4169 175.879 99.7676 175.939 100.162 176.054L99.9429 176.755C99.6032 176.64 99.3183 176.58 99.0882 176.58C98.765 176.58 98.5239 176.69 98.3651 176.909C98.2171 177.128 98.1459 177.473 98.1459 177.939V178.311H99.5922V178.969Z" fill="#323131"/>
<path d="M101.461 183.969H100.607V178.315H101.461V183.969ZM100.541 176.781C100.541 176.594 100.585 176.452 100.673 176.364C100.771 176.266 100.897 176.211 101.045 176.211C101.187 176.211 101.308 176.266 101.396 176.364C101.494 176.452 101.549 176.594 101.549 176.781C101.549 176.972 101.494 177.12 101.396 177.219C101.308 177.307 101.187 177.35 101.045 177.35C100.897 177.35 100.771 177.307 100.673 177.219C100.585 177.12 100.541 176.972 100.541 176.781Z" fill="#323131"/>
<path d="M105.559 184.074C104.726 184.074 104.079 183.828 103.63 183.329C103.192 182.82 102.973 182.102 102.973 181.182C102.973 180.234 103.197 179.505 103.652 178.99C104.101 178.464 104.753 178.201 105.602 178.201C105.876 178.201 106.15 178.234 106.413 178.289C106.687 178.349 106.901 178.42 107.049 178.508L106.786 179.231C106.61 179.16 106.402 179.1 106.172 179.056C105.953 179.001 105.756 178.968 105.58 178.968C104.441 178.968 103.871 179.702 103.871 181.16C103.871 181.861 104.008 182.403 104.288 182.781C104.561 183.148 104.978 183.329 105.537 183.329C106.002 183.329 106.484 183.23 106.983 183.022V183.767C106.599 183.97 106.128 184.074 105.559 184.074Z" fill="#323131"/>
<path d="M114.93 183.965V180.305C114.93 179.856 114.82 179.516 114.601 179.297C114.393 179.067 114.075 178.946 113.637 178.946C113.034 178.946 112.596 179.111 112.322 179.428C112.042 179.735 111.905 180.261 111.905 181.006V183.965H111.051V178.311H111.752L111.905 179.078H111.927C112.103 178.804 112.349 178.59 112.672 178.442C112.99 178.283 113.341 178.201 113.724 178.201C114.409 178.201 114.919 178.371 115.258 178.705C115.609 179.028 115.784 179.554 115.784 180.283V183.965H114.93Z" fill="#323131"/>
<path d="M119.924 184.074C119.091 184.074 118.434 183.822 117.952 183.307C117.47 182.798 117.229 182.091 117.229 181.182C117.229 180.278 117.448 179.554 117.886 179.012C118.335 178.475 118.943 178.201 119.705 178.201C120.417 178.201 120.981 178.437 121.392 178.902C121.798 179.374 122.006 179.987 122.006 180.743V181.291H118.127C118.138 181.965 118.302 182.474 118.609 182.825C118.927 183.165 119.382 183.329 119.968 183.329C120.565 183.329 121.162 183.198 121.765 182.935V183.702C121.458 183.833 121.173 183.932 120.91 183.987C120.647 184.041 120.318 184.074 119.924 184.074ZM119.705 178.924C119.25 178.924 118.883 179.078 118.609 179.385C118.346 179.68 118.182 180.08 118.127 180.59H121.085C121.085 180.053 120.959 179.642 120.713 179.363C120.477 179.072 120.143 178.924 119.705 178.924Z" fill="#323131"/>
<path d="M125.849 184.074C125.016 184.074 124.359 183.822 123.876 183.307C123.394 182.798 123.153 182.091 123.153 181.182C123.153 180.278 123.372 179.554 123.811 179.012C124.26 178.475 124.868 178.201 125.63 178.201C126.342 178.201 126.906 178.437 127.317 178.902C127.722 179.374 127.931 179.987 127.931 180.743V181.291H124.052C124.063 181.965 124.227 182.474 124.534 182.825C124.852 183.165 125.306 183.329 125.893 183.329C126.49 183.329 127.087 183.198 127.69 182.935V183.702C127.383 183.833 127.098 183.932 126.835 183.987C126.572 184.041 126.243 184.074 125.849 184.074ZM125.63 178.924C125.175 178.924 124.808 179.078 124.534 179.385C124.271 179.68 124.107 180.08 124.052 180.59H127.01C127.01 180.053 126.884 179.642 126.638 179.363C126.402 179.072 126.068 178.924 125.63 178.924Z" fill="#323131"/>
<path d="M133.242 183.191H133.198C132.804 183.777 132.212 184.068 131.423 184.068C130.678 184.068 130.097 183.821 129.692 183.323C129.281 182.813 129.078 182.09 129.078 181.153C129.078 180.222 129.281 179.499 129.692 178.984C130.114 178.458 130.689 178.195 131.423 178.195C132.179 178.195 132.765 178.474 133.176 179.027H133.242L133.198 178.238V175.938H134.053V183.958H133.351L133.242 183.191ZM131.533 183.344C132.113 183.344 132.541 183.186 132.804 182.862C133.067 182.545 133.198 182.03 133.198 181.328V181.153C133.198 180.353 133.056 179.783 132.782 179.444C132.519 179.093 132.091 178.918 131.511 178.918C131.012 178.918 130.634 179.115 130.371 179.51C130.108 179.893 129.977 180.441 129.977 181.153C129.977 181.887 130.108 182.435 130.371 182.797C130.634 183.164 131.018 183.344 131.533 183.344Z" fill="#323131"/>
<path d="M139.516 182.431C139.516 182.957 139.319 183.367 138.924 183.658C138.53 183.937 137.982 184.074 137.281 184.074C136.519 184.074 135.933 183.954 135.528 183.702V182.913C135.791 183.061 136.076 183.17 136.382 183.241C136.7 183.318 137.007 183.351 137.303 183.351C137.741 183.351 138.075 183.285 138.311 183.154C138.557 183.011 138.683 182.792 138.683 182.496C138.683 182.277 138.585 182.091 138.399 181.927C138.207 181.768 137.834 181.587 137.281 181.379C136.755 181.176 136.382 181.001 136.163 180.853C135.944 180.71 135.774 180.546 135.659 180.371C135.555 180.184 135.506 179.954 135.506 179.691C135.506 179.242 135.687 178.881 136.054 178.618C136.432 178.344 136.952 178.201 137.61 178.201C138.223 178.201 138.815 178.327 139.385 178.574L139.1 179.275C138.53 179.045 138.01 178.924 137.544 178.924C137.133 178.924 136.826 178.99 136.623 179.122C136.415 179.242 136.317 179.417 136.317 179.648C136.317 179.795 136.35 179.927 136.426 180.042C136.514 180.146 136.634 180.25 136.799 180.349C136.974 180.436 137.308 180.568 137.807 180.743C138.475 180.995 138.93 181.242 139.166 181.488C139.396 181.74 139.516 182.053 139.516 182.431Z" fill="#323131"/>
<path d="M147.299 182.431C147.299 182.957 147.102 183.367 146.708 183.658C146.313 183.937 145.765 184.074 145.064 184.074C144.303 184.074 143.716 183.954 143.311 183.702V182.913C143.574 183.061 143.859 183.17 144.166 183.241C144.483 183.318 144.79 183.351 145.086 183.351C145.524 183.351 145.859 183.285 146.094 183.154C146.341 183.011 146.467 182.792 146.467 182.496C146.467 182.277 146.368 182.091 146.182 181.927C145.99 181.768 145.617 181.587 145.064 181.379C144.538 181.176 144.166 181.001 143.946 180.853C143.727 180.71 143.558 180.546 143.442 180.371C143.338 180.184 143.289 179.954 143.289 179.691C143.289 179.242 143.47 178.881 143.837 178.618C144.215 178.344 144.735 178.201 145.393 178.201C146.006 178.201 146.598 178.327 147.168 178.574L146.883 179.275C146.313 179.045 145.793 178.924 145.327 178.924C144.916 178.924 144.609 178.99 144.407 179.122C144.199 179.242 144.1 179.417 144.1 179.648C144.1 179.795 144.133 179.927 144.209 180.042C144.297 180.146 144.418 180.25 144.582 180.349C144.757 180.436 145.092 180.568 145.59 180.743C146.258 180.995 146.713 181.242 146.949 181.488C147.179 181.74 147.299 182.053 147.299 182.431Z" fill="#323131"/>
<path d="M153.566 181.138C153.566 182.058 153.33 182.781 152.864 183.307C152.41 183.822 151.774 184.074 150.958 184.074C150.443 184.074 149.994 183.959 149.599 183.724C149.205 183.477 148.898 183.132 148.679 182.694C148.471 182.255 148.372 181.74 148.372 181.138C148.372 180.217 148.597 179.505 149.051 178.99C149.517 178.464 150.158 178.201 150.98 178.201C151.769 178.201 152.393 178.464 152.864 178.99C153.33 179.516 153.566 180.234 153.566 181.138ZM149.271 181.138C149.271 181.855 149.408 182.403 149.687 182.781C149.977 183.165 150.399 183.351 150.958 183.351C151.528 183.351 151.955 183.165 152.251 182.781C152.541 182.403 152.689 181.855 152.689 181.138C152.689 180.425 152.541 179.883 152.251 179.516C151.955 179.138 151.528 178.946 150.958 178.946C150.399 178.946 149.977 179.133 149.687 179.494C149.408 179.861 149.271 180.409 149.271 181.138Z" fill="#323131"/>
<path d="M156.901 178.305H157.822L159.071 181.526C159.334 182.271 159.498 182.808 159.575 183.126H159.619C159.663 182.95 159.75 182.655 159.882 182.227C160.024 181.805 160.501 180.496 161.306 178.305H162.205L159.794 184.747C159.542 185.372 159.257 185.821 158.939 186.084C158.616 186.358 158.222 186.501 157.756 186.501C157.493 186.501 157.236 186.468 156.989 186.413V185.712C157.175 185.756 157.389 185.777 157.625 185.777C158.205 185.777 158.622 185.449 158.874 184.791L159.18 183.98L156.901 178.305Z" fill="#323131"/>
<path d="M168.01 181.138C168.01 182.058 167.774 182.781 167.309 183.307C166.854 183.822 166.219 184.074 165.402 184.074C164.887 184.074 164.438 183.959 164.044 183.724C163.649 183.477 163.342 183.132 163.123 182.694C162.915 182.255 162.816 181.74 162.816 181.138C162.816 180.217 163.041 179.505 163.496 178.99C163.961 178.464 164.602 178.201 165.424 178.201C166.213 178.201 166.838 178.464 167.309 178.99C167.774 179.516 168.01 180.234 168.01 181.138ZM163.715 181.138C163.715 181.855 163.852 182.403 164.131 182.781C164.422 183.165 164.843 183.351 165.402 183.351C165.972 183.351 166.399 183.165 166.695 182.781C166.986 182.403 167.134 181.855 167.134 181.138C167.134 180.425 166.986 179.883 166.695 179.516C166.399 179.138 165.972 178.946 165.402 178.946C164.843 178.946 164.422 179.133 164.131 179.494C163.852 179.861 163.715 180.409 163.715 181.138Z" fill="#323131"/>
<path d="M170.311 178.305V181.964C170.311 182.436 170.409 182.786 170.618 183.016C170.837 183.235 171.165 183.345 171.604 183.345C172.201 183.345 172.634 183.186 172.897 182.863C173.171 182.545 173.313 182.019 173.313 181.285V178.305H174.168V183.959H173.466L173.357 183.192H173.291C173.116 183.471 172.875 183.69 172.568 183.849C172.261 183.991 171.91 184.068 171.516 184.068C170.815 184.068 170.294 183.909 169.96 183.586C169.62 183.252 169.456 182.726 169.456 182.008V178.305H170.311Z" fill="#323131"/>
<path d="M181.009 184.074C180.176 184.074 179.53 183.828 179.08 183.329C178.642 182.82 178.423 182.102 178.423 181.182C178.423 180.234 178.647 179.505 179.102 178.99C179.551 178.464 180.203 178.201 181.053 178.201C181.326 178.201 181.6 178.234 181.863 178.289C182.137 178.349 182.351 178.42 182.499 178.508L182.236 179.231C182.061 179.16 181.852 179.1 181.622 179.056C181.403 179.001 181.206 178.968 181.031 178.968C179.891 178.968 179.321 179.702 179.321 181.16C179.321 181.861 179.458 182.403 179.738 182.781C180.012 183.148 180.428 183.329 180.987 183.329C181.452 183.329 181.935 183.23 182.433 183.022V183.767C182.05 183.97 181.578 184.074 181.009 184.074Z" fill="#323131"/>
<path d="M187.242 183.958L187.066 183.147H187.022C186.743 183.515 186.464 183.761 186.19 183.893C185.91 184.008 185.56 184.068 185.138 184.068C184.579 184.068 184.141 183.925 183.823 183.63C183.5 183.339 183.341 182.928 183.341 182.402C183.341 181.263 184.25 180.666 186.08 180.605L187.044 180.562V180.211C187.044 179.773 186.946 179.455 186.759 179.247C186.568 179.028 186.261 178.918 185.839 178.918C185.368 178.918 184.836 179.066 184.239 179.356L183.976 178.699C184.25 178.556 184.557 178.436 184.897 178.348C185.231 178.261 185.56 178.217 185.883 178.217C186.568 178.217 187.072 178.37 187.395 178.677C187.713 178.973 187.877 179.444 187.877 180.101V183.958H187.242ZM185.313 183.345C185.839 183.345 186.255 183.202 186.562 182.906C186.869 182.616 187.022 182.205 187.022 181.679V181.175L186.168 181.219C185.477 181.235 184.984 181.34 184.678 181.526C184.382 181.718 184.239 182.008 184.239 182.402C184.239 182.709 184.332 182.945 184.524 183.104C184.71 183.268 184.973 183.345 185.313 183.345Z" fill="#323131"/>
<path d="M193.51 183.965V180.305C193.51 179.856 193.4 179.516 193.181 179.297C192.973 179.067 192.655 178.946 192.217 178.946C191.614 178.946 191.176 179.111 190.902 179.428C190.622 179.735 190.486 180.261 190.486 181.006V183.965H189.631V178.311H190.332L190.486 179.078H190.507C190.683 178.804 190.929 178.59 191.253 178.442C191.57 178.283 191.921 178.201 192.304 178.201C192.989 178.201 193.499 178.371 193.838 178.705C194.189 179.028 194.364 179.554 194.364 180.283V183.965H193.51Z" fill="#323131"/>
<path d="M201.42 178.969H199.974V183.965H199.119V178.969H198.111V178.596L199.119 178.289V177.961C199.119 176.575 199.722 175.879 200.938 175.879C201.245 175.879 201.596 175.939 201.99 176.054L201.771 176.755C201.431 176.64 201.146 176.58 200.916 176.58C200.593 176.58 200.352 176.69 200.193 176.909C200.045 177.128 199.974 177.473 199.974 177.939V178.311H201.42V178.969Z" fill="#323131"/>
<path d="M203.291 183.969H202.436V178.315H203.291V183.969ZM202.37 176.781C202.37 176.594 202.414 176.452 202.502 176.364C202.6 176.266 202.726 176.211 202.874 176.211C203.017 176.211 203.137 176.266 203.225 176.364C203.323 176.452 203.378 176.594 203.378 176.781C203.378 176.972 203.323 177.12 203.225 177.219C203.137 177.307 203.017 177.35 202.874 177.35C202.726 177.35 202.6 177.307 202.502 177.219C202.414 177.12 202.37 176.972 202.37 176.781Z" fill="#323131"/>
<path d="M208.985 183.965V180.305C208.985 179.856 208.876 179.516 208.657 179.297C208.448 179.067 208.131 178.946 207.692 178.946C207.09 178.946 206.651 179.111 206.377 179.428C206.098 179.735 205.961 180.261 205.961 181.006V183.965H205.106V178.311H205.808L205.961 179.078H205.983C206.158 178.804 206.405 178.59 206.728 178.442C207.046 178.283 207.396 178.201 207.78 178.201C208.465 178.201 208.974 178.371 209.314 178.705C209.665 179.028 209.84 179.554 209.84 180.283V183.965H208.985Z" fill="#323131"/>
<path d="M215.447 183.191H215.403C215.009 183.777 214.417 184.068 213.628 184.068C212.883 184.068 212.302 183.821 211.897 183.323C211.486 182.813 211.283 182.09 211.283 181.153C211.283 180.222 211.486 179.499 211.897 178.984C212.319 178.458 212.894 178.195 213.628 178.195C214.384 178.195 214.97 178.474 215.381 179.027H215.447L215.403 178.238V175.938H216.258V183.958H215.556L215.447 183.191ZM213.738 183.344C214.318 183.344 214.746 183.186 215.009 182.862C215.272 182.545 215.403 182.03 215.403 181.328V181.153C215.403 180.353 215.261 179.783 214.987 179.444C214.724 179.093 214.296 178.918 213.716 178.918C213.217 178.918 212.839 179.115 212.576 179.51C212.313 179.893 212.182 180.441 212.182 181.153C212.182 181.887 212.313 182.435 212.576 182.797C212.839 183.164 213.223 183.344 213.738 183.344Z" fill="#323131"/>
<path d="M29.1562 197.437C29.2986 197.437 29.4411 197.432 29.5726 197.415C29.715 197.388 29.8355 197.366 29.9232 197.349V198.007C29.8355 198.051 29.6931 198.084 29.5068 198.116C29.3315 198.144 29.1671 198.16 29.0247 198.16C27.929 198.16 27.3811 197.585 27.3811 196.429V193.054H26.5703V192.66L27.3811 192.287L27.7537 191.082H28.2358V192.397H29.8794V193.054H28.2358V196.385C28.2358 196.736 28.3125 196.999 28.4768 197.174C28.6357 197.349 28.8603 197.437 29.1562 197.437Z" fill="#323131"/>
<path d="M34.9208 198.048V194.388C34.9208 193.939 34.8112 193.599 34.5921 193.38C34.3839 193.15 34.0662 193.03 33.6279 193.03C33.0252 193.03 32.5869 193.194 32.313 193.512C32.0336 193.835 31.8966 194.361 31.8966 195.09V198.048H31.042V190.027H31.8966V192.46C31.8966 192.756 31.8857 192.997 31.8747 193.183H31.9186C32.0774 192.909 32.313 192.695 32.6198 192.547C32.9376 192.389 33.2992 192.306 33.6936 192.306C34.3949 192.306 34.9098 192.476 35.2495 192.81C35.6001 193.134 35.7755 193.654 35.7755 194.366V198.048H34.9208Z" fill="#323131"/>
<path d="M39.9142 198.158C39.0815 198.158 38.424 197.906 37.9419 197.391C37.4598 196.882 37.2188 196.175 37.2188 195.265C37.2188 194.362 37.4379 193.638 37.8762 193.096C38.3254 192.559 38.9335 192.285 39.6951 192.285C40.4073 192.285 40.9716 192.521 41.3824 192.986C41.7879 193.458 41.996 194.071 41.996 194.827V195.375H38.1172C38.1282 196.049 38.2925 196.558 38.5993 196.909C38.9171 197.249 39.3718 197.413 39.958 197.413C40.5552 197.413 41.1523 197.282 41.755 197.019V197.786C41.4482 197.917 41.1633 198.016 40.9003 198.071C40.6374 198.125 40.3087 198.158 39.9142 198.158ZM39.6951 193.008C39.2403 193.008 38.8733 193.162 38.5993 193.469C38.3364 193.764 38.172 194.164 38.1172 194.674H41.0756C41.0756 194.137 40.9496 193.726 40.7031 193.447C40.4675 193.156 40.1333 193.008 39.6951 193.008Z" fill="#323131"/>
<path d="M48.825 192.306C49.5701 192.306 50.1453 192.564 50.5562 193.073C50.9781 193.572 51.1918 194.29 51.1918 195.221C51.1918 196.141 50.9781 196.865 50.5562 197.391C50.1453 197.905 49.5701 198.158 48.825 198.158C48.458 198.158 48.1238 198.092 47.817 197.96C47.5211 197.818 47.2691 197.604 47.05 197.325H47.0061L46.8089 198.048H46.1953V190.027H47.05V191.978C47.05 192.416 47.039 192.805 47.0281 193.139H47.05C47.4554 192.586 48.0471 192.306 48.825 192.306ZM48.7154 193.03C48.1292 193.03 47.7074 193.199 47.4444 193.534C47.1815 193.857 47.05 194.421 47.05 195.221C47.05 196.01 47.1815 196.58 47.4444 196.93C47.7183 197.27 48.1512 197.434 48.7374 197.434C49.2633 197.434 49.6468 197.248 49.8988 196.865C50.1618 196.487 50.2933 195.933 50.2933 195.199C50.2933 194.47 50.1618 193.928 49.8988 193.577C49.6468 193.216 49.2523 193.03 48.7154 193.03Z" fill="#323131"/>
<path d="M55.0558 198.158C54.2231 198.158 53.5656 197.906 53.0835 197.391C52.6014 196.882 52.3604 196.175 52.3604 195.265C52.3604 194.362 52.5795 193.638 53.0178 193.096C53.467 192.559 54.0751 192.285 54.8367 192.285C55.5489 192.285 56.1132 192.521 56.524 192.986C56.9295 193.458 57.1376 194.071 57.1376 194.827V195.375H53.2588C53.2698 196.049 53.4341 196.558 53.7409 196.909C54.0587 197.249 54.5134 197.413 55.0996 197.413C55.6968 197.413 56.2939 197.282 56.8966 197.019V197.786C56.5898 197.917 56.3049 198.016 56.0419 198.071C55.779 198.125 55.4503 198.158 55.0558 198.158ZM54.8367 193.008C54.3819 193.008 54.0149 193.162 53.7409 193.469C53.478 193.764 53.3136 194.164 53.2588 194.674H56.2173C56.2173 194.137 56.0912 193.726 55.8447 193.447C55.6091 193.156 55.2749 193.008 54.8367 193.008Z" fill="#323131"/>
<path d="M62.2544 196.515C62.2544 197.041 62.0572 197.451 61.6628 197.742C61.2683 198.021 60.7204 198.158 60.0192 198.158C59.2577 198.158 58.6715 198.038 58.2661 197.786V196.997C58.529 197.145 58.8139 197.254 59.1207 197.325C59.4385 197.402 59.7453 197.435 60.0411 197.435C60.4794 197.435 60.8136 197.369 61.0492 197.238C61.2957 197.095 61.4217 196.876 61.4217 196.58C61.4217 196.361 61.3231 196.175 61.1368 196.011C60.9451 195.852 60.5725 195.671 60.0192 195.463C59.4933 195.26 59.1207 195.085 58.9016 194.937C58.6824 194.794 58.5126 194.63 58.3975 194.455C58.2934 194.268 58.2441 194.038 58.2441 193.775C58.2441 193.326 58.4249 192.964 58.792 192.702C59.17 192.428 59.6905 192.285 60.3479 192.285C60.9615 192.285 61.5532 192.411 62.123 192.658L61.8381 193.359C61.2683 193.129 60.7478 193.008 60.2822 193.008C59.8713 193.008 59.5645 193.074 59.3618 193.206C59.1536 193.326 59.055 193.501 59.055 193.731C59.055 193.879 59.0878 194.011 59.1645 194.126C59.2522 194.23 59.3727 194.334 59.5371 194.433C59.7124 194.52 60.0466 194.652 60.5451 194.827C61.2135 195.079 61.6682 195.326 61.9038 195.572C62.1339 195.824 62.2544 196.137 62.2544 196.515Z" fill="#323131"/>
<path d="M65.4736 197.437C65.616 197.437 65.7585 197.432 65.8899 197.415C66.0324 197.388 66.1529 197.366 66.2406 197.349V198.007C66.1529 198.051 66.0105 198.084 65.8242 198.116C65.6489 198.144 65.4845 198.16 65.3421 198.16C64.2464 198.16 63.6985 197.585 63.6985 196.429V193.054H62.8877V192.66L63.6985 192.287L64.0711 191.082H64.5532V192.397H66.1967V193.054H64.5532V196.385C64.5532 196.736 64.6299 196.999 64.7942 197.174C64.9531 197.349 65.1777 197.437 65.4736 197.437Z" fill="#323131"/>
<path d="M73.7632 196.515C73.7632 197.041 73.566 197.451 73.1715 197.742C72.7771 198.021 72.2292 198.158 71.528 198.158C70.7665 198.158 70.1803 198.038 69.7748 197.786V196.997C70.0378 197.145 70.3227 197.254 70.6295 197.325C70.9473 197.402 71.2541 197.435 71.5499 197.435C71.9882 197.435 72.3224 197.369 72.5579 197.238C72.8045 197.095 72.9305 196.876 72.9305 196.58C72.9305 196.361 72.8319 196.175 72.6456 196.011C72.4539 195.852 72.0813 195.671 71.528 195.463C71.002 195.26 70.6295 195.085 70.4104 194.937C70.1912 194.794 70.0214 194.63 69.9063 194.455C69.8022 194.268 69.7529 194.038 69.7529 193.775C69.7529 193.326 69.9337 192.964 70.3008 192.702C70.6788 192.428 71.1993 192.285 71.8567 192.285C72.4703 192.285 73.062 192.411 73.6317 192.658L73.3469 193.359C72.7771 193.129 72.2566 193.008 71.791 193.008C71.3801 193.008 71.0733 193.074 70.8706 193.206C70.6624 193.326 70.5638 193.501 70.5638 193.731C70.5638 193.879 70.5966 194.011 70.6733 194.126C70.761 194.23 70.8815 194.334 71.0459 194.433C71.2212 194.52 71.5554 194.652 72.0539 194.827C72.7223 195.079 73.177 195.326 73.4126 195.572C73.6427 195.824 73.7632 196.137 73.7632 196.515Z" fill="#323131"/>
<path d="M80.0276 195.222C80.0276 196.142 79.7921 196.865 79.3264 197.391C78.8717 197.906 78.2362 198.158 77.4199 198.158C76.9049 198.158 76.4556 198.043 76.0612 197.808C75.6667 197.561 75.3599 197.216 75.1408 196.778C74.9326 196.339 74.834 195.824 74.834 195.222C74.834 194.301 75.0586 193.589 75.5133 193.074C75.979 192.548 76.62 192.285 77.4418 192.285C78.2307 192.285 78.8552 192.548 79.3264 193.074C79.7921 193.6 80.0276 194.318 80.0276 195.222ZM75.7325 195.222C75.7325 195.939 75.8694 196.487 76.1488 196.865C76.4392 197.249 76.861 197.435 77.4199 197.435C77.9896 197.435 78.417 197.249 78.7128 196.865C79.0032 196.487 79.1511 195.939 79.1511 195.222C79.1511 194.509 79.0032 193.967 78.7128 193.6C78.417 193.222 77.9896 193.03 77.4199 193.03C76.861 193.03 76.4392 193.217 76.1488 193.578C75.8694 193.945 75.7325 194.493 75.7325 195.222Z" fill="#323131"/>
<path d="M82.3761 198.048H81.5215V190.027H82.3761V198.048Z" fill="#323131"/>
<path d="M85.0031 192.398V196.058C85.0031 196.529 85.1017 196.88 85.3099 197.11C85.529 197.329 85.8577 197.439 86.296 197.439C86.8932 197.439 87.326 197.28 87.589 196.957C87.8629 196.639 88.0053 196.113 88.0053 195.379V192.398H88.86V198.052H88.1587L88.0492 197.285H87.9834C87.8081 197.565 87.5671 197.784 87.2603 197.943C86.9535 198.085 86.6028 198.162 86.2084 198.162C85.5071 198.162 84.9867 198.003 84.6525 197.68C84.3128 197.346 84.1484 196.82 84.1484 196.102V192.398H85.0031Z" fill="#323131"/>
<path d="M92.5175 197.437C92.66 197.437 92.8024 197.432 92.9339 197.415C93.0763 197.388 93.1969 197.366 93.2845 197.349V198.007C93.1969 198.051 93.0544 198.084 92.8681 198.116C92.6928 198.144 92.5285 198.16 92.386 198.16C91.2903 198.16 90.7425 197.585 90.7425 196.429V193.054H89.9316V192.66L90.7425 192.287L91.115 191.082H91.5971V192.397H93.2407V193.054H91.5971V196.385C91.5971 196.736 91.6738 196.999 91.8382 197.174C91.9971 197.349 92.2217 197.437 92.5175 197.437Z" fill="#323131"/>
<path d="M95.2593 198.055H94.4046V192.401H95.2593V198.055ZM94.3389 190.867C94.3389 190.68 94.3827 190.538 94.4704 190.45C94.569 190.352 94.695 190.297 94.8429 190.297C94.9853 190.297 95.1059 190.352 95.1935 190.45C95.2921 190.538 95.3469 190.68 95.3469 190.867C95.3469 191.058 95.2921 191.206 95.1935 191.305C95.1059 191.393 94.9853 191.436 94.8429 191.436C94.695 191.436 94.569 191.393 94.4704 191.305C94.3827 191.206 94.3389 191.058 94.3389 190.867Z" fill="#323131"/>
<path d="M101.963 195.222C101.963 196.142 101.728 196.865 101.262 197.391C100.807 197.906 100.172 198.158 99.3554 198.158C98.8404 198.158 98.3912 198.043 97.9967 197.808C97.6023 197.561 97.2955 197.216 97.0763 196.778C96.8681 196.339 96.7695 195.824 96.7695 195.222C96.7695 194.301 96.9942 193.589 97.4489 193.074C97.9145 192.548 98.5555 192.285 99.3773 192.285C100.166 192.285 100.791 192.548 101.262 193.074C101.728 193.6 101.963 194.318 101.963 195.222ZM97.668 195.222C97.668 195.939 97.805 196.487 98.0844 196.865C98.3747 197.249 98.7966 197.435 99.3554 197.435C99.9252 197.435 100.353 197.249 100.648 196.865C100.939 196.487 101.087 195.939 101.087 195.222C101.087 194.509 100.939 193.967 100.648 193.6C100.353 193.222 99.9252 193.03 99.3554 193.03C98.7966 193.03 98.3747 193.217 98.0844 193.578C97.805 193.945 97.668 194.493 97.668 195.222Z" fill="#323131"/>
<path d="M107.334 198.049V194.389C107.334 193.94 107.224 193.6 107.005 193.381C106.797 193.151 106.479 193.03 106.041 193.03C105.438 193.03 105 193.195 104.726 193.512C104.447 193.819 104.31 194.345 104.31 195.09V198.049H103.455V192.395H104.156L104.31 193.162H104.332C104.507 192.888 104.753 192.674 105.077 192.526C105.394 192.367 105.745 192.285 106.129 192.285C106.813 192.285 107.323 192.455 107.663 192.789C108.013 193.112 108.189 193.638 108.189 194.367V198.049H107.334Z" fill="#323131"/>
<path d="M113.596 196.515C113.596 197.041 113.399 197.451 113.005 197.742C112.61 198.021 112.062 198.158 111.361 198.158C110.599 198.158 110.013 198.038 109.608 197.786V196.997C109.871 197.145 110.156 197.254 110.463 197.325C110.78 197.402 111.087 197.435 111.383 197.435C111.821 197.435 112.155 197.369 112.391 197.238C112.637 197.095 112.763 196.876 112.763 196.58C112.763 196.361 112.665 196.175 112.479 196.011C112.287 195.852 111.914 195.671 111.361 195.463C110.835 195.26 110.463 195.085 110.243 194.937C110.024 194.794 109.854 194.63 109.739 194.455C109.635 194.268 109.586 194.038 109.586 193.775C109.586 193.326 109.767 192.964 110.134 192.702C110.512 192.428 111.032 192.285 111.69 192.285C112.303 192.285 112.895 192.411 113.465 192.658L113.18 193.359C112.61 193.129 112.09 193.008 111.624 193.008C111.213 193.008 110.906 193.074 110.704 193.206C110.495 193.326 110.397 193.501 110.397 193.731C110.397 193.879 110.43 194.011 110.506 194.126C110.594 194.23 110.715 194.334 110.879 194.433C111.054 194.52 111.388 194.652 111.887 194.827C112.555 195.079 113.01 195.326 113.246 195.572C113.476 195.824 113.596 196.137 113.596 196.515Z" fill="#323131"/>
<path d="M119.56 197.437C119.703 197.437 119.845 197.432 119.977 197.415C120.119 197.388 120.24 197.366 120.327 197.349V198.007C120.24 198.051 120.097 198.084 119.911 198.116C119.736 198.144 119.571 198.16 119.429 198.16C118.333 198.16 117.785 197.585 117.785 196.429V193.054H116.975V192.66L117.785 192.287L118.158 191.082H118.64V192.397H120.284V193.054H118.64V196.385C118.64 196.736 118.717 196.999 118.881 197.174C119.04 197.349 119.265 197.437 119.56 197.437Z" fill="#323131"/>
<path d="M126.336 195.222C126.336 196.142 126.101 196.865 125.635 197.391C125.18 197.906 124.545 198.158 123.728 198.158C123.213 198.158 122.764 198.043 122.37 197.808C121.975 197.561 121.669 197.216 121.449 196.778C121.241 196.339 121.143 195.824 121.143 195.222C121.143 194.301 121.367 193.589 121.822 193.074C122.288 192.548 122.929 192.285 123.75 192.285C124.539 192.285 125.164 192.548 125.635 193.074C126.101 193.6 126.336 194.318 126.336 195.222ZM122.041 195.222C122.041 195.939 122.178 196.487 122.457 196.865C122.748 197.249 123.17 197.435 123.728 197.435C124.298 197.435 124.726 197.249 125.021 196.865C125.312 196.487 125.46 195.939 125.46 195.222C125.46 194.509 125.312 193.967 125.021 193.6C124.726 193.222 124.298 193.03 123.728 193.03C123.17 193.03 122.748 193.217 122.457 193.578C122.178 193.945 122.041 194.493 122.041 195.222Z" fill="#323131"/>
<path d="M132.412 197.437C132.554 197.437 132.697 197.432 132.828 197.415C132.971 197.388 133.091 197.366 133.179 197.349V198.007C133.091 198.051 132.949 198.084 132.763 198.116C132.587 198.144 132.423 198.16 132.281 198.16C131.185 198.16 130.637 197.585 130.637 196.429V193.054H129.826V192.66L130.637 192.287L131.01 191.082H131.492V192.397H133.135V193.054H131.492V196.385C131.492 196.736 131.568 196.999 131.733 197.174C131.892 197.349 132.116 197.437 132.412 197.437Z" fill="#323131"/>
<path d="M138.179 198.048V194.388C138.179 193.939 138.069 193.599 137.85 193.38C137.642 193.15 137.324 193.03 136.886 193.03C136.283 193.03 135.845 193.194 135.571 193.512C135.291 193.835 135.154 194.361 135.154 195.09V198.048H134.3V190.027H135.154V192.46C135.154 192.756 135.144 192.997 135.133 193.183H135.176C135.335 192.909 135.571 192.695 135.878 192.547C136.195 192.389 136.557 192.306 136.951 192.306C137.653 192.306 138.168 192.476 138.507 192.81C138.858 193.134 139.033 193.654 139.033 194.366V198.048H138.179Z" fill="#323131"/>
<path d="M143.169 198.158C142.336 198.158 141.679 197.906 141.197 197.391C140.715 196.882 140.474 196.175 140.474 195.265C140.474 194.362 140.693 193.638 141.131 193.096C141.58 192.559 142.188 192.285 142.95 192.285C143.662 192.285 144.226 192.521 144.637 192.986C145.043 193.458 145.251 194.071 145.251 194.827V195.375H141.372C141.383 196.049 141.547 196.558 141.854 196.909C142.172 197.249 142.627 197.413 143.213 197.413C143.81 197.413 144.407 197.282 145.01 197.019V197.786C144.703 197.917 144.418 198.016 144.155 198.071C143.892 198.125 143.564 198.158 143.169 198.158ZM142.95 193.008C142.495 193.008 142.128 193.162 141.854 193.469C141.591 193.764 141.427 194.164 141.372 194.674H144.331C144.331 194.137 144.205 193.726 143.958 193.447C143.722 193.156 143.388 193.008 142.95 193.008Z" fill="#323131"/>
<path d="M147.563 198.055H146.708V192.401H147.563V198.055ZM146.643 190.867C146.643 190.68 146.686 190.538 146.774 190.45C146.873 190.352 146.999 190.297 147.147 190.297C147.289 190.297 147.41 190.352 147.497 190.45C147.596 190.538 147.651 190.68 147.651 190.867C147.651 191.058 147.596 191.206 147.497 191.305C147.41 191.393 147.289 191.436 147.147 191.436C146.999 191.436 146.873 191.393 146.774 191.305C146.686 191.206 146.643 191.058 146.643 190.867Z" fill="#323131"/>
<path d="M151.965 192.285C152.211 192.285 152.436 192.307 152.644 192.351L152.535 193.14C152.299 193.096 152.085 193.074 151.899 193.074C151.444 193.074 151.05 193.266 150.716 193.644C150.392 194.011 150.234 194.471 150.234 195.024V198.049H149.379V192.395H150.102L150.19 193.447H150.234C150.436 193.085 150.683 192.8 150.979 192.592C151.285 192.389 151.614 192.285 151.965 192.285Z" fill="#323131"/>
<path d="M159.063 198.158C158.696 198.158 158.362 198.092 158.055 197.961C157.759 197.818 157.507 197.605 157.288 197.325H157.244C157.272 197.649 157.288 197.961 157.288 198.268V200.591H156.434V192.395H157.135L157.266 193.162H157.288C157.518 192.855 157.781 192.636 158.077 192.504C158.368 192.362 158.696 192.285 159.063 192.285C159.819 192.285 160.406 192.543 160.816 193.052C161.222 193.567 161.43 194.29 161.43 195.222C161.43 196.142 161.216 196.865 160.795 197.391C160.384 197.906 159.808 198.158 159.063 198.158ZM158.954 193.03C158.368 193.03 157.946 193.195 157.683 193.512C157.431 193.819 157.299 194.323 157.288 195.024V195.222C157.288 196.011 157.42 196.58 157.683 196.931C157.957 197.271 158.389 197.435 158.976 197.435C159.458 197.435 159.836 197.238 160.115 196.843C160.389 196.449 160.532 195.901 160.532 195.2C160.532 194.498 160.389 193.967 160.115 193.6C159.836 193.222 159.447 193.03 158.954 193.03Z" fill="#323131"/>
<path d="M165.492 192.285C165.739 192.285 165.963 192.307 166.171 192.351L166.062 193.14C165.826 193.096 165.613 193.074 165.426 193.074C164.972 193.074 164.577 193.266 164.243 193.644C163.92 194.011 163.761 194.471 163.761 195.024V198.049H162.906V192.395H163.629L163.717 193.447H163.761C163.964 193.085 164.21 192.8 164.506 192.592C164.813 192.389 165.141 192.285 165.492 192.285Z" fill="#323131"/>
<path d="M172.106 195.222C172.106 196.142 171.87 196.865 171.405 197.391C170.95 197.906 170.314 198.158 169.498 198.158C168.983 198.158 168.534 198.043 168.139 197.808C167.745 197.561 167.438 197.216 167.219 196.778C167.011 196.339 166.912 195.824 166.912 195.222C166.912 194.301 167.137 193.589 167.591 193.074C168.057 192.548 168.698 192.285 169.52 192.285C170.309 192.285 170.933 192.548 171.405 193.074C171.87 193.6 172.106 194.318 172.106 195.222ZM167.811 195.222C167.811 195.939 167.948 196.487 168.227 196.865C168.517 197.249 168.939 197.435 169.498 197.435C170.068 197.435 170.495 197.249 170.791 196.865C171.081 196.487 171.229 195.939 171.229 195.222C171.229 194.509 171.081 193.967 170.791 193.6C170.495 193.222 170.068 193.03 169.498 193.03C168.939 193.03 168.517 193.217 168.227 193.578C167.948 193.945 167.811 194.493 167.811 195.222Z" fill="#323131"/>
<path d="M176.227 192.306C176.972 192.306 177.548 192.564 177.959 193.073C178.38 193.572 178.594 194.29 178.594 195.221C178.594 196.141 178.38 196.865 177.959 197.391C177.548 197.905 176.972 198.158 176.227 198.158C175.86 198.158 175.526 198.092 175.219 197.96C174.923 197.818 174.671 197.604 174.452 197.325H174.408L174.211 198.048H173.598V190.027H174.452V191.978C174.452 192.416 174.441 192.805 174.43 193.139H174.452C174.858 192.586 175.449 192.306 176.227 192.306ZM176.118 193.03C175.532 193.03 175.11 193.199 174.847 193.534C174.584 193.857 174.452 194.421 174.452 195.221C174.452 196.01 174.584 196.58 174.847 196.93C175.121 197.27 175.553 197.434 176.14 197.434C176.666 197.434 177.049 197.248 177.301 196.865C177.564 196.487 177.696 195.933 177.696 195.199C177.696 194.47 177.564 193.928 177.301 193.577C177.049 193.216 176.655 193.03 176.118 193.03Z" fill="#323131"/>
<path d="M180.925 198.048H180.07V190.027H180.925V198.048Z" fill="#323131"/>
<path d="M185.129 198.158C184.296 198.158 183.639 197.906 183.157 197.391C182.675 196.882 182.434 196.175 182.434 195.265C182.434 194.362 182.653 193.638 183.091 193.096C183.54 192.559 184.148 192.285 184.91 192.285C185.622 192.285 186.186 192.521 186.597 192.986C187.003 193.458 187.211 194.071 187.211 194.827V195.375H183.332C183.343 196.049 183.507 196.558 183.814 196.909C184.132 197.249 184.587 197.413 185.173 197.413C185.77 197.413 186.367 197.282 186.97 197.019V197.786C186.663 197.917 186.378 198.016 186.115 198.071C185.852 198.125 185.523 198.158 185.129 198.158ZM184.91 193.008C184.455 193.008 184.088 193.162 183.814 193.469C183.551 193.764 183.387 194.164 183.332 194.674H186.29C186.29 194.137 186.164 193.726 185.918 193.447C185.682 193.156 185.348 193.008 184.91 193.008Z" fill="#323131"/>
<path d="M195.876 198.049V194.367C195.876 193.918 195.777 193.578 195.591 193.359C195.399 193.14 195.098 193.03 194.692 193.03C194.166 193.03 193.772 193.184 193.509 193.49C193.257 193.786 193.137 194.252 193.137 194.893V198.049H192.282V194.367C192.282 193.918 192.178 193.578 191.975 193.359C191.783 193.14 191.482 193.03 191.077 193.03C190.551 193.03 190.156 193.195 189.893 193.512C189.641 193.836 189.521 194.362 189.521 195.09V198.049H188.666V192.395H189.367L189.521 193.162H189.543C189.701 192.899 189.926 192.691 190.222 192.526C190.529 192.367 190.863 192.285 191.23 192.285C192.107 192.285 192.682 192.608 192.961 193.249H193.005C193.164 192.959 193.405 192.723 193.728 192.548C194.046 192.373 194.413 192.285 194.824 192.285C195.465 192.285 195.942 192.455 196.248 192.789C196.566 193.112 196.73 193.638 196.73 194.367V198.049H195.876Z" fill="#323131"/>
<path d="M202.151 196.515C202.151 197.041 201.954 197.451 201.559 197.742C201.165 198.021 200.617 198.158 199.916 198.158C199.154 198.158 198.568 198.038 198.163 197.786V196.997C198.426 197.145 198.71 197.254 199.017 197.325C199.335 197.402 199.642 197.435 199.938 197.435C200.376 197.435 200.71 197.369 200.946 197.238C201.192 197.095 201.318 196.876 201.318 196.58C201.318 196.361 201.22 196.175 201.033 196.011C200.842 195.852 200.469 195.671 199.916 195.463C199.39 195.26 199.017 195.085 198.798 194.937C198.579 194.794 198.409 194.63 198.294 194.455C198.19 194.268 198.141 194.038 198.141 193.775C198.141 193.326 198.321 192.964 198.688 192.702C199.066 192.428 199.587 192.285 200.244 192.285C200.858 192.285 201.45 192.411 202.019 192.658L201.735 193.359C201.165 193.129 200.644 193.008 200.179 193.008C199.768 193.008 199.461 193.074 199.258 193.206C199.05 193.326 198.951 193.501 198.951 193.731C198.951 193.879 198.984 194.011 199.061 194.126C199.149 194.23 199.269 194.334 199.434 194.433C199.609 194.52 199.943 194.652 200.442 194.827C201.11 195.079 201.565 195.326 201.8 195.572C202.03 195.824 202.151 196.137 202.151 196.515Z" fill="#323131"/>
<path d="M203.422 197.5C203.422 197.27 203.471 197.095 203.575 196.974C203.674 196.859 203.827 196.799 204.035 196.799C204.222 196.799 204.37 196.859 204.474 196.974C204.589 197.095 204.649 197.27 204.649 197.5C204.649 197.719 204.589 197.895 204.474 198.026C204.37 198.141 204.222 198.201 204.035 198.201C203.86 198.201 203.712 198.147 203.597 198.048C203.477 197.933 203.422 197.752 203.422 197.5Z" fill="#323131"/>
<path d="M41.0044 118.918V104.34H47.3769C48.9596 104.34 50.3479 104.646 51.5418 105.257C52.7358 105.868 53.666 106.715 54.3324 107.797C54.9988 108.88 55.332 110.158 55.332 111.629C55.332 113.087 54.9988 114.364 54.3324 115.461C53.666 116.544 52.7358 117.391 51.5418 118.002C50.3479 118.613 48.9596 118.918 47.3769 118.918H41.0044ZM43.7117 116.627H47.2519C48.3487 116.627 49.2928 116.419 50.0841 116.002C50.8893 115.586 51.5071 115.003 51.9375 114.253C52.3818 113.503 52.6039 112.629 52.6039 111.629C52.6039 110.616 52.3818 109.741 51.9375 109.005C51.5071 108.256 50.8893 107.672 50.0841 107.256C49.2928 106.839 48.3487 106.631 47.2519 106.631H43.7117V116.627ZM63.1866 119.064C61.951 119.064 60.8681 118.821 59.9379 118.335C59.0216 117.835 58.3066 117.155 57.7929 116.294C57.2931 115.433 57.0432 114.454 57.0432 113.358C57.0432 112.247 57.2862 111.268 57.7721 110.421C58.2719 109.561 58.9522 108.887 59.8129 108.401C60.6876 107.915 61.6802 107.672 62.7909 107.672C63.8738 107.672 64.8387 107.909 65.6856 108.381C66.5325 108.853 67.1989 109.519 67.6848 110.38C68.1707 111.241 68.4136 112.254 68.4136 113.42C68.4136 113.531 68.4067 113.656 68.3928 113.795C68.3928 113.934 68.3859 114.066 68.372 114.191H59.1049V112.462H66.9975L65.9771 113.004C65.991 112.365 65.8591 111.803 65.5815 111.317C65.3038 110.831 64.922 110.449 64.4361 110.171C63.964 109.894 63.4157 109.755 62.7909 109.755C62.1523 109.755 61.59 109.894 61.1041 110.171C60.6321 110.449 60.2572 110.838 59.9795 111.338C59.7158 111.824 59.5839 112.4 59.5839 113.066V113.483C59.5839 114.149 59.7366 114.739 60.042 115.253C60.3474 115.766 60.7778 116.162 61.3332 116.44C61.8885 116.717 62.5271 116.856 63.2491 116.856C63.8738 116.856 64.4361 116.759 64.9359 116.565C65.4357 116.37 65.8799 116.065 66.2687 115.648L67.6639 117.252C67.1641 117.835 66.5325 118.286 65.7689 118.606C65.0192 118.911 64.1584 119.064 63.1866 119.064ZM73.6679 118.918L68.899 107.797H71.6062L75.7087 117.606H74.3759L78.6242 107.797H81.1232L76.3543 118.918H73.6679ZM87.6722 119.064C86.4366 119.064 85.3537 118.821 84.4235 118.335C83.5072 117.835 82.7922 117.155 82.2785 116.294C81.7787 115.433 81.5288 114.454 81.5288 113.358C81.5288 112.247 81.7718 111.268 82.2577 110.421C82.7575 109.561 83.4378 108.887 84.2985 108.401C85.1732 107.915 86.1658 107.672 87.2765 107.672C88.3594 107.672 89.3243 107.909 90.1712 108.381C91.0181 108.853 91.6845 109.519 92.1704 110.38C92.6563 111.241 92.8992 112.254 92.8992 113.42C92.8992 113.531 92.8923 113.656 92.8784 113.795C92.8784 113.934 92.8715 114.066 92.8576 114.191H83.5905V112.462H91.4831L90.4627 113.004C90.4766 112.365 90.3447 111.803 90.067 111.317C89.7894 110.831 89.4076 110.449 88.9217 110.171C88.4496 109.894 87.9013 109.755 87.2765 109.755C86.6379 109.755 86.0756 109.894 85.5897 110.171C85.1176 110.449 84.7428 110.838 84.4651 111.338C84.2013 111.824 84.0695 112.4 84.0695 113.066V113.483C84.0695 114.149 84.2222 114.739 84.5276 115.253C84.833 115.766 85.2634 116.162 85.8188 116.44C86.3741 116.717 87.0127 116.856 87.7347 116.856C88.3594 116.856 88.9217 116.759 89.4215 116.565C89.9213 116.37 90.3655 116.065 90.7543 115.648L92.1495 117.252C91.6497 117.835 91.0181 118.286 90.2545 118.606C89.5048 118.911 88.644 119.064 87.6722 119.064ZM95.3997 118.918V103.466H98.0028V118.918H95.3997ZM106.417 119.064C105.279 119.064 104.265 118.821 103.377 118.335C102.488 117.835 101.787 117.155 101.274 116.294C100.76 115.433 100.503 114.454 100.503 113.358C100.503 112.247 100.76 111.268 101.274 110.421C101.787 109.561 102.488 108.887 103.377 108.401C104.265 107.915 105.279 107.672 106.417 107.672C107.57 107.672 108.59 107.915 109.479 108.401C110.381 108.887 111.082 109.554 111.582 110.401C112.096 111.247 112.353 112.233 112.353 113.358C112.353 114.454 112.096 115.433 111.582 116.294C111.082 117.155 110.381 117.835 109.479 118.335C108.59 118.821 107.57 119.064 106.417 119.064ZM106.417 116.835C107.056 116.835 107.625 116.697 108.125 116.419C108.625 116.141 109.014 115.739 109.291 115.211C109.583 114.684 109.729 114.066 109.729 113.358C109.729 112.636 109.583 112.018 109.291 111.504C109.014 110.977 108.625 110.574 108.125 110.296C107.625 110.019 107.063 109.88 106.438 109.88C105.8 109.88 105.23 110.019 104.731 110.296C104.245 110.574 103.856 110.977 103.564 111.504C103.273 112.018 103.127 112.636 103.127 113.358C103.127 114.066 103.273 114.684 103.564 115.211C103.856 115.739 104.245 116.141 104.731 116.419C105.23 116.697 105.793 116.835 106.417 116.835ZM121.006 119.064C120.104 119.064 119.277 118.855 118.528 118.439C117.792 118.022 117.202 117.398 116.758 116.565C116.327 115.718 116.112 114.649 116.112 113.358C116.112 112.053 116.32 110.984 116.737 110.151C117.167 109.318 117.75 108.7 118.486 108.297C119.222 107.881 120.062 107.672 121.006 107.672C122.103 107.672 123.068 107.909 123.901 108.381C124.747 108.853 125.414 109.512 125.9 110.359C126.4 111.206 126.649 112.205 126.649 113.358C126.649 114.51 126.4 115.517 125.9 116.377C125.414 117.224 124.747 117.884 123.901 118.356C123.068 118.828 122.103 119.064 121.006 119.064ZM114.842 122.958V107.797H117.32V110.421L117.237 113.379L117.445 116.336V122.958H114.842ZM120.714 116.835C121.339 116.835 121.894 116.697 122.38 116.419C122.88 116.141 123.276 115.739 123.567 115.211C123.859 114.684 124.005 114.066 124.005 113.358C124.005 112.636 123.859 112.018 123.567 111.504C123.276 110.977 122.88 110.574 122.38 110.296C121.894 110.019 121.339 109.88 120.714 109.88C120.09 109.88 119.527 110.019 119.028 110.296C118.528 110.574 118.132 110.977 117.841 111.504C117.549 112.018 117.403 112.636 117.403 113.358C117.403 114.066 117.549 114.684 117.841 115.211C118.132 115.739 118.528 116.141 119.028 116.419C119.527 116.697 120.09 116.835 120.714 116.835ZM143.154 107.672C144.043 107.672 144.827 107.846 145.507 108.193C146.202 108.54 146.743 109.075 147.132 109.797C147.521 110.505 147.715 111.421 147.715 112.546V118.918H145.112V112.879C145.112 111.893 144.897 111.157 144.466 110.671C144.036 110.185 143.418 109.942 142.613 109.942C142.044 109.942 141.537 110.067 141.093 110.317C140.662 110.567 140.322 110.935 140.072 111.421C139.836 111.907 139.718 112.525 139.718 113.274V118.918H137.115V112.879C137.115 111.893 136.9 111.157 136.469 110.671C136.039 110.185 135.421 109.942 134.616 109.942C134.047 109.942 133.54 110.067 133.096 110.317C132.665 110.567 132.325 110.935 132.075 111.421C131.839 111.907 131.721 112.525 131.721 113.274V118.918H129.118V107.797H131.596V110.755L131.159 109.88C131.534 109.158 132.075 108.61 132.783 108.235C133.505 107.86 134.324 107.672 135.241 107.672C136.282 107.672 137.184 107.929 137.948 108.443C138.725 108.957 139.239 109.734 139.489 110.775L138.469 110.421C138.83 109.588 139.427 108.922 140.26 108.422C141.093 107.922 142.057 107.672 143.154 107.672ZM156.289 119.064C155.053 119.064 153.97 118.821 153.04 118.335C152.124 117.835 151.409 117.155 150.895 116.294C150.395 115.433 150.145 114.454 150.145 113.358C150.145 112.247 150.388 111.268 150.874 110.421C151.374 109.561 152.054 108.887 152.915 108.401C153.79 107.915 154.782 107.672 155.893 107.672C156.976 107.672 157.941 107.909 158.788 108.381C159.635 108.853 160.301 109.519 160.787 110.38C161.273 111.241 161.516 112.254 161.516 113.42C161.516 113.531 161.509 113.656 161.495 113.795C161.495 113.934 161.488 114.066 161.474 114.191H152.207V112.462H160.1L159.079 113.004C159.093 112.365 158.961 111.803 158.684 111.317C158.406 110.831 158.024 110.449 157.538 110.171C157.066 109.894 156.518 109.755 155.893 109.755C155.254 109.755 154.692 109.894 154.206 110.171C153.734 110.449 153.359 110.838 153.082 111.338C152.818 111.824 152.686 112.4 152.686 113.066V113.483C152.686 114.149 152.839 114.739 153.144 115.253C153.45 115.766 153.88 116.162 154.435 116.44C154.991 116.717 155.629 116.856 156.351 116.856C156.976 116.856 157.538 116.759 158.038 116.565C158.538 116.37 158.982 116.065 159.371 115.648L160.766 117.252C160.266 117.835 159.635 118.286 158.871 118.606C158.121 118.911 157.261 119.064 156.289 119.064ZM170.326 107.672C171.215 107.672 172.006 107.846 172.7 108.193C173.408 108.54 173.964 109.075 174.366 109.797C174.769 110.505 174.97 111.421 174.97 112.546V118.918H172.367V112.879C172.367 111.893 172.131 111.157 171.659 110.671C171.201 110.185 170.555 109.942 169.722 109.942C169.111 109.942 168.57 110.067 168.098 110.317C167.626 110.567 167.258 110.942 166.994 111.442C166.744 111.928 166.619 112.546 166.619 113.295V118.918H164.016V107.797H166.494V110.796L166.057 109.88C166.446 109.172 167.008 108.63 167.744 108.256C168.494 107.867 169.354 107.672 170.326 107.672ZM182.458 119.064C181.237 119.064 180.292 118.751 179.626 118.127C178.96 117.488 178.626 116.551 178.626 115.315V105.34H181.23V115.253C181.23 115.78 181.361 116.19 181.625 116.481C181.903 116.773 182.285 116.919 182.771 116.919C183.354 116.919 183.84 116.766 184.228 116.461L184.957 118.314C184.652 118.564 184.277 118.751 183.833 118.876C183.388 119.001 182.93 119.064 182.458 119.064ZM176.794 109.963V107.881H184.208V109.963H176.794Z" fill="black"/>
</svg>
