<svg width="92" height="92" viewBox="0 0 92 92" fill="none" xmlns="http://www.w3.org/2000/svg">
<rect width="92" height="92" rx="22" fill="#FC8525"/>
<path d="M71.3663 47.9195C70.2819 46.6181 68.5336 46.6181 67.4603 47.9195L65.8669 49.8515L64.7271 48.4695L63.4768 49.9856L64.6166 51.3675L60.5555 56.2915V48.5903L60.81 48.8989C61.1531 49.3148 61.7174 49.3148 62.0604 48.8989L68.257 41.3856C68.6 40.9697 68.6 40.2854 68.257 39.8695L65.1365 36.086L66.5529 32.0878C67.2832 30.0082 66.4976 27.6066 64.7824 26.7077C63.178 25.8759 61.319 26.6541 60.489 28.5055L59.9247 29.7533L59.4046 29.1227C59.2608 28.9483 59.0837 28.841 58.8956 28.8141L54.724 21.5959C54.6134 21.4081 54.4917 21.2337 54.3589 21.0861V17.0208C54.3589 15.2497 53.1639 13.8008 51.7032 13.8008H39.3101C37.8494 13.8008 36.6544 15.2497 36.6544 17.0208V21.0995C36.5216 21.247 36.3888 21.4215 36.2892 21.6093L30.9447 30.8669C30.6348 31.4035 30.4689 32.0475 30.4689 32.7184V34.8113L25.7882 29.136C25.4452 28.7201 24.8808 28.7201 24.5379 29.136L19.2265 35.576C18.8835 35.992 18.8835 36.6762 19.2265 37.0921L30.4583 50.7363V54.1441L23.1219 45.2488L21.8716 46.7649L34.5197 62.1007L32.6717 64.3413L20.4667 49.5293L19.2164 51.0453L31.4214 65.8574L29.839 67.776L30.4697 68.5408V74.9808C30.4697 76.7518 31.6647 78.2008 33.1254 78.2008H57.9117C59.3724 78.2008 60.5674 76.7518 60.5674 74.9808V65.7635L68.5344 56.1034L69.6742 57.4854L70.9245 55.9693L69.7737 54.5874L71.3561 52.6688C72.4406 51.3539 72.4397 49.2343 71.3663 47.9195ZM62.0383 29.5525C62.4587 28.6134 63.4436 28.2645 64.2181 28.7744C64.9485 29.2574 65.2472 30.3308 64.9263 31.2564L63.7977 34.4631L61.2305 31.3504L62.0383 29.5525ZM59.0395 31.7395L56.24 37.9782L57.7891 39.0113L60.3452 33.3226L66.3758 40.6346L61.4407 46.632L53.8388 37.4146L58.785 31.4173L59.0395 31.7395ZM38.4244 17.0219C38.4244 16.4315 38.8227 15.9485 39.3096 15.9485H51.7028C52.1897 15.9485 52.588 16.4315 52.588 17.0219V20.2419H52.5548H38.458H38.4248L38.4244 17.0219ZM21.0851 36.3419L25.1461 31.4179L26.5514 33.1219L24.5264 35.5772L25.7768 37.0933L27.8018 34.638L29.2071 36.3419L27.1821 38.7972L28.4325 40.3133L30.4575 37.858L31.8628 39.5619L29.8378 42.0172L31.0881 43.5333L33.1131 41.078L34.5185 42.7819L32.4935 45.2372L33.7438 46.7533L35.7688 44.298L37.1741 46.0019L33.1131 50.9259L21.0851 36.3419ZM35.7687 63.6182L36.9085 65.0001C37.0745 65.2014 37.2958 65.3087 37.5392 65.3087H39.5089L40.3388 69.3203L38.1699 66.6905L36.9196 68.2066L39.5199 71.3595L35.7688 70.796V68.542C35.7688 68.2602 35.6802 67.9785 35.5143 67.7772L33.9209 65.8586L35.7687 63.6182ZM46.3914 76.0554H33.113C32.6262 76.0554 32.2278 75.5724 32.2278 74.982V67.9114L32.6704 67.3747L33.9983 68.9847V71.762C33.9983 72.2987 34.3302 72.7549 34.7728 72.8219L41.8546 73.8953C42.3415 73.9623 42.7841 73.5464 42.8395 72.9695C42.8505 72.8353 42.8505 72.7012 42.8173 72.5804L41.0469 63.9937C40.9473 63.5107 40.5932 63.1753 40.1838 63.1753H37.8932L37.008 62.102L38.1478 60.72L36.8974 59.204L35.7688 60.5859L32.2279 56.2926V52.8848L32.4824 53.1934C32.8254 53.6093 33.3897 53.6093 33.7327 53.1934L39.0441 46.7533C39.3871 46.3374 39.3871 45.6532 39.0441 45.2373L32.2278 36.9726V33.122H46.3914L46.3914 76.0554ZM46.823 30.9752H33.0468L37.7385 22.8447C37.9045 22.563 38.1701 22.3886 38.4688 22.3886H51.7806L46.8787 30.8813C46.8566 30.9081 46.834 30.9484 46.823 30.9752ZM58.7841 74.982C58.7841 75.5724 58.3858 76.0554 57.8989 76.0554H48.1614V32.7196C48.1614 32.5049 48.2168 32.2902 48.3163 32.1024L53.4728 23.1937L57.4231 30.0362L51.9569 36.664C51.6139 37.0799 51.6139 37.7642 51.9569 38.1801L58.7842 46.4581V58.4526L52.8421 65.6573C52.7757 65.7378 52.7204 65.8318 52.6761 65.9391L50.0205 72.3791C49.7992 72.9158 49.9762 73.5598 50.4188 73.8147C50.6733 73.9623 50.961 73.9623 51.2155 73.8147L56.5269 70.5947C56.6154 70.541 56.6928 70.4739 56.7592 70.3934L58.7842 67.9381L58.7841 74.982ZM55.6083 68.7298L52.7978 70.4338L54.2031 67.026L65.8658 52.8849L67.2712 54.5889L55.6083 68.7298ZM70.1038 51.1406L68.5214 53.0726L67.1161 51.3686L68.6985 49.45C69.0857 48.9804 69.7164 48.9804 70.1038 49.45C70.4912 49.9196 70.4911 50.671 70.1038 51.1406Z" fill="white" stroke="white" stroke-width="1.0907"/>
</svg>
