<svg width="97" height="80" viewBox="0 0 97 80" fill="none" xmlns="http://www.w3.org/2000/svg">
<rect width="97" height="80" rx="22" fill="#FC8525"/>
<path d="M75.2448 41.6684C74.1014 40.5368 72.2581 40.5368 71.1264 41.6684L69.4464 43.3484L68.2447 42.1467L66.9264 43.465L68.1281 44.6667L63.8464 48.9485V42.2518L64.1148 42.5201C64.4764 42.8818 65.0714 42.8818 65.4331 42.5201L71.9664 35.9868C72.3281 35.6251 72.3281 35.0301 71.9664 34.6685L68.6764 31.3784L70.1697 27.9017C70.9397 26.0934 70.1114 24.0051 68.303 23.2234C66.6114 22.5001 64.6514 23.1768 63.7763 24.7867L63.1813 25.8718L62.633 25.3234C62.4813 25.1718 62.2946 25.0784 62.0963 25.0551L57.698 18.7784C57.5813 18.6151 57.453 18.4634 57.313 18.3351V14.8C57.313 13.2599 56.0531 12 54.513 12H41.4463C39.9062 12 38.6463 13.2599 38.6463 14.8V18.3467C38.5063 18.475 38.3663 18.6267 38.2613 18.79L32.6263 26.8401C32.2996 27.3067 32.1246 27.8667 32.1246 28.4501V30.27L27.1896 25.335C26.8279 24.9733 26.2329 24.9733 25.8713 25.335L20.2712 30.935C19.9096 31.2967 19.9096 31.8917 20.2712 32.2533L32.1134 44.1179V47.0812L24.3784 39.3461L23.0601 40.6644L36.3956 53.9999L34.4472 55.9483L21.5789 43.0683L20.2606 44.3866L33.1289 57.2666L31.4605 58.935L32.1255 59.6V65.2C32.1255 66.7401 33.3855 68 34.9255 68H61.0589C62.599 68 63.8589 66.7401 63.8589 65.2V57.1849L72.259 48.7849L73.4607 49.9866L74.779 48.6683L73.5656 47.4666L75.234 45.7982C76.3774 44.6549 76.3774 42.8116 75.2457 41.6682L75.2448 41.6684ZM65.4097 25.6972C65.8531 24.8805 66.8914 24.5772 67.7081 25.0205C68.4781 25.4405 68.7931 26.3739 68.4548 27.1788L67.2648 29.9672L64.5581 27.2605L65.4097 25.6972ZM62.248 27.5988L59.2963 33.0238L60.9296 33.9222L63.6247 28.9755L69.983 35.3338L64.7797 40.5488L56.7646 32.5338L61.9796 27.3187L62.248 27.5988ZM40.5125 14.8009C40.5125 14.2876 40.9325 13.8676 41.4458 13.8676H54.5125C55.0259 13.8676 55.4459 14.2876 55.4459 14.8009V17.601H55.4109H40.5479H40.5129L40.5125 14.8009ZM22.2308 31.601L26.5126 27.3193L27.9943 28.801L25.8592 30.936L27.1775 32.2543L29.3126 30.1193L30.7943 31.601L28.6592 33.736L29.9775 35.0543L32.1126 32.9193L33.5943 34.401L31.4592 36.536L32.7775 37.8543L34.9126 35.7193L36.3943 37.201L34.2593 39.3361L35.5776 40.6543L37.7126 38.5193L39.1943 40.001L34.9126 44.2827L22.2308 31.601ZM37.7125 55.3195L38.9142 56.5212C39.0892 56.6962 39.3225 56.7895 39.5792 56.7895H41.6559L42.5309 60.2778L40.2442 57.9911L38.9259 59.3094L41.6675 62.0511L37.7125 61.5611V59.601C37.7125 59.356 37.6192 59.111 37.4442 58.936L35.7642 57.2677L37.7125 55.3195ZM48.9125 66.1344H34.9125C34.3991 66.1344 33.9791 65.7144 33.9791 65.2011V59.0527L34.4458 58.586L35.8458 59.986V62.4011C35.8458 62.8677 36.1958 63.2644 36.6625 63.3227L44.1292 64.2561C44.6425 64.3144 45.1092 63.9527 45.1675 63.4511C45.1792 63.3344 45.1792 63.2177 45.1442 63.1127L43.2775 55.646C43.1725 55.226 42.7992 54.9344 42.3675 54.9344H39.9525L39.0191 54.001L40.2208 52.7993L38.9025 51.481L37.7126 52.6827L33.9792 48.9494V45.9861L34.2475 46.2544C34.6092 46.6161 35.2042 46.6161 35.5658 46.2544L41.1659 40.6544C41.5275 40.2927 41.5275 39.6977 41.1659 39.3361L33.9792 32.1494V28.801H48.9125L48.9125 66.1344ZM49.3675 26.9343H34.8427L39.7894 19.8643C39.9644 19.6193 40.2444 19.4676 40.5594 19.4676H54.5946L49.4263 26.8526C49.4029 26.876 49.3796 26.911 49.3679 26.9343L49.3675 26.9343ZM61.9788 65.2011C61.9788 65.7144 61.5588 66.1344 61.0454 66.1344H50.7787V28.4511C50.7787 28.2644 50.8371 28.0778 50.942 27.9145L56.3788 20.1678L60.5438 26.1178L54.7805 31.8811C54.4188 32.2427 54.4188 32.8378 54.7805 33.1994L61.9788 40.3977V50.8277L55.7138 57.0927C55.6438 57.1627 55.5855 57.2443 55.5388 57.3377L52.7388 62.9377C52.5055 63.4044 52.6921 63.9644 53.1588 64.186C53.4271 64.3143 53.7305 64.3143 53.9988 64.186L59.5988 61.386C59.6921 61.3393 59.7738 61.281 59.8438 61.211L61.9789 59.076L61.9788 65.2011ZM58.6304 59.7644L55.6671 61.2461L57.1488 58.2828L69.4453 45.9862L70.927 47.4679L58.6304 59.7644ZM73.9136 44.4694L72.2452 46.1494L70.7635 44.6677L72.4319 42.9993C72.8402 42.591 73.5052 42.591 73.9136 42.9993C74.322 43.4076 74.3219 44.061 73.9136 44.4693V44.4694Z" fill="white" stroke="white" stroke-width="1.0907"/>
</svg>
