<svg width="97" height="80" viewBox="0 0 97 80" fill="none" xmlns="http://www.w3.org/2000/svg">
<rect width="97" height="80" rx="22" fill="#C024FF"/>
<path d="M47.5508 51.9003C47.5508 52.1522 47.4508 52.3939 47.2726 52.572C47.0945 52.7502 46.8528 52.8503 46.6009 52.8503H44.701C44.1764 52.8503 43.751 52.4249 43.751 51.9003C43.751 51.3757 44.1764 50.9503 44.701 50.9503H46.6009C46.8528 50.9503 47.0945 51.0504 47.2726 51.2285C47.4508 51.4066 47.5508 51.6484 47.5508 51.9003ZM76.9997 26.2513V57.5436C77.015 58.3091 76.7215 59.0487 76.1855 59.5953C75.6494 60.1424 74.9158 60.4503 74.1498 60.4503H57.0505C56.2846 60.4503 55.551 60.1424 55.0148 59.5953C54.4788 59.0487 54.1853 58.309 54.2006 57.5436V56.6505H51.3507V63.3002H58.0004C59.0187 63.3002 59.9593 63.8435 60.4686 64.7252C60.9775 65.6068 60.9775 66.6934 60.4686 67.5751C59.9593 68.4567 59.0187 69 58.0004 69H32.3514C31.3332 69 30.3926 68.4567 29.8833 67.5751C29.3744 66.6934 29.3744 65.6068 29.8833 64.7252C30.3926 63.8435 31.3332 63.3002 32.3514 63.3002H39.9511V56.6505H22.652C22.1177 56.6369 21.6003 56.463 21.1664 56.1513C20.7326 55.8396 20.403 55.4045 20.2198 54.9024C20.0722 54.5542 19.998 54.1789 20.0014 53.8006V19.6019C19.9781 18.8733 20.2436 18.1652 20.7402 17.6317C21.2364 17.0977 21.9234 16.7818 22.6519 16.7521H36.9014L40.0363 12.4014C40.2034 12.1651 40.4693 12.0184 40.7581 12.0023C41.0549 11.9807 41.342 12.1134 41.518 12.3539L45.0138 16.6003L45.7263 16.0303C46.3047 15.5701 47.0389 15.3526 47.7742 15.4234C48.51 15.4942 49.1889 15.8479 49.6686 16.4103C49.7636 16.5337 49.8395 16.6478 49.9061 16.7521H68.6491C69.3777 16.7818 70.0647 17.0977 70.5609 17.6316C71.0575 18.1652 71.323 18.8734 71.2996 19.6019V23.4018H74.1495C74.9053 23.4018 75.6305 23.702 76.1648 24.2364C76.699 24.7707 76.9994 25.496 76.9994 26.2516L76.9997 26.2513ZM56.1005 53.8002H75.0998V30.0511H56.1005V53.8002ZM74.1498 25.3013H57.0505C56.5259 25.3013 56.1005 25.7267 56.1005 26.2513V28.1512H75.0998V26.2513C75.0998 25.9994 74.9997 25.7576 74.8216 25.5795C74.6435 25.4014 74.4017 25.3013 74.1498 25.3013ZM46.9049 17.5116L46.2208 18.0625L47.3417 19.44L48.0541 18.8607C48.3497 18.6427 48.4757 18.2619 48.3675 17.9107C48.3565 17.8543 48.3374 17.8001 48.3107 17.7492C48.3107 17.7492 48.2441 17.6351 48.1873 17.5592C47.8366 17.2135 47.2797 17.1927 46.9049 17.5117L46.9049 17.5116ZM31.8954 26.9447L35.6953 31.5045L49.8112 25.3772L46.5148 21.378L40.8341 14.5098L31.8954 26.9447ZM27.6872 30.6304C27.1185 31.0893 26.7478 31.7492 26.6515 32.4736C26.5828 33.1882 26.7978 33.9015 27.2499 34.4592C27.7185 35.0228 28.3912 35.3786 29.121 35.4477C29.8508 35.5173 30.5786 35.2951 31.1448 34.8294L33.9947 32.5304L30.518 28.3123L27.6872 30.6304ZM33.8335 35.1237L37.909 40.0729L37.9086 40.0733C38.2385 40.4422 38.7966 40.4961 39.191 40.1967C39.3801 40.0491 39.4976 39.8282 39.5141 39.589C39.5425 39.3595 39.4734 39.1284 39.3241 38.9524L35.2486 33.9935L33.8335 35.1237ZM21.9019 19.6019V47.1508H54.2007V26.2516C54.2007 25.4959 54.501 24.7706 55.0353 24.2364C55.5697 23.7021 56.2949 23.4018 57.0505 23.4018H69.4001V19.6019C69.4357 19.138 69.1091 18.7249 68.6494 18.6519H50.2679C50.139 19.3199 49.7751 19.92 49.242 20.3428L48.5486 20.9034L52.0351 25.14C52.2276 25.3699 52.3001 25.6774 52.231 25.9691C52.1619 26.2609 51.9587 26.5031 51.6835 26.6222L36.9118 33.0344L40.7973 37.7843C41.2643 38.3606 41.4827 39.0993 41.4042 39.8373C41.3257 40.5752 40.9568 41.2516 40.3792 41.7168C39.8766 42.1158 39.2541 42.3334 38.6125 42.3343C37.7711 42.3406 36.9721 41.967 36.4369 41.3177L32.352 36.3211C31.4021 37.0985 30.1824 37.4666 28.9615 37.3444C27.7401 37.2223 26.6175 36.6201 25.8402 35.6706C25.0628 34.7206 24.6947 33.5009 24.8168 32.2796C24.939 31.0586 25.5408 29.9356 26.4907 29.1583L30.0056 26.3084L35.5154 18.6519H22.6534C22.1937 18.7248 21.8672 19.1379 21.9028 19.6018L21.9019 19.6019ZM58.0006 65.2001H32.3515C31.8269 65.2001 31.4016 65.6255 31.4016 66.1501C31.4016 66.6747 31.8269 67.1 32.3515 67.1H58.0006C58.5252 67.1 58.9505 66.6747 58.9505 66.1501C58.9505 65.6255 58.5252 65.2001 58.0006 65.2001ZM49.4509 56.6504H41.8512V63.3002H49.4509V56.6504ZM54.2007 54.7505V49.0507H21.9019V53.8005C21.9032 53.9307 21.9291 54.0597 21.9779 54.1805C22.0639 54.4897 22.3328 54.7132 22.6526 54.7412H54.2011L54.2007 54.7505ZM75.0999 57.5436V55.7005H56.1006V57.5436C56.0849 57.8053 56.1778 58.0618 56.3581 58.2523C56.5379 58.4431 56.7885 58.5508 57.0506 58.5504H74.1499C74.412 58.5508 74.6627 58.4431 74.8425 58.2523C75.0227 58.0618 75.1156 57.8053 75.0999 57.5436ZM73.2 37.6508V46.2005C73.2 46.9562 72.8997 47.6815 72.3654 48.2157C71.831 48.75 71.1058 49.0503 70.3501 49.0503H60.8505C60.0948 49.0503 59.3695 48.7501 58.8353 48.2157C58.301 47.6814 58.0007 46.9561 58.0007 46.2005V37.6508C58.0007 36.8951 58.3009 36.1699 58.8353 35.6356C59.3696 35.1014 60.0949 34.801 60.8505 34.801H70.3501C71.1059 34.801 71.8311 35.1013 72.3654 35.6356C72.8996 36.17 73.2 36.8952 73.2 37.6508ZM71.3 37.6508C71.3 37.3989 71.2 37.1572 71.0218 36.9791C70.8437 36.801 70.602 36.7009 70.3501 36.7009H60.8504C60.3258 36.7009 59.9005 37.1262 59.9005 37.6508V46.2005C59.9005 46.4524 60.0006 46.6941 60.1787 46.8723C60.3568 47.0504 60.5985 47.1505 60.8504 47.1505H70.3501C70.602 47.1505 70.8437 47.0504 71.0218 46.8723C71.2 46.6941 71.3 46.4524 71.3 46.2005V37.6508ZM68.4501 41.9257C68.4497 42.2365 68.2971 42.5275 68.0418 42.7047L64.2419 45.3553V45.3549C64.0829 45.466 63.8941 45.5258 63.7003 45.5262C63.5472 45.5266 63.3967 45.4872 63.2635 45.4121C62.9506 45.2501 62.7533 44.9282 62.7504 44.5762V39.2751C62.7508 38.9223 62.9476 38.5983 63.2606 38.435C63.5735 38.2713 63.9514 38.295 64.2419 38.4965L68.0418 41.147V41.1466C68.2971 41.3239 68.4497 41.6148 68.4501 41.9257ZM65.8378 41.9257L64.6503 41.0991V42.7523L65.8378 41.9257Z" fill="#FAF6F5" stroke="white" stroke-width="0.904766"/>
</svg>
