<svg width="92" height="92" viewBox="0 0 92 92" fill="none" xmlns="http://www.w3.org/2000/svg">
<rect width="92" height="92" rx="22" fill="#C024FF"/>
<path d="M44.5508 57.9003C44.5508 58.1522 44.4508 58.3939 44.2726 58.572C44.0945 58.7502 43.8528 58.8503 43.6009 58.8503H41.701C41.1764 58.8503 40.751 58.4249 40.751 57.9003C40.751 57.3757 41.1764 56.9503 41.701 56.9503H43.6009C43.8528 56.9503 44.0945 57.0504 44.2726 57.2285C44.4508 57.4066 44.5508 57.6484 44.5508 57.9003ZM73.9997 32.2513V63.5436C74.015 64.3091 73.7215 65.0487 73.1855 65.5953C72.6494 66.1424 71.9158 66.4503 71.1498 66.4503H54.0505C53.2846 66.4503 52.551 66.1424 52.0148 65.5953C51.4788 65.0487 51.1853 64.309 51.2006 63.5436V62.6505H48.3507V69.3002H55.0004C56.0187 69.3002 56.9593 69.8435 57.4686 70.7252C57.9775 71.6068 57.9775 72.6934 57.4686 73.5751C56.9593 74.4567 56.0187 75 55.0004 75H29.3514C28.3332 75 27.3926 74.4567 26.8833 73.5751C26.3744 72.6934 26.3744 71.6068 26.8833 70.7252C27.3926 69.8435 28.3332 69.3002 29.3514 69.3002H36.9511V62.6505H19.652C19.1177 62.6369 18.6003 62.463 18.1664 62.1513C17.7326 61.8396 17.403 61.4045 17.2198 60.9024C17.0722 60.5542 16.998 60.1789 17.0014 59.8006V25.6019C16.9781 24.8733 17.2436 24.1652 17.7402 23.6317C18.2364 23.0977 18.9234 22.7818 19.6519 22.7521H33.9014L37.0363 18.4014C37.2034 18.1651 37.4693 18.0184 37.7581 18.0023C38.0549 17.9807 38.342 18.1134 38.518 18.3539L42.0138 22.6003L42.7263 22.0303C43.3047 21.5701 44.0389 21.3526 44.7742 21.4234C45.51 21.4942 46.1889 21.8479 46.6686 22.4103C46.7636 22.5337 46.8395 22.6478 46.9061 22.7521H65.6491C66.3777 22.7818 67.0647 23.0977 67.5609 23.6316C68.0575 24.1652 68.323 24.8734 68.2996 25.6019V29.4018H71.1495C71.9053 29.4018 72.6305 29.702 73.1648 30.2364C73.699 30.7707 73.9994 31.496 73.9994 32.2516L73.9997 32.2513ZM53.1005 59.8002H72.0998V36.0511H53.1005V59.8002ZM71.1498 31.3013H54.0505C53.5259 31.3013 53.1005 31.7267 53.1005 32.2513V34.1512H72.0998V32.2513C72.0998 31.9994 71.9997 31.7576 71.8216 31.5795C71.6435 31.4014 71.4017 31.3013 71.1498 31.3013ZM43.9049 23.5116L43.2208 24.0625L44.3417 25.44L45.0541 24.8607C45.3497 24.6427 45.4757 24.2619 45.3675 23.9107C45.3565 23.8543 45.3374 23.8001 45.3107 23.7492C45.3107 23.7492 45.2441 23.6351 45.1873 23.5592C44.8366 23.2135 44.2797 23.1927 43.9049 23.5117L43.9049 23.5116ZM28.8954 32.9447L32.6953 37.5045L46.8112 31.3772L43.5148 27.378L37.8341 20.5098L28.8954 32.9447ZM24.6872 36.6304C24.1185 37.0893 23.7478 37.7492 23.6515 38.4736C23.5828 39.1882 23.7978 39.9015 24.2499 40.4592C24.7185 41.0228 25.3912 41.3786 26.121 41.4477C26.8508 41.5173 27.5786 41.2951 28.1448 40.8294L30.9947 38.5304L27.518 34.3123L24.6872 36.6304ZM30.8335 41.1237L34.909 46.0729L34.9086 46.0733C35.2385 46.4422 35.7966 46.4961 36.191 46.1967C36.3801 46.0491 36.4976 45.8282 36.5141 45.589C36.5425 45.3595 36.4734 45.1284 36.3241 44.9524L32.2486 39.9935L30.8335 41.1237ZM18.9019 25.6019V53.1508H51.2007V32.2516C51.2007 31.4959 51.501 30.7706 52.0353 30.2364C52.5697 29.7021 53.2949 29.4018 54.0505 29.4018H66.4001V25.6019C66.4357 25.138 66.1091 24.7249 65.6494 24.6519H47.2679C47.139 25.3199 46.7751 25.92 46.242 26.3428L45.5486 26.9034L49.0351 31.14C49.2276 31.3699 49.3001 31.6774 49.231 31.9691C49.1619 32.2609 48.9587 32.5031 48.6835 32.6222L33.9118 39.0344L37.7973 43.7843C38.2643 44.3606 38.4827 45.0993 38.4042 45.8373C38.3257 46.5752 37.9568 47.2516 37.3792 47.7168C36.8766 48.1158 36.2541 48.3334 35.6125 48.3343C34.7711 48.3406 33.9721 47.967 33.4369 47.3177L29.352 42.3211C28.4021 43.0985 27.1824 43.4666 25.9615 43.3444C24.7401 43.2223 23.6175 42.6201 22.8402 41.6706C22.0628 40.7206 21.6947 39.5009 21.8168 38.2796C21.939 37.0586 22.5408 35.9356 23.4907 35.1583L27.0056 32.3084L32.5154 24.6519H19.6534C19.1937 24.7248 18.8672 25.1379 18.9028 25.6018L18.9019 25.6019ZM55.0006 71.2001H29.3515C28.8269 71.2001 28.4016 71.6255 28.4016 72.1501C28.4016 72.6747 28.8269 73.1 29.3515 73.1H55.0006C55.5252 73.1 55.9505 72.6747 55.9505 72.1501C55.9505 71.6255 55.5252 71.2001 55.0006 71.2001ZM46.4509 62.6504H38.8512V69.3002H46.4509V62.6504ZM51.2007 60.7505V55.0507H18.9019V59.8005C18.9032 59.9307 18.9291 60.0597 18.9779 60.1805C19.0639 60.4897 19.3328 60.7132 19.6526 60.7412H51.2011L51.2007 60.7505ZM72.0999 63.5436V61.7005H53.1006V63.5436C53.0849 63.8053 53.1778 64.0618 53.3581 64.2523C53.5379 64.4431 53.7885 64.5508 54.0506 64.5504H71.1499C71.412 64.5508 71.6627 64.4431 71.8425 64.2523C72.0227 64.0618 72.1156 63.8053 72.0999 63.5436ZM70.2 43.6508V52.2005C70.2 52.9562 69.8997 53.6815 69.3654 54.2157C68.831 54.75 68.1058 55.0503 67.3501 55.0503H57.8505C57.0948 55.0503 56.3695 54.7501 55.8353 54.2157C55.301 53.6814 55.0007 52.9561 55.0007 52.2005V43.6508C55.0007 42.8951 55.3009 42.1699 55.8353 41.6356C56.3696 41.1014 57.0949 40.801 57.8505 40.801H67.3501C68.1059 40.801 68.8311 41.1013 69.3654 41.6356C69.8996 42.17 70.2 42.8952 70.2 43.6508ZM68.3 43.6508C68.3 43.3989 68.2 43.1572 68.0218 42.9791C67.8437 42.801 67.602 42.7009 67.3501 42.7009H57.8504C57.3258 42.7009 56.9005 43.1262 56.9005 43.6508V52.2005C56.9005 52.4524 57.0006 52.6941 57.1787 52.8723C57.3568 53.0504 57.5985 53.1505 57.8504 53.1505H67.3501C67.602 53.1505 67.8437 53.0504 68.0218 52.8723C68.2 52.6941 68.3 52.4524 68.3 52.2005V43.6508ZM65.4501 47.9257C65.4497 48.2365 65.2971 48.5275 65.0418 48.7047L61.2419 51.3553V51.3549C61.0829 51.466 60.8941 51.5258 60.7003 51.5262C60.5472 51.5266 60.3967 51.4872 60.2635 51.4121C59.9506 51.2501 59.7533 50.9282 59.7504 50.5762V45.2751C59.7508 44.9223 59.9476 44.5983 60.2606 44.435C60.5735 44.2713 60.9514 44.295 61.2419 44.4965L65.0418 47.147V47.1466C65.2971 47.3239 65.4497 47.6148 65.4501 47.9257ZM62.8378 47.9257L61.6503 47.0991V48.7523L62.8378 47.9257Z" fill="#FAF6F5" stroke="white" stroke-width="0.904766"/>
</svg>
