<svg width="97" height="80" viewBox="0 0 97 80" fill="none" xmlns="http://www.w3.org/2000/svg">
<rect width="97" height="80" rx="22" fill="#2FD800"/>
<path d="M72.6554 16.3544C69.8451 13.5441 66.1194 12 62.1511 12C58.1828 12 54.4479 13.5442 51.6468 16.3544L42.3994 25.6018C42.139 25.8622 42.139 26.2933 42.3994 26.5533L46.7269 30.8895C46.8525 31.0151 47.0233 31.0871 47.2026 31.0871C47.382 31.0871 47.5527 31.0151 47.6784 30.8895L56.9258 21.642C58.3175 20.2504 60.1758 19.4783 62.1511 19.4783C64.1264 19.4783 65.9757 20.2504 67.3765 21.642C68.7681 23.0337 69.5402 24.8921 69.5402 26.8674C69.5402 28.8427 68.7681 30.6919 67.3765 32.0927L58.129 41.3401C57.8686 41.6005 57.8686 42.0316 58.129 42.2916L62.4565 46.6191C62.5822 46.7447 62.7529 46.8167 62.9322 46.8167C63.1116 46.8167 63.2823 46.7447 63.408 46.6191L66.7567 43.2704L72.6553 37.3809C75.4656 34.5706 77.0097 30.8448 77.0097 26.8766C77.0097 22.8904 75.4655 19.1556 72.6553 16.3545L72.6554 16.3544ZM47.2118 29.4444L43.8362 26.0688L46.2335 23.6715L49.6095 27.0475L47.2118 29.4444ZM62.9418 45.1744L59.5662 41.7988L61.9635 39.4015L65.3391 42.7771L62.9418 45.1744ZM71.7044 36.4119L66.2815 41.8257L62.9059 38.45L68.3287 33.0272C69.9808 31.3751 70.8877 29.1845 70.8877 26.8504C70.8877 24.516 69.9809 22.3257 68.3287 20.6736C66.6767 19.0216 64.4861 18.1147 62.152 18.1147C59.8175 18.1147 57.6272 19.0215 55.9752 20.6736L50.5523 26.0965L47.1763 22.7205L52.5991 17.2976C55.149 14.7477 58.5424 13.3383 62.1515 13.3383C65.7607 13.3387 69.1546 14.7572 71.7044 17.3067C74.2542 19.8565 75.6636 23.2499 75.6636 26.8591C75.6636 30.4686 74.2538 33.8621 71.7044 36.4119Z" fill="white" stroke="white" stroke-width="1.18088"/>
<path d="M35.6126 37.7754C27.0025 37.7754 20 44.7785 20 53.388C20 61.998 27.0031 69.0005 35.6126 69.0005C44.2226 69.0005 51.2251 61.9975 51.2251 53.388C51.2255 44.7779 44.2225 37.7754 35.6126 37.7754ZM35.6126 67.663C31.824 67.663 28.3764 66.1639 25.8175 63.7398C25.8353 63.686 25.8535 63.6232 25.8535 63.5604C25.8535 62.1596 26.9938 61.0196 28.3943 61.0196H32.9372C33.2154 62.2406 34.3106 63.1474 35.6036 63.1474C36.8874 63.1474 37.9735 62.2587 38.2608 61.0196H42.8215C44.2223 61.0196 45.3623 62.1599 45.3623 63.5604C45.3623 63.6232 45.3801 63.6769 45.3982 63.7398C42.8492 66.1635 39.4103 67.663 35.6127 67.663H35.6126ZM30.0017 52.0325C29.5706 51.1794 29.1758 49.5724 29.3552 47.8128C29.5346 46.0893 30.3067 43.8535 32.9912 42.9649C34.0957 42.5967 35.0294 42.4532 35.8193 42.4532C38.7101 42.4532 39.6528 44.4017 39.6979 44.5001C39.7876 44.6976 39.9583 44.8411 40.1737 44.8861C41.5293 45.1825 41.8435 47.2293 41.9154 48.4325C41.9605 49.2674 41.8076 50.0577 41.4666 50.7129V50.6409C41.3769 46.7176 39.204 46.4663 39.1144 46.4572C38.899 46.4395 38.7014 46.5201 38.5576 46.6726C35.4511 50.0391 30.8813 49.3299 30.8366 49.3212C30.6299 49.2852 30.4237 49.348 30.2712 49.4919C30.1187 49.6357 30.0376 49.8329 30.0558 50.0395C30.1273 51.0001 30.0732 51.6375 30.0017 52.0326L30.0017 52.0325ZM31.4289 50.7127C33 50.7933 36.4657 50.6048 39.2126 47.9024C39.5986 48.1806 40.0744 48.9618 40.1104 50.6585C40.1281 51.305 40.191 51.9332 40.4964 52.3106V53.7828C40.4964 56.4761 38.3058 58.6667 35.6125 58.6667C32.9193 58.6667 30.7287 56.4761 30.7287 53.7828C30.7287 53.7291 30.7109 53.675 30.6927 53.6212C31.061 53.2893 31.4648 52.5081 31.4289 50.7127L31.4289 50.7127ZM37.0042 59.8613V60.4181C37.0042 61.1811 36.3759 61.8097 35.6126 61.8097C34.8496 61.8097 34.2209 61.1815 34.2209 60.3552V59.8613C34.6698 59.9601 35.1369 60.0229 35.6126 60.0229C35.837 60.0229 36.0614 60.0051 36.2859 59.9869C36.3396 59.9778 36.3938 59.9692 36.4475 59.9601C36.6182 59.9332 36.7885 59.9063 36.9592 59.8704C36.9774 59.8704 36.9951 59.8704 37.0042 59.8613L37.0042 59.8613ZM46.5657 62.5277C46.1077 60.8847 44.6173 59.6729 42.8399 59.6729H38.3599V59.3765C40.4249 58.3622 41.8525 56.2431 41.8525 53.7921V52.3913C41.9872 52.2835 42.122 52.1491 42.2563 51.9693C42.9834 50.9906 43.3426 49.6981 43.262 48.3424C43.1094 45.7479 42.2477 44.1318 40.7663 43.647C40.1649 42.6955 37.9024 39.903 32.5695 41.6808C29.9478 42.5517 28.3321 44.6795 28.0175 47.6691C27.7753 49.9854 28.4304 52.5261 29.4451 53.5226C29.4092 53.6032 29.3914 53.6933 29.3914 53.7921C29.3914 56.2432 30.819 58.3619 32.884 59.3766V59.6729H28.404C26.6171 59.6729 25.1271 60.8848 24.6691 62.5277C22.595 60.0498 21.3471 56.8627 21.3471 53.3882C21.3471 45.5234 27.7483 39.1227 35.6127 39.1227C43.4775 39.1227 49.8783 45.5239 49.8783 53.3882C49.8866 56.8718 48.6296 60.0498 46.5647 62.5277L46.5657 62.5277Z" fill="white" stroke="white" stroke-width="1.18088"/>
<path d="M54.0003 48.3616L56.3616 46.0003C56.622 45.7399 56.622 45.3088 56.3616 45.0488C56.1012 44.7884 55.6701 44.7884 55.4101 45.0488L53.0488 47.4101C52.7884 47.6705 52.7884 48.1016 53.0488 48.3616C53.1836 48.4963 53.3543 48.5592 53.5246 48.5592C53.6953 48.5592 53.866 48.4963 54.0003 48.3616Z" fill="white" stroke="white" stroke-width="1.18088"/>
<path d="M59.502 45.6484C59.2416 45.388 58.8105 45.388 58.5505 45.6484L53.6484 50.5505C53.388 50.8109 53.388 51.242 53.6484 51.502C53.7832 51.6367 53.9539 51.6995 54.1242 51.6995C54.2949 51.6995 54.4652 51.6367 54.5999 51.502L59.502 46.5999C59.7624 46.3399 59.7624 45.9088 59.502 45.6484Z" fill="white" stroke="white" stroke-width="1.18088"/>
<path d="M59.1445 48.7832L56.7832 51.1445C56.5228 51.4049 56.5228 51.836 56.7832 52.096C56.9179 52.2307 57.0886 52.2935 57.2589 52.2935C57.4296 52.2935 57.5999 52.2307 57.7347 52.096L60.096 49.7347C60.3564 49.4743 60.3564 49.0432 60.096 48.7832C59.8356 48.5228 59.4136 48.5228 59.1445 48.7832Z" fill="white" stroke="white" stroke-width="1.18088"/>
<path d="M37.5343 32.5787C37.705 32.5787 37.8753 32.5159 38.0101 32.3811L40.3714 30.0198C40.6318 29.7594 40.6318 29.3283 40.3714 29.0683C40.111 28.8079 39.6799 28.8079 39.4199 29.0683L37.0586 31.4296C36.7982 31.69 36.7982 32.1211 37.0586 32.3811C37.1929 32.5068 37.3636 32.5787 37.5343 32.5787Z" fill="white" stroke="white" stroke-width="1.18088"/>
<path d="M42.5612 29.6601L37.6592 34.5622C37.3988 34.8226 37.3988 35.2537 37.6592 35.5137C37.7939 35.6484 37.9646 35.7113 38.1349 35.7113C38.3056 35.7113 38.4759 35.6484 38.6106 35.5137L43.5127 30.6116C43.7731 30.3512 43.7731 29.9201 43.5127 29.6601C43.2523 29.3997 42.8212 29.3997 42.5612 29.6601Z" fill="white" stroke="white" stroke-width="1.18088"/>
<path d="M40.8027 35.164C40.5423 35.4244 40.5423 35.8555 40.8027 36.1155C40.9375 36.2502 41.1082 36.3131 41.2785 36.3131C41.4492 36.3131 41.6195 36.2502 41.7542 36.1155L44.1155 33.7542C44.3759 33.4938 44.3759 33.0627 44.1155 32.8027C43.8551 32.5423 43.424 32.5423 43.164 32.8027L40.8027 35.164Z" fill="white" stroke="white" stroke-width="1.18088"/>
<path d="M33.8436 53.568C34.2474 53.568 34.5797 53.2357 34.5797 52.8318C34.5797 52.428 34.2474 52.0957 33.8436 52.0957C33.4397 52.0957 33.1074 52.428 33.1074 52.8318C33.1074 53.2361 33.4397 53.568 33.8436 53.568Z" fill="white" stroke="white" stroke-width="1.18088"/>
<path d="M37.3807 53.568C37.7845 53.568 38.1168 53.2357 38.1168 52.8318C38.1168 52.428 37.7845 52.0957 37.3807 52.0957C36.9768 52.0957 36.6445 52.428 36.6445 52.8318C36.6445 53.2361 36.9768 53.568 37.3807 53.568Z" fill="white" stroke="white" stroke-width="1.18088"/>
</svg>
