<svg width="92" height="92" viewBox="0 0 92 92" fill="none" xmlns="http://www.w3.org/2000/svg">
<rect width="92" height="92" rx="22" fill="#2FD800"/>
<path d="M69.6549 22.3544C66.8446 19.5441 63.1189 18 59.1506 18C55.1824 18 51.4474 19.5442 48.6463 22.3544L39.3989 31.6018C39.1385 31.8622 39.1385 32.2933 39.3989 32.5533L43.7264 36.8895C43.8521 37.0151 44.0228 37.0871 44.2021 37.0871C44.3815 37.0871 44.5522 37.0151 44.6779 36.8895L53.9253 27.642C55.317 26.2504 57.1753 25.4783 59.1506 25.4783C61.1259 25.4783 62.9752 26.2504 64.376 27.642C65.7676 29.0337 66.5397 30.8921 66.5397 32.8674C66.5397 34.8427 65.7676 36.6919 64.376 38.0927L55.1285 47.3401C54.8681 47.6005 54.8681 48.0316 55.1285 48.2916L59.456 52.6191C59.5817 52.7447 59.7524 52.8167 59.9318 52.8167C60.1111 52.8167 60.2819 52.7447 60.4075 52.6191L63.7562 49.2704L69.6548 43.3809C72.4651 40.5706 74.0092 36.8448 74.0092 32.8766C74.0092 28.8904 72.465 25.1556 69.6548 22.3545L69.6549 22.3544ZM44.2113 35.4444L40.8357 32.0688L43.233 29.6715L46.609 33.0475L44.2113 35.4444ZM59.9414 51.1744L56.5657 47.7988L58.963 45.4015L62.3386 48.7771L59.9414 51.1744ZM68.7039 42.4119L63.281 47.8257L59.9054 44.45L65.3282 39.0272C66.9803 37.3751 67.8872 35.1845 67.8872 32.8504C67.8872 30.516 66.9804 28.3257 65.3282 26.6736C63.6762 25.0216 61.4856 24.1147 59.1515 24.1147C56.817 24.1147 54.6267 25.0215 52.9747 26.6736L47.5518 32.0965L44.1758 28.7205L49.5987 23.2976C52.1485 20.7477 55.5419 19.3383 59.151 19.3383C62.7602 19.3387 66.1541 20.7572 68.7039 23.3067C71.2537 25.8565 72.6631 29.2499 72.6631 32.8591C72.6631 36.4686 71.2533 39.8621 68.7039 42.4119Z" fill="white" stroke="white" stroke-width="1.18088"/>
<path d="M32.6126 43.7754C24.0025 43.7754 17 50.7785 17 59.388C17 67.998 24.0031 75.0005 32.6126 75.0005C41.2226 75.0005 48.2251 67.9975 48.2251 59.388C48.2255 50.7779 41.2225 43.7754 32.6126 43.7754ZM32.6126 73.663C28.824 73.663 25.3764 72.1639 22.8175 69.7398C22.8353 69.686 22.8535 69.6232 22.8535 69.5604C22.8535 68.1596 23.9938 67.0196 25.3943 67.0196H29.9372C30.2154 68.2406 31.3106 69.1474 32.6036 69.1474C33.8874 69.1474 34.9735 68.2587 35.2608 67.0196H39.8215C41.2223 67.0196 42.3623 68.1599 42.3623 69.5604C42.3623 69.6232 42.3801 69.6769 42.3982 69.7398C39.8492 72.1635 36.4103 73.663 32.6127 73.663H32.6126ZM27.0017 58.0325C26.5706 57.1794 26.1758 55.5724 26.3552 53.8128C26.5346 52.0893 27.3067 49.8535 29.9912 48.9649C31.0957 48.5967 32.0294 48.4532 32.8193 48.4532C35.7101 48.4532 36.6528 50.4017 36.6979 50.5001C36.7876 50.6976 36.9583 50.8411 37.1737 50.8861C38.5293 51.1825 38.8435 53.2293 38.9154 54.4325C38.9605 55.2674 38.8076 56.0577 38.4666 56.7129V56.6409C38.3769 52.7176 36.204 52.4663 36.1144 52.4572C35.899 52.4395 35.7014 52.5201 35.5576 52.6726C32.4511 56.0391 27.8813 55.3299 27.8366 55.3212C27.6299 55.2852 27.4237 55.348 27.2712 55.4919C27.1187 55.6357 27.0376 55.8329 27.0558 56.0395C27.1273 57.0001 27.0732 57.6375 27.0017 58.0326L27.0017 58.0325ZM28.4289 56.7127C30 56.7933 33.4657 56.6048 36.2126 53.9024C36.5986 54.1806 37.0744 54.9618 37.1104 56.6585C37.1281 57.305 37.191 57.9332 37.4964 58.3106V59.7828C37.4964 62.4761 35.3058 64.6667 32.6125 64.6667C29.9193 64.6667 27.7287 62.4761 27.7287 59.7828C27.7287 59.7291 27.7109 59.675 27.6927 59.6212C28.061 59.2893 28.4648 58.5081 28.4289 56.7127L28.4289 56.7127ZM34.0042 65.8613V66.4181C34.0042 67.1811 33.3759 67.8097 32.6126 67.8097C31.8496 67.8097 31.2209 67.1815 31.2209 66.3552V65.8613C31.6698 65.9601 32.1369 66.0229 32.6126 66.0229C32.837 66.0229 33.0614 66.0051 33.2859 65.9869C33.3396 65.9778 33.3938 65.9692 33.4475 65.9601C33.6182 65.9332 33.7885 65.9063 33.9592 65.8704C33.9774 65.8704 33.9951 65.8704 34.0042 65.8613L34.0042 65.8613ZM43.5657 68.5277C43.1077 66.8847 41.6173 65.6729 39.8399 65.6729H35.3599V65.3765C37.4249 64.3622 38.8525 62.2431 38.8525 59.7921V58.3913C38.9872 58.2835 39.122 58.1491 39.2563 57.9693C39.9834 56.9906 40.3426 55.6981 40.262 54.3424C40.1094 51.7479 39.2477 50.1318 37.7663 49.647C37.1649 48.6955 34.9024 45.903 29.5695 47.6808C26.9478 48.5517 25.3321 50.6795 25.0175 53.6691C24.7753 55.9854 25.4304 58.5261 26.4451 59.5226C26.4092 59.6032 26.3914 59.6933 26.3914 59.7921C26.3914 62.2432 27.819 64.3619 29.884 65.3766V65.6729H25.404C23.6171 65.6729 22.1271 66.8848 21.6691 68.5277C19.595 66.0498 18.3471 62.8627 18.3471 59.3882C18.3471 51.5234 24.7483 45.1227 32.6127 45.1227C40.4775 45.1227 46.8783 51.5239 46.8783 59.3882C46.8866 62.8718 45.6296 66.0498 43.5647 68.5277L43.5657 68.5277Z" fill="white" stroke="white" stroke-width="1.18088"/>
<path d="M51.0003 54.3616L53.3616 52.0003C53.622 51.7399 53.622 51.3088 53.3616 51.0488C53.1012 50.7884 52.6701 50.7884 52.4101 51.0488L50.0488 53.4101C49.7884 53.6705 49.7884 54.1016 50.0488 54.3616C50.1836 54.4963 50.3543 54.5592 50.5246 54.5592C50.6953 54.5592 50.866 54.4963 51.0003 54.3616Z" fill="white" stroke="white" stroke-width="1.18088"/>
<path d="M56.5024 51.6484C56.2421 51.388 55.8109 51.388 55.551 51.6484L50.6489 56.5505C50.3885 56.8109 50.3885 57.242 50.6489 57.502C50.7836 57.6367 50.9544 57.6995 51.1246 57.6995C51.2954 57.6995 51.4656 57.6367 51.6004 57.502L56.5024 52.5999C56.7628 52.3399 56.7628 51.9088 56.5024 51.6484Z" fill="white" stroke="white" stroke-width="1.18088"/>
<path d="M56.1445 54.7832L53.7832 57.1445C53.5228 57.4049 53.5228 57.836 53.7832 58.096C53.9179 58.2307 54.0886 58.2935 54.2589 58.2935C54.4296 58.2935 54.5999 58.2307 54.7347 58.096L57.096 55.7347C57.3564 55.4743 57.3564 55.0432 57.096 54.7832C56.8356 54.5228 56.4136 54.5228 56.1445 54.7832Z" fill="white" stroke="white" stroke-width="1.18088"/>
<path d="M34.5338 38.5787C34.7045 38.5787 34.8748 38.5159 35.0096 38.3811L37.3709 36.0198C37.6313 35.7594 37.6313 35.3283 37.3709 35.0683C37.1105 34.8079 36.6794 34.8079 36.4194 35.0683L34.0581 37.4296C33.7977 37.69 33.7977 38.1211 34.0581 38.3811C34.1924 38.5068 34.3631 38.5787 34.5338 38.5787Z" fill="white" stroke="white" stroke-width="1.18088"/>
<path d="M39.5612 35.6601L34.6592 40.5622C34.3988 40.8226 34.3988 41.2537 34.6592 41.5137C34.7939 41.6484 34.9646 41.7113 35.1349 41.7113C35.3056 41.7113 35.4759 41.6484 35.6106 41.5137L40.5127 36.6116C40.7731 36.3512 40.7731 35.9201 40.5127 35.6601C40.2523 35.3997 39.8212 35.3997 39.5612 35.6601Z" fill="white" stroke="white" stroke-width="1.18088"/>
<path d="M37.8022 41.164C37.5418 41.4244 37.5418 41.8555 37.8022 42.1155C37.937 42.2502 38.1077 42.3131 38.278 42.3131C38.4487 42.3131 38.619 42.2502 38.7537 42.1155L41.115 39.7542C41.3754 39.4938 41.3754 39.0627 41.115 38.8027C40.8546 38.5423 40.4235 38.5423 40.1635 38.8027L37.8022 41.164Z" fill="white" stroke="white" stroke-width="1.18088"/>
<path d="M30.8436 59.568C31.2474 59.568 31.5797 59.2357 31.5797 58.8318C31.5797 58.428 31.2474 58.0957 30.8436 58.0957C30.4397 58.0957 30.1074 58.428 30.1074 58.8318C30.1074 59.2361 30.4397 59.568 30.8436 59.568Z" fill="white" stroke="white" stroke-width="1.18088"/>
<path d="M34.3807 59.568C34.7845 59.568 35.1168 59.2357 35.1168 58.8318C35.1168 58.428 34.7845 58.0957 34.3807 58.0957C33.9768 58.0957 33.6445 58.428 33.6445 58.8318C33.6445 59.2361 33.9768 59.568 34.3807 59.568Z" fill="white" stroke="white" stroke-width="1.18088"/>
</svg>
