<svg width="92" height="92" viewBox="0 0 92 92" fill="none" xmlns="http://www.w3.org/2000/svg">
<rect width="92" height="92" rx="22" fill="#FC8525"/>
<path d="M60.3333 17H31.1667C30.0616 17 29.0018 17.439 28.2204 18.2204C27.439 19.0018 27 20.0616 27 21.1667V71.1667C27 72.2717 27.439 73.3315 28.2204 74.1129C29.0018 74.8943 30.0616 75.3333 31.1667 75.3333H60.3333C61.4384 75.3333 62.4982 74.8943 63.2796 74.1129C64.061 73.3315 64.5 72.2717 64.5 71.1667V21.1667C64.5 20.0616 64.061 19.0018 63.2796 18.2204C62.4982 17.439 61.4384 17 60.3333 17ZM31.1667 21.1667H60.3333V58.6667H31.1667V21.1667ZM31.1667 71.1667V62.8333H60.3333V71.1667H31.1667Z" fill="white"/>
</svg>
