<svg width="97" height="80" viewBox="0 0 97 80" fill="none" xmlns="http://www.w3.org/2000/svg">
<rect width="97" height="80" rx="22" fill="#FC8525"/>
<path d="M63.3333 11H34.1667C33.0616 11 32.0018 11.439 31.2204 12.2204C30.439 13.0018 30 14.0616 30 15.1667V65.1667C30 66.2717 30.439 67.3315 31.2204 68.1129C32.0018 68.8943 33.0616 69.3333 34.1667 69.3333H63.3333C64.4384 69.3333 65.4982 68.8943 66.2796 68.1129C67.061 67.3315 67.5 66.2717 67.5 65.1667V15.1667C67.5 14.0616 67.061 13.0018 66.2796 12.2204C65.4982 11.439 64.4384 11 63.3333 11ZM34.1667 15.1667H63.3333V52.6667H34.1667V15.1667ZM34.1667 65.1667V56.8333H63.3333V65.1667H34.1667Z" fill="white"/>
</svg>
