<svg xmlns="http://www.w3.org/2000/svg" width="756" height="155" viewBox="0 0 756 155">
  <g id="Group_4429" data-name="Group 4429" transform="translate(-2313 -8267)">
    <path id="Path_8622" data-name="Path 8622" d="M20,0H736a20,20,0,0,1,20,20V135a20,20,0,0,1-20,20H20A20,20,0,0,1,0,135V20A20,20,0,0,1,20,0Z" transform="translate(2313 8267)" fill="#0f52ba" opacity="0.13"/>
    <path id="Path_8623" data-name="Path 8623" d="M20,0H36V155H20A20,20,0,0,1,0,135V20A20,20,0,0,1,20,0Z" transform="translate(2313 8267)" fill="#757575" opacity="0.59"/>
    <path id="Path_8624" data-name="Path 8624" d="M16.648,16.552a9.056,9.056,0,0,1,1.08-4.452A7.719,7.719,0,0,1,20.74,9.052,8.745,8.745,0,0,1,25.12,7.96a8.381,8.381,0,0,1,5.136,1.584,7.607,7.607,0,0,1,2.856,4.32H28.6a3.644,3.644,0,0,0-1.428-1.608,4.015,4.015,0,0,0-2.1-.552A3.92,3.92,0,0,0,22,13.024a5.108,5.108,0,0,0-1.176,3.528A5.108,5.108,0,0,0,22,20.08a3.92,3.92,0,0,0,3.072,1.32,4.015,4.015,0,0,0,2.1-.552A3.644,3.644,0,0,0,28.6,19.24h4.512a7.552,7.552,0,0,1-2.856,4.308A8.425,8.425,0,0,1,25.12,25.12a8.745,8.745,0,0,1-4.38-1.092,7.74,7.74,0,0,1-3.012-3.036A8.988,8.988,0,0,1,16.648,16.552ZM49.5,11.608V25H45.4V23.176A4.5,4.5,0,0,1,43.708,24.6a5.164,5.164,0,0,1-2.364.54,5.3,5.3,0,0,1-2.712-.684,4.612,4.612,0,0,1-1.824-1.98,6.738,6.738,0,0,1-.648-3.048V11.608h4.08V18.88a2.939,2.939,0,0,0,.7,2.088,2.44,2.44,0,0,0,1.872.744,2.47,2.47,0,0,0,1.9-.744,2.939,2.939,0,0,0,.7-2.088V11.608Zm9.048,13.584a7.7,7.7,0,0,1-3.12-.6,5.328,5.328,0,0,1-2.16-1.644,4.324,4.324,0,0,1-.888-2.34H56.44a1.559,1.559,0,0,0,.648,1.128,2.293,2.293,0,0,0,1.416.432,2.021,2.021,0,0,0,1.188-.3.919.919,0,0,0,.42-.78.9.9,0,0,0-.6-.852,12.121,12.121,0,0,0-1.944-.612,18.252,18.252,0,0,1-2.4-.708,4.147,4.147,0,0,1-1.656-1.176,3.2,3.2,0,0,1-.7-2.172,3.688,3.688,0,0,1,.636-2.1,4.282,4.282,0,0,1,1.872-1.5,7.168,7.168,0,0,1,2.94-.552,5.894,5.894,0,0,1,3.972,1.248A4.856,4.856,0,0,1,63.9,15.976H60.112a1.634,1.634,0,0,0-.612-1.1,2.123,2.123,0,0,0-1.356-.408,1.875,1.875,0,0,0-1.1.276.881.881,0,0,0-.384.756.923.923,0,0,0,.612.864,9.8,9.8,0,0,0,1.908.576,20.874,20.874,0,0,1,2.424.756,4.181,4.181,0,0,1,1.644,1.2,3.4,3.4,0,0,1,.732,2.22,3.524,3.524,0,0,1-.66,2.1,4.365,4.365,0,0,1-1.9,1.452A7.251,7.251,0,0,1,58.552,25.192ZM74.608,21.52V25H72.52a5.111,5.111,0,0,1-3.48-1.092,4.513,4.513,0,0,1-1.248-3.564V15.016H66.16V11.608h1.632V8.344h4.1v3.264h2.688v3.408H71.9v5.376a1.125,1.125,0,0,0,.288.864,1.406,1.406,0,0,0,.96.264Zm9.024,3.672a7.392,7.392,0,0,1-3.54-.84,6.151,6.151,0,0,1-2.472-2.4,7.171,7.171,0,0,1-.9-3.648,7.114,7.114,0,0,1,.912-3.636,6.188,6.188,0,0,1,2.5-2.412,7.93,7.93,0,0,1,7.1,0,6.188,6.188,0,0,1,2.5,2.412A7.114,7.114,0,0,1,90.64,18.3a7.041,7.041,0,0,1-.924,3.636,6.248,6.248,0,0,1-2.52,2.412A7.534,7.534,0,0,1,83.632,25.192Zm0-3.552a2.674,2.674,0,0,0,2-.864,3.432,3.432,0,0,0,.828-2.472,3.5,3.5,0,0,0-.8-2.472,2.727,2.727,0,0,0-3.972-.012A3.522,3.522,0,0,0,80.9,18.3a3.565,3.565,0,0,0,.78,2.472A2.524,2.524,0,0,0,83.632,21.64ZM110.56,11.464a5.3,5.3,0,0,1,3.972,1.512,5.757,5.757,0,0,1,1.476,4.2V25h-4.08V17.728a2.767,2.767,0,0,0-.684-2,2.861,2.861,0,0,0-3.768,0,2.767,2.767,0,0,0-.684,2V25h-4.08V17.728a2.767,2.767,0,0,0-.684-2,2.861,2.861,0,0,0-3.768,0,2.767,2.767,0,0,0-.684,2V25h-4.1V11.608h4.1v1.68a4.393,4.393,0,0,1,1.632-1.332,5.131,5.131,0,0,1,2.28-.492,5.546,5.546,0,0,1,2.7.648,4.646,4.646,0,0,1,1.86,1.848,5.4,5.4,0,0,1,1.9-1.8A5.123,5.123,0,0,1,110.56,11.464Zm21.6,6.624a10.476,10.476,0,0,1-.072,1.2H122.8a2.791,2.791,0,0,0,.8,1.908,2.456,2.456,0,0,0,1.74.66,2.157,2.157,0,0,0,2.136-1.3h4.368a5.994,5.994,0,0,1-1.212,2.376,6.068,6.068,0,0,1-2.2,1.656,7.054,7.054,0,0,1-2.952.6,7.183,7.183,0,0,1-3.5-.84,5.975,5.975,0,0,1-2.4-2.4,7.409,7.409,0,0,1-.864-3.648,7.494,7.494,0,0,1,.852-3.648,5.9,5.9,0,0,1,2.388-2.4,7.234,7.234,0,0,1,3.528-.84,7.161,7.161,0,0,1,3.456.816,5.859,5.859,0,0,1,2.364,2.328A7.066,7.066,0,0,1,132.16,18.088Zm-4.2-1.08a2.11,2.11,0,0,0-.72-1.68,2.65,2.65,0,0,0-1.8-.624,2.6,2.6,0,0,0-1.74.6,2.665,2.665,0,0,0-.876,1.7Zm11.112-3.168a5.414,5.414,0,0,1,1.8-1.74,4.642,4.642,0,0,1,2.4-.636v4.344h-1.128a3.458,3.458,0,0,0-2.3.66,2.932,2.932,0,0,0-.768,2.316V25h-4.1V11.608h4.1Zm12.264,11.352a7.7,7.7,0,0,1-3.12-.6,5.328,5.328,0,0,1-2.16-1.644,4.324,4.324,0,0,1-.888-2.34h4.056a1.559,1.559,0,0,0,.648,1.128,2.293,2.293,0,0,0,1.416.432,2.021,2.021,0,0,0,1.188-.3.919.919,0,0,0,.42-.78.9.9,0,0,0-.6-.852,12.121,12.121,0,0,0-1.944-.612,18.251,18.251,0,0,1-2.4-.708A4.147,4.147,0,0,1,146.3,17.74a3.2,3.2,0,0,1-.7-2.172,3.688,3.688,0,0,1,.636-2.1,4.282,4.282,0,0,1,1.872-1.5,7.168,7.168,0,0,1,2.94-.552,5.894,5.894,0,0,1,3.972,1.248,4.856,4.856,0,0,1,1.668,3.312H152.9a1.634,1.634,0,0,0-.612-1.1,2.123,2.123,0,0,0-1.356-.408,1.875,1.875,0,0,0-1.1.276.881.881,0,0,0-.384.756.923.923,0,0,0,.612.864,9.8,9.8,0,0,0,1.908.576,20.873,20.873,0,0,1,2.424.756,4.181,4.181,0,0,1,1.644,1.2,3.4,3.4,0,0,1,.732,2.22,3.523,3.523,0,0,1-.66,2.1,4.365,4.365,0,0,1-1.9,1.452A7.251,7.251,0,0,1,151.336,25.192Zm13.512-6.912a8,8,0,0,1,.78-3.624,5.818,5.818,0,0,1,2.124-2.4,5.545,5.545,0,0,1,3-.84,5.269,5.269,0,0,1,2.412.552,4.4,4.4,0,0,1,1.716,1.488V7.24h4.1V25h-4.1V23.08a4.181,4.181,0,0,1-1.644,1.536,5.154,5.154,0,0,1-2.484.576,5.487,5.487,0,0,1-3-.852,5.887,5.887,0,0,1-2.124-2.424A8.08,8.08,0,0,1,164.848,18.28Zm10.032.024a3.355,3.355,0,0,0-.852-2.424,2.884,2.884,0,0,0-4.152-.012,3.313,3.313,0,0,0-.852,2.412,3.4,3.4,0,0,0,.852,2.436,2.857,2.857,0,0,0,4.152.012A3.355,3.355,0,0,0,174.88,18.3ZM188.7,25.192a7.392,7.392,0,0,1-3.54-.84,6.151,6.151,0,0,1-2.472-2.4,7.171,7.171,0,0,1-.9-3.648,7.114,7.114,0,0,1,.912-3.636,6.188,6.188,0,0,1,2.5-2.412,7.93,7.93,0,0,1,7.1,0,6.188,6.188,0,0,1,2.5,2.412,7.114,7.114,0,0,1,.912,3.636,7.041,7.041,0,0,1-.924,3.636,6.248,6.248,0,0,1-2.52,2.412A7.533,7.533,0,0,1,188.7,25.192Zm0-3.552a2.674,2.674,0,0,0,2-.864,3.432,3.432,0,0,0,.828-2.472,3.5,3.5,0,0,0-.8-2.472,2.727,2.727,0,0,0-3.972-.012,3.522,3.522,0,0,0-.792,2.484,3.565,3.565,0,0,0,.78,2.472A2.524,2.524,0,0,0,188.7,21.64Zm18-10.176a4.86,4.86,0,0,1,3.756,1.524,5.944,5.944,0,0,1,1.4,4.188V25h-4.08V17.728a2.939,2.939,0,0,0-.7-2.088,2.727,2.727,0,0,0-3.744,0,2.939,2.939,0,0,0-.7,2.088V25h-4.1V11.608h4.1v1.776a4.33,4.33,0,0,1,1.68-1.4A5.341,5.341,0,0,1,206.7,11.464Zm9.6-3.312h4.2l-2.688,6.432h-2.76ZM231.016,21.52V25h-2.088a5.111,5.111,0,0,1-3.48-1.092,4.513,4.513,0,0,1-1.248-3.564V15.016h-1.632V11.608H224.2V8.344h4.1v3.264h2.688v3.408H228.3v5.376a1.125,1.125,0,0,0,.288.864,1.406,1.406,0,0,0,.96.264ZM252.3,18.088a10.479,10.479,0,0,1-.072,1.2h-9.288a2.791,2.791,0,0,0,.8,1.908,2.456,2.456,0,0,0,1.74.66,2.157,2.157,0,0,0,2.136-1.3h4.368a5.994,5.994,0,0,1-1.212,2.376,6.068,6.068,0,0,1-2.2,1.656,7.054,7.054,0,0,1-2.952.6,7.183,7.183,0,0,1-3.5-.84,5.975,5.975,0,0,1-2.4-2.4,7.409,7.409,0,0,1-.864-3.648,7.494,7.494,0,0,1,.852-3.648,5.9,5.9,0,0,1,2.388-2.4,7.234,7.234,0,0,1,3.528-.84,7.161,7.161,0,0,1,3.456.816,5.859,5.859,0,0,1,2.364,2.328A7.066,7.066,0,0,1,252.3,18.088Zm-4.2-1.08a2.11,2.11,0,0,0-.72-1.68,2.65,2.65,0,0,0-1.8-.624,2.6,2.6,0,0,0-1.74.6,2.665,2.665,0,0,0-.876,1.7ZM263.032,25l-2.568-3.72L258.3,25h-4.44l4.416-6.84-4.536-6.552h4.608l2.568,3.7,2.16-3.7h4.44l-4.488,6.744L267.64,25Zm10.944-11.5a4.455,4.455,0,0,1,1.656-1.512,5.084,5.084,0,0,1,2.472-.576,5.545,5.545,0,0,1,3,.84,5.818,5.818,0,0,1,2.124,2.4,8,8,0,0,1,.78,3.624,8.08,8.08,0,0,1-.78,3.636A5.887,5.887,0,0,1,281.1,24.34a5.487,5.487,0,0,1-3,.852,5.1,5.1,0,0,1-2.46-.576,4.51,4.51,0,0,1-1.668-1.488v8.256h-4.1V11.608h4.1Zm5.856,4.776a3.313,3.313,0,0,0-.852-2.412,2.814,2.814,0,0,0-2.1-.876,2.768,2.768,0,0,0-2.076.888,3.355,3.355,0,0,0-.852,2.424,3.355,3.355,0,0,0,.852,2.424,2.871,2.871,0,0,0,4.164-.012A3.37,3.37,0,0,0,279.832,18.28Zm19.608-.192a10.476,10.476,0,0,1-.072,1.2H290.08a2.791,2.791,0,0,0,.8,1.908,2.456,2.456,0,0,0,1.74.66,2.157,2.157,0,0,0,2.136-1.3h4.368a5.994,5.994,0,0,1-1.212,2.376,6.068,6.068,0,0,1-2.2,1.656,7.054,7.054,0,0,1-2.952.6,7.183,7.183,0,0,1-3.5-.84,5.975,5.975,0,0,1-2.4-2.4A7.409,7.409,0,0,1,286,18.3a7.494,7.494,0,0,1,.852-3.648,5.9,5.9,0,0,1,2.388-2.4,7.234,7.234,0,0,1,3.528-.84,7.161,7.161,0,0,1,3.456.816,5.859,5.859,0,0,1,2.364,2.328A7.066,7.066,0,0,1,299.44,18.088Zm-4.2-1.08a2.11,2.11,0,0,0-.72-1.68,2.65,2.65,0,0,0-1.8-.624,2.6,2.6,0,0,0-1.74.6,2.665,2.665,0,0,0-.876,1.7Zm6.192,1.3a7.494,7.494,0,0,1,.852-3.648,5.918,5.918,0,0,1,2.376-2.4,7.114,7.114,0,0,1,3.492-.84,6.64,6.64,0,0,1,4.212,1.32,6.228,6.228,0,0,1,2.22,3.72h-4.368a2.1,2.1,0,0,0-2.136-1.536,2.153,2.153,0,0,0-1.8.876,4.052,4.052,0,0,0-.672,2.508,4.052,4.052,0,0,0,.672,2.508,2.153,2.153,0,0,0,1.8.876,2.1,2.1,0,0,0,2.136-1.536h4.368a6.287,6.287,0,0,1-2.232,3.7,6.572,6.572,0,0,1-4.2,1.344,7.114,7.114,0,0,1-3.492-.84,5.918,5.918,0,0,1-2.376-2.4A7.494,7.494,0,0,1,301.432,18.3ZM324.88,21.52V25h-2.088a5.111,5.111,0,0,1-3.48-1.092,4.513,4.513,0,0,1-1.248-3.564V15.016h-1.632V11.608h1.632V8.344h4.1v3.264h2.688v3.408h-2.688v5.376a1.125,1.125,0,0,0,.288.864,1.406,1.406,0,0,0,.96.264Zm22.344-9.912-8.4,19.752h-4.416l3.072-6.816-5.448-12.936h4.584l3.1,8.376,3.072-8.376Zm8.232,13.584a7.392,7.392,0,0,1-3.54-.84,6.151,6.151,0,0,1-2.472-2.4,7.171,7.171,0,0,1-.9-3.648,7.114,7.114,0,0,1,.912-3.636,6.188,6.188,0,0,1,2.5-2.412,7.93,7.93,0,0,1,7.1,0,6.188,6.188,0,0,1,2.5,2.412,7.114,7.114,0,0,1,.912,3.636,7.041,7.041,0,0,1-.924,3.636,6.248,6.248,0,0,1-2.52,2.412A7.534,7.534,0,0,1,355.456,25.192Zm0-3.552a2.674,2.674,0,0,0,2-.864,3.433,3.433,0,0,0,.828-2.472,3.5,3.5,0,0,0-.8-2.472,2.727,2.727,0,0,0-3.972-.012,3.522,3.522,0,0,0-.792,2.484,3.566,3.566,0,0,0,.78,2.472A2.524,2.524,0,0,0,355.456,21.64ZM378.52,11.608V25h-4.1V23.176a4.5,4.5,0,0,1-1.692,1.428,5.163,5.163,0,0,1-2.364.54,5.3,5.3,0,0,1-2.712-.684,4.612,4.612,0,0,1-1.824-1.98,6.738,6.738,0,0,1-.648-3.048V11.608h4.08V18.88a2.939,2.939,0,0,0,.7,2.088,2.44,2.44,0,0,0,1.872.744,2.47,2.47,0,0,0,1.9-.744,2.939,2.939,0,0,0,.7-2.088V11.608Zm16.8,9.912V25h-2.088a5.111,5.111,0,0,1-3.48-1.092,4.513,4.513,0,0,1-1.248-3.564V15.016h-1.632V11.608H388.5V8.344h4.1v3.264H395.3v3.408h-2.688v5.376a1.125,1.125,0,0,0,.288.864,1.406,1.406,0,0,0,.96.264Zm9.024,3.672a7.392,7.392,0,0,1-3.54-.84,6.151,6.151,0,0,1-2.472-2.4,7.171,7.171,0,0,1-.9-3.648,7.114,7.114,0,0,1,.912-3.636,6.188,6.188,0,0,1,2.5-2.412,7.93,7.93,0,0,1,7.1,0,6.188,6.188,0,0,1,2.5,2.412,7.114,7.114,0,0,1,.912,3.636,7.041,7.041,0,0,1-.924,3.636,6.248,6.248,0,0,1-2.52,2.412A7.534,7.534,0,0,1,404.344,25.192Zm0-3.552a2.674,2.674,0,0,0,2-.864,3.433,3.433,0,0,0,.828-2.472,3.5,3.5,0,0,0-.8-2.472,2.727,2.727,0,0,0-3.972-.012,3.522,3.522,0,0,0-.792,2.484,3.566,3.566,0,0,0,.78,2.472A2.524,2.524,0,0,0,404.344,21.64Zm19.68-8.136a4.223,4.223,0,0,1,1.656-1.512,5.172,5.172,0,0,1,2.472-.576,5.545,5.545,0,0,1,3,.84,5.818,5.818,0,0,1,2.124,2.4,8,8,0,0,1,.78,3.624,8.08,8.08,0,0,1-.78,3.636,5.887,5.887,0,0,1-2.124,2.424,5.487,5.487,0,0,1-3,.852,5.172,5.172,0,0,1-2.472-.564,4.361,4.361,0,0,1-1.656-1.5V25h-4.1V7.24h4.1Zm5.856,4.776a3.313,3.313,0,0,0-.852-2.412,2.814,2.814,0,0,0-2.1-.876,2.768,2.768,0,0,0-2.076.888A3.355,3.355,0,0,0,424,18.3a3.355,3.355,0,0,0,.852,2.424,2.871,2.871,0,0,0,4.164-.012A3.37,3.37,0,0,0,429.88,18.28Zm19.608-.192a10.476,10.476,0,0,1-.072,1.2h-9.288a2.791,2.791,0,0,0,.8,1.908,2.456,2.456,0,0,0,1.74.66,2.157,2.157,0,0,0,2.136-1.3h4.368a5.994,5.994,0,0,1-1.212,2.376,6.068,6.068,0,0,1-2.2,1.656,7.054,7.054,0,0,1-2.952.6,7.183,7.183,0,0,1-3.5-.84,5.975,5.975,0,0,1-2.4-2.4,7.409,7.409,0,0,1-.864-3.648,7.494,7.494,0,0,1,.852-3.648,5.9,5.9,0,0,1,2.388-2.4,7.234,7.234,0,0,1,3.528-.84,7.161,7.161,0,0,1,3.456.816,5.859,5.859,0,0,1,2.364,2.328A7.066,7.066,0,0,1,449.488,18.088Zm-4.2-1.08a2.11,2.11,0,0,0-.72-1.68,2.65,2.65,0,0,0-1.8-.624,2.6,2.6,0,0,0-1.74.6,2.665,2.665,0,0,0-.876,1.7Zm16.848-3.5a4.455,4.455,0,0,1,1.656-1.512,5.084,5.084,0,0,1,2.472-.576,5.545,5.545,0,0,1,3,.84,5.818,5.818,0,0,1,2.124,2.4,8,8,0,0,1,.78,3.624,8.08,8.08,0,0,1-.78,3.636,5.887,5.887,0,0,1-2.124,2.424,5.487,5.487,0,0,1-3,.852,5.1,5.1,0,0,1-2.46-.576,4.51,4.51,0,0,1-1.668-1.488v8.256h-4.1V11.608h4.1Zm5.856,4.776a3.313,3.313,0,0,0-.852-2.412,2.814,2.814,0,0,0-2.1-.876,2.768,2.768,0,0,0-2.076.888,3.355,3.355,0,0,0-.852,2.424,3.355,3.355,0,0,0,.852,2.424,2.871,2.871,0,0,0,4.164-.012A3.37,3.37,0,0,0,467.992,18.28Zm19.608-.192a10.476,10.476,0,0,1-.072,1.2H478.24a2.791,2.791,0,0,0,.8,1.908,2.456,2.456,0,0,0,1.74.66,2.157,2.157,0,0,0,2.136-1.3h4.368a5.994,5.994,0,0,1-1.212,2.376,6.068,6.068,0,0,1-2.2,1.656,7.054,7.054,0,0,1-2.952.6,7.183,7.183,0,0,1-3.5-.84,5.975,5.975,0,0,1-2.4-2.4,7.409,7.409,0,0,1-.864-3.648,7.494,7.494,0,0,1,.852-3.648,5.9,5.9,0,0,1,2.388-2.4,7.234,7.234,0,0,1,3.528-.84,7.161,7.161,0,0,1,3.456.816,5.859,5.859,0,0,1,2.364,2.328A7.066,7.066,0,0,1,487.6,18.088Zm-4.2-1.08a2.11,2.11,0,0,0-.72-1.68,2.65,2.65,0,0,0-1.8-.624,2.6,2.6,0,0,0-1.74.6,2.665,2.665,0,0,0-.876,1.7Zm11.112-3.168a5.414,5.414,0,0,1,1.8-1.74,4.642,4.642,0,0,1,2.4-.636v4.344h-1.128a3.458,3.458,0,0,0-2.3.66,2.932,2.932,0,0,0-.768,2.316V25h-4.1V11.608h4.1Zm13.536,1.176H505.84V25h-4.1V15.016h-1.488V11.608h1.488v-.384a4.813,4.813,0,0,1,1.416-3.756A5.988,5.988,0,0,1,507.3,6.184q.456,0,.672.024v3.48a2.355,2.355,0,0,0-1.656.336,1.848,1.848,0,0,0-.48,1.464v.12h2.208Zm15.192,3.072a10.482,10.482,0,0,1-.072,1.2H513.88a2.791,2.791,0,0,0,.8,1.908,2.456,2.456,0,0,0,1.74.66,2.157,2.157,0,0,0,2.136-1.3h4.368a5.993,5.993,0,0,1-1.212,2.376,6.068,6.068,0,0,1-2.2,1.656,7.054,7.054,0,0,1-2.952.6,7.183,7.183,0,0,1-3.5-.84,5.975,5.975,0,0,1-2.4-2.4A7.409,7.409,0,0,1,509.8,18.3a7.494,7.494,0,0,1,.852-3.648,5.9,5.9,0,0,1,2.388-2.4,7.234,7.234,0,0,1,3.528-.84,7.161,7.161,0,0,1,3.456.816,5.859,5.859,0,0,1,2.364,2.328A7.066,7.066,0,0,1,523.24,18.088Zm-4.2-1.08a2.11,2.11,0,0,0-.72-1.68,2.65,2.65,0,0,0-1.8-.624,2.6,2.6,0,0,0-1.74.6,2.665,2.665,0,0,0-.876,1.7Zm6.192,1.3a7.494,7.494,0,0,1,.852-3.648,5.917,5.917,0,0,1,2.376-2.4,7.114,7.114,0,0,1,3.492-.84,6.639,6.639,0,0,1,4.212,1.32,6.228,6.228,0,0,1,2.22,3.72h-4.368a2.1,2.1,0,0,0-2.136-1.536,2.153,2.153,0,0,0-1.8.876,4.052,4.052,0,0,0-.672,2.508,4.052,4.052,0,0,0,.672,2.508,2.153,2.153,0,0,0,1.8.876,2.1,2.1,0,0,0,2.136-1.536h4.368a6.287,6.287,0,0,1-2.232,3.7,6.572,6.572,0,0,1-4.2,1.344,7.114,7.114,0,0,1-3.492-.84,5.917,5.917,0,0,1-2.376-2.4A7.494,7.494,0,0,1,525.232,18.3ZM548.68,21.52V25h-2.088a5.111,5.111,0,0,1-3.48-1.092,4.513,4.513,0,0,1-1.248-3.564V15.016h-1.632V11.608h1.632V8.344h4.1v3.264h2.688v3.408h-2.688v5.376a1.125,1.125,0,0,0,.288.864,1.406,1.406,0,0,0,.96.264Zm4.848,3.672a2.487,2.487,0,0,1-1.764-.636,2.061,2.061,0,0,1-.684-1.572,2.125,2.125,0,0,1,.684-1.608,2.461,2.461,0,0,1,1.764-.648,2.428,2.428,0,0,1,1.74.648,2.125,2.125,0,0,1,.684,1.608,2.061,2.061,0,0,1-.684,1.572A2.455,2.455,0,0,1,553.528,25.192ZM576.88,8.152V11.44h-4.464V25h-4.1V11.44h-4.464V8.152Zm10.944,3.312a4.765,4.765,0,0,1,3.7,1.524,5.977,5.977,0,0,1,1.392,4.188V25h-4.08V17.728a2.939,2.939,0,0,0-.7-2.088,2.727,2.727,0,0,0-3.744,0,2.939,2.939,0,0,0-.7,2.088V25h-4.1V7.24h4.1v6.168a4.387,4.387,0,0,1,1.7-1.416A5.446,5.446,0,0,1,587.824,11.464Zm21.216,6.624a10.469,10.469,0,0,1-.072,1.2H599.68a2.791,2.791,0,0,0,.8,1.908,2.456,2.456,0,0,0,1.74.66,2.157,2.157,0,0,0,2.136-1.3h4.368a5.994,5.994,0,0,1-1.212,2.376,6.069,6.069,0,0,1-2.2,1.656,7.054,7.054,0,0,1-2.952.6,7.183,7.183,0,0,1-3.5-.84,5.975,5.975,0,0,1-2.4-2.4A7.41,7.41,0,0,1,595.6,18.3a7.494,7.494,0,0,1,.852-3.648,5.9,5.9,0,0,1,2.388-2.4,7.234,7.234,0,0,1,3.528-.84,7.161,7.161,0,0,1,3.456.816,5.859,5.859,0,0,1,2.364,2.328A7.066,7.066,0,0,1,609.04,18.088Zm-4.2-1.08a2.11,2.11,0,0,0-.72-1.68,2.65,2.65,0,0,0-1.8-.624,2.6,2.6,0,0,0-1.74.6,2.665,2.665,0,0,0-.876,1.7Zm20.688-5.4-8.4,19.752h-4.416l3.072-6.816-5.448-12.936h4.584l3.1,8.376,3.072-8.376Zm7.056,6.672a8,8,0,0,1,.78-3.624,5.818,5.818,0,0,1,2.124-2.4,5.545,5.545,0,0,1,3-.84,5.269,5.269,0,0,1,2.412.552,4.395,4.395,0,0,1,1.716,1.488V7.24h4.1V25h-4.1V23.08a4.181,4.181,0,0,1-1.644,1.536,5.153,5.153,0,0,1-2.484.576,5.487,5.487,0,0,1-3-.852,5.887,5.887,0,0,1-2.124-2.424A8.08,8.08,0,0,1,632.584,18.28Zm10.032.024a3.355,3.355,0,0,0-.852-2.424,2.884,2.884,0,0,0-4.152-.012,3.313,3.313,0,0,0-.852,2.412,3.4,3.4,0,0,0,.852,2.436,2.857,2.857,0,0,0,4.152.012A3.355,3.355,0,0,0,642.616,18.3Zm13.824,6.888a7.392,7.392,0,0,1-3.54-.84,6.15,6.15,0,0,1-2.472-2.4,7.171,7.171,0,0,1-.9-3.648,7.114,7.114,0,0,1,.912-3.636,6.188,6.188,0,0,1,2.5-2.412,7.93,7.93,0,0,1,7.1,0,6.188,6.188,0,0,1,2.5,2.412,7.114,7.114,0,0,1,.912,3.636,7.041,7.041,0,0,1-.924,3.636A6.248,6.248,0,0,1,660,24.352,7.534,7.534,0,0,1,656.44,25.192Zm0-3.552a2.674,2.674,0,0,0,2-.864,3.432,3.432,0,0,0,.828-2.472,3.5,3.5,0,0,0-.8-2.472,2.727,2.727,0,0,0-3.972-.012A3.522,3.522,0,0,0,653.7,18.3a3.566,3.566,0,0,0,.78,2.472A2.524,2.524,0,0,0,656.44,21.64ZM70.756,53.088a10.477,10.477,0,0,1-.072,1.2H61.4a2.791,2.791,0,0,0,.8,1.908,2.456,2.456,0,0,0,1.74.66,2.157,2.157,0,0,0,2.136-1.3h4.368a5.994,5.994,0,0,1-1.212,2.376,6.068,6.068,0,0,1-2.2,1.656,7.054,7.054,0,0,1-2.952.6,7.183,7.183,0,0,1-3.5-.84,5.975,5.975,0,0,1-2.4-2.4,7.409,7.409,0,0,1-.864-3.648,7.494,7.494,0,0,1,.852-3.648,5.9,5.9,0,0,1,2.388-2.4,7.234,7.234,0,0,1,3.528-.84,7.161,7.161,0,0,1,3.456.816A5.859,5.859,0,0,1,69.9,49.56,7.066,7.066,0,0,1,70.756,53.088Zm-4.2-1.08a2.11,2.11,0,0,0-.72-1.68,2.65,2.65,0,0,0-1.8-.624,2.6,2.6,0,0,0-1.74.6,2.665,2.665,0,0,0-.876,1.7ZM81.484,60l-2.568-3.72L76.756,60h-4.44l4.416-6.84L72.2,46.608H76.8l2.568,3.7,2.16-3.7h4.44l-4.488,6.744L86.092,60ZM92.428,48.5a4.455,4.455,0,0,1,1.656-1.512,5.084,5.084,0,0,1,2.472-.576,5.545,5.545,0,0,1,3,.84,5.818,5.818,0,0,1,2.124,2.4,8.837,8.837,0,0,1,0,7.26,5.888,5.888,0,0,1-2.124,2.424,5.487,5.487,0,0,1-3,.852,5.1,5.1,0,0,1-2.46-.576,4.51,4.51,0,0,1-1.668-1.488v8.256h-4.1V46.608h4.1Zm5.856,4.776a3.313,3.313,0,0,0-.852-2.412,2.814,2.814,0,0,0-2.1-.876,2.768,2.768,0,0,0-2.076.888,3.874,3.874,0,0,0,0,4.848,2.871,2.871,0,0,0,4.164-.012A3.37,3.37,0,0,0,98.284,53.28Zm19.608-.192a10.477,10.477,0,0,1-.072,1.2h-9.288a2.791,2.791,0,0,0,.8,1.908,2.456,2.456,0,0,0,1.74.66,2.157,2.157,0,0,0,2.136-1.3h4.368a5.994,5.994,0,0,1-1.212,2.376,6.068,6.068,0,0,1-2.2,1.656,7.054,7.054,0,0,1-2.952.6,7.183,7.183,0,0,1-3.5-.84,5.975,5.975,0,0,1-2.4-2.4,7.409,7.409,0,0,1-.864-3.648,7.494,7.494,0,0,1,.852-3.648,5.9,5.9,0,0,1,2.388-2.4,7.234,7.234,0,0,1,3.528-.84,7.161,7.161,0,0,1,3.456.816,5.859,5.859,0,0,1,2.364,2.328A7.066,7.066,0,0,1,117.892,53.088Zm-4.2-1.08a2.11,2.11,0,0,0-.72-1.68,2.65,2.65,0,0,0-1.8-.624,2.6,2.6,0,0,0-1.74.6,2.665,2.665,0,0,0-.876,1.7Zm6.192,1.3a7.494,7.494,0,0,1,.852-3.648,5.918,5.918,0,0,1,2.376-2.4,7.114,7.114,0,0,1,3.492-.84,6.64,6.64,0,0,1,4.212,1.32,6.228,6.228,0,0,1,2.22,3.72h-4.368a2.1,2.1,0,0,0-2.136-1.536,2.153,2.153,0,0,0-1.8.876,5.016,5.016,0,0,0,0,5.016,2.153,2.153,0,0,0,1.8.876,2.1,2.1,0,0,0,2.136-1.536h4.368a6.287,6.287,0,0,1-2.232,3.7,6.572,6.572,0,0,1-4.2,1.344,7.114,7.114,0,0,1-3.492-.84,5.918,5.918,0,0,1-2.376-2.4A7.494,7.494,0,0,1,119.884,53.3Zm23.448,3.216V60h-2.088a5.111,5.111,0,0,1-3.48-1.092,4.513,4.513,0,0,1-1.248-3.564V50.016h-1.632V46.608h1.632V43.344h4.1v3.264h2.688v3.408H140.62v5.376a1.125,1.125,0,0,0,.288.864,1.406,1.406,0,0,0,.96.264Zm22.344-9.912-8.4,19.752H152.86l3.072-6.816-5.448-12.936h4.584l3.1,8.376,3.072-8.376Zm8.232,13.584a7.392,7.392,0,0,1-3.54-.84,6.151,6.151,0,0,1-2.472-2.4,7.773,7.773,0,0,1,.012-7.284,6.188,6.188,0,0,1,2.5-2.412,7.93,7.93,0,0,1,7.1,0,6.188,6.188,0,0,1,2.5,2.412,7.114,7.114,0,0,1,.912,3.636,7.041,7.041,0,0,1-.924,3.636,6.248,6.248,0,0,1-2.52,2.412A7.533,7.533,0,0,1,173.908,60.192Zm0-3.552a2.674,2.674,0,0,0,2-.864,3.432,3.432,0,0,0,.828-2.472,3.5,3.5,0,0,0-.8-2.472,2.727,2.727,0,0,0-3.972-.012,3.522,3.522,0,0,0-.792,2.484,3.565,3.565,0,0,0,.78,2.472A2.524,2.524,0,0,0,173.908,56.64Zm23.064-10.032V60h-4.1V58.176a4.5,4.5,0,0,1-1.692,1.428,5.163,5.163,0,0,1-2.364.54,5.3,5.3,0,0,1-2.712-.684,4.612,4.612,0,0,1-1.824-1.98,6.738,6.738,0,0,1-.648-3.048V46.608h4.08V53.88a2.939,2.939,0,0,0,.7,2.088,2.44,2.44,0,0,0,1.872.744,2.47,2.47,0,0,0,1.9-.744,2.939,2.939,0,0,0,.7-2.088V46.608Zm16.8,9.912V60h-2.088a5.111,5.111,0,0,1-3.48-1.092,4.513,4.513,0,0,1-1.248-3.564V50.016h-1.632V46.608h1.632V43.344h4.1v3.264h2.688v3.408H211.06v5.376a1.125,1.125,0,0,0,.288.864,1.406,1.406,0,0,0,.96.264Zm9.024,3.672a7.392,7.392,0,0,1-3.54-.84,6.151,6.151,0,0,1-2.472-2.4,7.773,7.773,0,0,1,.012-7.284,6.188,6.188,0,0,1,2.5-2.412,7.93,7.93,0,0,1,7.1,0,6.188,6.188,0,0,1,2.5,2.412A7.114,7.114,0,0,1,229.8,53.3a7.041,7.041,0,0,1-.924,3.636,6.248,6.248,0,0,1-2.52,2.412A7.533,7.533,0,0,1,222.8,60.192Zm0-3.552a2.674,2.674,0,0,0,2-.864,3.432,3.432,0,0,0,.828-2.472,3.5,3.5,0,0,0-.8-2.472,2.727,2.727,0,0,0-3.972-.012,3.522,3.522,0,0,0-.792,2.484,3.565,3.565,0,0,0,.78,2.472A2.524,2.524,0,0,0,222.8,56.64Zm22.3-6.624h-2.208V60h-4.1V50.016h-1.488V46.608h1.488v-.384a4.813,4.813,0,0,1,1.416-3.756,5.988,5.988,0,0,1,4.152-1.284q.456,0,.672.024v3.48a2.355,2.355,0,0,0-1.656.336,1.848,1.848,0,0,0-.48,1.464v.12h2.208Zm4.632-4.8a2.487,2.487,0,0,1-1.764-.636,2.061,2.061,0,0,1-.684-1.572,2.088,2.088,0,0,1,.684-1.6,2.487,2.487,0,0,1,1.764-.636,2.455,2.455,0,0,1,1.74.636,2.088,2.088,0,0,1,.684,1.6,2.061,2.061,0,0,1-.684,1.572A2.455,2.455,0,0,1,249.724,45.216Zm2.04,1.392V60h-4.1V46.608ZM263.308,60l-2.568-3.72L258.58,60h-4.44l4.416-6.84-4.536-6.552h4.608l2.568,3.7,2.16-3.7h4.44l-4.488,6.744L267.916,60Zm20.04-3.48V60H281.26a5.111,5.111,0,0,1-3.48-1.092,4.513,4.513,0,0,1-1.248-3.564V50.016H274.9V46.608h1.632V43.344h4.1v3.264h2.688v3.408h-2.688v5.376a1.125,1.125,0,0,0,.288.864,1.406,1.406,0,0,0,.96.264Zm11.16-10.056a4.765,4.765,0,0,1,3.7,1.524,5.976,5.976,0,0,1,1.392,4.188V60h-4.08V52.728a2.939,2.939,0,0,0-.7-2.088,2.727,2.727,0,0,0-3.744,0,2.939,2.939,0,0,0-.7,2.088V60h-4.1V42.24h4.1v6.168a4.386,4.386,0,0,1,1.7-1.416A5.446,5.446,0,0,1,294.508,46.464Zm10.656-1.248a2.487,2.487,0,0,1-1.764-.636,2.061,2.061,0,0,1-.684-1.572,2.088,2.088,0,0,1,.684-1.6,2.487,2.487,0,0,1,1.764-.636,2.455,2.455,0,0,1,1.74.636,2.088,2.088,0,0,1,.684,1.6,2.061,2.061,0,0,1-.684,1.572A2.455,2.455,0,0,1,305.164,45.216Zm2.04,1.392V60h-4.1V46.608Zm11.784-.144a4.86,4.86,0,0,1,3.756,1.524,5.944,5.944,0,0,1,1.4,4.188V60h-4.08V52.728a2.939,2.939,0,0,0-.7-2.088,2.727,2.727,0,0,0-3.744,0,2.939,2.939,0,0,0-.7,2.088V60h-4.1V46.608h4.1v1.776a4.329,4.329,0,0,1,1.68-1.4A5.341,5.341,0,0,1,318.988,46.464Zm13.752-.048a5.154,5.154,0,0,1,2.484.576,4.243,4.243,0,0,1,1.644,1.512v-1.9h4.1V59.976a7.532,7.532,0,0,1-.732,3.348,5.579,5.579,0,0,1-2.232,2.388,7.22,7.22,0,0,1-3.732.888,7.762,7.762,0,0,1-4.824-1.4,5.3,5.3,0,0,1-2.112-3.8H331.4a1.942,1.942,0,0,0,.912,1.212,3.324,3.324,0,0,0,1.776.444,2.792,2.792,0,0,0,2.028-.732,3.14,3.14,0,0,0,.756-2.34v-1.9a4.552,4.552,0,0,1-1.656,1.524,5,5,0,0,1-2.472.588,5.487,5.487,0,0,1-3-.852,5.887,5.887,0,0,1-2.124-2.424,8.837,8.837,0,0,1,0-7.26,5.818,5.818,0,0,1,2.124-2.4A5.545,5.545,0,0,1,332.74,46.416Zm4.128,6.888a3.355,3.355,0,0,0-.852-2.424,2.884,2.884,0,0,0-4.152-.012,3.313,3.313,0,0,0-.852,2.412,3.4,3.4,0,0,0,.852,2.436,2.857,2.857,0,0,0,4.152.012A3.355,3.355,0,0,0,336.868,53.3Zm13.176,6.888a7.7,7.7,0,0,1-3.12-.6,5.328,5.328,0,0,1-2.16-1.644,4.324,4.324,0,0,1-.888-2.34h4.056a1.559,1.559,0,0,0,.648,1.128,2.293,2.293,0,0,0,1.416.432,2.021,2.021,0,0,0,1.188-.3.919.919,0,0,0,.42-.78.9.9,0,0,0-.6-.852,12.121,12.121,0,0,0-1.944-.612,18.251,18.251,0,0,1-2.4-.708A4.147,4.147,0,0,1,345,52.74a3.2,3.2,0,0,1-.7-2.172,3.688,3.688,0,0,1,.636-2.1,4.282,4.282,0,0,1,1.872-1.5,7.168,7.168,0,0,1,2.94-.552,5.894,5.894,0,0,1,3.972,1.248,4.856,4.856,0,0,1,1.668,3.312H351.6a1.634,1.634,0,0,0-.612-1.1,2.123,2.123,0,0,0-1.356-.408,1.875,1.875,0,0,0-1.1.276.881.881,0,0,0-.384.756.923.923,0,0,0,.612.864,9.8,9.8,0,0,0,1.908.576,20.873,20.873,0,0,1,2.424.756,4.181,4.181,0,0,1,1.644,1.2,3.4,3.4,0,0,1,.732,2.22,3.524,3.524,0,0,1-.66,2.1,4.365,4.365,0,0,1-1.9,1.452A7.251,7.251,0,0,1,350.044,60.192ZM383.6,46.608,379.972,60h-4.536l-2.112-8.688L371.14,60h-4.512L362.98,46.608h4.1l1.9,9.576,2.256-9.576h4.344l2.28,9.528,1.872-9.528Zm10.44-.144a4.765,4.765,0,0,1,3.7,1.524,5.976,5.976,0,0,1,1.392,4.188V60h-4.08V52.728a2.939,2.939,0,0,0-.7-2.088,2.727,2.727,0,0,0-3.744,0,2.939,2.939,0,0,0-.7,2.088V60h-4.1V42.24h4.1v6.168a4.386,4.386,0,0,1,1.7-1.416A5.446,5.446,0,0,1,394.036,46.464Zm21.216,6.624a10.476,10.476,0,0,1-.072,1.2h-9.288a2.791,2.791,0,0,0,.8,1.908,2.456,2.456,0,0,0,1.74.66,2.157,2.157,0,0,0,2.136-1.3h4.368a5.994,5.994,0,0,1-1.212,2.376,6.068,6.068,0,0,1-2.2,1.656,7.054,7.054,0,0,1-2.952.6,7.183,7.183,0,0,1-3.5-.84,5.975,5.975,0,0,1-2.4-2.4,7.409,7.409,0,0,1-.864-3.648,7.494,7.494,0,0,1,.852-3.648,5.9,5.9,0,0,1,2.388-2.4,7.234,7.234,0,0,1,3.528-.84,7.161,7.161,0,0,1,3.456.816A5.859,5.859,0,0,1,414.4,49.56,7.066,7.066,0,0,1,415.252,53.088Zm-4.2-1.08a2.11,2.11,0,0,0-.72-1.68,2.65,2.65,0,0,0-1.8-.624,2.6,2.6,0,0,0-1.74.6,2.665,2.665,0,0,0-.876,1.7Zm15.168-5.544a4.86,4.86,0,0,1,3.756,1.524,5.944,5.944,0,0,1,1.4,4.188V60H427.3V52.728a2.939,2.939,0,0,0-.7-2.088,2.727,2.727,0,0,0-3.744,0,2.939,2.939,0,0,0-.7,2.088V60h-4.1V46.608h4.1v1.776a4.329,4.329,0,0,1,1.68-1.4A5.341,5.341,0,0,1,426.22,46.464ZM448.084,56.52V60H446a5.111,5.111,0,0,1-3.48-1.092,4.513,4.513,0,0,1-1.248-3.564V50.016h-1.632V46.608h1.632V43.344h4.1v3.264h2.688v3.408h-2.688v5.376a1.125,1.125,0,0,0,.288.864,1.406,1.406,0,0,0,.96.264Zm11.16-10.056a4.765,4.765,0,0,1,3.7,1.524,5.976,5.976,0,0,1,1.392,4.188V60h-4.08V52.728a2.939,2.939,0,0,0-.7-2.088,2.727,2.727,0,0,0-3.744,0,2.939,2.939,0,0,0-.7,2.088V60h-4.1V42.24h4.1v6.168a4.386,4.386,0,0,1,1.7-1.416A5.446,5.446,0,0,1,459.244,46.464Zm21.216,6.624a10.476,10.476,0,0,1-.072,1.2H471.1a2.791,2.791,0,0,0,.8,1.908,2.456,2.456,0,0,0,1.74.66,2.157,2.157,0,0,0,2.136-1.3h4.368a5.994,5.994,0,0,1-1.212,2.376,6.068,6.068,0,0,1-2.2,1.656,7.054,7.054,0,0,1-2.952.6,7.183,7.183,0,0,1-3.5-.84,5.975,5.975,0,0,1-2.4-2.4,7.409,7.409,0,0,1-.864-3.648,7.494,7.494,0,0,1,.852-3.648,5.9,5.9,0,0,1,2.388-2.4,7.234,7.234,0,0,1,3.528-.84,7.161,7.161,0,0,1,3.456.816,5.859,5.859,0,0,1,2.364,2.328A7.066,7.066,0,0,1,480.46,53.088Zm-4.2-1.08a2.11,2.11,0,0,0-.72-1.68,2.65,2.65,0,0,0-1.8-.624,2.6,2.6,0,0,0-1.74.6,2.665,2.665,0,0,0-.876,1.7Zm20.688-5.4-8.4,19.752h-4.416l3.072-6.816-5.448-12.936h4.584l3.1,8.376,3.072-8.376Zm12.96-.192a5.154,5.154,0,0,1,2.484.576,4.243,4.243,0,0,1,1.644,1.512v-1.9h4.1V59.976a7.533,7.533,0,0,1-.732,3.348,5.578,5.578,0,0,1-2.232,2.388,7.22,7.22,0,0,1-3.732.888,7.762,7.762,0,0,1-4.824-1.4,5.3,5.3,0,0,1-2.112-3.8h4.056a1.942,1.942,0,0,0,.912,1.212,3.324,3.324,0,0,0,1.776.444,2.791,2.791,0,0,0,2.028-.732,3.14,3.14,0,0,0,.756-2.34v-1.9A4.551,4.551,0,0,1,512.38,59.6a5,5,0,0,1-2.472.588,5.487,5.487,0,0,1-3-.852,5.887,5.887,0,0,1-2.124-2.424,8.837,8.837,0,0,1,0-7.26,5.818,5.818,0,0,1,2.124-2.4A5.545,5.545,0,0,1,509.908,46.416Zm4.128,6.888a3.355,3.355,0,0,0-.852-2.424,2.884,2.884,0,0,0-4.152-.012,3.313,3.313,0,0,0-.852,2.412,3.4,3.4,0,0,0,.852,2.436,2.857,2.857,0,0,0,4.152.012A3.355,3.355,0,0,0,514.036,53.3Zm13.824,6.888a7.392,7.392,0,0,1-3.54-.84,6.15,6.15,0,0,1-2.472-2.4,7.773,7.773,0,0,1,.012-7.284,6.188,6.188,0,0,1,2.5-2.412,7.93,7.93,0,0,1,7.1,0,6.188,6.188,0,0,1,2.5,2.412,7.114,7.114,0,0,1,.912,3.636,7.041,7.041,0,0,1-.924,3.636,6.248,6.248,0,0,1-2.52,2.412A7.534,7.534,0,0,1,527.86,60.192Zm0-3.552a2.674,2.674,0,0,0,2-.864,3.432,3.432,0,0,0,.828-2.472,3.5,3.5,0,0,0-.8-2.472,2.727,2.727,0,0,0-3.972-.012,3.522,3.522,0,0,0-.792,2.484,3.566,3.566,0,0,0,.78,2.472A2.524,2.524,0,0,0,527.86,56.64Zm34.8-10.032L559.036,60H554.5l-2.112-8.688L550.2,60h-4.512l-3.648-13.392h4.1l1.9,9.576,2.256-9.576h4.344l2.28,9.528,1.872-9.528Zm6.312,2.232a5.414,5.414,0,0,1,1.8-1.74,4.641,4.641,0,0,1,2.4-.636v4.344h-1.128a3.458,3.458,0,0,0-2.3.66,2.932,2.932,0,0,0-.768,2.316V60h-4.1V46.608h4.1Zm12.912,11.352a7.392,7.392,0,0,1-3.54-.84,6.15,6.15,0,0,1-2.472-2.4,7.773,7.773,0,0,1,.012-7.284,6.188,6.188,0,0,1,2.5-2.412,7.93,7.93,0,0,1,7.1,0,6.188,6.188,0,0,1,2.5,2.412,7.114,7.114,0,0,1,.912,3.636,7.041,7.041,0,0,1-.924,3.636,6.248,6.248,0,0,1-2.52,2.412A7.534,7.534,0,0,1,581.884,60.192Zm0-3.552a2.674,2.674,0,0,0,2-.864,3.432,3.432,0,0,0,.828-2.472,3.5,3.5,0,0,0-.8-2.472,2.727,2.727,0,0,0-3.972-.012,3.522,3.522,0,0,0-.792,2.484,3.566,3.566,0,0,0,.78,2.472A2.524,2.524,0,0,0,581.884,56.64Zm18-10.176a4.86,4.86,0,0,1,3.756,1.524,5.944,5.944,0,0,1,1.4,4.188V60h-4.08V52.728a2.939,2.939,0,0,0-.7-2.088,2.727,2.727,0,0,0-3.744,0,2.939,2.939,0,0,0-.7,2.088V60h-4.1V46.608h4.1v1.776a4.33,4.33,0,0,1,1.68-1.4A5.341,5.341,0,0,1,599.884,46.464Zm13.752-.048a5.154,5.154,0,0,1,2.484.576,4.243,4.243,0,0,1,1.644,1.512v-1.9h4.1V59.976a7.533,7.533,0,0,1-.732,3.348,5.578,5.578,0,0,1-2.232,2.388,7.22,7.22,0,0,1-3.732.888,7.762,7.762,0,0,1-4.824-1.4,5.3,5.3,0,0,1-2.112-3.8h4.056A1.942,1.942,0,0,0,613.2,62.6a3.324,3.324,0,0,0,1.776.444,2.792,2.792,0,0,0,2.028-.732,3.14,3.14,0,0,0,.756-2.34v-1.9a4.551,4.551,0,0,1-1.656,1.524,5,5,0,0,1-2.472.588,5.487,5.487,0,0,1-3-.852,5.887,5.887,0,0,1-2.124-2.424,8.836,8.836,0,0,1,0-7.26,5.818,5.818,0,0,1,2.124-2.4A5.545,5.545,0,0,1,613.636,46.416Zm4.128,6.888a3.355,3.355,0,0,0-.852-2.424,2.884,2.884,0,0,0-4.152-.012,3.313,3.313,0,0,0-.852,2.412,3.4,3.4,0,0,0,.852,2.436,2.857,2.857,0,0,0,4.152.012A3.355,3.355,0,0,0,617.764,53.3Z" transform="translate(2375 8311)" fill="#404040"/>
    <path id="Path_8620" data-name="Path 8620" d="M19.364-75.465c-1.287-1.4-3.393-2.106-6.084-2.106-1.638-.117-3.159,1.872-3.978,4.329a3.775,3.775,0,0,0-1.17-2.223c-1.287-1.4-3.51-2.106-6.2-2.106-3.978-.117-7.488,12.4-1.17,13.689.468,0,.468.351.234.7a12.112,12.112,0,0,1-3.861,4.8c-.351.351-.351.7.234.7,4.8,0,9.36-2.691,11.349-10.3a4.361,4.361,0,0,0,3.393,4.1c.351,0,.351.351.234.7a13.208,13.208,0,0,1-3.861,4.8c-.468.351-.351.7.234.7,4.914,0,9.711-2.925,11.466-11.349C20.768-71.37,21.236-73.593,19.364-75.465Z" transform="translate(3011 8456.576)"/>
    <path id="Path_8621" data-name="Path 8621" d="M-1.77-59.792c1.287,1.4,3.393,2.106,6.084,2.106,1.638.117,3.159-1.872,3.978-4.329a3.775,3.775,0,0,0,1.17,2.223c1.287,1.4,3.51,2.106,6.2,2.106,3.978.117,7.488-12.4,1.17-13.689-.468,0-.468-.351-.234-.7a12.112,12.112,0,0,1,3.861-4.8c.351-.351.351-.7-.234-.7-4.8,0-9.36,2.691-11.349,10.3a4.361,4.361,0,0,0-3.393-4.095c-.351,0-.351-.351-.234-.7a13.208,13.208,0,0,1,3.861-4.8c.468-.351.351-.7-.234-.7-4.914,0-9.711,2.925-11.466,11.349C-3.174-63.887-3.642-61.664-1.77-59.792Z" transform="translate(2366.105 8368.682)"/>
  </g>
</svg>
