<svg width="97" height="80" viewBox="0 0 97 80" fill="none" xmlns="http://www.w3.org/2000/svg">
<rect width="97" height="80" rx="22" fill="#0E82FF"/>
<path d="M34.0105 65.1264C32.6809 65.1264 31.3654 64.9407 30.1008 64.5737C29.8203 64.4924 29.6592 64.1995 29.7405 63.919C29.8218 63.6391 30.1147 63.4784 30.3947 63.5588C31.564 63.8979 32.78 64.0696 34.0099 64.0696C41.1583 64.0696 46.9741 58.2589 46.9741 51.1165C46.9741 43.9681 41.1582 38.1523 34.0099 38.1523C26.8673 38.1523 21.0568 43.9682 21.0568 51.1165C21.0568 54.6414 22.447 57.9368 24.9708 60.3957C25.1796 60.5992 25.1839 60.9335 24.9805 61.1427C24.777 61.352 24.4427 61.3563 24.2334 61.1523C21.5037 58.4928 20 54.9285 20 51.1164C20 43.3856 26.2849 37.0957 34.0096 37.0957C41.7405 37.0957 48.0304 43.3854 48.0304 51.1164C48.0313 58.842 41.7421 65.1261 34.0109 65.1261L34.0105 65.1264Z" fill="white" stroke="white" stroke-width="0.778059"/>
<path d="M34.0108 65.127C30.9881 65.127 28.1112 64.1789 25.6921 62.3843C25.5579 62.2847 25.4785 62.1274 25.4785 61.96V54.6019C25.4785 54.3845 25.6118 54.1897 25.8138 54.1103L30.5782 52.24C30.8259 52.1429 31.1068 52.2449 31.2343 52.4781L32.878 55.4777L33.6375 54.7182C33.8386 54.5171 34.1633 54.5114 34.3711 54.7052L35.0546 55.3426L36.8103 52.4569C36.9435 52.2376 37.2158 52.1457 37.4544 52.2399L42.1713 54.0914C42.4426 54.1981 42.5768 54.5046 42.47 54.7763C42.3632 55.0481 42.0568 55.1818 41.7855 55.075L37.4824 53.3857L35.6204 56.446C35.5376 56.5816 35.3986 56.673 35.2413 56.6946C35.0836 56.7158 34.9253 56.6658 34.8089 56.5575L34.0239 55.8259L33.1268 56.723C33.0094 56.8409 32.843 56.8952 32.6785 56.8726C32.514 56.849 32.3701 56.7495 32.2903 56.6037L30.5317 53.3935L26.5355 54.962V61.691C28.7265 63.249 31.3052 64.0706 34.0114 64.0706C36.7248 64.0706 39.3074 63.2485 41.4985 61.691V61.1528C41.4985 60.8613 41.7351 60.6246 42.0266 60.6246C42.3181 60.6246 42.5548 60.8613 42.5548 61.1528V61.9604C42.5548 62.1278 42.4754 62.2851 42.3412 62.3846C39.9218 64.1788 37.0414 65.127 34.011 65.127L34.0108 65.127Z" fill="white" stroke="white" stroke-width="0.778059"/>
<path d="M28.701 64.0468C28.4095 64.0468 28.1729 63.8102 28.1729 63.5187V56.784C28.1729 56.4925 28.4095 56.2559 28.701 56.2559C28.9925 56.2559 29.2292 56.4925 29.2292 56.784V63.5187C29.2287 63.8102 28.9925 64.0468 28.701 64.0468Z" fill="white" stroke="white" stroke-width="0.778059"/>
<path d="M39.3202 64.0468C39.0287 64.0468 38.792 63.8102 38.792 63.5187V56.784C38.792 56.4925 39.0287 56.2559 39.3202 56.2559C39.6116 56.2559 39.8483 56.4925 39.8483 56.784V63.5187C39.8483 63.8102 39.6116 64.0468 39.3202 64.0468Z" fill="white" stroke="white" stroke-width="0.778059"/>
<path d="M34.0872 51.9898C31.089 51.9898 29.584 47.9613 29.584 45.7059C29.584 43.2229 31.6042 41.2031 34.0872 41.2031C36.5639 41.2031 38.5785 43.2229 38.5785 45.7059C38.5785 47.8989 37.0359 51.9898 34.0872 51.9898ZM34.0872 42.2593C32.1867 42.2593 30.6408 43.8053 30.6408 45.7057C30.6408 47.549 31.9491 50.9334 34.0872 50.9334C36.2182 50.9334 37.5222 47.5485 37.5222 45.7057C37.5222 43.8052 35.9815 42.2593 34.0872 42.2593Z" fill="white" stroke="white" stroke-width="0.778059"/>
<path d="M37.0935 45.3199C36.003 45.3199 34.966 44.9942 34.1732 44.4026C33.9395 44.228 33.8913 43.897 34.066 43.6633C34.2406 43.4295 34.5715 43.3819 34.8053 43.556C35.408 44.0057 36.2421 44.264 37.094 44.264C37.3744 44.264 37.649 44.226 37.8568 44.1929C38.145 44.1467 38.4158 44.3429 38.4615 44.6315C38.5072 44.9197 38.3114 45.19 38.0233 45.2362C37.776 45.2747 37.448 45.3199 37.0935 45.3199L37.0935 45.3199Z" fill="white" stroke="white" stroke-width="0.778059"/>
<path d="M31.9953 45.2426C31.3508 45.2426 30.7264 45.13 30.1386 44.9082C29.8659 44.8053 29.7283 44.5003 29.8308 44.2276C29.9337 43.9549 30.2392 43.8173 30.5114 43.9202C30.9732 44.0944 31.4859 44.1867 31.9949 44.1867C33.6275 44.1867 35.0065 43.2661 35.0065 42.1766C35.0065 41.8851 35.2432 41.6484 35.5347 41.6484C35.8262 41.6484 36.0628 41.8851 36.0628 42.1766C36.0633 43.8958 34.2763 45.2425 31.9954 45.2425L31.9953 45.2426Z" fill="white" stroke="white" stroke-width="0.778059"/>
<path d="M35.1676 56.6983C35.0348 56.6983 34.9059 56.6483 34.8073 56.5564L33.6495 55.477C33.4537 55.2947 33.4253 54.9946 33.5836 54.7786L35.9208 51.5837C36.0093 51.4625 36.1454 51.3846 36.2946 51.3697C36.4441 51.3552 36.5928 51.4043 36.7034 51.5058L37.6169 52.3408C37.803 52.5111 37.8429 52.7896 37.7116 53.0051L35.6187 56.4444C35.536 56.5801 35.397 56.6715 35.2397 56.6931C35.2152 56.6965 35.1911 56.6984 35.1676 56.6984L35.1676 56.6983ZM34.7125 55.0239L35.0531 55.3413L36.5832 52.8271L36.4255 52.6827L34.7125 55.0239Z" fill="white" stroke="white" stroke-width="0.778059"/>
<path d="M32.7531 56.8761C32.7281 56.8761 32.7031 56.8742 32.6781 56.8708C32.5136 56.8472 32.3698 56.7476 32.2899 56.6019L30.3081 52.9842C30.1917 52.7716 30.235 52.5075 30.4125 52.343L31.3139 51.5079C31.4245 51.4055 31.5727 51.3545 31.7232 51.3699C31.8733 51.3843 32.0099 51.4622 32.0989 51.5839L34.4371 54.7788C34.591 54.989 34.5684 55.28 34.3842 55.4643L33.1263 56.7221C33.0267 56.8212 32.8921 56.8761 32.753 56.8761L32.7531 56.8761ZM31.4322 52.8375L32.8776 55.4759L33.3173 55.0362L31.5966 52.685L31.4322 52.8375Z" fill="white" stroke="white" stroke-width="0.778059"/>
<path d="M63.5551 65.1264C62.2256 65.1264 60.9104 64.9407 59.6464 64.5737C59.3665 64.4924 59.2048 64.1995 59.2861 63.9195C59.3674 63.6396 59.6604 63.4784 59.9403 63.5592C61.1092 63.8979 62.3252 64.0696 63.5551 64.0696C70.704 64.0696 76.5193 58.2589 76.5193 51.1165C76.5193 43.9681 70.7034 38.1523 63.5551 38.1523C56.413 38.1523 50.6032 43.9682 50.6032 51.1165C50.6032 54.6414 51.9933 57.9373 54.5172 60.3962C54.7264 60.5997 54.7308 60.934 54.5268 61.1432C54.3229 61.3525 53.9886 61.3568 53.7798 61.1528C51.05 58.4933 49.5469 54.929 49.5469 51.1164C49.5469 43.3856 55.8308 37.0957 63.5553 37.0957C71.2861 37.0957 77.576 43.3854 77.576 51.1164C77.5755 58.842 71.2858 65.1261 63.5553 65.1261L63.5551 65.1264Z" fill="white" stroke="white" stroke-width="0.778059"/>
<path d="M63.5552 65.127C60.533 65.127 57.6566 64.1789 55.237 62.3843C55.1028 62.2847 55.0234 62.1274 55.0234 61.96V54.6019C55.0234 54.3845 55.1562 54.1897 55.3587 54.1103L60.1236 52.24C60.3709 52.1429 60.6523 52.2449 60.7802 52.4781L62.4229 55.4777L63.1819 54.7182C63.3835 54.5166 63.7077 54.5113 63.9155 54.7052L64.599 55.3426L66.3547 52.4569C66.488 52.2376 66.7598 52.1457 66.9988 52.2399L71.7166 54.0914C71.9879 54.1981 72.1216 54.5046 72.0153 54.7763C71.9085 55.0476 71.6021 55.1818 71.3303 55.075L67.0262 53.3857L65.1642 56.446C65.0815 56.5816 64.9424 56.673 64.7852 56.6946C64.6274 56.7158 64.4691 56.6658 64.3527 56.5575L63.5682 55.8259L62.6711 56.723C62.5532 56.8409 62.3863 56.8952 62.2228 56.8726C62.0583 56.849 61.9145 56.7495 61.8341 56.6032L60.0766 53.3935L56.0798 54.962V61.691C58.2708 63.249 60.8495 64.0706 63.5553 64.0706C66.2687 64.0706 68.8513 63.2485 71.0423 61.691V61.1537C71.0423 60.8622 71.279 60.6256 71.5705 60.6256C71.862 60.6256 72.0986 60.8622 72.0986 61.1537V61.9604C72.0986 62.1278 72.0192 62.2851 71.885 62.3846C69.4656 64.1788 66.5852 65.127 63.5552 65.127L63.5552 65.127Z" fill="white" stroke="white" stroke-width="0.778059"/>
<path d="M58.2567 64.0468C57.9652 64.0468 57.7285 63.8102 57.7285 63.5187V56.784C57.7285 56.4925 57.9652 56.2559 58.2567 56.2559C58.5482 56.2559 58.7848 56.4925 58.7848 56.784V63.5187C58.7848 63.8102 58.5482 64.0468 58.2567 64.0468Z" fill="white" stroke="white" stroke-width="0.778059"/>
<path d="M68.867 64.0468C68.5755 64.0468 68.3389 63.8102 68.3389 63.5187V56.784C68.3389 56.4925 68.5755 56.2559 68.867 56.2559C69.1585 56.2559 69.3952 56.4925 69.3952 56.784V63.5187C69.3957 63.8102 69.159 64.0468 68.867 64.0468Z" fill="white" stroke="white" stroke-width="0.778059"/>
<path d="M63.6331 51.9898C60.6773 51.9898 59.1309 47.8987 59.1309 45.7059C59.1309 43.2229 61.1506 41.2031 63.6331 41.2031C66.1156 41.2031 68.135 43.2229 68.135 45.7059C68.135 47.8989 66.589 51.9898 63.6331 51.9898ZM63.6331 42.2593C61.7331 42.2593 60.1872 43.8053 60.1872 45.7057C60.1872 47.549 61.4955 50.9334 63.6331 50.9334C65.7707 50.9334 67.0786 47.5485 67.0786 45.7057C67.079 43.8052 65.533 42.2593 63.6331 42.2593Z" fill="white" stroke="white" stroke-width="0.778059"/>
<path d="M66.6403 45.3198C65.56 45.3198 64.4979 44.9845 63.7268 44.4001C63.494 44.2236 63.4488 43.8926 63.6249 43.6603C63.8009 43.428 64.1323 43.3823 64.3647 43.5583C64.9558 44.0066 65.7856 44.2635 66.6403 44.2635C66.8606 44.2635 67.0891 44.2423 67.4032 44.1923C67.6903 44.1461 67.9616 44.3429 68.0078 44.631C68.0535 44.9191 67.8573 45.1894 67.5691 45.2356C67.3219 45.2746 66.9929 45.3198 66.6403 45.3198L66.6403 45.3198Z" fill="white" stroke="white" stroke-width="0.778059"/>
<path d="M61.5415 45.2426C60.8979 45.2426 60.2735 45.13 59.6853 44.9082C59.4125 44.8053 59.275 44.5003 59.3779 44.2276C59.4808 43.9549 59.7853 43.8173 60.0585 43.9202C60.5203 44.0944 61.0331 44.1867 61.5415 44.1867C63.1746 44.1867 64.5536 43.2661 64.5536 42.1766C64.5536 41.8851 64.7903 41.6484 65.0818 41.6484C65.3733 41.6484 65.61 41.8851 65.61 42.1766C65.61 43.8958 63.8225 45.2425 61.5415 45.2425L61.5415 45.2426Z" fill="white" stroke="white" stroke-width="0.778059"/>
<path d="M64.7135 56.6978C64.5807 56.6978 64.4518 56.6478 64.3532 56.5559L63.1954 55.4765C62.9996 55.2942 62.9712 54.9941 63.1295 54.7781L65.4677 51.5832C65.5562 51.462 65.6923 51.3841 65.8419 51.3697C65.9915 51.3552 66.1402 51.4043 66.2508 51.5058L67.1628 52.3408C67.3489 52.5111 67.3884 52.7891 67.2575 53.0051L65.1647 56.4444C65.0819 56.5801 64.9429 56.6715 64.7856 56.6931C64.7611 56.696 64.737 56.6979 64.7135 56.6979L64.7135 56.6978ZM64.2584 55.0234L64.599 55.3408L66.1291 52.8261L65.9719 52.6818L64.2584 55.0234Z" fill="white" stroke="white" stroke-width="0.778059"/>
<path d="M62.298 56.8764C62.273 56.8764 62.248 56.8745 62.223 56.8711C62.0585 56.8476 61.9147 56.748 61.8343 56.6018L59.853 52.984C59.7366 52.7714 59.7799 52.5073 59.9574 52.3428L60.8588 51.5078C60.9694 51.4054 61.1195 51.3548 61.2682 51.3698C61.4182 51.3842 61.5548 51.4621 61.6438 51.5838L63.981 54.7787C64.1345 54.9889 64.1123 55.2799 63.9281 55.4641L62.6707 56.722C62.5716 56.8216 62.4374 56.8764 62.298 56.8764L62.298 56.8764ZM60.9781 52.8378L62.423 55.4762L62.8622 55.037L61.142 52.6858L60.9781 52.8378Z" fill="white" stroke="white" stroke-width="0.778059"/>
<path d="M48.7051 39.0301C47.3741 39.0301 46.0571 38.8439 44.7906 38.4764C44.5102 38.3951 44.3491 38.1022 44.4304 37.8218C44.5117 37.5418 44.8046 37.3807 45.085 37.4615C46.2563 37.8011 47.4742 37.9738 48.7056 37.9738C55.8545 37.9738 61.6698 32.163 61.6698 25.0207C61.6698 17.8723 55.8542 12.0565 48.7056 12.0565C41.5572 12.0565 35.7414 17.872 35.7414 25.0207C35.7414 28.5446 37.133 31.8396 39.6602 34.299C39.8695 34.5025 39.8738 34.8368 39.6703 35.046C39.4669 35.2548 39.1325 35.2596 38.9233 35.0562C36.1897 32.3957 34.6846 28.8318 34.6846 25.0207C34.6846 17.2899 40.9743 11 48.7053 11C56.4363 11 62.726 17.2897 62.726 25.0207C62.726 32.7453 56.4363 39.0304 48.7053 39.0304L48.7051 39.0301Z" fill="white" stroke="white" stroke-width="0.778059"/>
<path d="M48.704 39.0313C45.6923 39.0313 42.813 38.0875 40.3761 36.302C40.2405 36.2024 40.1602 36.0441 40.1602 35.8758V28.5061C40.1602 28.2887 40.2929 28.0939 40.4954 28.0145L45.2603 26.1443C45.5081 26.0471 45.789 26.1491 45.9164 26.3824L47.5606 29.3854L48.3322 28.6211C48.5337 28.4214 48.8569 28.4161 49.0643 28.61L49.7473 29.2473L51.503 26.3612C51.6363 26.1418 51.9085 26.05 52.1476 26.1442L56.8529 27.9957C57.1242 28.1024 57.2579 28.4089 57.1511 28.6806C57.0443 28.9519 56.7379 29.0856 56.4662 28.9789L52.1745 27.2905L50.3125 30.3508C50.2302 30.4864 50.0907 30.5778 49.9335 30.5994C49.7762 30.6211 49.6174 30.5706 49.501 30.4624L48.715 29.7288L47.8064 30.6297C47.6886 30.7466 47.5221 30.801 47.3586 30.7774C47.1946 30.7534 47.0507 30.6538 46.9714 30.5085L45.2138 27.2983L41.217 28.8668V35.6054C43.4244 37.1572 46.0074 37.9754 48.7041 37.9754C51.4035 37.9754 53.9827 37.1572 56.1805 35.6059V35.0566C56.1805 34.7651 56.4172 34.5284 56.7087 34.5284C57.0002 34.5284 57.2368 34.7651 57.2368 35.0566V35.8762C57.2368 36.0441 57.157 36.2019 57.0218 36.3015C54.5956 38.0875 51.7192 39.0312 48.7041 39.0312L48.704 39.0313Z" fill="white" stroke="white" stroke-width="0.778059"/>
<path d="M43.3954 37.9521C43.1039 37.9521 42.8672 37.7155 42.8672 37.424V30.6883C42.8672 30.3968 43.1039 30.1602 43.3954 30.1602C43.6868 30.1602 43.9235 30.3968 43.9235 30.6883V37.424C43.9235 37.7155 43.6868 37.9521 43.3954 37.9521Z" fill="white" stroke="white" stroke-width="0.778059"/>
<path d="M54.0155 37.9521C53.724 37.9521 53.4873 37.7155 53.4873 37.424V30.6883C53.4873 30.3968 53.724 30.1602 54.0155 30.1602C54.307 30.1602 54.5436 30.3968 54.5436 30.6883V37.424C54.5436 37.7155 54.3074 37.9521 54.0155 37.9521Z" fill="white" stroke="white" stroke-width="0.778059"/>
<path d="M48.7716 25.8951C45.7811 25.8951 44.2803 21.8666 44.2803 19.6116C44.2803 17.1291 46.2952 15.1094 48.7716 15.1094C51.2546 15.1094 53.2748 17.1291 53.2748 19.6116C53.2748 21.8666 51.7701 25.8951 48.7716 25.8951ZM48.7716 16.166C46.8773 16.166 45.3366 17.7121 45.3366 19.612C45.3366 21.4548 46.6406 24.8392 48.7716 24.8392C51.002 24.8392 52.2185 21.3859 52.2185 19.612C52.2185 17.7114 50.672 16.166 48.7716 16.166Z" fill="white" stroke="white" stroke-width="0.778059"/>
<path d="M51.7879 19.2269C50.6662 19.2269 49.6262 18.8989 48.8595 18.3029C48.6291 18.124 48.5873 17.7921 48.7667 17.5617C48.9456 17.3312 49.2775 17.2894 49.5079 17.4688C50.0818 17.9147 50.9134 18.1706 51.7885 18.1706C52.0622 18.1706 52.3003 18.149 52.5162 18.1038C52.801 18.0441 53.0814 18.2279 53.1406 18.5136C53.1998 18.7993 53.0165 19.0788 52.7308 19.1379C52.4431 19.1976 52.1348 19.2269 51.788 19.2269L51.7879 19.2269Z" fill="white" stroke="white" stroke-width="0.778059"/>
<path d="M46.6798 19.1494C46.0555 19.1494 45.4196 19.0383 44.8408 18.8276C44.5667 18.7281 44.4252 18.425 44.5253 18.1509C44.6249 17.8767 44.9279 17.7353 45.2021 17.8353C45.6663 18.0041 46.1771 18.0936 46.6798 18.0936C48.3186 18.0936 49.703 17.1782 49.703 16.0946C49.703 15.8031 49.9396 15.5664 50.2311 15.5664C50.5226 15.5664 50.7593 15.8031 50.7593 16.0946C50.7593 17.7786 48.9296 19.1495 46.6798 19.1495L46.6798 19.1494Z" fill="white" stroke="white" stroke-width="0.778059"/>
<path d="M49.8637 30.6047C49.7309 30.6047 49.6015 30.5547 49.5034 30.4628L48.3456 29.3824C48.1498 29.2001 48.1219 28.9 48.2797 28.6845L50.6169 25.4896C50.7054 25.3684 50.8415 25.291 50.9906 25.276C51.1398 25.2611 51.2884 25.3107 51.3995 25.4117L52.313 26.2463C52.4996 26.4165 52.539 26.695 52.4077 26.9105L50.3148 30.3508C50.2326 30.4865 50.0931 30.5779 49.9358 30.5995C49.9113 30.6033 49.8872 30.6048 49.8636 30.6048L49.8637 30.6047ZM49.4091 28.9297L49.7497 29.2477L51.2798 26.7329L51.122 26.5886L49.4091 28.9297Z" fill="white" stroke="white" stroke-width="0.778059"/>
<path d="M47.4367 30.7821C47.4112 30.7821 47.3862 30.7802 47.3607 30.7768C47.1966 30.7528 47.0528 30.6532 46.9735 30.5079L44.9926 26.8897C44.8757 26.6761 44.92 26.4106 45.0994 26.2466L46.0119 25.412C46.1225 25.311 46.2717 25.2615 46.4208 25.2759C46.5704 25.2908 46.706 25.3683 46.795 25.4895L49.1332 28.6843C49.2876 28.895 49.2645 29.1875 49.0788 29.3712L47.8094 30.6296C47.7088 30.7277 47.5747 30.7821 47.4367 30.7821ZM46.1177 26.7455L47.5626 29.3848L48.0109 28.9404L46.2894 26.5882L46.1177 26.7455Z" fill="white" stroke="white" stroke-width="0.778059"/>
<path d="M48.1815 68.9999C43.2492 68.9999 38.4333 67.629 34.2556 65.0349C34.0079 64.881 33.9314 64.5554 34.0853 64.3076C34.2393 64.0599 34.5649 63.9834 34.8126 64.1374C38.8233 66.6271 43.4464 67.9436 48.1819 67.9436C52.9613 67.9436 57.6305 66.6011 61.683 64.0609C61.9303 63.9065 62.2564 63.981 62.4108 64.2278C62.5657 64.475 62.4911 64.8012 62.2439 64.9556C58.0225 67.6016 53.1595 69 48.1813 69L48.1815 68.9999Z" fill="white" stroke="white" stroke-width="0.778059"/>
<path d="M74.0988 43.2168C73.8073 43.2168 73.5706 42.9801 73.5706 42.6886V42.5438C73.5706 33.5816 68.7696 25.1946 61.0411 20.6557C60.7896 20.508 60.7054 20.1843 60.8531 19.9327C61.0007 19.6812 61.324 19.597 61.576 19.7447C65.4781 22.0357 68.7479 25.3134 71.0323 29.2226C73.3845 33.2478 74.6279 37.854 74.6279 42.5439V42.6887C74.6274 42.9802 74.3912 43.2169 74.0992 43.2169L74.0988 43.2168Z" fill="white" stroke="white" stroke-width="0.778059"/>
<path d="M22.3323 44.8973C22.0581 44.8973 21.8268 44.6856 21.8061 44.4081C21.7604 43.7928 21.7373 43.1651 21.7373 42.5431C21.7373 37.5799 23.1216 32.7419 25.7403 28.5519C28.2897 24.4734 31.8978 21.1645 36.175 18.9836C36.4347 18.8508 36.7527 18.9547 36.8854 19.214C37.0182 19.4737 36.9148 19.7917 36.655 19.9244C28.1049 24.2843 22.7932 32.9514 22.7932 42.5428C22.7932 43.1393 22.8153 43.7401 22.8591 44.3298C22.8807 44.6208 22.6623 44.8738 22.3713 44.8955C22.3583 44.8965 22.3449 44.8969 22.3319 44.8969L22.3323 44.8973Z" fill="white" stroke="white" stroke-width="0.778059"/>
</svg>
