<svg width="92" height="92" viewBox="0 0 92 92" fill="none" xmlns="http://www.w3.org/2000/svg">
<rect width="92" height="92" rx="22" fill="#0E82FF"/>
<path d="M31.0105 71.1264C29.6809 71.1264 28.3654 70.9407 27.1008 70.5737C26.8203 70.4924 26.6592 70.1995 26.7405 69.919C26.8218 69.6391 27.1147 69.4784 27.3947 69.5588C28.564 69.8979 29.78 70.0696 31.0099 70.0696C38.1583 70.0696 43.9741 64.2589 43.9741 57.1165C43.9741 49.9681 38.1582 44.1523 31.0099 44.1523C23.8673 44.1523 18.0568 49.9682 18.0568 57.1165C18.0568 60.6414 19.447 63.9368 21.9708 66.3957C22.1796 66.5992 22.1839 66.9335 21.9805 67.1427C21.777 67.352 21.4427 67.3563 21.2334 67.1523C18.5037 64.4928 17 60.9285 17 57.1164C17 49.3856 23.2849 43.0957 31.0096 43.0957C38.7405 43.0957 45.0304 49.3854 45.0304 57.1164C45.0313 64.842 38.7421 71.1261 31.0109 71.1261L31.0105 71.1264Z" fill="white" stroke="white" stroke-width="0.778059"/>
<path d="M31.0108 71.127C27.9881 71.127 25.1112 70.1789 22.6921 68.3843C22.5579 68.2847 22.4785 68.1274 22.4785 67.96V60.6019C22.4785 60.3845 22.6118 60.1897 22.8138 60.1103L27.5782 58.24C27.8259 58.1429 28.1068 58.2449 28.2343 58.4781L29.878 61.4777L30.6375 60.7182C30.8386 60.5171 31.1633 60.5114 31.3711 60.7052L32.0546 61.3426L33.8103 58.4569C33.9435 58.2376 34.2158 58.1457 34.4544 58.2399L39.1713 60.0914C39.4426 60.1981 39.5768 60.5046 39.47 60.7763C39.3632 61.0481 39.0568 61.1818 38.7855 61.075L34.4824 59.3857L32.6204 62.446C32.5376 62.5816 32.3986 62.673 32.2413 62.6946C32.0836 62.7158 31.9253 62.6658 31.8089 62.5575L31.0239 61.8259L30.1268 62.723C30.0094 62.8409 29.843 62.8952 29.6785 62.8726C29.514 62.849 29.3701 62.7495 29.2903 62.6037L27.5317 59.3935L23.5355 60.962V67.691C25.7265 69.249 28.3052 70.0706 31.0114 70.0706C33.7248 70.0706 36.3074 69.2485 38.4985 67.691V67.1528C38.4985 66.8613 38.7351 66.6246 39.0266 66.6246C39.3181 66.6246 39.5548 66.8613 39.5548 67.1528V67.9604C39.5548 68.1278 39.4754 68.2851 39.3412 68.3846C36.9218 70.1788 34.0414 71.127 31.011 71.127L31.0108 71.127Z" fill="white" stroke="white" stroke-width="0.778059"/>
<path d="M25.701 70.0468C25.4095 70.0468 25.1729 69.8102 25.1729 69.5187V62.784C25.1729 62.4925 25.4095 62.2559 25.701 62.2559C25.9925 62.2559 26.2292 62.4925 26.2292 62.784V69.5187C26.2287 69.8102 25.9925 70.0468 25.701 70.0468Z" fill="white" stroke="white" stroke-width="0.778059"/>
<path d="M36.3202 70.0468C36.0287 70.0468 35.792 69.8102 35.792 69.5187V62.784C35.792 62.4925 36.0287 62.2559 36.3202 62.2559C36.6116 62.2559 36.8483 62.4925 36.8483 62.784V69.5187C36.8483 69.8102 36.6116 70.0468 36.3202 70.0468Z" fill="white" stroke="white" stroke-width="0.778059"/>
<path d="M31.0877 57.9898C28.0895 57.9898 26.5845 53.9613 26.5845 51.7059C26.5845 49.2229 28.6047 47.2031 31.0877 47.2031C33.5644 47.2031 35.579 49.2229 35.579 51.7059C35.579 53.8989 34.0364 57.9898 31.0877 57.9898ZM31.0877 48.2593C29.1872 48.2593 27.6413 49.8053 27.6413 51.7057C27.6413 53.549 28.9496 56.9334 31.0877 56.9334C33.2186 56.9334 34.5227 53.5485 34.5227 51.7057C34.5227 49.8052 32.982 48.2593 31.0877 48.2593Z" fill="white" stroke="white" stroke-width="0.778059"/>
<path d="M34.0935 51.3199C33.003 51.3199 31.966 50.9942 31.1732 50.4026C30.9395 50.228 30.8913 49.897 31.066 49.6633C31.2406 49.4295 31.5715 49.3819 31.8053 49.556C32.408 50.0057 33.2421 50.264 34.094 50.264C34.3744 50.264 34.649 50.226 34.8568 50.1929C35.145 50.1467 35.4158 50.3429 35.4615 50.6315C35.5072 50.9197 35.3114 51.19 35.0233 51.2362C34.776 51.2747 34.448 51.3199 34.0935 51.3199L34.0935 51.3199Z" fill="white" stroke="white" stroke-width="0.778059"/>
<path d="M28.9958 51.2426C28.3513 51.2426 27.7269 51.13 27.1391 50.9082C26.8664 50.8053 26.7288 50.5003 26.8313 50.2276C26.9342 49.9549 27.2396 49.8173 27.5119 49.9202C27.9737 50.0944 28.4864 50.1867 28.9954 50.1867C30.628 50.1867 32.007 49.2661 32.007 48.1766C32.007 47.8851 32.2437 47.6484 32.5352 47.6484C32.8267 47.6484 33.0633 47.8851 33.0633 48.1766C33.0638 49.8958 31.2768 51.2425 28.9959 51.2425L28.9958 51.2426Z" fill="white" stroke="white" stroke-width="0.778059"/>
<path d="M32.1676 62.6983C32.0348 62.6983 31.9059 62.6483 31.8073 62.5564L30.6495 61.477C30.4537 61.2947 30.4253 60.9946 30.5836 60.7786L32.9208 57.5837C33.0093 57.4625 33.1454 57.3846 33.2946 57.3697C33.4441 57.3552 33.5928 57.4043 33.7034 57.5058L34.6169 58.3408C34.803 58.5111 34.8429 58.7896 34.7116 59.0051L32.6187 62.4444C32.536 62.5801 32.397 62.6715 32.2397 62.6931C32.2152 62.6965 32.1911 62.6984 32.1676 62.6984L32.1676 62.6983ZM31.7125 61.0239L32.0531 61.3413L33.5832 58.8271L33.4255 58.6827L31.7125 61.0239Z" fill="white" stroke="white" stroke-width="0.778059"/>
<path d="M29.7531 62.8761C29.7281 62.8761 29.7031 62.8742 29.6781 62.8708C29.5136 62.8472 29.3698 62.7476 29.2899 62.6019L27.3081 58.9842C27.1917 58.7716 27.235 58.5075 27.4125 58.343L28.3139 57.5079C28.4245 57.4055 28.5727 57.3545 28.7232 57.3699C28.8733 57.3843 29.0099 57.4622 29.0989 57.5839L31.4371 60.7788C31.591 60.989 31.5684 61.28 31.3842 61.4643L30.1263 62.7221C30.0267 62.8212 29.8921 62.8761 29.753 62.8761L29.7531 62.8761ZM28.4322 58.8375L29.8776 61.4759L30.3173 61.0362L28.5966 58.685L28.4322 58.8375Z" fill="white" stroke="white" stroke-width="0.778059"/>
<path d="M60.5556 71.1264C59.2261 71.1264 57.9109 70.9407 56.6469 70.5737C56.3669 70.4924 56.2053 70.1995 56.2866 69.9195C56.3679 69.6396 56.6608 69.4784 56.9408 69.5592C58.1097 69.8979 59.3256 70.0696 60.5556 70.0696C67.7045 70.0696 73.5198 64.2589 73.5198 57.1165C73.5198 49.9681 67.7038 44.1523 60.5556 44.1523C53.4134 44.1523 47.6037 49.9682 47.6037 57.1165C47.6037 60.6414 48.9938 63.9373 51.5177 66.3962C51.7269 66.5997 51.7313 66.934 51.5273 67.1432C51.3234 67.3525 50.9891 67.3568 50.7803 67.1528C48.0505 64.4933 46.5474 60.929 46.5474 57.1164C46.5474 49.3856 52.8313 43.0957 60.5558 43.0957C68.2866 43.0957 74.5765 49.3854 74.5765 57.1164C74.576 64.842 68.2863 71.1261 60.5558 71.1261L60.5556 71.1264Z" fill="white" stroke="white" stroke-width="0.778059"/>
<path d="M60.5552 71.127C57.533 71.127 54.6566 70.1789 52.237 68.3843C52.1028 68.2847 52.0234 68.1274 52.0234 67.96V60.6019C52.0234 60.3845 52.1562 60.1897 52.3587 60.1103L57.1236 58.24C57.3709 58.1429 57.6523 58.2449 57.7802 58.4781L59.4229 61.4777L60.1819 60.7182C60.3835 60.5166 60.7077 60.5113 60.9155 60.7052L61.599 61.3426L63.3547 58.4569C63.488 58.2376 63.7598 58.1457 63.9988 58.2399L68.7166 60.0914C68.9879 60.1981 69.1216 60.5046 69.0153 60.7763C68.9085 61.0476 68.6021 61.1818 68.3303 61.075L64.0262 59.3857L62.1642 62.446C62.0815 62.5816 61.9424 62.673 61.7852 62.6946C61.6274 62.7158 61.4691 62.6658 61.3527 62.5575L60.5682 61.8259L59.6711 62.723C59.5532 62.8409 59.3863 62.8952 59.2228 62.8726C59.0583 62.849 58.9145 62.7495 58.8341 62.6032L57.0766 59.3935L53.0798 60.962V67.691C55.2708 69.249 57.8495 70.0706 60.5553 70.0706C63.2687 70.0706 65.8513 69.2485 68.0423 67.691V67.1537C68.0423 66.8622 68.279 66.6256 68.5705 66.6256C68.862 66.6256 69.0986 66.8622 69.0986 67.1537V67.9604C69.0986 68.1278 69.0192 68.2851 68.885 68.3846C66.4656 70.1788 63.5852 71.127 60.5552 71.127L60.5552 71.127Z" fill="white" stroke="white" stroke-width="0.778059"/>
<path d="M55.2567 70.0468C54.9652 70.0468 54.7285 69.8102 54.7285 69.5187V62.784C54.7285 62.4925 54.9652 62.2559 55.2567 62.2559C55.5482 62.2559 55.7848 62.4925 55.7848 62.784V69.5187C55.7848 69.8102 55.5482 70.0468 55.2567 70.0468Z" fill="white" stroke="white" stroke-width="0.778059"/>
<path d="M65.8665 70.0468C65.575 70.0468 65.3384 69.8102 65.3384 69.5187V62.784C65.3384 62.4925 65.575 62.2559 65.8665 62.2559C66.158 62.2559 66.3947 62.4925 66.3947 62.784V69.5187C66.3952 69.8102 66.1585 70.0468 65.8665 70.0468Z" fill="white" stroke="white" stroke-width="0.778059"/>
<path d="M60.6331 57.9898C57.6773 57.9898 56.1309 53.8987 56.1309 51.7059C56.1309 49.2229 58.1506 47.2031 60.6331 47.2031C63.1156 47.2031 65.135 49.2229 65.135 51.7059C65.135 53.8989 63.589 57.9898 60.6331 57.9898ZM60.6331 48.2593C58.7331 48.2593 57.1872 49.8053 57.1872 51.7057C57.1872 53.549 58.4955 56.9334 60.6331 56.9334C62.7707 56.9334 64.0786 53.5485 64.0786 51.7057C64.079 49.8052 62.533 48.2593 60.6331 48.2593Z" fill="white" stroke="white" stroke-width="0.778059"/>
<path d="M63.6403 51.3198C62.56 51.3198 61.4979 50.9845 60.7268 50.4001C60.494 50.2236 60.4488 49.8926 60.6249 49.6603C60.8009 49.428 61.1323 49.3823 61.3647 49.5583C61.9558 50.0066 62.7856 50.2635 63.6403 50.2635C63.8606 50.2635 64.0891 50.2423 64.4032 50.1923C64.6903 50.1461 64.9616 50.3429 65.0078 50.631C65.0535 50.9191 64.8573 51.1894 64.5691 51.2356C64.3219 51.2746 63.9929 51.3198 63.6403 51.3198L63.6403 51.3198Z" fill="white" stroke="white" stroke-width="0.778059"/>
<path d="M58.5415 51.2426C57.8979 51.2426 57.2735 51.13 56.6853 50.9082C56.4125 50.8053 56.275 50.5003 56.3779 50.2276C56.4808 49.9549 56.7853 49.8173 57.0585 49.9202C57.5203 50.0944 58.0331 50.1867 58.5415 50.1867C60.1746 50.1867 61.5536 49.2661 61.5536 48.1766C61.5536 47.8851 61.7903 47.6484 62.0818 47.6484C62.3733 47.6484 62.61 47.8851 62.61 48.1766C62.61 49.8958 60.8225 51.2425 58.5415 51.2425L58.5415 51.2426Z" fill="white" stroke="white" stroke-width="0.778059"/>
<path d="M61.7135 62.6978C61.5807 62.6978 61.4518 62.6478 61.3532 62.5559L60.1954 61.4765C59.9996 61.2942 59.9712 60.9941 60.1295 60.7781L62.4677 57.5832C62.5562 57.462 62.6923 57.3841 62.8419 57.3697C62.9915 57.3552 63.1402 57.4043 63.2508 57.5058L64.1628 58.3408C64.3489 58.5111 64.3884 58.7891 64.2575 59.0051L62.1647 62.4444C62.0819 62.5801 61.9429 62.6715 61.7856 62.6931C61.7611 62.696 61.737 62.6979 61.7135 62.6979L61.7135 62.6978ZM61.2584 61.0234L61.599 61.3408L63.1291 58.8261L62.9719 58.6818L61.2584 61.0234Z" fill="white" stroke="white" stroke-width="0.778059"/>
<path d="M59.298 62.8764C59.273 62.8764 59.248 62.8745 59.223 62.8711C59.0585 62.8476 58.9147 62.748 58.8343 62.6018L56.853 58.984C56.7366 58.7714 56.7799 58.5073 56.9574 58.3428L57.8588 57.5078C57.9694 57.4054 58.1195 57.3548 58.2682 57.3698C58.4182 57.3842 58.5548 57.4621 58.6438 57.5838L60.981 60.7787C61.1345 60.9889 61.1123 61.2799 60.9281 61.4641L59.6707 62.722C59.5716 62.8216 59.4374 62.8764 59.298 62.8764L59.298 62.8764ZM57.9781 58.8378L59.423 61.4762L59.8622 61.037L58.142 58.6858L57.9781 58.8378Z" fill="white" stroke="white" stroke-width="0.778059"/>
<path d="M45.7051 45.0301C44.3741 45.0301 43.0571 44.8439 41.7906 44.4764C41.5102 44.3951 41.3491 44.1022 41.4304 43.8218C41.5117 43.5418 41.8046 43.3807 42.085 43.4615C43.2563 43.8011 44.4742 43.9738 45.7056 43.9738C52.8545 43.9738 58.6698 38.163 58.6698 31.0207C58.6698 23.8723 52.8542 18.0565 45.7056 18.0565C38.5572 18.0565 32.7414 23.872 32.7414 31.0207C32.7414 34.5446 34.133 37.8396 36.6602 40.299C36.8695 40.5025 36.8738 40.8368 36.6703 41.046C36.4669 41.2548 36.1325 41.2596 35.9233 41.0562C33.1897 38.3957 31.6846 34.8318 31.6846 31.0207C31.6846 23.2899 37.9743 17 45.7053 17C53.4363 17 59.726 23.2897 59.726 31.0207C59.726 38.7453 53.4363 45.0304 45.7053 45.0304L45.7051 45.0301Z" fill="white" stroke="white" stroke-width="0.778059"/>
<path d="M45.704 45.0313C42.6923 45.0313 39.813 44.0875 37.3761 42.302C37.2405 42.2024 37.1602 42.0441 37.1602 41.8758V34.5061C37.1602 34.2887 37.2929 34.0939 37.4954 34.0145L42.2603 32.1443C42.5081 32.0471 42.789 32.1491 42.9164 32.3824L44.5606 35.3854L45.3322 34.6211C45.5337 34.4214 45.8569 34.4161 46.0643 34.61L46.7473 35.2473L48.503 32.3612C48.6363 32.1418 48.9085 32.05 49.1476 32.1442L53.8529 33.9957C54.1242 34.1024 54.2579 34.4089 54.1511 34.6806C54.0443 34.9519 53.7379 35.0856 53.4662 34.9789L49.1745 33.2905L47.3125 36.3508C47.2302 36.4864 47.0907 36.5778 46.9335 36.5994C46.7762 36.6211 46.6174 36.5706 46.501 36.4624L45.715 35.7288L44.8064 36.6297C44.6886 36.7466 44.5221 36.801 44.3586 36.7774C44.1946 36.7534 44.0507 36.6538 43.9714 36.5085L42.2138 33.2983L38.217 34.8668V41.6054C40.4244 43.1572 43.0074 43.9754 45.7041 43.9754C48.4035 43.9754 50.9827 43.1572 53.1805 41.6059V41.0566C53.1805 40.7651 53.4172 40.5284 53.7087 40.5284C54.0002 40.5284 54.2368 40.7651 54.2368 41.0566V41.8762C54.2368 42.0441 54.157 42.2019 54.0218 42.3015C51.5956 44.0875 48.7192 45.0312 45.7041 45.0312L45.704 45.0313Z" fill="white" stroke="white" stroke-width="0.778059"/>
<path d="M40.3954 43.9521C40.1039 43.9521 39.8672 43.7155 39.8672 43.424V36.6883C39.8672 36.3968 40.1039 36.1602 40.3954 36.1602C40.6868 36.1602 40.9235 36.3968 40.9235 36.6883V43.424C40.9235 43.7155 40.6868 43.9521 40.3954 43.9521Z" fill="white" stroke="white" stroke-width="0.778059"/>
<path d="M51.016 43.9521C50.7245 43.9521 50.4878 43.7155 50.4878 43.424V36.6883C50.4878 36.3968 50.7245 36.1602 51.016 36.1602C51.3075 36.1602 51.5441 36.3968 51.5441 36.6883V43.424C51.5441 43.7155 51.3079 43.9521 51.016 43.9521Z" fill="white" stroke="white" stroke-width="0.778059"/>
<path d="M45.7716 31.8951C42.7811 31.8951 41.2803 27.8666 41.2803 25.6116C41.2803 23.1291 43.2952 21.1094 45.7716 21.1094C48.2546 21.1094 50.2748 23.1291 50.2748 25.6116C50.2748 27.8666 48.7701 31.8951 45.7716 31.8951ZM45.7716 22.166C43.8773 22.166 42.3366 23.7121 42.3366 25.612C42.3366 27.4548 43.6406 30.8392 45.7716 30.8392C48.002 30.8392 49.2185 27.3859 49.2185 25.612C49.2185 23.7114 47.672 22.166 45.7716 22.166Z" fill="white" stroke="white" stroke-width="0.778059"/>
<path d="M48.7879 25.2269C47.6662 25.2269 46.6262 24.8989 45.8595 24.3029C45.6291 24.124 45.5873 23.7921 45.7667 23.5617C45.9456 23.3312 46.2775 23.2894 46.5079 23.4688C47.0818 23.9147 47.9134 24.1706 48.7885 24.1706C49.0622 24.1706 49.3003 24.149 49.5162 24.1038C49.801 24.0441 50.0814 24.2279 50.1406 24.5136C50.1998 24.7993 50.0165 25.0788 49.7308 25.1379C49.4431 25.1976 49.1348 25.2269 48.788 25.2269L48.7879 25.2269Z" fill="white" stroke="white" stroke-width="0.778059"/>
<path d="M43.6793 25.1494C43.055 25.1494 42.4191 25.0383 41.8404 24.8276C41.5662 24.7281 41.4248 24.425 41.5248 24.1509C41.6244 23.8767 41.9274 23.7353 42.2016 23.8353C42.6658 24.0041 43.1766 24.0936 43.6793 24.0936C45.3182 24.0936 46.7025 23.1782 46.7025 22.0946C46.7025 21.8031 46.9392 21.5664 47.2307 21.5664C47.5221 21.5664 47.7588 21.8031 47.7588 22.0946C47.7588 23.7786 45.9291 25.1495 43.6793 25.1495L43.6793 25.1494Z" fill="white" stroke="white" stroke-width="0.778059"/>
<path d="M46.8632 36.6047C46.7304 36.6047 46.601 36.5547 46.5029 36.4628L45.3451 35.3824C45.1493 35.2001 45.1214 34.9 45.2792 34.6845L47.6164 31.4896C47.7049 31.3684 47.841 31.291 47.9902 31.276C48.1393 31.2611 48.2879 31.3107 48.399 31.4117L49.3125 32.2463C49.4991 32.4165 49.5385 32.695 49.4072 32.9105L47.3143 36.3508C47.2321 36.4865 47.0926 36.5779 46.9353 36.5995C46.9108 36.6033 46.8867 36.6048 46.8632 36.6048L46.8632 36.6047ZM46.4086 34.9297L46.7492 35.2477L48.2793 32.7329L48.1216 32.5886L46.4086 34.9297Z" fill="white" stroke="white" stroke-width="0.778059"/>
<path d="M44.4367 36.7821C44.4112 36.7821 44.3862 36.7802 44.3607 36.7768C44.1966 36.7528 44.0528 36.6532 43.9735 36.5079L41.9926 32.8897C41.8757 32.6761 41.92 32.4106 42.0994 32.2466L43.0119 31.412C43.1225 31.311 43.2717 31.2615 43.4208 31.2759C43.5704 31.2908 43.706 31.3683 43.795 31.4895L46.1332 34.6843C46.2876 34.895 46.2645 35.1875 46.0788 35.3712L44.8094 36.6296C44.7088 36.7277 44.5747 36.7821 44.4367 36.7821ZM43.1177 32.7455L44.5626 35.3848L45.0109 34.9404L43.2894 32.5882L43.1177 32.7455Z" fill="white" stroke="white" stroke-width="0.778059"/>
<path d="M45.1815 74.9999C40.2492 74.9999 35.4333 73.629 31.2556 71.0349C31.0079 70.881 30.9314 70.5554 31.0853 70.3076C31.2393 70.0599 31.5649 69.9834 31.8126 70.1374C35.8233 72.6271 40.4464 73.9436 45.1819 73.9436C49.9613 73.9436 54.6305 72.6011 58.683 70.0609C58.9303 69.9065 59.2564 69.981 59.4108 70.2278C59.5657 70.475 59.4911 70.8012 59.2439 70.9556C55.0225 73.6016 50.1595 75 45.1813 75L45.1815 74.9999Z" fill="white" stroke="white" stroke-width="0.778059"/>
<path d="M71.0988 49.2168C70.8073 49.2168 70.5706 48.9801 70.5706 48.6886V48.5438C70.5706 39.5816 65.7696 31.1946 58.0411 26.6557C57.7896 26.508 57.7054 26.1843 57.8531 25.9327C58.0007 25.6812 58.324 25.597 58.576 25.7447C62.4781 28.0357 65.7479 31.3134 68.0323 35.2226C70.3845 39.2478 71.6279 43.854 71.6279 48.5439V48.6887C71.6274 48.9802 71.3912 49.2169 71.0992 49.2169L71.0988 49.2168Z" fill="white" stroke="white" stroke-width="0.778059"/>
<path d="M19.3323 50.8973C19.0581 50.8973 18.8268 50.6856 18.8061 50.4081C18.7604 49.7928 18.7373 49.1651 18.7373 48.5431C18.7373 43.5799 20.1216 38.7419 22.7403 34.5519C25.2897 30.4734 28.8978 27.1645 33.175 24.9836C33.4347 24.8508 33.7527 24.9547 33.8854 25.214C34.0182 25.4737 33.9148 25.7917 33.655 25.9244C25.1049 30.2843 19.7932 38.9514 19.7932 48.5428C19.7932 49.1393 19.8153 49.7401 19.8591 50.3298C19.8807 50.6208 19.6623 50.8738 19.3713 50.8955C19.3583 50.8965 19.3449 50.8969 19.3319 50.8969L19.3323 50.8973Z" fill="white" stroke="white" stroke-width="0.778059"/>
</svg>
