<svg width="97" height="80" viewBox="0 0 97 80" fill="none" xmlns="http://www.w3.org/2000/svg">
<rect width="97" height="80" rx="22" fill="#FC1F49"/>
<path d="M63.4148 23.3437H67.7408V26.8118C67.7408 27.1858 68.0511 27.4961 68.4252 27.4961C68.7992 27.4961 69.1095 27.1858 69.1095 26.8118V22.6589C69.1095 22.2849 68.7992 21.9746 68.4252 21.9746H63.4148C63.0408 21.9746 62.7305 22.2849 62.7305 22.6589C62.7305 23.0334 63.0408 23.3437 63.4148 23.3437V23.3437Z" fill="white"/>
<path d="M68.4265 29.1465C68.0525 29.1465 67.7422 29.4568 67.7422 29.8308V30.7801C67.7422 31.1541 68.0525 31.4644 68.4265 31.4644C68.8005 31.4644 69.1109 31.1541 69.1109 30.7801V29.8308C69.1109 29.4568 68.8005 29.1465 68.4265 29.1465Z" fill="white"/>
<path d="M46.102 28.955C47.4803 28.955 48.7486 29.4115 49.7799 30.1687C50.8112 29.4111 52.08 28.955 53.4579 28.955C53.8227 28.955 54.188 28.9916 54.535 29.0553C54.5896 28.7725 54.6262 28.4806 54.6262 28.1881C54.6262 25.514 52.454 23.3418 49.7799 23.3418C47.1058 23.3418 44.9336 25.514 44.9336 28.1881C44.9336 28.4893 44.9703 28.7721 45.0248 29.0553C45.381 28.9916 45.7371 28.955 46.102 28.955H46.102Z" fill="white"/>
<path d="M54.0784 30.3801C53.8776 30.3526 53.6769 30.3164 53.4669 30.3164C52.4906 30.3164 51.5775 30.6176 50.8203 31.1103C51.2035 31.5577 51.523 32.0504 51.7696 32.589C52.7642 32.1504 53.5764 31.3565 54.0784 30.3802L54.0784 30.3801Z" fill="white"/>
<path d="M50.9481 35.1602C50.9481 34.859 50.9114 34.5762 50.8569 34.293C50.5099 34.3567 50.145 34.3934 49.7797 34.3934C49.4148 34.3934 49.0495 34.3567 48.7025 34.293C48.648 34.5758 48.6113 34.8678 48.6113 35.1602C48.6113 36.3557 49.0587 37.4327 49.7797 38.2724C50.5007 37.4327 50.9481 36.3555 50.9481 35.1602H50.9481Z" fill="white"/>
<path d="M46.1027 30.3243C45.8927 30.3243 45.692 30.361 45.4912 30.388C45.9931 31.3643 46.8053 32.1496 47.8092 32.6055C48.0558 32.067 48.3748 31.5742 48.7584 31.1268C47.9921 30.6162 47.0882 30.3242 46.1027 30.3242L46.1027 30.3243Z" fill="white"/>
<path d="M50.4006 32.9595C50.2274 32.6308 50.0266 32.3205 49.7892 32.0469C49.5518 32.3297 49.3418 32.6308 49.1777 32.9595C49.3785 32.987 49.5793 33.0232 49.7892 33.0232C49.9899 33.0236 50.1907 32.987 50.4006 32.9595Z" fill="white"/>
<path d="M52.1894 33.9111C52.2714 34.3126 52.3172 34.7325 52.3172 35.1707C52.3172 36.7131 51.7425 38.1275 50.8115 39.2139C51.5784 39.7158 52.4818 40.0078 53.4582 40.0078C56.1323 40.0078 58.3045 37.8356 58.3045 35.1615C58.3045 33.19 57.1183 31.5018 55.4296 30.7441C54.7902 32.1678 53.6315 33.2995 52.1895 33.911L52.1894 33.9111Z" fill="white"/>
<path d="M26.4258 34.8965H31.053V38.4648H26.4258V34.8965Z" fill="white"/>
<path d="M46.1026 40.0082C47.0789 40.0082 47.992 39.7071 48.7492 39.2143C47.8091 38.1285 47.2435 36.7136 47.2435 35.1711C47.2435 34.7421 47.2893 34.3222 47.3714 33.9116C45.9294 33.3093 44.7702 32.1685 44.1317 30.7539C42.443 31.5116 41.2568 33.1998 41.2568 35.1712C41.2655 37.8362 43.4377 40.0084 46.1027 40.0084L46.1026 40.0082Z" fill="white"/>
<path d="M74.9049 15.0004H23.0482C21.3688 15.0004 20 16.3695 20 18.0486V52.4191C20 54.0984 21.3691 55.4672 23.0482 55.4672H40.1882L39.3031 60.5418H35.3332C34.3569 60.5418 33.5626 61.3357 33.5626 62.3125V64.6396L22.884 64.64C22.51 64.64 22.1997 64.9503 22.1997 65.3244C22.1997 65.6989 22.51 66 22.884 66H75.9001C76.2741 66 76.5844 65.6897 76.5844 65.3157C76.5844 64.9416 76.2741 64.6313 75.9001 64.6313H64.4006V62.3042C64.4006 61.3279 63.6067 60.5335 62.6299 60.5335H58.66L57.7749 55.459H74.915C76.5944 55.459 77.9632 54.0898 77.9632 52.4108V18.0485C77.954 16.3691 76.5849 15 74.9053 15L74.9049 15.0004ZM25.0559 39.1493V19.3995C25.0559 19.0255 25.3662 18.7152 25.7402 18.7152H72.2215C72.5955 18.7152 72.9059 19.0255 72.9059 19.3995V44.087C72.9059 44.461 72.5955 44.7713 72.2215 44.7713H25.7402C25.3662 44.7713 25.0559 44.461 25.0559 44.087V39.1493ZM40.6893 60.5418L41.5744 55.4672H56.3864L57.2715 60.5418H40.6893ZM76.584 52.4191C76.584 53.3408 75.8355 54.0984 74.9046 54.0984H23.0479C22.1262 54.0984 21.3686 53.3499 21.3686 52.4191V48.8507H76.5836L76.584 52.4191Z" fill="white"/>
<path d="M26.4258 39.834H31.053V43.4023H26.4258V39.834Z" fill="white"/>
<path d="M26.4258 20.084H31.053V23.6523H26.4258V20.084Z" fill="white"/>
<path d="M26.4258 25.0215H31.053V28.5898H26.4258V25.0215Z" fill="white"/>
<path d="M26.4258 29.9609H31.053V33.5293H26.4258V29.9609Z" fill="white"/>
<path d="M27.3659 50.3926H25.9421C25.5681 50.3926 25.2578 50.7029 25.2578 51.0769C25.2578 51.4509 25.5681 51.7612 25.9421 51.7612H27.3659C27.7399 51.7612 28.0502 51.4509 28.0502 51.0769C28.0506 50.7029 27.7403 50.3926 27.3659 50.3926Z" fill="white"/>
<path d="M32.1842 50.3926H30.7605C30.3865 50.3926 30.0762 50.7029 30.0762 51.0769C30.0762 51.4509 30.3865 51.7612 30.7605 51.7612H32.1842C32.5582 51.7612 32.8685 51.4509 32.8685 51.0769C32.8685 50.7029 32.5582 50.3926 32.1842 50.3926Z" fill="white"/>
<path d="M37.0026 50.3926H35.5789C35.2048 50.3926 34.8945 50.7029 34.8945 51.0769C34.8945 51.4509 35.2048 51.7612 35.5789 51.7612H37.0026C37.3766 51.7612 37.6869 51.4509 37.6869 51.0769C37.6869 50.7029 37.3766 50.3926 37.0026 50.3926Z" fill="white"/>
</svg>
