<svg width="92" height="92" viewBox="0 0 92 92" fill="none" xmlns="http://www.w3.org/2000/svg">
<rect width="92" height="92" rx="22" fill="#FC1F49"/>
<path d="M60.4153 29.3437H64.7413V32.8118C64.7413 33.1858 65.0516 33.4961 65.4257 33.4961C65.7997 33.4961 66.11 33.1858 66.11 32.8118V28.6589C66.11 28.2849 65.7997 27.9746 65.4257 27.9746H60.4153C60.0413 27.9746 59.731 28.2849 59.731 28.6589C59.731 29.0334 60.0413 29.3437 60.4153 29.3437V29.3437Z" fill="white"/>
<path d="M65.4265 35.1465C65.0525 35.1465 64.7422 35.4568 64.7422 35.8308V36.7801C64.7422 37.1541 65.0525 37.4644 65.4265 37.4644C65.8005 37.4644 66.1109 37.1541 66.1109 36.7801V35.8308C66.1109 35.4568 65.8005 35.1465 65.4265 35.1465Z" fill="white"/>
<path d="M43.102 34.955C44.4803 34.955 45.7486 35.4115 46.7799 36.1687C47.8112 35.4111 49.08 34.955 50.4579 34.955C50.8227 34.955 51.188 34.9916 51.535 35.0553C51.5896 34.7725 51.6262 34.4806 51.6262 34.1881C51.6262 31.514 49.454 29.3418 46.7799 29.3418C44.1058 29.3418 41.9336 31.514 41.9336 34.1881C41.9336 34.4893 41.9703 34.7721 42.0248 35.0553C42.381 34.9916 42.7371 34.955 43.102 34.955H43.102Z" fill="white"/>
<path d="M51.0789 36.3801C50.8781 36.3526 50.6774 36.3164 50.4674 36.3164C49.4911 36.3164 48.578 36.6176 47.8208 37.1103C48.204 37.5577 48.5235 38.0504 48.7701 38.589C49.7647 38.1504 50.5769 37.3565 51.0789 36.3802L51.0789 36.3801Z" fill="white"/>
<path d="M47.9486 41.1602C47.9486 40.859 47.9119 40.5762 47.8574 40.293C47.5104 40.3567 47.1455 40.3934 46.7802 40.3934C46.4153 40.3934 46.05 40.3567 45.703 40.293C45.6485 40.5758 45.6118 40.8678 45.6118 41.1602C45.6118 42.3557 46.0592 43.4327 46.7802 44.2724C47.5012 43.4327 47.9486 42.3555 47.9486 41.1602H47.9486Z" fill="white"/>
<path d="M43.1027 36.3243C42.8927 36.3243 42.692 36.361 42.4912 36.388C42.9931 37.3643 43.8053 38.1496 44.8092 38.6055C45.0558 38.067 45.3748 37.5742 45.7584 37.1268C44.9921 36.6162 44.0882 36.3242 43.1027 36.3242L43.1027 36.3243Z" fill="white"/>
<path d="M47.4006 38.9595C47.2274 38.6308 47.0266 38.3205 46.7892 38.0469C46.5518 38.3297 46.3418 38.6308 46.1777 38.9595C46.3785 38.987 46.5793 39.0232 46.7892 39.0232C46.9899 39.0236 47.1907 38.987 47.4006 38.9595Z" fill="white"/>
<path d="M49.1894 39.9111C49.2714 40.3126 49.3172 40.7325 49.3172 41.1707C49.3172 42.7131 48.7425 44.1275 47.8115 45.2139C48.5784 45.7158 49.4818 46.0078 50.4582 46.0078C53.1323 46.0078 55.3045 43.8356 55.3045 41.1615C55.3045 39.19 54.1183 37.5018 52.4296 36.7441C51.7902 38.1678 50.6315 39.2995 49.1895 39.911L49.1894 39.9111Z" fill="white"/>
<path d="M23.4253 40.8965H28.0525V44.4648H23.4253V40.8965Z" fill="white"/>
<path d="M43.1021 46.0082C44.0784 46.0082 44.9915 45.7071 45.7487 45.2143C44.8086 44.1285 44.243 42.7136 44.243 41.1711C44.243 40.7421 44.2889 40.3222 44.3709 39.9116C42.9289 39.3093 41.7697 38.1685 41.1312 36.7539C39.4426 37.5116 38.2563 39.1998 38.2563 41.1712C38.2651 43.8362 40.4373 46.0084 43.1022 46.0084L43.1021 46.0082Z" fill="white"/>
<path d="M71.9049 21.0004H20.0482C18.3688 21.0004 17 22.3695 17 24.0486V58.4191C17 60.0984 18.3691 61.4672 20.0482 61.4672H37.1882L36.3031 66.5418H32.3332C31.3569 66.5418 30.5626 67.3357 30.5626 68.3125V70.6396L19.884 70.64C19.51 70.64 19.1997 70.9503 19.1997 71.3244C19.1997 71.6989 19.51 72 19.884 72H72.9001C73.2741 72 73.5844 71.6897 73.5844 71.3157C73.5844 70.9416 73.2741 70.6313 72.9001 70.6313H61.4006V68.3042C61.4006 67.3279 60.6067 66.5335 59.6299 66.5335H55.66L54.7749 61.459H71.915C73.5944 61.459 74.9632 60.0898 74.9632 58.4108V24.0485C74.954 22.3691 73.5849 21 71.9053 21L71.9049 21.0004ZM22.0559 45.1493V25.3995C22.0559 25.0255 22.3662 24.7152 22.7402 24.7152H69.2215C69.5955 24.7152 69.9059 25.0255 69.9059 25.3995V50.087C69.9059 50.461 69.5955 50.7713 69.2215 50.7713H22.7402C22.3662 50.7713 22.0559 50.461 22.0559 50.087V45.1493ZM37.6893 66.5418L38.5744 61.4672H53.3864L54.2715 66.5418H37.6893ZM73.584 58.4191C73.584 59.3408 72.8355 60.0984 71.9046 60.0984H20.0479C19.1262 60.0984 18.3686 59.3499 18.3686 58.4191V54.8507H73.5836L73.584 58.4191Z" fill="white"/>
<path d="M23.4253 45.834H28.0525V49.4023H23.4253V45.834Z" fill="white"/>
<path d="M23.4253 26.084H28.0525V29.6523H23.4253V26.084Z" fill="white"/>
<path d="M23.4253 31.0215H28.0525V34.5898H23.4253V31.0215Z" fill="white"/>
<path d="M23.4253 35.9609H28.0525V39.5293H23.4253V35.9609Z" fill="white"/>
<path d="M24.3659 56.3926H22.9421C22.5681 56.3926 22.2578 56.7029 22.2578 57.0769C22.2578 57.4509 22.5681 57.7612 22.9421 57.7612H24.3659C24.7399 57.7612 25.0502 57.4509 25.0502 57.0769C25.0506 56.7029 24.7403 56.3926 24.3659 56.3926Z" fill="white"/>
<path d="M29.1847 56.3926H27.761C27.387 56.3926 27.0767 56.7029 27.0767 57.0769C27.0767 57.4509 27.387 57.7612 27.761 57.7612H29.1847C29.5587 57.7612 29.869 57.4509 29.869 57.0769C29.869 56.7029 29.5587 56.3926 29.1847 56.3926Z" fill="white"/>
<path d="M34.0026 56.3926H32.5789C32.2048 56.3926 31.8945 56.7029 31.8945 57.0769C31.8945 57.4509 32.2048 57.7612 32.5789 57.7612H34.0026C34.3766 57.7612 34.6869 57.4509 34.6869 57.0769C34.6869 56.7029 34.3766 56.3926 34.0026 56.3926Z" fill="white"/>
</svg>
