<svg width="97" height="80" viewBox="0 0 97 80" fill="none" xmlns="http://www.w3.org/2000/svg">
<rect width="97" height="80" rx="22" fill="#2FD800"/>
<path d="M25.4401 54.4543H71.3719C73.1827 54.4543 74.6499 52.9871 74.6499 51.1762V18.3676C74.6499 17.2082 74.1894 16.0963 73.3696 15.2765C72.5497 14.4567 71.4378 13.9961 70.2785 13.9961H26.5336C25.3742 13.9961 24.2623 14.4567 23.4425 15.2765C22.6226 16.0963 22.1621 17.2082 22.1621 18.3676V51.1784C22.1632 52.0476 22.5089 52.881 23.1233 53.4958C23.7378 54.1107 24.5709 54.4569 25.4401 54.4586V54.4543ZM27.6356 19.4739H69.1722V48.9808H27.6356V19.4739ZM76.71 56.465H20.0934C19.8036 56.4655 19.5258 56.5809 19.3209 56.7859C19.1159 56.9908 19.0006 57.2686 19 57.5584V61.6098C19.1465 62.7779 19.7445 63.8422 20.6659 64.5749C21.5873 65.3076 22.7589 65.6505 23.93 65.5302L23.9107 65.5323H72.8906C74.0552 65.6487 75.2194 65.3067 76.1358 64.5787C77.0523 63.8507 77.649 62.7942 77.7991 61.6334L77.8013 61.6119V57.5605C77.8007 57.2707 77.6853 56.9929 77.4804 56.788C77.2755 56.5831 76.9977 56.4677 76.7079 56.4671L76.71 56.465ZM55.2371 62.0931H41.5255C41.2349 62.0931 40.9563 61.9777 40.7508 61.7723C40.5454 61.5668 40.4299 61.2881 40.4299 60.9976C40.4299 60.707 40.5454 60.4284 40.7508 60.2229C40.9563 60.0174 41.2349 59.902 41.5255 59.902H41.5706H41.5684H55.2736C55.5642 59.902 55.8428 60.0174 56.0483 60.2229C56.2538 60.4284 56.3692 60.707 56.3692 60.9976C56.3692 61.2881 56.2538 61.5668 56.0483 61.7723C55.8428 61.9777 55.5642 62.0931 55.2736 62.0931H55.2285H55.2307H55.2371Z" fill="white"/>
</svg>
