<svg width="92" height="92" viewBox="0 0 92 92" fill="none" xmlns="http://www.w3.org/2000/svg">
<rect width="92" height="92" rx="22" fill="#2FD800"/>
<path d="M23.4401 60.4582H69.3719C71.1827 60.4582 72.6499 58.991 72.6499 57.1801V24.3715C72.6499 23.2121 72.1894 22.1002 71.3696 21.2804C70.5497 20.4606 69.4378 20 68.2785 20H24.5336C23.3742 20 22.2623 20.4606 21.4425 21.2804C20.6226 22.1002 20.1621 23.2121 20.1621 24.3715V57.1823C20.1632 58.0515 20.5089 58.8849 21.1233 59.4998C21.7378 60.1146 22.5709 60.4608 23.4401 60.4625V60.4582ZM25.6356 25.4778H67.1722V54.9847H25.6356V25.4778ZM74.71 62.4689H18.0934C17.8036 62.4695 17.5258 62.5848 17.3209 62.7898C17.1159 62.9947 17.0006 63.2725 17 63.5623V67.6137C17.1465 68.7818 17.7445 69.8461 18.6659 70.5788C19.5873 71.3115 20.7589 71.6544 21.93 71.5341L21.9107 71.5362H70.8906C72.0552 71.6527 73.2194 71.3106 74.1358 70.5826C75.0523 69.8546 75.649 68.7981 75.7991 67.6373L75.8013 67.6159V63.5644C75.8007 63.2746 75.6853 62.9968 75.4804 62.7919C75.2755 62.587 74.9977 62.4716 74.7079 62.471L74.71 62.4689ZM53.2371 68.097H39.5255C39.2349 68.097 38.9563 67.9816 38.7508 67.7762C38.5454 67.5707 38.4299 67.292 38.4299 67.0015C38.4299 66.7109 38.5454 66.4323 38.7508 66.2268C38.9563 66.0214 39.2349 65.9059 39.5255 65.9059H39.5706H39.5684H53.2736C53.5642 65.9059 53.8428 66.0214 54.0483 66.2268C54.2538 66.4323 54.3692 66.7109 54.3692 67.0015C54.3692 67.292 54.2538 67.5707 54.0483 67.7762C53.8428 67.9816 53.5642 68.097 53.2736 68.097H53.2285H53.2307H53.2371Z" fill="white"/>
</svg>
