<svg xmlns="http://www.w3.org/2000/svg" width="16.457" height="9.97" viewBox="0 0 16.457 9.97">
  <path id="hands" d="M8402.141,526.851l-.084-.089-.09-.1a.565.565,0,0,0,.022-.072l.273-1.064c.013.014.024.028.038.041l.084.092.043.046.055.059.031.033.068.074c.051.053.08.086.08.086a.7.7,0,0,1,.068.781l-.006.008-.006.009a.382.382,0,0,1-.324.211A.348.348,0,0,1,8402.141,526.851Zm-.84.029a.635.635,0,0,1-.264-.725l.3-1.174c.076-.3.318-.457.541-.355h0a.634.634,0,0,1,.265.726l-.3,1.173a.455.455,0,0,1-.4.386A.336.336,0,0,1,8401.3,526.881Zm2-.617s-.023-.024-.063-.068l-.019-.019s0,0-.006,0l-.051-.055-.391-.414c-.035-.039-.074-.08-.113-.121l-.2-.211-.139-.15a.983.983,0,0,0-.059-.4.671.671,0,0,0-.334-.395.444.444,0,0,0-.187-.043.462.462,0,0,0-.172.035l-.205-.218c-.006-.023-.014-.046-.021-.069a.675.675,0,0,0-.334-.4.447.447,0,0,0-.188-.041.55.55,0,0,0-.466.313.735.735,0,0,0-.375-.551.451.451,0,0,0-.187-.042.558.558,0,0,0-.479.341.739.739,0,0,0-.374-.544.457.457,0,0,0-.189-.043.624.624,0,0,0-.55.527l0,.017a.58.58,0,0,1-.1-.057l-1.316-1.016a.175.175,0,0,1-.04-.2l1.407-3.4a.113.113,0,0,1,.15-.073l.668.346a.265.265,0,0,0,.2.009l1.589-.685a.372.372,0,0,1,.205-.016l.124.032c.058.014.066.064.019.111l-.171.172a.014.014,0,0,0,0,.006c-.366.363-.864.854-1.095,1.056a.908.908,0,0,0,.523,1.55.713.713,0,0,0,.35-.1c.337-.189.834-.471,1.246-.706a.046.046,0,0,0,.016-.006l.156-.091.271-.155.067-.039.014-.007h0a.155.155,0,0,1,.163.04l.456.484.166.176,1.4,1.478,1.258,1.33.084.088a.69.69,0,0,1,.068.78h0l-.012.019a.349.349,0,0,1-.582.091l-.072-.076-.66-.7c-.039-.043-.081-.087-.122-.13-.112-.117-.228-.24-.347-.365l-.043-.046c-.066-.072-.135-.143-.2-.214-.668-.705-1.338-1.414-1.376-1.456-.125-.133-.255.091-.131.224l1.351,1.429.052.053c.037.04.075.079.111.118l.136.143.06.063c.16.169.307.321.42.444.025.026.047.05.068.071l.077.082c.013.013.024.025.034.037s0,0,0,0l0,0,.084.087a.693.693,0,0,1,.068.78l0,0,0,.005,0,.007a.347.347,0,0,1-.58.092l-.064-.068a.238.238,0,0,0-.021-.022l-.006-.006c-.009-.011-.02-.021-.03-.032a.114.114,0,0,0-.017-.017l-.018-.02-.045-.048-.01-.009-.143-.151c-.012-.013-.023-.026-.037-.039s-.051-.054-.076-.082l-.085-.088c-.023-.026-.048-.051-.073-.077l-.523-.554c-.578-.608-1.184-1.25-1.248-1.318-.125-.132-.257.09-.131.224l1.217,1.3c.047.05.091.1.135.143l.111.119.1.108.146.155.047.05.025.028c.016.017.029.032.043.045s.047.049.064.069l.065.069a.692.692,0,0,1,.068.78l-.006.01v0l0,.008a.383.383,0,0,1-.324.21A.356.356,0,0,1,8403.3,526.264Zm-2.92-.072a.634.634,0,0,1-.265-.726l.3-1.173c.076-.3.318-.458.541-.355h0a.633.633,0,0,1,.265.726l-.3,1.174a.455.455,0,0,1-.4.386A.333.333,0,0,1,8400.381,526.192Zm2.078-.821h0l.2.211C8402.592,525.514,8402.525,525.443,8402.459,525.371Zm-2.988.077a.634.634,0,0,1-.265-.726l.182-.71c.077-.3.318-.457.541-.355a.633.633,0,0,1,.265.726l-.182.709a.456.456,0,0,1-.4.386A.331.331,0,0,1,8399.471,525.449Zm-.925-.7a.637.637,0,0,1-.265-.727l.066-.257c.076-.3.318-.457.541-.355a.636.636,0,0,1,.264.726l-.065.257a.456.456,0,0,1-.4.386A.33.33,0,0,1,8398.546,524.752Zm7.668-.826-3.512-3.747a.155.155,0,0,0-.18-.033s-1.214.692-1.895,1.075c-.608.341-1.187-.562-.69-1,.392-.345,1.452-1.414,1.452-1.414h0a.705.705,0,0,1,.186-.129l1.545-.674a.232.232,0,0,1,.2.018l1.981,1.288a.214.214,0,0,0,.194.01l.666-.346a.112.112,0,0,1,.15.073l1.408,3.4a.2.2,0,0,1-.033.208l-1.3,1.271a.119.119,0,0,1-.169,0Zm-2.34-.316h0l.051.054Zm4.278-1.123-1.5-3.7a.263.263,0,0,1,.066-.3l2-1.459c.08-.058.18-.018.223.088l1.5,3.7a.263.263,0,0,1-.065.3l-2,1.459a.129.129,0,0,1-.078.027A.163.163,0,0,1,8408.152,522.486Zm-12.071.088-2-1.459a.263.263,0,0,1-.066-.3l1.5-3.7c.043-.106.143-.146.223-.088l2,1.459a.264.264,0,0,1,.065.3l-1.5,3.7a.164.164,0,0,1-.145.115A.131.131,0,0,1,8396.081,522.574Zm6.378-2.111.014-.007-.08.047Z" transform="translate(-8394 -517)" fill="#aeaeae"/>
</svg>
