<svg width="99" height="137" viewBox="0 0 99 137" fill="none" xmlns="http://www.w3.org/2000/svg">
<path d="M0.689379 130.176L8.29738 113.376H10.6734L18.3054 130.176H15.7854L8.99338 114.72H9.95338L3.16138 130.176H0.689379ZM3.92938 125.976L4.57738 124.056H14.0334L14.7294 125.976H3.92938ZM27.2675 117.336C28.3075 117.336 29.2195 117.536 30.0035 117.936C30.8035 118.336 31.4275 118.944 31.8755 119.76C32.3235 120.576 32.5475 121.608 32.5475 122.856V130.176H30.2435V123.12C30.2435 121.888 29.9395 120.96 29.3315 120.336C28.7395 119.712 27.8995 119.4 26.8115 119.4C25.9955 119.4 25.2835 119.56 24.6755 119.88C24.0675 120.2 23.5955 120.672 23.2595 121.296C22.9395 121.92 22.7795 122.696 22.7795 123.624V130.176H20.4755V117.456H22.6835V120.888L22.3235 119.976C22.7395 119.144 23.3795 118.496 24.2435 118.032C25.1075 117.568 26.1155 117.336 27.2675 117.336ZM42.3794 134.976C41.2114 134.976 40.0754 134.808 38.9714 134.472C37.8834 134.152 36.9954 133.688 36.3074 133.08L37.4114 131.304C38.0034 131.816 38.7314 132.216 39.5954 132.504C40.4594 132.808 41.3634 132.96 42.3074 132.96C43.8114 132.96 44.9154 132.608 45.6194 131.904C46.3234 131.2 46.6754 130.128 46.6754 128.688V126L46.9154 123.48L46.7954 120.936V117.456H48.9794V128.448C48.9794 130.688 48.4194 132.336 47.2994 133.392C46.1794 134.448 44.5394 134.976 42.3794 134.976ZM42.0914 129.648C40.8594 129.648 39.7554 129.392 38.7794 128.88C37.8194 128.352 37.0514 127.624 36.4754 126.696C35.9154 125.768 35.6354 124.696 35.6354 123.48C35.6354 122.248 35.9154 121.176 36.4754 120.264C37.0514 119.336 37.8194 118.616 38.7794 118.104C39.7554 117.592 40.8594 117.336 42.0914 117.336C43.1794 117.336 44.1714 117.56 45.0674 118.008C45.9634 118.44 46.6754 119.112 47.2034 120.024C47.7474 120.936 48.0194 122.088 48.0194 123.48C48.0194 124.856 47.7474 126 47.2034 126.912C46.6754 127.824 45.9634 128.512 45.0674 128.976C44.1714 129.424 43.1794 129.648 42.0914 129.648ZM42.3554 127.632C43.2034 127.632 43.9554 127.456 44.6114 127.104C45.2674 126.752 45.7794 126.264 46.1474 125.64C46.5314 125.016 46.7234 124.296 46.7234 123.48C46.7234 122.664 46.5314 121.944 46.1474 121.32C45.7794 120.696 45.2674 120.216 44.6114 119.88C43.9554 119.528 43.2034 119.352 42.3554 119.352C41.5074 119.352 40.7474 119.528 40.0754 119.88C39.4194 120.216 38.8994 120.696 38.5154 121.32C38.1474 121.944 37.9634 122.664 37.9634 123.48C37.9634 124.296 38.1474 125.016 38.5154 125.64C38.8994 126.264 39.4194 126.752 40.0754 127.104C40.7474 127.456 41.5074 127.632 42.3554 127.632ZM58.7338 130.32C57.6458 130.32 56.6858 130.12 55.8538 129.72C55.0378 129.32 54.3978 128.712 53.9338 127.896C53.4858 127.064 53.2618 126.024 53.2618 124.776V117.456H55.5658V124.512C55.5658 125.76 55.8618 126.696 56.4538 127.32C57.0618 127.944 57.9098 128.256 58.9978 128.256C59.7978 128.256 60.4938 128.096 61.0858 127.776C61.6778 127.44 62.1338 126.96 62.4538 126.336C62.7738 125.696 62.9338 124.928 62.9338 124.032V117.456H65.2378V130.176H63.0538V126.744L63.4138 127.656C62.9978 128.504 62.3738 129.16 61.5418 129.624C60.7098 130.088 59.7738 130.32 58.7338 130.32ZM69.6239 130.176V112.368H71.9279V130.176H69.6239ZM84.2231 130.176V127.488L84.1031 126.984V122.4C84.1031 121.424 83.8151 120.672 83.2391 120.144C82.6791 119.6 81.8311 119.328 80.6951 119.328C79.9431 119.328 79.2071 119.456 78.4871 119.712C77.7671 119.952 77.1591 120.28 76.6631 120.696L75.7031 118.968C76.3591 118.44 77.1431 118.04 78.0551 117.768C78.9831 117.48 79.9511 117.336 80.9591 117.336C82.7031 117.336 84.0471 117.76 84.9911 118.608C85.9351 119.456 86.4071 120.752 86.4071 122.496V130.176H84.2231ZM80.0471 130.32C79.1031 130.32 78.2711 130.16 77.5511 129.84C76.8471 129.52 76.3031 129.08 75.9191 128.52C75.5351 127.944 75.3431 127.296 75.3431 126.576C75.3431 125.888 75.5031 125.264 75.8231 124.704C76.1591 124.144 76.6951 123.696 77.4311 123.36C78.1831 123.024 79.1911 122.856 80.4551 122.856H84.4871V124.512H80.5511C79.3991 124.512 78.6231 124.704 78.2231 125.088C77.8231 125.472 77.6231 125.936 77.6231 126.48C77.6231 127.104 77.8711 127.608 78.3671 127.992C78.8631 128.36 79.5511 128.544 80.4311 128.544C81.2951 128.544 82.0471 128.352 82.6871 127.968C83.3431 127.584 83.8151 127.024 84.1031 126.288L84.5591 127.872C84.2551 128.624 83.7191 129.224 82.9511 129.672C82.1831 130.104 81.2151 130.32 80.0471 130.32ZM90.6708 130.176V117.456H92.8788V120.912L92.6628 120.048C93.0148 119.168 93.6068 118.496 94.4388 118.032C95.2708 117.568 96.2948 117.336 97.5108 117.336V119.568C97.4148 119.552 97.3188 119.544 97.2228 119.544C97.1428 119.544 97.0628 119.544 96.9828 119.544C95.7508 119.544 94.7748 119.912 94.0548 120.648C93.3348 121.384 92.9748 122.448 92.9748 123.84V130.176H90.6708Z" fill="black"/>
<circle cx="49.795" cy="46.0882" r="45" transform="rotate(-0.111463 49.795 46.0882)" fill="#FFF4F1" stroke="#0F52BA" stroke-width="2"/>
<path d="M29.0923 31.411L49.5195 24.1328L70.4968 31.2816L67.1002 58.3077L49.5195 68.0443L32.2138 58.4371L29.0923 31.411Z" fill="#E23237"/>
<path d="M70.4968 31.2816L49.5195 24.1328V68.0443L67.1003 58.3239L70.4968 31.2816Z" fill="#B52E31"/>
<path d="M49.5518 29.2578L36.8232 57.5779L41.5782 57.497L44.1337 51.1083H55.5522L58.3503 57.5779L62.895 57.6587L49.5518 29.2578ZM49.5842 38.3313L53.8863 47.3237H45.7994L49.5842 38.3313Z" fill="white"/>
</svg>
