<svg width="145" height="136" viewBox="0 0 145 136" fill="none" xmlns="http://www.w3.org/2000/svg">
<path d="M10.7454 130.192C9.46538 130.192 8.28138 129.984 7.19338 129.568C6.12138 129.136 5.18538 128.536 4.38538 127.768C3.60138 126.984 2.98538 126.072 2.53738 125.032C2.08938 123.992 1.86538 122.848 1.86538 121.6C1.86538 120.352 2.08938 119.208 2.53738 118.168C2.98538 117.128 3.60938 116.224 4.40938 115.456C5.20938 114.672 6.14538 114.072 7.21738 113.656C8.30538 113.224 9.48938 113.008 10.7694 113.008C12.0654 113.008 13.2574 113.232 14.3454 113.68C15.4494 114.112 16.3854 114.76 17.1534 115.624L15.5934 117.136C14.9534 116.464 14.2334 115.968 13.4334 115.648C12.6334 115.312 11.7774 115.144 10.8654 115.144C9.92138 115.144 9.04138 115.304 8.22538 115.624C7.42538 115.944 6.72938 116.392 6.13738 116.968C5.54538 117.544 5.08138 118.232 4.74538 119.032C4.42538 119.816 4.26538 120.672 4.26538 121.6C4.26538 122.528 4.42538 123.392 4.74538 124.192C5.08138 124.976 5.54538 125.656 6.13738 126.232C6.72938 126.808 7.42538 127.256 8.22538 127.576C9.04138 127.896 9.92138 128.056 10.8654 128.056C11.7774 128.056 12.6334 127.896 13.4334 127.576C14.2334 127.24 14.9534 126.728 15.5934 126.04L17.1534 127.552C16.3854 128.416 15.4494 129.072 14.3454 129.52C13.2574 129.968 12.0574 130.192 10.7454 130.192ZM25.1501 130.144C23.8701 130.144 22.7341 129.864 21.7421 129.304C20.7501 128.744 19.9661 127.976 19.3901 127C18.8141 126.008 18.5261 124.888 18.5261 123.64C18.5261 122.376 18.8141 121.256 19.3901 120.28C19.9661 119.304 20.7501 118.544 21.7421 118C22.7341 117.44 23.8701 117.16 25.1501 117.16C26.4141 117.16 27.5421 117.44 28.5341 118C29.5421 118.544 30.3261 119.304 30.8861 120.28C31.4621 121.24 31.7501 122.36 31.7501 123.64C31.7501 124.904 31.4621 126.024 30.8861 127C30.3261 127.976 29.5421 128.744 28.5341 129.304C27.5421 129.864 26.4141 130.144 25.1501 130.144ZM25.1501 128.128C25.9661 128.128 26.6941 127.944 27.3341 127.576C27.9901 127.208 28.5021 126.688 28.8701 126.016C29.2381 125.328 29.4221 124.536 29.4221 123.64C29.4221 122.728 29.2381 121.944 28.8701 121.288C28.5021 120.616 27.9901 120.096 27.3341 119.728C26.6941 119.36 25.9661 119.176 25.1501 119.176C24.3341 119.176 23.6061 119.36 22.9661 119.728C22.3261 120.096 21.8141 120.616 21.4301 121.288C21.0461 121.944 20.8541 122.728 20.8541 123.64C20.8541 124.536 21.0461 125.328 21.4301 126.016C21.8141 126.688 22.3261 127.208 22.9661 127.576C23.6061 127.944 24.3341 128.128 25.1501 128.128ZM40.1924 130.144C38.9604 130.144 37.8564 129.872 36.8804 129.328C35.9204 128.784 35.1604 128.024 34.6004 127.048C34.0404 126.072 33.7604 124.936 33.7604 123.64C33.7604 122.344 34.0404 121.216 34.6004 120.256C35.1604 119.28 35.9204 118.52 36.8804 117.976C37.8564 117.432 38.9604 117.16 40.1924 117.16C41.2644 117.16 42.2324 117.4 43.0964 117.88C43.9604 118.36 44.6484 119.08 45.1604 120.04C45.6884 121 45.9524 122.2 45.9524 123.64C45.9524 125.08 45.6964 126.28 45.1844 127.24C44.6884 128.2 44.0084 128.928 43.1444 129.424C42.2804 129.904 41.2964 130.144 40.1924 130.144ZM40.3844 128.128C41.1844 128.128 41.9044 127.944 42.5444 127.576C43.2004 127.208 43.7124 126.688 44.0804 126.016C44.4644 125.328 44.6564 124.536 44.6564 123.64C44.6564 122.728 44.4644 121.944 44.0804 121.288C43.7124 120.616 43.2004 120.096 42.5444 119.728C41.9044 119.36 41.1844 119.176 40.3844 119.176C39.5684 119.176 38.8404 119.36 38.2004 119.728C37.5604 120.096 37.0484 120.616 36.6644 121.288C36.2804 121.944 36.0884 122.728 36.0884 123.64C36.0884 124.536 36.2804 125.328 36.6644 126.016C37.0484 126.688 37.5604 127.208 38.2004 127.576C38.8404 127.944 39.5684 128.128 40.3844 128.128ZM44.7284 130V126.568L44.8724 123.616L44.6324 120.664V112.192H46.9364V130H44.7284ZM56.9598 130.144C55.5998 130.144 54.3998 129.864 53.3598 129.304C52.3358 128.744 51.5358 127.976 50.9598 127C50.3998 126.024 50.1198 124.904 50.1198 123.64C50.1198 122.376 50.3918 121.256 50.9358 120.28C51.4958 119.304 52.2558 118.544 53.2158 118C54.1918 117.44 55.2878 117.16 56.5038 117.16C57.7358 117.16 58.8238 117.432 59.7678 117.976C60.7118 118.52 61.4478 119.288 61.9758 120.28C62.5198 121.256 62.7918 122.4 62.7918 123.712C62.7918 123.808 62.7838 123.92 62.7678 124.048C62.7678 124.176 62.7598 124.296 62.7438 124.408H51.9198V122.752H61.5438L60.6078 123.328C60.6238 122.512 60.4558 121.784 60.1038 121.144C59.7518 120.504 59.2638 120.008 58.6398 119.656C58.0318 119.288 57.3198 119.104 56.5038 119.104C55.7038 119.104 54.9918 119.288 54.3678 119.656C53.7438 120.008 53.2558 120.512 52.9038 121.168C52.5518 121.808 52.3758 122.544 52.3758 123.376V123.76C52.3758 124.608 52.5678 125.368 52.9518 126.04C53.3518 126.696 53.9038 127.208 54.6078 127.576C55.3118 127.944 56.1198 128.128 57.0318 128.128C57.7838 128.128 58.4638 128 59.0718 127.744C59.6958 127.488 60.2398 127.104 60.7038 126.592L61.9758 128.08C61.3998 128.752 60.6798 129.264 59.8158 129.616C58.9678 129.968 58.0158 130.144 56.9598 130.144ZM65.9911 130V117.28H68.2951V130H65.9911ZM67.1431 114.832C66.6951 114.832 66.3191 114.688 66.0151 114.4C65.7271 114.112 65.5831 113.76 65.5831 113.344C65.5831 112.912 65.7271 112.552 66.0151 112.264C66.3191 111.976 66.6951 111.832 67.1431 111.832C67.5911 111.832 67.9591 111.976 68.2471 112.264C68.5511 112.536 68.7031 112.88 68.7031 113.296C68.7031 113.728 68.5591 114.096 68.2711 114.4C67.9831 114.688 67.6071 114.832 67.1431 114.832ZM78.2623 134.8C77.0943 134.8 75.9583 134.632 74.8543 134.296C73.7663 133.976 72.8783 133.512 72.1903 132.904L73.2943 131.128C73.8863 131.64 74.6143 132.04 75.4783 132.328C76.3423 132.632 77.2463 132.784 78.1903 132.784C79.6943 132.784 80.7983 132.432 81.5023 131.728C82.2063 131.024 82.5583 129.952 82.5583 128.512V125.824L82.7983 123.304L82.6783 120.76V117.28H84.8623V128.272C84.8623 130.512 84.3023 132.16 83.1823 133.216C82.0623 134.272 80.4223 134.8 78.2623 134.8ZM77.9743 129.472C76.7423 129.472 75.6383 129.216 74.6623 128.704C73.7023 128.176 72.9343 127.448 72.3583 126.52C71.7983 125.592 71.5183 124.52 71.5183 123.304C71.5183 122.072 71.7983 121 72.3583 120.088C72.9343 119.16 73.7023 118.44 74.6623 117.928C75.6383 117.416 76.7423 117.16 77.9743 117.16C79.0623 117.16 80.0543 117.384 80.9503 117.832C81.8463 118.264 82.5583 118.936 83.0863 119.848C83.6303 120.76 83.9023 121.912 83.9023 123.304C83.9023 124.68 83.6303 125.824 83.0863 126.736C82.5583 127.648 81.8463 128.336 80.9503 128.8C80.0543 129.248 79.0623 129.472 77.9743 129.472ZM78.2383 127.456C79.0863 127.456 79.8383 127.28 80.4943 126.928C81.1503 126.576 81.6623 126.088 82.0303 125.464C82.4143 124.84 82.6063 124.12 82.6063 123.304C82.6063 122.488 82.4143 121.768 82.0303 121.144C81.6623 120.52 81.1503 120.04 80.4943 119.704C79.8383 119.352 79.0863 119.176 78.2383 119.176C77.3903 119.176 76.6303 119.352 75.9583 119.704C75.3023 120.04 74.7823 120.52 74.3983 121.144C74.0303 121.768 73.8463 122.488 73.8463 123.304C73.8463 124.12 74.0303 124.84 74.3983 125.464C74.7823 126.088 75.3023 126.576 75.9583 126.928C76.6303 127.28 77.3903 127.456 78.2383 127.456ZM96.0566 117.16C97.0966 117.16 98.0086 117.36 98.7926 117.76C99.5926 118.16 100.217 118.768 100.665 119.584C101.113 120.4 101.337 121.432 101.337 122.68V130H99.0326V122.944C99.0326 121.712 98.7286 120.784 98.1206 120.16C97.5286 119.536 96.6886 119.224 95.6006 119.224C94.7846 119.224 94.0726 119.384 93.4646 119.704C92.8566 120.024 92.3846 120.496 92.0486 121.12C91.7286 121.744 91.5686 122.52 91.5686 123.448V130H89.2646V117.28H91.4726V120.712L91.1126 119.8C91.5286 118.968 92.1686 118.32 93.0326 117.856C93.8966 117.392 94.9046 117.16 96.0566 117.16ZM105.601 130V117.28H107.905V130H105.601ZM106.753 114.832C106.305 114.832 105.929 114.688 105.625 114.4C105.337 114.112 105.193 113.76 105.193 113.344C105.193 112.912 105.337 112.552 105.625 112.264C105.929 111.976 106.305 111.832 106.753 111.832C107.201 111.832 107.569 111.976 107.857 112.264C108.161 112.536 108.313 112.88 108.313 113.296C108.313 113.728 108.169 114.096 107.881 114.4C107.593 114.688 107.217 114.832 106.753 114.832ZM116.672 130.144C115.392 130.144 114.4 129.8 113.696 129.112C112.992 128.424 112.64 127.44 112.64 126.16V114.496H114.944V126.064C114.944 126.752 115.112 127.28 115.448 127.648C115.8 128.016 116.296 128.2 116.936 128.2C117.656 128.2 118.256 128 118.736 127.6L119.456 129.256C119.104 129.56 118.68 129.784 118.184 129.928C117.704 130.072 117.2 130.144 116.672 130.144ZM110.48 119.176V117.28H118.592V119.176H110.48ZM127.483 130.144C126.123 130.144 124.923 129.864 123.883 129.304C122.859 128.744 122.059 127.976 121.483 127C120.923 126.024 120.643 124.904 120.643 123.64C120.643 122.376 120.915 121.256 121.459 120.28C122.019 119.304 122.779 118.544 123.739 118C124.715 117.44 125.811 117.16 127.027 117.16C128.259 117.16 129.347 117.432 130.291 117.976C131.235 118.52 131.971 119.288 132.499 120.28C133.043 121.256 133.315 122.4 133.315 123.712C133.315 123.808 133.307 123.92 133.291 124.048C133.291 124.176 133.283 124.296 133.267 124.408H122.443V122.752H132.067L131.131 123.328C131.147 122.512 130.979 121.784 130.627 121.144C130.275 120.504 129.787 120.008 129.163 119.656C128.555 119.288 127.843 119.104 127.027 119.104C126.227 119.104 125.515 119.288 124.891 119.656C124.267 120.008 123.779 120.512 123.427 121.168C123.075 121.808 122.899 122.544 122.899 123.376V123.76C122.899 124.608 123.091 125.368 123.475 126.04C123.875 126.696 124.427 127.208 125.131 127.576C125.835 127.944 126.643 128.128 127.555 128.128C128.307 128.128 128.987 128 129.595 127.744C130.219 127.488 130.763 127.104 131.227 126.592L132.499 128.08C131.923 128.752 131.203 129.264 130.339 129.616C129.491 129.968 128.539 130.144 127.483 130.144ZM136.515 130V117.28H138.723V120.736L138.507 119.872C138.859 118.992 139.451 118.32 140.283 117.856C141.115 117.392 142.139 117.16 143.355 117.16V119.392C143.259 119.376 143.163 119.368 143.067 119.368C142.987 119.368 142.907 119.368 142.827 119.368C141.595 119.368 140.619 119.736 139.899 120.472C139.179 121.208 138.819 122.272 138.819 123.664V130H136.515Z" fill="black"/>
<circle cx="72.7134" cy="46" r="45" fill="#FFF4F1" stroke="#0F52BA" stroke-width="2"/>
<path d="M65.8698 69.3487C62.872 68.0241 60.835 65.1708 60.5677 61.9028C60.6543 60.2463 61.1317 58.6337 61.9609 57.197C62.79 55.7603 63.9473 54.5402 65.3383 53.6364C64.8754 54.7651 64.9878 56.0501 65.6303 57.0826C65.9875 57.5823 66.4824 57.9673 67.0547 58.1905C67.6269 58.4138 68.2518 58.4656 68.8531 58.3396C70.6082 57.8462 71.6363 56.0238 71.1428 54.2672C70.9673 53.6509 70.6186 53.098 70.1382 52.674C69.1615 51.8794 68.4064 50.8462 67.946 49.6744C67.4855 48.5025 67.3352 47.2317 67.5097 45.9848C67.8516 44.6366 68.5957 43.4244 69.6432 42.5094C68.8545 44.6122 71.0786 46.6871 72.571 47.7079C75.2195 49.2971 77.7707 51.0433 80.2109 52.937C82.8788 55.0398 84.3332 58.3312 84.1055 61.6985C83.5052 65.2819 80.9702 68.2404 77.5153 69.3501C84.4267 67.8126 91.5527 62.322 91.6885 54.5346C91.5527 48.3037 87.8335 42.7123 82.1487 40.1657H81.8961C82.0226 40.4713 82.0823 40.8003 82.0713 41.1309C82.0903 40.9171 82.0903 40.7021 82.0713 40.4884C82.102 40.7406 82.102 40.9955 82.0713 41.2477C81.639 43.019 79.8517 44.1098 78.0761 43.6775C77.3664 43.5023 76.7327 43.1038 76.277 42.5284C73.999 39.608 76.277 36.2844 76.6581 33.0717C76.7737 31.0546 76.3787 29.0409 75.5097 27.217C74.6406 25.393 73.3256 23.8177 71.6863 22.6367C73.3523 25.4142 71.1327 29.0618 69.5191 31.1369C67.9027 33.2118 65.5662 34.7583 63.6621 36.5689C61.6104 38.4775 59.7297 40.5759 58.0417 42.8188C54.3924 47.277 52.9599 53.1574 54.1471 58.7939C55.7753 64.226 60.2903 68.3074 65.8583 69.3661H65.889L65.87 69.3487H65.8698Z" fill="#DD4814"/>
</svg>
