<svg width="92" height="136" viewBox="0 0 92 136" fill="none" xmlns="http://www.w3.org/2000/svg">
<circle cx="46" cy="46" r="45" fill="#FFF4F1" stroke="#0F52BA" stroke-width="2"/>
<path d="M45.1899 49.0413L49.6013 44.7441H60.5593L50.8521 54.4514L45.1899 49.0413Z" fill="#40D0FD"/>
<path d="M31.4409 46.1643L36.9521 51.8068L60.56 28.002H49.602L31.4409 46.1643Z" fill="#41D0FD"/>
<path d="M39.668 54.505L45.2579 60.0122L50.8518 54.4511L45.1897 49.041L39.668 54.505Z" fill="#1FBCFD"/>
<path d="M45.2578 60.0103L50.8517 54.4492L60.4224 64.1289H49.4027L45.2578 60.0103Z" fill="#095A9D"/>
<path d="M45.2578 60.0103L50.4697 58.2765L48.7136 56.5742L45.2578 60.0103Z" fill="#0E5199"/>
<path d="M9.68 121.144H18.344V123.208H9.68V121.144ZM9.92 130H7.52V113.2H19.376V115.288H9.92V130ZM22.4184 130V112.192H24.7224V130H22.4184ZM34.4735 130.144C33.3855 130.144 32.4255 129.944 31.5935 129.544C30.7775 129.144 30.1375 128.536 29.6735 127.72C29.2255 126.888 29.0015 125.848 29.0015 124.6V117.28H31.3055V124.336C31.3055 125.584 31.6015 126.52 32.1935 127.144C32.8015 127.768 33.6495 128.08 34.7375 128.08C35.5375 128.08 36.2335 127.92 36.8255 127.6C37.4175 127.264 37.8735 126.784 38.1935 126.16C38.5135 125.52 38.6735 124.752 38.6735 123.856V117.28H40.9775V130H38.7935V126.568L39.1535 127.48C38.7375 128.328 38.1135 128.984 37.2815 129.448C36.4495 129.912 35.5135 130.144 34.4735 130.144ZM49.7317 130.144C48.4517 130.144 47.4597 129.8 46.7557 129.112C46.0517 128.424 45.6997 127.44 45.6997 126.16V114.496H48.0037V126.064C48.0037 126.752 48.1717 127.28 48.5077 127.648C48.8597 128.016 49.3557 128.2 49.9957 128.2C50.7157 128.2 51.3157 128 51.7957 127.6L52.5157 129.256C52.1637 129.56 51.7397 129.784 51.2437 129.928C50.7637 130.072 50.2597 130.144 49.7317 130.144ZM43.5397 119.176V117.28H51.6517V119.176H43.5397ZM59.3645 130.144C58.0845 130.144 57.0925 129.8 56.3885 129.112C55.6845 128.424 55.3325 127.44 55.3325 126.16V114.496H57.6365V126.064C57.6365 126.752 57.8045 127.28 58.1405 127.648C58.4925 128.016 58.9885 128.2 59.6285 128.2C60.3485 128.2 60.9485 128 61.4285 127.6L62.1485 129.256C61.7965 129.56 61.3725 129.784 60.8765 129.928C60.3965 130.072 59.8925 130.144 59.3645 130.144ZM53.1725 119.176V117.28H61.2845V119.176H53.1725ZM70.1761 130.144C68.8161 130.144 67.6161 129.864 66.5761 129.304C65.5521 128.744 64.7521 127.976 64.1761 127C63.6161 126.024 63.3361 124.904 63.3361 123.64C63.3361 122.376 63.6081 121.256 64.1521 120.28C64.7121 119.304 65.4721 118.544 66.4321 118C67.4081 117.44 68.5041 117.16 69.7201 117.16C70.9521 117.16 72.0401 117.432 72.9841 117.976C73.9281 118.52 74.6641 119.288 75.1921 120.28C75.7361 121.256 76.0081 122.4 76.0081 123.712C76.0081 123.808 76.0001 123.92 75.9841 124.048C75.9841 124.176 75.9761 124.296 75.9601 124.408H65.1361V122.752H74.7601L73.8241 123.328C73.8401 122.512 73.6721 121.784 73.3201 121.144C72.9681 120.504 72.4801 120.008 71.8561 119.656C71.2481 119.288 70.5361 119.104 69.7201 119.104C68.9201 119.104 68.2081 119.288 67.5841 119.656C66.9601 120.008 66.4721 120.512 66.1201 121.168C65.7681 121.808 65.5921 122.544 65.5921 123.376V123.76C65.5921 124.608 65.7841 125.368 66.1681 126.04C66.5681 126.696 67.1201 127.208 67.8241 127.576C68.5281 127.944 69.3361 128.128 70.2481 128.128C71.0001 128.128 71.6801 128 72.2881 127.744C72.9121 127.488 73.4561 127.104 73.9201 126.592L75.1921 128.08C74.6161 128.752 73.8961 129.264 73.0321 129.616C72.1841 129.968 71.2321 130.144 70.1761 130.144ZM79.2074 130V117.28H81.4154V120.736L81.1994 119.872C81.5514 118.992 82.1434 118.32 82.9754 117.856C83.8074 117.392 84.8314 117.16 86.0474 117.16V119.392C85.9514 119.376 85.8554 119.368 85.7594 119.368C85.6794 119.368 85.5994 119.368 85.5194 119.368C84.2874 119.368 83.3114 119.736 82.5914 120.472C81.8714 121.208 81.5114 122.272 81.5114 123.664V130H79.2074Z" fill="black"/>
</svg>
