<svg width="92" height="137" viewBox="0 0 92 137" fill="none" xmlns="http://www.w3.org/2000/svg">
<circle cx="46" cy="46.3125" r="45" fill="#FFF4F1" stroke="#404CDC" stroke-width="2"/>
<path d="M45.1899 49.3538L49.6013 45.0566H60.5593L50.8521 54.7639L45.1899 49.3538Z" fill="#40D0FD"/>
<path d="M31.4409 46.4768L36.9521 52.1193L60.56 28.3145H49.602L31.4409 46.4768Z" fill="#41D0FD"/>
<path d="M39.668 54.8175L45.2579 60.3247L50.8518 54.7636L45.1897 49.3535L39.668 54.8175Z" fill="#1FBCFD"/>
<path d="M45.2578 60.3228L50.8517 54.7617L60.4224 64.4414H49.4027L45.2578 60.3228Z" fill="#095A9D"/>
<path d="M45.2578 60.3228L50.4697 58.589L48.7136 56.8867L45.2578 60.3228Z" fill="#0E5199"/>
<path d="M9.68 122.144H18.344V124.208H9.68V122.144ZM9.92 131H7.52V114.2H19.376V116.288H9.92V131ZM22.4184 131V113.192H24.7224V131H22.4184ZM34.4735 131.144C33.3855 131.144 32.4255 130.944 31.5935 130.544C30.7775 130.144 30.1375 129.536 29.6735 128.72C29.2255 127.888 29.0015 126.848 29.0015 125.6V118.28H31.3055V125.336C31.3055 126.584 31.6015 127.52 32.1935 128.144C32.8015 128.768 33.6495 129.08 34.7375 129.08C35.5375 129.08 36.2335 128.92 36.8255 128.6C37.4175 128.264 37.8735 127.784 38.1935 127.16C38.5135 126.52 38.6735 125.752 38.6735 124.856V118.28H40.9775V131H38.7935V127.568L39.1535 128.48C38.7375 129.328 38.1135 129.984 37.2815 130.448C36.4495 130.912 35.5135 131.144 34.4735 131.144ZM49.7317 131.144C48.4517 131.144 47.4597 130.8 46.7557 130.112C46.0517 129.424 45.6997 128.44 45.6997 127.16V115.496H48.0037V127.064C48.0037 127.752 48.1717 128.28 48.5077 128.648C48.8597 129.016 49.3557 129.2 49.9957 129.2C50.7157 129.2 51.3157 129 51.7957 128.6L52.5157 130.256C52.1637 130.56 51.7397 130.784 51.2437 130.928C50.7637 131.072 50.2597 131.144 49.7317 131.144ZM43.5397 120.176V118.28H51.6517V120.176H43.5397ZM59.3645 131.144C58.0845 131.144 57.0925 130.8 56.3885 130.112C55.6845 129.424 55.3325 128.44 55.3325 127.16V115.496H57.6365V127.064C57.6365 127.752 57.8045 128.28 58.1405 128.648C58.4925 129.016 58.9885 129.2 59.6285 129.2C60.3485 129.2 60.9485 129 61.4285 128.6L62.1485 130.256C61.7965 130.56 61.3725 130.784 60.8765 130.928C60.3965 131.072 59.8925 131.144 59.3645 131.144ZM53.1725 120.176V118.28H61.2845V120.176H53.1725ZM70.1761 131.144C68.8161 131.144 67.6161 130.864 66.5761 130.304C65.5521 129.744 64.7521 128.976 64.1761 128C63.6161 127.024 63.3361 125.904 63.3361 124.64C63.3361 123.376 63.6081 122.256 64.1521 121.28C64.7121 120.304 65.4721 119.544 66.4321 119C67.4081 118.44 68.5041 118.16 69.7201 118.16C70.9521 118.16 72.0401 118.432 72.9841 118.976C73.9281 119.52 74.6641 120.288 75.1921 121.28C75.7361 122.256 76.0081 123.4 76.0081 124.712C76.0081 124.808 76.0001 124.92 75.9841 125.048C75.9841 125.176 75.9761 125.296 75.9601 125.408H65.1361V123.752H74.7601L73.8241 124.328C73.8401 123.512 73.6721 122.784 73.3201 122.144C72.9681 121.504 72.4801 121.008 71.8561 120.656C71.2481 120.288 70.5361 120.104 69.7201 120.104C68.9201 120.104 68.2081 120.288 67.5841 120.656C66.9601 121.008 66.4721 121.512 66.1201 122.168C65.7681 122.808 65.5921 123.544 65.5921 124.376V124.76C65.5921 125.608 65.7841 126.368 66.1681 127.04C66.5681 127.696 67.1201 128.208 67.8241 128.576C68.5281 128.944 69.3361 129.128 70.2481 129.128C71.0001 129.128 71.6801 129 72.2881 128.744C72.9121 128.488 73.4561 128.104 73.9201 127.592L75.1921 129.08C74.6161 129.752 73.8961 130.264 73.0321 130.616C72.1841 130.968 71.2321 131.144 70.1761 131.144ZM79.2074 131V118.28H81.4154V121.736L81.1994 120.872C81.5514 119.992 82.1434 119.32 82.9754 118.856C83.8074 118.392 84.8314 118.16 86.0474 118.16V120.392C85.9514 120.376 85.8554 120.368 85.7594 120.368C85.6794 120.368 85.5994 120.368 85.5194 120.368C84.2874 120.368 83.3114 120.736 82.5914 121.472C81.8714 122.208 81.5114 123.272 81.5114 124.664V131H79.2074Z" fill="black"/>
</svg>
