<svg width="92" height="136" viewBox="0 0 92 136" fill="none" xmlns="http://www.w3.org/2000/svg">
<circle cx="46" cy="46" r="45" fill="#FFF4F1" stroke="#0F52BA" stroke-width="2"/>
<path d="M55.6551 46.9721C55.6387 44.1748 56.9061 42.0666 59.4654 40.5121C58.034 38.4613 55.8684 37.3334 53.0137 37.116C50.3107 36.9027 47.3535 38.691 46.2707 38.691C45.1264 38.691 42.5096 37.1898 40.4506 37.1898C36.2014 37.2555 31.6855 40.5777 31.6855 47.3371C31.6855 49.3346 32.0506 51.3977 32.7807 53.5223C33.7568 56.3195 37.276 63.1732 40.9469 63.0625C42.8664 63.0174 44.224 61.7008 46.7219 61.7008C49.1459 61.7008 50.401 63.0625 52.542 63.0625C56.2457 63.0092 59.4285 56.7789 60.3555 53.9734C55.3885 51.6314 55.6551 47.1156 55.6551 46.9721ZM51.3443 34.4623C53.4238 31.9932 53.2352 29.7455 53.1736 28.9375C51.3361 29.0441 49.2115 30.1885 48.0016 31.5953C46.6686 33.1047 45.8852 34.9709 46.0533 37.075C48.0385 37.2268 49.8514 36.2055 51.3443 34.4623Z" fill="black"/>
<path d="M27.184 130V117.28H29.488V130H27.184ZM28.336 114.832C27.888 114.832 27.512 114.688 27.208 114.4C26.92 114.112 26.776 113.76 26.776 113.344C26.776 112.912 26.92 112.552 27.208 112.264C27.512 111.976 27.888 111.832 28.336 111.832C28.784 111.832 29.152 111.976 29.44 112.264C29.744 112.536 29.896 112.88 29.896 113.296C29.896 113.728 29.752 114.096 29.464 114.4C29.176 114.688 28.8 114.832 28.336 114.832ZM41.8071 130.192C40.5271 130.192 39.3351 129.976 38.2311 129.544C37.1431 129.112 36.1991 128.512 35.3991 127.744C34.5991 126.96 33.9751 126.048 33.5271 125.008C33.0791 123.968 32.8551 122.832 32.8551 121.6C32.8551 120.368 33.0791 119.232 33.5271 118.192C33.9751 117.152 34.5991 116.248 35.3991 115.48C36.1991 114.696 37.1431 114.088 38.2311 113.656C39.3191 113.224 40.5111 113.008 41.8071 113.008C43.0871 113.008 44.2631 113.224 45.3351 113.656C46.4231 114.072 47.3671 114.672 48.1671 115.456C48.9831 116.224 49.6071 117.128 50.0391 118.168C50.4871 119.208 50.7111 120.352 50.7111 121.6C50.7111 122.848 50.4871 123.992 50.0391 125.032C49.6071 126.072 48.9831 126.984 48.1671 127.768C47.3671 128.536 46.4231 129.136 45.3351 129.568C44.2631 129.984 43.0871 130.192 41.8071 130.192ZM41.8071 128.056C42.7351 128.056 43.5911 127.896 44.3751 127.576C45.1751 127.256 45.8631 126.808 46.4391 126.232C47.0311 125.64 47.4871 124.952 47.8071 124.168C48.1431 123.384 48.3111 122.528 48.3111 121.6C48.3111 120.672 48.1431 119.816 47.8071 119.032C47.4871 118.248 47.0311 117.568 46.4391 116.992C45.8631 116.4 45.1751 115.944 44.3751 115.624C43.5911 115.304 42.7351 115.144 41.8071 115.144C40.8631 115.144 39.9911 115.304 39.1911 115.624C38.4071 115.944 37.7191 116.4 37.1271 116.992C36.5351 117.568 36.0711 118.248 35.7351 119.032C35.4151 119.816 35.2551 120.672 35.2551 121.6C35.2551 122.528 35.4151 123.384 35.7351 124.168C36.0711 124.952 36.5351 125.64 37.1271 126.232C37.7191 126.808 38.4071 127.256 39.1911 127.576C39.9911 127.896 40.8631 128.056 41.8071 128.056ZM59.2754 130.192C57.9954 130.192 56.7714 130 55.6034 129.616C54.4354 129.216 53.5154 128.704 52.8434 128.08L53.7314 126.208C54.3714 126.768 55.1874 127.232 56.1794 127.6C57.1714 127.968 58.2034 128.152 59.2754 128.152C60.2514 128.152 61.0434 128.04 61.6514 127.816C62.2594 127.592 62.7074 127.288 62.9954 126.904C63.2834 126.504 63.4274 126.056 63.4274 125.56C63.4274 124.984 63.2354 124.52 62.8514 124.168C62.4834 123.816 61.9954 123.536 61.3874 123.328C60.7954 123.104 60.1394 122.912 59.4194 122.752C58.6994 122.592 57.9714 122.408 57.2354 122.2C56.5154 121.976 55.8514 121.696 55.2434 121.36C54.6514 121.024 54.1714 120.576 53.8034 120.016C53.4354 119.44 53.2514 118.704 53.2514 117.808C53.2514 116.944 53.4754 116.152 53.9234 115.432C54.3874 114.696 55.0914 114.112 56.0354 113.68C56.9954 113.232 58.2114 113.008 59.6834 113.008C60.6594 113.008 61.6274 113.136 62.5874 113.392C63.5474 113.648 64.3794 114.016 65.0834 114.496L64.2914 116.416C63.5714 115.936 62.8114 115.592 62.0114 115.384C61.2114 115.16 60.4354 115.048 59.6834 115.048C58.7394 115.048 57.9634 115.168 57.3554 115.408C56.7474 115.648 56.2994 115.968 56.0114 116.368C55.7394 116.768 55.6034 117.216 55.6034 117.712C55.6034 118.304 55.7874 118.776 56.1554 119.128C56.5394 119.48 57.0274 119.76 57.6194 119.968C58.2274 120.176 58.8914 120.368 59.6114 120.544C60.3314 120.704 61.0514 120.888 61.7714 121.096C62.5074 121.304 63.1714 121.576 63.7634 121.912C64.3714 122.248 64.8594 122.696 65.2274 123.256C65.5954 123.816 65.7794 124.536 65.7794 125.416C65.7794 126.264 65.5474 127.056 65.0834 127.792C64.6194 128.512 63.8994 129.096 62.9234 129.544C61.9634 129.976 60.7474 130.192 59.2754 130.192Z" fill="black"/>
</svg>
