<svg width="92" height="137" viewBox="0 0 92 137" fill="none" xmlns="http://www.w3.org/2000/svg">
<circle cx="46" cy="46.3125" r="45" fill="#FFF4F1" stroke="#404CDC" stroke-width="2"/>
<path d="M55.6551 47.2846C55.6387 44.4873 56.9061 42.3791 59.4654 40.8246C58.034 38.7738 55.8684 37.6459 53.0137 37.4285C50.3107 37.2152 47.3535 39.0035 46.2707 39.0035C45.1264 39.0035 42.5096 37.5023 40.4506 37.5023C36.2014 37.568 31.6855 40.8902 31.6855 47.6496C31.6855 49.6471 32.0506 51.7102 32.7807 53.8348C33.7568 56.632 37.276 63.4857 40.9469 63.375C42.8664 63.3299 44.224 62.0133 46.7219 62.0133C49.1459 62.0133 50.401 63.375 52.542 63.375C56.2457 63.3217 59.4285 57.0914 60.3555 54.2859C55.3885 51.9439 55.6551 47.4281 55.6551 47.2846ZM51.3443 34.7748C53.4238 32.3057 53.2352 30.058 53.1736 29.25C51.3361 29.3566 49.2115 30.501 48.0016 31.9078C46.6686 33.4172 45.8852 35.2834 46.0533 37.3875C48.0385 37.5393 49.8514 36.518 51.3443 34.7748Z" fill="black"/>
<path d="M27.184 131V118.28H29.488V131H27.184ZM28.336 115.832C27.888 115.832 27.512 115.688 27.208 115.4C26.92 115.112 26.776 114.76 26.776 114.344C26.776 113.912 26.92 113.552 27.208 113.264C27.512 112.976 27.888 112.832 28.336 112.832C28.784 112.832 29.152 112.976 29.44 113.264C29.744 113.536 29.896 113.88 29.896 114.296C29.896 114.728 29.752 115.096 29.464 115.4C29.176 115.688 28.8 115.832 28.336 115.832ZM41.8071 131.192C40.5271 131.192 39.3351 130.976 38.2311 130.544C37.1431 130.112 36.1991 129.512 35.3991 128.744C34.5991 127.96 33.9751 127.048 33.5271 126.008C33.0791 124.968 32.8551 123.832 32.8551 122.6C32.8551 121.368 33.0791 120.232 33.5271 119.192C33.9751 118.152 34.5991 117.248 35.3991 116.48C36.1991 115.696 37.1431 115.088 38.2311 114.656C39.3191 114.224 40.5111 114.008 41.8071 114.008C43.0871 114.008 44.2631 114.224 45.3351 114.656C46.4231 115.072 47.3671 115.672 48.1671 116.456C48.9831 117.224 49.6071 118.128 50.0391 119.168C50.4871 120.208 50.7111 121.352 50.7111 122.6C50.7111 123.848 50.4871 124.992 50.0391 126.032C49.6071 127.072 48.9831 127.984 48.1671 128.768C47.3671 129.536 46.4231 130.136 45.3351 130.568C44.2631 130.984 43.0871 131.192 41.8071 131.192ZM41.8071 129.056C42.7351 129.056 43.5911 128.896 44.3751 128.576C45.1751 128.256 45.8631 127.808 46.4391 127.232C47.0311 126.64 47.4871 125.952 47.8071 125.168C48.1431 124.384 48.3111 123.528 48.3111 122.6C48.3111 121.672 48.1431 120.816 47.8071 120.032C47.4871 119.248 47.0311 118.568 46.4391 117.992C45.8631 117.4 45.1751 116.944 44.3751 116.624C43.5911 116.304 42.7351 116.144 41.8071 116.144C40.8631 116.144 39.9911 116.304 39.1911 116.624C38.4071 116.944 37.7191 117.4 37.1271 117.992C36.5351 118.568 36.0711 119.248 35.7351 120.032C35.4151 120.816 35.2551 121.672 35.2551 122.6C35.2551 123.528 35.4151 124.384 35.7351 125.168C36.0711 125.952 36.5351 126.64 37.1271 127.232C37.7191 127.808 38.4071 128.256 39.1911 128.576C39.9911 128.896 40.8631 129.056 41.8071 129.056ZM59.2754 131.192C57.9954 131.192 56.7714 131 55.6034 130.616C54.4354 130.216 53.5154 129.704 52.8434 129.08L53.7314 127.208C54.3714 127.768 55.1874 128.232 56.1794 128.6C57.1714 128.968 58.2034 129.152 59.2754 129.152C60.2514 129.152 61.0434 129.04 61.6514 128.816C62.2594 128.592 62.7074 128.288 62.9954 127.904C63.2834 127.504 63.4274 127.056 63.4274 126.56C63.4274 125.984 63.2354 125.52 62.8514 125.168C62.4834 124.816 61.9954 124.536 61.3874 124.328C60.7954 124.104 60.1394 123.912 59.4194 123.752C58.6994 123.592 57.9714 123.408 57.2354 123.2C56.5154 122.976 55.8514 122.696 55.2434 122.36C54.6514 122.024 54.1714 121.576 53.8034 121.016C53.4354 120.44 53.2514 119.704 53.2514 118.808C53.2514 117.944 53.4754 117.152 53.9234 116.432C54.3874 115.696 55.0914 115.112 56.0354 114.68C56.9954 114.232 58.2114 114.008 59.6834 114.008C60.6594 114.008 61.6274 114.136 62.5874 114.392C63.5474 114.648 64.3794 115.016 65.0834 115.496L64.2914 117.416C63.5714 116.936 62.8114 116.592 62.0114 116.384C61.2114 116.16 60.4354 116.048 59.6834 116.048C58.7394 116.048 57.9634 116.168 57.3554 116.408C56.7474 116.648 56.2994 116.968 56.0114 117.368C55.7394 117.768 55.6034 118.216 55.6034 118.712C55.6034 119.304 55.7874 119.776 56.1554 120.128C56.5394 120.48 57.0274 120.76 57.6194 120.968C58.2274 121.176 58.8914 121.368 59.6114 121.544C60.3314 121.704 61.0514 121.888 61.7714 122.096C62.5074 122.304 63.1714 122.576 63.7634 122.912C64.3714 123.248 64.8594 123.696 65.2274 124.256C65.5954 124.816 65.7794 125.536 65.7794 126.416C65.7794 127.264 65.5474 128.056 65.0834 128.792C64.6194 129.512 63.8994 130.096 62.9234 130.544C61.9634 130.976 60.7474 131.192 59.2754 131.192Z" fill="black"/>
</svg>
