<svg width="93" height="136" viewBox="0 0 93 136" fill="none" xmlns="http://www.w3.org/2000/svg">
<path d="M8.23338 130V113.2H10.6334V127.912H19.7294V130H8.23338ZM30.0434 130V127.312L29.9234 126.808V122.224C29.9234 121.248 29.6354 120.496 29.0594 119.968C28.4994 119.424 27.6514 119.152 26.5154 119.152C25.7634 119.152 25.0274 119.28 24.3074 119.536C23.5874 119.776 22.9794 120.104 22.4834 120.52L21.5234 118.792C22.1794 118.264 22.9634 117.864 23.8754 117.592C24.8034 117.304 25.7714 117.16 26.7794 117.16C28.5234 117.16 29.8674 117.584 30.8114 118.432C31.7554 119.28 32.2274 120.576 32.2274 122.32V130H30.0434ZM25.8674 130.144C24.9234 130.144 24.0914 129.984 23.3714 129.664C22.6674 129.344 22.1234 128.904 21.7394 128.344C21.3554 127.768 21.1634 127.12 21.1634 126.4C21.1634 125.712 21.3234 125.088 21.6434 124.528C21.9794 123.968 22.5154 123.52 23.2514 123.184C24.0034 122.848 25.0114 122.68 26.2754 122.68H30.3074V124.336H26.3714C25.2194 124.336 24.4434 124.528 24.0434 124.912C23.6434 125.296 23.4434 125.76 23.4434 126.304C23.4434 126.928 23.6914 127.432 24.1874 127.816C24.6834 128.184 25.3714 128.368 26.2514 128.368C27.1154 128.368 27.8674 128.176 28.5074 127.792C29.1634 127.408 29.6354 126.848 29.9234 126.112L30.3794 127.696C30.0754 128.448 29.5394 129.048 28.7714 129.496C28.0034 129.928 27.0354 130.144 25.8674 130.144ZM36.4911 130V117.28H38.6991V120.736L38.4831 119.872C38.8351 118.992 39.4271 118.32 40.2591 117.856C41.0911 117.392 42.1151 117.16 43.3311 117.16V119.392C43.2351 119.376 43.1391 119.368 43.0431 119.368C42.9631 119.368 42.8831 119.368 42.8031 119.368C41.5711 119.368 40.5951 119.736 39.8751 120.472C39.1551 121.208 38.7951 122.272 38.7951 123.664V130H36.4911ZM53.1293 130V127.312L53.0093 126.808V122.224C53.0093 121.248 52.7213 120.496 52.1453 119.968C51.5853 119.424 50.7373 119.152 49.6013 119.152C48.8493 119.152 48.1133 119.28 47.3933 119.536C46.6733 119.776 46.0653 120.104 45.5693 120.52L44.6093 118.792C45.2653 118.264 46.0493 117.864 46.9613 117.592C47.8893 117.304 48.8573 117.16 49.8653 117.16C51.6093 117.16 52.9533 117.584 53.8973 118.432C54.8413 119.28 55.3133 120.576 55.3133 122.32V130H53.1293ZM48.9533 130.144C48.0093 130.144 47.1773 129.984 46.4573 129.664C45.7533 129.344 45.2093 128.904 44.8253 128.344C44.4413 127.768 44.2493 127.12 44.2493 126.4C44.2493 125.712 44.4093 125.088 44.7293 124.528C45.0653 123.968 45.6013 123.52 46.3373 123.184C47.0893 122.848 48.0973 122.68 49.3613 122.68H53.3933V124.336H49.4573C48.3053 124.336 47.5293 124.528 47.1293 124.912C46.7293 125.296 46.5293 125.76 46.5293 126.304C46.5293 126.928 46.7773 127.432 47.2733 127.816C47.7693 128.184 48.4573 128.368 49.3373 128.368C50.2013 128.368 50.9533 128.176 51.5933 127.792C52.2493 127.408 52.7213 126.848 53.0093 126.112L53.4653 127.696C53.1613 128.448 52.6253 129.048 51.8573 129.496C51.0893 129.928 50.1213 130.144 48.9533 130.144ZM62.6787 130L57.1107 117.28H59.5107L64.4547 128.8H63.3027L68.3427 117.28H70.5987L65.0307 130H62.6787ZM78.0614 130.144C76.7014 130.144 75.5014 129.864 74.4614 129.304C73.4374 128.744 72.6374 127.976 72.0614 127C71.5014 126.024 71.2214 124.904 71.2214 123.64C71.2214 122.376 71.4934 121.256 72.0374 120.28C72.5974 119.304 73.3574 118.544 74.3174 118C75.2934 117.44 76.3894 117.16 77.6054 117.16C78.8374 117.16 79.9254 117.432 80.8694 117.976C81.8134 118.52 82.5494 119.288 83.0774 120.28C83.6214 121.256 83.8934 122.4 83.8934 123.712C83.8934 123.808 83.8854 123.92 83.8694 124.048C83.8694 124.176 83.8614 124.296 83.8454 124.408H73.0214V122.752H82.6454L81.7094 123.328C81.7254 122.512 81.5574 121.784 81.2054 121.144C80.8534 120.504 80.3654 120.008 79.7414 119.656C79.1334 119.288 78.4214 119.104 77.6054 119.104C76.8054 119.104 76.0934 119.288 75.4694 119.656C74.8454 120.008 74.3574 120.512 74.0054 121.168C73.6534 121.808 73.4774 122.544 73.4774 123.376V123.76C73.4774 124.608 73.6694 125.368 74.0534 126.04C74.4534 126.696 75.0054 127.208 75.7094 127.576C76.4134 127.944 77.2214 128.128 78.1334 128.128C78.8854 128.128 79.5654 128 80.1734 127.744C80.7974 127.488 81.3414 127.104 81.8054 126.592L83.0774 128.08C82.5014 128.752 81.7814 129.264 80.9174 129.616C80.0694 129.968 79.1174 130.144 78.0614 130.144ZM87.0927 130V112.192H89.3967V130H87.0927Z" fill="black"/>
<circle cx="46.7134" cy="46" r="45" fill="#FFF4F1" stroke="#0F52BA" stroke-width="2"/>
<path d="M73.4842 30.8936C73.5041 30.9671 73.5144 31.0429 73.5144 31.1192V42.9636C73.5144 43.273 73.349 43.5589 73.0803 43.7128L63.1394 49.4367V60.7811C63.1395 60.9329 63.0996 61.082 63.0238 61.2136C62.948 61.3451 62.839 61.4544 62.7077 61.5305L41.956 73.4765C41.9085 73.5033 41.8568 73.5204 41.8049 73.5391C41.7854 73.5453 41.7672 73.5573 41.7467 73.5627C41.6016 73.6009 41.4491 73.6009 41.304 73.5627C41.2802 73.5564 41.2586 73.5432 41.236 73.5347C41.1884 73.5173 41.1388 73.5022 41.0936 73.4765L20.3462 61.5303C20.2143 61.4546 20.1048 61.3455 20.0286 61.214C19.9524 61.0824 19.9122 60.9331 19.9121 60.7811V25.2478C19.9121 25.1699 19.923 25.0943 19.9423 25.0211C19.9488 24.9961 19.9638 24.9735 19.9726 24.9486C19.9887 24.9034 20.004 24.8569 20.0277 24.8148C20.0438 24.7868 20.0675 24.7641 20.0869 24.7382C20.1119 24.7036 20.1345 24.668 20.1636 24.6377C20.1885 24.613 20.221 24.5945 20.249 24.573C20.2804 24.547 20.3083 24.519 20.3439 24.4984H20.3449L30.719 18.5255C30.8504 18.4499 30.9993 18.4102 31.1509 18.4102C31.3025 18.4102 31.4514 18.4499 31.5827 18.5255L41.9569 24.4984H41.959C41.9935 24.5202 42.0228 24.547 42.054 24.5719C42.0821 24.5935 42.1135 24.613 42.1382 24.6368C42.1686 24.668 42.1901 24.7038 42.2159 24.7382C42.2343 24.7641 42.2592 24.7868 42.2743 24.8148C42.299 24.8579 42.313 24.9034 42.3304 24.9488C42.339 24.9735 42.3541 24.9961 42.3606 25.0221C42.3805 25.0956 42.3907 25.1716 42.3909 25.2478V47.4412L51.0356 42.4636V31.1181C51.0356 31.0427 51.0464 30.9659 51.0659 30.8936C51.0735 30.8677 51.0875 30.8451 51.0961 30.8204C51.1134 30.7749 51.1285 30.7282 51.1522 30.6864C51.1683 30.6583 51.192 30.6357 51.2106 30.6097C51.2364 30.5752 51.2579 30.5396 51.2881 30.5092C51.3132 30.4845 51.3444 30.4661 51.3725 30.4445C51.4049 30.4186 51.433 30.3905 51.4675 30.37H51.4686L61.8437 24.3971C61.9751 24.3214 62.124 24.2815 62.2756 24.2815C62.4272 24.2815 62.5761 24.3214 62.7075 24.3971L73.0816 30.37C73.1182 30.3915 73.1463 30.4186 73.1787 30.4433C73.2055 30.465 73.2369 30.4845 73.2619 30.5082C73.292 30.5396 73.3136 30.5752 73.3393 30.6097C73.359 30.6357 73.3827 30.6583 73.398 30.6864C73.4227 30.7282 73.4367 30.7749 73.4539 30.8204C73.4637 30.8451 73.4777 30.8677 73.4842 30.8936ZM71.7851 42.4638V32.6144L68.1546 34.7042L63.1392 37.592V47.4415L71.7861 42.4638H71.7851ZM61.4109 60.2813V50.425L56.4774 53.2426L42.3899 61.283V71.2317L61.4109 60.2809V60.2813ZM21.6414 26.7428V60.2813L40.6604 71.2308V61.284L30.7247 55.6608L30.7216 55.6587L30.7174 55.6566C30.6839 55.6372 30.6556 55.6091 30.6244 55.5854C30.5972 55.5637 30.566 55.5465 30.5423 55.5226L30.5402 55.5195C30.5122 55.4925 30.4927 55.459 30.469 55.4288C30.4473 55.3995 30.4215 55.3748 30.4041 55.3447L30.4031 55.3413C30.3836 55.3091 30.3717 55.2701 30.3576 55.2335C30.3436 55.201 30.3254 55.1707 30.3166 55.1363V55.1353C30.3059 55.0942 30.3038 55.0509 30.2994 55.0088C30.2952 54.9766 30.2865 54.9441 30.2865 54.9116V31.7207L25.2719 28.8316L21.6414 26.7441V26.7428ZM31.152 20.2722L22.5083 25.2478L31.15 30.2232L39.7925 25.2466L31.15 20.2722H31.152ZM35.6471 51.3234L40.6614 48.4369V26.7428L37.0313 28.8329L32.0155 31.7205V53.4143L35.6471 51.3234ZM62.2755 26.1438L53.633 31.1192L62.2755 36.0947L70.917 31.1181L62.2757 26.1438H62.2755ZM61.4107 37.592L56.3954 34.7042L52.7651 32.6144V42.4638L57.7794 45.3506L61.4109 47.4415V37.592H61.4107ZM41.5241 59.788L54.2008 52.5508L60.5376 48.9344L51.9014 43.9621L41.9579 49.6867L32.8954 54.9041L41.5241 59.788Z" fill="#FF2D20"/>
</svg>
