<svg width="125" height="137" viewBox="0 0 125 137" fill="none" xmlns="http://www.w3.org/2000/svg">
<circle cx="62.3418" cy="46.1562" r="45" fill="#FFF4F1" stroke="#0F52BA" stroke-width="2"/>
<path d="M66.7448 23.4402C64.3139 20.556 62.2205 17.6265 61.7928 17.0182C61.7827 17.0075 61.7704 16.999 61.7569 16.9932C61.7433 16.9874 61.7288 16.9844 61.714 16.9844C61.6993 16.9844 61.6847 16.9874 61.6711 16.9932C61.6576 16.999 61.6454 17.0075 61.6352 17.0182C61.2075 17.6266 59.1142 20.556 56.6831 23.4402C35.8172 50.0522 59.9696 68.0115 59.9696 68.0115L60.1721 68.1467C60.3521 70.9182 60.8024 74.9068 60.8024 74.9068H62.6031C62.6031 74.9068 63.0532 70.9408 63.2333 68.1468L63.436 67.989C63.4585 68.0116 87.6109 50.0523 66.7448 23.4402V23.4402ZM61.7027 67.6058C61.7027 67.6058 60.6223 66.682 60.3296 66.2089V66.1637L61.6352 37.1857C61.6352 37.0956 61.7703 37.0956 61.7703 37.1857L63.0758 66.1637V66.2089C62.7832 66.682 61.7027 67.6059 61.7027 67.6059V67.6058Z" fill="#01EC64"/>
<path d="M2.52 130.156V113.356H4.488L12.024 126.052H10.968L18.408 113.356H20.376L20.4 130.156H18.096L18.072 116.98H18.624L12 128.116H10.896L4.224 116.98H4.824V130.156H2.52ZM30.5539 130.3C29.2739 130.3 28.1379 130.02 27.1459 129.46C26.1539 128.9 25.3699 128.132 24.7939 127.156C24.2179 126.164 23.9299 125.044 23.9299 123.796C23.9299 122.532 24.2179 121.412 24.7939 120.436C25.3699 119.46 26.1539 118.7 27.1459 118.156C28.1379 117.596 29.2739 117.316 30.5539 117.316C31.8179 117.316 32.9459 117.596 33.9379 118.156C34.9459 118.7 35.7299 119.46 36.2899 120.436C36.8659 121.396 37.1539 122.516 37.1539 123.796C37.1539 125.06 36.8659 126.18 36.2899 127.156C35.7299 128.132 34.9459 128.9 33.9379 129.46C32.9459 130.02 31.8179 130.3 30.5539 130.3ZM30.5539 128.284C31.3699 128.284 32.0979 128.1 32.7379 127.732C33.3939 127.364 33.9059 126.844 34.2739 126.172C34.6419 125.484 34.8259 124.692 34.8259 123.796C34.8259 122.884 34.6419 122.1 34.2739 121.444C33.9059 120.772 33.3939 120.252 32.7379 119.884C32.0979 119.516 31.3699 119.332 30.5539 119.332C29.7379 119.332 29.0099 119.516 28.3699 119.884C27.7299 120.252 27.2179 120.772 26.8339 121.444C26.4499 122.1 26.2579 122.884 26.2579 123.796C26.2579 124.692 26.4499 125.484 26.8339 126.172C27.2179 126.844 27.7299 127.364 28.3699 127.732C29.0099 128.1 29.7379 128.284 30.5539 128.284ZM47.1323 117.316C48.1723 117.316 49.0843 117.516 49.8683 117.916C50.6683 118.316 51.2923 118.924 51.7403 119.74C52.1883 120.556 52.4123 121.588 52.4123 122.836V130.156H50.1083V123.1C50.1083 121.868 49.8043 120.94 49.1963 120.316C48.6043 119.692 47.7643 119.38 46.6763 119.38C45.8603 119.38 45.1483 119.54 44.5403 119.86C43.9323 120.18 43.4603 120.652 43.1243 121.276C42.8043 121.9 42.6443 122.676 42.6443 123.604V130.156H40.3403V117.436H42.5483V120.868L42.1883 119.956C42.6043 119.124 43.2443 118.476 44.1083 118.012C44.9723 117.548 45.9803 117.316 47.1323 117.316ZM62.2442 134.956C61.0762 134.956 59.9402 134.788 58.8362 134.452C57.7482 134.132 56.8602 133.668 56.1722 133.06L57.2762 131.284C57.8682 131.796 58.5962 132.196 59.4602 132.484C60.3242 132.788 61.2282 132.94 62.1722 132.94C63.6762 132.94 64.7802 132.588 65.4842 131.884C66.1882 131.18 66.5402 130.108 66.5402 128.668V125.98L66.7802 123.46L66.6602 120.916V117.436H68.8442V128.428C68.8442 130.668 68.2842 132.316 67.1642 133.372C66.0442 134.428 64.4042 134.956 62.2442 134.956ZM61.9562 129.628C60.7242 129.628 59.6202 129.372 58.6442 128.86C57.6842 128.332 56.9162 127.604 56.3402 126.676C55.7802 125.748 55.5002 124.676 55.5002 123.46C55.5002 122.228 55.7802 121.156 56.3402 120.244C56.9162 119.316 57.6842 118.596 58.6442 118.084C59.6202 117.572 60.7242 117.316 61.9562 117.316C63.0442 117.316 64.0362 117.54 64.9322 117.988C65.8282 118.42 66.5402 119.092 67.0682 120.004C67.6122 120.916 67.8842 122.068 67.8842 123.46C67.8842 124.836 67.6122 125.98 67.0682 126.892C66.5402 127.804 65.8282 128.492 64.9322 128.956C64.0362 129.404 63.0442 129.628 61.9562 129.628ZM62.2202 127.612C63.0682 127.612 63.8202 127.436 64.4762 127.084C65.1322 126.732 65.6442 126.244 66.0122 125.62C66.3962 124.996 66.5882 124.276 66.5882 123.46C66.5882 122.644 66.3962 121.924 66.0122 121.3C65.6442 120.676 65.1322 120.196 64.4762 119.86C63.8202 119.508 63.0682 119.332 62.2202 119.332C61.3722 119.332 60.6122 119.508 59.9402 119.86C59.2842 120.196 58.7642 120.676 58.3802 121.3C58.0122 121.924 57.8282 122.644 57.8282 123.46C57.8282 124.276 58.0122 124.996 58.3802 125.62C58.7642 126.244 59.2842 126.732 59.9402 127.084C60.6122 127.436 61.3722 127.612 62.2202 127.612ZM78.6945 130.3C77.4145 130.3 76.2785 130.02 75.2865 129.46C74.2945 128.9 73.5105 128.132 72.9345 127.156C72.3585 126.164 72.0705 125.044 72.0705 123.796C72.0705 122.532 72.3585 121.412 72.9345 120.436C73.5105 119.46 74.2945 118.7 75.2865 118.156C76.2785 117.596 77.4145 117.316 78.6945 117.316C79.9585 117.316 81.0865 117.596 82.0785 118.156C83.0865 118.7 83.8705 119.46 84.4305 120.436C85.0065 121.396 85.2945 122.516 85.2945 123.796C85.2945 125.06 85.0065 126.18 84.4305 127.156C83.8705 128.132 83.0865 128.9 82.0785 129.46C81.0865 130.02 79.9585 130.3 78.6945 130.3ZM78.6945 128.284C79.5105 128.284 80.2385 128.1 80.8785 127.732C81.5345 127.364 82.0465 126.844 82.4145 126.172C82.7825 125.484 82.9665 124.692 82.9665 123.796C82.9665 122.884 82.7825 122.1 82.4145 121.444C82.0465 120.772 81.5345 120.252 80.8785 119.884C80.2385 119.516 79.5105 119.332 78.6945 119.332C77.8785 119.332 77.1505 119.516 76.5105 119.884C75.8705 120.252 75.3585 120.772 74.9745 121.444C74.5905 122.1 74.3985 122.884 74.3985 123.796C74.3985 124.692 74.5905 125.484 74.9745 126.172C75.3585 126.844 75.8705 127.364 76.5105 127.732C77.1505 128.1 77.8785 128.284 78.6945 128.284ZM88.8169 130.156V113.356H95.8969C97.6889 113.356 99.2649 113.708 100.625 114.412C102.001 115.116 103.065 116.1 103.817 117.364C104.585 118.628 104.969 120.092 104.969 121.756C104.969 123.42 104.585 124.884 103.817 126.148C103.065 127.412 102.001 128.396 100.625 129.1C99.2649 129.804 97.6889 130.156 95.8969 130.156H88.8169ZM91.2169 128.068H95.7529C97.1449 128.068 98.3449 127.804 99.3529 127.276C100.377 126.748 101.169 126.012 101.729 125.068C102.289 124.108 102.569 123.004 102.569 121.756C102.569 120.492 102.289 119.388 101.729 118.444C101.169 117.5 100.377 116.764 99.3529 116.236C98.3449 115.708 97.1449 115.444 95.7529 115.444H91.2169V128.068ZM108.645 130.156V113.356H116.181C118.117 113.356 119.605 113.748 120.645 114.532C121.685 115.3 122.205 116.356 122.205 117.7C122.205 118.612 121.997 119.38 121.581 120.004C121.181 120.628 120.637 121.108 119.949 121.444C119.261 121.78 118.517 121.948 117.717 121.948L118.149 121.228C119.109 121.228 119.957 121.396 120.693 121.732C121.429 122.068 122.013 122.564 122.445 123.22C122.877 123.86 123.093 124.66 123.093 125.62C123.093 127.06 122.549 128.18 121.461 128.98C120.389 129.764 118.789 130.156 116.661 130.156H108.645ZM111.045 128.212H116.565C117.893 128.212 118.909 127.988 119.613 127.54C120.317 127.092 120.669 126.388 120.669 125.428C120.669 124.452 120.317 123.74 119.613 123.292C118.909 122.844 117.893 122.62 116.565 122.62H110.829V120.676H115.965C117.181 120.676 118.125 120.452 118.797 120.004C119.469 119.556 119.805 118.884 119.805 117.988C119.805 117.092 119.469 116.42 118.797 115.972C118.125 115.524 117.181 115.3 115.965 115.3H111.045V128.212Z" fill="black"/>
</svg>
