<svg width="92" height="137" viewBox="0 0 92 137" fill="none" xmlns="http://www.w3.org/2000/svg">
<circle cx="46" cy="46.3125" r="45" fill="#FFF4F1" stroke="#404CDC" stroke-width="2"/>
<g clip-path="url(#clip0_400_587)">
<path d="M32.6388 52.007L34.6451 58.5168C35.0959 59.9948 35.2839 61.0266 35.2086 61.6147C36.3059 58.6759 37.0725 55.4733 37.5088 52.007L39.9212 52.007C38.8839 57.6502 37.5157 61.751 35.8175 64.3091C34.4943 66.2805 33.0447 67.2661 31.4662 67.2661C31.0454 67.2661 30.5265 67.139 29.9108 66.8865L29.9108 65.5262C30.2117 65.5703 30.5646 65.5939 30.9705 65.5939C31.7068 65.5939 32.3004 65.3898 32.7519 64.9825C33.2926 64.4862 33.5632 63.9284 33.5632 63.3101C33.5632 62.888 33.3521 62.0216 32.9319 60.7111L30.1365 52.007L32.6387 52.007L32.6388 52.007ZM17.2838 48.0059L20.9586 59.2179L20.9812 59.2179L24.6786 48.0059L27.6994 48.0059C28.3609 53.5663 28.7515 58.6538 28.8715 63.2654L26.3246 63.2654C26.235 58.9545 25.9868 54.9009 25.5809 51.1038L25.5587 51.1038L21.6805 63.2654L19.741 63.2654L15.8862 51.1038L15.8635 51.1038C15.5775 54.7504 15.3975 58.8041 15.3225 63.2654L13 63.2654C13.1501 57.8396 13.5257 52.7536 14.1268 48.0059L17.2839 48.0059L17.2838 48.0059Z" fill="#00758F"/>
<path d="M58.4507 47.7794C62.4036 47.7794 64.3802 50.3048 64.3802 55.3532C64.3802 58.0965 63.7858 60.1687 62.5981 61.5686C62.384 61.8245 62.1474 62.0455 61.8983 62.2502L64.6957 63.6333L64.693 63.6332L63.6998 65.3484L60.0568 63.2228C59.453 63.4016 58.7886 63.491 58.0646 63.491C56.1236 63.491 54.6738 62.9253 53.7153 61.7954C52.6631 60.5455 52.1373 58.5777 52.1373 55.8955C52.1373 53.1677 52.7307 51.1034 53.9188 49.7017C55.0008 48.4195 56.5117 47.7793 58.4507 47.7793L58.4507 47.7794ZM46.3459 47.8016C47.7587 47.8016 49.0433 48.1797 50.2004 48.933L49.6127 50.2427C48.6226 49.8218 47.6464 49.6105 46.6837 49.6105C45.9026 49.6105 45.3007 49.7985 44.8811 50.1768C44.4592 50.5518 44.1982 51.0343 44.1982 51.6225C44.1982 52.5263 44.8422 53.3102 46.0311 53.9724C46.4206 54.1853 46.8088 54.4007 47.1956 54.6185L47.2843 54.6684L47.3288 54.6934L47.4176 54.7433L47.462 54.7683L47.5507 54.8184C48.4507 55.3258 49.2976 55.8101 49.2976 55.8101C50.4864 56.654 51.079 57.5537 51.079 59.0356C51.079 60.3298 50.6048 61.3921 49.6594 62.2234C48.7133 63.0509 47.4424 63.4659 45.8507 63.4659C44.3621 63.4659 42.9194 62.9883 41.522 62.0411L42.1757 60.7303C43.3783 61.3331 44.4666 61.6341 45.4438 61.6341C46.3603 61.6341 47.0777 61.4295 47.5967 61.0254C48.1147 60.6183 48.425 60.0506 48.425 59.3308C48.425 58.4247 47.7948 57.6502 46.6386 57.0004C46.2767 56.8005 45.9158 56.5986 45.5561 56.3948L45.4675 56.3446C45.3048 56.2527 45.1409 56.1596 44.9804 56.0684L44.8934 56.0189C44.1126 55.5749 43.4376 55.1869 43.4376 55.1869C42.2818 54.3414 41.7022 53.4343 41.7022 51.9397C41.7022 50.7035 42.1344 49.7044 42.9976 48.9443C43.8627 48.1825 44.979 47.8016 46.3459 47.8016ZM69.0257 48.0058L69.0257 61.3882L73.8272 61.3882L73.8272 63.2654L66.5906 63.2654L66.5906 48.0058L69.0257 48.0058ZM76.4952 61.3941L76.4952 61.7112L75.9673 61.7112L75.9673 63.2637L75.5638 63.2637L75.5638 61.7112L75.0154 61.7112L75.0154 61.3941L76.4954 61.3941L76.4952 61.3941ZM77.47 61.3941L77.9769 62.6685L78.4425 61.3941L79.0146 61.3941L79.0146 63.2637L78.6342 63.2637L78.6342 61.8408L78.1043 63.2637L77.83 63.2637L77.2992 61.8408L77.2788 61.8408L77.2788 63.2637L76.9189 63.2637L76.9189 61.3941L77.4701 61.3941L77.47 61.3941ZM58.2021 49.656C55.8727 49.656 54.7074 51.5785 54.7074 55.4209C54.7074 57.6219 55.0162 59.2179 55.6326 60.2127C56.2036 61.1333 57.0978 61.5927 58.3154 61.5927C60.6448 61.5927 61.81 59.6553 61.81 55.7822C61.81 53.612 61.5012 52.0297 60.8855 51.0344C60.3139 50.1158 59.4201 49.656 58.2023 49.656L58.2021 49.656Z" fill="#F29111"/>
<path d="M52.097 23.258C52.8698 21.3593 55.5717 22.7972 56.6202 23.4605C56.8772 23.6264 57.172 23.977 57.4666 24.1066C57.9263 24.1246 58.3855 24.1606 58.846 24.1798C59.7096 24.3828 60.5186 24.5486 61.1991 24.9362C64.3618 26.7987 66.4206 28.6967 68.3153 31.8317C68.7202 32.4958 68.9225 33.2144 69.2532 33.933C69.7123 35.0041 70.228 36.1284 70.7608 37.1412C70.9993 37.6214 71.1839 38.1553 71.5151 38.5609C71.6444 38.7463 72.0118 38.8009 72.2314 38.9117C72.8384 39.2259 73.5739 39.4645 74.1448 39.8332C75.211 40.4981 76.2419 41.2903 77.179 42.1013C77.5283 42.4144 77.7664 42.8575 78.0992 43.1886L78.0992 43.3557C77.8038 43.4464 77.5094 43.5392 77.2148 43.6136C76.5712 43.7789 76.0012 43.7415 75.3769 43.907C74.9911 44.0189 74.5121 44.1665 74.1074 44.204L74.1448 44.2417C74.3829 44.9218 75.6707 45.475 76.2597 45.8818C76.9751 46.3981 77.6379 47.0242 78.1715 47.7433C78.3558 47.9268 78.54 48.0938 78.7234 48.2767C78.8515 48.4621 78.8876 48.702 79.0173 48.8673L79.0173 48.9232C78.8737 48.8726 78.7704 48.7759 78.6726 48.6748L78.6141 48.6138C78.5557 48.5532 78.4968 48.4936 78.4296 48.4445C78.0237 48.1673 77.6207 47.8356 77.2148 47.5779C76.5169 47.1351 75.7076 46.8781 74.9911 46.4337C74.5859 46.1757 74.1998 45.8818 73.8136 45.5865C73.4635 45.3278 73.078 44.8308 72.858 44.462C72.7284 44.2583 72.7106 44.0189 72.5626 43.8715C72.589 43.6254 72.8146 43.5522 73.0421 43.4922L73.0945 43.4784C73.173 43.458 73.2499 43.4376 73.3169 43.4107C74.2729 43.0048 75.4126 42.8575 76.8843 42.8944C76.8288 42.5249 75.9092 42.0644 75.6157 41.8432C75.0264 41.4184 74.4025 40.9753 73.7774 40.5887C73.4461 40.3863 72.8753 40.2385 72.5083 40.0731C72.0118 39.8701 70.9082 39.6673 70.633 39.2807C70.1656 38.6714 69.8299 37.9445 69.5039 37.2103L69.4152 37.01C69.3856 36.9432 69.356 36.8764 69.3262 36.8097C68.941 35.9256 68.4623 35.0038 68.0762 34.0985C67.8742 33.6569 67.7815 33.2693 67.5604 32.8457C66.2185 30.2466 64.2325 28.0704 61.8245 26.5401C61.0332 26.0421 60.1509 25.5813 59.1769 25.2681C58.6249 25.1013 57.9624 25.1935 57.3743 25.0656L56.9872 25.0656C56.6569 24.9725 56.3811 24.6223 56.1233 24.4377C55.554 24.0511 54.9839 23.7916 54.3031 23.5158C54.0645 23.4051 53.3833 23.1475 53.1456 23.3503C52.9983 23.3874 52.9237 23.4429 52.8874 23.5907C52.7409 23.8112 52.8698 24.1433 52.9609 24.3467C53.2371 24.9359 53.6229 25.2861 53.9731 25.7841C54.2846 26.2257 54.6716 26.7237 54.8924 27.2038C55.369 28.236 55.5909 29.3796 56.0325 30.4116C56.1963 30.7997 56.4553 31.2413 56.6937 31.5914C56.8958 31.8693 57.2631 32.0702 57.3743 32.4219C57.5958 32.7907 57.0426 34.0075 56.9146 34.3939C56.4356 35.906 56.5284 38.0078 57.08 39.3185L57.1094 39.3876L57.1388 39.4576C57.3402 39.9377 57.5558 40.4546 58.0913 40.5888C58.1282 40.5522 58.0913 40.5714 58.1644 40.5522C58.294 39.5377 58.3305 38.5607 58.6802 37.767C58.8822 37.2707 59.2857 36.9198 59.5623 36.5147C59.7466 36.6251 59.7466 36.9579 59.8565 37.1781C60.0958 37.7493 60.3528 38.3756 60.6478 38.9485C61.2533 40.1283 61.9346 41.2721 62.7066 42.3041C62.9651 42.6728 63.3319 43.0785 63.6628 43.4105C63.8102 43.5391 63.9752 43.6134 64.086 43.7788L64.1221 43.7788L64.1221 43.8345C63.5705 43.6312 63.2208 43.0605 62.7809 42.7273C61.9525 42.101 60.9606 41.1605 60.3897 40.2581C60.1509 39.74 59.8927 39.2435 59.6354 38.728L59.6354 38.6907C59.5254 38.838 59.5623 38.9842 59.5072 39.207C59.2684 40.1283 59.4523 41.1792 58.6249 41.5106C57.687 41.8987 56.9873 40.8844 56.6937 40.4234C55.7556 38.8934 55.4986 36.3123 56.1602 34.2287C56.3072 33.7675 56.3272 33.2144 56.5837 32.8461C56.5283 32.5132 56.2717 32.4222 56.1233 32.2182C55.8659 31.8695 55.6456 31.4634 55.444 31.0762C55.057 30.3198 54.7816 29.4161 54.4877 28.6049C54.3585 28.2737 54.3215 27.9411 54.1927 27.6275C53.973 27.1489 53.568 26.6687 53.2556 26.2453C52.8325 25.6367 51.6003 24.4572 52.097 23.258ZM58.1278 26.8703C58.1769 26.9195 58.2362 26.9626 58.2976 27.005L58.3716 27.0558C58.4703 27.1242 58.5658 27.1961 58.6243 27.2941C58.7172 27.4238 58.7345 27.5518 58.8456 27.6818C58.8456 28.125 58.7172 28.4196 58.4579 28.6032C58.4579 28.6032 58.4402 28.6226 58.422 28.6406C58.275 28.3452 58.1462 28.0514 57.9982 27.7562C57.8159 27.4986 57.5581 27.2942 57.4096 26.9999L57.3739 26.9999L57.3739 26.9629C57.5958 26.9081 57.8159 26.8703 58.1278 26.8703Z" fill="#00758F"/>
</g>
<path d="M5.52 131V114.2H7.488L15.024 126.896H13.968L21.408 114.2H23.376L23.4 131H21.096L21.072 117.824H21.624L15 128.96H13.896L7.224 117.824H7.824V131H5.52ZM28.6579 135.8C28.0499 135.8 27.4579 135.696 26.8819 135.488C26.3059 135.296 25.8099 135.008 25.3939 134.624L26.3779 132.896C26.6979 133.2 27.0499 133.432 27.4339 133.592C27.8179 133.752 28.2259 133.832 28.6579 133.832C29.2179 133.832 29.6819 133.688 30.0499 133.4C30.4179 133.112 30.7619 132.6 31.0819 131.864L31.8739 130.112L32.1139 129.824L37.1059 118.28H39.3619L33.1939 132.272C32.8259 133.168 32.4099 133.872 31.9459 134.384C31.4979 134.896 31.0019 135.256 30.4579 135.464C29.9139 135.688 29.3139 135.8 28.6579 135.8ZM31.6819 131.408L25.8739 118.28H28.2739L33.2179 129.608L31.6819 131.408ZM46.5801 131.192C45.3001 131.192 44.0761 131 42.9081 130.616C41.7401 130.216 40.8201 129.704 40.1481 129.08L41.0361 127.208C41.6761 127.768 42.4921 128.232 43.4841 128.6C44.4761 128.968 45.5081 129.152 46.5801 129.152C47.5561 129.152 48.3481 129.04 48.9561 128.816C49.5641 128.592 50.0121 128.288 50.3001 127.904C50.5881 127.504 50.7321 127.056 50.7321 126.56C50.7321 125.984 50.5401 125.52 50.1561 125.168C49.7881 124.816 49.3001 124.536 48.6921 124.328C48.1001 124.104 47.4441 123.912 46.7241 123.752C46.0041 123.592 45.2761 123.408 44.5401 123.2C43.8201 122.976 43.1561 122.696 42.5481 122.36C41.9561 122.024 41.4761 121.576 41.1081 121.016C40.7401 120.44 40.5561 119.704 40.5561 118.808C40.5561 117.944 40.7801 117.152 41.2281 116.432C41.6921 115.696 42.3961 115.112 43.3401 114.68C44.3001 114.232 45.5161 114.008 46.9881 114.008C47.9641 114.008 48.9321 114.136 49.8921 114.392C50.8521 114.648 51.6841 115.016 52.3881 115.496L51.5961 117.416C50.8761 116.936 50.1161 116.592 49.3161 116.384C48.5161 116.16 47.7401 116.048 46.9881 116.048C46.0441 116.048 45.2681 116.168 44.6601 116.408C44.0521 116.648 43.6041 116.968 43.3161 117.368C43.0441 117.768 42.9081 118.216 42.9081 118.712C42.9081 119.304 43.0921 119.776 43.4601 120.128C43.8441 120.48 44.3321 120.76 44.9241 120.968C45.5321 121.176 46.1961 121.368 46.9161 121.544C47.6361 121.704 48.3561 121.888 49.0761 122.096C49.8121 122.304 50.4761 122.576 51.0681 122.912C51.6761 123.248 52.1641 123.696 52.5321 124.256C52.9001 124.816 53.0841 125.536 53.0841 126.416C53.0841 127.264 52.8521 128.056 52.3881 128.792C51.9241 129.512 51.2041 130.096 50.2281 130.544C49.2681 130.976 48.0521 131.192 46.5801 131.192ZM64.1743 131.192C62.8943 131.192 61.7023 130.976 60.5983 130.544C59.5103 130.112 58.5663 129.512 57.7663 128.744C56.9663 127.96 56.3423 127.048 55.8943 126.008C55.4463 124.968 55.2223 123.832 55.2223 122.6C55.2223 121.368 55.4463 120.232 55.8943 119.192C56.3423 118.152 56.9663 117.248 57.7663 116.48C58.5663 115.696 59.5103 115.088 60.5983 114.656C61.6863 114.224 62.8783 114.008 64.1743 114.008C65.4543 114.008 66.6303 114.224 67.7023 114.656C68.7903 115.072 69.7343 115.672 70.5343 116.456C71.3503 117.224 71.9743 118.128 72.4063 119.168C72.8543 120.208 73.0783 121.352 73.0783 122.6C73.0783 123.848 72.8543 124.992 72.4063 126.032C71.9743 127.072 71.3503 127.984 70.5343 128.768C69.7343 129.536 68.7903 130.136 67.7023 130.568C66.6303 130.984 65.4543 131.192 64.1743 131.192ZM69.6703 134.504C69.1103 134.504 68.5743 134.432 68.0623 134.288C67.5503 134.16 67.0383 133.944 66.5263 133.64C66.0143 133.352 65.4863 132.968 64.9423 132.488C64.3983 132.024 63.8063 131.448 63.1663 130.76L65.7343 130.088C66.2143 130.68 66.6703 131.16 67.1023 131.528C67.5503 131.912 67.9903 132.184 68.4223 132.344C68.8543 132.52 69.2783 132.608 69.6943 132.608C70.8943 132.608 71.9183 132.128 72.7663 131.168L73.8943 132.536C72.8063 133.848 71.3983 134.504 69.6703 134.504ZM64.1743 129.056C65.1023 129.056 65.9583 128.896 66.7423 128.576C67.5423 128.256 68.2303 127.8 68.8063 127.208C69.3983 126.616 69.8543 125.928 70.1743 125.144C70.5103 124.36 70.6783 123.512 70.6783 122.6C70.6783 121.672 70.5103 120.816 70.1743 120.032C69.8543 119.248 69.3983 118.568 68.8063 117.992C68.2303 117.4 67.5423 116.944 66.7423 116.624C65.9583 116.304 65.1023 116.144 64.1743 116.144C63.2303 116.144 62.3583 116.304 61.5583 116.624C60.7743 116.944 60.0863 117.4 59.4943 117.992C58.9023 118.568 58.4383 119.248 58.1023 120.032C57.7823 120.816 57.6223 121.672 57.6223 122.6C57.6223 123.512 57.7823 124.36 58.1023 125.144C58.4383 125.928 58.9023 126.616 59.4943 127.208C60.0863 127.8 60.7743 128.256 61.5583 128.576C62.3583 128.896 63.2303 129.056 64.1743 129.056ZM76.7466 131V114.2H79.1466V128.912H88.2426V131H76.7466Z" fill="black"/>
<defs>
<clipPath id="clip0_400_587">
<rect width="66.0172" height="45" fill="white" transform="translate(13 22.3125)"/>
</clipPath>
</defs>
</svg>
