<svg width="92" height="136" viewBox="0 0 92 136" fill="none" xmlns="http://www.w3.org/2000/svg">
<circle cx="46" cy="46" r="45" fill="#FFF4F1" stroke="#0F52BA" stroke-width="2"/>
<g clip-path="url(#clip0_400_587)">
<path d="M32.6388 51.6945L34.6451 58.2043C35.0959 59.6823 35.2839 60.7141 35.2086 61.3022C36.3059 58.3634 37.0725 55.1608 37.5088 51.6945L39.9212 51.6945C38.8839 57.3377 37.5157 61.4385 35.8175 63.9966C34.4943 65.968 33.0447 66.9536 31.4662 66.9536C31.0454 66.9536 30.5265 66.8265 29.9108 66.574L29.9108 65.2137C30.2117 65.2578 30.5646 65.2814 30.9705 65.2814C31.7068 65.2814 32.3004 65.0773 32.7519 64.67C33.2926 64.1737 33.5632 63.6159 33.5632 62.9976C33.5632 62.5755 33.3521 61.7091 32.9319 60.3986L30.1365 51.6945L32.6387 51.6945L32.6388 51.6945ZM17.2838 47.6934L20.9586 58.9054L20.9812 58.9054L24.6786 47.6934L27.6994 47.6934C28.3609 53.2538 28.7515 58.3413 28.8715 62.9529L26.3246 62.9529C26.235 58.642 25.9868 54.5884 25.5809 50.7913L25.5587 50.7913L21.6805 62.9529L19.741 62.9529L15.8862 50.7913L15.8635 50.7913C15.5775 54.4379 15.3975 58.4916 15.3225 62.9529L13 62.9529C13.1501 57.5271 13.5257 52.4411 14.1268 47.6934L17.2839 47.6934L17.2838 47.6934Z" fill="#00758F"/>
<path d="M58.4507 47.4669C62.4036 47.4669 64.3802 49.9923 64.3802 55.0407C64.3802 57.784 63.7858 59.8562 62.5981 61.2561C62.384 61.512 62.1474 61.733 61.8983 61.9377L64.6957 63.3208L64.693 63.3207L63.6998 65.0359L60.0568 62.9103C59.453 63.0891 58.7886 63.1785 58.0646 63.1785C56.1236 63.1785 54.6738 62.6128 53.7153 61.4829C52.6631 60.233 52.1373 58.2652 52.1373 55.583C52.1373 52.8552 52.7307 50.7909 53.9188 49.3892C55.0008 48.107 56.5117 47.4668 58.4507 47.4668L58.4507 47.4669ZM46.3459 47.4891C47.7587 47.4891 49.0433 47.8672 50.2004 48.6205L49.6127 49.9302C48.6226 49.5093 47.6464 49.298 46.6837 49.298C45.9026 49.298 45.3007 49.486 44.8811 49.8643C44.4592 50.2393 44.1982 50.7218 44.1982 51.31C44.1982 52.2138 44.8422 52.9977 46.0311 53.6599C46.4206 53.8728 46.8088 54.0882 47.1956 54.306L47.2843 54.3559L47.3288 54.3809L47.4176 54.4308L47.462 54.4558L47.5507 54.5059C48.4507 55.0133 49.2976 55.4976 49.2976 55.4976C50.4864 56.3415 51.079 57.2412 51.079 58.7231C51.079 60.0173 50.6048 61.0796 49.6594 61.9109C48.7133 62.7384 47.4424 63.1534 45.8507 63.1534C44.3621 63.1534 42.9194 62.6758 41.522 61.7286L42.1757 60.4178C43.3783 61.0206 44.4666 61.3216 45.4438 61.3216C46.3603 61.3216 47.0777 61.117 47.5967 60.7129C48.1147 60.3058 48.425 59.7381 48.425 59.0183C48.425 58.1122 47.7948 57.3377 46.6386 56.6879C46.2767 56.488 45.9158 56.2861 45.5561 56.0823L45.4675 56.0321C45.3048 55.9402 45.1409 55.8471 44.9804 55.7559L44.8934 55.7064C44.1126 55.2624 43.4376 54.8744 43.4376 54.8744C42.2818 54.0289 41.7022 53.1218 41.7022 51.6272C41.7022 50.391 42.1344 49.3919 42.9976 48.6318C43.8627 47.87 44.979 47.4891 46.3459 47.4891ZM69.0257 47.6933L69.0257 61.0757L73.8272 61.0757L73.8272 62.9529L66.5906 62.9529L66.5906 47.6933L69.0257 47.6933ZM76.4952 61.0816L76.4952 61.3987L75.9673 61.3987L75.9673 62.9512L75.5638 62.9512L75.5638 61.3987L75.0154 61.3987L75.0154 61.0816L76.4954 61.0816L76.4952 61.0816ZM77.47 61.0816L77.9769 62.356L78.4425 61.0816L79.0146 61.0816L79.0146 62.9512L78.6342 62.9512L78.6342 61.5283L78.1043 62.9512L77.83 62.9512L77.2992 61.5283L77.2788 61.5283L77.2788 62.9512L76.9189 62.9512L76.9189 61.0816L77.4701 61.0816L77.47 61.0816ZM58.2021 49.3435C55.8727 49.3435 54.7074 51.266 54.7074 55.1084C54.7074 57.3094 55.0162 58.9054 55.6326 59.9002C56.2036 60.8208 57.0978 61.2802 58.3154 61.2802C60.6448 61.2802 61.81 59.3428 61.81 55.4697C61.81 53.2995 61.5012 51.7172 60.8855 50.7219C60.3139 49.8033 59.4201 49.3435 58.2023 49.3435L58.2021 49.3435Z" fill="#F29111"/>
<path d="M52.097 22.9455C52.8698 21.0468 55.5717 22.4847 56.6202 23.148C56.8772 23.3139 57.172 23.6645 57.4666 23.7941C57.9263 23.8121 58.3855 23.8481 58.846 23.8673C59.7096 24.0703 60.5186 24.2361 61.1991 24.6237C64.3618 26.4862 66.4206 28.3842 68.3153 31.5192C68.7202 32.1833 68.9225 32.9019 69.2532 33.6205C69.7123 34.6916 70.228 35.8159 70.7608 36.8287C70.9993 37.3089 71.1839 37.8428 71.5151 38.2484C71.6444 38.4338 72.0118 38.4884 72.2314 38.5992C72.8384 38.9134 73.5739 39.152 74.1448 39.5207C75.211 40.1856 76.2419 40.9778 77.179 41.7888C77.5283 42.1019 77.7664 42.545 78.0992 42.8761L78.0992 43.0432C77.8038 43.1339 77.5094 43.2267 77.2148 43.3011C76.5712 43.4664 76.0012 43.429 75.3769 43.5945C74.9911 43.7064 74.5121 43.854 74.1074 43.8915L74.1448 43.9292C74.3829 44.6093 75.6707 45.1625 76.2597 45.5693C76.9751 46.0856 77.6379 46.7117 78.1715 47.4308C78.3558 47.6143 78.54 47.7813 78.7234 47.9642C78.8515 48.1496 78.8876 48.3895 79.0173 48.5548L79.0173 48.6107C78.8737 48.5601 78.7704 48.4634 78.6726 48.3623L78.6141 48.3013C78.5557 48.2407 78.4968 48.1811 78.4296 48.132C78.0237 47.8548 77.6207 47.5231 77.2148 47.2654C76.5169 46.8226 75.7076 46.5656 74.9911 46.1212C74.5859 45.8632 74.1998 45.5693 73.8136 45.274C73.4635 45.0153 73.078 44.5183 72.858 44.1495C72.7284 43.9458 72.7106 43.7064 72.5626 43.559C72.589 43.3129 72.8146 43.2397 73.0421 43.1797L73.0945 43.1659C73.173 43.1455 73.2499 43.1251 73.3169 43.0982C74.2729 42.6923 75.4126 42.545 76.8843 42.5819C76.8288 42.2124 75.9092 41.7519 75.6157 41.5307C75.0264 41.1059 74.4025 40.6628 73.7774 40.2762C73.4461 40.0738 72.8753 39.926 72.5083 39.7606C72.0118 39.5576 70.9082 39.3548 70.633 38.9682C70.1656 38.3589 69.8299 37.632 69.5039 36.8978L69.4152 36.6975C69.3856 36.6307 69.356 36.5639 69.3262 36.4972C68.941 35.6131 68.4623 34.6913 68.0762 33.786C67.8742 33.3444 67.7815 32.9568 67.5604 32.5332C66.2185 29.9341 64.2325 27.7579 61.8245 26.2276C61.0332 25.7296 60.1509 25.2688 59.1769 24.9556C58.6249 24.7888 57.9624 24.881 57.3743 24.7531L56.9872 24.7531C56.6569 24.66 56.3811 24.3098 56.1233 24.1252C55.554 23.7386 54.9839 23.4791 54.3031 23.2033C54.0645 23.0926 53.3833 22.835 53.1456 23.0378C52.9983 23.0749 52.9237 23.1304 52.8874 23.2782C52.7409 23.4987 52.8698 23.8308 52.9609 24.0342C53.2371 24.6234 53.6229 24.9736 53.9731 25.4716C54.2846 25.9132 54.6716 26.4112 54.8924 26.8913C55.369 27.9235 55.5909 29.0671 56.0325 30.0991C56.1963 30.4872 56.4553 30.9288 56.6937 31.2789C56.8958 31.5568 57.2631 31.7577 57.3743 32.1094C57.5958 32.4782 57.0426 33.695 56.9146 34.0814C56.4356 35.5935 56.5284 37.6953 57.08 39.006L57.1094 39.0751L57.1388 39.1451C57.3402 39.6252 57.5558 40.1421 58.0913 40.2763C58.1282 40.2397 58.0913 40.2589 58.1644 40.2397C58.294 39.2252 58.3305 38.2482 58.6802 37.4545C58.8822 36.9582 59.2857 36.6073 59.5623 36.2022C59.7466 36.3126 59.7466 36.6454 59.8565 36.8656C60.0958 37.4368 60.3528 38.0631 60.6478 38.636C61.2533 39.8158 61.9346 40.9596 62.7066 41.9916C62.9651 42.3603 63.3319 42.766 63.6628 43.098C63.8102 43.2266 63.9752 43.3009 64.086 43.4663L64.1221 43.4663L64.1221 43.522C63.5705 43.3187 63.2208 42.748 62.7809 42.4148C61.9525 41.7885 60.9606 40.848 60.3897 39.9456C60.1509 39.4275 59.8927 38.931 59.6354 38.4155L59.6354 38.3782C59.5254 38.5255 59.5623 38.6717 59.5072 38.8945C59.2684 39.8158 59.4523 40.8667 58.6249 41.1981C57.687 41.5862 56.9873 40.5719 56.6937 40.1109C55.7556 38.5809 55.4986 35.9998 56.1602 33.9162C56.3072 33.455 56.3272 32.9019 56.5837 32.5336C56.5283 32.2007 56.2717 32.1097 56.1233 31.9057C55.8659 31.557 55.6456 31.1509 55.444 30.7637C55.057 30.0073 54.7816 29.1036 54.4877 28.2924C54.3585 27.9612 54.3215 27.6286 54.1927 27.315C53.973 26.8364 53.568 26.3562 53.2556 25.9328C52.8325 25.3242 51.6003 24.1447 52.097 22.9455ZM58.1278 26.5578C58.1769 26.607 58.2362 26.6501 58.2976 26.6925L58.3716 26.7433C58.4703 26.8117 58.5658 26.8836 58.6243 26.9816C58.7172 27.1113 58.7345 27.2393 58.8456 27.3693C58.8456 27.8125 58.7172 28.1071 58.4579 28.2907C58.4579 28.2907 58.4402 28.3101 58.422 28.3281C58.275 28.0327 58.1462 27.7389 57.9982 27.4437C57.8159 27.1861 57.5581 26.9817 57.4096 26.6874L57.3739 26.6874L57.3739 26.6504C57.5958 26.5956 57.8159 26.5578 58.1278 26.5578Z" fill="#00758F"/>
</g>
<path d="M5.52 130V113.2H7.488L15.024 125.896H13.968L21.408 113.2H23.376L23.4 130H21.096L21.072 116.824H21.624L15 127.96H13.896L7.224 116.824H7.824V130H5.52ZM28.6579 134.8C28.0499 134.8 27.4579 134.696 26.8819 134.488C26.3059 134.296 25.8099 134.008 25.3939 133.624L26.3779 131.896C26.6979 132.2 27.0499 132.432 27.4339 132.592C27.8179 132.752 28.2259 132.832 28.6579 132.832C29.2179 132.832 29.6819 132.688 30.0499 132.4C30.4179 132.112 30.7619 131.6 31.0819 130.864L31.8739 129.112L32.1139 128.824L37.1059 117.28H39.3619L33.1939 131.272C32.8259 132.168 32.4099 132.872 31.9459 133.384C31.4979 133.896 31.0019 134.256 30.4579 134.464C29.9139 134.688 29.3139 134.8 28.6579 134.8ZM31.6819 130.408L25.8739 117.28H28.2739L33.2179 128.608L31.6819 130.408ZM46.5801 130.192C45.3001 130.192 44.0761 130 42.9081 129.616C41.7401 129.216 40.8201 128.704 40.1481 128.08L41.0361 126.208C41.6761 126.768 42.4921 127.232 43.4841 127.6C44.4761 127.968 45.5081 128.152 46.5801 128.152C47.5561 128.152 48.3481 128.04 48.9561 127.816C49.5641 127.592 50.0121 127.288 50.3001 126.904C50.5881 126.504 50.7321 126.056 50.7321 125.56C50.7321 124.984 50.5401 124.52 50.1561 124.168C49.7881 123.816 49.3001 123.536 48.6921 123.328C48.1001 123.104 47.4441 122.912 46.7241 122.752C46.0041 122.592 45.2761 122.408 44.5401 122.2C43.8201 121.976 43.1561 121.696 42.5481 121.36C41.9561 121.024 41.4761 120.576 41.1081 120.016C40.7401 119.44 40.5561 118.704 40.5561 117.808C40.5561 116.944 40.7801 116.152 41.2281 115.432C41.6921 114.696 42.3961 114.112 43.3401 113.68C44.3001 113.232 45.5161 113.008 46.9881 113.008C47.9641 113.008 48.9321 113.136 49.8921 113.392C50.8521 113.648 51.6841 114.016 52.3881 114.496L51.5961 116.416C50.8761 115.936 50.1161 115.592 49.3161 115.384C48.5161 115.16 47.7401 115.048 46.9881 115.048C46.0441 115.048 45.2681 115.168 44.6601 115.408C44.0521 115.648 43.6041 115.968 43.3161 116.368C43.0441 116.768 42.9081 117.216 42.9081 117.712C42.9081 118.304 43.0921 118.776 43.4601 119.128C43.8441 119.48 44.3321 119.76 44.9241 119.968C45.5321 120.176 46.1961 120.368 46.9161 120.544C47.6361 120.704 48.3561 120.888 49.0761 121.096C49.8121 121.304 50.4761 121.576 51.0681 121.912C51.6761 122.248 52.1641 122.696 52.5321 123.256C52.9001 123.816 53.0841 124.536 53.0841 125.416C53.0841 126.264 52.8521 127.056 52.3881 127.792C51.9241 128.512 51.2041 129.096 50.2281 129.544C49.2681 129.976 48.0521 130.192 46.5801 130.192ZM64.1743 130.192C62.8943 130.192 61.7023 129.976 60.5983 129.544C59.5103 129.112 58.5663 128.512 57.7663 127.744C56.9663 126.96 56.3423 126.048 55.8943 125.008C55.4463 123.968 55.2223 122.832 55.2223 121.6C55.2223 120.368 55.4463 119.232 55.8943 118.192C56.3423 117.152 56.9663 116.248 57.7663 115.48C58.5663 114.696 59.5103 114.088 60.5983 113.656C61.6863 113.224 62.8783 113.008 64.1743 113.008C65.4543 113.008 66.6303 113.224 67.7023 113.656C68.7903 114.072 69.7343 114.672 70.5343 115.456C71.3503 116.224 71.9743 117.128 72.4063 118.168C72.8543 119.208 73.0783 120.352 73.0783 121.6C73.0783 122.848 72.8543 123.992 72.4063 125.032C71.9743 126.072 71.3503 126.984 70.5343 127.768C69.7343 128.536 68.7903 129.136 67.7023 129.568C66.6303 129.984 65.4543 130.192 64.1743 130.192ZM69.6703 133.504C69.1103 133.504 68.5743 133.432 68.0623 133.288C67.5503 133.16 67.0383 132.944 66.5263 132.64C66.0143 132.352 65.4863 131.968 64.9423 131.488C64.3983 131.024 63.8063 130.448 63.1663 129.76L65.7343 129.088C66.2143 129.68 66.6703 130.16 67.1023 130.528C67.5503 130.912 67.9903 131.184 68.4223 131.344C68.8543 131.52 69.2783 131.608 69.6943 131.608C70.8943 131.608 71.9183 131.128 72.7663 130.168L73.8943 131.536C72.8063 132.848 71.3983 133.504 69.6703 133.504ZM64.1743 128.056C65.1023 128.056 65.9583 127.896 66.7423 127.576C67.5423 127.256 68.2303 126.8 68.8063 126.208C69.3983 125.616 69.8543 124.928 70.1743 124.144C70.5103 123.36 70.6783 122.512 70.6783 121.6C70.6783 120.672 70.5103 119.816 70.1743 119.032C69.8543 118.248 69.3983 117.568 68.8063 116.992C68.2303 116.4 67.5423 115.944 66.7423 115.624C65.9583 115.304 65.1023 115.144 64.1743 115.144C63.2303 115.144 62.3583 115.304 61.5583 115.624C60.7743 115.944 60.0863 116.4 59.4943 116.992C58.9023 117.568 58.4383 118.248 58.1023 119.032C57.7823 119.816 57.6223 120.672 57.6223 121.6C57.6223 122.512 57.7823 123.36 58.1023 124.144C58.4383 124.928 58.9023 125.616 59.4943 126.208C60.0863 126.8 60.7743 127.256 61.5583 127.576C62.3583 127.896 63.2303 128.056 64.1743 128.056ZM76.7466 130V113.2H79.1466V127.912H88.2426V130H76.7466Z" fill="black"/>
<defs>
<clipPath id="clip0_400_587">
<rect width="66.0172" height="45" fill="white" transform="translate(13 22)"/>
</clipPath>
</defs>
</svg>
