<svg width="94" height="136" viewBox="0 0 94 136" fill="none" xmlns="http://www.w3.org/2000/svg">
<circle cx="47.8882" cy="46" r="45" fill="#FFF4F1" stroke="#0F52BA" stroke-width="2"/>
<path d="M48.1477 66.9109C47.4875 66.9109 46.8713 66.7348 46.2991 66.4268L40.4449 62.9495C39.5647 62.4653 40.0048 62.2893 40.2689 62.2013C41.4573 61.8051 41.6773 61.7171 42.9097 61.0127C43.0419 60.9247 43.218 60.9687 43.3499 61.0567L47.8396 63.7417C48.0157 63.8298 48.2357 63.8298 48.3678 63.7417L65.9301 53.5742C66.1062 53.4862 66.1942 53.3101 66.1942 53.0901V32.7987C66.1942 32.5786 66.1062 32.4025 65.9301 32.3145L48.3678 22.1908C48.1917 22.1028 47.9716 22.1028 47.8396 22.1908L30.2772 32.3147C30.1012 32.4027 30.0132 32.6228 30.0132 32.7988V53.0901C30.0132 53.2661 30.1012 53.4862 30.2772 53.5742L35.0751 56.3471C37.6721 57.6675 39.3004 56.127 39.3004 54.5865V34.5592C39.3004 34.2951 39.5207 34.0311 39.8288 34.0311H42.0736C42.3377 34.0311 42.6018 34.2511 42.6018 34.5592V54.5864C42.6018 58.0636 40.709 60.0883 37.4078 60.0883C36.3955 60.0883 35.6033 60.0883 33.3586 58.9879L28.7368 56.3471C27.5924 55.6867 26.8882 54.4543 26.8882 53.1339V32.8429C26.8882 31.5224 27.5924 30.29 28.7368 29.6297L46.2991 19.4621C47.3995 18.846 48.8959 18.846 49.9963 19.4621L67.5586 29.6297C68.703 30.2899 69.4072 31.5223 69.4072 32.8429V53.1341C69.4072 54.4545 68.703 55.6869 67.5586 56.3471L49.9963 66.5149C49.4241 66.779 48.7639 66.9111 48.1477 66.9111V66.9109ZM53.5616 52.9578C45.8588 52.9578 44.2743 49.4367 44.2743 46.4436C44.2743 46.1795 44.4944 45.9155 44.8025 45.9155H47.0912C47.3553 45.9155 47.5755 46.0915 47.5755 46.3556C47.9276 48.6883 48.9399 49.8329 53.6056 49.8329C57.3029 49.8329 58.8876 48.9966 58.8876 47.016C58.8876 45.8714 58.4474 45.0352 52.6813 44.4628C47.8836 43.9787 44.8905 42.9224 44.8905 39.0931C44.8905 35.5277 47.8835 33.415 52.9014 33.415C58.5353 33.415 61.3083 35.3516 61.6604 39.5771C61.6604 39.7092 61.6164 39.8412 61.5284 39.9733C61.4404 40.0613 61.3083 40.1493 61.1763 40.1493H58.8876C58.6673 40.1493 58.4474 39.9733 58.4033 39.7532C57.8751 37.3324 56.5107 36.5402 52.9014 36.5402C48.8521 36.5402 48.3678 37.9486 48.3678 39.005C48.3678 40.2815 48.9399 40.6775 54.3978 41.3817C59.8119 42.0859 62.3647 43.0984 62.3647 46.8838C62.3207 50.7572 59.1517 52.9578 53.5616 52.9578Z" fill="#539E43"/>
<path d="M2.52 130V113.2H4.488L15.6 127H14.568V113.2H16.968V130H15L3.888 116.2H4.92V130H2.52ZM27.1086 130.144C25.8286 130.144 24.6926 129.864 23.7006 129.304C22.7086 128.744 21.9246 127.976 21.3486 127C20.7726 126.008 20.4846 124.888 20.4846 123.64C20.4846 122.376 20.7726 121.256 21.3486 120.28C21.9246 119.304 22.7086 118.544 23.7006 118C24.6926 117.44 25.8286 117.16 27.1086 117.16C28.3726 117.16 29.5006 117.44 30.4926 118C31.5006 118.544 32.2846 119.304 32.8446 120.28C33.4206 121.24 33.7086 122.36 33.7086 123.64C33.7086 124.904 33.4206 126.024 32.8446 127C32.2846 127.976 31.5006 128.744 30.4926 129.304C29.5006 129.864 28.3726 130.144 27.1086 130.144ZM27.1086 128.128C27.9246 128.128 28.6526 127.944 29.2926 127.576C29.9486 127.208 30.4606 126.688 30.8286 126.016C31.1966 125.328 31.3806 124.536 31.3806 123.64C31.3806 122.728 31.1966 121.944 30.8286 121.288C30.4606 120.616 29.9486 120.096 29.2926 119.728C28.6526 119.36 27.9246 119.176 27.1086 119.176C26.2926 119.176 25.5646 119.36 24.9246 119.728C24.2846 120.096 23.7726 120.616 23.3886 121.288C23.0046 121.944 22.8126 122.728 22.8126 123.64C22.8126 124.536 23.0046 125.328 23.3886 126.016C23.7726 126.688 24.2846 127.208 24.9246 127.576C25.5646 127.944 26.2926 128.128 27.1086 128.128ZM42.1509 130.144C40.9189 130.144 39.8149 129.872 38.8389 129.328C37.8789 128.784 37.1189 128.024 36.5589 127.048C35.9989 126.072 35.7189 124.936 35.7189 123.64C35.7189 122.344 35.9989 121.216 36.5589 120.256C37.1189 119.28 37.8789 118.52 38.8389 117.976C39.8149 117.432 40.9189 117.16 42.1509 117.16C43.2229 117.16 44.1909 117.4 45.0549 117.88C45.9189 118.36 46.6069 119.08 47.1189 120.04C47.6469 121 47.9109 122.2 47.9109 123.64C47.9109 125.08 47.6549 126.28 47.1429 127.24C46.6469 128.2 45.9669 128.928 45.1029 129.424C44.2389 129.904 43.2549 130.144 42.1509 130.144ZM42.3429 128.128C43.1429 128.128 43.8629 127.944 44.5029 127.576C45.1589 127.208 45.6709 126.688 46.0389 126.016C46.4229 125.328 46.6149 124.536 46.6149 123.64C46.6149 122.728 46.4229 121.944 46.0389 121.288C45.6709 120.616 45.1589 120.096 44.5029 119.728C43.8629 119.36 43.1429 119.176 42.3429 119.176C41.5269 119.176 40.7989 119.36 40.1589 119.728C39.5189 120.096 39.0069 120.616 38.6229 121.288C38.2389 121.944 38.0469 122.728 38.0469 123.64C38.0469 124.536 38.2389 125.328 38.6229 126.016C39.0069 126.688 39.5189 127.208 40.1589 127.576C40.7989 127.944 41.5269 128.128 42.3429 128.128ZM46.6869 130V126.568L46.8309 123.616L46.5909 120.664V112.192H48.8949V130H46.6869ZM58.9183 130.144C57.5583 130.144 56.3583 129.864 55.3183 129.304C54.2943 128.744 53.4943 127.976 52.9183 127C52.3583 126.024 52.0783 124.904 52.0783 123.64C52.0783 122.376 52.3503 121.256 52.8943 120.28C53.4543 119.304 54.2143 118.544 55.1743 118C56.1503 117.44 57.2463 117.16 58.4623 117.16C59.6943 117.16 60.7823 117.432 61.7263 117.976C62.6703 118.52 63.4063 119.288 63.9343 120.28C64.4783 121.256 64.7503 122.4 64.7503 123.712C64.7503 123.808 64.7423 123.92 64.7263 124.048C64.7263 124.176 64.7183 124.296 64.7023 124.408H53.8783V122.752H63.5023L62.5663 123.328C62.5823 122.512 62.4143 121.784 62.0623 121.144C61.7103 120.504 61.2223 120.008 60.5983 119.656C59.9903 119.288 59.2783 119.104 58.4623 119.104C57.6623 119.104 56.9503 119.288 56.3263 119.656C55.7023 120.008 55.2143 120.512 54.8623 121.168C54.5103 121.808 54.3343 122.544 54.3343 123.376V123.76C54.3343 124.608 54.5263 125.368 54.9103 126.04C55.3103 126.696 55.8623 127.208 56.5663 127.576C57.2703 127.944 58.0783 128.128 58.9903 128.128C59.7423 128.128 60.4223 128 61.0303 127.744C61.6543 127.488 62.1983 127.104 62.6623 126.592L63.9343 128.08C63.3583 128.752 62.6383 129.264 61.7743 129.616C60.9263 129.968 59.9743 130.144 58.9183 130.144ZM72.7629 134.8C72.2349 134.8 71.7309 134.736 71.2509 134.608C70.7549 134.48 70.3389 134.288 70.0029 134.032L70.7469 132.256C71.2269 132.656 71.8509 132.856 72.6189 132.856C73.2269 132.856 73.6909 132.664 74.0109 132.28C74.3469 131.912 74.5149 131.36 74.5149 130.624V117.28H76.8189V130.576C76.8189 131.872 76.4669 132.896 75.7629 133.648C75.0749 134.416 74.0749 134.8 72.7629 134.8ZM75.6669 114.832C75.2189 114.832 74.8429 114.688 74.5389 114.4C74.2509 114.112 74.1069 113.76 74.1069 113.344C74.1069 112.912 74.2509 112.552 74.5389 112.264C74.8429 111.976 75.2189 111.832 75.6669 111.832C76.1149 111.832 76.4829 111.976 76.7709 112.264C77.0749 112.536 77.2269 112.88 77.2269 113.296C77.2269 113.728 77.0829 114.096 76.7949 114.4C76.5069 114.688 76.1309 114.832 75.6669 114.832ZM84.8633 130.144C83.8073 130.144 82.7993 130 81.8393 129.712C80.8953 129.424 80.1513 129.072 79.6073 128.656L80.5673 126.832C81.1113 127.2 81.7833 127.512 82.5833 127.768C83.3833 128.024 84.1993 128.152 85.0312 128.152C86.1033 128.152 86.8713 128 87.3353 127.696C87.8153 127.392 88.0553 126.968 88.0553 126.424C88.0553 126.024 87.9113 125.712 87.6233 125.488C87.3353 125.264 86.9513 125.096 86.4713 124.984C86.0073 124.872 85.4873 124.776 84.9113 124.696C84.3353 124.6 83.7593 124.488 83.1833 124.36C82.6073 124.216 82.0793 124.024 81.5993 123.784C81.1193 123.528 80.7353 123.184 80.4473 122.752C80.1593 122.304 80.0153 121.712 80.0153 120.976C80.0153 120.208 80.2313 119.536 80.6633 118.96C81.0953 118.384 81.7033 117.944 82.4873 117.64C83.2873 117.32 84.2313 117.16 85.3193 117.16C86.1513 117.16 86.9913 117.264 87.8393 117.472C88.7033 117.664 89.4073 117.944 89.9513 118.312L88.9673 120.136C88.3913 119.752 87.7913 119.488 87.1673 119.344C86.5433 119.2 85.9193 119.128 85.2953 119.128C84.2873 119.128 83.5353 119.296 83.0393 119.632C82.5433 119.952 82.2953 120.368 82.2953 120.88C82.2953 121.312 82.4393 121.648 82.7273 121.888C83.0313 122.112 83.4153 122.288 83.8793 122.416C84.3593 122.544 84.8873 122.656 85.4633 122.752C86.0393 122.832 86.6153 122.944 87.1913 123.088C87.7673 123.216 88.2873 123.4 88.7513 123.64C89.2313 123.88 89.6153 124.216 89.9033 124.648C90.2073 125.08 90.3593 125.656 90.3593 126.376C90.3593 127.144 90.1353 127.808 89.6873 128.368C89.2393 128.928 88.6073 129.368 87.7913 129.688C86.9753 129.992 85.9993 130.144 84.8633 130.144Z" fill="black"/>
</svg>
