<svg width="94" height="137" viewBox="0 0 94 137" fill="none" xmlns="http://www.w3.org/2000/svg">
<circle cx="47.8882" cy="46.3125" r="45" fill="#FFF4F1" stroke="#404CDC" stroke-width="2"/>
<g clip-path="url(#clip0_400_583)">
<path d="M48.1477 67.2234C47.4875 67.2234 46.8713 67.0473 46.2991 66.7393L40.4449 63.262C39.5647 62.7778 40.0048 62.6018 40.2689 62.5138C41.4573 62.1176 41.6773 62.0296 42.9097 61.3252C43.0419 61.2372 43.218 61.2812 43.3499 61.3692L47.8396 64.0542C48.0157 64.1423 48.2357 64.1423 48.3678 64.0542L65.9301 53.8867C66.1062 53.7987 66.1942 53.6226 66.1942 53.4026V33.1112C66.1942 32.8911 66.1062 32.715 65.9301 32.627L48.3678 22.5033C48.1917 22.4153 47.9716 22.4153 47.8396 22.5033L30.2772 32.6272C30.1012 32.7152 30.0132 32.9353 30.0132 33.1113V53.4026C30.0132 53.5786 30.1012 53.7987 30.2772 53.8867L35.0751 56.6596C37.6721 57.98 39.3004 56.4395 39.3004 54.899V34.8717C39.3004 34.6076 39.5207 34.3436 39.8288 34.3436H42.0736C42.3377 34.3436 42.6018 34.5636 42.6018 34.8717V54.8989C42.6018 58.3761 40.709 60.4008 37.4078 60.4008C36.3955 60.4008 35.6033 60.4008 33.3586 59.3004L28.7368 56.6596C27.5924 55.9992 26.8882 54.7668 26.8882 53.4464V33.1554C26.8882 31.8349 27.5924 30.6025 28.7368 29.9422L46.2991 19.7746C47.3995 19.1585 48.8959 19.1585 49.9963 19.7746L67.5586 29.9422C68.703 30.6024 69.4072 31.8348 69.4072 33.1554V53.4466C69.4072 54.767 68.703 55.9994 67.5586 56.6596L49.9963 66.8274C49.4241 67.0915 48.7639 67.2236 48.1477 67.2236V67.2234ZM53.5616 53.2703C45.8588 53.2703 44.2743 49.7492 44.2743 46.7561C44.2743 46.492 44.4944 46.228 44.8025 46.228H47.0912C47.3553 46.228 47.5755 46.404 47.5755 46.6681C47.9276 49.0008 48.9399 50.1454 53.6056 50.1454C57.3029 50.1454 58.8876 49.3091 58.8876 47.3285C58.8876 46.1839 58.4474 45.3477 52.6813 44.7753C47.8836 44.2912 44.8905 43.2349 44.8905 39.4056C44.8905 35.8402 47.8835 33.7275 52.9014 33.7275C58.5353 33.7275 61.3083 35.6641 61.6604 39.8896C61.6604 40.0217 61.6164 40.1537 61.5284 40.2858C61.4404 40.3738 61.3083 40.4618 61.1763 40.4618H58.8876C58.6673 40.4618 58.4474 40.2858 58.4033 40.0657C57.8751 37.6449 56.5107 36.8527 52.9014 36.8527C48.8521 36.8527 48.3678 38.2611 48.3678 39.3175C48.3678 40.594 48.9399 40.99 54.3978 41.6942C59.8119 42.3984 62.3647 43.4109 62.3647 47.1963C62.3207 51.0697 59.1517 53.2703 53.5616 53.2703Z" fill="#539E43"/>
</g>
<path d="M2.52 131V114.2H4.488L15.6 128H14.568V114.2H16.968V131H15L3.888 117.2H4.92V131H2.52ZM27.1086 131.144C25.8286 131.144 24.6926 130.864 23.7006 130.304C22.7086 129.744 21.9246 128.976 21.3486 128C20.7726 127.008 20.4846 125.888 20.4846 124.64C20.4846 123.376 20.7726 122.256 21.3486 121.28C21.9246 120.304 22.7086 119.544 23.7006 119C24.6926 118.44 25.8286 118.16 27.1086 118.16C28.3726 118.16 29.5006 118.44 30.4926 119C31.5006 119.544 32.2846 120.304 32.8446 121.28C33.4206 122.24 33.7086 123.36 33.7086 124.64C33.7086 125.904 33.4206 127.024 32.8446 128C32.2846 128.976 31.5006 129.744 30.4926 130.304C29.5006 130.864 28.3726 131.144 27.1086 131.144ZM27.1086 129.128C27.9246 129.128 28.6526 128.944 29.2926 128.576C29.9486 128.208 30.4606 127.688 30.8286 127.016C31.1966 126.328 31.3806 125.536 31.3806 124.64C31.3806 123.728 31.1966 122.944 30.8286 122.288C30.4606 121.616 29.9486 121.096 29.2926 120.728C28.6526 120.36 27.9246 120.176 27.1086 120.176C26.2926 120.176 25.5646 120.36 24.9246 120.728C24.2846 121.096 23.7726 121.616 23.3886 122.288C23.0046 122.944 22.8126 123.728 22.8126 124.64C22.8126 125.536 23.0046 126.328 23.3886 127.016C23.7726 127.688 24.2846 128.208 24.9246 128.576C25.5646 128.944 26.2926 129.128 27.1086 129.128ZM42.1509 131.144C40.9189 131.144 39.8149 130.872 38.8389 130.328C37.8789 129.784 37.1189 129.024 36.5589 128.048C35.9989 127.072 35.7189 125.936 35.7189 124.64C35.7189 123.344 35.9989 122.216 36.5589 121.256C37.1189 120.28 37.8789 119.52 38.8389 118.976C39.8149 118.432 40.9189 118.16 42.1509 118.16C43.2229 118.16 44.1909 118.4 45.0549 118.88C45.9189 119.36 46.6069 120.08 47.1189 121.04C47.6469 122 47.9109 123.2 47.9109 124.64C47.9109 126.08 47.6549 127.28 47.1429 128.24C46.6469 129.2 45.9669 129.928 45.1029 130.424C44.2389 130.904 43.2549 131.144 42.1509 131.144ZM42.3429 129.128C43.1429 129.128 43.8629 128.944 44.5029 128.576C45.1589 128.208 45.6709 127.688 46.0389 127.016C46.4229 126.328 46.6149 125.536 46.6149 124.64C46.6149 123.728 46.4229 122.944 46.0389 122.288C45.6709 121.616 45.1589 121.096 44.5029 120.728C43.8629 120.36 43.1429 120.176 42.3429 120.176C41.5269 120.176 40.7989 120.36 40.1589 120.728C39.5189 121.096 39.0069 121.616 38.6229 122.288C38.2389 122.944 38.0469 123.728 38.0469 124.64C38.0469 125.536 38.2389 126.328 38.6229 127.016C39.0069 127.688 39.5189 128.208 40.1589 128.576C40.7989 128.944 41.5269 129.128 42.3429 129.128ZM46.6869 131V127.568L46.8309 124.616L46.5909 121.664V113.192H48.8949V131H46.6869ZM58.9183 131.144C57.5583 131.144 56.3583 130.864 55.3183 130.304C54.2943 129.744 53.4943 128.976 52.9183 128C52.3583 127.024 52.0783 125.904 52.0783 124.64C52.0783 123.376 52.3503 122.256 52.8943 121.28C53.4543 120.304 54.2143 119.544 55.1743 119C56.1503 118.44 57.2463 118.16 58.4623 118.16C59.6943 118.16 60.7823 118.432 61.7263 118.976C62.6703 119.52 63.4063 120.288 63.9343 121.28C64.4783 122.256 64.7503 123.4 64.7503 124.712C64.7503 124.808 64.7423 124.92 64.7263 125.048C64.7263 125.176 64.7183 125.296 64.7023 125.408H53.8783V123.752H63.5023L62.5663 124.328C62.5823 123.512 62.4143 122.784 62.0623 122.144C61.7103 121.504 61.2223 121.008 60.5983 120.656C59.9903 120.288 59.2783 120.104 58.4623 120.104C57.6623 120.104 56.9503 120.288 56.3263 120.656C55.7023 121.008 55.2143 121.512 54.8623 122.168C54.5103 122.808 54.3343 123.544 54.3343 124.376V124.76C54.3343 125.608 54.5263 126.368 54.9103 127.04C55.3103 127.696 55.8623 128.208 56.5663 128.576C57.2703 128.944 58.0783 129.128 58.9903 129.128C59.7423 129.128 60.4223 129 61.0303 128.744C61.6543 128.488 62.1983 128.104 62.6623 127.592L63.9343 129.08C63.3583 129.752 62.6383 130.264 61.7743 130.616C60.9263 130.968 59.9743 131.144 58.9183 131.144ZM72.7629 135.8C72.2349 135.8 71.7309 135.736 71.2509 135.608C70.7549 135.48 70.3389 135.288 70.0029 135.032L70.7469 133.256C71.2269 133.656 71.8509 133.856 72.6189 133.856C73.2269 133.856 73.6909 133.664 74.0109 133.28C74.3469 132.912 74.5149 132.36 74.5149 131.624V118.28H76.8189V131.576C76.8189 132.872 76.4669 133.896 75.7629 134.648C75.0749 135.416 74.0749 135.8 72.7629 135.8ZM75.6669 115.832C75.2189 115.832 74.8429 115.688 74.5389 115.4C74.2509 115.112 74.1069 114.76 74.1069 114.344C74.1069 113.912 74.2509 113.552 74.5389 113.264C74.8429 112.976 75.2189 112.832 75.6669 112.832C76.1149 112.832 76.4829 112.976 76.7709 113.264C77.0749 113.536 77.2269 113.88 77.2269 114.296C77.2269 114.728 77.0829 115.096 76.7949 115.4C76.5069 115.688 76.1309 115.832 75.6669 115.832ZM84.8633 131.144C83.8073 131.144 82.7993 131 81.8393 130.712C80.8953 130.424 80.1513 130.072 79.6073 129.656L80.5673 127.832C81.1113 128.2 81.7833 128.512 82.5833 128.768C83.3833 129.024 84.1993 129.152 85.0312 129.152C86.1033 129.152 86.8713 129 87.3353 128.696C87.8153 128.392 88.0553 127.968 88.0553 127.424C88.0553 127.024 87.9113 126.712 87.6233 126.488C87.3353 126.264 86.9513 126.096 86.4713 125.984C86.0073 125.872 85.4873 125.776 84.9113 125.696C84.3353 125.6 83.7593 125.488 83.1833 125.36C82.6073 125.216 82.0793 125.024 81.5993 124.784C81.1193 124.528 80.7353 124.184 80.4473 123.752C80.1593 123.304 80.0153 122.712 80.0153 121.976C80.0153 121.208 80.2313 120.536 80.6633 119.96C81.0953 119.384 81.7033 118.944 82.4873 118.64C83.2873 118.32 84.2313 118.16 85.3193 118.16C86.1513 118.16 86.9913 118.264 87.8393 118.472C88.7033 118.664 89.4073 118.944 89.9513 119.312L88.9673 121.136C88.3913 120.752 87.7913 120.488 87.1673 120.344C86.5433 120.2 85.9193 120.128 85.2953 120.128C84.2873 120.128 83.5353 120.296 83.0393 120.632C82.5433 120.952 82.2953 121.368 82.2953 121.88C82.2953 122.312 82.4393 122.648 82.7273 122.888C83.0313 123.112 83.4153 123.288 83.8793 123.416C84.3593 123.544 84.8873 123.656 85.4633 123.752C86.0393 123.832 86.6153 123.944 87.1913 124.088C87.7673 124.216 88.2873 124.4 88.7513 124.64C89.2313 124.88 89.6153 125.216 89.9033 125.648C90.2073 126.08 90.3593 126.656 90.3593 127.376C90.3593 128.144 90.1353 128.808 89.6873 129.368C89.2393 129.928 88.6073 130.368 87.7913 130.688C86.9753 130.992 85.9993 131.144 84.8633 131.144Z" fill="black"/>
<defs>
<clipPath id="clip0_400_583">
<rect width="42.519" height="48" fill="white" transform="translate(26.8882 19.3125)"/>
</clipPath>
</defs>
</svg>
