<svg width="93" height="137" viewBox="0 0 93 137" fill="none" xmlns="http://www.w3.org/2000/svg">
<circle cx="46.3567" cy="46.3567" r="45" transform="rotate(0.456006 46.3567 46.3567)" fill="#FFF4F1" stroke="#0F52BA" stroke-width="2"/>
<path d="M46.3568 61.3423C62.0999 61.3423 74.8621 54.6321 74.8621 46.3547C74.8621 38.0773 62.0999 31.3672 46.3568 31.3672C30.6138 31.3672 17.8516 38.0773 17.8516 46.3547C17.8516 54.6321 30.6138 61.3423 46.3568 61.3423Z" fill="url(#paint0_radial_586_755)"/>
<path d="M46.3571 60.2286C61.4852 60.2286 73.7489 54.0169 73.7489 46.3545C73.7489 38.6921 61.4852 32.4805 46.3571 32.4805C31.229 32.4805 18.9653 38.6921 18.9653 46.3545C18.9653 54.0169 31.229 60.2286 46.3571 60.2286Z" fill="#6181B6"/>
<path d="M51.9022 50.8517L53.2606 43.859C53.5724 42.2779 53.3052 41.0976 52.5034 40.3627C51.724 39.65 50.3878 39.2937 48.4281 39.2937L46.0675 39.2937L46.7356 35.8196C46.7578 35.686 46.7356 35.5524 46.6465 35.441C46.5574 35.3297 46.4461 35.2852 46.3125 35.2852L43.0611 35.2852C42.8384 35.2852 42.6602 35.441 42.6157 35.6415L41.1681 43.0573C41.0345 42.211 40.7227 41.4984 40.1883 40.9194C39.2307 39.8282 37.7386 39.2714 35.7121 39.2714L29.4543 39.2714C29.2316 39.2714 29.0534 39.4273 29.0089 39.6278L26.0915 54.6821C26.0693 54.8157 26.0915 54.9493 26.1806 55.0607C26.2697 55.172 26.381 55.2166 26.5147 55.2166L29.7883 55.2166C30.011 55.2166 30.1892 55.0607 30.2337 54.8603L30.9463 51.2303L33.3737 51.2303C34.6431 51.2303 35.7343 51.0967 36.5583 50.8294C37.4268 50.5399 38.2063 50.0723 38.8966 49.4264C39.4534 48.9142 39.921 48.3352 40.2774 47.7117L39.6983 50.7181C39.6761 50.8517 39.6983 50.9853 39.7874 51.0967C39.8765 51.208 39.9878 51.2526 40.1215 51.2526L43.3728 51.2526C43.5955 51.2526 43.7737 51.0967 43.8182 50.8962L45.4217 42.6564L47.6486 42.6564C48.6062 42.6564 48.8735 42.8346 48.9625 42.9237C49.0294 42.9905 49.163 43.2577 49.0071 44.0817L47.7154 50.7404C47.6932 50.874 47.7154 51.0076 47.8045 51.1189C47.8936 51.2303 48.005 51.2748 48.1386 51.2748L51.479 51.2748C51.6795 51.208 51.8576 51.0521 51.9022 50.8517ZM36.8478 45.0616C36.6474 46.1083 36.2688 46.8654 35.7121 47.2885C35.1553 47.7117 34.2423 47.9344 33.0397 47.9344L31.5922 47.9344L32.6388 42.5451L34.5095 42.5451C35.8902 42.5451 36.447 42.8346 36.6697 43.0796C36.9592 43.4359 37.026 44.1262 36.8478 45.0616ZM65.7985 40.9194C64.8409 39.8282 63.3488 39.2714 61.3223 39.2714L55.0199 39.2714C54.7972 39.2714 54.6191 39.4273 54.5745 39.6278L51.6572 54.6598C51.6349 54.7934 51.6572 54.9271 51.7463 55.0384C51.8353 55.1498 51.9467 55.1943 52.0803 55.1943L55.354 55.1943C55.5767 55.1943 55.7548 55.0384 55.7994 54.838L56.512 51.208L58.9394 51.208C60.2088 51.208 61.3 51.0744 62.124 50.8072C62.9925 50.5177 63.7719 50.05 64.4623 49.4042C65.0413 48.8697 65.5312 48.2684 65.8876 47.6226C66.2439 46.9768 66.5111 46.2641 66.667 45.4847C67.0456 43.5472 66.7561 42.0329 65.7985 40.9194ZM62.3912 45.0616C62.1908 46.1083 61.8122 46.8654 61.2554 47.2885C60.6987 47.7117 59.7856 47.9344 58.5831 47.9344L57.1355 47.9344L58.1822 42.5451L60.0529 42.5451C61.4336 42.5451 61.9903 42.8346 62.213 43.0796C62.5248 43.4359 62.5916 44.1262 62.3912 45.0616Z" fill="white"/>
<path d="M34.5087 42.0996C35.7558 42.0996 36.5798 42.3223 37.0029 42.79C37.426 43.2576 37.5151 44.0371 37.2924 45.1506C37.0697 46.3086 36.6243 47.1548 35.9785 47.6448C35.3327 48.1347 34.3528 48.3797 33.0389 48.3797L31.0569 48.3797L32.2817 42.0996L34.5087 42.0996ZM26.5361 54.7488L29.8098 54.7488L30.5892 50.7625L33.3952 50.7625C34.6423 50.7625 35.6445 50.6289 36.4462 50.3617C37.2479 50.0945 37.9605 49.6713 38.6286 49.0478C39.1853 48.5356 39.6307 47.9788 39.9648 47.3775C40.2988 46.7763 40.5438 46.1082 40.6774 45.3733C41.0337 43.5917 40.7665 42.211 39.898 41.2088C39.0295 40.2067 37.6487 39.7168 35.7558 39.7168L29.4535 39.7168L26.5361 54.7488ZM43.0826 35.7305L46.3339 35.7305L45.5545 39.7168L48.4496 39.7168C50.2757 39.7168 51.5228 40.0285 52.2131 40.6744C52.9035 41.3202 53.1039 42.3446 52.8367 43.7698L51.4782 50.7625L48.1823 50.7625L49.474 44.1039C49.6299 43.3467 49.563 42.8345 49.3181 42.5673C49.0731 42.3 48.5164 42.1442 47.6924 42.1442L45.0868 42.1442L43.4166 50.7625L40.1652 50.7625L43.0826 35.7305ZM60.0521 42.0996C61.2992 42.0996 62.1232 42.3223 62.5463 42.79C62.9694 43.2576 63.0585 44.0371 62.8358 45.1506C62.6131 46.3086 62.1677 47.1548 61.5219 47.6448C60.8761 48.1347 59.8962 48.3797 58.5823 48.3797L56.6003 48.3797L57.8251 42.0996L60.0521 42.0996ZM52.0795 54.7488L55.3532 54.7488L56.1326 50.7625L58.9386 50.7625C60.1857 50.7625 61.1878 50.6289 61.9896 50.3617C62.7913 50.0945 63.5039 49.6713 64.172 49.0478C64.7287 48.5356 65.1741 47.9788 65.5082 47.3775C65.8422 46.7763 66.0872 46.1082 66.2208 45.3733C66.5771 43.5917 66.3099 42.211 65.4414 41.2088C64.5728 40.2067 63.1921 39.7168 61.2992 39.7168L54.9969 39.7168L52.0795 54.7488Z" fill="#000004"/>
<path d="M21.02 130.863V114.063H27.572C29.044 114.063 30.3 114.295 31.34 114.759C32.38 115.223 33.18 115.895 33.74 116.775C34.3 117.655 34.58 118.703 34.58 119.919C34.58 121.135 34.3 122.183 33.74 123.063C33.18 123.927 32.38 124.599 31.34 125.079C30.3 125.543 29.044 125.775 27.572 125.775H22.34L23.42 124.647V130.863H21.02ZM23.42 124.887L22.34 123.687H27.5C29.036 123.687 30.196 123.359 30.98 122.703C31.78 122.047 32.18 121.119 32.18 119.919C32.18 118.719 31.78 117.791 30.98 117.135C30.196 116.479 29.036 116.151 27.5 116.151H22.34L23.42 114.951V124.887ZM50.1539 114.063H52.5539V130.863H50.1539V114.063ZM40.5059 130.863H38.1059V114.063H40.5059V130.863ZM50.3699 123.375H40.2659V121.287H50.3699V123.375ZM57.5825 130.863V114.063H64.1345C65.6065 114.063 66.8625 114.295 67.9025 114.759C68.9425 115.223 69.7425 115.895 70.3025 116.775C70.8625 117.655 71.1425 118.703 71.1425 119.919C71.1425 121.135 70.8625 122.183 70.3025 123.063C69.7425 123.927 68.9425 124.599 67.9025 125.079C66.8625 125.543 65.6065 125.775 64.1345 125.775H58.9025L59.9825 124.647V130.863H57.5825ZM59.9825 124.887L58.9025 123.687H64.0625C65.5985 123.687 66.7585 123.359 67.5425 122.703C68.3425 122.047 68.7425 121.119 68.7425 119.919C68.7425 118.719 68.3425 117.791 67.5425 117.135C66.7585 116.479 65.5985 116.151 64.0625 116.151H58.9025L59.9825 114.951V124.887Z" fill="black"/>
<defs>
<radialGradient id="paint0_radial_586_755" cx="0" cy="0" r="1" gradientUnits="userSpaceOnUse" gradientTransform="translate(34.9662 36.6379) scale(37.4344)">
<stop stop-color="white"/>
<stop offset="0.5" stop-color="#4C6B97"/>
<stop offset="1" stop-color="#231F20"/>
</radialGradient>
</defs>
</svg>
