<svg width="96" height="137" viewBox="0 0 96 137" fill="none" xmlns="http://www.w3.org/2000/svg">
<circle cx="48" cy="46" r="45" fill="#FFF4F1" stroke="#404CDC" stroke-width="2"/>
<path d="M48 49.248C49.8122 49.248 51.2813 47.779 51.2813 45.9668C51.2813 44.1546 49.8122 42.6855 48 42.6855C46.1878 42.6855 44.7188 44.1546 44.7188 45.9668C44.7188 47.779 46.1878 49.248 48 49.248Z" fill="#00D8FF"/>
<path d="M48 53.4877C44.0561 53.5831 40.1221 53.0515 36.345 51.9127C34.6002 51.3596 32.9728 50.4883 31.5452 49.3428C31.0004 48.9515 30.5467 48.447 30.2153 47.8638C29.8838 47.2807 29.6825 46.6327 29.625 45.9645C29.625 43.7949 32.0085 41.6686 36.0011 40.2774C39.8792 39.0446 43.9311 38.4472 48 38.5081C52.0145 38.4521 56.0122 39.0387 59.8414 40.2459C61.5217 40.7816 63.0939 41.6108 64.485 42.695C65.0205 43.0681 65.4673 43.5543 65.794 44.1193C66.1206 44.6843 66.3189 45.3143 66.375 45.9645C66.375 48.2193 63.7106 50.5044 59.4188 51.9245C55.7148 53.0262 51.8638 53.5534 48 53.4877ZM48 40.0779C44.1073 40.0259 40.2311 40.5938 36.5169 41.7605C32.8419 43.0428 31.1948 44.7963 31.1948 45.9605C31.1948 47.1785 32.9653 49.0935 36.8529 50.423C40.4663 51.507 44.2287 52.0115 48 51.918C51.6965 51.9841 55.3814 51.4839 58.9266 50.4348C62.9625 49.0974 64.8 47.1798 64.8 45.9645C64.7338 45.5474 64.5818 45.1486 64.3536 44.7932C64.1254 44.4379 63.8261 44.1337 63.4744 43.8999C62.2298 42.938 60.8254 42.2031 59.3256 41.729C55.6624 40.5789 51.839 40.0215 48 40.0779Z" fill="#00D8FF"/>
<path d="M40.5445 62.3297C39.9322 62.3437 39.3272 62.1952 38.791 61.8992C36.9115 60.815 36.2605 57.6887 37.0493 53.5346C37.919 49.5592 39.426 45.7506 41.5118 42.2563C43.4684 38.7507 45.9732 35.5808 48.9314 32.8667C50.2349 31.6785 51.7386 30.7306 53.3729 30.0671C53.964 29.7901 54.6088 29.6465 55.2616 29.6465C55.9143 29.6465 56.5591 29.7901 57.1502 30.0671C59.1046 31.1932 59.7516 34.6425 58.8394 39.0695C57.9428 42.8293 56.475 46.4293 54.4872 49.7441C52.5995 53.2083 50.1735 56.3506 47.2999 59.0537C45.9491 60.2884 44.3814 61.2625 42.676 61.9267C41.9933 62.1801 41.2726 62.3164 40.5445 62.3297ZM42.8716 43.0359C40.8819 46.3819 39.4376 50.0233 38.5928 53.8234C37.867 57.6493 38.5639 59.9501 39.5772 60.5355C40.6272 61.1432 43.1761 60.567 46.2709 57.8632C49.0141 55.2736 51.3296 52.2657 53.1314 48.9514C55.0357 45.7823 56.4437 42.3405 57.3064 38.7454C58.1648 34.5782 57.4232 32.0267 56.3706 31.4203C55.9761 31.2691 55.5545 31.2015 55.1325 31.2216C54.7105 31.2417 54.2972 31.3491 53.9189 31.5371C52.4642 32.1374 51.1268 32.9896 49.9682 34.0545C47.142 36.6543 44.7493 39.689 42.8807 43.0438L42.8716 43.0359Z" fill="#00D8FF"/>
<path d="M55.4513 62.3481C53.6729 62.3481 51.4141 61.2719 49.0621 59.2493C46.0521 56.5105 43.5049 53.3029 41.5191 49.7507C39.4595 46.3046 37.9644 42.5511 37.0907 38.6325C36.7118 36.9086 36.6416 35.131 36.8834 33.3825C36.9393 32.7339 37.1368 32.1054 37.462 31.5415C37.7872 30.9775 38.2321 30.4917 38.7655 30.1184C40.7172 28.9883 44.0286 30.1499 47.4083 33.1502C50.2178 35.8043 52.6037 38.8737 54.4827 42.2511C56.5411 45.6168 58.0518 49.2881 58.9583 53.1278C59.3535 54.915 59.4145 56.76 59.1381 58.5694C59.0724 59.2367 58.8631 59.8819 58.5246 60.4607C58.1862 61.0395 57.7265 61.5383 57.1772 61.9229C56.6498 62.2152 56.0542 62.3619 55.4513 62.3481ZM42.8776 48.9606C44.7826 52.3553 47.2157 55.4251 50.0858 58.0549C53.0376 60.5946 55.3791 61.1406 56.3858 60.5487C57.4358 59.9384 58.2102 57.4472 57.4122 53.4165C56.5379 49.7506 55.0889 46.2462 53.119 43.0334C51.3259 39.8008 49.0486 36.8618 46.3662 34.3184C43.1847 31.4939 40.6043 30.8625 39.553 31.4715C39.2253 31.7378 38.9564 32.0692 38.7633 32.4446C38.5701 32.8201 38.4569 33.2315 38.4308 33.6529C38.2221 35.2123 38.2901 36.7962 38.6316 38.332C39.472 42.0794 40.9058 45.6684 42.8789 48.9632L42.8776 48.9606Z" fill="#00D8FF"/>
<path d="M2.52 130.688V113.887H9.072C10.544 113.887 11.8 114.119 12.84 114.583C13.88 115.047 14.68 115.719 15.24 116.599C15.8 117.479 16.08 118.527 16.08 119.743C16.08 120.959 15.8 122.007 15.24 122.887C14.68 123.751 13.88 124.415 12.84 124.879C11.8 125.343 10.544 125.575 9.072 125.575H3.84L4.92 124.471V130.688H2.52ZM13.752 130.688L9.48 124.591H12.048L16.368 130.688H13.752ZM4.92 124.711L3.84 123.535H9C10.536 123.535 11.696 123.207 12.48 122.551C13.28 121.879 13.68 120.943 13.68 119.743C13.68 118.543 13.28 117.615 12.48 116.959C11.696 116.303 10.536 115.975 9 115.975H3.84L4.92 114.775V124.711ZM25.2855 130.832C23.9255 130.832 22.7255 130.551 21.6855 129.991C20.6615 129.431 19.8615 128.663 19.2855 127.688C18.7255 126.711 18.4455 125.591 18.4455 124.327C18.4455 123.063 18.7175 121.943 19.2615 120.967C19.8215 119.991 20.5815 119.231 21.5415 118.688C22.5175 118.127 23.6135 117.847 24.8295 117.847C26.0615 117.847 27.1495 118.119 28.0935 118.663C29.0375 119.207 29.7735 119.975 30.3015 120.967C30.8455 121.943 31.1175 123.087 31.1175 124.399C31.1175 124.495 31.1095 124.607 31.0935 124.735C31.0935 124.863 31.0855 124.983 31.0695 125.095H20.2455V123.439H29.8695L28.9335 124.015C28.9495 123.199 28.7815 122.471 28.4295 121.831C28.0775 121.191 27.5895 120.695 26.9655 120.343C26.3575 119.975 25.6455 119.791 24.8295 119.791C24.0295 119.791 23.3175 119.975 22.6935 120.343C22.0695 120.695 21.5815 121.199 21.2295 121.855C20.8775 122.495 20.7015 123.231 20.7015 124.063V124.447C20.7015 125.295 20.8935 126.055 21.2775 126.727C21.6775 127.383 22.2295 127.895 22.9335 128.263C23.6375 128.631 24.4455 128.815 25.3575 128.815C26.1095 128.815 26.7895 128.687 27.3975 128.431C28.0215 128.175 28.5655 127.791 29.0295 127.279L30.3015 128.767C29.7255 129.439 29.0055 129.951 28.1415 130.303C27.2935 130.655 26.3415 130.832 25.2855 130.832ZM41.8613 130.688V127.999L41.7413 127.495V122.911C41.7413 121.935 41.4533 121.183 40.8773 120.655C40.3173 120.111 39.4693 119.839 38.3333 119.839C37.5813 119.839 36.8453 119.967 36.1253 120.223C35.4053 120.463 34.7973 120.791 34.3013 121.207L33.3413 119.479C33.9973 118.951 34.7813 118.551 35.6933 118.279C36.6213 117.991 37.5893 117.847 38.5973 117.847C40.3413 117.847 41.6853 118.271 42.6293 119.119C43.5733 119.967 44.0453 121.263 44.0453 123.007V130.688H41.8613ZM37.6853 130.832C36.7413 130.832 35.9093 130.671 35.1893 130.351C34.4853 130.031 33.9413 129.591 33.5573 129.031C33.1733 128.455 32.9813 127.807 32.9813 127.087C32.9813 126.399 33.1413 125.775 33.4613 125.215C33.7973 124.655 34.3333 124.207 35.0693 123.871C35.8213 123.535 36.8293 123.367 38.0933 123.367H42.1253V125.023H38.1893C37.0373 125.023 36.2613 125.215 35.8613 125.599C35.4613 125.983 35.2613 126.447 35.2613 126.991C35.2613 127.615 35.5093 128.119 36.0053 128.503C36.5013 128.871 37.1893 129.055 38.0693 129.055C38.9333 129.055 39.6853 128.863 40.3253 128.479C40.9813 128.095 41.4533 127.535 41.7413 126.799L42.1973 128.383C41.8933 129.135 41.3573 129.735 40.5893 130.183C39.8213 130.615 38.8533 130.832 37.6853 130.832ZM53.853 130.832C52.557 130.832 51.397 130.551 50.373 129.991C49.365 129.431 48.573 128.663 47.997 127.688C47.421 126.711 47.133 125.591 47.133 124.327C47.133 123.063 47.421 121.943 47.997 120.967C48.573 119.991 49.365 119.231 50.373 118.688C51.397 118.127 52.557 117.847 53.853 117.847C55.005 117.847 56.029 118.079 56.925 118.543C57.837 118.991 58.541 119.663 59.037 120.559L57.285 121.687C56.869 121.063 56.357 120.607 55.749 120.319C55.157 120.015 54.517 119.863 53.829 119.863C52.997 119.863 52.253 120.047 51.597 120.415C50.941 120.783 50.421 121.303 50.037 121.975C49.653 122.631 49.461 123.415 49.461 124.327C49.461 125.239 49.653 126.031 50.037 126.703C50.421 127.375 50.941 127.895 51.597 128.263C52.253 128.631 52.997 128.815 53.829 128.815C54.517 128.815 55.157 128.671 55.749 128.383C56.357 128.079 56.869 127.615 57.285 126.991L59.037 128.095C58.541 128.975 57.837 129.655 56.925 130.135C56.029 130.599 55.005 130.832 53.853 130.832ZM66.552 130.832C65.272 130.832 64.28 130.487 63.576 129.799C62.872 129.111 62.52 128.127 62.52 126.847V115.183H64.824V126.751C64.824 127.439 64.992 127.967 65.328 128.335C65.68 128.703 66.176 128.887 66.816 128.887C67.536 128.887 68.136 128.687 68.616 128.287L69.336 129.943C68.984 130.247 68.56 130.471 68.064 130.615C67.584 130.76 67.08 130.832 66.552 130.832ZM60.36 119.863V117.967H68.472V119.863H60.36ZM76.9348 135.488C76.4068 135.488 75.9028 135.424 75.4228 135.296C74.9268 135.168 74.5108 134.976 74.1748 134.72L74.9188 132.944C75.3988 133.344 76.0228 133.544 76.7908 133.544C77.3988 133.544 77.8628 133.352 78.1828 132.968C78.5188 132.6 78.6868 132.048 78.6868 131.312V117.967H80.9908V131.264C80.9908 132.56 80.6388 133.584 79.9348 134.336C79.2468 135.104 78.2468 135.488 76.9348 135.488ZM79.8388 115.519C79.3908 115.519 79.0148 115.375 78.7108 115.087C78.4228 114.799 78.2788 114.447 78.2788 114.031C78.2788 113.599 78.4228 113.239 78.7108 112.951C79.0148 112.663 79.3908 112.519 79.8388 112.519C80.2868 112.519 80.6548 112.663 80.9428 112.951C81.2468 113.223 81.3988 113.567 81.3988 113.983C81.3988 114.415 81.2548 114.783 80.9668 115.087C80.6788 115.375 80.3028 115.519 79.8388 115.519ZM89.0351 130.832C87.9791 130.832 86.9711 130.688 86.0111 130.399C85.0671 130.111 84.3231 129.759 83.7791 129.343L84.7391 127.52C85.2831 127.887 85.9551 128.199 86.7551 128.455C87.5551 128.711 88.3711 128.839 89.2031 128.839C90.2751 128.839 91.0431 128.687 91.5071 128.383C91.9871 128.079 92.2271 127.655 92.2271 127.111C92.2271 126.711 92.0831 126.399 91.7951 126.175C91.5071 125.951 91.1231 125.783 90.6431 125.671C90.1791 125.559 89.6591 125.463 89.0831 125.383C88.5071 125.287 87.9311 125.175 87.3551 125.047C86.7791 124.903 86.2511 124.711 85.7711 124.471C85.2911 124.215 84.9071 123.871 84.6191 123.439C84.3311 122.991 84.1871 122.399 84.1871 121.663C84.1871 120.895 84.4031 120.223 84.8351 119.647C85.2671 119.071 85.8751 118.631 86.6591 118.327C87.4591 118.007 88.4031 117.847 89.4911 117.847C90.3231 117.847 91.1631 117.951 92.0111 118.159C92.8751 118.351 93.5791 118.631 94.1231 118.999L93.1391 120.823C92.5631 120.439 91.9631 120.175 91.3391 120.031C90.7151 119.887 90.0911 119.815 89.4671 119.815C88.4591 119.815 87.7071 119.983 87.2111 120.319C86.7151 120.639 86.4671 121.055 86.4671 121.567C86.4671 121.999 86.6111 122.335 86.8991 122.575C87.2031 122.799 87.5871 122.975 88.0511 123.103C88.5311 123.231 89.0591 123.343 89.6351 123.439C90.2111 123.519 90.7871 123.631 91.3631 123.775C91.9391 123.903 92.4591 124.087 92.9231 124.327C93.4031 124.567 93.7871 124.903 94.0751 125.335C94.3791 125.767 94.5311 126.343 94.5311 127.063C94.5311 127.831 94.3071 128.495 93.8591 129.055C93.4111 129.615 92.7791 130.056 91.9631 130.375C91.1471 130.679 90.1711 130.832 89.0351 130.832Z" fill="black"/>
</svg>
