<svg width="96" height="136" viewBox="0 0 96 136" fill="none" xmlns="http://www.w3.org/2000/svg">
<circle cx="48" cy="46" r="45" fill="#FFF4F1" stroke="#0F52BA" stroke-width="2"/>
<path d="M48 49.248C49.8122 49.248 51.2813 47.779 51.2813 45.9668C51.2813 44.1546 49.8122 42.6855 48 42.6855C46.1878 42.6855 44.7188 44.1546 44.7188 45.9668C44.7188 47.779 46.1878 49.248 48 49.248Z" fill="#00D8FF"/>
<path d="M48 53.4877C44.0561 53.5831 40.1221 53.0515 36.345 51.9127C34.6002 51.3596 32.9728 50.4883 31.5452 49.3428C31.0004 48.9515 30.5467 48.447 30.2153 47.8638C29.8838 47.2807 29.6825 46.6327 29.625 45.9645C29.625 43.7949 32.0085 41.6686 36.0011 40.2774C39.8792 39.0446 43.9311 38.4472 48 38.5081C52.0145 38.4521 56.0122 39.0387 59.8414 40.2459C61.5217 40.7816 63.0939 41.6108 64.485 42.695C65.0205 43.0681 65.4673 43.5543 65.794 44.1193C66.1206 44.6843 66.3189 45.3143 66.375 45.9645C66.375 48.2193 63.7106 50.5044 59.4188 51.9245C55.7148 53.0262 51.8638 53.5534 48 53.4877ZM48 40.0779C44.1073 40.0259 40.2311 40.5938 36.5169 41.7605C32.8419 43.0428 31.1948 44.7963 31.1948 45.9605C31.1948 47.1785 32.9653 49.0935 36.8529 50.423C40.4663 51.507 44.2287 52.0115 48 51.918C51.6965 51.9841 55.3814 51.4839 58.9266 50.4348C62.9625 49.0974 64.8 47.1798 64.8 45.9645C64.7338 45.5474 64.5818 45.1486 64.3536 44.7932C64.1254 44.4379 63.8261 44.1337 63.4744 43.8999C62.2298 42.938 60.8254 42.2031 59.3256 41.729C55.6624 40.5789 51.839 40.0215 48 40.0779Z" fill="#00D8FF"/>
<path d="M40.5445 62.3297C39.9322 62.3437 39.3272 62.1952 38.791 61.8992C36.9115 60.815 36.2605 57.6887 37.0493 53.5346C37.919 49.5592 39.426 45.7506 41.5118 42.2563C43.4684 38.7507 45.9732 35.5808 48.9314 32.8667C50.2349 31.6785 51.7386 30.7306 53.3729 30.0671C53.964 29.7901 54.6088 29.6465 55.2616 29.6465C55.9143 29.6465 56.5591 29.7901 57.1502 30.0671C59.1046 31.1932 59.7516 34.6425 58.8394 39.0695C57.9428 42.8293 56.475 46.4293 54.4872 49.7441C52.5995 53.2083 50.1735 56.3506 47.2999 59.0537C45.9491 60.2884 44.3814 61.2625 42.676 61.9267C41.9933 62.1801 41.2726 62.3164 40.5445 62.3297ZM42.8716 43.0359C40.8819 46.3819 39.4376 50.0233 38.5928 53.8234C37.867 57.6493 38.5639 59.9501 39.5772 60.5355C40.6272 61.1432 43.1761 60.567 46.2709 57.8632C49.0141 55.2736 51.3296 52.2657 53.1314 48.9514C55.0357 45.7823 56.4437 42.3405 57.3064 38.7454C58.1648 34.5782 57.4232 32.0267 56.3706 31.4203C55.9761 31.2691 55.5545 31.2015 55.1325 31.2216C54.7105 31.2417 54.2972 31.3491 53.9189 31.5371C52.4642 32.1374 51.1268 32.9896 49.9682 34.0545C47.142 36.6543 44.7493 39.689 42.8807 43.0438L42.8716 43.0359Z" fill="#00D8FF"/>
<path d="M55.4513 62.3481C53.6729 62.3481 51.4141 61.2719 49.0621 59.2493C46.0521 56.5105 43.5049 53.3029 41.5191 49.7507C39.4595 46.3046 37.9644 42.5511 37.0907 38.6325C36.7118 36.9086 36.6416 35.131 36.8834 33.3825C36.9393 32.7339 37.1368 32.1054 37.462 31.5415C37.7872 30.9775 38.2321 30.4917 38.7655 30.1184C40.7172 28.9883 44.0286 30.1499 47.4083 33.1502C50.2178 35.8043 52.6037 38.8737 54.4827 42.2511C56.5411 45.6168 58.0518 49.2881 58.9583 53.1278C59.3535 54.915 59.4145 56.76 59.1381 58.5694C59.0724 59.2367 58.8631 59.8819 58.5246 60.4607C58.1862 61.0395 57.7265 61.5383 57.1772 61.9229C56.6498 62.2152 56.0542 62.3619 55.4513 62.3481ZM42.8776 48.9606C44.7826 52.3553 47.2157 55.4251 50.0858 58.0549C53.0376 60.5946 55.3791 61.1406 56.3858 60.5487C57.4358 59.9384 58.2102 57.4472 57.4122 53.4165C56.5379 49.7506 55.0889 46.2462 53.119 43.0334C51.3259 39.8008 49.0486 36.8618 46.3662 34.3184C43.1847 31.4939 40.6043 30.8625 39.553 31.4715C39.2253 31.7378 38.9564 32.0692 38.7633 32.4446C38.5701 32.8201 38.4569 33.2315 38.4308 33.6529C38.2221 35.2123 38.2901 36.7962 38.6316 38.332C39.472 42.0794 40.9058 45.6684 42.8789 48.9632L42.8776 48.9606Z" fill="#00D8FF"/>
<path d="M2.52 130V113.2H9.072C10.544 113.2 11.8 113.432 12.84 113.896C13.88 114.36 14.68 115.032 15.24 115.912C15.8 116.792 16.08 117.84 16.08 119.056C16.08 120.272 15.8 121.32 15.24 122.2C14.68 123.064 13.88 123.728 12.84 124.192C11.8 124.656 10.544 124.888 9.072 124.888H3.84L4.92 123.784V130H2.52ZM13.752 130L9.48 123.904H12.048L16.368 130H13.752ZM4.92 124.024L3.84 122.848H9C10.536 122.848 11.696 122.52 12.48 121.864C13.28 121.192 13.68 120.256 13.68 119.056C13.68 117.856 13.28 116.928 12.48 116.272C11.696 115.616 10.536 115.288 9 115.288H3.84L4.92 114.088V124.024ZM25.2855 130.144C23.9255 130.144 22.7255 129.864 21.6855 129.304C20.6615 128.744 19.8615 127.976 19.2855 127C18.7255 126.024 18.4455 124.904 18.4455 123.64C18.4455 122.376 18.7175 121.256 19.2615 120.28C19.8215 119.304 20.5815 118.544 21.5415 118C22.5175 117.44 23.6135 117.16 24.8295 117.16C26.0615 117.16 27.1495 117.432 28.0935 117.976C29.0375 118.52 29.7735 119.288 30.3015 120.28C30.8455 121.256 31.1175 122.4 31.1175 123.712C31.1175 123.808 31.1095 123.92 31.0935 124.048C31.0935 124.176 31.0855 124.296 31.0695 124.408H20.2455V122.752H29.8695L28.9335 123.328C28.9495 122.512 28.7815 121.784 28.4295 121.144C28.0775 120.504 27.5895 120.008 26.9655 119.656C26.3575 119.288 25.6455 119.104 24.8295 119.104C24.0295 119.104 23.3175 119.288 22.6935 119.656C22.0695 120.008 21.5815 120.512 21.2295 121.168C20.8775 121.808 20.7015 122.544 20.7015 123.376V123.76C20.7015 124.608 20.8935 125.368 21.2775 126.04C21.6775 126.696 22.2295 127.208 22.9335 127.576C23.6375 127.944 24.4455 128.128 25.3575 128.128C26.1095 128.128 26.7895 128 27.3975 127.744C28.0215 127.488 28.5655 127.104 29.0295 126.592L30.3015 128.08C29.7255 128.752 29.0055 129.264 28.1415 129.616C27.2935 129.968 26.3415 130.144 25.2855 130.144ZM41.8613 130V127.312L41.7413 126.808V122.224C41.7413 121.248 41.4533 120.496 40.8773 119.968C40.3173 119.424 39.4693 119.152 38.3333 119.152C37.5813 119.152 36.8453 119.28 36.1253 119.536C35.4053 119.776 34.7973 120.104 34.3013 120.52L33.3413 118.792C33.9973 118.264 34.7813 117.864 35.6933 117.592C36.6213 117.304 37.5893 117.16 38.5973 117.16C40.3413 117.16 41.6853 117.584 42.6293 118.432C43.5733 119.28 44.0453 120.576 44.0453 122.32V130H41.8613ZM37.6853 130.144C36.7413 130.144 35.9093 129.984 35.1893 129.664C34.4853 129.344 33.9413 128.904 33.5573 128.344C33.1733 127.768 32.9813 127.12 32.9813 126.4C32.9813 125.712 33.1413 125.088 33.4613 124.528C33.7973 123.968 34.3333 123.52 35.0693 123.184C35.8213 122.848 36.8293 122.68 38.0933 122.68H42.1253V124.336H38.1893C37.0373 124.336 36.2613 124.528 35.8613 124.912C35.4613 125.296 35.2613 125.76 35.2613 126.304C35.2613 126.928 35.5093 127.432 36.0053 127.816C36.5013 128.184 37.1893 128.368 38.0693 128.368C38.9333 128.368 39.6853 128.176 40.3253 127.792C40.9813 127.408 41.4533 126.848 41.7413 126.112L42.1973 127.696C41.8933 128.448 41.3573 129.048 40.5893 129.496C39.8213 129.928 38.8533 130.144 37.6853 130.144ZM53.853 130.144C52.557 130.144 51.397 129.864 50.373 129.304C49.365 128.744 48.573 127.976 47.997 127C47.421 126.024 47.133 124.904 47.133 123.64C47.133 122.376 47.421 121.256 47.997 120.28C48.573 119.304 49.365 118.544 50.373 118C51.397 117.44 52.557 117.16 53.853 117.16C55.005 117.16 56.029 117.392 56.925 117.856C57.837 118.304 58.541 118.976 59.037 119.872L57.285 121C56.869 120.376 56.357 119.92 55.749 119.632C55.157 119.328 54.517 119.176 53.829 119.176C52.997 119.176 52.253 119.36 51.597 119.728C50.941 120.096 50.421 120.616 50.037 121.288C49.653 121.944 49.461 122.728 49.461 123.64C49.461 124.552 49.653 125.344 50.037 126.016C50.421 126.688 50.941 127.208 51.597 127.576C52.253 127.944 52.997 128.128 53.829 128.128C54.517 128.128 55.157 127.984 55.749 127.696C56.357 127.392 56.869 126.928 57.285 126.304L59.037 127.408C58.541 128.288 57.837 128.968 56.925 129.448C56.029 129.912 55.005 130.144 53.853 130.144ZM66.552 130.144C65.272 130.144 64.28 129.8 63.576 129.112C62.872 128.424 62.52 127.44 62.52 126.16V114.496H64.824V126.064C64.824 126.752 64.992 127.28 65.328 127.648C65.68 128.016 66.176 128.2 66.816 128.2C67.536 128.2 68.136 128 68.616 127.6L69.336 129.256C68.984 129.56 68.56 129.784 68.064 129.928C67.584 130.072 67.08 130.144 66.552 130.144ZM60.36 119.176V117.28H68.472V119.176H60.36ZM76.9348 134.8C76.4068 134.8 75.9028 134.736 75.4228 134.608C74.9268 134.48 74.5108 134.288 74.1748 134.032L74.9188 132.256C75.3988 132.656 76.0228 132.856 76.7908 132.856C77.3988 132.856 77.8628 132.664 78.1828 132.28C78.5188 131.912 78.6868 131.36 78.6868 130.624V117.28H80.9908V130.576C80.9908 131.872 80.6388 132.896 79.9348 133.648C79.2468 134.416 78.2468 134.8 76.9348 134.8ZM79.8388 114.832C79.3908 114.832 79.0148 114.688 78.7108 114.4C78.4228 114.112 78.2788 113.76 78.2788 113.344C78.2788 112.912 78.4228 112.552 78.7108 112.264C79.0148 111.976 79.3908 111.832 79.8388 111.832C80.2868 111.832 80.6548 111.976 80.9428 112.264C81.2468 112.536 81.3988 112.88 81.3988 113.296C81.3988 113.728 81.2548 114.096 80.9668 114.4C80.6788 114.688 80.3028 114.832 79.8388 114.832ZM89.0351 130.144C87.9791 130.144 86.9711 130 86.0111 129.712C85.0671 129.424 84.3231 129.072 83.7791 128.656L84.7391 126.832C85.2831 127.2 85.9551 127.512 86.7551 127.768C87.5551 128.024 88.3711 128.152 89.2031 128.152C90.2751 128.152 91.0431 128 91.5071 127.696C91.9871 127.392 92.2271 126.968 92.2271 126.424C92.2271 126.024 92.0831 125.712 91.7951 125.488C91.5071 125.264 91.1231 125.096 90.6431 124.984C90.1791 124.872 89.6591 124.776 89.0831 124.696C88.5071 124.6 87.9311 124.488 87.3551 124.36C86.7791 124.216 86.2511 124.024 85.7711 123.784C85.2911 123.528 84.9071 123.184 84.6191 122.752C84.3311 122.304 84.1871 121.712 84.1871 120.976C84.1871 120.208 84.4031 119.536 84.8351 118.96C85.2671 118.384 85.8751 117.944 86.6591 117.64C87.4591 117.32 88.4031 117.16 89.4911 117.16C90.3231 117.16 91.1631 117.264 92.0111 117.472C92.8751 117.664 93.5791 117.944 94.1231 118.312L93.1391 120.136C92.5631 119.752 91.9631 119.488 91.3391 119.344C90.7151 119.2 90.0911 119.128 89.4671 119.128C88.4591 119.128 87.7071 119.296 87.2111 119.632C86.7151 119.952 86.4671 120.368 86.4671 120.88C86.4671 121.312 86.6111 121.648 86.8991 121.888C87.2031 122.112 87.5871 122.288 88.0511 122.416C88.5311 122.544 89.0591 122.656 89.6351 122.752C90.2111 122.832 90.7871 122.944 91.3631 123.088C91.9391 123.216 92.4591 123.4 92.9231 123.64C93.4031 123.88 93.7871 124.216 94.0751 124.648C94.3791 125.08 94.5311 125.656 94.5311 126.376C94.5311 127.144 94.3071 127.808 93.8591 128.368C93.4111 128.928 92.7791 129.368 91.9631 129.688C91.1471 129.992 90.1711 130.144 89.0351 130.144Z" fill="black"/>
</svg>
