<svg xmlns="http://www.w3.org/2000/svg" xmlns:xlink="http://www.w3.org/1999/xlink" width="1920" height="3833" viewBox="0 0 1920 3833">
  <defs>
    <clipPath id="clip-Background">
      <rect width="1920" height="3833"/>
    </clipPath>
  </defs>
  <g id="Background" clip-path="url(#clip-Background)">
    <rect width="1920" height="3833" fill="#fff"/>
    <path id="Path_70" data-name="Path 70" d="M4900.023,19801.7a53.467,53.467,0,0,0-30.571-10.471c-32.812,2.941-55.048-7.039-65.8-28.225h-.315c-10.961,29.379,15.338,49.795,38.73,54.629,16.283,3.361,25.633.35,41.356,7.422,17.264,7.74,17.719,13.8,25.038,22.273,4.167-6.584,6.2-16.879,3.712-26.23-2.626-9.945-7.284-13.375-12.151-19.363Z" transform="translate(-3095.257 -18619.5)" fill="#f3b7e7" fill-rule="evenodd" opacity="0.26"/>
    <path id="Path_110" data-name="Path 110" d="M4814.008,19801.7a53.467,53.467,0,0,1,30.571-10.471c32.812,2.941,55.048-7.039,65.8-28.225h.315c10.961,29.379-15.338,49.795-38.73,54.629-16.283,3.361-25.633.35-41.356,7.422-17.264,7.74-17.719,13.8-25.038,22.273-4.167-6.584-6.2-16.879-3.712-26.23,2.626-9.945,7.284-13.375,12.151-19.363Z" transform="translate(-4698.773 -18619.5)" fill="#f3b7e7" fill-rule="evenodd" opacity="0.26"/>
    <path id="Path_87" data-name="Path 87" d="M4900.023,19801.7a53.467,53.467,0,0,0-30.571-10.471c-32.812,2.941-55.048-7.039-65.8-28.225h-.315c-10.961,29.379,15.338,49.795,38.73,54.629,16.283,3.361,25.633.35,41.356,7.422,17.264,7.74,17.719,13.8,25.038,22.273,4.167-6.584,6.2-16.879,3.712-26.23-2.626-9.945-7.284-13.375-12.151-19.363Z" transform="translate(-3258.741 -18571.744)" fill="#f3b7e7" fill-rule="evenodd" opacity="0.26"/>
    <path id="Path_111" data-name="Path 111" d="M4814.008,19801.7a53.467,53.467,0,0,1,30.571-10.471c32.812,2.941,55.048-7.039,65.8-28.225h.315c10.961,29.379-15.338,49.795-38.73,54.629-16.283,3.361-25.633.35-41.356,7.422-17.264,7.74-17.719,13.8-25.038,22.273-4.167-6.584-6.2-16.879-3.712-26.23,2.626-9.945,7.284-13.375,12.151-19.363Z" transform="translate(-4535.29 -18571.744)" fill="#f3b7e7" fill-rule="evenodd" opacity="0.26"/>
    <path id="Path_109" data-name="Path 109" d="M4900.023,19801.7a53.467,53.467,0,0,0-30.571-10.471c-32.812,2.941-55.048-7.039-65.8-28.225h-.315c-10.961,29.379,15.338,49.795,38.73,54.629,16.283,3.361,25.633.35,41.356,7.422,17.264,7.74,17.719,13.8,25.038,22.273,4.167-6.584,6.2-16.879,3.712-26.23-2.626-9.945-7.284-13.375-12.151-19.363Z" transform="translate(-3211.257 -18397.906)" fill="#f3b7e7" fill-rule="evenodd" opacity="0.26"/>
    <path id="Path_112" data-name="Path 112" d="M4814.008,19801.7a53.467,53.467,0,0,1,30.571-10.471c32.812,2.941,55.048-7.039,65.8-28.225h.315c10.961,29.379-15.338,49.795-38.73,54.629-16.283,3.361-25.633.35-41.356,7.422-17.264,7.74-17.719,13.8-25.038,22.273-4.167-6.584-6.2-16.879-3.712-26.23,2.626-9.945,7.284-13.375,12.151-19.363Z" transform="translate(-4582.773 -18397.906)" fill="#f3b7e7" fill-rule="evenodd" opacity="0.26"/>
    <g id="Group_10" data-name="Group 10" transform="translate(0 88.136)" opacity="0.67">
      <path id="Path_89" data-name="Path 89" d="M4900.023,19801.7a53.467,53.467,0,0,0-30.571-10.471c-32.812,2.941-55.048-7.039-65.8-28.225h-.315c-10.961,29.379,15.338,49.795,38.73,54.629,16.283,3.361,25.633.35,41.356,7.422,17.264,7.74,17.719,13.8,25.038,22.273,4.167-6.584,6.2-16.879,3.712-26.23-2.626-9.945-7.284-13.375-12.151-19.363Z" transform="translate(12132.102 -15325.46) rotate(47)" fill="#f3b7e7" fill-rule="evenodd" opacity="0.26"/>
      <path id="Path_104" data-name="Path 104" d="M4900.023,19801.7a53.467,53.467,0,0,0-30.571-10.471c-32.812,2.941-55.048-7.039-65.8-28.225h-.315c-10.961,29.379,15.338,49.795,38.73,54.629,16.283,3.361,25.633.35,41.356,7.422,17.264,7.74,17.719,13.8,25.038,22.273,4.167-6.584,6.2-16.879,3.712-26.23-2.626-9.945-7.284-13.375-12.151-19.363Z" transform="translate(12132.102 -15494.748) rotate(47)" fill="#f3b7e7" fill-rule="evenodd" opacity="0.26"/>
      <path id="Path_105" data-name="Path 105" d="M4900.023,19801.7a53.467,53.467,0,0,0-30.571-10.471c-32.812,2.941-55.048-7.039-65.8-28.225h-.315c-10.961,29.379,15.338,49.795,38.73,54.629,16.283,3.361,25.633.35,41.356,7.422,17.264,7.74,17.719,13.8,25.038,22.273,4.167-6.584,6.2-16.879,3.712-26.23-2.626-9.945-7.284-13.375-12.151-19.363Z" transform="translate(12132.102 -14648.308) rotate(47)" fill="#f3b7e7" fill-rule="evenodd" opacity="0.26"/>
      <path id="Path_106" data-name="Path 106" d="M4900.023,19801.7a53.467,53.467,0,0,0-30.571-10.471c-32.812,2.941-55.048-7.039-65.8-28.225h-.315c-10.961,29.379,15.338,49.795,38.73,54.629,16.283,3.361,25.633.35,41.356,7.422,17.264,7.74,17.719,13.8,25.038,22.273,4.167-6.584,6.2-16.879,3.712-26.23-2.626-9.945-7.284-13.375-12.151-19.363Z" transform="translate(12132.102 -14817.596) rotate(47)" fill="#f3b7e7" fill-rule="evenodd" opacity="0.26"/>
      <path id="Path_107" data-name="Path 107" d="M4900.023,19801.7a53.467,53.467,0,0,0-30.571-10.471c-32.812,2.941-55.048-7.039-65.8-28.225h-.315c-10.961,29.379,15.338,49.795,38.73,54.629,16.283,3.361,25.633.35,41.356,7.422,17.264,7.74,17.719,13.8,25.038,22.273,4.167-6.584,6.2-16.879,3.712-26.23-2.626-9.945-7.284-13.375-12.151-19.363Z" transform="translate(12132.102 -14986.884) rotate(47)" fill="#f3b7e7" fill-rule="evenodd" opacity="0.26"/>
      <path id="Path_108" data-name="Path 108" d="M4900.023,19801.7a53.467,53.467,0,0,0-30.571-10.471c-32.812,2.941-55.048-7.039-65.8-28.225h-.315c-10.961,29.379,15.338,49.795,38.73,54.629,16.283,3.361,25.633.35,41.356,7.422,17.264,7.74,17.719,13.8,25.038,22.273,4.167-6.584,6.2-16.879,3.712-26.23-2.626-9.945-7.284-13.375-12.151-19.363Z" transform="translate(12132.102 -15156.172) rotate(47)" fill="#f3b7e7" fill-rule="evenodd" opacity="0.26"/>
    </g>
    <g id="Group_11" data-name="Group 11" transform="translate(0 1223.136)" opacity="0.67">
      <path id="Path_89-2" data-name="Path 89" d="M4900.023,19801.7a53.467,53.467,0,0,0-30.571-10.471c-32.812,2.941-55.048-7.039-65.8-28.225h-.315c-10.961,29.379,15.338,49.795,38.73,54.629,16.283,3.361,25.633.35,41.356,7.422,17.264,7.74,17.719,13.8,25.038,22.273,4.167-6.584,6.2-16.879,3.712-26.23-2.626-9.945-7.284-13.375-12.151-19.363Z" transform="translate(12132.102 -15325.46) rotate(47)" fill="#f3b7e7" fill-rule="evenodd" opacity="0.26"/>
      <path id="Path_104-2" data-name="Path 104" d="M4900.023,19801.7a53.467,53.467,0,0,0-30.571-10.471c-32.812,2.941-55.048-7.039-65.8-28.225h-.315c-10.961,29.379,15.338,49.795,38.73,54.629,16.283,3.361,25.633.35,41.356,7.422,17.264,7.74,17.719,13.8,25.038,22.273,4.167-6.584,6.2-16.879,3.712-26.23-2.626-9.945-7.284-13.375-12.151-19.363Z" transform="translate(12132.102 -15494.748) rotate(47)" fill="#f3b7e7" fill-rule="evenodd" opacity="0.26"/>
      <path id="Path_105-2" data-name="Path 105" d="M4900.023,19801.7a53.467,53.467,0,0,0-30.571-10.471c-32.812,2.941-55.048-7.039-65.8-28.225h-.315c-10.961,29.379,15.338,49.795,38.73,54.629,16.283,3.361,25.633.35,41.356,7.422,17.264,7.74,17.719,13.8,25.038,22.273,4.167-6.584,6.2-16.879,3.712-26.23-2.626-9.945-7.284-13.375-12.151-19.363Z" transform="translate(12132.102 -14648.308) rotate(47)" fill="#f3b7e7" fill-rule="evenodd" opacity="0.26"/>
      <path id="Path_106-2" data-name="Path 106" d="M4900.023,19801.7a53.467,53.467,0,0,0-30.571-10.471c-32.812,2.941-55.048-7.039-65.8-28.225h-.315c-10.961,29.379,15.338,49.795,38.73,54.629,16.283,3.361,25.633.35,41.356,7.422,17.264,7.74,17.719,13.8,25.038,22.273,4.167-6.584,6.2-16.879,3.712-26.23-2.626-9.945-7.284-13.375-12.151-19.363Z" transform="translate(12132.102 -14817.596) rotate(47)" fill="#f3b7e7" fill-rule="evenodd" opacity="0.26"/>
      <path id="Path_107-2" data-name="Path 107" d="M4900.023,19801.7a53.467,53.467,0,0,0-30.571-10.471c-32.812,2.941-55.048-7.039-65.8-28.225h-.315c-10.961,29.379,15.338,49.795,38.73,54.629,16.283,3.361,25.633.35,41.356,7.422,17.264,7.74,17.719,13.8,25.038,22.273,4.167-6.584,6.2-16.879,3.712-26.23-2.626-9.945-7.284-13.375-12.151-19.363Z" transform="translate(12132.102 -14986.884) rotate(47)" fill="#f3b7e7" fill-rule="evenodd" opacity="0.26"/>
      <path id="Path_108-2" data-name="Path 108" d="M4900.023,19801.7a53.467,53.467,0,0,0-30.571-10.471c-32.812,2.941-55.048-7.039-65.8-28.225h-.315c-10.961,29.379,15.338,49.795,38.73,54.629,16.283,3.361,25.633.35,41.356,7.422,17.264,7.74,17.719,13.8,25.038,22.273,4.167-6.584,6.2-16.879,3.712-26.23-2.626-9.945-7.284-13.375-12.151-19.363Z" transform="translate(12132.102 -15156.172) rotate(47)" fill="#f3b7e7" fill-rule="evenodd" opacity="0.26"/>
    </g>
    <g id="Layer_x0020_1" transform="translate(1772.448 1291.324)" opacity="0.4">
      <g id="_511369624">
        <path id="Path_102" data-name="Path 102" d="M39.232,0A39.232,39.232,0,1,1,0,39.232,39.232,39.232,0,0,1,39.232,0Z" fill="#0f52ba" fill-rule="evenodd"/>
        <path id="Path_103" data-name="Path 103" d="M1441.232,1254A39.232,39.232,0,1,1,1402,1293.232,39.232,39.232,0,0,1,1441.232,1254Z" transform="translate(-1389.359 -1242.693)" fill="#3c9612" fill-rule="evenodd"/>
      </g>
    </g>
    <g id="Layer_x0020_1-2" data-name="Layer_x0020_1" transform="translate(56.448 1291.324)" opacity="0.4">
      <g id="_511369624-2" data-name="_511369624" transform="translate(0)">
        <path id="Path_102-2" data-name="Path 102" d="M39.232,0A39.232,39.232,0,1,0,78.464,39.232,39.232,39.232,0,0,0,39.232,0Z" transform="translate(12.641)" fill="#0f52ba" fill-rule="evenodd"/>
        <path id="Path_103-2" data-name="Path 103" d="M1441.232,1254a39.232,39.232,0,1,0,39.232,39.232A39.232,39.232,0,0,0,1441.232,1254Z" transform="translate(-1402 -1242.693)" fill="#3c9612" fill-rule="evenodd"/>
      </g>
    </g>
    <g id="Layer_x0020_1-3" data-name="Layer_x0020_1" transform="translate(927.448 2613)">
      <g id="_511369624-3" data-name="_511369624">
        <path id="Path_102-3" data-name="Path 102" d="M39.232,0A39.232,39.232,0,1,1,0,39.232,39.232,39.232,0,0,1,39.232,0Z" fill="#0f52ba" fill-rule="evenodd"/>
        <path id="Path_103-3" data-name="Path 103" d="M1441.232,1254A39.232,39.232,0,1,1,1402,1293.232,39.232,39.232,0,0,1,1441.232,1254Z" transform="translate(-1389.359 -1242.693)" fill="#3c9612" fill-rule="evenodd"/>
      </g>
    </g>
    <g id="Group_12" data-name="Group 12" transform="matrix(-0.017, 1, -1, -0.017, 3375.078, 1729.671)" opacity="0.67">
      <path id="Path_89-3" data-name="Path 89" d="M4900.023,19801.7a53.467,53.467,0,0,0-30.571-10.471c-32.812,2.941-55.048-7.039-65.8-28.225h-.315c-10.961,29.379,15.338,49.795,38.73,54.629,16.283,3.361,25.633.35,41.356,7.422,17.264,7.74,17.719,13.8,25.038,22.273,4.167-6.584,6.2-16.879,3.712-26.23-2.626-9.945-7.284-13.375-12.151-19.363Z" transform="translate(12132.102 -15325.46) rotate(47)" fill="#f3b7e7" fill-rule="evenodd" opacity="0.26"/>
      <path id="Path_104-3" data-name="Path 104" d="M4900.023,19801.7a53.467,53.467,0,0,0-30.571-10.471c-32.812,2.941-55.048-7.039-65.8-28.225h-.315c-10.961,29.379,15.338,49.795,38.73,54.629,16.283,3.361,25.633.35,41.356,7.422,17.264,7.74,17.719,13.8,25.038,22.273,4.167-6.584,6.2-16.879,3.712-26.23-2.626-9.945-7.284-13.375-12.151-19.363Z" transform="translate(12132.102 -15494.748) rotate(47)" fill="#f3b7e7" fill-rule="evenodd" opacity="0.26"/>
      <path id="Path_106-3" data-name="Path 106" d="M4900.023,19801.7a53.467,53.467,0,0,0-30.571-10.471c-32.812,2.941-55.048-7.039-65.8-28.225h-.315c-10.961,29.379,15.338,49.795,38.73,54.629,16.283,3.361,25.633.35,41.356,7.422,17.264,7.74,17.719,13.8,25.038,22.273,4.167-6.584,6.2-16.879,3.712-26.23-2.626-9.945-7.284-13.375-12.151-19.363Z" transform="translate(12132.102 -14817.596) rotate(47)" fill="#f3b7e7" fill-rule="evenodd" opacity="0.26"/>
      <path id="Path_107-3" data-name="Path 107" d="M4900.023,19801.7a53.467,53.467,0,0,0-30.571-10.471c-32.812,2.941-55.048-7.039-65.8-28.225h-.315c-10.961,29.379,15.338,49.795,38.73,54.629,16.283,3.361,25.633.35,41.356,7.422,17.264,7.74,17.719,13.8,25.038,22.273,4.167-6.584,6.2-16.879,3.712-26.23-2.626-9.945-7.284-13.375-12.151-19.363Z" transform="translate(12132.102 -14986.884) rotate(47)" fill="#f3b7e7" fill-rule="evenodd" opacity="0.26"/>
      <path id="Path_108-3" data-name="Path 108" d="M4900.023,19801.7a53.467,53.467,0,0,0-30.571-10.471c-32.812,2.941-55.048-7.039-65.8-28.225h-.315c-10.961,29.379,15.338,49.795,38.73,54.629,16.283,3.361,25.633.35,41.356,7.422,17.264,7.74,17.719,13.8,25.038,22.273,4.167-6.584,6.2-16.879,3.712-26.23-2.626-9.945-7.284-13.375-12.151-19.363Z" transform="translate(12132.102 -15156.172) rotate(47)" fill="#f3b7e7" fill-rule="evenodd" opacity="0.26"/>
    </g>
    <g id="Group_13" data-name="Group 13" transform="matrix(-0.017, 1, -1, -0.017, 2387.078, 1729.671)" opacity="0.67">
      <path id="Path_89-4" data-name="Path 89" d="M4900.023,19801.7a53.467,53.467,0,0,0-30.571-10.471c-32.812,2.941-55.048-7.039-65.8-28.225h-.315c-10.961,29.379,15.338,49.795,38.73,54.629,16.283,3.361,25.633.35,41.356,7.422,17.264,7.74,17.719,13.8,25.038,22.273,4.167-6.584,6.2-16.879,3.712-26.23-2.626-9.945-7.284-13.375-12.151-19.363Z" transform="translate(12132.102 -15325.46) rotate(47)" fill="#f3b7e7" fill-rule="evenodd" opacity="0.26"/>
      <path id="Path_104-4" data-name="Path 104" d="M4900.023,19801.7a53.467,53.467,0,0,0-30.571-10.471c-32.812,2.941-55.048-7.039-65.8-28.225h-.315c-10.961,29.379,15.338,49.795,38.73,54.629,16.283,3.361,25.633.35,41.356,7.422,17.264,7.74,17.719,13.8,25.038,22.273,4.167-6.584,6.2-16.879,3.712-26.23-2.626-9.945-7.284-13.375-12.151-19.363Z" transform="translate(12132.102 -15494.748) rotate(47)" fill="#f3b7e7" fill-rule="evenodd" opacity="0.26"/>
      <path id="Path_106-4" data-name="Path 106" d="M4900.023,19801.7a53.467,53.467,0,0,0-30.571-10.471c-32.812,2.941-55.048-7.039-65.8-28.225h-.315c-10.961,29.379,15.338,49.795,38.73,54.629,16.283,3.361,25.633.35,41.356,7.422,17.264,7.74,17.719,13.8,25.038,22.273,4.167-6.584,6.2-16.879,3.712-26.23-2.626-9.945-7.284-13.375-12.151-19.363Z" transform="translate(12132.102 -14817.596) rotate(47)" fill="#f3b7e7" fill-rule="evenodd" opacity="0.26"/>
      <path id="Path_107-4" data-name="Path 107" d="M4900.023,19801.7a53.467,53.467,0,0,0-30.571-10.471c-32.812,2.941-55.048-7.039-65.8-28.225h-.315c-10.961,29.379,15.338,49.795,38.73,54.629,16.283,3.361,25.633.35,41.356,7.422,17.264,7.74,17.719,13.8,25.038,22.273,4.167-6.584,6.2-16.879,3.712-26.23-2.626-9.945-7.284-13.375-12.151-19.363Z" transform="translate(12132.102 -14986.884) rotate(47)" fill="#f3b7e7" fill-rule="evenodd" opacity="0.26"/>
      <path id="Path_108-4" data-name="Path 108" d="M4900.023,19801.7a53.467,53.467,0,0,0-30.571-10.471c-32.812,2.941-55.048-7.039-65.8-28.225h-.315c-10.961,29.379,15.338,49.795,38.73,54.629,16.283,3.361,25.633.35,41.356,7.422,17.264,7.74,17.719,13.8,25.038,22.273,4.167-6.584,6.2-16.879,3.712-26.23-2.626-9.945-7.284-13.375-12.151-19.363Z" transform="translate(12132.102 -15156.172) rotate(47)" fill="#f3b7e7" fill-rule="evenodd" opacity="0.26"/>
    </g>
  </g>
</svg>
