<svg width="482" height="243" viewBox="0 0 482 243" fill="none" xmlns="http://www.w3.org/2000/svg">
<path d="M401.049 46.1357H399.984V16.9788C399.984 12.5032 398.207 8.2109 395.042 5.04617C391.877 1.88145 387.585 0.103521 383.109 0.103516H321.336C319.12 0.10351 316.926 0.539996 314.878 1.38805C312.831 2.23611 310.971 3.47913 309.404 5.04613C307.837 6.61314 306.594 8.47345 305.746 10.5208C304.897 12.5682 304.461 14.7626 304.461 16.9787V176.936C304.461 179.152 304.897 181.347 305.745 183.394C306.594 185.441 307.837 187.302 309.404 188.869C310.971 190.436 312.831 191.679 314.878 192.527C316.926 193.375 319.12 193.811 321.336 193.811H383.109C387.585 193.811 391.877 192.033 395.042 188.869C398.206 185.704 399.984 181.412 399.984 176.936V66.8901H401.049L401.049 46.1357Z" fill="#E6E6E6"/>
<path d="M383.79 4.49414H375.726C376.097 5.40326 376.239 6.38962 376.139 7.36633C376.038 8.34304 375.7 9.28012 375.152 10.095C374.604 10.9099 373.865 11.5777 372.998 12.0394C372.132 12.5011 371.165 12.7426 370.183 12.7427H334.794C333.812 12.7426 332.846 12.5011 331.979 12.0394C331.113 11.5777 330.373 10.9099 329.825 10.095C329.278 9.28013 328.939 8.34304 328.839 7.36633C328.738 6.38962 328.88 5.40326 329.251 4.49414H321.719C318.377 4.49414 315.172 5.82187 312.808 8.18524C310.445 10.5486 309.117 13.754 309.117 17.0964V176.819C309.117 178.474 309.443 180.113 310.076 181.642C310.71 183.171 311.638 184.56 312.808 185.73C313.979 186.9 315.368 187.829 316.897 188.462C318.426 189.095 320.064 189.421 321.719 189.421H383.79C385.445 189.421 387.084 189.095 388.613 188.462C390.142 187.829 391.531 186.9 392.701 185.73C393.871 184.56 394.8 183.171 395.433 181.642C396.066 180.113 396.392 178.474 396.392 176.819V176.819V17.0964C396.392 15.4414 396.066 13.8027 395.433 12.2737C394.8 10.7447 393.871 9.35546 392.701 8.18524C391.531 7.01502 390.142 6.08674 388.613 5.45342C387.084 4.82011 385.445 4.49414 383.79 4.49414V4.49414Z" fill="white"/>
<path d="M480.929 194.099H277.047C276.977 194.099 276.909 194.071 276.859 194.021C276.809 193.971 276.781 193.903 276.781 193.833C276.781 193.762 276.809 193.694 276.859 193.644C276.909 193.594 276.977 193.566 277.047 193.566H480.929C480.999 193.566 481.067 193.594 481.117 193.644C481.167 193.694 481.195 193.762 481.195 193.833C481.195 193.903 481.167 193.971 481.117 194.021C481.067 194.071 480.999 194.099 480.929 194.099Z" fill="#3F3D56"/>
<path d="M390.386 48.6798H315.095C314.726 48.6793 314.371 48.5323 314.11 48.2709C313.849 48.0096 313.702 47.6552 313.701 47.2855V28.6091C313.702 28.2395 313.849 27.8851 314.11 27.6237C314.371 27.3623 314.726 27.2153 315.095 27.2148H390.386C390.756 27.2153 391.11 27.3623 391.372 27.6237C391.633 27.8851 391.78 28.2395 391.78 28.6091V47.2855C391.78 47.6552 391.633 48.0096 391.372 48.2709C391.11 48.5323 390.756 48.6793 390.386 48.6798V48.6798ZM315.095 27.7725C314.874 27.7728 314.661 27.861 314.504 28.0178C314.347 28.1747 314.259 28.3873 314.259 28.6091V47.2855C314.259 47.5073 314.347 47.72 314.504 47.8768C314.661 48.0336 314.874 48.1219 315.095 48.1221H390.386C390.608 48.1219 390.821 48.0336 390.977 47.8768C391.134 47.72 391.222 47.5073 391.223 47.2855V28.6091C391.222 28.3873 391.134 28.1747 390.977 28.0178C390.821 27.861 390.608 27.7728 390.386 27.7725H315.095Z" fill="#3F3D56"/>
<path d="M390.386 122.576H315.095C314.726 122.576 314.371 122.429 314.11 122.168C313.849 121.906 313.702 121.552 313.701 121.182V86.6111C313.702 86.2414 313.849 85.887 314.11 85.6257C314.371 85.3643 314.726 85.2172 315.095 85.2168H390.386C390.756 85.2172 391.11 85.3643 391.372 85.6257C391.633 85.887 391.78 86.2414 391.78 86.6111V121.182C391.78 121.552 391.633 121.906 391.372 122.168C391.11 122.429 390.756 122.576 390.386 122.576V122.576ZM315.095 85.7745C314.874 85.7747 314.661 85.863 314.504 86.0198C314.347 86.1766 314.259 86.3893 314.259 86.6111V121.182C314.259 121.404 314.347 121.617 314.504 121.773C314.661 121.93 314.874 122.018 315.095 122.019H390.386C390.608 122.018 390.821 121.93 390.977 121.773C391.134 121.617 391.222 121.404 391.223 121.182V86.6111C391.222 86.3893 391.134 86.1766 390.977 86.0198C390.821 85.863 390.608 85.7747 390.386 85.7745L315.095 85.7745Z" fill="#3F3D56"/>
<path d="M389.828 77.6798H356.365C355.995 77.6793 355.641 77.5323 355.38 77.2709C355.118 77.0095 354.971 76.6552 354.971 76.2855V57.6091C354.971 57.2395 355.118 56.8851 355.38 56.6237C355.641 56.3623 355.995 56.2153 356.365 56.2148H389.828C390.197 56.2153 390.552 56.3623 390.813 56.6237C391.074 56.8851 391.221 57.2395 391.222 57.6091V76.2855C391.221 76.6552 391.074 77.0095 390.813 77.2709C390.552 77.5323 390.197 77.6793 389.828 77.6798ZM356.365 56.7725C356.143 56.7728 355.931 56.861 355.774 57.0178C355.617 57.1747 355.529 57.3873 355.528 57.6091V76.2855C355.529 76.5073 355.617 76.7199 355.774 76.8768C355.931 77.0336 356.143 77.1218 356.365 77.1221H389.828C390.049 77.1218 390.262 77.0336 390.419 76.8768C390.576 76.72 390.664 76.5073 390.664 76.2855V57.6091C390.664 57.3873 390.576 57.1747 390.419 57.0178C390.262 56.861 390.049 56.7728 389.828 56.7725L356.365 56.7725Z" fill="#E6E6E6"/>
<path d="M348.558 167.75H315.095C314.726 167.749 314.371 167.602 314.11 167.341C313.849 167.08 313.702 166.725 313.701 166.355V131.506C313.702 131.136 313.849 130.782 314.11 130.52C314.371 130.259 314.726 130.112 315.095 130.111H348.558C348.928 130.112 349.282 130.259 349.543 130.52C349.805 130.782 349.952 131.136 349.952 131.506V166.356C349.952 166.725 349.805 167.08 349.543 167.341C349.282 167.602 348.928 167.749 348.558 167.75V167.75ZM315.095 130.669C314.874 130.669 314.661 130.757 314.504 130.914C314.347 131.071 314.259 131.284 314.259 131.506V166.356C314.259 166.577 314.347 166.79 314.504 166.947C314.661 167.104 314.874 167.192 315.095 167.192H348.558C348.78 167.192 348.992 167.104 349.149 166.947C349.306 166.79 349.394 166.577 349.395 166.356V131.506C349.394 131.284 349.306 131.071 349.149 130.914C348.992 130.757 348.78 130.669 348.558 130.669H315.095Z" fill="#E6E6E6"/>
<path d="M389.828 167.75H356.365C355.995 167.749 355.641 167.602 355.38 167.341C355.118 167.08 354.971 166.725 354.971 166.355V131.506C354.971 131.136 355.118 130.782 355.38 130.52C355.641 130.259 355.995 130.112 356.365 130.111H389.828C390.197 130.112 390.552 130.259 390.813 130.52C391.074 130.782 391.221 131.136 391.222 131.506V166.356C391.221 166.725 391.074 167.08 390.813 167.341C390.552 167.602 390.197 167.749 389.828 167.75V167.75ZM356.365 130.669C356.143 130.669 355.931 130.757 355.774 130.914C355.617 131.071 355.529 131.284 355.528 131.506V166.356C355.529 166.577 355.617 166.79 355.774 166.947C355.931 167.104 356.143 167.192 356.365 167.192H389.828C390.049 167.192 390.262 167.104 390.419 166.947C390.576 166.79 390.664 166.577 390.664 166.356V131.506C390.664 131.284 390.576 131.071 390.419 130.914C390.262 130.757 390.049 130.669 389.828 130.669H356.365Z" fill="#E6E6E6"/>
<path d="M326.236 103.144C329.373 103.144 331.916 100.601 331.916 97.4647C331.916 94.328 329.373 91.7852 326.236 91.7852C323.099 91.7852 320.557 94.328 320.557 97.4647C320.557 100.601 323.099 103.144 326.236 103.144Z" fill="#6C63FF"/>
<path d="M339.353 93.6758C339.102 93.6758 338.861 93.7755 338.683 93.953C338.506 94.1306 338.406 94.3713 338.406 94.6224C338.406 94.8734 338.506 95.1142 338.683 95.2917C338.861 95.4692 339.102 95.569 339.353 95.569H383.978C384.228 95.5684 384.468 95.4684 384.645 95.2909C384.823 95.1135 384.922 94.873 384.922 94.6224C384.922 94.3717 384.823 94.1313 384.645 93.9538C384.468 93.7764 384.228 93.6764 383.978 93.6758H339.353Z" fill="#6C63FF"/>
<path d="M339.351 99.3555C339.227 99.3552 339.103 99.3794 338.989 99.4268C338.874 99.4741 338.769 99.5436 338.681 99.6313C338.593 99.719 338.523 99.8232 338.475 99.938C338.427 100.053 338.403 100.176 338.402 100.3C338.402 100.424 338.426 100.548 338.474 100.662C338.521 100.777 338.59 100.882 338.678 100.97C338.766 101.058 338.87 101.128 338.985 101.176C339.1 101.224 339.223 101.248 339.347 101.249H358.553C358.678 101.249 358.801 101.225 358.916 101.177C359.031 101.13 359.135 101.06 359.223 100.972C359.312 100.884 359.381 100.78 359.429 100.665C359.477 100.55 359.501 100.426 359.501 100.302C359.501 100.178 359.477 100.054 359.429 99.9394C359.381 99.8245 359.312 99.7201 359.223 99.6322C359.135 99.5442 359.031 99.4745 358.916 99.4271C358.801 99.3796 358.678 99.3553 358.553 99.3555H339.351Z" fill="#6C63FF"/>
<path d="M321.878 108.436C321.158 108.436 320.572 108.86 320.572 109.382C320.572 109.904 321.158 110.329 321.878 110.329H383.447C384.167 110.329 384.753 109.904 384.753 109.382C384.753 108.86 384.167 108.436 383.447 108.436H321.878Z" fill="#CCCCCC"/>
<path d="M321.878 114.115C321.158 114.115 320.572 114.54 320.572 115.062C320.572 115.584 321.158 116.008 321.878 116.008H383.447C384.167 116.008 384.753 115.584 384.753 115.062C384.753 114.54 384.167 114.115 383.447 114.115H321.878Z" fill="#CCCCCC"/>
<path d="M326.793 42.9098C329.93 42.9098 332.472 40.367 332.472 37.2303C332.472 34.0936 329.93 31.5508 326.793 31.5508C323.656 31.5508 321.113 34.0936 321.113 37.2303C321.113 40.367 323.656 42.9098 326.793 42.9098Z" fill="#6C63FF"/>
<path d="M339.911 33.4453C339.66 33.4459 339.42 33.5459 339.243 33.7234C339.066 33.9008 338.967 34.1412 338.967 34.3919C338.967 34.6426 339.066 34.883 339.243 35.0604C339.42 35.2379 339.66 35.3379 339.911 35.3385H384.536C384.66 35.3389 384.784 35.3148 384.899 35.2675C385.014 35.2202 385.118 35.1507 385.207 35.063C385.295 34.9753 385.365 34.871 385.413 34.7562C385.46 34.6414 385.485 34.5183 385.486 34.3939C385.486 34.2695 385.462 34.1463 385.414 34.0313C385.367 33.9163 385.297 33.8117 385.209 33.7236C385.122 33.6355 385.017 33.5656 384.902 33.5178C384.787 33.4701 384.664 33.4454 384.54 33.4453C384.539 33.4453 384.537 33.4453 384.536 33.4453H339.911Z" fill="#6C63FF"/>
<path d="M339.911 39.123C339.66 39.1236 339.42 39.2236 339.243 39.4011C339.066 39.5785 338.967 39.819 338.967 40.0696C338.967 40.3203 339.066 40.5607 339.243 40.7382C339.42 40.9156 339.66 41.0156 339.911 41.0162H359.113C359.238 41.0166 359.361 40.9925 359.476 40.9452C359.591 40.898 359.696 40.8285 359.784 40.7407C359.872 40.653 359.942 40.5488 359.99 40.434C360.038 40.3191 360.063 40.196 360.063 40.0716C360.063 39.9472 360.039 39.824 359.992 39.709C359.944 39.594 359.875 39.4894 359.787 39.4013C359.699 39.3132 359.595 39.2433 359.48 39.1956C359.365 39.1478 359.242 39.1232 359.117 39.123C359.116 39.123 359.115 39.123 359.113 39.123H339.911Z" fill="#6C63FF"/>
<path d="M348.528 77.683H317.137L324.524 64.8876C324.656 64.6583 324.847 64.4678 325.076 64.3354C325.306 64.203 325.566 64.1333 325.83 64.1333C326.095 64.1333 326.355 64.203 326.585 64.3354C326.814 64.4678 327.005 64.6583 327.137 64.8876L330.293 70.3536L335.659 61.0596C335.824 60.7725 336.063 60.5341 336.35 60.3683C336.637 60.2025 336.963 60.1152 337.294 60.1152C337.626 60.1152 337.951 60.2025 338.239 60.3683C338.526 60.5341 338.764 60.7725 338.93 61.0596L348.528 77.683ZM318.103 77.1253H347.562L338.447 61.3385C338.33 61.1361 338.162 60.9681 337.96 60.8513C337.757 60.7344 337.528 60.6729 337.294 60.6729C337.061 60.6729 336.831 60.7344 336.629 60.8513C336.426 60.9681 336.258 61.1361 336.142 61.3385L330.293 71.469L326.654 65.1665C326.57 65.0219 326.45 64.9018 326.306 64.8184C326.161 64.7349 325.997 64.691 325.83 64.691C325.664 64.691 325.5 64.7349 325.355 64.8184C325.211 64.9018 325.091 65.0219 325.007 65.1665L318.103 77.1253Z" fill="#E6E6E6"/>
<path d="M388.682 77.683H357.291L364.678 64.8876C364.811 64.6582 365.001 64.4678 365.23 64.3354C365.46 64.203 365.72 64.1333 365.985 64.1333C366.25 64.1333 366.51 64.203 366.739 64.3354C366.968 64.4678 367.159 64.6582 367.291 64.8876L370.447 70.3535L375.813 61.0596C375.979 60.7725 376.217 60.5341 376.504 60.3683C376.791 60.2025 377.117 60.1152 377.449 60.1152C377.78 60.1152 378.106 60.2025 378.393 60.3683C378.68 60.5341 378.918 60.7725 379.084 61.0596L388.682 77.683ZM358.257 77.1253H387.716L378.601 61.3385C378.484 61.1361 378.316 60.9681 378.114 60.8513C377.912 60.7344 377.682 60.6729 377.449 60.6729C377.215 60.6729 376.985 60.7344 376.783 60.8513C376.581 60.9681 376.413 61.1361 376.296 61.3385L370.447 71.469L366.808 65.1664C366.725 65.0219 366.605 64.9018 366.46 64.8184C366.316 64.7349 366.152 64.691 365.985 64.691C365.818 64.691 365.654 64.7349 365.509 64.8184C365.365 64.9018 365.245 65.0219 365.161 65.1664L358.257 77.1253Z" fill="#E6E6E6"/>
<path d="M348.558 77.6798H315.095C314.726 77.6793 314.371 77.5323 314.11 77.2709C313.849 77.0095 313.702 76.6552 313.701 76.2855V57.6091C313.702 57.2395 313.849 56.8851 314.11 56.6237C314.371 56.3623 314.726 56.2153 315.095 56.2148H348.558C348.928 56.2153 349.282 56.3623 349.543 56.6237C349.805 56.8851 349.952 57.2395 349.952 57.6091V76.2855C349.952 76.6552 349.805 77.0095 349.543 77.2709C349.282 77.5323 348.928 77.6793 348.558 77.6798V77.6798ZM315.095 56.7725C314.874 56.7728 314.661 56.861 314.504 57.0178C314.347 57.1747 314.259 57.3873 314.259 57.6091V76.2855C314.259 76.5073 314.347 76.7199 314.504 76.8768C314.661 77.0336 314.874 77.1218 315.095 77.1221H348.558C348.78 77.1218 348.992 77.0336 349.149 76.8768C349.306 76.7199 349.394 76.5073 349.395 76.2855V57.6091C349.394 57.3873 349.306 57.1747 349.149 57.0178C348.992 56.861 348.78 56.7728 348.558 56.7725L315.095 56.7725Z" fill="#E6E6E6"/>
<path d="M322.226 137.299C322.101 137.299 321.978 137.323 321.863 137.37C321.748 137.418 321.643 137.488 321.555 137.576C321.467 137.663 321.397 137.768 321.35 137.883C321.302 137.998 321.277 138.121 321.277 138.245C321.277 138.37 321.302 138.493 321.35 138.608C321.397 138.723 321.467 138.827 321.555 138.915C321.643 139.003 321.748 139.073 321.863 139.12C321.978 139.168 322.101 139.192 322.226 139.192H341.428C341.679 139.192 341.92 139.092 342.097 138.915C342.275 138.737 342.374 138.496 342.374 138.245C342.374 137.994 342.275 137.754 342.097 137.576C341.92 137.399 341.679 137.299 341.428 137.299H322.226Z" fill="#E6E6E6"/>
<path d="M322.226 142.875C322.101 142.875 321.978 142.899 321.863 142.947C321.748 142.994 321.643 143.064 321.555 143.152C321.467 143.24 321.397 143.344 321.35 143.459C321.302 143.574 321.277 143.697 321.277 143.822C321.277 143.946 321.302 144.069 321.35 144.184C321.397 144.299 321.467 144.404 321.555 144.491C321.643 144.579 321.748 144.649 321.863 144.697C321.978 144.744 322.101 144.768 322.226 144.768H341.428C341.678 144.768 341.919 144.668 342.096 144.49C342.273 144.313 342.373 144.072 342.373 143.822C342.373 143.571 342.273 143.33 342.096 143.153C341.919 142.975 341.678 142.875 341.428 142.875H322.226Z" fill="#E6E6E6"/>
<path d="M331.826 160.563C330.647 160.563 329.495 160.214 328.515 159.559C327.535 158.904 326.772 157.974 326.321 156.885C325.87 155.796 325.752 154.598 325.982 153.442C326.212 152.287 326.779 151.225 327.612 150.392C328.446 149.558 329.507 148.991 330.663 148.761C331.819 148.531 333.017 148.649 334.106 149.1C335.194 149.551 336.125 150.315 336.78 151.295C337.434 152.274 337.784 153.426 337.784 154.605C337.782 156.185 337.154 157.699 336.037 158.816C334.92 159.933 333.405 160.561 331.826 160.563V160.563ZM331.826 149.204C330.757 149.204 329.713 149.521 328.825 150.114C327.937 150.708 327.245 151.551 326.836 152.538C326.427 153.525 326.32 154.611 326.529 155.658C326.737 156.706 327.251 157.668 328.007 158.424C328.762 159.179 329.724 159.693 330.772 159.902C331.82 160.11 332.905 160.003 333.892 159.594C334.879 159.186 335.723 158.493 336.316 157.605C336.909 156.717 337.226 155.673 337.226 154.605V154.605C337.224 153.173 336.655 151.8 335.642 150.788C334.63 149.775 333.257 149.206 331.826 149.204V149.204Z" fill="#E6E6E6"/>
<path d="M382.698 160.563C382.822 160.563 382.945 160.539 383.06 160.492C383.175 160.444 383.28 160.374 383.368 160.286C383.456 160.198 383.526 160.094 383.574 159.979C383.621 159.864 383.646 159.741 383.646 159.617C383.646 159.492 383.621 159.369 383.574 159.254C383.526 159.139 383.456 159.035 383.368 158.947C383.28 158.859 383.175 158.789 383.06 158.742C382.945 158.694 382.822 158.67 382.698 158.67H363.495C363.244 158.67 363.004 158.77 362.826 158.947C362.649 159.125 362.549 159.365 362.549 159.617C362.549 159.868 362.649 160.108 362.826 160.286C363.004 160.463 363.244 160.563 363.495 160.563H382.698Z" fill="#E6E6E6"/>
<path d="M382.698 154.985C382.822 154.985 382.945 154.961 383.06 154.913C383.175 154.866 383.28 154.796 383.368 154.708C383.456 154.62 383.526 154.516 383.574 154.401C383.621 154.286 383.646 154.163 383.646 154.038C383.646 153.914 383.621 153.791 383.574 153.676C383.526 153.561 383.456 153.456 383.368 153.368C383.28 153.281 383.175 153.211 383.06 153.163C382.945 153.116 382.822 153.092 382.698 153.092H363.495C363.244 153.092 363.004 153.192 362.826 153.369C362.649 153.547 362.549 153.787 362.549 154.038C362.549 154.289 362.649 154.53 362.826 154.708C363.004 154.885 363.244 154.985 363.495 154.985H382.698Z" fill="#E6E6E6"/>
<path d="M373.097 137.299C374.275 137.299 375.427 137.648 376.407 138.303C377.387 138.958 378.151 139.888 378.602 140.977C379.053 142.066 379.171 143.264 378.941 144.42C378.711 145.575 378.143 146.637 377.31 147.47C376.477 148.304 375.415 148.871 374.259 149.101C373.104 149.331 371.906 149.213 370.817 148.762C369.728 148.311 368.798 147.547 368.143 146.567C367.488 145.588 367.139 144.436 367.139 143.257V143.257C367.14 141.677 367.769 140.163 368.886 139.046C370.003 137.929 371.517 137.301 373.097 137.299V137.299ZM373.097 148.658C374.165 148.658 375.209 148.341 376.097 147.748C376.986 147.154 377.678 146.311 378.087 145.324C378.495 144.337 378.602 143.251 378.394 142.204C378.185 141.156 377.671 140.194 376.916 139.438C376.161 138.683 375.198 138.169 374.151 137.96C373.103 137.752 372.017 137.859 371.03 138.268C370.043 138.676 369.2 139.369 368.607 140.257C368.013 141.145 367.696 142.189 367.696 143.257V143.257C367.698 144.689 368.268 146.062 369.28 147.074C370.292 148.087 371.665 148.656 373.097 148.658V148.658Z" fill="#E6E6E6"/>
<path d="M433.815 190.071H429.506L427.457 173.453L433.816 173.453L433.815 190.071Z" fill="#FFB8B8"/>
<path d="M425.16 188.84H434.737V194.071H421.197V192.802C421.197 191.751 421.615 190.743 422.358 190C423.101 189.257 424.109 188.84 425.16 188.84V188.84Z" fill="#2F2E41"/>
<path d="M451.034 190.071H446.726L444.676 173.453L451.034 173.453L451.034 190.071Z" fill="#FFB8B8"/>
<path d="M442.378 188.84H451.956V194.071H438.416V192.802C438.416 191.751 438.833 190.743 439.577 190C440.32 189.257 441.327 188.84 442.378 188.84V188.84Z" fill="#2F2E41"/>
<path d="M426.308 142.166C426.659 141.837 426.934 141.434 427.113 140.987C427.292 140.539 427.371 140.058 427.344 139.577C427.317 139.096 427.184 138.627 426.956 138.203C426.728 137.778 426.41 137.409 426.024 137.121L427.87 129.821L423.707 127.617L421.245 137.963C420.804 138.644 420.628 139.463 420.751 140.265C420.873 141.066 421.286 141.795 421.91 142.313C422.534 142.832 423.326 143.103 424.137 143.075C424.948 143.048 425.72 142.725 426.308 142.166V142.166Z" fill="#FFB8B8"/>
<path d="M452.567 129.414L452.216 154.013L451.864 186.343L444.133 185.64L440.268 141.011L435.348 185.64H427.366L426.562 140.659L429.374 130.82L452.567 129.414Z" fill="#2F2E41"/>
<path d="M428.601 130.97L428.488 130.919L432.894 100.782L430.654 91.673C430.538 91.1991 430.599 90.6989 430.827 90.2673C431.055 89.8357 431.433 89.5026 431.89 89.3311L435.92 87.8199L437.344 83.9043L448.578 85.1148L448.854 88.175C450.071 88.5654 460.096 91.9039 459.404 95.708C458.721 99.4627 454.691 111.275 454.486 111.874L453.78 128.815L453.693 128.859C453.589 128.911 445.846 132.718 437.434 132.717C434.471 132.717 431.424 132.245 428.601 130.97Z" fill="#3F3D56"/>
<path d="M421.1 134.134L424.641 111.468C424.662 111.334 426.758 98.0649 427.453 93.8955C428.17 89.5909 431.503 89.541 431.536 89.541H433.37L435.515 99.1935L431.289 118.56L427.391 134.61L421.1 134.134Z" fill="#3F3D56"/>
<path d="M444.073 131.897C444.096 131.416 444.224 130.946 444.448 130.519C444.672 130.093 444.987 129.721 445.371 129.43C445.755 129.138 446.197 128.934 446.668 128.833C447.139 128.731 447.627 128.733 448.096 128.84L452.454 122.699L456.832 124.437L450.556 133.023C450.324 133.8 449.815 134.465 449.126 134.892C448.436 135.319 447.614 135.479 446.815 135.34C446.015 135.201 445.295 134.774 444.79 134.139C444.284 133.505 444.03 132.707 444.073 131.897V131.897Z" fill="#FFB8B8"/>
<path d="M448.854 126.616L456.601 113.585L453.445 105.168L457.744 93.7031L457.902 93.7711C458.006 93.8157 460.449 94.9057 460.811 98.8095L465.752 114.337L452.566 131.442L448.854 126.616Z" fill="#3F3D56"/>
<path d="M449.617 77.7598C451.76 73.8401 450.319 68.9256 446.4 66.783C442.48 64.6403 437.565 66.0808 435.423 70.0005C433.28 73.9201 434.72 78.8346 438.64 80.9773C442.56 83.12 447.474 81.6795 449.617 77.7598Z" fill="#FFB8B8"/>
<path d="M437.092 69.9393C437.929 70.9301 439.346 71.2097 440.653 71.3244C443.308 71.5572 447.168 71.1795 449.762 70.5806C449.947 72.3752 449.443 74.3102 450.5 75.7864C450.995 73.9992 451.283 72.1609 451.358 70.3078C451.39 69.5131 451.378 68.6909 451.055 67.9613C450.732 67.2318 450.028 66.6124 449.216 66.606C449.819 66.1488 450.525 65.8471 451.272 65.7273L448.703 64.4367L449.363 63.7596L444.713 63.475L446.06 62.6195C444.033 62.341 441.983 62.2763 439.942 62.4264C438.995 62.4962 438.004 62.6295 437.236 63.1785C436.469 63.7275 436.025 64.8186 436.502 65.6246C435.905 65.7226 435.343 65.9713 434.869 66.3471C434.396 66.723 434.026 67.2135 433.795 67.7723C433.453 68.64 433.484 69.6038 433.589 70.5283C433.765 72.0071 434.108 73.461 434.614 74.8617" fill="#2F2E41"/>
<path d="M315.534 241.911H0.496094C3.94802 228.549 10.3229 217.213 19.3095 213.85C32.4556 208.938 46.3673 222.447 59.4858 217.367C66.9381 214.484 72.8046 206.082 78.9697 199.107C102.227 172.789 134.097 165.008 161.621 178.94C176.006 186.218 189.116 198.947 203.85 204.359C222.906 211.359 242.833 205.554 262.429 204.597C281.51 203.667 308.858 215.471 315.534 241.911Z" fill="#F3F5FD"/>
<path d="M116.567 238.274C115.542 239.443 114.457 240.66 113.285 241.84C113.285 241.84 87.0366 241.651 70.2192 241.84C69.6707 241.846 44.5144 240.575 34.6229 233.882C32.5938 232.511 30.4839 230.596 30.5575 228.144C30.6126 226.299 31.98 224.685 33.6304 223.851C34.2471 223.547 34.8972 223.316 35.5675 223.163C35.5712 223.163 35.5749 223.163 35.5749 223.16C36.6099 222.938 37.6632 222.811 38.7214 222.781L39.0228 222.77C44.0593 222.586 49.0955 223.145 53.9685 224.431C54.4096 224.546 54.8766 224.509 55.2934 224.324C55.7103 224.14 56.0525 223.82 56.2643 223.416C56.4761 223.013 56.5451 222.549 56.4599 222.102C56.3748 221.654 56.1405 221.248 55.7954 220.95C55.1662 220.412 54.4839 219.939 53.759 219.539C52.6953 218.966 51.5804 218.493 50.4287 218.127C48.8923 217.624 47.3043 217.245 45.7384 216.837C39.9196 215.329 34.2309 213.358 28.7269 210.941C24.7975 209.214 20.8387 207.166 18.1517 203.818C16.9166 202.277 15.9572 200.351 16.1998 198.392C16.6042 195.172 20.0631 193.187 23.2868 192.783C28.9364 192.077 34.4501 194.599 39.4786 197.264C43.6506 199.48 48.3115 201.921 52.8658 200.664C53.6543 200.487 54.3738 200.083 54.9353 199.502C55.9645 198.311 55.7108 196.407 54.7919 195.128C53.873 193.849 52.4467 193.051 51.072 192.287C43.0845 187.85 35.1081 183.127 28.7343 176.584C22.3605 170.041 17.6738 161.395 17.6665 152.257C17.6665 149.585 18.0818 146.85 19.35 144.498C20.6181 142.145 22.8383 140.208 25.4702 139.727C29.0541 139.065 32.5828 141.127 35.2955 143.557C44.6136 151.894 48.3299 164.604 53.8325 175.83C55.3727 178.973 57.1554 182.131 59.9968 184.207C60.2624 184.41 60.5682 184.552 60.8937 184.626C62.8125 185.038 63.6505 182.682 63.7388 180.884C64.0806 173.775 62.3309 166.339 64.9187 159.708C65.9075 157.183 67.6829 154.764 70.2669 153.945C73.4244 152.945 76.9752 154.702 78.872 157.418C80.7687 160.135 81.2796 163.586 81.2649 166.898C81.2355 173.04 79.574 179.087 77.1333 184.722C75.8468 187.696 74.3029 190.78 74.6705 193.996C74.9205 196.154 76.5047 198.253 78.4198 199.013C78.884 199.211 79.3831 199.314 79.8876 199.315C80.392 199.316 80.8917 199.216 81.3568 199.021C82.3603 198.591 83.1248 197.76 83.86 196.955C84.1688 196.617 84.4775 196.275 84.79 195.937C86.0177 194.591 87.2454 193.245 88.4731 191.897C91.5938 188.471 95.4938 184.74 100.092 185.328C102.441 185.63 104.386 187.089 105.716 189.056C106.915 190.843 107.591 192.929 107.668 195.08C107.808 199.56 120.022 234.341 116.567 238.274Z" fill="#8DDBE0"/>
<path d="M197.175 29.5703H106.972C100.065 29.5703 94.4648 35.17 94.4648 42.0775V226.131C94.4648 233.039 100.065 238.639 106.972 238.639H197.175C204.083 238.639 209.683 233.039 209.683 226.131V42.0775C209.683 35.17 204.083 29.5703 197.175 29.5703Z" fill="white"/>
<path d="M197.175 241.883H106.971C102.795 241.878 98.7919 240.217 95.8392 237.264C92.8865 234.311 91.2256 230.308 91.2207 226.132V42.0789C91.2256 37.903 92.8866 33.8996 95.8394 30.9468C98.7921 27.994 102.796 26.333 106.971 26.3281L197.175 26.3281C201.351 26.3331 205.354 27.9941 208.307 30.9469C211.26 33.8997 212.921 37.9031 212.926 42.0789V226.132C212.921 230.308 211.26 234.312 208.307 237.264C205.354 240.217 201.351 241.878 197.175 241.883ZM106.971 32.8148C104.516 32.8178 102.161 33.7947 100.425 35.5312C98.6884 37.2677 97.7115 39.622 97.7085 42.0778V226.132C97.7115 228.588 98.6884 230.942 100.425 232.679C102.161 234.415 104.516 235.392 106.971 235.395H197.175C199.631 235.392 201.985 234.415 203.722 232.679C205.458 230.942 206.435 228.588 206.438 226.132V42.0789C206.435 39.6231 205.458 37.2688 203.722 35.5323C201.985 33.7958 199.631 32.8189 197.175 32.8159L106.971 32.8148Z" fill="#DEE8F5"/>
<path d="M132.324 29.5703H171.825V37.2347C171.824 38.7556 171.22 40.2143 170.145 41.2899C169.07 42.3656 167.611 42.9702 166.09 42.9707H138.062C136.541 42.9707 135.082 42.3663 134.006 41.2905C132.93 40.2146 132.326 38.7554 132.326 37.234V29.5703H132.324Z" fill="#DEE8F5"/>
<path d="M191.503 145.586H111.791V162.975H191.503V145.586Z" fill="#C1D8ED"/>
<path d="M215.957 75.5694C215.901 70.1039 218.061 66.717 220.989 64.8575C223.879 63.0229 232.941 61.4257 236.377 68.0863C238.62 72.4329 237.734 73.9866 238.369 80.9482C239.004 87.9098 241.444 88.6405 243.92 97.0786C245.861 103.698 234.989 107.211 225.574 106.908C216.158 106.604 210.19 104.518 209.644 98.5317C208.859 89.9381 216.068 86.2796 215.957 75.5694Z" fill="#0F1011"/>
<path d="M221.934 90.6809C221.934 90.6809 224.764 89.147 224.056 81.4139L229.919 80.2715C229.919 80.2715 229.323 87.2187 232.314 89.3926L221.934 90.6809Z" fill="#E98862"/>
<g opacity="0.15">
<path d="M231.098 87.954L226.186 84.2669L230.017 84.1934C230.14 85.5033 230.507 86.7788 231.098 87.954V87.954Z" fill="black"/>
</g>
<path d="M220.698 78.4444C221.126 80.7888 222.428 83.0006 224.506 83.7401C226.772 84.6153 229.218 84.923 231.63 84.6363C238.054 84.05 236.648 69.4446 233.57 66.6334C230.492 63.8222 221.55 65.7023 220.505 70.461C219.964 72.9223 220.291 76.2129 220.698 78.4444Z" fill="#E98862"/>
<path d="M229.871 76.5516C230.165 76.5516 230.403 76.3131 230.403 76.019C230.403 75.7248 230.165 75.4863 229.871 75.4863C229.576 75.4863 229.338 75.7248 229.338 76.019C229.338 76.3131 229.576 76.5516 229.871 76.5516Z" fill="#0F1011"/>
<path d="M234.07 76.1688C234.364 76.1688 234.602 75.9303 234.602 75.6361C234.602 75.342 234.364 75.1035 234.07 75.1035C233.776 75.1035 233.537 75.342 233.537 75.6361C233.537 75.9303 233.776 76.1688 234.07 76.1688Z" fill="#0F1011"/>
<path d="M234.98 74.4921L233.569 74.4873C233.504 74.4849 233.443 74.4574 233.398 74.4107C233.353 74.364 233.328 74.3017 233.328 74.2368C233.328 74.172 233.353 74.1097 233.398 74.063C233.443 74.0163 233.504 73.9888 233.569 73.9863L234.98 73.9911C235.045 73.9936 235.106 74.0211 235.151 74.0678C235.196 74.1145 235.221 74.1768 235.221 74.2416C235.221 74.3064 235.196 74.3687 235.151 74.4154C235.106 74.4622 235.045 74.4896 234.98 74.4921V74.4921Z" fill="#0F1011"/>
<path d="M228.71 75.0631C228.649 75.0628 228.59 75.0403 228.545 74.9998C228.499 74.9593 228.47 74.9036 228.463 74.8432C228.455 74.7828 228.47 74.7217 228.505 74.6715C228.539 74.6212 228.591 74.5852 228.65 74.5702L230.038 74.2229C230.101 74.2086 230.168 74.2198 230.224 74.2541C230.279 74.2884 230.319 74.3431 230.335 74.4065C230.351 74.4698 230.341 74.5369 230.308 74.5933C230.276 74.6497 230.222 74.691 230.159 74.7084L228.771 75.0558C228.751 75.0608 228.73 75.0633 228.71 75.0631V75.0631Z" fill="#0F1011"/>
<path d="M230.158 80.2113C230.158 80.2113 232.126 80.4006 233.499 79.9062C233.499 79.9062 233.499 81.2009 231.946 81.3431C230.393 81.4854 230.158 80.2113 230.158 80.2113Z" fill="white"/>
<path d="M224.967 72.3201C225.409 77.8199 224.858 83.3543 223.343 88.6596C223.343 88.6596 218.785 80.9773 218.026 74.5494C217.721 72.3117 218.229 70.0389 219.459 68.1442C220.688 66.2496 222.556 64.8588 224.723 64.2249C234.979 61.672 236.902 69.8753 236.902 69.8753C236.167 72.709 223.734 74.4667 223.734 74.4667" fill="#0F1011"/>
<path d="M227.203 78.3377C227.258 78.934 227.073 79.5276 226.69 79.9878C226.307 80.448 225.757 80.7371 225.16 80.7916C224.564 80.8461 223.97 80.6615 223.51 80.2784C223.05 79.8952 222.761 79.345 222.706 78.7486C222.675 78.4587 222.701 78.1654 222.783 77.8855C222.865 77.6056 223.001 77.3446 223.183 77.1173C223.366 76.8901 223.592 76.701 223.848 76.561C224.104 76.421 224.384 76.3327 224.674 76.3013C224.699 76.2987 224.725 76.2965 224.748 76.2947C226.358 76.2274 227.09 77.0964 227.203 78.3377Z" fill="#E98862"/>
<g opacity="0.15">
<path d="M232.262 78.952C232.218 78.9521 232.176 78.9364 232.142 78.9078C232.109 78.8793 232.087 78.8397 232.08 78.7962C232.074 78.7528 232.083 78.7084 232.106 78.6711C232.129 78.6338 232.165 78.606 232.207 78.5928L233.287 78.2503L232.515 76.5701C232.504 76.548 232.498 76.524 232.496 76.4995C232.495 76.475 232.498 76.4504 232.507 76.4272C232.515 76.4041 232.528 76.3828 232.544 76.3646C232.561 76.3465 232.581 76.3318 232.603 76.3215C232.625 76.3113 232.65 76.3056 232.674 76.3048C232.699 76.304 232.723 76.3082 232.746 76.317C232.769 76.3259 232.79 76.3392 232.808 76.3563C232.825 76.3734 232.839 76.3938 232.849 76.4164L233.709 78.2859C233.72 78.3096 233.726 78.3354 233.726 78.3614C233.726 78.3875 233.72 78.4133 233.709 78.437C233.699 78.4608 233.683 78.4821 233.664 78.4994C233.644 78.5168 233.621 78.5298 233.597 78.5377L232.319 78.942C232.3 78.9482 232.281 78.9516 232.262 78.952V78.952Z" fill="black"/>
</g>
<path d="M249.336 103.254C249.336 103.254 253.317 99.959 253.579 98.8012C253.841 97.6433 250.95 95.429 250.95 95.429C250.95 95.429 251.75 94.5898 252.53 93.6371C253.431 92.5369 254.305 91.2846 253.895 90.9971C253.499 90.7192 252.456 91.6433 251.407 92.7714C250.061 94.2197 248.706 96.0035 248.706 96.0035C248.706 96.0035 249.288 93.9929 248.511 93.8775C248.192 93.83 247.946 94.1476 247.477 95.5713C246.943 97.1938 245.857 99.64 245.857 99.64L249.336 103.254Z" fill="#E98862"/>
<path d="M215.33 195.641L213.439 188.157C216.272 187.441 219.666 186.558 220.209 186.379C220.175 186.391 220.146 186.402 220.125 186.41L222.886 193.618C222.67 193.701 222.012 193.953 215.33 195.641Z" fill="#E98862"/>
<path d="M215.632 205.724C215.696 205.912 215.796 206.085 215.927 206.234C216.058 206.383 216.217 206.505 216.395 206.592C216.572 206.68 216.766 206.731 216.964 206.744C217.162 206.757 217.36 206.73 217.548 206.666C217.583 206.655 217.617 206.641 217.651 206.627C217.916 206.514 218.144 206.329 218.306 206.091C218.469 205.854 218.561 205.575 218.57 205.288L218.565 195.813C218.564 195.629 218.524 195.448 218.447 195.282C218.369 195.116 218.257 194.968 218.118 194.849C216.912 193.951 216.027 192.69 215.591 191.251C215.298 190.114 215.33 188.919 215.683 187.8C215.721 187.699 215.73 187.589 215.708 187.484C215.687 187.378 215.635 187.281 215.561 187.203C215.486 187.126 215.39 187.071 215.286 187.045C215.181 187.02 215.071 187.025 214.969 187.059L210.804 188.456C210.556 188.539 210.352 188.717 210.236 188.951C210.12 189.185 210.101 189.456 210.184 189.703V189.706L215.632 205.724Z" fill="#C1D8ED"/>
<path d="M233.621 238.808L225.902 238.782C225.902 238.782 225.928 230.812 225.928 230.107H233.647C233.647 230.812 233.621 238.808 233.621 238.808Z" fill="#E98862"/>
<path d="M241.853 129.729C243.6 133.227 245.26 136.656 246.925 140.104L261.727 171.091L261.854 171.356C262.635 172.98 262.739 174.848 262.142 176.548C261.546 178.248 260.299 179.642 258.675 180.423C258.624 180.448 258.544 180.484 258.491 180.507L221.873 196.799L216.344 184.373L252.963 168.081L249.728 177.498C249.728 177.498 228.126 141.682 226.158 138.539L241.853 129.729Z" fill="#262626"/>
<path d="M233.24 188.547C232.112 174.42 230.801 146.179 230.801 146.179L241.36 129.847L213.396 128.119C213.396 128.119 212.114 139.416 212.349 146.388C213.363 176.405 219.755 205.97 223.941 235.685L237.436 234.001C235.954 218.874 234.537 203.694 233.24 188.547Z" fill="#262626"/>
<path d="M251.523 104.463L252.555 100.682L245.503 97.9852L244.006 101.674L243.033 96.8145C242.761 92.2598 240.963 88.8994 235.08 88.6458C234.849 88.6348 234.478 88.6274 234 88.6201C233.905 90.6417 221.385 90.6344 221.12 88.5723C217.584 88.5756 214.684 89.6603 213.004 91.3401C207.214 97.1295 214.32 106.995 214.32 114.714C214.32 122.434 210.828 125.896 211.085 129.859C211.489 136.085 241.752 134.615 243.292 131.075C244.551 128.184 242.786 126.166 242.072 119.508C242.154 119.521 242.236 119.533 242.319 119.541C242.446 119.553 242.572 119.559 242.697 119.559C243.495 119.559 244.274 119.321 244.935 118.876C245.596 118.43 246.11 117.798 246.41 117.06L249.624 109.144L252.944 107.68L251.523 104.463Z" fill="#367CFF"/>
<path d="M233.999 88.622C233.904 90.6437 232.804 93.6174 229.412 93.8416C224.89 94.1394 221.384 90.6363 221.119 88.5742H221.131C225.582 88.5746 231.404 88.5816 233.999 88.622Z" fill="#E98862"/>
<path d="M242.996 241.95C243.194 241.949 243.39 241.909 243.573 241.833C243.756 241.756 243.922 241.644 244.061 241.503C244.201 241.362 244.311 241.195 244.386 241.012C244.461 240.828 244.499 240.631 244.498 240.433C244.498 240.396 244.497 240.36 244.494 240.323C244.472 240.036 244.368 239.761 244.195 239.532C244.021 239.302 243.786 239.126 243.517 239.026L234.532 236.016C234.358 235.958 234.174 235.939 233.991 235.959C233.809 235.979 233.633 236.038 233.476 236.133C232.241 236.99 230.764 237.428 229.261 237.383C228.091 237.299 226.967 236.889 226.019 236.198C225.935 236.13 225.834 236.086 225.727 236.073C225.62 236.06 225.512 236.077 225.414 236.124C225.317 236.17 225.234 236.243 225.177 236.334C225.12 236.426 225.089 236.531 225.09 236.639V241.033C225.09 241.294 225.193 241.544 225.378 241.728C225.562 241.913 225.813 242.017 226.073 242.017H226.078L242.996 241.95Z" fill="#C1D8ED"/>
<path d="M194.049 62.3047H109.247C106.052 62.3047 103.463 64.8942 103.463 68.0885V117.28C103.463 120.474 106.052 123.064 109.247 123.064H194.049C197.243 123.064 199.832 120.474 199.832 117.28V68.0885C199.832 64.8942 197.243 62.3047 194.049 62.3047Z" fill="#0CBC8B"/>
<path d="M128.598 71.3105H116.394C114.178 71.3105 112.381 73.1075 112.381 75.3241V81.7825C112.381 83.9991 114.178 85.7961 116.394 85.7961H128.598C130.815 85.7961 132.612 83.9991 132.612 81.7825V75.3241C132.612 73.1075 130.815 71.3105 128.598 71.3105Z" fill="white"/>
<path d="M192.641 97.834H112.381V100.695H192.641V97.834Z" fill="white"/>
<path d="M290.158 211.093C288.32 210.491 286.434 211.166 284.63 212.539C287.007 206.537 287.988 201.115 283.924 200.87C281.08 200.7 278.902 202.881 277.247 205.983C276.665 200.53 275.164 196.462 271.8 197.811C268.107 199.291 267.546 204.365 268.106 209.673C266.479 206.962 264.727 205.45 263.137 207.04C258.39 211.787 270.041 225.162 270.041 225.162H272.934L274.586 226.954C274.251 227.661 274.068 228.082 274.068 228.082L276.166 232.351C276.166 232.351 297.786 213.59 290.158 211.093Z" fill="#8DDBE0"/>
<path d="M284.971 241.91H268.595L265.854 222.793H287.712L284.971 241.91Z" fill="#C1D8ED"/>
<path d="M259.949 94.0728C259.941 94.1169 259.93 94.1647 259.919 94.2088L257.115 104.269C257.033 104.568 256.843 104.826 256.583 104.994C256.322 105.161 256.009 105.227 255.703 105.177L251.513 104.508L250.439 102.141L253.038 92.823C253.121 92.5247 253.31 92.2674 253.571 92.1005C253.831 91.9335 254.144 91.8688 254.45 91.9188L258.905 92.6282C259.068 92.6545 259.225 92.7127 259.366 92.7995C259.507 92.8864 259.629 93.0001 259.726 93.1343C259.823 93.2684 259.893 93.4203 259.931 93.5814C259.969 93.7424 259.975 93.9094 259.949 94.0728V94.0728Z" fill="#C1D8ED"/>
<path d="M258.882 99.2479C258.371 103.438 254.07 105.239 252.115 105.846L249.928 101.005C250.836 100.013 251.88 99.0164 252.391 99.3178C252.707 99.5016 252.218 100.52 251.813 101.24C253.578 100.829 256.092 97.7262 258.114 97.1233C258.893 96.8881 258.959 98.6231 258.882 99.2479Z" fill="#E98862"/>
</svg>
