<svg width="824" height="824" viewBox="0 0 824 824" fill="none" xmlns="http://www.w3.org/2000/svg">
<path d="M470.165 352.555C470.394 352.779 470.618 353.008 470.842 353.237C497.669 380.423 534.036 396.069 572.224 396.069H823.342C819.423 179.08 644.292 3.91421 427.34 0V251.155C427.34 289.355 442.978 325.728 470.165 352.555Z" fill="#142357"/>
<path d="M352.495 353.237C352.724 353.008 352.948 352.779 353.177 352.56C380.358 325.728 396.002 289.355 396.002 251.16V0C179.05 3.91421 3.91355 179.08 0 396.069H251.117C289.306 396.069 325.673 380.423 352.495 353.237Z" fill="#E75825"/>
<path d="M470.842 470.245C470.618 470.474 470.394 470.697 470.165 470.926C442.978 497.753 427.34 534.126 427.34 572.321V823.481C644.292 819.567 819.423 644.401 823.342 427.412H572.224C534.036 427.412 497.669 443.059 470.842 470.245Z" fill="#147F00"/>
<path d="M353.177 470.926C352.948 470.697 352.724 470.474 352.495 470.245C325.673 443.059 289.306 427.412 251.117 427.412H0C3.91355 644.401 179.05 819.567 396.002 823.481V572.321C396.002 534.126 380.358 497.753 353.177 470.926Z" fill="#AA0021"/>
<path d="M353.172 470.928C379.828 497.031 395.19 532.545 395.971 569.845C359.604 566.014 325.663 549.764 299.876 523.827C274.094 497.89 258.034 463.849 254.412 427.455C291.424 428.449 326.594 443.794 352.495 470.251L353.172 470.928Z" fill="black" fill-opacity="0.102"/>
<path d="M395.971 253.641C395.185 290.94 379.823 326.449 353.172 352.558C352.948 352.782 352.719 353 352.495 353.234C326.594 379.687 291.419 395.031 254.412 396.02C258.039 359.626 274.094 325.595 299.881 299.659C325.668 273.722 359.604 257.466 395.971 253.641Z" fill="black" fill-opacity="0.102"/>
<path d="M470.845 470.252C497.324 443.41 533.108 427.821 570.755 427.42C567.107 464.142 550.807 498.448 524.646 524.463C498.484 550.483 464.09 566.588 427.354 570.028C428.098 532.661 443.471 497.079 470.174 470.929L470.845 470.252Z" fill="black" fill-opacity="0.102"/>
<path d="M470.174 352.558C443.528 326.257 427.973 290.811 427.354 253.459C464.085 256.894 498.479 273.004 524.641 299.019C550.802 325.034 567.107 359.34 570.755 396.057C533.103 395.536 497.188 380.14 470.845 353.235C470.626 353.001 470.392 352.782 470.174 352.558Z" fill="black" fill-opacity="0.102"/>
<path d="M320.158 339.401C329.24 339.401 331.228 330.458 331.228 325.045C331.228 320.787 330 310.689 320.158 310.689C310.349 310.689 309.068 320.751 309.068 325.045C309.068 330.422 311.072 339.401 320.158 339.401ZM320.158 333.404C315.527 333.404 315.719 328.168 315.719 325.009C315.719 322.276 315.615 316.691 320.158 316.691C324.837 316.691 324.572 322.312 324.572 325.154C324.572 328.095 324.572 333.404 320.158 333.404Z" fill="white"/>
<path d="M345.987 338.672C346.45 338.672 346.7 338.422 346.7 337.943V312.147C346.7 311.668 346.45 311.418 345.987 311.418H335.626C335.147 311.418 334.902 311.668 334.902 312.147V316.795C334.902 317.274 335.147 317.524 335.626 317.524H340.169V337.943C340.169 338.422 340.419 338.672 340.898 338.672H345.987Z" fill="white"/>
<path d="M480.864 339.401C489.945 339.401 491.933 330.458 491.933 325.045C491.933 320.787 490.705 310.689 480.864 310.689C471.054 310.689 469.773 320.751 469.773 325.045C469.773 330.422 471.777 339.401 480.864 339.401ZM480.864 333.404C476.232 333.404 476.424 328.168 476.424 325.009C476.424 322.276 476.32 316.691 480.864 316.691C485.542 316.691 485.277 322.312 485.277 325.154C485.277 328.095 485.277 333.404 480.864 333.404Z" fill="white"/>
<path d="M515.572 338.672C516.051 338.672 516.301 338.422 516.301 337.943V333.404C516.301 332.926 516.051 332.676 515.572 332.676H508.775L511.138 329.553C513.178 326.856 515.838 324.035 515.838 319.741C515.838 314.791 511.986 310.689 506.064 310.689C500.105 310.689 496.785 314.224 495.879 318.799C495.812 319.226 496.025 319.528 496.468 319.632L501.521 320.683C501.984 320.787 502.249 320.537 502.322 320.059C502.676 317.768 503.915 316.691 506.132 316.691C507.693 316.691 509.254 317.966 509.254 319.741C509.254 321.709 507.516 323.624 506.595 324.795L496.431 337.803C496.056 338.266 496.254 338.672 496.873 338.672H515.572Z" fill="white"/>
<path d="M480.754 508.047C489.835 508.047 491.823 499.105 491.823 493.692C491.823 489.434 490.595 479.336 480.754 479.336C470.944 479.336 469.664 489.397 469.664 493.692C469.664 499.068 471.668 508.047 480.754 508.047ZM480.754 502.051C476.122 502.051 476.315 496.815 476.315 493.655C476.315 490.922 476.211 485.337 480.754 485.337C485.433 485.337 485.167 490.959 485.167 493.801C485.167 496.742 485.167 502.051 480.754 502.051Z" fill="white"/>
<path d="M506.576 508.047C512.201 508.047 516.37 505.028 516.334 499.318C516.334 496.086 515.111 494.009 511.879 492.718C514.117 491.849 515.766 489.699 515.766 487.076C515.766 481.376 511.259 479.336 506.451 479.336C501.663 479.336 498.291 481.147 496.766 484.432C496.537 484.859 496.766 485.228 497.193 485.369L501.913 486.93C502.319 487.076 502.532 486.899 502.834 486.576C503.63 485.546 504.645 484.963 506.097 484.963C508.173 484.963 509.183 485.92 509.183 487.586C509.183 489.507 507.799 490.392 505.191 490.392H503.261C502.797 490.392 502.532 490.641 502.532 491.12V494.936C502.532 495.394 502.797 495.659 503.261 495.659H505.545C508.564 495.659 509.771 496.461 509.807 498.589C509.807 500.895 508.387 502.295 506.274 502.295C504.572 502.295 502.907 501.66 501.913 499.651C501.663 499.209 501.345 499.105 500.934 499.282L496.214 501.536C495.808 501.728 495.668 502.082 495.845 502.53C497.958 506.964 502.178 508.047 506.576 508.047Z" fill="white"/>
<path d="M316.035 508.047C325.117 508.047 327.105 499.105 327.105 493.692C327.105 489.434 325.877 479.336 316.035 479.336C306.226 479.336 304.945 489.397 304.945 493.692C304.945 499.068 306.949 508.047 316.035 508.047ZM316.035 502.051C311.404 502.051 311.596 496.815 311.596 493.655C311.596 490.922 311.492 485.337 316.035 485.337C320.714 485.337 320.449 490.959 320.449 493.801C320.449 496.742 320.449 502.051 316.035 502.051Z" fill="white"/>
<path d="M348.941 497.911V480.791C348.941 480.312 348.696 480.062 348.217 480.062H343.742C343.388 480.062 343.086 480.203 342.873 480.541L331.398 497.505C331.205 497.791 331.096 498.088 331.096 498.41V502.986C331.096 503.464 331.361 503.714 331.824 503.714H342.394V506.588C342.394 507.066 342.665 507.316 343.123 507.316H348.217C348.696 507.316 348.941 507.066 348.941 506.588V503.714H350.856C351.335 503.714 351.585 503.464 351.585 502.986V498.639C351.585 498.161 351.335 497.911 350.856 497.911H348.941ZM342.394 490.16V497.911H337.554L342.394 490.16Z" fill="white"/>
</svg>
