<svg xmlns="http://www.w3.org/2000/svg" width="823.342" height="823.481" viewBox="0 0 823.342 823.481">
  <g id="Mobile_app" data-name="Mobile app" transform="translate(-513.658 -1290)">
    <g id="mobile_app_service_1_" data-name="mobile_app_service (1)" transform="translate(513.658 1290)">
      <path id="Path_11" data-name="Path 11" d="M470.165,352.555c.229.224.453.453.677.682a142.56,142.56,0,0,0,101.382,42.832H823.342C819.423,179.08,644.292,3.914,427.34,0V251.155A142.569,142.569,0,0,0,470.165,352.555Z" fill="#142357"/>
      <path id="Path_12" data-name="Path 12" d="M352.495,353.237c.229-.229.453-.458.682-.677A142.611,142.611,0,0,0,396,251.16V0C179.05,3.914,3.914,179.08,0,396.069H251.117A142.54,142.54,0,0,0,352.495,353.237Z" fill="#e75825"/>
      <path id="Path_13" data-name="Path 13" d="M470.842,470.245c-.224.229-.448.452-.677.681A142.566,142.566,0,0,0,427.34,572.321v251.16c216.952-3.914,392.083-179.08,396-396.069H572.224A142.561,142.561,0,0,0,470.842,470.245Z" fill="#147f00"/>
      <path id="Path_14" data-name="Path 14" d="M353.177,470.926l-.682-.681a142.541,142.541,0,0,0-101.378-42.833H0C3.914,644.4,179.05,819.567,396,823.481V572.321A142.591,142.591,0,0,0,353.177,470.926Z" fill="#aa0021"/>
      <path id="Path_15" data-name="Path 15" d="M353.172,470.928a142.625,142.625,0,0,1,42.8,98.917,158.992,158.992,0,0,1-141.559-142.39,142.611,142.611,0,0,1,98.083,42.8Z" fill="rgba(0,0,0,0.1)"/>
      <path id="Path_16" data-name="Path 16" d="M395.971,253.641a142.682,142.682,0,0,1-42.8,98.917c-.224.224-.453.442-.677.676a142.606,142.606,0,0,1-98.083,42.786A159.007,159.007,0,0,1,395.971,253.641Z" fill="rgba(0,0,0,0.1)"/>
      <path id="Path_17" data-name="Path 17" d="M470.845,470.252a142.613,142.613,0,0,1,99.91-42.832,159.006,159.006,0,0,1-143.4,142.608,142.675,142.675,0,0,1,42.82-99.1Z" fill="rgba(0,0,0,0.1)"/>
      <path id="Path_18" data-name="Path 18" d="M470.174,352.558a142.69,142.69,0,0,1-42.82-99.1,159.008,159.008,0,0,1,143.4,142.6,142.588,142.588,0,0,1-99.91-42.822C470.626,353,470.392,352.782,470.174,352.558Z" fill="rgba(0,0,0,0.1)"/>
      <path id="Path_19" data-name="Path 19" d="M320.158,339.4c9.082,0,11.07-8.943,11.07-14.356,0-4.258-1.228-14.356-11.07-14.356-9.809,0-11.09,10.062-11.09,14.356C309.068,330.422,311.072,339.4,320.158,339.4Zm0-6c-4.631,0-4.439-5.236-4.439-8.395,0-2.733-.1-8.318,4.439-8.318,4.679,0,4.414,5.621,4.414,8.463C324.572,328.1,324.572,333.4,320.158,333.4Z" fill="#fff"/>
      <path id="Path_20" data-name="Path 20" d="M345.987,338.672a.645.645,0,0,0,.713-.729v-25.8a.645.645,0,0,0-.713-.729H335.626a.646.646,0,0,0-.724.729V316.8a.646.646,0,0,0,.724.729h4.543v20.419a.65.65,0,0,0,.729.729Z" fill="#fff"/>
      <path id="Path_21" data-name="Path 21" d="M480.864,339.4c9.081,0,11.069-8.943,11.069-14.356,0-4.258-1.228-14.356-11.069-14.356-9.81,0-11.091,10.062-11.091,14.356C469.773,330.422,471.777,339.4,480.864,339.4Zm0-6c-4.632,0-4.44-5.236-4.44-8.395,0-2.733-.1-8.318,4.44-8.318,4.678,0,4.413,5.621,4.413,8.463C485.277,328.1,485.277,333.4,480.864,333.4Z" fill="#fff"/>
      <path id="Path_22" data-name="Path 22" d="M515.572,338.672a.65.65,0,0,0,.729-.729V333.4a.65.65,0,0,0-.729-.728h-6.8l2.363-3.123c2.04-2.7,4.7-5.518,4.7-9.812,0-4.95-3.852-9.052-9.774-9.052-5.959,0-9.279,3.535-10.185,8.11a.688.688,0,0,0,.589.833l5.053,1.051c.463.1.728-.146.8-.624.354-2.291,1.593-3.368,3.81-3.368a3.132,3.132,0,0,1,3.122,3.05c0,1.968-1.738,3.883-2.659,5.054L496.431,337.8c-.375.463-.177.869.442.869Z" fill="#fff"/>
      <path id="Path_23" data-name="Path 23" d="M480.754,508.047c9.081,0,11.069-8.942,11.069-14.355,0-4.258-1.228-14.356-11.069-14.356-9.81,0-11.09,10.061-11.09,14.356C469.664,499.068,471.668,508.047,480.754,508.047Zm0-6c-4.632,0-4.439-5.236-4.439-8.4,0-2.733-.1-8.318,4.439-8.318,4.679,0,4.413,5.622,4.413,8.464C485.167,496.742,485.167,502.051,480.754,502.051Z" fill="#fff"/>
      <path id="Path_24" data-name="Path 24" d="M506.576,508.047c5.625,0,9.794-3.019,9.758-8.729,0-3.232-1.223-5.309-4.455-6.6a6.044,6.044,0,0,0,3.887-5.642c0-5.7-4.507-7.74-9.315-7.74-4.788,0-8.16,1.811-9.685,5.1a.628.628,0,0,0,.427.937l4.72,1.561c.406.146.619-.031.921-.354a3.863,3.863,0,0,1,3.263-1.613c2.076,0,3.086.957,3.086,2.623,0,1.921-1.384,2.806-3.992,2.806h-1.93a.656.656,0,0,0-.729.728v3.816a.661.661,0,0,0,.729.723h2.284c3.019,0,4.226.8,4.262,2.93a3.384,3.384,0,0,1-3.533,3.706,4.535,4.535,0,0,1-4.361-2.644.692.692,0,0,0-.979-.369l-4.72,2.254a.708.708,0,0,0-.369.994C497.958,506.964,502.178,508.047,506.576,508.047Z" fill="#fff"/>
      <path id="Path_25" data-name="Path 25" d="M316.035,508.047c9.082,0,11.07-8.942,11.07-14.355,0-4.258-1.228-14.356-11.07-14.356-9.809,0-11.09,10.061-11.09,14.356C304.945,499.068,306.949,508.047,316.035,508.047Zm0-6c-4.631,0-4.439-5.236-4.439-8.4,0-2.733-.1-8.318,4.439-8.318,4.679,0,4.414,5.622,4.414,8.464C320.449,496.742,320.449,502.051,316.035,502.051Z" fill="#fff"/>
      <path id="Path_26" data-name="Path 26" d="M348.941,497.911v-17.12a.646.646,0,0,0-.724-.729h-4.475a.969.969,0,0,0-.869.479L331.4,497.505a1.6,1.6,0,0,0-.3.9v4.576a.656.656,0,0,0,.728.728h10.57v2.874a.659.659,0,0,0,.729.728h5.094a.646.646,0,0,0,.724-.728v-2.874h1.915a.65.65,0,0,0,.729-.728v-4.347a.65.65,0,0,0-.729-.728Zm-6.547-7.751v7.751h-4.84Z" fill="#fff"/>
    </g>
    <path id="Path_49" data-name="Path 49" d="M12.54.24a12.005,12.005,0,0,1-4.425-.8,10.365,10.365,0,0,1-3.51-2.25A10.572,10.572,0,0,1,2.28-6.21a10.731,10.731,0,0,1-.84-4.29,10.731,10.731,0,0,1,.84-4.29A10.457,10.457,0,0,1,4.62-18.2a10.528,10.528,0,0,1,3.525-2.25,12.005,12.005,0,0,1,4.425-.8,11.929,11.929,0,0,1,4.485.825,9.186,9.186,0,0,1,3.5,2.445L18.6-16.08a7.793,7.793,0,0,0-2.7-1.875,8.379,8.379,0,0,0-3.21-.615,8.842,8.842,0,0,0-3.285.6A7.877,7.877,0,0,0,6.78-16.29a7.582,7.582,0,0,0-1.725,2.565A8.346,8.346,0,0,0,4.44-10.5a8.346,8.346,0,0,0,.615,3.225A7.582,7.582,0,0,0,6.78-4.71,7.877,7.877,0,0,0,9.405-3.03a8.842,8.842,0,0,0,3.285.6,8.379,8.379,0,0,0,3.21-.615A7.623,7.623,0,0,0,18.6-4.95l1.95,1.89a9.332,9.332,0,0,1-3.5,2.46A11.823,11.823,0,0,1,12.54.24ZM30.57.18A8.847,8.847,0,0,1,26.31-.885,7.6,7.6,0,0,1,23.385-3.75a8.2,8.2,0,0,1-1.065-4.2,7.745,7.745,0,0,1,1.065-4.185A8,8,0,0,1,26.325-15a8.37,8.37,0,0,1,4.215-1.05A8.6,8.6,0,0,1,34.815-15a7.708,7.708,0,0,1,2.94,2.865A8.115,8.115,0,0,1,38.82-7.95a8.2,8.2,0,0,1-1.065,4.2A7.54,7.54,0,0,1,34.8-.885,8.9,8.9,0,0,1,30.57.18Zm0-2.52a5.46,5.46,0,0,0,2.745-.69A4.874,4.874,0,0,0,35.22-4.995a6.358,6.358,0,0,0,.72-2.955,6.236,6.236,0,0,0-.72-2.955,4.924,4.924,0,0,0-1.905-1.935,5.692,5.692,0,0,0-2.745-.72,5.6,5.6,0,0,0-2.73.72,5.169,5.169,0,0,0-1.92,1.935A5.8,5.8,0,0,0,25.2-7.95a5.907,5.907,0,0,0,.72,2.955A5.145,5.145,0,0,0,27.825-3.03,5.355,5.355,0,0,0,30.57-2.34ZM51.3-16.05a7.521,7.521,0,0,1,3.435.75,5.382,5.382,0,0,1,2.325,2.28,7.977,7.977,0,0,1,.84,3.87V0H55.02V-8.82a4.839,4.839,0,0,0-1.125-3.48,4.185,4.185,0,0,0-3.165-1.17,5.654,5.654,0,0,0-2.67.6,4.109,4.109,0,0,0-1.755,1.77,6.206,6.206,0,0,0-.615,2.91V0H42.81V-15.9h2.76v4.29l-.45-1.14a5.522,5.522,0,0,1,2.4-2.43A7.871,7.871,0,0,1,51.3-16.05ZM67.8.18a12.933,12.933,0,0,1-3.765-.54,8.84,8.84,0,0,1-2.8-1.32l1.2-2.28a9.842,9.842,0,0,0,2.52,1.17,9.982,9.982,0,0,0,3.06.48,5.549,5.549,0,0,0,2.9-.57,1.793,1.793,0,0,0,.885-1.59,1.4,1.4,0,0,0-.54-1.17,3.683,3.683,0,0,0-1.425-.63q-.885-.21-1.965-.375t-2.16-.42a8.6,8.6,0,0,1-1.98-.72,3.74,3.74,0,0,1-1.44-1.29,3.976,3.976,0,0,1-.54-2.2,4.084,4.084,0,0,1,.81-2.52,5.133,5.133,0,0,1,2.3-1.665,9.6,9.6,0,0,1,3.525-.585,13.879,13.879,0,0,1,3.165.375A7.86,7.86,0,0,1,74.16-14.61l-1.23,2.28a6.8,6.8,0,0,0-2.25-.99,10.376,10.376,0,0,0-2.34-.27,5.175,5.175,0,0,0-2.82.615,1.832,1.832,0,0,0-.93,1.575,1.489,1.489,0,0,0,.555,1.245,4.016,4.016,0,0,0,1.44.675,17.82,17.82,0,0,0,1.965.4q1.08.165,2.16.42a8.762,8.762,0,0,1,1.965.705,3.81,3.81,0,0,1,1.44,1.26,3.759,3.759,0,0,1,.555,2.16,3.864,3.864,0,0,1-.84,2.49A5.434,5.434,0,0,1,71.46-.405,10.254,10.254,0,0,1,67.8.18Zm17.16,0a8.117,8.117,0,0,1-3.585-.75,5.375,5.375,0,0,1-2.4-2.3A7.949,7.949,0,0,1,78.12-6.75V-15.9H81v8.82a4.886,4.886,0,0,0,1.125,3.51A4.185,4.185,0,0,0,85.29-2.4a5.3,5.3,0,0,0,2.61-.615,4.138,4.138,0,0,0,1.71-1.8,6.283,6.283,0,0,0,.6-2.865V-15.9h2.88V0H90.36V-4.29l.45,1.14A5.563,5.563,0,0,1,88.47-.69,7.082,7.082,0,0,1,84.96.18ZM98.58,0V-22.26h2.88V0ZM112.8.18a5.1,5.1,0,0,1-3.72-1.29,4.926,4.926,0,0,1-1.32-3.69V-19.38h2.88V-4.92a2.793,2.793,0,0,0,.645,1.98,2.4,2.4,0,0,0,1.845.69A3.4,3.4,0,0,0,115.38-3l.9,2.07a4.187,4.187,0,0,1-1.575.84A6.7,6.7,0,0,1,112.8.18Zm-7.74-13.71V-15.9H115.2v2.37ZM119.79,0l-.03-15.9,2.88.03V0Zm1.41-18.96a1.92,1.92,0,0,1-1.395-.54,1.771,1.771,0,0,1-.555-1.32,1.806,1.806,0,0,1,.555-1.35,1.92,1.92,0,0,1,1.395-.54,1.95,1.95,0,0,1,1.4.525,1.723,1.723,0,0,1,.555,1.305,1.882,1.882,0,0,1-.54,1.365A1.879,1.879,0,0,1,121.2-18.96Zm15.42,2.91a7.521,7.521,0,0,1,3.435.75,5.382,5.382,0,0,1,2.325,2.28,7.977,7.977,0,0,1,.84,3.87V0h-2.88V-8.82a4.839,4.839,0,0,0-1.125-3.48,4.185,4.185,0,0,0-3.165-1.17,5.654,5.654,0,0,0-2.67.6,4.109,4.109,0,0,0-1.755,1.77,6.206,6.206,0,0,0-.615,2.91V0h-2.88V-15.9h2.76v4.29l-.45-1.14a5.522,5.522,0,0,1,2.4-2.43A7.871,7.871,0,0,1,136.62-16.05ZM155.52,6a14.726,14.726,0,0,1-4.245-.615A8.772,8.772,0,0,1,147.93,3.63l1.38-2.22a8.165,8.165,0,0,0,2.73,1.515,10.387,10.387,0,0,0,3.39.555,5.653,5.653,0,0,0,4.14-1.32,5.469,5.469,0,0,0,1.32-4.02V-5.22l.3-3.15-.15-3.18V-15.9h2.73V-2.16q0,4.2-2.1,6.18T155.52,6Zm-.36-6.66a8.578,8.578,0,0,1-4.125-.975,7.447,7.447,0,0,1-2.88-2.715,7.544,7.544,0,0,1-1.065-4.02,7.524,7.524,0,0,1,1.065-4.035,7.372,7.372,0,0,1,2.88-2.685,8.687,8.687,0,0,1,4.125-.96,8.324,8.324,0,0,1,3.72.825,6.3,6.3,0,0,1,2.685,2.535,8.421,8.421,0,0,1,1.005,4.32,8.356,8.356,0,0,1-1.005,4.29,6.491,6.491,0,0,1-2.685,2.565A8.082,8.082,0,0,1,155.16-.66Zm.33-2.52a5.871,5.871,0,0,0,2.82-.66,4.941,4.941,0,0,0,1.935-1.83,5.128,5.128,0,0,0,.705-2.7,5.128,5.128,0,0,0-.705-2.7,4.835,4.835,0,0,0-1.935-1.815,5.983,5.983,0,0,0-2.82-.645,6.073,6.073,0,0,0-2.835.645,4.811,4.811,0,0,0-1.95,1.815A5.128,5.128,0,0,0,150-8.37a5.128,5.128,0,0,0,.705,2.7,4.915,4.915,0,0,0,1.95,1.83A5.96,5.96,0,0,0,155.49-3.18ZM187.2,0V-3.36l-.15-.63V-9.72a3.71,3.71,0,0,0-1.065-2.835,4.5,4.5,0,0,0-3.195-1.005,8.419,8.419,0,0,0-2.76.465,7.11,7.11,0,0,0-2.28,1.245l-1.2-2.16a8.69,8.69,0,0,1,2.955-1.515,12.347,12.347,0,0,1,3.615-.525,7.29,7.29,0,0,1,5.04,1.59,6.208,6.208,0,0,1,1.77,4.86V0Zm-5.22.18a7.511,7.511,0,0,1-3.105-.6,4.761,4.761,0,0,1-2.055-1.665A4.212,4.212,0,0,1,176.1-4.5a4.544,4.544,0,0,1,.615-2.34,4.259,4.259,0,0,1,2.01-1.68,9.3,9.3,0,0,1,3.765-.63h5.04v2.07h-4.92a4.3,4.3,0,0,0-2.91.72,2.324,2.324,0,0,0-.75,1.74,2.236,2.236,0,0,0,.93,1.875,4.185,4.185,0,0,0,2.58.7,5.457,5.457,0,0,0,2.835-.72,4.1,4.1,0,0,0,1.755-2.1l.57,1.98a4.479,4.479,0,0,1-2.01,2.235A7.222,7.222,0,0,1,181.98.18Zm21.78-16.23a7.521,7.521,0,0,1,3.435.75,5.382,5.382,0,0,1,2.325,2.28,7.977,7.977,0,0,1,.84,3.87V0h-2.88V-8.82a4.839,4.839,0,0,0-1.125-3.48,4.185,4.185,0,0,0-3.165-1.17,5.654,5.654,0,0,0-2.67.6,4.109,4.109,0,0,0-1.755,1.77,6.206,6.206,0,0,0-.615,2.91V0h-2.88V-15.9h2.76v4.29l-.45-1.14a5.522,5.522,0,0,1,2.4-2.43A7.871,7.871,0,0,1,203.76-16.05ZM222.27.18a8.273,8.273,0,0,1-4.125-1.02,7.47,7.47,0,0,1-2.865-2.85,8.41,8.41,0,0,1-1.05-4.26,8.327,8.327,0,0,1,1.05-4.245,7.5,7.5,0,0,1,2.865-2.835,8.273,8.273,0,0,1,4.125-1.02,7.347,7.347,0,0,1,3.63.9,6.572,6.572,0,0,1,2.6,2.7,9.365,9.365,0,0,1,.975,4.5,9.613,9.613,0,0,1-.945,4.5A6.484,6.484,0,0,1,225.96-.735,7.372,7.372,0,0,1,222.27.18Zm.24-2.52a5.4,5.4,0,0,0,2.715-.69,4.974,4.974,0,0,0,1.92-1.965,6.007,6.007,0,0,0,.705-2.955,5.9,5.9,0,0,0-.705-2.955,5.028,5.028,0,0,0-1.92-1.935,5.4,5.4,0,0,0-2.715-.69,5.377,5.377,0,0,0-2.73.69,5.169,5.169,0,0,0-1.92,1.935,5.8,5.8,0,0,0-.72,2.955,5.907,5.907,0,0,0,.72,2.955,5.11,5.11,0,0,0,1.92,1.965A5.377,5.377,0,0,0,222.51-2.34ZM227.94,0V-4.29l.18-3.69-.3-3.69V-22.26h2.88V0ZM3.15,37V16h8.19a11.516,11.516,0,0,1,4.71.87,6.669,6.669,0,0,1,3,2.52,7.165,7.165,0,0,1,1.05,3.93,7.09,7.09,0,0,1-1.05,3.915,6.8,6.8,0,0,1-3,2.52,11.345,11.345,0,0,1-4.71.885H4.8l1.35-1.41V37Zm3-7.47L4.8,28.03h6.45a6.7,6.7,0,0,0,4.365-1.23A4.265,4.265,0,0,0,17.1,23.32a4.265,4.265,0,0,0-1.485-3.48,6.7,6.7,0,0,0-4.365-1.23H4.8l1.35-1.5ZM23.82,37V21.1h2.76v4.32l-.27-1.08a4.884,4.884,0,0,1,2.22-2.52,7.788,7.788,0,0,1,3.84-.87v2.79a2.1,2.1,0,0,0-.345-.03H31.71a4.885,4.885,0,0,0-3.66,1.38,5.475,5.475,0,0,0-1.35,3.99V37Zm18.75.18a8.847,8.847,0,0,1-4.26-1.065,7.6,7.6,0,0,1-2.925-2.865,8.2,8.2,0,0,1-1.065-4.2,7.745,7.745,0,0,1,1.065-4.185A8,8,0,0,1,38.325,22a8.37,8.37,0,0,1,4.215-1.05A8.6,8.6,0,0,1,46.815,22a7.708,7.708,0,0,1,2.94,2.865A8.115,8.115,0,0,1,50.82,29.05a8.2,8.2,0,0,1-1.065,4.2A7.54,7.54,0,0,1,46.8,36.115,8.9,8.9,0,0,1,42.57,37.18Zm0-2.52a5.46,5.46,0,0,0,2.745-.69,4.874,4.874,0,0,0,1.905-1.965,6.358,6.358,0,0,0,.72-2.955,6.236,6.236,0,0,0-.72-2.955,4.924,4.924,0,0,0-1.905-1.935,5.692,5.692,0,0,0-2.745-.72,5.6,5.6,0,0,0-2.73.72,5.169,5.169,0,0,0-1.92,1.935,5.8,5.8,0,0,0-.72,2.955,5.907,5.907,0,0,0,.72,2.955,5.145,5.145,0,0,0,1.9,1.965A5.355,5.355,0,0,0,42.57,34.66Zm17.7,2.52a5.1,5.1,0,0,1-3.72-1.29,4.926,4.926,0,0,1-1.32-3.69V17.62h2.88V32.08a2.793,2.793,0,0,0,.645,1.98,2.4,2.4,0,0,0,1.845.69A3.4,3.4,0,0,0,62.85,34l.9,2.07a4.187,4.187,0,0,1-1.575.84A6.7,6.7,0,0,1,60.27,37.18ZM52.53,23.47V21.1H62.67v2.37ZM73.5,37.18a8.847,8.847,0,0,1-4.26-1.065,7.6,7.6,0,0,1-2.925-2.865,8.2,8.2,0,0,1-1.065-4.2,7.745,7.745,0,0,1,1.065-4.185A8,8,0,0,1,69.255,22a8.37,8.37,0,0,1,4.215-1.05A8.6,8.6,0,0,1,77.745,22a7.708,7.708,0,0,1,2.94,2.865A8.115,8.115,0,0,1,81.75,29.05a8.2,8.2,0,0,1-1.065,4.2,7.54,7.54,0,0,1-2.955,2.865A8.9,8.9,0,0,1,73.5,37.18Zm0-2.52a5.46,5.46,0,0,0,2.745-.69,4.874,4.874,0,0,0,1.9-1.965,6.358,6.358,0,0,0,.72-2.955,6.236,6.236,0,0,0-.72-2.955,4.924,4.924,0,0,0-1.9-1.935,5.692,5.692,0,0,0-2.745-.72,5.6,5.6,0,0,0-2.73.72,5.169,5.169,0,0,0-1.92,1.935,5.8,5.8,0,0,0-.72,2.955,5.907,5.907,0,0,0,.72,2.955,5.145,5.145,0,0,0,1.9,1.965A5.355,5.355,0,0,0,73.5,34.66Zm17.7,2.52a5.1,5.1,0,0,1-3.72-1.29,4.926,4.926,0,0,1-1.32-3.69V17.62h2.88V32.08a2.793,2.793,0,0,0,.645,1.98,2.4,2.4,0,0,0,1.845.69A3.4,3.4,0,0,0,93.78,34l.9,2.07a4.187,4.187,0,0,1-1.575.84A6.7,6.7,0,0,1,91.2,37.18ZM83.46,23.47V21.1H93.6v2.37ZM98.55,43a6.722,6.722,0,0,1-2.22-.375,5.236,5.236,0,0,1-1.86-1.1l1.23-2.16a4.323,4.323,0,0,0,1.32.87,3.938,3.938,0,0,0,1.53.3,2.738,2.738,0,0,0,1.74-.54,4.9,4.9,0,0,0,1.29-1.92l.99-2.19.3-.36,6.24-14.43h2.82l-7.71,17.49a9.237,9.237,0,0,1-1.545,2.64A4.987,4.987,0,0,1,100.8,42.6,6.046,6.046,0,0,1,98.55,43Zm3.78-5.49L95.07,21.1h3l6.18,14.16Zm20.73-.33a7.275,7.275,0,0,1-3.615-.915,6.644,6.644,0,0,1-2.61-2.715,9.365,9.365,0,0,1-.975-4.5,9.613,9.613,0,0,1,.945-4.5,6.359,6.359,0,0,1,2.58-2.7,7.493,7.493,0,0,1,3.675-.9,8.251,8.251,0,0,1,4.14,1.02,7.532,7.532,0,0,1,2.85,2.835,8.327,8.327,0,0,1,1.05,4.245,8.41,8.41,0,0,1-1.05,4.26,7.5,7.5,0,0,1-2.85,2.85A8.251,8.251,0,0,1,123.06,37.18Zm-8.43,5.64V21.1h2.76v4.29l-.18,3.69.3,3.69V42.82Zm8.19-8.16a5.46,5.46,0,0,0,2.745-.69,4.974,4.974,0,0,0,1.92-1.965,6.008,6.008,0,0,0,.705-2.955,5.9,5.9,0,0,0-.705-2.955,5.028,5.028,0,0,0-1.92-1.935,5.46,5.46,0,0,0-2.745-.69,5.4,5.4,0,0,0-2.715.69,5.028,5.028,0,0,0-1.92,1.935,5.9,5.9,0,0,0-.705,2.955,6.007,6.007,0,0,0,.705,2.955,4.974,4.974,0,0,0,1.92,1.965A5.4,5.4,0,0,0,122.82,34.66ZM135.12,37l-.03-15.9,2.88.03V37Zm1.41-18.96a1.92,1.92,0,0,1-1.4-.54,1.771,1.771,0,0,1-.555-1.32,1.806,1.806,0,0,1,.555-1.35,1.92,1.92,0,0,1,1.4-.54,1.95,1.95,0,0,1,1.4.525,1.723,1.723,0,0,1,.555,1.305,1.873,1.873,0,0,1-1.95,1.92Zm15.42,2.91a7.521,7.521,0,0,1,3.435.75,5.382,5.382,0,0,1,2.325,2.28,7.977,7.977,0,0,1,.84,3.87V37h-2.88V28.18a4.839,4.839,0,0,0-1.125-3.48,4.185,4.185,0,0,0-3.165-1.17,5.654,5.654,0,0,0-2.67.6,4.109,4.109,0,0,0-1.755,1.77,6.206,6.206,0,0,0-.615,2.91V37h-2.88V21.1h2.76v4.29l-.45-1.14a5.522,5.522,0,0,1,2.4-2.43A7.871,7.871,0,0,1,151.95,20.95ZM170.85,43a14.726,14.726,0,0,1-4.245-.615,8.772,8.772,0,0,1-3.345-1.755l1.38-2.22a8.164,8.164,0,0,0,2.73,1.515,10.387,10.387,0,0,0,3.39.555,5.653,5.653,0,0,0,4.14-1.32,5.469,5.469,0,0,0,1.32-4.02V31.78l.3-3.15-.15-3.18V21.1h2.73V34.84q0,4.2-2.1,6.18T170.85,43Zm-.36-6.66a8.578,8.578,0,0,1-4.125-.975,7.447,7.447,0,0,1-2.88-2.715,7.544,7.544,0,0,1-1.065-4.02,7.524,7.524,0,0,1,1.065-4.035,7.372,7.372,0,0,1,2.88-2.685,8.687,8.687,0,0,1,4.125-.96,8.324,8.324,0,0,1,3.72.825,6.3,6.3,0,0,1,2.685,2.535,8.421,8.421,0,0,1,1.005,4.32,8.356,8.356,0,0,1-1.005,4.29,6.491,6.491,0,0,1-2.685,2.565A8.082,8.082,0,0,1,170.49,36.34Zm.33-2.52a5.871,5.871,0,0,0,2.82-.66,4.941,4.941,0,0,0,1.935-1.83,5.523,5.523,0,0,0,0-5.4,4.835,4.835,0,0,0-1.935-1.815,5.983,5.983,0,0,0-2.82-.645,6.073,6.073,0,0,0-2.835.645,4.811,4.811,0,0,0-1.95,1.815,5.523,5.523,0,0,0,0,5.4,4.915,4.915,0,0,0,1.95,1.83A5.96,5.96,0,0,0,170.82,33.82Z" transform="translate(629 1892)" fill="#fff" opacity="0.8"/>
    <path id="Path_27" data-name="Path 27" d="M3.15,0V-21h3V0ZM21.9.24a11.958,11.958,0,0,1-4.425-.81A10.652,10.652,0,0,1,13.92-2.835,10.265,10.265,0,0,1,11.6-6.24a11.2,11.2,0,0,1-.855-4.26,11.2,11.2,0,0,1,.855-4.26,10.159,10.159,0,0,1,2.34-3.405,10.9,10.9,0,0,1,3.54-2.265,11.808,11.808,0,0,1,4.425-.81,11.891,11.891,0,0,1,4.455.81,11.024,11.024,0,0,1,3.54,2.25,9.963,9.963,0,0,1,2.34,3.4A10.932,10.932,0,0,1,33.06-10.5a10.9,10.9,0,0,1-.825,4.29A10,10,0,0,1,29.9-2.82a11.024,11.024,0,0,1-3.54,2.25A11.891,11.891,0,0,1,21.9.24Zm0-2.67a8.61,8.61,0,0,0,3.255-.6,7.667,7.667,0,0,0,2.58-1.7,7.9,7.9,0,0,0,1.71-2.565,8.234,8.234,0,0,0,.615-3.21,8.415,8.415,0,0,0-.6-3.21,7.593,7.593,0,0,0-1.71-2.565,7.831,7.831,0,0,0-2.595-1.695,8.61,8.61,0,0,0-3.255-.6,8.643,8.643,0,0,0-3.24.6,7.632,7.632,0,0,0-2.595,1.695,7.941,7.941,0,0,0-1.71,2.55A8.2,8.2,0,0,0,13.74-10.5a8.234,8.234,0,0,0,.615,3.21A7.782,7.782,0,0,0,16.08-4.725a7.831,7.831,0,0,0,2.595,1.7A8.528,8.528,0,0,0,21.9-2.43ZM43.77.24A14.329,14.329,0,0,1,39.18-.5,9.4,9.4,0,0,1,35.73-2.4l1.11-2.34A9.743,9.743,0,0,0,39.9-3a11.038,11.038,0,0,0,3.87.69,8.749,8.749,0,0,0,2.97-.42,3.522,3.522,0,0,0,1.68-1.155,2.741,2.741,0,0,0,.54-1.665,2.272,2.272,0,0,0-.7-1.74,5.231,5.231,0,0,0-1.83-1.065,20.355,20.355,0,0,0-2.475-.7q-1.35-.3-2.715-.7a12.153,12.153,0,0,1-2.49-1.035,5.092,5.092,0,0,1-1.815-1.7,4.966,4.966,0,0,1-.69-2.745,5.515,5.515,0,0,1,.855-2.985,5.938,5.938,0,0,1,2.64-2.19,10.863,10.863,0,0,1,4.545-.825,14.032,14.032,0,0,1,3.63.48,10.12,10.12,0,0,1,3.12,1.38l-.99,2.4a9.649,9.649,0,0,0-2.85-1.305,11.145,11.145,0,0,0-2.91-.4,8.012,8.012,0,0,0-2.91.45,3.548,3.548,0,0,0-1.665,1.2,2.861,2.861,0,0,0-.525,1.68,2.309,2.309,0,0,0,.705,1.77,5.063,5.063,0,0,0,1.83,1.05,24.735,24.735,0,0,0,2.475.7q1.35.315,2.715.7a11.6,11.6,0,0,1,2.49,1.02A5.141,5.141,0,0,1,51.21-8.43a4.83,4.83,0,0,1,.69,2.7,5.4,5.4,0,0,1-.87,2.955,6.019,6.019,0,0,1-2.685,2.19A11.076,11.076,0,0,1,43.77.24ZM64.35,0V-21h2.46L80.7-3.75H79.41V-21h3V0H79.95L66.06-17.25h1.29V0ZM98.16,0V-3.36l-.15-.63V-9.72a3.71,3.71,0,0,0-1.065-2.835A4.5,4.5,0,0,0,93.75-13.56a8.419,8.419,0,0,0-2.76.465,7.11,7.11,0,0,0-2.28,1.245l-1.2-2.16a8.69,8.69,0,0,1,2.955-1.515,12.347,12.347,0,0,1,3.615-.525,7.29,7.29,0,0,1,5.04,1.59,6.208,6.208,0,0,1,1.77,4.86V0ZM92.94.18a7.511,7.511,0,0,1-3.1-.6A4.761,4.761,0,0,1,87.78-2.085,4.212,4.212,0,0,1,87.06-4.5a4.544,4.544,0,0,1,.615-2.34,4.259,4.259,0,0,1,2.01-1.68,9.3,9.3,0,0,1,3.765-.63h5.04v2.07H93.57a4.3,4.3,0,0,0-2.91.72,2.324,2.324,0,0,0-.75,1.74,2.236,2.236,0,0,0,.93,1.875,4.185,4.185,0,0,0,2.58.7,5.456,5.456,0,0,0,2.835-.72,4.1,4.1,0,0,0,1.755-2.1l.57,1.98A4.479,4.479,0,0,1,96.57-.645,7.222,7.222,0,0,1,92.94.18Zm18.75,0a5.1,5.1,0,0,1-3.72-1.29,4.926,4.926,0,0,1-1.32-3.69V-19.38h2.88V-4.92a2.793,2.793,0,0,0,.645,1.98,2.4,2.4,0,0,0,1.845.69A3.4,3.4,0,0,0,114.27-3l.9,2.07a4.187,4.187,0,0,1-1.575.84A6.7,6.7,0,0,1,111.69.18Zm-7.74-13.71V-15.9h10.14v2.37ZM118.68,0l-.03-15.9,2.88.03V0Zm1.41-18.96a1.92,1.92,0,0,1-1.395-.54,1.771,1.771,0,0,1-.555-1.32,1.806,1.806,0,0,1,.555-1.35,1.92,1.92,0,0,1,1.395-.54,1.95,1.95,0,0,1,1.4.525,1.723,1.723,0,0,1,.555,1.305,1.882,1.882,0,0,1-.54,1.365A1.879,1.879,0,0,1,120.09-18.96ZM131.19,0l-6.96-15.9h3l6.18,14.4h-1.44l6.3-14.4h2.82L134.13,0Zm19.23.18a9.257,9.257,0,0,1-4.485-1.05,7.566,7.566,0,0,1-3-2.88,8.2,8.2,0,0,1-1.065-4.2,8.383,8.383,0,0,1,1.035-4.2,7.471,7.471,0,0,1,2.85-2.865,8.119,8.119,0,0,1,4.1-1.035,8.024,8.024,0,0,1,4.08,1.02,7.22,7.22,0,0,1,2.775,2.865A8.861,8.861,0,0,1,157.71-7.86q0,.18-.015.42t-.045.45H144.12V-9.06h12.03l-1.17.72a5.346,5.346,0,0,0-.63-2.73,4.814,4.814,0,0,0-1.815-1.875,5.224,5.224,0,0,0-2.685-.675,5.245,5.245,0,0,0-2.67.675,4.756,4.756,0,0,0-1.83,1.89,5.72,5.72,0,0,0-.66,2.775v.48a5.47,5.47,0,0,0,.735,2.835A5.048,5.048,0,0,0,147.48-3.03a6.445,6.445,0,0,0,3.03.69,6.623,6.623,0,0,0,2.565-.48A5.618,5.618,0,0,0,155.1-4.26l1.59,1.86a6.964,6.964,0,0,1-2.685,1.92A9.346,9.346,0,0,1,150.42.18ZM167.01,0l9.51-21h2.97l9.54,21h-3.15l-8.49-19.32h1.2L170.1,0Zm4.05-5.25.81-2.4h11.82l.87,2.4ZM200.16.18a7.275,7.275,0,0,1-3.615-.915,6.644,6.644,0,0,1-2.61-2.715,9.365,9.365,0,0,1-.975-4.5,9.613,9.613,0,0,1,.945-4.5,6.359,6.359,0,0,1,2.58-2.7,7.493,7.493,0,0,1,3.675-.9,8.251,8.251,0,0,1,4.14,1.02,7.532,7.532,0,0,1,2.85,2.835A8.327,8.327,0,0,1,208.2-7.95a8.41,8.41,0,0,1-1.05,4.26A7.5,7.5,0,0,1,204.3-.84,8.251,8.251,0,0,1,200.16.18Zm-8.43,5.64V-15.9h2.76v4.29l-.18,3.69.3,3.69V5.82Zm8.19-8.16a5.46,5.46,0,0,0,2.745-.69,4.974,4.974,0,0,0,1.92-1.965,6.008,6.008,0,0,0,.705-2.955,5.9,5.9,0,0,0-.705-2.955,5.028,5.028,0,0,0-1.92-1.935,5.46,5.46,0,0,0-2.745-.69,5.4,5.4,0,0,0-2.715.69,5.028,5.028,0,0,0-1.92,1.935,5.9,5.9,0,0,0-.705,2.955,6.007,6.007,0,0,0,.705,2.955,4.974,4.974,0,0,0,1.92,1.965A5.4,5.4,0,0,0,199.92-2.34ZM220.62.18A7.275,7.275,0,0,1,217-.735a6.644,6.644,0,0,1-2.61-2.715,9.365,9.365,0,0,1-.975-4.5,9.613,9.613,0,0,1,.945-4.5,6.359,6.359,0,0,1,2.58-2.7,7.493,7.493,0,0,1,3.675-.9,8.251,8.251,0,0,1,4.14,1.02,7.532,7.532,0,0,1,2.85,2.835,8.327,8.327,0,0,1,1.05,4.245,8.41,8.41,0,0,1-1.05,4.26,7.5,7.5,0,0,1-2.85,2.85A8.251,8.251,0,0,1,220.62.18Zm-8.43,5.64V-15.9h2.76v4.29l-.18,3.69.3,3.69V5.82Zm8.19-8.16a5.46,5.46,0,0,0,2.745-.69,4.974,4.974,0,0,0,1.92-1.965,6.008,6.008,0,0,0,.705-2.955,5.9,5.9,0,0,0-.705-2.955,5.028,5.028,0,0,0-1.92-1.935,5.46,5.46,0,0,0-2.745-.69,5.4,5.4,0,0,0-2.715.69,5.028,5.028,0,0,0-1.92,1.935,5.9,5.9,0,0,0-.705,2.955,6.007,6.007,0,0,0,.705,2.955,4.974,4.974,0,0,0,1.92,1.965A5.4,5.4,0,0,0,220.38-2.34ZM237.21.18a12.933,12.933,0,0,1-3.765-.54,8.84,8.84,0,0,1-2.8-1.32l1.2-2.28a9.842,9.842,0,0,0,2.52,1.17,9.982,9.982,0,0,0,3.06.48,5.549,5.549,0,0,0,2.9-.57,1.793,1.793,0,0,0,.885-1.59,1.4,1.4,0,0,0-.54-1.17,3.683,3.683,0,0,0-1.425-.63q-.885-.21-1.965-.375t-2.16-.42a8.6,8.6,0,0,1-1.98-.72,3.74,3.74,0,0,1-1.44-1.29,3.976,3.976,0,0,1-.54-2.2,4.084,4.084,0,0,1,.81-2.52,5.133,5.133,0,0,1,2.3-1.665,9.6,9.6,0,0,1,3.525-.585,13.879,13.879,0,0,1,3.165.375,7.86,7.86,0,0,1,2.625,1.065l-1.23,2.28a6.8,6.8,0,0,0-2.25-.99,10.376,10.376,0,0,0-2.34-.27,5.175,5.175,0,0,0-2.82.615A1.832,1.832,0,0,0,234-11.4a1.489,1.489,0,0,0,.555,1.245,4.016,4.016,0,0,0,1.44.675,17.82,17.82,0,0,0,1.965.4q1.08.165,2.16.42a8.762,8.762,0,0,1,1.965.705,3.81,3.81,0,0,1,1.44,1.26,3.759,3.759,0,0,1,.555,2.16,3.864,3.864,0,0,1-.84,2.49,5.434,5.434,0,0,1-2.37,1.635A10.254,10.254,0,0,1,237.21.18ZM3.15,37V16H12a12.771,12.771,0,0,1,5.925,1.32,9.751,9.751,0,0,1,3.99,3.69A10.446,10.446,0,0,1,23.34,26.5a10.446,10.446,0,0,1-1.425,5.49,9.751,9.751,0,0,1-3.99,3.69A12.771,12.771,0,0,1,12,37Zm3-2.61h5.67a9.67,9.67,0,0,0,4.515-.99,7.2,7.2,0,0,0,2.955-2.775A7.983,7.983,0,0,0,20.34,26.5a7.962,7.962,0,0,0-1.05-4.14,7.229,7.229,0,0,0-2.955-2.76,9.67,9.67,0,0,0-4.515-.99H6.15Zm28.44,2.79A9.257,9.257,0,0,1,30.1,36.13a7.566,7.566,0,0,1-3-2.88,8.2,8.2,0,0,1-1.065-4.2,8.383,8.383,0,0,1,1.035-4.2,7.471,7.471,0,0,1,2.85-2.865,8.118,8.118,0,0,1,4.1-1.035,8.024,8.024,0,0,1,4.08,1.02,7.22,7.22,0,0,1,2.775,2.865A8.861,8.861,0,0,1,41.88,29.14q0,.18-.015.42t-.045.45H28.29V27.94H40.32l-1.17.72a5.346,5.346,0,0,0-.63-2.73A4.814,4.814,0,0,0,36.7,24.055a5.648,5.648,0,0,0-5.355,0,4.756,4.756,0,0,0-1.83,1.89,5.72,5.72,0,0,0-.66,2.775v.48a5.47,5.47,0,0,0,.735,2.835A5.048,5.048,0,0,0,31.65,33.97a6.445,6.445,0,0,0,3.03.69,6.623,6.623,0,0,0,2.565-.48,5.618,5.618,0,0,0,2.025-1.44l1.59,1.86a6.964,6.964,0,0,1-2.685,1.92A9.345,9.345,0,0,1,34.59,37.18ZM49.74,37,42.78,21.1h3l6.18,14.4H50.52l6.3-14.4h2.82L52.68,37Zm19.23.18a9.257,9.257,0,0,1-4.485-1.05,7.566,7.566,0,0,1-3-2.88,8.2,8.2,0,0,1-1.065-4.2,8.383,8.383,0,0,1,1.035-4.2,7.471,7.471,0,0,1,2.85-2.865,8.119,8.119,0,0,1,4.1-1.035,8.024,8.024,0,0,1,4.08,1.02,7.22,7.22,0,0,1,2.775,2.865,8.861,8.861,0,0,1,1,4.305q0,.18-.015.42t-.045.45H62.67V27.94H74.7l-1.17.72a5.346,5.346,0,0,0-.63-2.73,4.814,4.814,0,0,0-1.815-1.875,5.648,5.648,0,0,0-5.355,0,4.756,4.756,0,0,0-1.83,1.89,5.72,5.72,0,0,0-.66,2.775v.48a5.47,5.47,0,0,0,.735,2.835A5.048,5.048,0,0,0,66.03,33.97a6.445,6.445,0,0,0,3.03.69,6.623,6.623,0,0,0,2.565-.48,5.618,5.618,0,0,0,2.025-1.44l1.59,1.86a6.964,6.964,0,0,1-2.685,1.92A9.345,9.345,0,0,1,68.97,37.18ZM80.25,37V14.74h2.88V37Zm15.18.18a8.847,8.847,0,0,1-4.26-1.065,7.6,7.6,0,0,1-2.925-2.865,8.2,8.2,0,0,1-1.065-4.2,7.745,7.745,0,0,1,1.065-4.185A8,8,0,0,1,91.185,22,8.37,8.37,0,0,1,95.4,20.95,8.6,8.6,0,0,1,99.675,22a7.708,7.708,0,0,1,2.94,2.865,8.115,8.115,0,0,1,1.065,4.185,8.2,8.2,0,0,1-1.065,4.2,7.54,7.54,0,0,1-2.955,2.865A8.9,8.9,0,0,1,95.43,37.18Zm0-2.52a5.46,5.46,0,0,0,2.745-.69,4.874,4.874,0,0,0,1.9-1.965,6.358,6.358,0,0,0,.72-2.955,6.236,6.236,0,0,0-.72-2.955,4.924,4.924,0,0,0-1.9-1.935,5.692,5.692,0,0,0-2.745-.72,5.6,5.6,0,0,0-2.73.72,5.169,5.169,0,0,0-1.92,1.935,5.8,5.8,0,0,0-.72,2.955,5.907,5.907,0,0,0,.72,2.955,5.145,5.145,0,0,0,1.9,1.965A5.355,5.355,0,0,0,95.43,34.66Zm20.67,2.52a7.275,7.275,0,0,1-3.615-.915,6.644,6.644,0,0,1-2.61-2.715,9.365,9.365,0,0,1-.975-4.5,9.613,9.613,0,0,1,.945-4.5,6.359,6.359,0,0,1,2.58-2.7,7.493,7.493,0,0,1,3.675-.9,8.251,8.251,0,0,1,4.14,1.02,7.532,7.532,0,0,1,2.85,2.835,8.327,8.327,0,0,1,1.05,4.245,8.41,8.41,0,0,1-1.05,4.26,7.5,7.5,0,0,1-2.85,2.85A8.251,8.251,0,0,1,116.1,37.18Zm-8.43,5.64V21.1h2.76v4.29l-.18,3.69.3,3.69V42.82Zm8.19-8.16a5.46,5.46,0,0,0,2.745-.69,4.974,4.974,0,0,0,1.92-1.965,6.007,6.007,0,0,0,.705-2.955,5.9,5.9,0,0,0-.705-2.955,5.028,5.028,0,0,0-1.92-1.935,5.46,5.46,0,0,0-2.745-.69,5.4,5.4,0,0,0-2.715.69,5.028,5.028,0,0,0-1.92,1.935,5.9,5.9,0,0,0-.705,2.955,6.007,6.007,0,0,0,.705,2.955,4.974,4.974,0,0,0,1.92,1.965A5.4,5.4,0,0,0,115.86,34.66Zm32.16-13.71a7.359,7.359,0,0,1,3.39.75,5.317,5.317,0,0,1,2.295,2.28,8.1,8.1,0,0,1,.825,3.87V37h-2.88V28.18a4.969,4.969,0,0,0-1.08-3.48,3.918,3.918,0,0,0-3.03-1.17,5.105,5.105,0,0,0-2.52.6,4.024,4.024,0,0,0-1.665,1.77,6.474,6.474,0,0,0-.585,2.91V37h-2.88V28.18a5.015,5.015,0,0,0-1.065-3.48,3.908,3.908,0,0,0-3.045-1.17,5.042,5.042,0,0,0-2.49.6,4.112,4.112,0,0,0-1.68,1.77,6.336,6.336,0,0,0-.6,2.91V37h-2.88V21.1h2.76v4.23l-.45-1.08a5.423,5.423,0,0,1,2.31-2.43,7.33,7.33,0,0,1,3.63-.87,6.806,6.806,0,0,1,3.93,1.125,5.329,5.329,0,0,1,2.16,3.405L141.3,25a5.977,5.977,0,0,1,2.52-2.94A7.838,7.838,0,0,1,148.02,20.95Zm18.9,16.23a9.257,9.257,0,0,1-4.485-1.05,7.566,7.566,0,0,1-3-2.88,8.2,8.2,0,0,1-1.065-4.2,8.383,8.383,0,0,1,1.035-4.2,7.471,7.471,0,0,1,2.85-2.865,8.119,8.119,0,0,1,4.1-1.035,8.024,8.024,0,0,1,4.08,1.02,7.22,7.22,0,0,1,2.775,2.865,8.861,8.861,0,0,1,1.005,4.305q0,.18-.015.42t-.045.45H160.62V27.94h12.03l-1.17.72a5.346,5.346,0,0,0-.63-2.73,4.814,4.814,0,0,0-1.815-1.875,5.648,5.648,0,0,0-5.355,0,4.756,4.756,0,0,0-1.83,1.89,5.72,5.72,0,0,0-.66,2.775v.48a5.47,5.47,0,0,0,.735,2.835,5.048,5.048,0,0,0,2.055,1.935,6.445,6.445,0,0,0,3.03.69,6.623,6.623,0,0,0,2.565-.48,5.618,5.618,0,0,0,2.025-1.44l1.59,1.86a6.964,6.964,0,0,1-2.685,1.92A9.346,9.346,0,0,1,166.92,37.18Zm19.77-16.23a7.521,7.521,0,0,1,3.435.75,5.382,5.382,0,0,1,2.325,2.28,7.977,7.977,0,0,1,.84,3.87V37h-2.88V28.18a4.839,4.839,0,0,0-1.125-3.48,4.185,4.185,0,0,0-3.165-1.17,5.654,5.654,0,0,0-2.67.6A4.109,4.109,0,0,0,181.7,25.9a6.206,6.206,0,0,0-.615,2.91V37H178.2V21.1h2.76v4.29l-.45-1.14a5.522,5.522,0,0,1,2.4-2.43A7.871,7.871,0,0,1,186.69,20.95Zm17.4,16.23a5.1,5.1,0,0,1-3.72-1.29,4.926,4.926,0,0,1-1.32-3.69V17.62h2.88V32.08a2.793,2.793,0,0,0,.645,1.98,2.4,2.4,0,0,0,1.845.69,3.4,3.4,0,0,0,2.25-.75l.9,2.07a4.187,4.187,0,0,1-1.575.84A6.7,6.7,0,0,1,204.09,37.18Zm-7.74-13.71V21.1h10.14v2.37Z" transform="translate(602 1494)" fill="#fff"/>
    <path id="Path_28" data-name="Path 28" d="M8.04,0l9.51-21h2.97L30.06,0H26.91L18.42-19.32h1.2L11.13,0Zm4.05-5.25.81-2.4H24.72l.87,2.4Zm29.16-10.8a7.521,7.521,0,0,1,3.435.75,5.382,5.382,0,0,1,2.325,2.28,7.977,7.977,0,0,1,.84,3.87V0H44.97V-8.82a4.839,4.839,0,0,0-1.125-3.48,4.185,4.185,0,0,0-3.165-1.17,5.654,5.654,0,0,0-2.67.6,4.109,4.109,0,0,0-1.755,1.77,6.206,6.206,0,0,0-.615,2.91V0H32.76V-15.9h2.76v4.29l-.45-1.14a5.522,5.522,0,0,1,2.4-2.43A7.871,7.871,0,0,1,41.25-16.05ZM59.76.18A8.273,8.273,0,0,1,55.635-.84,7.47,7.47,0,0,1,52.77-3.69a8.409,8.409,0,0,1-1.05-4.26A8.327,8.327,0,0,1,52.77-12.2a7.5,7.5,0,0,1,2.865-2.835,8.273,8.273,0,0,1,4.125-1.02,7.347,7.347,0,0,1,3.63.9,6.572,6.572,0,0,1,2.6,2.7,9.365,9.365,0,0,1,.975,4.5,9.613,9.613,0,0,1-.945,4.5A6.484,6.484,0,0,1,63.45-.735,7.372,7.372,0,0,1,59.76.18ZM60-2.34a5.4,5.4,0,0,0,2.715-.69,4.974,4.974,0,0,0,1.92-1.965,6.007,6.007,0,0,0,.7-2.955,5.9,5.9,0,0,0-.7-2.955,5.028,5.028,0,0,0-1.92-1.935A5.4,5.4,0,0,0,60-13.53a5.377,5.377,0,0,0-2.73.69,5.169,5.169,0,0,0-1.92,1.935,5.8,5.8,0,0,0-.72,2.955,5.907,5.907,0,0,0,.72,2.955A5.11,5.11,0,0,0,57.27-3.03,5.377,5.377,0,0,0,60-2.34ZM65.43,0V-4.29l.18-3.69-.3-3.69V-22.26h2.88V0Zm8.22,0V-15.9h2.76v4.32l-.27-1.08a4.884,4.884,0,0,1,2.22-2.52,7.788,7.788,0,0,1,3.84-.87v2.79a2.1,2.1,0,0,0-.345-.03H81.54a4.885,4.885,0,0,0-3.66,1.38,5.475,5.475,0,0,0-1.35,3.99V0ZM92.4.18A8.847,8.847,0,0,1,88.14-.885,7.6,7.6,0,0,1,85.215-3.75a8.2,8.2,0,0,1-1.065-4.2,7.745,7.745,0,0,1,1.065-4.185A8,8,0,0,1,88.155-15a8.37,8.37,0,0,1,4.215-1.05A8.6,8.6,0,0,1,96.645-15a7.708,7.708,0,0,1,2.94,2.865A8.115,8.115,0,0,1,100.65-7.95a8.2,8.2,0,0,1-1.065,4.2A7.54,7.54,0,0,1,96.63-.885,8.9,8.9,0,0,1,92.4.18Zm0-2.52a5.46,5.46,0,0,0,2.745-.69,4.874,4.874,0,0,0,1.9-1.965,6.358,6.358,0,0,0,.72-2.955,6.236,6.236,0,0,0-.72-2.955,4.924,4.924,0,0,0-1.9-1.935,5.692,5.692,0,0,0-2.745-.72,5.6,5.6,0,0,0-2.73.72,5.169,5.169,0,0,0-1.92,1.935,5.8,5.8,0,0,0-.72,2.955,5.907,5.907,0,0,0,.72,2.955,5.145,5.145,0,0,0,1.9,1.965A5.355,5.355,0,0,0,92.4-2.34ZM104.67,0l-.03-15.9,2.88.03V0Zm1.41-18.96a1.92,1.92,0,0,1-1.395-.54,1.771,1.771,0,0,1-.555-1.32,1.806,1.806,0,0,1,.555-1.35,1.92,1.92,0,0,1,1.395-.54,1.95,1.95,0,0,1,1.4.525,1.723,1.723,0,0,1,.555,1.305,1.882,1.882,0,0,1-.54,1.365A1.879,1.879,0,0,1,106.08-18.96ZM119.58.18a8.273,8.273,0,0,1-4.125-1.02,7.47,7.47,0,0,1-2.865-2.85,8.41,8.41,0,0,1-1.05-4.26,8.327,8.327,0,0,1,1.05-4.245,7.5,7.5,0,0,1,2.865-2.835,8.273,8.273,0,0,1,4.125-1.02,7.347,7.347,0,0,1,3.63.9,6.572,6.572,0,0,1,2.6,2.7,9.365,9.365,0,0,1,.975,4.5,9.613,9.613,0,0,1-.945,4.5A6.484,6.484,0,0,1,123.27-.735,7.372,7.372,0,0,1,119.58.18Zm.24-2.52a5.4,5.4,0,0,0,2.715-.69,4.974,4.974,0,0,0,1.92-1.965,6.007,6.007,0,0,0,.7-2.955,5.9,5.9,0,0,0-.7-2.955,5.028,5.028,0,0,0-1.92-1.935,5.4,5.4,0,0,0-2.715-.69,5.377,5.377,0,0,0-2.73.69,5.169,5.169,0,0,0-1.92,1.935,5.8,5.8,0,0,0-.72,2.955,5.907,5.907,0,0,0,.72,2.955,5.11,5.11,0,0,0,1.92,1.965A5.377,5.377,0,0,0,119.82-2.34ZM125.25,0V-4.29l.18-3.69-.3-3.69V-22.26h2.88V0Zm16.71,0V-21h2.46L158.31-3.75h-1.29V-21h3V0h-2.46L143.67-17.25h1.29V0Zm33.81,0V-3.36l-.15-.63V-9.72a3.71,3.71,0,0,0-1.065-2.835,4.5,4.5,0,0,0-3.195-1.005,8.419,8.419,0,0,0-2.76.465,7.11,7.11,0,0,0-2.28,1.245l-1.2-2.16a8.69,8.69,0,0,1,2.955-1.515,12.347,12.347,0,0,1,3.615-.525,7.29,7.29,0,0,1,5.04,1.59A6.208,6.208,0,0,1,178.5-9.6V0Zm-5.22.18a7.511,7.511,0,0,1-3.105-.6,4.761,4.761,0,0,1-2.055-1.665,4.212,4.212,0,0,1-.72-2.415,4.544,4.544,0,0,1,.615-2.34,4.259,4.259,0,0,1,2.01-1.68,9.3,9.3,0,0,1,3.765-.63h5.04v2.07h-4.92a4.3,4.3,0,0,0-2.91.72,2.324,2.324,0,0,0-.75,1.74,2.236,2.236,0,0,0,.93,1.875,4.185,4.185,0,0,0,2.58.7,5.457,5.457,0,0,0,2.835-.72,4.1,4.1,0,0,0,1.755-2.1l.57,1.98a4.479,4.479,0,0,1-2.01,2.235A7.222,7.222,0,0,1,170.55.18Zm18.75,0a5.1,5.1,0,0,1-3.72-1.29,4.926,4.926,0,0,1-1.32-3.69V-19.38h2.88V-4.92a2.793,2.793,0,0,0,.645,1.98,2.4,2.4,0,0,0,1.845.69A3.4,3.4,0,0,0,191.88-3l.9,2.07a4.187,4.187,0,0,1-1.575.84A6.7,6.7,0,0,1,189.3.18Zm-7.74-13.71V-15.9H191.7v2.37ZM196.29,0l-.03-15.9,2.88.03V0Zm1.41-18.96a1.92,1.92,0,0,1-1.4-.54,1.771,1.771,0,0,1-.555-1.32,1.806,1.806,0,0,1,.555-1.35,1.92,1.92,0,0,1,1.4-.54,1.95,1.95,0,0,1,1.4.525,1.723,1.723,0,0,1,.555,1.305,1.882,1.882,0,0,1-.54,1.365A1.879,1.879,0,0,1,197.7-18.96ZM208.8,0l-6.96-15.9h3l6.18,14.4h-1.44l6.3-14.4h2.82L211.74,0Zm19.23.18a9.257,9.257,0,0,1-4.485-1.05,7.566,7.566,0,0,1-3-2.88,8.2,8.2,0,0,1-1.065-4.2,8.383,8.383,0,0,1,1.035-4.2,7.471,7.471,0,0,1,2.85-2.865,8.119,8.119,0,0,1,4.1-1.035,8.024,8.024,0,0,1,4.08,1.02,7.22,7.22,0,0,1,2.775,2.865A8.861,8.861,0,0,1,235.32-7.86q0,.18-.015.42t-.045.45H221.73V-9.06h12.03l-1.17.72a5.346,5.346,0,0,0-.63-2.73,4.814,4.814,0,0,0-1.815-1.875,5.224,5.224,0,0,0-2.685-.675,5.245,5.245,0,0,0-2.67.675,4.756,4.756,0,0,0-1.83,1.89,5.72,5.72,0,0,0-.66,2.775v.48a5.47,5.47,0,0,0,.735,2.835A5.048,5.048,0,0,0,225.09-3.03a6.445,6.445,0,0,0,3.03.69,6.623,6.623,0,0,0,2.565-.48,5.618,5.618,0,0,0,2.025-1.44L234.3-2.4a6.964,6.964,0,0,1-2.685,1.92A9.346,9.346,0,0,1,228.03.18ZM-.03,37,9.48,16h2.97l9.54,21H18.84L10.35,17.68h1.2L3.06,37Zm4.05-5.25.81-2.4H16.65l.87,2.4Zm29.1,5.43a7.275,7.275,0,0,1-3.615-.915A6.644,6.644,0,0,1,26.9,33.55a9.365,9.365,0,0,1-.975-4.5,9.613,9.613,0,0,1,.945-4.5,6.359,6.359,0,0,1,2.58-2.7,7.493,7.493,0,0,1,3.675-.9,8.251,8.251,0,0,1,4.14,1.02,7.532,7.532,0,0,1,2.85,2.835,8.327,8.327,0,0,1,1.05,4.245,8.409,8.409,0,0,1-1.05,4.26,7.5,7.5,0,0,1-2.85,2.85A8.251,8.251,0,0,1,33.12,37.18Zm-8.43,5.64V21.1h2.76v4.29l-.18,3.69.3,3.69V42.82Zm8.19-8.16a5.46,5.46,0,0,0,2.745-.69,4.974,4.974,0,0,0,1.92-1.965,6.007,6.007,0,0,0,.705-2.955,5.9,5.9,0,0,0-.705-2.955,5.028,5.028,0,0,0-1.92-1.935,5.46,5.46,0,0,0-2.745-.69,5.4,5.4,0,0,0-2.715.69,5.028,5.028,0,0,0-1.92,1.935,5.9,5.9,0,0,0-.7,2.955,6.007,6.007,0,0,0,.7,2.955,4.974,4.974,0,0,0,1.92,1.965A5.4,5.4,0,0,0,32.88,34.66Zm20.7,2.52a7.275,7.275,0,0,1-3.615-.915,6.644,6.644,0,0,1-2.61-2.715,9.365,9.365,0,0,1-.975-4.5,9.613,9.613,0,0,1,.945-4.5,6.359,6.359,0,0,1,2.58-2.7,7.493,7.493,0,0,1,3.675-.9,8.251,8.251,0,0,1,4.14,1.02,7.532,7.532,0,0,1,2.85,2.835,8.327,8.327,0,0,1,1.05,4.245,8.409,8.409,0,0,1-1.05,4.26,7.5,7.5,0,0,1-2.85,2.85A8.251,8.251,0,0,1,53.58,37.18Zm-8.43,5.64V21.1h2.76v4.29l-.18,3.69.3,3.69V42.82Zm8.19-8.16a5.46,5.46,0,0,0,2.745-.69A4.974,4.974,0,0,0,58,32.005a6.007,6.007,0,0,0,.705-2.955A5.9,5.9,0,0,0,58,26.095a5.028,5.028,0,0,0-1.92-1.935,5.46,5.46,0,0,0-2.745-.69,5.4,5.4,0,0,0-2.715.69,5.028,5.028,0,0,0-1.92,1.935A5.9,5.9,0,0,0,48,29.05a6.007,6.007,0,0,0,.7,2.955,4.974,4.974,0,0,0,1.92,1.965A5.4,5.4,0,0,0,53.34,34.66Zm16.83,2.52a12.933,12.933,0,0,1-3.765-.54A8.84,8.84,0,0,1,63.6,35.32l1.2-2.28a9.842,9.842,0,0,0,2.52,1.17,9.982,9.982,0,0,0,3.06.48,5.549,5.549,0,0,0,2.895-.57,1.793,1.793,0,0,0,.885-1.59,1.4,1.4,0,0,0-.54-1.17,3.682,3.682,0,0,0-1.425-.63q-.885-.21-1.965-.375t-2.16-.42a8.6,8.6,0,0,1-1.98-.72,3.74,3.74,0,0,1-1.44-1.29,3.976,3.976,0,0,1-.54-2.2,4.084,4.084,0,0,1,.81-2.52,5.133,5.133,0,0,1,2.295-1.665,9.6,9.6,0,0,1,3.525-.585,13.879,13.879,0,0,1,3.165.375A7.86,7.86,0,0,1,76.53,22.39L75.3,24.67a6.8,6.8,0,0,0-2.25-.99,10.376,10.376,0,0,0-2.34-.27,5.175,5.175,0,0,0-2.82.615,1.832,1.832,0,0,0-.93,1.575,1.489,1.489,0,0,0,.555,1.245,4.016,4.016,0,0,0,1.44.675,17.82,17.82,0,0,0,1.965.4q1.08.165,2.16.42a8.762,8.762,0,0,1,1.965.7,3.81,3.81,0,0,1,1.44,1.26,3.759,3.759,0,0,1,.555,2.16,3.865,3.865,0,0,1-.84,2.49A5.434,5.434,0,0,1,73.83,36.6,10.254,10.254,0,0,1,70.17,37.18ZM89.13,37V16h8.85a12.771,12.771,0,0,1,5.925,1.32,9.751,9.751,0,0,1,3.99,3.69,10.446,10.446,0,0,1,1.425,5.49,10.446,10.446,0,0,1-1.425,5.49,9.751,9.751,0,0,1-3.99,3.69A12.771,12.771,0,0,1,97.98,37Zm3-2.61H97.8a9.67,9.67,0,0,0,4.515-.99,7.2,7.2,0,0,0,2.955-2.775,7.983,7.983,0,0,0,1.05-4.125,7.962,7.962,0,0,0-1.05-4.14,7.229,7.229,0,0,0-2.955-2.76,9.67,9.67,0,0,0-4.515-.99H92.13Zm28.44,2.79a9.257,9.257,0,0,1-4.485-1.05,7.566,7.566,0,0,1-3-2.88,8.2,8.2,0,0,1-1.065-4.2,8.383,8.383,0,0,1,1.035-4.2,7.471,7.471,0,0,1,2.85-2.865A8.118,8.118,0,0,1,120,20.95a8.024,8.024,0,0,1,4.08,1.02,7.22,7.22,0,0,1,2.775,2.865,8.861,8.861,0,0,1,1.005,4.305q0,.18-.015.42t-.045.45H114.27V27.94H126.3l-1.17.72a5.346,5.346,0,0,0-.63-2.73,4.814,4.814,0,0,0-1.815-1.875,5.648,5.648,0,0,0-5.355,0,4.756,4.756,0,0,0-1.83,1.89,5.72,5.72,0,0,0-.66,2.775v.48a5.47,5.47,0,0,0,.735,2.835,5.048,5.048,0,0,0,2.055,1.935,6.445,6.445,0,0,0,3.03.69,6.623,6.623,0,0,0,2.565-.48,5.618,5.618,0,0,0,2.025-1.44l1.59,1.86a6.964,6.964,0,0,1-2.685,1.92A9.345,9.345,0,0,1,120.57,37.18ZM135.72,37l-6.96-15.9h3l6.18,14.4H136.5l6.3-14.4h2.82L138.66,37Zm19.23.18a9.257,9.257,0,0,1-4.485-1.05,7.566,7.566,0,0,1-3-2.88,8.2,8.2,0,0,1-1.065-4.2,8.383,8.383,0,0,1,1.035-4.2,7.471,7.471,0,0,1,2.85-2.865,8.119,8.119,0,0,1,4.1-1.035,8.024,8.024,0,0,1,4.08,1.02,7.22,7.22,0,0,1,2.775,2.865,8.861,8.861,0,0,1,1.005,4.305q0,.18-.015.42t-.045.45H148.65V27.94h12.03l-1.17.72a5.346,5.346,0,0,0-.63-2.73,4.814,4.814,0,0,0-1.815-1.875,5.648,5.648,0,0,0-5.355,0,4.756,4.756,0,0,0-1.83,1.89,5.72,5.72,0,0,0-.66,2.775v.48a5.47,5.47,0,0,0,.735,2.835,5.048,5.048,0,0,0,2.055,1.935,6.445,6.445,0,0,0,3.03.69,6.623,6.623,0,0,0,2.565-.48,5.618,5.618,0,0,0,2.025-1.44l1.59,1.86a6.964,6.964,0,0,1-2.685,1.92A9.346,9.346,0,0,1,154.95,37.18ZM166.23,37V14.74h2.88V37Zm15.18.18a8.847,8.847,0,0,1-4.26-1.065,7.6,7.6,0,0,1-2.925-2.865,8.2,8.2,0,0,1-1.065-4.2,7.745,7.745,0,0,1,1.065-4.185A8,8,0,0,1,177.165,22a8.37,8.37,0,0,1,4.215-1.05A8.6,8.6,0,0,1,185.655,22a7.708,7.708,0,0,1,2.94,2.865,8.115,8.115,0,0,1,1.065,4.185,8.2,8.2,0,0,1-1.065,4.2,7.54,7.54,0,0,1-2.955,2.865A8.9,8.9,0,0,1,181.41,37.18Zm0-2.52a5.46,5.46,0,0,0,2.745-.69,4.874,4.874,0,0,0,1.9-1.965,6.358,6.358,0,0,0,.72-2.955,6.236,6.236,0,0,0-.72-2.955,4.924,4.924,0,0,0-1.9-1.935,5.692,5.692,0,0,0-2.745-.72,5.6,5.6,0,0,0-2.73.72,5.169,5.169,0,0,0-1.92,1.935,5.8,5.8,0,0,0-.72,2.955,5.907,5.907,0,0,0,.72,2.955,5.145,5.145,0,0,0,1.9,1.965A5.355,5.355,0,0,0,181.41,34.66Zm20.67,2.52a7.275,7.275,0,0,1-3.615-.915,6.644,6.644,0,0,1-2.61-2.715,9.365,9.365,0,0,1-.975-4.5,9.613,9.613,0,0,1,.945-4.5,6.359,6.359,0,0,1,2.58-2.7,7.493,7.493,0,0,1,3.675-.9,8.251,8.251,0,0,1,4.14,1.02,7.532,7.532,0,0,1,2.85,2.835,8.327,8.327,0,0,1,1.05,4.245,8.41,8.41,0,0,1-1.05,4.26,7.5,7.5,0,0,1-2.85,2.85A8.251,8.251,0,0,1,202.08,37.18Zm-8.43,5.64V21.1h2.76v4.29l-.18,3.69.3,3.69V42.82Zm8.19-8.16a5.46,5.46,0,0,0,2.745-.69,4.974,4.974,0,0,0,1.92-1.965,6.008,6.008,0,0,0,.705-2.955,5.9,5.9,0,0,0-.705-2.955,5.028,5.028,0,0,0-1.92-1.935,5.46,5.46,0,0,0-2.745-.69,5.4,5.4,0,0,0-2.715.69,5.028,5.028,0,0,0-1.92,1.935,5.9,5.9,0,0,0-.705,2.955,6.007,6.007,0,0,0,.705,2.955,4.974,4.974,0,0,0,1.92,1.965A5.4,5.4,0,0,0,201.84,34.66ZM234,20.95a7.359,7.359,0,0,1,3.39.75,5.317,5.317,0,0,1,2.295,2.28,8.1,8.1,0,0,1,.825,3.87V37h-2.88V28.18a4.969,4.969,0,0,0-1.08-3.48,3.918,3.918,0,0,0-3.03-1.17,5.105,5.105,0,0,0-2.52.6,4.024,4.024,0,0,0-1.665,1.77,6.474,6.474,0,0,0-.585,2.91V37h-2.88V28.18A5.015,5.015,0,0,0,224.8,24.7a3.908,3.908,0,0,0-3.045-1.17,5.042,5.042,0,0,0-2.49.6,4.112,4.112,0,0,0-1.68,1.77,6.336,6.336,0,0,0-.6,2.91V37h-2.88V21.1h2.76v4.23l-.45-1.08a5.422,5.422,0,0,1,2.31-2.43,7.33,7.33,0,0,1,3.63-.87,6.807,6.807,0,0,1,3.93,1.125,5.329,5.329,0,0,1,2.16,3.405L227.28,25a5.977,5.977,0,0,1,2.52-2.94A7.838,7.838,0,0,1,234,20.95Zm18.9,16.23a9.257,9.257,0,0,1-4.485-1.05,7.566,7.566,0,0,1-3-2.88,8.2,8.2,0,0,1-1.065-4.2,8.383,8.383,0,0,1,1.035-4.2,7.471,7.471,0,0,1,2.85-2.865,8.119,8.119,0,0,1,4.1-1.035,8.024,8.024,0,0,1,4.08,1.02,7.22,7.22,0,0,1,2.775,2.865,8.861,8.861,0,0,1,1.005,4.305q0,.18-.015.42t-.045.45H246.6V27.94h12.03l-1.17.72a5.346,5.346,0,0,0-.63-2.73,4.814,4.814,0,0,0-1.815-1.875,5.648,5.648,0,0,0-5.355,0,4.756,4.756,0,0,0-1.83,1.89,5.72,5.72,0,0,0-.66,2.775v.48a5.47,5.47,0,0,0,.735,2.835,5.048,5.048,0,0,0,2.055,1.935,6.445,6.445,0,0,0,3.03.69,6.623,6.623,0,0,0,2.565-.48,5.618,5.618,0,0,0,2.025-1.44l1.59,1.86a6.964,6.964,0,0,1-2.685,1.92A9.345,9.345,0,0,1,252.9,37.18Zm19.77-16.23a7.521,7.521,0,0,1,3.435.75,5.382,5.382,0,0,1,2.325,2.28,7.977,7.977,0,0,1,.84,3.87V37h-2.88V28.18a4.839,4.839,0,0,0-1.125-3.48,4.185,4.185,0,0,0-3.165-1.17,5.654,5.654,0,0,0-2.67.6,4.109,4.109,0,0,0-1.755,1.77,6.206,6.206,0,0,0-.615,2.91V37h-2.88V21.1h2.76v4.29l-.45-1.14a5.522,5.522,0,0,1,2.4-2.43A7.871,7.871,0,0,1,272.67,20.95Zm17.4,16.23a5.1,5.1,0,0,1-3.72-1.29,4.926,4.926,0,0,1-1.32-3.69V17.62h2.88V32.08a2.793,2.793,0,0,0,.645,1.98,2.4,2.4,0,0,0,1.845.69,3.4,3.4,0,0,0,2.25-.75l.9,2.07a4.187,4.187,0,0,1-1.575.84A6.7,6.7,0,0,1,290.07,37.18Zm-7.74-13.71V21.1h10.14v2.37Z" transform="translate(952 1494)" fill="#fff"/>
    <path id="Path_50" data-name="Path 50" d="M18.21-21h2.97l.03,21H18.24ZM6.15,0H3.18L3.15-21H6.12ZM18.48-9.39,5.85-9.36v-2.58l12.63-.03ZM27.78,6a6.722,6.722,0,0,1-2.22-.375,5.236,5.236,0,0,1-1.86-1.1l1.23-2.16a4.323,4.323,0,0,0,1.32.87,3.938,3.938,0,0,0,1.53.3A2.738,2.738,0,0,0,29.52,3a4.9,4.9,0,0,0,1.29-1.92l.99-2.19.3-.36L38.34-15.9h2.82L33.45,1.59A9.237,9.237,0,0,1,31.9,4.23,4.987,4.987,0,0,1,30.03,5.6,6.046,6.046,0,0,1,27.78,6ZM31.56.51,24.3-15.9h3L33.48-1.74ZM52.29.18a7.4,7.4,0,0,1-3.675-.915,6.456,6.456,0,0,1-2.58-2.715,9.613,9.613,0,0,1-.945-4.5,9.365,9.365,0,0,1,.975-4.5,6.543,6.543,0,0,1,2.61-2.7,7.371,7.371,0,0,1,3.615-.9,8.251,8.251,0,0,1,4.14,1.02A7.532,7.532,0,0,1,59.28-12.2,8.327,8.327,0,0,1,60.33-7.95a8.409,8.409,0,0,1-1.05,4.26A7.5,7.5,0,0,1,56.43-.84,8.251,8.251,0,0,1,52.29.18ZM43.86,0V-22.26h2.88v10.59l-.3,3.69.18,3.69V0Zm8.19-2.34a5.46,5.46,0,0,0,2.745-.69,4.974,4.974,0,0,0,1.92-1.965A6.007,6.007,0,0,0,57.42-7.95a5.9,5.9,0,0,0-.705-2.955,5.028,5.028,0,0,0-1.92-1.935,5.46,5.46,0,0,0-2.745-.69,5.4,5.4,0,0,0-2.715.69,5.028,5.028,0,0,0-1.92,1.935,5.9,5.9,0,0,0-.7,2.955,6.007,6.007,0,0,0,.7,2.955,4.974,4.974,0,0,0,1.92,1.965A5.4,5.4,0,0,0,52.05-2.34ZM64.32,0V-15.9h2.76v4.32l-.27-1.08a4.884,4.884,0,0,1,2.22-2.52,7.788,7.788,0,0,1,3.84-.87v2.79a2.1,2.1,0,0,0-.345-.03H72.21a4.885,4.885,0,0,0-3.66,1.38A5.475,5.475,0,0,0,67.2-7.92V0ZM76.44,0l-.03-15.9,2.88.03V0Zm1.41-18.96a1.92,1.92,0,0,1-1.395-.54,1.771,1.771,0,0,1-.555-1.32,1.806,1.806,0,0,1,.555-1.35,1.92,1.92,0,0,1,1.395-.54,1.95,1.95,0,0,1,1.4.525A1.723,1.723,0,0,1,79.8-20.88a1.882,1.882,0,0,1-.54,1.365A1.879,1.879,0,0,1,77.85-18.96ZM91.35.18A8.273,8.273,0,0,1,87.225-.84,7.47,7.47,0,0,1,84.36-3.69a8.41,8.41,0,0,1-1.05-4.26A8.327,8.327,0,0,1,84.36-12.2a7.5,7.5,0,0,1,2.865-2.835,8.273,8.273,0,0,1,4.125-1.02,7.347,7.347,0,0,1,3.63.9,6.572,6.572,0,0,1,2.6,2.7,9.365,9.365,0,0,1,.975,4.5,9.613,9.613,0,0,1-.945,4.5A6.484,6.484,0,0,1,95.04-.735,7.372,7.372,0,0,1,91.35.18Zm.24-2.52A5.4,5.4,0,0,0,94.3-3.03a4.974,4.974,0,0,0,1.92-1.965,6.007,6.007,0,0,0,.7-2.955,5.9,5.9,0,0,0-.7-2.955A5.028,5.028,0,0,0,94.3-12.84a5.4,5.4,0,0,0-2.715-.69,5.377,5.377,0,0,0-2.73.69,5.169,5.169,0,0,0-1.92,1.935,5.8,5.8,0,0,0-.72,2.955,5.907,5.907,0,0,0,.72,2.955A5.11,5.11,0,0,0,88.86-3.03,5.377,5.377,0,0,0,91.59-2.34ZM97.02,0V-4.29l.18-3.69-.3-3.69V-22.26h2.88V0Zm13.53,0,9.51-21h2.97l9.54,21h-3.15l-8.49-19.32h1.2L113.64,0Zm4.05-5.25.81-2.4h11.82l.87,2.4ZM143.7.18a7.275,7.275,0,0,1-3.615-.915,6.644,6.644,0,0,1-2.61-2.715,9.365,9.365,0,0,1-.975-4.5,9.613,9.613,0,0,1,.945-4.5,6.359,6.359,0,0,1,2.58-2.7,7.493,7.493,0,0,1,3.675-.9,8.251,8.251,0,0,1,4.14,1.02,7.532,7.532,0,0,1,2.85,2.835,8.327,8.327,0,0,1,1.05,4.245,8.41,8.41,0,0,1-1.05,4.26,7.5,7.5,0,0,1-2.85,2.85A8.251,8.251,0,0,1,143.7.18Zm-8.43,5.64V-15.9h2.76v4.29l-.18,3.69.3,3.69V5.82Zm8.19-8.16a5.46,5.46,0,0,0,2.745-.69,4.974,4.974,0,0,0,1.92-1.965,6.007,6.007,0,0,0,.7-2.955,5.9,5.9,0,0,0-.7-2.955,5.028,5.028,0,0,0-1.92-1.935,5.46,5.46,0,0,0-2.745-.69,5.4,5.4,0,0,0-2.715.69,5.028,5.028,0,0,0-1.92,1.935,5.9,5.9,0,0,0-.705,2.955,6.007,6.007,0,0,0,.705,2.955,4.974,4.974,0,0,0,1.92,1.965A5.4,5.4,0,0,0,143.46-2.34ZM164.16.18a7.275,7.275,0,0,1-3.615-.915,6.644,6.644,0,0,1-2.61-2.715,9.365,9.365,0,0,1-.975-4.5,9.613,9.613,0,0,1,.945-4.5,6.359,6.359,0,0,1,2.58-2.7,7.493,7.493,0,0,1,3.675-.9,8.251,8.251,0,0,1,4.14,1.02,7.532,7.532,0,0,1,2.85,2.835A8.327,8.327,0,0,1,172.2-7.95a8.41,8.41,0,0,1-1.05,4.26A7.5,7.5,0,0,1,168.3-.84,8.251,8.251,0,0,1,164.16.18Zm-8.43,5.64V-15.9h2.76v4.29l-.18,3.69.3,3.69V5.82Zm8.19-8.16a5.46,5.46,0,0,0,2.745-.69,4.974,4.974,0,0,0,1.92-1.965,6.008,6.008,0,0,0,.705-2.955,5.9,5.9,0,0,0-.705-2.955,5.028,5.028,0,0,0-1.92-1.935,5.46,5.46,0,0,0-2.745-.69,5.4,5.4,0,0,0-2.715.69,5.028,5.028,0,0,0-1.92,1.935,5.9,5.9,0,0,0-.705,2.955,6.007,6.007,0,0,0,.705,2.955,4.974,4.974,0,0,0,1.92,1.965A5.4,5.4,0,0,0,163.92-2.34ZM3.15,37V16H12a12.771,12.771,0,0,1,5.925,1.32,9.751,9.751,0,0,1,3.99,3.69A10.446,10.446,0,0,1,23.34,26.5a10.446,10.446,0,0,1-1.425,5.49,9.751,9.751,0,0,1-3.99,3.69A12.771,12.771,0,0,1,12,37Zm3-2.61h5.67a9.67,9.67,0,0,0,4.515-.99,7.2,7.2,0,0,0,2.955-2.775A7.983,7.983,0,0,0,20.34,26.5a7.962,7.962,0,0,0-1.05-4.14,7.229,7.229,0,0,0-2.955-2.76,9.67,9.67,0,0,0-4.515-.99H6.15Zm28.44,2.79A9.257,9.257,0,0,1,30.1,36.13a7.566,7.566,0,0,1-3-2.88,8.2,8.2,0,0,1-1.065-4.2,8.383,8.383,0,0,1,1.035-4.2,7.471,7.471,0,0,1,2.85-2.865,8.118,8.118,0,0,1,4.1-1.035,8.024,8.024,0,0,1,4.08,1.02,7.22,7.22,0,0,1,2.775,2.865A8.861,8.861,0,0,1,41.88,29.14q0,.18-.015.42t-.045.45H28.29V27.94H40.32l-1.17.72a5.346,5.346,0,0,0-.63-2.73A4.814,4.814,0,0,0,36.7,24.055a5.648,5.648,0,0,0-5.355,0,4.756,4.756,0,0,0-1.83,1.89,5.72,5.72,0,0,0-.66,2.775v.48a5.47,5.47,0,0,0,.735,2.835A5.048,5.048,0,0,0,31.65,33.97a6.445,6.445,0,0,0,3.03.69,6.623,6.623,0,0,0,2.565-.48,5.618,5.618,0,0,0,2.025-1.44l1.59,1.86a6.964,6.964,0,0,1-2.685,1.92A9.345,9.345,0,0,1,34.59,37.18ZM49.74,37,42.78,21.1h3l6.18,14.4H50.52l6.3-14.4h2.82L52.68,37Zm19.23.18a9.257,9.257,0,0,1-4.485-1.05,7.566,7.566,0,0,1-3-2.88,8.2,8.2,0,0,1-1.065-4.2,8.383,8.383,0,0,1,1.035-4.2,7.471,7.471,0,0,1,2.85-2.865,8.119,8.119,0,0,1,4.1-1.035,8.024,8.024,0,0,1,4.08,1.02,7.22,7.22,0,0,1,2.775,2.865,8.861,8.861,0,0,1,1,4.305q0,.18-.015.42t-.045.45H62.67V27.94H74.7l-1.17.72a5.346,5.346,0,0,0-.63-2.73,4.814,4.814,0,0,0-1.815-1.875,5.648,5.648,0,0,0-5.355,0,4.756,4.756,0,0,0-1.83,1.89,5.72,5.72,0,0,0-.66,2.775v.48a5.47,5.47,0,0,0,.735,2.835A5.048,5.048,0,0,0,66.03,33.97a6.445,6.445,0,0,0,3.03.69,6.623,6.623,0,0,0,2.565-.48,5.618,5.618,0,0,0,2.025-1.44l1.59,1.86a6.964,6.964,0,0,1-2.685,1.92A9.345,9.345,0,0,1,68.97,37.18ZM80.25,37V14.74h2.88V37Zm15.18.18a8.847,8.847,0,0,1-4.26-1.065,7.6,7.6,0,0,1-2.925-2.865,8.2,8.2,0,0,1-1.065-4.2,7.745,7.745,0,0,1,1.065-4.185A8,8,0,0,1,91.185,22,8.37,8.37,0,0,1,95.4,20.95,8.6,8.6,0,0,1,99.675,22a7.708,7.708,0,0,1,2.94,2.865,8.115,8.115,0,0,1,1.065,4.185,8.2,8.2,0,0,1-1.065,4.2,7.54,7.54,0,0,1-2.955,2.865A8.9,8.9,0,0,1,95.43,37.18Zm0-2.52a5.46,5.46,0,0,0,2.745-.69,4.874,4.874,0,0,0,1.9-1.965,6.358,6.358,0,0,0,.72-2.955,6.236,6.236,0,0,0-.72-2.955,4.924,4.924,0,0,0-1.9-1.935,5.692,5.692,0,0,0-2.745-.72,5.6,5.6,0,0,0-2.73.72,5.169,5.169,0,0,0-1.92,1.935,5.8,5.8,0,0,0-.72,2.955,5.907,5.907,0,0,0,.72,2.955,5.145,5.145,0,0,0,1.9,1.965A5.355,5.355,0,0,0,95.43,34.66Zm20.67,2.52a7.275,7.275,0,0,1-3.615-.915,6.644,6.644,0,0,1-2.61-2.715,9.365,9.365,0,0,1-.975-4.5,9.613,9.613,0,0,1,.945-4.5,6.359,6.359,0,0,1,2.58-2.7,7.493,7.493,0,0,1,3.675-.9,8.251,8.251,0,0,1,4.14,1.02,7.532,7.532,0,0,1,2.85,2.835,8.327,8.327,0,0,1,1.05,4.245,8.41,8.41,0,0,1-1.05,4.26,7.5,7.5,0,0,1-2.85,2.85A8.251,8.251,0,0,1,116.1,37.18Zm-8.43,5.64V21.1h2.76v4.29l-.18,3.69.3,3.69V42.82Zm8.19-8.16a5.46,5.46,0,0,0,2.745-.69,4.974,4.974,0,0,0,1.92-1.965,6.007,6.007,0,0,0,.705-2.955,5.9,5.9,0,0,0-.705-2.955,5.028,5.028,0,0,0-1.92-1.935,5.46,5.46,0,0,0-2.745-.69,5.4,5.4,0,0,0-2.715.69,5.028,5.028,0,0,0-1.92,1.935,5.9,5.9,0,0,0-.705,2.955,6.007,6.007,0,0,0,.705,2.955,4.974,4.974,0,0,0,1.92,1.965A5.4,5.4,0,0,0,115.86,34.66Zm32.16-13.71a7.359,7.359,0,0,1,3.39.75,5.317,5.317,0,0,1,2.295,2.28,8.1,8.1,0,0,1,.825,3.87V37h-2.88V28.18a4.969,4.969,0,0,0-1.08-3.48,3.918,3.918,0,0,0-3.03-1.17,5.105,5.105,0,0,0-2.52.6,4.024,4.024,0,0,0-1.665,1.77,6.474,6.474,0,0,0-.585,2.91V37h-2.88V28.18a5.015,5.015,0,0,0-1.065-3.48,3.908,3.908,0,0,0-3.045-1.17,5.042,5.042,0,0,0-2.49.6,4.112,4.112,0,0,0-1.68,1.77,6.336,6.336,0,0,0-.6,2.91V37h-2.88V21.1h2.76v4.23l-.45-1.08a5.423,5.423,0,0,1,2.31-2.43,7.33,7.33,0,0,1,3.63-.87,6.806,6.806,0,0,1,3.93,1.125,5.329,5.329,0,0,1,2.16,3.405L141.3,25a5.977,5.977,0,0,1,2.52-2.94A7.838,7.838,0,0,1,148.02,20.95Zm18.9,16.23a9.257,9.257,0,0,1-4.485-1.05,7.566,7.566,0,0,1-3-2.88,8.2,8.2,0,0,1-1.065-4.2,8.383,8.383,0,0,1,1.035-4.2,7.471,7.471,0,0,1,2.85-2.865,8.119,8.119,0,0,1,4.1-1.035,8.024,8.024,0,0,1,4.08,1.02,7.22,7.22,0,0,1,2.775,2.865,8.861,8.861,0,0,1,1.005,4.305q0,.18-.015.42t-.045.45H160.62V27.94h12.03l-1.17.72a5.346,5.346,0,0,0-.63-2.73,4.814,4.814,0,0,0-1.815-1.875,5.648,5.648,0,0,0-5.355,0,4.756,4.756,0,0,0-1.83,1.89,5.72,5.72,0,0,0-.66,2.775v.48a5.47,5.47,0,0,0,.735,2.835,5.048,5.048,0,0,0,2.055,1.935,6.445,6.445,0,0,0,3.03.69,6.623,6.623,0,0,0,2.565-.48,5.618,5.618,0,0,0,2.025-1.44l1.59,1.86a6.964,6.964,0,0,1-2.685,1.92A9.346,9.346,0,0,1,166.92,37.18Zm19.77-16.23a7.521,7.521,0,0,1,3.435.75,5.382,5.382,0,0,1,2.325,2.28,7.977,7.977,0,0,1,.84,3.87V37h-2.88V28.18a4.839,4.839,0,0,0-1.125-3.48,4.185,4.185,0,0,0-3.165-1.17,5.654,5.654,0,0,0-2.67.6A4.109,4.109,0,0,0,181.7,25.9a6.206,6.206,0,0,0-.615,2.91V37H178.2V21.1h2.76v4.29l-.45-1.14a5.522,5.522,0,0,1,2.4-2.43A7.871,7.871,0,0,1,186.69,20.95Zm17.4,16.23a5.1,5.1,0,0,1-3.72-1.29,4.926,4.926,0,0,1-1.32-3.69V17.62h2.88V32.08a2.793,2.793,0,0,0,.645,1.98,2.4,2.4,0,0,0,1.845.69,3.4,3.4,0,0,0,2.25-.75l.9,2.07a4.187,4.187,0,0,1-1.575.84A6.7,6.7,0,0,1,204.09,37.18Zm-7.74-13.71V21.1h10.14v2.37Z" transform="translate(998 1892)" fill="#fff" opacity="0.8"/>
  </g>
</svg>
