<svg width="364" height="324" viewBox="0 0 364 324" fill="none" xmlns="http://www.w3.org/2000/svg">
<path d="M182 194.148C199.949 194.148 214.5 179.598 214.5 161.648C214.5 143.699 199.949 129.148 182 129.148C164.051 129.148 149.5 143.699 149.5 161.648C149.5 179.598 164.051 194.148 182 194.148Z" fill="#00D8FF"/>
<path d="M182 236.126C142.937 237.071 103.971 231.805 66.56 220.526C49.2781 215.047 33.1596 206.417 19.019 195.072C13.6231 191.196 9.12953 186.199 5.84665 180.423C2.56377 174.647 0.569268 168.229 2.81887e-06 161.61C1.99913e-06 140.121 23.608 119.061 63.154 105.281C101.566 93.0706 141.699 87.1528 182 87.7568C221.763 87.2013 261.359 93.012 299.286 104.969C315.93 110.275 331.502 118.488 345.28 129.227C350.584 132.922 355.01 137.738 358.245 143.334C361.48 148.931 363.445 155.17 364 161.61C364 183.944 337.61 206.577 295.1 220.643C258.413 231.555 220.27 236.776 182 236.126ZM182 103.305C143.443 102.789 105.051 108.415 68.263 119.971C31.863 132.672 15.548 150.04 15.548 161.571C15.548 173.635 33.085 192.602 71.591 205.771C107.381 216.507 144.646 221.505 182 220.578C218.613 221.233 255.111 216.279 290.225 205.888C330.2 192.641 348.4 173.648 348.4 161.61C347.744 157.479 346.239 153.529 343.979 150.009C341.719 146.489 338.753 143.476 335.27 141.161C322.943 131.634 309.032 124.355 294.177 119.659C257.894 108.268 220.025 102.747 182 103.305Z" fill="#00D8FF"/>
<path d="M108.155 323.719C102.09 323.858 96.0975 322.387 90.7869 319.455C72.1709 308.717 65.7229 277.751 73.5359 236.606C82.1503 197.23 97.0764 159.507 117.736 124.897C137.115 90.1755 161.925 58.778 191.225 31.8951C204.136 20.1263 219.03 10.7382 235.217 4.16609C241.072 1.4223 247.458 -6.75876e-06 253.924 -7.00541e-06C260.39 -7.25206e-06 266.776 1.4223 272.631 4.16609C291.988 15.3201 298.397 49.4841 289.362 93.3331C280.482 130.572 265.943 166.23 246.254 199.062C227.556 233.374 203.528 264.498 175.066 291.271C161.686 303.501 146.158 313.149 129.267 319.728C122.505 322.238 115.367 323.587 108.155 323.719ZM131.204 132.619C111.497 165.76 97.1916 201.827 88.8239 239.466C81.6349 277.361 88.5379 300.15 98.5739 305.948C108.974 311.967 134.22 306.26 164.874 279.48C192.044 253.83 214.979 224.038 232.825 191.21C251.687 159.822 265.633 125.731 274.178 90.1221C282.68 48.8471 275.335 23.5751 264.909 17.5691C261.001 16.0718 256.826 15.4016 252.646 15.6007C248.466 15.7999 244.373 16.8641 240.625 18.7261C226.217 24.6716 212.97 33.1123 201.495 43.6601C173.502 69.4103 149.803 99.4683 131.295 132.697L131.204 132.619Z" fill="#00D8FF"/>
<path d="M255.805 323.906C238.19 323.906 215.817 313.246 192.521 293.213C162.708 266.086 137.478 234.315 117.81 199.132C97.409 164.999 82.6012 127.821 73.9475 89.0092C70.1945 71.9336 69.4991 54.3277 71.8935 37.0092C72.4471 30.5847 74.4033 24.3599 77.6243 18.7737C80.8454 13.1874 85.2527 8.37586 90.5355 4.67824C109.867 -6.51476 142.666 4.99024 176.141 34.7082C203.968 60.9966 227.6 91.3974 246.21 124.85C266.598 158.187 281.561 194.55 290.541 232.581C294.455 250.283 295.059 268.557 292.322 286.479C291.67 293.089 289.597 299.479 286.245 305.212C282.893 310.945 278.34 315.885 272.9 319.694C267.676 322.59 261.776 324.043 255.805 323.906ZM131.265 191.306C150.133 224.93 174.233 255.336 202.661 281.383C231.898 306.538 255.09 311.946 265.061 306.083C275.461 300.038 283.131 275.364 275.227 235.441C266.567 199.131 252.215 164.421 232.704 132.598C214.943 100.581 192.387 71.4704 165.819 46.2782C134.307 18.3022 108.749 12.0492 98.3355 18.0812C95.09 20.7187 92.4266 24.0004 90.5135 27.7193C88.6004 31.4381 87.4791 35.5132 87.2205 39.6872C85.1536 55.1324 85.8269 70.821 89.2095 86.0322C97.5335 123.149 111.735 158.697 131.278 191.332L131.265 191.306Z" fill="#00D8FF"/>
</svg>
