<svg width="38" height="35" viewBox="0 0 38 35" fill="none" xmlns="http://www.w3.org/2000/svg">
<path d="M27.1017 0.03125V2.71875H32.1947L27.3704 7.29556C25.646 6.07154 23.5447 5.40837 21.384 5.40625C18.7109 5.40625 16.2152 6.40062 14.3254 8.17841C13.3914 9.0459 12.6498 10.0791 12.1437 11.2181C11.6376 12.357 11.3771 13.5791 11.3772 14.8135C11.3773 16.0478 11.6381 17.2698 12.1445 18.4087C12.6508 19.5476 13.3926 20.5806 14.3269 21.4479C15.5705 22.617 17.0514 23.4568 18.7038 23.8828C18.8667 23.7659 19.0497 23.6436 19.1955 23.5066C19.7947 22.9337 20.2252 22.2243 20.4448 21.4479C18.8886 21.2673 17.4417 20.6017 16.3352 19.5573C14.9858 18.2901 14.2368 16.6077 14.2368 14.8125C14.2368 13.0173 14.9873 11.3376 16.3381 10.0691C17.6846 8.79653 19.4743 8.09375 21.384 8.09375C23.2937 8.09375 25.0819 8.79922 26.4299 10.0691C27.0968 10.6895 27.626 11.4283 27.9867 12.2426C28.3474 13.0569 28.5325 13.9304 28.5311 14.8125C28.5311 15.9748 28.1809 17.0566 27.5934 18.0456C27.7306 18.7389 27.8164 19.4673 27.8164 20.1875C27.8164 20.8567 27.7564 21.5178 27.6377 22.1628C27.9236 21.9438 28.178 21.6952 28.4425 21.4479C30.3322 19.6688 31.39 17.3253 31.39 14.8125C31.39 12.7566 30.6695 10.8028 29.3802 9.18488L34.2488 4.65106V9.4375H37.1077V0.03125H27.1017ZM18.3464 11.1172C18.1835 11.2341 18.0005 11.3564 17.8547 11.4934C17.2372 12.0766 16.8341 12.7834 16.6054 13.5534C18.1635 13.7415 19.5857 14.3812 20.715 15.4427C22.0658 16.7099 22.8163 18.3923 22.8163 20.1862C22.8163 21.9801 22.0658 23.6611 20.715 24.9296C19.3656 26.2035 17.576 26.9062 15.6663 26.9062C13.7565 26.9062 11.9683 26.2008 10.6204 24.9309C9.9529 24.3109 9.42336 23.5721 9.06261 22.7577C8.70185 21.9434 8.5171 21.0697 8.51911 20.1875C8.51911 19.0252 8.86932 17.9434 9.45681 16.9544C9.31329 16.2483 9.23865 15.5314 9.23382 14.8125C9.23382 14.1433 9.29386 13.4822 9.4125 12.8372C9.12661 13.0562 8.87361 13.3048 8.60773 13.5534C6.72089 15.3285 5.66025 17.6747 5.66025 20.1875C5.66025 22.2434 6.38068 24.1973 7.67003 25.8151L5.26001 28.082L2.40115 25.3945L0.342773 27.2838L3.20163 29.9713L0.342773 32.6588L2.40115 34.5938L5.26001 31.9063L8.11887 34.5938L10.1272 32.6588L7.26836 29.9713L9.68123 27.7058C11.4039 28.9317 13.5056 29.5947 15.6663 29.5938C18.3393 29.5938 20.8351 28.5994 22.7248 26.8216C24.6145 25.0465 25.6723 22.7003 25.6723 20.1875C25.6723 17.6747 24.6145 15.3312 22.7233 13.5521C21.4797 12.383 19.9989 11.5432 18.3464 11.1172Z" fill="#0F52BA"/>
</svg>
