<svg width="521" height="293" viewBox="0 0 521 293" fill="none" xmlns="http://www.w3.org/2000/svg">
<path d="M127.07 273.685C120.772 268.104 115.207 260.628 115.395 252.216C115.622 242.079 124.182 233.925 133.381 229.653C144.037 224.703 156.33 223.355 167.804 225.881C153.463 222.886 139.913 216.166 128.845 206.563C123.619 202.027 118.862 196.741 116.08 190.404C113.296 184.065 112.679 176.544 115.58 170.26C118.781 163.321 125.98 158.699 133.529 157.55C141.084 156.4 148.875 158.41 155.59 162.051C137.656 150.72 125.222 131.066 122.665 110.001C121.607 101.287 122.892 91.0274 130.237 86.2233C138.876 80.5747 150.256 85.6342 159.244 90.712C148.043 72.5696 141.25 51.7267 139.616 30.4693C138.797 19.8471 140.367 7.1709 149.683 2.0097C156.247 -1.62921 164.768 -0.00265185 170.922 4.29575C177.076 8.59414 181.278 15.1238 184.857 21.7213C210.955 69.8561 211.114 127.722 205.004 182.141C208.367 175.176 211.946 167.94 218.116 163.276C224.283 158.616 233.865 157.482 239.394 162.891C246.427 169.77 242.965 181.513 239.058 190.54C243.898 183.627 253.733 181.15 261.694 183.953C269.655 186.752 275.356 194.176 277.67 202.296C280.389 211.831 280.624 234.201 278.705 242.423C273.283 265.659 250.441 291.113 250.441 291.113C250.441 291.113 196.191 291.113 174.418 290.776C157.607 290.518 139.436 284.64 127.07 273.685Z" fill="#F2F0FF"/>
<path d="M243.207 276.344C243.108 276.344 243.006 276.305 242.933 276.23C226.04 259.013 206.894 239.502 196.576 215.726C184.742 188.458 185.063 157.757 185.373 128.067C185.399 125.457 185.425 122.853 185.446 120.26C185.668 89.66 184.354 54.7254 165.828 27.3319C165.708 27.1547 165.755 26.9149 165.932 26.795C166.11 26.675 166.349 26.722 166.469 26.8992C185.12 54.4726 186.442 89.5505 186.22 120.262C186.202 122.861 186.173 125.465 186.147 128.077C185.837 157.684 185.519 188.302 197.285 215.419C207.548 239.061 226.639 258.52 243.483 275.687C243.635 275.839 243.632 276.084 243.478 276.235C243.405 276.308 243.306 276.344 243.207 276.344Z" fill="white"/>
<path d="M192.107 264.094C179.285 264.094 166.468 262.593 154.032 259.598C153.823 259.548 153.696 259.34 153.745 259.131C153.795 258.923 154 258.795 154.212 258.845C178.089 264.595 203.379 264.806 227.344 259.455C227.563 259.405 227.761 259.541 227.806 259.749C227.853 259.955 227.722 260.164 227.514 260.211C215.917 262.799 204.012 264.094 192.107 264.094Z" fill="white"/>
<path d="M201.53 225.122C201.507 225.122 201.481 225.12 201.457 225.114C201.246 225.075 201.108 224.872 201.147 224.663C204.098 209.01 212.398 194.697 224.513 184.362C224.675 184.224 224.92 184.242 225.061 184.409C225.199 184.57 225.178 184.815 225.017 184.951C213.034 195.172 204.825 209.326 201.908 224.807C201.875 224.992 201.713 225.122 201.53 225.122Z" fill="white"/>
<path d="M185.753 157.706C185.612 157.706 185.474 157.628 185.406 157.492C175.595 137.679 162.932 119.474 147.769 103.38C147.623 103.227 147.63 102.982 147.787 102.833C147.943 102.687 148.188 102.695 148.334 102.851C163.547 118.997 176.252 137.267 186.1 157.148C186.193 157.338 186.115 157.57 185.925 157.667C185.87 157.693 185.813 157.706 185.753 157.706Z" fill="white"/>
<path d="M178.917 54.3108C178.891 54.3108 178.865 54.3108 178.839 54.3056C178.63 54.2612 178.495 54.0579 178.537 53.8494C181.089 41.0141 178.844 27.131 172.38 15.7555C172.275 15.5705 172.341 15.3332 172.528 15.229C172.711 15.1195 172.948 15.1847 173.055 15.3723C179.608 26.9069 181.884 40.9855 179.295 54.0006C179.259 54.183 179.097 54.3108 178.917 54.3108Z" fill="white"/>
<path d="M458.756 276.478C463.854 271.96 468.361 265.908 468.207 259.096C468.025 250.885 461.094 244.288 453.647 240.826C445.019 236.82 435.066 235.728 425.776 237.774C437.386 235.347 448.358 229.907 457.319 222.131C461.55 218.459 465.403 214.181 467.655 209.048C469.91 203.916 470.407 197.829 468.059 192.739C465.468 187.124 459.639 183.381 453.524 182.447C447.411 181.517 441.101 183.146 435.663 186.094C450.188 176.919 460.252 161.008 462.324 143.952C463.182 136.896 462.139 128.588 456.193 124.699C449.2 120.125 439.982 124.222 432.705 128.333C441.776 113.647 447.273 96.7714 448.597 79.5596C449.26 70.9576 447.993 60.6951 440.446 56.5166C435.131 53.5685 428.234 54.8875 423.25 58.3674C418.269 61.8447 414.867 67.131 411.971 72.4747C390.839 111.447 390.709 158.302 395.656 202.357C392.935 196.719 390.036 190.862 385.042 187.085C380.047 183.31 372.29 182.393 367.814 186.774C362.119 192.342 364.921 201.851 368.085 209.161C364.165 203.561 356.202 201.557 349.755 203.825C343.312 206.092 338.698 212.103 336.824 218.677C334.621 226.398 334.431 244.51 335.984 251.167C340.376 269.977 358.871 290.588 358.871 290.588C358.871 290.588 402.791 290.588 420.422 290.317C434.034 290.108 448.741 285.348 458.756 276.478Z" fill="#F2F0FF"/>
<path d="M364.725 278.629C364.806 278.629 364.887 278.598 364.946 278.535C378.624 264.598 394.126 248.799 402.48 229.551C412.059 207.472 411.801 182.613 411.551 158.577C411.53 156.462 411.507 154.354 411.491 152.253C411.311 127.482 412.377 99.194 427.374 77.0138C427.473 76.8731 427.434 76.6776 427.29 76.5811C427.147 76.4847 426.951 76.5212 426.855 76.6646C411.757 98.9907 410.686 127.39 410.866 152.258C410.879 154.359 410.902 156.47 410.923 158.582C411.176 182.555 411.434 207.345 401.904 229.301C393.596 248.441 378.139 264.196 364.501 278.097C364.378 278.22 364.381 278.418 364.503 278.541C364.566 278.601 364.644 278.629 364.725 278.629Z" fill="white"/>
<path d="M406.097 268.711C416.474 268.711 426.854 267.496 436.926 265.072C437.093 265.031 437.197 264.861 437.158 264.692C437.114 264.525 436.95 264.421 436.777 264.462C417.446 269.118 396.971 269.29 377.567 264.955C377.39 264.916 377.231 265.025 377.192 265.192C377.153 265.362 377.259 265.528 377.429 265.568C386.818 267.663 396.458 268.711 406.097 268.711Z" fill="white"/>
<path d="M398.469 237.159C398.487 237.159 398.508 237.157 398.529 237.154C398.698 237.123 398.81 236.956 398.776 236.789C396.388 224.113 389.671 212.526 379.86 204.159C379.727 204.047 379.531 204.062 379.416 204.193C379.304 204.326 379.32 204.524 379.453 204.636C389.155 212.909 395.799 224.371 398.161 236.904C398.19 237.052 398.323 237.159 398.469 237.159Z" fill="white"/>
<path d="M411.24 182.574C411.355 182.574 411.467 182.512 411.522 182.4C419.467 166.361 429.719 151.62 441.994 138.592C442.114 138.464 442.106 138.266 441.981 138.149C441.856 138.029 441.658 138.034 441.538 138.162C429.221 151.234 418.933 166.027 410.961 182.121C410.883 182.277 410.946 182.468 411.102 182.543C411.146 182.567 411.193 182.574 411.24 182.574Z" fill="white"/>
<path d="M416.781 98.8576C416.799 98.8576 416.82 98.8576 416.84 98.8524C417.01 98.8211 417.122 98.6543 417.088 98.4849C415.024 88.0947 416.838 76.8521 422.069 67.6428C422.155 67.4916 422.103 67.3013 421.952 67.2153C421.801 67.1292 421.611 67.1814 421.525 67.3326C416.217 76.6723 414.377 88.0712 416.473 98.6074C416.502 98.756 416.632 98.8576 416.781 98.8576Z" fill="white"/>
<path d="M110.521 291.112H49.6759C49.6759 291.112 21.6282 288.02 21.6282 261.276C21.6282 234.532 42.5441 244.515 42.5441 244.515C42.5441 244.515 25.9083 232.866 40.1668 227.517C40.1668 227.517 2.61515 174.581 15.4478 127.053C28.283 79.5234 53.6146 53.2508 73.4435 64.3082C113.743 86.7855 34.4634 169.662 48.7245 199.242C48.7245 199.242 54.4279 178.079 65.8373 182.294C77.2467 186.506 79.6239 195.28 74.395 210.866C74.395 210.866 84.6183 203.4 88.6561 218.365C88.6561 218.365 100.232 206.132 122.491 212.01C144.749 217.888 149.59 268.765 144.079 291.112H110.521Z" fill="#F2F0FF"/>
<path d="M102.435 285.422C102.383 285.422 102.331 285.404 102.284 285.368C86.4927 272.452 73.0527 258.006 62.3419 242.436C50.724 225.55 42.6329 207.746 38.2876 189.523C33.7103 170.322 33.5669 150.126 37.8757 131.113C42.38 111.24 51.6181 93.5847 64.5941 80.0587C64.6853 79.9623 64.8339 79.9597 64.9303 80.0509C65.0242 80.1421 65.0294 80.2907 64.9382 80.3872C39.1582 107.262 29.1225 149.039 38.749 189.411C47.0329 224.155 69.7031 258.105 102.586 285C102.688 285.084 102.704 285.235 102.62 285.334C102.573 285.391 102.503 285.422 102.435 285.422Z" fill="white"/>
<path d="M35.0638 153.562C34.9752 153.562 34.8865 153.512 34.8474 153.424C30.5855 144.238 28.0127 134.038 27.4106 123.927C27.4028 123.796 27.4992 123.684 27.6322 123.677C27.7651 123.666 27.8746 123.768 27.8824 123.898C28.4845 133.949 31.0417 144.092 35.2801 153.226C35.3349 153.346 35.2827 153.486 35.1628 153.541C35.1316 153.557 35.0977 153.562 35.0638 153.562Z" fill="white"/>
<path d="M52.5241 226.367C52.5136 226.367 52.5032 226.365 52.4954 226.365C52.3651 226.349 52.2712 226.229 52.2869 226.099C53.439 216.624 56.1786 207.485 60.4353 198.94C60.4953 198.823 60.6386 198.776 60.7533 198.833C60.8706 198.893 60.9201 199.034 60.8602 199.154C56.6296 207.649 53.903 216.736 52.7587 226.156C52.7456 226.279 52.6414 226.367 52.5241 226.367Z" fill="white"/>
<path d="M83.9164 268.835C83.9138 268.835 83.9112 268.835 83.906 268.835C67.6352 267.969 51.5598 264.873 36.1257 259.641C36.0032 259.599 35.9355 259.464 35.9772 259.341C36.0215 259.216 36.1544 259.148 36.2795 259.19C51.6719 264.411 67.7029 267.497 83.9294 268.36C84.0624 268.368 84.1614 268.478 84.1562 268.611C84.1484 268.738 84.0441 268.835 83.9164 268.835Z" fill="white"/>
<path d="M361.536 41.9238H190.594C186.235 41.9238 182.703 45.4559 182.703 49.8142V282.704C182.703 287.063 186.235 290.597 190.594 290.597H361.536C365.895 290.597 369.427 287.063 369.427 282.704V49.8142C369.427 45.4559 365.895 41.9238 361.536 41.9238Z" fill="#3F327A"/>
<path d="M363.128 284.359H189.328V47.3789H363.128V284.359Z" fill="#F2F0FF"/>
<path d="M351.825 86.7444H199.463V61.4102H351.825V86.7444Z" fill="#8B77E8"/>
<path d="M244.726 140.865H200.691V121.08H244.726V140.865Z" fill="#8B77E8"/>
<path d="M304.674 207.664H199.461V184.092H304.674V207.664Z" fill="#8B77E8"/>
<path d="M332.494 259.414H278.176V238.764H332.494V259.414Z" fill="#8B77E8"/>
<path d="M351.825 154.875H204.137C203.383 154.875 202.773 154.265 202.773 153.512C202.773 152.758 203.383 152.148 204.137 152.148H351.825C352.579 152.148 353.191 152.758 353.191 153.512C353.191 154.265 352.579 154.875 351.825 154.875Z" fill="#8B77E8"/>
<path d="M322.274 167.233H204.137C203.383 167.233 202.773 166.621 202.773 165.87C202.773 165.116 203.383 164.504 204.137 164.504H322.274C323.027 164.504 323.637 165.116 323.637 165.87C323.637 166.621 323.027 167.233 322.274 167.233Z" fill="#8B77E8"/>
<path d="M248.171 96.3084H200.693C200.37 96.3084 200.109 96.0477 200.109 95.7245C200.109 95.4013 200.37 95.1406 200.693 95.1406H248.171C248.494 95.1406 248.758 95.4013 248.758 95.7245C248.758 96.0477 248.494 96.3084 248.171 96.3084Z" fill="#8B77E8"/>
<path d="M233.686 101.768H200.693C200.37 101.768 200.109 101.505 200.109 101.182C200.109 100.858 200.37 100.598 200.693 100.598H233.686C234.009 100.598 234.27 100.858 234.27 101.182C234.27 101.505 234.009 101.768 233.686 101.768Z" fill="#8B77E8"/>
<path d="M241.48 106.649H200.693C200.37 106.649 200.109 106.386 200.109 106.062C200.109 105.739 200.37 105.479 200.693 105.479H241.48C241.803 105.479 242.064 105.739 242.064 106.062C242.064 106.386 241.803 106.649 241.48 106.649Z" fill="#8B77E8"/>
<path d="M351.825 122.012H272.394C272.071 122.012 271.811 121.752 271.811 121.428C271.811 121.105 272.071 120.842 272.394 120.842H351.825C352.148 120.842 352.409 121.105 352.409 121.428C352.409 121.752 352.148 122.012 351.825 122.012Z" fill="#8B77E8"/>
<path d="M315.78 127.691H272.394C272.071 127.691 271.811 127.431 271.811 127.107C271.811 126.784 272.071 126.523 272.394 126.523H315.78C316.103 126.523 316.364 126.784 316.364 127.107C316.364 127.431 316.103 127.691 315.78 127.691Z" fill="#8B77E8"/>
<path d="M331.365 133.371H272.394C272.071 133.371 271.811 133.11 271.811 132.787C271.811 132.464 272.071 132.203 272.394 132.203H331.365C331.688 132.203 331.952 132.464 331.952 132.787C331.952 133.11 331.688 133.371 331.365 133.371Z" fill="#8B77E8"/>
<path d="M292.917 140.844H272.394C272.071 140.844 271.811 140.583 271.811 140.26C271.811 139.936 272.071 139.676 272.394 139.676H292.917C293.24 139.676 293.501 139.936 293.501 140.26C293.501 140.583 293.24 140.844 292.917 140.844Z" fill="#8B77E8"/>
<path d="M349.549 185.057H312.109C311.786 185.057 311.525 184.794 311.525 184.471C311.525 184.15 311.786 183.887 312.109 183.887H349.549C349.872 183.887 350.135 184.15 350.135 184.471C350.135 184.794 349.872 185.057 349.549 185.057Z" fill="#8B77E8"/>
<path d="M332.493 192.193H312.109C311.786 192.193 311.525 191.933 311.525 191.609C311.525 191.286 311.786 191.025 312.109 191.025H332.493C332.817 191.025 333.08 191.286 333.08 191.609C333.08 191.933 332.817 192.193 332.493 192.193Z" fill="#8B77E8"/>
<path d="M270.313 239.35H199.462C199.138 239.35 198.875 239.087 198.875 238.764C198.875 238.44 199.138 238.18 199.462 238.18H270.313C270.637 238.18 270.9 238.44 270.9 238.764C270.9 239.087 270.637 239.35 270.313 239.35Z" fill="#8B77E8"/>
<path d="M270.313 244.942H199.462C199.138 244.942 198.875 244.681 198.875 244.358C198.875 244.035 199.138 243.771 199.462 243.771H270.313C270.637 243.771 270.9 244.035 270.9 244.358C270.9 244.681 270.637 244.942 270.313 244.942Z" fill="#8B77E8"/>
<path d="M241.478 251.178H199.462C199.138 251.178 198.875 250.918 198.875 250.594C198.875 250.271 199.138 250.008 199.462 250.008H241.478C241.802 250.008 242.062 250.271 242.062 250.594C242.062 250.918 241.802 251.178 241.478 251.178Z" fill="#8B77E8"/>
<path d="M258.234 257.422H199.462C199.138 257.422 198.875 257.161 198.875 256.838C198.875 256.515 199.138 256.254 199.462 256.254H258.234C258.557 256.254 258.821 256.515 258.821 256.838C258.821 257.161 258.557 257.422 258.234 257.422Z" fill="#8B77E8"/>
<path d="M225.775 73.7202C225.775 78.6703 221.766 82.6845 216.816 82.6845C211.863 82.6845 207.852 78.6703 207.852 73.7202C207.852 68.7701 211.863 64.7559 216.816 64.7559C221.766 64.7559 225.775 68.7701 225.775 73.7202Z" fill="#E4E0FF"/>
<path d="M314.406 68.7322H234.973C234.652 68.7322 234.389 68.4716 234.389 68.1483C234.389 67.8251 234.652 67.5645 234.973 67.5645H314.406C314.726 67.5645 314.989 67.8251 314.989 68.1483C314.989 68.4716 314.726 68.7322 314.406 68.7322Z" fill="#E4E0FF"/>
<path d="M278.358 74.4165H234.973C234.652 74.4165 234.389 74.1532 234.389 73.83C234.389 73.5068 234.652 73.2461 234.973 73.2461H278.358C278.679 73.2461 278.944 73.5068 278.944 73.83C278.944 74.1532 278.679 74.4165 278.358 74.4165Z" fill="#E4E0FF"/>
<path d="M293.946 80.0962H234.973C234.652 80.0962 234.389 79.8329 234.389 79.5097C234.389 79.1864 234.652 78.9258 234.973 78.9258H293.946C294.269 78.9258 294.53 79.1864 294.53 79.5097C294.53 79.8329 294.269 80.0962 293.946 80.0962Z" fill="#E4E0FF"/>
<path d="M104.373 290.597H70.8594V246.057H104.373V290.597Z" fill="#8B77E8"/>
<path d="M68.9124 290.599H35.3984V261.164H68.9124V290.599Z" fill="#634AC9"/>
<path d="M139.834 290.598H106.32V231.729H139.834V290.598Z" fill="#634AC9"/>
<path d="M175.295 290.596H141.781V218.559H175.295V290.596Z" fill="#8B77E8"/>
<path d="M129.536 94.4244C128.997 96.5775 130.748 97.6645 132.883 98.2901C134.02 98.2484 134.942 98.1155 135.339 97.8261C135.998 97.3413 135.62 95.7773 135.01 94.2133L136.035 93.5121L134.421 91.7578C132.508 93.0194 129.948 93.1863 129.536 94.4244Z" fill="#FF96A9"/>
<path d="M129.536 94.4238C129.948 93.1856 132.508 93.0188 134.421 91.7571L133.193 90.4199C133.193 90.4199 124.912 90.6154 123.356 92.2733C121.794 93.9285 125.107 97.8255 125.107 97.8255C125.107 97.8255 128.637 98.2582 131.593 98.2999C132.041 98.3051 132.476 98.3025 132.883 98.2895C130.748 97.6639 128.997 96.5769 129.536 94.4238Z" fill="#ED7E94"/>
<path d="M125.107 97.8265C125.107 97.8265 125.107 97.8265 124.781 98.4704C125.787 99.2185 126.88 99.8415 128.016 100.204C128.955 98.241 129.883 96.7552 129.883 96.7552C129.095 95.2355 125.107 97.8265 125.107 97.8265Z" fill="#ED7E94"/>
<path d="M129.003 93.3464C129.003 93.3464 134.751 93.1509 141.765 84.4785C141.765 84.4785 125.401 86.4283 119.066 92.4706C119.066 92.4706 119.942 96.3675 125.106 97.8273L126.373 94.9052C126.373 94.9052 125.205 93.2473 126.472 92.2751C127.739 91.3002 129.003 93.3464 129.003 93.3464Z" fill="#3F327A"/>
<path d="M150.435 163.991C138.745 167.108 126.665 169.058 114.586 169.058C113.942 164.546 112.766 160.031 112.156 155.521C107.081 160.591 97.7781 171.313 107.832 173.085C121.082 175.423 144.982 169.186 144.982 169.186C141.062 187.484 148.274 207.97 150.712 214.117C150.534 212.889 150.435 211.643 150.435 210.374C150.435 194.783 148.1 179.581 150.435 163.991Z" fill="#7860DC"/>
<path d="M162.645 158.535C146.019 150.478 114.958 152.866 114.958 152.866C114.958 152.866 113.77 153.908 112.156 155.522C112.766 160.032 113.942 164.546 114.586 169.058C126.665 169.058 138.744 167.109 150.435 163.991C148.1 179.582 150.435 194.784 150.435 210.374C150.435 211.644 150.534 212.89 150.711 214.117C151.181 215.303 151.475 215.96 151.475 215.96C160.567 195.951 162.645 158.535 162.645 158.535Z" fill="#8B77E8"/>
<path d="M103.283 175.684C109.591 169.373 113.071 161.368 114.927 152.865L96.0099 153.851C96.0099 153.851 93.8829 158.926 91.0703 167.137C94.4772 170.763 98.8799 173.333 103.283 175.684Z" fill="#7860DC"/>
<path d="M91.0717 167.137C85.1285 184.484 76.112 215.863 77.5666 243.113C77.5666 243.113 77.7595 242.892 78.1114 242.459C79.0836 217.094 84.3361 192.002 91.5696 167.648C91.4028 167.478 91.2359 167.309 91.0717 167.137Z" fill="#7860DC"/>
<path d="M114.928 152.865C113.072 161.368 109.592 169.373 103.284 175.684C99.0924 173.445 94.9009 171.005 91.5696 167.648C84.3361 192.002 79.0836 217.094 78.1113 242.459C82.3758 237.233 110.502 201.154 114.959 152.865H114.928Z" fill="#8B77E8"/>
<path d="M101.728 131.122L87.6992 161.263C87.6992 161.263 92.764 169.709 103.806 170.879C103.806 170.879 113.938 160.875 119.068 140.605C124.198 120.338 101.728 131.122 101.728 131.122Z" fill="#8B77E8"/>
<path d="M179.129 103.927C179.444 104.511 179.697 105.129 179.874 105.77C180.166 105.338 180.453 104.9 180.735 104.454C180.855 104.264 180.967 104.079 181.076 103.896C180.844 103.291 180.57 102.702 180.25 102.152C180.075 102.502 179.89 102.848 179.663 103.187C179.489 103.437 179.309 103.68 179.129 103.927Z" fill="#DAD8E6"/>
<path d="M176.459 99.0742C176.141 99.4339 175.792 99.8223 175.422 100.229C177.051 101.1 178.31 102.4 179.129 103.928C179.308 103.68 179.488 103.438 179.663 103.188C179.89 102.849 180.075 102.502 180.249 102.153C179.397 100.688 178.198 99.5017 176.459 99.0742Z" fill="#F2F0FF"/>
<path d="M104.616 155.902C104.491 155.902 104.366 155.873 104.246 155.808L95.6077 151.126C95.2297 150.92 95.089 150.449 95.2923 150.068C95.4982 149.693 95.9726 149.552 96.3506 149.755L104.989 154.437C105.37 154.643 105.508 155.115 105.305 155.495C105.164 155.753 104.895 155.902 104.616 155.902Z" fill="#7860DC"/>
<path d="M103.975 107.067C104.196 107.414 104.41 107.766 104.616 108.123C108.917 106.074 113.348 104.265 117.79 102.568C114.232 103.371 109.519 104.74 103.975 107.067Z" fill="#7860DC"/>
<path d="M107.98 115.851C108.139 116.317 108.293 116.781 108.444 117.248C108.859 117.136 109.284 117.026 109.717 116.925C110.102 116.33 110.569 115.78 111.077 115.27C110.027 115.387 108.997 115.59 107.98 115.851Z" fill="#8B77E8"/>
<path d="M175.422 100.229C170.548 105.603 161.492 114.886 154.629 117.803C154.629 117.803 135.24 102.212 125.108 101.43C125.108 101.43 122.431 101.521 117.791 102.567C113.35 104.264 108.918 106.073 104.617 108.122C106.025 110.538 107.073 113.178 107.982 115.85C108.999 115.59 110.029 115.386 111.079 115.269C110.571 115.78 110.104 116.33 109.718 116.924C119.454 114.599 133.778 114.685 133.778 114.685C133.778 114.685 146.074 123.357 152.734 126.535C162.975 121.103 171.942 113.851 179.129 103.927C178.31 102.4 177.051 101.099 175.422 100.229Z" fill="#8B77E8"/>
<path d="M152.732 126.535C153.236 126.775 153.71 126.986 154.137 127.158C154.137 127.158 169.689 120.882 179.873 105.771C179.696 105.129 179.443 104.512 179.128 103.928C171.941 113.851 162.974 121.103 152.732 126.535Z" fill="#7860DC"/>
<path d="M125.17 114.947C129.416 114.701 132.753 114.683 133.579 114.683L135.685 112.087L130.245 110.982L131.929 109.553L129.004 102.27C127.821 101.89 126.695 101.619 125.657 101.488L125.17 114.947Z" fill="#7860DC"/>
<path d="M188.539 93.78C188.776 93.2821 188.82 92.8573 188.82 92.8573L181.123 89.6406C181.123 89.6406 179.077 92.4871 178.881 96.2772C178.881 96.2772 177.974 97.372 176.457 99.0742C178.196 99.5017 179.395 100.688 180.247 102.153C181.861 98.8578 181.332 95.0547 182.39 91.8824C184.006 93.5011 186.425 94.575 188.539 93.78Z" fill="#FF96A9"/>
<path d="M182.391 91.8828C181.332 95.0551 181.862 98.8583 180.248 102.153C180.569 102.703 180.842 103.292 181.074 103.897C184.135 98.7227 182.683 96.2777 182.683 96.2777L183.027 93.4416C183.027 93.4416 184.533 95.6833 186.58 95.2923C187.693 95.0812 188.256 94.38 188.54 93.7805C186.426 94.5755 184.007 93.5016 182.391 91.8828Z" fill="#ED7E94"/>
<path d="M122.297 101.727C121.304 101.87 120.069 102.078 118.611 102.389L116.795 110.008L119.521 111.34L114.49 113.29L114.933 115.943C117.936 115.503 121.049 115.213 123.856 115.028L122.297 101.727Z" fill="#7860DC"/>
<path d="M122.937 102.115C120.769 106.401 125.985 110.3 126.084 106.5C126.133 104.6 127.082 102.162 128.018 100.202C126.881 99.8399 125.789 99.2169 124.783 98.4688C124.499 99.0344 123.957 100.103 122.937 102.115Z" fill="#FF96A9"/>
<path d="M121.346 101.868C121.346 101.868 123.246 112.104 121.346 118.827C119.446 125.549 127.044 120.386 127.044 120.386C127.044 120.386 129.028 115.037 127.297 101.792C127.297 101.792 125.996 101.482 125.014 101.435C123.94 101.386 121.346 101.868 121.346 101.868Z" fill="#F2F0FF"/>
<path d="M125.169 105.346L124.035 107.507L125.26 108.833L126.212 107.441L125.169 105.346Z" fill="#E5649A"/>
<path d="M125.22 107.922L125.126 107.703L122.41 117.249L125.413 116.97C125.713 113.92 125.496 111.006 125.22 107.922Z" fill="#DB4A87"/>
<path d="M125.219 107.922C125.495 111.006 125.711 113.92 125.412 116.97L128.972 116.633L125.219 107.922Z" fill="#E5649A"/>
<path d="M52.7969 128.202L160.867 106.635L167.102 139.375L59.1598 159.772L52.7969 128.202Z" fill="#FFCC46"/>
<path d="M87.7086 129.782C87.3437 129.789 87.0127 129.537 86.9319 129.166C86.8406 128.744 87.1091 128.33 87.5314 128.241L150.243 114.754C150.662 114.663 151.079 114.931 151.168 115.354C151.259 115.773 150.991 116.188 150.571 116.279L87.8572 129.763C87.8103 129.776 87.7582 129.782 87.7086 129.782Z" fill="#FE9736"/>
<path d="M91.0848 137.404C90.7147 137.412 90.381 137.154 90.308 136.779C90.2246 136.356 90.4957 135.944 90.9206 135.861L122.863 129.49C123.282 129.404 123.694 129.681 123.778 130.103C123.864 130.525 123.587 130.937 123.168 131.02L91.2256 137.391C91.1787 137.399 91.1317 137.404 91.0848 137.404Z" fill="#FE9736"/>
<path d="M91.8633 145.621C91.4905 145.628 91.1569 145.37 91.0813 144.992C90.9979 144.573 91.2742 144.161 91.6964 144.077L142.779 133.974C143.202 133.891 143.611 134.164 143.694 134.587C143.778 135.009 143.501 135.418 143.082 135.501L91.9988 145.605C91.9545 145.615 91.9076 145.621 91.8633 145.621Z" fill="#FE9736"/>
<path d="M77.4313 239.314L71.7227 246.235H98.2194L77.4313 239.314Z" fill="#3F327A"/>
<path d="M149.732 211.641L144.023 218.559H170.52L149.732 211.641Z" fill="#3F327A"/>
<path d="M81.4634 124.234C87.9853 117.248 96.0347 112.207 104.618 108.12C104.41 107.765 104.199 107.413 103.975 107.066C96.4361 110.231 87.3649 115.165 77.5664 122.871C77.5664 122.871 85.84 138.31 99.5667 147.65C99.6162 146.844 99.7987 146.062 100.078 145.311C92.7998 139.36 87.6151 131.311 81.4634 124.234Z" fill="#7860DC"/>
<path d="M107.833 117.251C108.023 117.197 108.203 117.163 108.398 117.108C108.263 116.686 108.125 116.269 107.984 115.852C103.469 117.019 99.2986 119.498 95.4746 122.274C98.3472 120.757 102.646 118.771 107.833 117.251Z" fill="#7860DC"/>
<path d="M81.4648 124.234C87.6166 131.311 92.8012 139.36 100.079 145.311C100.84 143.278 102.355 141.495 104.135 140.194C100.405 136.839 94.9413 131.217 91.597 124.526C91.597 124.526 93.0072 123.574 95.4757 122.273C99.2997 119.497 103.47 117.018 107.985 115.851C107.073 113.158 106.043 110.556 104.62 108.119C96.0361 112.206 87.9867 117.248 81.4648 124.234Z" fill="#8B77E8"/>
<path d="M106.4 149.572C104.967 148.801 103.614 147.951 102.326 147.033C102.104 147.706 101.943 148.399 101.844 149.1C102.289 149.369 102.733 149.637 103.186 149.89C103.186 149.89 103.674 155.32 110.493 153.469C111.092 153.307 111.629 153.135 112.119 152.958C110.156 152.679 108.235 152.101 106.4 151.128C106.4 150.74 106.4 149.96 106.4 149.572Z" fill="#ED7E94"/>
<path d="M116.584 148.727C116.584 148.727 122.6 146.819 120.139 143.822L114.976 145.281C114.976 145.281 111.665 143.334 108.157 143.53C108.157 143.53 107.309 142.912 105.972 141.791C104.239 143.123 103.003 144.979 102.328 147.033C103.616 147.951 104.969 148.8 106.402 149.572C106.402 149.96 106.402 150.74 106.402 151.128C108.237 152.1 110.159 152.679 112.121 152.958C117.189 151.131 116.584 148.727 116.584 148.727Z" fill="#FF96A9"/>
<path d="M99.5664 147.651C100.307 148.156 101.07 148.636 101.845 149.1C101.944 148.399 102.105 147.705 102.327 147.033C101.553 146.483 100.805 145.909 100.077 145.312C99.7984 146.063 99.6159 146.845 99.5664 147.651Z" fill="#DAD8E6"/>
<path d="M105.97 141.791C105.43 141.34 104.812 140.805 104.132 140.195C102.352 141.496 100.837 143.279 100.076 145.312C100.803 145.909 101.552 146.483 102.326 147.033C103.001 144.979 104.236 143.123 105.97 141.791Z" fill="#F2F0FF"/>
<path d="M127.307 101.794C127.307 101.794 126.009 101.483 125.026 101.437C124.58 101.418 123.882 101.486 123.209 101.577L125.06 104.771L127.307 101.794Z" fill="#FF96A9"/>
<path d="M79.7086 138.41C79.7086 143.362 75.6969 147.374 70.7469 147.374C65.7968 147.374 61.7852 143.362 61.7852 138.41C61.7852 133.457 65.7968 129.445 70.7469 129.445C75.6969 129.445 79.7086 133.457 79.7086 138.41Z" fill="#FE9736"/>
<path d="M101.24 147.133C101.24 147.457 101.044 147.717 100.799 147.717C100.559 147.717 100.361 147.457 100.361 147.133C100.361 146.81 100.559 146.547 100.799 146.547C101.044 146.547 101.24 146.81 101.24 147.133Z" fill="#F2F0FF"/>
<path d="M95.2748 142.14C95.2748 142.528 94.9568 142.846 94.5684 142.846C94.1774 142.846 93.8594 142.528 93.8594 142.14C93.8594 141.749 94.1774 141.434 94.5684 141.434C94.9568 141.434 95.2748 141.749 95.2748 142.14Z" fill="#563AC9"/>
<path d="M96.6863 143.406C96.6863 143.794 96.3708 144.112 95.9772 144.112C95.5888 144.112 95.2734 143.794 95.2734 143.406C95.2734 143.015 95.5888 142.699 95.9772 142.699C96.3708 142.699 96.6863 143.015 96.6863 143.406Z" fill="#563AC9"/>
<path d="M98.0977 144.605C98.0977 144.996 97.7823 145.311 97.3913 145.311C97.0029 145.311 96.6875 144.996 96.6875 144.605C96.6875 144.214 97.0029 143.898 97.3913 143.898C97.7823 143.898 98.0977 144.214 98.0977 144.605Z" fill="#563AC9"/>
<path d="M442.189 143.231L438.881 142.465C438.881 142.465 438.472 143.867 437.812 145.614C439.29 145.363 440.583 144.751 441.879 144.144L442.189 143.231Z" fill="#ED7E94"/>
<path d="M437.814 145.613C437.024 147.709 435.869 150.297 434.613 151.551C432.314 153.85 436.693 154.945 438.007 153.302C439.321 151.66 440.634 147.828 440.634 147.828L441.88 144.143C440.585 144.75 439.292 145.362 437.814 145.613Z" fill="#FF96A9"/>
<path d="M440.401 141.352C441.985 138.579 437.108 139.752 434.546 138.373C433.727 139.919 432.932 141.918 433.409 143.232C433.707 144.05 434.814 144.311 436.146 144.301C438.039 143.844 439.775 142.601 440.401 141.352Z" fill="#FF96A9"/>
<path d="M435.926 136.116C435.926 136.116 435.228 137.088 434.545 138.373C437.107 139.752 441.984 138.579 440.399 141.352C439.774 142.601 438.038 143.844 436.145 144.3C438.736 144.282 442.19 143.232 442.19 143.232C442.19 143.232 446.543 143.099 447.091 140.211C447.638 137.322 444.463 133.381 435.926 136.116Z" fill="#ED7E94"/>
<path d="M442.603 138.742C442.603 138.742 437.569 139.508 433.409 136.99C429.251 134.472 431.003 126.809 438.007 127.247C445.011 127.687 447.31 134.363 447.31 134.363C447.31 134.363 455.628 132.83 453.222 142.245C453.222 142.245 470.953 142.355 465.698 156.697C460.445 171.039 446.453 166.717 446.453 166.717L440.207 148.277L443.153 140.384C443.153 140.384 446.215 140.494 445.34 138.195C444.464 135.895 442.603 138.742 442.603 138.742Z" fill="#3F327A"/>
<path d="M449.404 191.155C441.509 185.052 431.184 190.086 431.184 190.086C431.184 190.086 433.563 198.034 437.573 209.602C442.093 203.964 446.167 198.034 450.869 192.763C450.405 192.096 449.918 191.553 449.404 191.155Z" fill="#FFCC46"/>
<path d="M450.871 192.764C446.168 198.034 442.094 203.965 437.574 209.603C438.914 213.468 440.434 217.736 442.107 222.25C445.113 222.391 448.155 222.177 451.171 221.682C452.372 219.354 453.384 216.956 454.16 214.49C453.59 212.285 452.946 210.09 452.221 207.916C452.946 210.09 453.59 212.285 454.16 214.49C454.898 212.152 455.422 209.749 455.683 207.296C454.499 201.194 452.933 195.74 450.871 192.764Z" fill="#FFA42F"/>
<path d="M455.682 207.297C455.422 209.75 454.898 212.153 454.16 214.491C454.695 216.569 455.164 218.657 455.557 220.755C456.24 220.58 456.926 220.398 457.604 220.192C457.121 215.98 456.493 211.486 455.682 207.297Z" fill="#FFA42F"/>
<path d="M451.17 221.682C452.64 221.437 454.102 221.127 455.557 220.754C455.163 218.656 454.694 216.568 454.16 214.49C453.383 216.956 452.372 219.354 451.17 221.682Z" fill="#FFCC46"/>
<path d="M442.107 222.25C443.134 225.01 444.219 227.87 445.353 230.779C447.55 227.891 449.536 224.851 451.171 221.682C448.155 222.177 445.113 222.391 442.107 222.25Z" fill="#ED7E94"/>
<path d="M457.037 240.323C472.033 248.302 473.31 265.581 475.101 281.826C475.765 281.451 476.373 281 476.886 280.445C475.403 265.951 471.105 240.716 459.023 237.609C459.023 237.609 458.679 229.607 457.605 220.191C456.927 220.397 456.242 220.58 455.559 220.754C456.771 227.214 457.297 233.767 457.037 240.323Z" fill="#ED7E94"/>
<path d="M457.035 240.322C457.295 233.766 456.769 227.213 455.557 220.754C454.102 221.127 452.64 221.437 451.17 221.682C449.535 224.852 447.549 227.891 445.352 230.779C452.538 249.198 461.774 269.788 471.431 283.145C472.709 282.863 473.986 282.456 475.099 281.826C473.308 265.581 472.031 248.301 457.035 240.322Z" fill="#FF96A9"/>
<path d="M477.628 290.586C477.628 290.586 477.495 286.431 476.885 280.443C476.372 280.999 475.764 281.45 475.1 281.825C475.36 284.187 475.637 286.525 475.96 288.811C476.515 289.431 477.07 290.025 477.628 290.586Z" fill="#FFA42F"/>
<path d="M475.959 288.812C475.636 286.526 475.36 284.188 475.099 281.826C473.986 282.457 472.709 282.864 471.432 283.145C472.93 285.22 474.442 287.118 475.959 288.812Z" fill="#FFCC46"/>
<path d="M446.099 222.233C464.554 198.747 447.15 184.629 447.15 184.629C443.297 188.174 434.989 201.359 425.668 217.283C431.945 221.174 438.996 222.59 446.099 222.233Z" fill="#FFCC46"/>
<path d="M385.648 289.428C389.061 287.21 392.504 284.89 395.848 282.44C394.084 281.707 392.434 280.735 391.008 279.439C388.443 284.197 386.561 287.718 385.648 289.428Z" fill="#FFCC46"/>
<path d="M385.031 290.587C389.593 288.014 393.638 285.468 397.238 282.965C396.769 282.809 396.305 282.629 395.849 282.441C392.505 284.892 389.061 287.212 385.649 289.43C385.248 290.183 385.031 290.587 385.031 290.587Z" fill="#FFA42F"/>
<path d="M422.885 238.571C428.309 236.105 433.976 233.147 439.335 229.649C441.992 227.086 444.233 224.613 446.1 222.235C438.997 222.592 431.946 221.177 425.669 217.285C413.183 238.61 398.877 264.846 391.008 279.441C392.434 280.737 394.084 281.709 395.848 282.441C410.808 271.473 423.761 257.848 422.885 238.571Z" fill="#FF96A9"/>
<path d="M422.884 238.571C423.76 257.847 410.807 271.472 395.848 282.441C396.304 282.629 396.768 282.809 397.237 282.965C430.102 260.133 425.308 241.105 425.308 241.105C430.944 237.111 435.56 233.29 439.335 229.648C433.975 233.147 428.308 236.105 422.884 238.571Z" fill="#ED7E94"/>
<path d="M432.078 156.244C437.409 157.665 441.008 152.741 443.816 148.26C440.617 147.843 438.772 147.83 438.772 147.83C435.357 148.187 432.894 149.365 431.121 150.791C430.728 153.093 429.727 155.572 432.078 156.244Z" fill="#FF96A9"/>
<path d="M421.135 165C420.085 163.689 419.355 162.222 419.217 160.691C419.167 160.817 419.115 160.942 419.071 161.077C417.21 166.551 424.871 167.972 424.871 167.972L426.875 175.294C427.605 171.647 428.966 168.105 430.329 164.562C427.701 168.068 423.76 167.19 421.135 165Z" fill="#F7C6BE"/>
<path d="M443.818 148.26C441.01 152.741 437.411 157.665 432.08 156.244C429.729 155.571 430.73 153.093 431.123 150.791C427.438 153.752 426.734 157.792 426.734 157.792C426.734 157.792 421.215 155.712 419.219 160.691C419.357 162.221 420.087 163.689 421.137 165C423.762 167.189 427.703 168.068 430.331 164.562C428.968 168.104 427.607 171.647 426.877 175.294L427.391 177.17C427.391 177.17 445.697 177.168 445.484 171.138C444.256 169.835 442.548 169.077 440.836 168.503C443.025 166.751 445.215 163.689 443.901 161.059C442.59 158.869 439.963 157.558 437.335 157.996C441.274 156.679 445.653 159.747 446.091 154.054C450.032 155.037 453.695 156.578 457.159 158.439C458.433 156.283 459.904 154.172 461.859 152.72C454.305 150.004 447.936 148.797 443.818 148.26Z" fill="#FFD4CD"/>
<path d="M446.09 154.055C445.652 159.748 441.273 156.68 437.334 157.996C439.962 157.558 442.589 158.869 443.9 161.059C445.214 163.689 443.024 166.752 440.835 168.503C442.547 169.077 444.255 169.835 445.482 171.139C445.477 171.021 445.469 170.899 445.449 170.774C444.463 164.377 447.151 156.479 447.151 156.479C449.465 156.145 453.287 157.412 456.858 158.947C456.954 158.778 457.056 158.609 457.158 158.439C453.693 156.578 450.031 155.037 446.09 154.055Z" fill="#F7C6BE"/>
<path d="M394.773 171.368L486.713 156.26L490.983 184.065L399.81 199.611L394.773 171.368Z" fill="#3F327A"/>
<path d="M425.018 174.179C424.708 174.179 424.429 173.955 424.371 173.637C424.309 173.282 424.549 172.938 424.906 172.875L456.251 167.331C456.611 167.266 456.949 167.506 457.012 167.863C457.077 168.22 456.837 168.561 456.48 168.624L425.132 174.171C425.093 174.176 425.057 174.179 425.018 174.179Z" fill="#F2F0FF"/>
<path d="M425.668 179.341C425.355 179.341 425.076 179.117 425.022 178.799C424.959 178.439 425.196 178.101 425.556 178.038L480.674 168.404C481.026 168.344 481.367 168.581 481.433 168.938C481.495 169.295 481.253 169.637 480.896 169.697L425.78 179.331C425.744 179.339 425.705 179.341 425.668 179.341Z" fill="#F2F0FF"/>
<path d="M426.932 185.288C426.622 185.288 426.345 185.066 426.288 184.746C426.223 184.389 426.46 184.047 426.82 183.985L445.984 180.557C446.339 180.494 446.68 180.732 446.745 181.089C446.81 181.443 446.571 181.785 446.216 181.85L427.049 185.278C427.01 185.285 426.971 185.288 426.932 185.288Z" fill="#F2F0FF"/>
<path d="M456.857 158.948C458.987 159.863 461.02 160.871 462.605 161.695C460.838 160.543 459.026 159.443 457.157 158.439C457.056 158.609 456.954 158.778 456.857 158.948Z" fill="#ED7E94"/>
<path d="M466.136 184.287C470.465 177.014 472.783 166.027 473.679 160.918C471.511 168.973 467.223 176.467 464.916 184.706C464.916 185.144 467.543 189.524 464.916 191.275C462.361 192.37 457.985 191.943 456.598 188.979C456.439 189.456 456.374 189.875 456.449 190.199C456.833 191.838 461.431 196.108 466.67 191.948C471.912 187.788 466.136 184.287 466.136 184.287Z" fill="#ED7E94"/>
<path d="M464.916 191.276C467.543 189.524 464.916 185.145 464.916 184.707C467.222 176.467 471.51 168.973 473.679 160.919C473.984 159.18 474.125 158.122 474.125 158.122C469.821 155.859 465.687 154.097 461.858 152.721C459.903 154.173 458.433 156.284 457.158 158.44C459.027 159.443 460.839 160.543 462.606 161.695C464.462 162.663 465.698 163.377 465.698 163.377C466.245 170.821 461.43 180.125 460.336 182.317C459.455 184.074 457.236 187.032 456.598 188.979C457.984 191.943 462.361 192.371 464.916 191.276Z" fill="#FF96A9"/>
<path d="M396.434 178.109C395.863 178.088 395.293 178.299 394.771 178.813C391.646 181.883 391.239 186.166 392.3 188.794C393.332 188.611 394.346 188.251 395.303 187.772C398.819 186.21 399.195 180.809 396.434 178.109Z" fill="#FF96A9"/>
<path d="M396.435 178.107C399.195 180.808 398.82 186.209 395.304 187.77C394.347 188.25 393.333 188.61 392.301 188.792C393.281 191.222 395.515 192.241 398.02 189.577C402.402 184.919 399.433 178.227 396.435 178.107Z" fill="#ED7E94"/>
<path d="M420.935 183.264C420.935 187.622 417.403 191.154 413.045 191.154C408.686 191.154 405.154 187.622 405.154 183.264C405.154 178.903 408.686 175.371 413.045 175.371C417.403 175.371 420.935 178.903 420.935 183.264Z" fill="#F2F0FF"/>
<path d="M426.961 156.922C426.794 157.459 426.734 157.793 426.734 157.793C426.734 157.793 428.614 158.249 430.332 158.869C430.332 158.869 428.444 157.454 426.961 156.922Z" fill="#F7C6BE"/>
<path d="M520.286 292.024H0.71162C0.318013 292.024 0 291.705 0 291.312C0 290.918 0.318013 290.598 0.71162 290.598H520.286C520.679 290.598 521 290.918 521 291.312C521 291.705 520.679 292.024 520.286 292.024Z" fill="#634AC9"/>
</svg>
