<svg xmlns="http://www.w3.org/2000/svg" width="1020.08" height="687.139" viewBox="0 0 1020.08 687.139">
  <g id="Website" transform="translate(-513.658 -2324)">
    <g id="web_development" transform="translate(513.658 2323.266)">
      <path id="Path_29" data-name="Path 29" d="M361.312,224.562q0,4.463-.218,8.919t-.65,8.9q-.436,4.437-1.086,8.858t-1.518,8.79q-.865,4.378-1.943,8.7t-2.364,8.6q-1.285,4.277-2.783,8.474t-3.187,8.328q-1.7,4.116-3.6,8.154t-3.988,7.973q-2.091,3.939-4.368,7.764t-4.744,7.539q-2.461,3.711-5.108,7.3T320.3,339.9q-2.814,3.449-5.791,6.756t-6.116,6.463q-3.133,3.162-6.418,6.153t-6.716,5.832q-3.428,2.832-6.989,5.488t-7.253,5.139q-3.68,2.477-7.488,4.773t-7.718,4.4q-3.906,2.1-7.919,4.012t-8.1,3.612q-4.1,1.707-8.272,3.212t-8.423,2.8q-4.243,1.293-8.541,2.378T215.9,402.87q-4.352.871-8.737,1.527t-8.8,1.093q-4.419.439-8.844.66t-8.866.214q-4.436,0-8.866-.214t-8.843-.66q-4.412-.439-8.8-1.093t-8.737-1.527q-4.352-.87-8.653-1.955t-8.541-2.378q-4.251-1.293-8.424-2.8t-8.272-3.212q-4.1-1.707-8.1-3.612T95.5,384.9q-3.915-2.1-7.718-4.4t-7.488-4.773q-3.688-2.484-7.253-5.139t-6.99-5.488q-3.428-2.831-6.715-5.832t-6.418-6.153q-3.142-3.151-6.116-6.463T41.008,339.9q-2.814-3.449-5.455-7.032t-5.108-7.3q-2.462-3.709-4.744-7.539t-4.368-7.764q-2.092-3.939-3.988-7.973t-3.6-8.154q-1.7-4.123-3.187-8.328t-2.784-8.474q-1.285-4.269-2.363-8.6t-1.943-8.7q-.865-4.379-1.518-8.79T.868,242.384q-.428-4.446-.65-8.9T0,224.562q0-4.462.218-8.92t.65-8.9q.437-4.446,1.087-8.858t1.518-8.79q.865-4.379,1.943-8.711t2.363-8.6q1.285-4.269,2.784-8.475t3.187-8.322q1.7-4.125,3.6-8.159t3.988-7.968q2.092-3.937,4.368-7.764t4.744-7.539q2.461-3.711,5.108-7.3t5.455-7.038q2.814-3.448,5.791-6.756t6.116-6.463q3.134-3.153,6.418-6.153t6.715-5.826q3.428-2.831,6.99-5.488T80.292,73.4q3.68-2.485,7.488-4.773t7.718-4.4q3.906-2.1,7.919-4.012t8.1-3.617q4.1-1.707,8.272-3.212t8.424-2.8q4.242-1.293,8.541-2.378t8.653-1.955q4.352-.87,8.737-1.527t8.8-1.093q4.419-.431,8.843-.654t8.866-.22q4.436,0,8.866.22t8.844.654q4.41.44,8.8,1.093t8.737,1.527q4.353.871,8.654,1.955t8.541,2.378q4.251,1.3,8.423,2.8t8.272,3.212q4.1,1.707,8.1,3.617t7.919,4.012q3.915,2.1,7.718,4.4t7.493,4.773q3.681,2.476,7.248,5.139t6.989,5.488q3.428,2.831,6.716,5.826t6.418,6.153q3.143,3.161,6.116,6.463t5.791,6.756q2.814,3.458,5.455,7.038t5.108,7.3q2.461,3.709,4.744,7.539t4.368,7.764q2.092,3.93,3.988,7.968t3.6,8.159q1.7,4.124,3.187,8.322t2.783,8.475q1.286,4.277,2.364,8.6t1.943,8.711q.865,4.379,1.518,8.79t1.086,8.858q.429,4.437.65,8.9T361.312,224.562Z" fill="#aa0021"/>
      <path id="Path_30" data-name="Path 30" d="M328.75,224.56q0,3.66-.174,7.314c-.123,2.434-.3,4.868-.537,7.3s-.532,4.845-.891,7.257-.767,4.818-1.243,7.207-1,4.772-1.591,7.139-1.237,4.716-1.938,7.049-1.461,4.648-2.279,6.947-1.692,4.57-2.616,6.824-1.909,4.485-2.946,6.688-2.128,4.384-3.27,6.536-2.336,4.271-3.585,6.362-2.537,4.153-3.887,6.181-2.738,4.023-4.183,5.978-2.935,3.883-4.475,5.77-3.12,3.73-4.744,5.539-3.3,3.573-5.013,5.3-3.472,3.409-5.264,5.043-3.635,3.234-5.506,4.778-3.786,3.048-5.73,4.5-3.931,2.857-5.942,4.215-4.066,2.659-6.144,3.91-4.184,2.457-6.323,3.606-4.3,2.249-6.491,3.291-4.408,2.028-6.648,2.964-4.5,1.809-6.783,2.631-4.581,1.589-6.9,2.294-4.654,1.357-7.006,1.955-4.716,1.127-7.091,1.6-4.766.89-7.163,1.251-4.8.654-7.214.9-4.828.417-7.247.535-4.845.18-7.27.18-4.844-.056-7.264-.18-4.839-.3-7.253-.535-4.816-.541-7.213-.9-4.783-.778-7.164-1.251-4.738-1.009-7.09-1.6-4.688-1.246-7.007-1.955-4.62-1.471-6.9-2.294-4.542-1.7-6.782-2.631-4.453-1.922-6.648-2.964-4.352-2.141-6.491-3.291-4.246-2.349-6.324-3.606-4.127-2.558-6.144-3.91-3.993-2.761-5.942-4.215-3.853-2.953-5.729-4.5S83,336.627,81.2,334.988s-3.551-3.319-5.265-5.043-3.383-3.488-5.013-5.3-3.209-3.651-4.744-5.539-3.03-3.809-4.475-5.77-2.84-3.949-4.184-5.978-2.643-4.085-3.887-6.181-2.442-4.215-3.584-6.362-2.235-4.333-3.271-6.536-2.016-4.434-2.946-6.688-1.8-4.525-2.616-6.824-1.574-4.609-2.279-6.947-1.35-4.683-1.938-7.049-1.12-4.745-1.591-7.139-.891-4.795-1.243-7.207-.655-4.829-.89-7.257-.415-4.863-.538-7.3-.174-4.874-.174-7.314.056-4.874.174-7.314.3-4.863.538-7.291.532-4.852.89-7.263.767-4.812,1.243-7.207,1-4.772,1.591-7.139,1.238-4.711,1.938-7.049,1.467-4.649,2.279-6.942,1.691-4.575,2.616-6.829,1.91-4.48,2.946-6.688,2.128-4.378,3.271-6.531,2.335-4.271,3.584-6.367,2.543-4.153,3.887-6.181,2.739-4.018,4.184-5.979,2.935-3.882,4.475-5.764,3.12-3.736,4.744-5.539,3.3-3.578,5.013-5.3,3.472-3.4,5.265-5.043,3.635-3.229,5.506-4.778,3.786-3.048,5.729-4.5,3.932-2.857,5.942-4.209,4.066-2.66,6.144-3.916,4.19-2.451,6.324-3.6,4.3-2.248,6.491-3.291,4.407-2.034,6.648-2.964,4.5-1.814,6.782-2.637,4.582-1.583,6.9-2.293,4.654-1.358,7.007-1.95,4.716-1.127,7.09-1.6,4.766-.9,7.164-1.251,4.805-.659,7.213-.9,4.828-.423,7.253-.541,4.839-.18,7.264-.18,4.845.062,7.27.18,4.833.3,7.247.541,4.817.535,7.214.9,4.783.772,7.163,1.251,4.738,1.009,7.091,1.6,4.688,1.245,7.006,1.95,4.621,1.476,6.9,2.293,4.542,1.7,6.783,2.637,4.452,1.921,6.648,2.964,4.352,2.136,6.491,3.291,4.245,2.35,6.323,3.6,4.128,2.558,6.144,3.916,3.993,2.761,5.942,4.209,3.854,2.958,5.73,4.5,3.708,3.138,5.506,4.778,3.55,3.319,5.264,5.043,3.383,3.494,5.013,5.3,3.209,3.652,4.744,5.539,3.03,3.8,4.475,5.764,2.839,3.956,4.183,5.979,2.644,4.091,3.887,6.181,2.442,4.215,3.585,6.367,2.234,4.328,3.27,6.531,2.017,4.434,2.946,6.688,1.8,4.53,2.616,6.829,1.574,4.609,2.279,6.942,1.35,4.688,1.938,7.049,1.12,4.75,1.591,7.139.89,4.795,1.243,7.207.655,4.834.891,7.263.414,4.857.537,7.291S328.75,222.12,328.75,224.56Z" fill="#fff"/>
      <path id="Path_31" data-name="Path 31" d="M229.445,49.835q0,2.409-.236,4.812t-.7,4.767c-.313,1.572-.7,3.133-1.165,4.671s-1,3.048-1.613,4.536a47.76,47.76,0,0,1-2.05,4.356c-.75,1.42-1.573,2.795-2.458,4.136s-1.837,2.626-2.851,3.865-2.089,2.434-3.215,3.572-2.313,2.214-3.551,3.234-2.514,1.978-3.842,2.874-2.7,1.718-4.111,2.474a47.382,47.382,0,0,1-4.323,2.062q-2.219.921-4.509,1.623t-4.649,1.172q-2.343.465-4.732.7t-4.783.237q-2.394,0-4.783-.237t-4.733-.7q-2.352-.473-4.648-1.172t-4.509-1.623a47.525,47.525,0,0,1-4.324-2.062c-1.411-.755-2.778-1.583-4.111-2.474s-2.609-1.854-3.842-2.874-2.419-2.1-3.55-3.234-2.2-2.327-3.215-3.572-1.961-2.53-2.851-3.865-1.708-2.716-2.459-4.136-1.439-2.868-2.05-4.356-1.148-3-1.613-4.536-.851-3.1-1.165-4.671-.543-3.167-.7-4.767-.235-3.206-.235-4.812.079-3.212.235-4.812.392-3.189.7-4.767.7-3.139,1.165-4.677,1-3.048,1.613-4.536,1.294-2.936,2.05-4.356,1.574-2.795,2.459-4.13,1.837-2.631,2.851-3.871,2.089-2.434,3.215-3.572,2.313-2.214,3.55-3.234a47.887,47.887,0,0,1,3.842-2.868c1.333-.9,2.7-1.719,4.111-2.479s2.851-1.442,4.324-2.062,2.98-1.155,4.509-1.623,3.08-.856,4.648-1.166a47.7,47.7,0,0,1,4.733-.71q2.385-.237,4.783-.237t4.783.237a47.677,47.677,0,0,1,4.732.71c1.569.31,3.12.7,4.649,1.166s3.03,1.009,4.509,1.623,2.918,1.3,4.323,2.062,2.778,1.583,4.111,2.479a47.535,47.535,0,0,1,3.842,2.868q1.857,1.53,3.551,3.234t3.215,3.572c1.014,1.24,1.96,2.53,2.851,3.871s1.708,2.71,2.458,4.13a47.761,47.761,0,0,1,2.05,4.356q.916,2.231,1.613,4.536t1.165,4.677q.462,2.367.7,4.767C229.366,46.623,229.445,48.223,229.445,49.835Z" fill="#aa0021"/>
      <path id="Path_32" data-name="Path 32" d="M164.812,464.048q0-4.463.213-8.92t.656-8.9q.437-4.439,1.086-8.858t1.512-8.79q.865-4.379,1.944-8.706t2.369-8.6q1.286-4.276,2.778-8.475t3.192-8.328q1.7-4.116,3.6-8.153t3.982-7.973q2.093-3.939,4.374-7.765t4.744-7.539q2.462-3.709,5.1-7.3t5.455-7.032q2.814-3.449,5.8-6.756t6.11-6.462q3.134-3.162,6.424-6.154t6.716-5.831q3.428-2.832,6.989-5.489t7.248-5.138q3.687-2.477,7.493-4.773t7.712-4.4q3.915-2.1,7.92-4.011t8.11-3.612q4.1-1.707,8.272-3.212t8.418-2.8q4.242-1.293,8.546-2.378t8.654-1.955q4.352-.871,8.737-1.527t8.8-1.094q4.412-.439,8.844-.659t8.866-.214q4.436,0,8.86.214t8.844.659c2.946.293,5.875.654,8.8,1.094s5.836.946,8.731,1.527,5.786,1.228,8.653,1.955,5.719,1.516,8.547,2.378,5.634,1.8,8.418,2.8,5.545,2.074,8.272,3.212,5.438,2.344,8.11,3.612,5.309,2.608,7.919,4.011,5.181,2.874,7.718,4.4,5.03,3.122,7.488,4.773,4.873,3.369,7.248,5.138,4.71,3.6,6.995,5.489,4.52,3.831,6.71,5.831,4.334,4.046,6.424,6.154,4.127,4.259,6.116,6.462,3.914,4.457,5.791,6.756,3.69,4.643,5.455,7.032,3.461,4.824,5.108,7.3,3.22,4.987,4.743,7.539,2.974,5.139,4.369,7.765,2.722,5.28,3.988,7.973,2.458,5.409,3.59,8.153,2.2,5.528,3.192,8.328,1.921,5.624,2.784,8.475,1.646,5.713,2.363,8.6,1.367,5.787,1.944,8.706,1.08,5.849,1.512,8.79.8,5.9,1.086,8.858.51,5.927.656,8.9.218,5.945.218,8.92-.073,5.945-.218,8.92-.365,5.939-.656,8.9-.649,5.916-1.086,8.858-.936,5.871-1.512,8.79-1.227,5.82-1.944,8.711-1.507,5.747-2.363,8.6-1.787,5.669-2.784,8.475-2.061,5.572-3.192,8.322-2.33,5.471-3.59,8.159-2.594,5.347-3.988,7.967-2.851,5.212-4.369,7.765-3.1,5.066-4.743,7.539-3.35,4.908-5.108,7.3-3.579,4.733-5.455,7.038-3.809,4.547-5.791,6.756-4.027,4.355-6.116,6.463-4.229,4.152-6.424,6.153-4.425,3.938-6.71,5.826-4.615,3.719-6.995,5.488-4.789,3.488-7.248,5.139-4.956,3.245-7.488,4.772-5.108,3-7.718,4.4-5.247,2.738-7.919,4.012-5.377,2.479-8.11,3.617-5.489,2.209-8.272,3.212-5.59,1.933-8.418,2.8-5.679,1.657-8.547,2.378-5.751,1.375-8.653,1.956-5.808,1.087-8.731,1.527-5.858.8-8.8,1.093-5.887.507-8.844.653-5.9.22-8.86.22-5.915-.073-8.866-.22-5.9-.366-8.844-.653-5.875-.66-8.8-1.093-5.836-.947-8.737-1.527-5.786-1.234-8.654-1.956-5.718-1.515-8.546-2.378-5.635-1.8-8.418-2.8-5.539-2.073-8.272-3.212-5.433-2.344-8.11-3.617-5.31-2.609-7.92-4.012-5.175-2.868-7.712-4.4-5.035-3.116-7.493-4.772-4.873-3.364-7.248-5.139-4.7-3.6-6.989-5.488-4.526-3.832-6.716-5.826-4.335-4.052-6.424-6.153-4.127-4.26-6.11-6.463-3.921-4.457-5.8-6.756-3.691-4.649-5.455-7.038-3.461-4.823-5.1-7.3-3.226-4.987-4.744-7.539-2.979-5.139-4.374-7.765-2.722-5.279-3.982-7.967-2.464-5.409-3.6-8.159-2.195-5.522-3.192-8.322-1.921-5.629-2.778-8.475-1.647-5.713-2.369-8.6-1.367-5.793-1.944-8.711-1.081-5.849-1.512-8.79-.795-5.894-1.086-8.858-.51-5.928-.656-8.9S164.812,467.023,164.812,464.048Z" fill="#142357"/>
      <path id="Path_33" data-name="Path 33" d="M197.369,464.048q0-3.66.179-7.314t.538-7.3q.353-3.643.885-7.258t1.243-7.207c.476-2.394,1-4.772,1.6-7.139s1.233-4.716,1.938-7.049,1.462-4.648,2.28-6.947,1.686-4.57,2.615-6.824,1.91-4.485,2.946-6.688,2.123-4.384,3.266-6.536,2.341-4.271,3.584-6.362,2.543-4.153,3.892-6.181,2.739-4.023,4.184-5.978,2.935-3.883,4.47-5.77,3.119-3.73,4.749-5.539,3.3-3.572,5.013-5.3,3.466-3.409,5.264-5.043,3.629-3.234,5.506-4.778,3.78-3.048,5.729-4.5,3.926-2.857,5.943-4.215,4.06-2.659,6.144-3.91,4.183-2.457,6.323-3.606,4.3-2.248,6.491-3.291,4.408-2.028,6.648-2.964,4.5-1.808,6.777-2.631,4.587-1.589,6.906-2.293,4.654-1.358,7.006-1.956,4.716-1.127,7.09-1.6,4.767-.89,7.164-1.251,4.8-.653,7.213-.9,4.828-.417,7.248-.535,4.844-.18,7.27-.18,4.844.056,7.264.18,4.839.3,7.247.535,4.817.541,7.219.9,4.783.778,7.158,1.251,4.744,1.009,7.1,1.6,4.682,1.246,7,1.956,4.62,1.47,6.906,2.293,4.542,1.7,6.782,2.631,4.453,1.922,6.642,2.964,4.358,2.141,6.492,3.291,4.251,2.349,6.328,3.606,4.123,2.558,6.139,3.91,4,2.761,5.942,4.215,3.859,2.953,5.735,4.5,3.708,3.139,5.5,4.778,3.551,3.319,5.265,5.043,3.388,3.488,5.012,5.3,3.21,3.651,4.75,5.539,3.03,3.809,4.469,5.77,2.84,3.95,4.19,5.978,2.643,4.085,3.886,6.181,2.442,4.215,3.585,6.362,2.229,4.333,3.265,6.536,2.022,4.434,2.946,6.688,1.8,4.525,2.616,6.824,1.579,4.609,2.279,6.947,1.35,4.683,1.944,7.049,1.12,4.745,1.59,7.139.885,4.8,1.243,7.207.65,4.829.891,7.258.414,4.862.532,7.3.179,4.874.179,7.314-.061,4.874-.179,7.314-.3,4.863-.532,7.291-.538,4.852-.891,7.263-.772,4.812-1.243,7.207-1,4.773-1.59,7.139-1.238,4.711-1.944,7.049-1.462,4.649-2.279,6.942-1.686,4.575-2.616,6.829-1.91,4.48-2.946,6.688-2.123,4.379-3.265,6.531-2.336,4.271-3.585,6.367-2.542,4.153-3.886,6.181-2.745,4.018-4.19,5.979-2.935,3.882-4.469,5.764-3.12,3.736-4.75,5.539-3.3,3.578-5.012,5.3-3.467,3.4-5.265,5.043-3.629,3.229-5.5,4.778-3.786,3.049-5.735,4.5-3.926,2.857-5.942,4.209-4.061,2.66-6.139,3.917-4.189,2.451-6.328,3.6-4.3,2.248-6.492,3.291-4.4,2.034-6.642,2.964-4.5,1.814-6.782,2.637-4.582,1.583-6.906,2.293-4.654,1.358-7,1.949-4.716,1.127-7.1,1.6-4.761.9-7.158,1.251-4.8.659-7.219.895-4.828.423-7.247.541-4.845.181-7.264.181-4.851-.062-7.27-.181-4.839-.3-7.248-.541-4.816-.535-7.213-.895-4.789-.772-7.164-1.251-4.743-1.009-7.09-1.6-4.688-1.245-7.006-1.949-4.621-1.476-6.906-2.3-4.542-1.7-6.777-2.631-4.458-1.922-6.648-2.964-4.357-2.136-6.491-3.291-4.246-2.35-6.323-3.6-4.128-2.559-6.144-3.917-4-2.761-5.943-4.209-3.859-2.958-5.729-4.5-3.708-3.138-5.506-4.778-3.551-3.319-5.264-5.043-3.383-3.493-5.013-5.3-3.209-3.651-4.749-5.539-3.025-3.8-4.47-5.764-2.839-3.956-4.184-5.979-2.643-4.09-3.892-6.181-2.442-4.215-3.584-6.367-2.23-4.327-3.266-6.531-2.016-4.434-2.946-6.688-1.8-4.53-2.615-6.829-1.58-4.609-2.28-6.942-1.349-4.688-1.938-7.049-1.12-4.75-1.6-7.139-.885-4.795-1.243-7.207-.65-4.834-.885-7.263-.42-4.857-.538-7.291S197.369,466.488,197.369,464.048Z" fill="#fff"/>
      <path id="Path_34" data-name="Path 34" d="M296.68,638.772q0-2.407.235-4.812c.157-1.6.386-3.189.7-4.766s.7-3.133,1.165-4.672,1-3.048,1.613-4.535,1.294-2.936,2.044-4.356,1.574-2.795,2.465-4.136a47.833,47.833,0,0,1,2.85-3.865q1.521-1.869,3.215-3.573t3.545-3.234q1.857-1.53,3.848-2.874c1.327-.89,2.7-1.718,4.105-2.473a47.505,47.505,0,0,1,4.33-2.062q2.217-.922,4.508-1.623t4.643-1.172q2.352-.465,4.738-.705c1.591-.157,3.182-.236,4.783-.236s3.193.079,4.778.236,3.17.4,4.738.705,3.114.7,4.643,1.172,3.036,1.008,4.509,1.623a47.483,47.483,0,0,1,4.329,2.062c1.411.755,2.778,1.583,4.105,2.473s2.61,1.854,3.848,2.874,2.414,2.1,3.545,3.234,2.2,2.327,3.215,3.573,1.966,2.53,2.856,3.865,1.709,2.716,2.459,4.136,1.434,2.868,2.05,4.356,1.148,3,1.613,4.535.851,3.1,1.159,4.672.549,3.166.706,4.766.235,3.207.235,4.812-.078,3.212-.235,4.812-.392,3.19-.706,4.767-.7,3.139-1.159,4.677-1,3.048-1.613,4.536-1.294,2.936-2.05,4.356-1.574,2.794-2.459,4.13-1.842,2.631-2.856,3.871-2.084,2.434-3.215,3.572-2.313,2.215-3.545,3.234-2.52,1.978-3.848,2.868-2.694,1.719-4.105,2.48-2.851,1.442-4.329,2.062-2.98,1.155-4.509,1.623-3.075.856-4.643,1.166-3.148.552-4.738.71-3.181.237-4.778.237-3.192-.079-4.783-.237-3.17-.394-4.738-.71-3.114-.7-4.643-1.166-3.03-1.009-4.508-1.623-2.918-1.3-4.33-2.062-2.778-1.584-4.105-2.48-2.61-1.848-3.848-2.868-2.414-2.1-3.545-3.234-2.2-2.327-3.215-3.572a47.063,47.063,0,0,1-2.85-3.871c-.891-1.336-1.709-2.71-2.465-4.13s-1.434-2.868-2.044-4.356-1.148-3-1.613-4.536-.851-3.1-1.165-4.677-.543-3.166-.7-4.767S296.68,640.384,296.68,638.772Z" fill="#142357"/>
      <path id="Path_35" data-name="Path 35" d="M692.645,224.562q0,4.463-.219,8.919t-.655,8.9q-.429,4.437-1.087,8.858t-1.512,8.79q-.866,4.378-1.943,8.7t-2.364,8.6q-1.293,4.277-2.783,8.474t-3.193,8.328q-1.7,4.116-3.59,8.154t-3.988,7.973q-2.091,3.939-4.368,7.764t-4.75,7.539q-2.461,3.711-5.1,7.3t-5.455,7.032q-2.814,3.449-5.791,6.756t-6.116,6.463q-3.133,3.162-6.424,6.153t-6.71,5.832q-3.427,2.832-6.995,5.488t-7.247,5.139q-3.689,2.477-7.488,4.773t-7.718,4.4q-3.915,2.1-7.919,4.012t-8.11,3.612q-4.092,1.707-8.273,3.212t-8.417,2.8q-4.243,1.293-8.547,2.378t-8.653,1.955q-4.344.871-8.732,1.527c-2.929.44-5.858.8-8.8,1.093s-5.886.513-8.843.66-5.9.214-8.861.214-5.914-.074-8.866-.214-5.9-.367-8.843-.66-5.875-.653-8.8-1.093-5.836-.946-8.737-1.527-5.785-1.228-8.653-1.955-5.718-1.516-8.547-2.378-5.634-1.8-8.418-2.8-5.544-2.074-8.272-3.212-5.432-2.344-8.11-3.612-5.309-2.609-7.919-4.012-5.175-2.873-7.712-4.4-5.035-3.122-7.494-4.773-4.873-3.369-7.247-5.139-4.705-3.6-6.99-5.488-4.525-3.831-6.715-5.832-4.335-4.045-6.424-6.153-4.128-4.26-6.111-6.463-3.92-4.457-5.8-6.756-3.691-4.643-5.455-7.032-3.462-4.823-5.1-7.3-3.226-4.986-4.743-7.539-2.98-5.138-4.374-7.764-2.722-5.28-3.983-7.973-2.464-5.41-3.6-8.154-2.2-5.527-3.193-8.328-1.921-5.623-2.778-8.474-1.646-5.714-2.369-8.6-1.366-5.786-1.943-8.7-1.081-5.849-1.512-8.79-.8-5.9-1.087-8.858-.51-5.928-.655-8.9-.213-5.944-.213-8.919.073-5.945.213-8.92.364-5.939.655-8.9.65-5.916,1.087-8.858.935-5.871,1.512-8.79,1.226-5.82,1.943-8.711,1.507-5.747,2.369-8.6,1.781-5.669,2.778-8.475,2.061-5.573,3.193-8.322,2.33-5.472,3.6-8.159,2.594-5.348,3.983-7.968,2.85-5.212,4.374-7.764,3.1-5.066,4.743-7.539,3.344-4.908,5.1-7.3,3.584-4.733,5.455-7.038,3.808-4.547,5.8-6.756,4.022-4.355,6.111-6.463,4.234-4.153,6.424-6.153,4.43-3.939,6.715-5.826,4.615-3.719,6.99-5.488,4.788-3.488,7.247-5.139,4.957-3.246,7.494-4.773,5.108-3,7.712-4.4,5.248-2.738,7.919-4.012,5.377-2.479,8.11-3.617,5.489-2.209,8.272-3.212,5.59-1.933,8.418-2.8,5.679-1.657,8.547-2.378,5.752-1.375,8.653-1.955,5.814-1.087,8.737-1.527,5.858-.8,8.8-1.093,5.892-.507,8.843-.654,5.909-.22,8.866-.22,5.909.073,8.861.22,5.9.366,8.843.654,5.875.659,8.8,1.093,5.836.947,8.732,1.527,5.785,1.234,8.653,1.955,5.718,1.516,8.547,2.378,5.634,1.8,8.417,2.8,5.545,2.074,8.273,3.212,5.438,2.344,8.11,3.617,5.309,2.609,7.919,4.012,5.181,2.868,7.718,4.4,5.029,3.116,7.488,4.773,4.872,3.364,7.247,5.139,4.71,3.6,6.995,5.488,4.52,3.832,6.71,5.826,4.335,4.051,6.424,6.153,4.128,4.26,6.116,6.463,3.915,4.457,5.791,6.756,3.691,4.649,5.455,7.038,3.461,4.823,5.1,7.3,3.226,4.986,4.75,7.539,2.974,5.139,4.368,7.764,2.722,5.28,3.988,7.968,2.459,5.409,3.59,8.159,2.2,5.522,3.193,8.322,1.921,5.629,2.783,8.475,1.647,5.713,2.364,8.6,1.366,5.792,1.943,8.711,1.081,5.849,1.512,8.79.8,5.894,1.087,8.858.509,5.928.655,8.9S692.645,221.587,692.645,224.562Z" fill="#e75825"/>
      <path id="Path_36" data-name="Path 36" d="M660.082,224.56q0,3.66-.179,7.314t-.532,7.3q-.361,3.642-.891,7.257t-1.243,7.207q-.707,3.591-1.591,7.139t-1.943,7.049c-.7,2.338-1.462,4.648-2.28,6.947s-1.686,4.57-2.615,6.824-1.91,4.485-2.946,6.688-2.123,4.384-3.266,6.536-2.335,4.271-3.584,6.362-2.543,4.153-3.887,6.181-2.744,4.023-4.189,5.978-2.935,3.883-4.47,5.77-3.119,3.73-4.749,5.539-3.3,3.573-5.013,5.3-3.466,3.409-5.264,5.043-3.63,3.234-5.5,4.778-3.786,3.048-5.735,4.5-3.926,2.857-5.943,4.215-4.06,2.659-6.138,3.91-4.189,2.457-6.329,3.606-4.3,2.249-6.491,3.291-4.4,2.029-6.642,2.964-4.5,1.809-6.783,2.631-4.581,1.589-6.906,2.294-4.654,1.357-7,1.955-4.716,1.127-7.1,1.6-4.76.89-7.157,1.251-4.806.654-7.22.9-4.827.417-7.247.535-4.844.18-7.264.18-4.85-.056-7.27-.18-4.839-.3-7.247-.535-4.817-.541-7.214-.9-4.788-.778-7.163-1.251-4.744-1.009-7.09-1.6-4.688-1.245-7.007-1.955-4.621-1.471-6.906-2.294-4.542-1.7-6.776-2.631-4.459-1.922-6.649-2.964-4.357-2.141-6.491-3.291-4.245-2.349-6.329-3.606-4.122-2.558-6.138-3.91-4-2.761-5.942-4.215-3.859-2.953-5.73-4.5-3.707-3.139-5.505-4.778-3.551-3.319-5.265-5.043-3.383-3.488-5.013-5.3-3.209-3.651-4.749-5.539-3.024-3.809-4.469-5.77-2.84-3.949-4.184-5.978-2.644-4.085-3.892-6.181-2.442-4.215-3.585-6.362-2.229-4.333-3.265-6.536-2.016-4.434-2.946-6.688-1.8-4.525-2.616-6.824-1.579-4.609-2.279-6.947-1.35-4.683-1.938-7.049-1.12-4.745-1.6-7.139-.885-4.795-1.244-7.207-.649-4.829-.884-7.257-.42-4.863-.538-7.3-.179-4.874-.179-7.314.061-4.874.179-7.314.3-4.863.538-7.291.532-4.852.884-7.263.773-4.812,1.244-7.207,1-4.772,1.6-7.139,1.232-4.711,1.938-7.049,1.462-4.649,2.279-6.942,1.686-4.575,2.616-6.829,1.91-4.48,2.946-6.688,2.123-4.378,3.265-6.531,2.341-4.271,3.585-6.367,2.542-4.153,3.892-6.181,2.739-4.018,4.184-5.979,2.934-3.882,4.469-5.764,3.12-3.736,4.749-5.539,3.3-3.578,5.013-5.3,3.467-3.4,5.265-5.043,3.629-3.229,5.505-4.778,3.781-3.048,5.73-4.5,3.926-2.857,5.942-4.209,4.061-2.66,6.138-3.916,4.19-2.451,6.329-3.6,4.3-2.248,6.491-3.291,4.408-2.034,6.649-2.964,4.5-1.814,6.776-2.637,4.587-1.583,6.906-2.293,4.654-1.358,7.007-1.95,4.715-1.127,7.09-1.6,4.766-.9,7.163-1.251,4.8-.659,7.214-.9,4.828-.423,7.247-.541,4.845-.18,7.27-.18,4.845.062,7.264.18,4.839.3,7.247.541,4.817.535,7.22.9,4.783.772,7.157,1.251,4.744,1.009,7.1,1.6,4.682,1.245,7,1.95,4.621,1.476,6.906,2.293,4.542,1.7,6.783,2.637,4.452,1.921,6.642,2.964,4.357,2.136,6.491,3.291,4.251,2.35,6.329,3.6,4.122,2.558,6.138,3.916,4,2.761,5.943,4.209,3.859,2.958,5.735,4.5,3.707,3.138,5.5,4.778,3.551,3.319,5.264,5.043,3.389,3.494,5.013,5.3,3.209,3.652,4.749,5.539,3.03,3.8,4.47,5.764,2.839,3.956,4.189,5.979,2.644,4.091,3.887,6.181,2.442,4.215,3.584,6.367,2.23,4.328,3.266,6.531,2.021,4.434,2.946,6.688,1.8,4.53,2.615,6.829,1.58,4.609,2.28,6.942,1.349,4.688,1.943,7.049,1.12,4.75,1.591,7.139.885,4.795,1.243,7.207.65,4.834.891,7.263.414,4.857.532,7.291S660.082,222.12,660.082,224.56Z" fill="#fff"/>
      <path id="Path_37" data-name="Path 37" d="M560.775,49.835q0,2.409-.236,4.812t-.705,4.767c-.308,1.572-.7,3.133-1.16,4.671s-1,3.048-1.613,4.536-1.293,2.936-2.049,4.356-1.574,2.795-2.459,4.136-1.843,2.626-2.857,3.865-2.083,2.434-3.214,3.572-2.313,2.214-3.546,3.234-2.52,1.978-3.847,2.874-2.694,1.718-4.106,2.474a47.481,47.481,0,0,1-4.329,2.062c-1.473.614-2.98,1.155-4.508,1.623s-3.075.856-4.643,1.172-3.148.547-4.739.7-3.181.237-4.777.237-3.192-.079-4.783-.237-3.17-.395-4.738-.7-3.114-.7-4.643-1.172-3.03-1.009-4.509-1.623a47.617,47.617,0,0,1-4.329-2.062c-1.406-.755-2.778-1.583-4.1-2.474s-2.61-1.854-3.848-2.874-2.414-2.1-3.545-3.234-2.2-2.327-3.215-3.572a47.887,47.887,0,0,1-2.851-3.865c-.89-1.341-1.708-2.716-2.464-4.136s-1.434-2.868-2.045-4.356-1.148-3-1.613-4.536-.851-3.1-1.164-4.671-.544-3.167-.7-4.767-.235-3.206-.235-4.812.079-3.212.235-4.812.387-3.189.7-4.767.7-3.139,1.164-4.677,1-3.048,1.613-4.536,1.294-2.936,2.045-4.356,1.574-2.795,2.464-4.13a46.991,46.991,0,0,1,2.851-3.871q1.521-1.868,3.215-3.572t3.545-3.234q1.857-1.53,3.848-2.868c1.327-.9,2.7-1.719,4.1-2.479s2.851-1.442,4.329-2.062,2.98-1.155,4.509-1.623,3.075-.856,4.643-1.166,3.147-.552,4.738-.71,3.181-.237,4.783-.237,3.192.079,4.777.237,3.17.394,4.739.71,3.114.7,4.643,1.166,3.035,1.009,4.508,1.623,2.918,1.3,4.329,2.062,2.778,1.583,4.106,2.479,2.61,1.848,3.847,2.868,2.414,2.1,3.546,3.234,2.2,2.327,3.214,3.572,1.966,2.53,2.857,3.871,1.708,2.71,2.459,4.13,1.433,2.868,2.049,4.356,1.149,3,1.613,4.536.852,3.1,1.16,4.677.549,3.167.705,4.767S560.775,48.223,560.775,49.835Z" fill="#e75825"/>
      <path id="Path_38" data-name="Path 38" d="M492.045,464.048q0-4.463.218-8.92t.65-8.9q.437-4.439,1.087-8.858t1.517-8.79q.865-4.379,1.938-8.706t2.369-8.6Q501.109,407,502.6,402.8t3.193-8.328q1.7-4.116,3.6-8.153t3.988-7.973q2.084-3.939,4.369-7.765t4.743-7.539q2.461-3.709,5.108-7.3t5.455-7.032q2.807-3.449,5.791-6.756t6.111-6.462q3.141-3.162,6.424-6.154t6.715-5.831q3.428-2.832,6.99-5.489t7.247-5.138q3.688-2.477,7.494-4.773t7.712-4.4q3.915-2.1,7.925-4.011t8.1-3.612q4.1-1.707,8.272-3.212t8.418-2.8q4.251-1.293,8.547-2.378t8.653-1.955q4.352-.871,8.737-1.527t8.8-1.094q4.41-.439,8.843-.659t8.866-.214q4.436,0,8.866.214t8.838.659q4.419.439,8.8,1.094t8.737,1.527q4.344.87,8.648,1.955t8.547,2.378q4.242,1.293,8.423,2.8t8.272,3.212q4.092,1.707,8.1,3.612t7.92,4.011q3.915,2.106,7.718,4.4t7.488,4.773q3.687,2.484,7.253,5.138t6.989,5.489q3.428,2.83,6.716,5.831t6.418,6.154q3.133,3.152,6.116,6.462t5.791,6.756q2.814,3.448,5.455,7.032t5.108,7.3q2.461,3.711,4.744,7.539t4.368,7.765q2.093,3.939,3.988,7.973t3.59,8.153q1.7,4.125,3.192,8.328t2.784,8.475q1.285,4.268,2.363,8.6t1.944,8.706q.865,4.379,1.518,8.79t1.081,8.858q.437,4.444.655,8.9t.218,8.92q0,4.463-.218,8.92t-.655,8.9q-.429,4.446-1.081,8.858t-1.518,8.79q-.866,4.377-1.944,8.711t-2.363,8.6q-1.285,4.269-2.784,8.475t-3.192,8.322q-1.7,4.125-3.59,8.159t-3.988,7.967q-2.091,3.939-4.368,7.765t-4.744,7.539q-2.47,3.711-5.108,7.3t-5.455,7.038q-2.814,3.449-5.791,6.756t-6.116,6.463q-3.133,3.151-6.418,6.153t-6.716,5.826q-3.427,2.831-6.989,5.488t-7.253,5.139q-3.688,2.484-7.488,4.772t-7.718,4.4q-3.907,2.1-7.92,4.012t-8.1,3.617q-4.1,1.709-8.272,3.212t-8.423,2.8q-4.243,1.294-8.547,2.378t-8.648,1.956q-4.352.87-8.737,1.527t-8.8,1.093q-4.41.43-8.838.653t-8.866.22q-4.435,0-8.866-.22t-8.843-.653q-4.411-.439-8.8-1.093t-8.737-1.527q-4.352-.871-8.653-1.956t-8.547-2.378q-4.242-1.3-8.418-2.8t-8.272-3.212q-4.1-1.707-8.1-3.617t-7.925-4.012q-3.906-2.1-7.712-4.4t-7.494-4.772q-3.688-2.477-7.247-5.139t-6.99-5.488q-3.427-2.832-6.715-5.826t-6.424-6.153q-3.133-3.162-6.111-6.463t-5.791-6.756q-2.814-3.457-5.455-7.038t-5.108-7.3q-2.461-3.71-4.743-7.539t-4.369-7.765q-2.092-3.93-3.988-7.967t-3.6-8.159q-1.7-4.125-3.193-8.322t-2.778-8.475q-1.293-4.277-2.369-8.6t-1.938-8.711q-.865-4.379-1.517-8.79t-1.087-8.858q-.436-4.437-.65-8.9T492.045,464.048Z" fill="#147f00"/>
      <path id="Path_39" data-name="Path 39" d="M524.6,464.048q0-3.66.179-7.314t.537-7.3q.354-3.643.891-7.258t1.238-7.207q.714-3.591,1.6-7.139t1.938-7.049c.7-2.338,1.462-4.648,2.279-6.947s1.692-4.57,2.616-6.824,1.91-4.485,2.946-6.688,2.128-4.384,3.271-6.536,2.335-4.271,3.578-6.362,2.543-4.153,3.893-6.181,2.739-4.023,4.184-5.978,2.934-3.883,4.475-5.77,3.119-3.73,4.743-5.539,3.3-3.572,5.013-5.3,3.467-3.409,5.265-5.043,3.629-3.234,5.505-4.778,3.781-3.048,5.73-4.5,3.926-2.857,5.942-4.215,4.061-2.659,6.144-3.91,4.184-2.457,6.323-3.606,4.3-2.248,6.491-3.291,4.408-2.028,6.648-2.964,4.5-1.808,6.783-2.631,4.581-1.589,6.9-2.293,4.654-1.358,7.006-1.956,4.716-1.127,7.091-1.6,4.766-.89,7.163-1.251,4.8-.653,7.214-.9,4.828-.417,7.247-.535,4.845-.18,7.27-.18,4.845.056,7.264.18,4.839.3,7.253.535,4.817.541,7.214.9,4.783.778,7.157,1.251,4.744,1.009,7.1,1.6,4.683,1.246,7.007,1.956,4.62,1.47,6.9,2.293,4.542,1.7,6.782,2.631,4.453,1.922,6.643,2.964,4.357,2.141,6.5,3.291,4.245,2.349,6.323,3.606,4.128,2.558,6.138,3.91,4,2.761,5.948,4.215,3.853,2.953,5.73,4.5,3.707,3.139,5.5,4.778,3.55,3.319,5.264,5.043,3.389,3.488,5.013,5.3,3.215,3.651,4.749,5.539,3.03,3.809,4.475,5.77,2.834,3.95,4.184,5.978,2.644,4.085,3.887,6.181,2.442,4.215,3.584,6.362,2.229,4.333,3.265,6.536,2.022,4.434,2.946,6.688,1.8,4.525,2.616,6.824,1.579,4.609,2.285,6.947,1.35,4.683,1.938,7.049,1.12,4.745,1.591,7.139.89,4.8,1.243,7.207.65,4.829.89,7.258.415,4.862.532,7.3.18,4.874.18,7.314-.056,4.874-.18,7.314-.3,4.863-.532,7.291-.532,4.852-.89,7.263-.767,4.812-1.243,7.207-1,4.773-1.591,7.139-1.238,4.711-1.938,7.049-1.467,4.649-2.285,6.942-1.686,4.575-2.616,6.829-1.909,4.48-2.946,6.688-2.122,4.379-3.265,6.531-2.335,4.271-3.584,6.367-2.543,4.153-3.887,6.181-2.744,4.018-4.184,5.979-2.935,3.882-4.475,5.764-3.119,3.736-4.749,5.539-3.3,3.578-5.013,5.3-3.467,3.4-5.264,5.043-3.63,3.229-5.5,4.778-3.786,3.049-5.73,4.5-3.932,2.857-5.948,4.209-4.06,2.66-6.138,3.917-4.189,2.451-6.323,3.6-4.3,2.248-6.5,3.291-4.4,2.034-6.643,2.964-4.5,1.814-6.782,2.637-4.581,1.583-6.9,2.293-4.654,1.358-7.007,1.949-4.715,1.127-7.1,1.6-4.76.9-7.157,1.251-4.806.659-7.214.895-4.833.423-7.253.541-4.839.181-7.264.181-4.845-.062-7.27-.181-4.833-.3-7.247-.541-4.817-.535-7.214-.895-4.783-.772-7.163-1.251-4.738-1.009-7.091-1.6-4.687-1.245-7.006-1.949-4.621-1.476-6.9-2.3-4.542-1.7-6.783-2.631-4.458-1.922-6.648-2.964-4.351-2.136-6.491-3.291-4.245-2.35-6.323-3.6-4.128-2.559-6.144-3.917-3.993-2.761-5.942-4.209-3.859-2.958-5.73-4.5-3.708-3.138-5.505-4.778-3.551-3.319-5.265-5.043-3.383-3.493-5.013-5.3-3.209-3.651-4.743-5.539-3.03-3.8-4.475-5.764-2.84-3.956-4.184-5.979-2.644-4.09-3.893-6.181-2.436-4.215-3.578-6.367-2.235-4.327-3.271-6.531-2.017-4.434-2.946-6.688-1.8-4.53-2.616-6.829-1.574-4.609-2.279-6.942-1.35-4.688-1.938-7.049-1.12-4.75-1.6-7.139-.885-4.795-1.238-7.207-.655-4.834-.891-7.263-.42-4.857-.537-7.291S524.6,466.488,524.6,464.048Z" fill="#fff"/>
      <path id="Path_40" data-name="Path 40" d="M623.914,638.772q0-2.407.235-4.812t.7-4.766q.471-2.359,1.165-4.672t1.613-4.535c.611-1.488,1.294-2.936,2.045-4.356s1.573-2.795,2.464-4.136a47.853,47.853,0,0,1,2.851-3.865q1.52-1.869,3.214-3.573t3.551-3.234q1.848-1.53,3.842-2.874c1.328-.89,2.7-1.718,4.106-2.473s2.856-1.448,4.329-2.062,2.98-1.156,4.509-1.623,3.08-.857,4.643-1.172,3.147-.547,4.738-.705,3.181-.236,4.783-.236,3.192.079,4.783.236,3.164.4,4.732.705,3.114.7,4.643,1.172,3.036,1.008,4.509,1.623a46.739,46.739,0,0,1,4.329,2.062c1.412.755,2.778,1.583,4.106,2.473s2.609,1.854,3.847,2.874a47.248,47.248,0,0,1,3.546,3.234q1.7,1.708,3.214,3.573t2.857,3.865q1.328,2.012,2.458,4.136a48.009,48.009,0,0,1,2.05,4.356q.917,2.23,1.613,4.535c.459,1.539.852,3.1,1.16,4.672s.548,3.166.705,4.766.235,3.207.235,4.812-.078,3.212-.235,4.812-.392,3.19-.705,4.767-.7,3.139-1.16,4.677-1,3.048-1.613,4.536a48,48,0,0,1-2.05,4.356c-.75,1.42-1.573,2.794-2.458,4.13s-1.843,2.631-2.857,3.871-2.083,2.434-3.214,3.572a47.027,47.027,0,0,1-3.546,3.234,47.677,47.677,0,0,1-3.847,2.868c-1.328.9-2.694,1.719-4.106,2.48s-2.85,1.442-4.329,2.062-2.98,1.155-4.509,1.623-3.074.856-4.643,1.166-3.142.552-4.732.71-3.187.237-4.783.237-3.193-.079-4.783-.237-3.17-.394-4.738-.71-3.114-.7-4.643-1.166-3.03-1.009-4.509-1.623-2.918-1.3-4.329-2.062-2.778-1.584-4.106-2.48a47.609,47.609,0,0,1-3.842-2.868q-1.855-1.528-3.551-3.234t-3.214-3.572a47.082,47.082,0,0,1-2.851-3.871c-.891-1.336-1.708-2.71-2.464-4.13s-1.434-2.868-2.045-4.356-1.148-3-1.613-4.536-.851-3.1-1.165-4.677-.543-3.166-.7-4.767S623.914,640.384,623.914,638.772Z" fill="#147f00"/>
      <path id="Path_41" data-name="Path 41" d="M1020.08,224.562q0,4.463-.22,8.919t-.65,8.9q-.435,4.437-1.09,8.858t-1.51,8.79q-.87,4.378-1.94,8.7t-2.37,8.6c-.86,2.851-1.78,5.674-2.78,8.474s-2.06,5.579-3.19,8.328-2.33,5.466-3.6,8.154-2.59,5.347-3.979,7.973-2.851,5.212-4.375,7.764-3.1,5.066-4.743,7.539-3.344,4.9-5.1,7.3-3.584,4.733-5.455,7.032-3.808,4.553-5.8,6.756-4.022,4.362-6.111,6.463-4.234,4.159-6.424,6.153-4.43,3.945-6.715,5.832-4.615,3.713-6.99,5.488-4.788,3.483-7.247,5.139-4.957,3.246-7.494,4.773-5.108,3-7.712,4.4-5.248,2.739-7.919,4.012-5.377,2.474-8.11,3.612-5.489,2.209-8.272,3.212-5.59,1.938-8.418,2.8-5.679,1.657-8.547,2.378-5.752,1.375-8.653,1.955-5.813,1.093-8.737,1.527-5.858.8-8.8,1.093-5.892.513-8.843.66-5.909.214-8.866.214-5.909-.074-8.86-.214-5.9-.367-8.844-.66-5.875-.653-8.8-1.093-5.836-.946-8.732-1.527-5.785-1.228-8.653-1.955-5.718-1.516-8.547-2.378-5.634-1.8-8.417-2.8-5.545-2.074-8.273-3.212-5.438-2.344-8.109-3.612-5.31-2.609-7.92-4.012-5.18-2.873-7.718-4.4-5.029-3.122-7.488-4.773-4.878-3.369-7.253-5.139-4.7-3.6-6.989-5.488-4.52-3.831-6.71-5.832-4.335-4.045-6.424-6.153-4.128-4.26-6.116-6.463-3.915-4.457-5.791-6.756-3.691-4.643-5.455-7.032-3.461-4.823-5.108-7.3-3.22-4.986-4.744-7.539-2.974-5.138-4.368-7.764-2.722-5.28-3.988-7.973-2.459-5.41-3.59-8.154-2.2-5.527-3.192-8.328-1.921-5.623-2.784-8.474-1.647-5.714-2.363-8.6-1.367-5.786-1.944-8.7-1.081-5.849-1.518-8.79-.795-5.9-1.081-8.858-.509-5.928-.655-8.9-.218-5.944-.218-8.919.072-5.945.218-8.92.364-5.939.655-8.9.65-5.916,1.081-8.858.941-5.871,1.518-8.79,1.227-5.82,1.944-8.711,1.506-5.747,2.363-8.6,1.787-5.669,2.784-8.475,2.061-5.573,3.192-8.322,2.33-5.472,3.59-8.159,2.593-5.348,3.988-7.968,2.85-5.212,4.368-7.764,3.1-5.066,4.744-7.539,3.349-4.908,5.108-7.3,3.579-4.733,5.455-7.038,3.808-4.547,5.791-6.756,4.027-4.355,6.116-6.463,4.229-4.153,6.424-6.153,4.425-3.939,6.71-5.826,4.615-3.719,6.989-5.488,4.795-3.488,7.253-5.139,4.957-3.246,7.488-4.773,5.108-3,7.718-4.4,5.248-2.738,7.92-4.012,5.376-2.479,8.109-3.617,5.489-2.209,8.273-3.212,5.589-1.933,8.417-2.8,5.68-1.657,8.547-2.378,5.752-1.375,8.653-1.955,5.808-1.087,8.732-1.527,5.858-.8,8.8-1.093,5.886-.507,8.844-.654,5.9-.22,8.86-.22,5.914.073,8.866.22,5.9.366,8.843.654,5.875.659,8.8,1.093,5.836.947,8.737,1.527,5.786,1.234,8.653,1.955,5.718,1.516,8.547,2.378,5.634,1.8,8.418,2.8,5.539,2.074,8.272,3.212,5.433,2.344,8.11,3.617,5.309,2.609,7.919,4.012,5.175,2.868,7.712,4.4,5.035,3.116,7.494,4.773,4.873,3.364,7.247,5.139,4.705,3.6,6.99,5.488,4.525,3.832,6.715,5.826,4.33,4.051,6.424,6.153,4.128,4.26,6.111,6.463,3.92,4.457,5.8,6.756,3.691,4.649,5.455,7.038,3.462,4.823,5.1,7.3,3.226,4.986,4.743,7.539,2.98,5.139,4.375,7.764,2.719,5.28,3.979,7.968,2.47,5.409,3.6,8.159,2.19,5.522,3.19,8.322,1.92,5.629,2.78,8.475,1.65,5.713,2.37,8.6,1.36,5.792,1.94,8.711,1.08,5.849,1.51,8.79.8,5.894,1.09,8.858.51,5.928.65,8.9S1020.08,221.587,1020.08,224.562Z" fill="#47175a"/>
      <path id="Path_42" data-name="Path 42" d="M987.521,224.56q0,3.66-.179,7.314t-.538,7.3q-.353,3.642-.885,7.257t-1.243,7.207q-.714,3.591-1.6,7.139t-1.938,7.049c-.7,2.338-1.462,4.648-2.279,6.947s-1.686,4.57-2.616,6.824-1.91,4.485-2.946,6.688-2.128,4.384-3.271,6.536-2.335,4.271-3.579,6.362-2.542,4.153-3.892,6.181-2.739,4.023-4.184,5.978-2.935,3.883-4.469,5.77-3.12,3.73-4.75,5.539-3.3,3.573-5.012,5.3-3.467,3.409-5.265,5.043-3.629,3.234-5.505,4.778-3.781,3.048-5.73,4.5-3.926,2.857-5.942,4.215-4.061,2.659-6.144,3.91-4.184,2.457-6.323,3.606-4.3,2.249-6.492,3.291-4.407,2.029-6.648,2.964-4.5,1.809-6.776,2.631-4.587,1.589-6.906,2.294-4.654,1.357-7.007,1.955-4.715,1.127-7.09,1.6-4.766.89-7.163,1.251-4.8.654-7.214.9-4.828.417-7.247.535-4.845.18-7.27.18-4.845-.056-7.264-.18-4.839-.3-7.248-.535-4.816-.541-7.219-.9-4.783-.778-7.158-1.251-4.743-1.009-7.1-1.6-4.682-1.245-7-1.955-4.621-1.471-6.906-2.294-4.542-1.7-6.783-2.631-4.452-1.922-6.642-2.964-4.357-2.141-6.5-3.291-4.245-2.349-6.323-3.606-4.122-2.558-6.138-3.91-4-2.761-5.943-4.215-3.859-2.953-5.735-4.5-3.708-3.139-5.5-4.778-3.551-3.319-5.264-5.043-3.389-3.488-5.013-5.3-3.209-3.651-4.749-5.539-3.03-3.809-4.47-5.77-2.839-3.949-4.189-5.978-2.644-4.085-3.887-6.181-2.442-4.215-3.584-6.362-2.23-4.333-3.266-6.536-2.022-4.434-2.946-6.688-1.8-4.525-2.615-6.824-1.58-4.609-2.28-6.947-1.349-4.683-1.943-7.049-1.12-4.745-1.591-7.139-.885-4.795-1.243-7.207-.65-4.829-.891-7.257-.414-4.863-.532-7.3-.179-4.874-.179-7.314.062-4.874.179-7.314.3-4.863.532-7.291.538-4.852.891-7.263.773-4.812,1.243-7.207,1-4.772,1.591-7.139,1.238-4.711,1.943-7.049,1.462-4.649,2.28-6.942,1.686-4.575,2.615-6.829,1.91-4.48,2.946-6.688,2.123-4.378,3.266-6.531,2.335-4.271,3.584-6.367,2.543-4.153,3.887-6.181,2.744-4.018,4.189-5.979,2.935-3.882,4.47-5.764,3.119-3.736,4.749-5.539,3.3-3.578,5.013-5.3,3.466-3.4,5.264-5.043,3.629-3.229,5.5-4.778,3.786-3.048,5.735-4.5,3.926-2.857,5.943-4.209,4.06-2.66,6.138-3.916,4.189-2.451,6.323-3.6,4.307-2.248,6.5-3.291,4.4-2.034,6.642-2.964,4.5-1.814,6.783-2.637,4.581-1.583,6.906-2.293,4.654-1.358,7-1.95,4.716-1.127,7.1-1.6,4.761-.9,7.158-1.251,4.806-.659,7.219-.9,4.828-.423,7.248-.541,4.844-.18,7.264-.18,4.85.062,7.27.18,4.833.3,7.247.541,4.817.535,7.214.9,4.788.772,7.163,1.251,4.744,1.009,7.09,1.6,4.688,1.245,7.007,1.95,4.62,1.476,6.906,2.293,4.542,1.7,6.776,2.637,4.459,1.921,6.648,2.964,4.358,2.136,6.492,3.291,4.245,2.35,6.323,3.6,4.128,2.558,6.144,3.916,3.993,2.761,5.942,4.209,3.859,2.958,5.73,4.5,3.707,3.138,5.505,4.778,3.551,3.319,5.265,5.043,3.383,3.494,5.012,5.3,3.21,3.652,4.75,5.539,3.024,3.8,4.469,5.764,2.84,3.956,4.184,5.979,2.643,4.091,3.892,6.181,2.437,4.215,3.579,6.367,2.235,4.328,3.271,6.531,2.016,4.434,2.946,6.688,1.8,4.53,2.616,6.829,1.579,4.609,2.279,6.942,1.35,4.688,1.938,7.049,1.12,4.75,1.6,7.139.885,4.795,1.243,7.207.65,4.834.885,7.263.42,4.857.538,7.291S987.521,222.12,987.521,224.56Z" fill="#fff"/>
      <path id="Path_43" data-name="Path 43" d="M888.21,49.835q0,2.409-.235,4.812c-.157,1.6-.386,3.189-.7,4.767s-.7,3.133-1.165,4.671-1,3.048-1.613,4.536-1.294,2.936-2.044,4.356-1.574,2.795-2.465,4.136-1.837,2.626-2.85,3.865-2.084,2.434-3.215,3.572-2.313,2.214-3.545,3.234-2.521,1.978-3.848,2.874-2.7,1.718-4.105,2.474-2.857,1.448-4.33,2.062-2.979,1.155-4.508,1.623-3.075.856-4.643,1.172-3.148.547-4.739.7-3.181.237-4.783.237-3.192-.079-4.777-.237-3.17-.395-4.738-.7-3.114-.7-4.643-1.172-3.036-1.009-4.509-1.623a47.6,47.6,0,0,1-4.329-2.062c-1.411-.755-2.778-1.583-4.105-2.474s-2.61-1.854-3.848-2.874-2.42-2.1-3.545-3.234-2.2-2.327-3.215-3.572-1.966-2.53-2.856-3.865-1.709-2.716-2.459-4.136-1.434-2.868-2.05-4.356-1.148-3-1.613-4.536-.851-3.1-1.159-4.671-.549-3.167-.706-4.767-.235-3.206-.235-4.812.078-3.212.235-4.812.392-3.189.706-4.767.7-3.139,1.159-4.677,1-3.048,1.613-4.536,1.294-2.936,2.05-4.356,1.574-2.795,2.459-4.13,1.842-2.631,2.856-3.871,2.083-2.434,3.215-3.572,2.313-2.214,3.545-3.234,2.52-1.978,3.848-2.868,2.694-1.719,4.105-2.479,2.851-1.442,4.329-2.062,2.98-1.155,4.509-1.623,3.075-.856,4.643-1.166,3.147-.552,4.738-.71,3.181-.237,4.777-.237,3.193.079,4.783.237,3.17.394,4.739.71,3.114.7,4.643,1.166,3.03,1.009,4.508,1.623,2.918,1.3,4.33,2.062,2.778,1.583,4.105,2.479,2.61,1.848,3.848,2.868,2.413,2.1,3.545,3.234,2.2,2.327,3.215,3.572a47.2,47.2,0,0,1,2.85,3.871c.891,1.335,1.709,2.71,2.465,4.13s1.433,2.868,2.044,4.356,1.148,3,1.613,4.536.851,3.1,1.165,4.677.543,3.167.7,4.767S888.21,48.223,888.21,49.835Z" fill="#47175a"/>
      <path id="Path_44" data-name="Path 44" d="M172.81,53.541a53.866,53.866,0,0,0,5-16.386V62.123A81.4,81.4,0,0,1,177.352,72h7.662a74.192,74.192,0,0,1-.5-9.877V44.954a75.3,75.3,0,0,1,.5-9.878h-7.477a41.347,41.347,0,0,1-9.818,16.155Z" fill="#fff"/>
      <path id="Path_45" data-name="Path 45" d="M495.9,72h26.929l2.386-7.663c-5.6,2.862-8.53,3.093-13.851,3.138l-13.492.141c2.711-6.508,6.883-8.677,14.5-11.585,5.455-2.4,11.974-4.936,11.974-11.906,0-6.829-7.253-9.968-14.085-9.968-6.788,0-13.716,3.229-13.716,9,0,3.5,2.016,6.412,5.735,8.4l4.816-4.108c-2.935-1.065-4.727-3.093-4.727-5.911,0-3.5,2.89-6.412,7.2-6.412,4.267,0,6.928,3.184,6.928,7.889,0,5.122-3.3,8.17-8.44,11.861C502.552,58.8,497.551,61.986,495.9,72Z" fill="#fff"/>
      <path id="Path_46" data-name="Path 46" d="M840.452,51.646c5.231-1.662,9.818-4.2,9.818-9.506,0-5.358-5.321-7.984-11.285-7.984a14.527,14.527,0,0,0-13.257,8.029l5.455,2.491c1.238-5.629,3.215-9.551,7.477-9.551,3.349,0,4.817,2.35,4.817,5.488,0,4.384-1.832,8.491-8.53,12.233l.184.969c7.153-1.662,10.827,2.3,10.827,7.432,0,5.167-2.8,9.41-8.995,9.41-5.6,0-10.871-2.812-12.109-10.52h-.874c1.014,8.677,6.794,12.785,15.414,12.785,7.572,0,13.856-4.479,13.856-11.675C853.25,53.584,847.011,51.184,840.452,51.646Z" fill="#fff"/>
      <path id="Path_47" data-name="Path 47" d="M357.8,639.461l2.2-7.522a25.1,25.1,0,0,1-7.981,2.812V622.614a75.31,75.31,0,0,1,.5-9.878h-7.432c-1.607,5.032-7.8,15.693-18.118,25.756v.969h18.348v.322a74.044,74.044,0,0,1-.505,9.877h7.662a81.4,81.4,0,0,1-.459-9.877v-.322Zm-26.06-4.89c6.794-7.066,11.61-14.91,13.582-19.71v20.217A131.053,131.053,0,0,1,331.739,634.571Z" fill="#fff"/>
      <path id="Path_48" data-name="Path 48" d="M663.358,612.736l-2.616,18.138.555.507c3.943-3.459,6.648-4.383,9.359-4.383,4.676,0,7.706,3.645,7.706,9.832,0,7.1-3.674,12-9.269,12-5.231,0-9.4-2.631-10.092-10.154h-.874c.739,7.7,5.1,11.906,13.811,11.906,7.158,0,14.769-3.921,14.769-13.337,0-8.446-7.2-11.726-13.441-11.726a16.681,16.681,0,0,0-11.42,4.294l1.786-12.689h6.1c7.107,0,9.863.321,15.688,3.138l-2.156-7.528Z" fill="#fff"/>
    </g>
    <path id="Path_53" data-name="Path 53" d="M-74.85-11.07h10.83l-.03,2.58h-10.8ZM-74.58,0h-2.97l.03-21h14.79v2.58l-11.82.03Zm15.36,0V-15.9h2.76v4.32l-.27-1.08a4.884,4.884,0,0,1,2.22-2.52,7.788,7.788,0,0,1,3.84-.87v2.79a2.1,2.1,0,0,0-.345-.03h-.315a4.885,4.885,0,0,0-3.66,1.38,5.475,5.475,0,0,0-1.35,3.99V0Zm18.75.18A8.847,8.847,0,0,1-44.73-.885,7.6,7.6,0,0,1-47.655-3.75a8.2,8.2,0,0,1-1.065-4.2,7.745,7.745,0,0,1,1.065-4.185A8,8,0,0,1-44.715-15,8.37,8.37,0,0,1-40.5-16.05,8.6,8.6,0,0,1-36.225-15a7.708,7.708,0,0,1,2.94,2.865A8.115,8.115,0,0,1-32.22-7.95a8.2,8.2,0,0,1-1.065,4.2A7.54,7.54,0,0,1-36.24-.885,8.9,8.9,0,0,1-40.47.18Zm0-2.52a5.46,5.46,0,0,0,2.745-.69,4.874,4.874,0,0,0,1.9-1.965A6.358,6.358,0,0,0-35.1-7.95a6.236,6.236,0,0,0-.72-2.955,4.924,4.924,0,0,0-1.9-1.935,5.692,5.692,0,0,0-2.745-.72,5.6,5.6,0,0,0-2.73.72,5.169,5.169,0,0,0-1.92,1.935,5.8,5.8,0,0,0-.72,2.955,5.907,5.907,0,0,0,.72,2.955A5.145,5.145,0,0,0-43.215-3.03,5.355,5.355,0,0,0-40.47-2.34Zm20.73-13.71a7.521,7.521,0,0,1,3.435.75,5.382,5.382,0,0,1,2.325,2.28,7.977,7.977,0,0,1,.84,3.87V0h-2.88V-8.82a4.839,4.839,0,0,0-1.125-3.48,4.185,4.185,0,0,0-3.165-1.17,5.654,5.654,0,0,0-2.67.6,4.109,4.109,0,0,0-1.755,1.77,6.206,6.206,0,0,0-.615,2.91V0h-2.88V-15.9h2.76v4.29l-.45-1.14a5.522,5.522,0,0,1,2.4-2.43A7.871,7.871,0,0,1-19.74-16.05ZM-2.34.18A5.1,5.1,0,0,1-6.06-1.11,4.926,4.926,0,0,1-7.38-4.8V-19.38H-4.5V-4.92a2.793,2.793,0,0,0,.645,1.98,2.4,2.4,0,0,0,1.845.69A3.4,3.4,0,0,0,.24-3l.9,2.07A4.187,4.187,0,0,1-.435-.09,6.7,6.7,0,0,1-2.34.18Zm-7.74-13.71V-15.9H.06v2.37ZM3.33-7.02,3.3-9.48h8.04l.03,2.49ZM23.19.18A9.257,9.257,0,0,1,18.705-.87a7.566,7.566,0,0,1-3-2.88,8.2,8.2,0,0,1-1.065-4.2,8.383,8.383,0,0,1,1.035-4.2,7.471,7.471,0,0,1,2.85-2.865,8.118,8.118,0,0,1,4.1-1.035,8.024,8.024,0,0,1,4.08,1.02,7.22,7.22,0,0,1,2.775,2.865A8.861,8.861,0,0,1,30.48-7.86q0,.18-.015.42t-.045.45H16.89V-9.06H28.92l-1.17.72a5.346,5.346,0,0,0-.63-2.73,4.814,4.814,0,0,0-1.815-1.875,5.224,5.224,0,0,0-2.685-.675,5.245,5.245,0,0,0-2.67.675,4.756,4.756,0,0,0-1.83,1.89,5.72,5.72,0,0,0-.66,2.775v.48A5.47,5.47,0,0,0,18.2-4.965,5.048,5.048,0,0,0,20.25-3.03a6.445,6.445,0,0,0,3.03.69,6.623,6.623,0,0,0,2.565-.48A5.618,5.618,0,0,0,27.87-4.26L29.46-2.4A6.964,6.964,0,0,1,26.775-.48,9.345,9.345,0,0,1,23.19.18ZM42.96-16.05a7.521,7.521,0,0,1,3.435.75,5.382,5.382,0,0,1,2.325,2.28,7.977,7.977,0,0,1,.84,3.87V0H46.68V-8.82a4.839,4.839,0,0,0-1.125-3.48,4.185,4.185,0,0,0-3.165-1.17,5.654,5.654,0,0,0-2.67.6,4.109,4.109,0,0,0-1.755,1.77,6.206,6.206,0,0,0-.615,2.91V0H34.47V-15.9h2.76v4.29l-.45-1.14a5.522,5.522,0,0,1,2.4-2.43A7.871,7.871,0,0,1,42.96-16.05ZM61.47.18A8.273,8.273,0,0,1,57.345-.84,7.47,7.47,0,0,1,54.48-3.69a8.409,8.409,0,0,1-1.05-4.26A8.327,8.327,0,0,1,54.48-12.2a7.5,7.5,0,0,1,2.865-2.835,8.273,8.273,0,0,1,4.125-1.02,7.347,7.347,0,0,1,3.63.9,6.572,6.572,0,0,1,2.6,2.7,9.365,9.365,0,0,1,.975,4.5,9.613,9.613,0,0,1-.945,4.5A6.484,6.484,0,0,1,65.16-.735,7.372,7.372,0,0,1,61.47.18Zm.24-2.52a5.4,5.4,0,0,0,2.715-.69,4.974,4.974,0,0,0,1.92-1.965A6.007,6.007,0,0,0,67.05-7.95a5.9,5.9,0,0,0-.705-2.955,5.028,5.028,0,0,0-1.92-1.935,5.4,5.4,0,0,0-2.715-.69,5.377,5.377,0,0,0-2.73.69,5.169,5.169,0,0,0-1.92,1.935,5.8,5.8,0,0,0-.72,2.955,5.907,5.907,0,0,0,.72,2.955A5.11,5.11,0,0,0,58.98-3.03,5.377,5.377,0,0,0,61.71-2.34ZM67.14,0V-4.29l.18-3.69-.3-3.69V-22.26H69.9V0ZM-135.69,37l-7.02-21h3.09l6.45,19.38h-1.56L-128.04,16h2.76l6.54,19.38h-1.5L-113.7,16h2.85l-7.02,21h-3.15l-6.12-17.97h.81L-132.48,37Zm33.96.18a9.257,9.257,0,0,1-4.485-1.05,7.566,7.566,0,0,1-3-2.88,8.2,8.2,0,0,1-1.065-4.2,8.383,8.383,0,0,1,1.035-4.2,7.471,7.471,0,0,1,2.85-2.865A8.118,8.118,0,0,1-102.3,20.95a8.024,8.024,0,0,1,4.08,1.02,7.22,7.22,0,0,1,2.775,2.865A8.861,8.861,0,0,1-94.44,29.14q0,.18-.015.42t-.045.45h-13.53V27.94H-96l-1.17.72a5.346,5.346,0,0,0-.63-2.73,4.814,4.814,0,0,0-1.815-1.875,5.224,5.224,0,0,0-2.685-.675,5.245,5.245,0,0,0-2.67.675,4.756,4.756,0,0,0-1.83,1.89,5.72,5.72,0,0,0-.66,2.775v.48a5.47,5.47,0,0,0,.735,2.835,5.048,5.048,0,0,0,2.055,1.935,6.445,6.445,0,0,0,3.03.69,6.623,6.623,0,0,0,2.565-.48,5.618,5.618,0,0,0,2.025-1.44l1.59,1.86a6.964,6.964,0,0,1-2.685,1.92A9.345,9.345,0,0,1-101.73,37.18Zm19.71,0a7.4,7.4,0,0,1-3.675-.915,6.456,6.456,0,0,1-2.58-2.715,9.613,9.613,0,0,1-.945-4.5,9.365,9.365,0,0,1,.975-4.5,6.543,6.543,0,0,1,2.61-2.7,7.371,7.371,0,0,1,3.615-.9,8.251,8.251,0,0,1,4.14,1.02,7.532,7.532,0,0,1,2.85,2.835,8.327,8.327,0,0,1,1.05,4.245,8.409,8.409,0,0,1-1.05,4.26,7.5,7.5,0,0,1-2.85,2.85A8.251,8.251,0,0,1-82.02,37.18ZM-90.45,37V14.74h2.88V25.33l-.3,3.69.18,3.69V37Zm8.19-2.34a5.46,5.46,0,0,0,2.745-.69,4.974,4.974,0,0,0,1.92-1.965,6.007,6.007,0,0,0,.705-2.955,5.9,5.9,0,0,0-.705-2.955,5.028,5.028,0,0,0-1.92-1.935,5.46,5.46,0,0,0-2.745-.69,5.4,5.4,0,0,0-2.715.69,5.028,5.028,0,0,0-1.92,1.935A5.9,5.9,0,0,0-87.6,29.05a6.007,6.007,0,0,0,.705,2.955,4.974,4.974,0,0,0,1.92,1.965A5.4,5.4,0,0,0-82.26,34.66ZM-61.5,37V16h8.85a12.771,12.771,0,0,1,5.925,1.32,9.751,9.751,0,0,1,3.99,3.69A10.446,10.446,0,0,1-41.31,26.5a10.446,10.446,0,0,1-1.425,5.49,9.751,9.751,0,0,1-3.99,3.69A12.771,12.771,0,0,1-52.65,37Zm3-2.61h5.67a9.67,9.67,0,0,0,4.515-.99,7.2,7.2,0,0,0,2.955-2.775A7.983,7.983,0,0,0-44.31,26.5a7.962,7.962,0,0,0-1.05-4.14,7.229,7.229,0,0,0-2.955-2.76,9.67,9.67,0,0,0-4.515-.99H-58.5Zm28.44,2.79a9.257,9.257,0,0,1-4.485-1.05,7.566,7.566,0,0,1-3-2.88,8.2,8.2,0,0,1-1.065-4.2,8.383,8.383,0,0,1,1.035-4.2,7.471,7.471,0,0,1,2.85-2.865,8.118,8.118,0,0,1,4.1-1.035,8.024,8.024,0,0,1,4.08,1.02,7.22,7.22,0,0,1,2.775,2.865A8.861,8.861,0,0,1-22.77,29.14q0,.18-.015.42t-.045.45H-36.36V27.94h12.03l-1.17.72a5.346,5.346,0,0,0-.63-2.73,4.814,4.814,0,0,0-1.815-1.875,5.224,5.224,0,0,0-2.685-.675,5.246,5.246,0,0,0-2.67.675,4.756,4.756,0,0,0-1.83,1.89,5.72,5.72,0,0,0-.66,2.775v.48a5.47,5.47,0,0,0,.735,2.835A5.048,5.048,0,0,0-33,33.97a6.445,6.445,0,0,0,3.03.69,6.623,6.623,0,0,0,2.565-.48,5.618,5.618,0,0,0,2.025-1.44l1.59,1.86a6.964,6.964,0,0,1-2.685,1.92A9.345,9.345,0,0,1-30.06,37.18ZM-14.91,37l-6.96-15.9h3l6.18,14.4h-1.44l6.3-14.4h2.82L-11.97,37Zm19.23.18A9.257,9.257,0,0,1-.165,36.13a7.566,7.566,0,0,1-3-2.88,8.2,8.2,0,0,1-1.065-4.2A8.383,8.383,0,0,1-3.2,24.85a7.471,7.471,0,0,1,2.85-2.865,8.118,8.118,0,0,1,4.1-1.035,8.024,8.024,0,0,1,4.08,1.02A7.22,7.22,0,0,1,10.6,24.835,8.861,8.861,0,0,1,11.61,29.14q0,.18-.015.42t-.045.45H-1.98V27.94H10.05l-1.17.72a5.346,5.346,0,0,0-.63-2.73,4.814,4.814,0,0,0-1.815-1.875A5.224,5.224,0,0,0,3.75,23.38a5.246,5.246,0,0,0-2.67.675,4.756,4.756,0,0,0-1.83,1.89,5.72,5.72,0,0,0-.66,2.775v.48a5.47,5.47,0,0,0,.735,2.835A5.048,5.048,0,0,0,1.38,33.97a6.445,6.445,0,0,0,3.03.69,6.623,6.623,0,0,0,2.565-.48A5.618,5.618,0,0,0,9,32.74l1.59,1.86A6.964,6.964,0,0,1,7.9,36.52,9.345,9.345,0,0,1,4.32,37.18ZM15.6,37V14.74h2.88V37Zm15.18.18a8.847,8.847,0,0,1-4.26-1.065,7.6,7.6,0,0,1-2.925-2.865,8.2,8.2,0,0,1-1.065-4.2,7.745,7.745,0,0,1,1.065-4.185A8,8,0,0,1,26.535,22a8.37,8.37,0,0,1,4.215-1.05A8.6,8.6,0,0,1,35.025,22a7.708,7.708,0,0,1,2.94,2.865A8.115,8.115,0,0,1,39.03,29.05a8.2,8.2,0,0,1-1.065,4.2,7.54,7.54,0,0,1-2.955,2.865A8.9,8.9,0,0,1,30.78,37.18Zm0-2.52a5.46,5.46,0,0,0,2.745-.69,4.874,4.874,0,0,0,1.905-1.965,6.358,6.358,0,0,0,.72-2.955,6.236,6.236,0,0,0-.72-2.955,4.924,4.924,0,0,0-1.905-1.935,5.692,5.692,0,0,0-2.745-.72,5.6,5.6,0,0,0-2.73.72,5.169,5.169,0,0,0-1.92,1.935,5.8,5.8,0,0,0-.72,2.955,5.907,5.907,0,0,0,.72,2.955,5.145,5.145,0,0,0,1.905,1.965A5.355,5.355,0,0,0,30.78,34.66Zm20.67,2.52a7.275,7.275,0,0,1-3.615-.915,6.644,6.644,0,0,1-2.61-2.715,9.365,9.365,0,0,1-.975-4.5,9.613,9.613,0,0,1,.945-4.5,6.359,6.359,0,0,1,2.58-2.7,7.493,7.493,0,0,1,3.675-.9,8.251,8.251,0,0,1,4.14,1.02,7.532,7.532,0,0,1,2.85,2.835,8.327,8.327,0,0,1,1.05,4.245,8.409,8.409,0,0,1-1.05,4.26,7.5,7.5,0,0,1-2.85,2.85A8.251,8.251,0,0,1,51.45,37.18Zm-8.43,5.64V21.1h2.76v4.29l-.18,3.69.3,3.69V42.82Zm8.19-8.16a5.46,5.46,0,0,0,2.745-.69,4.974,4.974,0,0,0,1.92-1.965,6.007,6.007,0,0,0,.705-2.955,5.9,5.9,0,0,0-.705-2.955,5.028,5.028,0,0,0-1.92-1.935,5.46,5.46,0,0,0-2.745-.69,5.4,5.4,0,0,0-2.715.69,5.028,5.028,0,0,0-1.92,1.935,5.9,5.9,0,0,0-.7,2.955,6.007,6.007,0,0,0,.7,2.955,4.974,4.974,0,0,0,1.92,1.965A5.4,5.4,0,0,0,51.21,34.66ZM83.37,20.95a7.359,7.359,0,0,1,3.39.75,5.316,5.316,0,0,1,2.295,2.28,8.1,8.1,0,0,1,.825,3.87V37H87V28.18a4.969,4.969,0,0,0-1.08-3.48,3.918,3.918,0,0,0-3.03-1.17,5.105,5.105,0,0,0-2.52.6A4.024,4.024,0,0,0,78.7,25.9a6.473,6.473,0,0,0-.585,2.91V37H75.24V28.18a5.015,5.015,0,0,0-1.065-3.48,3.908,3.908,0,0,0-3.045-1.17,5.042,5.042,0,0,0-2.49.6,4.112,4.112,0,0,0-1.68,1.77,6.336,6.336,0,0,0-.6,2.91V37H63.48V21.1h2.76v4.23l-.45-1.08a5.422,5.422,0,0,1,2.31-2.43,7.33,7.33,0,0,1,3.63-.87,6.806,6.806,0,0,1,3.93,1.125,5.329,5.329,0,0,1,2.16,3.405L76.65,25a5.977,5.977,0,0,1,2.52-2.94A7.838,7.838,0,0,1,83.37,20.95Zm18.9,16.23a9.257,9.257,0,0,1-4.485-1.05,7.566,7.566,0,0,1-3-2.88,8.2,8.2,0,0,1-1.065-4.2,8.383,8.383,0,0,1,1.035-4.2,7.471,7.471,0,0,1,2.85-2.865A8.118,8.118,0,0,1,101.7,20.95a8.024,8.024,0,0,1,4.08,1.02,7.22,7.22,0,0,1,2.775,2.865,8.861,8.861,0,0,1,1.005,4.305q0,.18-.015.42t-.045.45H95.97V27.94H108l-1.17.72a5.346,5.346,0,0,0-.63-2.73,4.814,4.814,0,0,0-1.815-1.875,5.648,5.648,0,0,0-5.355,0,4.756,4.756,0,0,0-1.83,1.89,5.72,5.72,0,0,0-.66,2.775v.48a5.47,5.47,0,0,0,.735,2.835A5.048,5.048,0,0,0,99.33,33.97a6.445,6.445,0,0,0,3.03.69,6.623,6.623,0,0,0,2.565-.48,5.618,5.618,0,0,0,2.025-1.44l1.59,1.86a6.964,6.964,0,0,1-2.685,1.92A9.345,9.345,0,0,1,102.27,37.18Zm19.77-16.23a7.521,7.521,0,0,1,3.435.75,5.383,5.383,0,0,1,2.325,2.28,7.977,7.977,0,0,1,.84,3.87V37h-2.88V28.18a4.839,4.839,0,0,0-1.125-3.48,4.185,4.185,0,0,0-3.165-1.17,5.654,5.654,0,0,0-2.67.6,4.109,4.109,0,0,0-1.755,1.77,6.206,6.206,0,0,0-.615,2.91V37h-2.88V21.1h2.76v4.29l-.45-1.14a5.522,5.522,0,0,1,2.4-2.43A7.871,7.871,0,0,1,122.04,20.95Zm17.4,16.23a5.1,5.1,0,0,1-3.72-1.29,4.926,4.926,0,0,1-1.32-3.69V17.62h2.88V32.08a2.793,2.793,0,0,0,.645,1.98,2.4,2.4,0,0,0,1.845.69,3.4,3.4,0,0,0,2.25-.75l.9,2.07a4.187,4.187,0,0,1-1.575.84A6.7,6.7,0,0,1,139.44,37.18ZM131.7,23.47V21.1h10.14v2.37Z" transform="translate(695 2529)" fill="#aa0021"/>
    <path id="Path_52" data-name="Path 52" d="M-74.085,0V-21h9.42a9.2,9.2,0,0,1,5.58,1.455,4.693,4.693,0,0,1,1.95,3.975,5.152,5.152,0,0,1-.765,2.88,5.055,5.055,0,0,1-2.055,1.8,6.272,6.272,0,0,1-2.79.63l.54-.9a7.584,7.584,0,0,1,3.18.63,5.134,5.134,0,0,1,2.19,1.845,5.318,5.318,0,0,1,.81,3.015A4.887,4.887,0,0,1-58.05-1.485Q-60.075,0-64.065,0Zm3-2.43h6.9a7.129,7.129,0,0,0,3.81-.84,2.9,2.9,0,0,0,1.32-2.64,2.931,2.931,0,0,0-1.32-2.67,7.129,7.129,0,0,0-3.81-.84h-7.17v-2.43h6.42a6.346,6.346,0,0,0,3.54-.84,2.827,2.827,0,0,0,1.26-2.52,2.827,2.827,0,0,0-1.26-2.52,6.346,6.346,0,0,0-3.54-.84h-6.15ZM-41.925,0V-3.36l-.15-.63V-9.72a3.71,3.71,0,0,0-1.065-2.835,4.5,4.5,0,0,0-3.195-1.005,8.419,8.419,0,0,0-2.76.465,7.11,7.11,0,0,0-2.28,1.245l-1.2-2.16a8.69,8.69,0,0,1,2.955-1.515,12.347,12.347,0,0,1,3.615-.525,7.29,7.29,0,0,1,5.04,1.59,6.208,6.208,0,0,1,1.77,4.86V0Zm-5.22.18a7.511,7.511,0,0,1-3.1-.6,4.761,4.761,0,0,1-2.055-1.665,4.212,4.212,0,0,1-.72-2.415,4.544,4.544,0,0,1,.615-2.34A4.259,4.259,0,0,1-50.4-8.52a9.3,9.3,0,0,1,3.765-.63h5.04v2.07h-4.92a4.3,4.3,0,0,0-2.91.72,2.324,2.324,0,0,0-.75,1.74,2.236,2.236,0,0,0,.93,1.875,4.185,4.185,0,0,0,2.58.7,5.456,5.456,0,0,0,2.835-.72,4.1,4.1,0,0,0,1.755-2.1l.57,1.98a4.479,4.479,0,0,1-2.01,2.235A7.222,7.222,0,0,1-47.145.18Zm20.22,0A8.83,8.83,0,0,1-31.26-.87a7.726,7.726,0,0,1-2.985-2.88,8.107,8.107,0,0,1-1.08-4.2,8.107,8.107,0,0,1,1.08-4.2,7.619,7.619,0,0,1,2.985-2.865,8.933,8.933,0,0,1,4.335-1.035,8.442,8.442,0,0,1,3.855.855,6.06,6.06,0,0,1,2.625,2.535l-2.19,1.41a4.885,4.885,0,0,0-1.905-1.725,5.385,5.385,0,0,0-2.415-.555,5.6,5.6,0,0,0-2.79.69,5.1,5.1,0,0,0-1.95,1.935,5.8,5.8,0,0,0-.72,2.955,5.885,5.885,0,0,0,.72,2.97,5.074,5.074,0,0,0,1.95,1.95,5.6,5.6,0,0,0,2.79.69,5.385,5.385,0,0,0,2.415-.555A4.885,4.885,0,0,0-22.635-4.62l2.19,1.38A6.291,6.291,0,0,1-23.07-.705,8.205,8.205,0,0,1-26.925.18ZM-14.6-3.84l.06-3.69,9.15-8.37h3.48L-8.925-9l-1.56,1.32ZM-16.935,0V-22.26h2.88V0Zm12.15,0-6.24-7.74,1.86-2.31L-1.245,0Zm4.65-7.02-.03-2.46h8.04L7.9-6.99ZM19.725.18A9.257,9.257,0,0,1,15.24-.87a7.566,7.566,0,0,1-3-2.88,8.2,8.2,0,0,1-1.065-4.2,8.383,8.383,0,0,1,1.035-4.2,7.471,7.471,0,0,1,2.85-2.865,8.118,8.118,0,0,1,4.1-1.035,8.024,8.024,0,0,1,4.08,1.02,7.22,7.22,0,0,1,2.775,2.865A8.861,8.861,0,0,1,27.015-7.86q0,.18-.015.42t-.045.45H13.425V-9.06h12.03l-1.17.72a5.346,5.346,0,0,0-.63-2.73,4.814,4.814,0,0,0-1.815-1.875,5.224,5.224,0,0,0-2.685-.675,5.245,5.245,0,0,0-2.67.675,4.756,4.756,0,0,0-1.83,1.89A5.72,5.72,0,0,0,14-8.28v.48a5.47,5.47,0,0,0,.735,2.835A5.048,5.048,0,0,0,16.785-3.03a6.445,6.445,0,0,0,3.03.69,6.623,6.623,0,0,0,2.565-.48,5.618,5.618,0,0,0,2.025-1.44L26-2.4A6.964,6.964,0,0,1,23.31-.48,9.345,9.345,0,0,1,19.725.18ZM39.5-16.05a7.521,7.521,0,0,1,3.435.75,5.382,5.382,0,0,1,2.325,2.28,7.977,7.977,0,0,1,.84,3.87V0h-2.88V-8.82A4.839,4.839,0,0,0,42.09-12.3a4.185,4.185,0,0,0-3.165-1.17,5.654,5.654,0,0,0-2.67.6A4.109,4.109,0,0,0,34.5-11.1a6.206,6.206,0,0,0-.615,2.91V0h-2.88V-15.9h2.76v4.29l-.45-1.14a5.522,5.522,0,0,1,2.4-2.43A7.871,7.871,0,0,1,39.5-16.05ZM58.005.18A8.273,8.273,0,0,1,53.88-.84a7.47,7.47,0,0,1-2.865-2.85,8.409,8.409,0,0,1-1.05-4.26,8.327,8.327,0,0,1,1.05-4.245A7.5,7.5,0,0,1,53.88-15.03a8.273,8.273,0,0,1,4.125-1.02,7.347,7.347,0,0,1,3.63.9,6.572,6.572,0,0,1,2.6,2.7,9.365,9.365,0,0,1,.975,4.5,9.613,9.613,0,0,1-.945,4.5A6.484,6.484,0,0,1,61.7-.735,7.372,7.372,0,0,1,58.005.18Zm.24-2.52a5.4,5.4,0,0,0,2.715-.69,4.974,4.974,0,0,0,1.92-1.965,6.007,6.007,0,0,0,.7-2.955,5.9,5.9,0,0,0-.7-2.955,5.028,5.028,0,0,0-1.92-1.935,5.4,5.4,0,0,0-2.715-.69,5.377,5.377,0,0,0-2.73.69,5.169,5.169,0,0,0-1.92,1.935,5.8,5.8,0,0,0-.72,2.955,5.907,5.907,0,0,0,.72,2.955,5.11,5.11,0,0,0,1.92,1.965A5.377,5.377,0,0,0,58.245-2.34ZM63.675,0V-4.29l.18-3.69-.3-3.69V-22.26h2.88V0ZM-101.01,37V16h8.85a12.771,12.771,0,0,1,5.925,1.32,9.751,9.751,0,0,1,3.99,3.69A10.446,10.446,0,0,1-80.82,26.5a10.446,10.446,0,0,1-1.425,5.49,9.751,9.751,0,0,1-3.99,3.69A12.771,12.771,0,0,1-92.16,37Zm3-2.61h5.67a9.67,9.67,0,0,0,4.515-.99,7.2,7.2,0,0,0,2.955-2.775A7.983,7.983,0,0,0-83.82,26.5a7.962,7.962,0,0,0-1.05-4.14,7.229,7.229,0,0,0-2.955-2.76,9.67,9.67,0,0,0-4.515-.99h-5.67Zm28.44,2.79a9.257,9.257,0,0,1-4.485-1.05,7.566,7.566,0,0,1-3-2.88,8.2,8.2,0,0,1-1.065-4.2,8.383,8.383,0,0,1,1.035-4.2,7.471,7.471,0,0,1,2.85-2.865,8.119,8.119,0,0,1,4.1-1.035,8.024,8.024,0,0,1,4.08,1.02,7.22,7.22,0,0,1,2.775,2.865A8.861,8.861,0,0,1-62.28,29.14q0,.18-.015.42t-.045.45H-75.87V27.94h12.03l-1.17.72a5.346,5.346,0,0,0-.63-2.73,4.814,4.814,0,0,0-1.815-1.875,5.224,5.224,0,0,0-2.685-.675,5.245,5.245,0,0,0-2.67.675,4.756,4.756,0,0,0-1.83,1.89,5.72,5.72,0,0,0-.66,2.775v.48a5.47,5.47,0,0,0,.735,2.835A5.048,5.048,0,0,0-72.51,33.97a6.445,6.445,0,0,0,3.03.69,6.623,6.623,0,0,0,2.565-.48,5.618,5.618,0,0,0,2.025-1.44l1.59,1.86a6.964,6.964,0,0,1-2.685,1.92A9.345,9.345,0,0,1-69.57,37.18ZM-54.42,37l-6.96-15.9h3l6.18,14.4h-1.44l6.3-14.4h2.82L-51.48,37Zm19.23.18a9.257,9.257,0,0,1-4.485-1.05,7.566,7.566,0,0,1-3-2.88,8.2,8.2,0,0,1-1.065-4.2,8.383,8.383,0,0,1,1.035-4.2,7.471,7.471,0,0,1,2.85-2.865,8.118,8.118,0,0,1,4.1-1.035,8.024,8.024,0,0,1,4.08,1.02A7.22,7.22,0,0,1-28.9,24.835,8.861,8.861,0,0,1-27.9,29.14q0,.18-.015.42t-.045.45H-41.49V27.94h12.03l-1.17.72a5.346,5.346,0,0,0-.63-2.73,4.814,4.814,0,0,0-1.815-1.875,5.224,5.224,0,0,0-2.685-.675,5.246,5.246,0,0,0-2.67.675,4.756,4.756,0,0,0-1.83,1.89,5.72,5.72,0,0,0-.66,2.775v.48a5.47,5.47,0,0,0,.735,2.835A5.048,5.048,0,0,0-38.13,33.97a6.445,6.445,0,0,0,3.03.69,6.623,6.623,0,0,0,2.565-.48,5.618,5.618,0,0,0,2.025-1.44l1.59,1.86A6.964,6.964,0,0,1-31.6,36.52,9.345,9.345,0,0,1-35.19,37.18ZM-23.91,37V14.74h2.88V37Zm15.18.18a8.847,8.847,0,0,1-4.26-1.065,7.6,7.6,0,0,1-2.925-2.865,8.2,8.2,0,0,1-1.065-4.2,7.745,7.745,0,0,1,1.065-4.185A8,8,0,0,1-12.975,22,8.37,8.37,0,0,1-8.76,20.95,8.6,8.6,0,0,1-4.485,22a7.708,7.708,0,0,1,2.94,2.865A8.115,8.115,0,0,1-.48,29.05a8.2,8.2,0,0,1-1.065,4.2A7.54,7.54,0,0,1-4.5,36.115,8.9,8.9,0,0,1-8.73,37.18Zm0-2.52a5.46,5.46,0,0,0,2.745-.69,4.874,4.874,0,0,0,1.9-1.965,6.358,6.358,0,0,0,.72-2.955,6.236,6.236,0,0,0-.72-2.955,4.924,4.924,0,0,0-1.9-1.935,5.692,5.692,0,0,0-2.745-.72,5.6,5.6,0,0,0-2.73.72,5.169,5.169,0,0,0-1.92,1.935,5.8,5.8,0,0,0-.72,2.955,5.907,5.907,0,0,0,.72,2.955,5.145,5.145,0,0,0,1.905,1.965A5.355,5.355,0,0,0-8.73,34.66Zm20.67,2.52a7.275,7.275,0,0,1-3.615-.915,6.644,6.644,0,0,1-2.61-2.715,9.365,9.365,0,0,1-.975-4.5,9.613,9.613,0,0,1,.945-4.5,6.359,6.359,0,0,1,2.58-2.7,7.493,7.493,0,0,1,3.675-.9,8.251,8.251,0,0,1,4.14,1.02,7.532,7.532,0,0,1,2.85,2.835,8.327,8.327,0,0,1,1.05,4.245,8.41,8.41,0,0,1-1.05,4.26,7.5,7.5,0,0,1-2.85,2.85A8.251,8.251,0,0,1,11.94,37.18ZM3.51,42.82V21.1H6.27v4.29l-.18,3.69.3,3.69V42.82Zm8.19-8.16a5.46,5.46,0,0,0,2.745-.69,4.974,4.974,0,0,0,1.92-1.965,6.007,6.007,0,0,0,.7-2.955,5.9,5.9,0,0,0-.7-2.955,5.028,5.028,0,0,0-1.92-1.935,5.46,5.46,0,0,0-2.745-.69,5.4,5.4,0,0,0-2.715.69,5.028,5.028,0,0,0-1.92,1.935A5.9,5.9,0,0,0,6.36,29.05a6.007,6.007,0,0,0,.705,2.955,4.974,4.974,0,0,0,1.92,1.965A5.4,5.4,0,0,0,11.7,34.66ZM43.86,20.95a7.359,7.359,0,0,1,3.39.75,5.317,5.317,0,0,1,2.295,2.28,8.1,8.1,0,0,1,.825,3.87V37H47.49V28.18a4.969,4.969,0,0,0-1.08-3.48,3.918,3.918,0,0,0-3.03-1.17,5.105,5.105,0,0,0-2.52.6A4.024,4.024,0,0,0,39.2,25.9a6.474,6.474,0,0,0-.585,2.91V37H35.73V28.18a5.015,5.015,0,0,0-1.065-3.48,3.908,3.908,0,0,0-3.045-1.17,5.042,5.042,0,0,0-2.49.6,4.112,4.112,0,0,0-1.68,1.77,6.336,6.336,0,0,0-.6,2.91V37H23.97V21.1h2.76v4.23l-.45-1.08a5.422,5.422,0,0,1,2.31-2.43,7.33,7.33,0,0,1,3.63-.87,6.806,6.806,0,0,1,3.93,1.125,5.329,5.329,0,0,1,2.16,3.405L37.14,25a5.977,5.977,0,0,1,2.52-2.94A7.838,7.838,0,0,1,43.86,20.95Zm18.9,16.23a9.257,9.257,0,0,1-4.485-1.05,7.566,7.566,0,0,1-3-2.88,8.2,8.2,0,0,1-1.065-4.2,8.383,8.383,0,0,1,1.035-4.2,7.471,7.471,0,0,1,2.85-2.865,8.118,8.118,0,0,1,4.1-1.035,8.024,8.024,0,0,1,4.08,1.02,7.22,7.22,0,0,1,2.775,2.865,8.861,8.861,0,0,1,1,4.305q0,.18-.015.42t-.045.45H56.46V27.94H68.49l-1.17.72a5.346,5.346,0,0,0-.63-2.73,4.814,4.814,0,0,0-1.815-1.875,5.648,5.648,0,0,0-5.355,0,4.756,4.756,0,0,0-1.83,1.89,5.72,5.72,0,0,0-.66,2.775v.48a5.47,5.47,0,0,0,.735,2.835A5.048,5.048,0,0,0,59.82,33.97a6.445,6.445,0,0,0,3.03.69,6.623,6.623,0,0,0,2.565-.48,5.618,5.618,0,0,0,2.025-1.44l1.59,1.86a6.964,6.964,0,0,1-2.685,1.92A9.345,9.345,0,0,1,62.76,37.18ZM82.53,20.95a7.521,7.521,0,0,1,3.435.75,5.383,5.383,0,0,1,2.325,2.28,7.977,7.977,0,0,1,.84,3.87V37H86.25V28.18a4.839,4.839,0,0,0-1.125-3.48,4.185,4.185,0,0,0-3.165-1.17,5.654,5.654,0,0,0-2.67.6,4.109,4.109,0,0,0-1.755,1.77,6.206,6.206,0,0,0-.615,2.91V37H74.04V21.1H76.8v4.29l-.45-1.14a5.522,5.522,0,0,1,2.4-2.43A7.871,7.871,0,0,1,82.53,20.95Zm17.4,16.23a5.1,5.1,0,0,1-3.72-1.29,4.926,4.926,0,0,1-1.32-3.69V17.62h2.88V32.08a2.793,2.793,0,0,0,.645,1.98,2.4,2.4,0,0,0,1.845.69,3.4,3.4,0,0,0,2.25-.75l.9,2.07a4.187,4.187,0,0,1-1.575.84A6.7,6.7,0,0,1,99.93,37.18ZM92.19,23.47V21.1h10.14v2.37Z" transform="translate(1035 2529)" fill="#e75825"/>
    <path id="Path_51" data-name="Path 51" d="M-73.665-11.07h10.83l-.03,2.58h-10.8ZM-73.395,0h-2.97l.03-21h14.79v2.58l-11.82.03Zm21.84.18A8.117,8.117,0,0,1-55.14-.57a5.375,5.375,0,0,1-2.4-2.3,7.949,7.949,0,0,1-.855-3.885V-15.9h2.88v8.82A4.886,4.886,0,0,0-54.39-3.57,4.185,4.185,0,0,0-51.225-2.4a5.3,5.3,0,0,0,2.61-.615,4.138,4.138,0,0,0,1.71-1.8,6.283,6.283,0,0,0,.6-2.865V-15.9h2.88V0h-2.73V-4.29l.45,1.14a5.563,5.563,0,0,1-2.34,2.46A7.082,7.082,0,0,1-51.555.18ZM-37.935,0V-22.26h2.88V0Zm8.37,0V-22.26h2.88V0Zm7.38-7.02-.03-2.46h8.04l.03,2.49ZM-3.675.24A14.329,14.329,0,0,1-8.265-.5,9.4,9.4,0,0,1-11.715-2.4l1.11-2.34A9.743,9.743,0,0,0-7.545-3a11.038,11.038,0,0,0,3.87.69,8.749,8.749,0,0,0,2.97-.42A3.522,3.522,0,0,0,.975-3.885a2.741,2.741,0,0,0,.54-1.665,2.272,2.272,0,0,0-.7-1.74A5.231,5.231,0,0,0-1.02-8.355,20.355,20.355,0,0,0-3.5-9.06q-1.35-.3-2.715-.7A12.153,12.153,0,0,1-8.7-10.8a5.092,5.092,0,0,1-1.815-1.7,4.966,4.966,0,0,1-.69-2.745,5.515,5.515,0,0,1,.855-2.985,5.938,5.938,0,0,1,2.64-2.19,10.863,10.863,0,0,1,4.545-.825,14.032,14.032,0,0,1,3.63.48,10.12,10.12,0,0,1,3.12,1.38l-.99,2.4a9.649,9.649,0,0,0-2.85-1.305,11.145,11.145,0,0,0-2.91-.4,8.012,8.012,0,0,0-2.91.45,3.548,3.548,0,0,0-1.665,1.2,2.861,2.861,0,0,0-.525,1.68,2.309,2.309,0,0,0,.7,1.77,5.063,5.063,0,0,0,1.83,1.05,24.735,24.735,0,0,0,2.475.7q1.35.315,2.715.7a11.6,11.6,0,0,1,2.49,1.02A5.141,5.141,0,0,1,3.765-8.43a4.83,4.83,0,0,1,.69,2.7,5.4,5.4,0,0,1-.87,2.955A6.019,6.019,0,0,1,.9-.585,11.076,11.076,0,0,1-3.675.24ZM13.875.18a5.1,5.1,0,0,1-3.72-1.29A4.926,4.926,0,0,1,8.835-4.8V-19.38h2.88V-4.92a2.793,2.793,0,0,0,.645,1.98,2.4,2.4,0,0,0,1.845.69A3.4,3.4,0,0,0,16.455-3l.9,2.07a4.187,4.187,0,0,1-1.575.84A6.7,6.7,0,0,1,13.875.18ZM6.135-13.53V-15.9h10.14v2.37ZM30.7,0V-3.36l-.15-.63V-9.72a3.71,3.71,0,0,0-1.065-2.835,4.5,4.5,0,0,0-3.2-1.005,8.419,8.419,0,0,0-2.76.465,7.11,7.11,0,0,0-2.28,1.245l-1.2-2.16a8.69,8.69,0,0,1,2.955-1.515,12.347,12.347,0,0,1,3.615-.525,7.29,7.29,0,0,1,5.04,1.59,6.208,6.208,0,0,1,1.77,4.86V0Zm-5.22.18a7.511,7.511,0,0,1-3.1-.6,4.761,4.761,0,0,1-2.055-1.665A4.212,4.212,0,0,1,19.6-4.5a4.544,4.544,0,0,1,.615-2.34,4.259,4.259,0,0,1,2.01-1.68,9.3,9.3,0,0,1,3.765-.63h5.04v2.07h-4.92a4.3,4.3,0,0,0-2.91.72,2.324,2.324,0,0,0-.75,1.74,2.236,2.236,0,0,0,.93,1.875,4.185,4.185,0,0,0,2.58.7A5.456,5.456,0,0,0,28.8-2.76a4.1,4.1,0,0,0,1.755-2.1l.57,1.98a4.479,4.479,0,0,1-2.01,2.235A7.222,7.222,0,0,1,25.485.18ZM45.7.18A8.83,8.83,0,0,1,41.37-.87a7.726,7.726,0,0,1-2.985-2.88,8.107,8.107,0,0,1-1.08-4.2,8.107,8.107,0,0,1,1.08-4.2,7.619,7.619,0,0,1,2.985-2.865A8.933,8.933,0,0,1,45.7-16.05a8.442,8.442,0,0,1,3.855.855,6.06,6.06,0,0,1,2.625,2.535l-2.19,1.41a4.885,4.885,0,0,0-1.905-1.725,5.385,5.385,0,0,0-2.415-.555,5.6,5.6,0,0,0-2.79.69,5.1,5.1,0,0,0-1.95,1.935,5.8,5.8,0,0,0-.72,2.955,5.885,5.885,0,0,0,.72,2.97,5.074,5.074,0,0,0,1.95,1.95,5.6,5.6,0,0,0,2.79.69,5.385,5.385,0,0,0,2.415-.555A4.885,4.885,0,0,0,49.995-4.62l2.19,1.38A6.291,6.291,0,0,1,49.56-.705,8.205,8.205,0,0,1,45.7.18Zm12.33-4.02.06-3.69,9.15-8.37h3.48L63.7-9l-1.56,1.32ZM55.695,0V-22.26h2.88V0Zm12.15,0L61.6-7.74l1.86-2.31L71.385,0ZM-101.01,37V16h8.85a12.771,12.771,0,0,1,5.925,1.32,9.751,9.751,0,0,1,3.99,3.69A10.446,10.446,0,0,1-80.82,26.5a10.446,10.446,0,0,1-1.425,5.49,9.751,9.751,0,0,1-3.99,3.69A12.771,12.771,0,0,1-92.16,37Zm3-2.61h5.67a9.67,9.67,0,0,0,4.515-.99,7.2,7.2,0,0,0,2.955-2.775A7.983,7.983,0,0,0-83.82,26.5a7.962,7.962,0,0,0-1.05-4.14,7.229,7.229,0,0,0-2.955-2.76,9.67,9.67,0,0,0-4.515-.99h-5.67Zm28.44,2.79a9.257,9.257,0,0,1-4.485-1.05,7.566,7.566,0,0,1-3-2.88,8.2,8.2,0,0,1-1.065-4.2,8.383,8.383,0,0,1,1.035-4.2,7.471,7.471,0,0,1,2.85-2.865,8.119,8.119,0,0,1,4.1-1.035,8.024,8.024,0,0,1,4.08,1.02,7.22,7.22,0,0,1,2.775,2.865A8.861,8.861,0,0,1-62.28,29.14q0,.18-.015.42t-.045.45H-75.87V27.94h12.03l-1.17.72a5.346,5.346,0,0,0-.63-2.73,4.814,4.814,0,0,0-1.815-1.875,5.224,5.224,0,0,0-2.685-.675,5.245,5.245,0,0,0-2.67.675,4.756,4.756,0,0,0-1.83,1.89,5.72,5.72,0,0,0-.66,2.775v.48a5.47,5.47,0,0,0,.735,2.835A5.048,5.048,0,0,0-72.51,33.97a6.445,6.445,0,0,0,3.03.69,6.623,6.623,0,0,0,2.565-.48,5.618,5.618,0,0,0,2.025-1.44l1.59,1.86a6.964,6.964,0,0,1-2.685,1.92A9.345,9.345,0,0,1-69.57,37.18ZM-54.42,37l-6.96-15.9h3l6.18,14.4h-1.44l6.3-14.4h2.82L-51.48,37Zm19.23.18a9.257,9.257,0,0,1-4.485-1.05,7.566,7.566,0,0,1-3-2.88,8.2,8.2,0,0,1-1.065-4.2,8.383,8.383,0,0,1,1.035-4.2,7.471,7.471,0,0,1,2.85-2.865,8.118,8.118,0,0,1,4.1-1.035,8.024,8.024,0,0,1,4.08,1.02A7.22,7.22,0,0,1-28.9,24.835,8.861,8.861,0,0,1-27.9,29.14q0,.18-.015.42t-.045.45H-41.49V27.94h12.03l-1.17.72a5.346,5.346,0,0,0-.63-2.73,4.814,4.814,0,0,0-1.815-1.875,5.224,5.224,0,0,0-2.685-.675,5.246,5.246,0,0,0-2.67.675,4.756,4.756,0,0,0-1.83,1.89,5.72,5.72,0,0,0-.66,2.775v.48a5.47,5.47,0,0,0,.735,2.835A5.048,5.048,0,0,0-38.13,33.97a6.445,6.445,0,0,0,3.03.69,6.623,6.623,0,0,0,2.565-.48,5.618,5.618,0,0,0,2.025-1.44l1.59,1.86A6.964,6.964,0,0,1-31.6,36.52,9.345,9.345,0,0,1-35.19,37.18ZM-23.91,37V14.74h2.88V37Zm15.18.18a8.847,8.847,0,0,1-4.26-1.065,7.6,7.6,0,0,1-2.925-2.865,8.2,8.2,0,0,1-1.065-4.2,7.745,7.745,0,0,1,1.065-4.185A8,8,0,0,1-12.975,22,8.37,8.37,0,0,1-8.76,20.95,8.6,8.6,0,0,1-4.485,22a7.708,7.708,0,0,1,2.94,2.865A8.115,8.115,0,0,1-.48,29.05a8.2,8.2,0,0,1-1.065,4.2A7.54,7.54,0,0,1-4.5,36.115,8.9,8.9,0,0,1-8.73,37.18Zm0-2.52a5.46,5.46,0,0,0,2.745-.69,4.874,4.874,0,0,0,1.9-1.965,6.358,6.358,0,0,0,.72-2.955,6.236,6.236,0,0,0-.72-2.955,4.924,4.924,0,0,0-1.9-1.935,5.692,5.692,0,0,0-2.745-.72,5.6,5.6,0,0,0-2.73.72,5.169,5.169,0,0,0-1.92,1.935,5.8,5.8,0,0,0-.72,2.955,5.907,5.907,0,0,0,.72,2.955,5.145,5.145,0,0,0,1.905,1.965A5.355,5.355,0,0,0-8.73,34.66Zm20.67,2.52a7.275,7.275,0,0,1-3.615-.915,6.644,6.644,0,0,1-2.61-2.715,9.365,9.365,0,0,1-.975-4.5,9.613,9.613,0,0,1,.945-4.5,6.359,6.359,0,0,1,2.58-2.7,7.493,7.493,0,0,1,3.675-.9,8.251,8.251,0,0,1,4.14,1.02,7.532,7.532,0,0,1,2.85,2.835,8.327,8.327,0,0,1,1.05,4.245,8.41,8.41,0,0,1-1.05,4.26,7.5,7.5,0,0,1-2.85,2.85A8.251,8.251,0,0,1,11.94,37.18ZM3.51,42.82V21.1H6.27v4.29l-.18,3.69.3,3.69V42.82Zm8.19-8.16a5.46,5.46,0,0,0,2.745-.69,4.974,4.974,0,0,0,1.92-1.965,6.007,6.007,0,0,0,.7-2.955,5.9,5.9,0,0,0-.7-2.955,5.028,5.028,0,0,0-1.92-1.935,5.46,5.46,0,0,0-2.745-.69,5.4,5.4,0,0,0-2.715.69,5.028,5.028,0,0,0-1.92,1.935A5.9,5.9,0,0,0,6.36,29.05a6.007,6.007,0,0,0,.705,2.955,4.974,4.974,0,0,0,1.92,1.965A5.4,5.4,0,0,0,11.7,34.66ZM43.86,20.95a7.359,7.359,0,0,1,3.39.75,5.317,5.317,0,0,1,2.295,2.28,8.1,8.1,0,0,1,.825,3.87V37H47.49V28.18a4.969,4.969,0,0,0-1.08-3.48,3.918,3.918,0,0,0-3.03-1.17,5.105,5.105,0,0,0-2.52.6A4.024,4.024,0,0,0,39.2,25.9a6.474,6.474,0,0,0-.585,2.91V37H35.73V28.18a5.015,5.015,0,0,0-1.065-3.48,3.908,3.908,0,0,0-3.045-1.17,5.042,5.042,0,0,0-2.49.6,4.112,4.112,0,0,0-1.68,1.77,6.336,6.336,0,0,0-.6,2.91V37H23.97V21.1h2.76v4.23l-.45-1.08a5.422,5.422,0,0,1,2.31-2.43,7.33,7.33,0,0,1,3.63-.87,6.806,6.806,0,0,1,3.93,1.125,5.329,5.329,0,0,1,2.16,3.405L37.14,25a5.977,5.977,0,0,1,2.52-2.94A7.838,7.838,0,0,1,43.86,20.95Zm18.9,16.23a9.257,9.257,0,0,1-4.485-1.05,7.566,7.566,0,0,1-3-2.88,8.2,8.2,0,0,1-1.065-4.2,8.383,8.383,0,0,1,1.035-4.2,7.471,7.471,0,0,1,2.85-2.865,8.118,8.118,0,0,1,4.1-1.035,8.024,8.024,0,0,1,4.08,1.02,7.22,7.22,0,0,1,2.775,2.865,8.861,8.861,0,0,1,1,4.305q0,.18-.015.42t-.045.45H56.46V27.94H68.49l-1.17.72a5.346,5.346,0,0,0-.63-2.73,4.814,4.814,0,0,0-1.815-1.875,5.648,5.648,0,0,0-5.355,0,4.756,4.756,0,0,0-1.83,1.89,5.72,5.72,0,0,0-.66,2.775v.48a5.47,5.47,0,0,0,.735,2.835A5.048,5.048,0,0,0,59.82,33.97a6.445,6.445,0,0,0,3.03.69,6.623,6.623,0,0,0,2.565-.48,5.618,5.618,0,0,0,2.025-1.44l1.59,1.86a6.964,6.964,0,0,1-2.685,1.92A9.345,9.345,0,0,1,62.76,37.18ZM82.53,20.95a7.521,7.521,0,0,1,3.435.75,5.383,5.383,0,0,1,2.325,2.28,7.977,7.977,0,0,1,.84,3.87V37H86.25V28.18a4.839,4.839,0,0,0-1.125-3.48,4.185,4.185,0,0,0-3.165-1.17,5.654,5.654,0,0,0-2.67.6,4.109,4.109,0,0,0-1.755,1.77,6.206,6.206,0,0,0-.615,2.91V37H74.04V21.1H76.8v4.29l-.45-1.14a5.522,5.522,0,0,1,2.4-2.43A7.871,7.871,0,0,1,82.53,20.95Zm17.4,16.23a5.1,5.1,0,0,1-3.72-1.29,4.926,4.926,0,0,1-1.32-3.69V17.62h2.88V32.08a2.793,2.793,0,0,0,.645,1.98,2.4,2.4,0,0,0,1.845.69,3.4,3.4,0,0,0,2.25-.75l.9,2.07a4.187,4.187,0,0,1-1.575.84A6.7,6.7,0,0,1,99.93,37.18ZM92.19,23.47V21.1h10.14v2.37Z" transform="translate(1360 2535)" fill="#47175a"/>
    <path id="Path_54" data-name="Path 54" d="M-117.4.24a12.005,12.005,0,0,1-4.425-.8,10.365,10.365,0,0,1-3.51-2.25,10.572,10.572,0,0,1-2.325-3.405,10.731,10.731,0,0,1-.84-4.29,10.731,10.731,0,0,1,.84-4.29,10.457,10.457,0,0,1,2.34-3.405,10.528,10.528,0,0,1,3.525-2.25,12.005,12.005,0,0,1,4.425-.8,11.929,11.929,0,0,1,4.485.825,9.186,9.186,0,0,1,3.5,2.445l-1.95,1.89a7.793,7.793,0,0,0-2.7-1.875,8.379,8.379,0,0,0-3.21-.615,8.842,8.842,0,0,0-3.285.6,7.877,7.877,0,0,0-2.625,1.68,7.581,7.581,0,0,0-1.725,2.565A8.346,8.346,0,0,0-125.5-10.5a8.346,8.346,0,0,0,.615,3.225,7.582,7.582,0,0,0,1.725,2.565,7.877,7.877,0,0,0,2.625,1.68,8.842,8.842,0,0,0,3.285.6,8.379,8.379,0,0,0,3.21-.615,7.623,7.623,0,0,0,2.7-1.905l1.95,1.89a9.332,9.332,0,0,1-3.5,2.46A11.823,11.823,0,0,1-117.4.24Zm18.06-.06a8.117,8.117,0,0,1-3.585-.75,5.375,5.375,0,0,1-2.4-2.3,7.949,7.949,0,0,1-.855-3.885V-15.9h2.88v8.82a4.886,4.886,0,0,0,1.125,3.51A4.185,4.185,0,0,0-99.015-2.4a5.3,5.3,0,0,0,2.61-.615,4.138,4.138,0,0,0,1.71-1.8,6.283,6.283,0,0,0,.6-2.865V-15.9h2.88V0h-2.73V-4.29l.45,1.14a5.563,5.563,0,0,1-2.34,2.46A7.082,7.082,0,0,1-99.345.18Zm18.18,0A12.933,12.933,0,0,1-84.93-.36a8.84,8.84,0,0,1-2.805-1.32l1.2-2.28a9.842,9.842,0,0,0,2.52,1.17,9.982,9.982,0,0,0,3.06.48,5.549,5.549,0,0,0,2.895-.57,1.793,1.793,0,0,0,.885-1.59,1.4,1.4,0,0,0-.54-1.17,3.682,3.682,0,0,0-1.425-.63q-.885-.21-1.965-.375t-2.16-.42a8.6,8.6,0,0,1-1.98-.72,3.74,3.74,0,0,1-1.44-1.29,3.976,3.976,0,0,1-.54-2.2,4.084,4.084,0,0,1,.81-2.52,5.133,5.133,0,0,1,2.295-1.665,9.6,9.6,0,0,1,3.525-.585,13.879,13.879,0,0,1,3.165.375A7.86,7.86,0,0,1-74.8-14.61l-1.23,2.28a6.8,6.8,0,0,0-2.25-.99,10.376,10.376,0,0,0-2.34-.27,5.175,5.175,0,0,0-2.82.615,1.832,1.832,0,0,0-.93,1.575,1.489,1.489,0,0,0,.555,1.245,4.016,4.016,0,0,0,1.44.675,17.819,17.819,0,0,0,1.965.4q1.08.165,2.16.42a8.762,8.762,0,0,1,1.965.705,3.81,3.81,0,0,1,1.44,1.26,3.759,3.759,0,0,1,.555,2.16,3.865,3.865,0,0,1-.84,2.49A5.434,5.434,0,0,1-77.5-.405,10.254,10.254,0,0,1-81.165.18Zm15.93,0a5.1,5.1,0,0,1-3.72-1.29,4.926,4.926,0,0,1-1.32-3.69V-19.38h2.88V-4.92a2.793,2.793,0,0,0,.645,1.98,2.4,2.4,0,0,0,1.845.69A3.4,3.4,0,0,0-62.655-3l.9,2.07a4.187,4.187,0,0,1-1.575.84A6.7,6.7,0,0,1-65.235.18Zm-7.74-13.71V-15.9h10.14v2.37ZM-52,.18a8.847,8.847,0,0,1-4.26-1.065A7.6,7.6,0,0,1-59.19-3.75a8.2,8.2,0,0,1-1.065-4.2,7.745,7.745,0,0,1,1.065-4.185A8,8,0,0,1-56.25-15a8.37,8.37,0,0,1,4.215-1.05A8.6,8.6,0,0,1-47.76-15a7.708,7.708,0,0,1,2.94,2.865A8.115,8.115,0,0,1-43.755-7.95a8.2,8.2,0,0,1-1.065,4.2A7.54,7.54,0,0,1-47.775-.885,8.9,8.9,0,0,1-52,.18Zm0-2.52a5.46,5.46,0,0,0,2.745-.69,4.874,4.874,0,0,0,1.905-1.965,6.358,6.358,0,0,0,.72-2.955,6.236,6.236,0,0,0-.72-2.955A4.924,4.924,0,0,0-49.26-12.84,5.692,5.692,0,0,0-52-13.56a5.6,5.6,0,0,0-2.73.72,5.169,5.169,0,0,0-1.92,1.935,5.8,5.8,0,0,0-.72,2.955,5.907,5.907,0,0,0,.72,2.955,5.145,5.145,0,0,0,1.9,1.965A5.355,5.355,0,0,0-52-2.34Zm32.13-13.71a7.359,7.359,0,0,1,3.39.75,5.317,5.317,0,0,1,2.295,2.28,8.1,8.1,0,0,1,.825,3.87V0h-2.88V-8.82a4.969,4.969,0,0,0-1.08-3.48,3.918,3.918,0,0,0-3.03-1.17,5.105,5.105,0,0,0-2.52.6A4.024,4.024,0,0,0-24.54-11.1a6.474,6.474,0,0,0-.585,2.91V0H-28V-8.82A5.015,5.015,0,0,0-29.07-12.3a3.908,3.908,0,0,0-3.045-1.17,5.042,5.042,0,0,0-2.49.6,4.112,4.112,0,0,0-1.68,1.77,6.336,6.336,0,0,0-.6,2.91V0h-2.88V-15.9H-37v4.23l-.45-1.08a5.422,5.422,0,0,1,2.31-2.43,7.33,7.33,0,0,1,3.63-.87,6.806,6.806,0,0,1,3.93,1.125,5.329,5.329,0,0,1,2.16,3.405l-1.17-.48a5.977,5.977,0,0,1,2.52-2.94A7.838,7.838,0,0,1-19.875-16.05ZM5.265,0l-7.02-21h3.09L7.785-1.62H6.225L12.915-21h2.76l6.54,19.38h-1.5L27.255-21h2.85L23.085,0h-3.15l-6.12-17.97h.81L8.475,0Zm33.96.18A9.257,9.257,0,0,1,34.74-.87a7.566,7.566,0,0,1-3-2.88,8.2,8.2,0,0,1-1.065-4.2,8.383,8.383,0,0,1,1.035-4.2,7.471,7.471,0,0,1,2.85-2.865,8.118,8.118,0,0,1,4.1-1.035,8.024,8.024,0,0,1,4.08,1.02,7.22,7.22,0,0,1,2.775,2.865A8.861,8.861,0,0,1,46.515-7.86q0,.18-.015.42t-.045.45H32.925V-9.06h12.03l-1.17.72a5.346,5.346,0,0,0-.63-2.73,4.814,4.814,0,0,0-1.815-1.875,5.224,5.224,0,0,0-2.685-.675,5.245,5.245,0,0,0-2.67.675,4.756,4.756,0,0,0-1.83,1.89A5.72,5.72,0,0,0,33.5-8.28v.48a5.47,5.47,0,0,0,.735,2.835A5.048,5.048,0,0,0,36.285-3.03a6.445,6.445,0,0,0,3.03.69,6.623,6.623,0,0,0,2.565-.48,5.618,5.618,0,0,0,2.025-1.44L45.5-2.4A6.964,6.964,0,0,1,42.81-.48,9.345,9.345,0,0,1,39.225.18Zm19.71,0A7.4,7.4,0,0,1,55.26-.735,6.456,6.456,0,0,1,52.68-3.45a9.613,9.613,0,0,1-.945-4.5,9.365,9.365,0,0,1,.975-4.5,6.543,6.543,0,0,1,2.61-2.7,7.371,7.371,0,0,1,3.615-.9,8.251,8.251,0,0,1,4.14,1.02,7.532,7.532,0,0,1,2.85,2.835,8.327,8.327,0,0,1,1.05,4.245,8.41,8.41,0,0,1-1.05,4.26,7.5,7.5,0,0,1-2.85,2.85A8.251,8.251,0,0,1,58.935.18ZM50.505,0V-22.26h2.88v10.59l-.3,3.69.18,3.69V0ZM58.7-2.34a5.46,5.46,0,0,0,2.745-.69,4.974,4.974,0,0,0,1.92-1.965,6.007,6.007,0,0,0,.705-2.955,5.9,5.9,0,0,0-.705-2.955,5.028,5.028,0,0,0-1.92-1.935,5.46,5.46,0,0,0-2.745-.69,5.4,5.4,0,0,0-2.715.69,5.028,5.028,0,0,0-1.92,1.935,5.9,5.9,0,0,0-.7,2.955,6.007,6.007,0,0,0,.7,2.955A4.974,4.974,0,0,0,55.98-3.03,5.4,5.4,0,0,0,58.7-2.34ZM75.525.18A12.933,12.933,0,0,1,71.76-.36a8.84,8.84,0,0,1-2.805-1.32l1.2-2.28a9.842,9.842,0,0,0,2.52,1.17,9.982,9.982,0,0,0,3.06.48,5.549,5.549,0,0,0,2.9-.57,1.793,1.793,0,0,0,.885-1.59,1.4,1.4,0,0,0-.54-1.17,3.683,3.683,0,0,0-1.425-.63q-.885-.21-1.965-.375t-2.16-.42a8.6,8.6,0,0,1-1.98-.72A3.74,3.74,0,0,1,70-9.075a3.976,3.976,0,0,1-.54-2.2,4.084,4.084,0,0,1,.81-2.52,5.133,5.133,0,0,1,2.295-1.665A9.6,9.6,0,0,1,76.1-16.05a13.879,13.879,0,0,1,3.165.375,7.86,7.86,0,0,1,2.625,1.065l-1.23,2.28a6.8,6.8,0,0,0-2.25-.99,10.376,10.376,0,0,0-2.34-.27,5.175,5.175,0,0,0-2.82.615,1.832,1.832,0,0,0-.93,1.575,1.489,1.489,0,0,0,.555,1.245,4.016,4.016,0,0,0,1.44.675,17.819,17.819,0,0,0,1.965.4q1.08.165,2.16.42A8.762,8.762,0,0,1,80.4-7.95a3.81,3.81,0,0,1,1.44,1.26A3.759,3.759,0,0,1,82.4-4.53a3.864,3.864,0,0,1-.84,2.49,5.434,5.434,0,0,1-2.37,1.635A10.254,10.254,0,0,1,75.525.18ZM86.025,0,86-15.9l2.88.03V0Zm1.41-18.96a1.92,1.92,0,0,1-1.395-.54,1.771,1.771,0,0,1-.555-1.32,1.806,1.806,0,0,1,.555-1.35,1.92,1.92,0,0,1,1.395-.54,1.95,1.95,0,0,1,1.4.525,1.723,1.723,0,0,1,.555,1.305,1.882,1.882,0,0,1-.54,1.365A1.879,1.879,0,0,1,87.435-18.96ZM99.825.18A5.1,5.1,0,0,1,96.1-1.11a4.926,4.926,0,0,1-1.32-3.69V-19.38h2.88V-4.92a2.793,2.793,0,0,0,.645,1.98,2.4,2.4,0,0,0,1.845.69A3.4,3.4,0,0,0,102.4-3l.9,2.07a4.187,4.187,0,0,1-1.575.84A6.7,6.7,0,0,1,99.825.18Zm-7.74-13.71V-15.9h10.14v2.37ZM113.325.18A9.257,9.257,0,0,1,108.84-.87a7.566,7.566,0,0,1-3-2.88,8.2,8.2,0,0,1-1.065-4.2,8.383,8.383,0,0,1,1.035-4.2,7.471,7.471,0,0,1,2.85-2.865,8.118,8.118,0,0,1,4.095-1.035,8.024,8.024,0,0,1,4.08,1.02,7.22,7.22,0,0,1,2.775,2.865,8.861,8.861,0,0,1,1.005,4.305q0,.18-.015.42t-.045.45h-13.53V-9.06h12.03l-1.17.72a5.346,5.346,0,0,0-.63-2.73,4.814,4.814,0,0,0-1.815-1.875,5.224,5.224,0,0,0-2.685-.675,5.245,5.245,0,0,0-2.67.675,4.756,4.756,0,0,0-1.83,1.89,5.72,5.72,0,0,0-.66,2.775v.48a5.47,5.47,0,0,0,.735,2.835,5.048,5.048,0,0,0,2.055,1.935,6.445,6.445,0,0,0,3.03.69,6.623,6.623,0,0,0,2.565-.48A5.618,5.618,0,0,0,118-4.26L119.6-2.4A6.964,6.964,0,0,1,116.91-.48,9.345,9.345,0,0,1,113.325.18ZM-101.01,37V16h8.85a12.771,12.771,0,0,1,5.925,1.32,9.751,9.751,0,0,1,3.99,3.69A10.446,10.446,0,0,1-80.82,26.5a10.446,10.446,0,0,1-1.425,5.49,9.751,9.751,0,0,1-3.99,3.69A12.771,12.771,0,0,1-92.16,37Zm3-2.61h5.67a9.67,9.67,0,0,0,4.515-.99,7.2,7.2,0,0,0,2.955-2.775A7.983,7.983,0,0,0-83.82,26.5a7.962,7.962,0,0,0-1.05-4.14,7.229,7.229,0,0,0-2.955-2.76,9.67,9.67,0,0,0-4.515-.99h-5.67Zm28.44,2.79a9.257,9.257,0,0,1-4.485-1.05,7.566,7.566,0,0,1-3-2.88,8.2,8.2,0,0,1-1.065-4.2,8.383,8.383,0,0,1,1.035-4.2,7.471,7.471,0,0,1,2.85-2.865,8.119,8.119,0,0,1,4.1-1.035,8.024,8.024,0,0,1,4.08,1.02,7.22,7.22,0,0,1,2.775,2.865A8.861,8.861,0,0,1-62.28,29.14q0,.18-.015.42t-.045.45H-75.87V27.94h12.03l-1.17.72a5.346,5.346,0,0,0-.63-2.73,4.814,4.814,0,0,0-1.815-1.875,5.224,5.224,0,0,0-2.685-.675,5.245,5.245,0,0,0-2.67.675,4.756,4.756,0,0,0-1.83,1.89,5.72,5.72,0,0,0-.66,2.775v.48a5.47,5.47,0,0,0,.735,2.835A5.048,5.048,0,0,0-72.51,33.97a6.445,6.445,0,0,0,3.03.69,6.623,6.623,0,0,0,2.565-.48,5.618,5.618,0,0,0,2.025-1.44l1.59,1.86a6.964,6.964,0,0,1-2.685,1.92A9.345,9.345,0,0,1-69.57,37.18ZM-54.42,37l-6.96-15.9h3l6.18,14.4h-1.44l6.3-14.4h2.82L-51.48,37Zm19.23.18a9.257,9.257,0,0,1-4.485-1.05,7.566,7.566,0,0,1-3-2.88,8.2,8.2,0,0,1-1.065-4.2,8.383,8.383,0,0,1,1.035-4.2,7.471,7.471,0,0,1,2.85-2.865,8.118,8.118,0,0,1,4.1-1.035,8.024,8.024,0,0,1,4.08,1.02A7.22,7.22,0,0,1-28.9,24.835,8.861,8.861,0,0,1-27.9,29.14q0,.18-.015.42t-.045.45H-41.49V27.94h12.03l-1.17.72a5.346,5.346,0,0,0-.63-2.73,4.814,4.814,0,0,0-1.815-1.875,5.224,5.224,0,0,0-2.685-.675,5.246,5.246,0,0,0-2.67.675,4.756,4.756,0,0,0-1.83,1.89,5.72,5.72,0,0,0-.66,2.775v.48a5.47,5.47,0,0,0,.735,2.835A5.048,5.048,0,0,0-38.13,33.97a6.445,6.445,0,0,0,3.03.69,6.623,6.623,0,0,0,2.565-.48,5.618,5.618,0,0,0,2.025-1.44l1.59,1.86A6.964,6.964,0,0,1-31.6,36.52,9.345,9.345,0,0,1-35.19,37.18ZM-23.91,37V14.74h2.88V37Zm15.18.18a8.847,8.847,0,0,1-4.26-1.065,7.6,7.6,0,0,1-2.925-2.865,8.2,8.2,0,0,1-1.065-4.2,7.745,7.745,0,0,1,1.065-4.185A8,8,0,0,1-12.975,22,8.37,8.37,0,0,1-8.76,20.95,8.6,8.6,0,0,1-4.485,22a7.708,7.708,0,0,1,2.94,2.865A8.115,8.115,0,0,1-.48,29.05a8.2,8.2,0,0,1-1.065,4.2A7.54,7.54,0,0,1-4.5,36.115,8.9,8.9,0,0,1-8.73,37.18Zm0-2.52a5.46,5.46,0,0,0,2.745-.69,4.874,4.874,0,0,0,1.9-1.965,6.358,6.358,0,0,0,.72-2.955,6.236,6.236,0,0,0-.72-2.955,4.924,4.924,0,0,0-1.9-1.935,5.692,5.692,0,0,0-2.745-.72,5.6,5.6,0,0,0-2.73.72,5.169,5.169,0,0,0-1.92,1.935,5.8,5.8,0,0,0-.72,2.955,5.907,5.907,0,0,0,.72,2.955,5.145,5.145,0,0,0,1.905,1.965A5.355,5.355,0,0,0-8.73,34.66Zm20.67,2.52a7.275,7.275,0,0,1-3.615-.915,6.644,6.644,0,0,1-2.61-2.715,9.365,9.365,0,0,1-.975-4.5,9.613,9.613,0,0,1,.945-4.5,6.359,6.359,0,0,1,2.58-2.7,7.493,7.493,0,0,1,3.675-.9,8.251,8.251,0,0,1,4.14,1.02,7.532,7.532,0,0,1,2.85,2.835,8.327,8.327,0,0,1,1.05,4.245,8.41,8.41,0,0,1-1.05,4.26,7.5,7.5,0,0,1-2.85,2.85A8.251,8.251,0,0,1,11.94,37.18ZM3.51,42.82V21.1H6.27v4.29l-.18,3.69.3,3.69V42.82Zm8.19-8.16a5.46,5.46,0,0,0,2.745-.69,4.974,4.974,0,0,0,1.92-1.965,6.007,6.007,0,0,0,.7-2.955,5.9,5.9,0,0,0-.7-2.955,5.028,5.028,0,0,0-1.92-1.935,5.46,5.46,0,0,0-2.745-.69,5.4,5.4,0,0,0-2.715.69,5.028,5.028,0,0,0-1.92,1.935A5.9,5.9,0,0,0,6.36,29.05a6.007,6.007,0,0,0,.705,2.955,4.974,4.974,0,0,0,1.92,1.965A5.4,5.4,0,0,0,11.7,34.66ZM43.86,20.95a7.359,7.359,0,0,1,3.39.75,5.317,5.317,0,0,1,2.295,2.28,8.1,8.1,0,0,1,.825,3.87V37H47.49V28.18a4.969,4.969,0,0,0-1.08-3.48,3.918,3.918,0,0,0-3.03-1.17,5.105,5.105,0,0,0-2.52.6A4.024,4.024,0,0,0,39.2,25.9a6.474,6.474,0,0,0-.585,2.91V37H35.73V28.18a5.015,5.015,0,0,0-1.065-3.48,3.908,3.908,0,0,0-3.045-1.17,5.042,5.042,0,0,0-2.49.6,4.112,4.112,0,0,0-1.68,1.77,6.336,6.336,0,0,0-.6,2.91V37H23.97V21.1h2.76v4.23l-.45-1.08a5.422,5.422,0,0,1,2.31-2.43,7.33,7.33,0,0,1,3.63-.87,6.806,6.806,0,0,1,3.93,1.125,5.329,5.329,0,0,1,2.16,3.405L37.14,25a5.977,5.977,0,0,1,2.52-2.94A7.838,7.838,0,0,1,43.86,20.95Zm18.9,16.23a9.257,9.257,0,0,1-4.485-1.05,7.566,7.566,0,0,1-3-2.88,8.2,8.2,0,0,1-1.065-4.2,8.383,8.383,0,0,1,1.035-4.2,7.471,7.471,0,0,1,2.85-2.865,8.118,8.118,0,0,1,4.1-1.035,8.024,8.024,0,0,1,4.08,1.02,7.22,7.22,0,0,1,2.775,2.865,8.861,8.861,0,0,1,1,4.305q0,.18-.015.42t-.045.45H56.46V27.94H68.49l-1.17.72a5.346,5.346,0,0,0-.63-2.73,4.814,4.814,0,0,0-1.815-1.875,5.648,5.648,0,0,0-5.355,0,4.756,4.756,0,0,0-1.83,1.89,5.72,5.72,0,0,0-.66,2.775v.48a5.47,5.47,0,0,0,.735,2.835A5.048,5.048,0,0,0,59.82,33.97a6.445,6.445,0,0,0,3.03.69,6.623,6.623,0,0,0,2.565-.48,5.618,5.618,0,0,0,2.025-1.44l1.59,1.86a6.964,6.964,0,0,1-2.685,1.92A9.345,9.345,0,0,1,62.76,37.18ZM82.53,20.95a7.521,7.521,0,0,1,3.435.75,5.383,5.383,0,0,1,2.325,2.28,7.977,7.977,0,0,1,.84,3.87V37H86.25V28.18a4.839,4.839,0,0,0-1.125-3.48,4.185,4.185,0,0,0-3.165-1.17,5.654,5.654,0,0,0-2.67.6,4.109,4.109,0,0,0-1.755,1.77,6.206,6.206,0,0,0-.615,2.91V37H74.04V21.1H76.8v4.29l-.45-1.14a5.522,5.522,0,0,1,2.4-2.43A7.871,7.871,0,0,1,82.53,20.95Zm17.4,16.23a5.1,5.1,0,0,1-3.72-1.29,4.926,4.926,0,0,1-1.32-3.69V17.62h2.88V32.08a2.793,2.793,0,0,0,.645,1.98,2.4,2.4,0,0,0,1.845.69,3.4,3.4,0,0,0,2.25-.75l.9,2.07a4.187,4.187,0,0,1-1.575.84A6.7,6.7,0,0,1,99.93,37.18ZM92.19,23.47V21.1h10.14v2.37Z" transform="translate(861 2781)" fill="#142357"/>
    <path id="Path_55" data-name="Path 55" d="M-140.952,0V-19.6h8.792a8.589,8.589,0,0,1,5.208,1.358,4.38,4.38,0,0,1,1.82,3.71,4.809,4.809,0,0,1-.714,2.688,4.718,4.718,0,0,1-1.918,1.68,5.854,5.854,0,0,1-2.6.588l.5-.84a7.078,7.078,0,0,1,2.968.588,4.792,4.792,0,0,1,2.044,1.722,4.963,4.963,0,0,1,.756,2.814,4.561,4.561,0,0,1-1.89,3.906A9.449,9.449,0,0,1-131.6,0Zm2.8-2.268h6.44a6.653,6.653,0,0,0,3.556-.784,2.709,2.709,0,0,0,1.232-2.464,2.736,2.736,0,0,0-1.232-2.492,6.653,6.653,0,0,0-3.556-.784H-138.4V-11.06h5.992a5.923,5.923,0,0,0,3.3-.784,2.638,2.638,0,0,0,1.176-2.352,2.638,2.638,0,0,0-1.176-2.352,5.923,5.923,0,0,0-3.3-.784h-5.74Zm18,2.268V-20.776h2.688V0Zm14.168.168a8.257,8.257,0,0,1-3.976-.994,7.09,7.09,0,0,1-2.73-2.674,7.649,7.649,0,0,1-.994-3.92,7.229,7.229,0,0,1,.994-3.906A7.466,7.466,0,0,1-109.942-14a7.812,7.812,0,0,1,3.934-.98,8.025,8.025,0,0,1,3.99.98,7.194,7.194,0,0,1,2.744,2.674A7.574,7.574,0,0,1-98.28-7.42a7.649,7.649,0,0,1-.994,3.92,7.037,7.037,0,0,1-2.758,2.674A8.311,8.311,0,0,1-105.98.168Zm0-2.352a5.1,5.1,0,0,0,2.562-.644,4.549,4.549,0,0,0,1.778-1.834,5.934,5.934,0,0,0,.672-2.758,5.82,5.82,0,0,0-.672-2.758,4.6,4.6,0,0,0-1.778-1.806,5.313,5.313,0,0,0-2.562-.672,5.231,5.231,0,0,0-2.548.672,4.824,4.824,0,0,0-1.792,1.806,5.415,5.415,0,0,0-.672,2.758,5.513,5.513,0,0,0,.672,2.758,4.8,4.8,0,0,0,1.778,1.834A5,5,0,0,0-105.98-2.184ZM-88.06,5.6a13.745,13.745,0,0,1-3.962-.574,8.187,8.187,0,0,1-3.122-1.638l1.288-2.072A7.62,7.62,0,0,0-91.308,2.73a9.694,9.694,0,0,0,3.164.518A5.276,5.276,0,0,0-84.28,2.016a5.1,5.1,0,0,0,1.232-3.752V-4.872l.28-2.94-.14-2.968v-4.06h2.548V-2.016q0,3.92-1.96,5.768A8.069,8.069,0,0,1-88.06,5.6ZM-88.4-.616a8.006,8.006,0,0,1-3.85-.91A6.95,6.95,0,0,1-94.934-4.06a7.042,7.042,0,0,1-.994-3.752,7.022,7.022,0,0,1,.994-3.766,6.88,6.88,0,0,1,2.688-2.506,8.108,8.108,0,0,1,3.85-.9,7.769,7.769,0,0,1,3.472.77,5.876,5.876,0,0,1,2.506,2.366,7.86,7.86,0,0,1,.938,4.032,7.8,7.8,0,0,1-.938,4,6.059,6.059,0,0,1-2.506,2.394A7.543,7.543,0,0,1-88.4-.616Zm.308-2.352a5.48,5.48,0,0,0,2.632-.616A4.612,4.612,0,0,0-83.65-5.292a4.787,4.787,0,0,0,.658-2.52,4.787,4.787,0,0,0-.658-2.52,4.513,4.513,0,0,0-1.806-1.694,5.584,5.584,0,0,0-2.632-.6,5.668,5.668,0,0,0-2.646.6,4.49,4.49,0,0,0-1.82,1.694,4.787,4.787,0,0,0-.658,2.52,4.787,4.787,0,0,0,.658,2.52,4.587,4.587,0,0,0,1.82,1.708A5.562,5.562,0,0,0-88.088-2.968ZM-58.548.224a11.205,11.205,0,0,1-4.13-.742,9.674,9.674,0,0,1-3.276-2.1A9.867,9.867,0,0,1-68.124-5.8a10.015,10.015,0,0,1-.784-4,10.015,10.015,0,0,1,.784-4,9.76,9.76,0,0,1,2.184-3.178,9.826,9.826,0,0,1,3.29-2.1,11.205,11.205,0,0,1,4.13-.742,11.134,11.134,0,0,1,4.186.77,8.573,8.573,0,0,1,3.262,2.282l-1.82,1.764a7.274,7.274,0,0,0-2.52-1.75,7.82,7.82,0,0,0-3-.574,8.252,8.252,0,0,0-3.066.56,7.352,7.352,0,0,0-2.45,1.568,7.076,7.076,0,0,0-1.61,2.394,7.789,7.789,0,0,0-.574,3.01,7.789,7.789,0,0,0,.574,3.01A7.076,7.076,0,0,0-63.924-4.4a7.352,7.352,0,0,0,2.45,1.568,8.252,8.252,0,0,0,3.066.56,7.82,7.82,0,0,0,3-.574,7.115,7.115,0,0,0,2.52-1.778l1.82,1.764a8.71,8.71,0,0,1-3.262,2.3A11.034,11.034,0,0,1-58.548.224ZM-41.692.168a7.576,7.576,0,0,1-3.346-.7,5.017,5.017,0,0,1-2.24-2.142,7.419,7.419,0,0,1-.8-3.626v-8.54h2.688v8.232a4.56,4.56,0,0,0,1.05,3.276A3.906,3.906,0,0,0-41.384-2.24a4.948,4.948,0,0,0,2.436-.574,3.862,3.862,0,0,0,1.6-1.68,5.864,5.864,0,0,0,.56-2.674V-14.84H-34.1V0h-2.548V-4l.42,1.064a5.192,5.192,0,0,1-2.184,2.3A6.61,6.61,0,0,1-41.692.168Zm16.968,0a12.071,12.071,0,0,1-3.514-.5,8.251,8.251,0,0,1-2.618-1.232l1.12-2.128A9.186,9.186,0,0,0-27.384-2.6a9.316,9.316,0,0,0,2.856.448,5.179,5.179,0,0,0,2.7-.532A1.673,1.673,0,0,0-21-4.172a1.305,1.305,0,0,0-.5-1.092,3.437,3.437,0,0,0-1.33-.588q-.826-.2-1.834-.35t-2.016-.392a8.028,8.028,0,0,1-1.848-.672,3.49,3.49,0,0,1-1.344-1.2,3.711,3.711,0,0,1-.5-2.058,3.812,3.812,0,0,1,.756-2.352,4.791,4.791,0,0,1,2.142-1.554,8.963,8.963,0,0,1,3.29-.546,12.953,12.953,0,0,1,2.954.35,7.336,7.336,0,0,1,2.45.994l-1.148,2.128a6.342,6.342,0,0,0-2.1-.924,9.685,9.685,0,0,0-2.184-.252,4.83,4.83,0,0,0-2.632.574,1.71,1.71,0,0,0-.868,1.47A1.389,1.389,0,0,0-27.2-9.478a3.748,3.748,0,0,0,1.344.63,16.631,16.631,0,0,0,1.834.378q1.008.154,2.016.392a8.178,8.178,0,0,1,1.834.658A3.556,3.556,0,0,1-18.83-6.244a3.508,3.508,0,0,1,.518,2.016A3.607,3.607,0,0,1-19.1-1.9,5.072,5.072,0,0,1-21.308-.378,9.571,9.571,0,0,1-24.724.168Zm14.868,0a4.759,4.759,0,0,1-3.472-1.2A4.6,4.6,0,0,1-14.56-4.48V-18.088h2.688v13.5a2.607,2.607,0,0,0,.6,1.848A2.242,2.242,0,0,0-9.548-2.1a3.169,3.169,0,0,0,2.1-.7l.84,1.932a3.908,3.908,0,0,1-1.47.784A6.249,6.249,0,0,1-9.856.168Zm-7.224-12.8V-14.84h9.464v2.212ZM2.492.168A8.257,8.257,0,0,1-1.484-.826,7.09,7.09,0,0,1-4.214-3.5a7.649,7.649,0,0,1-.994-3.92,7.229,7.229,0,0,1,.994-3.906A7.466,7.466,0,0,1-1.47-14a7.812,7.812,0,0,1,3.934-.98,8.025,8.025,0,0,1,3.99.98A7.194,7.194,0,0,1,9.2-11.326a7.574,7.574,0,0,1,.994,3.906A7.649,7.649,0,0,1,9.2-3.5,7.037,7.037,0,0,1,6.44-.826,8.311,8.311,0,0,1,2.492.168Zm0-2.352a5.1,5.1,0,0,0,2.562-.644A4.549,4.549,0,0,0,6.832-4.662,5.934,5.934,0,0,0,7.5-7.42a5.82,5.82,0,0,0-.672-2.758,4.6,4.6,0,0,0-1.778-1.806,5.313,5.313,0,0,0-2.562-.672,5.231,5.231,0,0,0-2.548.672,4.824,4.824,0,0,0-1.792,1.806A5.415,5.415,0,0,0-2.52-7.42a5.513,5.513,0,0,0,.672,2.758A4.8,4.8,0,0,0-.07-2.828,5,5,0,0,0,2.492-2.184ZM32.48-14.98a6.868,6.868,0,0,1,3.164.7,4.962,4.962,0,0,1,2.142,2.128,7.558,7.558,0,0,1,.77,3.612V0H35.868V-8.232A4.637,4.637,0,0,0,34.86-11.48a3.657,3.657,0,0,0-2.828-1.092,4.765,4.765,0,0,0-2.352.56,3.756,3.756,0,0,0-1.554,1.652,6.042,6.042,0,0,0-.546,2.716V0H24.892V-8.232A4.681,4.681,0,0,0,23.9-11.48a3.648,3.648,0,0,0-2.842-1.092,4.706,4.706,0,0,0-2.324.56,3.838,3.838,0,0,0-1.568,1.652,5.914,5.914,0,0,0-.56,2.716V0H13.916V-14.84h2.576v3.948l-.42-1.008a5.061,5.061,0,0,1,2.156-2.268,6.841,6.841,0,0,1,3.388-.812,6.353,6.353,0,0,1,3.668,1.05A4.974,4.974,0,0,1,27.3-10.752L26.208-11.2a5.578,5.578,0,0,1,2.352-2.744A7.316,7.316,0,0,1,32.48-14.98ZM43.54,0l-.028-14.84,2.688.028V0Zm1.316-17.7a1.792,1.792,0,0,1-1.3-.5,1.653,1.653,0,0,1-.518-1.232,1.686,1.686,0,0,1,.518-1.26,1.792,1.792,0,0,1,1.3-.5,1.82,1.82,0,0,1,1.3.49,1.608,1.608,0,0,1,.518,1.218,1.757,1.757,0,0,1-.5,1.274A1.754,1.754,0,0,1,44.856-17.7ZM49.9,0V-1.736l9.52-11.816.532.924H50.064V-14.84H62.1v1.764L52.584-1.288l-.616-.924h10.36V0ZM75.124,0V-3.136l-.14-.588V-9.072a3.462,3.462,0,0,0-.994-2.646,4.2,4.2,0,0,0-2.982-.938,7.858,7.858,0,0,0-2.576.434A6.636,6.636,0,0,0,66.3-11.06l-1.12-2.016a8.111,8.111,0,0,1,2.758-1.414,11.524,11.524,0,0,1,3.374-.49,6.8,6.8,0,0,1,4.7,1.484A5.8,5.8,0,0,1,77.672-8.96V0ZM70.252.168a7.011,7.011,0,0,1-2.9-.56,4.444,4.444,0,0,1-1.918-1.554A3.931,3.931,0,0,1,64.764-4.2a4.241,4.241,0,0,1,.574-2.184,3.975,3.975,0,0,1,1.876-1.568,8.677,8.677,0,0,1,3.514-.588h4.7v1.932H70.84a4.012,4.012,0,0,0-2.716.672,2.169,2.169,0,0,0-.7,1.624,2.087,2.087,0,0,0,.868,1.75A3.906,3.906,0,0,0,70.7-1.9a5.093,5.093,0,0,0,2.646-.672,3.823,3.823,0,0,0,1.638-1.96l.532,1.848A4.181,4.181,0,0,1,73.64-.6,6.74,6.74,0,0,1,70.252.168Zm17.5,0a4.759,4.759,0,0,1-3.472-1.2A4.6,4.6,0,0,1,83.048-4.48V-18.088h2.688v13.5a2.607,2.607,0,0,0,.6,1.848A2.242,2.242,0,0,0,88.06-2.1a3.169,3.169,0,0,0,2.1-.7L91-.868a3.908,3.908,0,0,1-1.47.784A6.249,6.249,0,0,1,87.752.168Zm-7.224-12.8V-14.84h9.464v2.212ZM94.276,0l-.028-14.84,2.688.028V0Zm1.316-17.7a1.792,1.792,0,0,1-1.3-.5,1.653,1.653,0,0,1-.518-1.232,1.686,1.686,0,0,1,.518-1.26,1.792,1.792,0,0,1,1.3-.5,1.82,1.82,0,0,1,1.3.49,1.608,1.608,0,0,1,.518,1.218,1.757,1.757,0,0,1-.5,1.274A1.754,1.754,0,0,1,95.592-17.7ZM108.416.168a8.257,8.257,0,0,1-3.976-.994A7.09,7.09,0,0,1,101.71-3.5a7.649,7.649,0,0,1-.994-3.92,7.229,7.229,0,0,1,.994-3.906A7.466,7.466,0,0,1,104.454-14a7.812,7.812,0,0,1,3.934-.98,8.025,8.025,0,0,1,3.99.98,7.194,7.194,0,0,1,2.744,2.674,7.574,7.574,0,0,1,.994,3.906,7.649,7.649,0,0,1-.994,3.92,7.037,7.037,0,0,1-2.758,2.674A8.311,8.311,0,0,1,108.416.168Zm0-2.352a5.1,5.1,0,0,0,2.562-.644,4.549,4.549,0,0,0,1.778-1.834,5.934,5.934,0,0,0,.672-2.758,5.82,5.82,0,0,0-.672-2.758,4.6,4.6,0,0,0-1.778-1.806,5.313,5.313,0,0,0-2.562-.672,5.231,5.231,0,0,0-2.548.672,4.824,4.824,0,0,0-1.792,1.806A5.415,5.415,0,0,0,103.4-7.42a5.513,5.513,0,0,0,.672,2.758,4.8,4.8,0,0,0,1.778,1.834A5,5,0,0,0,108.416-2.184Zm19.348-12.8a7.019,7.019,0,0,1,3.206.7,5.024,5.024,0,0,1,2.17,2.128,7.445,7.445,0,0,1,.784,3.612V0h-2.688V-8.232a4.517,4.517,0,0,0-1.05-3.248,3.906,3.906,0,0,0-2.954-1.092,5.277,5.277,0,0,0-2.492.56A3.835,3.835,0,0,0,123.1-10.36a5.792,5.792,0,0,0-.574,2.716V0H119.84V-14.84h2.576v4L122-11.9a5.154,5.154,0,0,1,2.24-2.268A7.346,7.346,0,0,1,127.764-14.98Zm-229.586,49.2a9.078,9.078,0,0,1-3.528-.644,5.9,5.9,0,0,1-2.436-1.792,4.2,4.2,0,0,1-.9-2.66,5,5,0,0,1,.588-2.408,7.042,7.042,0,0,1,1.876-2.114,21.393,21.393,0,0,1,3.388-2.114,26.018,26.018,0,0,0,2.674-1.568,5.278,5.278,0,0,0,1.372-1.274,2.283,2.283,0,0,0,.406-1.3,1.991,1.991,0,0,0-.672-1.554,2.8,2.8,0,0,0-1.932-.6,3,3,0,0,0-2.058.658,2.192,2.192,0,0,0-.742,1.722,2.911,2.911,0,0,0,.182,1.022,4.023,4.023,0,0,0,.672,1.092q.49.6,1.414,1.526l10.36,10.3-1.512,1.792-11-10.948a15.276,15.276,0,0,1-1.54-1.75,5.8,5.8,0,0,1-.812-1.5,4.507,4.507,0,0,1-.252-1.484,4.088,4.088,0,0,1,.658-2.31,4.308,4.308,0,0,1,1.848-1.54,6.624,6.624,0,0,1,2.786-.546,6.249,6.249,0,0,1,2.576.49,3.875,3.875,0,0,1,1.694,1.4,3.894,3.894,0,0,1,.6,2.2,4.093,4.093,0,0,1-.546,2.072,6.3,6.3,0,0,1-1.75,1.848,22.888,22.888,0,0,1-3.248,1.932,17.292,17.292,0,0,0-2.632,1.61,5.118,5.118,0,0,0-1.358,1.47,3.222,3.222,0,0,0-.406,1.6,2.624,2.624,0,0,0,.546,1.638,3.5,3.5,0,0,0,1.54,1.106,6.271,6.271,0,0,0,2.31.392,7.046,7.046,0,0,0,3.388-.812,6.789,6.789,0,0,0,2.534-2.436,11.838,11.838,0,0,0,1.5-4.032l2.156.7A12.61,12.61,0,0,1-94,30.192a9.234,9.234,0,0,1-3.346,3A9.548,9.548,0,0,1-101.822,34.224ZM-80.262,34V14.4h2.3l8.792,14.812h-1.232l8.68-14.812h2.3L-59.4,34H-62.09l-.028-15.372h.644L-69.2,31.62H-70.49l-7.784-12.992h.7V34Zm35.56,0V30.864l-.14-.588V24.928a3.462,3.462,0,0,0-.994-2.646,4.2,4.2,0,0,0-2.982-.938,7.858,7.858,0,0,0-2.576.434,6.636,6.636,0,0,0-2.128,1.162l-1.12-2.016a8.111,8.111,0,0,1,2.758-1.414,11.524,11.524,0,0,1,3.374-.49,6.8,6.8,0,0,1,4.7,1.484,5.8,5.8,0,0,1,1.652,4.536V34Zm-4.872.168a7.011,7.011,0,0,1-2.9-.56,4.444,4.444,0,0,1-1.918-1.554,3.931,3.931,0,0,1-.672-2.254,4.241,4.241,0,0,1,.574-2.184,3.975,3.975,0,0,1,1.876-1.568A8.677,8.677,0,0,1-49.1,25.46h4.7v1.932h-4.592a4.012,4.012,0,0,0-2.716.672,2.169,2.169,0,0,0-.7,1.624,2.087,2.087,0,0,0,.868,1.75,3.906,3.906,0,0,0,2.408.658,5.093,5.093,0,0,0,2.646-.672,3.823,3.823,0,0,0,1.638-1.96l.532,1.848A4.181,4.181,0,0,1-46.186,33.4,6.74,6.74,0,0,1-49.574,34.168ZM-29.246,19.02a7.02,7.02,0,0,1,3.206.7,5.024,5.024,0,0,1,2.17,2.128,7.445,7.445,0,0,1,.784,3.612V34h-2.688V25.768a4.517,4.517,0,0,0-1.05-3.248,3.906,3.906,0,0,0-2.954-1.092,5.277,5.277,0,0,0-2.492.56,3.835,3.835,0,0,0-1.638,1.652,5.792,5.792,0,0,0-.574,2.716V34H-37.17V19.16h2.576v4l-.42-1.064a5.154,5.154,0,0,1,2.24-2.268A7.346,7.346,0,0,1-29.246,19.02ZM-8.89,34V30.864l-.14-.588V24.928a3.462,3.462,0,0,0-.994-2.646,4.2,4.2,0,0,0-2.982-.938,7.858,7.858,0,0,0-2.576.434A6.636,6.636,0,0,0-17.71,22.94l-1.12-2.016a8.111,8.111,0,0,1,2.758-1.414,11.524,11.524,0,0,1,3.374-.49,6.8,6.8,0,0,1,4.7,1.484A5.8,5.8,0,0,1-6.342,25.04V34Zm-4.872.168a7.011,7.011,0,0,1-2.9-.56,4.444,4.444,0,0,1-1.918-1.554A3.931,3.931,0,0,1-19.25,29.8a4.241,4.241,0,0,1,.574-2.184A3.975,3.975,0,0,1-16.8,26.048a8.677,8.677,0,0,1,3.514-.588h4.7v1.932h-4.592a4.012,4.012,0,0,0-2.716.672,2.169,2.169,0,0,0-.7,1.624,2.087,2.087,0,0,0,.868,1.75,3.906,3.906,0,0,0,2.408.658,5.093,5.093,0,0,0,2.646-.672,3.823,3.823,0,0,0,1.638-1.96l.532,1.848A4.181,4.181,0,0,1-10.374,33.4,6.74,6.74,0,0,1-13.762,34.168ZM5.138,39.6a13.745,13.745,0,0,1-3.962-.574,8.187,8.187,0,0,1-3.122-1.638l1.288-2.072A7.62,7.62,0,0,0,1.89,36.73a9.694,9.694,0,0,0,3.164.518,5.276,5.276,0,0,0,3.864-1.232,5.1,5.1,0,0,0,1.232-3.752V29.128l.28-2.94-.14-2.968V19.16h2.548V31.984q0,3.92-1.96,5.768A8.069,8.069,0,0,1,5.138,39.6ZM4.8,33.384a8.006,8.006,0,0,1-3.85-.91A6.95,6.95,0,0,1-1.736,29.94a7.042,7.042,0,0,1-.994-3.752,7.022,7.022,0,0,1,.994-3.766A6.88,6.88,0,0,1,.952,19.916a8.108,8.108,0,0,1,3.85-.9,7.769,7.769,0,0,1,3.472.77,5.876,5.876,0,0,1,2.506,2.366,7.86,7.86,0,0,1,.938,4.032,7.8,7.8,0,0,1-.938,4,6.059,6.059,0,0,1-2.506,2.394A7.543,7.543,0,0,1,4.8,33.384Zm.308-2.352a5.48,5.48,0,0,0,2.632-.616,4.612,4.612,0,0,0,1.806-1.708,5.155,5.155,0,0,0,0-5.04,4.513,4.513,0,0,0-1.806-1.694,5.584,5.584,0,0,0-2.632-.6,5.668,5.668,0,0,0-2.646.6,4.49,4.49,0,0,0-1.82,1.694,5.155,5.155,0,0,0,0,5.04,4.587,4.587,0,0,0,1.82,1.708A5.562,5.562,0,0,0,5.11,31.032Zm19.46,3.136a8.64,8.64,0,0,1-4.186-.98,7.062,7.062,0,0,1-2.8-2.688,7.649,7.649,0,0,1-.994-3.92,7.824,7.824,0,0,1,.966-3.92,6.973,6.973,0,0,1,2.66-2.674,7.577,7.577,0,0,1,3.822-.966,7.489,7.489,0,0,1,3.808.952,6.739,6.739,0,0,1,2.59,2.674,8.271,8.271,0,0,1,.938,4.018q0,.168-.014.392t-.042.42H18.69V25.544H29.918l-1.092.672a4.99,4.99,0,0,0-.588-2.548,4.493,4.493,0,0,0-1.694-1.75,5.271,5.271,0,0,0-5,0,4.439,4.439,0,0,0-1.708,1.764,5.338,5.338,0,0,0-.616,2.59v.448a5.106,5.106,0,0,0,.686,2.646,4.712,4.712,0,0,0,1.918,1.806,6.016,6.016,0,0,0,2.828.644,6.181,6.181,0,0,0,2.394-.448,5.243,5.243,0,0,0,1.89-1.344l1.484,1.736a6.5,6.5,0,0,1-2.506,1.792A8.722,8.722,0,0,1,24.57,34.168ZM53.662,19.02a6.868,6.868,0,0,1,3.164.7,4.962,4.962,0,0,1,2.142,2.128,7.558,7.558,0,0,1,.77,3.612V34H57.05V25.768a4.637,4.637,0,0,0-1.008-3.248,3.657,3.657,0,0,0-2.828-1.092,4.765,4.765,0,0,0-2.352.56,3.756,3.756,0,0,0-1.554,1.652,6.042,6.042,0,0,0-.546,2.716V34H46.074V25.768a4.681,4.681,0,0,0-.994-3.248,3.648,3.648,0,0,0-2.842-1.092,4.706,4.706,0,0,0-2.324.56,3.838,3.838,0,0,0-1.568,1.652,5.914,5.914,0,0,0-.56,2.716V34H35.1V19.16h2.576v3.948l-.42-1.008a5.061,5.061,0,0,1,2.156-2.268A6.841,6.841,0,0,1,42.8,19.02a6.353,6.353,0,0,1,3.668,1.05,4.974,4.974,0,0,1,2.016,3.178L47.39,22.8a5.578,5.578,0,0,1,2.352-2.744A7.316,7.316,0,0,1,53.662,19.02ZM71.3,34.168a8.64,8.64,0,0,1-4.186-.98,7.062,7.062,0,0,1-2.8-2.688,7.649,7.649,0,0,1-.994-3.92,7.824,7.824,0,0,1,.966-3.92,6.973,6.973,0,0,1,2.66-2.674,7.577,7.577,0,0,1,3.822-.966,7.489,7.489,0,0,1,3.808.952,6.739,6.739,0,0,1,2.59,2.674,8.271,8.271,0,0,1,.938,4.018q0,.168-.014.392t-.042.42H65.422V25.544H76.65l-1.092.672a4.99,4.99,0,0,0-.588-2.548,4.493,4.493,0,0,0-1.694-1.75,5.271,5.271,0,0,0-5,0,4.439,4.439,0,0,0-1.708,1.764,5.338,5.338,0,0,0-.616,2.59v.448a5.106,5.106,0,0,0,.686,2.646,4.712,4.712,0,0,0,1.918,1.806,6.016,6.016,0,0,0,2.828.644,6.181,6.181,0,0,0,2.394-.448,5.243,5.243,0,0,0,1.89-1.344l1.484,1.736a6.5,6.5,0,0,1-2.506,1.792A8.722,8.722,0,0,1,71.3,34.168ZM89.754,19.02a7.02,7.02,0,0,1,3.206.7,5.024,5.024,0,0,1,2.17,2.128,7.445,7.445,0,0,1,.784,3.612V34H93.226V25.768a4.517,4.517,0,0,0-1.05-3.248,3.906,3.906,0,0,0-2.954-1.092,5.277,5.277,0,0,0-2.492.56,3.835,3.835,0,0,0-1.638,1.652,5.792,5.792,0,0,0-.574,2.716V34H81.83V19.16h2.576v4l-.42-1.064a5.154,5.154,0,0,1,2.24-2.268A7.346,7.346,0,0,1,89.754,19.02Zm16.24,15.148a4.759,4.759,0,0,1-3.472-1.2,4.6,4.6,0,0,1-1.232-3.444V15.912h2.688v13.5a2.607,2.607,0,0,0,.6,1.848,2.242,2.242,0,0,0,1.722.644,3.169,3.169,0,0,0,2.1-.7l.84,1.932a3.908,3.908,0,0,1-1.47.784A6.249,6.249,0,0,1,105.994,34.168Zm-7.224-12.8V19.16h9.464v2.212Z" transform="translate(1193 2792)" fill="#147f00"/>
  </g>
</svg>
