<svg width="1323" height="395" viewBox="0 0 1323 395" fill="none" xmlns="http://www.w3.org/2000/svg">
<path d="M58.7291 356.482H62.8031V385H58.7291V356.482ZM42.3517 385H38.2777V356.482H42.3517V385ZM59.0957 372.289H41.9443V368.745H59.0957V372.289ZM77.0018 385V360.026H67.2243V356.482H90.8127V360.026H81.0351V385H77.0018ZM95.2498 385V356.482H98.5905L111.383 378.033H109.59L122.22 356.482H125.56L125.601 385H121.69L121.649 362.634H122.586L111.342 381.537H109.468L98.1423 362.634H99.1608V385H95.2498ZM134.16 385V356.482H138.234V381.456H153.674V385H134.16Z" fill="black"/>
<path d="M444.029 243.326C441.856 243.326 439.847 242.973 438 242.267C436.18 241.533 434.591 240.515 433.233 239.211C431.902 237.88 430.857 236.332 430.096 234.567C429.336 232.801 428.956 230.86 428.956 228.741C428.956 226.623 429.336 224.681 430.096 222.915C430.857 221.15 431.916 219.615 433.274 218.312C434.632 216.981 436.221 215.962 438.04 215.256C439.887 214.523 441.897 214.156 444.07 214.156C446.27 214.156 448.293 214.536 450.14 215.297C452.014 216.03 453.603 217.13 454.907 218.597L452.259 221.163C451.172 220.023 449.95 219.181 448.592 218.638C447.234 218.067 445.781 217.782 444.233 217.782C442.631 217.782 441.137 218.054 439.752 218.597C438.394 219.14 437.212 219.901 436.207 220.878C435.202 221.856 434.415 223.024 433.844 224.382C433.301 225.713 433.029 227.166 433.029 228.741C433.029 230.316 433.301 231.783 433.844 233.141C434.415 234.472 435.202 235.626 436.207 236.604C437.212 237.582 438.394 238.342 439.752 238.885C441.137 239.428 442.631 239.7 444.233 239.7C445.781 239.7 447.234 239.428 448.592 238.885C449.95 238.315 451.172 237.446 452.259 236.278L454.907 238.845C453.603 240.311 452.014 241.425 450.14 242.185C448.293 242.946 446.256 243.326 444.029 243.326ZM468.99 243.326C466.817 243.326 464.739 243 462.757 242.348C460.774 241.669 459.212 240.8 458.071 239.741L459.579 236.563C460.665 237.514 462.05 238.301 463.734 238.926C465.418 239.551 467.17 239.863 468.99 239.863C470.646 239.863 471.991 239.673 473.023 239.293C474.055 238.912 474.816 238.396 475.304 237.745C475.793 237.066 476.038 236.305 476.038 235.463C476.038 234.485 475.712 233.698 475.06 233.1C474.435 232.503 473.607 232.027 472.575 231.674C471.57 231.294 470.456 230.968 469.234 230.697C468.012 230.425 466.776 230.113 465.527 229.76C464.305 229.379 463.178 228.904 462.145 228.334C461.141 227.763 460.326 227.003 459.701 226.052C459.076 225.074 458.764 223.825 458.764 222.304C458.764 220.838 459.144 219.493 459.905 218.271C460.692 217.022 461.887 216.03 463.49 215.297C465.119 214.536 467.184 214.156 469.682 214.156C471.339 214.156 472.982 214.373 474.612 214.808C476.241 215.243 477.654 215.867 478.849 216.682L477.504 219.941C476.282 219.126 474.992 218.543 473.634 218.189C472.276 217.809 470.959 217.619 469.682 217.619C468.08 217.619 466.763 217.823 465.731 218.23C464.698 218.638 463.938 219.181 463.449 219.86C462.987 220.539 462.757 221.299 462.757 222.141C462.757 223.146 463.069 223.947 463.694 224.545C464.345 225.142 465.174 225.618 466.179 225.971C467.211 226.324 468.338 226.65 469.56 226.949C470.782 227.22 472.004 227.532 473.227 227.886C474.476 228.239 475.603 228.7 476.608 229.271C477.64 229.841 478.469 230.602 479.093 231.552C479.718 232.503 480.03 233.725 480.03 235.219C480.03 236.658 479.636 238.003 478.849 239.252C478.061 240.474 476.839 241.465 475.182 242.226C473.553 242.959 471.488 243.326 468.99 243.326ZM494.293 243.326C492.12 243.326 490.042 243 488.06 242.348C486.077 241.669 484.515 240.8 483.375 239.741L484.882 236.563C485.968 237.514 487.354 238.301 489.038 238.926C490.721 239.551 492.473 239.863 494.293 239.863C495.95 239.863 497.294 239.673 498.326 239.293C499.358 238.912 500.119 238.396 500.608 237.745C501.097 237.066 501.341 236.305 501.341 235.463C501.341 234.485 501.015 233.698 500.363 233.1C499.739 232.503 498.91 232.027 497.878 231.674C496.873 231.294 495.76 230.968 494.537 230.697C493.315 230.425 492.079 230.113 490.83 229.76C489.608 229.379 488.481 228.904 487.449 228.334C486.444 227.763 485.629 227.003 485.004 226.052C484.38 225.074 484.067 223.825 484.067 222.304C484.067 220.838 484.448 219.493 485.208 218.271C485.996 217.022 487.191 216.03 488.793 215.297C490.423 214.536 492.487 214.156 494.986 214.156C496.642 214.156 498.285 214.373 499.915 214.808C501.545 215.243 502.957 215.867 504.152 216.682L502.808 219.941C501.585 219.126 500.295 218.543 498.937 218.189C497.579 217.809 496.262 217.619 494.986 217.619C493.383 217.619 492.066 217.823 491.034 218.23C490.002 218.638 489.241 219.181 488.752 219.86C488.291 220.539 488.06 221.299 488.06 222.141C488.06 223.146 488.372 223.947 488.997 224.545C489.649 225.142 490.477 225.618 491.482 225.971C492.514 226.324 493.641 226.65 494.863 226.949C496.086 227.22 497.308 227.532 498.53 227.886C499.779 228.239 500.906 228.7 501.911 229.271C502.943 229.841 503.772 230.602 504.396 231.552C505.021 232.503 505.333 233.725 505.333 235.219C505.333 236.658 504.94 238.003 504.152 239.252C503.364 240.474 502.142 241.465 500.485 242.226C498.856 242.959 496.792 243.326 494.293 243.326Z" fill="black"/>
<circle cx="840.665" cy="236.665" r="91.6646" fill="white" stroke="#404CDC" stroke-width="4.07398"/>
<path d="M720.944 385.326C719.26 385.326 717.685 384.973 716.218 384.267C714.752 383.561 713.557 382.542 712.633 381.211L714.996 378.441C715.784 379.527 716.667 380.369 717.644 380.967C718.649 381.537 719.749 381.822 720.944 381.822C724.203 381.822 725.833 379.894 725.833 376.037V360.026H715.526V356.482H729.866V375.834C729.866 379.011 729.106 381.388 727.585 382.963C726.091 384.538 723.878 385.326 720.944 385.326ZM733.25 385L746.164 356.482H750.197L763.153 385H758.875L747.346 358.764H748.975L737.446 385H733.25ZM738.749 377.871L739.849 374.611H755.901L757.082 377.871H738.749ZM774.124 385L761.577 356.482H765.976L777.506 382.8H774.98L786.591 356.482H790.665L778.158 385H774.124ZM789.068 385L801.982 356.482H806.016L818.971 385H814.693L803.164 358.764H804.794L793.264 385H789.068ZM794.568 377.871L795.668 374.611H811.719L812.901 377.871H794.568ZM831.536 385.326C829.363 385.326 827.286 385 825.303 384.348C823.32 383.669 821.758 382.8 820.618 381.741L822.125 378.563C823.212 379.514 824.597 380.301 826.281 380.926C827.965 381.551 829.716 381.863 831.536 381.863C833.193 381.863 834.537 381.673 835.569 381.293C836.601 380.912 837.362 380.396 837.851 379.745C838.34 379.066 838.584 378.305 838.584 377.463C838.584 376.485 838.258 375.698 837.606 375.1C836.982 374.503 836.153 374.027 835.121 373.674C834.116 373.294 833.003 372.968 831.78 372.697C830.558 372.425 829.323 372.113 828.073 371.76C826.851 371.379 825.724 370.904 824.692 370.334C823.687 369.763 822.872 369.003 822.247 368.052C821.623 367.074 821.31 365.825 821.31 364.304C821.31 362.838 821.691 361.493 822.451 360.271C823.239 359.022 824.434 358.03 826.036 357.297C827.666 356.536 829.73 356.156 832.229 356.156C833.885 356.156 835.529 356.373 837.158 356.808C838.788 357.243 840.2 357.867 841.395 358.682L840.051 361.941C838.828 361.126 837.538 360.543 836.18 360.189C834.822 359.809 833.505 359.619 832.229 359.619C830.626 359.619 829.309 359.823 828.277 360.23C827.245 360.638 826.484 361.181 825.995 361.86C825.534 362.539 825.303 363.299 825.303 364.141C825.303 365.146 825.615 365.947 826.24 366.545C826.892 367.142 827.72 367.618 828.725 367.971C829.757 368.324 830.884 368.65 832.106 368.949C833.329 369.22 834.551 369.532 835.773 369.886C837.022 370.239 838.149 370.7 839.154 371.271C840.186 371.841 841.015 372.602 841.64 373.552C842.264 374.503 842.577 375.725 842.577 377.219C842.577 378.658 842.183 380.003 841.395 381.252C840.607 382.474 839.385 383.465 837.728 384.226C836.099 384.959 834.035 385.326 831.536 385.326ZM861.28 385.326C859.107 385.326 857.097 384.973 855.25 384.267C853.431 383.533 851.842 382.515 850.484 381.211C849.153 379.88 848.107 378.332 847.347 376.567C846.586 374.801 846.206 372.86 846.206 370.741C846.206 368.623 846.586 366.681 847.347 364.915C848.107 363.15 849.167 361.615 850.525 360.312C851.883 358.981 853.471 357.962 855.291 357.256C857.138 356.523 859.148 356.156 861.321 356.156C863.521 356.156 865.544 356.536 867.391 357.297C869.265 358.03 870.854 359.13 872.157 360.597L869.509 363.163C868.423 362.023 867.201 361.181 865.843 360.638C864.485 360.067 863.032 359.782 861.484 359.782C859.881 359.782 858.387 360.054 857.002 360.597C855.644 361.14 854.463 361.901 853.458 362.878C852.453 363.856 851.665 365.024 851.095 366.382C850.552 367.713 850.28 369.166 850.28 370.741C850.28 372.316 850.552 373.783 851.095 375.141C851.665 376.472 852.453 377.626 853.458 378.604C854.463 379.582 855.644 380.342 857.002 380.885C858.387 381.428 859.881 381.7 861.484 381.7C863.032 381.7 864.485 381.428 865.843 380.885C867.201 380.315 868.423 379.446 869.509 378.278L872.157 380.845C870.854 382.311 869.265 383.425 867.391 384.185C865.544 384.946 863.507 385.326 861.28 385.326ZM877.969 385V356.482H889.091C891.59 356.482 893.722 356.876 895.487 357.664C897.253 358.451 898.611 359.592 899.561 361.086C900.512 362.58 900.987 364.358 900.987 366.423C900.987 368.487 900.512 370.266 899.561 371.76C898.611 373.226 897.253 374.353 895.487 375.141C893.722 375.929 891.59 376.322 889.091 376.322H880.21L882.043 374.448V385H877.969ZM897.036 385L889.784 374.652H894.143L901.476 385H897.036ZM882.043 374.856L880.21 372.86H888.969C891.576 372.86 893.545 372.303 894.876 371.189C896.234 370.048 896.913 368.46 896.913 366.423C896.913 364.386 896.234 362.81 894.876 361.697C893.545 360.583 891.576 360.026 888.969 360.026H880.21L882.043 357.989V374.856ZM907.569 385V356.482H911.643V385H907.569ZM920.181 385V356.482H931.303C933.802 356.482 935.934 356.876 937.699 357.664C939.465 358.451 940.823 359.592 941.773 361.086C942.724 362.58 943.199 364.358 943.199 366.423C943.199 368.487 942.724 370.266 941.773 371.76C940.823 373.226 939.465 374.367 937.699 375.182C935.934 375.969 933.802 376.363 931.303 376.363H922.422L924.255 374.448V385H920.181ZM924.255 374.856L922.422 372.819H931.181C933.788 372.819 935.757 372.262 937.088 371.148C938.446 370.035 939.125 368.46 939.125 366.423C939.125 364.386 938.446 362.81 937.088 361.697C935.757 360.583 933.788 360.026 931.181 360.026H922.422L924.255 357.989V374.856ZM953.932 385V360.026H944.155V356.482H967.743V360.026H957.965V385H953.932Z" fill="black"/>
<path d="M1130.28 242V213.482H1141.4C1143.9 213.482 1146.03 213.876 1147.8 214.664C1149.56 215.451 1150.92 216.592 1151.87 218.086C1152.82 219.58 1153.3 221.358 1153.3 223.423C1153.3 225.487 1152.82 227.266 1151.87 228.76C1150.92 230.226 1149.56 231.353 1147.8 232.141C1146.03 232.929 1143.9 233.322 1141.4 233.322H1132.52L1134.35 231.448V242H1130.28ZM1149.34 242L1142.09 231.652H1146.45L1153.78 242H1149.34ZM1134.35 231.856L1132.52 229.86H1141.28C1143.88 229.86 1145.85 229.303 1147.18 228.189C1148.54 227.048 1149.22 225.46 1149.22 223.423C1149.22 221.386 1148.54 219.81 1147.18 218.697C1145.85 217.583 1143.88 217.026 1141.28 217.026H1132.52L1134.35 214.989V231.856ZM1163.59 225.786H1178.25V229.248H1163.59V225.786ZM1163.95 238.456H1180.57V242H1159.88V213.482H1180V217.026H1163.95V238.456ZM1182.85 242L1195.77 213.482H1199.8L1212.75 242H1208.48L1196.95 215.764H1198.58L1187.05 242H1182.85ZM1188.35 234.871L1189.45 231.611H1205.5L1206.68 234.871H1188.35ZM1229.36 242.326C1227.19 242.326 1225.18 241.973 1223.33 241.267C1221.51 240.533 1219.92 239.515 1218.57 238.211C1217.24 236.88 1216.19 235.332 1215.43 233.567C1214.67 231.801 1214.29 229.86 1214.29 227.741C1214.29 225.623 1214.67 223.681 1215.43 221.915C1216.19 220.15 1217.25 218.615 1218.61 217.312C1219.97 215.981 1221.55 214.962 1223.37 214.256C1225.22 213.523 1227.23 213.156 1229.4 213.156C1231.6 213.156 1233.63 213.536 1235.47 214.297C1237.35 215.03 1238.94 216.13 1240.24 217.597L1237.59 220.163C1236.51 219.023 1235.28 218.181 1233.93 217.638C1232.57 217.067 1231.11 216.782 1229.57 216.782C1227.96 216.782 1226.47 217.054 1225.09 217.597C1223.73 218.14 1222.55 218.901 1221.54 219.878C1220.54 220.856 1219.75 222.024 1219.18 223.382C1218.63 224.713 1218.36 226.166 1218.36 227.741C1218.36 229.316 1218.63 230.783 1219.18 232.141C1219.75 233.472 1220.54 234.626 1221.54 235.604C1222.55 236.582 1223.73 237.342 1225.09 237.885C1226.47 238.428 1227.96 238.7 1229.57 238.7C1231.11 238.7 1232.57 238.428 1233.93 237.885C1235.28 237.315 1236.51 236.446 1237.59 235.278L1240.24 237.845C1238.94 239.311 1237.35 240.425 1235.47 241.185C1233.63 241.946 1231.59 242.326 1229.36 242.326ZM1251.4 242V217.026H1241.62V213.482H1265.21V217.026H1255.43V242H1251.4ZM1284.25 242.326C1282.57 242.326 1280.99 241.973 1279.53 241.267C1278.06 240.561 1276.86 239.542 1275.94 238.211L1278.3 235.441C1279.09 236.527 1279.97 237.369 1280.95 237.967C1281.96 238.537 1283.06 238.822 1284.25 238.822C1287.51 238.822 1289.14 236.894 1289.14 233.037V217.026H1278.83V213.482H1293.17V232.834C1293.17 236.011 1292.41 238.388 1290.89 239.963C1289.4 241.538 1287.19 242.326 1284.25 242.326ZM1309.78 242.326C1307.61 242.326 1305.53 242 1303.55 241.348C1301.57 240.669 1300.01 239.8 1298.87 238.741L1300.37 235.563C1301.46 236.514 1302.84 237.301 1304.53 237.926C1306.21 238.551 1307.96 238.863 1309.78 238.863C1311.44 238.863 1312.78 238.673 1313.82 238.293C1314.85 237.912 1315.61 237.396 1316.1 236.745C1316.59 236.066 1316.83 235.305 1316.83 234.463C1316.83 233.485 1316.51 232.698 1315.85 232.1C1315.23 231.503 1314.4 231.027 1313.37 230.674C1312.36 230.294 1311.25 229.968 1310.03 229.697C1308.81 229.425 1307.57 229.113 1306.32 228.76C1305.1 228.379 1303.97 227.904 1302.94 227.334C1301.93 226.763 1301.12 226.003 1300.49 225.052C1299.87 224.074 1299.56 222.825 1299.56 221.304C1299.56 219.838 1299.94 218.493 1300.7 217.271C1301.49 216.022 1302.68 215.03 1304.28 214.297C1305.91 213.536 1307.98 213.156 1310.48 213.156C1312.13 213.156 1313.78 213.373 1315.41 213.808C1317.04 214.243 1318.45 214.867 1319.64 215.682L1318.3 218.941C1317.08 218.126 1315.79 217.543 1314.43 217.189C1313.07 216.809 1311.75 216.619 1310.48 216.619C1308.87 216.619 1307.56 216.823 1306.52 217.23C1305.49 217.638 1304.73 218.181 1304.24 218.86C1303.78 219.539 1303.55 220.299 1303.55 221.141C1303.55 222.146 1303.86 222.947 1304.49 223.545C1305.14 224.142 1305.97 224.618 1306.97 224.971C1308 225.324 1309.13 225.65 1310.35 225.949C1311.58 226.22 1312.8 226.532 1314.02 226.886C1315.27 227.239 1316.4 227.7 1317.4 228.271C1318.43 228.841 1319.26 229.602 1319.89 230.552C1320.51 231.503 1320.82 232.725 1320.82 234.219C1320.82 235.658 1320.43 237.003 1319.64 238.252C1318.85 239.474 1317.63 240.465 1315.98 241.226C1314.35 241.959 1312.28 242.326 1309.78 242.326Z" fill="black"/>
<line x1="186.675" y1="198.989" x2="368.989" y2="108.325" stroke="#404CDC" stroke-width="3" stroke-linecap="round" stroke-dasharray="4 4"/>
<line x1="938.675" y1="221.989" x2="1120.99" y2="131.325" stroke="#404CDC" stroke-width="3" stroke-linecap="round" stroke-dasharray="4 4"/>
<line x1="560.609" y1="107.629" x2="756.609" y2="194.629" stroke="#404CDC" stroke-width="3" stroke-dasharray="6 6"/>
<circle cx="94.6646" cy="236.665" r="91.6646" fill="white" stroke="#404CDC" stroke-width="4.07398"/>
<path d="M67.9686 265.94L62 199H127.583L121.606 265.93L94.7516 273.375L67.9686 265.94Z" fill="#E44F26"/>
<path d="M94.791 267.685L116.493 261.669L121.598 204.475H94.791V267.685Z" fill="#F1662A"/>
<path d="M94.791 229.299H83.927L83.1779 220.892H94.791V212.682H74.2051L74.4016 214.886L76.4177 237.51H94.791V229.299V229.299ZM94.791 250.621L94.7538 250.631L85.611 248.164L85.0266 241.616H76.7843L77.9345 254.504L94.7538 259.174L94.791 259.163V250.621Z" fill="#EBEBEB"/>
<path d="M94.7617 229.299V237.51H104.871L103.92 248.159L94.7617 250.629V259.171L111.594 254.504L111.717 253.118L113.645 231.504L113.847 229.299H94.7617V229.299ZM94.7617 212.682V220.892H114.593L114.758 219.049L115.133 214.886L115.329 212.682H94.7617V212.682Z" fill="white"/>
<circle cx="467.665" cy="94.6646" r="91.6646" fill="white" stroke="#404CDC" stroke-width="4.07398"/>
<path d="M440.966 123.94L435 57H500.577L494.604 123.93L467.749 131.375L440.966 123.94Z" fill="#1572B6"/>
<path d="M467.789 125.685L489.491 119.669L494.596 62.4746H467.789V125.685Z" fill="#33A9DC"/>
<path d="M467.789 86.7269H478.653L479.402 78.3198H467.789V70.1094H488.375L488.178 72.3114L486.162 94.9373H467.789V86.7269V86.7269Z" fill="white"/>
<path d="M467.839 108.048L467.802 108.059L458.659 105.589L458.074 99.041H449.832L450.982 111.932L467.799 116.601L467.839 116.591V108.048V108.048Z" fill="#EBEBEB"/>
<path d="M477.955 94.5879L476.967 105.582L467.811 108.052V116.595L484.641 111.931L484.765 110.544L486.192 94.5879H477.955V94.5879Z" fill="white"/>
<path d="M467.817 70.1094V78.3198H447.986L447.821 76.4738L447.447 72.3114L447.25 70.1094H467.817V70.1094ZM467.788 86.7269V94.9373H458.76L458.595 93.0913L458.223 88.9289L458.026 86.7269H467.788V86.7269Z" fill="#EBEBEB"/>
<path d="M798 194H883V279H798V194Z" fill="#F7DF1E"/>
<path d="M820.35 265.032L826.854 261.096C828.11 263.32 829.251 265.203 831.989 265.203C834.614 265.203 836.269 264.176 836.269 260.183V233.023H844.257V260.296C844.257 268.569 839.407 272.335 832.332 272.335C825.942 272.335 822.233 269.025 820.35 265.031L820.35 265.032ZM848.596 264.176L855.099 260.411C856.812 263.207 859.037 265.261 862.973 265.261C866.283 265.261 868.394 263.606 868.394 261.323C868.394 258.585 866.226 257.615 862.574 256.017L860.578 255.161C854.814 252.708 850.992 249.627 850.992 243.122C850.992 237.131 855.556 232.566 862.689 232.566C867.767 232.566 871.418 234.335 874.043 238.957L867.823 242.951C866.453 240.498 864.971 239.528 862.688 239.528C860.349 239.528 858.865 241.012 858.865 242.951C858.865 245.348 860.349 246.318 863.772 247.802L865.769 248.657C872.559 251.568 876.382 254.534 876.382 261.209C876.382 268.399 870.733 272.336 863.144 272.336C855.727 272.336 850.934 268.798 848.595 264.176" fill="black"/>
<circle cx="1214.66" cy="95.6646" r="91.6646" fill="white" stroke="#404CDC" stroke-width="4.07398"/>
<path d="M1214.19 102.668C1217.86 102.668 1220.83 99.6949 1220.83 96.0273C1220.83 92.3598 1217.86 89.3867 1214.19 89.3867C1210.52 89.3867 1207.55 92.3598 1207.55 96.0273C1207.55 99.6949 1210.52 102.668 1214.19 102.668Z" fill="#00D8FF"/>
<path d="M1214.19 111.248C1206.21 111.441 1198.24 110.365 1190.6 108.061C1187.07 106.941 1183.78 105.178 1180.89 102.86C1179.78 102.068 1178.87 101.047 1178.19 99.8665C1177.52 98.6864 1177.12 97.375 1177 96.0226C1177 91.6318 1181.82 87.3287 1189.9 84.513C1197.75 82.0181 1205.95 80.809 1214.19 80.9324C1222.31 80.8189 1230.4 82.0062 1238.15 84.4493C1241.55 85.5334 1244.73 87.2116 1247.55 89.4058C1248.63 90.1609 1249.54 91.1449 1250.2 92.2884C1250.86 93.4318 1251.26 94.7067 1251.38 96.0226C1251.38 100.586 1245.98 105.211 1237.3 108.085C1229.8 110.314 1222.01 111.381 1214.19 111.248V111.248ZM1214.19 84.1093C1206.31 84.004 1198.46 85.1535 1190.95 87.5146C1183.51 90.1097 1180.18 93.6585 1180.18 96.0146C1180.18 98.4796 1183.76 102.355 1191.63 105.046C1198.94 107.24 1206.56 108.261 1214.19 108.071C1221.67 108.205 1229.13 107.193 1236.3 105.07C1244.47 102.363 1248.19 98.4822 1248.19 96.0226C1248.05 95.1785 1247.75 94.3714 1247.28 93.6522C1246.82 92.933 1246.22 92.3174 1245.5 91.8443C1242.99 89.8976 1240.14 88.4104 1237.11 87.4508C1229.69 85.1233 1221.96 83.9952 1214.19 84.1093V84.1093Z" fill="#00D8FF"/>
<path d="M1199.1 129.145C1197.86 129.173 1196.63 128.872 1195.55 128.273C1191.75 126.079 1190.43 119.752 1192.02 111.345C1193.78 103.299 1196.83 95.5916 1201.06 88.5198C1205.02 81.4253 1210.08 75.0099 1216.07 69.517C1218.71 67.1123 1221.75 65.1941 1225.06 63.8512C1226.26 63.2906 1227.56 63 1228.88 63C1230.2 63 1231.51 63.2906 1232.7 63.8512C1236.66 66.1303 1237.97 73.1109 1236.12 82.0705C1234.31 89.6795 1231.34 96.9652 1227.32 103.674C1223.49 110.685 1218.59 117.044 1212.77 122.515C1210.04 125.013 1206.86 126.985 1203.41 128.329C1202.03 128.842 1200.57 129.118 1199.1 129.145V129.145ZM1203.81 90.0977C1199.78 96.8693 1196.86 104.239 1195.15 111.929C1193.68 119.672 1195.09 124.329 1197.14 125.513C1199.27 126.743 1204.42 125.577 1210.69 120.105C1216.24 114.864 1220.93 108.777 1224.57 102.069C1228.43 95.6559 1231.27 88.6902 1233.02 81.4144C1234.76 72.9808 1233.26 67.817 1231.13 66.5898C1230.33 66.2839 1229.48 66.147 1228.62 66.1877C1227.77 66.2283 1226.93 66.4458 1226.17 66.8262C1223.22 68.0411 1220.51 69.7657 1218.17 71.9209C1212.45 77.1824 1207.61 83.324 1203.83 90.1136L1203.81 90.0977Z" fill="#00D8FF"/>
<path d="M1229.27 129.181C1225.67 129.181 1221.1 127.003 1216.34 122.909C1210.24 117.366 1205.09 110.875 1201.07 103.686C1196.9 96.7117 1193.88 89.1153 1192.11 81.185C1191.34 77.6959 1191.2 74.0986 1191.69 70.56C1191.8 69.2473 1192.2 67.9754 1192.86 66.8339C1193.52 65.6925 1194.42 64.7094 1195.5 63.9539C1199.45 61.6668 1206.15 64.0176 1212.99 70.0898C1218.68 75.4612 1223.5 81.6729 1227.31 88.5082C1231.47 95.3198 1234.53 102.75 1236.36 110.521C1237.16 114.138 1237.29 117.871 1236.73 121.533C1236.6 122.884 1236.17 124.19 1235.49 125.361C1234.8 126.532 1233.87 127.542 1232.76 128.32C1231.69 128.912 1230.49 129.209 1229.27 129.181V129.181ZM1203.82 102.087C1207.68 108.957 1212.6 115.17 1218.41 120.492C1224.38 125.632 1229.12 126.737 1231.16 125.539C1233.28 124.304 1234.85 119.262 1233.24 111.105C1231.47 103.686 1228.53 96.5936 1224.55 90.0914C1220.92 83.5493 1216.31 77.6013 1210.88 72.4539C1204.44 66.7376 1199.22 65.46 1197.09 66.6925C1196.43 67.2314 1195.88 67.9019 1195.49 68.6618C1195.1 69.4216 1194.87 70.2543 1194.82 71.1071C1194.4 74.263 1194.54 77.4686 1195.23 80.5767C1196.93 88.1606 1199.83 95.4241 1203.82 102.092L1203.82 102.087Z" fill="#00D8FF"/>
</svg>
