<svg width="152" height="131" viewBox="0 0 152 131" fill="none" xmlns="http://www.w3.org/2000/svg">
<path d="M114.001 0H37.9987L0 65.5L37.9987 131H114.001L152 65.5L114.001 0Z" fill="#142357"/>
<path d="M92.3942 53.579C92.3942 56.7168 91.4457 59.3782 89.5538 61.5736C87.6567 63.7587 84.9977 65.2603 81.5715 66.0887V66.2958C85.6041 66.7929 88.6622 68.0253 90.7356 69.9825C92.8192 71.9294 93.8663 74.5597 93.8663 77.8736C93.8663 82.6941 92.1143 86.4429 88.6208 89.1199C85.1221 91.802 80.1305 93.1379 73.6514 93.1379C68.2038 93.1379 63.3782 92.237 59.1797 90.4247V81.4359C61.1131 82.4197 63.2486 83.2171 65.5862 83.8385C67.9187 84.4494 70.2305 84.7498 72.5111 84.7498C76.0046 84.7498 78.5859 84.1595 80.2446 82.9686C81.9136 81.7828 82.7533 79.8774 82.7533 77.2522C82.7533 74.9066 81.7892 73.2445 79.8714 72.2607C77.9639 71.2666 74.9006 70.7695 70.6866 70.7695H66.8924V62.6713H70.7695C74.6518 62.6713 77.4871 62.1639 79.2701 61.1387C81.0635 60.1187 81.9654 58.3789 81.9654 55.9194C81.9654 52.124 79.5915 50.2238 74.854 50.2238C73.1953 50.2238 71.5159 50.5034 69.8158 51.0522C68.1157 51.6062 66.229 52.5538 64.1556 53.8897L59.2419 46.5992C63.8135 43.3165 69.2664 41.6699 75.6004 41.6699C80.7836 41.6699 84.8733 42.721 87.8744 44.8181C90.8859 46.9203 92.3942 49.8406 92.3942 53.579Z" fill="white"/>
</svg>
