<svg width="152" height="131" viewBox="0 0 152 131" fill="none" xmlns="http://www.w3.org/2000/svg">
<path d="M113.996 0H37.9987L0 65.5L37.9987 131H113.996L152 65.5L113.996 0Z" fill="#E75825"/>
<path d="M59.1719 71.0556C59.1719 61.2125 61.0845 53.8547 64.915 48.9772C68.7402 44.1048 74.4107 41.666 81.9162 41.666C84.4871 41.666 86.5189 41.8887 88.0117 42.3288V47.2167C86.2546 46.6523 84.2435 46.3675 81.9784 46.3675C76.5981 46.3675 72.4929 48.04 69.6629 51.3797C66.8276 54.7246 65.2778 59.9749 65.0186 67.1411H65.4126C67.9265 63.2215 71.9072 61.2591 77.3549 61.2591C81.8436 61.2591 85.389 62.6208 87.991 65.3392C90.5878 68.0472 91.8888 71.7339 91.8888 76.3991C91.8888 81.6081 90.4634 85.6986 87.6178 88.681C84.767 91.6531 80.9261 93.134 76.0901 93.134C70.8913 93.134 66.7706 91.1871 63.7332 87.2934C60.6906 83.3996 59.1719 77.9887 59.1719 71.0556ZM76.0072 88.3082C79.2519 88.3082 81.7762 87.2882 83.5748 85.2429C85.3682 83.2029 86.2701 80.2515 86.2701 76.3991C86.2701 73.0853 85.4304 70.486 83.7614 68.5909C82.0872 66.6855 79.594 65.7327 76.2767 65.7327C74.2293 65.7327 72.3478 66.1625 70.6373 67.0168C68.9216 67.8608 67.5533 69.0259 66.5321 70.5171C65.5214 71.9979 65.0186 73.5306 65.0186 75.115C65.0186 77.4761 65.4748 79.6715 66.387 81.7013C67.2993 83.731 68.5899 85.3413 70.2641 86.527C71.9487 87.7179 73.8613 88.3082 76.0072 88.3082Z" fill="white"/>
</svg>
