<svg width="36" height="44" viewBox="0 0 36 44" fill="none" xmlns="http://www.w3.org/2000/svg">
<path d="M29.4998 23.126C29.4796 19.6572 31.0394 17.0428 34.1893 15.1151C32.4276 12.572 29.7623 11.1733 26.249 10.9037C22.9224 10.6392 19.2829 12.8568 17.9503 12.8568C16.5419 12.8568 13.3214 10.9953 10.7873 10.9953C5.55772 11.0766 8.19734e-07 15.1965 1.29575e-06 23.5787C1.43641e-06 26.0557 0.449263 28.614 1.34779 31.2487C2.54918 34.7176 6.88026 43.2167 11.3981 43.0794C13.7605 43.0234 15.4314 41.3907 18.5055 41.3907C21.4888 41.3907 23.0335 43.0794 25.6685 43.0794C30.2267 43.0132 34.1439 35.2872 35.2847 31.8082C29.1717 28.904 29.4998 23.304 29.4998 23.126V23.126ZM24.1945 7.6129C26.7538 4.55098 26.5216 1.76371 26.4459 0.761717C24.1844 0.89396 21.5696 2.31303 20.0805 4.05761C18.4399 5.92935 17.4758 8.2436 17.6827 10.8528C20.1259 11.041 22.3571 9.77456 24.1945 7.6129V7.6129Z" fill="black"/>
</svg>
