<svg width="44" height="44" viewBox="0 0 44 44" fill="none" xmlns="http://www.w3.org/2000/svg">
<circle cx="22" cy="22" r="22" fill="#3C9612"/>
<path d="M18.0419 10.1331C18.7229 9.92687 19.4536 9.96113 20.1125 10.2301C20.7714 10.4991 21.3187 10.9867 21.6632 11.6116L21.7784 11.8444L22.8086 14.1435C23.1213 14.8413 23.2228 15.616 23.1005 16.3713C22.9782 17.1266 22.6375 17.8291 22.1208 18.3914L21.9138 18.5977L20.2907 20.1185C19.9981 20.3967 20.2175 21.4735 21.2757 23.3146C22.2281 24.9713 23.0031 25.7449 23.3844 25.7871H23.4513L23.5338 25.7715L26.724 24.7915C27.1528 24.6595 27.6103 24.6543 28.042 24.7765C28.4736 24.8987 28.8611 25.1432 29.158 25.4808L29.2996 25.6605L31.4114 28.5988C31.8252 29.1747 32.0315 29.875 31.9961 30.5843C31.9607 31.2937 31.6859 31.9698 31.2168 32.5013L31.027 32.6983L30.1835 33.5016C29.4261 34.222 28.4786 34.7088 27.4537 34.9041C26.4289 35.0994 25.3697 34.9951 24.4022 34.6034C21.3909 33.3844 18.6551 30.5993 16.1698 26.2763C13.6799 21.9424 12.645 18.1648 13.1072 14.9296C13.247 13.9517 13.648 13.03 14.2675 12.2625C14.8871 11.495 15.702 10.9104 16.6258 10.5707L16.9261 10.4707L18.0419 10.1331Z" fill="white"/>
</svg>
