<svg width="157" height="78" viewBox="0 0 157 78" fill="none" xmlns="http://www.w3.org/2000/svg">
<path d="M98.9366 38.8991C98.9356 38.9078 98.9375 38.9166 98.9418 38.9236L98.3689 39.1411C98.3662 39.138 98.364 39.1344 98.3626 39.1304C98.3611 39.1263 98.3604 39.122 98.3604 39.1176C98.3604 39.1132 98.3611 39.1088 98.3626 39.1048C98.364 39.1007 98.3662 39.0971 98.3689 39.0941C98.5494 38.9923 98.7292 38.8892 98.9366 38.8991Z" fill="#BAA3C2"/>
<path d="M98.3617 39.1187C98.3639 39.1255 98.3662 39.1323 98.3688 39.1394L98.2366 39.1895C98.2341 39.1825 98.2317 39.1754 98.2295 39.1688C98.2344 39.1542 98.242 39.141 98.2517 39.1302C98.2614 39.1195 98.273 39.1114 98.2856 39.1066C98.2983 39.1018 98.3117 39.1004 98.3248 39.1025C98.338 39.1046 98.3506 39.1101 98.3617 39.1187Z" fill="white"/>
<path d="M98.3618 39.1188L98.2295 39.1681C96.675 39.6509 95.1775 39.4607 93.7328 38.6359C92.5405 37.9552 91.5506 36.9656 90.6758 35.8045C90.1263 35.0887 89.6432 34.3048 89.2349 33.4665C89.2195 33.4349 89.2027 33.4042 89.1845 33.3747C89.038 33.1366 88.8959 33.1425 88.7632 33.3919C88.741 33.4395 88.7113 33.4816 88.6759 33.5161C88.1193 34.0327 87.4843 34.4176 86.8053 34.6499C86.1455 34.8613 85.4863 34.9054 84.8295 34.6204C84.6738 34.5409 84.4982 34.5355 84.3392 34.6054C84.1802 34.6752 84.05 34.815 83.9756 34.9957C83.8035 35.3647 83.5254 35.6289 83.2366 35.8682C82.6247 36.3802 81.9449 36.7673 81.2253 37.0134C80.5781 37.2226 79.9109 37.3333 79.2401 37.3428C78.2251 37.3707 77.2447 37.1804 76.32 36.666C75.2348 36.0716 74.3333 35.0899 73.7414 33.858C73.6234 33.6172 73.5896 33.3527 73.5469 33.0894C73.404 32.2651 73.3779 31.4183 73.4696 30.5838C73.6764 28.8424 74.4219 27.497 75.6126 26.4763C76.1873 25.9836 76.8315 25.6687 77.4937 25.3872C78.411 24.9978 79.3338 24.621 80.2317 24.1758C81.7474 23.4233 83.0781 22.3587 84.0287 20.7253C84.6999 19.5714 85.0684 18.2965 85.0484 16.8815C85.0464 16.75 85.0253 16.6189 85.015 16.4874C84.9758 15.9922 85.1474 15.5992 85.4398 15.2676C85.7115 14.959 86.0431 14.7706 86.383 14.5919C86.9538 14.2805 87.5486 14.0351 88.1591 13.859C89.6499 13.4558 91.09 13.6077 92.4635 14.4285C93.8131 15.2352 94.8457 16.4496 95.6468 17.9552C95.6899 18.0358 95.7326 18.1175 95.7705 18.2018C95.8268 18.3201 95.8528 18.4553 95.8453 18.5909C95.8377 18.7264 95.797 18.8564 95.728 18.9649C95.6486 19.1061 95.5446 19.2254 95.423 19.3149C94.8518 19.7335 94.5106 20.3632 94.2795 21.0862C94.0234 21.8869 94.0034 22.7176 94.1004 23.5565C94.1795 24.2271 94.3376 24.8811 94.5701 25.4995C94.7728 26.0441 95.2111 26.2456 95.6916 26.1104C95.7752 26.086 95.8493 26.0284 95.9017 25.9473C95.954 25.8662 95.9815 25.7663 95.9796 25.6642C95.9934 25.3883 95.9316 25.1146 95.8036 24.8838C95.4322 24.2044 95.1963 23.4718 95.2504 22.651C95.2759 22.1309 95.399 21.624 95.6107 21.1676C95.8225 20.7111 96.1176 20.3165 96.4744 20.0127C97.2286 19.3493 98.0654 18.9158 99.018 18.8751C100.104 18.8289 101.05 19.2658 101.875 20.0884C102.013 20.2262 102.067 20.4389 102.144 20.6261C102.944 22.5825 102.936 24.5623 102.249 26.5554C101.717 28.0973 100.89 29.4038 99.9236 30.5942C99.4145 31.2232 98.865 31.8043 98.2801 32.3325C98.1937 32.4088 98.104 32.4796 98.0112 32.5446C97.5399 32.882 97.2606 33.3772 97.239 34.0307C97.2108 34.8834 97.3759 35.6744 97.9072 36.299C98.2365 36.6858 98.6447 36.9235 99.0768 37.1066C99.3561 37.2253 99.644 37.3132 99.9369 37.3692C100.052 37.3879 100.162 37.4354 100.261 37.5085C100.291 37.5274 100.317 37.5533 100.339 37.5846C100.36 37.6158 100.376 37.652 100.386 37.6907C100.395 37.7295 100.398 37.7701 100.394 37.8101C100.39 37.8501 100.379 37.8888 100.362 37.9237C100.302 38.0735 100.203 38.1957 100.079 38.2713C99.7112 38.5113 99.3296 38.7203 98.9371 38.8967L98.3618 39.1188Z" fill="url(#paint0_linear_140_168)"/>
<path d="M59.803 29.5508C59.4564 28.1508 59.2675 26.7282 59.3693 25.2654C59.4547 24.0406 59.7302 22.8862 60.305 21.8486C60.4065 21.6707 60.5173 21.5007 60.6367 21.3393C60.8315 21.069 60.9791 20.7662 60.951 20.3971C60.7571 17.8707 61.4156 15.633 62.6049 13.5832C63.232 12.4772 64.0293 11.5212 64.9551 10.7656C66.1579 9.79999 67.4906 9.49537 68.9189 9.71746C69.9083 9.88655 70.868 10.2454 71.7602 10.78C72.9375 11.4654 74.0332 12.3325 75.0188 13.3588C75.0741 13.4156 75.1273 13.4755 75.1787 13.5368C75.5104 13.9334 75.9142 13.9828 76.2892 13.6221C77.0595 12.8808 77.9385 12.4003 78.8816 12.0822C79.9029 11.738 80.9197 11.7372 81.9076 12.2662C82.2854 12.4654 82.6289 12.7454 82.9212 13.0923C83.1581 13.3754 83.3052 13.7307 83.4512 14.0819C83.8653 15.0458 84.0164 16.1385 83.8835 17.2088C83.7605 18.1335 83.4683 19.015 83.0272 19.7913C82.3435 21.0514 81.4386 22.1215 80.3742 22.9286C79.9443 23.2438 79.4584 23.4357 78.9551 23.4891C77.4381 23.6906 76.0958 24.4029 74.9137 25.5413C74.1507 26.2712 73.499 27.1512 72.9872 28.1429C72.9465 28.2205 72.9102 28.3012 72.8785 28.3845C72.7476 28.7358 72.5263 28.8658 72.213 28.7441C71.9754 28.652 71.7476 28.5255 71.5122 28.4252C70.1908 27.8623 68.8337 27.5555 67.4245 27.6493C65.2772 27.7918 63.4327 28.7747 61.8587 30.4959C61.5714 30.8071 61.3085 31.1485 61.0731 31.5159C61.0143 31.6123 60.9426 31.6966 60.8608 31.7654C60.6856 31.9077 60.5338 31.8605 60.4496 31.6324C60.1984 30.9548 59.9825 30.2597 59.803 29.5508Z" fill="url(#paint1_linear_140_168)"/>
<path d="M73.4588 2.83585C74.724 2.35899 76.0536 2.1693 77.378 2.27674C77.4434 2.27522 77.5083 2.29118 77.5678 2.32343C77.9947 2.60423 78.4129 2.55443 78.794 2.22113C79.0336 2.02351 79.2891 1.85438 79.5567 1.71617C80.3015 1.2967 81.071 0.941798 81.8591 0.65426C83.2943 0.135109 84.7539 -0.127884 86.2571 0.0612844C87.2103 0.173425 88.1376 0.495341 88.9914 1.01054C90.1032 1.68832 91.0413 2.61324 91.7341 3.85687C92.0208 4.37177 92.1746 4.96184 92.2963 5.55907C92.3905 5.99843 92.4126 6.4552 92.3614 6.90447C92.2428 7.87537 91.7841 8.55335 91.0695 9.01296C90.8561 9.15026 90.6203 9.1983 90.3918 9.27844C89.3336 9.64932 88.6388 10.5682 88.5456 11.8612C88.5375 11.9736 88.5565 12.0889 88.5538 12.202C88.5561 12.2561 88.5494 12.3101 88.5341 12.3611C88.5188 12.4121 88.4951 12.4589 88.4645 12.499C88.4338 12.5391 88.3968 12.5716 88.3555 12.5947C88.3143 12.6178 88.2696 12.6309 88.224 12.6335C87.613 12.7073 87.052 12.9714 86.4993 13.2666C86.2043 13.4243 85.925 13.6186 85.6372 13.7923C85.371 13.9531 85.0916 14.0201 84.8069 13.8385C84.7068 13.7694 84.6213 13.6743 84.5565 13.5605C84.0708 12.757 83.4711 12.0598 82.7841 11.5C82.2542 11.067 81.6564 10.7645 81.0262 10.6105C80.396 10.4565 79.7461 10.4541 79.1151 10.6035C78.1337 10.8174 77.2089 11.3035 76.4161 12.0221C76.3124 12.1192 76.1875 12.1792 76.056 12.1949C75.9245 12.2106 75.792 12.1813 75.6741 12.1105C75.5394 12.0413 75.4156 11.9453 75.3082 11.8266C74.0614 10.4407 72.5857 9.54506 70.9586 8.97579C70.2502 8.72295 69.5226 8.55364 68.7861 8.47031C68.6747 8.45909 68.5651 8.42957 68.4605 8.38261C68.1927 8.26095 68.1126 8.00811 68.2585 7.71446C68.3483 7.53358 68.4463 7.35797 68.5458 7.18413C69.7187 5.11382 71.4517 3.57995 73.4588 2.83585Z" fill="url(#paint2_linear_140_168)"/>
<path d="M101.381 13.0863C101.777 14.6125 101.983 16.1987 101.994 17.7953C101.999 17.9276 101.988 18.0601 101.962 18.1888C101.905 18.4308 101.767 18.5187 101.565 18.4401C101.521 18.4242 101.478 18.4012 101.439 18.372C100.927 17.9643 100.346 17.8424 99.7464 17.8244C98.8634 17.8068 97.9836 17.9545 97.1394 18.2619C96.867 18.3575 96.654 18.2473 96.5972 17.9219C96.5382 17.6385 96.4447 17.3668 96.3197 17.1154C95.7459 15.8373 95.0008 14.7282 94.0127 13.8642C93.2151 13.1439 92.2842 12.6597 91.2972 12.4517C91.2137 12.4348 91.1286 12.4324 91.0446 12.4445C90.9681 12.4542 90.891 12.4546 90.8144 12.4458C90.47 12.4108 90.2776 12.1369 90.2907 11.7101C90.305 11.2518 90.5012 10.9086 90.7795 10.6176C91.0407 10.3535 91.3379 10.144 91.6585 9.99834C91.6912 9.98572 91.7224 9.96833 91.7515 9.94657C92.454 9.32077 93.0038 8.55313 93.2912 7.55479C93.5657 6.64356 93.5762 5.64976 93.3211 4.73063C93.2998 4.65729 93.2851 4.58144 93.2775 4.50439C93.2563 4.24782 93.3571 4.12989 93.5765 4.14366C93.7649 4.15536 93.9332 4.253 94.1089 4.31647C95.7969 4.92218 97.2988 5.90819 98.5606 7.38416C99.3704 8.33755 100.044 9.44073 100.556 10.6505C100.887 11.4343 101.163 12.249 101.381 13.0863Z" fill="url(#paint3_linear_140_168)"/>
<path d="M65.4687 29.3525C66.6213 28.9199 67.842 28.8055 69.0376 29.0179C70.0493 29.1894 71.0328 29.5447 71.9535 30.0712C72.3955 30.3223 72.4839 30.6574 72.4351 30.9761C72.3902 31.2628 72.3717 31.5544 72.3799 31.8458C72.4159 32.5889 72.5016 33.3274 72.6362 34.0543C72.6763 34.2968 72.7649 34.5244 72.7846 34.7716C72.8007 34.8759 72.7904 34.9836 72.7549 35.0811C72.7195 35.1785 72.6606 35.2613 72.5855 35.3191C71.7766 35.9422 70.8905 36.4114 69.9594 36.7098C68.232 37.2462 66.5414 37.0852 64.8908 36.2957C63.836 35.7972 62.8665 35.0751 62.0299 34.1645C61.9229 34.0683 61.8253 33.9579 61.7392 33.8357C61.669 33.712 61.6243 33.5705 61.6087 33.4225C61.5931 33.2746 61.6071 33.1244 61.6495 32.984C61.73 32.6723 61.8668 32.3852 62.0503 32.1426C62.7398 31.1805 63.5826 30.3895 64.5306 29.8151C64.835 29.6382 65.1483 29.4837 65.4687 29.3525Z" fill="url(#paint4_linear_140_168)"/>
<path d="M10.6378 69.5663C14.7054 69.5663 18.0336 66.8344 19.4328 62.4945H18.2859C16.8867 66.1543 14.0449 68.2779 10.638 68.2779C5.80602 68.2779 2.12975 63.8244 2.12975 57.9997C2.12984 52.144 5.77128 47.7218 10.6378 47.7218C14.0706 47.7218 16.9299 49.8764 18.2422 53.4433H19.372C18.0513 49.2163 14.7926 46.4328 10.6378 46.4328C5.15425 46.4328 1 51.3605 1 57.9996C1 64.5767 5.18026 69.5663 10.6378 69.5663ZM41.1861 57.845C41.1861 51.4225 37.3535 46.4328 31.9565 46.4328C26.603 46.4328 22.5443 51.4225 22.5443 57.9687C22.5443 64.5768 26.6032 69.5663 31.9565 69.5663C35.7978 69.5663 38.8222 67.1849 40.5951 62.783H39.4132C37.9097 66.2262 35.2677 68.2674 31.9566 68.2674C27.3108 68.2674 23.8147 64.0985 23.6457 58.4017H41.1687C41.1775 58.2264 41.1861 58.0202 41.1861 57.845ZM31.9566 47.7011C36.3677 47.7011 39.8037 51.5167 40.0904 57.1543H23.6627C23.9738 51.6741 27.4158 47.7011 31.9566 47.7011ZM53.9529 46.8042C50.7825 46.8042 48.4534 48.7853 47.2856 51.9105L47.1045 46.8662H46.2267V69.1333H47.3391V56.5976C47.3391 51.6699 49.9638 48.072 53.8833 48.072H55.5693V46.8039L53.9529 46.8042ZM69.0661 46.4332C65.2598 46.4332 62.111 48.8471 60.5495 52.5374V39H59.4371V69.1333H60.3671L60.5284 63.4075C62.0826 67.1254 65.2429 69.5665 69.0665 69.5665C74.6547 69.5665 78.609 64.5769 78.609 57.9997C78.609 51.4123 74.6544 46.4332 69.0661 46.4332ZM69.0057 68.2777C64.1563 68.2777 60.4974 63.8242 60.4974 57.9995C60.4974 52.1337 64.1562 47.7214 69.0057 47.7214C73.9073 47.7214 77.4792 52.0615 77.4792 57.9995C77.4792 63.9376 73.9073 68.2777 69.0057 68.2777ZM91.9055 69.5663C97.5023 69.5663 101.674 64.618 101.674 57.9995C101.674 51.381 97.5023 46.4328 91.9055 46.4328C86.3347 46.4328 82.137 51.3399 82.137 57.9996C82.137 64.618 86.3347 69.5663 91.9055 69.5663ZM91.9055 68.2777C86.9691 68.2777 83.2669 63.886 83.2669 57.9995C83.2669 52.0821 86.943 47.7214 91.9055 47.7214C96.8679 47.7214 100.544 52.1131 100.544 57.9995C100.544 63.886 96.8679 68.2777 91.9055 68.2777ZM112.242 69.5663C116.492 69.5663 119.325 67.0303 119.325 63.1953C119.325 58.2572 115.605 57.4635 112.32 56.814C109.261 56.2058 106.549 55.6697 106.549 52.3296C106.549 49.5255 108.757 47.6495 112.103 47.6495C115.501 47.6495 117.578 49.5154 117.76 52.6598H118.83C118.647 48.8145 116.11 46.4331 112.121 46.4331C108.158 46.4331 105.464 48.8248 105.464 52.3607C105.464 56.7318 108.818 57.4225 112.068 58.0823C115.162 58.7008 118.222 59.3812 118.222 63.2368C118.222 66.3192 115.849 68.3192 112.269 68.3192C108.723 68.3192 106.48 66.4017 106.185 63.0719H105.09C105.385 67.1127 108.018 69.5663 112.242 69.5663ZM138.523 46.8659L130.85 66.4172L122.732 46.8659H121.498L130.263 67.8949L129.128 70.7311C127.503 74.834 126.225 75.7722 123.644 75.7722H122.245V76.999H123.714C126.703 76.999 128.329 75.7103 130.145 71.0919L139.713 46.8659H138.523ZM148.917 69.5663C153.167 69.5663 156 67.0303 156 63.1953C156 58.2572 152.28 57.4635 148.995 56.814C145.936 56.2058 143.225 55.6697 143.225 52.3296C143.225 49.5255 145.432 47.6495 148.778 47.6495C152.176 47.6495 154.253 49.5154 154.436 52.6598H155.505C155.322 48.8143 152.785 46.4328 148.796 46.4328C144.833 46.4328 142.138 48.8246 142.138 52.3605C142.138 56.7316 145.493 57.4223 148.743 58.0821C151.837 58.7006 154.896 59.381 154.896 63.2366C154.896 66.319 152.524 68.319 148.943 68.319C145.398 68.319 143.155 66.4015 142.86 63.0717H141.765C142.06 67.1127 144.693 69.5663 148.917 69.5663Z" fill="white"/>
<path d="M10.6378 69.5663C14.7054 69.5663 18.0336 66.8344 19.4328 62.4945H18.2859C16.8867 66.1543 14.0449 68.2779 10.638 68.2779C5.80602 68.2779 2.12975 63.8244 2.12975 57.9997C2.12984 52.144 5.77128 47.7218 10.6378 47.7218C14.0706 47.7218 16.9299 49.8764 18.2422 53.4433H19.372C18.0513 49.2163 14.7926 46.4328 10.6378 46.4328C5.15425 46.4328 1 51.3605 1 57.9996C1 64.5767 5.18026 69.5663 10.6378 69.5663ZM41.1861 57.845C41.1861 51.4225 37.3535 46.4328 31.9565 46.4328C26.603 46.4328 22.5443 51.4225 22.5443 57.9687C22.5443 64.5768 26.6032 69.5663 31.9565 69.5663C35.7978 69.5663 38.8222 67.1849 40.5951 62.783H39.4132C37.9097 66.2262 35.2677 68.2674 31.9566 68.2674C27.3108 68.2674 23.8147 64.0985 23.6457 58.4017H41.1687C41.1775 58.2264 41.1861 58.0202 41.1861 57.845ZM31.9566 47.7011C36.3677 47.7011 39.8037 51.5167 40.0904 57.1543H23.6627C23.9738 51.6741 27.4158 47.7011 31.9566 47.7011ZM53.9529 46.8042C50.7825 46.8042 48.4534 48.7853 47.2856 51.9105L47.1045 46.8662H46.2267V69.1333H47.3391V56.5976C47.3391 51.6699 49.9638 48.072 53.8833 48.072H55.5693V46.8039L53.9529 46.8042ZM69.0661 46.4332C65.2598 46.4332 62.111 48.8471 60.5495 52.5374V39H59.4371V69.1333H60.3671L60.5284 63.4075C62.0826 67.1254 65.2429 69.5665 69.0665 69.5665C74.6547 69.5665 78.609 64.5769 78.609 57.9997C78.609 51.4123 74.6544 46.4332 69.0661 46.4332ZM69.0057 68.2777C64.1563 68.2777 60.4974 63.8242 60.4974 57.9995C60.4974 52.1337 64.1562 47.7214 69.0057 47.7214C73.9073 47.7214 77.4792 52.0615 77.4792 57.9995C77.4792 63.9376 73.9073 68.2777 69.0057 68.2777ZM91.9055 69.5663C97.5023 69.5663 101.674 64.618 101.674 57.9995C101.674 51.381 97.5023 46.4328 91.9055 46.4328C86.3347 46.4328 82.137 51.3399 82.137 57.9996C82.137 64.618 86.3347 69.5663 91.9055 69.5663ZM91.9055 68.2777C86.9691 68.2777 83.2669 63.886 83.2669 57.9995C83.2669 52.0821 86.943 47.7214 91.9055 47.7214C96.8679 47.7214 100.544 52.1131 100.544 57.9995C100.544 63.886 96.8679 68.2777 91.9055 68.2777ZM112.242 69.5663C116.492 69.5663 119.325 67.0303 119.325 63.1953C119.325 58.2572 115.605 57.4635 112.32 56.814C109.261 56.2058 106.549 55.6697 106.549 52.3296C106.549 49.5255 108.757 47.6495 112.103 47.6495C115.501 47.6495 117.578 49.5154 117.76 52.6598H118.83C118.647 48.8145 116.11 46.4331 112.121 46.4331C108.158 46.4331 105.464 48.8248 105.464 52.3607C105.464 56.7318 108.818 57.4225 112.068 58.0823C115.162 58.7008 118.222 59.3812 118.222 63.2368C118.222 66.3192 115.849 68.3192 112.269 68.3192C108.723 68.3192 106.48 66.4017 106.185 63.0719H105.09C105.385 67.1127 108.018 69.5663 112.242 69.5663ZM138.523 46.8659L130.85 66.4172L122.732 46.8659H121.498L130.263 67.8949L129.128 70.7311C127.503 74.834 126.225 75.7722 123.644 75.7722H122.245V76.999H123.714C126.703 76.999 128.329 75.7103 130.145 71.0919L139.713 46.8659H138.523ZM148.917 69.5663C153.167 69.5663 156 67.0303 156 63.1953C156 58.2572 152.28 57.4635 148.995 56.814C145.936 56.2058 143.225 55.6697 143.225 52.3296C143.225 49.5255 145.432 47.6495 148.778 47.6495C152.176 47.6495 154.253 49.5154 154.436 52.6598H155.505C155.322 48.8143 152.785 46.4328 148.796 46.4328C144.833 46.4328 142.138 48.8246 142.138 52.3605C142.138 56.7316 145.493 57.4223 148.743 58.0821C151.837 58.7006 154.896 59.381 154.896 63.2366C154.896 66.319 152.524 68.319 148.943 68.319C145.398 68.319 143.155 66.4015 142.86 63.0717H141.765C142.06 67.1127 144.693 69.5663 148.917 69.5663Z" fill="white"/>
<path d="M10.6378 69.5663C14.7054 69.5663 18.0336 66.8344 19.4328 62.4945H18.2859C16.8867 66.1543 14.0449 68.2779 10.638 68.2779C5.80602 68.2779 2.12975 63.8244 2.12975 57.9997C2.12984 52.144 5.77128 47.7218 10.6378 47.7218C14.0706 47.7218 16.9299 49.8764 18.2422 53.4433H19.372C18.0513 49.2163 14.7926 46.4328 10.6378 46.4328C5.15425 46.4328 1 51.3605 1 57.9996C1 64.5767 5.18026 69.5663 10.6378 69.5663ZM41.1861 57.845C41.1861 51.4225 37.3535 46.4328 31.9565 46.4328C26.603 46.4328 22.5443 51.4225 22.5443 57.9687C22.5443 64.5768 26.6032 69.5663 31.9565 69.5663C35.7978 69.5663 38.8222 67.1849 40.5951 62.783H39.4132C37.9097 66.2262 35.2677 68.2674 31.9566 68.2674C27.3108 68.2674 23.8147 64.0985 23.6457 58.4017H41.1687C41.1775 58.2264 41.1861 58.0202 41.1861 57.845ZM31.9566 47.7011C36.3677 47.7011 39.8037 51.5167 40.0904 57.1543H23.6627C23.9738 51.6741 27.4158 47.7011 31.9566 47.7011ZM53.9529 46.8042C50.7825 46.8042 48.4534 48.7853 47.2856 51.9105L47.1045 46.8662H46.2267V69.1333H47.3391V56.5976C47.3391 51.6699 49.9638 48.072 53.8833 48.072H55.5693V46.8039L53.9529 46.8042ZM69.0661 46.4332C65.2598 46.4332 62.111 48.8471 60.5495 52.5374V39H59.4371V69.1333H60.3671L60.5284 63.4075C62.0826 67.1254 65.2429 69.5665 69.0665 69.5665C74.6547 69.5665 78.609 64.5769 78.609 57.9997C78.609 51.4123 74.6544 46.4332 69.0661 46.4332ZM69.0057 68.2777C64.1563 68.2777 60.4974 63.8242 60.4974 57.9995C60.4974 52.1337 64.1562 47.7214 69.0057 47.7214C73.9073 47.7214 77.4792 52.0615 77.4792 57.9995C77.4792 63.9376 73.9073 68.2777 69.0057 68.2777ZM91.9055 69.5663C97.5023 69.5663 101.674 64.618 101.674 57.9995C101.674 51.381 97.5023 46.4328 91.9055 46.4328C86.3347 46.4328 82.137 51.3399 82.137 57.9996C82.137 64.618 86.3347 69.5663 91.9055 69.5663ZM91.9055 68.2777C86.9691 68.2777 83.2669 63.886 83.2669 57.9995C83.2669 52.0821 86.943 47.7214 91.9055 47.7214C96.8679 47.7214 100.544 52.1131 100.544 57.9995C100.544 63.886 96.8679 68.2777 91.9055 68.2777ZM112.242 69.5663C116.492 69.5663 119.325 67.0303 119.325 63.1953C119.325 58.2572 115.605 57.4635 112.32 56.814C109.261 56.2058 106.549 55.6697 106.549 52.3296C106.549 49.5255 108.757 47.6495 112.103 47.6495C115.501 47.6495 117.578 49.5154 117.76 52.6598H118.83C118.647 48.8145 116.11 46.4331 112.121 46.4331C108.158 46.4331 105.464 48.8248 105.464 52.3607C105.464 56.7318 108.818 57.4225 112.068 58.0823C115.162 58.7008 118.222 59.3812 118.222 63.2368C118.222 66.3192 115.849 68.3192 112.269 68.3192C108.723 68.3192 106.48 66.4017 106.185 63.0719H105.09C105.385 67.1127 108.018 69.5663 112.242 69.5663ZM138.523 46.8659L130.85 66.4172L122.732 46.8659H121.498L130.263 67.8949L129.128 70.7311C127.503 74.834 126.225 75.7722 123.644 75.7722H122.245V76.999H123.714C126.703 76.999 128.329 75.7103 130.145 71.0919L139.713 46.8659H138.523ZM148.917 69.5663C153.167 69.5663 156 67.0303 156 63.1953C156 58.2572 152.28 57.4635 148.995 56.814C145.936 56.2058 143.225 55.6697 143.225 52.3296C143.225 49.5255 145.432 47.6495 148.778 47.6495C152.176 47.6495 154.253 49.5154 154.436 52.6598H155.505C155.322 48.8143 152.785 46.4328 148.796 46.4328C144.833 46.4328 142.138 48.8246 142.138 52.3605C142.138 56.7316 145.493 57.4223 148.743 58.0821C151.837 58.7006 154.896 59.381 154.896 63.2366C154.896 66.319 152.524 68.319 148.943 68.319C145.398 68.319 143.155 66.4015 142.86 63.0717H141.765C142.06 67.1127 144.693 69.5663 148.917 69.5663Z" fill="white"/>
<path d="M10.6378 69.5663C14.7054 69.5663 18.0336 66.8344 19.4328 62.4945H18.2859C16.8867 66.1543 14.0449 68.2779 10.638 68.2779C5.80602 68.2779 2.12975 63.8244 2.12975 57.9997C2.12984 52.144 5.77128 47.7218 10.6378 47.7218C14.0706 47.7218 16.9299 49.8764 18.2422 53.4433H19.372C18.0513 49.2163 14.7926 46.4328 10.6378 46.4328C5.15425 46.4328 1 51.3605 1 57.9996C1 64.5767 5.18026 69.5663 10.6378 69.5663ZM41.1861 57.845C41.1861 51.4225 37.3535 46.4328 31.9565 46.4328C26.603 46.4328 22.5443 51.4225 22.5443 57.9687C22.5443 64.5768 26.6032 69.5663 31.9565 69.5663C35.7978 69.5663 38.8222 67.1849 40.5951 62.783H39.4132C37.9097 66.2262 35.2677 68.2674 31.9566 68.2674C27.3108 68.2674 23.8147 64.0985 23.6457 58.4017H41.1687C41.1775 58.2264 41.1861 58.0202 41.1861 57.845ZM31.9566 47.7011C36.3677 47.7011 39.8037 51.5167 40.0904 57.1543H23.6627C23.9738 51.6741 27.4158 47.7011 31.9566 47.7011ZM53.9529 46.8042C50.7825 46.8042 48.4534 48.7853 47.2856 51.9105L47.1045 46.8662H46.2267V69.1333H47.3391V56.5976C47.3391 51.6699 49.9638 48.072 53.8833 48.072H55.5693V46.8039L53.9529 46.8042ZM69.0661 46.4332C65.2598 46.4332 62.111 48.8471 60.5495 52.5374V39H59.4371V69.1333H60.3671L60.5284 63.4075C62.0826 67.1254 65.2429 69.5665 69.0665 69.5665C74.6547 69.5665 78.609 64.5769 78.609 57.9997C78.609 51.4123 74.6544 46.4332 69.0661 46.4332ZM69.0057 68.2777C64.1563 68.2777 60.4974 63.8242 60.4974 57.9995C60.4974 52.1337 64.1562 47.7214 69.0057 47.7214C73.9073 47.7214 77.4792 52.0615 77.4792 57.9995C77.4792 63.9376 73.9073 68.2777 69.0057 68.2777ZM91.9055 69.5663C97.5023 69.5663 101.674 64.618 101.674 57.9995C101.674 51.381 97.5023 46.4328 91.9055 46.4328C86.3347 46.4328 82.137 51.3399 82.137 57.9996C82.137 64.618 86.3347 69.5663 91.9055 69.5663ZM91.9055 68.2777C86.9691 68.2777 83.2669 63.886 83.2669 57.9995C83.2669 52.0821 86.943 47.7214 91.9055 47.7214C96.8679 47.7214 100.544 52.1131 100.544 57.9995C100.544 63.886 96.8679 68.2777 91.9055 68.2777ZM112.242 69.5663C116.492 69.5663 119.325 67.0303 119.325 63.1953C119.325 58.2572 115.605 57.4635 112.32 56.814C109.261 56.2058 106.549 55.6697 106.549 52.3296C106.549 49.5255 108.757 47.6495 112.103 47.6495C115.501 47.6495 117.578 49.5154 117.76 52.6598H118.83C118.647 48.8145 116.11 46.4331 112.121 46.4331C108.158 46.4331 105.464 48.8248 105.464 52.3607C105.464 56.7318 108.818 57.4225 112.068 58.0823C115.162 58.7008 118.222 59.3812 118.222 63.2368C118.222 66.3192 115.849 68.3192 112.269 68.3192C108.723 68.3192 106.48 66.4017 106.185 63.0719H105.09C105.385 67.1127 108.018 69.5663 112.242 69.5663ZM138.523 46.8659L130.85 66.4172L122.732 46.8659H121.498L130.263 67.8949L129.128 70.7311C127.503 74.834 126.225 75.7722 123.644 75.7722H122.245V76.999H123.714C126.703 76.999 128.329 75.7103 130.145 71.0919L139.713 46.8659H138.523ZM148.917 69.5663C153.167 69.5663 156 67.0303 156 63.1953C156 58.2572 152.28 57.4635 148.995 56.814C145.936 56.2058 143.225 55.6697 143.225 52.3296C143.225 49.5255 145.432 47.6495 148.778 47.6495C152.176 47.6495 154.253 49.5154 154.436 52.6598H155.505C155.322 48.8143 152.785 46.4328 148.796 46.4328C144.833 46.4328 142.138 48.8246 142.138 52.3605C142.138 56.7316 145.493 57.4223 148.743 58.0821C151.837 58.7006 154.896 59.381 154.896 63.2366C154.896 66.319 152.524 68.319 148.943 68.319C145.398 68.319 143.155 66.4015 142.86 63.0717H141.765C142.06 67.1127 144.693 69.5663 148.917 69.5663Z" stroke="white" stroke-width="2"/>
<path d="M69.2733 67.6761C71.3508 67.6761 73.035 65.6784 73.035 63.214C73.035 60.7497 71.3508 58.752 69.2733 58.752C67.1959 58.752 65.5117 60.7497 65.5117 63.214C65.5117 65.6784 67.1959 67.6761 69.2733 67.6761Z" fill="white"/>
<path d="M92.6357 67.6761C94.7131 67.6761 96.3973 65.6784 96.3973 63.214C96.3973 60.7497 94.7131 58.752 92.6357 58.752C90.5582 58.752 88.874 60.7497 88.874 63.214C88.874 65.6784 90.5582 67.6761 92.6357 67.6761Z" fill="white"/>
<path d="M71 64C71 65.1046 70.1046 66.5 69 66.5C67.8954 66.5 67 65.1046 67 64C67 62.8954 67.8954 62 69 62C70.1046 62 71 62.8954 71 64Z" fill="#0D346A"/>
<path d="M95 64C95 65.1046 94.1046 66.5 93 66.5C91.8954 66.5 91 65.1046 91 64C91 62.8954 91.8954 62 93 62C94.1046 62 95 62.8954 95 64Z" fill="#0D346A"/>
<defs>
<linearGradient id="paint0_linear_140_168" x1="76.4966" y1="12.7421" x2="83.4226" y2="46.3519" gradientUnits="userSpaceOnUse">
<stop stop-color="#F48302"/>
<stop offset="1" stop-color="#E75627"/>
</linearGradient>
<linearGradient id="paint1_linear_140_168" x1="52.8996" y1="12.8449" x2="79.4307" y2="12.8449" gradientUnits="userSpaceOnUse">
<stop stop-color="#18194C"/>
<stop offset="1" stop-color="#00538C"/>
</linearGradient>
<linearGradient id="paint2_linear_140_168" x1="78.4965" y1="-1.67366" x2="78.2874" y2="12.0428" gradientUnits="userSpaceOnUse">
<stop stop-color="#3E0F51"/>
<stop offset="1" stop-color="#703D85"/>
</linearGradient>
<linearGradient id="paint3_linear_140_168" x1="86.4624" y1="15.3451" x2="96.7162" y2="15.3451" gradientUnits="userSpaceOnUse">
<stop stop-color="#5BA921"/>
<stop offset="1" stop-color="#147F00"/>
</linearGradient>
<linearGradient id="paint4_linear_140_168" x1="59.4654" y1="18.6073" x2="59.0359" y2="31.6758" gradientUnits="userSpaceOnUse">
<stop stop-color="#E7401D"/>
<stop offset="1" stop-color="#AA0021"/>
</linearGradient>
</defs>
</svg>
