<svg width="207" height="110" viewBox="0 0 207 110" fill="none" xmlns="http://www.w3.org/2000/svg">
<rect width="207" height="110" fill="none"/>
<path d="M123.937 49.8991C123.936 49.9078 123.937 49.9166 123.942 49.9236L123.369 50.1411C123.366 50.138 123.364 50.1344 123.363 50.1304C123.361 50.1263 123.36 50.122 123.36 50.1176C123.36 50.1132 123.361 50.1088 123.363 50.1048C123.364 50.1007 123.366 50.0971 123.369 50.0941C123.549 49.9923 123.729 49.8892 123.937 49.8991Z" fill="#BAA3C2"/>
<path d="M123.362 50.1187C123.364 50.1255 123.366 50.1323 123.369 50.1394L123.237 50.1895C123.234 50.1825 123.232 50.1754 123.229 50.1688C123.234 50.1542 123.242 50.141 123.252 50.1302C123.261 50.1195 123.273 50.1114 123.286 50.1066C123.298 50.1018 123.312 50.1004 123.325 50.1025C123.338 50.1046 123.351 50.1101 123.362 50.1187V50.1187Z" fill="white"/>
<path d="M123.362 50.1188L123.23 50.1681C121.675 50.6509 120.177 50.4607 118.733 49.6359C117.541 48.9552 116.551 47.9656 115.676 46.8045C115.126 46.0887 114.643 45.3048 114.235 44.4665C114.22 44.4349 114.203 44.4042 114.185 44.3747C114.038 44.1366 113.896 44.1425 113.763 44.3919C113.741 44.4395 113.711 44.4816 113.676 44.5161C113.119 45.0327 112.484 45.4176 111.805 45.6499C111.145 45.8613 110.486 45.9054 109.83 45.6204C109.674 45.5409 109.498 45.5355 109.339 45.6054C109.18 45.6752 109.05 45.815 108.976 45.9957C108.804 46.3647 108.525 46.6289 108.237 46.8682C107.625 47.3802 106.945 47.7673 106.225 48.0134C105.578 48.2226 104.911 48.3333 104.24 48.3428C103.225 48.3707 102.245 48.1804 101.32 47.666C100.235 47.0716 99.3333 46.0899 98.7414 44.858C98.6234 44.6172 98.5896 44.3527 98.5469 44.0894C98.404 43.2651 98.3779 42.4183 98.4696 41.5838C98.6764 39.8424 99.4219 38.497 100.613 37.4763C101.187 36.9836 101.832 36.6687 102.494 36.3872C103.411 35.9978 104.334 35.621 105.232 35.1758C106.747 34.4233 108.078 33.3587 109.029 31.7253C109.7 30.5714 110.068 29.2965 110.048 27.8815C110.046 27.75 110.025 27.6189 110.015 27.4874C109.976 26.9922 110.147 26.5992 110.44 26.2676C110.712 25.959 111.043 25.7706 111.383 25.5919C111.954 25.2805 112.549 25.0351 113.159 24.859C114.65 24.4558 116.09 24.6077 117.464 25.4285C118.813 26.2352 119.846 27.4496 120.647 28.9552C120.69 29.0358 120.733 29.1175 120.77 29.2018C120.827 29.3201 120.853 29.4553 120.845 29.5909C120.838 29.7264 120.797 29.8564 120.728 29.9649C120.649 30.1061 120.545 30.2254 120.423 30.3149C119.852 30.7335 119.511 31.3632 119.28 32.0862C119.023 32.8869 119.003 33.7176 119.1 34.5565C119.179 35.2271 119.338 35.8811 119.57 36.4995C119.773 37.0441 120.211 37.2456 120.692 37.1104C120.775 37.086 120.849 37.0284 120.902 36.9473C120.954 36.8662 120.982 36.7663 120.98 36.6642C120.993 36.3883 120.932 36.1146 120.804 35.8838C120.432 35.2044 120.196 34.4718 120.25 33.651C120.276 33.1309 120.399 32.624 120.611 32.1676C120.822 31.7111 121.118 31.3165 121.474 31.0127C122.229 30.3493 123.065 29.9158 124.018 29.8751C125.104 29.8289 126.05 30.2658 126.875 31.0884C127.013 31.2262 127.067 31.4389 127.144 31.6261C127.944 33.5825 127.936 35.5623 127.249 37.5554C126.717 39.0973 125.89 40.4038 124.924 41.5942C124.414 42.2232 123.865 42.8043 123.28 43.3325C123.194 43.4088 123.104 43.4796 123.011 43.5446C122.54 43.882 122.261 44.3772 122.239 45.0307C122.211 45.8834 122.376 46.6744 122.907 47.299C123.237 47.6858 123.645 47.9235 124.077 48.1066C124.356 48.2253 124.644 48.3132 124.937 48.3692C125.052 48.3879 125.162 48.4354 125.261 48.5085C125.291 48.5274 125.317 48.5533 125.339 48.5846C125.36 48.6158 125.376 48.652 125.386 48.6907C125.395 48.7295 125.398 48.7701 125.394 48.8101C125.39 48.8501 125.379 48.8888 125.362 48.9237C125.302 49.0735 125.203 49.1957 125.079 49.2713C124.711 49.5113 124.33 49.7203 123.937 49.8967L123.362 50.1188Z" fill="url(#paint0_linear_149_302)"/>
<path d="M84.803 40.5508C84.4564 39.1508 84.2675 37.7282 84.3693 36.2654C84.4547 35.0406 84.7302 33.8862 85.305 32.8486C85.4065 32.6707 85.5173 32.5007 85.6367 32.3393C85.8315 32.069 85.9791 31.7662 85.951 31.3971C85.7571 28.8707 86.4156 26.633 87.6049 24.5832C88.232 23.4772 89.0293 22.5212 89.9551 21.7656C91.1579 20.8 92.4906 20.4954 93.9189 20.7175C94.9083 20.8865 95.868 21.2454 96.7602 21.78C97.9375 22.4654 99.0332 23.3325 100.019 24.3588C100.074 24.4156 100.127 24.4755 100.179 24.5368C100.51 24.9334 100.914 24.9828 101.289 24.6221C102.059 23.8808 102.938 23.4003 103.882 23.0822C104.903 22.738 105.92 22.7372 106.908 23.2662C107.285 23.4654 107.629 23.7454 107.921 24.0923C108.158 24.3754 108.305 24.7307 108.451 25.0819C108.865 26.0458 109.016 27.1385 108.883 28.2088C108.761 29.1335 108.468 30.015 108.027 30.7913C107.344 32.0514 106.439 33.1215 105.374 33.9286C104.944 34.2438 104.458 34.4357 103.955 34.4891C102.438 34.6906 101.096 35.4029 99.9137 36.5413C99.1507 37.2712 98.499 38.1512 97.9872 39.1429C97.9465 39.2205 97.9102 39.3012 97.8785 39.3845C97.7476 39.7358 97.5263 39.8658 97.213 39.7441C96.9754 39.652 96.7476 39.5255 96.5122 39.4252C95.1908 38.8623 93.8337 38.5555 92.4245 38.6493C90.2772 38.7918 88.4327 39.7747 86.8587 41.4959C86.5714 41.8071 86.3085 42.1485 86.0731 42.5159C86.0143 42.6123 85.9426 42.6966 85.8608 42.7654C85.6856 42.9077 85.5338 42.8605 85.4496 42.6324C85.1984 41.9548 84.9825 41.2597 84.803 40.5508V40.5508Z" fill="url(#paint1_linear_149_302)"/>
<path d="M98.4588 13.8359C99.724 13.359 101.054 13.1693 102.378 13.2767C102.443 13.2752 102.508 13.2912 102.568 13.3234C102.995 13.6042 103.413 13.5544 103.794 13.2211C104.034 13.0235 104.289 12.8544 104.557 12.7162C105.302 12.2967 106.071 11.9418 106.859 11.6543C108.294 11.1351 109.754 10.8721 111.257 11.0613C112.21 11.1734 113.138 11.4953 113.991 12.0105C115.103 12.6883 116.041 13.6132 116.734 14.8569C117.021 15.3718 117.175 15.9618 117.296 16.5591C117.391 16.9984 117.413 17.4552 117.361 17.9045C117.243 18.8754 116.784 19.5533 116.07 20.013C115.856 20.1503 115.62 20.1983 115.392 20.2784C114.334 20.6493 113.639 21.5682 113.546 22.8612C113.538 22.9736 113.556 23.0889 113.554 23.202C113.556 23.2561 113.549 23.3101 113.534 23.3611C113.519 23.4121 113.495 23.4589 113.464 23.499C113.434 23.5391 113.397 23.5716 113.356 23.5947C113.314 23.6178 113.27 23.6309 113.224 23.6335C112.613 23.7073 112.052 23.9714 111.499 24.2666C111.204 24.4243 110.925 24.6186 110.637 24.7923C110.371 24.9531 110.092 25.0201 109.807 24.8385C109.707 24.7694 109.621 24.6743 109.557 24.5605C109.071 23.757 108.471 23.0598 107.784 22.5C107.254 22.067 106.656 21.7645 106.026 21.6105C105.396 21.4565 104.746 21.4541 104.115 21.6035C103.134 21.8174 102.209 22.3035 101.416 23.0221C101.312 23.1192 101.187 23.1792 101.056 23.1949C100.925 23.2106 100.792 23.1813 100.674 23.1105C100.539 23.0413 100.416 22.9453 100.308 22.8266C99.0614 21.4407 97.5857 20.5451 95.9586 19.9758C95.2502 19.723 94.5226 19.5536 93.7861 19.4703C93.6747 19.4591 93.5651 19.4296 93.4605 19.3826C93.1927 19.261 93.1126 19.0081 93.2585 18.7145C93.3483 18.5336 93.4463 18.358 93.5458 18.1841C94.7187 16.1138 96.4517 14.58 98.4588 13.8359V13.8359Z" fill="url(#paint2_linear_149_302)"/>
<path d="M126.381 24.0863C126.777 25.6125 126.983 27.1987 126.994 28.7953C126.999 28.9276 126.988 29.0601 126.962 29.1888C126.905 29.4308 126.767 29.5187 126.565 29.4401C126.521 29.4242 126.478 29.4012 126.439 29.372C125.927 28.9643 125.346 28.8424 124.746 28.8244C123.863 28.8068 122.984 28.9545 122.139 29.2619C121.867 29.3575 121.654 29.2473 121.597 28.9219C121.538 28.6385 121.445 28.3668 121.32 28.1154C120.746 26.8373 120.001 25.7282 119.013 24.8642C118.215 24.1439 117.284 23.6597 116.297 23.4517C116.214 23.4348 116.129 23.4324 116.045 23.4445C115.968 23.4542 115.891 23.4546 115.814 23.4458C115.47 23.4108 115.278 23.1369 115.291 22.7101C115.305 22.2518 115.501 21.9086 115.779 21.6176C116.041 21.3535 116.338 21.144 116.658 20.9983C116.691 20.9857 116.722 20.9683 116.752 20.9466C117.454 20.3208 118.004 19.5531 118.291 18.5548C118.566 17.6436 118.576 16.6498 118.321 15.7306C118.3 15.6573 118.285 15.5814 118.277 15.5044C118.256 15.2478 118.357 15.1299 118.576 15.1437C118.765 15.1554 118.933 15.253 119.109 15.3165C120.797 15.9222 122.299 16.9082 123.561 18.3842C124.37 19.3375 125.044 20.4407 125.556 21.6505C125.887 22.4343 126.163 23.2489 126.381 24.0863V24.0863Z" fill="url(#paint3_linear_149_302)"/>
<path d="M90.4687 40.3525C91.6213 39.9199 92.842 39.8055 94.0376 40.0179C95.0493 40.1894 96.0328 40.5447 96.9535 41.0712C97.3955 41.3223 97.4839 41.6574 97.4351 41.9761C97.3902 42.2628 97.3717 42.5544 97.3799 42.8458C97.4159 43.5889 97.5016 44.3274 97.6362 45.0543C97.6763 45.2968 97.7649 45.5244 97.7846 45.7716C97.8007 45.8759 97.7904 45.9836 97.7549 46.0811C97.7195 46.1785 97.6606 46.2613 97.5855 46.3191C96.7766 46.9422 95.8905 47.4114 94.9594 47.7098C93.232 48.2462 91.5414 48.0852 89.8908 47.2957C88.836 46.7972 87.8665 46.0751 87.0299 45.1645C86.9229 45.0683 86.8253 44.9579 86.7392 44.8357C86.669 44.712 86.6243 44.5705 86.6087 44.4225C86.5931 44.2746 86.6071 44.1244 86.6495 43.984C86.73 43.6723 86.8668 43.3852 87.0503 43.1426C87.7398 42.1805 88.5826 41.3895 89.5306 40.8151C89.835 40.6382 90.1483 40.4837 90.4687 40.3525V40.3525Z" fill="url(#paint4_linear_149_302)"/>
<path d="M35.6378 80.5663C39.7054 80.5663 43.0336 77.8344 44.4328 73.4945H43.286C41.8867 77.1543 39.0449 79.2779 35.638 79.2779C30.806 79.2779 27.1298 74.8244 27.1298 68.9997C27.1298 63.144 30.7713 58.7218 35.6378 58.7218C39.0706 58.7218 41.9299 60.8764 43.2422 64.4433H44.372C43.0513 60.2163 39.7926 57.4328 35.6378 57.4328C30.1542 57.4328 26 62.3605 26 68.9996C26 75.5767 30.1803 80.5663 35.6378 80.5663ZM66.1861 68.845C66.1861 62.4225 62.3535 57.4328 56.9565 57.4328C51.603 57.4328 47.5443 62.4225 47.5443 68.9687C47.5443 75.5768 51.6032 80.5663 56.9565 80.5663C60.7978 80.5663 63.8222 78.1849 65.5951 73.783H64.4132C62.9097 77.2262 60.2677 79.2674 56.9566 79.2674C52.3108 79.2674 48.8147 75.0985 48.6457 69.4017H66.1687C66.1775 69.2264 66.1861 69.0202 66.1861 68.845ZM56.9566 58.7011C61.3677 58.7011 64.8037 62.5167 65.0904 68.1543H48.6627C48.9738 62.6741 52.4161 58.7011 56.9568 58.7011H56.9566ZM78.9529 57.8042C75.7825 57.8042 73.4534 59.7853 72.2856 62.9105L72.1045 57.8662H71.2268V80.1333H72.3391V67.5976C72.3391 62.6699 74.9638 59.072 78.8833 59.072H80.5693V57.8039L78.9529 57.8042ZM94.0661 57.4332C90.2598 57.4332 87.111 59.8471 85.5495 63.5374V50H84.4371V80.1333H85.3671L85.5284 74.4075C87.0826 78.1254 90.2429 80.5665 94.0665 80.5665C99.6547 80.5665 103.609 75.5769 103.609 68.9997C103.609 62.4123 99.6549 57.4329 94.0665 57.4329L94.0661 57.4332ZM94.0057 79.2777C89.1563 79.2777 85.4974 74.8242 85.4974 68.9995C85.4974 63.1337 89.1562 58.7214 94.0057 58.7214C98.9073 58.7214 102.479 63.0615 102.479 68.9995C102.479 74.9376 98.9073 79.2777 94.0057 79.2777ZM116.905 80.5663C122.502 80.5663 126.674 75.618 126.674 68.9995C126.674 62.381 122.502 57.4328 116.905 57.4328C111.335 57.4328 107.137 62.3399 107.137 68.9996C107.137 75.618 111.335 80.5663 116.905 80.5663V80.5663ZM116.905 79.2777C111.969 79.2777 108.267 74.886 108.267 68.9995C108.267 63.0821 111.943 58.7214 116.905 58.7214C121.868 58.7214 125.544 63.1131 125.544 68.9995C125.544 74.886 121.868 79.2777 116.905 79.2777V79.2777ZM137.242 80.5663C141.492 80.5663 144.325 78.0303 144.325 74.1953C144.325 69.2572 140.605 68.4635 137.32 67.814C134.261 67.2058 131.549 66.6697 131.549 63.3296C131.549 60.5255 133.757 58.6495 137.103 58.6495C140.501 58.6495 142.578 60.5154 142.76 63.6598H143.83C143.647 59.8145 141.11 57.4331 137.121 57.4331C133.158 57.4331 130.463 59.8248 130.463 63.3607C130.463 67.7318 133.818 68.4225 137.068 69.0823C140.162 69.7008 143.222 70.3812 143.222 74.2368C143.222 77.3192 140.849 79.3192 137.269 79.3192C133.723 79.3192 131.48 77.4017 131.185 74.0719H130.09C130.385 78.1127 133.018 80.5663 137.242 80.5663V80.5663ZM163.523 57.8659L155.85 77.4172L147.732 57.8659H146.498L155.263 78.8949L154.128 81.7311C152.503 85.834 151.225 86.7722 148.644 86.7722H147.245V87.999H148.714C151.703 87.999 153.329 86.7103 155.145 82.0919L164.713 57.8659H163.523ZM173.917 80.5663C178.167 80.5663 181 78.0303 181 74.1953C181 69.2572 177.28 68.4635 173.995 67.814C170.936 67.2058 168.225 66.6697 168.225 63.3296C168.225 60.5255 170.432 58.6495 173.778 58.6495C177.176 58.6495 179.253 60.5154 179.436 63.6598H180.505C180.322 59.8143 177.785 57.4328 173.796 57.4328C169.833 57.4328 167.138 59.8246 167.138 63.3605C167.138 67.7316 170.493 68.4223 173.743 69.0821C176.837 69.7006 179.896 70.381 179.896 74.2366C179.896 77.319 177.524 79.319 173.943 79.319C170.398 79.319 168.155 77.4015 167.86 74.0717H166.765C167.06 78.1127 169.693 80.5663 173.917 80.5663H173.917Z" fill="white"/>
<path d="M35.6378 80.5663C39.7054 80.5663 43.0336 77.8344 44.4328 73.4945H43.286C41.8867 77.1543 39.0449 79.2779 35.638 79.2779C30.806 79.2779 27.1298 74.8244 27.1298 68.9997C27.1298 63.144 30.7713 58.7218 35.6378 58.7218C39.0706 58.7218 41.9299 60.8764 43.2422 64.4433H44.372C43.0513 60.2163 39.7926 57.4328 35.6378 57.4328C30.1542 57.4328 26 62.3605 26 68.9996C26 75.5767 30.1803 80.5663 35.6378 80.5663ZM66.1861 68.845C66.1861 62.4225 62.3535 57.4328 56.9565 57.4328C51.603 57.4328 47.5443 62.4225 47.5443 68.9687C47.5443 75.5768 51.6032 80.5663 56.9565 80.5663C60.7978 80.5663 63.8222 78.1849 65.5951 73.783H64.4132C62.9097 77.2262 60.2677 79.2674 56.9566 79.2674C52.3108 79.2674 48.8147 75.0985 48.6457 69.4017H66.1687C66.1775 69.2264 66.1861 69.0202 66.1861 68.845ZM56.9566 58.7011C61.3677 58.7011 64.8037 62.5167 65.0904 68.1543H48.6627C48.9738 62.6741 52.4161 58.7011 56.9568 58.7011H56.9566ZM78.9529 57.8042C75.7825 57.8042 73.4534 59.7853 72.2856 62.9105L72.1045 57.8662H71.2268V80.1333H72.3391V67.5976C72.3391 62.6699 74.9638 59.072 78.8833 59.072H80.5693V57.8039L78.9529 57.8042ZM94.0661 57.4332C90.2598 57.4332 87.111 59.8471 85.5495 63.5374V50H84.4371V80.1333H85.3671L85.5284 74.4075C87.0826 78.1254 90.2429 80.5665 94.0665 80.5665C99.6547 80.5665 103.609 75.5769 103.609 68.9997C103.609 62.4123 99.6549 57.4329 94.0665 57.4329L94.0661 57.4332ZM94.0057 79.2777C89.1563 79.2777 85.4974 74.8242 85.4974 68.9995C85.4974 63.1337 89.1562 58.7214 94.0057 58.7214C98.9073 58.7214 102.479 63.0615 102.479 68.9995C102.479 74.9376 98.9073 79.2777 94.0057 79.2777ZM116.905 80.5663C122.502 80.5663 126.674 75.618 126.674 68.9995C126.674 62.381 122.502 57.4328 116.905 57.4328C111.335 57.4328 107.137 62.3399 107.137 68.9996C107.137 75.618 111.335 80.5663 116.905 80.5663V80.5663ZM116.905 79.2777C111.969 79.2777 108.267 74.886 108.267 68.9995C108.267 63.0821 111.943 58.7214 116.905 58.7214C121.868 58.7214 125.544 63.1131 125.544 68.9995C125.544 74.886 121.868 79.2777 116.905 79.2777V79.2777ZM137.242 80.5663C141.492 80.5663 144.325 78.0303 144.325 74.1953C144.325 69.2572 140.605 68.4635 137.32 67.814C134.261 67.2058 131.549 66.6697 131.549 63.3296C131.549 60.5255 133.757 58.6495 137.103 58.6495C140.501 58.6495 142.578 60.5154 142.76 63.6598H143.83C143.647 59.8145 141.11 57.4331 137.121 57.4331C133.158 57.4331 130.463 59.8248 130.463 63.3607C130.463 67.7318 133.818 68.4225 137.068 69.0823C140.162 69.7008 143.222 70.3812 143.222 74.2368C143.222 77.3192 140.849 79.3192 137.269 79.3192C133.723 79.3192 131.48 77.4017 131.185 74.0719H130.09C130.385 78.1127 133.018 80.5663 137.242 80.5663V80.5663ZM163.523 57.8659L155.85 77.4172L147.732 57.8659H146.498L155.263 78.8949L154.128 81.7311C152.503 85.834 151.225 86.7722 148.644 86.7722H147.245V87.999H148.714C151.703 87.999 153.329 86.7103 155.145 82.0919L164.713 57.8659H163.523ZM173.917 80.5663C178.167 80.5663 181 78.0303 181 74.1953C181 69.2572 177.28 68.4635 173.995 67.814C170.936 67.2058 168.225 66.6697 168.225 63.3296C168.225 60.5255 170.432 58.6495 173.778 58.6495C177.176 58.6495 179.253 60.5154 179.436 63.6598H180.505C180.322 59.8143 177.785 57.4328 173.796 57.4328C169.833 57.4328 167.138 59.8246 167.138 63.3605C167.138 67.7316 170.493 68.4223 173.743 69.0821C176.837 69.7006 179.896 70.381 179.896 74.2366C179.896 77.319 177.524 79.319 173.943 79.319C170.398 79.319 168.155 77.4015 167.86 74.0717H166.765C167.06 78.1127 169.693 80.5663 173.917 80.5663H173.917Z" fill="white"/>
<path d="M35.6378 80.5663C39.7054 80.5663 43.0336 77.8344 44.4328 73.4945H43.286C41.8867 77.1543 39.0449 79.2779 35.638 79.2779C30.806 79.2779 27.1298 74.8244 27.1298 68.9997C27.1298 63.144 30.7713 58.7218 35.6378 58.7218C39.0706 58.7218 41.9299 60.8764 43.2422 64.4433H44.372C43.0513 60.2163 39.7926 57.4328 35.6378 57.4328C30.1542 57.4328 26 62.3605 26 68.9996C26 75.5767 30.1803 80.5663 35.6378 80.5663ZM66.1861 68.845C66.1861 62.4225 62.3535 57.4328 56.9565 57.4328C51.603 57.4328 47.5443 62.4225 47.5443 68.9687C47.5443 75.5768 51.6032 80.5663 56.9565 80.5663C60.7978 80.5663 63.8222 78.1849 65.5951 73.783H64.4132C62.9097 77.2262 60.2677 79.2674 56.9566 79.2674C52.3108 79.2674 48.8147 75.0985 48.6457 69.4017H66.1687C66.1775 69.2264 66.1861 69.0202 66.1861 68.845ZM56.9566 58.7011C61.3677 58.7011 64.8037 62.5167 65.0904 68.1543H48.6627C48.9738 62.6741 52.4161 58.7011 56.9568 58.7011H56.9566ZM78.9529 57.8042C75.7825 57.8042 73.4534 59.7853 72.2856 62.9105L72.1045 57.8662H71.2268V80.1333H72.3391V67.5976C72.3391 62.6699 74.9638 59.072 78.8833 59.072H80.5693V57.8039L78.9529 57.8042ZM94.0661 57.4332C90.2598 57.4332 87.111 59.8471 85.5495 63.5374V50H84.4371V80.1333H85.3671L85.5284 74.4075C87.0826 78.1254 90.2429 80.5665 94.0665 80.5665C99.6547 80.5665 103.609 75.5769 103.609 68.9997C103.609 62.4123 99.6549 57.4329 94.0665 57.4329L94.0661 57.4332ZM94.0057 79.2777C89.1563 79.2777 85.4974 74.8242 85.4974 68.9995C85.4974 63.1337 89.1562 58.7214 94.0057 58.7214C98.9073 58.7214 102.479 63.0615 102.479 68.9995C102.479 74.9376 98.9073 79.2777 94.0057 79.2777ZM116.905 80.5663C122.502 80.5663 126.674 75.618 126.674 68.9995C126.674 62.381 122.502 57.4328 116.905 57.4328C111.335 57.4328 107.137 62.3399 107.137 68.9996C107.137 75.618 111.335 80.5663 116.905 80.5663V80.5663ZM116.905 79.2777C111.969 79.2777 108.267 74.886 108.267 68.9995C108.267 63.0821 111.943 58.7214 116.905 58.7214C121.868 58.7214 125.544 63.1131 125.544 68.9995C125.544 74.886 121.868 79.2777 116.905 79.2777V79.2777ZM137.242 80.5663C141.492 80.5663 144.325 78.0303 144.325 74.1953C144.325 69.2572 140.605 68.4635 137.32 67.814C134.261 67.2058 131.549 66.6697 131.549 63.3296C131.549 60.5255 133.757 58.6495 137.103 58.6495C140.501 58.6495 142.578 60.5154 142.76 63.6598H143.83C143.647 59.8145 141.11 57.4331 137.121 57.4331C133.158 57.4331 130.463 59.8248 130.463 63.3607C130.463 67.7318 133.818 68.4225 137.068 69.0823C140.162 69.7008 143.222 70.3812 143.222 74.2368C143.222 77.3192 140.849 79.3192 137.269 79.3192C133.723 79.3192 131.48 77.4017 131.185 74.0719H130.09C130.385 78.1127 133.018 80.5663 137.242 80.5663V80.5663ZM163.523 57.8659L155.85 77.4172L147.732 57.8659H146.498L155.263 78.8949L154.128 81.7311C152.503 85.834 151.225 86.7722 148.644 86.7722H147.245V87.999H148.714C151.703 87.999 153.329 86.7103 155.145 82.0919L164.713 57.8659H163.523ZM173.917 80.5663C178.167 80.5663 181 78.0303 181 74.1953C181 69.2572 177.28 68.4635 173.995 67.814C170.936 67.2058 168.225 66.6697 168.225 63.3296C168.225 60.5255 170.432 58.6495 173.778 58.6495C177.176 58.6495 179.253 60.5154 179.436 63.6598H180.505C180.322 59.8143 177.785 57.4328 173.796 57.4328C169.833 57.4328 167.138 59.8246 167.138 63.3605C167.138 67.7316 170.493 68.4223 173.743 69.0821C176.837 69.7006 179.896 70.381 179.896 74.2366C179.896 77.319 177.524 79.319 173.943 79.319C170.398 79.319 168.155 77.4015 167.86 74.0717H166.765C167.06 78.1127 169.693 80.5663 173.917 80.5663H173.917Z" fill="#FFFFFF"/>
<path d="M35.6378 80.5663C39.7054 80.5663 43.0336 77.8344 44.4328 73.4945H43.286C41.8867 77.1543 39.0449 79.2779 35.638 79.2779C30.806 79.2779 27.1298 74.8244 27.1298 68.9997C27.1298 63.144 30.7713 58.7218 35.6378 58.7218C39.0706 58.7218 41.9299 60.8764 43.2422 64.4433H44.372C43.0513 60.2163 39.7926 57.4328 35.6378 57.4328C30.1542 57.4328 26 62.3605 26 68.9996C26 75.5767 30.1803 80.5663 35.6378 80.5663ZM66.1861 68.845C66.1861 62.4225 62.3535 57.4328 56.9565 57.4328C51.603 57.4328 47.5443 62.4225 47.5443 68.9687C47.5443 75.5768 51.6032 80.5663 56.9565 80.5663C60.7978 80.5663 63.8222 78.1849 65.5951 73.783H64.4132C62.9097 77.2262 60.2677 79.2674 56.9566 79.2674C52.3108 79.2674 48.8147 75.0985 48.6457 69.4017H66.1687C66.1775 69.2264 66.1861 69.0202 66.1861 68.845ZM56.9566 58.7011C61.3677 58.7011 64.8037 62.5167 65.0904 68.1543H48.6627C48.9738 62.6741 52.4161 58.7011 56.9568 58.7011H56.9566ZM78.9529 57.8042C75.7825 57.8042 73.4534 59.7853 72.2856 62.9105L72.1045 57.8662H71.2268V80.1333H72.3391V67.5976C72.3391 62.6699 74.9638 59.072 78.8833 59.072H80.5693V57.8039L78.9529 57.8042ZM94.0661 57.4332C90.2598 57.4332 87.111 59.8471 85.5495 63.5374V50H84.4371V80.1333H85.3671L85.5284 74.4075C87.0826 78.1254 90.2429 80.5665 94.0665 80.5665C99.6547 80.5665 103.609 75.5769 103.609 68.9997C103.609 62.4123 99.6549 57.4329 94.0665 57.4329L94.0661 57.4332ZM94.0057 79.2777C89.1563 79.2777 85.4974 74.8242 85.4974 68.9995C85.4974 63.1337 89.1562 58.7214 94.0057 58.7214C98.9073 58.7214 102.479 63.0615 102.479 68.9995C102.479 74.9376 98.9073 79.2777 94.0057 79.2777ZM116.905 80.5663C122.502 80.5663 126.674 75.618 126.674 68.9995C126.674 62.381 122.502 57.4328 116.905 57.4328C111.335 57.4328 107.137 62.3399 107.137 68.9996C107.137 75.618 111.335 80.5663 116.905 80.5663V80.5663ZM116.905 79.2777C111.969 79.2777 108.267 74.886 108.267 68.9995C108.267 63.0821 111.943 58.7214 116.905 58.7214C121.868 58.7214 125.544 63.1131 125.544 68.9995C125.544 74.886 121.868 79.2777 116.905 79.2777V79.2777ZM137.242 80.5663C141.492 80.5663 144.325 78.0303 144.325 74.1953C144.325 69.2572 140.605 68.4635 137.32 67.814C134.261 67.2058 131.549 66.6697 131.549 63.3296C131.549 60.5255 133.757 58.6495 137.103 58.6495C140.501 58.6495 142.578 60.5154 142.76 63.6598H143.83C143.647 59.8145 141.11 57.4331 137.121 57.4331C133.158 57.4331 130.463 59.8248 130.463 63.3607C130.463 67.7318 133.818 68.4225 137.068 69.0823C140.162 69.7008 143.222 70.3812 143.222 74.2368C143.222 77.3192 140.849 79.3192 137.269 79.3192C133.723 79.3192 131.48 77.4017 131.185 74.0719H130.09C130.385 78.1127 133.018 80.5663 137.242 80.5663V80.5663ZM163.523 57.8659L155.85 77.4172L147.732 57.8659H146.498L155.263 78.8949L154.128 81.7311C152.503 85.834 151.225 86.7722 148.644 86.7722H147.245V87.999H148.714C151.703 87.999 153.329 86.7103 155.145 82.0919L164.713 57.8659H163.523ZM173.917 80.5663C178.167 80.5663 181 78.0303 181 74.1953C181 69.2572 177.28 68.4635 173.995 67.814C170.936 67.2058 168.225 66.6697 168.225 63.3296C168.225 60.5255 170.432 58.6495 173.778 58.6495C177.176 58.6495 179.253 60.5154 179.436 63.6598H180.505C180.322 59.8143 177.785 57.4328 173.796 57.4328C169.833 57.4328 167.138 59.8246 167.138 63.3605C167.138 67.7316 170.493 68.4223 173.743 69.0821C176.837 69.7006 179.896 70.381 179.896 74.2366C179.896 77.319 177.524 79.319 173.943 79.319C170.398 79.319 168.155 77.4015 167.86 74.0717H166.765C167.06 78.1127 169.693 80.5663 173.917 80.5663H173.917Z" stroke="white" stroke-width="2.5"/>
<path d="M94.2733 78.6761C96.3508 78.6761 98.035 76.6784 98.035 74.214C98.035 71.7497 96.3508 69.752 94.2733 69.752C92.1959 69.752 90.5117 71.7497 90.5117 74.214C90.5117 76.6784 92.1959 78.6761 94.2733 78.6761Z" fill="white"/>
<path d="M117.636 78.6761C119.713 78.6761 121.397 76.6784 121.397 74.214C121.397 71.7497 119.713 69.752 117.636 69.752C115.558 69.752 113.874 71.7497 113.874 74.214C113.874 76.6784 115.558 78.6761 117.636 78.6761Z" fill="#FFFFFF"/>
<defs>
<linearGradient id="paint0_linear_149_302" x1="101.497" y1="23.7421" x2="108.423" y2="57.3519" gradientUnits="userSpaceOnUse">
<stop stop-color="#F48302"/>
<stop offset="1" stop-color="#E75627"/>
</linearGradient>
<linearGradient id="paint1_linear_149_302" x1="77.8996" y1="23.8449" x2="104.431" y2="23.8449" gradientUnits="userSpaceOnUse">
<stop stop-color="#18194C"/>
<stop offset="1" stop-color="#00538C"/>
</linearGradient>
<linearGradient id="paint2_linear_149_302" x1="103.496" y1="9.32634" x2="103.287" y2="23.0428" gradientUnits="userSpaceOnUse">
<stop stop-color="#3E0F51"/>
<stop offset="1" stop-color="#703D85"/>
</linearGradient>
<linearGradient id="paint3_linear_149_302" x1="111.462" y1="26.3451" x2="121.716" y2="26.3451" gradientUnits="userSpaceOnUse">
<stop stop-color="#5BA921"/>
<stop offset="1" stop-color="#147F00"/>
</linearGradient>
<linearGradient id="paint4_linear_149_302" x1="84.4654" y1="29.6073" x2="84.0359" y2="42.6758" gradientUnits="userSpaceOnUse">
<stop stop-color="#E7401D"/>
<stop offset="1" stop-color="#AA0021"/>
</linearGradient>
</defs>
</svg>
