<svg width="146" height="146" viewBox="0 0 146 146" fill="none" xmlns="http://www.w3.org/2000/svg">
<path d="M38.9332 73.0005L68.1332 97.3338L107.067 48.6672M72.9998 141.134C64.0524 141.134 55.1927 139.372 46.9263 135.948C38.66 132.523 31.1491 127.505 24.8223 121.178C18.4955 114.851 13.4769 107.34 10.0529 99.074C6.62884 90.8077 4.86652 81.9479 4.86652 73.0005C4.86652 64.0531 6.62884 55.1933 10.0529 46.927C13.4769 38.6607 18.4955 31.1497 24.8223 24.823C31.1491 18.4962 38.66 13.4775 46.9263 10.0535C55.1927 6.62951 64.0524 4.86719 72.9998 4.86719C91.0699 4.86719 108.4 12.0455 121.177 24.823C133.955 37.6005 141.133 54.9304 141.133 73.0005C141.133 91.0706 133.955 108.401 121.177 121.178C108.4 133.956 91.0699 141.134 72.9998 141.134Z" stroke="#3C9612" stroke-width="9.73333"/>
</svg>
