<svg width="23" height="24" viewBox="0 0 23 24" fill="none" xmlns="http://www.w3.org/2000/svg">
<circle cx="11.2941" cy="12.0011" r="11.2941" fill="#999B9F"/>
<path d="M10.1235 11.0828L11.1343 10.1566C11.4107 9.90291 11.6049 9.57238 11.6921 9.20747C11.7793 8.84256 11.7555 8.45991 11.6237 8.10864L11.1926 6.95758C11.0316 6.52785 10.7128 6.17569 10.3011 5.97284C9.88948 5.77 9.41598 5.73172 8.9771 5.86581C7.36204 6.35993 6.12063 7.86111 6.50275 9.64369C6.75404 10.8164 7.23498 12.2884 8.14604 13.8545C9.05898 15.4244 10.1018 16.5839 10.9959 17.399C12.3456 18.6272 14.275 18.3204 15.5164 17.1628C15.8492 16.8525 16.0511 16.427 16.081 15.973C16.1109 15.519 15.9665 15.0707 15.6773 14.7195L14.8867 13.7595C14.6483 13.4692 14.3284 13.2568 13.9683 13.1498C13.6082 13.0428 13.2243 13.046 12.866 13.159L11.5597 13.5703C11.2223 13.2221 10.9267 12.8358 10.6787 12.4192C10.4394 11.9979 10.2529 11.5487 10.1235 11.0818V11.0828Z" fill="#1C1E22"/>
</svg>
