<svg xmlns="http://www.w3.org/2000/svg" xmlns:xlink="http://www.w3.org/1999/xlink" width="170.59" height="78.5" viewBox="0 0 170.59 78.5">
  <defs>
    <linearGradient id="linear-gradient" x1="0.301" y1="0.585" x2="0.69" y2="0.417" gradientUnits="objectBoundingBox">
      <stop offset="0" stop-color="#0f2e63"/>
      <stop offset="0.49" stop-color="#093e75"/>
      <stop offset="1" stop-color="#01518a"/>
    </linearGradient>
    <linearGradient id="linear-gradient-2" x1="0.252" y1="0.657" x2="0.75" y2="0.32" gradientUnits="objectBoundingBox">
      <stop offset="0" stop-color="#633177"/>
      <stop offset="0.69" stop-color="#5a296e"/>
      <stop offset="1" stop-color="#512064"/>
    </linearGradient>
  </defs>
  <g id="cerbosysNewSvgWhite" transform="translate(-1955.8 -1381.807)">
    <g id="_584742064" transform="translate(1954.995 1381.806)">
      <path id="Path_372" data-name="Path 372" d="M8822.41,2294.85a.635.635,0,0,1-.857.309,15.734,15.734,0,0,0-2.482-.8,12.674,12.674,0,0,0-3.839-.07,9.323,9.323,0,0,0-4.955,2.393s-.827.827-.856.907c-.17.359-.559.748-.849.269a14.081,14.081,0,0,1-1.2-4.317c.091-1.037-.3-2.632.858-4.447a2.61,2.61,0,0,1,.658-.937c.339-.189.249-1.017.249-1.017a9.852,9.852,0,0,1,.559-3.719c.647-1.216.718-2.333,2.472-3.838s2.114-1.755,2.5-1.794a6.575,6.575,0,0,1,3.369-.409,8.617,8.617,0,0,1,2.751.808s3.142,1.525,4.059,2.632a.9.9,0,0,0,1.605-.06s2.6-1.516,3.858-1.406a10.242,10.242,0,0,1,2.032.359s2.244.837,2.3,4.257-4.526,6.142-4.526,6.142a9.968,9.968,0,0,0-4.655,1.406A8.2,8.2,0,0,0,8822.41,2294.85Z" transform="translate(-8739.042 -2268.398)" fill-rule="evenodd" fill="url(#linear-gradient)"/>
      <path id="Path_373" data-name="Path 373" d="M9825.58,1392.78l-.01.219.01.229-.01.11a.379.379,0,0,1-.269.259l-.46.08a6.942,6.942,0,0,0-2.083.808c-.937.588-1.217.339-1.476.179a7.232,7.232,0,0,0-3.758-2.871c-2.633-.808-5.4,1.2-5.4,1.2s-.328.628-1.405-.239-2.841-2.213-3.769-2.243a9.21,9.21,0,0,0-3.449-.788s-.927-.179-.35-.887a10.031,10.031,0,0,1,4.525-3.938,11.331,11.331,0,0,1,5.245-.728,1.91,1.91,0,0,0,1.874-.319c.689-.7,4.377-1.745,4.377-1.745a11.07,11.07,0,0,1,5.783.18,8.018,8.018,0,0,1,3.679,2.5s1.676,1.874,1.076,3.9a2.608,2.608,0,0,1-1.964,1.785,2.672,2.672,0,0,0-2.153,2.333Z" transform="translate(-9724.71 -1381.806)" fill-rule="evenodd" fill="url(#linear-gradient-2)"/>
      <path id="Path_374" data-name="Path 374" d="M10396.9,2659.17c0,.239.04.458.04.7a5.98,5.98,0,0,1-1.277,3.609,8.932,8.932,0,0,1-2.87,2.453c-.09.05-.169.09-.259.14a2.28,2.28,0,0,1-.27.13c-.489.209-.947.429-1.456.618-.7.249-1.376.528-2.083.758-.11.04-.209.06-.319.11-.2.08-.389.14-.578.219a6.246,6.246,0,0,0-3.092,2.642,5.709,5.709,0,0,0-.488,1.156,7.1,7.1,0,0,0-.09,3.111,2.736,2.736,0,0,0,.58,1.306l.418.528c.06.06.1.09.159.16a3.4,3.4,0,0,0,.479.449,2.128,2.128,0,0,0,.17.149,6.6,6.6,0,0,0,3.07,1.336,8.784,8.784,0,0,0,3.9-.279l.9-.349a5.454,5.454,0,0,0,.818-.449,3.9,3.9,0,0,0,1.027-.867c.249-.329.278-.558.8-.558a2.988,2.988,0,0,1,.568.149,4.617,4.617,0,0,0,1.057.08,3.454,3.454,0,0,0,.967-.189,5.232,5.232,0,0,0,1.217-.538l.708-.469c.18-.13.289-.548.588-.11.21.309.379.638.6.937a1.483,1.483,0,0,1,.09.14c.209.3.448.578.678.857l.519.6c.129.16.3.3.438.449l.708.618a8.765,8.765,0,0,0,1.286.907,9.988,9.988,0,0,0,1.177.6c.1.04.219.09.318.12a7.167,7.167,0,0,0,3.729.269,10.015,10.015,0,0,0,1.635-.509,6.092,6.092,0,0,0,.958-.479c.21-.14.459-.5.14-.688a4.269,4.269,0,0,0-.987-.279,3.168,3.168,0,0,1-2-1.356,2.745,2.745,0,0,1-.252-2.174c.31-.688.689-.758,1.287-1.226a13.578,13.578,0,0,0,1.325-1.187,15.142,15.142,0,0,0,1.417-1.584,12.7,12.7,0,0,0,1.156-1.864,7.806,7.806,0,0,0,.566-1.436,6.4,6.4,0,0,0-.158-4.118,4.636,4.636,0,0,0-.508-1.047,2.538,2.538,0,0,0-.579-.449,4.576,4.576,0,0,0-4.187-.4l-.669.319a3.583,3.583,0,0,0-.606.409,3.33,3.33,0,0,0-1.247,1.755,3.245,3.245,0,0,0,.18,2.292c.179.428.508.628.508,1.216,0,.678-1.007.578-1.366.189a6.223,6.223,0,0,1-.787-2.9,4,4,0,0,1,.946-2.682l.6-.5c.2-.14.469-.359.469-.658a1.023,1.023,0,0,0-.2-.6l-.888-1.227a7.98,7.98,0,0,0-1.048-1.037,8.527,8.527,0,0,0-2.191-1.326,7.4,7.4,0,0,0-5.756.229,5.623,5.623,0,0,0-1.245.628c-.09.07-.169.14-.259.209a1.416,1.416,0,0,0-.449.977Z" transform="translate(-10300.003 -2643.94)" fill="#ed6b15" fill-rule="evenodd"/>
      <path id="Path_375" data-name="Path 375" d="M12532,1769.62h.06c-.03.1-.01,1.814-.01,1.9,0,.14-.021,1.8.01,1.894l-.06.01a.639.639,0,0,0,.22.11,7.507,7.507,0,0,1,1.506.968,12.356,12.356,0,0,1,.906.847l.488.578a10.054,10.054,0,0,1,.827,1.276l.24.479c.14.319.14.837.608.758l1.137-.279a8.054,8.054,0,0,1,2.6-.1c.967.189,1.246.628,1.546.538.338-.11.259-.857.229-1.147l-.109-1.306a14.272,14.272,0,0,0-2.562-6.63l-.967-1.137-1.127-1.007-.827-.588c-.429-.269-.509-.3-.888-.528a10.672,10.672,0,0,0-1.993-.827c-.3-.1-.908-.339-1.106-.19-.22.16.029.658.108,1.107a4,4,0,0,1-.119,1.854l-.09.269a5.429,5.429,0,0,1-.48.927c-.048.07-.1.13-.147.209Z" transform="translate(-12426.544 -1761.383)" fill="#1b8303" fill-rule="evenodd"/>
      <path id="Path_376" data-name="Path 376" d="M9069,4096.05c0,.5.12.618.508.927l.34.3a10.128,10.128,0,0,0,4.825,2.243,8.991,8.991,0,0,0,3.141-.08,10.039,10.039,0,0,0,2.621-.958,8.19,8.19,0,0,0,.828-.5c.319-.279.1-.728.021-1.057-.058-.227-.1-.457-.14-.688a8.6,8.6,0,0,1-.16-1.825c0-.658.39-.917-.757-1.436a10.992,10.992,0,0,0-2.512-.778,8.2,8.2,0,0,0-6.143,1.057,9.086,9.086,0,0,0-.777.548,8.559,8.559,0,0,0-.718.628l-.569.608c-.029.04-.049.05-.079.09-.05.07-.09.12-.14.189a1.966,1.966,0,0,0-.278.738Z" transform="translate(-8998.069 -4065.113)" fill="#ac0321" fill-rule="evenodd"/>
      <path id="Path_377" data-name="Path 377" d="M12266.3,2212.81l.06-.01c-.03-.1-.01-1.755-.01-1.894,0-.1-.021-1.814.01-1.9h-.06l-.03.03a5.146,5.146,0,0,1-.848.827,1.05,1.05,0,0,1-.378.219,2.781,2.781,0,0,0-1.338,1.007c-.4.739-.089,1.376.689,1.276a5.324,5.324,0,0,1,1.685.379.871.871,0,0,0,.228.08Z" transform="translate(-12160.741 -2200.765)" fill="#1b8303" fill-rule="evenodd"/>
      <path id="Path_378" data-name="Path 378" d="M8494.17,4738.15a9.528,9.528,0,0,1,4.525.876l.748.4a9.034,9.034,0,0,1,4.228,6.142,8.031,8.031,0,0,1,.14,1,10.6,10.6,0,0,1-.15,3.22,9.231,9.231,0,0,1-1.326,3.32,8.421,8.421,0,0,1-.738,1c-.088.12-.2.189-.288.3a6.133,6.133,0,0,1-.728.688l-.508.4a9.407,9.407,0,0,1-5.275,1.694,9.2,9.2,0,0,1-9.37-7.377,12.484,12.484,0,0,1-.23-2.1,15.67,15.67,0,0,1,.209-2.083,9.342,9.342,0,0,1,2.063-4.316c.1-.129.17-.18.279-.31l.738-.688c.08-.06.09-.08.17-.14.119-.1.219-.179.329-.259.229-.16.438-.3.688-.458a9.41,9.41,0,0,1,2.472-1.028,9.207,9.207,0,0,1,2.045-.278Zm-10.16,19.86h1.037l.169-5.274a13.394,13.394,0,0,0,1.485,2.153l.43.469a10.06,10.06,0,0,0,3.979,2.473,11.337,11.337,0,0,0,8.074-.4c.3-.139.559-.3.848-.438.131-.069.26-.159.39-.239s.259-.169.4-.259l1.676-1.516a8.327,8.327,0,0,0,.848-1.1,7.181,7.181,0,0,0,.479-.808,11.763,11.763,0,0,0,.459-9.891,8.059,8.059,0,0,0-.629-1.276,9.083,9.083,0,0,0-.788-1.157,9.6,9.6,0,0,0-2.332-2.153c-.31-.179-.679-.429-1.007-.587a2.42,2.42,0,0,1-.24-.11,10.645,10.645,0,0,0-4.137-1,10.391,10.391,0,0,0-4.027.549,9.8,9.8,0,0,0-2.713,1.387l-.508.389a2.014,2.014,0,0,1-.25.2,9.251,9.251,0,0,0-1.315,1.4,8.741,8.741,0,0,0-.738,1.066l-.289.509c-.04.069-.02.04-.06.08V4730H8484v27.976Z" transform="translate(-8418.902 -4686.777)" fill="#fff" fill-rule="evenodd"/>
      <path id="Path_379" data-name="Path 379" d="M4421.3,5425.18a9.186,9.186,0,0,1,4.039.926c.14.07.208.121.358.2a7.873,7.873,0,0,1,1.007.658,8.3,8.3,0,0,1,.887.778l.508.567a8.885,8.885,0,0,1,1.275,2.055,10.511,10.511,0,0,1,.849,3.588h-18.036a9.346,9.346,0,0,1,1.694-5,9,9,0,0,1,2.932-2.651,9.507,9.507,0,0,1,4.5-1.126Zm-.379,20.278a10.206,10.206,0,0,0,3.948-.6,7.417,7.417,0,0,0,1.336-.607,10.7,10.7,0,0,0,4.277-4.467c.119-.219.208-.428.318-.647h-1.316a11.1,11.1,0,0,1-.947,1.516c-.279.369-.489.578-.758.907a5.272,5.272,0,0,1-.429.4l-.927.737a9.319,9.319,0,0,1-7.218,1.315,7.845,7.845,0,0,1-.9-.25c-.309-.109-.548-.208-.828-.318a6.215,6.215,0,0,1-.737-.369l-.519-.319a9.26,9.26,0,0,1-3.809-5.623,10.24,10.24,0,0,1-.269-2.023h19.172c.13,0,.1-.09.11-.2a6.7,6.7,0,0,0,0-.907,9.081,9.081,0,0,0-.109-1.207,10.461,10.461,0,0,0-.888-3.03,10.851,10.851,0,0,0-1.536-2.414l-.627-.658a10,10,0,0,0-2.313-1.635,9.783,9.783,0,0,0-4.2-1.078,9.954,9.954,0,0,0-3.18.33,7.373,7.373,0,0,0-.978.309,9.521,9.521,0,0,0-.926.4,10.241,10.241,0,0,0-1.207.7c-.08.05-.11.08-.179.13a10.3,10.3,0,0,0-1.575,1.375,10.93,10.93,0,0,0-1.106,1.455,10.511,10.511,0,0,0-1.356,3.19,10.057,10.057,0,0,0-.29,1.655c-.02.389-.08.837-.068,1.247,0,.209.04.339.04.588a11.572,11.572,0,0,0,1.007,4.157,10.22,10.22,0,0,0,1.216,2c.1.13.189.229.3.359l.608.678a10.9,10.9,0,0,0,2.662,1.874c.169.07.259.12.429.189a10.181,10.181,0,0,0,3.758.817Z" transform="translate(-4386.399 -5373.85)" fill="#fff" fill-rule="evenodd"/>
      <path id="Path_380" data-name="Path 380" d="M11003,5445.25a9.762,9.762,0,0,1-4.705-1.017l-.38-.209c-.13-.07-.239-.149-.368-.229s-.22-.14-.359-.239a7.271,7.271,0,0,1-1.256-1.067,9.981,9.981,0,0,1-1.895-10.747c.119-.269.229-.527.369-.777s.269-.479.429-.718a9.165,9.165,0,0,1,1.625-1.833c.1-.09.2-.161.31-.25a9.553,9.553,0,0,1,5.563-1.964,9.731,9.731,0,0,1,4.546.856,9.021,9.021,0,0,1,3.779,3.221,9.968,9.968,0,0,1,1.585,5.454,9.455,9.455,0,0,1-4.248,8.026c-.129.08-.238.16-.358.229s-.259.14-.379.209-.259.12-.4.189a9.666,9.666,0,0,1-3.859.856Zm-11-10.02a11.189,11.189,0,0,0,.968,5.144l.667,1.236a2.106,2.106,0,0,0,.12.189,13.265,13.265,0,0,0,1,1.286c.1.12.219.219.328.329a10.721,10.721,0,0,0,7.287,3.041,11.11,11.11,0,0,0,3.988-.558,6.979,6.979,0,0,0,.958-.369,11.673,11.673,0,0,0,1.675-.929l.928-.708c.069-.07.1-.1.179-.169a10.592,10.592,0,0,0,2.472-3.419,10.921,10.921,0,0,0,.659-1.944c.937-4.307-.449-8.943-4.108-11.436a10.606,10.606,0,0,0-5.933-1.935,10.736,10.736,0,0,0-3.13.3c-.369.09-.668.18-1,.29a10.182,10.182,0,0,0-2.562,1.287,8.077,8.077,0,0,0-1.225,1c-.081.08-.12.08-.19.16l-.888,1.027a10.08,10.08,0,0,0-1.205,2.014c-.061.14-.12.27-.19.439s-.109.309-.179.479a10.94,10.94,0,0,0-.6,3.25Z" transform="translate(-10901.894 -5374.856)" fill="#fff" fill-rule="evenodd"/>
      <path id="Path_381" data-name="Path 381" d="M17574.4,5434.2a4.618,4.618,0,0,0,.4,2.313,3.963,3.963,0,0,0,1.225,1.484,4.955,4.955,0,0,0,1.025.6,10.681,10.681,0,0,0,1.617.577c1.477.4,2.273.449,3.619.718a16.554,16.554,0,0,1,3.48.887,4.252,4.252,0,0,1,2.324,2.014,4.43,4.43,0,0,1-.055,3.581,4.191,4.191,0,0,1-.916,1.225,4.65,4.65,0,0,1-.945.688c-.131.07-.209.129-.357.2a10.346,10.346,0,0,1-6.682.419,6.092,6.092,0,0,1-2.652-1.545l-.6-.817a5.672,5.672,0,0,1-.678-2.133H17574a6.354,6.354,0,0,0,1.066,3.13,7.606,7.606,0,0,0,.758.907l.709.567a8.961,8.961,0,0,0,4.914,1.436,11.323,11.323,0,0,0,3.631-.418,7.429,7.429,0,0,0,2.7-1.4,6.493,6.493,0,0,0,1.154-1.345,5.059,5.059,0,0,0,.736-2.324v-.877a4.838,4.838,0,0,0-1.963-3.668c-3.07-2.133-8.375-1.556-10.787-3.291a2.057,2.057,0,0,1-.209-.168,2.284,2.284,0,0,1-.541-.568,3.3,3.3,0,0,1-.545-2.125,3.785,3.785,0,0,1,1.873-3.09c1.744-1.167,4.865-1.3,6.85-.708a4.878,4.878,0,0,1,3.01,2.253,4.183,4.183,0,0,1,.379.938,4.606,4.606,0,0,1,.121.538,3.978,3.978,0,0,1,.068.588h1.176a5.8,5.8,0,0,0-.646-2.512c-1.127-2.224-3.889-3.28-6.25-3.28a10.114,10.114,0,0,0-3.57.418,6.232,6.232,0,0,0-3.531,2.5,4.692,4.692,0,0,0-.707,2.313Z" transform="translate(-17418.275 -5378.818)" fill="#fff" fill-rule="evenodd"/>
      <path id="Path_382" data-name="Path 382" d="M13523.4,5431.27a4.544,4.544,0,0,0,.759,2.881l.519.588a6.921,6.921,0,0,0,2.921,1.446c1.526.389,2.214.449,3.64.728a16.33,16.33,0,0,1,3.479.887,4.174,4.174,0,0,1,2.333,2,4.43,4.43,0,0,1-.018,3.579,5.422,5.422,0,0,1-3.881,2.682c-2.2.488-5.233.239-6.948-1.037a4.786,4.786,0,0,1-1.914-2.972c-.039-.2-.061-.429-.111-.618H13523a6.616,6.616,0,0,0,.748,2.612,5.789,5.789,0,0,0,1.554,1.813,6.589,6.589,0,0,0,1.588.908,6,6,0,0,0,.639.229,9.835,9.835,0,0,0,1.374.319c3.15.528,7.377-.22,9.012-2.971a5.221,5.221,0,0,0,.759-3.051,5.136,5.136,0,0,0-.6-2.353,4.071,4.071,0,0,0-.626-.867,6.5,6.5,0,0,0-2.792-1.645c-2.583-.857-6.5-.967-8.345-2.063-.18-.11-.279-.16-.449-.279a2.965,2.965,0,0,1-.569-.539,1.354,1.354,0,0,1-.159-.22,3.736,3.736,0,0,1,.08-3.9,4.587,4.587,0,0,1,2.055-1.655,6.6,6.6,0,0,1,.916-.329,10.212,10.212,0,0,1,5.146.029,5.662,5.662,0,0,1,1.775.857,4.425,4.425,0,0,1,.985.987,4.147,4.147,0,0,1,.638,1.336,4.95,4.95,0,0,1,.191,1.126h1.175a5.039,5.039,0,0,0-.219-1.446,5.286,5.286,0,0,0-1.895-2.812,5.787,5.787,0,0,0-.957-.608,9.042,9.042,0,0,0-4.727-.928,7.9,7.9,0,0,0-5.523,2.074,4.78,4.78,0,0,0-1.375,3.2Z" transform="translate(-13407.663 -5375.851)" fill="#fff" fill-rule="evenodd"/>
      <path id="Path_383" data-name="Path 383" d="M2036,5432.45a11.066,11.066,0,0,0,1.376,5.753,8.719,8.719,0,0,0,.488.788,10.276,10.276,0,0,0,6.072,4.188,11.3,11.3,0,0,0,5.593-.061,9.923,9.923,0,0,0,3.36-1.635,9.208,9.208,0,0,0,1.545-1.436l.449-.559a9.564,9.564,0,0,0,1.106-1.875,3.734,3.734,0,0,0,.289-.718h-1.246l-.579,1.077a8.925,8.925,0,0,1-7.6,4.3,9.183,9.183,0,0,1-2.572-.27c-.329-.08-.578-.159-.877-.258a9.053,9.053,0,0,1-4.786-3.918c-.08-.14-.13-.239-.209-.379a10.193,10.193,0,0,1-.937-6.838,9.449,9.449,0,0,1,1.346-3.271,8.813,8.813,0,0,1,3.719-3.22,7.794,7.794,0,0,1,.807-.339c.309-.1.568-.188.877-.269a10.163,10.163,0,0,1,4.925.03c.12.03.209.05.329.09a8.435,8.435,0,0,1,3.858,2.382,9.818,9.818,0,0,1,1.376,1.955c.05.109.09.168.14.278s.08.189.13.289h1.246a8.422,8.422,0,0,0-.588-1.356,9.875,9.875,0,0,0-4.556-4.256c-.239-.11-.469-.189-.718-.291a10.722,10.722,0,0,0-4.2-.628,10.836,10.836,0,0,0-4.138.957,9.789,9.789,0,0,0-1.6.927,9.024,9.024,0,0,0-1.386,1.175l-.449.489c-.06.07-.09.089-.15.169l-.548.738a6.553,6.553,0,0,0-.489.789,8.621,8.621,0,0,0-.788,1.774,10.864,10.864,0,0,0-.6,3.25v.149Z" transform="translate(-2035.188 -5371.89)" fill="#fff" fill-rule="evenodd"/>
      <path id="Path_384" data-name="Path 384" d="M15341.3,5489.85h-1.5V5491h1.745a8.07,8.07,0,0,0,2.661-.418,4.876,4.876,0,0,0,.938-.479,4.976,4.976,0,0,0,.41-.29,7.748,7.748,0,0,0,1.365-1.444c.11-.141.189-.271.3-.43a22.3,22.3,0,0,0,1.486-2.751l1.354-2.912c.13-.319.31-.619.449-.937l.907-1.944c.618-1.237,1.187-2.623,1.8-3.849.479-.937.877-1.934,1.355-2.881l2.253-4.815c.09-.169.14-.309.22-.479.479-.947.878-1.934,1.356-2.881.09-.18.139-.319.229-.5s.14-.309.22-.479a2.247,2.247,0,0,0,.219-.508h-1.315l-.648,1.4c-.06.11-.069.179-.13.289l-1.066,2.263c-.647,1.306-1.187,2.672-1.844,3.979-.06.109-.08.189-.13.289s-.1.189-.14.279l-1.316,2.841c-.09.189-.17.369-.269.568-.061.11-.07.179-.13.289l-.27.568c-.6,1.216-1.116,2.473-1.725,3.689l-.259.568c-.09.209-.189.378-.26.568a2.155,2.155,0,0,1-.278.549,24.94,24.94,0,0,0-1.1-2.265l-1.246-2.562c-.05-.11-.09-.169-.14-.279-.1-.2-.179-.359-.279-.558l-5.583-11.336c-.189-.389-.368-.758-.567-1.136H15339c.05.219,2.113,4.327,2.243,4.586,2.362,4.716,4.655,9.471,7.029,14.188l.338.708c.03.1.011.1-.06.219-.419.8-1.076,2.284-1.545,3.24a12.76,12.76,0,0,1-.747,1.307c-.1.14-.181.278-.28.418a6.7,6.7,0,0,1-.638.748,5.1,5.1,0,0,1-4.049,1.427Z" transform="translate(-15205.559 -5412.5)" fill="#fff" fill-rule="evenodd"/>
      <path id="Path_385" data-name="Path 385" d="M11743,6576.89a3.947,3.947,0,0,0,.4,2.063,4.2,4.2,0,0,0,3.253,2.324,4.768,4.768,0,0,0,.926.009,4.167,4.167,0,0,0,3.708-3.948,4.057,4.057,0,0,0-.387-1.964,4,4,0,0,0-.591-.907l-.5-.5a4.169,4.169,0,0,0-5-.26c-.1.08-.179.13-.278.21a1.252,1.252,0,0,1-.13.108,4.1,4.1,0,0,0-1.415,2.852Z" transform="translate(-11645.409 -6511.426)" fill="#fff" fill-rule="evenodd"/>
      <path id="Path_386" data-name="Path 386" d="M9163,6577.26a3.979,3.979,0,0,0,.578,2.4,4.267,4.267,0,0,0,3.579,2.034l.888-.12a4.15,4.15,0,0,0,2.472-6.461,2.543,2.543,0,0,0-.21-.269,4.127,4.127,0,0,0-4.865-1.107,4.22,4.22,0,0,0-2.3,2.663,3.79,3.79,0,0,0-.14.868Z" transform="translate(-9091.132 -6521.795)" fill="#fff" fill-rule="evenodd"/>
      <path id="Path_387" data-name="Path 387" d="M7030.17,5463.61c0-.239-.02-.369-.03-.558s.01-.4,0-.588a4.443,4.443,0,0,1-.029-.558c0-.25-.03-.379-.042-.588-.009-.439-.029-.748-.029-1.176l-.07-1.147H7029v20.7h1.246V5467.73a8.533,8.533,0,0,1,1.207-4.307,7.222,7.222,0,0,1,.777-1.057,6.22,6.22,0,0,1,.966-.878c1.974-1.484,3.739-1.355,6.1-1.355v-1.176a12.762,12.762,0,0,0-4.646.448,7.287,7.287,0,0,0-3.359,2.4,7.42,7.42,0,0,0-.977,1.555,1.057,1.057,0,0,1-.06.12.162.162,0,0,1-.041.07.49.49,0,0,1-.04.06Z" transform="translate(-6978.408 -5408.467)" fill="#fff" fill-rule="evenodd"/>
    </g>
  </g>
</svg>
