<svg width="63" height="63" viewBox="0 0 63 63" fill="none" xmlns="http://www.w3.org/2000/svg">
<circle cx="31.5" cy="31.5" r="31.5" fill="#474747"/>
<path d="M45.99 15.75H17.01C16.3131 15.75 15.75 16.3131 15.75 17.01V45.99C15.75 46.6869 16.3131 47.25 17.01 47.25H45.99C46.6869 47.25 47.25 46.6869 47.25 45.99V17.01C47.25 16.3131 46.6869 15.75 45.99 15.75ZM42.3517 24.9441H39.8357C37.863 24.9441 37.4811 25.8812 37.4811 27.2593V30.2951H42.1903L41.5761 35.0477H37.4811V47.25H32.571V35.0516H28.4642V30.2951H32.571V26.7907C32.571 22.7233 35.0556 20.5065 38.6859 20.5065C40.4263 20.5065 41.9186 20.6364 42.3557 20.6955V24.9441H42.3517Z" fill="white"/>
</svg>
