<svg xmlns="http://www.w3.org/2000/svg" width="23" height="16.185" viewBox="0 0 23 16.185">
  <path id="email_icon" d="M21.357,0H1.643A1.656,1.656,0,0,0,.481.474,1.606,1.606,0,0,0,0,1.618V14.566a1.606,1.606,0,0,0,.481,1.144,1.655,1.655,0,0,0,1.162.474H21.357a1.656,1.656,0,0,0,1.162-.474A1.606,1.606,0,0,0,23,14.566V1.618A1.607,1.607,0,0,0,22.519.474,1.656,1.656,0,0,0,21.357,0ZM19.55,1.618,11.5,7.105,3.45,1.618ZM1.643,14.566V2.355l9.389,6.4a.832.832,0,0,0,.936,0l9.389-6.4V14.566Z" fill="#fff"/>
</svg>
