<svg xmlns="http://www.w3.org/2000/svg" width="15.125" height="22.488" viewBox="0 0 15.125 22.488">
  <path id="Location_icon" d="M7.562,0A7.066,7.066,0,0,0,2.218,2.591,9.651,9.651,0,0,0,0,8.835a9.745,9.745,0,0,0,1.523,5.3s.206.317.24.363l5.8,7.99,5.8-7.994c.03-.043.237-.359.237-.359v0a9.742,9.742,0,0,0,1.523-5.3,9.651,9.651,0,0,0-2.218-6.244A7.066,7.066,0,0,0,7.562,0Zm0,12.047a2.478,2.478,0,0,1-1.528-.541,3.157,3.157,0,0,1-1.013-1.442,3.717,3.717,0,0,1-.156-1.856,3.41,3.41,0,0,1,.753-1.645,2.654,2.654,0,0,1,1.408-.879,2.384,2.384,0,0,1,1.589.183A2.892,2.892,0,0,1,9.849,7.05a3.609,3.609,0,0,1,.463,1.785,3.51,3.51,0,0,1-.806,2.271A2.57,2.57,0,0,1,7.562,12.047Z" fill="#fff"/>
</svg>
