<svg xmlns="http://www.w3.org/2000/svg" width="20.331" height="20.638" viewBox="0 0 20.331 20.638">
  <path id="Whatsapp_icon" d="M17.441,3.789a10.091,10.091,0,0,0-3.3-2.244A9.971,9.971,0,0,0,10.251.764,10.256,10.256,0,0,0,.085,11.079a10.433,10.433,0,0,0,1.357,5.157,10.552,10.552,0,0,0,1.652,2.228,11.468,11.468,0,0,0,2.3,1.681A10.051,10.051,0,0,0,10.246,21.4h0A10.256,10.256,0,0,0,20.416,11.086a10.389,10.389,0,0,0-.768-3.951A10.268,10.268,0,0,0,17.441,3.789Zm-7.19,15.872h0a8.338,8.338,0,0,1-4.3-1.2l-.308-.186L4.125,17.063l-.832-1.1-.2-.324A8.653,8.653,0,0,1,1.8,11.079a8.525,8.525,0,0,1,8.453-8.574,8.288,8.288,0,0,1,3.235.65A8.387,8.387,0,0,1,16.227,5.02,8.534,8.534,0,0,1,18.061,7.8a8.636,8.636,0,0,1,.638,3.284A8.525,8.525,0,0,1,10.251,19.661Zm4.635-6.422c-.255-.13-1.5-.753-1.736-.839s-.4-.129-.571.129-.657.838-.805,1.01-.3.193-.55.064a6.916,6.916,0,0,1-2.043-1.279,7.75,7.75,0,0,1-1.413-1.786c-.148-.259-.016-.4.112-.526s.254-.3.38-.452a1.768,1.768,0,0,0,.254-.43.477.477,0,0,0-.022-.452c-.063-.13-.572-1.4-.784-1.914-.2-.5-.414-.433-.571-.44s-.324-.01-.486-.009A.924.924,0,0,0,6.28,6.4a.937.937,0,0,0-.306.233,2.908,2.908,0,0,0-.889,2.15,5.059,5.059,0,0,0,1.037,2.667,11.393,11.393,0,0,0,4.339,3.892,14.877,14.877,0,0,0,1.448.544,3.44,3.44,0,0,0,1.6.1,2.614,2.614,0,0,0,1.714-1.225,2.186,2.186,0,0,0,.148-1.226C15.309,13.433,15.138,13.367,14.885,13.238Z" transform="translate(-0.085 -0.764)" fill="#fff"/>
</svg>
