<svg xmlns="http://www.w3.org/2000/svg" xmlns:xlink="http://www.w3.org/1999/xlink" width="2314" height="1104" viewBox="0 0 2314 1104">
  <defs>
    <clipPath id="clip-World_map">
      <rect width="2314" height="1104"/>
    </clipPath>
  </defs>
  <g id="World_map" data-name="World map" clip-path="url(#clip-World_map)">
    <rect width="2314" height="1104"/>
    <g id="shokunin_World_Map" transform="translate(285.262 106.021)">
      <path id="Path_1449" data-name="Path 1449" d="M388.514,271.916,381,281.937l-5.009,5.012-10.021,5.51-1.505,4.511s-4.01,4.01-3.507,6.517a47.458,47.458,0,0,1,.5,7.015s-7.015,6.514-10.023,8.518a48.885,48.885,0,0,0-7.018,6.514,28.619,28.619,0,0,1-4.008,4.01c-1.5,1-4.008,4.008-6.013,7.015s-4.01,5.009-5.012,6.512A31.612,31.612,0,0,0,323.87,353.6c-1.5,5.515-5.513,12.027-5.513,12.027l-1,2.5c.5,8.52.5,10.023,1.505,13.031s2.006,2,1,8.518-1,9.019-2,12.027-4.01,8.516-5.009,11.025,2,7.013,2,7.013,1.505,6.517.5,8.02.5,4.511.5,4.511,6.013,3.507,8.019,5.513,5.513,5.012,6.014,6.514,4.511,8.52,5.012,10.023,4.511,7.013,5.513,8.518,6.013,7.018,6.013,7.018,6.514,5.007,8.02,7.013,6.013,3.006,7.514,4.508,5.012,1,7.015,2.507,6.013-1,8.02,0,7.519-1,9.021-2,5.009-4.508,7.516-3.008,4.008,0,6.013.5,5.009-2,7.013-2,7.015-2.006,8.518-2.006,6.517-3.01,8.523-3.01,4.508-2,7.013-1,1.5-2,6.013-.5,6.014,0,7.516,1.5,3.511,0,5.014,2.008,4.008,3.5,4.508,5.51,3.507,4.012,3.507,4.012l3.008.5s4.012-3.006,5.012-1,5.513,1.505,5.513,1.505l4.508,5.009,1.505,2s3.008,8.02,2.5,11.025-.5,9.52-2,11.023-2.5,8.02-2.5,8.02-2.006,2,2.5,6.014a68.9,68.9,0,0,1,9.021,9.518c1.505,2.006,5.515,7.521,6.011,11.027s1.505,5.51,3.511,10.021,4.508,5.012,5.009,10.026,1.5,5.012,1,8.516-2,4.01-.5,6.514,3.5,7.018,3.008,8.52-1.505,8.017-1.505,8.017l-1,3.008-4.508,8.523-3.008,4.506c-1,3.507-3.006,7.015-2.5,12.027s-2.5,5.009,1.5,10.019,6.011,10.526,8.518,15.037a40.278,40.278,0,0,1,4.508,12.025c.5,3.008,2.507,4.012,3.509,8.019s1.5,6.011,1.5,8.518-.5,9.021.5,10.524,1.5,6.016,2,8.019-1.505,2.507,1.5,6.016,5.012,5.51,7.015,8.017,1.5,1.5,3.008,5.012,3.507,5.515,4.01,8.518,1,10.522,2.5,14.031,3.507,7.018,3.507,7.018,5.515,3.507,7.519,3.006,6.014-5.007,9.021-3.507,5.513,0,8.017,0,5.012-3.008,7.519-3.008,6.011-4.01,8.02-3.006,4.506-1.006,7.013-3.511,4.01-4.506,8.518-8.516,4.01-4.012,7.015-6.517,6.016-8.019,9.522-9.021,4.508-4.506,5.51-7.013a22.545,22.545,0,0,1,3.008-6.016c1.505-2,.5.508,3.008-6.011s5.517-9.019,8.022-10.524,4.008-4.508,5.51-5.012,4.01,1.5,3.008-3.008,0-11.023-1-12.526-2.509,3.5-2.006-4.014,6.013-15.033,6.013-15.033,7.516-9.52,10.023-11.023,3.006-3.006,6.517-5.012,11.023-7.013,11.023-9.52,3.008-9.021,3.008-10.526,0-3.006-1-11.526,1-6.514-2.006-14.532-3.511-18.041-5.513-20.545-1-9.024-1-11.025,3.511-7.015,5.014-9.019S672.664,533,672.664,533s10.021-11.524,13.53-17.034,7.015-10.524,9.52-12.528,8.52-6.519,12.027-11.528,10.524-14.53,11.027-16.037,4.506-6.512,4.506-6.512,5.513-6.517,6.517-10.023,6.009-23.052,5.007-22.05-7.013,2-9.019,2.5,3.01,2.5-11.526,1.505-22.046,1.5-22.046,1.5c-4.513-1-8.019,4.008-9.525-3.008s-2.507-11.023-5.51-16.035-5.014-7.015-9.52-13.532-4.012-3.509-8.022-8.516-5.012-3.511-7.516-10.023-4.509-4.008-7.516-13.029-5.012-10.026-6.515-15.035-3.507-6.517-4.511-11.025-12.526-27.561-14.031-29.066-4.01-9.522-3.509-8.017,7.519,6.514,7.519,6.514,4.008-1.505,5.513-1.505,7.516,5.515,7.516,7.516,10.529,11.528,13.031,18.544,5.517,12.027,6.014,14.031,5.513,10.023,7.519,13.031,8.516,9.019,9.518,12.027,10.526,13.029,10.526,19.543,4.506,15.033,5.009,17.036,9.52,4.513,9.52,4.513l12.029-3.008s18.038-11.528,20.044-11.528,18.043-7.516,18.043-7.516,6.512-6.011,11.021-9.518,9.522-10.021,10.527-13.031,3.005-3.507,7.013-8.02,9.522-9.019,6.016-12.027-5.515-2-10.524-7.015-4.511-4.008-8.02-10.524.5-14.031-7.018-6.512-4.508,9.52-12.027,11.027-10.524,6.512-14.031,1.5-7.013-2-9.021-9.522-3.509-8.02-4.007-11.023,0-3.008-4.01-10.526-1-19.042,1.5-12.528,6.514,7.516,13.031,12.027,9.522,8.02,15.534,8.52,11.025,0,12.027,1,2-.5,4.511.5,3.5-1.5,4.509,2.5,6.515,4.511,9.019,7.015,2.507,1.505,9.024,2.5a125.14,125.14,0,0,0,15.538,1l9.518-.5,11.025,1s8.022,4.511,10.023,4.511,2.5,5.515,7.516,8.52,6.014,3.507,9.019,7.015,2.507,5.012,6.515,8.518,10.529-.5,11.531-2,6.009-4.01,5.012,0,5.007,2.5,3.5,12.027-2.507,7.013,0,13.53,13.53,26.559,14.033,32.572,3.507,4.01,4.007,9.525,3.507,7.514,3.507,11.524,3.511,5.009,4.01,8.02,6.016.5,7.519,0,8.518-7.018,8.518-7.018,3.012-1,2.507-6.014,0-4.008,0-11.524-3.006-7.516-1.5-15.031,5.51-12.029,6.515-15.536,5.012-9.52,7.013-10.023,13.031-6.011,15.538-9.522,6.515-7.516,10.524-11.524,11.023-9.019,12.528-7.516,1,1,3.509,1,7.015,2.006,10.522,2.507,10.527,9.019,12.029,13.53.5,3.507,6.013,10.023,10.524,2.5,10.524,10.522,0,7.516,2.507,10.524,5.51-5.513,8.516-4.508,3.507-1,6.011,7.015,4.008,8.02,4.513,16.037-.5.5-.5,7.013-.5,7.018.5,13.029,4.5,8.022,4.008,9.024c0,0,3.005-8.518,2-14.534s0-14.53,2.507-17.034,5.014-5.012,7.015,1.5,3.008,1.5,7.516,9.019,8.521,6.011,9.021,9.52,3.012,4.012,6.514,7.015,6.515-.5,10.524-3.507,15.033-14.033,15.538-18.544,5.009-3.509-3.01-15.031-8.02-15.536-16.538-22.551-13.528-7.516-7.011-16.538,9.522-15.033,13.53-12.526,11.021,2,11.021,12.027-2,21.046,5.011,9.019,10.527-19.042,8.518-17.034,4.511-4.01,4.511-4.01.5-4.511,9.023-6.514,11.021-3.008,14.031-4.511,11.526-11.528,13.029-16.037,5.513-12.528,4.511-16.035-6.016-20.545-7.018-20.047-.5.5-7.011-6.512-11.027-12.027-12.029-15.035-3.509-3.509-.5-7.516,4.513-3.507,5.014-7.015,4.506-6.514-3.01-4.008-2,1-8.518.5-23.551,3.507-15.031-7.015,11.019-17.036,12.524-17.036,9.023-8.52,9.522-.5,3.507,6.011,4.01,11.023,10.524-5.51,10.524-5.51a15.689,15.689,0,0,1,6.011,3.507c2.507,2.5,2.507,10.524,2.507,10.524s-2-2.507,3.509,1.5,11.524,2,11.524,10.524,0,9.021,3.509,11.025,7.013,1,10.026-1.5,8.015-11.526,8.015-11.526.5-3.509-7.516-8.521a154.82,154.82,0,0,1-16.032-11.023c-3.01-2.5-2.006-10.021,1-13.031s4.51-4.511,3.509-8.518,1.505-7.018,9.021-6.517,9.019-.5,9.019-.5,1.507,1,1.507-2.006,9.518-17.039,7.011-17.039.508-3.507-1-9.019,5.012-14.031-.5-18.041-7.018-6.016-10.524-12.027-3.01-7.015-16.037-8.521-19.042,3.008-22.05-1-4.509,6.011-6.512-6.016,3.008-20.047,3.008-20.047,8.017-5.009,10.019-8.518,10.021-5.012,16.542-2.5,16.032,2,24.054,3.511,7.516,6.512,11.526,0,0-9.522,3.006-13.031,6.515-9.021,9.019-5.515,7.523,7.015,11.533,2.5,5.51-5.009,5.51-5.009l2,2.006s4.511-2.509,4.511,2,4.513,9.525,2.006,13.031-6.011,3.008-6.011,11.526,0,7.018,5.508,14.035,9.021,1,10.023,8.518,2,6.016,7.519,11.025,4.506,5.009,8.518,8.017,6.016,6.016,6.016,1,.5-7.516,0-12.027,4.01-8.02,1-15.536-.5-7.015-6.512-12.528-10.025,1-12.025-7.015,9.518-11.526,12.528-12.528,7.512-7.015,8.514-3.006-7.514,18.542,7.02,3.006,8.017-9.019,8.017-9.019,7.516-1,9.019,0,5.517-4.511,4.008-4.008-16.03-8.02-16.03-8.02L1276.024,81.5s3.511-2.507,6.016-2,3.01-5.012,5.517-5.515,19.541,3.511,23.052,5.515,16.032,2.5,14.528,1.5-9.518-7.015-10.021-9.021-18.041-6.014-23.551-5.513-10.522,2-15.033.5-11.025-5.513-14.534-5.513-47.605-8.518-49.609-8.017-5.014,10.021-6.517,8.518-4.008-1.505-11.028-3.509-16.535-3.509-29.066-4.508-21.042,1-24.551-3.008-11.023-2.5-19.543-3.008-18.542,0-23.052,0-15.031-.5-17.538-1-5.513-4.01-8.518-4.508-2.509-1.5-8.521-2.5-5.512-7.516-7.516-2.006-1,4.01-4.01,6.014-6.013,6.014-8.02,6.014-10.019.5-11.526-.5-4.01-2-9.021-2-5.012.5-11.526-.5-11.526-.5-17.54-3.507S988.884,38.4,983.873,38.9s-5.007-1-12.027-1-15.531,4.01-20.044,4.511-14.53-.5-18.038-2.006S929.252,35.4,916.221,36.9s-20.545,1.505-18.041-2.5,5.513-8.017,7.015-8.518,5.01-3.006,2.5-4.008a29.794,29.794,0,0,0-11.021-3.008c-6.016-.5-5.517,2-14.534,1s5.012-3.507-13.528-3.006-23.052,2-25.056,2-4.513-4.008-9.522,2-12.031,9.52-22.05,10.021-10.524-1-20.042,2.5-15.538-1-13.532,7.015,4.511,11.025,4.511,12.528-4.511,11.526-10.021,5.513-15.538-29.567-11.027-13.53,14.53,21.549,5.012,24.054-8.523-1-10.026-2.006,0-8.017-.5-12.027-1.5-6.514-3.507-8.518-1.505-5.012-5.513-6.014-.5-3.008-7.015-3.008S728.3,33.385,729.8,42.406s3,3.008,7.011,11.526,11.526,2.5,6.016,8.518-20.044,4.01-23.553,1.505-2.5,1-9.024-3.509-4.506-8.02-12.023-4.511S688.207,65.96,685.2,63.453s-10.021,3.507-12.528.5-12.53-3.008-14.532,0-8.019,2.5-16.538,6.514-6.016.5-16.538,9.019-16.54,15.534-20.044,10.021-22.554-15.033-15.035-16.538,11.025-4.508,15.035-1,10.526,2.507,11.524,0,5.515-5.012-.5-8.017-6.514-1-16.035-4.511,0-2.5-13.031-4.511-18.544-3.006-22.05-4.008-8.518,0-13.528-.5-8.518-1.5-13.031-1-7.013-.5-13.029,4.01S514.812,59.946,510.8,63.453s-14.53,10.524-17.537,13.031-13.532,10.522-14.534,13.53,1,5.513-3.008,7.516-8.017,2-11.025,2.5,0-4.511-3.008.5-2,23.052.5,20.545,1-10.522,12.027-3,18.043,6.512,17.54,13.528,7.516,6.514,8.518,8.02,6.013-2.006,6.013-2.006,11.025-7.015,11.025-10.522,7.015-11.526,7.015-11.526-5.014-2.5-5.014-7.516,1.507-6.517,2.507-11.528-5.513,0,9.522-9.522,16.035-3,16.035-3,2,2-.5,5.009-7.015,11.027-8.017,12.027,4.511,9.021,7.013,9.021,7.519-2.006,10.526-1.505,8.017-1.5,9.52-.5,5.012,4.008,2.5,6.514-8.019,5.51-12.025,4.511-10.026-8.02-6.517,2-.5,12.528-3.509,12.027-9.52-5.51-8.518,2.006-6.512,12.526-8.017,12.526a38.778,38.778,0,0,1-4.508-.5s-4.513-.5-7.015-.5-7.519,2.5-9.021,4.511-3.509.5-6.013.5,0-3.008-5.012-4.01-8.017-2-11.023,0-7.516,3.006-9.522,1.5,1-5.014-3.008-3.006-7.015,7.516-8.518,8.02,4.511,0-1.5.5-8.518,2.008-11.526,3.008,1,7.015-4.511,9.019-1.5-2.5-7.015,2-6.517,8.52-8.518,9.021-1.5,1.5-6.013,2-4.008,1-6.517,1.5.5,1.505-5.009.5-9.522,1-8.521,3.008,19.543,7.516,5.513,7.015-9.52,2-6.514,4.008,4.508,4.008,6.014,4.511,4.008,6.517,4.008,6.517,4.01-.5,1.505,3.006,1,4.511-1.505,9.021-2.5,1.5-4.508,2.5-5.012,4.511-10.526,1.5-9.518-4.511-16.035-5.009-2.006-1.5-6.514,2-5.513,7.519-5.009,12.027,1,10.524-.5,13.532-1.5,6.014-.5,10.524A10.977,10.977,0,0,0,376.5,262.4s7.015,1,8.518,1.5,4.511-1,8.518,1.5,8.019,3.511,10.524.5,12.528-6.514,15.538-9.52,5.009-4.008,3.507-7.015,3.008-10.524,5.513-12.027,8.017-3.008,8.017-3.008l6.013-9.019s5.012-5.515,7.516-5.012,16.536,5.515,15.536-1,1-8.52,2.5-6.016,5.513,1.5,5.513,1.5a3.161,3.161,0,0,1,3.507.5c1.5,1.5,3.507,8.02,6.514,9.52s5.513,3.008,7.519,4.008,4.01,0,8.02,3.509,8.017,5.515,8.516,7.015,4.012,5.012,4.012,5.012,3.507,1,2.5,3.008-6.011,8.02-8.518,9.019-9.019-1-6.514,1,6.013,4.511,7.516,3.006,11.023-11.526,11.023-11.526-.5.5,0-2.507,0-6.512,2.507-5.009,4.01,3.509,5.012,1.505,2-1-.5-2.5-8.518-10.023-11.526-10.524-10.526-5.515-10.526-5.515-1.5-1.5-5.009-5.51-4.508-3.008-5.515-6.517-4.01-8.017,1.505-7.015,9.019,4.508,14.031,7.516,4.012,4.008,8.521,7.015,5.014,6.016,8.518,5.515a6.555,6.555,0,0,1,7.519,6.514c0,4.511,1,9.52,2,10.524s4.008,3.008,5.012,5.012,3.008,7.015,4.508,9.019a62.008,62.008,0,0,1,4.511,6.016c1.5,2.5,2-.5,3.507.5s3.509.5,3.509-1.505a52.469,52.469,0,0,1,.5-5.513s7.02-2,5.016-3.008-8.022-7.015-7.519-9.019,0-6.011,2.5-5.51,5.014,5.009,10.526,1,12.027-6.014,10.021,0,.505,7.013,0,13.53,2.008,4.511,5.517,8.02,6.011,4.012,8.516,5.012,6.514.5,10.526,1,6.514-1.505,10.023-.5,11.524-.5,13.029.5,7.519-2,8.017,1.5,2.507-.5,1,7.516a94.632,94.632,0,0,1-3.509,13.53C624.051,299.989,622.047,302.5,619.54,303s-4.008,2-8.516,1.5-10.023,0-16.538-1.5-18.544,1.5-23.553-1.505-12.027-.5-15.037-4.008-8.015-3.008-10.021-5.012-3.006-7.514-3.006.5-4.511,8.518-5.513,12.528,1.5,2-4.012,1.5-7.015,2.5-15.033-3.507-12.027-6.014-16.035-8.52-8.02,4.508-12.027-3.507-9.522-1.505-10.023-8.02,0-6.011.5-10.021,6.014-7.516,3.509-9.019-.5-4.01-4.01-2.5-8.518,2-12.528,3.507,9.019,0-10.524,1.505-25.058,3.507-25.058,3.507-1.5-1-4.01,1-6.014,5.012-9.52,3.509-5.513-1-8.518-.5-5.009-2.5-8.518,0-7.516,3.507-9.021,2.5c-1.559-1.024-4.074-5.032-4.074-5.032Z" transform="translate(383.423 20.589)" fill="#404040"/>
      <path id="Path_1450" data-name="Path 1450" d="M519.419,279.486c-1.5,5.515-7.015,13.53-7.015,13.53l-10.026,5.012s-3.5,3.008-5.51,3.509a56.349,56.349,0,0,0-7.016,3.008s-4.508-1-3.008,3.5,2.006,10.026,1.5,11.526-.5,4.513-.5,8.523-1.5,9.017-4.01,10.019-5.012,2.006-4.511,5.515.5,14.031.5,14.031l6.517,10.023a10.539,10.539,0,0,1,6.014-1.5c4.005,0,8.017-3.5,8.017-3.5s4.513,1,4.008-4.511,2.008-12.027,1.5-13.532,4.513-8.02,4.513-9.52,5.012-8.516,5.012-11.025,3.507-6.514,4.008-9.518,1-10.023,2-12.027a13.323,13.323,0,0,0,1.505-6.013v-6.014l-3.562-11.043Z" transform="translate(587.77 342.751)" fill="#404040"/>
      <path id="Path_1451" data-name="Path 1451" d="M678.782,351.3c-1.5,2-2.5,23.553-3.507,26.058s-3.008,15.536-2,18.539,2.5,14.033,1.5,17.542.5,14.532-2.008,14.031-3.5.5-3.5,2,3.5,4.508,3.5,4.508a65.068,65.068,0,0,0,8.523-.5c2.5-.5,7.516-3.008,11.526-3.008s6.517-3.008,10.021-3.008,11.027-2.5,13.031-1.5,5.01-6.013,8.518-4.508,11.027-3.509,14.534-3.509,5.012-5.515,9.021-4.508,11.526-2,15.035-.505,9.019-5.009,11.524,0,10.026,7.018,10.026,9.522-.508,8.02-.508,8.02l6.016-.5s9.518-6.014,11.025-6.014,5.012-5.009,5.012-2.5-3.01,8.019-4.01,10.522,1,5.515,1,5.515,5.016,2.5,3.01,7.013.5,3.511,0,7.015,0,2,2,4.008,5.519,5.519,8.523,5.014,4.007-3.507,6.515-2,7.514.5,9.017,2.507-9.518,7.013,9.525-1.5,21.042-10.526,23.549-13.534,5.519-6.011,7.519-8.017.505-1.5,6.515-6.013,6.013-2.5,11.531-11.025,9.518-11.524,10.524-13.029,3.006-2,3.507-8.022,4.509-11.524,4.509-13.528,1.5-5.007,1-8.518,2.006-8.516-1-13.528,1.5-7.013-3.008-9.024-7.516-1-8.518-4.508-5.014-3.008-6.517-12.528-7.516-10.526-7.516-10.526-6.013-2.5-4.511-3.5,2.006-8.022,1.507-10.026-.5-6.514-2-9.518-2.507-7.015-4.01-10.526-4.008-4.511-5.012-8.518a19.571,19.571,0,0,0-3.006-6.514c-.505-1-1.51-6.011-2.507-.5s-3.01,16.035-3.01,16.035-4.01,8.523-5.513,11.027-3.006,9.019-5.51,8.516-4.014,2.509-6.014,2-5.012.5-6.515-1-5.513-5.513-7.519-6.016-3.507-4.506-5.012-4.506-4.01-3.511-3.507-5.515,1-6.512,1.5-8.518,3.509-6.517,3.509-6.517,0-3.006-2.507-3.006a69.481,69.481,0,0,1-8.521-.5c-5.51-.5-7.011-1-9.021-1s2.008-1-3.507.5-8.017,5.515-11.526,9.024-.5,2.5-3.5,3.507-2.507-2.507-4.513,3.008,1,7.013-.505,8.017-12.023-3.507-12.023-3.507,2.5-.5.5-3.008-4.007-6.011-7.011-4.508-5.519,2.507-7.519,5.012-2.006,4.508-3.509,6.512-5.51,2-6.014,4.01-.5,7.015-2,7.516-2-2-3.507-2.5-1-4.511-2-2-2,2-3.507,6.011-2.006,7.519-3.509,8.02,0,1-4.513,3.509-5.51,2.5-12.023,5.513-5.009,3.008-9.52,3.507-5.515,2.006-8.521,2.507a12.27,12.27,0,0,0-8.02,4.008,15.486,15.486,0,0,1-7.514,4.511,10.144,10.144,0,0,0-3.918,2.471Z" transform="translate(820.791 338.598)" fill="#404040"/>
      <path id="Path_1452" data-name="Path 1452" d="M711.241,220.975c-2,3.01-8.516,12.027-11.021,12.53s-5.014,3.008-7.018,2.5-6.515,0-8.017,6.514-4.01,10.023-5.517,9.52,2.5,9.52-6.011,5.515-5.51,3.509-6.515,5.515,1.5,7.516,2,9.52a31.393,31.393,0,0,0,4.01,8.516c2,3.008,3.507,6.514,7.015,5.517s14.53,0,14.53,0a24.65,24.65,0,0,0,6.517,1.5c2.5,0,3.008-1,4.509-1s4.509-5.014,4.01-5.513-2-2.006,1-5.014,6.515-4.008,7.018-7.516-1-3.507.5-5.515,5.01-1.5,4.01-3.507,1-1.5-1-5.515-4.511-5.513-2.507-10.524,4.014-6.014,3.511-9.019,2.5-4.01-1-7.519-5.01-4.508-7.516-5.515l-2.471-1.024Z" transform="translate(817.898 270.973)" fill="#404040"/>
      <path id="Path_1453" data-name="Path 1453" d="M733.97,244.482c2.008-.5,9.021-5.513,9.525,3.509s1,6.512,4.01,11.524,5.005,6.519,8.514,4.012,7.516-2.509,8.518-7.015,1-4.511,4.01-4.511,4.01-.5,5.519,1.507,2.5,0,9.017,3.5,12.025,2.5,16.039,6.014,6.014,3.01,11.524,5.012,3.006-1,8.017,4.511,3.012,7.013,5.513,9.52,4.513-2.006,3.509,4.008-8.017,0,2.507,8.516,12.027,10.028,15.531,12.53,6.016,5.515,3.012,5.515-12.53,0-13.53-1.505-5.513-2.507-8.523-6.013-9.518-6.014-11.018-9.019-3.511-4.01-6.016-4.01-5.009,3.006-8.521,6.515-2-2-6.515-.5-9.518-.5-12.027-2.507-2-5.009-6.009-3.507-6.515.5-5.012-2.5.5-7.018.5-7.018,1.507-5.012-2-6.011-3.509-4.508-7.018-5.515a84.454,84.454,0,0,1-9.019-3.507,7.921,7.921,0,0,1-2.006-.5,53.61,53.61,0,0,0-5.513-1.5c-4.007-1-7.018,0-9.019-2.507s-1-6.014-1-6.014,8.017,1,0-5.012l-8.017-6.011a1.1,1.1,0,0,0,.5-1.505c-.512-1.024,5.01-.022,5.01-.022Z" transform="translate(893.398 297.582)" fill="#404040"/>
      <path id="Path_1454" data-name="Path 1454" d="M630.478,224.78a8.221,8.221,0,0,0,6.515,2.006c4.007-.5,7.011,8.017,9.522,11.023s4.01,4.511,9.52,8.02,5.01-3.008,12.528,7.516,4.008,4.01,7.516,10.522,5.513,10.026,7.516,11.533,3.509,5.508,4.012,7.013,4.005,6.011,4.005,7.516,1,5.513-2,9.019-5.515,4.01-5.515,4.01-6.014-3.008-8.017-6.013-4.509-5.513-8.02-11.524-7.516-12.53-9.52-15.536-5.012-6.018-6.515-9.021-5.513-12.027-7.516-13.031-2.507-4.008-6.016-7.516-3.006-6.514-4.509-8.518-5.01-6.519-5.01-6.519l1.469-.49Z" transform="translate(771.377 275.672)" fill="#404040"/>
      <path id="Path_1455" data-name="Path 1455" d="M266.128,642.482c-3.509-2-11.025-5.513-13.53-7.516s-10.021-13.033-10.021-13.033l-5.515-10.524s-6.512-8.017-5.009-11.023,4.511-5.012,4.511-6.514,3.006-5.515.5-7.015-2.5-2-4.01-6.514-1.5-8.523-3.507-9.522-3.509-7.516-5.513-8.017-4.01-4.01-4.01-4.01L217.016,518.2s-1-18.539-2-22.551,1.5-12.526-1-20.044.5-16.536-1-19.543,1-11.524-.5-19.541,6.014-18.041,0-21.046-1.5-7.519-6.514-7.519-8.518-2.507-13.029-6.011-13.031-10.026-15.536-12.532S166.9,380.391,164.4,378.387s-5.012-10.524-7.015-13.031-3.006-10.019-6.014-14.53-7.015-12.025-8.02-13.53-12.027-14.532-12.027-14.532l1-8.017s7.516-4.511,6.514-6.014.5-3.01-3.008-6.014a7.434,7.434,0,0,1,0-11.025c3.008-2.509,7.516-10.526,7.516-10.526l7.516-12.526s6.016-6.519,6.016-11.027,8.518-7.514,3.507-11.524-2.5-7.519-4.01-10.526-.5-5.009,4.01-8.017,12.528-14.031,12.528-14.031a65.061,65.061,0,0,1,7.516-1.505c1.5,0,4.01-16.039,8.52-5.515s6.014,5.012,4.511,12.528,2,6.016,4.008,4.012-1,1.5,3.006-7.521,2.507-12.025,5.012-9.518,3.507,3.008,8.017,4.511,6.014,1,7.514,4.008,1-1,9.522.5,20.545-3.008,19.042,2-4.511-.5,2.5,5.012,8.02,6.514,12.027,7.519,7.516.5,13.532,6.514,7.516,6.514,9.019,9.518,4.008,1,6.514,4.01,6.014,3.01,9.52,3.01,0-3.01,5.513,1,9.522,4.506,12.027,12.526,7.516,7.519,3.507,15.538S311.72,293.2,315.227,292.7s10.023-3.511,12.027-3.008,3.006-1.5,6.014,0,3.509-2,3.008,1.5-.5,0-.5,3.509-1-3.509,5.012-2,2.5-3.01,9.52,3.507,7.018,4.513,9.52,8.02,5.012-2,6.517-.5,6.014.5,10.524,1.5,1.5-3.006,8.52,1.5,14.031,3.006,15.534,7.015,5.515,2.5,7.516,5.012,3.006-1,5.012,2.507,8.019,2.5,7.015,6.009,1.5,1.505.5,6.514-4.511,13.033-7.514,15.035-3.006,4.511-5.012,7.015-1.5-2.5-4.01,4.511-2,8.02-4.008,14.532-.5,0-2,6.514-.5,10.524-2,18.043-1,7.516-2,13.029,2.5-2.5-2.006,9.019-5.009,11.023-6.512,16.037.5,1-5.012,4.01-2.5,2-9.021,4.01-14.532,4.012-17.036,4.511-12.528,3.507-9.52,9.518,3.008,7.018,0,14.536-7.516,10.023-7.516,13.528-2.006,7.013-2.5,9.52,4.508-2.507-1.5,5.012-6.514,5.513-8.52,10.023,0,1-2,4.508-7.015,5.009-7.015,5.009.5,2.507-1.505,1.505-1.5.5-9.021-1.505-8.518-7.011-9.52-3.507.5,5.515,5.012,9.021,12.027,4.508,10.021,8.019a35.878,35.878,0,0,1-3.507,5.513c-1.505,2.006,2,.5-1.505,2.006s-5.513,8.02-7.015,8.02-2.507,2.5-4.511,1.5-7.013-4.511-8.017-2.507-3.008-2.507-2.507,4.508,1.505,11.025-1,12.53-8.52,0-8.52,0l-1-2.507-3.507,1s-1.5,6.014,1,7.015,2,2,4.508,5.009,1,8.521,1,8.521,0,1.505-2.5,4.01a15.256,15.256,0,0,0-4.01,6.013c-.5,1.5-3.509,8.02,1,7.516s8.02-3.008,8.02,5.012,2,6.016-.5,11.526-4.511,6.013-5.012,11.023.5,5.513,1.505,8.521,3.509,1.5,1,3.008c-2.494,1.425-10-.067-10-.067Z" transform="translate(161.049 248.861)" fill="#404040"/>
      <path id="Path_1456" data-name="Path 1456" d="M297.889,448.376l-3.507-5.009s-1.5-3.01-4.01-3.509-8.02-7.015-8.02-7.015a7.468,7.468,0,0,1-2.5-5.51c0-3.509-2.006-9.019-.5-15.033s2.006-13.53,1.505-15.536,2.5-2.5-1-4.511-10.524-2.5-15.035-2.5a35.787,35.787,0,0,0-11.025,2c-1,.5,5.513-15.033,6.514-17.537s5.513-13.532,5.513-15.033,1.5-2.006-1.5-4.008-8.017-3.008-11.025-1.505-2.5-2-5.009,4.008-5.012,12.53-8.02,13.532-9.019,4.01-9.019,4.01-7.516-.5-10.023-1-13.029-6.014-15.033-9.52-3.006-11.027-3.006-14.532,5.51-14.031,5.009-16.538S213.7,321.1,213.2,319.594s1-6.514,2.5-8.518,9.021-4.511,11.025-6.514a22.973,22.973,0,0,1,9.019-5.513c3.507-1,6.517-2,9.021-2s9.019-5.513,10.021,0,5.515,3.507,8.02,4.008,3.008,3.008,7.015-3.507,8.017-8.52,8.017-7.018,6.514-.5,7.516,1,3.008-1,6.514,2,8.518,3.509,8.017,5.009,2,1.5,2,3.008,2.006-3.509,2.006,5.51,2.5,14.534,2.5,14.534,3.507,7.519,5.009,6.014,4.508-5.51,4.508-5.51,5.012-3.008,1.505-13.532-1-13.53-2-17.039-1-5.515,5.009-10.023,20.545-14.532,24.054-16.536,11.524-7.516,11.524-7.516a7.241,7.241,0,0,0,3.509-5.513c.5-4.008,10.021-11.025,10.524-13.029s7.018-7.013,7.018-7.013,7.013-4.012,6.512-6.514,9.021-7.013,10.524-7.013,9.522,2.5,9.522-2.008,0-5.513,5.012-9.52,11.524-10.023,14.031-10.023,11.025-4.506,14.532-5.51,14.534-6.016,4.511,0-3.509,2.5-5.513,7.516-3.509,11.526,6.014,4.008,9.019-9.021,12.528-9.52,1,1.5,8.518-1,8.02-3.507,8.02-3.507,3.509-3.008,1.5-4.508,2.006-3.509-5.513-.5-7.015,3.509-12.027,2-12.528-1-7.015-6.016,12.528-6.514,8.017-8.518-16.035.5-17.537,1-5.012-.5-8.02,0-2-4.005,0-5.009a86.747,86.747,0,0,1,16.538-6.016c8.017-2,27.563-2.5,32.071-2.5s10.522,1,14.031-1.5,10.524-6.512,11.526-8.52,5.012-5.009,5.012-5.009,4.508-4.511,2-6.514-5.012-6.514-7.015-5.513-.5,7.018-4.508.5-3.509-7.516-5.513-9.019-4.01-.5-2.5-7.516,1-10.023,1-10.023,1.5-6.011,0-6.512-2.5-2-5.009-.5-16.538,8.52-19.543,10.023-7.018-6.014-5.515-9.52.5-1.505-1.5-6.514-10.021-6.016-13.029-6.016-10.021-4.511-12.027-1.5S424.171,97.6,422.163,98.6s-5.009-8.518-6.512,7.015,5.513,20.047-2.5,21.049a41.065,41.065,0,0,0-15.035,5.51s-6.512.5-6.512,4.511-2.5,13.53-5.515,14.532-10.524-.5-13.029-3.507.5-14.031.5-14.031l4.511-4.511S346,124.16,346.494,122.154s-9.52-5.51-10.522-8.518-1.505-9.522-.5-12.027S350,87.077,357.018,84.572s19.042-8.017,22.551-9.021,9.52-.5,11.526-3.006,2.5-7.015,2.5-7.015-1-7.018,1-6.016,5.513,2.507,6.014,4.01.5,5.012,4.01,1,8.02-5.513,12.027-7.514,10.021-1.5,13.532-3.507,9.52-4.01,10.021-9.021-1.5-3.507-4.01-4.01,1,.5-7.516,4.511-6.014,1-12.027,4.008-6.517,3.509-7.015,1,1-6.514,1-6.514.5-.5-3.006-1.5-3.509.5-4.01-4.008,2.5-11.025-2.5-9.021-9.52-1.5-13.029,8.518-15.536,20.548-18.544,18.041S366.04,52.5,363.533,52.5s-6.014-3.006-10.524-3.507-18.043-.5-21.547,0-7.516-2-10.526,1-7.514,7.015-7.514,8.52S308.91,53,307.407,53.5s-5.515-2-10.021-2-7.519-2.507-9.019-2.507,1.5-4.01,0-4.511-34.08-1.5-34.08-1.5-10.522-4.008-14.53-3.507-15.033,1-23.555,2.5-21.049,6.514-25.056,7.015-13.029.5-14.532-2,.5-2-1.505-2.5-.5-1.5-5.009-5.009,2.006-6.514-7.015-6.514-14.532-.5-22.549,0-24.555,4.508-26.559,4.008-18.041,2.507-20.548,1-15.035,5.51-17.537,5.009-12.027.5-14.532,2.006S46.826,49.5,50.835,52s3.507,5.009,4.008,6.514-4.008,5.009-4.008,5.009-1,0-6.514-2-11.526-3.006-14.033-1.5-7.015,4.513-6.014,6.517,8.017,6.514,9.021,5.009S36.8,67.039,39.81,67.54s7.519-2,3.509,3.008S35.8,78.064,33.3,78.567s-8.518,1-14.031,1.5-5.014-2-10.023,3.008-7.015,2-8.017,7.516-2,5.51,0,7.015-4.01,2,.5,3.507,10.021,3.008,9.52,4.508,5.012-2,2,2-5.009,7.516,1,3.509,9.52-1,14.532-3.509,10.023-3.006,13.029-5.009,4.511-5.009,9.021-6.517,1.5.5,2,3.008,0,3.006,3.008,1,3.006-.5,7.015-3.006,8.518-5.012,11.526-3.509A10.488,10.488,0,0,0,80.4,95.1c2,0-2.5-.5,2,0s-2-1.505,13.029,2,19.045,1,20.044,6.514,3.008-.5,5.513,3.006,4.01.5,5.513,6.514,0,22.551-1,24.555-1.5,2-1,6.514,6.514,26.06,4.511,27.561-6.514,2-6.514,2l-2.5,9.019s-4.008,7.516-7.516,11.526-8.017,9.021-10.524,12.526-4.511,9.525-8.017,13.031-6.514,2-5.513,9.52,0,15.534,1,21.048,3.509,13.029,5.513,16.037,3.509,3.006,7.015,5.51,8.02,5.515,7.516,8.02.5,18.043.5,18.043a28.316,28.316,0,0,1,3.507,10.522c.5,5.515,4.01,11.025,4.01,11.025l3.008,6.517s1.5.5,3.509,4.508,2,4.01,2.5,6.011.5,1.505.5,2.008-.5-8.52-1.505-11.027-1-5.51-2-8.518.5-6.517-2.5-11.025-3.006-5.012-4.508-9.522-3.509-9.52-1.5-10.524,3.507-7.514,7.516,0,4.511,5.515,5.012,11.528a19.473,19.473,0,0,0,3.507,10.522c1.5,2.5,5.009,11.027,7.015,14.532s0-2,4.508,5.012a79.1,79.1,0,0,1,7.519,14.031c2.5,5.513,4.01,5.513,5.513,9.52s.5,3.008-.5,7.516,1,9.522,1,9.522,7.015,2.5,7.516,4.008,7.516,4.008,8.52,6.014,7.516,4.508,7.516,4.508,5.513,3.509,7.514,4.511,8.022,2.006,8.022,2.006,4.008,1,5.51,1.5a31.3,31.3,0,0,0,6.014.5s4.01-3.006,5.513-2,5.012-2.006,6.514.5,4.511,2.507,6.014,4.513,3.006,2,5.513,4.508,5.012,2,7.516,4.008,4.508,2,7.516,2a13.921,13.921,0,0,1,5.012.5c2,.5,3.006-1.505,5.009,1a56.7,56.7,0,0,1,5.009,6.512c1.5,2.5,5.012,2.5,5.513,6.514s1.5,3.511,1.5,7.015a6.667,6.667,0,0,0,3.509,6.016c1.5,1,7.013,6.009,7.013,6.009l7.516,1.505,6.014,4.511,6.345,2Z" transform="translate(0 35.044)" fill="#404040"/>
      <path id="Path_1457" data-name="Path 1457" d="M209.532,17.878,239.6,14.12s10.522,0,15.785-3.758,0-3.758,15.785-6.764S282.447-.913,290.716.59,301.238,2.095,310.259,3.6s11.275-.75,19.541,1.5,12.027,1.5,18.793,1.5H369.64c10.524,0,20.3-6.014,24.054-2.255s6.013,2.255,18.793,3.758,18.041-1.505,23.3,0,14.285-.75,24.807,0,15.785-.75,19.543-.75,7.514-5.263,12.777-.753,12.027-1.5,12.777,4.511,10.524,1.5.753,6.014-8.269,3.758-15.035,9.772,4.511,11.275-9.772,16.538-16.538-3.008-20.3,6.014,0,11.275-.75,15.785-2.255,5.261-6.766,9.019-4.508,0-15.033,2.255-18.041,4.511-22.549,4.511-14.282,3.758-17.29,5.261,5.263,3.758-10.524,8.269-19.546,3.76-24.054,9.772-3.008,6.768-6.013,10.526-12.027,18.793-16.538,15.035-6.766-3.008-10.524-6.766-6.014-9.019-8.269-12.027-3.008-10.524-3.758-15.035-7.519-15.033,0-13.53,12.027.753,14.282-.75,4.511-6.766,4.511-6.766-.75-8.269-3.008-12.78-.75-8.269-4.508-12.777-3.758-3.758-9.021-8.269-3.758-6.766-12.027-7.516-10.524-3.008-13.532-2.255-12.777-5.263-2.255-6.014a102.731,102.731,0,0,1,20.3.75s13.53-6.014,9.021-6.764,6.764-7.519-3.758-5.263-22.549,5.263-25.557,6.014-10.524,1.5-18.041,3.758S259.139,25.4,254.63,30.66s0,6.014-4.511,5.261,3.758-5.261-6.764,0-7.516,4.511-12.777,3.008a41.467,41.467,0,0,1-9.021-3.758s6.768-.753-3.006-1.5-9.772-.75-13.53-5.263-1.5-4.511.75-6.014a13.714,13.714,0,0,0,3.74-4.513Z" transform="translate(248.971)" fill="#404040"/>
      <path id="Path_1458" data-name="Path 1458" d="M204.5,23.223c-3.758,3.758-12.78,9.021-10.522,11.277s3.758,10.524,8.269,8.269S201.5,33,218.785,39.01s15.785-.75,19.543,8.269,6.764,15.783,4.508,18.041-3.006,4.511-10.524,6.766-10.524,5.263-5.261,9.019,15.035,7.516,19.543,9.774,18.041,3.008,11.275-4.508,1.5-9.774,1.5-9.774,12.78,9.774,8.271-1.5-7.519-11.275-4.511-11.275,9.019,3.758,9.019,3.758l3.008-6.014-3.008-9.772-9.772-9.772S270.647,34.5,259.373,33s-10.524-1.5-16.538-5.263-6.764-5.261-18.041-3.006-15.033,3.758-15.033,3.758l-5.232-5.268Z" transform="translate(237.457 28.481)" fill="#404040"/>
      <path id="Path_1459" data-name="Path 1459" d="M123.22,34.193c4.511-4.511,16.538-15.033,21.048-12.027s11.272-2.255,16.536,2.255,11.275,9.772,15.785,11.275,9.772-3.758,14.282-1.5,20.294-11.275,17.288-.75,3.758,13.53-4.511,14.282-17.288,6.766-21.048,4.511-6.766-4.511-12.78-1.5-3.006,3.006-9.772,1.5-8.267,1.5-9.77-.753-6.014-1.5-5.263-8.269,3.006-6.014-1.505-6.014-8.267.753-11.275-1.5c-2.983-2.255-8.995-1.505-8.995-1.505Z" transform="translate(151.114 26.532)" fill="#404040"/>
    </g>
  </g>
</svg>
