<svg xmlns="http://www.w3.org/2000/svg" xmlns:xlink="http://www.w3.org/1999/xlink" width="319" height="233" viewBox="0 0 319 233">
  <defs>
    <clipPath id="clip-path">
      <rect id="Rectangle_2" data-name="Rectangle 2" width="319" height="233"/>
    </clipPath>
  </defs>
  <g id="CerbosysallWhiteByPrasang" clip-path="url(#clip-path)">
    <g id="Layer_2" data-name="Layer 2" transform="translate(41.86 34.798)">
      <g id="Group_2" data-name="Group 2">
        <g id="Group_1" data-name="Group 1" transform="translate(84.61)">
          <path id="Path_3" data-name="Path 3" d="M695.182,318.543l-.192.072a7.87,7.87,0,0,1-6.521-.776,14.958,14.958,0,0,1-4.433-4.134,19.955,19.955,0,0,1-2.089-3.412,1.509,1.509,0,0,0-.073-.134c-.212-.347-.419-.339-.612.025a.62.62,0,0,1-.127.181,7.617,7.617,0,0,1-2.713,1.655,3.914,3.914,0,0,1-2.865-.043.9.9,0,0,0-1.238.548,3.718,3.718,0,0,1-1.072,1.273,9.167,9.167,0,0,1-2.917,1.671,9.744,9.744,0,0,1-2.879.481,8.022,8.022,0,0,1-4.231-.987,9.088,9.088,0,0,1-3.738-4.1,3.938,3.938,0,0,1-.282-1.122,13.164,13.164,0,0,1-.112-3.656,9,9,0,0,1,3.107-5.994,10.1,10.1,0,0,1,2.728-1.589c1.33-.568,2.668-1.118,3.97-1.768a12.62,12.62,0,0,0,5.5-5.035,10.714,10.714,0,0,0,1.479-5.609c0-.192-.034-.383-.049-.575a2.321,2.321,0,0,1,.616-1.78,4.507,4.507,0,0,1,1.368-.986,12.717,12.717,0,0,1,2.575-1.07,7.7,7.7,0,0,1,6.242.832,12.745,12.745,0,0,1,4.616,5.147c.063.118.124.237.179.36a1.184,1.184,0,0,1-.062,1.113,1.61,1.61,0,0,1-.442.511,4.919,4.919,0,0,0-1.658,2.585,8.558,8.558,0,0,0-.26,3.6,12.155,12.155,0,0,0,.68,2.835,1.274,1.274,0,0,0,1.626.892.648.648,0,0,0,.417-.651,2.152,2.152,0,0,0-.255-1.139,5.909,5.909,0,0,1-.8-3.258,5.415,5.415,0,0,1,1.775-3.85,5.936,5.936,0,0,1,3.689-1.66,5.39,5.39,0,0,1,4.143,1.771,2.309,2.309,0,0,1,.39.785,11.971,11.971,0,0,1,.152,8.653,19.3,19.3,0,0,1-3.371,5.894,22.357,22.357,0,0,1-2.383,2.536,4.427,4.427,0,0,1-.39.309,2.653,2.653,0,0,0-1.121,2.168,4.708,4.708,0,0,0,.969,3.31,4.388,4.388,0,0,0,1.7,1.179,6.1,6.1,0,0,0,1.247.383,1.072,1.072,0,0,1,.47.2.431.431,0,0,1,.181.266.514.514,0,0,1-.034.34,1.032,1.032,0,0,1-.41.507,12.1,12.1,0,0,1-1.656.913Z" transform="translate(-638.606 -261.469)" fill="#fff"/>
          <path id="Path_4" data-name="Path 4" d="M595.717,295.085a20.191,20.191,0,0,1-.629-6.254,11.9,11.9,0,0,1,1.357-4.986,7.433,7.433,0,0,1,.481-.743,2.051,2.051,0,0,0,.455-1.375,16.9,16.9,0,0,1,2.4-9.943,14.527,14.527,0,0,1,3.408-4.112,7.032,7.032,0,0,1,5.748-1.53,11.87,11.87,0,0,1,4.12,1.55,21.74,21.74,0,0,1,4.725,3.764c.08.081.157.17.232.26a1.062,1.062,0,0,0,.783.477,1.008,1.008,0,0,0,.828-.352,9.829,9.829,0,0,1,3.759-2.247,5.292,5.292,0,0,1,4.388.269,4.954,4.954,0,0,1,1.47,1.206,5.486,5.486,0,0,1,.769,1.444,8.916,8.916,0,0,1,.627,4.562,10.469,10.469,0,0,1-1.242,3.769,14.211,14.211,0,0,1-3.847,4.577,4.219,4.219,0,0,1-2.058.818,10.3,10.3,0,0,0-5.86,2.995,14.342,14.342,0,0,0-2.793,3.8,3.285,3.285,0,0,0-.158.352.817.817,0,0,1-.384.521.6.6,0,0,1-.581,0c-.345-.134-.675-.319-1.016-.465a12.763,12.763,0,0,0-5.927-1.132,11.756,11.756,0,0,0-8.071,4.154,10.706,10.706,0,0,0-1.139,1.488,1.487,1.487,0,0,1-.308.365.32.32,0,0,1-.345.107.4.4,0,0,1-.252-.3A29.934,29.934,0,0,1,595.717,295.085Z" transform="translate(-595.056 -251.976)" fill="#fff"/>
          <path id="Path_5" data-name="Path 5" d="M642.874,233.254a12.993,12.993,0,0,1,5.683-.817.546.546,0,0,1,.275.068,1.35,1.35,0,0,0,1.778-.149,6.24,6.24,0,0,1,1.106-.737,22.5,22.5,0,0,1,3.339-1.55,13.5,13.5,0,0,1,6.377-.865,9.867,9.867,0,0,1,3.965,1.385,11.1,11.1,0,0,1,3.976,4.154,8.653,8.653,0,0,1,.816,2.484,6.13,6.13,0,0,1,.094,1.963,4.047,4.047,0,0,1-1.873,3.077,4.362,4.362,0,0,1-.983.387,4.063,4.063,0,0,0-2.677,3.769c-.012.162.016.332.012.5a.673.673,0,0,1-.13.433.474.474,0,0,1-.349.2,7.191,7.191,0,0,0-2.5.924c-.428.23-.833.514-1.25.767a1.064,1.064,0,0,1-1.2.067,1.223,1.223,0,0,1-.363-.406,11.6,11.6,0,0,0-2.57-3.007,6.081,6.081,0,0,0-5.32-1.308,8.532,8.532,0,0,0-3.914,2.069.874.874,0,0,1-1.076.129,1.87,1.87,0,0,1-.53-.415,14.9,14.9,0,0,0-6.307-4.16,14,14,0,0,0-3.15-.738,1.52,1.52,0,0,1-.472-.128.556.556,0,0,1-.37-.391.712.712,0,0,1,.077-.583c.13-.264.272-.52.417-.774a13.9,13.9,0,0,1,7.119-6.348Z" transform="translate(-622.41 -229.128)" fill="#fff"/>
          <path id="Path_6" data-name="Path 6" d="M751.767,258.023a28.345,28.345,0,0,1,.889,6.872,2.455,2.455,0,0,1-.046.574.487.487,0,0,1-.21.358.345.345,0,0,1-.366.007.7.7,0,0,1-.182-.1,3.938,3.938,0,0,0-2.455-.8,10.357,10.357,0,0,0-3.781.638.472.472,0,0,1-.5-.01.666.666,0,0,1-.288-.486,4.91,4.91,0,0,0-.4-1.176,13.546,13.546,0,0,0-3.346-4.746,8.483,8.483,0,0,0-3.938-2.061,1.065,1.065,0,0,0-.366-.011,1.374,1.374,0,0,1-.334,0,.746.746,0,0,1-.58-.331,1.07,1.07,0,0,1-.179-.737,2.343,2.343,0,0,1,.708-1.594,4.3,4.3,0,0,1,1.275-.9.565.565,0,0,0,.136-.076,7.3,7.3,0,0,0,2.233-3.491,7.514,7.514,0,0,0,.044-4.121,1.851,1.851,0,0,1-.064-.33c-.031-.374.116-.546.434-.527a2.869,2.869,0,0,1,.773.252,15.931,15.931,0,0,1,9.348,9.245,26.166,26.166,0,0,1,1.2,3.554Z" transform="translate(-690.814 -238.939)" fill="#fff"/>
          <path id="Path_7" data-name="Path 7" d="M610.918,340.526a9.728,9.728,0,0,1,5.175-.487,12.777,12.777,0,0,1,4.228,1.537,1.214,1.214,0,0,1,.7,1.32,6.98,6.98,0,0,0-.08,1.27,24.266,24.266,0,0,0,.372,3.223c.058.354.187.686.215,1.047a.854.854,0,0,1-.289.8,12.47,12.47,0,0,1-3.808,2.028,9.719,9.719,0,0,1-7.35-.6,13.478,13.478,0,0,1-4.148-3.11,2.846,2.846,0,0,1-.421-.48,1.619,1.619,0,0,1-.13-1.243,3.482,3.482,0,0,1,.581-1.228,12.321,12.321,0,0,1,3.6-3.4,11.031,11.031,0,0,1,1.355-.677Z" transform="translate(-602.04 -297.706)" fill="#fff"/>
        </g>
        <path id="Path_1119" data-name="Path 1119" d="M22.957-86.234c5.893,0,10.716-3.983,12.742-10.311H34.037c-2.027,5.334-6.144,8.433-11.08,8.433-7,0-12.328-6.494-12.328-14.986,0-8.538,5.276-14.986,12.328-14.986,4.974,0,9.116,3.142,11.018,8.342h1.637c-1.914-6.163-6.636-10.222-12.655-10.222-7.945,0-13.966,7.185-13.966,16.865C8.992-93.509,15.049-86.234,22.957-86.234Zm44.261-17.091c0-9.365-5.553-16.64-13.373-16.64-7.757,0-13.637,7.275-13.637,16.82,0,9.635,5.881,16.91,13.637,16.91,5.566,0,9.948-3.472,12.516-9.891H64.649c-2.178,5.02-6.006,8-10.806,8-6.731,0-11.8-6.079-12.041-14.385H67.191c.009-.258.026-.558.026-.814Zm-13.373-14.79c6.391,0,11.37,5.564,11.785,13.784H41.83c.451-7.991,5.439-13.784,12.017-13.784Zm31.87-1.308c-4.593,0-7.968,2.888-9.66,7.445l-.262-7.355H74.521v32.468h1.612v-18.278c0-7.185,3.8-12.431,9.48-12.431h2.443v-1.849Zm21.9-.541c-5.515,0-10.077,3.52-12.34,8.9V-130.8H93.661v43.935h1.347l.234-8.349c2.252,5.421,6.83,8.98,12.371,8.98,8.1,0,13.826-7.275,13.826-16.865,0-9.605-5.729-16.865-13.826-16.865Zm-.088,31.851C100.5-88.113,95.2-94.607,95.2-103.1c0-8.553,5.3-14.986,12.328-14.986,7.1,0,12.277,6.328,12.277,14.986s-5.175,14.986-12.277,14.986ZM140.7-86.234c8.109,0,14.153-7.215,14.153-16.865s-6.044-16.865-14.153-16.865c-8.072,0-14.153,7.155-14.153,16.865,0,9.65,6.082,16.865,14.154,16.865Zm0-1.879c-7.152,0-12.516-6.4-12.516-14.986,0-8.628,5.326-14.986,12.516-14.986s12.516,6.4,12.516,14.986S147.894-88.113,140.7-88.113Zm29.465,1.879c6.157,0,10.262-3.7,10.262-9.289,0-7.2-5.389-8.356-10.149-9.3-4.432-.887-8.361-1.668-8.361-6.539,0-4.089,3.2-6.824,8.046-6.824,4.923,0,7.933,2.721,8.2,7.305h1.549c-.264-5.607-3.942-9.079-9.721-9.079-5.743,0-9.646,3.488-9.646,8.643,0,6.373,4.859,7.382,9.57,8.342,4.483.9,8.915,1.894,8.915,7.516,0,4.494-3.438,7.41-8.625,7.41-5.137,0-8.386-2.8-8.814-7.651H159.8c.429,5.892,4.244,9.469,10.364,9.469Zm38.078-33.1L197.131-90.826l-11.763-28.507H183.58l12.7,30.662-1.644,4.137c-2.354,5.981-4.206,7.349-7.945,7.349h-2.027V-75.4h2.128c4.332,0,6.686-1.879,9.318-8.613l13.864-35.323Zm15.06,33.1c6.157,0,10.262-3.7,10.262-9.289,0-7.2-5.389-8.356-10.149-9.3-4.432-.887-8.361-1.668-8.361-6.539,0-4.089,3.2-6.824,8.046-6.824,4.923,0,7.933,2.721,8.2,7.305h1.55c-.264-5.607-3.942-9.079-9.721-9.079-5.743,0-9.646,3.488-9.646,8.643,0,6.373,4.859,7.382,9.57,8.342,4.483.9,8.915,1.894,8.915,7.516,0,4.494-3.438,7.41-8.625,7.41-5.137,0-8.386-2.8-8.814-7.651h-1.588c.428,5.892,4.244,9.469,10.363,9.469Z" transform="translate(-8.991 187.689)" fill="#fff"/>
        <ellipse id="Ellipse_1" data-name="Ellipse 1" cx="5.455" cy="6.511" rx="5.455" ry="6.511" transform="translate(93.551 85.723)" fill="#fff"/>
        <ellipse id="Ellipse_2" data-name="Ellipse 2" cx="5.455" cy="6.511" rx="5.455" ry="6.511" transform="translate(127.429 85.723)" fill="#fff"/>
      </g>
    </g>
  </g>
</svg>
