<svg width="64" height="63" viewBox="0 0 64 63" fill="none" xmlns="http://www.w3.org/2000/svg">
<circle cx="32.249" cy="31.5" r="31.5" fill="#1C1E22"/>
<path fill-rule="evenodd" clip-rule="evenodd" d="M25.7567 15.8425C27.4362 15.7652 27.9717 15.748 32.25 15.748C36.5283 15.748 37.0638 15.7667 38.7419 15.8425C40.42 15.9184 41.5654 16.1862 42.5677 16.5742C43.6172 16.9708 44.5694 17.5908 45.3569 18.3926C46.1587 19.1787 46.7772 20.1294 47.1724 21.1804C47.5619 22.1826 47.8282 23.3281 47.9055 25.0033C47.9828 26.6857 48 27.2212 48 31.498C48 35.7763 47.9814 36.3118 47.9055 37.9913C47.8296 39.6666 47.5619 40.812 47.1724 41.8143C46.7772 42.8654 46.1576 43.8177 45.3569 44.6049C44.5694 45.4067 43.6172 46.0253 42.5677 46.4205C41.5654 46.8099 40.42 47.0762 38.7447 47.1535C37.0638 47.2309 36.5283 47.248 32.25 47.248C27.9717 47.248 27.4362 47.2294 25.7567 47.1535C24.0815 47.0777 22.936 46.8099 21.9337 46.4205C20.8827 46.0252 19.9304 45.4057 19.1431 44.6049C18.3419 43.8184 17.7218 42.8665 17.3262 41.8157C16.9381 40.8135 16.6718 39.668 16.5945 37.9928C16.5172 36.3104 16.5 35.7749 16.5 31.498C16.5 27.2198 16.5186 26.6843 16.5945 25.0062C16.6704 23.3281 16.9381 22.1826 17.3262 21.1804C17.7224 20.1295 18.3429 19.1777 19.1446 18.3912C19.9307 17.5901 20.882 16.97 21.9323 16.5742C22.9346 16.1862 24.08 15.9199 25.7553 15.8425H25.7567ZM38.6144 18.6775C36.9535 18.6017 36.4552 18.5859 32.25 18.5859C28.0447 18.5859 27.5465 18.6017 25.8856 18.6775C24.3492 18.7477 23.5159 19.004 22.9604 19.2202C22.2258 19.5066 21.7004 19.8459 21.1491 20.3972C20.6266 20.9055 20.2244 21.5244 19.9722 22.2084C19.756 22.764 19.4997 23.5973 19.4295 25.1336C19.3536 26.7945 19.3379 27.2928 19.3379 31.498C19.3379 35.7033 19.3536 36.2016 19.4295 37.8625C19.4997 39.3988 19.756 40.2321 19.9722 40.7877C20.2242 41.4707 20.6265 42.0906 21.1491 42.5989C21.6574 43.1215 22.2774 43.5239 22.9604 43.7759C23.5159 43.9921 24.3492 44.2484 25.8856 44.3185C27.5465 44.3944 28.0433 44.4102 32.25 44.4102C36.4567 44.4102 36.9535 44.3944 38.6144 44.3185C40.1508 44.2484 40.9841 43.9921 41.5396 43.7759C42.2742 43.4895 42.7996 43.1502 43.3509 42.5989C43.8735 42.0906 44.2758 41.4707 44.5278 40.7877C44.744 40.2321 45.0003 39.3988 45.0705 37.8625C45.1464 36.2016 45.1621 35.7033 45.1621 31.498C45.1621 27.2928 45.1464 26.7945 45.0705 25.1336C45.0003 23.5973 44.744 22.764 44.5278 22.2084C44.2415 21.4739 43.9021 20.9484 43.3509 20.3972C42.8425 19.8746 42.2236 19.4725 41.5396 19.2202C40.9841 19.004 40.1508 18.7477 38.6144 18.6775V18.6775ZM30.2383 36.3533C31.3618 36.821 32.6128 36.8841 33.7776 36.5319C34.9425 36.1797 35.9489 35.434 36.6251 34.4222C37.3012 33.4103 37.6051 32.1952 37.4848 30.9842C37.3645 29.7732 36.8275 28.6415 35.9656 27.7825C35.4161 27.2333 34.7517 26.8129 34.0202 26.5513C33.2887 26.2898 32.5083 26.1937 31.7353 26.2699C30.9622 26.3462 30.2156 26.5929 29.5493 26.9923C28.883 27.3917 28.3136 27.9339 27.882 28.5798C27.4503 29.2257 27.1673 29.9593 27.0532 30.7277C26.9392 31.4961 26.9969 32.2802 27.2222 33.0237C27.4476 33.7671 27.835 34.4513 28.3565 35.0271C28.878 35.6028 29.5207 36.0558 30.2383 36.3533ZM26.5256 25.7736C27.2773 25.0219 28.1698 24.4256 29.152 24.0187C30.1342 23.6119 31.1869 23.4025 32.25 23.4025C33.3131 23.4025 34.3658 23.6119 35.348 24.0187C36.3302 24.4256 37.2227 25.0219 37.9744 25.7736C38.7261 26.5254 39.3225 27.4178 39.7293 28.4C40.1361 29.3822 40.3455 30.4349 40.3455 31.498C40.3455 32.5612 40.1361 33.6139 39.7293 34.5961C39.3225 35.5783 38.7261 36.4707 37.9744 37.2225C36.4562 38.7407 34.3971 39.5936 32.25 39.5936C30.1029 39.5936 28.0438 38.7407 26.5256 37.2225C25.0074 35.7042 24.1545 33.6451 24.1545 31.498C24.1545 29.351 25.0074 27.2918 26.5256 25.7736V25.7736ZM42.141 24.6081C42.3273 24.4324 42.4764 24.2211 42.5796 23.9867C42.6827 23.7523 42.7378 23.4996 42.7415 23.2435C42.7453 22.9875 42.6976 22.7332 42.6013 22.4959C42.505 22.2586 42.3621 22.0431 42.181 21.862C41.9999 21.6809 41.7844 21.538 41.5471 21.4417C41.3098 21.3454 41.0555 21.2977 40.7995 21.3015C40.5434 21.3052 40.2907 21.3603 40.0563 21.4634C39.8219 21.5666 39.6106 21.7157 39.4349 21.902C39.0931 22.2643 38.906 22.7455 38.9133 23.2435C38.9205 23.7415 39.1216 24.2171 39.4737 24.5693C39.8259 24.9214 40.3015 25.1225 40.7995 25.1297C41.2975 25.137 41.7787 24.9499 42.141 24.6081V24.6081Z" fill="#999B9F"/>
</svg>
