<svg id="Group_1803" data-name="Group 1803" xmlns="http://www.w3.org/2000/svg" width="88.563" height="61.137" viewBox="0 0 88.563 61.137">
  <path id="Path_1180" data-name="Path 1180" d="M-632.437,1881.43l-15.406-17.085A18.5,18.5,0,0,0-637,1847.5a18.5,18.5,0,0,0-18.5-18.5,18.5,18.5,0,0,0-18.5,18.5,18.457,18.457,0,0,0,6.547,14.121l25.36,28.516Zm47,0-15.406-17.085A18.5,18.5,0,0,0-590,1847.5a18.5,18.5,0,0,0-18.5-18.5,18.5,18.5,0,0,0-18.5,18.5,18.46,18.46,0,0,0,6.548,14.121l25.36,28.516Z" transform="translate(674 -1829)" fill="#fff"/>
</svg>
