<svg xmlns="http://www.w3.org/2000/svg" width="63" height="63" viewBox="0 0 63 63">
  <g id="Group_1802" data-name="Group 1802" transform="translate(-3956 -8662)">
    <circle id="Ellipse_27" data-name="Ellipse 27" cx="31.5" cy="31.5" r="31.5" transform="translate(3956 8662)" fill="#474747"/>
    <rect id="Rectangle_8016" data-name="Rectangle 8016" width="32" height="32" rx="3" transform="translate(3972 8678)" fill="#fff"/>
    <path id="Path_1185" data-name="Path 1185" d="M4.864-19.689a3.064,3.064,0,0,1-2.175-.789,2.541,2.541,0,0,1-.847-1.934,2.45,2.45,0,0,1,.847-1.926,3.166,3.166,0,0,1,2.175-.747,3.158,3.158,0,0,1,2.183.747,2.461,2.461,0,0,1,.838,1.926,2.531,2.531,0,0,1-.838,1.959A3.116,3.116,0,0,1,4.864-19.689ZM7.454,0H2.208V-17H7.454ZM28.289,0H23.06V-9.446q0-3.951-2.822-3.951A2.8,2.8,0,0,0,18-12.352a3.985,3.985,0,0,0-.88,2.656V0H11.87V-17h5.246v2.689h.066a6.012,6.012,0,0,1,5.462-3.1q5.645,0,5.645,7.006Z" transform="translate(3972.896 8706.043)" fill="#474747"/>
  </g>
</svg>
