<svg width="64" height="63" viewBox="0 0 64 63" fill="none" xmlns="http://www.w3.org/2000/svg">
<circle cx="31.75" cy="31.5" r="31.5" fill="#474747"/>
<path fillRule="evenodd" clip-rule="evenodd" d="M16.001 18.3797C16.001 17.6818 16.2782 17.0124 16.7718 16.5189C17.2653 16.0253 17.9347 15.7481 18.6327 15.7481H44.8664C45.2123 15.7475 45.5549 15.8151 45.8746 15.9472C46.1943 16.0792 46.4849 16.273 46.7296 16.5174C46.9743 16.7619 47.1684 17.0522 47.3008 17.3717C47.4331 17.6913 47.5012 18.0338 47.501 18.3797V44.6135C47.5013 44.9595 47.4335 45.3021 47.3013 45.6218C47.1692 45.9415 46.9752 46.232 46.7307 46.4767C46.4861 46.7214 46.1957 46.9155 45.8761 47.0479C45.5564 47.1802 45.2138 47.2482 44.8679 47.248H18.6327C18.2869 47.248 17.9446 47.1799 17.6252 47.0476C17.3058 46.9152 17.0157 46.7213 16.7713 46.4767C16.5269 46.2322 16.3331 45.9419 16.2009 45.6225C16.0687 45.303 16.0008 44.9606 16.001 44.6149V18.3797ZM28.4692 27.7581H32.7346V29.9001C33.3503 28.6688 34.9253 27.5605 37.2921 27.5605C41.8295 27.5605 42.9048 30.0133 42.9048 34.5135V42.8495H38.313V35.5386C38.313 32.9757 37.6973 31.5295 36.1338 31.5295C33.9646 31.5295 33.0625 33.0888 33.0625 35.5386V42.8495H28.4692V27.7581ZM20.5942 42.6533H25.1875V27.5605H20.5942V42.6519V42.6533ZM25.8447 22.638C25.8534 23.0312 25.7834 23.4223 25.6389 23.7882C25.4944 24.154 25.2782 24.4873 25.0031 24.7685C24.7281 25.0498 24.3996 25.2732 24.037 25.4257C23.6744 25.5783 23.285 25.6568 22.8916 25.6568C22.4982 25.6568 22.1088 25.5783 21.7462 25.4257C21.3836 25.2732 21.0551 25.0498 20.7801 24.7685C20.505 24.4873 20.2888 24.154 20.1443 23.7882C19.9998 23.4223 19.9298 23.0312 19.9385 22.638C19.9555 21.866 20.2741 21.1314 20.826 20.5914C21.378 20.0515 22.1195 19.7491 22.8916 19.7491C23.6637 19.7491 24.4052 20.0515 24.9572 20.5914C25.5091 21.1314 25.8277 21.866 25.8447 22.638V22.638Z" fill="white"/>
</svg>
