<svg width="164" height="98" viewBox="0 0 164 98" fill="none" xmlns="http://www.w3.org/2000/svg">
<path d="M98.9366 38.8991C98.9356 38.9078 98.9375 38.9166 98.9418 38.9236L98.3689 39.1411C98.3662 39.138 98.364 39.1344 98.3626 39.1304C98.3611 39.1263 98.3604 39.122 98.3604 39.1176C98.3604 39.1132 98.3611 39.1088 98.3626 39.1048C98.364 39.1007 98.3662 39.0971 98.3689 39.0941C98.5494 38.9923 98.7292 38.8892 98.9366 38.8991Z" fill="#BAA3C2"/>
<path d="M98.3622 39.1187C98.3644 39.1255 98.3667 39.1323 98.3693 39.1394L98.2371 39.1895C98.2346 39.1825 98.2322 39.1754 98.23 39.1688C98.2349 39.1542 98.2424 39.141 98.2521 39.1302C98.2619 39.1195 98.2734 39.1114 98.2861 39.1066C98.2988 39.1018 98.3121 39.1004 98.3253 39.1025C98.3385 39.1046 98.3511 39.1101 98.3622 39.1187Z" fill="white"/>
<path d="M97.9458 39.4743L97.8135 39.5236C96.259 40.0064 94.7614 39.8162 93.3168 38.9914C92.1245 38.3107 91.1346 37.321 90.2598 36.1599C89.7103 35.4441 89.2272 34.6603 88.8189 33.822C88.8035 33.7903 88.7867 33.7597 88.7685 33.7302C88.6219 33.492 88.4798 33.4979 88.3472 33.7473C88.3249 33.7949 88.2953 33.8371 88.2599 33.8716C87.7033 34.3882 87.0683 34.7731 86.3892 35.0054C85.7294 35.2168 85.0702 35.2609 84.4135 34.9759C84.2578 34.8963 84.0822 34.8909 83.9232 34.9608C83.7642 35.0307 83.634 35.1705 83.5596 35.3512C83.3875 35.7202 83.1094 35.9843 82.8206 36.2236C82.2087 36.7357 81.5289 37.1228 80.8093 37.3689C80.162 37.5781 79.4949 37.6888 78.8241 37.6982C77.8091 37.7262 76.8287 37.5359 75.904 37.0215C74.8188 36.4271 73.9172 35.4453 73.3254 34.2135C73.2074 33.9727 73.1736 33.7082 73.1309 33.4449C72.988 32.6206 72.9619 31.7738 73.0536 30.9392C73.2604 29.1979 74.0058 27.8525 75.1966 26.8318C75.7713 26.339 76.4155 26.0242 77.0777 25.7427C77.995 25.3532 78.9177 24.9765 79.8157 24.5312C81.3314 23.7788 82.6621 22.7142 83.6126 21.0807C84.2839 19.9269 84.6524 18.652 84.6324 17.2369C84.6304 17.1054 84.6093 16.9743 84.599 16.8428C84.5598 16.3477 84.7314 15.9547 85.0238 15.623C85.2955 15.3145 85.6271 15.126 85.967 14.9473C86.5378 14.636 87.1326 14.3906 87.7431 14.2145C89.2339 13.8113 90.674 13.9632 92.0475 14.7839C93.3971 15.5906 94.4297 16.8051 95.2308 18.3106C95.2739 18.3913 95.3166 18.473 95.3545 18.5573C95.4108 18.6755 95.4368 18.8108 95.4293 18.9463C95.4217 19.0819 95.3809 19.2119 95.312 19.3204C95.2326 19.4615 95.1286 19.5809 95.007 19.6703C94.4358 20.0889 94.0946 20.7187 93.8635 21.4417C93.6074 22.2424 93.5873 23.0731 93.6844 23.912C93.7634 24.5825 93.9216 25.2366 94.1541 25.855C94.3568 26.3996 94.7951 26.6011 95.2756 26.4659C95.3592 26.4414 95.4333 26.3839 95.4857 26.3028C95.538 26.2216 95.5655 26.1218 95.5636 26.0196C95.5774 25.7438 95.5156 25.4701 95.3876 25.2392C95.0162 24.5599 94.7803 23.8273 94.8344 23.0065C94.8599 22.4864 94.9829 21.9795 95.1947 21.523C95.4065 21.0666 95.7015 20.672 96.0584 20.3682C96.8126 19.7048 97.6493 19.2713 98.602 19.2306C99.6877 19.1844 100.634 19.6212 101.459 20.4439C101.597 20.5817 101.651 20.7944 101.728 20.9816C102.528 22.938 102.52 24.9177 101.833 26.9109C101.301 28.4528 100.474 29.7593 99.5076 30.9497C98.9985 31.5786 98.449 32.1598 97.8641 32.6879C97.7777 32.7643 97.688 32.8351 97.5952 32.9001C97.1239 33.2375 96.8446 33.7326 96.823 34.3862C96.7948 35.2388 96.9599 36.0299 97.4912 36.6544C97.8205 37.0413 98.2287 37.279 98.6608 37.4621C98.9401 37.5807 99.228 37.6686 99.5209 37.7246C99.6359 37.7433 99.7463 37.7908 99.8447 37.864C99.8747 37.8829 99.9013 37.9087 99.9227 37.94C99.9442 37.9713 99.9601 38.0074 99.9695 38.0462C99.9789 38.0849 99.9817 38.1255 99.9776 38.1656C99.9735 38.2056 99.9626 38.2443 99.9457 38.2792C99.8864 38.4289 99.787 38.5512 99.663 38.6268C99.2952 38.8668 98.9136 39.0758 98.5211 39.2522L97.9458 39.4743Z" fill="url(#paint0_linear_431_846)"/>
<path d="M59.803 29.5508C59.4564 28.1508 59.2675 26.7282 59.3693 25.2654C59.4547 24.0406 59.7302 22.8862 60.305 21.8486C60.4065 21.6707 60.5173 21.5007 60.6367 21.3393C60.8315 21.069 60.9791 20.7662 60.951 20.3971C60.7571 17.8707 61.4156 15.633 62.6049 13.5832C63.232 12.4772 64.0293 11.5212 64.9551 10.7656C66.1579 9.79999 67.4906 9.49537 68.9189 9.71746C69.9083 9.88655 70.868 10.2454 71.7602 10.78C72.9375 11.4654 74.0332 12.3325 75.0188 13.3588C75.0741 13.4156 75.1273 13.4755 75.1787 13.5368C75.5104 13.9334 75.9142 13.9828 76.2892 13.6221C77.0595 12.8808 77.9385 12.4003 78.8816 12.0822C79.9029 11.738 80.9197 11.7372 81.9076 12.2662C82.2854 12.4654 82.6289 12.7454 82.9212 13.0923C83.1581 13.3754 83.3052 13.7307 83.4512 14.0819C83.8653 15.0458 84.0164 16.1385 83.8835 17.2088C83.7605 18.1335 83.4683 19.015 83.0272 19.7913C82.3435 21.0514 81.4386 22.1215 80.3742 22.9286C79.9443 23.2438 79.4584 23.4357 78.9551 23.4891C77.4381 23.6906 76.0958 24.4029 74.9137 25.5413C74.1507 26.2712 73.499 27.1512 72.9872 28.1429C72.9465 28.2205 72.9102 28.3012 72.8785 28.3845C72.7476 28.7358 72.5263 28.8658 72.213 28.7441C71.9754 28.652 71.7476 28.5255 71.5122 28.4252C70.1908 27.8623 68.8337 27.5555 67.4245 27.6493C65.2772 27.7918 63.4327 28.7747 61.8587 30.4959C61.5714 30.8071 61.3085 31.1485 61.0731 31.5159C61.0143 31.6123 60.9426 31.6966 60.8608 31.7654C60.6856 31.9077 60.5338 31.8605 60.4496 31.6324C60.1984 30.9548 59.9825 30.2597 59.803 29.5508Z" fill="url(#paint1_linear_431_846)"/>
<path d="M73.4588 2.83585C74.724 2.35899 76.0536 2.1693 77.378 2.27674C77.4434 2.27522 77.5083 2.29118 77.5678 2.32343C77.9947 2.60423 78.4129 2.55443 78.794 2.22113C79.0336 2.02351 79.2891 1.85438 79.5567 1.71617C80.3015 1.2967 81.071 0.941798 81.8591 0.65426C83.2943 0.135109 84.7539 -0.127884 86.2571 0.0612844C87.2103 0.173425 88.1376 0.495341 88.9914 1.01054C90.1032 1.68832 91.0413 2.61324 91.7341 3.85687C92.0208 4.37177 92.1746 4.96184 92.2963 5.55907C92.3905 5.99843 92.4126 6.4552 92.3614 6.90447C92.2428 7.87537 91.7841 8.55335 91.0695 9.01296C90.8561 9.15026 90.6203 9.1983 90.3918 9.27844C89.3336 9.64932 88.6388 10.5682 88.5456 11.8612C88.5375 11.9736 88.5565 12.0889 88.5538 12.202C88.5561 12.2561 88.5494 12.3101 88.5341 12.3611C88.5188 12.4121 88.4951 12.4589 88.4645 12.499C88.4338 12.5391 88.3968 12.5716 88.3555 12.5947C88.3143 12.6178 88.2696 12.6309 88.224 12.6335C87.613 12.7073 87.052 12.9714 86.4993 13.2666C86.2043 13.4243 85.925 13.6186 85.6372 13.7923C85.371 13.9531 85.0916 14.0201 84.8069 13.8385C84.7068 13.7694 84.6213 13.6743 84.5565 13.5605C84.0708 12.757 83.4711 12.0598 82.7841 11.5C82.2542 11.067 81.6564 10.7645 81.0262 10.6105C80.396 10.4565 79.7461 10.4541 79.1151 10.6035C78.1337 10.8174 77.2089 11.3035 76.4161 12.0221C76.3124 12.1192 76.1875 12.1792 76.056 12.1949C75.9245 12.2106 75.792 12.1813 75.6741 12.1105C75.5394 12.0413 75.4156 11.9453 75.3082 11.8266C74.0614 10.4407 72.5857 9.54506 70.9586 8.97579C70.2502 8.72295 69.5226 8.55364 68.7861 8.47031C68.6747 8.45909 68.5651 8.42957 68.4605 8.38261C68.1927 8.26095 68.1126 8.00811 68.2585 7.71446C68.3483 7.53358 68.4463 7.35797 68.5458 7.18413C69.7187 5.11382 71.4517 3.57995 73.4588 2.83585Z" fill="url(#paint2_linear_431_846)"/>
<path d="M101.381 13.0863C101.777 14.6125 101.983 16.1987 101.994 17.7953C101.999 17.9276 101.988 18.0601 101.962 18.1888C101.905 18.4308 101.767 18.5187 101.565 18.4401C101.521 18.4242 101.478 18.4012 101.439 18.372C100.927 17.9643 100.346 17.8424 99.7464 17.8244C98.8634 17.8068 97.9836 17.9545 97.1394 18.2619C96.867 18.3575 96.654 18.2473 96.5972 17.9219C96.5382 17.6385 96.4447 17.3668 96.3197 17.1154C95.7459 15.8373 95.0008 14.7282 94.0127 13.8642C93.2151 13.1439 92.2842 12.6597 91.2972 12.4517C91.2137 12.4348 91.1286 12.4324 91.0446 12.4445C90.9681 12.4542 90.891 12.4546 90.8144 12.4458C90.47 12.4108 90.2776 12.1369 90.2907 11.7101C90.305 11.2518 90.5012 10.9086 90.7795 10.6176C91.0407 10.3535 91.3379 10.144 91.6585 9.99834C91.6912 9.98572 91.7224 9.96833 91.7515 9.94657C92.454 9.32077 93.0038 8.55313 93.2912 7.55479C93.5657 6.64356 93.5762 5.64976 93.3211 4.73063C93.2998 4.65729 93.2851 4.58144 93.2775 4.50439C93.2563 4.24782 93.3571 4.12989 93.5765 4.14366C93.7649 4.15536 93.9332 4.253 94.1089 4.31647C95.7969 4.92218 97.2988 5.90819 98.5606 7.38416C99.3704 8.33755 100.044 9.44073 100.556 10.6505C100.887 11.4343 101.163 12.249 101.381 13.0863Z" fill="url(#paint3_linear_431_846)"/>
<path d="M65.4691 29.3525C66.6218 28.9199 67.8425 28.8055 69.038 29.0179C70.0498 29.1894 71.0333 29.5447 71.954 30.0712C72.396 30.3223 72.4844 30.6574 72.4356 30.9761C72.3907 31.2628 72.3722 31.5544 72.3804 31.8458C72.4164 32.5889 72.5021 33.3274 72.6367 34.0543C72.6768 34.2968 72.7654 34.5244 72.7851 34.7716C72.8012 34.8759 72.7909 34.9836 72.7554 35.0811C72.72 35.1785 72.661 35.2613 72.586 35.3191C71.7771 35.9422 70.891 36.4114 69.9599 36.7098C68.2325 37.2462 66.5419 37.0852 64.8913 36.2957C63.8365 35.7972 62.867 35.0751 62.0304 34.1645C61.9233 34.0683 61.8258 33.9579 61.7397 33.8357C61.6695 33.712 61.6248 33.5705 61.6092 33.4225C61.5936 33.2746 61.6076 33.1244 61.65 32.984C61.7305 32.6723 61.8672 32.3852 62.0508 32.1426C62.7402 31.1805 63.5831 30.3895 64.5311 29.8151C64.8355 29.6382 65.1488 29.4837 65.4691 29.3525Z" fill="url(#paint4_linear_431_846)"/>
<path d="M10.6378 69.5663C14.7054 69.5663 18.0336 66.8344 19.4328 62.4945H18.2859C16.8867 66.1543 14.0449 68.2779 10.638 68.2779C5.80602 68.2779 2.12975 63.8244 2.12975 57.9997C2.12984 52.144 5.77128 47.7218 10.6378 47.7218C14.0706 47.7218 16.9299 49.8764 18.2422 53.4433H19.372C18.0513 49.2163 14.7926 46.4328 10.6378 46.4328C5.15425 46.4328 1 51.3605 1 57.9996C1 64.5767 5.18026 69.5663 10.6378 69.5663ZM41.1861 57.845C41.1861 51.4225 37.3535 46.4328 31.9565 46.4328C26.603 46.4328 22.5443 51.4225 22.5443 57.9687C22.5443 64.5768 26.6032 69.5663 31.9565 69.5663C35.7978 69.5663 38.8222 67.1849 40.5951 62.783H39.4132C37.9097 66.2262 35.2677 68.2674 31.9566 68.2674C27.3108 68.2674 23.8147 64.0985 23.6457 58.4017H41.1687C41.1775 58.2264 41.1861 58.0202 41.1861 57.845ZM31.9566 47.7011C36.3677 47.7011 39.8037 51.5167 40.0904 57.1543H23.6627C23.9738 51.6741 27.4158 47.7011 31.9566 47.7011ZM53.9529 46.8042C50.7825 46.8042 48.4534 48.7853 47.2856 51.9105L47.1045 46.8662H46.2267V69.1333H47.3391V56.5976C47.3391 51.6699 49.9638 48.072 53.8833 48.072H55.5693V46.8039L53.9529 46.8042ZM69.0661 46.4332C65.2598 46.4332 62.111 48.8471 60.5495 52.5374V39H59.4371V69.1333H60.3671L60.5284 63.4075C62.0826 67.1254 65.2429 69.5665 69.0665 69.5665C74.6547 69.5665 78.609 64.5769 78.609 57.9997C78.609 51.4123 74.6544 46.4332 69.0661 46.4332ZM69.0057 68.2777C64.1563 68.2777 60.4974 63.8242 60.4974 57.9995C60.4974 52.1337 64.1562 47.7214 69.0057 47.7214C73.9073 47.7214 77.4792 52.0615 77.4792 57.9995C77.4792 63.9376 73.9073 68.2777 69.0057 68.2777ZM91.9055 69.5663C97.5023 69.5663 101.674 64.618 101.674 57.9995C101.674 51.381 97.5023 46.4328 91.9055 46.4328C86.3347 46.4328 82.137 51.3399 82.137 57.9996C82.137 64.618 86.3347 69.5663 91.9055 69.5663ZM91.9055 68.2777C86.9691 68.2777 83.2669 63.886 83.2669 57.9995C83.2669 52.0821 86.943 47.7214 91.9055 47.7214C96.8679 47.7214 100.544 52.1131 100.544 57.9995C100.544 63.886 96.8679 68.2777 91.9055 68.2777ZM112.242 69.5663C116.492 69.5663 119.325 67.0303 119.325 63.1953C119.325 58.2572 115.605 57.4635 112.32 56.814C109.261 56.2058 106.549 55.6697 106.549 52.3296C106.549 49.5255 108.757 47.6495 112.103 47.6495C115.501 47.6495 117.578 49.5154 117.76 52.6598H118.83C118.647 48.8145 116.11 46.4331 112.121 46.4331C108.158 46.4331 105.464 48.8248 105.464 52.3607C105.464 56.7318 108.818 57.4225 112.068 58.0823C115.162 58.7008 118.222 59.3812 118.222 63.2368C118.222 66.3192 115.849 68.3192 112.269 68.3192C108.723 68.3192 106.48 66.4017 106.185 63.0719H105.09C105.385 67.1127 108.018 69.5663 112.242 69.5663ZM138.523 46.8659L130.85 66.4172L122.732 46.8659H121.498L130.263 67.8949L129.128 70.7311C127.503 74.834 126.225 75.7722 123.644 75.7722H122.245V76.999H123.714C126.703 76.999 128.329 75.7103 130.145 71.0919L139.713 46.8659H138.523ZM148.917 69.5663C153.167 69.5663 156 67.0303 156 63.1953C156 58.2572 152.28 57.4635 148.995 56.814C145.936 56.2058 143.225 55.6697 143.225 52.3296C143.225 49.5255 145.432 47.6495 148.778 47.6495C152.176 47.6495 154.253 49.5154 154.436 52.6598H155.505C155.322 48.8143 152.785 46.4328 148.796 46.4328C144.833 46.4328 142.138 48.8246 142.138 52.3605C142.138 56.7316 145.493 57.4223 148.743 58.0821C151.837 58.7006 154.896 59.381 154.896 63.2366C154.896 66.319 152.524 68.319 148.943 68.319C145.398 68.319 143.155 66.4015 142.86 63.0717H141.765C142.06 67.1127 144.693 69.5663 148.917 69.5663Z" fill="white"/>
<path d="M10.6378 69.5663C14.7054 69.5663 18.0336 66.8344 19.4328 62.4945H18.2859C16.8867 66.1543 14.0449 68.2779 10.638 68.2779C5.80602 68.2779 2.12975 63.8244 2.12975 57.9997C2.12984 52.144 5.77128 47.7218 10.6378 47.7218C14.0706 47.7218 16.9299 49.8764 18.2422 53.4433H19.372C18.0513 49.2163 14.7926 46.4328 10.6378 46.4328C5.15425 46.4328 1 51.3605 1 57.9996C1 64.5767 5.18026 69.5663 10.6378 69.5663ZM41.1861 57.845C41.1861 51.4225 37.3535 46.4328 31.9565 46.4328C26.603 46.4328 22.5443 51.4225 22.5443 57.9687C22.5443 64.5768 26.6032 69.5663 31.9565 69.5663C35.7978 69.5663 38.8222 67.1849 40.5951 62.783H39.4132C37.9097 66.2262 35.2677 68.2674 31.9566 68.2674C27.3108 68.2674 23.8147 64.0985 23.6457 58.4017H41.1687C41.1775 58.2264 41.1861 58.0202 41.1861 57.845ZM31.9566 47.7011C36.3677 47.7011 39.8037 51.5167 40.0904 57.1543H23.6627C23.9738 51.6741 27.4158 47.7011 31.9566 47.7011ZM53.9529 46.8042C50.7825 46.8042 48.4534 48.7853 47.2856 51.9105L47.1045 46.8662H46.2267V69.1333H47.3391V56.5976C47.3391 51.6699 49.9638 48.072 53.8833 48.072H55.5693V46.8039L53.9529 46.8042ZM69.0661 46.4332C65.2598 46.4332 62.111 48.8471 60.5495 52.5374V39H59.4371V69.1333H60.3671L60.5284 63.4075C62.0826 67.1254 65.2429 69.5665 69.0665 69.5665C74.6547 69.5665 78.609 64.5769 78.609 57.9997C78.609 51.4123 74.6544 46.4332 69.0661 46.4332ZM69.0057 68.2777C64.1563 68.2777 60.4974 63.8242 60.4974 57.9995C60.4974 52.1337 64.1562 47.7214 69.0057 47.7214C73.9073 47.7214 77.4792 52.0615 77.4792 57.9995C77.4792 63.9376 73.9073 68.2777 69.0057 68.2777ZM91.9055 69.5663C97.5023 69.5663 101.674 64.618 101.674 57.9995C101.674 51.381 97.5023 46.4328 91.9055 46.4328C86.3347 46.4328 82.137 51.3399 82.137 57.9996C82.137 64.618 86.3347 69.5663 91.9055 69.5663ZM91.9055 68.2777C86.9691 68.2777 83.2669 63.886 83.2669 57.9995C83.2669 52.0821 86.943 47.7214 91.9055 47.7214C96.8679 47.7214 100.544 52.1131 100.544 57.9995C100.544 63.886 96.8679 68.2777 91.9055 68.2777ZM112.242 69.5663C116.492 69.5663 119.325 67.0303 119.325 63.1953C119.325 58.2572 115.605 57.4635 112.32 56.814C109.261 56.2058 106.549 55.6697 106.549 52.3296C106.549 49.5255 108.757 47.6495 112.103 47.6495C115.501 47.6495 117.578 49.5154 117.76 52.6598H118.83C118.647 48.8145 116.11 46.4331 112.121 46.4331C108.158 46.4331 105.464 48.8248 105.464 52.3607C105.464 56.7318 108.818 57.4225 112.068 58.0823C115.162 58.7008 118.222 59.3812 118.222 63.2368C118.222 66.3192 115.849 68.3192 112.269 68.3192C108.723 68.3192 106.48 66.4017 106.185 63.0719H105.09C105.385 67.1127 108.018 69.5663 112.242 69.5663ZM138.523 46.8659L130.85 66.4172L122.732 46.8659H121.498L130.263 67.8949L129.128 70.7311C127.503 74.834 126.225 75.7722 123.644 75.7722H122.245V76.999H123.714C126.703 76.999 128.329 75.7103 130.145 71.0919L139.713 46.8659H138.523ZM148.917 69.5663C153.167 69.5663 156 67.0303 156 63.1953C156 58.2572 152.28 57.4635 148.995 56.814C145.936 56.2058 143.225 55.6697 143.225 52.3296C143.225 49.5255 145.432 47.6495 148.778 47.6495C152.176 47.6495 154.253 49.5154 154.436 52.6598H155.505C155.322 48.8143 152.785 46.4328 148.796 46.4328C144.833 46.4328 142.138 48.8246 142.138 52.3605C142.138 56.7316 145.493 57.4223 148.743 58.0821C151.837 58.7006 154.896 59.381 154.896 63.2366C154.896 66.319 152.524 68.319 148.943 68.319C145.398 68.319 143.155 66.4015 142.86 63.0717H141.765C142.06 67.1127 144.693 69.5663 148.917 69.5663Z" fill="white"/>
<path d="M10.6378 69.5663C14.7054 69.5663 18.0336 66.8344 19.4328 62.4945H18.2859C16.8867 66.1543 14.0449 68.2779 10.638 68.2779C5.80602 68.2779 2.12975 63.8244 2.12975 57.9997C2.12984 52.144 5.77128 47.7218 10.6378 47.7218C14.0706 47.7218 16.9299 49.8764 18.2422 53.4433H19.372C18.0513 49.2163 14.7926 46.4328 10.6378 46.4328C5.15425 46.4328 1 51.3605 1 57.9996C1 64.5767 5.18026 69.5663 10.6378 69.5663ZM41.1861 57.845C41.1861 51.4225 37.3535 46.4328 31.9565 46.4328C26.603 46.4328 22.5443 51.4225 22.5443 57.9687C22.5443 64.5768 26.6032 69.5663 31.9565 69.5663C35.7978 69.5663 38.8222 67.1849 40.5951 62.783H39.4132C37.9097 66.2262 35.2677 68.2674 31.9566 68.2674C27.3108 68.2674 23.8147 64.0985 23.6457 58.4017H41.1687C41.1775 58.2264 41.1861 58.0202 41.1861 57.845ZM31.9566 47.7011C36.3677 47.7011 39.8037 51.5167 40.0904 57.1543H23.6627C23.9738 51.6741 27.4158 47.7011 31.9566 47.7011ZM53.9529 46.8042C50.7825 46.8042 48.4534 48.7853 47.2856 51.9105L47.1045 46.8662H46.2267V69.1333H47.3391V56.5976C47.3391 51.6699 49.9638 48.072 53.8833 48.072H55.5693V46.8039L53.9529 46.8042ZM69.0661 46.4332C65.2598 46.4332 62.111 48.8471 60.5495 52.5374V39H59.4371V69.1333H60.3671L60.5284 63.4075C62.0826 67.1254 65.2429 69.5665 69.0665 69.5665C74.6547 69.5665 78.609 64.5769 78.609 57.9997C78.609 51.4123 74.6544 46.4332 69.0661 46.4332ZM69.0057 68.2777C64.1563 68.2777 60.4974 63.8242 60.4974 57.9995C60.4974 52.1337 64.1562 47.7214 69.0057 47.7214C73.9073 47.7214 77.4792 52.0615 77.4792 57.9995C77.4792 63.9376 73.9073 68.2777 69.0057 68.2777ZM91.9055 69.5663C97.5023 69.5663 101.674 64.618 101.674 57.9995C101.674 51.381 97.5023 46.4328 91.9055 46.4328C86.3347 46.4328 82.137 51.3399 82.137 57.9996C82.137 64.618 86.3347 69.5663 91.9055 69.5663ZM91.9055 68.2777C86.9691 68.2777 83.2669 63.886 83.2669 57.9995C83.2669 52.0821 86.943 47.7214 91.9055 47.7214C96.8679 47.7214 100.544 52.1131 100.544 57.9995C100.544 63.886 96.8679 68.2777 91.9055 68.2777ZM112.242 69.5663C116.492 69.5663 119.325 67.0303 119.325 63.1953C119.325 58.2572 115.605 57.4635 112.32 56.814C109.261 56.2058 106.549 55.6697 106.549 52.3296C106.549 49.5255 108.757 47.6495 112.103 47.6495C115.501 47.6495 117.578 49.5154 117.76 52.6598H118.83C118.647 48.8145 116.11 46.4331 112.121 46.4331C108.158 46.4331 105.464 48.8248 105.464 52.3607C105.464 56.7318 108.818 57.4225 112.068 58.0823C115.162 58.7008 118.222 59.3812 118.222 63.2368C118.222 66.3192 115.849 68.3192 112.269 68.3192C108.723 68.3192 106.48 66.4017 106.185 63.0719H105.09C105.385 67.1127 108.018 69.5663 112.242 69.5663ZM138.523 46.8659L130.85 66.4172L122.732 46.8659H121.498L130.263 67.8949L129.128 70.7311C127.503 74.834 126.225 75.7722 123.644 75.7722H122.245V76.999H123.714C126.703 76.999 128.329 75.7103 130.145 71.0919L139.713 46.8659H138.523ZM148.917 69.5663C153.167 69.5663 156 67.0303 156 63.1953C156 58.2572 152.28 57.4635 148.995 56.814C145.936 56.2058 143.225 55.6697 143.225 52.3296C143.225 49.5255 145.432 47.6495 148.778 47.6495C152.176 47.6495 154.253 49.5154 154.436 52.6598H155.505C155.322 48.8143 152.785 46.4328 148.796 46.4328C144.833 46.4328 142.138 48.8246 142.138 52.3605C142.138 56.7316 145.493 57.4223 148.743 58.0821C151.837 58.7006 154.896 59.381 154.896 63.2366C154.896 66.319 152.524 68.319 148.943 68.319C145.398 68.319 143.155 66.4015 142.86 63.0717H141.765C142.06 67.1127 144.693 69.5663 148.917 69.5663Z" fill="white"/>
<path d="M10.6378 69.5663C14.7054 69.5663 18.0336 66.8344 19.4328 62.4945H18.2859C16.8867 66.1543 14.0449 68.2779 10.638 68.2779C5.80602 68.2779 2.12975 63.8244 2.12975 57.9997C2.12984 52.144 5.77128 47.7218 10.6378 47.7218C14.0706 47.7218 16.9299 49.8764 18.2422 53.4433H19.372C18.0513 49.2163 14.7926 46.4328 10.6378 46.4328C5.15425 46.4328 1 51.3605 1 57.9996C1 64.5767 5.18026 69.5663 10.6378 69.5663ZM41.1861 57.845C41.1861 51.4225 37.3535 46.4328 31.9565 46.4328C26.603 46.4328 22.5443 51.4225 22.5443 57.9687C22.5443 64.5768 26.6032 69.5663 31.9565 69.5663C35.7978 69.5663 38.8222 67.1849 40.5951 62.783H39.4132C37.9097 66.2262 35.2677 68.2674 31.9566 68.2674C27.3108 68.2674 23.8147 64.0985 23.6457 58.4017H41.1687C41.1775 58.2264 41.1861 58.0202 41.1861 57.845ZM31.9566 47.7011C36.3677 47.7011 39.8037 51.5167 40.0904 57.1543H23.6627C23.9738 51.6741 27.4158 47.7011 31.9566 47.7011ZM53.9529 46.8042C50.7825 46.8042 48.4534 48.7853 47.2856 51.9105L47.1045 46.8662H46.2267V69.1333H47.3391V56.5976C47.3391 51.6699 49.9638 48.072 53.8833 48.072H55.5693V46.8039L53.9529 46.8042ZM69.0661 46.4332C65.2598 46.4332 62.111 48.8471 60.5495 52.5374V39H59.4371V69.1333H60.3671L60.5284 63.4075C62.0826 67.1254 65.2429 69.5665 69.0665 69.5665C74.6547 69.5665 78.609 64.5769 78.609 57.9997C78.609 51.4123 74.6544 46.4332 69.0661 46.4332ZM69.0057 68.2777C64.1563 68.2777 60.4974 63.8242 60.4974 57.9995C60.4974 52.1337 64.1562 47.7214 69.0057 47.7214C73.9073 47.7214 77.4792 52.0615 77.4792 57.9995C77.4792 63.9376 73.9073 68.2777 69.0057 68.2777ZM91.9055 69.5663C97.5023 69.5663 101.674 64.618 101.674 57.9995C101.674 51.381 97.5023 46.4328 91.9055 46.4328C86.3347 46.4328 82.137 51.3399 82.137 57.9996C82.137 64.618 86.3347 69.5663 91.9055 69.5663ZM91.9055 68.2777C86.9691 68.2777 83.2669 63.886 83.2669 57.9995C83.2669 52.0821 86.943 47.7214 91.9055 47.7214C96.8679 47.7214 100.544 52.1131 100.544 57.9995C100.544 63.886 96.8679 68.2777 91.9055 68.2777ZM112.242 69.5663C116.492 69.5663 119.325 67.0303 119.325 63.1953C119.325 58.2572 115.605 57.4635 112.32 56.814C109.261 56.2058 106.549 55.6697 106.549 52.3296C106.549 49.5255 108.757 47.6495 112.103 47.6495C115.501 47.6495 117.578 49.5154 117.76 52.6598H118.83C118.647 48.8145 116.11 46.4331 112.121 46.4331C108.158 46.4331 105.464 48.8248 105.464 52.3607C105.464 56.7318 108.818 57.4225 112.068 58.0823C115.162 58.7008 118.222 59.3812 118.222 63.2368C118.222 66.3192 115.849 68.3192 112.269 68.3192C108.723 68.3192 106.48 66.4017 106.185 63.0719H105.09C105.385 67.1127 108.018 69.5663 112.242 69.5663ZM138.523 46.8659L130.85 66.4172L122.732 46.8659H121.498L130.263 67.8949L129.128 70.7311C127.503 74.834 126.225 75.7722 123.644 75.7722H122.245V76.999H123.714C126.703 76.999 128.329 75.7103 130.145 71.0919L139.713 46.8659H138.523ZM148.917 69.5663C153.167 69.5663 156 67.0303 156 63.1953C156 58.2572 152.28 57.4635 148.995 56.814C145.936 56.2058 143.225 55.6697 143.225 52.3296C143.225 49.5255 145.432 47.6495 148.778 47.6495C152.176 47.6495 154.253 49.5154 154.436 52.6598H155.505C155.322 48.8143 152.785 46.4328 148.796 46.4328C144.833 46.4328 142.138 48.8246 142.138 52.3605C142.138 56.7316 145.493 57.4223 148.743 58.0821C151.837 58.7006 154.896 59.381 154.896 63.2366C154.896 66.319 152.524 68.319 148.943 68.319C145.398 68.319 143.155 66.4015 142.86 63.0717H141.765C142.06 67.1127 144.693 69.5663 148.917 69.5663Z" stroke="white" stroke-width="2"/>
<path d="M69.2733 67.6761C71.3508 67.6761 73.035 65.6784 73.035 63.214C73.035 60.7497 71.3508 58.752 69.2733 58.752C67.1959 58.752 65.5117 60.7497 65.5117 63.214C65.5117 65.6784 67.1959 67.6761 69.2733 67.6761Z" fill="white"/>
<path d="M92.6361 67.6761C94.7136 67.6761 96.3978 65.6784 96.3978 63.214C96.3978 60.7497 94.7136 58.752 92.6361 58.752C90.5587 58.752 88.8745 60.7497 88.8745 63.214C88.8745 65.6784 90.5587 67.6761 92.6361 67.6761Z" fill="white"/>
<path d="M71 64C71 65.1046 70.1046 66.5 69 66.5C67.8954 66.5 67 65.1046 67 64C67 62.8954 67.8954 62 69 62C70.1046 62 71 62.8954 71 64Z" fill="#0D346A"/>
<path d="M95 64C95 65.1046 94.1046 66.5 93 66.5C91.8954 66.5 91 65.1046 91 64C91 62.8954 91.8954 62 93 62C94.1046 62 95 62.8954 95 64Z" fill="#0D346A"/>
<path d="M4.136 92.24C3.656 92.24 3.20267 92.208 2.776 92.144C2.36 92.0907 2.08267 92.0107 1.944 91.904C1.88 91.84 1.83733 91.7493 1.816 91.632C1.80533 91.504 1.8 91.4027 1.8 91.328C1.8 91.072 1.82133 90.784 1.864 90.464C1.91733 90.1333 1.976 89.8133 2.04 89.504C2.104 89.1947 2.15733 88.9333 2.2 88.72C2.25333 88.496 2.28 88.3573 2.28 88.304C2.28 88.2187 2.23733 88.16 2.152 88.128C2.06667 88.0853 2.024 88.0213 2.024 87.936C2.024 87.8507 2.072 87.808 2.168 87.808C2.27467 87.7973 2.36 87.7867 2.424 87.776C2.46667 87.6373 2.52533 87.3973 2.6 87.056C2.67467 86.7147 2.75467 86.3307 2.84 85.904C2.936 85.4773 3.02133 85.056 3.096 84.64C3.17067 84.2133 3.23467 83.84 3.288 83.52C3.34133 83.2 3.368 82.9867 3.368 82.88C3.368 82.784 3.31467 82.736 3.208 82.736C3.112 82.736 3.01067 82.736 2.904 82.736C2.79733 82.736 2.744 82.688 2.744 82.592C2.744 82.4853 2.80267 82.4107 2.92 82.368C3.048 82.3253 3.192 82.2987 3.352 82.288C3.512 82.2667 3.65067 82.256 3.768 82.256C4.36533 82.256 4.95733 82.2827 5.544 82.336C6.13067 82.3893 6.72267 82.416 7.32 82.416H7.4C7.54933 82.416 7.65067 82.3947 7.704 82.352C7.768 82.3093 7.816 82.2667 7.848 82.224C7.88 82.1813 7.92267 82.16 7.976 82.16C8.04 82.16 8.13067 82.2027 8.248 82.288C8.36533 82.3627 8.424 82.4373 8.424 82.512C8.424 82.5547 8.41333 82.5813 8.392 82.592C8.37067 82.6027 8.34933 82.6187 8.328 82.64C8.072 82.8107 7.90667 83.0453 7.832 83.344C7.768 83.632 7.69867 83.9093 7.624 84.176C7.61333 84.208 7.59733 84.256 7.576 84.32C7.56533 84.384 7.53333 84.416 7.48 84.416C7.43733 84.416 7.40533 84.384 7.384 84.32C7.37333 84.256 7.368 84.2027 7.368 84.16C7.368 84.0533 7.37867 83.9093 7.4 83.728C7.432 83.5467 7.464 83.3653 7.496 83.184C7.528 82.992 7.56 82.848 7.592 82.752C7.58133 82.7627 7.528 82.768 7.432 82.768C7.28267 82.768 7.05867 82.7573 6.76 82.736C6.472 82.7147 6.17333 82.6933 5.864 82.672C5.56533 82.6507 5.32 82.64 5.128 82.64C5.04267 82.64 4.89867 82.6453 4.696 82.656C4.49333 82.656 4.35467 82.6827 4.28 82.736C4.25867 82.7467 4.216 82.8747 4.152 83.12C4.09867 83.3547 4.02933 83.6587 3.944 84.032C3.85867 84.3947 3.768 84.784 3.672 85.2C3.58667 85.6053 3.50133 86 3.416 86.384C3.34133 86.7573 3.27733 87.0773 3.224 87.344C3.18133 87.6 3.16 87.7493 3.16 87.792C3.16 87.8347 3.24 87.8613 3.4 87.872C3.56 87.8827 3.72 87.888 3.88 87.888H5.496C5.688 87.888 5.90667 87.8933 6.152 87.904C6.39733 87.904 6.61067 87.92 6.792 87.952C6.984 87.984 7.08 88.032 7.08 88.096C7.08 88.1387 7.00533 88.176 6.856 88.208C6.70667 88.24 6.552 88.2613 6.392 88.272C6.24267 88.2827 6.14667 88.2933 6.104 88.304C5.74133 88.3253 5.37333 88.3467 5 88.368C4.62667 88.3787 4.25333 88.384 3.88 88.384H2.984C2.92 88.544 2.856 88.7627 2.792 89.04C2.728 89.3173 2.67467 89.6107 2.632 89.92C2.58933 90.2187 2.568 90.5013 2.568 90.768C2.568 91.056 2.6 91.28 2.664 91.44C2.70667 91.536 2.81867 91.6107 3 91.664C3.192 91.7067 3.416 91.7387 3.672 91.76C3.93867 91.7707 4.20533 91.776 4.472 91.776C4.97333 91.776 5.40533 91.7653 5.768 91.744C6.13067 91.7227 6.49867 91.6853 6.872 91.632C7.24533 91.568 7.69867 91.488 8.232 91.392C8.33867 91.392 8.392 91.424 8.392 91.488C8.392 91.5627 8.33867 91.6213 8.232 91.664C8.12533 91.696 8.06133 91.7173 8.04 91.728C7.80533 91.824 7.48 91.9093 7.064 91.984C6.648 92.0587 6.184 92.1173 5.672 92.16C5.17067 92.2133 4.65867 92.24 4.136 92.24ZM9.3025 92.288C9.21717 92.288 9.1745 92.256 9.1745 92.192L9.3825 91.584C9.43583 91.4453 9.46783 91.312 9.4785 91.184C9.49983 91.0453 9.53183 90.9067 9.5745 90.768C9.6385 90.4907 9.70783 90.2133 9.7825 89.936C9.85717 89.6587 9.93717 89.3867 10.0225 89.12C10.0545 89.024 10.0972 88.8853 10.1505 88.704C10.2038 88.5227 10.2518 88.3413 10.2945 88.16C10.3478 87.968 10.3745 87.824 10.3745 87.728C10.3745 87.6747 10.3372 87.6533 10.2625 87.664C10.1985 87.6747 10.1612 87.664 10.1505 87.632C10.2252 87.44 10.2892 87.2427 10.3425 87.04C10.3958 86.8373 10.4598 86.64 10.5345 86.448C10.5665 86.3627 10.6518 86.2827 10.7905 86.208C10.9292 86.1227 11.0412 86.08 11.1265 86.08C11.2758 86.08 11.3505 86.176 11.3505 86.368C11.3505 86.5387 11.3078 86.8 11.2225 87.152C11.1372 87.504 11.0252 87.888 10.8865 88.304C10.7585 88.72 10.6305 89.1253 10.5025 89.52C10.3852 89.904 10.2838 90.2187 10.1985 90.464C10.5398 90.144 10.8812 89.792 11.2225 89.408C11.5638 89.024 11.8732 88.64 12.1505 88.256C12.4385 87.8613 12.6625 87.504 12.8225 87.184C12.8225 87.0667 12.8972 86.9867 13.0465 86.944C13.2065 86.9013 13.3292 86.8907 13.4145 86.912C13.4572 86.8907 13.4892 86.88 13.5105 86.88C13.6065 86.88 13.6652 86.9547 13.6865 87.104C13.7185 87.2427 13.7345 87.344 13.7345 87.408C13.7345 87.5253 13.7185 87.6907 13.6865 87.904C13.6652 88.1067 13.5905 88.24 13.4625 88.304C13.4518 88.3893 13.4465 88.48 13.4465 88.576C13.4465 88.6613 13.4465 88.7467 13.4465 88.832C13.4465 88.96 13.4518 89.1733 13.4625 89.472C13.4838 89.76 13.5212 90.064 13.5745 90.384C13.6278 90.704 13.7132 90.9813 13.8305 91.216C13.9478 91.44 14.1078 91.552 14.3105 91.552C14.5025 91.552 14.6678 91.4987 14.8065 91.392C14.9558 91.2853 15.0838 91.1627 15.1905 91.024C15.2972 90.8853 15.3825 90.7627 15.4465 90.656C15.5105 90.5493 15.5585 90.496 15.5905 90.496C15.6438 90.496 15.6705 90.528 15.6705 90.592C15.6705 90.7413 15.5905 90.9227 15.4305 91.136C15.2812 91.3493 15.1532 91.5093 15.0465 91.616C14.9292 91.744 14.7905 91.856 14.6305 91.952C14.4705 92.048 14.2998 92.096 14.1185 92.096C13.7985 92.096 13.5478 91.984 13.3665 91.76C13.1852 91.5253 13.0465 91.2427 12.9505 90.912C12.8652 90.5707 12.8065 90.2293 12.7745 89.888C12.7532 89.536 12.7425 89.248 12.7425 89.024C12.7425 88.8213 12.7425 88.624 12.7425 88.432C12.7532 88.24 12.7638 88.048 12.7745 87.856C12.6038 88.1547 12.4065 88.4427 12.1825 88.72C11.9585 88.9973 11.7398 89.2693 11.5265 89.536C11.2065 89.8987 10.8918 90.2933 10.5825 90.72C10.5292 90.7947 10.4758 90.8853 10.4225 90.992C10.3798 91.088 10.3212 91.1733 10.2465 91.248L10.2145 91.28C10.1398 91.4827 10.0918 91.6373 10.0705 91.744C10.0492 91.8507 9.9425 91.968 9.7505 92.096C9.6865 92.1387 9.61717 92.1813 9.5425 92.224C9.46783 92.2667 9.38783 92.288 9.3025 92.288ZM19.9201 92.112C19.6215 92.112 19.3975 92.0053 19.2481 91.792C19.0988 91.5787 18.9975 91.3333 18.9441 91.056C18.9015 90.768 18.8801 90.512 18.8801 90.288C18.8801 90.064 18.8908 89.8453 18.9121 89.632C18.9441 89.408 18.9761 89.1893 19.0081 88.976C18.9015 89.1147 18.7521 89.312 18.5601 89.568C18.3681 89.8133 18.1495 90.0853 17.9041 90.384C17.6588 90.672 17.4081 90.9493 17.1521 91.216C16.8961 91.472 16.6455 91.6853 16.4001 91.856C16.1655 92.016 15.9628 92.096 15.7921 92.096C15.6428 92.096 15.5468 92.0267 15.5041 91.888C15.4721 91.7493 15.4561 91.6267 15.4561 91.52C15.4561 91.04 15.5521 90.5333 15.7441 90C15.9361 89.4667 16.1335 88.9867 16.3361 88.56C16.3895 88.4427 16.4695 88.2827 16.5761 88.08C16.6828 87.8773 16.8055 87.6693 16.9441 87.456C17.0935 87.2427 17.2481 87.0667 17.4081 86.928C17.5681 86.7893 17.7281 86.7307 17.8881 86.752C18.0055 86.6773 18.1175 86.6133 18.2241 86.56C18.3415 86.496 18.4695 86.464 18.6081 86.464C18.6935 86.464 18.8321 86.4907 19.0241 86.544C19.2268 86.5973 19.3708 86.6347 19.4561 86.656C19.4988 86.5707 19.5628 86.5067 19.6481 86.464C19.7335 86.4213 19.8188 86.4 19.9041 86.4C19.9895 86.4 20.0481 86.4053 20.0801 86.416C20.1228 86.3947 20.1548 86.384 20.1761 86.384C20.2401 86.384 20.2828 86.432 20.3041 86.528C20.3255 86.6133 20.3361 86.6827 20.3361 86.736C20.3361 86.8747 20.3201 86.9973 20.2881 87.104C20.2561 87.2107 20.2135 87.328 20.1601 87.456C20.1175 87.5627 20.0801 87.664 20.0481 87.76C20.0268 87.8453 19.9681 87.9253 19.8721 88C19.7975 88.384 19.7388 88.7733 19.6961 89.168C19.6641 89.552 19.6481 89.9413 19.6481 90.336C19.6481 90.4747 19.6535 90.64 19.6641 90.832C19.6855 91.024 19.7335 91.1947 19.8081 91.344C19.8935 91.4933 20.0215 91.568 20.1921 91.568C20.4588 91.568 20.6935 91.472 20.8961 91.28C21.1095 91.0773 21.2855 90.8853 21.4241 90.704C21.4455 90.672 21.4721 90.64 21.5041 90.608C21.5361 90.5653 21.5735 90.5333 21.6161 90.512L21.6641 90.608C21.6641 90.7147 21.6108 90.8427 21.5041 90.992C21.3975 91.1413 21.2801 91.2853 21.1521 91.424C21.0241 91.552 20.9175 91.648 20.8321 91.712C20.7041 91.8187 20.5601 91.9147 20.4001 92C20.2508 92.0747 20.0908 92.112 19.9201 92.112ZM16.3361 91.44C16.4001 91.44 16.4695 91.4133 16.5441 91.36C16.6188 91.3067 16.6775 91.2587 16.7201 91.216C17.2215 90.7787 17.6641 90.288 18.0481 89.744C18.4428 89.2 18.7841 88.6347 19.0721 88.048C19.1041 87.9947 19.1361 87.936 19.1681 87.872C19.2001 87.808 19.2215 87.744 19.2321 87.68C19.2535 87.5947 19.2748 87.504 19.2961 87.408C19.3175 87.3013 19.3335 87.2053 19.3441 87.12C19.3335 87.0667 19.2748 87.0187 19.1681 86.976C19.0615 86.9333 18.9441 86.9013 18.8161 86.88C18.6988 86.848 18.6135 86.832 18.5601 86.832C18.3575 86.832 18.1761 86.9173 18.0161 87.088C17.8668 87.248 17.7388 87.4027 17.6321 87.552C17.5041 87.744 17.3548 87.9947 17.1841 88.304C17.0241 88.6133 16.8641 88.944 16.7041 89.296C16.5548 89.6373 16.4268 89.968 16.3201 90.288C16.2241 90.608 16.1761 90.88 16.1761 91.104C16.1761 91.1573 16.1815 91.2267 16.1921 91.312C16.2135 91.3973 16.2615 91.44 16.3361 91.44ZM22.9326 92.272C22.602 92.272 22.3033 92.1867 22.0366 92.016C22.026 92.0587 22.0153 92.096 22.0046 92.128C21.994 92.16 21.962 92.176 21.9086 92.176C21.7806 92.176 21.658 92.1173 21.5406 92C21.434 91.872 21.3806 91.7493 21.3806 91.632C21.3806 91.5573 21.3913 91.4453 21.4126 91.296C21.4446 91.1467 21.482 91.0027 21.5246 90.864C21.578 90.7253 21.6313 90.6293 21.6846 90.576C21.802 90.0533 21.9193 89.536 22.0366 89.024C22.1646 88.5013 22.2926 87.9787 22.4206 87.456C22.5486 86.9653 22.6926 86.448 22.8526 85.904C23.0233 85.3493 23.226 84.8107 23.4606 84.288C23.706 83.7547 24.0046 83.28 24.3566 82.864C24.7193 82.4373 25.1513 82.112 25.6526 81.888C25.9833 81.7387 26.3193 81.664 26.6606 81.664C26.778 81.664 26.9166 81.6907 27.0766 81.744C27.2366 81.7867 27.3753 81.856 27.4926 81.952C27.61 82.048 27.6686 82.1707 27.6686 82.32C27.6686 82.384 27.6526 82.432 27.6206 82.464C27.5993 82.4853 27.546 82.5333 27.4606 82.608C27.3753 82.672 27.29 82.736 27.2046 82.8C27.13 82.864 27.082 82.896 27.0606 82.896C27.0393 82.896 27.0286 82.8747 27.0286 82.832C27.0286 82.8 27.0393 82.7733 27.0606 82.752C27.082 82.7307 27.0926 82.6987 27.0926 82.656C27.0926 82.5493 27.034 82.4533 26.9166 82.368C26.81 82.272 26.682 82.1973 26.5326 82.144C26.3833 82.08 26.2606 82.048 26.1646 82.048C25.8233 82.048 25.5033 82.192 25.2046 82.48C24.9166 82.7573 24.65 83.1307 24.4046 83.6C24.1593 84.0693 23.9353 84.5867 23.7326 85.152C23.5406 85.7067 23.3646 86.2667 23.2046 86.832C23.0446 87.3867 22.906 87.8987 22.7886 88.368C22.682 88.8373 22.586 89.2107 22.5006 89.488C22.5753 89.3493 22.6873 89.152 22.8366 88.896C22.986 88.64 23.1566 88.3627 23.3486 88.064C23.5513 87.7653 23.7593 87.4827 23.9726 87.216C24.1966 86.9493 24.41 86.7307 24.6126 86.56C24.8153 86.3893 24.9966 86.304 25.1566 86.304C25.3166 86.304 25.4286 86.384 25.4926 86.544C25.5566 86.6933 25.594 86.864 25.6046 87.056C25.6153 87.2373 25.6206 87.3813 25.6206 87.488C25.6206 87.7653 25.6046 88.048 25.5726 88.336C25.6153 88.3147 25.69 88.2773 25.7966 88.224C25.9033 88.1707 25.978 88.144 26.0206 88.144C26.0846 88.144 26.1166 88.176 26.1166 88.24C26.1166 88.3467 26.0366 88.4213 25.8766 88.464C25.7273 88.496 25.61 88.5333 25.5246 88.576C25.45 89.024 25.338 89.4933 25.1886 89.984C25.0393 90.4747 24.8206 90.9013 24.5326 91.264C24.4153 91.4133 24.266 91.536 24.0846 91.632C23.9033 91.728 23.7326 91.8347 23.5726 91.952C23.4873 92.016 23.402 92.0693 23.3166 92.112C23.242 92.1653 23.1513 92.2187 23.0446 92.272H22.9326ZM22.6286 90.128C22.97 89.8187 23.3326 89.5467 23.7166 89.312C24.1113 89.0667 24.506 88.832 24.9006 88.608C24.986 88.2453 25.0286 87.8773 25.0286 87.504C25.0286 87.44 25.018 87.3493 24.9966 87.232C24.986 87.104 24.9273 87.04 24.8206 87.04C24.6713 87.04 24.5113 87.1253 24.3406 87.296C24.17 87.4667 24.0153 87.6533 23.8766 87.856C23.7486 88.0587 23.6526 88.2187 23.5886 88.336C23.418 88.624 23.242 88.9173 23.0606 89.216C22.89 89.504 22.746 89.808 22.6286 90.128ZM22.9966 91.84C23.2846 91.84 23.5353 91.7333 23.7486 91.52C23.962 91.296 24.1433 91.024 24.2926 90.704C24.442 90.3733 24.5646 90.048 24.6606 89.728C24.7566 89.3973 24.826 89.1307 24.8686 88.928C24.6873 89.024 24.4686 89.1573 24.2126 89.328C23.9566 89.488 23.6953 89.6693 23.4286 89.872C23.1726 90.064 22.938 90.2613 22.7246 90.464C22.522 90.6667 22.3833 90.8587 22.3086 91.04L22.1966 91.456C22.3033 91.5627 22.426 91.6533 22.5646 91.728C22.7033 91.8027 22.8473 91.84 22.9966 91.84ZM26.4983 91.984C26.4023 91.984 26.3169 91.9573 26.2423 91.904C26.1783 91.8507 26.1463 91.7707 26.1463 91.664C26.1463 91.5147 26.1569 91.328 26.1783 91.104C26.1996 90.88 26.2209 90.688 26.2423 90.528C26.3276 90.016 26.4236 89.504 26.5303 88.992C26.6476 88.4693 26.7756 87.9573 26.9143 87.456C27.0423 86.9653 27.1916 86.448 27.3623 85.904C27.5329 85.3493 27.7409 84.8107 27.9863 84.288C28.2316 83.7653 28.5303 83.296 28.8823 82.88C29.2449 82.4533 29.6769 82.128 30.1783 81.904C30.3063 81.8507 30.4396 81.808 30.5783 81.776C30.7169 81.7333 30.8556 81.712 30.9943 81.712C31.1223 81.712 31.2716 81.7387 31.4423 81.792C31.6236 81.8453 31.7783 81.9253 31.9063 82.032C32.0343 82.128 32.0983 82.256 32.0983 82.416C32.0983 82.48 32.0823 82.528 32.0503 82.56C32.0289 82.592 31.9436 82.6613 31.7943 82.768C31.6556 82.864 31.5756 82.9173 31.5543 82.928C31.5329 82.9067 31.5223 82.8907 31.5223 82.88C31.5223 82.848 31.5383 82.816 31.5703 82.784C31.6023 82.752 31.6183 82.7147 31.6183 82.672C31.6183 82.5653 31.5596 82.4693 31.4423 82.384C31.3249 82.288 31.1916 82.2133 31.0423 82.16C30.8929 82.096 30.7703 82.064 30.6743 82.064C30.3223 82.064 29.9969 82.2133 29.6983 82.512C29.4103 82.8107 29.1489 83.1947 28.9143 83.664C28.6796 84.1227 28.4716 84.6133 28.2903 85.136C28.1089 85.648 27.9543 86.1333 27.8263 86.592C27.6983 87.0507 27.5969 87.4187 27.5223 87.696C27.4369 88.0053 27.3463 88.352 27.2503 88.736C27.1543 89.12 27.0689 89.5093 26.9943 89.904C26.9303 90.288 26.8983 90.6453 26.8983 90.976C26.8983 91.072 26.9143 91.1733 26.9463 91.28C26.9889 91.376 27.0689 91.424 27.1863 91.424C27.3463 91.424 27.5116 91.3707 27.6823 91.264C27.8636 91.1573 28.0343 91.0347 28.1943 90.896C28.3649 90.7467 28.5089 90.6187 28.6263 90.512C28.7543 90.4053 28.8396 90.352 28.8823 90.352C28.9036 90.352 28.9143 90.3627 28.9143 90.384C28.9143 90.4587 28.8929 90.5333 28.8503 90.608C28.8076 90.6827 28.7596 90.7467 28.7063 90.8C28.5676 90.9387 28.3703 91.104 28.1143 91.296C27.8583 91.4773 27.5863 91.6373 27.2983 91.776C27.0103 91.9147 26.7436 91.984 26.4983 91.984ZM30.8475 85.664C30.8048 85.664 30.7622 85.6213 30.7195 85.536C30.6875 85.4507 30.6608 85.36 30.6395 85.264C30.6288 85.1573 30.6235 85.0827 30.6235 85.04C30.6235 85.0187 30.6235 84.992 30.6235 84.96C30.6342 84.9173 30.6555 84.8907 30.6875 84.88C30.8688 84.8587 31.0395 84.8267 31.1995 84.784C31.3702 84.7413 31.5408 84.6933 31.7115 84.64C31.7328 84.6293 31.7702 84.624 31.8235 84.624C31.9088 84.624 31.9515 84.672 31.9515 84.768C31.9515 84.9813 31.8502 85.1573 31.6475 85.296C31.5302 85.3707 31.4022 85.4507 31.2635 85.536C31.1355 85.6213 30.9968 85.664 30.8475 85.664ZM29.2795 92.112C29.1195 92.112 29.0395 92.0267 29.0395 91.856C29.0395 91.6747 29.0715 91.44 29.1355 91.152C29.1995 90.8533 29.2742 90.5547 29.3595 90.256C29.4448 89.9573 29.5088 89.7227 29.5515 89.552C29.5622 89.5093 29.5942 89.3973 29.6475 89.216C29.7008 89.024 29.7595 88.816 29.8235 88.592C29.8875 88.368 29.9408 88.1707 29.9835 88C30.0368 87.8187 30.0635 87.712 30.0635 87.68C30.0635 87.6267 30.0315 87.5787 29.9675 87.536C29.9142 87.4933 29.8875 87.4453 29.8875 87.392C29.8875 87.36 29.8928 87.328 29.9035 87.296C29.9142 87.264 29.9248 87.2373 29.9355 87.216C29.9675 87.1627 30.0475 87.0933 30.1755 87.008C30.3035 86.9227 30.4368 86.848 30.5755 86.784C30.7248 86.7093 30.8262 86.672 30.8795 86.672C30.9115 86.672 30.9328 86.6773 30.9435 86.688C30.9542 86.7093 30.9595 86.7467 30.9595 86.8C30.9595 86.896 30.9328 87.04 30.8795 87.232C30.8368 87.424 30.7782 87.6373 30.7035 87.872C30.6395 88.096 30.5755 88.304 30.5115 88.496C30.4475 88.688 30.3995 88.832 30.3675 88.928C30.3142 89.088 30.2395 89.3173 30.1435 89.616C30.0475 89.9147 29.9622 90.2133 29.8875 90.512C29.8128 90.8107 29.7755 91.0453 29.7755 91.216C29.7755 91.2373 29.7808 91.2853 29.7915 91.36C29.8022 91.424 29.8288 91.456 29.8715 91.456C29.9248 91.456 30.0208 91.4133 30.1595 91.328C30.3088 91.232 30.4635 91.1413 30.6235 91.056C30.7835 90.9707 30.9062 90.928 30.9915 90.928C31.0342 90.928 31.0608 90.9387 31.0715 90.96C31.0715 91.0027 31.0022 91.0773 30.8635 91.184C30.7248 91.28 30.5755 91.3813 30.4155 91.488C30.2662 91.584 30.1648 91.6587 30.1115 91.712C30.0048 91.808 29.8768 91.8987 29.7275 91.984C29.5782 92.0693 29.4288 92.112 29.2795 92.112ZM31.865 92.288C31.7797 92.288 31.737 92.256 31.737 92.192L31.945 91.584C31.9983 91.4453 32.0303 91.312 32.041 91.184C32.0623 91.0453 32.0943 90.9067 32.137 90.768C32.201 90.4907 32.2703 90.2133 32.345 89.936C32.4197 89.6587 32.4997 89.3867 32.585 89.12C32.617 89.024 32.6597 88.8853 32.713 88.704C32.7663 88.5227 32.8143 88.3413 32.857 88.16C32.9103 87.968 32.937 87.824 32.937 87.728C32.937 87.6747 32.8997 87.6533 32.825 87.664C32.761 87.6747 32.7237 87.664 32.713 87.632C32.7877 87.44 32.8517 87.2427 32.905 87.04C32.9583 86.8373 33.0223 86.64 33.097 86.448C33.129 86.3627 33.2143 86.2827 33.353 86.208C33.4917 86.1227 33.6037 86.08 33.689 86.08C33.8383 86.08 33.913 86.176 33.913 86.368C33.913 86.5387 33.8703 86.8 33.785 87.152C33.6997 87.504 33.5877 87.888 33.449 88.304C33.321 88.72 33.193 89.1253 33.065 89.52C32.9477 89.904 32.8463 90.2187 32.761 90.464C33.1023 90.144 33.4437 89.792 33.785 89.408C34.1263 89.024 34.4357 88.64 34.713 88.256C35.001 87.8613 35.225 87.504 35.385 87.184C35.385 87.0667 35.4597 86.9867 35.609 86.944C35.769 86.9013 35.8917 86.8907 35.977 86.912C36.0197 86.8907 36.0517 86.88 36.073 86.88C36.169 86.88 36.2277 86.9547 36.249 87.104C36.281 87.2427 36.297 87.344 36.297 87.408C36.297 87.5253 36.281 87.6907 36.249 87.904C36.2277 88.1067 36.153 88.24 36.025 88.304C36.0143 88.3893 36.009 88.48 36.009 88.576C36.009 88.6613 36.009 88.7467 36.009 88.832C36.009 88.96 36.0143 89.1733 36.025 89.472C36.0463 89.76 36.0837 90.064 36.137 90.384C36.1903 90.704 36.2757 90.9813 36.393 91.216C36.5103 91.44 36.6703 91.552 36.873 91.552C37.065 91.552 37.2303 91.4987 37.369 91.392C37.5183 91.2853 37.6463 91.1627 37.753 91.024C37.8597 90.8853 37.945 90.7627 38.009 90.656C38.073 90.5493 38.121 90.496 38.153 90.496C38.2063 90.496 38.233 90.528 38.233 90.592C38.233 90.7413 38.153 90.9227 37.993 91.136C37.8437 91.3493 37.7157 91.5093 37.609 91.616C37.4917 91.744 37.353 91.856 37.193 91.952C37.033 92.048 36.8623 92.096 36.681 92.096C36.361 92.096 36.1103 91.984 35.929 91.76C35.7477 91.5253 35.609 91.2427 35.513 90.912C35.4277 90.5707 35.369 90.2293 35.337 89.888C35.3157 89.536 35.305 89.248 35.305 89.024C35.305 88.8213 35.305 88.624 35.305 88.432C35.3157 88.24 35.3263 88.048 35.337 87.856C35.1663 88.1547 34.969 88.4427 34.745 88.72C34.521 88.9973 34.3023 89.2693 34.089 89.536C33.769 89.8987 33.4543 90.2933 33.145 90.72C33.0917 90.7947 33.0383 90.8853 32.985 90.992C32.9423 91.088 32.8837 91.1733 32.809 91.248L32.777 91.28C32.7023 91.4827 32.6543 91.6373 32.633 91.744C32.6117 91.8507 32.505 91.968 32.313 92.096C32.249 92.1387 32.1797 92.1813 32.105 92.224C32.0303 92.2667 31.9503 92.288 31.865 92.288ZM37.1546 97.312C36.696 97.312 36.2906 97.2 35.9386 96.976C35.5866 96.752 35.32 96.4267 35.1386 96C35.064 95.8187 35 95.6267 34.9466 95.424C34.8933 95.2213 34.8666 95.0187 34.8666 94.816C34.8666 94.752 34.8826 94.64 34.9146 94.48C34.936 94.32 34.9893 94.24 35.0746 94.24C35.1386 94.24 35.176 94.288 35.1866 94.384C35.1973 94.48 35.2026 94.5493 35.2026 94.592C35.2026 94.8587 35.2613 95.12 35.3786 95.376C35.496 95.632 35.624 95.8667 35.7626 96.08C35.9226 96.3253 36.12 96.5493 36.3546 96.752C36.5893 96.9547 36.8613 97.056 37.1706 97.056C37.5866 97.056 37.9706 96.912 38.3226 96.624C38.6746 96.336 38.9946 95.952 39.2826 95.472C39.5813 95.0027 39.8426 94.48 40.0666 93.904C40.3013 93.328 40.4986 92.7467 40.6586 92.16C40.8293 91.5733 40.9733 91.0293 41.0906 90.528C41.208 90.016 41.2933 89.6 41.3466 89.28C41.2293 89.4613 41.048 89.7067 40.8026 90.016C40.568 90.3253 40.3013 90.64 40.0026 90.96C39.7146 91.28 39.4266 91.552 39.1386 91.776C38.8506 91.9893 38.6 92.096 38.3866 92.096C38.2266 92.096 38.1253 92.0427 38.0826 91.936C38.0506 91.8187 38.0346 91.6907 38.0346 91.552C38.0346 91.232 38.0826 90.896 38.1786 90.544C38.2746 90.1813 38.392 89.824 38.5306 89.472C38.68 89.12 38.824 88.8053 38.9626 88.528C39.016 88.4107 39.096 88.2453 39.2026 88.032C39.32 87.8187 39.4533 87.6053 39.6026 87.392C39.752 87.168 39.912 86.9813 40.0826 86.832C40.2533 86.6827 40.4186 86.6187 40.5786 86.64L40.6426 86.608C40.696 86.5547 40.7546 86.5173 40.8186 86.496C40.8826 86.4747 40.952 86.464 41.0266 86.464C41.2186 86.464 41.4106 86.5013 41.6026 86.576C41.7946 86.64 41.976 86.672 42.1466 86.672C42.2 86.672 42.2746 86.6347 42.3706 86.56C42.4666 86.4747 42.5626 86.3947 42.6586 86.32C42.7653 86.2453 42.856 86.208 42.9306 86.208C42.9733 86.208 42.9946 86.24 42.9946 86.304C42.9946 86.432 42.9626 86.5547 42.8986 86.672C42.7173 87.0027 42.568 87.3653 42.4506 87.76C42.3333 88.1547 42.2213 88.5387 42.1146 88.912C41.976 89.4133 41.8426 89.92 41.7146 90.432C41.5973 90.944 41.4693 91.456 41.3306 91.968C41.16 92.5973 40.9573 93.2373 40.7226 93.888C40.488 94.5387 40.168 95.1307 39.7626 95.664C39.4426 96.0907 39.048 96.4693 38.5786 96.8C38.12 97.1413 37.6453 97.312 37.1546 97.312ZM38.8346 91.456C38.888 91.456 38.9786 91.4027 39.1066 91.296C39.2346 91.1787 39.384 91.0347 39.5546 90.864C39.7253 90.6933 39.8906 90.5173 40.0506 90.336C40.2213 90.1547 40.36 89.9947 40.4666 89.856C40.6053 89.6853 40.76 89.472 40.9306 89.216C41.112 88.96 41.2826 88.6987 41.4426 88.432C41.6026 88.1547 41.7306 87.8987 41.8266 87.664C41.9333 87.4187 41.9866 87.2267 41.9866 87.088C41.9866 87.0133 41.976 86.9707 41.9546 86.96C41.9333 86.9387 41.9013 86.928 41.8586 86.928C41.752 86.928 41.64 86.9173 41.5226 86.896C41.416 86.8747 41.304 86.864 41.1866 86.864C41.048 86.864 40.8986 86.8907 40.7386 86.944C40.6106 86.9867 40.4666 87.1253 40.3066 87.36C40.1466 87.584 40.0026 87.824 39.8746 88.08C39.7466 88.3253 39.6506 88.5067 39.5866 88.624C39.48 88.8373 39.3573 89.0933 39.2186 89.392C39.0906 89.6907 38.9786 89.9947 38.8826 90.304C38.7866 90.6027 38.7386 90.8747 38.7386 91.12C38.7386 91.1413 38.744 91.2053 38.7546 91.312C38.7653 91.408 38.792 91.456 38.8346 91.456ZM48.6071 93.184C48.2978 93.184 48.0471 92.9867 47.8551 92.592C47.6738 92.1973 47.5831 91.632 47.5831 90.896C47.5831 90.4907 47.6311 89.9947 47.7271 89.408C47.8338 88.8107 47.9671 88.176 48.1271 87.504C48.2871 86.832 48.4631 86.1813 48.6551 85.552C48.8578 84.912 49.0551 84.3413 49.2471 83.84C49.4498 83.328 49.6311 82.9387 49.7911 82.672C49.6525 82.64 49.5031 82.6187 49.3431 82.608C49.1831 82.5867 49.0871 82.5493 49.0551 82.496C49.0018 82.4107 49.0231 82.3307 49.1191 82.256C49.2258 82.1813 49.4071 82.144 49.6631 82.144C49.7165 82.144 49.7698 82.144 49.8231 82.144C49.8765 82.144 49.9351 82.1493 49.9991 82.16C50.0525 82.0747 50.1058 81.9947 50.1591 81.92C50.2231 81.8453 50.3085 81.808 50.4151 81.808C50.5218 81.808 50.5965 81.8613 50.6391 81.968C50.6818 82.064 50.7031 82.1707 50.7031 82.288C51.0231 82.3627 51.4071 82.4853 51.8551 82.656C52.3031 82.816 52.7458 83.0187 53.1831 83.264C53.6311 83.5093 53.9991 83.7973 54.2871 84.128C54.5858 84.448 54.7351 84.816 54.7351 85.232C54.7351 85.6267 54.6071 85.9733 54.3511 86.272C54.0951 86.5707 53.7805 86.8267 53.4071 87.04C53.0338 87.2427 52.6658 87.408 52.3031 87.536C51.9405 87.664 51.6525 87.76 51.4391 87.824C52.1325 87.824 52.7831 87.9093 53.3911 88.08C53.9991 88.2507 54.4898 88.5013 54.8631 88.832C55.2471 89.1627 55.4391 89.568 55.4391 90.048C55.4391 90.4427 55.3111 90.7893 55.0551 91.088C54.7991 91.376 54.4525 91.616 54.0151 91.808C53.5778 92 53.0871 92.1387 52.5431 92.224C51.9991 92.32 51.4391 92.368 50.8631 92.368C50.7671 92.368 50.6711 92.368 50.5751 92.368C50.4898 92.368 50.3991 92.3627 50.3031 92.352C50.0898 92.3413 49.8605 92.3253 49.6151 92.304C49.3805 92.2827 49.1885 92.256 49.0391 92.224C48.9858 92.2133 48.9165 92.1813 48.8311 92.128C48.7458 92.0853 48.7031 92.016 48.7031 91.92C48.7031 91.8027 48.7725 91.76 48.9111 91.792C49.0925 91.8347 49.2898 91.8773 49.5031 91.92C49.7271 91.9627 50.0045 92 50.3351 92.032C50.4418 92.0427 50.5538 92.048 50.6711 92.048C50.7885 92.0587 50.9058 92.064 51.0231 92.064C51.4285 92.064 51.8445 92.0267 52.2711 91.952C52.7085 91.8773 53.1085 91.7653 53.4711 91.616C53.8338 91.456 54.1271 91.2587 54.3511 91.024C54.5751 90.7893 54.6871 90.5067 54.6871 90.176C54.6871 89.8987 54.5965 89.6533 54.4151 89.44C54.2338 89.2267 54.0045 89.0453 53.7271 88.896C53.4605 88.736 53.1831 88.608 52.8951 88.512C52.6071 88.4053 52.3565 88.3307 52.1431 88.288C51.8551 88.224 51.5618 88.1813 51.2631 88.16C50.9645 88.128 50.6658 88.112 50.3671 88.112C50.0258 88.112 49.6845 88.1333 49.3431 88.176C49.0018 88.208 48.7725 88.2347 48.6551 88.256C48.6018 88.4907 48.5325 88.8107 48.4471 89.216C48.3618 89.6107 48.2871 90.0267 48.2231 90.464C48.1591 90.9013 48.1271 91.2907 48.1271 91.632C48.1271 92.0267 48.1911 92.3413 48.3191 92.576C48.4578 92.8213 48.5858 92.9547 48.7031 92.976C48.7458 92.976 48.7671 92.9973 48.7671 93.04C48.7671 93.136 48.7138 93.184 48.6071 93.184ZM48.7671 87.856C49.0338 87.856 49.3858 87.8293 49.8231 87.776C50.2711 87.7227 50.7405 87.6373 51.2311 87.52C51.7218 87.392 52.1805 87.232 52.6071 87.04C53.0445 86.848 53.4018 86.6133 53.6791 86.336C53.9565 86.0587 54.0951 85.7387 54.0951 85.376C54.0951 85.024 53.9565 84.7093 53.6791 84.432C53.4125 84.144 53.0765 83.8987 52.6711 83.696C52.2658 83.4827 51.8605 83.3067 51.4551 83.168C51.0498 83.0293 50.7085 82.928 50.4311 82.864C50.0685 83.6747 49.7538 84.496 49.4871 85.328C49.2311 86.16 48.9911 87.0027 48.7671 87.856ZM60.0855 92.16C60.0002 92.16 59.9148 92.128 59.8295 92.064C59.7548 92 59.7175 91.92 59.7175 91.824C59.7175 91.4933 59.7548 91.1253 59.8295 90.72C59.9148 90.3147 60.0108 89.9093 60.1175 89.504C60.2242 89.088 60.3148 88.7147 60.3895 88.384C60.3042 88.544 60.1602 88.7733 59.9575 89.072C59.7548 89.3707 59.5202 89.696 59.2535 90.048C58.9868 90.3893 58.7095 90.72 58.4215 91.04C58.1442 91.3493 57.8775 91.6053 57.6215 91.808C57.3762 92.0107 57.1682 92.112 56.9975 92.112C56.9122 92.112 56.8482 92.08 56.8055 92.016C56.7735 91.952 56.7575 91.8827 56.7575 91.808C56.7575 91.68 56.7948 91.4987 56.8695 91.264C56.9442 91.0187 57.0295 90.7573 57.1255 90.48C57.2322 90.192 57.3335 89.92 57.4295 89.664C57.5362 89.408 57.6108 89.1947 57.6535 89.024L57.9095 88.128H57.8775C57.8455 88.128 57.8082 88.1173 57.7655 88.096C57.7335 88.0747 57.7175 88.0427 57.7175 88C57.7175 87.9893 57.7175 87.9787 57.7175 87.968C57.7282 87.9573 57.7335 87.9467 57.7335 87.936C57.7868 87.7227 57.8242 87.4987 57.8455 87.264C57.8668 87.0187 57.9308 86.8107 58.0375 86.64C58.1548 86.4693 58.3575 86.384 58.6455 86.384C58.8268 86.384 58.9175 86.4747 58.9175 86.656C58.9175 86.8053 58.8748 87.0507 58.7895 87.392C58.7042 87.7227 58.5975 88.0853 58.4695 88.48C58.3522 88.8747 58.2348 89.248 58.1175 89.6C58.0002 89.9413 57.9148 90.2027 57.8615 90.384C57.8402 90.4587 57.7975 90.592 57.7335 90.784C57.6695 90.9653 57.6375 91.0933 57.6375 91.168L57.6535 91.2C57.6642 91.2 57.6802 91.1893 57.7015 91.168C58.1282 90.9013 58.5228 90.5333 58.8855 90.064C59.2588 89.5947 59.5948 89.0987 59.8935 88.576C60.2028 88.0533 60.4695 87.5787 60.6935 87.152C60.6828 87.0987 60.6775 87.0507 60.6775 87.008C60.6775 86.9653 60.6775 86.9227 60.6775 86.88C60.6775 86.6453 60.7735 86.4853 60.9655 86.4C61.1682 86.3147 61.3655 86.272 61.5575 86.272C61.6215 86.272 61.6908 86.2827 61.7655 86.304C61.8402 86.3253 61.8775 86.3787 61.8775 86.464C61.8775 86.5067 61.8668 86.5493 61.8455 86.592C61.8348 86.624 61.8188 86.6613 61.7975 86.704C61.6055 87.0773 61.4348 87.456 61.2855 87.84C61.1468 88.224 61.0135 88.6187 60.8855 89.024C60.8322 89.2053 60.7628 89.44 60.6775 89.728C60.5922 90.0053 60.5175 90.288 60.4535 90.576C60.4002 90.8533 60.3735 91.088 60.3735 91.28C60.3735 91.3547 60.3842 91.44 60.4055 91.536C60.4375 91.6213 60.5015 91.664 60.5975 91.664C60.6828 91.664 60.7948 91.616 60.9335 91.52C61.0722 91.4133 61.2162 91.2907 61.3655 91.152C61.5255 91.0133 61.6642 90.896 61.7815 90.8C61.9095 90.6933 61.9948 90.64 62.0375 90.64C62.0695 90.64 62.0855 90.6667 62.0855 90.72C62.0855 90.752 62.0748 90.8053 62.0535 90.88C62.0322 90.944 61.9895 91.0027 61.9255 91.056C61.8082 91.1627 61.6428 91.3067 61.4295 91.488C61.2162 91.6587 60.9868 91.8133 60.7415 91.952C60.5068 92.0907 60.2882 92.16 60.0855 92.16ZM62.6099 92.096C62.4179 92.096 62.3219 92.016 62.3219 91.856C62.3219 91.728 62.4072 91.6213 62.5779 91.536C62.7592 91.44 62.9725 91.36 63.2179 91.296C63.4739 91.232 63.7139 91.184 63.9379 91.152C64.1619 91.12 64.3219 91.0987 64.4179 91.088C64.4712 91.0347 64.5139 90.976 64.5459 90.912C64.5779 90.8373 64.5939 90.7627 64.5939 90.688C64.5939 90.6027 64.5672 90.5333 64.5139 90.48C64.4712 90.416 64.4125 90.3627 64.3379 90.32C64.1459 90.2027 63.9059 90.048 63.6179 89.856C63.3299 89.664 63.0739 89.4507 62.8499 89.216C62.6365 88.9707 62.5299 88.72 62.5299 88.464C62.5299 88.3147 62.5672 88.1973 62.6419 88.112C62.8339 87.8667 63.0792 87.5947 63.3779 87.296C63.6872 86.9867 64.0179 86.7253 64.3699 86.512C64.7325 86.288 65.0792 86.176 65.4099 86.176C65.7085 86.176 65.8899 86.224 65.9539 86.32C66.0179 86.416 66.0499 86.5973 66.0499 86.864C66.0499 87.0453 66.0179 87.248 65.9539 87.472C65.8899 87.6853 65.7565 87.8347 65.5539 87.92H65.5219C65.4899 87.92 65.4685 87.872 65.4579 87.776C65.4579 87.6693 65.4579 87.5733 65.4579 87.488C65.4579 87.424 65.4579 87.328 65.4579 87.2C65.4579 87.072 65.4312 86.9547 65.3779 86.848C65.3245 86.7307 65.2232 86.672 65.0739 86.672C64.9245 86.672 64.7485 86.72 64.5459 86.816C64.3432 86.9013 64.1405 87.024 63.9379 87.184C63.7459 87.3333 63.5859 87.4933 63.4579 87.664C63.3299 87.8347 63.2659 88 63.2659 88.16C63.2659 88.4267 63.3619 88.6507 63.5539 88.832C63.7565 89.0133 63.9912 89.1733 64.2579 89.312C64.5245 89.4507 64.7539 89.5947 64.9459 89.744C65.1485 89.8933 65.2499 90.0693 65.2499 90.272C65.2499 90.4213 65.2125 90.5653 65.1379 90.704C65.0632 90.832 64.9779 90.9493 64.8819 91.056C64.9885 91.0453 65.0952 91.04 65.2019 91.04C65.3192 91.0293 65.4312 91.024 65.5379 91.024C65.6339 91.024 65.6819 91.0507 65.6819 91.104C65.6819 91.1573 65.6659 91.1947 65.6339 91.216C65.6019 91.2267 65.5592 91.2373 65.5059 91.248C65.3459 91.2693 65.1805 91.2907 65.0099 91.312C64.8499 91.3333 64.6899 91.36 64.5299 91.392C64.2312 91.6587 63.9379 91.8453 63.6499 91.952C63.3619 92.048 63.0152 92.096 62.6099 92.096ZM68.3631 85.664C68.3205 85.664 68.2778 85.6213 68.2351 85.536C68.2031 85.4507 68.1765 85.36 68.1551 85.264C68.1445 85.1573 68.1391 85.0827 68.1391 85.04C68.1391 85.0187 68.1391 84.992 68.1391 84.96C68.1498 84.9173 68.1711 84.8907 68.2031 84.88C68.3845 84.8587 68.5551 84.8267 68.7151 84.784C68.8858 84.7413 69.0565 84.6933 69.2271 84.64C69.2485 84.6293 69.2858 84.624 69.3391 84.624C69.4245 84.624 69.4671 84.672 69.4671 84.768C69.4671 84.9813 69.3658 85.1573 69.1631 85.296C69.0458 85.3707 68.9178 85.4507 68.7791 85.536C68.6511 85.6213 68.5125 85.664 68.3631 85.664ZM66.7951 92.112C66.6351 92.112 66.5551 92.0267 66.5551 91.856C66.5551 91.6747 66.5871 91.44 66.6511 91.152C66.7151 90.8533 66.7898 90.5547 66.8751 90.256C66.9605 89.9573 67.0245 89.7227 67.0671 89.552C67.0778 89.5093 67.1098 89.3973 67.1631 89.216C67.2165 89.024 67.2751 88.816 67.3391 88.592C67.4031 88.368 67.4565 88.1707 67.4991 88C67.5525 87.8187 67.5791 87.712 67.5791 87.68C67.5791 87.6267 67.5471 87.5787 67.4831 87.536C67.4298 87.4933 67.4031 87.4453 67.4031 87.392C67.4031 87.36 67.4085 87.328 67.4191 87.296C67.4298 87.264 67.4405 87.2373 67.4511 87.216C67.4831 87.1627 67.5631 87.0933 67.6911 87.008C67.8191 86.9227 67.9525 86.848 68.0911 86.784C68.2405 86.7093 68.3418 86.672 68.3951 86.672C68.4271 86.672 68.4485 86.6773 68.4591 86.688C68.4698 86.7093 68.4751 86.7467 68.4751 86.8C68.4751 86.896 68.4485 87.04 68.3951 87.232C68.3525 87.424 68.2938 87.6373 68.2191 87.872C68.1551 88.096 68.0911 88.304 68.0271 88.496C67.9631 88.688 67.9151 88.832 67.8831 88.928C67.8298 89.088 67.7551 89.3173 67.6591 89.616C67.5631 89.9147 67.4778 90.2133 67.4031 90.512C67.3285 90.8107 67.2911 91.0453 67.2911 91.216C67.2911 91.2373 67.2965 91.2853 67.3071 91.36C67.3178 91.424 67.3445 91.456 67.3871 91.456C67.4405 91.456 67.5365 91.4133 67.6751 91.328C67.8245 91.232 67.9791 91.1413 68.1391 91.056C68.2991 90.9707 68.4218 90.928 68.5071 90.928C68.5498 90.928 68.5765 90.9387 68.5871 90.96C68.5871 91.0027 68.5178 91.0773 68.3791 91.184C68.2405 91.28 68.0911 91.3813 67.9311 91.488C67.7818 91.584 67.6805 91.6587 67.6271 91.712C67.5205 91.808 67.3925 91.8987 67.2431 91.984C67.0938 92.0693 66.9445 92.112 66.7951 92.112ZM69.3806 92.288C69.2953 92.288 69.2526 92.256 69.2526 92.192L69.4606 91.584C69.514 91.4453 69.546 91.312 69.5566 91.184C69.578 91.0453 69.61 90.9067 69.6526 90.768C69.7166 90.4907 69.786 90.2133 69.8606 89.936C69.9353 89.6587 70.0153 89.3867 70.1006 89.12C70.1326 89.024 70.1753 88.8853 70.2286 88.704C70.282 88.5227 70.33 88.3413 70.3726 88.16C70.426 87.968 70.4526 87.824 70.4526 87.728C70.4526 87.6747 70.4153 87.6533 70.3406 87.664C70.2766 87.6747 70.2393 87.664 70.2286 87.632C70.3033 87.44 70.3673 87.2427 70.4206 87.04C70.474 86.8373 70.538 86.64 70.6126 86.448C70.6446 86.3627 70.73 86.2827 70.8686 86.208C71.0073 86.1227 71.1193 86.08 71.2046 86.08C71.354 86.08 71.4286 86.176 71.4286 86.368C71.4286 86.5387 71.386 86.8 71.3006 87.152C71.2153 87.504 71.1033 87.888 70.9646 88.304C70.8366 88.72 70.7086 89.1253 70.5806 89.52C70.4633 89.904 70.362 90.2187 70.2766 90.464C70.618 90.144 70.9593 89.792 71.3006 89.408C71.642 89.024 71.9513 88.64 72.2286 88.256C72.5166 87.8613 72.7406 87.504 72.9006 87.184C72.9006 87.0667 72.9753 86.9867 73.1246 86.944C73.2846 86.9013 73.4073 86.8907 73.4926 86.912C73.5353 86.8907 73.5673 86.88 73.5886 86.88C73.6846 86.88 73.7433 86.9547 73.7646 87.104C73.7966 87.2427 73.8126 87.344 73.8126 87.408C73.8126 87.5253 73.7966 87.6907 73.7646 87.904C73.7433 88.1067 73.6686 88.24 73.5406 88.304C73.53 88.3893 73.5246 88.48 73.5246 88.576C73.5246 88.6613 73.5246 88.7467 73.5246 88.832C73.5246 88.96 73.53 89.1733 73.5406 89.472C73.562 89.76 73.5993 90.064 73.6526 90.384C73.706 90.704 73.7913 90.9813 73.9086 91.216C74.026 91.44 74.186 91.552 74.3886 91.552C74.5806 91.552 74.746 91.4987 74.8846 91.392C75.034 91.2853 75.162 91.1627 75.2686 91.024C75.3753 90.8853 75.4606 90.7627 75.5246 90.656C75.5886 90.5493 75.6366 90.496 75.6686 90.496C75.722 90.496 75.7486 90.528 75.7486 90.592C75.7486 90.7413 75.6686 90.9227 75.5086 91.136C75.3593 91.3493 75.2313 91.5093 75.1246 91.616C75.0073 91.744 74.8686 91.856 74.7086 91.952C74.5486 92.048 74.378 92.096 74.1966 92.096C73.8766 92.096 73.626 91.984 73.4446 91.76C73.2633 91.5253 73.1246 91.2427 73.0286 90.912C72.9433 90.5707 72.8846 90.2293 72.8526 89.888C72.8313 89.536 72.8206 89.248 72.8206 89.024C72.8206 88.8213 72.8206 88.624 72.8206 88.432C72.8313 88.24 72.842 88.048 72.8526 87.856C72.682 88.1547 72.4846 88.4427 72.2606 88.72C72.0366 88.9973 71.818 89.2693 71.6046 89.536C71.2846 89.8987 70.97 90.2933 70.6606 90.72C70.6073 90.7947 70.554 90.8853 70.5006 90.992C70.458 91.088 70.3993 91.1733 70.3246 91.248L70.2926 91.28C70.218 91.4827 70.17 91.6373 70.1486 91.744C70.1273 91.8507 70.0206 91.968 69.8286 92.096C69.7646 92.1387 69.6953 92.1813 69.6206 92.224C69.546 92.2667 69.466 92.288 69.3806 92.288ZM79.2623 88.464C79.2089 88.464 79.1823 88.4373 79.1823 88.384C79.1823 88.352 79.1876 88.3253 79.1983 88.304C79.2623 88.1333 79.3103 87.9733 79.3423 87.824C79.3849 87.664 79.4062 87.4987 79.4062 87.328C79.4062 87.264 79.4009 87.1787 79.3903 87.072C79.3903 86.9547 79.3689 86.848 79.3263 86.752C79.2943 86.656 79.2303 86.608 79.1343 86.608C79.0916 86.608 79.0543 86.6133 79.0223 86.624C78.9903 86.624 78.9529 86.624 78.9103 86.624C78.8036 86.624 78.7503 86.5813 78.7503 86.496C78.7503 86.4533 78.7983 86.416 78.8943 86.384C79.0009 86.352 79.1129 86.3253 79.2303 86.304C79.3476 86.2827 79.4276 86.272 79.4703 86.272C79.7369 86.272 79.9023 86.3733 79.9663 86.576C80.0409 86.768 80.0783 86.9707 80.0783 87.184C80.0783 87.3867 80.0409 87.6 79.9663 87.824C79.9023 88.048 79.7796 88.2187 79.5983 88.336C79.5556 88.368 79.5023 88.4 79.4383 88.432C79.3743 88.4533 79.3156 88.464 79.2623 88.464ZM76.8783 92.112C76.5689 92.112 76.3503 92.0373 76.2223 91.888C76.1049 91.7387 76.0463 91.52 76.0463 91.232C76.0463 90.912 76.0836 90.592 76.1583 90.272C76.2329 89.952 76.3236 89.6427 76.4303 89.344L76.2863 89.392C76.2329 89.36 76.2063 89.3067 76.2063 89.232C76.2063 89.136 76.2489 89.0453 76.3343 88.96C76.4303 88.864 76.5263 88.8107 76.6223 88.8C76.6863 88.64 76.7769 88.432 76.8943 88.176C77.0116 87.92 77.1449 87.664 77.2943 87.408C77.4543 87.152 77.6303 86.9387 77.8223 86.768C78.0143 86.5973 78.2223 86.512 78.4463 86.512C78.5423 86.512 78.5903 86.5547 78.5903 86.64C78.5903 86.672 78.5689 86.7147 78.5263 86.768C78.4836 86.8107 78.4516 86.8427 78.4303 86.864C78.2916 86.992 78.1583 87.1733 78.0303 87.408C77.9023 87.632 77.7849 87.8667 77.6783 88.112C77.5716 88.3467 77.4809 88.5547 77.4062 88.736C77.7049 88.6933 77.9983 88.6613 78.2863 88.64C78.5849 88.6187 78.8836 88.608 79.1823 88.608C79.2143 88.608 79.2943 88.6133 79.4223 88.624C79.5503 88.624 79.6943 88.6347 79.8543 88.656C80.0143 88.6667 80.1476 88.688 80.2543 88.72C80.3716 88.752 80.4303 88.7947 80.4303 88.848C80.4303 88.8907 80.4036 88.9173 80.3503 88.928C80.3076 88.9387 80.2756 88.944 80.2543 88.944C80.1156 88.944 79.9823 88.9333 79.8543 88.912C79.7263 88.8907 79.5929 88.88 79.4543 88.88C79.0916 88.88 78.7236 88.9067 78.3503 88.96C77.9769 89.0133 77.6089 89.0773 77.2463 89.152C77.1396 89.4293 77.0329 89.744 76.9263 90.096C76.8303 90.448 76.7823 90.7787 76.7823 91.088C76.7823 91.2587 76.8143 91.424 76.8783 91.584C76.9423 91.7333 77.0756 91.808 77.2783 91.808C77.5663 91.808 77.8383 91.696 78.0943 91.472C78.3609 91.2373 78.6063 90.976 78.8303 90.688C79.0543 90.3893 79.2409 90.144 79.3903 89.952H79.4062C79.4489 89.952 79.4703 89.9733 79.4703 90.016C79.4809 90.0587 79.4863 90.0907 79.4863 90.112C79.4863 90.2933 79.4436 90.464 79.3583 90.624C79.2729 90.7733 79.1663 90.912 79.0383 91.04C78.7503 91.3067 78.4196 91.552 78.0463 91.776C77.6836 92 77.2943 92.112 76.8783 92.112ZM81.1411 92.096C80.9491 92.096 80.8531 92.016 80.8531 91.856C80.8531 91.728 80.9385 91.6213 81.1091 91.536C81.2905 91.44 81.5038 91.36 81.7491 91.296C82.0051 91.232 82.2451 91.184 82.4691 91.152C82.6931 91.12 82.8531 91.0987 82.9491 91.088C83.0025 91.0347 83.0451 90.976 83.0771 90.912C83.1091 90.8373 83.1251 90.7627 83.1251 90.688C83.1251 90.6027 83.0985 90.5333 83.0451 90.48C83.0025 90.416 82.9438 90.3627 82.8691 90.32C82.6771 90.2027 82.4371 90.048 82.1491 89.856C81.8611 89.664 81.6051 89.4507 81.3811 89.216C81.1678 88.9707 81.0611 88.72 81.0611 88.464C81.0611 88.3147 81.0985 88.1973 81.1731 88.112C81.3651 87.8667 81.6105 87.5947 81.9091 87.296C82.2185 86.9867 82.5491 86.7253 82.9011 86.512C83.2638 86.288 83.6105 86.176 83.9411 86.176C84.2398 86.176 84.4211 86.224 84.4851 86.32C84.5491 86.416 84.5811 86.5973 84.5811 86.864C84.5811 87.0453 84.5491 87.248 84.4851 87.472C84.4211 87.6853 84.2878 87.8347 84.0851 87.92H84.0531C84.0211 87.92 83.9998 87.872 83.9891 87.776C83.9891 87.6693 83.9891 87.5733 83.9891 87.488C83.9891 87.424 83.9891 87.328 83.9891 87.2C83.9891 87.072 83.9625 86.9547 83.9091 86.848C83.8558 86.7307 83.7545 86.672 83.6051 86.672C83.4558 86.672 83.2798 86.72 83.0771 86.816C82.8745 86.9013 82.6718 87.024 82.4691 87.184C82.2771 87.3333 82.1171 87.4933 81.9891 87.664C81.8611 87.8347 81.7971 88 81.7971 88.16C81.7971 88.4267 81.8931 88.6507 82.0851 88.832C82.2878 89.0133 82.5225 89.1733 82.7891 89.312C83.0558 89.4507 83.2851 89.5947 83.4771 89.744C83.6798 89.8933 83.7811 90.0693 83.7811 90.272C83.7811 90.4213 83.7438 90.5653 83.6691 90.704C83.5945 90.832 83.5091 90.9493 83.4131 91.056C83.5198 91.0453 83.6265 91.04 83.7331 91.04C83.8505 91.0293 83.9625 91.024 84.0691 91.024C84.1651 91.024 84.2131 91.0507 84.2131 91.104C84.2131 91.1573 84.1971 91.1947 84.1651 91.216C84.1331 91.2267 84.0905 91.2373 84.0371 91.248C83.8771 91.2693 83.7118 91.2907 83.5411 91.312C83.3811 91.3333 83.2211 91.36 83.0611 91.392C82.7625 91.6587 82.4691 91.8453 82.1811 91.952C81.8931 92.048 81.5465 92.096 81.1411 92.096ZM85.4224 92.096C85.2304 92.096 85.1344 92.016 85.1344 91.856C85.1344 91.728 85.2197 91.6213 85.3904 91.536C85.5717 91.44 85.785 91.36 86.0304 91.296C86.2864 91.232 86.5264 91.184 86.7504 91.152C86.9744 91.12 87.1344 91.0987 87.2304 91.088C87.2837 91.0347 87.3264 90.976 87.3584 90.912C87.3904 90.8373 87.4064 90.7627 87.4064 90.688C87.4064 90.6027 87.3797 90.5333 87.3264 90.48C87.2837 90.416 87.225 90.3627 87.1504 90.32C86.9584 90.2027 86.7184 90.048 86.4304 89.856C86.1424 89.664 85.8864 89.4507 85.6624 89.216C85.449 88.9707 85.3424 88.72 85.3424 88.464C85.3424 88.3147 85.3797 88.1973 85.4544 88.112C85.6464 87.8667 85.8917 87.5947 86.1904 87.296C86.4997 86.9867 86.8304 86.7253 87.1824 86.512C87.545 86.288 87.8917 86.176 88.2224 86.176C88.521 86.176 88.7024 86.224 88.7664 86.32C88.8304 86.416 88.8624 86.5973 88.8624 86.864C88.8624 87.0453 88.8304 87.248 88.7664 87.472C88.7024 87.6853 88.569 87.8347 88.3664 87.92H88.3344C88.3024 87.92 88.281 87.872 88.2704 87.776C88.2704 87.6693 88.2704 87.5733 88.2704 87.488C88.2704 87.424 88.2704 87.328 88.2704 87.2C88.2704 87.072 88.2437 86.9547 88.1904 86.848C88.137 86.7307 88.0357 86.672 87.8864 86.672C87.737 86.672 87.561 86.72 87.3584 86.816C87.1557 86.9013 86.953 87.024 86.7504 87.184C86.5584 87.3333 86.3984 87.4933 86.2704 87.664C86.1424 87.8347 86.0784 88 86.0784 88.16C86.0784 88.4267 86.1744 88.6507 86.3664 88.832C86.569 89.0133 86.8037 89.1733 87.0704 89.312C87.337 89.4507 87.5664 89.5947 87.7584 89.744C87.961 89.8933 88.0624 90.0693 88.0624 90.272C88.0624 90.4213 88.025 90.5653 87.9504 90.704C87.8757 90.832 87.7904 90.9493 87.6944 91.056C87.801 91.0453 87.9077 91.04 88.0144 91.04C88.1317 91.0293 88.2437 91.024 88.3504 91.024C88.4464 91.024 88.4944 91.0507 88.4944 91.104C88.4944 91.1573 88.4784 91.1947 88.4464 91.216C88.4144 91.2267 88.3717 91.2373 88.3184 91.248C88.1584 91.2693 87.993 91.2907 87.8224 91.312C87.6624 91.3333 87.5024 91.36 87.3424 91.392C87.0437 91.6587 86.7504 91.8453 86.4624 91.952C86.1744 92.048 85.8277 92.096 85.4224 92.096ZM93.2556 92.288C93.1703 92.288 93.1276 92.256 93.1276 92.192L93.3356 91.584C93.3783 91.456 93.4103 91.328 93.4316 91.2C93.453 91.0613 93.4796 90.9227 93.5116 90.784C93.5756 90.5173 93.6396 90.256 93.7036 90C93.7783 89.744 93.853 89.4827 93.9276 89.216C93.9916 89.0027 94.0503 88.7893 94.1036 88.576C94.1676 88.352 94.2103 88.128 94.2316 87.904C94.253 87.872 94.221 87.8613 94.1356 87.872C94.0503 87.872 94.0076 87.8507 94.0076 87.808C94.093 87.616 94.157 87.4187 94.1996 87.216C94.253 87.0133 94.317 86.816 94.3916 86.624C94.4236 86.5387 94.509 86.4587 94.6476 86.384C94.7863 86.3093 94.8983 86.272 94.9836 86.272C95.133 86.272 95.2076 86.368 95.2076 86.56C95.2076 86.6987 95.1703 86.928 95.0956 87.248C95.021 87.568 94.9303 87.92 94.8236 88.304C94.717 88.6773 94.6103 89.024 94.5036 89.344C94.4076 89.664 94.3383 89.8987 94.2956 90.048C94.637 89.44 95.0156 88.864 95.4316 88.32C95.8583 87.7653 96.3383 87.264 96.8716 86.816C96.9676 86.7307 97.085 86.688 97.2236 86.688C97.5116 86.688 97.6556 86.8107 97.6556 87.056C97.6556 87.1947 97.629 87.4027 97.5756 87.68C97.5223 87.9573 97.453 88.2613 97.3676 88.592C97.2823 88.912 97.2023 89.216 97.1276 89.504C97.053 89.7813 96.989 89.9947 96.9356 90.144C97.181 89.8987 97.4423 89.632 97.7196 89.344C97.997 89.0453 98.2583 88.736 98.5036 88.416C98.749 88.0853 98.9463 87.7707 99.0956 87.472C99.0956 87.376 99.149 87.3013 99.2556 87.248C99.373 87.1947 99.469 87.168 99.5436 87.168C99.5756 87.168 99.6236 87.1787 99.6876 87.2C99.7303 87.1787 99.7623 87.168 99.7836 87.168C99.8796 87.168 99.9383 87.2427 99.9596 87.392C99.9916 87.5307 100.008 87.632 100.008 87.696C100.008 87.8133 99.9916 87.9787 99.9596 88.192C99.9383 88.3947 99.8636 88.528 99.7356 88.592C99.725 88.72 99.7143 88.8533 99.7036 88.992C99.7036 89.12 99.7036 89.248 99.7036 89.376C99.7036 89.4933 99.709 89.664 99.7196 89.888C99.741 90.112 99.7783 90.3413 99.8316 90.576C99.885 90.8 99.965 90.992 100.072 91.152C100.178 91.312 100.317 91.392 100.488 91.392C100.68 91.392 100.845 91.3387 100.984 91.232C101.133 91.1253 101.256 91.0027 101.352 90.864C101.458 90.7253 101.544 90.6027 101.608 90.496C101.672 90.3893 101.72 90.336 101.752 90.336C101.805 90.336 101.832 90.3627 101.832 90.416C101.832 90.448 101.821 90.496 101.8 90.56C101.736 90.752 101.624 90.9547 101.464 91.168C101.304 91.3707 101.122 91.5467 100.92 91.696C100.717 91.8453 100.504 91.92 100.28 91.92C100.013 91.92 99.789 91.8293 99.6076 91.648C99.437 91.456 99.2983 91.2213 99.1916 90.944C99.0956 90.656 99.0263 90.368 98.9836 90.08C98.9516 89.792 98.9356 89.5467 98.9356 89.344C98.9356 89.1413 98.941 88.944 98.9516 88.752C98.973 88.5493 98.9943 88.3467 99.0156 88.144C98.9196 88.2827 98.8183 88.416 98.7116 88.544C98.605 88.672 98.5036 88.8 98.4076 88.928L97.1276 90.528C97.1276 90.688 97.0903 90.8747 97.0156 91.088C96.9516 91.2907 96.8503 91.4667 96.7116 91.616C96.5836 91.7653 96.4183 91.84 96.2156 91.84C96.141 91.84 96.0983 91.8133 96.0876 91.76C96.0876 91.696 96.093 91.6427 96.1036 91.6C96.0823 91.5787 96.0663 91.552 96.0556 91.52C96.0556 91.4773 96.0556 91.44 96.0556 91.408C96.0556 91.3227 96.077 91.1733 96.1196 90.96C96.173 90.7467 96.2316 90.5173 96.2956 90.272C96.3703 90.016 96.4396 89.7813 96.5036 89.568C96.5676 89.3547 96.6156 89.2 96.6476 89.104C96.7116 88.8693 96.7703 88.6293 96.8236 88.384C96.8876 88.1387 96.9196 87.8987 96.9196 87.664C96.9196 87.6213 96.9143 87.568 96.9036 87.504C96.893 87.44 96.8556 87.408 96.7916 87.408C96.6743 87.408 96.5303 87.488 96.3596 87.648C96.1996 87.808 96.029 88 95.8476 88.224C95.677 88.448 95.5223 88.6613 95.3836 88.864C95.245 89.0667 95.149 89.2107 95.0956 89.296C94.9783 89.4667 94.8236 89.7067 94.6316 90.016C94.4396 90.3147 94.269 90.624 94.1196 90.944C93.9703 91.264 93.8956 91.5307 93.8956 91.744V91.808C93.8956 91.904 93.8103 92.0053 93.6396 92.112C93.4796 92.2293 93.3516 92.288 93.2556 92.288ZM105.576 92.112C105.278 92.112 105.054 92.0053 104.904 91.792C104.755 91.5787 104.654 91.3333 104.6 91.056C104.558 90.768 104.536 90.512 104.536 90.288C104.536 90.064 104.547 89.8453 104.568 89.632C104.6 89.408 104.632 89.1893 104.664 88.976C104.558 89.1147 104.408 89.312 104.216 89.568C104.024 89.8133 103.806 90.0853 103.56 90.384C103.315 90.672 103.064 90.9493 102.808 91.216C102.552 91.472 102.302 91.6853 102.056 91.856C101.822 92.016 101.619 92.096 101.448 92.096C101.299 92.096 101.203 92.0267 101.16 91.888C101.128 91.7493 101.112 91.6267 101.112 91.52C101.112 91.04 101.208 90.5333 101.4 90C101.592 89.4667 101.79 88.9867 101.992 88.56C102.046 88.4427 102.126 88.2827 102.232 88.08C102.339 87.8773 102.462 87.6693 102.6 87.456C102.75 87.2427 102.904 87.0667 103.064 86.928C103.224 86.7893 103.384 86.7307 103.544 86.752C103.662 86.6773 103.774 86.6133 103.88 86.56C103.998 86.496 104.126 86.464 104.264 86.464C104.35 86.464 104.488 86.4907 104.68 86.544C104.883 86.5973 105.027 86.6347 105.112 86.656C105.155 86.5707 105.219 86.5067 105.304 86.464C105.39 86.4213 105.475 86.4 105.56 86.4C105.646 86.4 105.704 86.4053 105.736 86.416C105.779 86.3947 105.811 86.384 105.832 86.384C105.896 86.384 105.939 86.432 105.96 86.528C105.982 86.6133 105.992 86.6827 105.992 86.736C105.992 86.8747 105.976 86.9973 105.944 87.104C105.912 87.2107 105.87 87.328 105.816 87.456C105.774 87.5627 105.736 87.664 105.704 87.76C105.683 87.8453 105.624 87.9253 105.528 88C105.454 88.384 105.395 88.7733 105.352 89.168C105.32 89.552 105.304 89.9413 105.304 90.336C105.304 90.4747 105.31 90.64 105.32 90.832C105.342 91.024 105.39 91.1947 105.464 91.344C105.55 91.4933 105.678 91.568 105.848 91.568C106.115 91.568 106.35 91.472 106.552 91.28C106.766 91.0773 106.942 90.8853 107.08 90.704C107.102 90.672 107.128 90.64 107.16 90.608C107.192 90.5653 107.23 90.5333 107.272 90.512L107.32 90.608C107.32 90.7147 107.267 90.8427 107.16 90.992C107.054 91.1413 106.936 91.2853 106.808 91.424C106.68 91.552 106.574 91.648 106.488 91.712C106.36 91.8187 106.216 91.9147 106.056 92C105.907 92.0747 105.747 92.112 105.576 92.112ZM101.992 91.44C102.056 91.44 102.126 91.4133 102.2 91.36C102.275 91.3067 102.334 91.2587 102.376 91.216C102.878 90.7787 103.32 90.288 103.704 89.744C104.099 89.2 104.44 88.6347 104.728 88.048C104.76 87.9947 104.792 87.936 104.824 87.872C104.856 87.808 104.878 87.744 104.888 87.68C104.91 87.5947 104.931 87.504 104.952 87.408C104.974 87.3013 104.99 87.2053 105 87.12C104.99 87.0667 104.931 87.0187 104.824 86.976C104.718 86.9333 104.6 86.9013 104.472 86.88C104.355 86.848 104.27 86.832 104.216 86.832C104.014 86.832 103.832 86.9173 103.672 87.088C103.523 87.248 103.395 87.4027 103.288 87.552C103.16 87.744 103.011 87.9947 102.84 88.304C102.68 88.6133 102.52 88.944 102.36 89.296C102.211 89.6373 102.083 89.968 101.976 90.288C101.88 90.608 101.832 90.88 101.832 91.104C101.832 91.1573 101.838 91.2267 101.848 91.312C101.87 91.3973 101.918 91.44 101.992 91.44ZM107.053 92.304C106.957 92.304 106.909 92.2667 106.909 92.192L107.117 91.584C107.17 91.4347 107.208 91.2853 107.229 91.136C107.25 90.9867 107.282 90.8373 107.325 90.688C107.4 90.3787 107.474 90.0747 107.549 89.776C107.624 89.4773 107.704 89.1787 107.789 88.88C107.768 88.8267 107.714 88.72 107.629 88.56C107.544 88.4 107.501 88.2933 107.501 88.24C107.501 88.0053 107.624 87.888 107.869 87.888C107.944 87.888 108.002 87.904 108.045 87.936C108.184 87.424 108.338 86.8693 108.509 86.272C108.68 85.6747 108.888 85.088 109.133 84.512C109.378 83.936 109.688 83.4187 110.061 82.96C110.434 82.5013 110.888 82.1493 111.421 81.904C111.549 81.8507 111.682 81.808 111.821 81.776C111.96 81.7333 112.098 81.712 112.237 81.712C112.365 81.712 112.514 81.7387 112.685 81.792C112.866 81.8453 113.021 81.9253 113.149 82.032C113.277 82.128 113.341 82.256 113.341 82.416C113.341 82.48 113.325 82.528 113.293 82.56C113.282 82.5707 113.24 82.608 113.165 82.672C113.09 82.7253 113.016 82.7787 112.941 82.832C112.866 82.8853 112.818 82.9173 112.797 82.928C112.776 82.9067 112.765 82.8907 112.765 82.88C112.765 82.848 112.781 82.816 112.813 82.784C112.845 82.752 112.861 82.7147 112.861 82.672C112.861 82.5653 112.802 82.4693 112.685 82.384C112.568 82.288 112.434 82.2133 112.285 82.16C112.136 82.096 112.013 82.064 111.917 82.064C111.597 82.064 111.298 82.192 111.021 82.448C110.744 82.6933 110.488 83.024 110.253 83.44C110.029 83.8453 109.821 84.2933 109.629 84.784C109.437 85.2747 109.266 85.7653 109.117 86.256C108.978 86.7467 108.856 87.2 108.749 87.616C108.642 88.0213 108.557 88.3413 108.493 88.576C108.514 88.6507 108.53 88.7147 108.541 88.768C108.562 88.8213 108.573 88.848 108.573 88.848C108.914 88.4107 109.309 87.9733 109.757 87.536C110.216 87.0987 110.674 86.72 111.133 86.4C111.218 86.3467 111.325 86.32 111.453 86.32C111.528 86.32 111.608 86.336 111.693 86.368C111.789 86.3893 111.837 86.448 111.837 86.544C111.837 86.6293 111.773 86.7307 111.645 86.848C111.517 86.9653 111.373 87.072 111.213 87.168C111.064 87.264 110.957 87.3333 110.893 87.376C110.53 87.6213 110.152 87.8933 109.757 88.192C109.362 88.4907 109.01 88.7893 108.701 89.088C108.808 89.28 108.952 89.5147 109.133 89.792C109.314 90.0587 109.506 90.3253 109.709 90.592C109.922 90.848 110.13 91.0667 110.333 91.248C110.546 91.4187 110.738 91.504 110.909 91.504C111.069 91.504 111.192 91.44 111.277 91.312C111.373 91.184 111.442 91.04 111.485 90.88C111.538 90.7093 111.576 90.5653 111.597 90.448C111.608 90.4267 111.618 90.3787 111.629 90.304C111.65 90.2187 111.682 90.176 111.725 90.176C111.778 90.176 111.81 90.1973 111.821 90.24C111.842 90.2827 111.853 90.3253 111.853 90.368C111.853 90.3893 111.848 90.4107 111.837 90.432C111.837 90.4533 111.837 90.4747 111.837 90.496C111.816 90.6987 111.789 90.928 111.757 91.184C111.736 91.44 111.645 91.648 111.485 91.808C111.304 91.9893 111.096 92.08 110.861 92.08C110.626 92.08 110.381 92 110.125 91.84C109.88 91.6693 109.64 91.456 109.405 91.2C109.181 90.9333 108.978 90.656 108.797 90.368C108.616 90.0693 108.466 89.7973 108.349 89.552C108.296 89.68 108.232 89.84 108.157 90.032C108.093 90.224 108.034 90.416 107.981 90.608C107.928 90.7893 107.89 90.928 107.869 91.024C107.912 91.0987 107.933 91.1893 107.933 91.296C107.933 91.488 107.901 91.6533 107.837 91.792C107.773 91.92 107.661 92.032 107.501 92.128C107.437 92.1707 107.368 92.208 107.293 92.24C107.218 92.2827 107.138 92.304 107.053 92.304ZM116.075 88.464C116.021 88.464 115.995 88.4373 115.995 88.384C115.995 88.352 116 88.3253 116.011 88.304C116.075 88.1333 116.123 87.9733 116.155 87.824C116.197 87.664 116.219 87.4987 116.219 87.328C116.219 87.264 116.213 87.1787 116.203 87.072C116.203 86.9547 116.181 86.848 116.139 86.752C116.107 86.656 116.043 86.608 115.947 86.608C115.904 86.608 115.867 86.6133 115.835 86.624C115.803 86.624 115.765 86.624 115.723 86.624C115.616 86.624 115.563 86.5813 115.563 86.496C115.563 86.4533 115.611 86.416 115.707 86.384C115.813 86.352 115.925 86.3253 116.043 86.304C116.16 86.2827 116.24 86.272 116.283 86.272C116.549 86.272 116.715 86.3733 116.779 86.576C116.853 86.768 116.891 86.9707 116.891 87.184C116.891 87.3867 116.853 87.6 116.779 87.824C116.715 88.048 116.592 88.2187 116.411 88.336C116.368 88.368 116.315 88.4 116.251 88.432C116.187 88.4533 116.128 88.464 116.075 88.464ZM113.691 92.112C113.381 92.112 113.163 92.0373 113.035 91.888C112.917 91.7387 112.859 91.52 112.859 91.232C112.859 90.912 112.896 90.592 112.971 90.272C113.045 89.952 113.136 89.6427 113.243 89.344L113.099 89.392C113.045 89.36 113.019 89.3067 113.019 89.232C113.019 89.136 113.061 89.0453 113.147 88.96C113.243 88.864 113.339 88.8107 113.435 88.8C113.499 88.64 113.589 88.432 113.707 88.176C113.824 87.92 113.957 87.664 114.107 87.408C114.267 87.152 114.443 86.9387 114.635 86.768C114.827 86.5973 115.035 86.512 115.259 86.512C115.355 86.512 115.403 86.5547 115.403 86.64C115.403 86.672 115.381 86.7147 115.339 86.768C115.296 86.8107 115.264 86.8427 115.243 86.864C115.104 86.992 114.971 87.1733 114.843 87.408C114.715 87.632 114.597 87.8667 114.491 88.112C114.384 88.3467 114.293 88.5547 114.219 88.736C114.517 88.6933 114.811 88.6613 115.099 88.64C115.397 88.6187 115.696 88.608 115.995 88.608C116.027 88.608 116.107 88.6133 116.235 88.624C116.363 88.624 116.507 88.6347 116.667 88.656C116.827 88.6667 116.96 88.688 117.067 88.72C117.184 88.752 117.243 88.7947 117.243 88.848C117.243 88.8907 117.216 88.9173 117.163 88.928C117.12 88.9387 117.088 88.944 117.067 88.944C116.928 88.944 116.795 88.9333 116.667 88.912C116.539 88.8907 116.405 88.88 116.267 88.88C115.904 88.88 115.536 88.9067 115.163 88.96C114.789 89.0133 114.421 89.0773 114.059 89.152C113.952 89.4293 113.845 89.744 113.739 90.096C113.643 90.448 113.595 90.7787 113.595 91.088C113.595 91.2587 113.627 91.424 113.691 91.584C113.755 91.7333 113.888 91.808 114.091 91.808C114.379 91.808 114.651 91.696 114.907 91.472C115.173 91.2373 115.419 90.976 115.643 90.688C115.867 90.3893 116.053 90.144 116.203 89.952H116.219C116.261 89.952 116.283 89.9733 116.283 90.016C116.293 90.0587 116.299 90.0907 116.299 90.112C116.299 90.2933 116.256 90.464 116.171 90.624C116.085 90.7733 115.979 90.912 115.851 91.04C115.563 91.3067 115.232 91.552 114.859 91.776C114.496 92 114.107 92.112 113.691 92.112ZM123.17 93.184C122.86 93.184 122.61 92.9867 122.418 92.592C122.236 92.1973 122.146 91.632 122.146 90.896C122.146 90.4907 122.194 89.9947 122.29 89.408C122.396 88.8107 122.53 88.176 122.69 87.504C122.85 86.832 123.026 86.1813 123.218 85.552C123.42 84.912 123.618 84.3413 123.81 83.84C124.012 83.328 124.194 82.9387 124.354 82.672C124.215 82.64 124.066 82.6187 123.906 82.608C123.746 82.5867 123.65 82.5493 123.618 82.496C123.564 82.4107 123.586 82.3307 123.682 82.256C123.788 82.1813 123.97 82.144 124.226 82.144C124.279 82.144 124.332 82.144 124.386 82.144C124.439 82.144 124.498 82.1493 124.562 82.16C124.615 82.0747 124.668 81.9947 124.722 81.92C124.786 81.8453 124.871 81.808 124.978 81.808C125.084 81.808 125.159 81.8613 125.202 81.968C125.244 82.064 125.266 82.1707 125.266 82.288C125.586 82.3627 125.97 82.4853 126.418 82.656C126.866 82.816 127.308 83.0187 127.746 83.264C128.194 83.5093 128.562 83.7973 128.85 84.128C129.148 84.448 129.298 84.816 129.298 85.232C129.298 85.6267 129.17 85.9733 128.914 86.272C128.658 86.5707 128.343 86.8267 127.97 87.04C127.596 87.2427 127.228 87.408 126.866 87.536C126.503 87.664 126.215 87.76 126.002 87.824C126.695 87.824 127.346 87.9093 127.954 88.08C128.562 88.2507 129.052 88.5013 129.426 88.832C129.81 89.1627 130.002 89.568 130.002 90.048C130.002 90.4427 129.874 90.7893 129.618 91.088C129.362 91.376 129.015 91.616 128.578 91.808C128.14 92 127.65 92.1387 127.106 92.224C126.562 92.32 126.002 92.368 125.426 92.368C125.33 92.368 125.234 92.368 125.138 92.368C125.052 92.368 124.962 92.3627 124.866 92.352C124.652 92.3413 124.423 92.3253 124.178 92.304C123.943 92.2827 123.751 92.256 123.602 92.224C123.548 92.2133 123.479 92.1813 123.394 92.128C123.308 92.0853 123.266 92.016 123.266 91.92C123.266 91.8027 123.335 91.76 123.474 91.792C123.655 91.8347 123.852 91.8773 124.066 91.92C124.29 91.9627 124.567 92 124.898 92.032C125.004 92.0427 125.116 92.048 125.234 92.048C125.351 92.0587 125.468 92.064 125.586 92.064C125.991 92.064 126.407 92.0267 126.834 91.952C127.271 91.8773 127.671 91.7653 128.034 91.616C128.396 91.456 128.69 91.2587 128.914 91.024C129.138 90.7893 129.25 90.5067 129.25 90.176C129.25 89.8987 129.159 89.6533 128.978 89.44C128.796 89.2267 128.567 89.0453 128.29 88.896C128.023 88.736 127.746 88.608 127.458 88.512C127.17 88.4053 126.919 88.3307 126.706 88.288C126.418 88.224 126.124 88.1813 125.826 88.16C125.527 88.128 125.228 88.112 124.93 88.112C124.588 88.112 124.247 88.1333 123.906 88.176C123.564 88.208 123.335 88.2347 123.218 88.256C123.164 88.4907 123.095 88.8107 123.01 89.216C122.924 89.6107 122.85 90.0267 122.786 90.464C122.722 90.9013 122.69 91.2907 122.69 91.632C122.69 92.0267 122.754 92.3413 122.882 92.576C123.02 92.8213 123.148 92.9547 123.266 92.976C123.308 92.976 123.33 92.9973 123.33 93.04C123.33 93.136 123.276 93.184 123.17 93.184ZM123.33 87.856C123.596 87.856 123.948 87.8293 124.386 87.776C124.834 87.7227 125.303 87.6373 125.794 87.52C126.284 87.392 126.743 87.232 127.17 87.04C127.607 86.848 127.964 86.6133 128.242 86.336C128.519 86.0587 128.658 85.7387 128.658 85.376C128.658 85.024 128.519 84.7093 128.242 84.432C127.975 84.144 127.639 83.8987 127.234 83.696C126.828 83.4827 126.423 83.3067 126.018 83.168C125.612 83.0293 125.271 82.928 124.994 82.864C124.631 83.6747 124.316 84.496 124.05 85.328C123.794 86.16 123.554 87.0027 123.33 87.856ZM134.648 92.16C134.563 92.16 134.477 92.128 134.392 92.064C134.317 92 134.28 91.92 134.28 91.824C134.28 91.4933 134.317 91.1253 134.392 90.72C134.477 90.3147 134.573 89.9093 134.68 89.504C134.787 89.088 134.877 88.7147 134.952 88.384C134.867 88.544 134.723 88.7733 134.52 89.072C134.317 89.3707 134.083 89.696 133.816 90.048C133.549 90.3893 133.272 90.72 132.984 91.04C132.707 91.3493 132.44 91.6053 132.184 91.808C131.939 92.0107 131.731 92.112 131.56 92.112C131.475 92.112 131.411 92.08 131.368 92.016C131.336 91.952 131.32 91.8827 131.32 91.808C131.32 91.68 131.357 91.4987 131.432 91.264C131.507 91.0187 131.592 90.7573 131.688 90.48C131.795 90.192 131.896 89.92 131.992 89.664C132.099 89.408 132.173 89.1947 132.216 89.024L132.472 88.128H132.44C132.408 88.128 132.371 88.1173 132.328 88.096C132.296 88.0747 132.28 88.0427 132.28 88C132.28 87.9893 132.28 87.9787 132.28 87.968C132.291 87.9573 132.296 87.9467 132.296 87.936C132.349 87.7227 132.387 87.4987 132.408 87.264C132.429 87.0187 132.493 86.8107 132.6 86.64C132.717 86.4693 132.92 86.384 133.208 86.384C133.389 86.384 133.48 86.4747 133.48 86.656C133.48 86.8053 133.437 87.0507 133.352 87.392C133.267 87.7227 133.16 88.0853 133.032 88.48C132.915 88.8747 132.797 89.248 132.68 89.6C132.563 89.9413 132.477 90.2027 132.424 90.384C132.403 90.4587 132.36 90.592 132.296 90.784C132.232 90.9653 132.2 91.0933 132.2 91.168L132.216 91.2C132.227 91.2 132.243 91.1893 132.264 91.168C132.691 90.9013 133.085 90.5333 133.448 90.064C133.821 89.5947 134.157 89.0987 134.456 88.576C134.765 88.0533 135.032 87.5787 135.256 87.152C135.245 87.0987 135.24 87.0507 135.24 87.008C135.24 86.9653 135.24 86.9227 135.24 86.88C135.24 86.6453 135.336 86.4853 135.528 86.4C135.731 86.3147 135.928 86.272 136.12 86.272C136.184 86.272 136.253 86.2827 136.328 86.304C136.403 86.3253 136.44 86.3787 136.44 86.464C136.44 86.5067 136.429 86.5493 136.408 86.592C136.397 86.624 136.381 86.6613 136.36 86.704C136.168 87.0773 135.997 87.456 135.848 87.84C135.709 88.224 135.576 88.6187 135.448 89.024C135.395 89.2053 135.325 89.44 135.24 89.728C135.155 90.0053 135.08 90.288 135.016 90.576C134.963 90.8533 134.936 91.088 134.936 91.28C134.936 91.3547 134.947 91.44 134.968 91.536C135 91.6213 135.064 91.664 135.16 91.664C135.245 91.664 135.357 91.616 135.496 91.52C135.635 91.4133 135.779 91.2907 135.928 91.152C136.088 91.0133 136.227 90.896 136.344 90.8C136.472 90.6933 136.557 90.64 136.6 90.64C136.632 90.64 136.648 90.6667 136.648 90.72C136.648 90.752 136.637 90.8053 136.616 90.88C136.595 90.944 136.552 91.0027 136.488 91.056C136.371 91.1627 136.205 91.3067 135.992 91.488C135.779 91.6587 135.549 91.8133 135.304 91.952C135.069 92.0907 134.851 92.16 134.648 92.16ZM137.172 92.096C136.98 92.096 136.884 92.016 136.884 91.856C136.884 91.728 136.97 91.6213 137.14 91.536C137.322 91.44 137.535 91.36 137.78 91.296C138.036 91.232 138.276 91.184 138.5 91.152C138.724 91.12 138.884 91.0987 138.98 91.088C139.034 91.0347 139.076 90.976 139.108 90.912C139.14 90.8373 139.156 90.7627 139.156 90.688C139.156 90.6027 139.13 90.5333 139.076 90.48C139.034 90.416 138.975 90.3627 138.9 90.32C138.708 90.2027 138.468 90.048 138.18 89.856C137.892 89.664 137.636 89.4507 137.412 89.216C137.199 88.9707 137.092 88.72 137.092 88.464C137.092 88.3147 137.13 88.1973 137.204 88.112C137.396 87.8667 137.642 87.5947 137.94 87.296C138.25 86.9867 138.58 86.7253 138.932 86.512C139.295 86.288 139.642 86.176 139.972 86.176C140.271 86.176 140.452 86.224 140.516 86.32C140.58 86.416 140.612 86.5973 140.612 86.864C140.612 87.0453 140.58 87.248 140.516 87.472C140.452 87.6853 140.319 87.8347 140.116 87.92H140.084C140.052 87.92 140.031 87.872 140.02 87.776C140.02 87.6693 140.02 87.5733 140.02 87.488C140.02 87.424 140.02 87.328 140.02 87.2C140.02 87.072 139.994 86.9547 139.94 86.848C139.887 86.7307 139.786 86.672 139.636 86.672C139.487 86.672 139.311 86.72 139.108 86.816C138.906 86.9013 138.703 87.024 138.5 87.184C138.308 87.3333 138.148 87.4933 138.02 87.664C137.892 87.8347 137.828 88 137.828 88.16C137.828 88.4267 137.924 88.6507 138.116 88.832C138.319 89.0133 138.554 89.1733 138.82 89.312C139.087 89.4507 139.316 89.5947 139.508 89.744C139.711 89.8933 139.812 90.0693 139.812 90.272C139.812 90.4213 139.775 90.5653 139.7 90.704C139.626 90.832 139.54 90.9493 139.444 91.056C139.551 91.0453 139.658 91.04 139.764 91.04C139.882 91.0293 139.994 91.024 140.1 91.024C140.196 91.024 140.244 91.0507 140.244 91.104C140.244 91.1573 140.228 91.1947 140.196 91.216C140.164 91.2267 140.122 91.2373 140.068 91.248C139.908 91.2693 139.743 91.2907 139.572 91.312C139.412 91.3333 139.252 91.36 139.092 91.392C138.794 91.6587 138.5 91.8453 138.212 91.952C137.924 92.048 137.578 92.096 137.172 92.096ZM142.926 85.664C142.883 85.664 142.84 85.6213 142.798 85.536C142.766 85.4507 142.739 85.36 142.718 85.264C142.707 85.1573 142.702 85.0827 142.702 85.04C142.702 85.0187 142.702 84.992 142.702 84.96C142.712 84.9173 142.734 84.8907 142.766 84.88C142.947 84.8587 143.118 84.8267 143.278 84.784C143.448 84.7413 143.619 84.6933 143.79 84.64C143.811 84.6293 143.848 84.624 143.902 84.624C143.987 84.624 144.03 84.672 144.03 84.768C144.03 84.9813 143.928 85.1573 143.726 85.296C143.608 85.3707 143.48 85.4507 143.342 85.536C143.214 85.6213 143.075 85.664 142.926 85.664ZM141.358 92.112C141.198 92.112 141.118 92.0267 141.118 91.856C141.118 91.6747 141.15 91.44 141.214 91.152C141.278 90.8533 141.352 90.5547 141.438 90.256C141.523 89.9573 141.587 89.7227 141.63 89.552C141.64 89.5093 141.672 89.3973 141.726 89.216C141.779 89.024 141.838 88.816 141.902 88.592C141.966 88.368 142.019 88.1707 142.062 88C142.115 87.8187 142.142 87.712 142.142 87.68C142.142 87.6267 142.11 87.5787 142.046 87.536C141.992 87.4933 141.966 87.4453 141.966 87.392C141.966 87.36 141.971 87.328 141.982 87.296C141.992 87.264 142.003 87.2373 142.014 87.216C142.046 87.1627 142.126 87.0933 142.254 87.008C142.382 86.9227 142.515 86.848 142.654 86.784C142.803 86.7093 142.904 86.672 142.958 86.672C142.99 86.672 143.011 86.6773 143.022 86.688C143.032 86.7093 143.038 86.7467 143.038 86.8C143.038 86.896 143.011 87.04 142.958 87.232C142.915 87.424 142.856 87.6373 142.782 87.872C142.718 88.096 142.654 88.304 142.59 88.496C142.526 88.688 142.478 88.832 142.446 88.928C142.392 89.088 142.318 89.3173 142.222 89.616C142.126 89.9147 142.04 90.2133 141.966 90.512C141.891 90.8107 141.854 91.0453 141.854 91.216C141.854 91.2373 141.859 91.2853 141.87 91.36C141.88 91.424 141.907 91.456 141.95 91.456C142.003 91.456 142.099 91.4133 142.238 91.328C142.387 91.232 142.542 91.1413 142.702 91.056C142.862 90.9707 142.984 90.928 143.07 90.928C143.112 90.928 143.139 90.9387 143.15 90.96C143.15 91.0027 143.08 91.0773 142.942 91.184C142.803 91.28 142.654 91.3813 142.494 91.488C142.344 91.584 142.243 91.6587 142.19 91.712C142.083 91.808 141.955 91.8987 141.806 91.984C141.656 92.0693 141.507 92.112 141.358 92.112ZM143.943 92.288C143.858 92.288 143.815 92.256 143.815 92.192L144.023 91.584C144.076 91.4453 144.108 91.312 144.119 91.184C144.14 91.0453 144.172 90.9067 144.215 90.768C144.279 90.4907 144.348 90.2133 144.423 89.936C144.498 89.6587 144.578 89.3867 144.663 89.12C144.695 89.024 144.738 88.8853 144.791 88.704C144.844 88.5227 144.892 88.3413 144.935 88.16C144.988 87.968 145.015 87.824 145.015 87.728C145.015 87.6747 144.978 87.6533 144.903 87.664C144.839 87.6747 144.802 87.664 144.791 87.632C144.866 87.44 144.93 87.2427 144.983 87.04C145.036 86.8373 145.1 86.64 145.175 86.448C145.207 86.3627 145.292 86.2827 145.431 86.208C145.57 86.1227 145.682 86.08 145.767 86.08C145.916 86.08 145.991 86.176 145.991 86.368C145.991 86.5387 145.948 86.8 145.863 87.152C145.778 87.504 145.666 87.888 145.527 88.304C145.399 88.72 145.271 89.1253 145.143 89.52C145.026 89.904 144.924 90.2187 144.839 90.464C145.18 90.144 145.522 89.792 145.863 89.408C146.204 89.024 146.514 88.64 146.791 88.256C147.079 87.8613 147.303 87.504 147.463 87.184C147.463 87.0667 147.538 86.9867 147.687 86.944C147.847 86.9013 147.97 86.8907 148.055 86.912C148.098 86.8907 148.13 86.88 148.151 86.88C148.247 86.88 148.306 86.9547 148.327 87.104C148.359 87.2427 148.375 87.344 148.375 87.408C148.375 87.5253 148.359 87.6907 148.327 87.904C148.306 88.1067 148.231 88.24 148.103 88.304C148.092 88.3893 148.087 88.48 148.087 88.576C148.087 88.6613 148.087 88.7467 148.087 88.832C148.087 88.96 148.092 89.1733 148.103 89.472C148.124 89.76 148.162 90.064 148.215 90.384C148.268 90.704 148.354 90.9813 148.471 91.216C148.588 91.44 148.748 91.552 148.951 91.552C149.143 91.552 149.308 91.4987 149.447 91.392C149.596 91.2853 149.724 91.1627 149.831 91.024C149.938 90.8853 150.023 90.7627 150.087 90.656C150.151 90.5493 150.199 90.496 150.231 90.496C150.284 90.496 150.311 90.528 150.311 90.592C150.311 90.7413 150.231 90.9227 150.071 91.136C149.922 91.3493 149.794 91.5093 149.687 91.616C149.57 91.744 149.431 91.856 149.271 91.952C149.111 92.048 148.94 92.096 148.759 92.096C148.439 92.096 148.188 91.984 148.007 91.76C147.826 91.5253 147.687 91.2427 147.591 90.912C147.506 90.5707 147.447 90.2293 147.415 89.888C147.394 89.536 147.383 89.248 147.383 89.024C147.383 88.8213 147.383 88.624 147.383 88.432C147.394 88.24 147.404 88.048 147.415 87.856C147.244 88.1547 147.047 88.4427 146.823 88.72C146.599 88.9973 146.38 89.2693 146.167 89.536C145.847 89.8987 145.532 90.2933 145.223 90.72C145.17 90.7947 145.116 90.8853 145.063 90.992C145.02 91.088 144.962 91.1733 144.887 91.248L144.855 91.28C144.78 91.4827 144.732 91.6373 144.711 91.744C144.69 91.8507 144.583 91.968 144.391 92.096C144.327 92.1387 144.258 92.1813 144.183 92.224C144.108 92.2667 144.028 92.288 143.943 92.288ZM153.825 88.464C153.771 88.464 153.745 88.4373 153.745 88.384C153.745 88.352 153.75 88.3253 153.761 88.304C153.825 88.1333 153.873 87.9733 153.905 87.824C153.947 87.664 153.969 87.4987 153.969 87.328C153.969 87.264 153.963 87.1787 153.953 87.072C153.953 86.9547 153.931 86.848 153.889 86.752C153.857 86.656 153.793 86.608 153.697 86.608C153.654 86.608 153.617 86.6133 153.585 86.624C153.553 86.624 153.515 86.624 153.473 86.624C153.366 86.624 153.313 86.5813 153.313 86.496C153.313 86.4533 153.361 86.416 153.457 86.384C153.563 86.352 153.675 86.3253 153.793 86.304C153.91 86.2827 153.99 86.272 154.033 86.272C154.299 86.272 154.465 86.3733 154.529 86.576C154.603 86.768 154.641 86.9707 154.641 87.184C154.641 87.3867 154.603 87.6 154.529 87.824C154.465 88.048 154.342 88.2187 154.161 88.336C154.118 88.368 154.065 88.4 154.001 88.432C153.937 88.4533 153.878 88.464 153.825 88.464ZM151.441 92.112C151.131 92.112 150.913 92.0373 150.785 91.888C150.667 91.7387 150.609 91.52 150.609 91.232C150.609 90.912 150.646 90.592 150.721 90.272C150.795 89.952 150.886 89.6427 150.993 89.344L150.849 89.392C150.795 89.36 150.769 89.3067 150.769 89.232C150.769 89.136 150.811 89.0453 150.897 88.96C150.993 88.864 151.089 88.8107 151.185 88.8C151.249 88.64 151.339 88.432 151.457 88.176C151.574 87.92 151.707 87.664 151.857 87.408C152.017 87.152 152.193 86.9387 152.385 86.768C152.577 86.5973 152.785 86.512 153.009 86.512C153.105 86.512 153.153 86.5547 153.153 86.64C153.153 86.672 153.131 86.7147 153.089 86.768C153.046 86.8107 153.014 86.8427 152.993 86.864C152.854 86.992 152.721 87.1733 152.593 87.408C152.465 87.632 152.347 87.8667 152.241 88.112C152.134 88.3467 152.043 88.5547 151.969 88.736C152.267 88.6933 152.561 88.6613 152.849 88.64C153.147 88.6187 153.446 88.608 153.745 88.608C153.777 88.608 153.857 88.6133 153.985 88.624C154.113 88.624 154.257 88.6347 154.417 88.656C154.577 88.6667 154.71 88.688 154.817 88.72C154.934 88.752 154.993 88.7947 154.993 88.848C154.993 88.8907 154.966 88.9173 154.913 88.928C154.87 88.9387 154.838 88.944 154.817 88.944C154.678 88.944 154.545 88.9333 154.417 88.912C154.289 88.8907 154.155 88.88 154.017 88.88C153.654 88.88 153.286 88.9067 152.913 88.96C152.539 89.0133 152.171 89.0773 151.809 89.152C151.702 89.4293 151.595 89.744 151.489 90.096C151.393 90.448 151.345 90.7787 151.345 91.088C151.345 91.2587 151.377 91.424 151.441 91.584C151.505 91.7333 151.638 91.808 151.841 91.808C152.129 91.808 152.401 91.696 152.657 91.472C152.923 91.2373 153.169 90.976 153.393 90.688C153.617 90.3893 153.803 90.144 153.953 89.952H153.969C154.011 89.952 154.033 89.9733 154.033 90.016C154.043 90.0587 154.049 90.0907 154.049 90.112C154.049 90.2933 154.006 90.464 153.921 90.624C153.835 90.7733 153.729 90.912 153.601 91.04C153.313 91.3067 152.982 91.552 152.609 91.776C152.246 92 151.857 92.112 151.441 92.112ZM155.704 92.096C155.512 92.096 155.416 92.016 155.416 91.856C155.416 91.728 155.501 91.6213 155.672 91.536C155.853 91.44 156.066 91.36 156.312 91.296C156.568 91.232 156.808 91.184 157.032 91.152C157.256 91.12 157.416 91.0987 157.512 91.088C157.565 91.0347 157.608 90.976 157.64 90.912C157.672 90.8373 157.688 90.7627 157.688 90.688C157.688 90.6027 157.661 90.5333 157.608 90.48C157.565 90.416 157.506 90.3627 157.432 90.32C157.24 90.2027 157 90.048 156.712 89.856C156.424 89.664 156.168 89.4507 155.944 89.216C155.73 88.9707 155.624 88.72 155.624 88.464C155.624 88.3147 155.661 88.1973 155.736 88.112C155.928 87.8667 156.173 87.5947 156.472 87.296C156.781 86.9867 157.112 86.7253 157.464 86.512C157.826 86.288 158.173 86.176 158.504 86.176C158.802 86.176 158.984 86.224 159.048 86.32C159.112 86.416 159.144 86.5973 159.144 86.864C159.144 87.0453 159.112 87.248 159.048 87.472C158.984 87.6853 158.85 87.8347 158.648 87.92H158.616C158.584 87.92 158.562 87.872 158.552 87.776C158.552 87.6693 158.552 87.5733 158.552 87.488C158.552 87.424 158.552 87.328 158.552 87.2C158.552 87.072 158.525 86.9547 158.472 86.848C158.418 86.7307 158.317 86.672 158.168 86.672C158.018 86.672 157.842 86.72 157.64 86.816C157.437 86.9013 157.234 87.024 157.032 87.184C156.84 87.3333 156.68 87.4933 156.552 87.664C156.424 87.8347 156.36 88 156.36 88.16C156.36 88.4267 156.456 88.6507 156.648 88.832C156.85 89.0133 157.085 89.1733 157.352 89.312C157.618 89.4507 157.848 89.5947 158.04 89.744C158.242 89.8933 158.344 90.0693 158.344 90.272C158.344 90.4213 158.306 90.5653 158.232 90.704C158.157 90.832 158.072 90.9493 157.976 91.056C158.082 91.0453 158.189 91.04 158.296 91.04C158.413 91.0293 158.525 91.024 158.632 91.024C158.728 91.024 158.776 91.0507 158.776 91.104C158.776 91.1573 158.76 91.1947 158.728 91.216C158.696 91.2267 158.653 91.2373 158.6 91.248C158.44 91.2693 158.274 91.2907 158.104 91.312C157.944 91.3333 157.784 91.36 157.624 91.392C157.325 91.6587 157.032 91.8453 156.744 91.952C156.456 92.048 156.109 92.096 155.704 92.096ZM159.985 92.096C159.793 92.096 159.697 92.016 159.697 91.856C159.697 91.728 159.782 91.6213 159.953 91.536C160.134 91.44 160.348 91.36 160.593 91.296C160.849 91.232 161.089 91.184 161.313 91.152C161.537 91.12 161.697 91.0987 161.793 91.088C161.846 91.0347 161.889 90.976 161.921 90.912C161.953 90.8373 161.969 90.7627 161.969 90.688C161.969 90.6027 161.942 90.5333 161.889 90.48C161.846 90.416 161.788 90.3627 161.713 90.32C161.521 90.2027 161.281 90.048 160.993 89.856C160.705 89.664 160.449 89.4507 160.225 89.216C160.012 88.9707 159.905 88.72 159.905 88.464C159.905 88.3147 159.942 88.1973 160.017 88.112C160.209 87.8667 160.454 87.5947 160.753 87.296C161.062 86.9867 161.393 86.7253 161.745 86.512C162.108 86.288 162.454 86.176 162.785 86.176C163.084 86.176 163.265 86.224 163.329 86.32C163.393 86.416 163.425 86.5973 163.425 86.864C163.425 87.0453 163.393 87.248 163.329 87.472C163.265 87.6853 163.132 87.8347 162.929 87.92H162.897C162.865 87.92 162.844 87.872 162.833 87.776C162.833 87.6693 162.833 87.5733 162.833 87.488C162.833 87.424 162.833 87.328 162.833 87.2C162.833 87.072 162.806 86.9547 162.753 86.848C162.7 86.7307 162.598 86.672 162.449 86.672C162.3 86.672 162.124 86.72 161.921 86.816C161.718 86.9013 161.516 87.024 161.313 87.184C161.121 87.3333 160.961 87.4933 160.833 87.664C160.705 87.8347 160.641 88 160.641 88.16C160.641 88.4267 160.737 88.6507 160.929 88.832C161.132 89.0133 161.366 89.1733 161.633 89.312C161.9 89.4507 162.129 89.5947 162.321 89.744C162.524 89.8933 162.625 90.0693 162.625 90.272C162.625 90.4213 162.588 90.5653 162.513 90.704C162.438 90.832 162.353 90.9493 162.257 91.056C162.364 91.0453 162.47 91.04 162.577 91.04C162.694 91.0293 162.806 91.024 162.913 91.024C163.009 91.024 163.057 91.0507 163.057 91.104C163.057 91.1573 163.041 91.1947 163.009 91.216C162.977 91.2267 162.934 91.2373 162.881 91.248C162.721 91.2693 162.556 91.2907 162.385 91.312C162.225 91.3333 162.065 91.36 161.905 91.392C161.606 91.6587 161.313 91.8453 161.025 91.952C160.737 92.048 160.39 92.096 159.985 92.096Z" fill="#E75726"/>
<defs>
<linearGradient id="paint0_linear_431_846" x1="76.0806" y1="13.0975" x2="83.0066" y2="46.7074" gradientUnits="userSpaceOnUse">
<stop stop-color="#E75825"/>
<stop offset="1" stop-color="#E75627"/>
</linearGradient>
<linearGradient id="paint1_linear_431_846" x1="52.8996" y1="12.8449" x2="79.4307" y2="12.8449" gradientUnits="userSpaceOnUse">
<stop stop-color="#18194C"/>
<stop offset="1" stop-color="#142357"/>
</linearGradient>
<linearGradient id="paint2_linear_431_846" x1="78.4965" y1="-1.67366" x2="78.2874" y2="12.0428" gradientUnits="userSpaceOnUse">
<stop stop-color="#3E0F51"/>
<stop offset="1" stop-color="#703D85"/>
</linearGradient>
<linearGradient id="paint3_linear_431_846" x1="86.4624" y1="15.3451" x2="96.7162" y2="15.3451" gradientUnits="userSpaceOnUse">
<stop stop-color="#5BA921"/>
<stop offset="1" stop-color="#147F00"/>
</linearGradient>
<linearGradient id="paint4_linear_431_846" x1="59.4658" y1="18.6073" x2="59.0364" y2="31.6758" gradientUnits="userSpaceOnUse">
<stop stop-color="#E7401D"/>
<stop offset="1" stop-color="#AA0021"/>
</linearGradient>
</defs>
</svg>
