<svg xmlns="http://www.w3.org/2000/svg" xmlns:xlink="http://www.w3.org/1999/xlink" width="319" height="233" viewBox="0 0 319 233">
  <defs>
    <clipPath id="clip-path">
      <rect id="Rectangle_2" data-name="Rectangle 2" width="319" height="233" transform="translate(-0.12 -0.223)"/>
    </clipPath>
  </defs>
  <g id="CerbosysallWhiteByPrasang" transform="translate(0.12 0.223)" clip-path="url(#clip-path)">
    <g id="Layer_2" data-name="Layer 2" transform="translate(41.74 34.574)">
      <g id="Group_2" data-name="Group 2" transform="translate(0 0)">
        <g id="Group_1" data-name="Group 1" transform="translate(84.611)">
          <path id="Path_3" data-name="Path 3" d="M695.182,318.543l-.192.072a7.87,7.87,0,0,1-6.521-.776,14.957,14.957,0,0,1-4.433-4.134,19.953,19.953,0,0,1-2.089-3.412,1.509,1.509,0,0,0-.073-.134c-.212-.347-.419-.339-.612.025a.619.619,0,0,1-.127.181,7.618,7.618,0,0,1-2.713,1.655,3.914,3.914,0,0,1-2.865-.043.9.9,0,0,0-1.238.548,3.718,3.718,0,0,1-1.072,1.273,9.166,9.166,0,0,1-2.917,1.671,9.745,9.745,0,0,1-2.879.481,8.022,8.022,0,0,1-4.231-.987,9.088,9.088,0,0,1-3.738-4.1,3.938,3.938,0,0,1-.282-1.122,13.16,13.16,0,0,1-.112-3.656,9,9,0,0,1,3.107-5.994,10.1,10.1,0,0,1,2.728-1.589c1.33-.568,2.668-1.118,3.97-1.768a12.62,12.62,0,0,0,5.5-5.035,10.714,10.714,0,0,0,1.479-5.609c0-.192-.034-.383-.049-.575a2.321,2.321,0,0,1,.616-1.78,4.507,4.507,0,0,1,1.368-.986,12.72,12.72,0,0,1,2.575-1.07,7.7,7.7,0,0,1,6.242.832,12.745,12.745,0,0,1,4.616,5.147c.063.118.124.237.179.36a1.184,1.184,0,0,1-.062,1.113,1.609,1.609,0,0,1-.442.511,4.919,4.919,0,0,0-1.658,2.585,8.557,8.557,0,0,0-.26,3.6,12.156,12.156,0,0,0,.68,2.835,1.274,1.274,0,0,0,1.626.892.648.648,0,0,0,.417-.651,2.152,2.152,0,0,0-.255-1.139,5.909,5.909,0,0,1-.8-3.258,5.415,5.415,0,0,1,1.775-3.85,5.936,5.936,0,0,1,3.689-1.66,5.39,5.39,0,0,1,4.143,1.771,2.309,2.309,0,0,1,.39.785,11.971,11.971,0,0,1,.152,8.653,19.3,19.3,0,0,1-3.371,5.894,22.359,22.359,0,0,1-2.383,2.536,4.414,4.414,0,0,1-.39.309,2.653,2.653,0,0,0-1.121,2.168,4.708,4.708,0,0,0,.969,3.31,4.387,4.387,0,0,0,1.7,1.179,6.1,6.1,0,0,0,1.247.383,1.072,1.072,0,0,1,.47.2.431.431,0,0,1,.181.266.514.514,0,0,1-.034.34,1.032,1.032,0,0,1-.41.507,12.1,12.1,0,0,1-1.656.913Z" transform="translate(-638.607 -261.468)" fill="#fff"/>
          <path id="Path_4" data-name="Path 4" d="M595.717,295.085a20.19,20.19,0,0,1-.629-6.254,11.9,11.9,0,0,1,1.357-4.986,7.43,7.43,0,0,1,.481-.743,2.051,2.051,0,0,0,.455-1.375,16.9,16.9,0,0,1,2.4-9.943,14.527,14.527,0,0,1,3.408-4.112,7.032,7.032,0,0,1,5.748-1.53,11.87,11.87,0,0,1,4.12,1.55,21.741,21.741,0,0,1,4.725,3.764c.08.081.157.17.232.26a1.062,1.062,0,0,0,.783.477,1.008,1.008,0,0,0,.828-.352,9.829,9.829,0,0,1,3.759-2.247,5.292,5.292,0,0,1,4.388.269,4.955,4.955,0,0,1,1.47,1.206,5.484,5.484,0,0,1,.769,1.444,8.915,8.915,0,0,1,.627,4.562,10.469,10.469,0,0,1-1.242,3.769,14.211,14.211,0,0,1-3.847,4.577,4.219,4.219,0,0,1-2.058.818,10.3,10.3,0,0,0-5.86,2.995,14.342,14.342,0,0,0-2.793,3.8,3.285,3.285,0,0,0-.158.352.817.817,0,0,1-.384.521.605.605,0,0,1-.581,0c-.345-.134-.675-.319-1.016-.465a12.763,12.763,0,0,0-5.927-1.132,11.756,11.756,0,0,0-8.071,4.154,10.708,10.708,0,0,0-1.139,1.488,1.486,1.486,0,0,1-.308.365.32.32,0,0,1-.345.107.4.4,0,0,1-.252-.3A29.946,29.946,0,0,1,595.717,295.085Z" transform="translate(-595.057 -251.975)" fill="#fff"/>
          <path id="Path_5" data-name="Path 5" d="M642.874,233.254a12.993,12.993,0,0,1,5.683-.817.546.546,0,0,1,.275.068,1.35,1.35,0,0,0,1.778-.149,6.241,6.241,0,0,1,1.106-.737,22.5,22.5,0,0,1,3.339-1.55,13.5,13.5,0,0,1,6.377-.865,9.867,9.867,0,0,1,3.965,1.385,11.1,11.1,0,0,1,3.976,4.154,8.652,8.652,0,0,1,.816,2.484,6.13,6.13,0,0,1,.094,1.963,4.047,4.047,0,0,1-1.873,3.077,4.363,4.363,0,0,1-.983.387,4.063,4.063,0,0,0-2.677,3.769c-.012.162.016.332.012.5a.673.673,0,0,1-.13.433.474.474,0,0,1-.349.2,7.192,7.192,0,0,0-2.5.924c-.428.23-.833.514-1.25.767a1.064,1.064,0,0,1-1.2.067,1.223,1.223,0,0,1-.363-.406,11.6,11.6,0,0,0-2.57-3.007,6.081,6.081,0,0,0-5.32-1.308,8.532,8.532,0,0,0-3.914,2.069.874.874,0,0,1-1.076.129,1.87,1.87,0,0,1-.53-.415,14.9,14.9,0,0,0-6.307-4.16,14,14,0,0,0-3.15-.738,1.519,1.519,0,0,1-.472-.128.556.556,0,0,1-.37-.391.712.712,0,0,1,.077-.583c.13-.264.272-.52.417-.774A13.9,13.9,0,0,1,642.874,233.254Z" transform="translate(-622.411 -229.127)" fill="#fff"/>
          <path id="Path_6" data-name="Path 6" d="M751.767,258.023a28.349,28.349,0,0,1,.889,6.872,2.457,2.457,0,0,1-.046.574.487.487,0,0,1-.21.358.345.345,0,0,1-.366.007.7.7,0,0,1-.182-.1,3.938,3.938,0,0,0-2.455-.8,10.358,10.358,0,0,0-3.781.638.472.472,0,0,1-.5-.01.666.666,0,0,1-.288-.486,4.908,4.908,0,0,0-.4-1.176,13.545,13.545,0,0,0-3.346-4.746,8.483,8.483,0,0,0-3.938-2.061,1.065,1.065,0,0,0-.366-.011,1.375,1.375,0,0,1-.334,0,.746.746,0,0,1-.58-.331,1.07,1.07,0,0,1-.179-.737,2.343,2.343,0,0,1,.708-1.594,4.3,4.3,0,0,1,1.275-.9.565.565,0,0,0,.136-.076,7.3,7.3,0,0,0,2.233-3.491,7.514,7.514,0,0,0,.044-4.121,1.848,1.848,0,0,1-.064-.33c-.031-.374.116-.546.434-.527a2.869,2.869,0,0,1,.773.252,15.931,15.931,0,0,1,9.348,9.245,26.167,26.167,0,0,1,1.2,3.554Z" transform="translate(-690.815 -238.938)" fill="#fff"/>
          <path id="Path_7" data-name="Path 7" d="M610.918,340.526a9.728,9.728,0,0,1,5.175-.487,12.777,12.777,0,0,1,4.228,1.537,1.214,1.214,0,0,1,.7,1.32,6.981,6.981,0,0,0-.08,1.27,24.271,24.271,0,0,0,.372,3.223c.058.354.187.686.215,1.047a.854.854,0,0,1-.289.8,12.471,12.471,0,0,1-3.808,2.028,9.719,9.719,0,0,1-7.35-.6,13.478,13.478,0,0,1-4.148-3.11,2.846,2.846,0,0,1-.421-.48,1.619,1.619,0,0,1-.13-1.243,3.481,3.481,0,0,1,.581-1.228,12.322,12.322,0,0,1,3.6-3.4A11.037,11.037,0,0,1,610.918,340.526Z" transform="translate(-602.041 -297.705)" fill="#fff"/>
        </g>
        <path id="Path_1119" data-name="Path 1119" d="M22.957-86.234c5.893,0,10.716-3.983,12.742-10.311H34.037c-2.027,5.334-6.144,8.433-11.08,8.433-7,0-12.328-6.494-12.328-14.986,0-8.538,5.276-14.986,12.328-14.986,4.974,0,9.116,3.142,11.018,8.342h1.637c-1.914-6.163-6.636-10.222-12.655-10.222-7.945,0-13.966,7.185-13.966,16.865C8.992-93.509,15.049-86.234,22.957-86.234Zm44.261-17.091c0-9.365-5.553-16.64-13.373-16.64-7.757,0-13.637,7.275-13.637,16.82,0,9.635,5.881,16.91,13.637,16.91,5.566,0,9.948-3.472,12.516-9.891H64.649c-2.178,5.02-6.006,8-10.806,8-6.731,0-11.8-6.079-12.041-14.385H67.191C67.2-102.769,67.217-103.069,67.217-103.325ZM53.845-118.115c6.391,0,11.37,5.564,11.785,13.784h-23.8c.451-7.991,5.439-13.784,12.017-13.784Zm31.87-1.308c-4.593,0-7.968,2.888-9.66,7.445l-.262-7.355H74.521v32.468h1.612v-18.278c0-7.185,3.8-12.431,9.48-12.431h2.443v-1.849Zm21.9-.541c-5.515,0-10.077,3.52-12.34,8.9V-130.8H93.661v43.935h1.347l.234-8.349c2.252,5.421,6.83,8.98,12.371,8.98,8.1,0,13.826-7.275,13.826-16.865,0-9.605-5.729-16.865-13.826-16.865Zm-.088,31.851C100.5-88.113,95.2-94.607,95.2-103.1c0-8.553,5.3-14.986,12.328-14.986,7.1,0,12.277,6.328,12.277,14.986s-5.175,14.986-12.277,14.986ZM140.7-86.234c8.109,0,14.153-7.215,14.153-16.865s-6.044-16.865-14.153-16.865c-8.072,0-14.153,7.155-14.153,16.865,0,9.65,6.082,16.865,14.154,16.865Zm0-1.879c-7.152,0-12.516-6.4-12.516-14.986,0-8.628,5.326-14.986,12.516-14.986s12.516,6.4,12.516,14.986S147.894-88.113,140.7-88.113Zm29.465,1.879c6.157,0,10.262-3.7,10.262-9.289,0-7.2-5.389-8.356-10.149-9.3-4.432-.887-8.361-1.668-8.361-6.539,0-4.089,3.2-6.824,8.046-6.824,4.923,0,7.933,2.721,8.2,7.305h1.549c-.264-5.607-3.942-9.079-9.721-9.079-5.743,0-9.646,3.488-9.646,8.643,0,6.373,4.859,7.382,9.57,8.342,4.483.9,8.915,1.894,8.915,7.516,0,4.494-3.438,7.41-8.625,7.41-5.137,0-8.386-2.8-8.814-7.651h-1.587c.429,5.892,4.244,9.469,10.364,9.469Zm38.078-33.1L197.131-90.826l-11.763-28.507H183.58l12.7,30.662-1.644,4.137c-2.354,5.981-4.206,7.349-7.945,7.349h-2.027V-75.4h2.128c4.332,0,6.686-1.879,9.318-8.613l13.864-35.323Zm15.06,33.1c6.157,0,10.262-3.7,10.262-9.289,0-7.2-5.389-8.356-10.149-9.3-4.432-.887-8.361-1.668-8.361-6.539,0-4.089,3.2-6.824,8.046-6.824,4.923,0,7.933,2.721,8.2,7.305h1.55c-.264-5.607-3.942-9.079-9.721-9.079-5.743,0-9.646,3.488-9.646,8.643,0,6.373,4.859,7.382,9.57,8.342,4.483.9,8.915,1.894,8.915,7.516,0,4.494-3.438,7.41-8.625,7.41-5.137,0-8.386-2.8-8.814-7.651h-1.588c.428,5.892,4.244,9.469,10.363,9.469Z" transform="translate(-8.991 187.69)" fill="#fff"/>
        <ellipse id="Ellipse_1" data-name="Ellipse 1" cx="5.455" cy="6.511" rx="5.455" ry="6.511" transform="translate(93.551 85.724)" fill="#fff"/>
        <ellipse id="Ellipse_2" data-name="Ellipse 2" cx="5.455" cy="6.511" rx="5.455" ry="6.511" transform="translate(127.429 85.724)" fill="#fff"/>
      </g>
    </g>
    <g id="Group_12" data-name="Group 12" transform="translate(38.025 150.906)">
      <path id="Path_1059" data-name="Path 1059" d="M205.879,740.184q-.009.043-.125.365a5.2,5.2,0,0,1-.389.791,8.948,8.948,0,0,1-.721,1.037,6.833,6.833,0,0,1-1.128,1.106,8.381,8.381,0,0,1-1.612.984,8.92,8.92,0,0,1-2.158.679,9.022,9.022,0,0,1-1.728.162,9.4,9.4,0,0,1-1.512-.122,7.516,7.516,0,0,1-1.448-.384,6.176,6.176,0,0,1-1.294-.668,4.674,4.674,0,0,1-1.043-.962,4.371,4.371,0,0,1-.7-1.277,4.8,4.8,0,0,1-.255-1.61,4.887,4.887,0,0,1,.73-2.7,4.751,4.751,0,0,1,2.162-1.764,3.815,3.815,0,0,1-.761-1.251,4.213,4.213,0,0,1,.1-3.123,4.041,4.041,0,0,1,.98-1.347,4.49,4.49,0,0,1,1.491-.882,5.486,5.486,0,0,1,1.894-.315,6.254,6.254,0,0,1,1.813.235,5.3,5.3,0,0,1,1.325.588,4,4,0,0,1,.9.771,5.207,5.207,0,0,1,.56.781,3.478,3.478,0,0,1,.287.615c.054.167.083.262.089.284a.62.62,0,0,1,.009.118.439.439,0,0,1-.094.273.3.3,0,0,1-.246.122.274.274,0,0,1-.193-.081.442.442,0,0,1-.121-.219,1.936,1.936,0,0,0-.072-.23,2.833,2.833,0,0,0-.251-.508,3.989,3.989,0,0,0-.488-.636,3.606,3.606,0,0,0-.792-.631,4.719,4.719,0,0,0-1.155-.487,5.756,5.756,0,0,0-1.576-.192,4.792,4.792,0,0,0-1.8.31,3.747,3.747,0,0,0-1.262.807,3.3,3.3,0,0,0-.981,2.3,3.169,3.169,0,0,0,.286,1.326,3.014,3.014,0,0,0,.824,1.08,8.288,8.288,0,0,1,.949-.235q.465-.086.877-.133t.748-.064q.336-.016.551-.016a3.542,3.542,0,0,1,.725.07,1.972,1.972,0,0,1,.568.2,1.036,1.036,0,0,1,.372.342.858.858,0,0,1,.136.476.884.884,0,0,1-.136.481,1.159,1.159,0,0,1-.372.365,1.892,1.892,0,0,1-.568.23,3.07,3.07,0,0,1-.725.081,6.027,6.027,0,0,1-.869-.064,6.785,6.785,0,0,1-.855-.182,5.56,5.56,0,0,1-.8-.294,4.2,4.2,0,0,1-.7-.4,4.54,4.54,0,0,0-2.158,1.481,3.841,3.841,0,0,0-.734,2.39,3.959,3.959,0,0,0,.228,1.385,3.554,3.554,0,0,0,.631,1.085,4.04,4.04,0,0,0,.945.807,5.726,5.726,0,0,0,1.16.551,7.232,7.232,0,0,0,1.289.316,8.918,8.918,0,0,0,1.334.1q.43,0,.833-.037a7.482,7.482,0,0,0,.779-.112,8,8,0,0,0,1.983-.625,8.082,8.082,0,0,0,1.477-.9,6.4,6.4,0,0,0,1.034-.994,7.517,7.517,0,0,0,.658-.93,5.05,5.05,0,0,0,.349-.69c.068-.178.1-.271.1-.277a.377.377,0,0,1,.121-.2.3.3,0,0,1,.192-.069.3.3,0,0,1,.242.118.418.418,0,0,1,.1.278.731.731,0,0,1-.015.123Zm-6.205-4.01c0-.057-.039-.107-.117-.15a1.069,1.069,0,0,0-.3-.1,3.138,3.138,0,0,0-.416-.054q-.233-.016-.476-.016-.529,0-1,.037a7.7,7.7,0,0,0-1.084.176,5.329,5.329,0,0,0,1.07.324,6.121,6.121,0,0,0,1.223.122,2.389,2.389,0,0,0,.833-.107q.269-.1.269-.232Z" transform="translate(-191.766 -728.362)" fill="#fff" stroke="#fff" stroke-width="1"/>
      <path id="Path_1060" data-name="Path 1060" d="M237.906,758.863q.143-.353.331-.775t.4-.855q.215-.433.452-.861t.5-.811a1.921,1.921,0,0,1,.524-.54.949.949,0,0,1,.5-.165.734.734,0,0,1,.689.406,2.062,2.062,0,0,1,.224,1c0,.093,0,.2-.013.337s-.018.273-.027.423-.018.3-.027.454-.014.3-.014.433q0,.247.022.492a1.705,1.705,0,0,0,.085.412.648.648,0,0,0,.179.278.444.444,0,0,0,.306.1.954.954,0,0,0,.663-.315,4.091,4.091,0,0,0,.6-.748,7.059,7.059,0,0,0,.476-.882q.2-.449.3-.727a.4.4,0,0,1,.13-.182.3.3,0,0,1,.184-.064.288.288,0,0,1,.246.133.483.483,0,0,1,.094.284.435.435,0,0,1-.027.15c-.024.058-.072.175-.143.353s-.165.384-.282.615-.252.478-.408.737a4.743,4.743,0,0,1-.515.711,3.007,3.007,0,0,1-.609.535,1.234,1.234,0,0,1-.685.214,1.065,1.065,0,0,1-.654-.187,1.281,1.281,0,0,1-.394-.492,2.271,2.271,0,0,1-.193-.674,5.574,5.574,0,0,1-.049-.743c0-.107,0-.228.014-.365s.021-.278.034-.428.027-.3.036-.449.013-.292.013-.427a.849.849,0,0,0-.09-.465.24.24,0,0,0-.161-.122.5.5,0,0,0-.327.2,3.542,3.542,0,0,0-.385.518q-.2.32-.412.722t-.394.8q-.184.4-.34.754t-.246.593a1.613,1.613,0,0,1-.358.6.56.56,0,0,1-.367.155.516.516,0,0,1-.416-.187.8.8,0,0,1-.157-.53q0-.074.018-.294c.012-.146.027-.321.045-.524s.034-.423.054-.658.034-.469.054-.7.034-.446.045-.647.018-.367.018-.5c0-.178-.006-.349-.018-.514a.561.561,0,0,0-.072-.3,1.148,1.148,0,0,0-.286.4,9.144,9.144,0,0,0-.528,1.3.384.384,0,0,1-.136.182.32.32,0,0,1-.188.064.283.283,0,0,1-.242-.122.469.469,0,0,1-.09-.284.546.546,0,0,1,.027-.162,8.26,8.26,0,0,1,.757-1.684.957.957,0,0,1,.7-.54.515.515,0,0,1,.349.122.858.858,0,0,1,.228.324,1.99,1.99,0,0,1,.125.449,3.1,3.1,0,0,1,.04.5q0,.192-.022.6t-.058.871q-.036.465-.068.924T237.906,758.863Z" transform="translate(-220.891 -743.459)" fill="#fff" stroke="#fff" stroke-width="1"/>
      <path id="Path_1061" data-name="Path 1061" d="M267.038,757.311l-.148.359q-.112.272-.286.625t-.408.737a4.739,4.739,0,0,1-.52.706,2.9,2.9,0,0,1-.618.527,1.293,1.293,0,0,1-.7.208,1.123,1.123,0,0,1-.873-.4,2.4,2.4,0,0,1-.515-.994,3.032,3.032,0,0,1-.725.968,1.227,1.227,0,0,1-1.442.214,1.336,1.336,0,0,1-.457-.406,2.005,2.005,0,0,1-.291-.615,2.742,2.742,0,0,1-.1-.771,4.194,4.194,0,0,1,.238-1.47,3.485,3.485,0,0,1,.6-1.064,2.514,2.514,0,0,1,.81-.641,1.968,1.968,0,0,1,.855-.214,1.405,1.405,0,0,1,.51.09,2.28,2.28,0,0,1,.4.2,1.54,1.54,0,0,1,.255.2c.059.06.092.095.1.1a.491.491,0,0,1,.1.288.439.439,0,0,1-.1.284.291.291,0,0,1-.233.122.3.3,0,0,1-.242-.118c-.012-.014-.039-.041-.081-.081a.975.975,0,0,0-.17-.122,1.244,1.244,0,0,0-.255-.112,1.071,1.071,0,0,0-.336-.049,1.377,1.377,0,0,0-.591.15,1.692,1.692,0,0,0-.573.465,2.694,2.694,0,0,0-.434.791,3.274,3.274,0,0,0-.175,1.128,2.408,2.408,0,0,0,.036.412,1.258,1.258,0,0,0,.125.38.766.766,0,0,0,.242.278.636.636,0,0,0,.376.107.741.741,0,0,0,.371-.129,1.432,1.432,0,0,0,.4-.4,2.991,2.991,0,0,0,.349-.674,3.9,3.9,0,0,0,.22-.962.42.42,0,0,1,.116-.251.314.314,0,0,1,.233-.1.277.277,0,0,1,.22.118.463.463,0,0,1,.1.267c.006.135.018.324.034.572a4.14,4.14,0,0,0,.121.733,1.927,1.927,0,0,0,.282.631.6.6,0,0,0,.522.27.769.769,0,0,0,.425-.138,2.093,2.093,0,0,0,.411-.369,4,4,0,0,0,.385-.524q.184-.294.336-.593t.269-.578q.116-.278.2-.481a.4.4,0,0,1,.13-.182.3.3,0,0,1,.183-.064.288.288,0,0,1,.246.133.483.483,0,0,1,.094.284A.434.434,0,0,1,267.038,757.311Z" transform="translate(-236.785 -743.928)" fill="#fff" stroke="#fff" stroke-width="1"/>
      <path id="Path_1062" data-name="Path 1062" d="M286,742.109c-.018.041-.057.13-.117.262s-.136.284-.233.46-.209.36-.34.556a4.093,4.093,0,0,1-.43.54,2.34,2.34,0,0,1-.5.406,1.073,1.073,0,0,1-.555.162,1.476,1.476,0,0,1-.788-.2,2.147,2.147,0,0,1-.528-.444,3.461,3.461,0,0,1-.349.684,2.886,2.886,0,0,1-.456.54,2.045,2.045,0,0,1-.533.359,1.382,1.382,0,0,1-.578.129,1.267,1.267,0,0,1-.931-.385,2.981,2.981,0,0,1-.64-1.032,7.444,7.444,0,0,1-.4-1.5q-.148-.891-.219-1.8-.076-.941-.094-1.9t-.018-1.829q0-1.657.081-2.871.062-1.038.22-2.064a8.475,8.475,0,0,1,.322-1.379,3.4,3.4,0,0,1,.389-.823,1.2,1.2,0,0,1,.421-.4.945.945,0,0,1,.421-.107.838.838,0,0,1,.586.235,1.831,1.831,0,0,1,.43.658,4.389,4.389,0,0,1,.264,1.021,8.955,8.955,0,0,1,.089,1.315,14.181,14.181,0,0,1-.206,2.363q-.209,1.234-.533,2.434t-.73,2.385q-.4,1.171-.8,2.218a8.466,8.466,0,0,0,.161,1,4.251,4.251,0,0,0,.278.845,1.883,1.883,0,0,0,.4.588.76.76,0,0,0,.537.219.918.918,0,0,0,.573-.208,1.884,1.884,0,0,0,.465-.546,3.022,3.022,0,0,0,.309-.764,3.442,3.442,0,0,0,.112-.877,3.808,3.808,0,0,0-.049-.6,2.355,2.355,0,0,0-.152-.546,1.216,1.216,0,0,0-.255-.39.5.5,0,0,0-.367-.15.362.362,0,0,0-.251.081.582.582,0,0,0-.188.379c-.006.064-.009.107-.009.129a.877.877,0,0,0,.054.3.589.589,0,0,0,.206.267.436.436,0,0,1,.152.353.4.4,0,0,1-.1.289.312.312,0,0,1-.228.107.455.455,0,0,1-.318-.129,1.113,1.113,0,0,1-.238-.325,1.967,1.967,0,0,1-.152-.422,1.808,1.808,0,0,1-.054-.417,1.768,1.768,0,0,1,.089-.572,1.255,1.255,0,0,1,.6-.738.937.937,0,0,1,.425-.1,1.072,1.072,0,0,1,.667.214,1.7,1.7,0,0,1,.47.568,2.885,2.885,0,0,1,.278.8,4.63,4.63,0,0,1,.09.909,5,5,0,0,1-.027.524,1.978,1.978,0,0,0,.117.225,1.2,1.2,0,0,0,.215.267,1.36,1.36,0,0,0,.322.225.948.948,0,0,0,.439.1.69.69,0,0,0,.442-.2,2.79,2.79,0,0,0,.439-.492,5.627,5.627,0,0,0,.39-.631,6.7,6.7,0,0,0,.3-.625.38.38,0,0,1,.125-.166.3.3,0,0,1,.179-.058.291.291,0,0,1,.246.128.475.475,0,0,1,.094.288A.582.582,0,0,1,286,742.109Zm-6.922-1.379q.306-.9.618-1.887t.564-2.015q.25-1.024.412-2.074a13.565,13.565,0,0,0,.161-2.063q0-.384-.031-.807a5.254,5.254,0,0,0-.112-.775,2.071,2.071,0,0,0-.22-.588.408.408,0,0,0-.354-.235.307.307,0,0,0-.184.112,1.36,1.36,0,0,0-.238.4,5.029,5.029,0,0,0-.251.785,11.824,11.824,0,0,0-.228,1.278q-.1.775-.17,1.866t-.068,2.566q0,.492.009,1t.022.967q.013.46.031.845T279.078,740.73Z" transform="translate(-248.89 -728.705)" fill="#fff" stroke="#fff" stroke-width="1"/>
      <path id="Path_1063" data-name="Path 1063" d="M304.089,742.118q-.1.246-.246.583t-.336.7q-.194.374-.421.722a4.273,4.273,0,0,1-.506.642,2.6,2.6,0,0,1-.582.46,1.306,1.306,0,0,1-.658.177,1.239,1.239,0,0,1-.922-.4,3.284,3.284,0,0,1-.654-1.037,7.792,7.792,0,0,1-.434-1.46q-.167-.824-.255-1.667t-.121-1.652q-.031-.8-.031-1.422,0-.9.049-1.86t.157-1.882q.107-.92.272-1.744a9.806,9.806,0,0,1,.394-1.444,3.455,3.455,0,0,1,.524-.983.857.857,0,0,1,.671-.365.912.912,0,0,1,.533.165,1.241,1.241,0,0,1,.4.54,4.026,4.026,0,0,1,.251.974,10.151,10.151,0,0,1,.089,1.465,13.548,13.548,0,0,1-.188,2.208,21.687,21.687,0,0,1-.51,2.293q-.329,1.175-.761,2.3-.439,1.15-.94,2.24a8,8,0,0,0,.6,2.133,1.1,1.1,0,0,0,.9.775.972.972,0,0,0,.689-.337,4.287,4.287,0,0,0,.609-.8,8.365,8.365,0,0,0,.488-.936q.21-.475.327-.764a.385.385,0,0,1,.125-.166.3.3,0,0,1,.179-.058.291.291,0,0,1,.246.128.477.477,0,0,1,.094.288.573.573,0,0,1-.035.174Zm-4.485-4.3q0,.684.027,1.315t.071,1.208q.377-.866.717-1.844t.6-1.978q.256-.979.416-1.988a12.054,12.054,0,0,0,.157-1.887,6.744,6.744,0,0,0-.17-1.807q-.17-.545-.457-.545-.188,0-.363.31a4.018,4.018,0,0,0-.327.845,12.256,12.256,0,0,0-.278,1.262q-.125.726-.21,1.56t-.134,1.744q-.051.909-.05,1.807Z" transform="translate(-262.51 -728.713)" fill="#fff" stroke="#fff" stroke-width="1"/>
      <path id="Path_1064" data-name="Path 1064" d="M313.461,745.809a.828.828,0,1,1-1.631,0,.989.989,0,0,1,.5-.9.711.711,0,0,1,.636,0,.985.985,0,0,1,.5.9Zm-1.451,6.266a29.35,29.35,0,0,1,.161-3.065.49.49,0,0,1,.113-.265.306.306,0,0,1,.246-.113.267.267,0,0,1,.224.122.468.468,0,0,1,.09.284c0,.043-.007.171-.022.385s-.034.469-.054.764-.039.608-.054.941-.022.636-.022.914a3.6,3.6,0,0,0,.094.914,1.561,1.561,0,0,0,.242.541.754.754,0,0,0,.313.256.876.876,0,0,0,.318.065.843.843,0,0,0,.519-.214,3.09,3.09,0,0,0,.551-.6,7.609,7.609,0,0,0,.569-.925q.307-.584.564-1.2a.38.38,0,0,1,.125-.166.3.3,0,0,1,.179-.058.283.283,0,0,1,.238.128.459.459,0,0,1,.094.278.418.418,0,0,1-.034.182q-.107.246-.269.6t-.367.727q-.206.374-.452.743a5.055,5.055,0,0,1-.524.663,2.728,2.728,0,0,1-.585.477,1.2,1.2,0,0,1-.618.182,1.244,1.244,0,0,1-.707-.2,1.736,1.736,0,0,1-.515-.545,2.613,2.613,0,0,1-.313-.807A4.616,4.616,0,0,1,312.01,752.075Zm.949-6.266a.356.356,0,0,0-.314-.374.266.266,0,0,0-.215.112.407.407,0,0,0-.09.262.339.339,0,0,0,.306.365.285.285,0,0,0,.219-.107.376.376,0,0,0,.093-.258Z" transform="translate(-271.032 -737.836)" fill="#fff" stroke="#fff" stroke-width="1"/>
      <path id="Path_1065" data-name="Path 1065" d="M325.479,758.863q.143-.353.331-.775t.4-.855q.214-.433.452-.861t.5-.811a1.922,1.922,0,0,1,.524-.54.947.947,0,0,1,.5-.165.734.734,0,0,1,.689.406,2.062,2.062,0,0,1,.224,1c0,.093,0,.2-.013.337s-.018.273-.027.423-.018.3-.027.454-.013.3-.013.433q0,.247.022.492a1.706,1.706,0,0,0,.085.412.648.648,0,0,0,.179.278.445.445,0,0,0,.306.1.954.954,0,0,0,.663-.315,4.091,4.091,0,0,0,.6-.748,7.106,7.106,0,0,0,.476-.882q.2-.449.3-.727a.4.4,0,0,1,.13-.182.3.3,0,0,1,.184-.064.288.288,0,0,1,.246.133.483.483,0,0,1,.094.284.435.435,0,0,1-.027.15c-.024.058-.072.175-.143.353s-.165.384-.282.615-.252.478-.408.737a4.725,4.725,0,0,1-.515.711,2.988,2.988,0,0,1-.609.535,1.233,1.233,0,0,1-.685.214,1.064,1.064,0,0,1-.654-.187,1.285,1.285,0,0,1-.394-.492,2.281,2.281,0,0,1-.192-.674,5.572,5.572,0,0,1-.049-.743c0-.107,0-.228.013-.365s.021-.278.036-.428.027-.3.036-.449.014-.292.014-.427a.849.849,0,0,0-.09-.465.239.239,0,0,0-.161-.122.5.5,0,0,0-.327.2,3.52,3.52,0,0,0-.385.518q-.2.32-.412.722t-.394.8q-.183.4-.34.754t-.246.593a1.613,1.613,0,0,1-.358.6.56.56,0,0,1-.367.155.518.518,0,0,1-.417-.187.805.805,0,0,1-.157-.53q0-.074.018-.294c.012-.146.027-.321.045-.524s.036-.423.054-.658.034-.469.054-.7.034-.446.045-.647.018-.367.018-.5c0-.178-.006-.349-.018-.514a.564.564,0,0,0-.072-.3,1.145,1.145,0,0,0-.286.4,9.106,9.106,0,0,0-.528,1.3.382.382,0,0,1-.136.182.319.319,0,0,1-.188.064.282.282,0,0,1-.242-.122.469.469,0,0,1-.09-.284.534.534,0,0,1,.027-.162,8.258,8.258,0,0,1,.757-1.684.957.957,0,0,1,.7-.54.514.514,0,0,1,.349.122.855.855,0,0,1,.228.325,1.991,1.991,0,0,1,.125.449,3.1,3.1,0,0,1,.04.5q0,.192-.022.6t-.058.871q-.036.465-.068.924T325.479,758.863Z" transform="translate(-278.709 -743.459)" fill="#fff" stroke="#fff" stroke-width="1"/>
      <path id="Path_1066" data-name="Path 1066" d="M350.921,761.346a24.657,24.657,0,0,0,2.337-4.352.391.391,0,0,1,.121-.176.276.276,0,0,1,.175-.059.317.317,0,0,1,.245.116.453.453,0,0,1,.1.289.435.435,0,0,1-.027.15,17.652,17.652,0,0,1-1.121,2.384q-.725,1.316-1.835,2.972,0,.674.009,1.347t.009,1.475q0,.8-.031,1.588t-.112,1.5a11.858,11.858,0,0,1-.219,1.315,4.8,4.8,0,0,1-.358,1.048,2.056,2.056,0,0,1-.528.7,1.121,1.121,0,0,1-.73.251,1.014,1.014,0,0,1-.922-.546,3.075,3.075,0,0,1-.322-1.55,8.638,8.638,0,0,1,.085-1.16,12.613,12.613,0,0,1,.246-1.288q.161-.663.389-1.342t.506-1.32q.274-.634.6-1.229a8.8,8.8,0,0,1,.694-1.07q.009-.748.013-1.486t.022-1.358a2.145,2.145,0,0,1-.64.641,1.378,1.378,0,0,1-.739.235,1.134,1.134,0,0,1-.568-.144,1.3,1.3,0,0,1-.435-.406,2.07,2.07,0,0,1-.278-.615,2.863,2.863,0,0,1-.1-.771,4.194,4.194,0,0,1,.238-1.47,3.484,3.484,0,0,1,.605-1.063,2.515,2.515,0,0,1,.81-.641,1.966,1.966,0,0,1,.855-.214,1.464,1.464,0,0,1,.51.086,2.024,2.024,0,0,1,.4.192,1.359,1.359,0,0,1,.255.2l.1.107a.462.462,0,0,1,.1.288.441.441,0,0,1-.1.284.292.292,0,0,1-.233.122.343.343,0,0,1-.242-.118c-.024-.021-.055-.052-.094-.091a1.044,1.044,0,0,0-.152-.122.885.885,0,0,0-.224-.107,1.008,1.008,0,0,0-.309-.043,1.464,1.464,0,0,0-.591.145,1.794,1.794,0,0,0-.6.454,2.572,2.572,0,0,0-.466.8,3.261,3.261,0,0,0-.188,1.171,1.612,1.612,0,0,0,.188.829.628.628,0,0,0,.582.316.772.772,0,0,0,.4-.129,1.483,1.483,0,0,0,.408-.4,2.681,2.681,0,0,0,.345-.674,4.227,4.227,0,0,0,.21-.962.422.422,0,0,1,.116-.251.314.314,0,0,1,.233-.1.269.269,0,0,1,.238.128.511.511,0,0,1,.085.289c0,.007,0,.116-.009.325s-.012.49-.018.839-.013.754-.022,1.214S350.927,760.833,350.921,761.346Zm-.68,2.341a11.251,11.251,0,0,0-.761,1.513,15.519,15.519,0,0,0-.582,1.652,14.035,14.035,0,0,0-.372,1.62,8.712,8.712,0,0,0-.13,1.406,2.739,2.739,0,0,0,.058.631,1.194,1.194,0,0,0,.143.365.436.436,0,0,0,.188.171.513.513,0,0,0,.193.041.6.6,0,0,0,.484-.267,2.348,2.348,0,0,0,.349-.711,6.689,6.689,0,0,0,.233-1.021q.089-.577.134-1.192t.063-1.224q.018-.608.018-1.123v-.92q0-.459-.019-.94Z" transform="translate(-294.593 -743.932)" fill="#fff" stroke="#fff" stroke-width="1"/>
      <path id="Path_1067" data-name="Path 1067" d="M393.35,736.712a6.411,6.411,0,0,1,1.312.588,5.3,5.3,0,0,1,.913.69,3.33,3.33,0,0,1,.586.733,4.11,4.11,0,0,1,.332.716,2.981,2.981,0,0,1,.147.636,4.776,4.776,0,0,1,.031.5,3.546,3.546,0,0,1-.238,1.339,3.493,3.493,0,0,1-.64,1.037,3.847,3.847,0,0,1-.936.759,6.154,6.154,0,0,1-1.115.508,6.877,6.877,0,0,1-1.191.289,7.879,7.879,0,0,1-1.155.091,8.3,8.3,0,0,1-1.831-.214,8.52,8.52,0,0,1-1.912-.7.382.382,0,0,1-.215-.374.409.409,0,0,1,.107-.294.319.319,0,0,1,.233-.112.335.335,0,0,1,.136.032,8.058,8.058,0,0,0,1.711.631,7.411,7.411,0,0,0,1.764.214,6.842,6.842,0,0,0,2.077-.278,4.325,4.325,0,0,0,1.427-.73,2.925,2.925,0,0,0,.828-1.027,2.7,2.7,0,0,0,.269-1.16,2.506,2.506,0,0,0-.3-1.208,3.237,3.237,0,0,0-.849-.995,5.267,5.267,0,0,0-1.32-.748,7.917,7.917,0,0,0-1.711-.46,10.777,10.777,0,0,1-1.2.182q-.582.053-1.074.054h-.206a.585.585,0,0,1-.117-.011,14.361,14.361,0,0,1-1.536,3.2,11.044,11.044,0,0,1-1.9,2.231,7.219,7.219,0,0,1-2.069,1.3,5.51,5.51,0,0,1-2.037.422,4.982,4.982,0,0,1-1.858-.337,4.165,4.165,0,0,1-1.455-.957,4.338,4.338,0,0,1-.949-1.5,5.439,5.439,0,0,1-.34-1.973,8,8,0,0,1,.372-2.346,11.571,11.571,0,0,1,1.106-2.465,12.955,12.955,0,0,1,3.335-3.753,12.724,12.724,0,0,1,1.93-1.208,14.042,14.042,0,0,1,1.974-.823,12.105,12.105,0,0,1,1.917-.466,11.571,11.571,0,0,1,1.759-.144q.671,0,1.281.054a11.082,11.082,0,0,1,1.164.162,5.239,5.239,0,0,1,.52-.615c.131-.125.206-.194.224-.209a.381.381,0,0,1,.188-.064.334.334,0,0,1,.224.085.31.31,0,0,1,.1.246.529.529,0,0,1-.125.359l-.34.39a5.254,5.254,0,0,1,2.507,1.448,3.449,3.449,0,0,1,.869,2.39,4.263,4.263,0,0,1-.215,1.4,3.693,3.693,0,0,1-.586,1.09,4.072,4.072,0,0,1-.869.818,5.722,5.722,0,0,1-1.054.573Zm-1.934-7.185q-.457-.075-.94-.107t-1.012-.032a10.875,10.875,0,0,0-1.674.139,11.961,11.961,0,0,0-1.818.438,13.039,13.039,0,0,0-1.876.775,12.107,12.107,0,0,0-3.532,2.7,12.422,12.422,0,0,0-1.469,2,10.454,10.454,0,0,0-1.012,2.234,7.1,7.1,0,0,0-.34,2.1,4.647,4.647,0,0,0,.282,1.668,3.423,3.423,0,0,0,.8,1.246,3.532,3.532,0,0,0,1.245.78,4.528,4.528,0,0,0,1.6.273,4.915,4.915,0,0,0,1.827-.38,6.551,6.551,0,0,0,1.854-1.165,10.2,10.2,0,0,0,1.719-1.988,13.237,13.237,0,0,0,1.424-2.86.6.6,0,0,1-.331-.112.432.432,0,0,1-.17-.377.413.413,0,0,1,.205-.351,2.185,2.185,0,0,1,.646-.187q.242-.877.492-1.754t.555-1.732q.3-.855.671-1.684a13.843,13.843,0,0,1,.849-1.621Zm.4,6.832a7.715,7.715,0,0,0,.81-.224,6.344,6.344,0,0,0,.815-.337,4.7,4.7,0,0,0,.756-.471,2.98,2.98,0,0,0,.622-.641,3.173,3.173,0,0,0,.421-.829,3.245,3.245,0,0,0,.157-1.048,2.6,2.6,0,0,0-.833-1.978,5.206,5.206,0,0,0-2.391-1.154,12.3,12.3,0,0,0-.841,1.465q-.4.809-.725,1.663t-.6,1.744q-.253.838-.434,1.7c.119-.007.23-.011.331-.011h.26q.349,0,.761.027T391.819,736.359Z" transform="translate(-314.105 -727.776)" fill="#fff" stroke="#fff" stroke-width="1"/>
      <path id="Path_1068" data-name="Path 1068" d="M441.487,759.115a3.1,3.1,0,0,1-.73.962,1.3,1.3,0,0,1-.837.353,1.229,1.229,0,0,1-.609-.15,1.435,1.435,0,0,1-.466-.422,1.986,1.986,0,0,1-.3-.657,3.358,3.358,0,0,1-.1-.866,6.514,6.514,0,0,1,.121-1.326,7.063,7.063,0,0,1,.264-.968,4.41,4.41,0,0,1,.394-.8.288.288,0,0,1,.112-.1.321.321,0,0,1,.139-.032.288.288,0,0,1,.238.122.454.454,0,0,1,.094.284.4.4,0,0,1-.022.129c-.015.041-.032.086-.05.128q-.045.1-.143.294a4.128,4.128,0,0,0-.206.518,5.625,5.625,0,0,0-.188.754,5.452,5.452,0,0,0-.081.989,1.779,1.779,0,0,0,.211.956.667.667,0,0,0,.6.325.764.764,0,0,0,.372-.122,1.519,1.519,0,0,0,.412-.379,2.523,2.523,0,0,0,.354-.653,3.386,3.386,0,0,0,.2-.93l.134-1.839a.459.459,0,0,1,.117-.267.307.307,0,0,1,.233-.107.278.278,0,0,1,.242.133.537.537,0,0,1,.089.3l-.116,1.775a3.692,3.692,0,0,0,.013.588,3.933,3.933,0,0,0,.13.716,1.717,1.717,0,0,0,.3.6.628.628,0,0,0,.52.251.835.835,0,0,0,.457-.144,2.059,2.059,0,0,0,.429-.38,3.533,3.533,0,0,0,.381-.527q.175-.295.323-.594t.255-.572q.107-.273.179-.465a.415.415,0,0,1,.125-.182.282.282,0,0,1,.179-.064.288.288,0,0,1,.251.128.477.477,0,0,1,.089.278.465.465,0,0,1-.027.162q-.036.086-.139.359c-.068.181-.158.389-.268.62q-.183.379-.4.733a5,5,0,0,1-.519.711,2.792,2.792,0,0,1-.623.535,1.345,1.345,0,0,1-.721.208,1.173,1.173,0,0,1-.878-.358,2.233,2.233,0,0,1-.521-1.023Z" transform="translate(-354.622 -743.946)" fill="#fff" stroke="#fff" stroke-width="1"/>
      <path id="Path_1069" data-name="Path 1069" d="M458.566,754.212q-.054.171-.13.385t-.174.449a1.2,1.2,0,0,1-.166.284.272.272,0,0,1-.219.1.292.292,0,0,1-.242-.112.4.4,0,0,1-.09-.262.391.391,0,0,1,.009-.091.9.9,0,0,1,.045-.122,7.278,7.278,0,0,0,.345-.935,7.731,7.731,0,0,0,.183-.839q-.054-.206-.089-.417a2.248,2.248,0,0,1-.027-.353,1.149,1.149,0,0,1,.125-.572.387.387,0,0,1,.349-.219.366.366,0,0,1,.327.214,1.053,1.053,0,0,1,.121.524,2.176,2.176,0,0,1-.027.342q-.026.171-.072.428.206.608.412,1.08t.367.861q.149.357.264.733a2.364,2.364,0,0,1,.1.684,2.425,2.425,0,0,1-.152.855,1.564,1.564,0,0,1-.5.684.369.369,0,0,0,.089.011h.09a1.69,1.69,0,0,0,.94-.278,3.14,3.14,0,0,0,.775-.722,5.83,5.83,0,0,0,.612-.983,10.73,10.73,0,0,0,.466-1.074q.089-.246.251-.246a.268.268,0,0,1,.238.128.493.493,0,0,1,.085.278.465.465,0,0,1-.027.162q-.1.289-.255.658a7.712,7.712,0,0,1-.376.759,6.453,6.453,0,0,1-.506.765,4.155,4.155,0,0,1-.64.668,3.077,3.077,0,0,1-.775.47,2.361,2.361,0,0,1-.923.177,2.507,2.507,0,0,1-1.115-.252,1.929,1.929,0,0,1-.837-.829.43.43,0,0,1,.157-.578.3.3,0,0,1,.371.086.256.256,0,0,0,.063.069q.054.048.13.107a.781.781,0,0,0,.179.1.543.543,0,0,0,.21.041.6.6,0,0,0,.363-.107.838.838,0,0,0,.238-.262,1.188,1.188,0,0,0,.13-.331,1.4,1.4,0,0,0,.04-.305,2.062,2.062,0,0,0-.071-.534,4.207,4.207,0,0,0-.184-.535c-.074-.178-.155-.361-.241-.55S458.636,754.415,458.566,754.212Z" transform="translate(-367.115 -741.801)" fill="#fff" stroke="#fff" stroke-width="1"/>
      <path id="Path_1070" data-name="Path 1070" d="M473.35,745.808a.828.828,0,1,1-1.631,0,1.064,1.064,0,0,1,.238-.69.824.824,0,0,1,.26-.208.711.711,0,0,1,.636,0,.987.987,0,0,1,.5.9Zm-1.451,6.266a29.2,29.2,0,0,1,.162-3.071.488.488,0,0,1,.112-.259.3.3,0,0,1,.246-.113.268.268,0,0,1,.224.122.47.47,0,0,1,.089.284c0,.043-.007.171-.022.385s-.034.469-.054.764-.039.608-.054.941-.022.636-.022.914a3.611,3.611,0,0,0,.094.913,1.559,1.559,0,0,0,.242.541.754.754,0,0,0,.314.256.874.874,0,0,0,.318.065.843.843,0,0,0,.519-.214,3.113,3.113,0,0,0,.55-.6,7.614,7.614,0,0,0,.569-.925q.307-.584.564-1.2a.331.331,0,0,1,.306-.224.284.284,0,0,1,.238.128.462.462,0,0,1,.094.278.423.423,0,0,1-.036.182q-.107.246-.269.6t-.367.727q-.206.374-.452.743a5.1,5.1,0,0,1-.524.663,2.738,2.738,0,0,1-.582.476,1.2,1.2,0,0,1-.618.182,1.245,1.245,0,0,1-.707-.2,1.739,1.739,0,0,1-.515-.545,2.6,2.6,0,0,1-.313-.807A4.616,4.616,0,0,1,471.9,752.074Zm.949-6.266a.356.356,0,0,0-.314-.374.266.266,0,0,0-.215.112.4.4,0,0,0-.089.262.34.34,0,0,0,.3.365.284.284,0,0,0,.219-.107.375.375,0,0,0,.094-.258Z" transform="translate(-376.591 -737.835)" fill="#fff" stroke="#fff" stroke-width="1"/>
      <path id="Path_1071" data-name="Path 1071" d="M485.367,758.863q.143-.353.331-.775t.4-.855q.215-.433.452-.861t.5-.811a1.921,1.921,0,0,1,.524-.54.946.946,0,0,1,.5-.165.734.734,0,0,1,.689.406,2.058,2.058,0,0,1,.224,1c0,.093,0,.2-.014.337s-.018.273-.027.423-.018.3-.027.454-.013.3-.013.433q0,.247.022.492a1.721,1.721,0,0,0,.085.412.646.646,0,0,0,.179.278.445.445,0,0,0,.306.1.955.955,0,0,0,.663-.315,4.117,4.117,0,0,0,.595-.748,7.029,7.029,0,0,0,.476-.882q.2-.449.3-.727a.4.4,0,0,1,.13-.182.3.3,0,0,1,.183-.064.288.288,0,0,1,.246.133.483.483,0,0,1,.094.284.435.435,0,0,1-.027.15c-.024.058-.071.175-.143.353s-.166.384-.282.615-.253.478-.408.737a4.738,4.738,0,0,1-.515.711,3,3,0,0,1-.609.535,1.236,1.236,0,0,1-.685.214,1.064,1.064,0,0,1-.654-.187,1.277,1.277,0,0,1-.394-.492,2.27,2.27,0,0,1-.192-.674,5.52,5.52,0,0,1-.05-.743c0-.107,0-.228.014-.365s.021-.278.036-.428.026-.3.034-.449.014-.292.014-.427a.848.848,0,0,0-.09-.465.238.238,0,0,0-.161-.122.5.5,0,0,0-.327.2,3.573,3.573,0,0,0-.385.518q-.2.32-.412.722t-.394.8q-.183.4-.34.754t-.246.593a1.622,1.622,0,0,1-.358.6.561.561,0,0,1-.367.155.517.517,0,0,1-.417-.187.806.806,0,0,1-.157-.53q0-.074.018-.294c.012-.146.027-.321.045-.524s.036-.423.054-.658.034-.469.054-.7.034-.446.045-.647.018-.367.018-.5c0-.178-.006-.349-.018-.514a.557.557,0,0,0-.072-.3,1.15,1.15,0,0,0-.287.4,9.156,9.156,0,0,0-.528,1.3.384.384,0,0,1-.136.182.319.319,0,0,1-.188.064.284.284,0,0,1-.242-.122.471.471,0,0,1-.089-.284.536.536,0,0,1,.027-.162,8.261,8.261,0,0,1,.757-1.684.957.957,0,0,1,.7-.54.514.514,0,0,1,.349.122.854.854,0,0,1,.228.324,1.991,1.991,0,0,1,.125.449,3.1,3.1,0,0,1,.04.5q0,.192-.022.6t-.058.871q-.034.465-.068.924T485.367,758.863Z" transform="translate(-384.266 -743.459)" fill="#fff" stroke="#fff" stroke-width="1"/>
      <path id="Path_1072" data-name="Path 1072" d="M508.991,759.043a1.5,1.5,0,0,0,.484.5,1.44,1.44,0,0,0,1.522-.064,2.818,2.818,0,0,0,.654-.658,5.386,5.386,0,0,0,.528-.909q.233-.5.421-1a.381.381,0,0,1,.125-.177.3.3,0,0,1,.179-.058.291.291,0,0,1,.246.128.459.459,0,0,1,.094.278.381.381,0,0,1-.009.091.5.5,0,0,1-.027.081,8.028,8.028,0,0,1-1.348,2.448,2.246,2.246,0,0,1-1.652.845,1.981,1.981,0,0,1-1.728-.978,3.239,3.239,0,0,1-.412-.978,4.534,4.534,0,0,1-.136-1.091,4.237,4.237,0,0,1,.112-1,2.755,2.755,0,0,1,.322-.8,1.681,1.681,0,0,1,.5-.535,1.137,1.137,0,0,1,.641-.193.9.9,0,0,1,.408.1,1.185,1.185,0,0,1,.363.289,1.473,1.473,0,0,1,.26.454,1.751,1.751,0,0,1,.1.608,2.64,2.64,0,0,1-.125.823,2.947,2.947,0,0,1-.345.717,3.254,3.254,0,0,1-.524.608A3.814,3.814,0,0,1,508.991,759.043Zm-.269-.7a2.115,2.115,0,0,0,.506-.352,2.382,2.382,0,0,0,.39-.471,2.354,2.354,0,0,0,.25-.54,1.883,1.883,0,0,0,.09-.572.759.759,0,0,0-.136-.487.4.4,0,0,0-.313-.166.581.581,0,0,0-.412.162,1.207,1.207,0,0,0-.277.417,2.447,2.447,0,0,0-.157.572,4.031,4.031,0,0,0-.05.625,2.787,2.787,0,0,0,.032.406q.03.2.078.4Z" transform="translate(-400.5 -743.853)" fill="#fff" stroke="#fff" stroke-width="1"/>
      <path id="Path_1073" data-name="Path 1073" d="M522.69,754.212q-.053.171-.13.385t-.175.449a1.2,1.2,0,0,1-.165.284.272.272,0,0,1-.22.1.292.292,0,0,1-.242-.112.4.4,0,0,1-.089-.262.39.39,0,0,1,.009-.091.883.883,0,0,1,.045-.122,7.287,7.287,0,0,0,.345-.935,7.717,7.717,0,0,0,.183-.839q-.054-.206-.089-.417a2.244,2.244,0,0,1-.027-.353,1.15,1.15,0,0,1,.125-.572.387.387,0,0,1,.349-.219.366.366,0,0,1,.327.214,1.053,1.053,0,0,1,.121.524,2.184,2.184,0,0,1-.027.342c-.018.114-.042.256-.072.428q.206.608.412,1.08t.367.861a7.761,7.761,0,0,1,.264.733,2.362,2.362,0,0,1,.1.684,2.423,2.423,0,0,1-.152.855,1.564,1.564,0,0,1-.5.684.369.369,0,0,0,.089.011h.09a1.691,1.691,0,0,0,.94-.278,3.142,3.142,0,0,0,.775-.722,5.842,5.842,0,0,0,.612-.983,10.8,10.8,0,0,0,.465-1.074c.06-.162.143-.246.251-.246a.268.268,0,0,1,.238.128.493.493,0,0,1,.085.278.466.466,0,0,1-.027.162q-.1.289-.255.658a7.639,7.639,0,0,1-.376.759,6.468,6.468,0,0,1-.506.765,4.158,4.158,0,0,1-.64.668,3.072,3.072,0,0,1-.775.47,2.361,2.361,0,0,1-.922.177,2.508,2.508,0,0,1-1.115-.252,1.929,1.929,0,0,1-.837-.829.43.43,0,0,1,.157-.578.3.3,0,0,1,.371.086.253.253,0,0,0,.063.069q.053.048.129.107a.784.784,0,0,0,.179.1.543.543,0,0,0,.21.041.6.6,0,0,0,.363-.107.844.844,0,0,0,.238-.262,1.2,1.2,0,0,0,.129-.331,1.38,1.38,0,0,0,.04-.305,2.077,2.077,0,0,0-.071-.534,4.32,4.32,0,0,0-.184-.535q-.112-.266-.242-.55t-.236-.595Z" transform="translate(-409.449 -741.801)" fill="#fff" stroke="#fff" stroke-width="1"/>
      <path id="Path_1074" data-name="Path 1074" d="M536.932,754.212q-.054.171-.13.385t-.175.449a1.2,1.2,0,0,1-.165.284.272.272,0,0,1-.219.1.292.292,0,0,1-.242-.112.408.408,0,0,1-.089-.262.393.393,0,0,1,.009-.091.988.988,0,0,1,.045-.122,7.333,7.333,0,0,0,.345-.935,7.872,7.872,0,0,0,.184-.839q-.054-.206-.089-.417a2.244,2.244,0,0,1-.027-.352,1.149,1.149,0,0,1,.125-.572.387.387,0,0,1,.349-.219.366.366,0,0,1,.327.214,1.053,1.053,0,0,1,.121.524,2.223,2.223,0,0,1-.027.342q-.027.171-.072.428.206.608.412,1.08t.367.861q.149.357.264.733a2.363,2.363,0,0,1,.1.684,2.425,2.425,0,0,1-.152.856,1.561,1.561,0,0,1-.5.684.372.372,0,0,0,.09.011h.089a1.692,1.692,0,0,0,.94-.278,3.137,3.137,0,0,0,.775-.722,5.84,5.84,0,0,0,.612-.983,10.776,10.776,0,0,0,.466-1.074q.09-.246.251-.246a.268.268,0,0,1,.238.128.494.494,0,0,1,.085.278.465.465,0,0,1-.027.162q-.1.289-.255.658a7.56,7.56,0,0,1-.376.759,6.491,6.491,0,0,1-.506.765,4.173,4.173,0,0,1-.64.668,3.073,3.073,0,0,1-.774.47,2.363,2.363,0,0,1-.923.176,2.506,2.506,0,0,1-1.115-.251,1.929,1.929,0,0,1-.837-.829.407.407,0,0,1-.054-.2.415.415,0,0,1,.211-.375.3.3,0,0,1,.371.087.255.255,0,0,0,.063.069q.054.048.13.107a.769.769,0,0,0,.179.1.543.543,0,0,0,.21.041.6.6,0,0,0,.363-.107.839.839,0,0,0,.238-.262,1.2,1.2,0,0,0,.13-.331,1.4,1.4,0,0,0,.04-.305,2.076,2.076,0,0,0-.071-.534,4.321,4.321,0,0,0-.184-.535q-.112-.266-.242-.55T536.932,754.212Z" transform="translate(-418.852 -741.801)" fill="#fff" stroke="#fff" stroke-width="1"/>
      <path id="Path_1075" data-name="Path 1075" d="M583.616,730.174q-.385.673-.859,1.614t-1.012,2.106q-.457.974-.9,2.069t-.846,2.17q-.4,1.074-.744,2.063t-.591,1.744q-.251.754-.394,1.208c-.1.3-.143.458-.143.465a.331.331,0,0,1-.322.268.281.281,0,0,1-.206-.091.437.437,0,0,1-.117-.23q0-.011-.085-.455t-.228-1.187q-.143-.743-.327-1.711t-.385-2.021q-.2-1.053-.408-2.133T575.664,734q-.6,2.02-1.2,3.576a22.36,22.36,0,0,1-1.241,2.705,11.282,11.282,0,0,1-1.312,1.93,6.661,6.661,0,0,1-1.415,1.257,5.171,5.171,0,0,1-1.549.679,7.045,7.045,0,0,1-1.715.2,4.4,4.4,0,0,1-.994-.122,5.11,5.11,0,0,1-2.042-1.021,4.372,4.372,0,0,1-.842-.914,4.516,4.516,0,0,1-.582-1.2,4.867,4.867,0,0,1-.214-1.491,4.041,4.041,0,0,1,.306-1.588,3.83,3.83,0,0,1,.824-1.24,3.735,3.735,0,0,1,1.2-.807,3.681,3.681,0,0,1,1.446-.289,4.081,4.081,0,0,1,1,.112,3.871,3.871,0,0,1,.784.284,3.01,3.01,0,0,1,.582.374,4.755,4.755,0,0,1,.4.374,1.714,1.714,0,0,1,.233.294.58.58,0,0,0,.081.122.54.54,0,0,1,.054.225.46.46,0,0,1-.094.278.291.291,0,0,1-.246.128.323.323,0,0,1-.286-.182c-.006-.007-.054-.073-.143-.2a2.026,2.026,0,0,0-.44-.417,3.207,3.207,0,0,0-1.952-.587,3.091,3.091,0,0,0-1.187.23,2.947,2.947,0,0,0-.976.649,3.132,3.132,0,0,0-.909,2.246,3.819,3.819,0,0,0,.188,1.229,3.777,3.777,0,0,0,.5.995,3.618,3.618,0,0,0,.725.759,4.5,4.5,0,0,0,1.759.838,3.911,3.911,0,0,0,.855.1,7.14,7.14,0,0,0,1.33-.122,4.41,4.41,0,0,0,1.28-.465,5.58,5.58,0,0,0,1.24-.942,8.491,8.491,0,0,0,1.209-1.56,17.7,17.7,0,0,0,1.186-2.321q.662-1.564,1.178-3.207.178-.555.349-1.2t.349-1.294q-.152-.941-.22-1.6c-.04-.365-.063-.733-.068-1.1a3.544,3.544,0,0,1,.063-.748,1.245,1.245,0,0,1,.161-.423.432.432,0,0,1,.215-.181.738.738,0,0,1,.224-.038.575.575,0,0,1,.2.043.451.451,0,0,1,.206.187,1.327,1.327,0,0,1,.157.423,3.544,3.544,0,0,1,.063.748,10.127,10.127,0,0,1-.081,1.186q-.081.674-.242,1.486.117.653.269,1.454t.313,1.663q.162.861.332,1.759t.331,1.754l.309,1.636q.147.78.272,1.411.242-.726.591-1.759t.779-2.19q.43-1.161.909-2.363t.981-2.271q.707-1.518,1.3-2.6t1.021-1.791q.43-.7.676-1.042t.264-.369a.3.3,0,0,1,.242-.118.3.3,0,0,1,.246.122.451.451,0,0,1,.094.284.446.446,0,0,1-.027.15c0,.007-.034.113-.1.316s-.155.481-.26.834-.219.766-.344,1.24-.248.984-.367,1.529-.226,1.115-.318,1.71-.16,1.189-.2,1.78q-.027.406-.045.852t-.018.892q0,.706.054,1.422a12.318,12.318,0,0,0,.179,1.379,7.733,7.733,0,0,0,.34,1.246,4.3,4.3,0,0,0,.53,1.017,2.57,2.57,0,0,0,.748.706,2.025,2.025,0,0,0,1.008.288.288.288,0,0,1,.228.145.518.518,0,0,1,.085.284.407.407,0,0,1-.1.267.3.3,0,0,1-.233.118,1.308,1.308,0,0,1-.286-.032,2.793,2.793,0,0,1-1.137-.444,3.419,3.419,0,0,1-.849-.834,4.782,4.782,0,0,1-.6-1.133,8.645,8.645,0,0,1-.38-1.363,12.493,12.493,0,0,1-.2-1.513q-.059-.786-.058-1.588c0-.634.027-1.269.08-1.9s.126-1.254.215-1.857.194-1.185.313-1.748S583.491,730.658,583.616,730.174Z" transform="translate(-436.562 -727.578)" fill="#fff" stroke="#fff" stroke-width="1"/>
      <path id="Path_1076" data-name="Path 1076" d="M641.646,757.312q-.036.086-.148.359t-.286.626q-.175.352-.408.737a4.725,4.725,0,0,1-.52.706,2.9,2.9,0,0,1-.618.527,1.292,1.292,0,0,1-.7.208,1.124,1.124,0,0,1-.873-.4,2.4,2.4,0,0,1-.515-.994,3.027,3.027,0,0,1-.725.968,1.228,1.228,0,0,1-1.442.214,1.337,1.337,0,0,1-.456-.406,2.006,2.006,0,0,1-.291-.615,2.743,2.743,0,0,1-.1-.771,4.193,4.193,0,0,1,.238-1.47,3.486,3.486,0,0,1,.6-1.064,2.523,2.523,0,0,1,.81-.641,1.969,1.969,0,0,1,.855-.214,1.4,1.4,0,0,1,.51.091,2.272,2.272,0,0,1,.4.2,1.542,1.542,0,0,1,.255.2c.06.06.093.095.1.1a.49.49,0,0,1,.1.288.438.438,0,0,1-.1.284.291.291,0,0,1-.232.122.3.3,0,0,1-.242-.118c-.012-.014-.039-.04-.081-.081a.984.984,0,0,0-.17-.122,1.23,1.23,0,0,0-.255-.112,1.069,1.069,0,0,0-.336-.049,1.377,1.377,0,0,0-.591.15,1.7,1.7,0,0,0-.574.465,2.709,2.709,0,0,0-.434.791,3.275,3.275,0,0,0-.175,1.128,2.44,2.44,0,0,0,.036.412,1.277,1.277,0,0,0,.125.38.771.771,0,0,0,.242.278.636.636,0,0,0,.376.107.741.741,0,0,0,.372-.129,1.435,1.435,0,0,0,.4-.4,3.01,3.01,0,0,0,.349-.674,3.917,3.917,0,0,0,.219-.962.421.421,0,0,1,.116-.251.313.313,0,0,1,.233-.1.275.275,0,0,1,.219.118.462.462,0,0,1,.1.267c.006.135.018.325.036.572a4.071,4.071,0,0,0,.121.733,1.927,1.927,0,0,0,.282.631.6.6,0,0,0,.519.267.766.766,0,0,0,.425-.138,2.091,2.091,0,0,0,.412-.369,3.964,3.964,0,0,0,.385-.524q.183-.294.335-.593t.269-.578q.117-.278.2-.481a.346.346,0,0,1,.313-.246.288.288,0,0,1,.246.133.483.483,0,0,1,.094.284.436.436,0,0,1-.026.15Z" transform="translate(-484.102 -743.929)" fill="#fff" stroke="#fff" stroke-width="1"/>
      <path id="Path_1077" data-name="Path 1077" d="M655.661,744.663a1.328,1.328,0,0,0,.5.647,1.354,1.354,0,0,0,.788.24,3.212,3.212,0,0,0,.439-.048,1.812,1.812,0,0,0,.7-.321,3.908,3.908,0,0,0,.846-.861,7.035,7.035,0,0,0,.869-1.657.382.382,0,0,1,.125-.177.3.3,0,0,1,.179-.058.291.291,0,0,1,.246.128.46.46,0,0,1,.094.278.576.576,0,0,1-.034.171,8.834,8.834,0,0,1-.7,1.4,5.546,5.546,0,0,1-.833,1.048,3.5,3.5,0,0,1-.936.663,2.318,2.318,0,0,1-1,.23,1.952,1.952,0,0,1-1.366-.55,1.957,1.957,0,0,1-.4-.568,1.5,1.5,0,0,1-.147-.647,1.008,1.008,0,0,1,.009-.118.587.587,0,0,1,.049-.166.6.6,0,0,1,.117-.171.574.574,0,0,1,.21-.134,3.575,3.575,0,0,0,.676-.316,2.543,2.543,0,0,0,.533-.422,1.807,1.807,0,0,0,.349-.518,1.505,1.505,0,0,0,.125-.615.683.683,0,0,0-.161-.47.506.506,0,0,0-.394-.182.731.731,0,0,0-.476.2,2.553,2.553,0,0,0-.452.524,5.541,5.541,0,0,0-.417.749q-.2.429-.364.882t-.291.913q-.125.454-.2.84c-.018.079-.038.162-.058.257a1.124,1.124,0,0,1-.094.262.69.69,0,0,1-.152.2.335.335,0,0,1-.232.081.361.361,0,0,1-.26-.134.66.66,0,0,1-.125-.454c0-.043,0-.207,0-.492s.008-.657.014-1.117.014-.987.022-1.582.016-1.226.022-1.892.015-1.353.027-2.058.021-1.394.027-2.064.014-1.306.022-1.908.016-1.136.022-1.6.011-.848.014-1.144,0-.472,0-.527a.394.394,0,0,1,.108-.284.319.319,0,0,1,.232-.112.31.31,0,0,1,.242.112.431.431,0,0,1,.1.294q0,.022,0,.422t-.013,1.075q-.009.674-.022,1.572t-.026,1.909q-.014,1.01-.027,2.079t-.027,2.085q-.014,1.014-.023,1.936t-.018,1.625q.157-.586.367-1.149a6.838,6.838,0,0,1,.528-1.117A3.406,3.406,0,0,1,655.7,741a1.257,1.257,0,0,1,.846-.332,1.062,1.062,0,0,1,.484.113,1.33,1.33,0,0,1,.649.775,1.731,1.731,0,0,1,.094.578,2.133,2.133,0,0,1-.179.882,2.573,2.573,0,0,1-.476.716,3.294,3.294,0,0,1-.676.55A4.438,4.438,0,0,1,655.661,744.663Z" transform="translate(-496.551 -729.612)" fill="#fff" stroke="#fff" stroke-width="1"/>
      <path id="Path_1078" data-name="Path 1078" d="M673.806,759.043a1.494,1.494,0,0,0,.484.5,1.44,1.44,0,0,0,1.522-.064,2.818,2.818,0,0,0,.653-.657,5.37,5.37,0,0,0,.528-.909q.233-.5.421-1a.379.379,0,0,1,.126-.177.3.3,0,0,1,.179-.058.291.291,0,0,1,.246.128.462.462,0,0,1,.094.278.4.4,0,0,1-.009.091.5.5,0,0,1-.027.081,8.032,8.032,0,0,1-1.347,2.448,2.247,2.247,0,0,1-1.652.845,1.982,1.982,0,0,1-1.728-.978,3.24,3.24,0,0,1-.412-.978,4.55,4.55,0,0,1-.136-1.091,4.238,4.238,0,0,1,.112-1,2.763,2.763,0,0,1,.322-.8,1.681,1.681,0,0,1,.5-.535,1.135,1.135,0,0,1,.641-.193.9.9,0,0,1,.408.1,1.183,1.183,0,0,1,.363.289,1.468,1.468,0,0,1,.26.454,1.757,1.757,0,0,1,.1.608,2.64,2.64,0,0,1-.125.823,2.937,2.937,0,0,1-.345.717,3.243,3.243,0,0,1-.524.608A3.809,3.809,0,0,1,673.806,759.043Zm-.269-.7a2.123,2.123,0,0,0,.506-.352,2.367,2.367,0,0,0,.389-.471,2.339,2.339,0,0,0,.25-.54,1.884,1.884,0,0,0,.09-.572.759.759,0,0,0-.136-.487.4.4,0,0,0-.313-.166.578.578,0,0,0-.412.162,1.206,1.206,0,0,0-.278.417,2.447,2.447,0,0,0-.157.572,4.07,4.07,0,0,0-.049.625,2.745,2.745,0,0,0,.032.406q.03.2.077.4Z" transform="translate(-509.311 -743.853)" fill="#fff" stroke="#fff" stroke-width="1"/>
      <path id="Path_1079" data-name="Path 1079" d="M715.957,736.712a6.391,6.391,0,0,1,1.312.588,5.3,5.3,0,0,1,.914.69,3.339,3.339,0,0,1,.586.733,4.114,4.114,0,0,1,.332.716,3.008,3.008,0,0,1,.148.636,4.845,4.845,0,0,1,.031.5,3.543,3.543,0,0,1-.238,1.339,3.491,3.491,0,0,1-.64,1.037,3.847,3.847,0,0,1-.936.759,6.148,6.148,0,0,1-1.115.508,6.848,6.848,0,0,1-1.191.289,7.861,7.861,0,0,1-1.155.091,8.3,8.3,0,0,1-1.832-.214,8.539,8.539,0,0,1-1.912-.7.382.382,0,0,1-.215-.374.407.407,0,0,1,.108-.294.319.319,0,0,1,.233-.112.34.34,0,0,1,.136.032,8.053,8.053,0,0,0,1.71.631,7.411,7.411,0,0,0,1.764.214,6.84,6.84,0,0,0,2.078-.278,4.328,4.328,0,0,0,1.427-.73,2.924,2.924,0,0,0,.828-1.027,2.7,2.7,0,0,0,.269-1.16,2.508,2.508,0,0,0-.3-1.208,3.235,3.235,0,0,0-.849-.995,5.26,5.26,0,0,0-1.321-.748,7.914,7.914,0,0,0-1.71-.46,10.774,10.774,0,0,1-1.2.182q-.582.053-1.074.054h-.206a.59.59,0,0,1-.117-.011,14.327,14.327,0,0,1-1.535,3.2,11.028,11.028,0,0,1-1.9,2.231,7.225,7.225,0,0,1-2.069,1.3,5.514,5.514,0,0,1-2.037.422,4.984,4.984,0,0,1-1.858-.337,4.164,4.164,0,0,1-1.455-.957,4.338,4.338,0,0,1-.949-1.5,5.447,5.447,0,0,1-.34-1.972,7.988,7.988,0,0,1,.372-2.346,11.553,11.553,0,0,1,1.106-2.465,12.958,12.958,0,0,1,3.335-3.753,12.761,12.761,0,0,1,1.93-1.208,14.016,14.016,0,0,1,1.974-.823,12.108,12.108,0,0,1,1.916-.466,11.587,11.587,0,0,1,1.759-.144q.672,0,1.281.054a11.134,11.134,0,0,1,1.164.162,5.247,5.247,0,0,1,.519-.615q.2-.187.224-.209a.382.382,0,0,1,.188-.064.334.334,0,0,1,.224.085.306.306,0,0,1,.1.246.529.529,0,0,1-.125.359l-.34.39a5.253,5.253,0,0,1,2.507,1.448,3.448,3.448,0,0,1,.869,2.39,4.265,4.265,0,0,1-.215,1.4,3.693,3.693,0,0,1-.587,1.09,4.067,4.067,0,0,1-.868.818A5.726,5.726,0,0,1,715.957,736.712Zm-1.934-7.185q-.457-.075-.941-.107t-1.012-.032a10.862,10.862,0,0,0-1.674.139,11.964,11.964,0,0,0-1.818.438,13.026,13.026,0,0,0-1.876.775,12.118,12.118,0,0,0-3.532,2.7,12.424,12.424,0,0,0-1.468,2,10.428,10.428,0,0,0-1.012,2.234,7.1,7.1,0,0,0-.34,2.1,4.648,4.648,0,0,0,.282,1.668,3.428,3.428,0,0,0,.8,1.246,3.526,3.526,0,0,0,1.245.781,4.524,4.524,0,0,0,1.6.273,4.916,4.916,0,0,0,1.827-.38,6.549,6.549,0,0,0,1.854-1.165,10.185,10.185,0,0,0,1.719-1.988,13.235,13.235,0,0,0,1.424-2.86.6.6,0,0,1-.332-.112.432.432,0,0,1-.17-.377.412.412,0,0,1,.206-.35,2.181,2.181,0,0,1,.646-.187q.242-.877.492-1.753t.555-1.732q.306-.855.672-1.684a13.738,13.738,0,0,1,.848-1.621Zm.4,6.832a7.678,7.678,0,0,0,.81-.224,6.358,6.358,0,0,0,.815-.337,4.689,4.689,0,0,0,.757-.471,2.984,2.984,0,0,0,.622-.641,3.16,3.16,0,0,0,.421-.829,3.237,3.237,0,0,0,.157-1.048,2.593,2.593,0,0,0-.833-1.978,5.206,5.206,0,0,0-2.391-1.154,12.3,12.3,0,0,0-.842,1.465q-.394.8-.725,1.663t-.6,1.744q-.253.838-.434,1.7.179-.011.331-.011h.26q.349,0,.761.027t.886.09Z" transform="translate(-527.091 -727.776)" fill="#fff" stroke="#fff" stroke-width="1"/>
      <path id="Path_1080" data-name="Path 1080" d="M764.1,759.114a3.092,3.092,0,0,1-.73.962,1.226,1.226,0,0,1-1.446.2,1.436,1.436,0,0,1-.466-.422,2,2,0,0,1-.3-.658,3.356,3.356,0,0,1-.1-.866,6.523,6.523,0,0,1,.121-1.326,7.071,7.071,0,0,1,.264-.968,4.4,4.4,0,0,1,.394-.8.285.285,0,0,1,.112-.1.32.32,0,0,1,.139-.032.288.288,0,0,1,.238.122.45.45,0,0,1,.094.284.4.4,0,0,1-.022.129c-.015.041-.032.086-.049.128-.03.064-.078.162-.143.294a4.073,4.073,0,0,0-.206.518,5.616,5.616,0,0,0-.188.754,5.423,5.423,0,0,0-.081.989,1.781,1.781,0,0,0,.211.957.668.668,0,0,0,.6.324.763.763,0,0,0,.372-.122,1.515,1.515,0,0,0,.412-.379,2.514,2.514,0,0,0,.354-.653,3.387,3.387,0,0,0,.2-.93l.136-1.839a.458.458,0,0,1,.116-.267.307.307,0,0,1,.233-.107.277.277,0,0,1,.242.133.535.535,0,0,1,.09.3l-.116,1.775a3.646,3.646,0,0,0,.013.588,3.876,3.876,0,0,0,.13.716,1.708,1.708,0,0,0,.3.6.626.626,0,0,0,.519.251.834.834,0,0,0,.457-.144,2.063,2.063,0,0,0,.43-.38,3.55,3.55,0,0,0,.381-.527q.174-.294.322-.593t.255-.572q.107-.273.179-.465a.415.415,0,0,1,.125-.182.282.282,0,0,1,.179-.064.287.287,0,0,1,.25.128.485.485,0,0,1,.063.44c-.024.057-.07.177-.139.358s-.158.389-.268.62q-.183.379-.4.733a5.014,5.014,0,0,1-.52.711,2.779,2.779,0,0,1-.622.535,1.345,1.345,0,0,1-.721.208,1.175,1.175,0,0,1-.878-.358,2.232,2.232,0,0,1-.522-1.023Z" transform="translate(-567.61 -743.945)" fill="#fff" stroke="#fff" stroke-width="1"/>
      <path id="Path_1081" data-name="Path 1081" d="M781.178,754.212q-.054.171-.13.385c-.051.143-.109.292-.175.449a1.2,1.2,0,0,1-.165.284.272.272,0,0,1-.219.1.293.293,0,0,1-.242-.112.438.438,0,0,1-.081-.353,1,1,0,0,1,.045-.122,7.345,7.345,0,0,0,.345-.935,7.914,7.914,0,0,0,.183-.839q-.054-.206-.089-.417a2.244,2.244,0,0,1-.027-.352,1.149,1.149,0,0,1,.125-.572.387.387,0,0,1,.349-.219.366.366,0,0,1,.327.214,1.049,1.049,0,0,1,.121.524,2.238,2.238,0,0,1-.027.342q-.027.171-.072.428.206.608.412,1.08t.367.861q.149.357.264.733a2.36,2.36,0,0,1,.1.684,2.421,2.421,0,0,1-.152.855,1.561,1.561,0,0,1-.5.684.374.374,0,0,0,.09.011h.089a1.692,1.692,0,0,0,.94-.278,3.14,3.14,0,0,0,.775-.722,5.848,5.848,0,0,0,.612-.983,10.8,10.8,0,0,0,.466-1.074q.09-.246.251-.246a.268.268,0,0,1,.238.128.493.493,0,0,1,.085.278.464.464,0,0,1-.027.162q-.1.289-.255.658a7.56,7.56,0,0,1-.376.759,6.5,6.5,0,0,1-.506.765,4.17,4.17,0,0,1-.64.668,3.068,3.068,0,0,1-.774.47,2.364,2.364,0,0,1-.923.177,2.508,2.508,0,0,1-1.115-.252,1.93,1.93,0,0,1-.837-.829.407.407,0,0,1-.054-.2.415.415,0,0,1,.211-.375.3.3,0,0,1,.371.086.254.254,0,0,0,.063.069q.053.048.13.107a.765.765,0,0,0,.179.1.543.543,0,0,0,.21.041.6.6,0,0,0,.363-.107.842.842,0,0,0,.238-.262,1.187,1.187,0,0,0,.13-.331,1.4,1.4,0,0,0,.04-.305,2.062,2.062,0,0,0-.071-.534,4.255,4.255,0,0,0-.184-.535q-.112-.266-.242-.55t-.236-.595Z" transform="translate(-580.103 -741.801)" fill="#fff" stroke="#fff" stroke-width="1"/>
      <path id="Path_1082" data-name="Path 1082" d="M795.958,745.808a.828.828,0,1,1-1.631,0,1.069,1.069,0,0,1,.238-.69.824.824,0,0,1,.26-.208.711.711,0,0,1,.636,0,.987.987,0,0,1,.5.9Zm-1.451,6.266a29.224,29.224,0,0,1,.161-3.067.491.491,0,0,1,.112-.264.306.306,0,0,1,.247-.113.268.268,0,0,1,.224.122.467.467,0,0,1,.09.284c0,.043-.008.171-.022.385s-.034.469-.054.764-.039.608-.054.941-.023.636-.023.914a3.594,3.594,0,0,0,.094.913,1.554,1.554,0,0,0,.242.541.753.753,0,0,0,.313.256.874.874,0,0,0,.318.065.843.843,0,0,0,.519-.214,3.093,3.093,0,0,0,.55-.6,7.572,7.572,0,0,0,.569-.925q.308-.584.564-1.2a.383.383,0,0,1,.126-.166.3.3,0,0,1,.179-.058.283.283,0,0,1,.238.128.46.46,0,0,1,.094.278.422.422,0,0,1-.036.182q-.107.246-.269.6t-.367.727q-.206.374-.452.743a5.052,5.052,0,0,1-.524.663,2.729,2.729,0,0,1-.582.476,1.194,1.194,0,0,1-.618.182,1.244,1.244,0,0,1-.707-.2,1.736,1.736,0,0,1-.515-.545,2.6,2.6,0,0,1-.313-.807,4.618,4.618,0,0,1-.1-1Zm.949-6.266a.356.356,0,0,0-.313-.374.265.265,0,0,0-.215.112.406.406,0,0,0-.09.262.339.339,0,0,0,.306.365.283.283,0,0,0,.219-.107A.373.373,0,0,0,795.456,745.808Z" transform="translate(-589.578 -737.835)" fill="#fff" stroke="#fff" stroke-width="1"/>
      <path id="Path_1083" data-name="Path 1083" d="M807.966,758.863q.144-.353.331-.775t.4-.855q.215-.433.452-.861t.5-.811a1.925,1.925,0,0,1,.524-.54.946.946,0,0,1,.5-.166.735.735,0,0,1,.69.406,2.062,2.062,0,0,1,.224,1c0,.093,0,.2-.014.337s-.018.273-.027.423-.018.3-.027.454-.014.3-.014.433q0,.247.022.492a1.72,1.72,0,0,0,.085.412.644.644,0,0,0,.179.278.446.446,0,0,0,.306.1.955.955,0,0,0,.663-.315,4.105,4.105,0,0,0,.6-.748,7.02,7.02,0,0,0,.476-.882q.2-.449.3-.727a.4.4,0,0,1,.13-.182.3.3,0,0,1,.183-.064.288.288,0,0,1,.246.133.484.484,0,0,1,.094.284.434.434,0,0,1-.027.15c-.024.058-.071.175-.143.353s-.166.384-.282.615-.252.478-.408.737a4.726,4.726,0,0,1-.515.711,2.989,2.989,0,0,1-.609.535,1.234,1.234,0,0,1-.685.214,1.063,1.063,0,0,1-.653-.187,1.279,1.279,0,0,1-.394-.492,2.281,2.281,0,0,1-.192-.674,5.521,5.521,0,0,1-.049-.743c0-.107,0-.228.014-.365s.02-.278.034-.428.026-.3.034-.449.014-.292.014-.427a.849.849,0,0,0-.09-.465.24.24,0,0,0-.161-.122.5.5,0,0,0-.327.2,3.551,3.551,0,0,0-.385.518q-.2.32-.412.722t-.394.8q-.183.4-.34.754t-.246.593a1.62,1.62,0,0,1-.358.6.559.559,0,0,1-.367.155.516.516,0,0,1-.416-.187.8.8,0,0,1-.157-.53q0-.074.018-.294c.012-.146.027-.321.045-.524s.036-.423.054-.658.036-.469.054-.7.034-.446.044-.647.018-.367.018-.5c0-.178-.006-.349-.018-.513a.563.563,0,0,0-.071-.3,1.145,1.145,0,0,0-.287.4,9.145,9.145,0,0,0-.528,1.3.387.387,0,0,1-.134.182.32.32,0,0,1-.188.064.285.285,0,0,1-.242-.122.469.469,0,0,1-.09-.284.547.547,0,0,1,.027-.162,8.256,8.256,0,0,1,.757-1.684.956.956,0,0,1,.7-.54.515.515,0,0,1,.349.122.855.855,0,0,1,.228.324,2.013,2.013,0,0,1,.126.449,3.108,3.108,0,0,1,.04.5q0,.192-.023.6t-.058.871q-.036.465-.068.924T807.966,758.863Z" transform="translate(-597.246 -743.459)" fill="#fff" stroke="#fff" stroke-width="1"/>
      <path id="Path_1084" data-name="Path 1084" d="M831.6,759.043a1.494,1.494,0,0,0,.484.5,1.44,1.44,0,0,0,1.522-.064,2.817,2.817,0,0,0,.653-.658,5.36,5.36,0,0,0,.528-.909q.233-.5.421-1a.378.378,0,0,1,.126-.177.3.3,0,0,1,.179-.058.291.291,0,0,1,.246.128.462.462,0,0,1,.094.278.408.408,0,0,1-.009.091.5.5,0,0,1-.027.081,8.031,8.031,0,0,1-1.347,2.448,2.247,2.247,0,0,1-1.652.845,1.982,1.982,0,0,1-1.728-.978,3.24,3.24,0,0,1-.412-.978,4.548,4.548,0,0,1-.136-1.091,4.237,4.237,0,0,1,.112-1,2.765,2.765,0,0,1,.322-.8,1.683,1.683,0,0,1,.5-.535,1.134,1.134,0,0,1,.641-.193.9.9,0,0,1,.408.1,1.183,1.183,0,0,1,.362.289,1.463,1.463,0,0,1,.26.454,1.758,1.758,0,0,1,.1.608,2.639,2.639,0,0,1-.125.823,2.939,2.939,0,0,1-.345.717,3.244,3.244,0,0,1-.524.608A3.8,3.8,0,0,1,831.6,759.043Zm-.269-.7a2.12,2.12,0,0,0,.506-.352,2.37,2.37,0,0,0,.389-.471,2.339,2.339,0,0,0,.25-.54,1.884,1.884,0,0,0,.09-.572.759.759,0,0,0-.136-.487.4.4,0,0,0-.313-.166.578.578,0,0,0-.412.162,1.207,1.207,0,0,0-.278.417,2.45,2.45,0,0,0-.157.572,4.071,4.071,0,0,0-.049.625,2.744,2.744,0,0,0,.032.406Q831.282,758.148,831.329,758.348Z" transform="translate(-613.485 -743.853)" fill="#fff" stroke="#fff" stroke-width="1"/>
      <path id="Path_1085" data-name="Path 1085" d="M845.3,754.212q-.054.171-.13.385t-.175.449a1.2,1.2,0,0,1-.165.284.272.272,0,0,1-.219.1.292.292,0,0,1-.242-.112.4.4,0,0,1-.09-.262.411.411,0,0,1,.009-.091,1.012,1.012,0,0,1,.045-.122,7.345,7.345,0,0,0,.345-.935,7.821,7.821,0,0,0,.183-.839q-.054-.206-.089-.417a2.25,2.25,0,0,1-.027-.352,1.15,1.15,0,0,1,.125-.572.388.388,0,0,1,.35-.219.366.366,0,0,1,.327.214,1.05,1.05,0,0,1,.121.524,2.176,2.176,0,0,1-.027.342q-.027.171-.072.428.206.608.412,1.08t.367.861q.149.357.264.733a2.361,2.361,0,0,1,.1.684,2.427,2.427,0,0,1-.152.856,1.562,1.562,0,0,1-.5.684.377.377,0,0,0,.09.01h.089a1.692,1.692,0,0,0,.94-.278,3.133,3.133,0,0,0,.775-.722,5.822,5.822,0,0,0,.612-.983,10.77,10.77,0,0,0,.466-1.074q.09-.246.251-.246a.269.269,0,0,1,.238.128.493.493,0,0,1,.085.278.474.474,0,0,1-.027.162q-.1.289-.255.657a7.628,7.628,0,0,1-.376.759,6.5,6.5,0,0,1-.506.765,4.17,4.17,0,0,1-.637.666,3.067,3.067,0,0,1-.774.47,2.362,2.362,0,0,1-.923.177,2.506,2.506,0,0,1-1.115-.252,1.929,1.929,0,0,1-.837-.829.406.406,0,0,1-.054-.2.415.415,0,0,1,.211-.375.3.3,0,0,1,.371.086.262.262,0,0,0,.063.069q.053.048.13.107a.77.77,0,0,0,.179.1.543.543,0,0,0,.21.041.6.6,0,0,0,.363-.107.843.843,0,0,0,.238-.262,1.188,1.188,0,0,0,.13-.331,1.4,1.4,0,0,0,.04-.305,2.063,2.063,0,0,0-.071-.534,4.261,4.261,0,0,0-.184-.535q-.112-.266-.242-.55T845.3,754.212Z" transform="translate(-622.441 -741.801)" fill="#fff" stroke="#fff" stroke-width="1"/>
      <path id="Path_1086" data-name="Path 1086" d="M859.54,754.212q-.053.171-.13.385t-.174.449a1.213,1.213,0,0,1-.166.284.272.272,0,0,1-.219.1.292.292,0,0,1-.242-.112.4.4,0,0,1-.09-.262.415.415,0,0,1,.009-.091.984.984,0,0,1,.045-.122,7.355,7.355,0,0,0,.345-.935,7.8,7.8,0,0,0,.183-.839q-.054-.206-.089-.417a2.29,2.29,0,0,1-.027-.353,1.149,1.149,0,0,1,.125-.572.387.387,0,0,1,.35-.219.367.367,0,0,1,.327.214,1.053,1.053,0,0,1,.121.524,2.186,2.186,0,0,1-.027.342q-.027.171-.072.427.206.608.412,1.08t.367.861q.149.357.264.733a2.365,2.365,0,0,1,.1.684,2.424,2.424,0,0,1-.152.856,1.562,1.562,0,0,1-.5.684.378.378,0,0,0,.09.011h.09a1.693,1.693,0,0,0,.94-.278,3.132,3.132,0,0,0,.775-.722,5.83,5.83,0,0,0,.612-.983,10.646,10.646,0,0,0,.466-1.074q.09-.246.251-.246a.268.268,0,0,1,.238.128.492.492,0,0,1,.085.278.473.473,0,0,1-.027.162q-.1.289-.255.658a7.654,7.654,0,0,1-.376.759,6.416,6.416,0,0,1-.506.765,4.147,4.147,0,0,1-.64.668,3.069,3.069,0,0,1-.774.47,2.361,2.361,0,0,1-.923.177,2.505,2.505,0,0,1-1.115-.252,1.929,1.929,0,0,1-.837-.829.406.406,0,0,1-.054-.2.391.391,0,0,1,.34-.406.305.305,0,0,1,.242.118.25.25,0,0,0,.063.069q.054.048.13.107a.77.77,0,0,0,.179.1.546.546,0,0,0,.211.041.6.6,0,0,0,.363-.107.841.841,0,0,0,.238-.262,1.188,1.188,0,0,0,.13-.331,1.4,1.4,0,0,0,.04-.3,2.06,2.06,0,0,0-.071-.534,4.2,4.2,0,0,0-.184-.535q-.112-.267-.242-.55T859.54,754.212Z" transform="translate(-631.838 -741.801)" fill="#fff" stroke="#fff" stroke-width="1"/>
    </g>
  </g>
</svg>
