<svg xmlns="http://www.w3.org/2000/svg" xmlns:xlink="http://www.w3.org/1999/xlink" width="1428" height="681" viewBox="0 0 1428 681">
  <defs>
    <clipPath id="clip-path">
      <rect id="Rectangle_2" data-name="Rectangle 2" width="1428" height="681"/>
    </clipPath>
  </defs>
  <g id="Group_1" data-name="Group 1" transform="translate(0 -287)">
    <g id="World_map_2" data-name="World map 2" transform="translate(0 287)" clip-path="url(#clip-path)">
      <rect id="Rectangle_1" data-name="Rectangle 1" width="1428" height="681"/>
      <g id="shokunin_World_Map" transform="translate(178.262 96.021)">
        <path id="Path_1449" data-name="Path 1449" d="M356.392,163.9l-4.335,5.779-2.889,2.89-5.779,3.177-.868,2.6s-2.312,2.312-2.022,3.758a27.368,27.368,0,0,1,.29,4.045,75.729,75.729,0,0,1-5.78,4.912,28.189,28.189,0,0,0-4.047,3.756,16.5,16.5,0,0,1-2.311,2.312,17.447,17.447,0,0,0-3.468,4.045c-1.157,1.734-2.312,2.889-2.89,3.755A18.228,18.228,0,0,0,319.116,211a32.543,32.543,0,0,1-3.179,6.935l-.579,1.444c.29,4.913.289,5.78.868,7.514s1.157,1.154.578,4.912-.578,5.2-1.155,6.935-2.312,4.911-2.889,6.357,1.155,4.044,1.155,4.044.868,3.758.289,4.624.289,2.6.289,2.6a33.661,33.661,0,0,1,4.624,3.179c1.155,1.155,3.179,2.89,3.468,3.756s2.6,4.913,2.89,5.78a47.2,47.2,0,0,0,3.179,4.92c.578.868,3.468,4.047,3.468,4.047a40.823,40.823,0,0,1,4.624,4.044c.867,1.155,3.468,1.733,4.333,2.6s2.89.576,4.045,1.446,3.468-.579,4.624,0,4.336-.578,5.2-1.155,2.889-2.6,4.334-1.734,2.311,0,3.468.289,2.889-1.154,4.044-1.154,4.045-1.157,4.912-1.157,3.758-1.736,4.914-1.736,2.6-1.153,4.044-.576.867-1.154,3.468-.289,3.468,0,4.334.865,2.025,0,2.891,1.158,2.311,2.021,2.6,3.177,2.022,2.313,2.022,2.313l1.734.288s2.313-1.733,2.89-.576,3.179.868,3.179.868l2.6,2.889.868,1.155s1.734,4.624,1.444,6.358-.289,5.49-1.155,6.356S406.1,308.1,406.1,308.1s-1.157,1.155,1.444,3.468a39.724,39.724,0,0,1,5.2,5.488c.868,1.157,3.18,4.337,3.466,6.359s.868,3.177,2.025,5.779,2.6,2.89,2.889,5.781.867,2.89.578,4.911-1.155,2.312-.289,3.756,2.021,4.047,1.734,4.913-.868,4.623-.868,4.623l-.578,1.734-2.6,4.914-1.734,2.6c-.578,2.022-1.733,4.045-1.444,6.935s-1.444,2.889.867,5.777,3.466,6.07,4.912,8.671a23.227,23.227,0,0,1,2.6,6.934c.29,1.734,1.446,2.313,2.023,4.624a19.556,19.556,0,0,1,.867,4.912c0,1.444-.29,5.2.29,6.069s.867,3.469,1.155,4.624-.868,1.446.867,3.469,2.89,3.177,4.045,4.623a7.024,7.024,0,0,1,1.734,2.89c.867,2.022,2.022,3.18,2.312,4.912s.576,6.067,1.444,8.091S441.061,439,441.061,439s3.18,2.022,4.335,1.733,3.468-2.887,5.2-2.022,3.179,0,4.623,0,2.89-1.734,4.336-1.734,3.466-2.312,4.624-1.733,2.6-.58,4.044-2.025,2.312-2.6,4.912-4.911,2.312-2.313,4.045-3.758,3.469-4.624,5.491-5.2,2.6-2.6,3.177-4.044a13,13,0,0,1,1.734-3.469c.868-1.154.289.293,1.734-3.466s3.181-5.2,4.626-6.069,2.311-2.6,3.177-2.89,2.312.867,1.734-1.734,0-6.356-.576-7.223-1.447,2.021-1.157-2.315,3.468-8.668,3.468-8.668,4.334-5.49,5.78-6.356,1.733-1.733,3.758-2.89,6.356-4.044,6.356-5.49,1.734-5.2,1.734-6.07a52.224,52.224,0,0,0-.576-6.646c-.579-4.911.576-3.756-1.157-8.38s-2.025-10.4-3.179-11.847-.579-5.2-.579-6.358,2.025-4.045,2.891-5.2,4.623-5.781,4.623-5.781,5.779-6.645,7.8-9.823,4.045-6.069,5.49-7.224,4.913-3.759,6.935-6.648,6.069-8.378,6.359-9.247a26.664,26.664,0,0,1,2.6-3.755s3.179-3.758,3.758-5.78,3.465-13.293,2.887-12.715-4.044,1.155-5.2,1.444,1.736,1.444-6.646.868-12.713.867-12.713.867c-2.6-.579-4.624,2.311-5.492-1.734s-1.446-6.356-3.177-9.246-2.891-4.045-5.49-7.8-2.313-2.023-4.626-4.911-2.89-2.025-4.334-5.78-2.6-2.311-4.334-7.513-2.89-5.781-3.757-8.67-2.022-3.758-2.6-6.358-7.223-15.892-8.091-16.76-2.312-5.491-2.023-4.623,4.335,3.756,4.335,3.756a15.3,15.3,0,0,1,3.179-.868c.867,0,4.334,3.18,4.334,4.334s6.071,6.648,7.514,10.693,3.181,6.935,3.468,8.091,3.179,5.78,4.335,7.514,4.911,5.2,5.488,6.935,6.07,7.513,6.07,11.269,2.6,8.668,2.889,9.824,5.49,2.6,5.49,2.6l6.937-1.734s10.4-6.648,11.558-6.648,10.4-4.334,10.4-4.334,3.755-3.466,6.355-5.488,5.491-5.779,6.07-7.514,1.733-2.022,4.044-4.624,5.491-5.2,3.469-6.935-3.18-1.155-6.069-4.045-2.6-2.311-4.624-6.069.289-8.091-4.047-3.755-2.6,5.49-6.935,6.359-6.069,3.755-8.091.865-4.044-1.155-5.2-5.491-2.023-4.624-2.311-6.356,0-1.734-2.312-6.07-.578-10.981.867-7.224,3.756,4.334,7.514,6.935,5.491,4.624,8.957,4.913,6.357,0,6.935.576,1.155-.288,2.6.289,2.021-.865,2.6,1.444,3.757,2.6,5.2,4.045,1.445.868,5.2,1.444a72.163,72.163,0,0,0,8.96.579l5.488-.29,6.358.576s4.626,2.6,5.78,2.6,1.444,3.18,4.334,4.913,3.468,2.022,5.2,4.045,1.445,2.89,3.756,4.912,6.071-.288,6.649-1.153,3.465-2.312,2.89,0,2.887,1.443,2.021,6.935-1.446,4.044,0,7.8,7.8,15.315,8.092,18.782,2.022,2.312,2.311,5.492,2.022,4.333,2.022,6.645,2.025,2.889,2.312,4.624,3.469.288,4.335,0,4.912-4.047,4.912-4.047,1.737-.576,1.446-3.468,0-2.311,0-6.645-1.733-4.334-.867-8.667,3.177-6.937,3.757-8.959,2.89-5.49,4.044-5.78,7.514-3.466,8.96-5.491a60.348,60.348,0,0,1,6.069-6.645c2.311-2.311,6.356-5.2,7.224-4.334s.578.578,2.023.578,4.045,1.157,6.067,1.446,6.07,5.2,6.937,7.8.289,2.022,3.468,5.78,6.069,1.443,6.069,6.067,0,4.334,1.446,6.069,3.177-3.179,4.911-2.6,2.022-.578,3.466,4.045,2.311,4.624,2.6,9.247-.29.289-.29,4.044-.29,4.047.29,7.513,2.6,4.626,2.311,5.2c0,0,1.733-4.912,1.154-8.381s0-8.378,1.446-9.823,2.891-2.89,4.045.867,1.734.867,4.334,5.2,4.913,3.466,5.2,5.49,1.737,2.313,3.756,4.045,3.757-.288,6.069-2.022,8.668-8.092,8.96-10.693,2.888-2.023-1.736-8.667-4.624-8.959-9.536-13-7.8-4.334-4.043-9.536,5.491-8.668,7.8-7.223,6.355,1.154,6.355,6.935-1.156,12.136,2.89,5.2,6.07-10.981,4.912-9.823,2.6-2.312,2.6-2.312.29-2.6,5.2-3.756,6.355-1.734,8.091-2.6,6.646-6.648,7.513-9.247,3.179-7.224,2.6-9.246-3.469-11.847-4.047-11.56-.288.29-4.043-3.755-6.359-6.935-6.937-8.67-2.023-2.023-.29-4.334,2.6-2.022,2.891-4.045,2.6-3.756-1.736-2.311-1.156.579-4.912.29-13.58,2.022-8.667-4.045,6.354-9.824,7.222-9.824,5.2-4.913,5.491-.29,2.022,3.466,2.312,6.356,6.069-3.177,6.069-3.177a9.046,9.046,0,0,1,3.466,2.022c1.446,1.444,1.446,6.069,1.446,6.069s-1.155-1.446,2.023.867,6.645,1.155,6.645,6.069,0,5.2,2.023,6.357,4.044.579,5.781-.867,4.622-6.646,4.622-6.646.289-2.023-4.334-4.913a89.29,89.29,0,0,1-9.245-6.356c-1.736-1.444-1.157-5.778.575-7.514s2.6-2.6,2.023-4.912.868-4.047,5.2-3.758,5.2-.288,5.2-.288.869.576.869-1.157,5.489-9.825,4.043-9.825.293-2.022-.578-5.2,2.89-8.091-.288-10.4-4.047-3.469-6.069-6.935S811.811,96,804.3,95.134s-10.981,1.734-12.715-.576-2.6,3.466-3.755-3.469a17.7,17.7,0,0,1,1.734-11.56s4.623-2.889,5.777-4.912,5.779-2.89,9.539-1.444,9.245,1.155,13.87,2.025,4.334,3.755,6.646,0,0-5.491,1.733-7.514,3.756-5.2,5.2-3.18,4.338,4.045,6.65,1.444,3.177-2.889,3.177-2.889l1.153,1.157s2.6-1.447,2.6,1.153,2.6,5.492,1.157,7.514S843.6,74.618,843.6,79.53s0,4.047,3.176,8.093,5.2.576,5.78,4.912,1.154,3.469,4.335,6.358,2.6,2.889,4.912,4.623,3.469,3.469,3.469.579a55.538,55.538,0,0,0,0-6.935c-.291-2.6,2.312-4.624.575-8.959s-.288-4.045-3.755-7.224-5.781.579-6.934-4.045,5.488-6.646,7.224-7.224,4.332-4.045,4.909-1.733-4.333,10.692,4.048,1.733,4.623-5.2,4.623-5.2,4.334-.578,5.2,0,3.181-2.6,2.311-2.311-9.244-4.624-9.244-4.624L868.162,54.1s2.025-1.446,3.469-1.155,1.736-2.89,3.181-3.18,11.268,2.025,13.293,3.18,9.245,1.444,8.377.867-5.488-4.045-5.779-5.2-10.4-3.468-13.58-3.179-6.068,1.154-8.669.288-6.357-3.179-8.381-3.179-27.451-4.912-28.606-4.623-2.891,5.778-3.758,4.912-2.311-.868-6.359-2.023a89.017,89.017,0,0,0-16.76-2.6c-7.223-.578-12.133.578-14.157-1.734s-6.356-1.444-11.269-1.734-10.692,0-13.293,0a95.571,95.571,0,0,1-10.113-.578c-1.446-.29-3.179-2.312-4.912-2.6s-1.447-.867-4.913-1.444-3.179-4.334-4.334-1.157-.579,2.312-2.312,3.468S735.82,35.9,734.663,35.9s-5.777.289-6.646-.289-2.312-1.155-5.2-1.155-2.89.288-6.646-.29-6.646-.29-10.114-2.022-3.468-2.89-6.358-2.6-2.887-.578-6.935-.578-8.956,2.312-11.558,2.6-8.378-.29-10.4-1.157-2.6-2.889-10.115-2.023-11.847.868-10.4-1.444,3.179-4.623,4.045-4.912,2.889-1.733,1.443-2.311a17.179,17.179,0,0,0-6.355-1.734c-3.469-.289-3.181,1.155-8.381.578s2.89-2.022-7.8-1.733A112.679,112.679,0,0,0,618.8,17.985c-1.157,0-2.6-2.311-5.491,1.155s-6.938,5.49-12.715,5.779-6.069-.578-11.557,1.444-8.96-.578-7.8,4.045,2.6,6.358,2.6,7.224-2.6,6.646-5.778,3.179-8.96-17.049-6.359-7.8,8.378,12.426,2.89,13.87-4.914-.578-5.781-1.157,0-4.623-.289-6.935a7.74,7.74,0,0,0-2.022-4.912c-1.154-1.157-.868-2.89-3.179-3.468s-.289-1.734-4.045-1.734-6.934-2.312-6.067,2.89,1.732,1.734,4.043,6.646,6.646,1.444,3.469,4.912-11.558,2.312-13.582.868-1.444.578-5.2-2.023-2.6-4.624-6.933-2.6-5.78,5.78-7.514,4.334-5.779,2.022-7.224.29-7.225-1.734-8.38,0-4.624,1.444-9.536,3.756-3.469.288-9.536,5.2-9.538,8.957-11.558,5.778-13.005-8.668-8.67-9.536,6.358-2.6,8.67-.578,6.07,1.446,6.645,0,3.18-2.89-.289-4.623-3.756-.579-9.246-2.6,0-1.444-7.514-2.6a121,121,0,0,1-12.715-2.311c-2.021-.578-4.912,0-7.8-.289s-4.912-.867-7.514-.578-4.044-.289-7.513,2.312-6.07,3.756-8.381,5.778-8.378,6.069-10.113,7.514-7.8,6.067-8.381,7.8.578,3.179-1.734,4.334-4.623,1.155-6.357,1.444,0-2.6-1.734.289-1.155,13.293.289,11.847.578-6.067,6.935-1.732,10.4,3.755,10.114,7.8,4.334,3.756,4.912,4.624,3.468-1.157,3.468-1.157,6.358-4.045,6.358-6.067,4.045-6.646,4.045-6.646-2.891-1.444-2.891-4.334.869-3.758,1.446-6.648-3.179,0,5.491-5.491S448,55.545,448,55.545s1.154,1.155-.29,2.889-4.045,6.359-4.623,6.935,2.6,5.2,4.044,5.2,4.335-1.157,6.07-.868,4.623-.865,5.49-.288,2.89,2.311,1.444,3.756-4.624,3.177-6.934,2.6-5.781-4.624-3.758,1.155-.289,7.224-2.023,6.935-5.49-3.177-4.912,1.157-3.755,7.223-4.623,7.223a22.365,22.365,0,0,1-2.6-.289s-2.6-.29-4.045-.29a8.959,8.959,0,0,0-5.2,2.6c-.868,1.155-2.023.29-3.468.29s0-1.734-2.89-2.312-4.623-1.155-6.356,0-4.334,1.733-5.491.867.579-2.891-1.734-1.733-4.045,4.334-4.912,4.624,2.6,0-.867.288a21.475,21.475,0,0,0-6.646,1.734c-1.734.579.578,4.045-2.6,5.2s-.865-1.444-4.045,1.155-3.758,4.913-4.912,5.2-.867.867-3.468,1.155a18.253,18.253,0,0,0-3.758.867c-1.444.289.29.868-2.889.289s-5.491.579-4.913,1.734,11.269,4.334,3.179,4.045-5.49,1.155-3.756,2.311,2.6,2.311,3.468,2.6,2.311,3.758,2.311,3.758,2.312-.29.868,1.733.578,2.6-.868,5.2-1.444.867-2.6,1.444-2.89,2.6-6.07.867a20.421,20.421,0,0,0-9.246-2.889c-3.756-.29-1.157-.867-3.756,1.154a7.033,7.033,0,0,0-2.889,6.935c.289,2.6.578,6.069-.29,7.8s-.867,3.468-.29,6.069a6.33,6.33,0,0,0,2.313,3.758s4.045.576,4.912.867,2.6-.578,4.912.865,4.624,2.025,6.069.29,7.224-3.756,8.96-5.49,2.889-2.311,2.022-4.045,1.734-6.069,3.179-6.935a25.1,25.1,0,0,1,4.623-1.734l3.468-5.2s2.89-3.18,4.334-2.89,9.535,3.18,8.959-.576.578-4.913,1.444-3.469,3.179.867,3.179.867a1.823,1.823,0,0,1,2.022.29c.867.865,2.022,4.624,3.756,5.49s3.179,1.734,4.335,2.311,2.312,0,4.624,2.023,4.623,3.18,4.911,4.045a14.166,14.166,0,0,0,2.313,2.89s2.022.578,1.444,1.734-3.466,4.624-4.912,5.2-5.2-.579-3.756.578,3.468,2.6,4.334,1.733,6.356-6.646,6.356-6.646-.289.289,0-1.446,0-3.755,1.446-2.889,2.312,2.023,2.89.868,1.155-.578-.29-1.444-4.912-5.78-6.646-6.069-6.07-3.18-6.07-3.18-.865-.867-2.889-3.177-2.6-1.734-3.18-3.758-2.312-4.623.868-4.045,5.2,2.6,8.091,4.334,2.313,2.311,4.913,4.045,2.891,3.469,4.912,3.18a3.78,3.78,0,0,1,4.335,3.756c0,2.6.576,5.49,1.154,6.069s2.311,1.734,2.89,2.89a43.853,43.853,0,0,0,2.6,5.2,35.77,35.77,0,0,1,2.6,3.469c.867,1.444,1.155-.29,2.022.289s2.023.288,2.023-.868a30.238,30.238,0,0,1,.288-3.179s4.048-1.155,2.892-1.734-4.626-4.045-4.336-5.2,0-3.466,1.443-3.177,2.891,2.889,6.07.576,6.935-3.468,5.779,0,.291,4.044,0,7.8,1.158,2.6,3.181,4.624a11.235,11.235,0,0,0,4.911,2.89c1.446.579,3.756.29,6.07.579s3.756-.868,5.78-.289,6.645-.29,7.513.289,4.336-1.155,4.623.867,1.446-.289.579,4.334a54.581,54.581,0,0,1-2.023,7.8c-3.179,6.069-4.334,7.514-5.78,7.8s-2.311,1.155-4.911.867-5.78,0-9.536-.867-10.693.867-13.582-.868-6.935-.289-8.671-2.311-4.622-1.734-5.778-2.89-1.733-4.333-1.733.29-2.6,4.912-3.179,7.224.865,1.155-2.313.867-4.045,1.444-8.668-2.022-6.935-3.468-9.246-4.913-4.624,2.6-6.935-2.022-5.491-.868-5.78-4.624a16.739,16.739,0,0,1,.289-5.779c.291-2.312,3.468-4.334,2.023-5.2s-.29-2.312-2.312-1.444-4.912,1.155-7.224,2.022,5.2,0-6.069.868-14.449,2.022-14.449,2.022-.867-.578-2.312.578-3.468,2.89-5.49,2.023-3.179-.579-4.912-.289-2.889-1.444-4.912,0-4.334,2.022-5.2,1.443a13.679,13.679,0,0,1-2.349-2.9Z" transform="translate(88.735 4.765)" fill="#404040"/>
        <path id="Path_1450" data-name="Path 1450" d="M502.419,279.481c-.867,3.18-4.045,7.8-4.045,7.8l-5.781,2.89a11.945,11.945,0,0,1-3.177,2.023,32.495,32.495,0,0,0-4.045,1.734s-2.6-.579-1.734,2.021,1.157,5.781.867,6.646a20.8,20.8,0,0,0-.288,4.914c0,2.311-.867,5.2-2.312,5.777s-2.89,1.157-2.6,3.18.29,8.091.29,8.091l3.758,5.78a6.077,6.077,0,0,1,3.468-.867c2.31,0,4.623-2.021,4.623-2.021s2.6.575,2.311-2.6,1.158-6.935.867-7.8,2.6-4.624,2.6-5.49,2.89-4.911,2.89-6.358,2.022-3.756,2.311-5.488.578-5.78,1.155-6.935a7.683,7.683,0,0,0,.868-3.468v-3.468l-2.054-6.368Z" transform="translate(136.027 79.322)" fill="#404040"/>
        <path id="Path_1451" data-name="Path 1451" d="M674.753,319.458c-.867,1.154-1.444,13.582-2.022,15.026s-1.734,8.959-1.154,10.69,1.443,8.092.867,10.115.289,8.38-1.158,8.091-2.019.29-2.019,1.155,2.019,2.6,2.019,2.6a37.516,37.516,0,0,0,4.915-.289c1.444-.289,4.334-1.734,6.646-1.734s3.758-1.734,5.779-1.734,6.359-1.443,7.514-.867,2.889-3.468,4.912-2.6,6.359-2.023,8.381-2.023,2.89-3.18,5.2-2.6,6.646-1.155,8.67-.291,5.2-2.889,6.645,0,5.781,4.047,5.781,5.491-.293,4.624-.293,4.624l3.469-.29s5.488-3.468,6.358-3.468,2.89-2.889,2.89-1.443-1.736,4.624-2.312,6.067.576,3.18.576,3.18,2.892,1.444,1.736,4.044.288,2.025,0,4.045,0,1.155,1.153,2.311,3.183,3.183,4.914,2.891,2.311-2.022,3.757-1.155,4.333.289,5.2,1.446-5.488,4.044,5.492-.867,12.133-6.07,13.579-7.8,3.183-3.466,4.336-4.623a14.766,14.766,0,0,1,3.757-3.468c3.468-2.6,3.468-1.444,6.649-6.357a51.791,51.791,0,0,1,6.069-7.513c.578-.868,1.733-1.155,2.022-4.626s2.6-6.645,2.6-7.8.867-2.887.578-4.912,1.157-4.911-.578-7.8.867-4.044-1.734-5.2-4.334-.576-4.912-2.6-2.891-1.734-3.758-7.224-4.334-6.07-4.334-6.07-3.468-1.444-2.6-2.021,1.157-4.626.869-5.781-.29-3.756-1.156-5.488-1.445-4.045-2.312-6.07-2.311-2.6-2.89-4.912a11.284,11.284,0,0,0-1.733-3.756c-.291-.578-.87-3.466-1.446-.29s-1.736,9.246-1.736,9.246-2.312,4.914-3.179,6.359-1.733,5.2-3.177,4.911-2.315,1.447-3.468,1.155-2.89.29-3.757-.576-3.179-3.179-4.336-3.469-2.022-2.6-2.89-2.6-2.312-2.025-2.022-3.18.576-3.755.867-4.912A19.829,19.829,0,0,1,760,280.732S760,279,758.554,279a40.062,40.062,0,0,1-4.913-.29c-3.177-.29-4.043-.578-5.2-.578s1.158-.578-2.022.289-4.623,3.18-6.646,5.2-.288,1.443-2.019,2.022-1.445-1.446-2.6,1.734.579,4.044-.291,4.623-6.933-2.022-6.933-2.022,1.444-.29.288-1.734-2.311-3.466-4.043-2.6-3.183,1.446-4.336,2.89-1.157,2.6-2.023,3.755-3.177,1.155-3.468,2.312-.289,4.045-1.154,4.334-1.156-1.153-2.022-1.443-.579-2.6-1.156-1.155-1.155,1.154-2.022,3.466-1.157,4.335-2.023,4.624,0,.578-2.6,2.023-3.177,1.444-6.933,3.179-2.889,1.734-5.49,2.022-3.18,1.157-4.913,1.446a7.075,7.075,0,0,0-4.624,2.311,8.931,8.931,0,0,1-4.333,2.6,5.85,5.85,0,0,0-2.26,1.425Z" transform="translate(189.954 78.361)" fill="#404040"/>
        <path id="Path_1452" data-name="Path 1452" d="M692.472,220.963c-1.154,1.736-4.911,6.935-6.355,7.225s-2.891,1.734-4.047,1.444-3.756,0-4.623,3.756-2.312,5.78-3.181,5.49,1.444,5.49-3.466,3.18-3.177,2.023-3.757,3.18.867,4.334,1.155,5.49a18.1,18.1,0,0,0,2.312,4.911c1.155,1.734,2.022,3.756,4.045,3.181s8.378,0,8.378,0a14.213,14.213,0,0,0,3.758.867c1.444,0,1.734-.578,2.6-.578s2.6-2.891,2.312-3.179-1.154-1.157.578-2.891,3.756-2.311,4.047-4.334-.578-2.022.289-3.18,2.889-.864,2.312-2.022.576-.867-.579-3.18-2.6-3.179-1.446-6.069,2.315-3.468,2.025-5.2,1.444-2.312-.579-4.335-2.889-2.6-4.334-3.18l-1.425-.591Z" transform="translate(189.285 62.711)" fill="#404040"/>
        <path id="Path_1453" data-name="Path 1453" d="M731.641,243.7c1.158-.289,5.2-3.179,5.492,2.023s.575,3.755,2.312,6.645,2.886,3.759,4.909,2.313,4.334-1.447,4.912-4.045.579-2.6,2.312-2.6,2.312-.289,3.183.869,1.44,0,5.2,2.021,6.934,1.443,9.249,3.468,3.468,1.736,6.645,2.89,1.733-.578,4.623,2.6,1.737,4.044,3.179,5.49,2.6-1.157,2.023,2.311-4.623,0,1.446,4.911,6.935,5.782,8.956,7.225,3.469,3.18,1.737,3.18-7.225,0-7.8-.868-3.179-1.446-4.914-3.468-5.488-3.468-6.354-5.2a3.6,3.6,0,0,0-3.469-2.312c-1.444,0-2.889,1.733-4.913,3.757s-1.153-1.154-3.756-.289a7.924,7.924,0,0,1-6.935-1.446c-1.446-1.155-1.154-2.889-3.465-2.022s-3.757.289-2.89-1.444a6.759,6.759,0,0,0,.288-4.047s.869-2.89-1.153-3.466-2.023-2.6-4.047-3.18a48.7,48.7,0,0,1-5.2-2.022,4.566,4.566,0,0,1-1.157-.289,30.909,30.909,0,0,0-3.179-.867c-2.311-.579-4.047,0-5.2-1.446a4.228,4.228,0,0,1-.579-3.468s4.623.578,0-2.89l-4.623-3.466a.635.635,0,0,0,.288-.868c-.3-.591,2.889-.013,2.889-.013Z" transform="translate(206.758 68.869)" fill="#404040"/>
        <path id="Path_1454" data-name="Path 1454" d="M629.842,224.78a4.741,4.741,0,0,0,3.757,1.157c2.311-.29,4.043,4.623,5.491,6.356a18.858,18.858,0,0,0,5.49,4.624c3.177,2.022,2.889-1.734,7.224,4.334s2.311,2.312,4.334,6.067,3.179,5.781,4.334,6.65,2.023,3.176,2.314,4.044,2.31,3.466,2.31,4.334.579,3.179-1.154,5.2a6.5,6.5,0,0,1-3.18,2.312s-3.468-1.734-4.623-3.468a76.234,76.234,0,0,1-4.624-6.645c-2.022-3.469-4.334-7.225-5.49-8.959s-2.89-3.47-3.757-5.2-3.179-6.935-4.334-7.514-1.446-2.311-3.469-4.334-1.733-3.756-2.6-4.912-2.889-3.759-2.889-3.759l.847-.282Z" transform="translate(178.519 63.798)" fill="#404040"/>
        <path id="Path_1455" data-name="Path 1455" d="M209.055,456.386c-2.023-1.155-6.357-3.179-7.8-4.334s-5.779-7.516-5.779-7.516l-3.18-6.069s-3.755-4.623-2.889-6.356,2.6-2.89,2.6-3.756,1.733-3.18.288-4.045-1.444-1.155-2.312-3.756-.867-4.914-2.022-5.491-2.023-4.334-3.179-4.623-2.312-2.312-2.312-2.312l-1.734-23.407s-.579-10.69-1.155-13,.867-7.223-.579-11.558.29-9.535-.578-11.269.578-6.645-.289-11.268,3.468-10.4,0-12.136-.867-4.336-3.756-4.336-4.912-1.446-7.513-3.466-7.514-5.781-8.959-7.227-6.069-5.2-7.513-6.356-2.89-6.069-4.045-7.514-1.733-5.777-3.468-8.378-4.045-6.934-4.624-7.8-6.935-8.38-6.935-8.38l.578-4.623s4.334-2.6,3.756-3.468.29-1.736-1.734-3.468a4.287,4.287,0,0,1,0-6.357c1.734-1.447,4.334-6.07,4.334-6.07l4.334-7.223s3.469-3.759,3.469-6.359,4.912-4.333,2.022-6.645-1.444-4.335-2.312-6.07-.289-2.889,2.312-4.623,7.224-8.091,7.224-8.091a37.521,37.521,0,0,1,4.334-.868c.867,0,2.312-9.249,4.913-3.18s3.468,2.89,2.6,7.224,1.155,3.469,2.311,2.313-.579.867,1.733-4.337,1.446-6.934,2.89-5.488,2.022,1.734,4.623,2.6,3.468.576,4.333,2.311.579-.578,5.491.29,11.847-1.734,10.981,1.154-2.6-.289,1.444,2.89,4.624,3.756,6.935,4.335,4.334.289,7.8,3.756,4.334,3.756,5.2,5.488,2.311.579,3.756,2.312,3.468,1.736,5.49,1.736,0-1.736,3.179.578,5.491,2.6,6.935,7.223,4.334,4.336,2.022,8.96-6.934,6.646-4.912,6.358,5.78-2.025,6.935-1.734,1.733-.867,3.468,0,2.023-1.155,1.734.867-.29,0-.29,2.023-.578-2.023,2.89-1.155,1.444-1.736,5.49,2.022,4.047,2.6,5.49,4.624,2.89-1.154,3.758-.289,3.468.288,6.069.867.867-1.733,4.913.867,8.091,1.733,8.957,4.045,3.18,1.444,4.334,2.89,1.733-.579,2.89,1.446,4.624,1.443,4.045,3.465.865.868.288,3.756-2.6,7.516-4.333,8.67-1.733,2.6-2.89,4.045-.867-1.444-2.312,2.6-1.155,4.624-2.311,8.38-.289,0-1.155,3.756-.289,6.069-1.155,10.4-.578,4.334-1.155,7.513,1.444-1.443-1.157,5.2-2.889,6.356-3.755,9.247.289.578-2.89,2.312-1.444,1.155-5.2,2.312-8.38,2.313-9.824,2.6-7.224,2.022-5.49,5.488,1.734,4.047,0,8.382-4.334,5.78-4.334,7.8-1.157,4.044-1.444,5.49,2.6-1.446-.867,2.89-3.756,3.179-4.913,5.78,0,.576-1.155,2.6-4.045,2.889-4.045,2.889.288,1.446-.868.868-.867.289-5.2-.868-4.912-4.043-5.49-2.022.289,3.18,2.89,5.2,6.935,2.6,5.779,4.624a20.685,20.685,0,0,1-2.022,3.179c-.868,1.157,1.155.289-.868,1.157s-3.179,4.624-4.045,4.624-1.446,1.444-2.6.867-4.044-2.6-4.623-1.446-1.734-1.446-1.446,2.6.868,6.357-.578,7.225-4.913,0-4.913,0l-.578-1.446-2.022.578s-.867,3.468.578,4.045,1.155,1.154,2.6,2.889.579,4.913.579,4.913,0,.868-1.444,2.312a8.8,8.8,0,0,0-2.312,3.468c-.29.867-2.023,4.624.578,4.334s4.624-1.734,4.624,2.89,1.155,3.469-.289,6.646-2.6,3.468-2.89,6.356.29,3.179.868,4.913,2.023.867.578,1.734c-1.438.822-5.764-.039-5.764-.039Z" transform="translate(37.271 57.594)" fill="#404040"/>
        <path id="Path_1456" data-name="Path 1456" d="M171.775,270.647l-2.022-2.889a4.028,4.028,0,0,0-2.312-2.023c-1.446-.288-4.624-4.045-4.624-4.045a4.306,4.306,0,0,1-1.444-3.177c0-2.023-1.157-5.2-.29-8.668s1.157-7.8.868-8.959,1.444-1.444-.578-2.6-6.069-1.444-8.67-1.444A20.636,20.636,0,0,0,146.345,238c-.578.289,3.179-8.668,3.756-10.113s3.179-7.8,3.179-8.668.867-1.157-.867-2.311-4.623-1.734-6.358-.868-1.444-1.155-2.889,2.311-2.89,7.225-4.624,7.8a56.864,56.864,0,0,0-5.2,2.312s-4.334-.289-5.78-.578-7.513-3.468-8.668-5.49-1.733-6.359-1.733-8.38,3.177-8.091,2.889-9.536,3.18-7.224,2.89-8.092.578-3.756,1.444-4.912,5.2-2.6,6.358-3.756a13.247,13.247,0,0,1,5.2-3.179,21.4,21.4,0,0,1,5.2-1.155c1.444,0,5.2-3.179,5.779,0s3.18,2.022,4.624,2.311,1.734,1.734,4.045-2.022,4.623-4.913,4.623-4.047,3.756-.288,4.334.579,1.734-.579,3.756,1.155,4.912,2.023,4.623,2.889,1.155.867,1.155,1.734,1.157-2.023,1.157,3.177a21.96,21.96,0,0,0,1.444,8.381s2.022,4.335,2.889,3.468,2.6-3.177,2.6-3.177,2.89-1.734.868-7.8-.578-7.8-1.155-9.825-.579-3.18,2.889-5.78,11.847-8.38,13.87-9.535,6.645-4.334,6.645-4.334a4.176,4.176,0,0,0,2.023-3.179c.289-2.311,5.779-6.358,6.069-7.513s4.047-4.044,4.047-4.044,4.044-2.313,3.755-3.756,5.2-4.044,6.069-4.044,5.491,1.443,5.491-1.158,0-3.179,2.89-5.49,6.645-5.78,8.091-5.78,6.357-2.6,8.38-3.177,8.381-3.469,2.6,0-2.023,1.444-3.179,4.334-2.023,6.646,3.468,2.311,5.2-5.2,7.224-5.49.578.867,4.912-.579,4.624-2.022,4.624-2.022,2.023-1.734.867-2.6,1.157-2.023-3.179-.29-4.045,2.023-6.935,1.155-7.224-.579-4.045-3.469,7.224-3.756,4.623-4.912-9.246.29-10.113.578-2.89-.289-4.624,0-1.155-2.31,0-2.889a50.02,50.02,0,0,1,9.536-3.469c4.623-1.155,15.894-1.444,18.494-1.444s6.067.579,8.091-.867,6.069-3.755,6.646-4.913A13.038,13.038,0,0,1,294,94.961s2.6-2.6,1.155-3.756-2.89-3.756-4.045-3.179-.288,4.047-2.6.289-2.023-4.334-3.179-5.2-2.312-.29-1.444-4.334a17.716,17.716,0,0,0,.578-5.78s.867-3.466,0-3.755-1.444-1.155-2.889-.29-9.536,4.913-11.269,5.78-4.047-3.468-3.18-5.49.289-.868-.867-3.756-5.779-3.469-7.513-3.469-5.779-2.6-6.935-.867a51.65,51.65,0,0,1-8.381,7.8c-1.155.579-2.889-4.912-3.755,4.045s3.179,11.56-1.444,12.137a23.679,23.679,0,0,0-8.67,3.177s-3.755.29-3.755,2.6-1.444,7.8-3.18,8.38-6.069-.288-7.513-2.022.289-8.091.289-8.091l2.6-2.6S199.51,83.691,199.8,82.535s-5.49-3.177-6.067-4.912-.868-5.491-.289-6.935,8.38-8.38,12.425-9.824,10.981-4.623,13-5.2,5.49-.289,6.646-1.733a9.4,9.4,0,0,0,1.444-4.045s-.578-4.047.578-3.469,3.179,1.446,3.468,2.312.29,2.89,2.312.576,4.624-3.179,6.935-4.333,5.779-.867,7.8-2.022,5.49-2.312,5.779-5.2-.867-2.022-2.312-2.312.578.29-4.334,2.6-3.468.578-6.935,2.311-3.758,2.023-4.045.579a8.906,8.906,0,0,1,.578-3.756s.29-.29-1.733-.867-2.023.289-2.312-2.311,1.444-6.358-1.444-5.2-5.49-.867-7.513,4.912-8.959,11.848-10.693,10.4-2.022-1.734-3.468-1.734-3.468-1.733-6.069-2.022a89.07,89.07,0,0,0-12.425,0c-2.023.29-4.334-1.155-6.07.579s-4.333,4.045-4.333,4.913-2.6-3.18-3.468-2.89-3.18-1.155-5.779-1.155-4.335-1.446-5.2-1.446.865-2.312,0-2.6-19.652-.867-19.652-.867-6.067-2.311-8.378-2.022-8.668.576-13.583,1.444-12.137,3.756-14.448,4.045-7.513.29-8.38-1.155.289-1.155-.868-1.444-.288-.867-2.889-2.889S99.244,31.1,94.042,31.1s-8.38-.29-13,0S66.88,33.7,65.724,33.415s-10.4,1.446-11.848.579-8.67,3.177-10.113,2.889-6.935.29-8.38,1.157S27,40.64,29.314,42.085s2.022,2.889,2.311,3.756-2.311,2.889-2.311,2.889a17.764,17.764,0,0,1-3.756-1.155c-3.179-1.157-6.646-1.733-8.092-.867S13.421,49.31,14,50.466s4.623,3.756,5.2,2.889,2.023-2.6,3.756-2.311,4.335-1.155,2.023,1.734S20.645,57.112,19.2,57.4s-4.912.576-8.091.867S8.219,57.113,5.331,60,1.285,61.159.708,64.337s-1.155,3.177,0,4.045S-1.6,69.538,1,70.4,6.779,72.134,6.49,73s2.89-1.154,1.155,1.155-2.889,4.334.578,2.023,5.49-.579,8.38-2.023,5.78-1.733,7.513-2.889,2.6-2.889,5.2-3.758.867.29,1.155,1.734,0,1.733,1.734.576,1.733-.288,4.045-1.733,4.912-2.89,6.646-2.023a6.048,6.048,0,0,0,3.468.868c1.155,0-1.444-.29,1.155,0s-1.155-.868,7.513,1.155,10.982.578,11.558,3.756,1.734-.29,3.179,1.733,2.312.29,3.179,3.756,0,13-.578,14.159-.867,1.155-.578,3.756,3.756,15.027,2.6,15.892a9.959,9.959,0,0,1-3.756,1.155l-1.444,5.2a44.678,44.678,0,0,1-4.334,6.646c-2.023,2.311-4.623,5.2-6.069,7.223s-2.6,5.492-4.623,7.514-3.756,1.155-3.179,5.49,0,8.957.578,12.137,2.023,7.513,3.179,9.247,2.023,1.733,4.045,3.177,4.624,3.18,4.334,4.624.289,10.4.289,10.4a16.328,16.328,0,0,1,2.022,6.067,16.732,16.732,0,0,0,2.312,6.357l1.734,3.758s.867.29,2.023,2.6a12.3,12.3,0,0,1,1.444,3.466c.29,1.158.29.868.29,1.158s-.29-4.913-.868-6.359-.578-3.177-1.155-4.912.289-3.758-1.444-6.357a15.812,15.812,0,0,1-2.6-5.491c-.867-2.6-2.023-5.49-.867-6.069s2.022-4.333,4.334,0,2.6,3.18,2.89,6.648a11.228,11.228,0,0,0,2.022,6.067c.867,1.444,2.889,6.359,4.045,8.38s0-1.155,2.6,2.89a45.613,45.613,0,0,1,4.335,8.091c1.444,3.179,2.312,3.179,3.179,5.49s.289,1.734-.29,4.334A10.791,10.791,0,0,0,90,225.574s4.045,1.444,4.334,2.311,4.334,2.311,4.913,3.468,4.334,2.6,4.334,2.6,3.179,2.023,4.333,2.6a26.069,26.069,0,0,0,4.626,1.157s2.311.579,3.177.867a18.049,18.049,0,0,0,3.468.289s2.312-1.733,3.179-1.155,2.89-1.157,3.756.288,2.6,1.446,3.468,2.6,1.733,1.155,3.179,2.6,2.89,1.155,4.334,2.311,2.6,1.155,4.334,1.155a8.027,8.027,0,0,1,2.89.29c1.154.289,1.733-.868,2.889.579a32.7,32.7,0,0,1,2.889,3.755c.867,1.444,2.89,1.444,3.179,3.756s.867,2.025.867,4.045a3.844,3.844,0,0,0,2.023,3.469c.865.576,4.044,3.465,4.044,3.465l4.334.868,3.468,2.6,3.659,1.155Z" transform="translate(0 8.11)" fill="#404040"/>
        <path id="Path_1457" data-name="Path 1457" d="M206.771,10.309l17.338-2.167s6.067,0,9.1-2.167,0-2.167,9.1-3.9,6.5-2.6,11.271-1.734,6.067.868,11.269,1.734,6.5-.433,11.268.867,6.935.867,10.837.867H299.1c6.069,0,11.7-3.468,13.87-1.3s3.468,1.3,10.837,2.167,10.4-.868,13.437,0,8.237-.433,14.3,0,9.1-.433,11.269-.433,4.333-3.035,7.368-.434,6.935-.867,7.368,2.6,6.069.867.434,3.468-4.768,2.167-8.67,5.635,2.6,6.5-5.635,9.536-9.536-1.734-11.7,3.468,0,6.5-.433,9.1-1.3,3.034-3.9,5.2-2.6,0-8.668,1.3-10.4,2.6-13,2.6-8.236,2.167-9.97,3.034,3.035,2.167-6.069,4.768-11.271,2.168-13.87,5.635-1.734,3.9-3.468,6.07-6.935,10.837-9.536,8.67-3.9-1.734-6.069-3.9-3.468-5.2-4.768-6.935-1.734-6.069-2.167-8.67-4.335-8.668,0-7.8,6.935.434,8.236-.433,2.6-3.9,2.6-3.9-.433-4.768-1.734-7.369-.433-4.768-2.6-7.368-2.167-2.167-5.2-4.768-2.167-3.9-6.935-4.334-6.069-1.734-7.8-1.3-7.368-3.035-1.3-3.468a59.238,59.238,0,0,1,11.7.433s7.8-3.468,5.2-3.9,3.9-4.335-2.167-3.035-13,3.035-14.737,3.468-6.069.867-10.4,2.167-9.536.868-12.136,3.9,0,3.468-2.6,3.034,2.167-3.034-3.9,0-4.334,2.6-7.368,1.734a23.912,23.912,0,0,1-5.2-2.167s3.9-.434-1.733-.867-5.635-.433-7.8-3.035-.867-2.6.433-3.468a7.908,7.908,0,0,0,2.157-2.6Z" transform="translate(57.619)" fill="#404040"/>
        <path id="Path_1458" data-name="Path 1458" d="M199.9,23.223c-2.167,2.167-7.369,5.2-6.067,6.5S196,35.794,198.6,34.494s-.434-5.635,9.535-2.167,9.1-.433,11.269,4.768,3.9,9.1,2.6,10.4-1.733,2.6-6.069,3.9-6.069,3.035-3.034,5.2,8.67,4.334,11.269,5.636,10.4,1.734,6.5-2.6.867-5.636.867-5.636,7.369,5.636,4.769-.867-4.335-6.5-2.6-6.5,5.2,2.167,5.2,2.167l1.734-3.468L238.906,39.7l-5.635-5.635s4.767-4.334-1.734-5.2S225.468,28,222,25.83,218.1,22.8,211.6,24.1a58.47,58.47,0,0,0-8.668,2.167l-3.017-3.038Z" transform="translate(54.954 6.591)" fill="#404040"/>
        <path id="Path_1459" data-name="Path 1459" d="M123.22,28.876c2.6-2.6,9.536-8.668,12.137-6.935s6.5-1.3,9.535,1.3,6.5,5.635,9.1,6.5,5.635-2.167,8.236-.867,11.7-6.5,9.969-.433,2.167,7.8-2.6,8.236-9.969,3.9-12.137,2.6-3.9-2.6-7.369-.867-1.733,1.733-5.635.867-4.767.867-5.633-.434-3.468-.867-3.035-4.768,1.733-3.468-.868-3.468-4.767.434-6.5-.867-5.187-.868-5.187-.868Z" transform="translate(34.972 6.14)" fill="#404040"/>
      </g>
    </g>
    <rect id="Rectangle_5" data-name="Rectangle 5" width="1428" height="681" transform="translate(0 287)" opacity="0.18"/>
  </g>
</svg>
