<svg width="63" height="63" viewBox="0 0 63 63" fill="none" xmlns="http://www.w3.org/2000/svg">
<path d="M31.5 63C48.897 63 63 48.897 63 31.5C63 14.103 48.897 0 31.5 0C14.103 0 0 14.103 0 31.5C0 48.897 14.103 63 31.5 63Z" fill="#474747"/>
<path d="M31.48 14C21.8351 14 14 21.8351 14 31.48C14 41.1249 21.8351 48.96 31.48 48.96C41.1249 48.96 48.96 41.1249 48.96 31.48C48.96 21.8351 41.1249 14 31.48 14ZM31.48 15.52C40.3035 15.52 47.44 22.6565 47.44 31.48C47.44 40.3035 40.3035 47.44 31.48 47.44C29.866 47.44 28.3091 47.1984 26.8413 46.7542C27.4951 45.6612 28.3392 44.0987 28.6745 42.8088C28.8738 42.0439 29.6928 38.9241 29.6928 38.9241C30.2251 39.9404 31.7804 40.8004 33.4364 40.8004C38.3642 40.8004 41.9166 36.2685 41.9166 30.6369C41.9166 25.2378 37.5109 21.1992 31.8422 21.1992C24.7896 21.1992 21.0463 25.9326 21.0463 31.0866C21.0463 33.4836 22.3212 36.4673 24.3624 37.4175C24.6716 37.5614 24.8377 37.4991 24.9087 37.1993C24.9633 36.9718 25.2391 35.8628 25.3629 35.3468C25.4025 35.1821 25.3833 35.0399 25.2501 34.8777C24.5745 34.0582 24.0329 32.553 24.0329 31.149C24.0329 27.5448 26.7615 24.0566 31.4102 24.0566C35.4242 24.0566 38.2354 26.793 38.2354 30.7052C38.2354 35.1251 36.0036 38.1879 33.0995 38.1879C31.4956 38.1879 30.2947 36.8611 30.6799 35.234C31.1418 33.292 32.0337 31.1965 32.0337 29.7937C32.0337 28.5393 31.3605 27.493 29.9659 27.493C28.3263 27.493 27.0091 29.1882 27.0091 31.4607C27.0091 32.9068 27.4989 33.8862 27.4989 33.8862C27.4989 33.8862 25.8792 40.7341 25.5826 42.0087C25.2853 43.2823 25.3649 44.9976 25.4876 46.2748C19.6401 43.9079 15.52 38.1827 15.52 31.48C15.52 22.6565 22.6565 15.52 31.48 15.52Z" fill="white"/>
</svg>
