<svg xmlns="http://www.w3.org/2000/svg" width="88.563" height="61.137" viewBox="0 0 88.563 61.137">
  <g id="Group_1802" data-name="Group 1802" transform="translate(-5045.437 -121)">
    <path id="Path_1181" data-name="Path 1181" d="M-627,1881.43l15.406-17.085a18.5,18.5,0,0,1-10.843-16.845,18.5,18.5,0,0,1,18.5-18.5,18.5,18.5,0,0,1,18.5,18.5,18.457,18.457,0,0,1-6.547,14.121l-25.36,28.516Zm-47,0,15.406-17.085a18.5,18.5,0,0,1-10.843-16.845,18.5,18.5,0,0,1,18.5-18.5,18.5,18.5,0,0,1,18.5,18.5,18.46,18.46,0,0,1-6.548,14.121l-25.36,28.516Z" transform="translate(5719.437 -1708)" fill="#fff"/>
  </g>
</svg>
