<svg width="64" height="63" viewBox="0 0 64 63" fill="none" xmlns="http://www.w3.org/2000/svg">
<circle cx="32.001" cy="31.5" r="31.5" fill="#1C1E22"/>
<path d="M46.0526 22.5632C44.9567 23.0488 43.7794 23.3769 42.5417 23.5253C43.8187 22.7611 44.7742 21.5584 45.2297 20.1416C44.0298 20.8543 42.7167 21.356 41.3473 21.6248C40.4264 20.6415 39.2067 19.9898 37.8775 19.7708C36.5483 19.5518 35.1839 19.7778 33.9963 20.4137C32.8087 21.0495 31.8642 22.0597 31.3095 23.2873C30.7548 24.5149 30.6209 25.8914 30.9287 27.2029C28.4975 27.0808 26.1192 26.4489 23.948 25.3482C21.7769 24.2475 19.8615 22.7025 18.326 20.8136C17.801 21.7193 17.4992 22.7693 17.4992 23.8875C17.4986 24.8942 17.7465 25.8855 18.2209 26.7733C18.6953 27.6612 19.3815 28.4183 20.2187 28.9774C19.2478 28.9465 18.2983 28.6841 17.4493 28.2122V28.2909C17.4492 29.7029 17.9376 31.0713 18.8316 32.1641C19.7256 33.2569 20.9702 34.0068 22.3541 34.2864C21.4534 34.5302 20.5092 34.5661 19.5926 34.3914C19.9831 35.6063 20.7437 36.6687 21.7679 37.4298C22.7921 38.1909 24.0287 38.6127 25.3046 38.6361C23.1388 40.3363 20.464 41.2586 17.7105 41.2545C17.2227 41.2546 16.7354 41.2262 16.251 41.1692C19.0459 42.9662 22.2994 43.92 25.6222 43.9163C36.8704 43.9163 43.0194 34.6001 43.0194 26.5204C43.0194 26.2579 43.0129 25.9928 43.001 25.7303C44.1971 24.8653 45.2295 23.7942 46.05 22.5671L46.0526 22.5632V22.5632Z" fill="#999B9F"/>
</svg>
