<svg xmlns="http://www.w3.org/2000/svg" width="63" height="63" viewBox="0 0 63 63"><g transform="translate(-1528 -3584)"><g transform="translate(1481.001 3606)"><g transform="translate(47 -22)"><circle cx="31.5" cy="31.5" r="31.5" transform="translate(-0.001)" fill="#474747"/></g></g><g transform="translate(572.683 -74.076)"><path d="M-169.959-196.222c-3.165-3.153-7.715-3.5-13.276-3.5s-10.125.356-13.289,3.518-3.484,7.71-3.484,13.271.321,10.114,3.485,13.275,7.72,3.482,13.288,3.482,10.124-.32,13.287-3.482,3.486-7.712,3.486-13.275-.325-10.124-3.5-13.284Z" transform="translate(1170.052 3872.53)" fill="#fff"/><g transform="translate(975.882 3678.127)"><g transform="translate(0 0)"><g transform="translate(0 0)"><path d="M445.646,426.353a11.141,11.141,0,0,0-17.533,13.437l-1.58,5.771,5.905-1.548a11.133,11.133,0,0,0,5.323,1.355h0a11.14,11.14,0,0,0,7.88-19.014Zm-7.88,17.133h0a9.248,9.248,0,0,1-4.712-1.29l-.338-.2-3.5.919.935-3.416-.22-.35a9.259,9.259,0,1,1,7.843,4.338Zm5.079-6.932c-.278-.139-1.647-.812-1.9-.905s-.441-.139-.626.139-.719.905-.881,1.091-.325.209-.6.07a7.6,7.6,0,0,1-2.238-1.381,8.384,8.384,0,0,1-1.548-1.928c-.162-.279-.017-.429.122-.568s.278-.325.418-.487a1.9,1.9,0,0,0,.278-.464.512.512,0,0,0-.023-.487c-.07-.139-.626-1.509-.858-2.066s-.455-.469-.626-.478-.348-.01-.533-.01a1.023,1.023,0,0,0-.742.348,3.12,3.12,0,0,0-.974,2.321,5.412,5.412,0,0,0,1.137,2.878,12.407,12.407,0,0,0,4.755,4.2,15.959,15.959,0,0,0,1.587.586,3.816,3.816,0,0,0,1.753.11,2.867,2.867,0,0,0,1.879-1.323,2.326,2.326,0,0,0,.162-1.323C443.309,436.763,443.123,436.694,442.845,436.554Z" transform="translate(-426.533 -423.087)" fill="#474747"/></g></g><g transform="translate(0 0)"><g transform="translate(0 0)"><path d="M445.646,426.353a11.141,11.141,0,0,0-17.533,13.437l-1.58,5.771,5.905-1.548a11.133,11.133,0,0,0,5.323,1.355h0a11.14,11.14,0,0,0,7.88-19.014Zm-7.88,17.133h0a9.248,9.248,0,0,1-4.712-1.29l-.338-.2-3.5.919.935-3.416-.22-.35a9.259,9.259,0,1,1,7.843,4.338Zm5.079-6.932c-.278-.139-1.647-.812-1.9-.905s-.441-.139-.626.139-.719.905-.881,1.091-.325.209-.6.07a7.6,7.6,0,0,1-2.238-1.381,8.384,8.384,0,0,1-1.548-1.928c-.162-.279-.017-.429.122-.568s.278-.325.418-.487a1.9,1.9,0,0,0,.278-.464.512.512,0,0,0-.023-.487c-.07-.139-.626-1.509-.858-2.066s-.455-.469-.626-.478-.348-.01-.533-.01a1.023,1.023,0,0,0-.742.348,3.12,3.12,0,0,0-.974,2.321,5.412,5.412,0,0,0,1.137,2.878,12.407,12.407,0,0,0,4.755,4.2,15.959,15.959,0,0,0,1.587.586,3.816,3.816,0,0,0,1.753.11,2.867,2.867,0,0,0,1.879-1.323,2.326,2.326,0,0,0,.162-1.323C443.309,436.763,443.123,436.694,442.845,436.554Z" transform="translate(-426.533 -423.087)" fill="#474747"/></g></g></g></g></g></svg>