<svg width="25" height="26" viewBox="0 0 25 26" fill="none" xmlns="http://www.w3.org/2000/svg">
<path fillRule="evenodd" clip-rule="evenodd" d="M20.9051 4.33725C19.7764 3.20111 18.4335 2.30023 16.9541 1.68682C15.4747 1.0734 13.8883 0.759641 12.2868 0.763711C5.57136 0.763711 0.104505 6.22921 0.101791 12.9474C0.101791 15.0945 0.662319 17.1901 1.72773 19.0386L0 25.351L6.45897 23.6558C8.2456 24.6284 10.2472 25.1384 12.2814 25.1392H12.2868C19.001 25.1392 24.4678 19.6737 24.4705 12.9555C24.4752 11.3547 24.1624 9.7688 23.5505 8.28953C22.9385 6.81027 22.0394 5.46696 20.9051 4.33725ZM12.2868 23.0831H12.2828C10.4689 23.0833 8.68838 22.5952 7.12808 21.6702L6.75892 21.4503L2.92615 22.456L3.94813 18.7196L3.7079 18.3369C2.69378 16.7224 2.15693 14.854 2.15932 12.9474C2.16204 7.36383 6.70463 2.82124 12.2909 2.82124C13.6213 2.81829 14.9391 3.07923 16.168 3.58895C17.3969 4.09868 18.5125 4.84708 19.4502 5.79083C20.393 6.73007 21.1402 7.84686 21.6487 9.07663C22.1573 10.3064 22.417 11.6248 22.413 12.9555C22.4103 18.5391 17.8677 23.0831 12.2868 23.0831ZM17.8419 15.4976C17.5365 15.3442 16.0409 14.6086 15.7613 14.5068C15.4831 14.4051 15.2809 14.3548 15.0773 14.6588C14.8737 14.9629 14.2901 15.6483 14.1123 15.8518C13.9345 16.0554 13.7567 16.0799 13.4527 15.9278C13.1487 15.7758 12.1674 15.4542 11.0043 14.4173C10.099 13.6097 9.48827 12.6135 9.31048 12.3082C9.13268 12.0028 9.29148 11.8386 9.44484 11.6866C9.58192 11.5508 9.74886 11.331 9.90086 11.1532C10.0529 10.9754 10.1031 10.8492 10.2049 10.6456C10.3067 10.442 10.2565 10.2642 10.1791 10.1122C10.1031 9.95882 9.4937 8.46046 9.2399 7.85107C8.99425 7.26069 8.74316 7.3394 8.55587 7.33126C8.36189 7.32333 8.16776 7.31971 7.97362 7.3204C7.81925 7.32434 7.66735 7.36012 7.52745 7.42552C7.38756 7.49091 7.26268 7.5845 7.16065 7.70042C6.88107 8.0058 6.09524 8.74141 6.09524 10.2398C6.09524 11.7381 7.18644 13.1863 7.33845 13.3899C7.49045 13.5934 9.48556 16.6675 12.5393 17.9867C13.2668 18.3003 13.8341 18.4875 14.2752 18.6287C15.004 18.8608 15.6677 18.8269 16.1929 18.7495C16.7779 18.6626 17.9939 18.0139 18.2477 17.3027C18.5015 16.5915 18.5015 15.9821 18.4255 15.8546C18.3495 15.727 18.1446 15.6496 17.8419 15.4976Z" fill="#999B9F"/>
</svg>
