<svg xmlns="http://www.w3.org/2000/svg" width="16.882" height="15.91" viewBox="0 0 16.882 15.91"><path d="M21.124,17.646c-.417-.213-2.455-1.232-2.841-1.373s-.655-.211-.934.211-1.075,1.371-1.317,1.653-.491.316-.9.1a11.317,11.317,0,0,1-3.343-2.093,12.682,12.682,0,0,1-2.312-2.923.618.618,0,0,1,.183-.861c.209-.206.416-.491.622-.74a2.893,2.893,0,0,0,.416-.7.781.781,0,0,0-.036-.74c-.1-.213-.936-2.291-1.283-3.132-.327-.818-.677-.709-.934-.72s-.53-.016-.8-.015a1.512,1.512,0,0,0-.607.139,1.533,1.533,0,0,0-.5.381,4.759,4.759,0,0,0-1.455,3.518,8.279,8.279,0,0,0,1.7,4.364,18.644,18.644,0,0,0,7.1,6.369,24.344,24.344,0,0,0,2.37.89,5.629,5.629,0,0,0,2.618.164,4.278,4.278,0,0,0,2.8-2,3.577,3.577,0,0,0,.242-2.006c-.1-.167-.381-.275-.8-.486Z" transform="translate(-5.084 -6.315)" fill="#fff"/></svg>