<svg width="63" height="63" viewBox="0 0 63 63" fill="none" xmlns="http://www.w3.org/2000/svg">
<circle cx="31.499" cy="31.5" r="31.5" fill="#1C1E22"/>
<path d="M46.5946 24.9512C46.4162 24.315 46.0688 23.7389 45.5892 23.2844C45.0961 22.8158 44.4917 22.4806 43.8331 22.3105C41.3682 21.6608 31.4929 21.6608 31.4929 21.6608C27.3761 21.614 23.2602 21.82 19.1686 22.2777C18.5099 22.4604 17.9067 22.8031 17.4124 23.2752C16.9268 23.7424 16.5751 24.3186 16.3913 24.9499C15.9499 27.3278 15.7354 29.7423 15.7508 32.1608C15.7351 34.5771 15.949 36.9908 16.3913 39.3717C16.5711 40.0004 16.9216 40.5739 17.4085 41.0372C17.8954 41.5006 18.5018 41.8352 19.1686 42.0124C21.6662 42.6608 31.4929 42.6608 31.4929 42.6608C35.6151 42.7077 39.7362 42.5017 43.8331 42.0439C44.4917 41.8738 45.0961 41.5386 45.5892 41.0701C46.0686 40.6156 46.4156 40.0395 46.5933 39.4032C47.0462 37.0262 47.2664 34.6107 47.2508 32.191C47.2849 29.761 47.0649 27.3342 46.5946 24.9499V24.9512ZM28.3534 36.6548V27.6681L36.5697 32.1621L28.3534 36.6548Z" fill="#999B9F"/>
</svg>
