<svg width="40" height="41" viewBox="0 0 40 41" fill="none" xmlns="http://www.w3.org/2000/svg">
<path d="M39.8044 9.27531C39.8192 9.32992 39.8268 9.38623 39.8268 9.44286V18.2433C39.8268 18.4733 39.7039 18.6856 39.5043 18.8L32.1182 23.0529V31.4819C32.1182 31.5947 32.0886 31.7055 32.0323 31.8032C31.976 31.9009 31.895 31.9821 31.7974 32.0387L16.3788 40.9146C16.3435 40.9345 16.305 40.9473 16.2665 40.9611C16.252 40.9658 16.2385 40.9747 16.2232 40.9787C16.1154 41.0071 16.0021 41.0071 15.8943 40.9787C15.8766 40.974 15.8606 40.9642 15.8438 40.9579C15.8085 40.945 15.7716 40.9338 15.738 40.9146L0.322504 32.0385C0.224546 31.9823 0.14315 31.9012 0.086527 31.8035C0.0299044 31.7058 5.83966e-05 31.5948 0 31.4819L0 5.08043C0 5.02255 0.00808983 4.96639 0.0224026 4.91194C0.0272254 4.89343 0.0384267 4.87662 0.0449608 4.85811C0.0569399 4.82451 0.0682968 4.78997 0.0858766 4.7587C0.0978558 4.73785 0.115436 4.72105 0.129904 4.70176C0.148417 4.67609 0.165219 4.64964 0.186844 4.62709C0.205357 4.60873 0.229471 4.59504 0.250318 4.57901C0.273654 4.55972 0.294345 4.53887 0.320793 4.52363L8.02962 0.085737C8.12723 0.0295644 8.23787 0 8.35049 0C8.46311 0 8.57375 0.0295644 8.67136 0.085737L16.3794 4.52363H16.381C16.4066 4.53981 16.4284 4.55972 16.4516 4.57823C16.4724 4.59426 16.4958 4.60873 16.5141 4.62646C16.5367 4.64964 16.5527 4.67625 16.5719 4.70176C16.5855 4.72105 16.6041 4.73785 16.6153 4.7587C16.6336 4.79075 16.644 4.82451 16.657 4.85827C16.6633 4.87663 16.6745 4.89343 16.6794 4.91272C16.6941 4.96732 16.7018 5.0238 16.7019 5.08043V21.5703L23.1249 17.8718V9.44209C23.1249 9.38608 23.133 9.32898 23.1475 9.27531C23.1531 9.25602 23.1635 9.23922 23.1699 9.22086C23.1828 9.1871 23.194 9.15241 23.2116 9.12129C23.2236 9.10045 23.2411 9.08365 23.255 9.06435C23.2741 9.03868 23.2901 9.01224 23.3125 8.98968C23.3312 8.97132 23.3544 8.95763 23.3752 8.94161C23.3994 8.92231 23.4202 8.90147 23.4459 8.88622L31.1555 4.44833C31.2531 4.39208 31.3637 4.36247 31.4763 4.36247C31.589 4.36247 31.6996 4.39208 31.7972 4.44833L39.5053 8.88622C39.5325 8.90225 39.5533 8.92232 39.5774 8.94067C39.5974 8.95685 39.6207 8.97132 39.6392 8.9889C39.6616 9.01224 39.6776 9.03868 39.6968 9.06435C39.7114 9.08365 39.729 9.10045 39.7403 9.12129C39.7587 9.15241 39.7691 9.1871 39.7819 9.22086C39.7892 9.23922 39.7996 9.25602 39.8044 9.27531ZM38.542 17.872V10.5538L35.8445 12.1066L32.118 14.2523V21.5704L38.542 17.872ZM30.8339 31.1105V23.7872L27.1683 25.8808L16.7011 31.8548V39.2467L30.8339 31.1105ZM1.28488 6.19122V31.1105L15.4161 39.2461V31.8556L8.03382 27.6775L8.03149 27.6759L8.02837 27.6744C8.00348 27.6599 7.98248 27.6391 7.9593 27.6215C7.93908 27.6053 7.9159 27.5925 7.89832 27.5748L7.89676 27.5725C7.87591 27.5524 7.86144 27.5275 7.84386 27.5051C7.82768 27.4833 7.80855 27.465 7.79564 27.4426L7.79486 27.4401C7.78039 27.4161 7.77152 27.3872 7.7611 27.36C7.75068 27.3358 7.73714 27.3133 7.73061 27.2878C7.72267 27.2573 7.72112 27.2243 7.71785 27.193C7.71474 27.1691 7.7082 27.145 7.7082 27.1208V9.88983L3.98237 7.74322L1.28488 6.19122ZM8.35135 1.38353L1.92896 5.08043L8.34979 8.77717L14.7712 5.07949L8.34979 1.38353H8.35135ZM11.6912 24.4548L15.4169 22.31V6.19122L12.7197 7.74416L8.99293 9.88967V26.0083L11.6912 24.4548ZM31.4763 5.74613L25.0548 9.44286L31.4763 13.1398L37.8969 9.44209L31.4763 5.74613ZM30.8337 14.2523L27.1073 12.1066L24.41 10.5538V17.872L28.1356 20.0169L30.8339 21.5704L30.8337 14.2523ZM16.0578 30.744L25.4767 25.3668L30.185 22.6797L23.7682 18.9853L16.3802 23.2387L9.64665 27.1152L16.0578 30.744Z" fill="#FF2D20"/>
</svg>
