<svg width="364" height="375" viewBox="0 0 364 375" fill="none" xmlns="http://www.w3.org/2000/svg">
<path d="M363.795 84.7723C363.93 85.2714 364 85.7861 364 86.3037V166.736C364 168.838 362.877 170.779 361.052 171.824L293.546 210.694V287.731C293.546 288.762 293.276 289.774 292.761 290.667C292.246 291.561 291.506 292.303 290.614 292.82L149.695 373.942C149.372 374.124 149.021 374.24 148.668 374.367C148.536 374.41 148.412 374.491 148.273 374.528C147.288 374.787 146.252 374.787 145.267 374.528C145.105 374.485 144.959 374.395 144.805 374.337C144.482 374.219 144.145 374.117 143.838 373.942L2.94755 292.818C2.05225 292.304 1.30833 291.563 0.790819 290.67C0.273313 289.777 0.000533719 288.763 0 287.731L0 46.4329C0 45.9039 0.0739375 45.3907 0.20475 44.893C0.248828 44.7238 0.351203 44.5702 0.410922 44.401C0.520406 44.0939 0.624203 43.7782 0.784875 43.4925C0.894359 43.3019 1.05503 43.1484 1.18727 42.972C1.35647 42.7374 1.51003 42.4957 1.70767 42.2895C1.87687 42.1218 2.09727 41.9966 2.2878 41.8502C2.50108 41.6739 2.69019 41.4833 2.93191 41.344H2.93902L73.3872 0.783599C74.2793 0.270205 75.2906 0 76.3199 0C77.3491 0 78.3604 0.270205 79.2525 0.783599L149.701 41.344H149.715C149.95 41.4919 150.149 41.6739 150.36 41.8431C150.551 41.9895 150.764 42.1218 150.932 42.2839C151.138 42.4957 151.285 42.7389 151.46 42.972C151.585 43.1484 151.754 43.3019 151.856 43.4925C152.024 43.7854 152.119 44.0939 152.237 44.4025C152.296 44.5702 152.398 44.7238 152.442 44.9001C152.577 45.3992 152.647 45.9153 152.648 46.4329V197.143L211.352 163.341V86.2966C211.352 85.7847 211.426 85.2629 211.558 84.7723C211.609 84.596 211.704 84.4424 211.763 84.2747C211.881 83.9661 211.983 83.649 212.144 83.3647C212.253 83.1741 212.414 83.0206 212.54 82.8443C212.715 82.6096 212.862 82.3679 213.067 82.1618C213.237 81.994 213.449 81.8688 213.64 81.7224C213.86 81.5461 214.05 81.3556 214.285 81.2162H214.292L284.748 40.6558C285.639 40.1417 286.651 39.8711 287.68 39.8711C288.71 39.8711 289.721 40.1417 290.613 40.6558L361.061 81.2162C361.31 81.3627 361.5 81.5461 361.721 81.7139C361.903 81.8617 362.116 81.994 362.285 82.1546C362.49 82.3679 362.636 82.6096 362.811 82.8443C362.945 83.0206 363.106 83.1741 363.209 83.3647C363.377 83.649 363.472 83.9661 363.589 84.2747C363.656 84.4424 363.751 84.596 363.795 84.7723V84.7723ZM352.257 163.342V96.4573L327.603 110.649L293.545 130.26V197.145L352.264 163.342H352.257V163.342ZM281.809 284.337V217.405L248.306 236.539L152.641 291.139V358.698L281.809 284.334V284.337ZM11.7433 56.5851V284.337L140.896 358.692V291.146L73.4256 252.96L73.4043 252.946L73.3759 252.932C73.1484 252.8 72.9564 252.609 72.7445 252.448C72.5597 252.3 72.3478 252.184 72.1872 252.022L72.173 252C71.9824 251.817 71.8502 251.59 71.6895 251.385C71.5416 251.186 71.3668 251.018 71.2487 250.813L71.2416 250.79C71.1094 250.571 71.0283 250.307 70.9331 250.058C70.8378 249.838 70.7141 249.632 70.6544 249.398V249.391C70.5819 249.113 70.5677 248.818 70.5378 248.532C70.5094 248.314 70.4496 248.093 70.4496 247.873V90.3887L36.3972 70.7697L11.7433 56.5936V56.5851ZM76.3277 12.6449L17.6298 46.4329L76.3135 80.2195L135.003 46.4244L76.3135 12.6449H76.3277ZM106.852 223.506L140.904 203.904V56.5851L116.253 70.7782L82.1915 90.3873V237.705L106.852 223.506V223.506ZM287.679 52.5171L228.99 86.3037L287.679 120.092L346.362 86.2966L287.681 52.5171H287.679ZM281.807 130.26L247.749 110.649L223.096 96.4573V163.342L257.148 182.946L281.809 197.145V130.26H281.807ZM146.762 280.987L232.846 231.841L275.878 207.282L217.231 173.517L149.708 212.391L88.1662 247.822L146.762 280.987Z" fill="#FF2D20"/>
</svg>
